<?xml version="1.0" encoding="utf-8" standalone="no"?>
<!DOCTYPE svg PUBLIC "-//W3C//DTD SVG 1.1//EN"
  "http://www.w3.org/Graphics/SVG/1.1/DTD/svg11.dtd">
<!-- Created with matplotlib (https://matplotlib.org/) -->
<svg height="345.6pt" version="1.1" viewBox="0 0 460.8 345.6" width="460.8pt" xmlns="http://www.w3.org/2000/svg" xmlns:xlink="http://www.w3.org/1999/xlink">
 <metadata>
  <rdf:RDF xmlns:cc="http://creativecommons.org/ns#" xmlns:dc="http://purl.org/dc/elements/1.1/" xmlns:rdf="http://www.w3.org/1999/02/22-rdf-syntax-ns#">
   <cc:Work>
    <dc:type rdf:resource="http://purl.org/dc/dcmitype/StillImage"/>
    <dc:date>2022-03-17T00:25:46.466304</dc:date>
    <dc:format>image/svg+xml</dc:format>
    <dc:creator>
     <cc:Agent>
      <dc:title>Matplotlib v3.3.2, https://matplotlib.org/</dc:title>
     </cc:Agent>
    </dc:creator>
   </cc:Work>
  </rdf:RDF>
 </metadata>
 <defs>
  <style type="text/css">*{stroke-linecap:butt;stroke-linejoin:round;}</style>
 </defs>
 <g id="figure_1">
  <g id="patch_1">
   <path d="M 0 345.6 
L 460.8 345.6 
L 460.8 0 
L 0 0 
z
" style="fill:#ffffff;"/>
  </g>
  <g id="axes_1">
   <g id="patch_2">
    <path d="M 35.85875 316.4425 
L 454.32 316.4425 
L 454.32 17.989125 
L 35.85875 17.989125 
z
" style="fill:#ffffff;"/>
   </g>
   <g id="matplotlib.axis_1">
    <g id="xtick_1">
     <g id="line2d_1">
      <defs>
       <path d="M 0 0 
L 0 3.5 
" id="m3f5742bfd5" style="stroke:#000000;stroke-width:0.8;"/>
      </defs>
      <g>
       <use style="stroke:#000000;stroke-width:0.8;" x="54.879716" xlink:href="#m3f5742bfd5" y="316.4425"/>
      </g>
     </g>
     <g id="text_1">
      <!-- 0 -->
      <g transform="translate(53.073622 328.033437)scale(0.06 -0.06)">
       <defs>
        <path d="M 23.578125 36.625 
Q 23.578125 39.3125 25.453125 41.265625 
Q 27.34375 43.21875 29.984375 43.21875 
Q 32.71875 43.21875 34.671875 41.265625 
Q 36.625 39.3125 36.625 36.625 
Q 36.625 33.890625 34.6875 31.984375 
Q 32.765625 30.078125 29.984375 30.078125 
Q 27.25 30.078125 25.40625 31.9375 
Q 23.578125 33.796875 23.578125 36.625 
z
M 30.078125 66.40625 
Q 23.1875 66.40625 19.796875 58.984375 
Q 16.40625 51.5625 16.40625 36.375 
Q 16.40625 21.234375 19.796875 13.8125 
Q 23.1875 6.390625 30.078125 6.390625 
Q 37.015625 6.390625 40.40625 13.8125 
Q 43.796875 21.234375 43.796875 36.375 
Q 43.796875 51.5625 40.40625 58.984375 
Q 37.015625 66.40625 30.078125 66.40625 
z
M 30.078125 74.21875 
Q 41.75 74.21875 47.734375 64.640625 
Q 53.71875 55.078125 53.71875 36.375 
Q 53.71875 17.71875 47.734375 8.140625 
Q 41.75 -1.421875 30.078125 -1.421875 
Q 18.40625 -1.421875 12.453125 8.140625 
Q 6.5 17.71875 6.5 36.375 
Q 6.5 55.078125 12.453125 64.640625 
Q 18.40625 74.21875 30.078125 74.21875 
z
" id="DejaVuSansMono-48"/>
       </defs>
       <use xlink:href="#DejaVuSansMono-48"/>
      </g>
     </g>
    </g>
    <g id="xtick_2">
     <g id="line2d_2">
      <g>
       <use style="stroke:#000000;stroke-width:0.8;" x="127.478822" xlink:href="#m3f5742bfd5" y="316.4425"/>
      </g>
     </g>
     <g id="text_2">
      <!-- 100 -->
      <g transform="translate(122.060541 328.033437)scale(0.06 -0.06)">
       <defs>
        <path d="M 13.1875 8.296875 
L 28.515625 8.296875 
L 28.515625 64.015625 
L 12.015625 60.296875 
L 12.015625 69.28125 
L 28.421875 72.90625 
L 38.28125 72.90625 
L 38.28125 8.296875 
L 53.421875 8.296875 
L 53.421875 0 
L 13.1875 0 
z
" id="DejaVuSansMono-49"/>
       </defs>
       <use xlink:href="#DejaVuSansMono-49"/>
       <use x="60.205078" xlink:href="#DejaVuSansMono-48"/>
       <use x="120.410156" xlink:href="#DejaVuSansMono-48"/>
      </g>
     </g>
    </g>
    <g id="xtick_3">
     <g id="line2d_3">
      <g>
       <use style="stroke:#000000;stroke-width:0.8;" x="200.077929" xlink:href="#m3f5742bfd5" y="316.4425"/>
      </g>
     </g>
     <g id="text_3">
      <!-- 200 -->
      <g transform="translate(194.659648 328.033437)scale(0.06 -0.06)">
       <defs>
        <path d="M 18.21875 8.296875 
L 51.703125 8.296875 
L 51.703125 0 
L 7.421875 0 
L 7.421875 8.296875 
Q 16.546875 17.921875 23.375 25.296875 
Q 30.21875 32.671875 32.8125 35.6875 
Q 37.703125 41.65625 39.40625 45.34375 
Q 41.109375 49.03125 41.109375 52.875 
Q 41.109375 58.984375 37.515625 62.453125 
Q 33.9375 65.921875 27.6875 65.921875 
Q 23.25 65.921875 18.359375 64.3125 
Q 13.484375 62.703125 8.015625 59.421875 
L 8.015625 69.390625 
Q 13.03125 71.78125 17.890625 73 
Q 22.75 74.21875 27.484375 74.21875 
Q 38.1875 74.21875 44.703125 68.53125 
Q 51.21875 62.84375 51.21875 53.609375 
Q 51.21875 48.921875 49.046875 44.234375 
Q 46.875 39.546875 42 33.890625 
Q 39.265625 30.71875 34.0625 25.09375 
Q 28.859375 19.484375 18.21875 8.296875 
z
" id="DejaVuSansMono-50"/>
       </defs>
       <use xlink:href="#DejaVuSansMono-50"/>
       <use x="60.205078" xlink:href="#DejaVuSansMono-48"/>
       <use x="120.410156" xlink:href="#DejaVuSansMono-48"/>
      </g>
     </g>
    </g>
    <g id="xtick_4">
     <g id="line2d_4">
      <g>
       <use style="stroke:#000000;stroke-width:0.8;" x="272.677035" xlink:href="#m3f5742bfd5" y="316.4425"/>
      </g>
     </g>
     <g id="text_4">
      <!-- 300 -->
      <g transform="translate(267.258754 328.033437)scale(0.06 -0.06)">
       <defs>
        <path d="M 37.890625 39.015625 
Q 45.0625 37.109375 48.875 32.25 
Q 52.6875 27.390625 52.6875 20.125 
Q 52.6875 10.0625 45.921875 4.3125 
Q 39.15625 -1.421875 27.203125 -1.421875 
Q 22.171875 -1.421875 16.9375 -0.484375 
Q 11.71875 0.4375 6.6875 2.203125 
L 6.6875 12.015625 
Q 11.671875 9.421875 16.5 8.15625 
Q 21.34375 6.890625 26.125 6.890625 
Q 34.234375 6.890625 38.578125 10.546875 
Q 42.921875 14.203125 42.921875 21.09375 
Q 42.921875 27.4375 38.578125 31.171875 
Q 34.234375 34.90625 26.8125 34.90625 
L 19.28125 34.90625 
L 19.28125 43.015625 
L 26.8125 43.015625 
Q 33.59375 43.015625 37.40625 45.984375 
Q 41.21875 48.96875 41.21875 54.296875 
Q 41.21875 59.90625 37.671875 62.90625 
Q 34.125 65.921875 27.59375 65.921875 
Q 23.25 65.921875 18.609375 64.9375 
Q 13.96875 63.96875 8.890625 62.015625 
L 8.890625 71.09375 
Q 14.796875 72.65625 19.40625 73.4375 
Q 24.03125 74.21875 27.59375 74.21875 
Q 38.234375 74.21875 44.609375 68.875 
Q 50.984375 63.53125 50.984375 54.6875 
Q 50.984375 48.6875 47.625 44.671875 
Q 44.28125 40.671875 37.890625 39.015625 
z
" id="DejaVuSansMono-51"/>
       </defs>
       <use xlink:href="#DejaVuSansMono-51"/>
       <use x="60.205078" xlink:href="#DejaVuSansMono-48"/>
       <use x="120.410156" xlink:href="#DejaVuSansMono-48"/>
      </g>
     </g>
    </g>
    <g id="xtick_5">
     <g id="line2d_5">
      <g>
       <use style="stroke:#000000;stroke-width:0.8;" x="345.276142" xlink:href="#m3f5742bfd5" y="316.4425"/>
      </g>
     </g>
     <g id="text_5">
      <!-- 400 -->
      <g transform="translate(339.857861 328.033437)scale(0.06 -0.06)">
       <defs>
        <path d="M 35.890625 63.921875 
L 12.890625 25.390625 
L 35.890625 25.390625 
z
M 34.28125 72.90625 
L 45.703125 72.90625 
L 45.703125 25.390625 
L 55.421875 25.390625 
L 55.421875 17.390625 
L 45.703125 17.390625 
L 45.703125 0 
L 35.890625 0 
L 35.890625 17.390625 
L 4.984375 17.390625 
L 4.984375 26.703125 
z
" id="DejaVuSansMono-52"/>
       </defs>
       <use xlink:href="#DejaVuSansMono-52"/>
       <use x="60.205078" xlink:href="#DejaVuSansMono-48"/>
       <use x="120.410156" xlink:href="#DejaVuSansMono-48"/>
      </g>
     </g>
    </g>
    <g id="xtick_6">
     <g id="line2d_6">
      <g>
       <use style="stroke:#000000;stroke-width:0.8;" x="417.875249" xlink:href="#m3f5742bfd5" y="316.4425"/>
      </g>
     </g>
     <g id="text_6">
      <!-- 500 -->
      <g transform="translate(412.456967 328.033437)scale(0.06 -0.06)">
       <defs>
        <path d="M 10.109375 72.90625 
L 47.015625 72.90625 
L 47.015625 64.59375 
L 19.09375 64.59375 
L 19.09375 46.6875 
Q 21.1875 47.46875 23.3125 47.828125 
Q 25.4375 48.1875 27.59375 48.1875 
Q 38.921875 48.1875 45.5625 41.5 
Q 52.203125 34.8125 52.203125 23.390625 
Q 52.203125 11.859375 45.234375 5.21875 
Q 38.28125 -1.421875 26.21875 -1.421875 
Q 20.40625 -1.421875 15.59375 -0.640625 
Q 10.796875 0.140625 6.984375 1.703125 
L 6.984375 11.71875 
Q 11.46875 9.28125 16.015625 8.078125 
Q 20.5625 6.890625 25.296875 6.890625 
Q 33.453125 6.890625 37.859375 11.1875 
Q 42.28125 15.484375 42.28125 23.390625 
Q 42.28125 31.203125 37.71875 35.546875 
Q 33.15625 39.890625 25 39.890625 
Q 21.046875 39.890625 17.28125 38.984375 
Q 13.53125 38.09375 10.109375 36.28125 
z
" id="DejaVuSansMono-53"/>
       </defs>
       <use xlink:href="#DejaVuSansMono-53"/>
       <use x="60.205078" xlink:href="#DejaVuSansMono-48"/>
       <use x="120.410156" xlink:href="#DejaVuSansMono-48"/>
      </g>
     </g>
    </g>
    <g id="text_7">
     <!-- n -->
     <g transform="translate(243.283281 337.872187)scale(0.06 -0.06)">
      <defs>
       <path d="M 51.3125 33.890625 
L 51.3125 0 
L 42.28125 0 
L 42.28125 33.890625 
Q 42.28125 41.265625 39.6875 44.71875 
Q 37.109375 48.1875 31.59375 48.1875 
Q 25.296875 48.1875 21.890625 43.71875 
Q 18.5 39.265625 18.5 30.90625 
L 18.5 0 
L 9.515625 0 
L 9.515625 54.6875 
L 18.5 54.6875 
L 18.5 46.484375 
Q 20.90625 51.171875 25 53.578125 
Q 29.109375 56 34.71875 56 
Q 43.0625 56 47.1875 50.5 
Q 51.3125 45.015625 51.3125 33.890625 
z
" id="DejaVuSansMono-110"/>
      </defs>
      <use xlink:href="#DejaVuSansMono-110"/>
     </g>
    </g>
   </g>
   <g id="matplotlib.axis_2">
    <g id="ytick_1">
     <g id="line2d_7">
      <defs>
       <path d="M 0 0 
L -3.5 0 
" id="ma0b8a2bfeb" style="stroke:#000000;stroke-width:0.8;"/>
      </defs>
      <g>
       <use style="stroke:#000000;stroke-width:0.8;" x="35.85875" xlink:href="#ma0b8a2bfeb" y="277.650885"/>
      </g>
     </g>
     <g id="text_8">
      <!-- $\mathdefault{10^{1}}$ -->
      <g transform="translate(18.83875 279.946354)scale(0.06 -0.06)">
       <use transform="translate(0 0.684375)" xlink:href="#DejaVuSansMono-49"/>
       <use transform="translate(60.205078 0.684375)" xlink:href="#DejaVuSansMono-48"/>
       <use transform="translate(121.367188 38.965625)scale(0.7)" xlink:href="#DejaVuSansMono-49"/>
      </g>
     </g>
    </g>
    <g id="ytick_2">
     <g id="line2d_8">
      <g>
       <use style="stroke:#000000;stroke-width:0.8;" x="35.85875" xlink:href="#ma0b8a2bfeb" y="227.19978"/>
      </g>
     </g>
     <g id="text_9">
      <!-- $\mathdefault{10^{3}}$ -->
      <g transform="translate(18.83875 229.495248)scale(0.06 -0.06)">
       <use transform="translate(0 0.765625)" xlink:href="#DejaVuSansMono-49"/>
       <use transform="translate(60.205078 0.765625)" xlink:href="#DejaVuSansMono-48"/>
       <use transform="translate(121.367188 39.046875)scale(0.7)" xlink:href="#DejaVuSansMono-51"/>
      </g>
     </g>
    </g>
    <g id="ytick_3">
     <g id="line2d_9">
      <g>
       <use style="stroke:#000000;stroke-width:0.8;" x="35.85875" xlink:href="#ma0b8a2bfeb" y="176.748674"/>
      </g>
     </g>
     <g id="text_10">
      <!-- $\mathdefault{10^{5}}$ -->
      <g transform="translate(18.83875 179.044143)scale(0.06 -0.06)">
       <use transform="translate(0 0.684375)" xlink:href="#DejaVuSansMono-49"/>
       <use transform="translate(60.205078 0.684375)" xlink:href="#DejaVuSansMono-48"/>
       <use transform="translate(121.367188 38.965625)scale(0.7)" xlink:href="#DejaVuSansMono-53"/>
      </g>
     </g>
    </g>
    <g id="ytick_4">
     <g id="line2d_10">
      <g>
       <use style="stroke:#000000;stroke-width:0.8;" x="35.85875" xlink:href="#ma0b8a2bfeb" y="126.297569"/>
      </g>
     </g>
     <g id="text_11">
      <!-- $\mathdefault{10^{7}}$ -->
      <g transform="translate(18.83875 128.593038)scale(0.06 -0.06)">
       <defs>
        <path d="M 6.78125 72.90625 
L 52.6875 72.90625 
L 52.6875 68.703125 
L 26.609375 0 
L 16.3125 0 
L 41.703125 64.59375 
L 6.78125 64.59375 
z
" id="DejaVuSansMono-55"/>
       </defs>
       <use transform="translate(0 0.684375)" xlink:href="#DejaVuSansMono-49"/>
       <use transform="translate(60.205078 0.684375)" xlink:href="#DejaVuSansMono-48"/>
       <use transform="translate(121.367188 38.965625)scale(0.7)" xlink:href="#DejaVuSansMono-55"/>
      </g>
     </g>
    </g>
    <g id="ytick_5">
     <g id="line2d_11">
      <g>
       <use style="stroke:#000000;stroke-width:0.8;" x="35.85875" xlink:href="#ma0b8a2bfeb" y="75.846464"/>
      </g>
     </g>
     <g id="text_12">
      <!-- $\mathdefault{10^{9}}$ -->
      <g transform="translate(18.83875 78.141933)scale(0.06 -0.06)">
       <defs>
        <path d="M 29.109375 32.328125 
Q 35.40625 32.328125 38.984375 36.859375 
Q 42.578125 41.40625 42.578125 49.421875 
Q 42.578125 57.421875 38.984375 61.953125 
Q 35.40625 66.5 29.109375 66.5 
Q 22.5625 66.5 19.234375 62.171875 
Q 15.921875 57.859375 15.921875 49.421875 
Q 15.921875 40.921875 19.21875 36.625 
Q 22.515625 32.328125 29.109375 32.328125 
z
M 11.53125 1.515625 
L 11.53125 10.59375 
Q 14.59375 8.796875 18.0625 7.84375 
Q 21.53125 6.890625 25.296875 6.890625 
Q 34.671875 6.890625 39.46875 13.9375 
Q 44.28125 21 44.28125 34.71875 
Q 42 29.828125 37.84375 27.21875 
Q 33.6875 24.609375 28.328125 24.609375 
Q 17.78125 24.609375 11.984375 31.09375 
Q 6.203125 37.59375 6.203125 49.515625 
Q 6.203125 61.28125 12.125 67.75 
Q 18.0625 74.21875 28.90625 74.21875 
Q 41.609375 74.21875 47.515625 65.078125 
Q 53.421875 55.953125 53.421875 36.375 
Q 53.421875 17.96875 46.3125 8.265625 
Q 39.203125 -1.421875 25.6875 -1.421875 
Q 22.125 -1.421875 18.5 -0.65625 
Q 14.890625 0.09375 11.53125 1.515625 
z
" id="DejaVuSansMono-57"/>
       </defs>
       <use transform="translate(0 0.765625)" xlink:href="#DejaVuSansMono-49"/>
       <use transform="translate(60.205078 0.765625)" xlink:href="#DejaVuSansMono-48"/>
       <use transform="translate(121.367188 39.046875)scale(0.7)" xlink:href="#DejaVuSansMono-57"/>
      </g>
     </g>
    </g>
    <g id="ytick_6">
     <g id="line2d_12">
      <g>
       <use style="stroke:#000000;stroke-width:0.8;" x="35.85875" xlink:href="#ma0b8a2bfeb" y="25.395359"/>
      </g>
     </g>
     <g id="text_13">
      <!-- $\mathdefault{10^{11}}$ -->
      <g transform="translate(16.31875 27.690828)scale(0.06 -0.06)">
       <use transform="translate(0 0.684375)" xlink:href="#DejaVuSansMono-49"/>
       <use transform="translate(60.205078 0.684375)" xlink:href="#DejaVuSansMono-48"/>
       <use transform="translate(121.367188 38.965625)scale(0.7)" xlink:href="#DejaVuSansMono-49"/>
       <use transform="translate(163.510742 38.965625)scale(0.7)" xlink:href="#DejaVuSansMono-49"/>
      </g>
     </g>
    </g>
    <g id="text_14">
     <!-- y_n -->
     <g transform="translate(10.904063 172.634094)rotate(-90)scale(0.06 -0.06)">
      <defs>
       <path d="M 41.890625 17.578125 
Q 39.65625 11.859375 36.1875 2.546875 
Q 31.34375 -10.359375 29.6875 -13.1875 
Q 27.4375 -17 24.0625 -18.890625 
Q 20.703125 -20.796875 16.21875 -20.796875 
L 8.984375 -20.796875 
L 8.984375 -13.28125 
L 14.3125 -13.28125 
Q 18.265625 -13.28125 20.5 -10.984375 
Q 22.75 -8.6875 26.21875 0.875 
L 5.078125 54.6875 
L 14.59375 54.6875 
L 30.8125 11.921875 
L 46.78125 54.6875 
L 56.296875 54.6875 
z
" id="DejaVuSansMono-121"/>
       <path d="M 60.203125 -19.671875 
L 60.203125 -23.578125 
L 0 -23.578125 
L 0 -19.671875 
z
" id="DejaVuSansMono-95"/>
      </defs>
      <use xlink:href="#DejaVuSansMono-121"/>
      <use x="60.205078" xlink:href="#DejaVuSansMono-95"/>
      <use x="120.410156" xlink:href="#DejaVuSansMono-110"/>
     </g>
    </g>
   </g>
   <g id="line2d_13">
    <path clip-path="url(#pc57096e72f)" d="M 54.879716 155.360237 
L 55.605707 143.324584 
L 56.331698 150.918232 
L 57.057689 138.882581 
L 57.78368 146.476229 
L 58.509671 134.44058 
L 59.235662 142.034228 
L 59.961653 129.998579 
L 60.687644 137.592227 
L 61.413635 125.556579 
L 62.139627 133.150227 
L 62.865618 121.114579 
L 63.591609 128.708227 
L 64.3176 116.672579 
L 65.043591 124.266227 
L 65.769582 112.230579 
L 66.495573 119.824227 
L 67.221564 107.78858 
L 67.947555 115.382228 
L 68.673546 103.34658 
L 69.399537 110.940228 
L 70.125528 98.904581 
L 70.851519 106.498229 
L 71.57751 94.462581 
L 72.303501 102.056229 
L 73.029493 90.020582 
L 73.755484 97.61423 
L 74.481475 85.578583 
L 75.933457 100.765879 
L 76.659448 88.730231 
L 78.11143 103.917527 
L 78.837421 91.88188 
L 79.563412 99.475528 
L 80.289403 87.439881 
L 81.015394 95.033529 
L 81.741385 82.997881 
L 82.467376 90.591529 
L 83.193367 78.555882 
L 83.919359 86.14953 
L 84.64535 74.113883 
L 85.371341 81.707531 
L 86.097332 69.671883 
L 86.823323 77.265531 
L 87.549314 65.229884 
L 88.275305 72.823532 
L 89.001296 60.787885 
L 90.453278 75.975181 
L 91.179269 63.939533 
L 91.90526 71.533181 
L 92.631251 59.497534 
L 94.083233 74.68483 
L 94.809224 62.649183 
L 95.535216 70.242831 
L 96.261207 58.207183 
L 96.987198 65.800831 
L 97.713189 53.765184 
L 98.43918 61.358832 
L 99.165171 49.323185 
L 99.891162 56.916833 
L 100.617153 44.881185 
L 101.343144 52.474833 
L 102.069135 40.439186 
L 102.795126 48.032834 
L 103.521117 35.997187 
L 104.247108 43.590835 
L 104.973099 31.555187 
L 110.055037 84.710723 
L 110.781028 72.675076 
L 112.959001 95.45602 
L 113.684992 83.420373 
L 116.588956 113.794965 
L 117.314948 101.759317 
L 120.944903 139.727557 
L 121.670894 127.691909 
L 122.396885 135.285557 
L 123.122876 123.249909 
L 124.574858 138.437205 
L 125.300849 126.401556 
L 126.02684 133.995204 
L 126.752831 121.959556 
L 128.930805 144.7405 
L 129.656796 132.704851 
L 130.382787 140.298499 
L 131.108778 128.26285 
L 131.834769 135.856498 
L 132.56076 123.82085 
L 134.012742 139.008146 
L 134.738733 126.972497 
L 136.916706 149.753441 
L 137.642697 137.717791 
L 138.368688 145.311439 
L 139.094679 133.27579 
L 141.272653 156.056734 
L 141.998644 144.021081 
L 142.724635 151.614729 
L 143.450626 139.579078 
L 144.902608 154.766374 
L 145.628599 142.730722 
L 146.35459 150.32437 
L 147.080581 138.288719 
L 148.532563 153.476015 
L 149.258554 141.440363 
L 152.88851 179.408603 
L 153.614501 167.372909 
L 154.340492 174.966557 
L 155.066483 162.930879 
L 156.518465 178.118175 
L 157.244456 166.082486 
L 158.696438 181.269782 
L 159.422429 169.23408 
L 160.14842 176.827728 
L 160.874411 164.792044 
L 162.326394 179.97934 
L 163.052385 167.943643 
L 165.230358 190.724587 
L 165.956349 178.688809 
L 166.68234 186.282457 
L 167.408331 174.246723 
L 169.586304 197.027667 
L 170.312295 184.991787 
L 171.038286 192.585435 
L 171.764277 180.549633 
L 173.21626 195.736929 
L 173.942251 183.701075 
L 174.668242 191.294723 
L 175.394233 179.258937 
L 176.120224 186.852585 
L 176.846215 174.816846 
L 178.298197 190.004142 
L 179.024188 177.968373 
L 181.202161 200.749317 
L 181.928152 188.713343 
L 182.654143 196.306991 
L 183.380134 184.271126 
L 184.106126 191.864774 
L 184.832117 179.828981 
L 185.558108 187.422629 
L 186.284099 175.386885 
L 187.736081 190.574181 
L 188.462072 178.538405 
L 192.818018 224.100293 
L 193.544009 212.061894 
L 194.27 219.655542 
L 194.995991 207.618061 
L 195.721983 215.211709 
L 196.447974 203.174839 
L 197.173965 210.768487 
L 197.899956 198.732025 
L 199.351938 213.919321 
L 200.077929 201.882587 
L 201.529911 217.069883 
L 202.255902 205.032787 
L 203.707884 220.220083 
L 204.433875 208.182505 
L 205.159866 215.776153 
L 205.885857 203.739218 
L 210.241804 249.301106 
L 210.967795 237.238036 
L 213.871759 267.612628 
L 214.59775 255.431875 
L 216.049732 270.619171 
L 216.775723 258.392992 
L 217.501715 265.98664 
L 218.227706 253.825788 
L 220.405679 276.606732 
L 221.13167 264.244036 
L 221.857661 271.837684 
L 222.583652 259.589305 
L 224.035634 274.776601 
L 224.761625 262.463589 
L 226.939598 285.244533 
L 227.665589 272.501846 
L 230.569554 302.876437 
L 230.569554 302.876437 
" style="fill:none;stroke:#1f77b4;stroke-linecap:square;stroke-width:0.666667;"/>
   </g>
   <g id="line2d_14">
    <path clip-path="url(#pc57096e72f)" d="M 54.879716 153.461962 
L 55.605707 141.42631 
L 56.331698 149.019958 
L 57.057689 136.984308 
L 57.78368 144.577956 
L 58.509671 132.542307 
L 59.961653 147.729603 
L 60.687644 135.693953 
L 61.413635 143.287601 
L 62.139627 131.251952 
L 63.591609 146.439248 
L 64.3176 134.403598 
L 65.043591 141.997246 
L 65.769582 129.961597 
L 66.495573 137.555245 
L 67.221564 125.519597 
L 67.947555 133.113245 
L 68.673546 121.077597 
L 70.125528 136.264893 
L 70.851519 124.229245 
L 71.57751 131.822893 
L 72.303501 119.787245 
L 73.029493 127.380893 
L 73.755484 115.345245 
L 74.481475 122.938893 
L 75.207466 110.903246 
L 75.933457 118.496894 
L 76.659448 106.461246 
L 77.385439 114.054894 
L 78.11143 102.019247 
L 78.837421 109.612895 
L 79.563412 97.577247 
L 81.015394 112.764543 
L 81.741385 100.728896 
L 82.467376 108.322544 
L 83.193367 96.286896 
L 83.919359 103.880544 
L 84.64535 91.844897 
L 85.371341 99.438545 
L 86.097332 87.402898 
L 86.823323 94.996546 
L 87.549314 82.960898 
L 88.275305 90.554546 
L 89.001296 78.518899 
L 89.727287 86.112547 
L 90.453278 74.0769 
L 91.179269 81.670548 
L 91.90526 69.6349 
L 93.357242 84.822196 
L 94.083233 72.786549 
L 94.809224 80.380197 
L 95.535216 68.34455 
L 96.261207 75.938198 
L 96.987198 63.90255 
L 102.069135 117.058086 
L 102.795126 105.022439 
L 103.521117 112.616087 
L 104.247108 100.580439 
L 106.425082 123.361383 
L 107.151073 111.325736 
L 107.877064 118.919384 
L 108.603055 106.883736 
L 109.329046 114.477384 
L 110.055037 102.441737 
L 110.781028 110.035385 
L 111.507019 97.999737 
L 112.23301 105.593385 
L 112.959001 93.557738 
L 113.684992 101.151386 
L 114.410983 89.115739 
L 115.136974 96.709387 
L 115.862965 84.673739 
L 116.588956 92.267387 
L 117.314948 80.23174 
L 119.492921 103.012684 
L 120.218912 90.977037 
L 120.944903 98.570685 
L 121.670894 86.535037 
L 122.396885 94.128685 
L 123.122876 82.093038 
L 124.574858 97.280334 
L 125.300849 85.244687 
L 126.02684 92.838335 
L 126.752831 80.802687 
L 128.204813 95.989983 
L 128.930805 83.954336 
L 129.656796 91.547984 
L 130.382787 79.512337 
L 131.834769 94.699633 
L 132.56076 82.663985 
L 133.286751 90.257633 
L 134.012742 78.221986 
L 135.464724 93.409282 
L 136.190715 81.373635 
L 136.916706 88.967283 
L 137.642697 76.931635 
L 138.368688 84.525283 
L 139.094679 72.489636 
L 139.820671 80.083284 
L 140.546662 68.047637 
L 142.724635 90.828581 
L 143.450626 78.792933 
L 146.35459 109.167525 
L 147.080581 97.131878 
L 147.806572 104.725526 
L 148.532563 92.689878 
L 149.258554 100.283526 
L 149.984545 88.247879 
L 150.710537 95.841527 
L 151.436528 83.80588 
L 152.162519 91.399528 
L 152.88851 79.36388 
L 154.340492 94.551176 
L 155.066483 82.515529 
L 157.244456 105.296473 
L 157.970447 93.260826 
L 160.874411 123.635418 
L 161.600402 111.59977 
L 163.052385 126.787066 
L 163.778376 114.751418 
L 164.504367 122.345066 
L 165.230358 110.309419 
L 165.956349 117.903067 
L 166.68234 105.867419 
L 167.408331 113.461067 
L 168.134322 101.42542 
L 171.038286 131.800012 
L 171.764277 119.764364 
L 173.21626 134.95166 
L 173.942251 122.916012 
L 176.120224 145.696956 
L 176.846215 133.661306 
L 179.024188 156.44225 
L 179.750179 144.406597 
L 180.47617 152.000245 
L 181.202161 139.964594 
L 181.928152 147.558242 
L 182.654143 135.522592 
L 183.380134 143.11624 
L 184.106126 131.080591 
L 185.558108 146.267887 
L 186.284099 134.232238 
L 187.736081 149.419534 
L 188.462072 137.383883 
L 189.914054 152.571179 
L 190.640045 140.535528 
L 191.366036 148.129176 
L 192.092027 136.093526 
L 192.818018 143.687174 
L 193.544009 131.651525 
L 194.27 139.245173 
L 194.995991 127.209524 
L 195.721983 134.803172 
L 196.447974 122.767524 
L 198.625947 145.548468 
L 199.351938 133.512819 
L 200.077929 141.106467 
L 200.80392 129.070818 
L 201.529911 136.664466 
L 202.255902 124.628818 
L 204.433875 147.409762 
L 205.159866 135.374112 
L 205.885857 142.96776 
L 206.611849 130.932111 
L 207.33784 138.525759 
L 208.063831 126.490111 
L 210.241804 149.271055 
L 210.967795 137.235404 
L 211.693786 144.829052 
L 212.419777 132.793403 
L 213.145768 140.387051 
L 213.871759 128.351402 
L 214.59775 135.94505 
L 215.323741 123.909402 
L 216.049732 131.50305 
L 216.775723 119.467402 
L 217.501715 127.06105 
L 218.227706 115.025402 
L 219.679688 130.212698 
L 220.405679 118.177051 
L 221.13167 125.770699 
L 221.857661 113.735051 
L 222.583652 121.328699 
L 223.309643 109.293051 
L 224.035634 116.886699 
L 224.761625 104.851052 
L 226.213607 120.038348 
L 226.939598 108.0027 
L 229.117572 130.783644 
L 229.843563 118.747997 
L 230.569554 126.341645 
L 231.295545 114.305997 
L 232.747527 129.493293 
L 233.473518 117.457645 
L 234.199509 125.051293 
L 234.9255 113.015645 
L 235.651491 120.609293 
L 236.377482 108.573646 
L 237.103473 116.167294 
L 237.829464 104.131646 
L 238.555455 111.725294 
L 239.281446 99.689647 
L 240.007438 107.283295 
L 240.733429 95.247648 
L 242.911402 118.028592 
L 243.637393 105.992944 
L 245.089375 121.18024 
L 245.815366 109.144593 
L 246.541357 116.738241 
L 247.267348 104.702593 
L 248.71933 119.889889 
L 249.445321 107.854242 
L 250.171312 115.44789 
L 250.897304 103.412242 
L 251.623295 111.00589 
L 252.349286 98.970243 
L 253.801268 114.157539 
L 254.527259 102.121891 
L 255.979241 117.309187 
L 256.705232 105.27354 
L 257.431223 112.867188 
L 258.157214 100.83154 
L 258.883205 108.425188 
L 259.609196 96.389541 
L 260.335187 103.983189 
L 261.061178 91.947542 
L 264.691134 129.915781 
L 265.417125 117.880134 
L 266.869107 133.06743 
L 267.595098 121.031782 
L 269.04708 136.219078 
L 269.773071 124.183429 
L 270.499062 131.777077 
L 271.225053 119.74143 
L 271.951044 127.335078 
L 272.677035 115.29943 
L 274.129018 130.486726 
L 274.855009 118.451078 
L 275.581 126.044726 
L 276.306991 114.009078 
L 277.032982 121.602726 
L 277.758973 109.567079 
L 278.484964 117.160727 
L 279.210955 105.125079 
L 280.662937 120.312375 
L 281.388928 108.276728 
L 284.292893 138.65132 
L 285.018884 126.615671 
L 286.470866 141.802967 
L 287.196857 129.767318 
L 290.100821 160.14191 
L 290.826812 148.106255 
L 291.552803 155.699903 
L 292.278794 143.66425 
L 293.004785 151.257898 
L 293.730776 139.222247 
L 295.182759 154.409543 
L 295.90875 142.373891 
L 296.634741 149.967539 
L 297.360732 137.931889 
L 298.812714 153.119185 
L 299.538705 141.083533 
L 300.264696 148.677181 
L 300.990687 136.641531 
L 302.442669 151.828827 
L 303.16866 139.793176 
L 304.620642 154.980472 
L 305.346633 142.94482 
L 306.798616 158.132116 
L 307.524607 146.096462 
L 309.70258 168.877406 
L 310.428571 156.841741 
L 312.606544 179.622685 
L 313.332535 167.58699 
L 315.510508 190.367934 
L 316.236499 178.33216 
L 316.96249 185.925808 
L 317.688482 173.890076 
L 318.414473 181.483724 
L 319.140464 169.448021 
L 319.866455 177.041669 
L 320.592446 165.005984 
L 322.044428 180.19328 
L 322.770419 168.157582 
L 324.948392 190.938526 
L 325.674383 178.902746 
L 326.400374 186.496394 
L 327.126365 174.460658 
L 327.852356 182.054306 
L 328.578348 170.018599 
L 330.756321 192.799543 
L 331.482312 180.763738 
L 332.934294 195.951034 
L 333.660285 183.915176 
L 335.112267 199.102471 
L 335.838258 187.066543 
L 338.742222 217.441135 
L 339.468213 205.40399 
L 342.372178 235.778581 
L 343.098169 223.734946 
L 344.550151 238.922242 
L 345.276142 226.875954 
L 346.002133 234.469602 
L 346.728124 222.426866 
L 347.454115 230.020514 
L 348.180106 217.980143 
L 351.084071 248.354735 
L 351.810062 236.293932 
L 353.262044 251.481228 
L 353.988035 239.41213 
L 356.166008 262.193073 
L 356.891999 250.068719 
L 358.343981 265.256015 
L 359.069972 253.103197 
L 359.795963 260.696845 
L 360.521954 248.583775 
L 361.247945 256.177423 
L 361.973937 244.090462 
L 362.699928 251.68411 
L 363.425919 239.614387 
L 364.15191 247.208035 
L 364.877901 235.14973 
L 366.329883 250.337026 
L 367.055874 238.27124 
L 368.507856 253.458536 
L 369.233847 241.382832 
L 369.959838 248.97648 
L 370.685829 236.91421 
L 372.137811 252.101506 
L 372.863802 240.030462 
L 373.589794 247.62411 
L 374.315785 235.564928 
L 375.041776 243.158576 
L 375.767767 231.107267 
L 377.219749 246.294563 
L 377.94574 234.238068 
L 378.671731 241.831716 
L 379.397722 229.782193 
L 380.123713 237.375841 
L 380.849704 225.330952 
L 381.575695 232.9246 
L 382.301686 220.882797 
L 383.753668 236.070093 
L 384.47966 224.026242 
L 386.657633 246.807186 
L 387.383624 234.749694 
L 388.109615 242.343342 
L 388.835606 230.293155 
L 389.561597 237.886803 
L 390.287588 225.841474 
L 391.73957 241.02877 
L 392.465561 228.980226 
L 393.191552 236.573874 
L 393.917543 224.529638 
L 395.369526 239.716934 
L 396.095517 227.669845 
L 396.821508 235.263493 
L 397.547499 223.220225 
L 398.27349 230.813873 
L 398.999481 218.773148 
L 399.725472 226.366795 
L 400.451463 214.327764 
L 401.177454 221.921412 
L 401.903445 209.88351 
L 402.629436 217.477158 
L 403.355427 205.440007 
L 405.5334 228.220951 
L 406.259391 216.181296 
L 406.985383 223.774944 
L 407.711374 211.736626 
L 408.437365 219.330274 
L 409.163356 207.292846 
L 409.889347 214.886494 
L 410.615338 202.84966 
L 413.519302 233.224252 
L 414.245293 221.182277 
L 415.697275 236.369573 
L 416.423266 224.325496 
L 417.875249 239.512792 
L 418.60124 227.465914 
L 421.505204 257.840506 
L 422.231195 245.745156 
L 424.409168 268.5261 
L 425.135159 256.33282 
L 425.86115 263.926468 
L 426.587141 251.786978 
L 427.313132 259.380626 
L 428.039123 247.276293 
L 431.669079 285.244533 
L 432.39507 272.501846 
L 435.299034 302.876437 
L 435.299034 302.876437 
" style="fill:none;stroke:#ff7f0e;stroke-linecap:square;stroke-width:0.666667;"/>
   </g>
   <g id="patch_3">
    <path d="M 35.85875 316.4425 
L 35.85875 17.989125 
" style="fill:none;stroke:#000000;stroke-linecap:square;stroke-linejoin:miter;stroke-width:0.8;"/>
   </g>
   <g id="patch_4">
    <path d="M 454.32 316.4425 
L 454.32 17.989125 
" style="fill:none;stroke:#000000;stroke-linecap:square;stroke-linejoin:miter;stroke-width:0.8;"/>
   </g>
   <g id="patch_5">
    <path d="M 35.85875 316.4425 
L 454.32 316.4425 
" style="fill:none;stroke:#000000;stroke-linecap:square;stroke-linejoin:miter;stroke-width:0.8;"/>
   </g>
   <g id="patch_6">
    <path d="M 35.85875 17.989125 
L 454.32 17.989125 
" style="fill:none;stroke:#000000;stroke-linecap:square;stroke-linejoin:miter;stroke-width:0.8;"/>
   </g>
   <g id="text_15">
    <!-- "3y+1" problem -->
    <g transform="translate(214.747 11.989125)scale(0.072 -0.072)">
     <defs>
      <path d="M 43.703125 72.90625 
L 43.703125 45.796875 
L 35.203125 45.796875 
L 35.203125 72.90625 
z
M 25 72.90625 
L 25 45.796875 
L 16.5 45.796875 
L 16.5 72.90625 
z
" id="DejaVuSansMono-34"/>
      <path d="M 34.1875 57.171875 
L 34.1875 35.5 
L 55.90625 35.5 
L 55.90625 27.203125 
L 34.1875 27.203125 
L 34.1875 5.515625 
L 25.984375 5.515625 
L 25.984375 27.203125 
L 4.296875 27.203125 
L 4.296875 35.5 
L 25.984375 35.5 
L 25.984375 57.171875 
z
" id="DejaVuSansMono-43"/>
      <path id="DejaVuSansMono-32"/>
      <path d="M 18.3125 6.890625 
L 18.3125 -20.796875 
L 9.28125 -20.796875 
L 9.28125 54.6875 
L 18.3125 54.6875 
L 18.3125 47.703125 
Q 20.5625 51.765625 24.296875 53.875 
Q 28.03125 56 32.90625 56 
Q 42.828125 56 48.46875 48.328125 
Q 54.109375 40.671875 54.109375 27.09375 
Q 54.109375 13.765625 48.4375 6.171875 
Q 42.78125 -1.421875 32.90625 -1.421875 
Q 27.9375 -1.421875 24.1875 0.703125 
Q 20.453125 2.828125 18.3125 6.890625 
z
M 44.671875 27.296875 
Q 44.671875 37.75 41.375 43.0625 
Q 38.09375 48.390625 31.59375 48.390625 
Q 25.046875 48.390625 21.671875 43.046875 
Q 18.3125 37.703125 18.3125 27.296875 
Q 18.3125 16.9375 21.671875 11.5625 
Q 25.046875 6.203125 31.59375 6.203125 
Q 38.09375 6.203125 41.375 11.515625 
Q 44.671875 16.84375 44.671875 27.296875 
z
" id="DejaVuSansMono-112"/>
      <path d="M 56.390625 43.40625 
Q 53.515625 45.65625 50.53125 46.671875 
Q 47.5625 47.703125 44 47.703125 
Q 35.59375 47.703125 31.140625 42.421875 
Q 26.703125 37.15625 26.703125 27.203125 
L 26.703125 0 
L 17.671875 0 
L 17.671875 54.6875 
L 26.703125 54.6875 
L 26.703125 44 
Q 28.953125 49.8125 33.609375 52.90625 
Q 38.28125 56 44.671875 56 
Q 48 56 50.875 55.171875 
Q 53.765625 54.34375 56.390625 52.59375 
z
" id="DejaVuSansMono-114"/>
      <path d="M 30.078125 48.390625 
Q 23.25 48.390625 19.734375 43.0625 
Q 16.21875 37.75 16.21875 27.296875 
Q 16.21875 16.890625 19.734375 11.546875 
Q 23.25 6.203125 30.078125 6.203125 
Q 36.96875 6.203125 40.484375 11.546875 
Q 44 16.890625 44 27.296875 
Q 44 37.75 40.484375 43.0625 
Q 36.96875 48.390625 30.078125 48.390625 
z
M 30.078125 56 
Q 41.453125 56 47.484375 48.625 
Q 53.515625 41.265625 53.515625 27.296875 
Q 53.515625 13.28125 47.5 5.921875 
Q 41.5 -1.421875 30.078125 -1.421875 
Q 18.703125 -1.421875 12.6875 5.921875 
Q 6.6875 13.28125 6.6875 27.296875 
Q 6.6875 41.265625 12.6875 48.625 
Q 18.703125 56 30.078125 56 
z
" id="DejaVuSansMono-111"/>
      <path d="M 44.828125 27.296875 
Q 44.828125 37.75 41.5 43.0625 
Q 38.1875 48.390625 31.6875 48.390625 
Q 25.140625 48.390625 21.765625 43.046875 
Q 18.40625 37.703125 18.40625 27.296875 
Q 18.40625 16.9375 21.765625 11.5625 
Q 25.140625 6.203125 31.6875 6.203125 
Q 38.1875 6.203125 41.5 11.515625 
Q 44.828125 16.84375 44.828125 27.296875 
z
M 18.40625 47.703125 
Q 20.5625 51.703125 24.34375 53.84375 
Q 28.125 56 33.109375 56 
Q 42.96875 56 48.625 48.40625 
Q 54.296875 40.828125 54.296875 27.484375 
Q 54.296875 13.96875 48.609375 6.265625 
Q 42.921875 -1.421875 33.015625 -1.421875 
Q 28.125 -1.421875 24.390625 0.703125 
Q 20.65625 2.828125 18.40625 6.890625 
L 18.40625 0 
L 9.421875 0 
L 9.421875 75.984375 
L 18.40625 75.984375 
z
" id="DejaVuSansMono-98"/>
      <path d="M 31.203125 19.828125 
Q 31.203125 13.765625 33.421875 10.6875 
Q 35.640625 7.625 39.984375 7.625 
L 50.484375 7.625 
L 50.484375 0 
L 39.109375 0 
Q 31.0625 0 26.640625 5.171875 
Q 22.21875 10.359375 22.21875 19.828125 
L 22.21875 69.484375 
L 7.8125 69.484375 
L 7.8125 76.515625 
L 31.203125 76.515625 
z
" id="DejaVuSansMono-108"/>
      <path d="M 54.296875 29.59375 
L 54.296875 25.203125 
L 15.375 25.203125 
L 15.375 24.90625 
Q 15.375 15.96875 20.03125 11.078125 
Q 24.703125 6.203125 33.203125 6.203125 
Q 37.5 6.203125 42.1875 7.5625 
Q 46.875 8.9375 52.203125 11.71875 
L 52.203125 2.78125 
Q 47.078125 0.6875 42.3125 -0.359375 
Q 37.546875 -1.421875 33.109375 -1.421875 
Q 20.359375 -1.421875 13.171875 6.21875 
Q 6 13.875 6 27.296875 
Q 6 40.375 13.03125 48.1875 
Q 20.0625 56 31.78125 56 
Q 42.234375 56 48.265625 48.921875 
Q 54.296875 41.84375 54.296875 29.59375 
z
M 45.3125 32.234375 
Q 45.125 40.140625 41.578125 44.265625 
Q 38.03125 48.390625 31.390625 48.390625 
Q 24.90625 48.390625 20.703125 44.09375 
Q 16.5 39.796875 15.71875 32.171875 
z
" id="DejaVuSansMono-101"/>
      <path d="M 33.015625 49.125 
Q 34.671875 52.640625 37.234375 54.3125 
Q 39.796875 56 43.40625 56 
Q 50 56 52.703125 50.890625 
Q 55.421875 45.796875 55.421875 31.6875 
L 55.421875 0 
L 47.21875 0 
L 47.21875 31.296875 
Q 47.21875 42.875 45.921875 45.671875 
Q 44.625 48.484375 41.21875 48.484375 
Q 37.3125 48.484375 35.859375 45.484375 
Q 34.421875 42.484375 34.421875 31.296875 
L 34.421875 0 
L 26.21875 0 
L 26.21875 31.296875 
Q 26.21875 43.015625 24.828125 45.75 
Q 23.4375 48.484375 19.828125 48.484375 
Q 16.265625 48.484375 14.875 45.484375 
Q 13.484375 42.484375 13.484375 31.296875 
L 13.484375 0 
L 5.328125 0 
L 5.328125 54.6875 
L 13.484375 54.6875 
L 13.484375 50 
Q 15.09375 52.9375 17.5 54.46875 
Q 19.921875 56 23 56 
Q 26.703125 56 29.171875 54.296875 
Q 31.640625 52.59375 33.015625 49.125 
z
" id="DejaVuSansMono-109"/>
     </defs>
     <use xlink:href="#DejaVuSansMono-34"/>
     <use x="60.205078" xlink:href="#DejaVuSansMono-51"/>
     <use x="120.410156" xlink:href="#DejaVuSansMono-121"/>
     <use x="180.615234" xlink:href="#DejaVuSansMono-43"/>
     <use x="240.820312" xlink:href="#DejaVuSansMono-49"/>
     <use x="301.025391" xlink:href="#DejaVuSansMono-34"/>
     <use x="361.230469" xlink:href="#DejaVuSansMono-32"/>
     <use x="421.435547" xlink:href="#DejaVuSansMono-112"/>
     <use x="481.640625" xlink:href="#DejaVuSansMono-114"/>
     <use x="541.845703" xlink:href="#DejaVuSansMono-111"/>
     <use x="602.050781" xlink:href="#DejaVuSansMono-98"/>
     <use x="662.255859" xlink:href="#DejaVuSansMono-108"/>
     <use x="722.460938" xlink:href="#DejaVuSansMono-101"/>
     <use x="782.666016" xlink:href="#DejaVuSansMono-109"/>
    </g>
   </g>
   <g id="legend_1">
    <g id="patch_7">
     <path d="M 358.67625 82.0095 
L 450.12 82.0095 
Q 451.32 82.0095 451.32 80.8095 
L 451.32 22.189125 
Q 451.32 20.989125 450.12 20.989125 
L 358.67625 20.989125 
Q 357.47625 20.989125 357.47625 22.189125 
L 357.47625 80.8095 
Q 357.47625 82.0095 358.67625 82.0095 
z
" style="fill:#ffffff;opacity:0.8;stroke:#cccccc;stroke-linejoin:miter;"/>
    </g>
    <g id="line2d_15">
     <path d="M 359.87625 36.889687 
L 371.87625 36.889687 
" style="fill:none;stroke:#1f77b4;stroke-linecap:square;stroke-width:0.666667;"/>
    </g>
    <g id="line2d_16"/>
    <g id="text_16">
     <!-- "Tallest": -->
     <g transform="translate(376.67625 27.980062)scale(0.06 -0.06)">
      <defs>
       <path d="M 2.296875 72.90625 
L 57.90625 72.90625 
L 57.90625 64.59375 
L 35.109375 64.59375 
L 35.109375 0 
L 25.203125 0 
L 25.203125 64.59375 
L 2.296875 64.59375 
z
" id="DejaVuSansMono-84"/>
       <path d="M 34.28125 27.484375 
L 31.296875 27.484375 
Q 23.4375 27.484375 19.453125 24.71875 
Q 15.484375 21.96875 15.484375 16.5 
Q 15.484375 11.578125 18.453125 8.84375 
Q 21.4375 6.109375 26.703125 6.109375 
Q 34.125 6.109375 38.375 11.25 
Q 42.625 16.40625 42.671875 25.484375 
L 42.671875 27.484375 
z
M 51.703125 31.203125 
L 51.703125 0 
L 42.671875 0 
L 42.671875 8.109375 
Q 39.796875 3.21875 35.421875 0.890625 
Q 31.0625 -1.421875 24.8125 -1.421875 
Q 16.453125 -1.421875 11.46875 3.296875 
Q 6.5 8.015625 6.5 15.921875 
Q 6.5 25.046875 12.625 29.78125 
Q 18.75 34.515625 30.609375 34.515625 
L 42.671875 34.515625 
L 42.671875 35.9375 
Q 42.625 42.484375 39.34375 45.4375 
Q 36.078125 48.390625 28.90625 48.390625 
Q 24.3125 48.390625 19.625 47.0625 
Q 14.9375 45.75 10.5 43.21875 
L 10.5 52.203125 
Q 15.484375 54.109375 20.046875 55.046875 
Q 24.609375 56 28.90625 56 
Q 35.6875 56 40.5 54 
Q 45.3125 52 48.296875 48 
Q 50.140625 45.5625 50.921875 41.96875 
Q 51.703125 38.375 51.703125 31.203125 
z
" id="DejaVuSansMono-97"/>
       <path d="M 47.515625 52.78125 
L 47.515625 44 
Q 43.65625 46.234375 39.75 47.359375 
Q 35.84375 48.484375 31.78125 48.484375 
Q 25.6875 48.484375 22.671875 46.5 
Q 19.671875 44.53125 19.671875 40.484375 
Q 19.671875 36.8125 21.921875 35 
Q 24.171875 33.203125 33.109375 31.5 
L 36.71875 30.8125 
Q 43.40625 29.546875 46.84375 25.734375 
Q 50.296875 21.921875 50.296875 15.828125 
Q 50.296875 7.71875 44.53125 3.140625 
Q 38.765625 -1.421875 28.515625 -1.421875 
Q 24.46875 -1.421875 20.015625 -0.5625 
Q 15.578125 0.296875 10.40625 2 
L 10.40625 11.28125 
Q 15.4375 8.6875 20.015625 7.390625 
Q 24.609375 6.109375 28.71875 6.109375 
Q 34.671875 6.109375 37.9375 8.515625 
Q 41.21875 10.9375 41.21875 15.28125 
Q 41.21875 21.53125 29.25 23.921875 
L 28.859375 24.03125 
L 25.484375 24.703125 
Q 17.71875 26.21875 14.15625 29.8125 
Q 10.59375 33.40625 10.59375 39.59375 
Q 10.59375 47.46875 15.90625 51.734375 
Q 21.234375 56 31.109375 56 
Q 35.5 56 39.546875 55.1875 
Q 43.609375 54.390625 47.515625 52.78125 
z
" id="DejaVuSansMono-115"/>
       <path d="M 29.984375 70.21875 
L 29.984375 54.6875 
L 50.390625 54.6875 
L 50.390625 47.703125 
L 29.984375 47.703125 
L 29.984375 18.015625 
Q 29.984375 11.96875 32.28125 9.5625 
Q 34.578125 7.171875 40.28125 7.171875 
L 50.390625 7.171875 
L 50.390625 0 
L 39.40625 0 
Q 29.296875 0 25.140625 4.046875 
Q 21 8.109375 21 18.015625 
L 21 47.703125 
L 6.390625 47.703125 
L 6.390625 54.6875 
L 21 54.6875 
L 21 70.21875 
z
" id="DejaVuSansMono-116"/>
       <path d="M 23.875 51.90625 
L 36.1875 51.90625 
L 36.1875 37.109375 
L 23.875 37.109375 
z
M 23.875 14.890625 
L 36.1875 14.890625 
L 36.1875 0 
L 23.875 0 
z
" id="DejaVuSansMono-58"/>
      </defs>
      <use xlink:href="#DejaVuSansMono-34"/>
      <use x="60.205078" xlink:href="#DejaVuSansMono-84"/>
      <use x="120.410156" xlink:href="#DejaVuSansMono-97"/>
      <use x="180.615234" xlink:href="#DejaVuSansMono-108"/>
      <use x="240.820312" xlink:href="#DejaVuSansMono-108"/>
      <use x="301.025391" xlink:href="#DejaVuSansMono-101"/>
      <use x="361.230469" xlink:href="#DejaVuSansMono-115"/>
      <use x="421.435547" xlink:href="#DejaVuSansMono-116"/>
      <use x="481.640625" xlink:href="#DejaVuSansMono-34"/>
      <use x="541.845703" xlink:href="#DejaVuSansMono-58"/>
     </g>
     <!-- y_0    = 704511 -->
     <g transform="translate(376.67625 34.737)scale(0.06 -0.06)">
      <defs>
       <path d="M 4.296875 25.59375 
L 55.90625 25.59375 
L 55.90625 17.1875 
L 4.296875 17.1875 
z
M 4.296875 45.40625 
L 55.90625 45.40625 
L 55.90625 37.109375 
L 4.296875 37.109375 
z
" id="DejaVuSansMono-61"/>
      </defs>
      <use xlink:href="#DejaVuSansMono-121"/>
      <use x="60.205078" xlink:href="#DejaVuSansMono-95"/>
      <use x="120.410156" xlink:href="#DejaVuSansMono-48"/>
      <use x="180.615234" xlink:href="#DejaVuSansMono-32"/>
      <use x="240.820312" xlink:href="#DejaVuSansMono-32"/>
      <use x="301.025391" xlink:href="#DejaVuSansMono-32"/>
      <use x="361.230469" xlink:href="#DejaVuSansMono-32"/>
      <use x="421.435547" xlink:href="#DejaVuSansMono-61"/>
      <use x="481.640625" xlink:href="#DejaVuSansMono-32"/>
      <use x="541.845703" xlink:href="#DejaVuSansMono-55"/>
      <use x="602.050781" xlink:href="#DejaVuSansMono-48"/>
      <use x="662.255859" xlink:href="#DejaVuSansMono-52"/>
      <use x="722.460938" xlink:href="#DejaVuSansMono-53"/>
      <use x="782.666016" xlink:href="#DejaVuSansMono-49"/>
      <use x="842.871094" xlink:href="#DejaVuSansMono-49"/>
     </g>
     <!-- y_max  = 56991483520 -->
     <g transform="translate(376.67625 41.660812)scale(0.06 -0.06)">
      <defs>
       <path d="M 54.59375 54.6875 
L 35.015625 28.515625 
L 56.5 0 
L 46.09375 0 
L 30.078125 21.921875 
L 14.109375 0 
L 3.71875 0 
L 25.203125 28.515625 
L 5.609375 54.6875 
L 15.578125 54.6875 
L 30.078125 34.90625 
L 44.484375 54.6875 
z
" id="DejaVuSansMono-120"/>
       <path d="M 48.390625 71.296875 
L 48.390625 62.203125 
Q 45.3125 64.015625 41.84375 64.96875 
Q 38.375 65.921875 34.625 65.921875 
Q 25.25 65.921875 20.40625 58.859375 
Q 15.578125 51.8125 15.578125 38.09375 
Q 17.921875 42.96875 22.0625 45.578125 
Q 26.21875 48.1875 31.59375 48.1875 
Q 42.140625 48.1875 47.921875 41.71875 
Q 53.71875 35.25 53.71875 23.390625 
Q 53.71875 11.578125 47.75 5.078125 
Q 41.796875 -1.421875 31 -1.421875 
Q 18.3125 -1.421875 12.40625 7.6875 
Q 6.5 16.796875 6.5 36.375 
Q 6.5 54.828125 13.59375 64.515625 
Q 20.703125 74.21875 34.1875 74.21875 
Q 37.796875 74.21875 41.40625 73.453125 
Q 45.015625 72.703125 48.390625 71.296875 
z
M 30.8125 40.484375 
Q 24.515625 40.484375 20.890625 35.9375 
Q 17.28125 31.390625 17.28125 23.390625 
Q 17.28125 15.375 20.890625 10.828125 
Q 24.515625 6.296875 30.8125 6.296875 
Q 37.359375 6.296875 40.671875 10.609375 
Q 44 14.9375 44 23.390625 
Q 44 31.890625 40.671875 36.1875 
Q 37.359375 40.484375 30.8125 40.484375 
z
" id="DejaVuSansMono-54"/>
       <path d="M 30.078125 34.625 
Q 23.484375 34.625 19.890625 30.9375 
Q 16.3125 27.25 16.3125 20.515625 
Q 16.3125 13.765625 19.9375 10.03125 
Q 23.578125 6.296875 30.078125 6.296875 
Q 36.71875 6.296875 40.296875 9.984375 
Q 43.890625 13.671875 43.890625 20.515625 
Q 43.890625 27.203125 40.25 30.90625 
Q 36.625 34.625 30.078125 34.625 
z
M 21.484375 38.71875 
Q 15.1875 40.328125 11.640625 44.71875 
Q 8.109375 49.125 8.109375 55.328125 
Q 8.109375 64.015625 14.015625 69.109375 
Q 19.921875 74.21875 30.078125 74.21875 
Q 40.28125 74.21875 46.1875 69.109375 
Q 52.09375 64.015625 52.09375 55.328125 
Q 52.09375 49.125 48.546875 44.71875 
Q 45.015625 40.328125 38.71875 38.71875 
Q 46.046875 37.109375 49.921875 32.21875 
Q 53.8125 27.34375 53.8125 19.578125 
Q 53.8125 9.71875 47.515625 4.140625 
Q 41.21875 -1.421875 30.078125 -1.421875 
Q 18.953125 -1.421875 12.671875 4.125 
Q 6.390625 9.671875 6.390625 19.484375 
Q 6.390625 27.296875 10.265625 32.203125 
Q 14.15625 37.109375 21.484375 38.71875 
z
M 17.921875 54.390625 
Q 17.921875 48.53125 21.046875 45.453125 
Q 24.171875 42.390625 30.078125 42.390625 
Q 36.03125 42.390625 39.15625 45.453125 
Q 42.28125 48.53125 42.28125 54.390625 
Q 42.28125 60.359375 39.171875 63.484375 
Q 36.078125 66.609375 30.078125 66.609375 
Q 24.171875 66.609375 21.046875 63.453125 
Q 17.921875 60.296875 17.921875 54.390625 
z
" id="DejaVuSansMono-56"/>
      </defs>
      <use xlink:href="#DejaVuSansMono-121"/>
      <use x="60.205078" xlink:href="#DejaVuSansMono-95"/>
      <use x="120.410156" xlink:href="#DejaVuSansMono-109"/>
      <use x="180.615234" xlink:href="#DejaVuSansMono-97"/>
      <use x="240.820312" xlink:href="#DejaVuSansMono-120"/>
      <use x="301.025391" xlink:href="#DejaVuSansMono-32"/>
      <use x="361.230469" xlink:href="#DejaVuSansMono-32"/>
      <use x="421.435547" xlink:href="#DejaVuSansMono-61"/>
      <use x="481.640625" xlink:href="#DejaVuSansMono-32"/>
      <use x="541.845703" xlink:href="#DejaVuSansMono-53"/>
      <use x="602.050781" xlink:href="#DejaVuSansMono-54"/>
      <use x="662.255859" xlink:href="#DejaVuSansMono-57"/>
      <use x="722.460938" xlink:href="#DejaVuSansMono-57"/>
      <use x="782.666016" xlink:href="#DejaVuSansMono-49"/>
      <use x="842.871094" xlink:href="#DejaVuSansMono-52"/>
      <use x="903.076172" xlink:href="#DejaVuSansMono-56"/>
      <use x="963.28125" xlink:href="#DejaVuSansMono-51"/>
      <use x="1023.486328" xlink:href="#DejaVuSansMono-53"/>
      <use x="1083.691406" xlink:href="#DejaVuSansMono-50"/>
      <use x="1143.896484" xlink:href="#DejaVuSansMono-48"/>
     </g>
     <!-- x_max  = 243 -->
     <g transform="translate(376.67625 48.584625)scale(0.06 -0.06)">
      <use xlink:href="#DejaVuSansMono-120"/>
      <use x="60.205078" xlink:href="#DejaVuSansMono-95"/>
      <use x="120.410156" xlink:href="#DejaVuSansMono-109"/>
      <use x="180.615234" xlink:href="#DejaVuSansMono-97"/>
      <use x="240.820312" xlink:href="#DejaVuSansMono-120"/>
      <use x="301.025391" xlink:href="#DejaVuSansMono-32"/>
      <use x="361.230469" xlink:href="#DejaVuSansMono-32"/>
      <use x="421.435547" xlink:href="#DejaVuSansMono-61"/>
      <use x="481.640625" xlink:href="#DejaVuSansMono-32"/>
      <use x="541.845703" xlink:href="#DejaVuSansMono-50"/>
      <use x="602.050781" xlink:href="#DejaVuSansMono-52"/>
      <use x="662.255859" xlink:href="#DejaVuSansMono-51"/>
     </g>
    </g>
    <g id="line2d_17">
     <path d="M 359.87625 66.499875 
L 371.87625 66.499875 
" style="fill:none;stroke:#ff7f0e;stroke-linecap:square;stroke-width:0.666667;"/>
    </g>
    <g id="line2d_18"/>
    <g id="text_17">
     <!-- "Widest":  -->
     <g transform="translate(376.67625 57.59025)scale(0.06 -0.06)">
      <defs>
       <path d="M 0 72.90625 
L 9.625 72.90625 
L 16.609375 13.71875 
L 24.90625 52.875 
L 35.203125 52.875 
L 43.609375 13.625 
L 50.59375 72.90625 
L 60.203125 72.90625 
L 49.3125 0 
L 39.984375 0 
L 30.078125 43.3125 
L 20.21875 0 
L 10.890625 0 
z
" id="DejaVuSansMono-87"/>
       <path d="M 12.5 54.6875 
L 35.5 54.6875 
L 35.5 6.984375 
L 53.328125 6.984375 
L 53.328125 0 
L 8.6875 0 
L 8.6875 6.984375 
L 26.515625 6.984375 
L 26.515625 47.703125 
L 12.5 47.703125 
z
M 26.515625 75.984375 
L 35.5 75.984375 
L 35.5 64.59375 
L 26.515625 64.59375 
z
" id="DejaVuSansMono-105"/>
       <path d="M 41.890625 47.703125 
L 41.890625 75.984375 
L 50.875 75.984375 
L 50.875 0 
L 41.890625 0 
L 41.890625 6.890625 
Q 39.65625 2.828125 35.90625 0.703125 
Q 32.171875 -1.421875 27.296875 -1.421875 
Q 17.390625 -1.421875 11.6875 6.265625 
Q 6 13.96875 6 27.484375 
Q 6 40.828125 11.71875 48.40625 
Q 17.4375 56 27.296875 56 
Q 32.234375 56 35.984375 53.875 
Q 39.75 51.765625 41.890625 47.703125 
z
M 15.484375 27.296875 
Q 15.484375 16.84375 18.796875 11.515625 
Q 22.125 6.203125 28.609375 6.203125 
Q 35.109375 6.203125 38.5 11.5625 
Q 41.890625 16.9375 41.890625 27.296875 
Q 41.890625 37.703125 38.5 43.046875 
Q 35.109375 48.390625 28.609375 48.390625 
Q 22.125 48.390625 18.796875 43.0625 
Q 15.484375 37.75 15.484375 27.296875 
z
" id="DejaVuSansMono-100"/>
      </defs>
      <use xlink:href="#DejaVuSansMono-34"/>
      <use x="60.205078" xlink:href="#DejaVuSansMono-87"/>
      <use x="120.410156" xlink:href="#DejaVuSansMono-105"/>
      <use x="180.615234" xlink:href="#DejaVuSansMono-100"/>
      <use x="240.820312" xlink:href="#DejaVuSansMono-101"/>
      <use x="301.025391" xlink:href="#DejaVuSansMono-115"/>
      <use x="361.230469" xlink:href="#DejaVuSansMono-116"/>
      <use x="421.435547" xlink:href="#DejaVuSansMono-34"/>
      <use x="481.640625" xlink:href="#DejaVuSansMono-58"/>
      <use x="541.845703" xlink:href="#DejaVuSansMono-32"/>
     </g>
     <!-- y_0    = 837799 -->
     <g transform="translate(376.67625 64.347187)scale(0.06 -0.06)">
      <use xlink:href="#DejaVuSansMono-121"/>
      <use x="60.205078" xlink:href="#DejaVuSansMono-95"/>
      <use x="120.410156" xlink:href="#DejaVuSansMono-48"/>
      <use x="180.615234" xlink:href="#DejaVuSansMono-32"/>
      <use x="240.820312" xlink:href="#DejaVuSansMono-32"/>
      <use x="301.025391" xlink:href="#DejaVuSansMono-32"/>
      <use x="361.230469" xlink:href="#DejaVuSansMono-32"/>
      <use x="421.435547" xlink:href="#DejaVuSansMono-61"/>
      <use x="481.640625" xlink:href="#DejaVuSansMono-32"/>
      <use x="541.845703" xlink:href="#DejaVuSansMono-56"/>
      <use x="602.050781" xlink:href="#DejaVuSansMono-51"/>
      <use x="662.255859" xlink:href="#DejaVuSansMono-55"/>
      <use x="722.460938" xlink:href="#DejaVuSansMono-55"/>
      <use x="782.666016" xlink:href="#DejaVuSansMono-57"/>
      <use x="842.871094" xlink:href="#DejaVuSansMono-57"/>
     </g>
     <!-- y_max  = 2974984576 -->
     <g transform="translate(376.67625 71.271)scale(0.06 -0.06)">
      <use xlink:href="#DejaVuSansMono-121"/>
      <use x="60.205078" xlink:href="#DejaVuSansMono-95"/>
      <use x="120.410156" xlink:href="#DejaVuSansMono-109"/>
      <use x="180.615234" xlink:href="#DejaVuSansMono-97"/>
      <use x="240.820312" xlink:href="#DejaVuSansMono-120"/>
      <use x="301.025391" xlink:href="#DejaVuSansMono-32"/>
      <use x="361.230469" xlink:href="#DejaVuSansMono-32"/>
      <use x="421.435547" xlink:href="#DejaVuSansMono-61"/>
      <use x="481.640625" xlink:href="#DejaVuSansMono-32"/>
      <use x="541.845703" xlink:href="#DejaVuSansMono-50"/>
      <use x="602.050781" xlink:href="#DejaVuSansMono-57"/>
      <use x="662.255859" xlink:href="#DejaVuSansMono-55"/>
      <use x="722.460938" xlink:href="#DejaVuSansMono-52"/>
      <use x="782.666016" xlink:href="#DejaVuSansMono-57"/>
      <use x="842.871094" xlink:href="#DejaVuSansMono-56"/>
      <use x="903.076172" xlink:href="#DejaVuSansMono-52"/>
      <use x="963.28125" xlink:href="#DejaVuSansMono-53"/>
      <use x="1023.486328" xlink:href="#DejaVuSansMono-55"/>
      <use x="1083.691406" xlink:href="#DejaVuSansMono-54"/>
     </g>
     <!-- x_max  = 525 -->
     <g transform="translate(376.67625 78.194812)scale(0.06 -0.06)">
      <use xlink:href="#DejaVuSansMono-120"/>
      <use x="60.205078" xlink:href="#DejaVuSansMono-95"/>
      <use x="120.410156" xlink:href="#DejaVuSansMono-109"/>
      <use x="180.615234" xlink:href="#DejaVuSansMono-97"/>
      <use x="240.820312" xlink:href="#DejaVuSansMono-120"/>
      <use x="301.025391" xlink:href="#DejaVuSansMono-32"/>
      <use x="361.230469" xlink:href="#DejaVuSansMono-32"/>
      <use x="421.435547" xlink:href="#DejaVuSansMono-61"/>
      <use x="481.640625" xlink:href="#DejaVuSansMono-32"/>
      <use x="541.845703" xlink:href="#DejaVuSansMono-53"/>
      <use x="602.050781" xlink:href="#DejaVuSansMono-50"/>
      <use x="662.255859" xlink:href="#DejaVuSansMono-53"/>
     </g>
    </g>
   </g>
  </g>
 </g>
 <defs>
  <clipPath id="pc57096e72f">
   <rect height="298.453375" width="418.46125" x="35.85875" y="17.989125"/>
  </clipPath>
 </defs>
</svg>
