<?xml version="1.0" encoding="utf-8" standalone="no"?>
<!DOCTYPE svg PUBLIC "-//W3C//DTD SVG 1.1//EN"
  "http://www.w3.org/Graphics/SVG/1.1/DTD/svg11.dtd">
<!-- Created with matplotlib (https://matplotlib.org/) -->
<svg height="345.6pt" version="1.1" viewBox="0 0 460.8 345.6" width="460.8pt" xmlns="http://www.w3.org/2000/svg" xmlns:xlink="http://www.w3.org/1999/xlink">
 <metadata>
  <rdf:RDF xmlns:cc="http://creativecommons.org/ns#" xmlns:dc="http://purl.org/dc/elements/1.1/" xmlns:rdf="http://www.w3.org/1999/02/22-rdf-syntax-ns#">
   <cc:Work>
    <dc:type rdf:resource="http://purl.org/dc/dcmitype/StillImage"/>
    <dc:date>2022-03-17T00:29:02.805625</dc:date>
    <dc:format>image/svg+xml</dc:format>
    <dc:creator>
     <cc:Agent>
      <dc:title>Matplotlib v3.3.2, https://matplotlib.org/</dc:title>
     </cc:Agent>
    </dc:creator>
   </cc:Work>
  </rdf:RDF>
 </metadata>
 <defs>
  <style type="text/css">*{stroke-linecap:butt;stroke-linejoin:round;}</style>
 </defs>
 <g id="figure_1">
  <g id="patch_1">
   <path d="M 0 345.6 
L 460.8 345.6 
L 460.8 0 
L 0 0 
z
" style="fill:#ffffff;"/>
  </g>
  <g id="axes_1">
   <g id="patch_2">
    <path d="M 35.85875 316.4425 
L 454.32 316.4425 
L 454.32 17.989125 
L 35.85875 17.989125 
z
" style="fill:#ffffff;"/>
   </g>
   <g id="matplotlib.axis_1">
    <g id="xtick_1">
     <g id="line2d_1">
      <defs>
       <path d="M 0 0 
L 0 3.5 
" id="ma114397d15" style="stroke:#000000;stroke-width:0.8;"/>
      </defs>
      <g>
       <use style="stroke:#000000;stroke-width:0.8;" x="54.879716" xlink:href="#ma114397d15" y="316.4425"/>
      </g>
     </g>
     <g id="text_1">
      <!-- 0 -->
      <g transform="translate(53.073622 328.033437)scale(0.06 -0.06)">
       <defs>
        <path d="M 23.578125 36.625 
Q 23.578125 39.3125 25.453125 41.265625 
Q 27.34375 43.21875 29.984375 43.21875 
Q 32.71875 43.21875 34.671875 41.265625 
Q 36.625 39.3125 36.625 36.625 
Q 36.625 33.890625 34.6875 31.984375 
Q 32.765625 30.078125 29.984375 30.078125 
Q 27.25 30.078125 25.40625 31.9375 
Q 23.578125 33.796875 23.578125 36.625 
z
M 30.078125 66.40625 
Q 23.1875 66.40625 19.796875 58.984375 
Q 16.40625 51.5625 16.40625 36.375 
Q 16.40625 21.234375 19.796875 13.8125 
Q 23.1875 6.390625 30.078125 6.390625 
Q 37.015625 6.390625 40.40625 13.8125 
Q 43.796875 21.234375 43.796875 36.375 
Q 43.796875 51.5625 40.40625 58.984375 
Q 37.015625 66.40625 30.078125 66.40625 
z
M 30.078125 74.21875 
Q 41.75 74.21875 47.734375 64.640625 
Q 53.71875 55.078125 53.71875 36.375 
Q 53.71875 17.71875 47.734375 8.140625 
Q 41.75 -1.421875 30.078125 -1.421875 
Q 18.40625 -1.421875 12.453125 8.140625 
Q 6.5 17.71875 6.5 36.375 
Q 6.5 55.078125 12.453125 64.640625 
Q 18.40625 74.21875 30.078125 74.21875 
z
" id="DejaVuSansMono-48"/>
       </defs>
       <use xlink:href="#DejaVuSansMono-48"/>
      </g>
     </g>
    </g>
    <g id="xtick_2">
     <g id="line2d_2">
      <g>
       <use style="stroke:#000000;stroke-width:0.8;" x="118.708461" xlink:href="#ma114397d15" y="316.4425"/>
      </g>
     </g>
     <g id="text_2">
      <!-- 100 -->
      <g transform="translate(113.290179 328.033437)scale(0.06 -0.06)">
       <defs>
        <path d="M 13.1875 8.296875 
L 28.515625 8.296875 
L 28.515625 64.015625 
L 12.015625 60.296875 
L 12.015625 69.28125 
L 28.421875 72.90625 
L 38.28125 72.90625 
L 38.28125 8.296875 
L 53.421875 8.296875 
L 53.421875 0 
L 13.1875 0 
z
" id="DejaVuSansMono-49"/>
       </defs>
       <use xlink:href="#DejaVuSansMono-49"/>
       <use x="60.205078" xlink:href="#DejaVuSansMono-48"/>
       <use x="120.410156" xlink:href="#DejaVuSansMono-48"/>
      </g>
     </g>
    </g>
    <g id="xtick_3">
     <g id="line2d_3">
      <g>
       <use style="stroke:#000000;stroke-width:0.8;" x="182.537205" xlink:href="#ma114397d15" y="316.4425"/>
      </g>
     </g>
     <g id="text_3">
      <!-- 200 -->
      <g transform="translate(177.118924 328.033437)scale(0.06 -0.06)">
       <defs>
        <path d="M 18.21875 8.296875 
L 51.703125 8.296875 
L 51.703125 0 
L 7.421875 0 
L 7.421875 8.296875 
Q 16.546875 17.921875 23.375 25.296875 
Q 30.21875 32.671875 32.8125 35.6875 
Q 37.703125 41.65625 39.40625 45.34375 
Q 41.109375 49.03125 41.109375 52.875 
Q 41.109375 58.984375 37.515625 62.453125 
Q 33.9375 65.921875 27.6875 65.921875 
Q 23.25 65.921875 18.359375 64.3125 
Q 13.484375 62.703125 8.015625 59.421875 
L 8.015625 69.390625 
Q 13.03125 71.78125 17.890625 73 
Q 22.75 74.21875 27.484375 74.21875 
Q 38.1875 74.21875 44.703125 68.53125 
Q 51.21875 62.84375 51.21875 53.609375 
Q 51.21875 48.921875 49.046875 44.234375 
Q 46.875 39.546875 42 33.890625 
Q 39.265625 30.71875 34.0625 25.09375 
Q 28.859375 19.484375 18.21875 8.296875 
z
" id="DejaVuSansMono-50"/>
       </defs>
       <use xlink:href="#DejaVuSansMono-50"/>
       <use x="60.205078" xlink:href="#DejaVuSansMono-48"/>
       <use x="120.410156" xlink:href="#DejaVuSansMono-48"/>
      </g>
     </g>
    </g>
    <g id="xtick_4">
     <g id="line2d_4">
      <g>
       <use style="stroke:#000000;stroke-width:0.8;" x="246.36595" xlink:href="#ma114397d15" y="316.4425"/>
      </g>
     </g>
     <g id="text_4">
      <!-- 300 -->
      <g transform="translate(240.947669 328.033437)scale(0.06 -0.06)">
       <defs>
        <path d="M 37.890625 39.015625 
Q 45.0625 37.109375 48.875 32.25 
Q 52.6875 27.390625 52.6875 20.125 
Q 52.6875 10.0625 45.921875 4.3125 
Q 39.15625 -1.421875 27.203125 -1.421875 
Q 22.171875 -1.421875 16.9375 -0.484375 
Q 11.71875 0.4375 6.6875 2.203125 
L 6.6875 12.015625 
Q 11.671875 9.421875 16.5 8.15625 
Q 21.34375 6.890625 26.125 6.890625 
Q 34.234375 6.890625 38.578125 10.546875 
Q 42.921875 14.203125 42.921875 21.09375 
Q 42.921875 27.4375 38.578125 31.171875 
Q 34.234375 34.90625 26.8125 34.90625 
L 19.28125 34.90625 
L 19.28125 43.015625 
L 26.8125 43.015625 
Q 33.59375 43.015625 37.40625 45.984375 
Q 41.21875 48.96875 41.21875 54.296875 
Q 41.21875 59.90625 37.671875 62.90625 
Q 34.125 65.921875 27.59375 65.921875 
Q 23.25 65.921875 18.609375 64.9375 
Q 13.96875 63.96875 8.890625 62.015625 
L 8.890625 71.09375 
Q 14.796875 72.65625 19.40625 73.4375 
Q 24.03125 74.21875 27.59375 74.21875 
Q 38.234375 74.21875 44.609375 68.875 
Q 50.984375 63.53125 50.984375 54.6875 
Q 50.984375 48.6875 47.625 44.671875 
Q 44.28125 40.671875 37.890625 39.015625 
z
" id="DejaVuSansMono-51"/>
       </defs>
       <use xlink:href="#DejaVuSansMono-51"/>
       <use x="60.205078" xlink:href="#DejaVuSansMono-48"/>
       <use x="120.410156" xlink:href="#DejaVuSansMono-48"/>
      </g>
     </g>
    </g>
    <g id="xtick_5">
     <g id="line2d_5">
      <g>
       <use style="stroke:#000000;stroke-width:0.8;" x="310.194695" xlink:href="#ma114397d15" y="316.4425"/>
      </g>
     </g>
     <g id="text_5">
      <!-- 400 -->
      <g transform="translate(304.776413 328.033437)scale(0.06 -0.06)">
       <defs>
        <path d="M 35.890625 63.921875 
L 12.890625 25.390625 
L 35.890625 25.390625 
z
M 34.28125 72.90625 
L 45.703125 72.90625 
L 45.703125 25.390625 
L 55.421875 25.390625 
L 55.421875 17.390625 
L 45.703125 17.390625 
L 45.703125 0 
L 35.890625 0 
L 35.890625 17.390625 
L 4.984375 17.390625 
L 4.984375 26.703125 
z
" id="DejaVuSansMono-52"/>
       </defs>
       <use xlink:href="#DejaVuSansMono-52"/>
       <use x="60.205078" xlink:href="#DejaVuSansMono-48"/>
       <use x="120.410156" xlink:href="#DejaVuSansMono-48"/>
      </g>
     </g>
    </g>
    <g id="xtick_6">
     <g id="line2d_6">
      <g>
       <use style="stroke:#000000;stroke-width:0.8;" x="374.023439" xlink:href="#ma114397d15" y="316.4425"/>
      </g>
     </g>
     <g id="text_6">
      <!-- 500 -->
      <g transform="translate(368.605158 328.033437)scale(0.06 -0.06)">
       <defs>
        <path d="M 10.109375 72.90625 
L 47.015625 72.90625 
L 47.015625 64.59375 
L 19.09375 64.59375 
L 19.09375 46.6875 
Q 21.1875 47.46875 23.3125 47.828125 
Q 25.4375 48.1875 27.59375 48.1875 
Q 38.921875 48.1875 45.5625 41.5 
Q 52.203125 34.8125 52.203125 23.390625 
Q 52.203125 11.859375 45.234375 5.21875 
Q 38.28125 -1.421875 26.21875 -1.421875 
Q 20.40625 -1.421875 15.59375 -0.640625 
Q 10.796875 0.140625 6.984375 1.703125 
L 6.984375 11.71875 
Q 11.46875 9.28125 16.015625 8.078125 
Q 20.5625 6.890625 25.296875 6.890625 
Q 33.453125 6.890625 37.859375 11.1875 
Q 42.28125 15.484375 42.28125 23.390625 
Q 42.28125 31.203125 37.71875 35.546875 
Q 33.15625 39.890625 25 39.890625 
Q 21.046875 39.890625 17.28125 38.984375 
Q 13.53125 38.09375 10.109375 36.28125 
z
" id="DejaVuSansMono-53"/>
       </defs>
       <use xlink:href="#DejaVuSansMono-53"/>
       <use x="60.205078" xlink:href="#DejaVuSansMono-48"/>
       <use x="120.410156" xlink:href="#DejaVuSansMono-48"/>
      </g>
     </g>
    </g>
    <g id="xtick_7">
     <g id="line2d_7">
      <g>
       <use style="stroke:#000000;stroke-width:0.8;" x="437.852184" xlink:href="#ma114397d15" y="316.4425"/>
      </g>
     </g>
     <g id="text_7">
      <!-- 600 -->
      <g transform="translate(432.433903 328.033437)scale(0.06 -0.06)">
       <defs>
        <path d="M 48.390625 71.296875 
L 48.390625 62.203125 
Q 45.3125 64.015625 41.84375 64.96875 
Q 38.375 65.921875 34.625 65.921875 
Q 25.25 65.921875 20.40625 58.859375 
Q 15.578125 51.8125 15.578125 38.09375 
Q 17.921875 42.96875 22.0625 45.578125 
Q 26.21875 48.1875 31.59375 48.1875 
Q 42.140625 48.1875 47.921875 41.71875 
Q 53.71875 35.25 53.71875 23.390625 
Q 53.71875 11.578125 47.75 5.078125 
Q 41.796875 -1.421875 31 -1.421875 
Q 18.3125 -1.421875 12.40625 7.6875 
Q 6.5 16.796875 6.5 36.375 
Q 6.5 54.828125 13.59375 64.515625 
Q 20.703125 74.21875 34.1875 74.21875 
Q 37.796875 74.21875 41.40625 73.453125 
Q 45.015625 72.703125 48.390625 71.296875 
z
M 30.8125 40.484375 
Q 24.515625 40.484375 20.890625 35.9375 
Q 17.28125 31.390625 17.28125 23.390625 
Q 17.28125 15.375 20.890625 10.828125 
Q 24.515625 6.296875 30.8125 6.296875 
Q 37.359375 6.296875 40.671875 10.609375 
Q 44 14.9375 44 23.390625 
Q 44 31.890625 40.671875 36.1875 
Q 37.359375 40.484375 30.8125 40.484375 
z
" id="DejaVuSansMono-54"/>
       </defs>
       <use xlink:href="#DejaVuSansMono-54"/>
       <use x="60.205078" xlink:href="#DejaVuSansMono-48"/>
       <use x="120.410156" xlink:href="#DejaVuSansMono-48"/>
      </g>
     </g>
    </g>
    <g id="text_8">
     <!-- n -->
     <g transform="translate(243.283281 337.872187)scale(0.06 -0.06)">
      <defs>
       <path d="M 51.3125 33.890625 
L 51.3125 0 
L 42.28125 0 
L 42.28125 33.890625 
Q 42.28125 41.265625 39.6875 44.71875 
Q 37.109375 48.1875 31.59375 48.1875 
Q 25.296875 48.1875 21.890625 43.71875 
Q 18.5 39.265625 18.5 30.90625 
L 18.5 0 
L 9.515625 0 
L 9.515625 54.6875 
L 18.5 54.6875 
L 18.5 46.484375 
Q 20.90625 51.171875 25 53.578125 
Q 29.109375 56 34.71875 56 
Q 43.0625 56 47.1875 50.5 
Q 51.3125 45.015625 51.3125 33.890625 
z
" id="DejaVuSansMono-110"/>
      </defs>
      <use xlink:href="#DejaVuSansMono-110"/>
     </g>
    </g>
   </g>
   <g id="matplotlib.axis_2">
    <g id="ytick_1">
     <g id="line2d_8">
      <defs>
       <path d="M 0 0 
L -3.5 0 
" id="m162d2e4059" style="stroke:#000000;stroke-width:0.8;"/>
      </defs>
      <g>
       <use style="stroke:#000000;stroke-width:0.8;" x="35.85875" xlink:href="#m162d2e4059" y="280.140848"/>
      </g>
     </g>
     <g id="text_9">
      <!-- $\mathdefault{10^{1}}$ -->
      <g transform="translate(18.83875 282.436317)scale(0.06 -0.06)">
       <use transform="translate(0 0.684375)" xlink:href="#DejaVuSansMono-49"/>
       <use transform="translate(60.205078 0.684375)" xlink:href="#DejaVuSansMono-48"/>
       <use transform="translate(121.367188 38.965625)scale(0.7)" xlink:href="#DejaVuSansMono-49"/>
      </g>
     </g>
    </g>
    <g id="ytick_2">
     <g id="line2d_9">
      <g>
       <use style="stroke:#000000;stroke-width:0.8;" x="35.85875" xlink:href="#m162d2e4059" y="234.66967"/>
      </g>
     </g>
     <g id="text_10">
      <!-- $\mathdefault{10^{3}}$ -->
      <g transform="translate(18.83875 236.965139)scale(0.06 -0.06)">
       <use transform="translate(0 0.765625)" xlink:href="#DejaVuSansMono-49"/>
       <use transform="translate(60.205078 0.765625)" xlink:href="#DejaVuSansMono-48"/>
       <use transform="translate(121.367188 39.046875)scale(0.7)" xlink:href="#DejaVuSansMono-51"/>
      </g>
     </g>
    </g>
    <g id="ytick_3">
     <g id="line2d_10">
      <g>
       <use style="stroke:#000000;stroke-width:0.8;" x="35.85875" xlink:href="#m162d2e4059" y="189.198492"/>
      </g>
     </g>
     <g id="text_11">
      <!-- $\mathdefault{10^{5}}$ -->
      <g transform="translate(18.83875 191.493961)scale(0.06 -0.06)">
       <use transform="translate(0 0.684375)" xlink:href="#DejaVuSansMono-49"/>
       <use transform="translate(60.205078 0.684375)" xlink:href="#DejaVuSansMono-48"/>
       <use transform="translate(121.367188 38.965625)scale(0.7)" xlink:href="#DejaVuSansMono-53"/>
      </g>
     </g>
    </g>
    <g id="ytick_4">
     <g id="line2d_11">
      <g>
       <use style="stroke:#000000;stroke-width:0.8;" x="35.85875" xlink:href="#m162d2e4059" y="143.727314"/>
      </g>
     </g>
     <g id="text_12">
      <!-- $\mathdefault{10^{7}}$ -->
      <g transform="translate(18.83875 146.022783)scale(0.06 -0.06)">
       <defs>
        <path d="M 6.78125 72.90625 
L 52.6875 72.90625 
L 52.6875 68.703125 
L 26.609375 0 
L 16.3125 0 
L 41.703125 64.59375 
L 6.78125 64.59375 
z
" id="DejaVuSansMono-55"/>
       </defs>
       <use transform="translate(0 0.684375)" xlink:href="#DejaVuSansMono-49"/>
       <use transform="translate(60.205078 0.684375)" xlink:href="#DejaVuSansMono-48"/>
       <use transform="translate(121.367188 38.965625)scale(0.7)" xlink:href="#DejaVuSansMono-55"/>
      </g>
     </g>
    </g>
    <g id="ytick_5">
     <g id="line2d_12">
      <g>
       <use style="stroke:#000000;stroke-width:0.8;" x="35.85875" xlink:href="#m162d2e4059" y="98.256136"/>
      </g>
     </g>
     <g id="text_13">
      <!-- $\mathdefault{10^{9}}$ -->
      <g transform="translate(18.83875 100.551605)scale(0.06 -0.06)">
       <defs>
        <path d="M 29.109375 32.328125 
Q 35.40625 32.328125 38.984375 36.859375 
Q 42.578125 41.40625 42.578125 49.421875 
Q 42.578125 57.421875 38.984375 61.953125 
Q 35.40625 66.5 29.109375 66.5 
Q 22.5625 66.5 19.234375 62.171875 
Q 15.921875 57.859375 15.921875 49.421875 
Q 15.921875 40.921875 19.21875 36.625 
Q 22.515625 32.328125 29.109375 32.328125 
z
M 11.53125 1.515625 
L 11.53125 10.59375 
Q 14.59375 8.796875 18.0625 7.84375 
Q 21.53125 6.890625 25.296875 6.890625 
Q 34.671875 6.890625 39.46875 13.9375 
Q 44.28125 21 44.28125 34.71875 
Q 42 29.828125 37.84375 27.21875 
Q 33.6875 24.609375 28.328125 24.609375 
Q 17.78125 24.609375 11.984375 31.09375 
Q 6.203125 37.59375 6.203125 49.515625 
Q 6.203125 61.28125 12.125 67.75 
Q 18.0625 74.21875 28.90625 74.21875 
Q 41.609375 74.21875 47.515625 65.078125 
Q 53.421875 55.953125 53.421875 36.375 
Q 53.421875 17.96875 46.3125 8.265625 
Q 39.203125 -1.421875 25.6875 -1.421875 
Q 22.125 -1.421875 18.5 -0.65625 
Q 14.890625 0.09375 11.53125 1.515625 
z
" id="DejaVuSansMono-57"/>
       </defs>
       <use transform="translate(0 0.765625)" xlink:href="#DejaVuSansMono-49"/>
       <use transform="translate(60.205078 0.765625)" xlink:href="#DejaVuSansMono-48"/>
       <use transform="translate(121.367188 39.046875)scale(0.7)" xlink:href="#DejaVuSansMono-57"/>
      </g>
     </g>
    </g>
    <g id="ytick_6">
     <g id="line2d_13">
      <g>
       <use style="stroke:#000000;stroke-width:0.8;" x="35.85875" xlink:href="#m162d2e4059" y="52.784958"/>
      </g>
     </g>
     <g id="text_14">
      <!-- $\mathdefault{10^{11}}$ -->
      <g transform="translate(16.31875 55.080427)scale(0.06 -0.06)">
       <use transform="translate(0 0.684375)" xlink:href="#DejaVuSansMono-49"/>
       <use transform="translate(60.205078 0.684375)" xlink:href="#DejaVuSansMono-48"/>
       <use transform="translate(121.367188 38.965625)scale(0.7)" xlink:href="#DejaVuSansMono-49"/>
       <use transform="translate(163.510742 38.965625)scale(0.7)" xlink:href="#DejaVuSansMono-49"/>
      </g>
     </g>
    </g>
    <g id="text_15">
     <!-- y_n -->
     <g transform="translate(10.904063 172.634094)rotate(-90)scale(0.06 -0.06)">
      <defs>
       <path d="M 41.890625 17.578125 
Q 39.65625 11.859375 36.1875 2.546875 
Q 31.34375 -10.359375 29.6875 -13.1875 
Q 27.4375 -17 24.0625 -18.890625 
Q 20.703125 -20.796875 16.21875 -20.796875 
L 8.984375 -20.796875 
L 8.984375 -13.28125 
L 14.3125 -13.28125 
Q 18.265625 -13.28125 20.5 -10.984375 
Q 22.75 -8.6875 26.21875 0.875 
L 5.078125 54.6875 
L 14.59375 54.6875 
L 30.8125 11.921875 
L 46.78125 54.6875 
L 56.296875 54.6875 
z
" id="DejaVuSansMono-121"/>
       <path d="M 60.203125 -19.671875 
L 60.203125 -23.578125 
L 0 -23.578125 
L 0 -19.671875 
z
" id="DejaVuSansMono-95"/>
      </defs>
      <use xlink:href="#DejaVuSansMono-121"/>
      <use x="60.205078" xlink:href="#DejaVuSansMono-95"/>
      <use x="120.410156" xlink:href="#DejaVuSansMono-110"/>
     </g>
    </g>
   </g>
   <g id="line2d_14">
    <path clip-path="url(#p522ddfc67e)" d="M 54.879716 153.091933 
L 55.518003 142.244299 
L 56.156291 149.088394 
L 56.794578 138.24076 
L 57.432866 145.084855 
L 58.071153 134.237221 
L 58.709441 141.081316 
L 59.347728 130.233683 
L 59.986015 137.077777 
L 60.624303 126.230144 
L 61.26259 133.074238 
L 61.900878 122.226605 
L 62.539165 129.0707 
L 63.177453 118.223067 
L 63.81574 125.067161 
L 64.454028 114.219528 
L 65.730603 127.907717 
L 66.36889 117.060084 
L 68.283752 137.592367 
L 68.92204 126.744734 
L 69.560327 133.588828 
L 70.198615 122.741195 
L 70.836902 129.585289 
L 71.47519 118.737657 
L 72.113477 125.581751 
L 72.751764 114.734118 
L 74.666627 135.266401 
L 75.304914 124.418768 
L 75.943202 131.262862 
L 76.581489 120.415229 
L 77.219777 127.259324 
L 77.858064 116.411691 
L 78.496351 123.255785 
L 79.134639 112.408152 
L 79.772926 119.252247 
L 80.411214 108.404614 
L 81.687789 122.092802 
L 82.326076 111.245169 
L 82.964364 118.089264 
L 83.602651 107.241631 
L 84.240938 114.085725 
L 84.879226 103.238092 
L 85.517513 110.082187 
L 86.155801 99.234554 
L 86.794088 106.078648 
L 87.432376 95.231015 
L 88.070663 102.07511 
L 88.708951 91.227477 
L 89.347238 98.071571 
L 89.985525 87.223938 
L 90.623813 94.068033 
L 91.2621 83.2204 
L 91.900388 90.064494 
L 92.538675 79.216861 
L 94.453538 99.749144 
L 95.091825 88.901511 
L 95.730112 95.745606 
L 96.3684 84.897973 
L 97.644975 98.586161 
L 98.283262 87.738529 
L 98.92155 94.582623 
L 99.559837 83.73499 
L 100.198125 90.579084 
L 100.836412 79.731452 
L 101.4747 86.575546 
L 102.112987 75.727913 
L 102.751274 82.572007 
L 103.389562 71.724375 
L 104.027849 78.568469 
L 104.666137 67.720836 
L 105.942712 81.409025 
L 106.580999 70.561392 
L 107.219287 77.405486 
L 107.857574 66.557853 
L 108.495861 73.401948 
L 109.134149 62.554315 
L 109.772436 69.398409 
L 110.410724 58.550776 
L 111.049011 65.394871 
L 111.687299 54.547238 
L 112.963874 68.235426 
L 113.602161 57.387794 
L 114.878736 71.075982 
L 115.517023 60.228349 
L 116.155311 67.072444 
L 116.793598 56.224811 
L 117.431886 63.068905 
L 118.070173 52.221272 
L 119.346748 65.909461 
L 119.985035 55.061828 
L 120.623323 61.905922 
L 121.26161 51.05829 
L 121.899898 57.902384 
L 122.538185 47.054751 
L 123.176473 53.898845 
L 123.81476 43.051213 
L 125.729622 63.583496 
L 126.36791 52.735863 
L 127.644485 66.424051 
L 128.282772 55.576419 
L 128.92106 62.420513 
L 129.559347 51.57288 
L 130.197635 58.416974 
L 130.835922 47.569342 
L 131.47421 54.413436 
L 132.112497 43.565803 
L 132.750784 50.409897 
L 133.389072 39.562265 
L 134.027359 46.406359 
L 134.665647 35.558726 
L 135.303934 42.40282 
L 135.942222 31.555187 
L 137.857084 52.08747 
L 138.495371 41.239838 
L 141.048521 68.616215 
L 141.686809 57.768582 
L 142.325096 64.612676 
L 142.963384 53.765043 
L 146.793108 94.829609 
L 147.431396 83.981976 
L 148.707971 97.670165 
L 149.346258 86.822532 
L 149.984545 93.666626 
L 150.622833 82.818994 
L 152.537695 103.351276 
L 153.175983 92.503644 
L 154.452558 106.191832 
L 155.090845 95.344199 
L 155.729132 102.188294 
L 156.36742 91.340661 
L 157.643995 105.028849 
L 158.282282 94.181217 
L 161.473719 128.401688 
L 162.112007 117.554055 
L 163.388582 131.242244 
L 164.026869 120.394611 
L 164.665157 127.238705 
L 165.303444 116.391072 
L 166.580019 130.079261 
L 167.218307 119.231628 
L 167.856594 126.075722 
L 168.494881 115.228089 
L 169.771456 128.916278 
L 170.409744 118.068645 
L 171.686319 131.756834 
L 172.324606 120.909201 
L 174.877756 148.285578 
L 175.516043 137.437945 
L 176.154331 144.282039 
L 176.792618 133.434406 
L 177.430906 140.2785 
L 178.069193 129.430867 
L 179.984055 149.96315 
L 180.622343 139.115516 
L 181.898918 152.803705 
L 182.537205 141.956071 
L 183.81378 155.64426 
L 184.452068 144.796626 
L 187.005217 172.173003 
L 187.643505 161.325365 
L 188.281792 168.169459 
L 188.92008 157.321822 
L 190.834942 177.854105 
L 191.473229 167.006462 
L 192.111517 173.850556 
L 192.749804 163.002916 
L 193.388092 169.847011 
L 194.026379 158.999373 
L 196.579529 186.37575 
L 197.217817 175.528093 
L 199.770966 202.90447 
L 200.409254 192.056705 
L 201.047541 198.900799 
L 201.685829 188.053079 
L 202.962404 201.741267 
L 203.600691 190.893517 
L 204.238978 197.737612 
L 204.877266 186.889901 
L 206.153841 200.578089 
L 206.792128 189.730352 
L 208.068703 203.418541 
L 208.706991 192.570769 
L 209.983565 206.258958 
L 210.621853 195.41114 
L 211.26014 202.255234 
L 211.898428 191.407478 
L 212.536715 198.251572 
L 213.175003 187.403857 
L 214.451578 201.092045 
L 215.089865 190.244303 
L 215.728152 197.088397 
L 216.36644 186.240691 
L 217.004727 193.084785 
L 217.643015 182.237104 
L 218.281302 189.081198 
L 218.91959 178.233533 
L 219.557877 185.077627 
L 220.196165 174.229973 
L 221.472739 187.918161 
L 222.111027 177.070499 
L 225.302464 211.290971 
L 225.940752 200.44303 
L 227.217326 214.131218 
L 227.855614 203.283174 
L 230.408764 230.659551 
L 231.047051 219.809726 
L 232.961914 240.342009 
L 233.600201 229.488532 
L 234.238488 236.332626 
L 234.876776 225.481099 
L 236.791638 246.013382 
L 237.429926 235.155372 
L 239.344788 255.687655 
L 239.983075 244.812402 
L 240.621363 251.656497 
L 241.25965 240.790494 
L 241.897938 247.634588 
L 242.536225 236.774728 
L 244.451088 257.30701 
L 245.089375 246.426844 
L 247.642525 273.803221 
L 248.280812 262.783863 
L 248.9191 269.627958 
L 249.557387 258.667479 
L 251.472249 279.199761 
L 252.110537 268.057362 
L 252.748824 274.901456 
L 253.387112 263.862091 
L 254.663687 277.550279 
L 255.301974 266.45266 
L 257.216836 286.984943 
L 257.855124 275.50006 
L 260.408274 302.876437 
L 260.408274 302.876437 
" style="fill:none;stroke:#1f77b4;stroke-linecap:square;stroke-width:0.666667;"/>
   </g>
   <g id="line2d_15">
    <path clip-path="url(#p522ddfc67e)" d="M 54.879716 153.458354 
L 55.518003 142.61072 
L 56.156291 149.454815 
L 56.794578 138.607181 
L 57.432866 145.451276 
L 58.071153 134.603642 
L 59.347728 148.291831 
L 59.986015 137.444198 
L 61.26259 151.132386 
L 61.900878 140.284753 
L 63.177453 153.972941 
L 63.81574 143.125308 
L 64.454028 149.969402 
L 65.092315 139.121768 
L 65.730603 145.965863 
L 66.36889 135.118229 
L 67.645465 148.806418 
L 68.283752 137.958785 
L 68.92204 144.802879 
L 69.560327 133.955246 
L 70.198615 140.79934 
L 70.836902 129.951707 
L 71.47519 136.795801 
L 72.113477 125.948168 
L 72.751764 132.792263 
L 73.390052 121.94463 
L 74.028339 128.788724 
L 74.666627 117.941091 
L 75.304914 124.785186 
L 75.943202 113.937553 
L 76.581489 120.781647 
L 77.219777 109.934014 
L 77.858064 116.778108 
L 78.496351 105.930476 
L 79.772926 119.618664 
L 80.411214 108.771031 
L 81.049501 115.615126 
L 81.687789 104.767493 
L 82.964364 118.455681 
L 83.602651 107.608049 
L 84.240938 114.452143 
L 84.879226 103.60451 
L 85.517513 110.448604 
L 86.155801 99.600972 
L 86.794088 106.445066 
L 87.432376 95.597433 
L 88.070663 102.441527 
L 88.708951 91.593895 
L 89.347238 98.437989 
L 89.985525 87.590356 
L 90.623813 94.43445 
L 91.2621 83.586818 
L 91.900388 90.430912 
L 92.538675 79.583279 
L 93.176963 86.427373 
L 93.81525 75.579741 
L 94.453538 82.423835 
L 95.091825 71.576202 
L 95.730112 78.420296 
L 96.3684 67.572664 
L 98.283262 88.104946 
L 98.92155 77.257314 
L 99.559837 84.101408 
L 100.198125 73.253775 
L 102.751274 100.630152 
L 103.389562 89.782519 
L 104.027849 96.626614 
L 104.666137 85.778981 
L 105.304424 92.623075 
L 105.942712 81.775442 
L 107.219287 95.463631 
L 107.857574 84.615998 
L 108.495861 91.460092 
L 109.134149 80.61246 
L 109.772436 87.456554 
L 110.410724 76.608921 
L 111.049011 83.453015 
L 111.687299 72.605383 
L 112.963874 86.293571 
L 113.602161 75.445938 
L 114.240448 82.290033 
L 114.878736 71.4424 
L 115.517023 78.286494 
L 116.155311 67.438861 
L 116.793598 74.282956 
L 117.431886 63.435323 
L 118.070173 70.279417 
L 118.708461 59.431784 
L 119.985035 73.119973 
L 120.623323 62.27234 
L 121.26161 69.116434 
L 121.899898 58.268802 
L 122.538185 65.112896 
L 123.176473 54.265263 
L 123.81476 61.109357 
L 124.453048 50.261725 
L 125.091335 57.105819 
L 125.729622 46.258186 
L 126.36791 53.10228 
L 127.006197 42.254648 
L 128.92106 62.78693 
L 129.559347 51.939298 
L 130.197635 58.783392 
L 130.835922 47.935759 
L 132.112497 61.623948 
L 132.750784 50.776315 
L 133.389072 57.620409 
L 134.027359 46.772776 
L 135.303934 60.460965 
L 135.942222 49.613332 
L 137.218797 63.301521 
L 137.857084 52.453888 
L 138.495371 59.297982 
L 139.133659 48.450349 
L 140.410234 62.138538 
L 141.048521 51.290905 
L 141.686809 58.135 
L 142.325096 47.287367 
L 142.963384 54.131461 
L 143.601671 43.283828 
L 144.878246 56.972017 
L 145.516533 46.124384 
L 146.154821 52.968478 
L 146.793108 42.120846 
L 151.26112 90.029505 
L 151.899408 79.181873 
L 154.452558 106.55825 
L 155.090845 95.710617 
L 155.729132 102.554711 
L 156.36742 91.707079 
L 157.643995 105.395267 
L 158.282282 94.547634 
L 158.92057 101.391729 
L 159.558857 90.544096 
L 160.197145 97.38819 
L 160.835432 86.540557 
L 162.750294 107.07284 
L 163.388582 96.225207 
L 164.026869 103.069302 
L 164.665157 92.221669 
L 165.303444 99.065763 
L 165.941732 88.21813 
L 166.580019 95.062225 
L 167.218307 84.214592 
L 169.133169 104.746875 
L 169.771456 93.899242 
L 173.601181 134.963807 
L 174.239468 124.116175 
L 174.877756 130.960269 
L 175.516043 120.112636 
L 176.154331 126.95673 
L 176.792618 116.109097 
L 177.430906 122.953192 
L 178.069193 112.105559 
L 179.345768 125.793747 
L 179.984055 114.946115 
L 180.622343 121.790209 
L 181.26063 110.942576 
L 182.537205 124.630765 
L 183.175493 113.783132 
L 183.81378 120.627226 
L 184.452068 109.779593 
L 185.090355 116.623688 
L 185.728642 105.776055 
L 187.005217 119.464243 
L 187.643505 108.61661 
L 188.281792 115.460705 
L 188.92008 104.613072 
L 190.196655 118.30126 
L 190.834942 107.453628 
L 193.388092 134.830005 
L 194.026379 123.982372 
L 194.664667 130.826466 
L 195.302954 119.978833 
L 195.941242 126.822928 
L 196.579529 115.975295 
L 197.856104 129.663483 
L 198.494391 118.81585 
L 200.409254 139.348133 
L 201.047541 128.5005 
L 201.685829 135.344595 
L 202.324116 124.496962 
L 204.238978 145.029244 
L 204.877266 134.181611 
L 205.515553 141.025706 
L 206.153841 130.178073 
L 206.792128 137.022167 
L 207.430416 126.174534 
L 208.706991 139.862722 
L 209.345278 129.015089 
L 211.26014 149.547372 
L 211.898428 138.699739 
L 212.536715 145.543833 
L 213.175003 134.6962 
L 213.81329 141.540294 
L 214.451578 130.692661 
L 215.089865 137.536755 
L 215.728152 126.689123 
L 216.36644 133.533217 
L 217.004727 122.685584 
L 218.281302 136.373772 
L 218.91959 125.52614 
L 219.557877 132.370234 
L 220.196165 121.522601 
L 221.472739 135.210789 
L 222.111027 124.363157 
L 223.387602 138.051345 
L 224.025889 127.203712 
L 225.302464 140.891901 
L 225.940752 130.044268 
L 226.579039 136.888362 
L 227.217326 126.040729 
L 227.855614 132.884823 
L 228.493901 122.03719 
L 230.408764 142.569473 
L 231.047051 131.72184 
L 231.685339 138.565934 
L 232.323626 127.718301 
L 232.961914 134.562396 
L 233.600201 123.714763 
L 234.238488 130.558857 
L 234.876776 119.711224 
L 236.153351 133.399413 
L 236.791638 122.55178 
L 237.429926 129.395874 
L 238.068213 118.548241 
L 239.344788 132.23643 
L 239.983075 121.388797 
L 241.25965 135.076986 
L 241.897938 124.229353 
L 243.174513 137.917541 
L 243.8128 127.069908 
L 245.089375 140.758097 
L 245.727662 129.910464 
L 247.004237 143.598652 
L 247.642525 132.751019 
L 252.110537 180.659679 
L 252.748824 169.812032 
L 254.025399 183.500221 
L 254.663687 172.65257 
L 255.301974 179.496664 
L 255.940262 168.649019 
L 256.578549 175.493113 
L 257.216836 164.645472 
L 258.493411 178.333661 
L 259.131699 167.486017 
L 259.769986 174.330111 
L 260.408274 163.482471 
L 261.684849 177.17066 
L 262.323136 166.323017 
L 263.599711 180.011206 
L 264.237998 169.16356 
L 264.876286 176.007654 
L 265.514573 165.160013 
L 266.152861 172.004107 
L 266.791148 161.156469 
L 267.429436 168.000563 
L 268.067723 157.152926 
L 268.706011 163.997021 
L 269.344298 153.149385 
L 269.982585 159.99348 
L 270.620873 149.145845 
L 271.25916 155.989939 
L 271.897448 145.142305 
L 273.174023 158.830494 
L 273.81231 147.98286 
L 274.450598 154.826954 
L 275.088885 143.97932 
L 275.727172 150.823414 
L 276.36546 139.975781 
L 277.003747 146.819875 
L 277.642035 135.972242 
L 279.556897 156.504525 
L 280.195185 145.656891 
L 280.833472 152.500985 
L 281.471759 141.653352 
L 282.748334 155.34154 
L 283.386622 144.493906 
L 284.024909 151.338001 
L 284.663197 140.490367 
L 285.939772 154.178556 
L 286.578059 143.330922 
L 287.854634 157.01911 
L 288.492921 146.171476 
L 291.046071 173.547853 
L 291.684359 162.700214 
L 292.322646 169.544308 
L 292.960933 158.696671 
L 293.599221 165.540765 
L 294.237508 154.693129 
L 294.875796 161.537224 
L 295.514083 150.689589 
L 298.705521 184.91006 
L 299.343808 174.062406 
L 299.982095 180.906501 
L 300.620383 170.058854 
L 301.25867 176.902948 
L 301.896958 166.055306 
L 305.088395 200.275777 
L 305.726682 189.428043 
L 306.36497 196.272137 
L 307.003257 185.424437 
L 307.641545 192.268531 
L 308.279832 181.420854 
L 310.194695 201.953137 
L 310.832982 191.105384 
L 311.471269 197.949478 
L 312.109557 187.101766 
L 312.747844 193.94586 
L 313.386132 183.098174 
L 315.939282 210.474551 
L 316.577569 199.626634 
L 317.854144 213.314823 
L 318.492431 202.466812 
L 319.130719 209.310906 
L 319.769006 198.463021 
L 320.407294 205.307115 
L 321.045581 194.459314 
L 322.960443 214.991597 
L 323.598731 204.143516 
L 324.875306 217.831704 
L 325.513593 206.983473 
L 326.151881 213.827568 
L 326.790168 202.979536 
L 327.428456 209.82363 
L 328.066743 198.975732 
L 328.705031 205.819826 
L 329.343318 194.972016 
L 329.981605 201.81611 
L 330.619893 190.968359 
L 331.25818 197.812454 
L 331.896468 186.964742 
L 332.534755 193.808836 
L 333.173043 182.961151 
L 335.726192 210.337528 
L 336.36448 199.489616 
L 337.002767 206.33371 
L 337.641055 195.48589 
L 338.91763 209.174079 
L 339.555917 198.326197 
L 340.832492 212.014386 
L 341.470779 201.166421 
L 342.109067 208.010516 
L 342.747354 197.162662 
L 343.385642 204.006756 
L 344.023929 193.158976 
L 344.662217 200.00307 
L 345.300504 189.155339 
L 345.938792 195.999433 
L 346.577079 185.151735 
L 347.215366 191.995829 
L 347.853654 181.148152 
L 349.130229 194.836341 
L 349.768516 183.98865 
L 351.045091 197.676839 
L 351.683379 186.829128 
L 354.236528 214.205505 
L 354.874816 203.357458 
L 356.151391 217.045647 
L 356.789678 206.197462 
L 357.427966 213.041556 
L 358.066253 202.193555 
L 358.70454 209.037649 
L 359.342828 198.189771 
L 360.619403 211.87796 
L 361.25769 201.03 
L 362.534265 214.718188 
L 363.172553 203.870119 
L 363.81084 210.714213 
L 364.449128 199.86629 
L 365.087415 206.710384 
L 365.725702 195.862557 
L 367.640565 216.39484 
L 368.278852 205.54669 
L 370.193715 226.078973 
L 370.832002 215.229961 
L 371.470289 222.074056 
L 372.108577 211.225504 
L 374.023439 231.757787 
L 374.661727 220.907704 
L 375.300014 227.751798 
L 375.938302 216.902532 
L 376.576589 223.746626 
L 377.214876 212.897905 
L 377.853164 219.741999 
L 378.491451 208.89364 
L 379.129739 215.737735 
L 379.768026 204.889618 
L 380.406314 211.733712 
L 381.044601 200.885757 
L 382.959463 221.41804 
L 383.597751 210.569547 
L 384.236038 217.413641 
L 384.874326 206.565435 
L 386.789188 227.097718 
L 387.427476 216.248557 
L 388.70405 229.936745 
L 389.342338 219.087075 
L 389.980625 225.931169 
L 390.618913 215.082178 
L 391.2572 221.926272 
L 391.895488 211.077734 
L 392.533775 217.921828 
L 393.172063 207.073592 
L 395.086925 227.605875 
L 395.725212 216.756633 
L 397.640075 237.288916 
L 398.278362 226.436993 
L 398.91665 233.281087 
L 399.554937 222.430595 
L 400.193225 229.274689 
L 400.831512 218.425151 
L 401.469799 225.269245 
L 402.108087 214.420342 
L 402.746374 221.264436 
L 403.384662 210.415957 
L 404.022949 217.260051 
L 404.661237 206.411854 
L 405.299524 213.255948 
L 405.937812 202.407939 
L 406.576099 209.252033 
L 407.214386 198.40415 
L 408.490961 212.092338 
L 409.129249 201.244371 
L 410.405824 214.93256 
L 411.044111 204.084481 
L 415.512123 251.993141 
L 416.150411 241.126502 
L 418.065273 261.658784 
L 418.70356 250.760645 
L 419.980135 264.448834 
L 420.618423 253.534259 
L 421.894998 267.222448 
L 422.533285 256.286259 
L 425.086435 283.662636 
L 425.724722 272.355667 
L 426.36301 279.199761 
L 427.001297 268.057362 
L 427.639585 274.901456 
L 428.277872 263.862091 
L 429.554447 277.550279 
L 430.192735 266.45266 
L 432.107597 286.984943 
L 432.745884 275.50006 
L 435.299034 302.876437 
L 435.299034 302.876437 
" style="fill:none;stroke:#ff7f0e;stroke-linecap:square;stroke-width:0.666667;"/>
   </g>
   <g id="patch_3">
    <path d="M 35.85875 316.4425 
L 35.85875 17.989125 
" style="fill:none;stroke:#000000;stroke-linecap:square;stroke-linejoin:miter;stroke-width:0.8;"/>
   </g>
   <g id="patch_4">
    <path d="M 454.32 316.4425 
L 454.32 17.989125 
" style="fill:none;stroke:#000000;stroke-linecap:square;stroke-linejoin:miter;stroke-width:0.8;"/>
   </g>
   <g id="patch_5">
    <path d="M 35.85875 316.4425 
L 454.32 316.4425 
" style="fill:none;stroke:#000000;stroke-linecap:square;stroke-linejoin:miter;stroke-width:0.8;"/>
   </g>
   <g id="patch_6">
    <path d="M 35.85875 17.989125 
L 454.32 17.989125 
" style="fill:none;stroke:#000000;stroke-linecap:square;stroke-linejoin:miter;stroke-width:0.8;"/>
   </g>
   <g id="text_16">
    <!-- "3y+1" problem -->
    <g transform="translate(214.747 11.989125)scale(0.072 -0.072)">
     <defs>
      <path d="M 43.703125 72.90625 
L 43.703125 45.796875 
L 35.203125 45.796875 
L 35.203125 72.90625 
z
M 25 72.90625 
L 25 45.796875 
L 16.5 45.796875 
L 16.5 72.90625 
z
" id="DejaVuSansMono-34"/>
      <path d="M 34.1875 57.171875 
L 34.1875 35.5 
L 55.90625 35.5 
L 55.90625 27.203125 
L 34.1875 27.203125 
L 34.1875 5.515625 
L 25.984375 5.515625 
L 25.984375 27.203125 
L 4.296875 27.203125 
L 4.296875 35.5 
L 25.984375 35.5 
L 25.984375 57.171875 
z
" id="DejaVuSansMono-43"/>
      <path id="DejaVuSansMono-32"/>
      <path d="M 18.3125 6.890625 
L 18.3125 -20.796875 
L 9.28125 -20.796875 
L 9.28125 54.6875 
L 18.3125 54.6875 
L 18.3125 47.703125 
Q 20.5625 51.765625 24.296875 53.875 
Q 28.03125 56 32.90625 56 
Q 42.828125 56 48.46875 48.328125 
Q 54.109375 40.671875 54.109375 27.09375 
Q 54.109375 13.765625 48.4375 6.171875 
Q 42.78125 -1.421875 32.90625 -1.421875 
Q 27.9375 -1.421875 24.1875 0.703125 
Q 20.453125 2.828125 18.3125 6.890625 
z
M 44.671875 27.296875 
Q 44.671875 37.75 41.375 43.0625 
Q 38.09375 48.390625 31.59375 48.390625 
Q 25.046875 48.390625 21.671875 43.046875 
Q 18.3125 37.703125 18.3125 27.296875 
Q 18.3125 16.9375 21.671875 11.5625 
Q 25.046875 6.203125 31.59375 6.203125 
Q 38.09375 6.203125 41.375 11.515625 
Q 44.671875 16.84375 44.671875 27.296875 
z
" id="DejaVuSansMono-112"/>
      <path d="M 56.390625 43.40625 
Q 53.515625 45.65625 50.53125 46.671875 
Q 47.5625 47.703125 44 47.703125 
Q 35.59375 47.703125 31.140625 42.421875 
Q 26.703125 37.15625 26.703125 27.203125 
L 26.703125 0 
L 17.671875 0 
L 17.671875 54.6875 
L 26.703125 54.6875 
L 26.703125 44 
Q 28.953125 49.8125 33.609375 52.90625 
Q 38.28125 56 44.671875 56 
Q 48 56 50.875 55.171875 
Q 53.765625 54.34375 56.390625 52.59375 
z
" id="DejaVuSansMono-114"/>
      <path d="M 30.078125 48.390625 
Q 23.25 48.390625 19.734375 43.0625 
Q 16.21875 37.75 16.21875 27.296875 
Q 16.21875 16.890625 19.734375 11.546875 
Q 23.25 6.203125 30.078125 6.203125 
Q 36.96875 6.203125 40.484375 11.546875 
Q 44 16.890625 44 27.296875 
Q 44 37.75 40.484375 43.0625 
Q 36.96875 48.390625 30.078125 48.390625 
z
M 30.078125 56 
Q 41.453125 56 47.484375 48.625 
Q 53.515625 41.265625 53.515625 27.296875 
Q 53.515625 13.28125 47.5 5.921875 
Q 41.5 -1.421875 30.078125 -1.421875 
Q 18.703125 -1.421875 12.6875 5.921875 
Q 6.6875 13.28125 6.6875 27.296875 
Q 6.6875 41.265625 12.6875 48.625 
Q 18.703125 56 30.078125 56 
z
" id="DejaVuSansMono-111"/>
      <path d="M 44.828125 27.296875 
Q 44.828125 37.75 41.5 43.0625 
Q 38.1875 48.390625 31.6875 48.390625 
Q 25.140625 48.390625 21.765625 43.046875 
Q 18.40625 37.703125 18.40625 27.296875 
Q 18.40625 16.9375 21.765625 11.5625 
Q 25.140625 6.203125 31.6875 6.203125 
Q 38.1875 6.203125 41.5 11.515625 
Q 44.828125 16.84375 44.828125 27.296875 
z
M 18.40625 47.703125 
Q 20.5625 51.703125 24.34375 53.84375 
Q 28.125 56 33.109375 56 
Q 42.96875 56 48.625 48.40625 
Q 54.296875 40.828125 54.296875 27.484375 
Q 54.296875 13.96875 48.609375 6.265625 
Q 42.921875 -1.421875 33.015625 -1.421875 
Q 28.125 -1.421875 24.390625 0.703125 
Q 20.65625 2.828125 18.40625 6.890625 
L 18.40625 0 
L 9.421875 0 
L 9.421875 75.984375 
L 18.40625 75.984375 
z
" id="DejaVuSansMono-98"/>
      <path d="M 31.203125 19.828125 
Q 31.203125 13.765625 33.421875 10.6875 
Q 35.640625 7.625 39.984375 7.625 
L 50.484375 7.625 
L 50.484375 0 
L 39.109375 0 
Q 31.0625 0 26.640625 5.171875 
Q 22.21875 10.359375 22.21875 19.828125 
L 22.21875 69.484375 
L 7.8125 69.484375 
L 7.8125 76.515625 
L 31.203125 76.515625 
z
" id="DejaVuSansMono-108"/>
      <path d="M 54.296875 29.59375 
L 54.296875 25.203125 
L 15.375 25.203125 
L 15.375 24.90625 
Q 15.375 15.96875 20.03125 11.078125 
Q 24.703125 6.203125 33.203125 6.203125 
Q 37.5 6.203125 42.1875 7.5625 
Q 46.875 8.9375 52.203125 11.71875 
L 52.203125 2.78125 
Q 47.078125 0.6875 42.3125 -0.359375 
Q 37.546875 -1.421875 33.109375 -1.421875 
Q 20.359375 -1.421875 13.171875 6.21875 
Q 6 13.875 6 27.296875 
Q 6 40.375 13.03125 48.1875 
Q 20.0625 56 31.78125 56 
Q 42.234375 56 48.265625 48.921875 
Q 54.296875 41.84375 54.296875 29.59375 
z
M 45.3125 32.234375 
Q 45.125 40.140625 41.578125 44.265625 
Q 38.03125 48.390625 31.390625 48.390625 
Q 24.90625 48.390625 20.703125 44.09375 
Q 16.5 39.796875 15.71875 32.171875 
z
" id="DejaVuSansMono-101"/>
      <path d="M 33.015625 49.125 
Q 34.671875 52.640625 37.234375 54.3125 
Q 39.796875 56 43.40625 56 
Q 50 56 52.703125 50.890625 
Q 55.421875 45.796875 55.421875 31.6875 
L 55.421875 0 
L 47.21875 0 
L 47.21875 31.296875 
Q 47.21875 42.875 45.921875 45.671875 
Q 44.625 48.484375 41.21875 48.484375 
Q 37.3125 48.484375 35.859375 45.484375 
Q 34.421875 42.484375 34.421875 31.296875 
L 34.421875 0 
L 26.21875 0 
L 26.21875 31.296875 
Q 26.21875 43.015625 24.828125 45.75 
Q 23.4375 48.484375 19.828125 48.484375 
Q 16.265625 48.484375 14.875 45.484375 
Q 13.484375 42.484375 13.484375 31.296875 
L 13.484375 0 
L 5.328125 0 
L 5.328125 54.6875 
L 13.484375 54.6875 
L 13.484375 50 
Q 15.09375 52.9375 17.5 54.46875 
Q 19.921875 56 23 56 
Q 26.703125 56 29.171875 54.296875 
Q 31.640625 52.59375 33.015625 49.125 
z
" id="DejaVuSansMono-109"/>
     </defs>
     <use xlink:href="#DejaVuSansMono-34"/>
     <use x="60.205078" xlink:href="#DejaVuSansMono-51"/>
     <use x="120.410156" xlink:href="#DejaVuSansMono-121"/>
     <use x="180.615234" xlink:href="#DejaVuSansMono-43"/>
     <use x="240.820312" xlink:href="#DejaVuSansMono-49"/>
     <use x="301.025391" xlink:href="#DejaVuSansMono-34"/>
     <use x="361.230469" xlink:href="#DejaVuSansMono-32"/>
     <use x="421.435547" xlink:href="#DejaVuSansMono-112"/>
     <use x="481.640625" xlink:href="#DejaVuSansMono-114"/>
     <use x="541.845703" xlink:href="#DejaVuSansMono-111"/>
     <use x="602.050781" xlink:href="#DejaVuSansMono-98"/>
     <use x="662.255859" xlink:href="#DejaVuSansMono-108"/>
     <use x="722.460938" xlink:href="#DejaVuSansMono-101"/>
     <use x="782.666016" xlink:href="#DejaVuSansMono-109"/>
    </g>
   </g>
   <g id="legend_1">
    <g id="patch_7">
     <path d="M 355.064062 82.0095 
L 450.12 82.0095 
Q 451.32 82.0095 451.32 80.8095 
L 451.32 22.189125 
Q 451.32 20.989125 450.12 20.989125 
L 355.064062 20.989125 
Q 353.864062 20.989125 353.864062 22.189125 
L 353.864062 80.8095 
Q 353.864062 82.0095 355.064062 82.0095 
z
" style="fill:#ffffff;opacity:0.8;stroke:#cccccc;stroke-linejoin:miter;"/>
    </g>
    <g id="line2d_16">
     <path d="M 356.264062 36.889687 
L 368.264062 36.889687 
" style="fill:none;stroke:#1f77b4;stroke-linecap:square;stroke-width:0.666667;"/>
    </g>
    <g id="line2d_17"/>
    <g id="text_17">
     <!-- "Tallest": -->
     <g transform="translate(373.064062 27.980062)scale(0.06 -0.06)">
      <defs>
       <path d="M 2.296875 72.90625 
L 57.90625 72.90625 
L 57.90625 64.59375 
L 35.109375 64.59375 
L 35.109375 0 
L 25.203125 0 
L 25.203125 64.59375 
L 2.296875 64.59375 
z
" id="DejaVuSansMono-84"/>
       <path d="M 34.28125 27.484375 
L 31.296875 27.484375 
Q 23.4375 27.484375 19.453125 24.71875 
Q 15.484375 21.96875 15.484375 16.5 
Q 15.484375 11.578125 18.453125 8.84375 
Q 21.4375 6.109375 26.703125 6.109375 
Q 34.125 6.109375 38.375 11.25 
Q 42.625 16.40625 42.671875 25.484375 
L 42.671875 27.484375 
z
M 51.703125 31.203125 
L 51.703125 0 
L 42.671875 0 
L 42.671875 8.109375 
Q 39.796875 3.21875 35.421875 0.890625 
Q 31.0625 -1.421875 24.8125 -1.421875 
Q 16.453125 -1.421875 11.46875 3.296875 
Q 6.5 8.015625 6.5 15.921875 
Q 6.5 25.046875 12.625 29.78125 
Q 18.75 34.515625 30.609375 34.515625 
L 42.671875 34.515625 
L 42.671875 35.9375 
Q 42.625 42.484375 39.34375 45.4375 
Q 36.078125 48.390625 28.90625 48.390625 
Q 24.3125 48.390625 19.625 47.0625 
Q 14.9375 45.75 10.5 43.21875 
L 10.5 52.203125 
Q 15.484375 54.109375 20.046875 55.046875 
Q 24.609375 56 28.90625 56 
Q 35.6875 56 40.5 54 
Q 45.3125 52 48.296875 48 
Q 50.140625 45.5625 50.921875 41.96875 
Q 51.703125 38.375 51.703125 31.203125 
z
" id="DejaVuSansMono-97"/>
       <path d="M 47.515625 52.78125 
L 47.515625 44 
Q 43.65625 46.234375 39.75 47.359375 
Q 35.84375 48.484375 31.78125 48.484375 
Q 25.6875 48.484375 22.671875 46.5 
Q 19.671875 44.53125 19.671875 40.484375 
Q 19.671875 36.8125 21.921875 35 
Q 24.171875 33.203125 33.109375 31.5 
L 36.71875 30.8125 
Q 43.40625 29.546875 46.84375 25.734375 
Q 50.296875 21.921875 50.296875 15.828125 
Q 50.296875 7.71875 44.53125 3.140625 
Q 38.765625 -1.421875 28.515625 -1.421875 
Q 24.46875 -1.421875 20.015625 -0.5625 
Q 15.578125 0.296875 10.40625 2 
L 10.40625 11.28125 
Q 15.4375 8.6875 20.015625 7.390625 
Q 24.609375 6.109375 28.71875 6.109375 
Q 34.671875 6.109375 37.9375 8.515625 
Q 41.21875 10.9375 41.21875 15.28125 
Q 41.21875 21.53125 29.25 23.921875 
L 28.859375 24.03125 
L 25.484375 24.703125 
Q 17.71875 26.21875 14.15625 29.8125 
Q 10.59375 33.40625 10.59375 39.59375 
Q 10.59375 47.46875 15.90625 51.734375 
Q 21.234375 56 31.109375 56 
Q 35.5 56 39.546875 55.1875 
Q 43.609375 54.390625 47.515625 52.78125 
z
" id="DejaVuSansMono-115"/>
       <path d="M 29.984375 70.21875 
L 29.984375 54.6875 
L 50.390625 54.6875 
L 50.390625 47.703125 
L 29.984375 47.703125 
L 29.984375 18.015625 
Q 29.984375 11.96875 32.28125 9.5625 
Q 34.578125 7.171875 40.28125 7.171875 
L 50.390625 7.171875 
L 50.390625 0 
L 39.40625 0 
Q 29.296875 0 25.140625 4.046875 
Q 21 8.109375 21 18.015625 
L 21 47.703125 
L 6.390625 47.703125 
L 6.390625 54.6875 
L 21 54.6875 
L 21 70.21875 
z
" id="DejaVuSansMono-116"/>
       <path d="M 23.875 51.90625 
L 36.1875 51.90625 
L 36.1875 37.109375 
L 23.875 37.109375 
z
M 23.875 14.890625 
L 36.1875 14.890625 
L 36.1875 0 
L 23.875 0 
z
" id="DejaVuSansMono-58"/>
      </defs>
      <use xlink:href="#DejaVuSansMono-34"/>
      <use x="60.205078" xlink:href="#DejaVuSansMono-84"/>
      <use x="120.410156" xlink:href="#DejaVuSansMono-97"/>
      <use x="180.615234" xlink:href="#DejaVuSansMono-108"/>
      <use x="240.820312" xlink:href="#DejaVuSansMono-108"/>
      <use x="301.025391" xlink:href="#DejaVuSansMono-101"/>
      <use x="361.230469" xlink:href="#DejaVuSansMono-115"/>
      <use x="421.435547" xlink:href="#DejaVuSansMono-116"/>
      <use x="481.640625" xlink:href="#DejaVuSansMono-34"/>
      <use x="541.845703" xlink:href="#DejaVuSansMono-58"/>
     </g>
     <!-- y_0    = 3873535 -->
     <g transform="translate(373.064062 34.737)scale(0.06 -0.06)">
      <defs>
       <path d="M 4.296875 25.59375 
L 55.90625 25.59375 
L 55.90625 17.1875 
L 4.296875 17.1875 
z
M 4.296875 45.40625 
L 55.90625 45.40625 
L 55.90625 37.109375 
L 4.296875 37.109375 
z
" id="DejaVuSansMono-61"/>
       <path d="M 30.078125 34.625 
Q 23.484375 34.625 19.890625 30.9375 
Q 16.3125 27.25 16.3125 20.515625 
Q 16.3125 13.765625 19.9375 10.03125 
Q 23.578125 6.296875 30.078125 6.296875 
Q 36.71875 6.296875 40.296875 9.984375 
Q 43.890625 13.671875 43.890625 20.515625 
Q 43.890625 27.203125 40.25 30.90625 
Q 36.625 34.625 30.078125 34.625 
z
M 21.484375 38.71875 
Q 15.1875 40.328125 11.640625 44.71875 
Q 8.109375 49.125 8.109375 55.328125 
Q 8.109375 64.015625 14.015625 69.109375 
Q 19.921875 74.21875 30.078125 74.21875 
Q 40.28125 74.21875 46.1875 69.109375 
Q 52.09375 64.015625 52.09375 55.328125 
Q 52.09375 49.125 48.546875 44.71875 
Q 45.015625 40.328125 38.71875 38.71875 
Q 46.046875 37.109375 49.921875 32.21875 
Q 53.8125 27.34375 53.8125 19.578125 
Q 53.8125 9.71875 47.515625 4.140625 
Q 41.21875 -1.421875 30.078125 -1.421875 
Q 18.953125 -1.421875 12.671875 4.125 
Q 6.390625 9.671875 6.390625 19.484375 
Q 6.390625 27.296875 10.265625 32.203125 
Q 14.15625 37.109375 21.484375 38.71875 
z
M 17.921875 54.390625 
Q 17.921875 48.53125 21.046875 45.453125 
Q 24.171875 42.390625 30.078125 42.390625 
Q 36.03125 42.390625 39.15625 45.453125 
Q 42.28125 48.53125 42.28125 54.390625 
Q 42.28125 60.359375 39.171875 63.484375 
Q 36.078125 66.609375 30.078125 66.609375 
Q 24.171875 66.609375 21.046875 63.453125 
Q 17.921875 60.296875 17.921875 54.390625 
z
" id="DejaVuSansMono-56"/>
      </defs>
      <use xlink:href="#DejaVuSansMono-121"/>
      <use x="60.205078" xlink:href="#DejaVuSansMono-95"/>
      <use x="120.410156" xlink:href="#DejaVuSansMono-48"/>
      <use x="180.615234" xlink:href="#DejaVuSansMono-32"/>
      <use x="240.820312" xlink:href="#DejaVuSansMono-32"/>
      <use x="301.025391" xlink:href="#DejaVuSansMono-32"/>
      <use x="361.230469" xlink:href="#DejaVuSansMono-32"/>
      <use x="421.435547" xlink:href="#DejaVuSansMono-61"/>
      <use x="481.640625" xlink:href="#DejaVuSansMono-32"/>
      <use x="541.845703" xlink:href="#DejaVuSansMono-51"/>
      <use x="602.050781" xlink:href="#DejaVuSansMono-56"/>
      <use x="662.255859" xlink:href="#DejaVuSansMono-55"/>
      <use x="722.460938" xlink:href="#DejaVuSansMono-51"/>
      <use x="782.666016" xlink:href="#DejaVuSansMono-53"/>
      <use x="842.871094" xlink:href="#DejaVuSansMono-51"/>
      <use x="903.076172" xlink:href="#DejaVuSansMono-53"/>
     </g>
     <!-- y_max  = 858555169576 -->
     <g transform="translate(373.064062 41.660812)scale(0.06 -0.06)">
      <defs>
       <path d="M 54.59375 54.6875 
L 35.015625 28.515625 
L 56.5 0 
L 46.09375 0 
L 30.078125 21.921875 
L 14.109375 0 
L 3.71875 0 
L 25.203125 28.515625 
L 5.609375 54.6875 
L 15.578125 54.6875 
L 30.078125 34.90625 
L 44.484375 54.6875 
z
" id="DejaVuSansMono-120"/>
      </defs>
      <use xlink:href="#DejaVuSansMono-121"/>
      <use x="60.205078" xlink:href="#DejaVuSansMono-95"/>
      <use x="120.410156" xlink:href="#DejaVuSansMono-109"/>
      <use x="180.615234" xlink:href="#DejaVuSansMono-97"/>
      <use x="240.820312" xlink:href="#DejaVuSansMono-120"/>
      <use x="301.025391" xlink:href="#DejaVuSansMono-32"/>
      <use x="361.230469" xlink:href="#DejaVuSansMono-32"/>
      <use x="421.435547" xlink:href="#DejaVuSansMono-61"/>
      <use x="481.640625" xlink:href="#DejaVuSansMono-32"/>
      <use x="541.845703" xlink:href="#DejaVuSansMono-56"/>
      <use x="602.050781" xlink:href="#DejaVuSansMono-53"/>
      <use x="662.255859" xlink:href="#DejaVuSansMono-56"/>
      <use x="722.460938" xlink:href="#DejaVuSansMono-53"/>
      <use x="782.666016" xlink:href="#DejaVuSansMono-53"/>
      <use x="842.871094" xlink:href="#DejaVuSansMono-53"/>
      <use x="903.076172" xlink:href="#DejaVuSansMono-49"/>
      <use x="963.28125" xlink:href="#DejaVuSansMono-54"/>
      <use x="1023.486328" xlink:href="#DejaVuSansMono-57"/>
      <use x="1083.691406" xlink:href="#DejaVuSansMono-53"/>
      <use x="1143.896484" xlink:href="#DejaVuSansMono-55"/>
      <use x="1204.101562" xlink:href="#DejaVuSansMono-54"/>
     </g>
     <!-- x_max  = 323 -->
     <g transform="translate(373.064062 48.584625)scale(0.06 -0.06)">
      <use xlink:href="#DejaVuSansMono-120"/>
      <use x="60.205078" xlink:href="#DejaVuSansMono-95"/>
      <use x="120.410156" xlink:href="#DejaVuSansMono-109"/>
      <use x="180.615234" xlink:href="#DejaVuSansMono-97"/>
      <use x="240.820312" xlink:href="#DejaVuSansMono-120"/>
      <use x="301.025391" xlink:href="#DejaVuSansMono-32"/>
      <use x="361.230469" xlink:href="#DejaVuSansMono-32"/>
      <use x="421.435547" xlink:href="#DejaVuSansMono-61"/>
      <use x="481.640625" xlink:href="#DejaVuSansMono-32"/>
      <use x="541.845703" xlink:href="#DejaVuSansMono-51"/>
      <use x="602.050781" xlink:href="#DejaVuSansMono-50"/>
      <use x="662.255859" xlink:href="#DejaVuSansMono-51"/>
     </g>
    </g>
    <g id="line2d_18">
     <path d="M 356.264062 66.499875 
L 368.264062 66.499875 
" style="fill:none;stroke:#ff7f0e;stroke-linecap:square;stroke-width:0.666667;"/>
    </g>
    <g id="line2d_19"/>
    <g id="text_18">
     <!-- "Widest":  -->
     <g transform="translate(373.064062 57.59025)scale(0.06 -0.06)">
      <defs>
       <path d="M 0 72.90625 
L 9.625 72.90625 
L 16.609375 13.71875 
L 24.90625 52.875 
L 35.203125 52.875 
L 43.609375 13.625 
L 50.59375 72.90625 
L 60.203125 72.90625 
L 49.3125 0 
L 39.984375 0 
L 30.078125 43.3125 
L 20.21875 0 
L 10.890625 0 
z
" id="DejaVuSansMono-87"/>
       <path d="M 12.5 54.6875 
L 35.5 54.6875 
L 35.5 6.984375 
L 53.328125 6.984375 
L 53.328125 0 
L 8.6875 0 
L 8.6875 6.984375 
L 26.515625 6.984375 
L 26.515625 47.703125 
L 12.5 47.703125 
z
M 26.515625 75.984375 
L 35.5 75.984375 
L 35.5 64.59375 
L 26.515625 64.59375 
z
" id="DejaVuSansMono-105"/>
       <path d="M 41.890625 47.703125 
L 41.890625 75.984375 
L 50.875 75.984375 
L 50.875 0 
L 41.890625 0 
L 41.890625 6.890625 
Q 39.65625 2.828125 35.90625 0.703125 
Q 32.171875 -1.421875 27.296875 -1.421875 
Q 17.390625 -1.421875 11.6875 6.265625 
Q 6 13.96875 6 27.484375 
Q 6 40.828125 11.71875 48.40625 
Q 17.4375 56 27.296875 56 
Q 32.234375 56 35.984375 53.875 
Q 39.75 51.765625 41.890625 47.703125 
z
M 15.484375 27.296875 
Q 15.484375 16.84375 18.796875 11.515625 
Q 22.125 6.203125 28.609375 6.203125 
Q 35.109375 6.203125 38.5 11.5625 
Q 41.890625 16.9375 41.890625 27.296875 
Q 41.890625 37.703125 38.5 43.046875 
Q 35.109375 48.390625 28.609375 48.390625 
Q 22.125 48.390625 18.796875 43.0625 
Q 15.484375 37.75 15.484375 27.296875 
z
" id="DejaVuSansMono-100"/>
      </defs>
      <use xlink:href="#DejaVuSansMono-34"/>
      <use x="60.205078" xlink:href="#DejaVuSansMono-87"/>
      <use x="120.410156" xlink:href="#DejaVuSansMono-105"/>
      <use x="180.615234" xlink:href="#DejaVuSansMono-100"/>
      <use x="240.820312" xlink:href="#DejaVuSansMono-101"/>
      <use x="301.025391" xlink:href="#DejaVuSansMono-115"/>
      <use x="361.230469" xlink:href="#DejaVuSansMono-116"/>
      <use x="421.435547" xlink:href="#DejaVuSansMono-34"/>
      <use x="481.640625" xlink:href="#DejaVuSansMono-58"/>
      <use x="541.845703" xlink:href="#DejaVuSansMono-32"/>
     </g>
     <!-- y_0    = 3732423 -->
     <g transform="translate(373.064062 64.347187)scale(0.06 -0.06)">
      <use xlink:href="#DejaVuSansMono-121"/>
      <use x="60.205078" xlink:href="#DejaVuSansMono-95"/>
      <use x="120.410156" xlink:href="#DejaVuSansMono-48"/>
      <use x="180.615234" xlink:href="#DejaVuSansMono-32"/>
      <use x="240.820312" xlink:href="#DejaVuSansMono-32"/>
      <use x="301.025391" xlink:href="#DejaVuSansMono-32"/>
      <use x="361.230469" xlink:href="#DejaVuSansMono-32"/>
      <use x="421.435547" xlink:href="#DejaVuSansMono-61"/>
      <use x="481.640625" xlink:href="#DejaVuSansMono-32"/>
      <use x="541.845703" xlink:href="#DejaVuSansMono-51"/>
      <use x="602.050781" xlink:href="#DejaVuSansMono-55"/>
      <use x="662.255859" xlink:href="#DejaVuSansMono-51"/>
      <use x="722.460938" xlink:href="#DejaVuSansMono-50"/>
      <use x="782.666016" xlink:href="#DejaVuSansMono-52"/>
      <use x="842.871094" xlink:href="#DejaVuSansMono-50"/>
      <use x="903.076172" xlink:href="#DejaVuSansMono-51"/>
     </g>
     <!-- y_max  = 294475592320 -->
     <g transform="translate(373.064062 71.271)scale(0.06 -0.06)">
      <use xlink:href="#DejaVuSansMono-121"/>
      <use x="60.205078" xlink:href="#DejaVuSansMono-95"/>
      <use x="120.410156" xlink:href="#DejaVuSansMono-109"/>
      <use x="180.615234" xlink:href="#DejaVuSansMono-97"/>
      <use x="240.820312" xlink:href="#DejaVuSansMono-120"/>
      <use x="301.025391" xlink:href="#DejaVuSansMono-32"/>
      <use x="361.230469" xlink:href="#DejaVuSansMono-32"/>
      <use x="421.435547" xlink:href="#DejaVuSansMono-61"/>
      <use x="481.640625" xlink:href="#DejaVuSansMono-32"/>
      <use x="541.845703" xlink:href="#DejaVuSansMono-50"/>
      <use x="602.050781" xlink:href="#DejaVuSansMono-57"/>
      <use x="662.255859" xlink:href="#DejaVuSansMono-52"/>
      <use x="722.460938" xlink:href="#DejaVuSansMono-52"/>
      <use x="782.666016" xlink:href="#DejaVuSansMono-55"/>
      <use x="842.871094" xlink:href="#DejaVuSansMono-53"/>
      <use x="903.076172" xlink:href="#DejaVuSansMono-53"/>
      <use x="963.28125" xlink:href="#DejaVuSansMono-57"/>
      <use x="1023.486328" xlink:href="#DejaVuSansMono-50"/>
      <use x="1083.691406" xlink:href="#DejaVuSansMono-51"/>
      <use x="1143.896484" xlink:href="#DejaVuSansMono-50"/>
      <use x="1204.101562" xlink:href="#DejaVuSansMono-48"/>
     </g>
     <!-- x_max  = 597 -->
     <g transform="translate(373.064062 78.194812)scale(0.06 -0.06)">
      <use xlink:href="#DejaVuSansMono-120"/>
      <use x="60.205078" xlink:href="#DejaVuSansMono-95"/>
      <use x="120.410156" xlink:href="#DejaVuSansMono-109"/>
      <use x="180.615234" xlink:href="#DejaVuSansMono-97"/>
      <use x="240.820312" xlink:href="#DejaVuSansMono-120"/>
      <use x="301.025391" xlink:href="#DejaVuSansMono-32"/>
      <use x="361.230469" xlink:href="#DejaVuSansMono-32"/>
      <use x="421.435547" xlink:href="#DejaVuSansMono-61"/>
      <use x="481.640625" xlink:href="#DejaVuSansMono-32"/>
      <use x="541.845703" xlink:href="#DejaVuSansMono-53"/>
      <use x="602.050781" xlink:href="#DejaVuSansMono-57"/>
      <use x="662.255859" xlink:href="#DejaVuSansMono-55"/>
     </g>
    </g>
   </g>
  </g>
 </g>
 <defs>
  <clipPath id="p522ddfc67e">
   <rect height="298.453375" width="418.46125" x="35.85875" y="17.989125"/>
  </clipPath>
 </defs>
</svg>
