<?xml version="1.0" encoding="utf-8" standalone="no"?>
<!DOCTYPE svg PUBLIC "-//W3C//DTD SVG 1.1//EN"
  "http://www.w3.org/Graphics/SVG/1.1/DTD/svg11.dtd">
<!-- Created with matplotlib (https://matplotlib.org/) -->
<svg height="345.6pt" version="1.1" viewBox="0 0 460.8 345.6" width="460.8pt" xmlns="http://www.w3.org/2000/svg" xmlns:xlink="http://www.w3.org/1999/xlink">
 <metadata>
  <rdf:RDF xmlns:cc="http://creativecommons.org/ns#" xmlns:dc="http://purl.org/dc/elements/1.1/" xmlns:rdf="http://www.w3.org/1999/02/22-rdf-syntax-ns#">
   <cc:Work>
    <dc:type rdf:resource="http://purl.org/dc/dcmitype/StillImage"/>
    <dc:date>2022-03-17T00:37:02.686674</dc:date>
    <dc:format>image/svg+xml</dc:format>
    <dc:creator>
     <cc:Agent>
      <dc:title>Matplotlib v3.3.2, https://matplotlib.org/</dc:title>
     </cc:Agent>
    </dc:creator>
   </cc:Work>
  </rdf:RDF>
 </metadata>
 <defs>
  <style type="text/css">*{stroke-linecap:butt;stroke-linejoin:round;}</style>
 </defs>
 <g id="figure_1">
  <g id="patch_1">
   <path d="M 0 345.6 
L 460.8 345.6 
L 460.8 0 
L 0 0 
z
" style="fill:#ffffff;"/>
  </g>
  <g id="axes_1">
   <g id="patch_2">
    <path d="M 35.85875 316.4425 
L 454.32 316.4425 
L 454.32 17.989125 
L 35.85875 17.989125 
z
" style="fill:#ffffff;"/>
   </g>
   <g id="matplotlib.axis_1">
    <g id="xtick_1">
     <g id="line2d_1">
      <defs>
       <path d="M 0 0 
L 0 3.5 
" id="m7271c0aca7" style="stroke:#000000;stroke-width:0.8;"/>
      </defs>
      <g>
       <use style="stroke:#000000;stroke-width:0.8;" x="54.879716" xlink:href="#m7271c0aca7" y="316.4425"/>
      </g>
     </g>
     <g id="text_1">
      <!-- 0 -->
      <g transform="translate(53.073622 328.033437)scale(0.06 -0.06)">
       <defs>
        <path d="M 23.578125 36.625 
Q 23.578125 39.3125 25.453125 41.265625 
Q 27.34375 43.21875 29.984375 43.21875 
Q 32.71875 43.21875 34.671875 41.265625 
Q 36.625 39.3125 36.625 36.625 
Q 36.625 33.890625 34.6875 31.984375 
Q 32.765625 30.078125 29.984375 30.078125 
Q 27.25 30.078125 25.40625 31.9375 
Q 23.578125 33.796875 23.578125 36.625 
z
M 30.078125 66.40625 
Q 23.1875 66.40625 19.796875 58.984375 
Q 16.40625 51.5625 16.40625 36.375 
Q 16.40625 21.234375 19.796875 13.8125 
Q 23.1875 6.390625 30.078125 6.390625 
Q 37.015625 6.390625 40.40625 13.8125 
Q 43.796875 21.234375 43.796875 36.375 
Q 43.796875 51.5625 40.40625 58.984375 
Q 37.015625 66.40625 30.078125 66.40625 
z
M 30.078125 74.21875 
Q 41.75 74.21875 47.734375 64.640625 
Q 53.71875 55.078125 53.71875 36.375 
Q 53.71875 17.71875 47.734375 8.140625 
Q 41.75 -1.421875 30.078125 -1.421875 
Q 18.40625 -1.421875 12.453125 8.140625 
Q 6.5 17.71875 6.5 36.375 
Q 6.5 55.078125 12.453125 64.640625 
Q 18.40625 74.21875 30.078125 74.21875 
z
" id="DejaVuSansMono-48"/>
       </defs>
       <use xlink:href="#DejaVuSansMono-48"/>
      </g>
     </g>
    </g>
    <g id="xtick_2">
     <g id="line2d_2">
      <g>
       <use style="stroke:#000000;stroke-width:0.8;" x="110.173221" xlink:href="#m7271c0aca7" y="316.4425"/>
      </g>
     </g>
     <g id="text_2">
      <!-- 100 -->
      <g transform="translate(104.75494 328.033437)scale(0.06 -0.06)">
       <defs>
        <path d="M 13.1875 8.296875 
L 28.515625 8.296875 
L 28.515625 64.015625 
L 12.015625 60.296875 
L 12.015625 69.28125 
L 28.421875 72.90625 
L 38.28125 72.90625 
L 38.28125 8.296875 
L 53.421875 8.296875 
L 53.421875 0 
L 13.1875 0 
z
" id="DejaVuSansMono-49"/>
       </defs>
       <use xlink:href="#DejaVuSansMono-49"/>
       <use x="60.205078" xlink:href="#DejaVuSansMono-48"/>
       <use x="120.410156" xlink:href="#DejaVuSansMono-48"/>
      </g>
     </g>
    </g>
    <g id="xtick_3">
     <g id="line2d_3">
      <g>
       <use style="stroke:#000000;stroke-width:0.8;" x="165.466727" xlink:href="#m7271c0aca7" y="316.4425"/>
      </g>
     </g>
     <g id="text_3">
      <!-- 200 -->
      <g transform="translate(160.048446 328.033437)scale(0.06 -0.06)">
       <defs>
        <path d="M 18.21875 8.296875 
L 51.703125 8.296875 
L 51.703125 0 
L 7.421875 0 
L 7.421875 8.296875 
Q 16.546875 17.921875 23.375 25.296875 
Q 30.21875 32.671875 32.8125 35.6875 
Q 37.703125 41.65625 39.40625 45.34375 
Q 41.109375 49.03125 41.109375 52.875 
Q 41.109375 58.984375 37.515625 62.453125 
Q 33.9375 65.921875 27.6875 65.921875 
Q 23.25 65.921875 18.359375 64.3125 
Q 13.484375 62.703125 8.015625 59.421875 
L 8.015625 69.390625 
Q 13.03125 71.78125 17.890625 73 
Q 22.75 74.21875 27.484375 74.21875 
Q 38.1875 74.21875 44.703125 68.53125 
Q 51.21875 62.84375 51.21875 53.609375 
Q 51.21875 48.921875 49.046875 44.234375 
Q 46.875 39.546875 42 33.890625 
Q 39.265625 30.71875 34.0625 25.09375 
Q 28.859375 19.484375 18.21875 8.296875 
z
" id="DejaVuSansMono-50"/>
       </defs>
       <use xlink:href="#DejaVuSansMono-50"/>
       <use x="60.205078" xlink:href="#DejaVuSansMono-48"/>
       <use x="120.410156" xlink:href="#DejaVuSansMono-48"/>
      </g>
     </g>
    </g>
    <g id="xtick_4">
     <g id="line2d_4">
      <g>
       <use style="stroke:#000000;stroke-width:0.8;" x="220.760233" xlink:href="#m7271c0aca7" y="316.4425"/>
      </g>
     </g>
     <g id="text_4">
      <!-- 300 -->
      <g transform="translate(215.341951 328.033437)scale(0.06 -0.06)">
       <defs>
        <path d="M 37.890625 39.015625 
Q 45.0625 37.109375 48.875 32.25 
Q 52.6875 27.390625 52.6875 20.125 
Q 52.6875 10.0625 45.921875 4.3125 
Q 39.15625 -1.421875 27.203125 -1.421875 
Q 22.171875 -1.421875 16.9375 -0.484375 
Q 11.71875 0.4375 6.6875 2.203125 
L 6.6875 12.015625 
Q 11.671875 9.421875 16.5 8.15625 
Q 21.34375 6.890625 26.125 6.890625 
Q 34.234375 6.890625 38.578125 10.546875 
Q 42.921875 14.203125 42.921875 21.09375 
Q 42.921875 27.4375 38.578125 31.171875 
Q 34.234375 34.90625 26.8125 34.90625 
L 19.28125 34.90625 
L 19.28125 43.015625 
L 26.8125 43.015625 
Q 33.59375 43.015625 37.40625 45.984375 
Q 41.21875 48.96875 41.21875 54.296875 
Q 41.21875 59.90625 37.671875 62.90625 
Q 34.125 65.921875 27.59375 65.921875 
Q 23.25 65.921875 18.609375 64.9375 
Q 13.96875 63.96875 8.890625 62.015625 
L 8.890625 71.09375 
Q 14.796875 72.65625 19.40625 73.4375 
Q 24.03125 74.21875 27.59375 74.21875 
Q 38.234375 74.21875 44.609375 68.875 
Q 50.984375 63.53125 50.984375 54.6875 
Q 50.984375 48.6875 47.625 44.671875 
Q 44.28125 40.671875 37.890625 39.015625 
z
" id="DejaVuSansMono-51"/>
       </defs>
       <use xlink:href="#DejaVuSansMono-51"/>
       <use x="60.205078" xlink:href="#DejaVuSansMono-48"/>
       <use x="120.410156" xlink:href="#DejaVuSansMono-48"/>
      </g>
     </g>
    </g>
    <g id="xtick_5">
     <g id="line2d_5">
      <g>
       <use style="stroke:#000000;stroke-width:0.8;" x="276.053738" xlink:href="#m7271c0aca7" y="316.4425"/>
      </g>
     </g>
     <g id="text_5">
      <!-- 400 -->
      <g transform="translate(270.635457 328.033437)scale(0.06 -0.06)">
       <defs>
        <path d="M 35.890625 63.921875 
L 12.890625 25.390625 
L 35.890625 25.390625 
z
M 34.28125 72.90625 
L 45.703125 72.90625 
L 45.703125 25.390625 
L 55.421875 25.390625 
L 55.421875 17.390625 
L 45.703125 17.390625 
L 45.703125 0 
L 35.890625 0 
L 35.890625 17.390625 
L 4.984375 17.390625 
L 4.984375 26.703125 
z
" id="DejaVuSansMono-52"/>
       </defs>
       <use xlink:href="#DejaVuSansMono-52"/>
       <use x="60.205078" xlink:href="#DejaVuSansMono-48"/>
       <use x="120.410156" xlink:href="#DejaVuSansMono-48"/>
      </g>
     </g>
    </g>
    <g id="xtick_6">
     <g id="line2d_6">
      <g>
       <use style="stroke:#000000;stroke-width:0.8;" x="331.347244" xlink:href="#m7271c0aca7" y="316.4425"/>
      </g>
     </g>
     <g id="text_6">
      <!-- 500 -->
      <g transform="translate(325.928962 328.033437)scale(0.06 -0.06)">
       <defs>
        <path d="M 10.109375 72.90625 
L 47.015625 72.90625 
L 47.015625 64.59375 
L 19.09375 64.59375 
L 19.09375 46.6875 
Q 21.1875 47.46875 23.3125 47.828125 
Q 25.4375 48.1875 27.59375 48.1875 
Q 38.921875 48.1875 45.5625 41.5 
Q 52.203125 34.8125 52.203125 23.390625 
Q 52.203125 11.859375 45.234375 5.21875 
Q 38.28125 -1.421875 26.21875 -1.421875 
Q 20.40625 -1.421875 15.59375 -0.640625 
Q 10.796875 0.140625 6.984375 1.703125 
L 6.984375 11.71875 
Q 11.46875 9.28125 16.015625 8.078125 
Q 20.5625 6.890625 25.296875 6.890625 
Q 33.453125 6.890625 37.859375 11.1875 
Q 42.28125 15.484375 42.28125 23.390625 
Q 42.28125 31.203125 37.71875 35.546875 
Q 33.15625 39.890625 25 39.890625 
Q 21.046875 39.890625 17.28125 38.984375 
Q 13.53125 38.09375 10.109375 36.28125 
z
" id="DejaVuSansMono-53"/>
       </defs>
       <use xlink:href="#DejaVuSansMono-53"/>
       <use x="60.205078" xlink:href="#DejaVuSansMono-48"/>
       <use x="120.410156" xlink:href="#DejaVuSansMono-48"/>
      </g>
     </g>
    </g>
    <g id="xtick_7">
     <g id="line2d_7">
      <g>
       <use style="stroke:#000000;stroke-width:0.8;" x="386.640749" xlink:href="#m7271c0aca7" y="316.4425"/>
      </g>
     </g>
     <g id="text_7">
      <!-- 600 -->
      <g transform="translate(381.222468 328.033437)scale(0.06 -0.06)">
       <defs>
        <path d="M 48.390625 71.296875 
L 48.390625 62.203125 
Q 45.3125 64.015625 41.84375 64.96875 
Q 38.375 65.921875 34.625 65.921875 
Q 25.25 65.921875 20.40625 58.859375 
Q 15.578125 51.8125 15.578125 38.09375 
Q 17.921875 42.96875 22.0625 45.578125 
Q 26.21875 48.1875 31.59375 48.1875 
Q 42.140625 48.1875 47.921875 41.71875 
Q 53.71875 35.25 53.71875 23.390625 
Q 53.71875 11.578125 47.75 5.078125 
Q 41.796875 -1.421875 31 -1.421875 
Q 18.3125 -1.421875 12.40625 7.6875 
Q 6.5 16.796875 6.5 36.375 
Q 6.5 54.828125 13.59375 64.515625 
Q 20.703125 74.21875 34.1875 74.21875 
Q 37.796875 74.21875 41.40625 73.453125 
Q 45.015625 72.703125 48.390625 71.296875 
z
M 30.8125 40.484375 
Q 24.515625 40.484375 20.890625 35.9375 
Q 17.28125 31.390625 17.28125 23.390625 
Q 17.28125 15.375 20.890625 10.828125 
Q 24.515625 6.296875 30.8125 6.296875 
Q 37.359375 6.296875 40.671875 10.609375 
Q 44 14.9375 44 23.390625 
Q 44 31.890625 40.671875 36.1875 
Q 37.359375 40.484375 30.8125 40.484375 
z
" id="DejaVuSansMono-54"/>
       </defs>
       <use xlink:href="#DejaVuSansMono-54"/>
       <use x="60.205078" xlink:href="#DejaVuSansMono-48"/>
       <use x="120.410156" xlink:href="#DejaVuSansMono-48"/>
      </g>
     </g>
    </g>
    <g id="xtick_8">
     <g id="line2d_8">
      <g>
       <use style="stroke:#000000;stroke-width:0.8;" x="441.934255" xlink:href="#m7271c0aca7" y="316.4425"/>
      </g>
     </g>
     <g id="text_8">
      <!-- 700 -->
      <g transform="translate(436.515974 328.033437)scale(0.06 -0.06)">
       <defs>
        <path d="M 6.78125 72.90625 
L 52.6875 72.90625 
L 52.6875 68.703125 
L 26.609375 0 
L 16.3125 0 
L 41.703125 64.59375 
L 6.78125 64.59375 
z
" id="DejaVuSansMono-55"/>
       </defs>
       <use xlink:href="#DejaVuSansMono-55"/>
       <use x="60.205078" xlink:href="#DejaVuSansMono-48"/>
       <use x="120.410156" xlink:href="#DejaVuSansMono-48"/>
      </g>
     </g>
    </g>
    <g id="text_9">
     <!-- n -->
     <g transform="translate(243.283281 337.872187)scale(0.06 -0.06)">
      <defs>
       <path d="M 51.3125 33.890625 
L 51.3125 0 
L 42.28125 0 
L 42.28125 33.890625 
Q 42.28125 41.265625 39.6875 44.71875 
Q 37.109375 48.1875 31.59375 48.1875 
Q 25.296875 48.1875 21.890625 43.71875 
Q 18.5 39.265625 18.5 30.90625 
L 18.5 0 
L 9.515625 0 
L 9.515625 54.6875 
L 18.5 54.6875 
L 18.5 46.484375 
Q 20.90625 51.171875 25 53.578125 
Q 29.109375 56 34.71875 56 
Q 43.0625 56 47.1875 50.5 
Q 51.3125 45.015625 51.3125 33.890625 
z
" id="DejaVuSansMono-110"/>
      </defs>
      <use xlink:href="#DejaVuSansMono-110"/>
     </g>
    </g>
   </g>
   <g id="matplotlib.axis_2">
    <g id="ytick_1">
     <g id="line2d_9">
      <defs>
       <path d="M 0 0 
L -3.5 0 
" id="m700f23df17" style="stroke:#000000;stroke-width:0.8;"/>
      </defs>
      <g>
       <use style="stroke:#000000;stroke-width:0.8;" x="35.85875" xlink:href="#m700f23df17" y="283.187834"/>
      </g>
     </g>
     <g id="text_10">
      <!-- $\mathdefault{10^{1}}$ -->
      <g transform="translate(18.83875 285.483302)scale(0.06 -0.06)">
       <use transform="translate(0 0.684375)" xlink:href="#DejaVuSansMono-49"/>
       <use transform="translate(60.205078 0.684375)" xlink:href="#DejaVuSansMono-48"/>
       <use transform="translate(121.367188 38.965625)scale(0.7)" xlink:href="#DejaVuSansMono-49"/>
      </g>
     </g>
    </g>
    <g id="ytick_2">
     <g id="line2d_10">
      <g>
       <use style="stroke:#000000;stroke-width:0.8;" x="35.85875" xlink:href="#m700f23df17" y="243.810626"/>
      </g>
     </g>
     <g id="text_11">
      <!-- $\mathdefault{10^{3}}$ -->
      <g transform="translate(18.83875 246.106094)scale(0.06 -0.06)">
       <use transform="translate(0 0.765625)" xlink:href="#DejaVuSansMono-49"/>
       <use transform="translate(60.205078 0.765625)" xlink:href="#DejaVuSansMono-48"/>
       <use transform="translate(121.367188 39.046875)scale(0.7)" xlink:href="#DejaVuSansMono-51"/>
      </g>
     </g>
    </g>
    <g id="ytick_3">
     <g id="line2d_11">
      <g>
       <use style="stroke:#000000;stroke-width:0.8;" x="35.85875" xlink:href="#m700f23df17" y="204.433418"/>
      </g>
     </g>
     <g id="text_12">
      <!-- $\mathdefault{10^{5}}$ -->
      <g transform="translate(18.83875 206.728887)scale(0.06 -0.06)">
       <use transform="translate(0 0.684375)" xlink:href="#DejaVuSansMono-49"/>
       <use transform="translate(60.205078 0.684375)" xlink:href="#DejaVuSansMono-48"/>
       <use transform="translate(121.367188 38.965625)scale(0.7)" xlink:href="#DejaVuSansMono-53"/>
      </g>
     </g>
    </g>
    <g id="ytick_4">
     <g id="line2d_12">
      <g>
       <use style="stroke:#000000;stroke-width:0.8;" x="35.85875" xlink:href="#m700f23df17" y="165.05621"/>
      </g>
     </g>
     <g id="text_13">
      <!-- $\mathdefault{10^{7}}$ -->
      <g transform="translate(18.83875 167.351679)scale(0.06 -0.06)">
       <use transform="translate(0 0.684375)" xlink:href="#DejaVuSansMono-49"/>
       <use transform="translate(60.205078 0.684375)" xlink:href="#DejaVuSansMono-48"/>
       <use transform="translate(121.367188 38.965625)scale(0.7)" xlink:href="#DejaVuSansMono-55"/>
      </g>
     </g>
    </g>
    <g id="ytick_5">
     <g id="line2d_13">
      <g>
       <use style="stroke:#000000;stroke-width:0.8;" x="35.85875" xlink:href="#m700f23df17" y="125.679002"/>
      </g>
     </g>
     <g id="text_14">
      <!-- $\mathdefault{10^{9}}$ -->
      <g transform="translate(18.83875 127.974471)scale(0.06 -0.06)">
       <defs>
        <path d="M 29.109375 32.328125 
Q 35.40625 32.328125 38.984375 36.859375 
Q 42.578125 41.40625 42.578125 49.421875 
Q 42.578125 57.421875 38.984375 61.953125 
Q 35.40625 66.5 29.109375 66.5 
Q 22.5625 66.5 19.234375 62.171875 
Q 15.921875 57.859375 15.921875 49.421875 
Q 15.921875 40.921875 19.21875 36.625 
Q 22.515625 32.328125 29.109375 32.328125 
z
M 11.53125 1.515625 
L 11.53125 10.59375 
Q 14.59375 8.796875 18.0625 7.84375 
Q 21.53125 6.890625 25.296875 6.890625 
Q 34.671875 6.890625 39.46875 13.9375 
Q 44.28125 21 44.28125 34.71875 
Q 42 29.828125 37.84375 27.21875 
Q 33.6875 24.609375 28.328125 24.609375 
Q 17.78125 24.609375 11.984375 31.09375 
Q 6.203125 37.59375 6.203125 49.515625 
Q 6.203125 61.28125 12.125 67.75 
Q 18.0625 74.21875 28.90625 74.21875 
Q 41.609375 74.21875 47.515625 65.078125 
Q 53.421875 55.953125 53.421875 36.375 
Q 53.421875 17.96875 46.3125 8.265625 
Q 39.203125 -1.421875 25.6875 -1.421875 
Q 22.125 -1.421875 18.5 -0.65625 
Q 14.890625 0.09375 11.53125 1.515625 
z
" id="DejaVuSansMono-57"/>
       </defs>
       <use transform="translate(0 0.765625)" xlink:href="#DejaVuSansMono-49"/>
       <use transform="translate(60.205078 0.765625)" xlink:href="#DejaVuSansMono-48"/>
       <use transform="translate(121.367188 39.046875)scale(0.7)" xlink:href="#DejaVuSansMono-57"/>
      </g>
     </g>
    </g>
    <g id="ytick_6">
     <g id="line2d_14">
      <g>
       <use style="stroke:#000000;stroke-width:0.8;" x="35.85875" xlink:href="#m700f23df17" y="86.301794"/>
      </g>
     </g>
     <g id="text_15">
      <!-- $\mathdefault{10^{11}}$ -->
      <g transform="translate(16.31875 88.597263)scale(0.06 -0.06)">
       <use transform="translate(0 0.684375)" xlink:href="#DejaVuSansMono-49"/>
       <use transform="translate(60.205078 0.684375)" xlink:href="#DejaVuSansMono-48"/>
       <use transform="translate(121.367188 38.965625)scale(0.7)" xlink:href="#DejaVuSansMono-49"/>
       <use transform="translate(163.510742 38.965625)scale(0.7)" xlink:href="#DejaVuSansMono-49"/>
      </g>
     </g>
    </g>
    <g id="ytick_7">
     <g id="line2d_15">
      <g>
       <use style="stroke:#000000;stroke-width:0.8;" x="35.85875" xlink:href="#m700f23df17" y="46.924586"/>
      </g>
     </g>
     <g id="text_16">
      <!-- $\mathdefault{10^{13}}$ -->
      <g transform="translate(16.31875 49.220055)scale(0.06 -0.06)">
       <use transform="translate(0 0.765625)" xlink:href="#DejaVuSansMono-49"/>
       <use transform="translate(60.205078 0.765625)" xlink:href="#DejaVuSansMono-48"/>
       <use transform="translate(121.367188 39.046875)scale(0.7)" xlink:href="#DejaVuSansMono-49"/>
       <use transform="translate(163.510742 39.046875)scale(0.7)" xlink:href="#DejaVuSansMono-51"/>
      </g>
     </g>
    </g>
    <g id="text_17">
     <!-- y_n -->
     <g transform="translate(10.904063 172.634094)rotate(-90)scale(0.06 -0.06)">
      <defs>
       <path d="M 41.890625 17.578125 
Q 39.65625 11.859375 36.1875 2.546875 
Q 31.34375 -10.359375 29.6875 -13.1875 
Q 27.4375 -17 24.0625 -18.890625 
Q 20.703125 -20.796875 16.21875 -20.796875 
L 8.984375 -20.796875 
L 8.984375 -13.28125 
L 14.3125 -13.28125 
Q 18.265625 -13.28125 20.5 -10.984375 
Q 22.75 -8.6875 26.21875 0.875 
L 5.078125 54.6875 
L 14.59375 54.6875 
L 30.8125 11.921875 
L 46.78125 54.6875 
L 56.296875 54.6875 
z
" id="DejaVuSansMono-121"/>
       <path d="M 60.203125 -19.671875 
L 60.203125 -23.578125 
L 0 -23.578125 
L 0 -19.671875 
z
" id="DejaVuSansMono-95"/>
      </defs>
      <use xlink:href="#DejaVuSansMono-121"/>
      <use x="60.205078" xlink:href="#DejaVuSansMono-95"/>
      <use x="120.410156" xlink:href="#DejaVuSansMono-110"/>
     </g>
    </g>
   </g>
   <g id="line2d_16">
    <path clip-path="url(#p13e21dde57)" d="M 54.879716 168.568199 
L 55.432651 159.174348 
L 55.985586 165.101208 
L 56.538521 155.707356 
L 57.644391 167.561077 
L 58.197326 158.167225 
L 58.750261 164.094085 
L 59.303196 154.700234 
L 60.409066 166.553954 
L 60.962002 157.160103 
L 61.514937 163.086963 
L 62.067872 153.693111 
L 62.620807 159.619972 
L 63.173742 150.22612 
L 63.726677 156.152981 
L 64.279612 146.759129 
L 64.832547 152.685989 
L 65.385482 143.292138 
L 65.938417 149.218998 
L 66.491352 139.825147 
L 67.044287 145.752007 
L 67.597222 136.358156 
L 68.150157 142.285016 
L 68.703092 132.891165 
L 69.256027 138.818025 
L 69.808962 129.424174 
L 70.914833 141.277894 
L 71.467768 131.884043 
L 73.126573 149.664624 
L 73.679508 140.270773 
L 74.232443 146.197633 
L 74.785378 136.803781 
L 75.338313 142.730642 
L 75.891248 133.33679 
L 76.444183 139.263651 
L 76.997118 129.869799 
L 77.550053 135.79666 
L 78.102988 126.402808 
L 78.655923 132.329669 
L 79.208858 122.935817 
L 80.314728 134.789538 
L 80.867664 125.395686 
L 81.420599 131.322547 
L 81.973534 121.928695 
L 82.526469 127.855556 
L 83.079404 118.461704 
L 83.632339 124.388565 
L 84.185274 114.994713 
L 84.738209 120.921574 
L 85.291144 111.527722 
L 85.844079 117.454583 
L 86.397014 108.060731 
L 86.949949 113.987591 
L 87.502884 104.59374 
L 88.055819 110.5206 
L 88.608754 101.126749 
L 90.267559 118.90733 
L 90.820495 109.513479 
L 91.37343 115.440339 
L 91.926365 106.046488 
L 92.4793 111.973348 
L 93.032235 102.579497 
L 93.58517 108.506357 
L 94.138105 99.112506 
L 95.243975 110.966226 
L 95.79691 101.572375 
L 96.90278 113.426096 
L 97.455715 104.032244 
L 98.00865 109.959104 
L 98.561585 100.565253 
L 99.667455 112.418974 
L 100.22039 103.025122 
L 101.326261 114.878843 
L 101.879196 105.484992 
L 102.985066 117.338712 
L 103.538001 107.944861 
L 104.090936 113.871721 
L 104.643871 104.47787 
L 105.196806 110.40473 
L 105.749741 101.010879 
L 106.302676 106.937739 
L 106.855611 97.543888 
L 108.514416 115.324469 
L 109.067351 105.930617 
L 110.173221 117.784338 
L 110.726157 108.390487 
L 111.279092 114.317347 
L 111.832027 104.923496 
L 112.937897 116.777216 
L 113.490832 107.383365 
L 114.043767 113.310225 
L 114.596702 103.916374 
L 115.149637 109.843234 
L 115.702572 100.449383 
L 116.255507 106.376243 
L 116.808442 96.982392 
L 117.361377 102.909252 
L 117.914312 93.515401 
L 118.467247 99.442261 
L 119.020182 90.04841 
L 119.573117 95.97527 
L 120.126052 86.581419 
L 121.231923 98.435139 
L 121.784858 89.041288 
L 122.337793 94.968148 
L 122.890728 85.574297 
L 123.443663 91.501157 
L 123.996598 82.107306 
L 124.549533 88.034166 
L 125.102468 78.640315 
L 125.655403 84.567175 
L 126.208338 75.173324 
L 126.761273 81.100184 
L 127.314208 71.706333 
L 127.867143 77.633193 
L 128.420078 68.239342 
L 128.973013 74.166202 
L 129.525948 64.772351 
L 130.078883 70.699211 
L 130.631819 61.305359 
L 131.184754 67.23222 
L 131.737689 57.838368 
L 132.290624 63.765229 
L 132.843559 54.371377 
L 133.396494 60.298238 
L 133.949429 50.904386 
L 134.502364 56.831247 
L 135.055299 47.437395 
L 136.161169 59.291116 
L 136.714104 49.897265 
L 137.267039 55.824125 
L 137.819974 46.430273 
L 138.372909 52.357134 
L 138.925844 42.963282 
L 139.478779 48.890143 
L 140.031714 39.496291 
L 140.58465 45.423152 
L 141.137585 36.0293 
L 142.243455 47.883021 
L 142.79639 38.48917 
L 143.349325 44.41603 
L 143.90226 35.022179 
L 144.455195 40.949039 
L 145.00813 31.555187 
L 147.21987 55.262629 
L 147.772805 45.868778 
L 149.43161 63.649359 
L 149.984545 54.255507 
L 152.196286 77.962949 
L 152.749221 68.569097 
L 153.855091 80.422818 
L 154.408026 71.028967 
L 157.172701 100.663268 
L 157.725636 91.269417 
L 158.278571 97.196277 
L 158.831506 87.802426 
L 159.384441 93.729286 
L 159.937376 84.335435 
L 160.490312 90.262295 
L 161.043247 80.868444 
L 161.596182 86.795304 
L 162.149117 77.401453 
L 162.702052 83.328313 
L 163.254987 73.934462 
L 164.360857 85.788182 
L 164.913792 76.394331 
L 166.572597 94.174912 
L 167.125532 84.781061 
L 168.231402 96.634781 
L 168.784337 87.24093 
L 170.996078 110.948371 
L 171.549013 101.55452 
L 174.313688 131.188822 
L 174.866623 121.79497 
L 175.972493 133.648691 
L 176.525428 124.25484 
L 177.078363 130.1817 
L 177.631298 120.787849 
L 178.737168 132.641569 
L 179.290103 123.247718 
L 179.843038 129.174578 
L 180.395974 119.780727 
L 181.501844 131.634447 
L 182.054779 122.240596 
L 183.160649 134.094317 
L 183.713584 124.700465 
L 184.266519 130.627326 
L 184.819454 121.233474 
L 185.372389 127.160335 
L 185.925324 117.766483 
L 187.031194 129.620204 
L 187.584129 120.226353 
L 188.137064 126.153213 
L 188.689999 116.759361 
L 189.242934 122.686222 
L 189.795869 113.29237 
L 190.90174 125.146091 
L 191.454675 115.75224 
L 192.00761 121.6791 
L 192.560545 112.285249 
L 193.11348 118.212109 
L 193.666415 108.818258 
L 195.32522 126.598839 
L 195.878155 117.204987 
L 196.43109 123.131848 
L 196.984025 113.737996 
L 198.64283 131.518577 
L 199.195765 122.124726 
L 200.854571 139.905307 
L 201.407506 130.511455 
L 201.960441 136.438316 
L 202.513376 127.044464 
L 203.619246 138.898185 
L 204.172181 129.504334 
L 204.725116 135.431194 
L 205.278051 126.037343 
L 206.936856 143.817924 
L 207.489791 134.424072 
L 208.042726 140.350933 
L 208.595661 130.957081 
L 209.148596 136.883942 
L 209.701531 127.49009 
L 211.360337 145.270671 
L 211.913272 135.87682 
L 212.466207 141.80368 
L 213.019142 132.409829 
L 213.572077 138.336689 
L 214.125012 128.942838 
L 215.230882 140.796558 
L 215.783817 131.402707 
L 217.995557 155.110148 
L 218.548492 145.716297 
L 219.654362 157.570018 
L 220.207298 148.176166 
L 221.866103 165.956747 
L 222.419038 156.562895 
L 222.971973 162.489756 
L 223.524908 153.095904 
L 224.077843 159.022764 
L 224.630778 149.628913 
L 225.183713 155.555773 
L 225.736648 146.161922 
L 226.289583 152.088782 
L 226.842518 142.694931 
L 227.395453 148.621791 
L 227.948388 139.22794 
L 229.054258 151.08166 
L 229.607193 141.687809 
L 230.160129 147.614669 
L 230.713064 138.220818 
L 231.265999 144.147678 
L 231.818934 134.753827 
L 232.371869 140.680687 
L 232.924804 131.286836 
L 233.477739 137.213696 
L 234.030674 127.819844 
L 236.242414 151.527286 
L 236.795349 142.133434 
L 237.901219 153.987155 
L 238.454154 144.593304 
L 239.007089 150.520164 
L 239.560024 141.126313 
L 240.665895 152.980033 
L 241.21883 143.586182 
L 242.3247 155.439902 
L 242.877635 146.046051 
L 243.983505 157.899772 
L 244.53644 148.50592 
L 245.089375 154.432781 
L 245.64231 145.038929 
L 246.195245 150.965789 
L 246.74818 141.571938 
L 248.406985 159.352519 
L 248.95992 149.958667 
L 249.512855 155.885528 
L 250.06579 146.491676 
L 250.618726 152.418537 
L 251.171661 143.024685 
L 253.383401 166.732127 
L 253.936336 157.338275 
L 256.148076 181.045716 
L 256.701011 171.651863 
L 257.253946 177.578723 
L 257.806881 168.184871 
L 258.912751 180.038591 
L 259.465686 170.644738 
L 260.018621 176.571599 
L 260.571557 167.177746 
L 261.124492 173.104607 
L 261.677427 163.710754 
L 262.230362 169.637615 
L 262.783297 160.243763 
L 263.889167 172.097484 
L 264.442102 162.703632 
L 265.547972 174.557352 
L 266.100907 165.1635 
L 267.206777 177.017221 
L 267.759712 167.623368 
L 268.312647 173.550228 
L 268.865582 164.156376 
L 269.971452 176.010097 
L 270.524388 166.616245 
L 271.077323 172.543105 
L 271.630258 163.149253 
L 272.183193 169.076113 
L 272.736128 159.682261 
L 274.947868 183.389703 
L 275.500803 173.995849 
L 276.606673 185.84957 
L 277.159608 176.455715 
L 278.818413 194.236296 
L 279.371348 184.842436 
L 281.030154 202.623017 
L 281.583089 193.229143 
L 283.241894 211.009724 
L 283.794829 201.615811 
L 284.347764 207.542671 
L 284.900699 198.148779 
L 285.453634 204.075639 
L 286.006569 194.68176 
L 287.112439 206.535481 
L 287.665374 197.141593 
L 289.324179 214.922174 
L 289.877114 205.528226 
L 290.43005 211.455086 
L 290.982985 202.06117 
L 291.53592 207.98803 
L 292.088855 198.594136 
L 292.64179 204.520996 
L 293.194725 195.127116 
L 295.406465 218.834557 
L 295.9594 209.440552 
L 296.512335 215.367412 
L 297.06527 205.973459 
L 297.618205 211.900319 
L 298.17114 202.506399 
L 298.724075 208.43326 
L 299.27701 199.039363 
L 299.829945 204.966223 
L 300.382881 195.572341 
L 300.935816 201.499202 
L 301.488751 192.10533 
L 302.041686 198.03219 
L 302.594621 188.638326 
L 303.700491 200.492046 
L 304.253426 191.098177 
L 305.912231 208.878758 
L 306.465166 199.484859 
L 307.018101 205.411719 
L 307.571036 196.017836 
L 309.782776 219.725277 
L 310.335712 210.331255 
L 310.888647 216.258116 
L 311.441582 206.864151 
L 313.100387 224.644732 
L 313.653322 215.250577 
L 314.206257 221.177438 
L 314.759192 211.783384 
L 315.312127 217.710245 
L 315.865062 208.316258 
L 316.417997 214.243119 
L 316.970932 204.849178 
L 317.523867 210.776038 
L 318.076802 201.382127 
L 318.629737 207.308987 
L 319.182672 197.915096 
L 320.288543 209.768817 
L 320.841478 200.374912 
L 322.500283 218.155493 
L 323.053218 208.7615 
L 324.712023 226.542081 
L 325.264958 217.147851 
L 325.817893 223.074711 
L 326.370828 213.680608 
L 326.923763 219.607468 
L 327.476698 210.213449 
L 328.029633 216.140309 
L 328.582568 206.746346 
L 329.688438 218.600066 
L 330.241374 209.206065 
L 330.794309 215.132926 
L 331.347244 205.738975 
L 333.558984 229.446416 
L 334.111919 220.052034 
L 336.876594 249.686335 
L 337.429529 240.286819 
L 337.982464 246.21368 
L 338.535399 236.816054 
L 339.088334 242.742914 
L 339.641269 233.346548 
L 341.300075 251.127129 
L 341.85301 241.726574 
L 342.95888 253.580294 
L 343.511815 244.177513 
L 344.06475 250.104373 
L 344.617685 240.704573 
L 345.17062 246.631434 
L 345.723555 237.233619 
L 346.27649 243.16048 
L 346.829425 233.763987 
L 347.38236 239.690847 
L 347.935295 230.295236 
L 348.48823 236.222096 
L 349.041165 226.827071 
L 350.699971 244.607652 
L 351.252906 235.210673 
L 351.805841 241.137533 
L 352.358776 231.741597 
L 352.911711 237.668457 
L 353.464646 228.273216 
L 354.017581 234.200077 
L 354.570516 224.805299 
L 356.782256 248.51274 
L 357.335191 239.113951 
L 358.441061 250.967671 
L 358.993996 241.56724 
L 360.099867 253.420961 
L 360.652802 244.018344 
L 362.864542 267.725785 
L 363.417477 258.285336 
L 365.076282 276.065917 
L 365.629217 266.549033 
L 366.182152 272.475893 
L 366.735087 263.000992 
L 367.288022 268.927853 
L 367.840957 259.480392 
L 370.605633 289.114694 
L 371.158568 279.168996 
L 373.370308 302.876437 
L 373.370308 302.876437 
" style="fill:none;stroke:#1f77b4;stroke-linecap:square;stroke-width:0.666667;"/>
   </g>
   <g id="line2d_17">
    <path clip-path="url(#p13e21dde57)" d="M 54.879716 164.086656 
L 55.432651 154.692804 
L 56.538521 166.546525 
L 57.091456 157.152673 
L 57.644391 163.079533 
L 58.197326 153.685682 
L 58.750261 159.612542 
L 59.303196 150.218691 
L 59.856131 156.145551 
L 60.409066 146.751699 
L 60.962002 152.67856 
L 61.514937 143.284708 
L 62.067872 149.211569 
L 62.620807 139.817717 
L 63.173742 145.744578 
L 63.726677 136.350726 
L 64.832547 148.204447 
L 65.385482 138.810595 
L 65.938417 144.737456 
L 66.491352 135.343604 
L 67.044287 141.270465 
L 67.597222 131.876613 
L 68.150157 137.803474 
L 68.703092 128.409622 
L 69.256027 134.336483 
L 69.808962 124.942631 
L 70.361897 130.869491 
L 70.914833 121.47564 
L 72.573638 139.256221 
L 73.126573 129.86237 
L 73.679508 135.78923 
L 74.232443 126.395379 
L 75.338313 138.249099 
L 75.891248 128.855248 
L 76.444183 134.782108 
L 76.997118 125.388257 
L 78.655923 143.168838 
L 79.208858 133.774986 
L 79.761793 139.701847 
L 80.314728 130.307995 
L 80.867664 136.234856 
L 81.420599 126.841004 
L 81.973534 132.767865 
L 82.526469 123.374013 
L 83.079404 129.300874 
L 83.632339 119.907022 
L 84.738209 131.760743 
L 85.291144 122.366892 
L 85.844079 128.293752 
L 86.397014 118.8999 
L 87.502884 130.753621 
L 88.055819 121.35977 
L 89.161689 133.21349 
L 89.714624 123.819639 
L 90.267559 129.746499 
L 90.820495 120.352648 
L 91.37343 126.279508 
L 91.926365 116.885657 
L 92.4793 122.812517 
L 93.032235 113.418666 
L 93.58517 119.345526 
L 94.138105 109.951675 
L 95.243975 121.805396 
L 95.79691 112.411544 
L 96.90278 124.265265 
L 97.455715 114.871413 
L 98.00865 120.798274 
L 98.561585 111.404422 
L 99.667455 123.258143 
L 100.22039 113.864292 
L 100.773326 119.791152 
L 101.326261 110.397301 
L 101.879196 116.324161 
L 102.432131 106.93031 
L 102.985066 112.85717 
L 103.538001 103.463318 
L 104.090936 109.390179 
L 104.643871 99.996327 
L 105.749741 111.850048 
L 106.302676 102.456197 
L 106.855611 108.383057 
L 107.408546 98.989206 
L 108.514416 110.842926 
L 109.067351 101.449075 
L 110.173221 113.302796 
L 110.726157 103.908944 
L 111.279092 109.835805 
L 111.832027 100.441953 
L 114.043767 124.149395 
L 114.596702 114.755543 
L 116.255507 132.536124 
L 116.808442 123.142273 
L 117.361377 129.069133 
L 117.914312 119.675282 
L 119.573117 137.455863 
L 120.126052 128.062011 
L 121.231923 139.915732 
L 121.784858 130.521881 
L 122.337793 136.448741 
L 122.890728 127.05489 
L 123.443663 132.98175 
L 123.996598 123.587899 
L 124.549533 129.514759 
L 125.102468 120.120908 
L 125.655403 126.047768 
L 126.208338 116.653917 
L 127.314208 128.507637 
L 127.867143 119.113786 
L 129.525948 136.894367 
L 130.078883 127.500515 
L 130.631819 133.427376 
L 131.184754 124.033524 
L 131.737689 129.960385 
L 132.290624 120.566533 
L 132.843559 126.493394 
L 133.396494 117.099542 
L 133.949429 123.026403 
L 134.502364 113.632551 
L 135.055299 119.559412 
L 135.608234 110.16556 
L 136.161169 116.092421 
L 136.714104 106.698569 
L 137.267039 112.625429 
L 137.819974 103.231578 
L 138.925844 115.085299 
L 139.478779 105.691447 
L 140.58465 117.545168 
L 141.137585 108.151317 
L 142.243455 120.005037 
L 142.79639 110.611186 
L 143.349325 116.538046 
L 143.90226 107.144195 
L 145.00813 118.997916 
L 145.561065 109.604064 
L 147.21987 127.384645 
L 147.772805 117.990794 
L 148.32574 123.917654 
L 148.878675 114.523803 
L 149.43161 120.450663 
L 149.984545 111.056812 
L 150.537481 116.983672 
L 151.090416 107.589821 
L 151.643351 113.516681 
L 152.196286 104.12283 
L 152.749221 110.04969 
L 153.302156 100.655839 
L 154.408026 112.509559 
L 154.960961 103.115708 
L 155.513896 109.042568 
L 156.066831 99.648717 
L 156.619766 105.575577 
L 157.172701 96.181726 
L 157.725636 102.108586 
L 158.278571 92.714735 
L 158.831506 98.641595 
L 159.384441 89.247744 
L 159.937376 95.174604 
L 160.490312 85.780753 
L 161.043247 91.707613 
L 161.596182 82.313761 
L 164.360857 111.948063 
L 164.913792 102.554212 
L 165.466727 108.481072 
L 166.019662 99.087221 
L 166.572597 105.014081 
L 167.125532 95.62023 
L 167.678467 101.54709 
L 168.231402 92.153239 
L 170.443143 115.86068 
L 170.996078 106.466829 
L 171.549013 112.393689 
L 172.101948 102.999838 
L 174.313688 126.707279 
L 174.866623 117.313428 
L 175.972493 129.167148 
L 176.525428 119.773297 
L 177.631298 131.627018 
L 178.184233 122.233166 
L 178.737168 128.160027 
L 179.290103 118.766175 
L 180.948909 136.546756 
L 181.501844 127.152905 
L 183.713584 150.860346 
L 184.266519 141.466495 
L 185.372389 153.320216 
L 185.925324 143.926364 
L 187.031194 155.780085 
L 187.584129 146.386233 
L 188.137064 152.313094 
L 188.689999 142.919242 
L 189.795869 154.772963 
L 190.348805 145.379111 
L 190.90174 151.305972 
L 191.454675 141.91212 
L 192.00761 147.838981 
L 192.560545 138.445129 
L 193.11348 144.37199 
L 193.666415 134.978138 
L 194.21935 140.904998 
L 194.772285 131.511147 
L 195.32522 137.438007 
L 195.878155 128.044156 
L 197.53696 145.824737 
L 198.089895 136.430886 
L 198.64283 142.357746 
L 199.195765 132.963894 
L 199.7487 138.890755 
L 200.301636 129.496903 
L 200.854571 135.423764 
L 201.407506 126.029912 
L 201.960441 131.956773 
L 202.513376 122.562921 
L 203.066311 128.489782 
L 203.619246 119.09593 
L 204.172181 125.022791 
L 204.725116 115.628939 
L 205.278051 121.5558 
L 205.830986 112.161948 
L 206.383921 118.088808 
L 206.936856 108.694957 
L 208.042726 120.548678 
L 208.595661 111.154826 
L 210.807402 134.862268 
L 211.360337 125.468416 
L 214.125012 155.102718 
L 214.677947 145.708867 
L 216.336752 163.489448 
L 216.889687 154.095596 
L 217.442622 160.022456 
L 217.995557 150.628605 
L 218.548492 156.555465 
L 219.101427 147.161614 
L 219.654362 153.088474 
L 220.207298 143.694623 
L 220.760233 149.621483 
L 221.313168 140.227631 
L 221.866103 146.154492 
L 222.419038 136.76064 
L 223.524908 148.614361 
L 224.077843 139.22051 
L 224.630778 145.14737 
L 225.183713 135.753519 
L 225.736648 141.680379 
L 226.289583 132.286527 
L 226.842518 138.213388 
L 227.395453 128.819536 
L 227.948388 134.746397 
L 228.501323 125.352545 
L 229.054258 131.279406 
L 229.607193 121.885554 
L 231.265999 139.666135 
L 231.818934 130.272284 
L 232.924804 142.126005 
L 233.477739 132.732153 
L 234.030674 138.659014 
L 234.583609 129.265162 
L 235.136544 135.192023 
L 235.689479 125.798171 
L 237.901219 149.505613 
L 238.454154 140.111761 
L 240.11296 157.892342 
L 240.665895 148.498491 
L 241.771765 160.352211 
L 242.3247 150.95836 
L 243.43057 162.81208 
L 243.983505 153.418229 
L 244.53644 159.345089 
L 245.089375 149.951238 
L 246.195245 161.804958 
L 246.74818 152.411107 
L 247.85405 164.264827 
L 248.406985 154.870976 
L 249.512855 166.724696 
L 250.06579 157.330845 
L 250.618726 163.257705 
L 251.171661 153.863853 
L 251.724596 159.790714 
L 252.277531 150.396862 
L 252.830466 156.323723 
L 253.383401 146.929871 
L 255.042206 164.710452 
L 255.595141 155.3166 
L 256.148076 161.243461 
L 256.701011 151.849609 
L 257.806881 163.70333 
L 258.359816 154.309478 
L 259.465686 166.163199 
L 260.018621 156.769347 
L 260.571557 162.696208 
L 261.124492 153.302356 
L 262.230362 165.156077 
L 262.783297 155.762225 
L 264.442102 173.542806 
L 264.995037 164.148954 
L 266.100907 176.002675 
L 266.653842 166.608822 
L 267.206777 172.535683 
L 267.759712 163.14183 
L 269.971452 186.849272 
L 270.524388 177.455417 
L 271.077323 183.382277 
L 271.630258 173.988423 
L 272.183193 179.915284 
L 272.736128 170.521431 
L 273.841998 182.375151 
L 274.394933 172.981298 
L 276.053738 190.761879 
L 276.606673 181.368022 
L 277.712543 193.221742 
L 278.265478 183.827883 
L 279.371348 195.681604 
L 279.924283 186.287742 
L 280.477219 192.214603 
L 281.030154 182.820744 
L 282.136024 194.674465 
L 282.688959 185.280605 
L 283.241894 191.207465 
L 283.794829 181.813608 
L 284.347764 187.740468 
L 284.900699 178.346612 
L 285.453634 184.273473 
L 286.006569 174.879619 
L 286.559504 180.806479 
L 287.112439 171.412626 
L 287.665374 177.339486 
L 288.218309 167.945634 
L 288.771244 173.872494 
L 289.324179 164.478642 
L 289.877114 170.405502 
L 290.43005 161.01165 
L 291.53592 172.865371 
L 292.088855 163.471519 
L 292.64179 169.398379 
L 293.194725 160.004527 
L 294.85353 177.785108 
L 295.406465 168.391256 
L 295.9594 174.318116 
L 296.512335 164.924264 
L 297.618205 176.777984 
L 298.17114 167.384132 
L 299.829945 185.164713 
L 300.382881 175.770859 
L 300.935816 181.697719 
L 301.488751 172.303865 
L 302.041686 178.230726 
L 302.594621 168.836873 
L 303.147556 174.763733 
L 303.700491 165.369881 
L 307.571036 206.857904 
L 308.123971 197.464014 
L 308.676906 203.390875 
L 309.229841 193.996998 
L 309.782776 199.923858 
L 310.335712 190.52999 
L 310.888647 196.456851 
L 311.441582 187.062988 
L 312.547452 198.916709 
L 313.100387 189.522842 
L 314.206257 201.376563 
L 314.759192 191.982692 
L 315.312127 197.909552 
L 315.865062 188.515687 
L 316.417997 194.442548 
L 316.970932 185.048687 
L 317.523867 190.975548 
L 318.076802 181.58169 
L 318.629737 187.508551 
L 319.182672 178.114695 
L 319.735607 184.041556 
L 320.288543 174.647702 
L 320.841478 180.574562 
L 321.394413 171.180709 
L 322.500283 183.03443 
L 323.053218 173.640576 
L 323.606153 179.567436 
L 324.159088 170.173583 
L 324.712023 176.100444 
L 325.264958 166.706591 
L 325.817893 172.633452 
L 326.370828 163.239599 
L 326.923763 169.16646 
L 327.476698 159.772608 
L 328.029633 165.699468 
L 328.582568 156.305617 
L 330.241374 174.086198 
L 330.794309 164.692345 
L 331.900179 176.546066 
L 332.453114 167.152214 
L 333.558984 179.005934 
L 334.111919 169.612081 
L 334.664854 175.538942 
L 335.217789 166.145089 
L 335.770724 172.07195 
L 336.323659 162.678098 
L 336.876594 168.604958 
L 337.429529 159.211106 
L 337.982464 165.137967 
L 338.535399 155.744115 
L 339.641269 167.597836 
L 340.194205 158.203984 
L 340.74714 164.130844 
L 341.300075 154.736993 
L 341.85301 160.663853 
L 342.405945 151.270001 
L 345.17062 180.904303 
L 345.723555 171.51045 
L 346.829425 183.364171 
L 347.38236 173.970317 
L 348.48823 185.824037 
L 349.041165 176.430183 
L 350.147036 188.283904 
L 350.699971 178.890048 
L 352.358776 196.670629 
L 352.911711 187.276766 
L 354.570516 205.057347 
L 355.123451 195.663465 
L 355.676386 201.590325 
L 356.229321 192.196453 
L 358.993996 221.830755 
L 359.546931 212.436686 
L 360.652802 224.290407 
L 361.205737 214.896264 
L 362.864542 232.676846 
L 363.417477 223.282219 
L 365.076282 241.0628 
L 365.629217 231.666882 
L 366.182152 237.593742 
L 366.735087 228.198514 
L 370.052698 263.759676 
L 370.605633 254.336491 
L 371.711503 266.190212 
L 372.264438 256.757405 
L 373.370308 268.611126 
L 373.923243 259.165609 
L 374.476178 265.092469 
L 375.029113 255.664346 
L 375.582048 261.591207 
L 376.134983 252.174584 
L 377.793788 269.955165 
L 378.346723 260.500885 
L 378.899658 266.427745 
L 379.452593 256.993844 
L 380.005529 262.920704 
L 380.558464 253.500256 
L 381.111399 259.427117 
L 381.664334 250.015581 
L 382.770204 261.869301 
L 383.323139 252.451927 
L 384.429009 264.305647 
L 384.981944 254.880532 
L 385.534879 260.807393 
L 386.087814 251.392762 
L 387.193684 263.246483 
L 387.746619 253.825004 
L 388.299554 259.751864 
L 388.852489 250.339644 
L 389.405424 256.266504 
L 389.95836 246.860429 
L 391.06423 258.71415 
L 391.617165 249.304027 
L 392.1701 255.230887 
L 392.723035 245.826205 
L 393.27597 251.753066 
L 393.828905 242.352002 
L 394.38184 248.278862 
L 394.934775 238.880205 
L 396.040645 250.733926 
L 396.59358 241.333672 
L 398.252385 259.114253 
L 398.80532 249.703352 
L 399.358255 255.630212 
L 399.911191 246.225013 
L 400.464126 252.151873 
L 401.017061 242.750465 
L 402.122931 254.604185 
L 402.675866 245.200268 
L 403.228801 251.127129 
L 403.781736 241.726574 
L 404.887606 253.580294 
L 405.440541 244.177513 
L 405.993476 250.104373 
L 406.546411 240.704573 
L 407.099346 246.631434 
L 407.652281 237.233619 
L 408.205216 243.16048 
L 408.758151 233.763987 
L 409.311086 239.690847 
L 409.864022 230.295236 
L 410.416957 236.222096 
L 410.969892 226.827071 
L 412.628697 244.607652 
L 413.181632 235.210673 
L 413.734567 241.137533 
L 414.287502 231.741597 
L 414.840437 237.668457 
L 415.393372 228.273216 
L 415.946307 234.200077 
L 416.499242 224.805299 
L 418.710982 248.51274 
L 419.263917 239.113951 
L 420.369788 250.967671 
L 420.922723 241.56724 
L 422.028593 253.420961 
L 422.581528 244.018344 
L 424.793268 267.725785 
L 425.346203 258.285336 
L 427.005008 276.065917 
L 427.557943 266.549033 
L 428.110878 272.475893 
L 428.663813 263.000992 
L 429.216748 268.927853 
L 429.769684 259.480392 
L 432.534359 289.114694 
L 433.087294 279.168996 
L 435.299034 302.876437 
L 435.299034 302.876437 
" style="fill:none;stroke:#ff7f0e;stroke-linecap:square;stroke-width:0.666667;"/>
   </g>
   <g id="patch_3">
    <path d="M 35.85875 316.4425 
L 35.85875 17.989125 
" style="fill:none;stroke:#000000;stroke-linecap:square;stroke-linejoin:miter;stroke-width:0.8;"/>
   </g>
   <g id="patch_4">
    <path d="M 454.32 316.4425 
L 454.32 17.989125 
" style="fill:none;stroke:#000000;stroke-linecap:square;stroke-linejoin:miter;stroke-width:0.8;"/>
   </g>
   <g id="patch_5">
    <path d="M 35.85875 316.4425 
L 454.32 316.4425 
" style="fill:none;stroke:#000000;stroke-linecap:square;stroke-linejoin:miter;stroke-width:0.8;"/>
   </g>
   <g id="patch_6">
    <path d="M 35.85875 17.989125 
L 454.32 17.989125 
" style="fill:none;stroke:#000000;stroke-linecap:square;stroke-linejoin:miter;stroke-width:0.8;"/>
   </g>
   <g id="text_18">
    <!-- "3y+1" problem -->
    <g transform="translate(214.747 11.989125)scale(0.072 -0.072)">
     <defs>
      <path d="M 43.703125 72.90625 
L 43.703125 45.796875 
L 35.203125 45.796875 
L 35.203125 72.90625 
z
M 25 72.90625 
L 25 45.796875 
L 16.5 45.796875 
L 16.5 72.90625 
z
" id="DejaVuSansMono-34"/>
      <path d="M 34.1875 57.171875 
L 34.1875 35.5 
L 55.90625 35.5 
L 55.90625 27.203125 
L 34.1875 27.203125 
L 34.1875 5.515625 
L 25.984375 5.515625 
L 25.984375 27.203125 
L 4.296875 27.203125 
L 4.296875 35.5 
L 25.984375 35.5 
L 25.984375 57.171875 
z
" id="DejaVuSansMono-43"/>
      <path id="DejaVuSansMono-32"/>
      <path d="M 18.3125 6.890625 
L 18.3125 -20.796875 
L 9.28125 -20.796875 
L 9.28125 54.6875 
L 18.3125 54.6875 
L 18.3125 47.703125 
Q 20.5625 51.765625 24.296875 53.875 
Q 28.03125 56 32.90625 56 
Q 42.828125 56 48.46875 48.328125 
Q 54.109375 40.671875 54.109375 27.09375 
Q 54.109375 13.765625 48.4375 6.171875 
Q 42.78125 -1.421875 32.90625 -1.421875 
Q 27.9375 -1.421875 24.1875 0.703125 
Q 20.453125 2.828125 18.3125 6.890625 
z
M 44.671875 27.296875 
Q 44.671875 37.75 41.375 43.0625 
Q 38.09375 48.390625 31.59375 48.390625 
Q 25.046875 48.390625 21.671875 43.046875 
Q 18.3125 37.703125 18.3125 27.296875 
Q 18.3125 16.9375 21.671875 11.5625 
Q 25.046875 6.203125 31.59375 6.203125 
Q 38.09375 6.203125 41.375 11.515625 
Q 44.671875 16.84375 44.671875 27.296875 
z
" id="DejaVuSansMono-112"/>
      <path d="M 56.390625 43.40625 
Q 53.515625 45.65625 50.53125 46.671875 
Q 47.5625 47.703125 44 47.703125 
Q 35.59375 47.703125 31.140625 42.421875 
Q 26.703125 37.15625 26.703125 27.203125 
L 26.703125 0 
L 17.671875 0 
L 17.671875 54.6875 
L 26.703125 54.6875 
L 26.703125 44 
Q 28.953125 49.8125 33.609375 52.90625 
Q 38.28125 56 44.671875 56 
Q 48 56 50.875 55.171875 
Q 53.765625 54.34375 56.390625 52.59375 
z
" id="DejaVuSansMono-114"/>
      <path d="M 30.078125 48.390625 
Q 23.25 48.390625 19.734375 43.0625 
Q 16.21875 37.75 16.21875 27.296875 
Q 16.21875 16.890625 19.734375 11.546875 
Q 23.25 6.203125 30.078125 6.203125 
Q 36.96875 6.203125 40.484375 11.546875 
Q 44 16.890625 44 27.296875 
Q 44 37.75 40.484375 43.0625 
Q 36.96875 48.390625 30.078125 48.390625 
z
M 30.078125 56 
Q 41.453125 56 47.484375 48.625 
Q 53.515625 41.265625 53.515625 27.296875 
Q 53.515625 13.28125 47.5 5.921875 
Q 41.5 -1.421875 30.078125 -1.421875 
Q 18.703125 -1.421875 12.6875 5.921875 
Q 6.6875 13.28125 6.6875 27.296875 
Q 6.6875 41.265625 12.6875 48.625 
Q 18.703125 56 30.078125 56 
z
" id="DejaVuSansMono-111"/>
      <path d="M 44.828125 27.296875 
Q 44.828125 37.75 41.5 43.0625 
Q 38.1875 48.390625 31.6875 48.390625 
Q 25.140625 48.390625 21.765625 43.046875 
Q 18.40625 37.703125 18.40625 27.296875 
Q 18.40625 16.9375 21.765625 11.5625 
Q 25.140625 6.203125 31.6875 6.203125 
Q 38.1875 6.203125 41.5 11.515625 
Q 44.828125 16.84375 44.828125 27.296875 
z
M 18.40625 47.703125 
Q 20.5625 51.703125 24.34375 53.84375 
Q 28.125 56 33.109375 56 
Q 42.96875 56 48.625 48.40625 
Q 54.296875 40.828125 54.296875 27.484375 
Q 54.296875 13.96875 48.609375 6.265625 
Q 42.921875 -1.421875 33.015625 -1.421875 
Q 28.125 -1.421875 24.390625 0.703125 
Q 20.65625 2.828125 18.40625 6.890625 
L 18.40625 0 
L 9.421875 0 
L 9.421875 75.984375 
L 18.40625 75.984375 
z
" id="DejaVuSansMono-98"/>
      <path d="M 31.203125 19.828125 
Q 31.203125 13.765625 33.421875 10.6875 
Q 35.640625 7.625 39.984375 7.625 
L 50.484375 7.625 
L 50.484375 0 
L 39.109375 0 
Q 31.0625 0 26.640625 5.171875 
Q 22.21875 10.359375 22.21875 19.828125 
L 22.21875 69.484375 
L 7.8125 69.484375 
L 7.8125 76.515625 
L 31.203125 76.515625 
z
" id="DejaVuSansMono-108"/>
      <path d="M 54.296875 29.59375 
L 54.296875 25.203125 
L 15.375 25.203125 
L 15.375 24.90625 
Q 15.375 15.96875 20.03125 11.078125 
Q 24.703125 6.203125 33.203125 6.203125 
Q 37.5 6.203125 42.1875 7.5625 
Q 46.875 8.9375 52.203125 11.71875 
L 52.203125 2.78125 
Q 47.078125 0.6875 42.3125 -0.359375 
Q 37.546875 -1.421875 33.109375 -1.421875 
Q 20.359375 -1.421875 13.171875 6.21875 
Q 6 13.875 6 27.296875 
Q 6 40.375 13.03125 48.1875 
Q 20.0625 56 31.78125 56 
Q 42.234375 56 48.265625 48.921875 
Q 54.296875 41.84375 54.296875 29.59375 
z
M 45.3125 32.234375 
Q 45.125 40.140625 41.578125 44.265625 
Q 38.03125 48.390625 31.390625 48.390625 
Q 24.90625 48.390625 20.703125 44.09375 
Q 16.5 39.796875 15.71875 32.171875 
z
" id="DejaVuSansMono-101"/>
      <path d="M 33.015625 49.125 
Q 34.671875 52.640625 37.234375 54.3125 
Q 39.796875 56 43.40625 56 
Q 50 56 52.703125 50.890625 
Q 55.421875 45.796875 55.421875 31.6875 
L 55.421875 0 
L 47.21875 0 
L 47.21875 31.296875 
Q 47.21875 42.875 45.921875 45.671875 
Q 44.625 48.484375 41.21875 48.484375 
Q 37.3125 48.484375 35.859375 45.484375 
Q 34.421875 42.484375 34.421875 31.296875 
L 34.421875 0 
L 26.21875 0 
L 26.21875 31.296875 
Q 26.21875 43.015625 24.828125 45.75 
Q 23.4375 48.484375 19.828125 48.484375 
Q 16.265625 48.484375 14.875 45.484375 
Q 13.484375 42.484375 13.484375 31.296875 
L 13.484375 0 
L 5.328125 0 
L 5.328125 54.6875 
L 13.484375 54.6875 
L 13.484375 50 
Q 15.09375 52.9375 17.5 54.46875 
Q 19.921875 56 23 56 
Q 26.703125 56 29.171875 54.296875 
Q 31.640625 52.59375 33.015625 49.125 
z
" id="DejaVuSansMono-109"/>
     </defs>
     <use xlink:href="#DejaVuSansMono-34"/>
     <use x="60.205078" xlink:href="#DejaVuSansMono-51"/>
     <use x="120.410156" xlink:href="#DejaVuSansMono-121"/>
     <use x="180.615234" xlink:href="#DejaVuSansMono-43"/>
     <use x="240.820312" xlink:href="#DejaVuSansMono-49"/>
     <use x="301.025391" xlink:href="#DejaVuSansMono-34"/>
     <use x="361.230469" xlink:href="#DejaVuSansMono-32"/>
     <use x="421.435547" xlink:href="#DejaVuSansMono-112"/>
     <use x="481.640625" xlink:href="#DejaVuSansMono-114"/>
     <use x="541.845703" xlink:href="#DejaVuSansMono-111"/>
     <use x="602.050781" xlink:href="#DejaVuSansMono-98"/>
     <use x="662.255859" xlink:href="#DejaVuSansMono-108"/>
     <use x="722.460938" xlink:href="#DejaVuSansMono-101"/>
     <use x="782.666016" xlink:href="#DejaVuSansMono-109"/>
    </g>
   </g>
   <g id="legend_1">
    <g id="patch_7">
     <path d="M 347.839688 82.0095 
L 450.12 82.0095 
Q 451.32 82.0095 451.32 80.8095 
L 451.32 22.189125 
Q 451.32 20.989125 450.12 20.989125 
L 347.839688 20.989125 
Q 346.639688 20.989125 346.639688 22.189125 
L 346.639688 80.8095 
Q 346.639688 82.0095 347.839688 82.0095 
z
" style="fill:#ffffff;opacity:0.8;stroke:#cccccc;stroke-linejoin:miter;"/>
    </g>
    <g id="line2d_18">
     <path d="M 349.039688 36.889687 
L 361.039688 36.889687 
" style="fill:none;stroke:#1f77b4;stroke-linecap:square;stroke-width:0.666667;"/>
    </g>
    <g id="line2d_19"/>
    <g id="text_19">
     <!-- "Tallest": -->
     <g transform="translate(365.839688 27.980062)scale(0.06 -0.06)">
      <defs>
       <path d="M 2.296875 72.90625 
L 57.90625 72.90625 
L 57.90625 64.59375 
L 35.109375 64.59375 
L 35.109375 0 
L 25.203125 0 
L 25.203125 64.59375 
L 2.296875 64.59375 
z
" id="DejaVuSansMono-84"/>
       <path d="M 34.28125 27.484375 
L 31.296875 27.484375 
Q 23.4375 27.484375 19.453125 24.71875 
Q 15.484375 21.96875 15.484375 16.5 
Q 15.484375 11.578125 18.453125 8.84375 
Q 21.4375 6.109375 26.703125 6.109375 
Q 34.125 6.109375 38.375 11.25 
Q 42.625 16.40625 42.671875 25.484375 
L 42.671875 27.484375 
z
M 51.703125 31.203125 
L 51.703125 0 
L 42.671875 0 
L 42.671875 8.109375 
Q 39.796875 3.21875 35.421875 0.890625 
Q 31.0625 -1.421875 24.8125 -1.421875 
Q 16.453125 -1.421875 11.46875 3.296875 
Q 6.5 8.015625 6.5 15.921875 
Q 6.5 25.046875 12.625 29.78125 
Q 18.75 34.515625 30.609375 34.515625 
L 42.671875 34.515625 
L 42.671875 35.9375 
Q 42.625 42.484375 39.34375 45.4375 
Q 36.078125 48.390625 28.90625 48.390625 
Q 24.3125 48.390625 19.625 47.0625 
Q 14.9375 45.75 10.5 43.21875 
L 10.5 52.203125 
Q 15.484375 54.109375 20.046875 55.046875 
Q 24.609375 56 28.90625 56 
Q 35.6875 56 40.5 54 
Q 45.3125 52 48.296875 48 
Q 50.140625 45.5625 50.921875 41.96875 
Q 51.703125 38.375 51.703125 31.203125 
z
" id="DejaVuSansMono-97"/>
       <path d="M 47.515625 52.78125 
L 47.515625 44 
Q 43.65625 46.234375 39.75 47.359375 
Q 35.84375 48.484375 31.78125 48.484375 
Q 25.6875 48.484375 22.671875 46.5 
Q 19.671875 44.53125 19.671875 40.484375 
Q 19.671875 36.8125 21.921875 35 
Q 24.171875 33.203125 33.109375 31.5 
L 36.71875 30.8125 
Q 43.40625 29.546875 46.84375 25.734375 
Q 50.296875 21.921875 50.296875 15.828125 
Q 50.296875 7.71875 44.53125 3.140625 
Q 38.765625 -1.421875 28.515625 -1.421875 
Q 24.46875 -1.421875 20.015625 -0.5625 
Q 15.578125 0.296875 10.40625 2 
L 10.40625 11.28125 
Q 15.4375 8.6875 20.015625 7.390625 
Q 24.609375 6.109375 28.71875 6.109375 
Q 34.671875 6.109375 37.9375 8.515625 
Q 41.21875 10.9375 41.21875 15.28125 
Q 41.21875 21.53125 29.25 23.921875 
L 28.859375 24.03125 
L 25.484375 24.703125 
Q 17.71875 26.21875 14.15625 29.8125 
Q 10.59375 33.40625 10.59375 39.59375 
Q 10.59375 47.46875 15.90625 51.734375 
Q 21.234375 56 31.109375 56 
Q 35.5 56 39.546875 55.1875 
Q 43.609375 54.390625 47.515625 52.78125 
z
" id="DejaVuSansMono-115"/>
       <path d="M 29.984375 70.21875 
L 29.984375 54.6875 
L 50.390625 54.6875 
L 50.390625 47.703125 
L 29.984375 47.703125 
L 29.984375 18.015625 
Q 29.984375 11.96875 32.28125 9.5625 
Q 34.578125 7.171875 40.28125 7.171875 
L 50.390625 7.171875 
L 50.390625 0 
L 39.40625 0 
Q 29.296875 0 25.140625 4.046875 
Q 21 8.109375 21 18.015625 
L 21 47.703125 
L 6.390625 47.703125 
L 6.390625 54.6875 
L 21 54.6875 
L 21 70.21875 
z
" id="DejaVuSansMono-116"/>
       <path d="M 23.875 51.90625 
L 36.1875 51.90625 
L 36.1875 37.109375 
L 23.875 37.109375 
z
M 23.875 14.890625 
L 36.1875 14.890625 
L 36.1875 0 
L 23.875 0 
z
" id="DejaVuSansMono-58"/>
      </defs>
      <use xlink:href="#DejaVuSansMono-34"/>
      <use x="60.205078" xlink:href="#DejaVuSansMono-84"/>
      <use x="120.410156" xlink:href="#DejaVuSansMono-97"/>
      <use x="180.615234" xlink:href="#DejaVuSansMono-108"/>
      <use x="240.820312" xlink:href="#DejaVuSansMono-108"/>
      <use x="301.025391" xlink:href="#DejaVuSansMono-101"/>
      <use x="361.230469" xlink:href="#DejaVuSansMono-115"/>
      <use x="421.435547" xlink:href="#DejaVuSansMono-116"/>
      <use x="481.640625" xlink:href="#DejaVuSansMono-34"/>
      <use x="541.845703" xlink:href="#DejaVuSansMono-58"/>
     </g>
     <!-- y_0    = 6631675 -->
     <g transform="translate(365.839688 34.737)scale(0.06 -0.06)">
      <defs>
       <path d="M 4.296875 25.59375 
L 55.90625 25.59375 
L 55.90625 17.1875 
L 4.296875 17.1875 
z
M 4.296875 45.40625 
L 55.90625 45.40625 
L 55.90625 37.109375 
L 4.296875 37.109375 
z
" id="DejaVuSansMono-61"/>
      </defs>
      <use xlink:href="#DejaVuSansMono-121"/>
      <use x="60.205078" xlink:href="#DejaVuSansMono-95"/>
      <use x="120.410156" xlink:href="#DejaVuSansMono-48"/>
      <use x="180.615234" xlink:href="#DejaVuSansMono-32"/>
      <use x="240.820312" xlink:href="#DejaVuSansMono-32"/>
      <use x="301.025391" xlink:href="#DejaVuSansMono-32"/>
      <use x="361.230469" xlink:href="#DejaVuSansMono-32"/>
      <use x="421.435547" xlink:href="#DejaVuSansMono-61"/>
      <use x="481.640625" xlink:href="#DejaVuSansMono-32"/>
      <use x="541.845703" xlink:href="#DejaVuSansMono-54"/>
      <use x="602.050781" xlink:href="#DejaVuSansMono-54"/>
      <use x="662.255859" xlink:href="#DejaVuSansMono-51"/>
      <use x="722.460938" xlink:href="#DejaVuSansMono-49"/>
      <use x="782.666016" xlink:href="#DejaVuSansMono-54"/>
      <use x="842.871094" xlink:href="#DejaVuSansMono-55"/>
      <use x="903.076172" xlink:href="#DejaVuSansMono-53"/>
     </g>
     <!-- y_max  = 60342610919632 -->
     <g transform="translate(365.839688 41.660812)scale(0.06 -0.06)">
      <defs>
       <path d="M 54.59375 54.6875 
L 35.015625 28.515625 
L 56.5 0 
L 46.09375 0 
L 30.078125 21.921875 
L 14.109375 0 
L 3.71875 0 
L 25.203125 28.515625 
L 5.609375 54.6875 
L 15.578125 54.6875 
L 30.078125 34.90625 
L 44.484375 54.6875 
z
" id="DejaVuSansMono-120"/>
      </defs>
      <use xlink:href="#DejaVuSansMono-121"/>
      <use x="60.205078" xlink:href="#DejaVuSansMono-95"/>
      <use x="120.410156" xlink:href="#DejaVuSansMono-109"/>
      <use x="180.615234" xlink:href="#DejaVuSansMono-97"/>
      <use x="240.820312" xlink:href="#DejaVuSansMono-120"/>
      <use x="301.025391" xlink:href="#DejaVuSansMono-32"/>
      <use x="361.230469" xlink:href="#DejaVuSansMono-32"/>
      <use x="421.435547" xlink:href="#DejaVuSansMono-61"/>
      <use x="481.640625" xlink:href="#DejaVuSansMono-32"/>
      <use x="541.845703" xlink:href="#DejaVuSansMono-54"/>
      <use x="602.050781" xlink:href="#DejaVuSansMono-48"/>
      <use x="662.255859" xlink:href="#DejaVuSansMono-51"/>
      <use x="722.460938" xlink:href="#DejaVuSansMono-52"/>
      <use x="782.666016" xlink:href="#DejaVuSansMono-50"/>
      <use x="842.871094" xlink:href="#DejaVuSansMono-54"/>
      <use x="903.076172" xlink:href="#DejaVuSansMono-49"/>
      <use x="963.28125" xlink:href="#DejaVuSansMono-48"/>
      <use x="1023.486328" xlink:href="#DejaVuSansMono-57"/>
      <use x="1083.691406" xlink:href="#DejaVuSansMono-49"/>
      <use x="1143.896484" xlink:href="#DejaVuSansMono-57"/>
      <use x="1204.101562" xlink:href="#DejaVuSansMono-54"/>
      <use x="1264.306641" xlink:href="#DejaVuSansMono-51"/>
      <use x="1324.511719" xlink:href="#DejaVuSansMono-50"/>
     </g>
     <!-- x_max  = 577 -->
     <g transform="translate(365.839688 48.584625)scale(0.06 -0.06)">
      <use xlink:href="#DejaVuSansMono-120"/>
      <use x="60.205078" xlink:href="#DejaVuSansMono-95"/>
      <use x="120.410156" xlink:href="#DejaVuSansMono-109"/>
      <use x="180.615234" xlink:href="#DejaVuSansMono-97"/>
      <use x="240.820312" xlink:href="#DejaVuSansMono-120"/>
      <use x="301.025391" xlink:href="#DejaVuSansMono-32"/>
      <use x="361.230469" xlink:href="#DejaVuSansMono-32"/>
      <use x="421.435547" xlink:href="#DejaVuSansMono-61"/>
      <use x="481.640625" xlink:href="#DejaVuSansMono-32"/>
      <use x="541.845703" xlink:href="#DejaVuSansMono-53"/>
      <use x="602.050781" xlink:href="#DejaVuSansMono-55"/>
      <use x="662.255859" xlink:href="#DejaVuSansMono-55"/>
     </g>
    </g>
    <g id="line2d_20">
     <path d="M 349.039688 66.499875 
L 361.039688 66.499875 
" style="fill:none;stroke:#ff7f0e;stroke-linecap:square;stroke-width:0.666667;"/>
    </g>
    <g id="line2d_21"/>
    <g id="text_20">
     <!-- "Widest":  -->
     <g transform="translate(365.839688 57.59025)scale(0.06 -0.06)">
      <defs>
       <path d="M 0 72.90625 
L 9.625 72.90625 
L 16.609375 13.71875 
L 24.90625 52.875 
L 35.203125 52.875 
L 43.609375 13.625 
L 50.59375 72.90625 
L 60.203125 72.90625 
L 49.3125 0 
L 39.984375 0 
L 30.078125 43.3125 
L 20.21875 0 
L 10.890625 0 
z
" id="DejaVuSansMono-87"/>
       <path d="M 12.5 54.6875 
L 35.5 54.6875 
L 35.5 6.984375 
L 53.328125 6.984375 
L 53.328125 0 
L 8.6875 0 
L 8.6875 6.984375 
L 26.515625 6.984375 
L 26.515625 47.703125 
L 12.5 47.703125 
z
M 26.515625 75.984375 
L 35.5 75.984375 
L 35.5 64.59375 
L 26.515625 64.59375 
z
" id="DejaVuSansMono-105"/>
       <path d="M 41.890625 47.703125 
L 41.890625 75.984375 
L 50.875 75.984375 
L 50.875 0 
L 41.890625 0 
L 41.890625 6.890625 
Q 39.65625 2.828125 35.90625 0.703125 
Q 32.171875 -1.421875 27.296875 -1.421875 
Q 17.390625 -1.421875 11.6875 6.265625 
Q 6 13.96875 6 27.484375 
Q 6 40.828125 11.71875 48.40625 
Q 17.4375 56 27.296875 56 
Q 32.234375 56 35.984375 53.875 
Q 39.75 51.765625 41.890625 47.703125 
z
M 15.484375 27.296875 
Q 15.484375 16.84375 18.796875 11.515625 
Q 22.125 6.203125 28.609375 6.203125 
Q 35.109375 6.203125 38.5 11.5625 
Q 41.890625 16.9375 41.890625 27.296875 
Q 41.890625 37.703125 38.5 43.046875 
Q 35.109375 48.390625 28.609375 48.390625 
Q 22.125 48.390625 18.796875 43.0625 
Q 15.484375 37.75 15.484375 27.296875 
z
" id="DejaVuSansMono-100"/>
      </defs>
      <use xlink:href="#DejaVuSansMono-34"/>
      <use x="60.205078" xlink:href="#DejaVuSansMono-87"/>
      <use x="120.410156" xlink:href="#DejaVuSansMono-105"/>
      <use x="180.615234" xlink:href="#DejaVuSansMono-100"/>
      <use x="240.820312" xlink:href="#DejaVuSansMono-101"/>
      <use x="301.025391" xlink:href="#DejaVuSansMono-115"/>
      <use x="361.230469" xlink:href="#DejaVuSansMono-116"/>
      <use x="421.435547" xlink:href="#DejaVuSansMono-34"/>
      <use x="481.640625" xlink:href="#DejaVuSansMono-58"/>
      <use x="541.845703" xlink:href="#DejaVuSansMono-32"/>
     </g>
     <!-- y_0    = 11200681 -->
     <g transform="translate(365.839688 64.347187)scale(0.06 -0.06)">
      <defs>
       <path d="M 30.078125 34.625 
Q 23.484375 34.625 19.890625 30.9375 
Q 16.3125 27.25 16.3125 20.515625 
Q 16.3125 13.765625 19.9375 10.03125 
Q 23.578125 6.296875 30.078125 6.296875 
Q 36.71875 6.296875 40.296875 9.984375 
Q 43.890625 13.671875 43.890625 20.515625 
Q 43.890625 27.203125 40.25 30.90625 
Q 36.625 34.625 30.078125 34.625 
z
M 21.484375 38.71875 
Q 15.1875 40.328125 11.640625 44.71875 
Q 8.109375 49.125 8.109375 55.328125 
Q 8.109375 64.015625 14.015625 69.109375 
Q 19.921875 74.21875 30.078125 74.21875 
Q 40.28125 74.21875 46.1875 69.109375 
Q 52.09375 64.015625 52.09375 55.328125 
Q 52.09375 49.125 48.546875 44.71875 
Q 45.015625 40.328125 38.71875 38.71875 
Q 46.046875 37.109375 49.921875 32.21875 
Q 53.8125 27.34375 53.8125 19.578125 
Q 53.8125 9.71875 47.515625 4.140625 
Q 41.21875 -1.421875 30.078125 -1.421875 
Q 18.953125 -1.421875 12.671875 4.125 
Q 6.390625 9.671875 6.390625 19.484375 
Q 6.390625 27.296875 10.265625 32.203125 
Q 14.15625 37.109375 21.484375 38.71875 
z
M 17.921875 54.390625 
Q 17.921875 48.53125 21.046875 45.453125 
Q 24.171875 42.390625 30.078125 42.390625 
Q 36.03125 42.390625 39.15625 45.453125 
Q 42.28125 48.53125 42.28125 54.390625 
Q 42.28125 60.359375 39.171875 63.484375 
Q 36.078125 66.609375 30.078125 66.609375 
Q 24.171875 66.609375 21.046875 63.453125 
Q 17.921875 60.296875 17.921875 54.390625 
z
" id="DejaVuSansMono-56"/>
      </defs>
      <use xlink:href="#DejaVuSansMono-121"/>
      <use x="60.205078" xlink:href="#DejaVuSansMono-95"/>
      <use x="120.410156" xlink:href="#DejaVuSansMono-48"/>
      <use x="180.615234" xlink:href="#DejaVuSansMono-32"/>
      <use x="240.820312" xlink:href="#DejaVuSansMono-32"/>
      <use x="301.025391" xlink:href="#DejaVuSansMono-32"/>
      <use x="361.230469" xlink:href="#DejaVuSansMono-32"/>
      <use x="421.435547" xlink:href="#DejaVuSansMono-61"/>
      <use x="481.640625" xlink:href="#DejaVuSansMono-32"/>
      <use x="541.845703" xlink:href="#DejaVuSansMono-49"/>
      <use x="602.050781" xlink:href="#DejaVuSansMono-49"/>
      <use x="662.255859" xlink:href="#DejaVuSansMono-50"/>
      <use x="722.460938" xlink:href="#DejaVuSansMono-48"/>
      <use x="782.666016" xlink:href="#DejaVuSansMono-48"/>
      <use x="842.871094" xlink:href="#DejaVuSansMono-54"/>
      <use x="903.076172" xlink:href="#DejaVuSansMono-56"/>
      <use x="963.28125" xlink:href="#DejaVuSansMono-49"/>
     </g>
     <!-- y_max  = 159424614880 -->
     <g transform="translate(365.839688 71.271)scale(0.06 -0.06)">
      <use xlink:href="#DejaVuSansMono-121"/>
      <use x="60.205078" xlink:href="#DejaVuSansMono-95"/>
      <use x="120.410156" xlink:href="#DejaVuSansMono-109"/>
      <use x="180.615234" xlink:href="#DejaVuSansMono-97"/>
      <use x="240.820312" xlink:href="#DejaVuSansMono-120"/>
      <use x="301.025391" xlink:href="#DejaVuSansMono-32"/>
      <use x="361.230469" xlink:href="#DejaVuSansMono-32"/>
      <use x="421.435547" xlink:href="#DejaVuSansMono-61"/>
      <use x="481.640625" xlink:href="#DejaVuSansMono-32"/>
      <use x="541.845703" xlink:href="#DejaVuSansMono-49"/>
      <use x="602.050781" xlink:href="#DejaVuSansMono-53"/>
      <use x="662.255859" xlink:href="#DejaVuSansMono-57"/>
      <use x="722.460938" xlink:href="#DejaVuSansMono-52"/>
      <use x="782.666016" xlink:href="#DejaVuSansMono-50"/>
      <use x="842.871094" xlink:href="#DejaVuSansMono-52"/>
      <use x="903.076172" xlink:href="#DejaVuSansMono-54"/>
      <use x="963.28125" xlink:href="#DejaVuSansMono-49"/>
      <use x="1023.486328" xlink:href="#DejaVuSansMono-52"/>
      <use x="1083.691406" xlink:href="#DejaVuSansMono-56"/>
      <use x="1143.896484" xlink:href="#DejaVuSansMono-56"/>
      <use x="1204.101562" xlink:href="#DejaVuSansMono-48"/>
     </g>
     <!-- x_max  = 689 -->
     <g transform="translate(365.839688 78.194812)scale(0.06 -0.06)">
      <use xlink:href="#DejaVuSansMono-120"/>
      <use x="60.205078" xlink:href="#DejaVuSansMono-95"/>
      <use x="120.410156" xlink:href="#DejaVuSansMono-109"/>
      <use x="180.615234" xlink:href="#DejaVuSansMono-97"/>
      <use x="240.820312" xlink:href="#DejaVuSansMono-120"/>
      <use x="301.025391" xlink:href="#DejaVuSansMono-32"/>
      <use x="361.230469" xlink:href="#DejaVuSansMono-32"/>
      <use x="421.435547" xlink:href="#DejaVuSansMono-61"/>
      <use x="481.640625" xlink:href="#DejaVuSansMono-32"/>
      <use x="541.845703" xlink:href="#DejaVuSansMono-54"/>
      <use x="602.050781" xlink:href="#DejaVuSansMono-56"/>
      <use x="662.255859" xlink:href="#DejaVuSansMono-57"/>
     </g>
    </g>
   </g>
  </g>
 </g>
 <defs>
  <clipPath id="p13e21dde57">
   <rect height="298.453375" width="418.46125" x="35.85875" y="17.989125"/>
  </clipPath>
 </defs>
</svg>
