<?xml version="1.0" encoding="utf-8" standalone="no"?>
<!DOCTYPE svg PUBLIC "-//W3C//DTD SVG 1.1//EN"
  "http://www.w3.org/Graphics/SVG/1.1/DTD/svg11.dtd">
<!-- Created with matplotlib (https://matplotlib.org/) -->
<svg height="345.6pt" version="1.1" viewBox="0 0 460.8 345.6" width="460.8pt" xmlns="http://www.w3.org/2000/svg" xmlns:xlink="http://www.w3.org/1999/xlink">
 <metadata>
  <rdf:RDF xmlns:cc="http://creativecommons.org/ns#" xmlns:dc="http://purl.org/dc/elements/1.1/" xmlns:rdf="http://www.w3.org/1999/02/22-rdf-syntax-ns#">
   <cc:Work>
    <dc:type rdf:resource="http://purl.org/dc/dcmitype/StillImage"/>
    <dc:date>2022-03-17T00:25:54.522876</dc:date>
    <dc:format>image/svg+xml</dc:format>
    <dc:creator>
     <cc:Agent>
      <dc:title>Matplotlib v3.3.2, https://matplotlib.org/</dc:title>
     </cc:Agent>
    </dc:creator>
   </cc:Work>
  </rdf:RDF>
 </metadata>
 <defs>
  <style type="text/css">*{stroke-linecap:butt;stroke-linejoin:round;}</style>
 </defs>
 <g id="figure_1">
  <g id="patch_1">
   <path d="M 0 345.6 
L 460.8 345.6 
L 460.8 0 
L 0 0 
z
" style="fill:#ffffff;"/>
  </g>
  <g id="axes_1">
   <g id="patch_2">
    <path d="M 35.85875 316.4425 
L 454.32 316.4425 
L 454.32 17.989125 
L 35.85875 17.989125 
z
" style="fill:#ffffff;"/>
   </g>
   <g id="matplotlib.axis_1">
    <g id="xtick_1">
     <g id="line2d_1">
      <defs>
       <path d="M 0 0 
L 0 3.5 
" id="m79db54cd67" style="stroke:#000000;stroke-width:0.8;"/>
      </defs>
      <g>
       <use style="stroke:#000000;stroke-width:0.8;" x="54.879716" xlink:href="#m79db54cd67" y="316.4425"/>
      </g>
     </g>
     <g id="text_1">
      <!-- 0 -->
      <g transform="translate(53.073622 328.033437)scale(0.06 -0.06)">
       <defs>
        <path d="M 23.578125 36.625 
Q 23.578125 39.3125 25.453125 41.265625 
Q 27.34375 43.21875 29.984375 43.21875 
Q 32.71875 43.21875 34.671875 41.265625 
Q 36.625 39.3125 36.625 36.625 
Q 36.625 33.890625 34.6875 31.984375 
Q 32.765625 30.078125 29.984375 30.078125 
Q 27.25 30.078125 25.40625 31.9375 
Q 23.578125 33.796875 23.578125 36.625 
z
M 30.078125 66.40625 
Q 23.1875 66.40625 19.796875 58.984375 
Q 16.40625 51.5625 16.40625 36.375 
Q 16.40625 21.234375 19.796875 13.8125 
Q 23.1875 6.390625 30.078125 6.390625 
Q 37.015625 6.390625 40.40625 13.8125 
Q 43.796875 21.234375 43.796875 36.375 
Q 43.796875 51.5625 40.40625 58.984375 
Q 37.015625 66.40625 30.078125 66.40625 
z
M 30.078125 74.21875 
Q 41.75 74.21875 47.734375 64.640625 
Q 53.71875 55.078125 53.71875 36.375 
Q 53.71875 17.71875 47.734375 8.140625 
Q 41.75 -1.421875 30.078125 -1.421875 
Q 18.40625 -1.421875 12.453125 8.140625 
Q 6.5 17.71875 6.5 36.375 
Q 6.5 55.078125 12.453125 64.640625 
Q 18.40625 74.21875 30.078125 74.21875 
z
" id="DejaVuSansMono-48"/>
       </defs>
       <use xlink:href="#DejaVuSansMono-48"/>
      </g>
     </g>
    </g>
    <g id="xtick_2">
     <g id="line2d_2">
      <g>
       <use style="stroke:#000000;stroke-width:0.8;" x="127.478822" xlink:href="#m79db54cd67" y="316.4425"/>
      </g>
     </g>
     <g id="text_2">
      <!-- 100 -->
      <g transform="translate(122.060541 328.033437)scale(0.06 -0.06)">
       <defs>
        <path d="M 13.1875 8.296875 
L 28.515625 8.296875 
L 28.515625 64.015625 
L 12.015625 60.296875 
L 12.015625 69.28125 
L 28.421875 72.90625 
L 38.28125 72.90625 
L 38.28125 8.296875 
L 53.421875 8.296875 
L 53.421875 0 
L 13.1875 0 
z
" id="DejaVuSansMono-49"/>
       </defs>
       <use xlink:href="#DejaVuSansMono-49"/>
       <use x="60.205078" xlink:href="#DejaVuSansMono-48"/>
       <use x="120.410156" xlink:href="#DejaVuSansMono-48"/>
      </g>
     </g>
    </g>
    <g id="xtick_3">
     <g id="line2d_3">
      <g>
       <use style="stroke:#000000;stroke-width:0.8;" x="200.077929" xlink:href="#m79db54cd67" y="316.4425"/>
      </g>
     </g>
     <g id="text_3">
      <!-- 200 -->
      <g transform="translate(194.659648 328.033437)scale(0.06 -0.06)">
       <defs>
        <path d="M 18.21875 8.296875 
L 51.703125 8.296875 
L 51.703125 0 
L 7.421875 0 
L 7.421875 8.296875 
Q 16.546875 17.921875 23.375 25.296875 
Q 30.21875 32.671875 32.8125 35.6875 
Q 37.703125 41.65625 39.40625 45.34375 
Q 41.109375 49.03125 41.109375 52.875 
Q 41.109375 58.984375 37.515625 62.453125 
Q 33.9375 65.921875 27.6875 65.921875 
Q 23.25 65.921875 18.359375 64.3125 
Q 13.484375 62.703125 8.015625 59.421875 
L 8.015625 69.390625 
Q 13.03125 71.78125 17.890625 73 
Q 22.75 74.21875 27.484375 74.21875 
Q 38.1875 74.21875 44.703125 68.53125 
Q 51.21875 62.84375 51.21875 53.609375 
Q 51.21875 48.921875 49.046875 44.234375 
Q 46.875 39.546875 42 33.890625 
Q 39.265625 30.71875 34.0625 25.09375 
Q 28.859375 19.484375 18.21875 8.296875 
z
" id="DejaVuSansMono-50"/>
       </defs>
       <use xlink:href="#DejaVuSansMono-50"/>
       <use x="60.205078" xlink:href="#DejaVuSansMono-48"/>
       <use x="120.410156" xlink:href="#DejaVuSansMono-48"/>
      </g>
     </g>
    </g>
    <g id="xtick_4">
     <g id="line2d_4">
      <g>
       <use style="stroke:#000000;stroke-width:0.8;" x="272.677035" xlink:href="#m79db54cd67" y="316.4425"/>
      </g>
     </g>
     <g id="text_4">
      <!-- 300 -->
      <g transform="translate(267.258754 328.033437)scale(0.06 -0.06)">
       <defs>
        <path d="M 37.890625 39.015625 
Q 45.0625 37.109375 48.875 32.25 
Q 52.6875 27.390625 52.6875 20.125 
Q 52.6875 10.0625 45.921875 4.3125 
Q 39.15625 -1.421875 27.203125 -1.421875 
Q 22.171875 -1.421875 16.9375 -0.484375 
Q 11.71875 0.4375 6.6875 2.203125 
L 6.6875 12.015625 
Q 11.671875 9.421875 16.5 8.15625 
Q 21.34375 6.890625 26.125 6.890625 
Q 34.234375 6.890625 38.578125 10.546875 
Q 42.921875 14.203125 42.921875 21.09375 
Q 42.921875 27.4375 38.578125 31.171875 
Q 34.234375 34.90625 26.8125 34.90625 
L 19.28125 34.90625 
L 19.28125 43.015625 
L 26.8125 43.015625 
Q 33.59375 43.015625 37.40625 45.984375 
Q 41.21875 48.96875 41.21875 54.296875 
Q 41.21875 59.90625 37.671875 62.90625 
Q 34.125 65.921875 27.59375 65.921875 
Q 23.25 65.921875 18.609375 64.9375 
Q 13.96875 63.96875 8.890625 62.015625 
L 8.890625 71.09375 
Q 14.796875 72.65625 19.40625 73.4375 
Q 24.03125 74.21875 27.59375 74.21875 
Q 38.234375 74.21875 44.609375 68.875 
Q 50.984375 63.53125 50.984375 54.6875 
Q 50.984375 48.6875 47.625 44.671875 
Q 44.28125 40.671875 37.890625 39.015625 
z
" id="DejaVuSansMono-51"/>
       </defs>
       <use xlink:href="#DejaVuSansMono-51"/>
       <use x="60.205078" xlink:href="#DejaVuSansMono-48"/>
       <use x="120.410156" xlink:href="#DejaVuSansMono-48"/>
      </g>
     </g>
    </g>
    <g id="xtick_5">
     <g id="line2d_5">
      <g>
       <use style="stroke:#000000;stroke-width:0.8;" x="345.276142" xlink:href="#m79db54cd67" y="316.4425"/>
      </g>
     </g>
     <g id="text_5">
      <!-- 400 -->
      <g transform="translate(339.857861 328.033437)scale(0.06 -0.06)">
       <defs>
        <path d="M 35.890625 63.921875 
L 12.890625 25.390625 
L 35.890625 25.390625 
z
M 34.28125 72.90625 
L 45.703125 72.90625 
L 45.703125 25.390625 
L 55.421875 25.390625 
L 55.421875 17.390625 
L 45.703125 17.390625 
L 45.703125 0 
L 35.890625 0 
L 35.890625 17.390625 
L 4.984375 17.390625 
L 4.984375 26.703125 
z
" id="DejaVuSansMono-52"/>
       </defs>
       <use xlink:href="#DejaVuSansMono-52"/>
       <use x="60.205078" xlink:href="#DejaVuSansMono-48"/>
       <use x="120.410156" xlink:href="#DejaVuSansMono-48"/>
      </g>
     </g>
    </g>
    <g id="xtick_6">
     <g id="line2d_6">
      <g>
       <use style="stroke:#000000;stroke-width:0.8;" x="417.875249" xlink:href="#m79db54cd67" y="316.4425"/>
      </g>
     </g>
     <g id="text_6">
      <!-- 500 -->
      <g transform="translate(412.456967 328.033437)scale(0.06 -0.06)">
       <defs>
        <path d="M 10.109375 72.90625 
L 47.015625 72.90625 
L 47.015625 64.59375 
L 19.09375 64.59375 
L 19.09375 46.6875 
Q 21.1875 47.46875 23.3125 47.828125 
Q 25.4375 48.1875 27.59375 48.1875 
Q 38.921875 48.1875 45.5625 41.5 
Q 52.203125 34.8125 52.203125 23.390625 
Q 52.203125 11.859375 45.234375 5.21875 
Q 38.28125 -1.421875 26.21875 -1.421875 
Q 20.40625 -1.421875 15.59375 -0.640625 
Q 10.796875 0.140625 6.984375 1.703125 
L 6.984375 11.71875 
Q 11.46875 9.28125 16.015625 8.078125 
Q 20.5625 6.890625 25.296875 6.890625 
Q 33.453125 6.890625 37.859375 11.1875 
Q 42.28125 15.484375 42.28125 23.390625 
Q 42.28125 31.203125 37.71875 35.546875 
Q 33.15625 39.890625 25 39.890625 
Q 21.046875 39.890625 17.28125 38.984375 
Q 13.53125 38.09375 10.109375 36.28125 
z
" id="DejaVuSansMono-53"/>
       </defs>
       <use xlink:href="#DejaVuSansMono-53"/>
       <use x="60.205078" xlink:href="#DejaVuSansMono-48"/>
       <use x="120.410156" xlink:href="#DejaVuSansMono-48"/>
      </g>
     </g>
    </g>
    <g id="text_7">
     <!-- n -->
     <g transform="translate(243.283281 337.872187)scale(0.06 -0.06)">
      <defs>
       <path d="M 51.3125 33.890625 
L 51.3125 0 
L 42.28125 0 
L 42.28125 33.890625 
Q 42.28125 41.265625 39.6875 44.71875 
Q 37.109375 48.1875 31.59375 48.1875 
Q 25.296875 48.1875 21.890625 43.71875 
Q 18.5 39.265625 18.5 30.90625 
L 18.5 0 
L 9.515625 0 
L 9.515625 54.6875 
L 18.5 54.6875 
L 18.5 46.484375 
Q 20.90625 51.171875 25 53.578125 
Q 29.109375 56 34.71875 56 
Q 43.0625 56 47.1875 50.5 
Q 51.3125 45.015625 51.3125 33.890625 
z
" id="DejaVuSansMono-110"/>
      </defs>
      <use xlink:href="#DejaVuSansMono-110"/>
     </g>
    </g>
   </g>
   <g id="matplotlib.axis_2">
    <g id="ytick_1">
     <g id="line2d_7">
      <defs>
       <path d="M 0 0 
L -3.5 0 
" id="me4898f8500" style="stroke:#000000;stroke-width:0.8;"/>
      </defs>
      <g>
       <use style="stroke:#000000;stroke-width:0.8;" x="35.85875" xlink:href="#me4898f8500" y="278.110443"/>
      </g>
     </g>
     <g id="text_8">
      <!-- $\mathdefault{10^{1}}$ -->
      <g transform="translate(18.83875 280.405912)scale(0.06 -0.06)">
       <use transform="translate(0 0.684375)" xlink:href="#DejaVuSansMono-49"/>
       <use transform="translate(60.205078 0.684375)" xlink:href="#DejaVuSansMono-48"/>
       <use transform="translate(121.367188 38.965625)scale(0.7)" xlink:href="#DejaVuSansMono-49"/>
      </g>
     </g>
    </g>
    <g id="ytick_2">
     <g id="line2d_8">
      <g>
       <use style="stroke:#000000;stroke-width:0.8;" x="35.85875" xlink:href="#me4898f8500" y="228.578455"/>
      </g>
     </g>
     <g id="text_9">
      <!-- $\mathdefault{10^{3}}$ -->
      <g transform="translate(18.83875 230.873924)scale(0.06 -0.06)">
       <use transform="translate(0 0.765625)" xlink:href="#DejaVuSansMono-49"/>
       <use transform="translate(60.205078 0.765625)" xlink:href="#DejaVuSansMono-48"/>
       <use transform="translate(121.367188 39.046875)scale(0.7)" xlink:href="#DejaVuSansMono-51"/>
      </g>
     </g>
    </g>
    <g id="ytick_3">
     <g id="line2d_9">
      <g>
       <use style="stroke:#000000;stroke-width:0.8;" x="35.85875" xlink:href="#me4898f8500" y="179.046466"/>
      </g>
     </g>
     <g id="text_10">
      <!-- $\mathdefault{10^{5}}$ -->
      <g transform="translate(18.83875 181.341935)scale(0.06 -0.06)">
       <use transform="translate(0 0.684375)" xlink:href="#DejaVuSansMono-49"/>
       <use transform="translate(60.205078 0.684375)" xlink:href="#DejaVuSansMono-48"/>
       <use transform="translate(121.367188 38.965625)scale(0.7)" xlink:href="#DejaVuSansMono-53"/>
      </g>
     </g>
    </g>
    <g id="ytick_4">
     <g id="line2d_10">
      <g>
       <use style="stroke:#000000;stroke-width:0.8;" x="35.85875" xlink:href="#me4898f8500" y="129.514478"/>
      </g>
     </g>
     <g id="text_11">
      <!-- $\mathdefault{10^{7}}$ -->
      <g transform="translate(18.83875 131.809947)scale(0.06 -0.06)">
       <defs>
        <path d="M 6.78125 72.90625 
L 52.6875 72.90625 
L 52.6875 68.703125 
L 26.609375 0 
L 16.3125 0 
L 41.703125 64.59375 
L 6.78125 64.59375 
z
" id="DejaVuSansMono-55"/>
       </defs>
       <use transform="translate(0 0.684375)" xlink:href="#DejaVuSansMono-49"/>
       <use transform="translate(60.205078 0.684375)" xlink:href="#DejaVuSansMono-48"/>
       <use transform="translate(121.367188 38.965625)scale(0.7)" xlink:href="#DejaVuSansMono-55"/>
      </g>
     </g>
    </g>
    <g id="ytick_5">
     <g id="line2d_11">
      <g>
       <use style="stroke:#000000;stroke-width:0.8;" x="35.85875" xlink:href="#me4898f8500" y="79.982489"/>
      </g>
     </g>
     <g id="text_12">
      <!-- $\mathdefault{10^{9}}$ -->
      <g transform="translate(18.83875 82.277958)scale(0.06 -0.06)">
       <defs>
        <path d="M 29.109375 32.328125 
Q 35.40625 32.328125 38.984375 36.859375 
Q 42.578125 41.40625 42.578125 49.421875 
Q 42.578125 57.421875 38.984375 61.953125 
Q 35.40625 66.5 29.109375 66.5 
Q 22.5625 66.5 19.234375 62.171875 
Q 15.921875 57.859375 15.921875 49.421875 
Q 15.921875 40.921875 19.21875 36.625 
Q 22.515625 32.328125 29.109375 32.328125 
z
M 11.53125 1.515625 
L 11.53125 10.59375 
Q 14.59375 8.796875 18.0625 7.84375 
Q 21.53125 6.890625 25.296875 6.890625 
Q 34.671875 6.890625 39.46875 13.9375 
Q 44.28125 21 44.28125 34.71875 
Q 42 29.828125 37.84375 27.21875 
Q 33.6875 24.609375 28.328125 24.609375 
Q 17.78125 24.609375 11.984375 31.09375 
Q 6.203125 37.59375 6.203125 49.515625 
Q 6.203125 61.28125 12.125 67.75 
Q 18.0625 74.21875 28.90625 74.21875 
Q 41.609375 74.21875 47.515625 65.078125 
Q 53.421875 55.953125 53.421875 36.375 
Q 53.421875 17.96875 46.3125 8.265625 
Q 39.203125 -1.421875 25.6875 -1.421875 
Q 22.125 -1.421875 18.5 -0.65625 
Q 14.890625 0.09375 11.53125 1.515625 
z
" id="DejaVuSansMono-57"/>
       </defs>
       <use transform="translate(0 0.765625)" xlink:href="#DejaVuSansMono-49"/>
       <use transform="translate(60.205078 0.765625)" xlink:href="#DejaVuSansMono-48"/>
       <use transform="translate(121.367188 39.046875)scale(0.7)" xlink:href="#DejaVuSansMono-57"/>
      </g>
     </g>
    </g>
    <g id="ytick_6">
     <g id="line2d_12">
      <g>
       <use style="stroke:#000000;stroke-width:0.8;" x="35.85875" xlink:href="#me4898f8500" y="30.450501"/>
      </g>
     </g>
     <g id="text_13">
      <!-- $\mathdefault{10^{11}}$ -->
      <g transform="translate(16.31875 32.74597)scale(0.06 -0.06)">
       <use transform="translate(0 0.684375)" xlink:href="#DejaVuSansMono-49"/>
       <use transform="translate(60.205078 0.684375)" xlink:href="#DejaVuSansMono-48"/>
       <use transform="translate(121.367188 38.965625)scale(0.7)" xlink:href="#DejaVuSansMono-49"/>
       <use transform="translate(163.510742 38.965625)scale(0.7)" xlink:href="#DejaVuSansMono-49"/>
      </g>
     </g>
    </g>
    <g id="text_14">
     <!-- y_n -->
     <g transform="translate(10.904063 172.634094)rotate(-90)scale(0.06 -0.06)">
      <defs>
       <path d="M 41.890625 17.578125 
Q 39.65625 11.859375 36.1875 2.546875 
Q 31.34375 -10.359375 29.6875 -13.1875 
Q 27.4375 -17 24.0625 -18.890625 
Q 20.703125 -20.796875 16.21875 -20.796875 
L 8.984375 -20.796875 
L 8.984375 -13.28125 
L 14.3125 -13.28125 
Q 18.265625 -13.28125 20.5 -10.984375 
Q 22.75 -8.6875 26.21875 0.875 
L 5.078125 54.6875 
L 14.59375 54.6875 
L 30.8125 11.921875 
L 46.78125 54.6875 
L 56.296875 54.6875 
z
" id="DejaVuSansMono-121"/>
       <path d="M 60.203125 -19.671875 
L 60.203125 -23.578125 
L 0 -23.578125 
L 0 -19.671875 
z
" id="DejaVuSansMono-95"/>
      </defs>
      <use xlink:href="#DejaVuSansMono-121"/>
      <use x="60.205078" xlink:href="#DejaVuSansMono-95"/>
      <use x="120.410156" xlink:href="#DejaVuSansMono-110"/>
     </g>
    </g>
   </g>
   <g id="line2d_13">
    <path clip-path="url(#p1ace47307f)" d="M 54.879716 153.833512 
L 55.605707 142.017127 
L 56.331698 149.472434 
L 57.057689 137.656049 
L 57.78368 145.111356 
L 58.509671 133.294973 
L 59.235662 140.75028 
L 59.961653 128.933896 
L 60.687644 136.389204 
L 61.413635 124.572821 
L 62.139627 132.028128 
L 62.865618 120.211745 
L 63.591609 127.667052 
L 64.3176 115.85067 
L 65.043591 123.305977 
L 65.769582 111.489594 
L 66.495573 118.944902 
L 67.221564 107.128519 
L 67.947555 114.583826 
L 68.673546 102.767444 
L 69.399537 110.222751 
L 70.125528 98.406369 
L 71.57751 113.316983 
L 72.303501 101.500601 
L 73.029493 108.955908 
L 73.755484 97.139526 
L 74.481475 104.594833 
L 75.207466 92.77845 
L 76.659448 107.689065 
L 77.385439 95.872682 
L 79.563412 118.238604 
L 80.289403 106.422221 
L 81.015394 113.877529 
L 81.741385 102.061146 
L 82.467376 109.516453 
L 83.193367 97.700071 
L 83.919359 105.155378 
L 84.64535 93.338996 
L 85.371341 100.794303 
L 86.097332 88.977921 
L 86.823323 96.433228 
L 87.549314 84.616846 
L 88.275305 92.072153 
L 89.001296 80.255771 
L 89.727287 87.711078 
L 90.453278 75.894695 
L 91.179269 83.350003 
L 91.90526 71.53362 
L 92.631251 78.988928 
L 93.357242 67.172545 
L 95.535216 89.538467 
L 96.261207 77.722084 
L 96.987198 85.177392 
L 97.713189 73.361009 
L 98.43918 80.816316 
L 99.165171 68.999934 
L 100.617153 83.910548 
L 101.343144 72.094166 
L 102.069135 79.549473 
L 102.795126 67.733091 
L 104.247108 82.643705 
L 104.973099 70.827323 
L 107.151073 93.193245 
L 107.877064 81.376862 
L 109.329046 96.287477 
L 110.055037 84.471094 
L 110.781028 91.926401 
L 111.507019 80.110019 
L 112.23301 87.565326 
L 112.959001 75.748944 
L 113.684992 83.204251 
L 114.410983 71.387869 
L 115.136974 78.843176 
L 115.862965 67.026794 
L 118.040939 89.392715 
L 118.76693 77.576333 
L 119.492921 85.03164 
L 120.218912 73.215258 
L 123.122876 103.036486 
L 123.848867 91.220104 
L 125.300849 106.130718 
L 126.02684 94.314336 
L 126.752831 101.769643 
L 127.478822 89.953261 
L 128.204813 97.408568 
L 128.930805 85.592186 
L 129.656796 93.047493 
L 130.382787 81.231111 
L 131.108778 88.686418 
L 131.834769 76.870036 
L 132.56076 84.325343 
L 133.286751 72.508961 
L 134.012742 79.964268 
L 134.738733 68.147885 
L 135.464724 75.603193 
L 136.190715 63.78681 
L 138.368688 86.152732 
L 139.094679 74.33635 
L 139.820671 81.791657 
L 140.546662 69.975274 
L 141.272653 77.430582 
L 141.998644 65.614199 
L 142.724635 73.069506 
L 143.450626 61.253124 
L 144.176617 68.708431 
L 144.902608 56.892049 
L 145.628599 64.347356 
L 146.35459 52.530974 
L 148.532563 74.896895 
L 149.258554 63.080513 
L 151.436528 85.446435 
L 152.162519 73.630052 
L 152.88851 81.085359 
L 153.614501 69.268977 
L 154.340492 76.724284 
L 155.066483 64.907902 
L 155.792474 72.363209 
L 156.518465 60.546827 
L 157.970447 75.457441 
L 158.696438 63.641059 
L 159.422429 71.096366 
L 160.14842 59.279984 
L 160.874411 66.735291 
L 161.600402 54.918909 
L 162.326394 62.374216 
L 163.052385 50.557834 
L 165.956349 80.379062 
L 166.68234 68.56268 
L 167.408331 76.017987 
L 168.134322 64.201605 
L 168.860313 71.656912 
L 169.586304 59.84053 
L 170.312295 67.295837 
L 171.038286 55.479455 
L 172.490268 70.390069 
L 173.21626 58.573687 
L 174.668242 73.484301 
L 175.394233 61.667919 
L 176.120224 69.123226 
L 176.846215 57.306844 
L 177.572206 64.762151 
L 178.298197 52.945768 
L 179.024188 60.401076 
L 179.750179 48.584693 
L 181.202161 63.495308 
L 181.928152 51.678925 
L 183.380134 66.58954 
L 184.106126 54.773157 
L 185.558108 69.683772 
L 186.284099 57.867389 
L 187.01009 65.322697 
L 187.736081 53.506314 
L 188.462072 60.961621 
L 189.188063 49.145239 
L 189.914054 56.600546 
L 190.640045 44.784164 
L 191.366036 52.239471 
L 192.092027 40.423089 
L 193.544009 55.333703 
L 194.27 43.517321 
L 194.995991 50.972628 
L 195.721983 39.156246 
L 196.447974 46.611553 
L 197.173965 34.795171 
L 199.351938 57.161092 
L 200.077929 45.34471 
L 200.80392 52.800017 
L 201.529911 40.983635 
L 202.255902 48.438942 
L 202.981893 36.62256 
L 203.707884 44.077867 
L 204.433875 32.261485 
L 205.885857 47.172099 
L 206.611849 35.355717 
L 208.063831 50.266331 
L 208.789822 38.449949 
L 210.967795 60.81587 
L 211.693786 48.999488 
L 212.419777 56.454795 
L 213.145768 44.638413 
L 213.871759 52.09372 
L 214.59775 40.277338 
L 215.323741 47.732645 
L 216.049732 35.916263 
L 216.775723 43.37157 
L 217.501715 31.555187 
L 221.857661 76.28703 
L 222.583652 64.470648 
L 223.309643 71.925955 
L 224.035634 60.109573 
L 224.761625 67.56488 
L 225.487616 55.748498 
L 227.665589 78.114419 
L 228.39158 66.298037 
L 229.843563 81.208651 
L 230.569554 69.392269 
L 232.747527 91.75819 
L 233.473518 79.941808 
L 234.199509 87.397115 
L 234.9255 75.580733 
L 235.651491 83.03604 
L 236.377482 71.219658 
L 237.103473 78.674965 
L 237.829464 66.858583 
L 238.555455 74.31389 
L 239.281446 62.497508 
L 240.007438 69.952815 
L 240.733429 58.136433 
L 241.45942 65.59174 
L 242.185411 53.775358 
L 245.815366 91.051893 
L 246.541357 79.235511 
L 250.171312 116.512047 
L 250.897304 104.695664 
L 258.157214 179.248736 
L 258.883205 167.432317 
L 260.335187 182.342931 
L 261.061178 170.5265 
L 261.78717 177.981807 
L 262.513161 166.165393 
L 265.417125 195.986621 
L 266.143116 184.170066 
L 268.321089 206.535987 
L 269.04708 194.719143 
L 269.773071 202.17445 
L 270.499062 190.35776 
L 272.677035 212.723682 
L 273.403027 200.906478 
L 274.129018 208.361785 
L 274.855009 196.544856 
L 275.581 204.000163 
L 276.306991 192.183416 
L 277.032982 199.638723 
L 277.758973 187.822098 
L 282.114919 232.553941 
L 282.84091 220.732371 
L 283.566901 228.187678 
L 284.292893 216.367839 
L 286.470866 238.733761 
L 287.196857 226.908166 
L 290.100821 256.729394 
L 290.826812 244.864011 
L 292.278794 259.774625 
L 293.004785 247.893253 
L 293.730776 255.348561 
L 294.456767 243.489069 
L 295.182759 250.944376 
L 295.90875 239.09935 
L 298.086723 261.465272 
L 298.812714 249.572877 
L 299.538705 257.028184 
L 300.264696 245.161423 
L 300.990687 252.616731 
L 301.716678 240.766893 
L 302.442669 248.222201 
L 303.16866 236.383573 
L 304.620642 251.294187 
L 305.346633 239.448215 
L 306.798616 254.35883 
L 307.524607 242.503121 
L 308.250598 249.958428 
L 308.976589 238.115908 
L 310.428571 253.026522 
L 311.154562 241.175388 
L 311.880553 248.630695 
L 312.606544 236.791207 
L 313.332535 244.246514 
L 314.058526 232.414756 
L 315.510508 247.32537 
L 316.236499 235.48852 
L 316.96249 242.943827 
L 317.688482 231.113822 
L 318.414473 238.569129 
L 319.140464 226.743674 
L 319.866455 234.198981 
L 320.592446 222.376554 
L 322.044428 237.287169 
L 322.770419 225.462733 
L 324.948392 247.828654 
L 325.674383 235.990825 
L 326.400374 243.446132 
L 327.126365 231.615475 
L 327.852356 239.070782 
L 328.578348 227.244894 
L 330.03033 242.155509 
L 330.756321 230.326465 
L 331.482312 237.781772 
L 332.208303 225.956958 
L 333.660285 240.867572 
L 334.386276 229.039956 
L 335.112267 236.495264 
L 335.838258 224.671399 
L 336.564249 232.126706 
L 337.29024 220.305339 
L 338.016231 227.760646 
L 338.742222 215.940941 
L 339.468213 223.396249 
L 340.194205 211.577652 
L 340.920196 219.032959 
L 341.646187 207.215101 
L 343.82416 229.581022 
L 344.550151 217.760705 
L 345.276142 225.216013 
L 346.002133 213.397008 
L 346.728124 220.852315 
L 347.454115 209.034185 
L 348.180106 216.489492 
L 348.906097 204.671945 
L 351.810062 234.493173 
L 352.536053 222.670579 
L 353.988035 237.581193 
L 354.714026 225.756534 
L 356.166008 240.667149 
L 356.891999 228.839741 
L 359.795963 258.660969 
L 360.521954 246.785972 
L 362.699928 269.151894 
L 363.425919 257.18075 
L 364.15191 264.636057 
L 364.877901 252.717724 
L 365.603892 260.173031 
L 366.329883 248.289215 
L 369.959838 285.56575 
L 370.685829 273.055209 
L 373.589794 302.876437 
L 373.589794 302.876437 
" style="fill:none;stroke:#1f77b4;stroke-linecap:square;stroke-width:0.666667;"/>
   </g>
   <g id="line2d_14">
    <path clip-path="url(#p1ace47307f)" d="M 54.879716 156.18399 
L 55.605707 144.367604 
L 56.331698 151.822911 
L 57.057689 140.006526 
L 57.78368 147.461833 
L 58.509671 135.645449 
L 59.961653 150.556063 
L 60.687644 138.739678 
L 61.413635 146.194986 
L 62.139627 134.378602 
L 63.591609 149.289216 
L 64.3176 137.472831 
L 65.043591 144.928139 
L 65.769582 133.111755 
L 66.495573 140.567062 
L 67.221564 128.750679 
L 67.947555 136.205986 
L 68.673546 124.389603 
L 70.125528 139.300217 
L 70.851519 127.483834 
L 71.57751 134.939141 
L 72.303501 123.122758 
L 73.029493 130.578065 
L 73.755484 118.761683 
L 74.481475 126.21699 
L 75.207466 114.400607 
L 75.933457 121.855915 
L 76.659448 110.039532 
L 77.385439 117.494839 
L 78.11143 105.678457 
L 78.837421 113.133764 
L 79.563412 101.317382 
L 81.015394 116.227996 
L 81.741385 104.411614 
L 82.467376 111.866921 
L 83.193367 100.050539 
L 83.919359 107.505846 
L 84.64535 95.689463 
L 85.371341 103.144771 
L 86.097332 91.328388 
L 86.823323 98.783695 
L 87.549314 86.967313 
L 88.275305 94.42262 
L 89.001296 82.606238 
L 89.727287 90.061545 
L 90.453278 78.245163 
L 91.179269 85.70047 
L 91.90526 73.884088 
L 93.357242 88.794702 
L 94.083233 76.97832 
L 94.809224 84.433627 
L 95.535216 72.617245 
L 96.261207 80.072552 
L 96.987198 68.25617 
L 102.069135 120.44332 
L 102.795126 108.626937 
L 103.521117 116.082244 
L 104.247108 104.265862 
L 106.425082 126.631783 
L 107.151073 114.815401 
L 107.877064 122.270708 
L 108.603055 110.454326 
L 109.329046 117.909633 
L 110.055037 106.09325 
L 110.781028 113.548557 
L 111.507019 101.732175 
L 112.23301 109.187482 
L 112.959001 97.3711 
L 113.684992 104.826407 
L 114.410983 93.010025 
L 115.136974 100.465332 
L 115.862965 88.64895 
L 116.588956 96.104257 
L 117.314948 84.287875 
L 119.492921 106.653796 
L 120.218912 94.837414 
L 120.944903 102.292721 
L 121.670894 90.476339 
L 122.396885 97.931646 
L 123.122876 86.115263 
L 124.574858 101.025878 
L 125.300849 89.209495 
L 126.02684 96.664803 
L 126.752831 84.84842 
L 128.204813 99.759035 
L 128.930805 87.942652 
L 129.656796 95.397959 
L 130.382787 83.581577 
L 131.834769 98.492191 
L 132.56076 86.675809 
L 133.286751 94.131116 
L 134.012742 82.314734 
L 135.464724 97.225348 
L 136.190715 85.408966 
L 136.916706 92.864273 
L 137.642697 81.047891 
L 138.368688 88.503198 
L 139.094679 76.686816 
L 139.820671 84.142123 
L 140.546662 72.325741 
L 142.724635 94.691662 
L 143.450626 82.87528 
L 146.35459 112.696508 
L 147.080581 100.880126 
L 147.806572 108.335433 
L 148.532563 96.519051 
L 149.258554 103.974358 
L 149.984545 92.157976 
L 150.710537 99.613283 
L 151.436528 87.796901 
L 152.162519 95.252208 
L 152.88851 83.435826 
L 154.340492 98.34644 
L 155.066483 86.530058 
L 157.244456 108.895979 
L 157.970447 97.079597 
L 160.874411 126.900825 
L 161.600402 115.084443 
L 163.052385 129.995057 
L 163.778376 118.178674 
L 164.504367 125.633982 
L 165.230358 113.817599 
L 165.956349 121.272906 
L 166.68234 109.456524 
L 167.408331 116.911831 
L 168.134322 105.095449 
L 171.038286 134.916677 
L 171.764277 123.100294 
L 173.21626 138.010909 
L 173.942251 126.194525 
L 176.120224 148.560447 
L 176.846215 136.744063 
L 179.024188 159.109984 
L 179.750179 147.293596 
L 180.47617 154.748903 
L 181.202161 142.932517 
L 181.928152 150.387824 
L 182.654143 138.57144 
L 183.380134 146.026747 
L 184.106126 134.210363 
L 185.558108 149.120977 
L 186.284099 137.304593 
L 187.736081 152.215207 
L 188.462072 140.398822 
L 189.914054 155.309436 
L 190.640045 143.49305 
L 191.366036 150.948357 
L 192.092027 139.131972 
L 192.818018 146.587279 
L 193.544009 134.770895 
L 194.27 142.226202 
L 194.995991 130.409819 
L 195.721983 137.865126 
L 196.447974 126.048743 
L 198.625947 148.414664 
L 199.351938 136.59828 
L 200.077929 144.053587 
L 200.80392 132.237204 
L 201.529911 139.692511 
L 202.255902 127.876128 
L 204.433875 150.242049 
L 205.159866 138.425664 
L 205.885857 145.880971 
L 206.611849 134.064588 
L 207.33784 141.519895 
L 208.063831 129.703511 
L 210.241804 152.069433 
L 210.967795 140.253048 
L 211.693786 147.708355 
L 212.419777 135.891971 
L 213.145768 143.347278 
L 213.871759 131.530894 
L 214.59775 138.986201 
L 215.323741 127.169818 
L 216.049732 134.625125 
L 216.775723 122.808743 
L 217.501715 130.26405 
L 218.227706 118.447667 
L 219.679688 133.358281 
L 220.405679 121.541899 
L 221.13167 128.997206 
L 221.857661 117.180823 
L 222.583652 124.63613 
L 223.309643 112.819748 
L 224.035634 120.275055 
L 224.761625 108.458673 
L 226.213607 123.369287 
L 226.939598 111.552904 
L 229.117572 133.918826 
L 229.843563 122.102443 
L 230.569554 129.55775 
L 231.295545 117.741368 
L 232.747527 132.651982 
L 233.473518 120.835599 
L 234.199509 128.290906 
L 234.9255 116.474524 
L 235.651491 123.929831 
L 236.377482 112.113448 
L 237.103473 119.568755 
L 237.829464 107.752373 
L 238.555455 115.20768 
L 239.281446 103.391298 
L 240.007438 110.846605 
L 240.733429 99.030223 
L 242.911402 121.396144 
L 243.637393 109.579762 
L 245.089375 124.490376 
L 245.815366 112.673994 
L 246.541357 120.129301 
L 247.267348 108.312918 
L 248.71933 123.223533 
L 249.445321 111.40715 
L 250.171312 118.862457 
L 250.897304 107.046075 
L 251.623295 114.501382 
L 252.349286 102.685 
L 253.801268 117.595614 
L 254.527259 105.779232 
L 255.979241 120.689846 
L 256.705232 108.873463 
L 257.431223 116.328771 
L 258.157214 104.512388 
L 258.883205 111.967695 
L 259.609196 100.151313 
L 260.335187 107.60662 
L 261.061178 95.790238 
L 264.691134 133.066774 
L 265.417125 121.250391 
L 266.869107 136.161005 
L 267.595098 124.344622 
L 269.04708 139.255236 
L 269.773071 127.438853 
L 270.499062 134.89416 
L 271.225053 123.077778 
L 271.951044 130.533085 
L 272.677035 118.716702 
L 274.129018 133.627316 
L 274.855009 121.810934 
L 275.581 129.266241 
L 276.306991 117.449858 
L 277.032982 124.905165 
L 277.758973 113.088783 
L 278.484964 120.54409 
L 279.210955 108.727708 
L 280.662937 123.638322 
L 281.388928 111.821939 
L 284.292893 141.643168 
L 285.018884 129.826785 
L 286.470866 144.737399 
L 287.196857 132.921015 
L 290.100821 162.742244 
L 290.826812 150.925854 
L 291.552803 158.381161 
L 292.278794 146.564773 
L 293.004785 154.02008 
L 293.730776 142.203695 
L 295.182759 157.114309 
L 295.90875 145.297922 
L 296.634741 152.753229 
L 297.360732 140.936844 
L 298.812714 155.847458 
L 299.538705 144.031072 
L 300.264696 151.486379 
L 300.990687 139.669994 
L 302.442669 154.580608 
L 303.16866 142.764222 
L 304.620642 157.674836 
L 305.346633 145.858449 
L 306.798616 160.769064 
L 307.524607 148.952675 
L 309.70258 171.318596 
L 310.428571 159.502196 
L 312.606544 181.868118 
L 313.332535 170.051689 
L 315.510508 192.41761 
L 316.236499 180.601104 
L 316.96249 188.056411 
L 317.688482 176.239946 
L 318.414473 183.695253 
L 319.140464 171.878816 
L 319.866455 179.334123 
L 320.592446 167.517704 
L 322.044428 182.428318 
L 322.770419 170.611887 
L 324.948392 192.977808 
L 325.674383 181.161295 
L 326.400374 188.616602 
L 327.126365 176.800132 
L 327.852356 184.25544 
L 328.578348 172.438999 
L 330.756321 194.804921 
L 331.482312 182.988383 
L 332.934294 197.898997 
L 333.660285 186.082408 
L 335.112267 200.993023 
L 335.838258 189.176364 
L 338.742222 218.997593 
L 339.468213 207.17974 
L 342.372178 237.000968 
L 343.098169 225.176744 
L 344.550151 240.087358 
L 345.276142 228.260528 
L 346.002133 235.715835 
L 346.728124 223.892494 
L 347.454115 231.347801 
L 348.180106 219.526781 
L 351.084071 249.34801 
L 351.810062 237.50693 
L 353.262044 252.417545 
L 353.988035 240.56832 
L 356.166008 262.934242 
L 356.891999 251.030768 
L 358.343981 265.941382 
L 359.069972 254.009964 
L 359.795963 261.465272 
L 360.521954 249.572877 
L 361.247945 257.028184 
L 361.973937 245.161423 
L 362.699928 252.616731 
L 363.425919 240.766893 
L 364.15191 248.222201 
L 364.877901 236.383573 
L 366.329883 251.294187 
L 367.055874 239.448215 
L 368.507856 254.35883 
L 369.233847 242.503121 
L 369.959838 249.958428 
L 370.685829 238.115908 
L 372.137811 253.026522 
L 372.863802 241.175388 
L 373.589794 248.630695 
L 374.315785 236.791207 
L 375.041776 244.246514 
L 375.767767 232.414756 
L 377.219749 247.32537 
L 377.94574 235.48852 
L 378.671731 242.943827 
L 379.397722 231.113822 
L 380.123713 238.569129 
L 380.849704 226.743674 
L 381.575695 234.198981 
L 382.301686 222.376554 
L 383.753668 237.287169 
L 384.47966 225.462733 
L 386.657633 247.828654 
L 387.383624 235.990825 
L 388.109615 243.446132 
L 388.835606 231.615475 
L 389.561597 239.070782 
L 390.287588 227.244894 
L 391.73957 242.155509 
L 392.465561 230.326465 
L 393.191552 237.781772 
L 393.917543 225.956958 
L 395.369526 240.867572 
L 396.095517 229.039956 
L 396.821508 236.495264 
L 397.547499 224.671399 
L 398.27349 232.126706 
L 398.999481 220.305339 
L 399.725472 227.760646 
L 400.451463 215.940941 
L 401.177454 223.396249 
L 401.903445 211.577652 
L 402.629436 219.032959 
L 403.355427 207.215101 
L 405.5334 229.581022 
L 406.259391 217.760705 
L 406.985383 225.216013 
L 407.711374 213.397008 
L 408.437365 220.852315 
L 409.163356 209.034185 
L 409.889347 216.489492 
L 410.615338 204.671945 
L 413.519302 234.493173 
L 414.245293 222.670579 
L 415.697275 237.581193 
L 416.423266 225.756534 
L 417.875249 240.667149 
L 418.60124 228.839741 
L 421.505204 258.660969 
L 422.231195 246.785972 
L 424.409168 269.151894 
L 425.135159 257.18075 
L 425.86115 264.636057 
L 426.587141 252.717724 
L 427.313132 260.173031 
L 428.039123 248.289215 
L 431.669079 285.56575 
L 432.39507 273.055209 
L 435.299034 302.876437 
L 435.299034 302.876437 
" style="fill:none;stroke:#ff7f0e;stroke-linecap:square;stroke-width:0.666667;"/>
   </g>
   <g id="patch_3">
    <path d="M 35.85875 316.4425 
L 35.85875 17.989125 
" style="fill:none;stroke:#000000;stroke-linecap:square;stroke-linejoin:miter;stroke-width:0.8;"/>
   </g>
   <g id="patch_4">
    <path d="M 454.32 316.4425 
L 454.32 17.989125 
" style="fill:none;stroke:#000000;stroke-linecap:square;stroke-linejoin:miter;stroke-width:0.8;"/>
   </g>
   <g id="patch_5">
    <path d="M 35.85875 316.4425 
L 454.32 316.4425 
" style="fill:none;stroke:#000000;stroke-linecap:square;stroke-linejoin:miter;stroke-width:0.8;"/>
   </g>
   <g id="patch_6">
    <path d="M 35.85875 17.989125 
L 454.32 17.989125 
" style="fill:none;stroke:#000000;stroke-linecap:square;stroke-linejoin:miter;stroke-width:0.8;"/>
   </g>
   <g id="text_15">
    <!-- "3y+1" problem -->
    <g transform="translate(214.747 11.989125)scale(0.072 -0.072)">
     <defs>
      <path d="M 43.703125 72.90625 
L 43.703125 45.796875 
L 35.203125 45.796875 
L 35.203125 72.90625 
z
M 25 72.90625 
L 25 45.796875 
L 16.5 45.796875 
L 16.5 72.90625 
z
" id="DejaVuSansMono-34"/>
      <path d="M 34.1875 57.171875 
L 34.1875 35.5 
L 55.90625 35.5 
L 55.90625 27.203125 
L 34.1875 27.203125 
L 34.1875 5.515625 
L 25.984375 5.515625 
L 25.984375 27.203125 
L 4.296875 27.203125 
L 4.296875 35.5 
L 25.984375 35.5 
L 25.984375 57.171875 
z
" id="DejaVuSansMono-43"/>
      <path id="DejaVuSansMono-32"/>
      <path d="M 18.3125 6.890625 
L 18.3125 -20.796875 
L 9.28125 -20.796875 
L 9.28125 54.6875 
L 18.3125 54.6875 
L 18.3125 47.703125 
Q 20.5625 51.765625 24.296875 53.875 
Q 28.03125 56 32.90625 56 
Q 42.828125 56 48.46875 48.328125 
Q 54.109375 40.671875 54.109375 27.09375 
Q 54.109375 13.765625 48.4375 6.171875 
Q 42.78125 -1.421875 32.90625 -1.421875 
Q 27.9375 -1.421875 24.1875 0.703125 
Q 20.453125 2.828125 18.3125 6.890625 
z
M 44.671875 27.296875 
Q 44.671875 37.75 41.375 43.0625 
Q 38.09375 48.390625 31.59375 48.390625 
Q 25.046875 48.390625 21.671875 43.046875 
Q 18.3125 37.703125 18.3125 27.296875 
Q 18.3125 16.9375 21.671875 11.5625 
Q 25.046875 6.203125 31.59375 6.203125 
Q 38.09375 6.203125 41.375 11.515625 
Q 44.671875 16.84375 44.671875 27.296875 
z
" id="DejaVuSansMono-112"/>
      <path d="M 56.390625 43.40625 
Q 53.515625 45.65625 50.53125 46.671875 
Q 47.5625 47.703125 44 47.703125 
Q 35.59375 47.703125 31.140625 42.421875 
Q 26.703125 37.15625 26.703125 27.203125 
L 26.703125 0 
L 17.671875 0 
L 17.671875 54.6875 
L 26.703125 54.6875 
L 26.703125 44 
Q 28.953125 49.8125 33.609375 52.90625 
Q 38.28125 56 44.671875 56 
Q 48 56 50.875 55.171875 
Q 53.765625 54.34375 56.390625 52.59375 
z
" id="DejaVuSansMono-114"/>
      <path d="M 30.078125 48.390625 
Q 23.25 48.390625 19.734375 43.0625 
Q 16.21875 37.75 16.21875 27.296875 
Q 16.21875 16.890625 19.734375 11.546875 
Q 23.25 6.203125 30.078125 6.203125 
Q 36.96875 6.203125 40.484375 11.546875 
Q 44 16.890625 44 27.296875 
Q 44 37.75 40.484375 43.0625 
Q 36.96875 48.390625 30.078125 48.390625 
z
M 30.078125 56 
Q 41.453125 56 47.484375 48.625 
Q 53.515625 41.265625 53.515625 27.296875 
Q 53.515625 13.28125 47.5 5.921875 
Q 41.5 -1.421875 30.078125 -1.421875 
Q 18.703125 -1.421875 12.6875 5.921875 
Q 6.6875 13.28125 6.6875 27.296875 
Q 6.6875 41.265625 12.6875 48.625 
Q 18.703125 56 30.078125 56 
z
" id="DejaVuSansMono-111"/>
      <path d="M 44.828125 27.296875 
Q 44.828125 37.75 41.5 43.0625 
Q 38.1875 48.390625 31.6875 48.390625 
Q 25.140625 48.390625 21.765625 43.046875 
Q 18.40625 37.703125 18.40625 27.296875 
Q 18.40625 16.9375 21.765625 11.5625 
Q 25.140625 6.203125 31.6875 6.203125 
Q 38.1875 6.203125 41.5 11.515625 
Q 44.828125 16.84375 44.828125 27.296875 
z
M 18.40625 47.703125 
Q 20.5625 51.703125 24.34375 53.84375 
Q 28.125 56 33.109375 56 
Q 42.96875 56 48.625 48.40625 
Q 54.296875 40.828125 54.296875 27.484375 
Q 54.296875 13.96875 48.609375 6.265625 
Q 42.921875 -1.421875 33.015625 -1.421875 
Q 28.125 -1.421875 24.390625 0.703125 
Q 20.65625 2.828125 18.40625 6.890625 
L 18.40625 0 
L 9.421875 0 
L 9.421875 75.984375 
L 18.40625 75.984375 
z
" id="DejaVuSansMono-98"/>
      <path d="M 31.203125 19.828125 
Q 31.203125 13.765625 33.421875 10.6875 
Q 35.640625 7.625 39.984375 7.625 
L 50.484375 7.625 
L 50.484375 0 
L 39.109375 0 
Q 31.0625 0 26.640625 5.171875 
Q 22.21875 10.359375 22.21875 19.828125 
L 22.21875 69.484375 
L 7.8125 69.484375 
L 7.8125 76.515625 
L 31.203125 76.515625 
z
" id="DejaVuSansMono-108"/>
      <path d="M 54.296875 29.59375 
L 54.296875 25.203125 
L 15.375 25.203125 
L 15.375 24.90625 
Q 15.375 15.96875 20.03125 11.078125 
Q 24.703125 6.203125 33.203125 6.203125 
Q 37.5 6.203125 42.1875 7.5625 
Q 46.875 8.9375 52.203125 11.71875 
L 52.203125 2.78125 
Q 47.078125 0.6875 42.3125 -0.359375 
Q 37.546875 -1.421875 33.109375 -1.421875 
Q 20.359375 -1.421875 13.171875 6.21875 
Q 6 13.875 6 27.296875 
Q 6 40.375 13.03125 48.1875 
Q 20.0625 56 31.78125 56 
Q 42.234375 56 48.265625 48.921875 
Q 54.296875 41.84375 54.296875 29.59375 
z
M 45.3125 32.234375 
Q 45.125 40.140625 41.578125 44.265625 
Q 38.03125 48.390625 31.390625 48.390625 
Q 24.90625 48.390625 20.703125 44.09375 
Q 16.5 39.796875 15.71875 32.171875 
z
" id="DejaVuSansMono-101"/>
      <path d="M 33.015625 49.125 
Q 34.671875 52.640625 37.234375 54.3125 
Q 39.796875 56 43.40625 56 
Q 50 56 52.703125 50.890625 
Q 55.421875 45.796875 55.421875 31.6875 
L 55.421875 0 
L 47.21875 0 
L 47.21875 31.296875 
Q 47.21875 42.875 45.921875 45.671875 
Q 44.625 48.484375 41.21875 48.484375 
Q 37.3125 48.484375 35.859375 45.484375 
Q 34.421875 42.484375 34.421875 31.296875 
L 34.421875 0 
L 26.21875 0 
L 26.21875 31.296875 
Q 26.21875 43.015625 24.828125 45.75 
Q 23.4375 48.484375 19.828125 48.484375 
Q 16.265625 48.484375 14.875 45.484375 
Q 13.484375 42.484375 13.484375 31.296875 
L 13.484375 0 
L 5.328125 0 
L 5.328125 54.6875 
L 13.484375 54.6875 
L 13.484375 50 
Q 15.09375 52.9375 17.5 54.46875 
Q 19.921875 56 23 56 
Q 26.703125 56 29.171875 54.296875 
Q 31.640625 52.59375 33.015625 49.125 
z
" id="DejaVuSansMono-109"/>
     </defs>
     <use xlink:href="#DejaVuSansMono-34"/>
     <use x="60.205078" xlink:href="#DejaVuSansMono-51"/>
     <use x="120.410156" xlink:href="#DejaVuSansMono-121"/>
     <use x="180.615234" xlink:href="#DejaVuSansMono-43"/>
     <use x="240.820312" xlink:href="#DejaVuSansMono-49"/>
     <use x="301.025391" xlink:href="#DejaVuSansMono-34"/>
     <use x="361.230469" xlink:href="#DejaVuSansMono-32"/>
     <use x="421.435547" xlink:href="#DejaVuSansMono-112"/>
     <use x="481.640625" xlink:href="#DejaVuSansMono-114"/>
     <use x="541.845703" xlink:href="#DejaVuSansMono-111"/>
     <use x="602.050781" xlink:href="#DejaVuSansMono-98"/>
     <use x="662.255859" xlink:href="#DejaVuSansMono-108"/>
     <use x="722.460938" xlink:href="#DejaVuSansMono-101"/>
     <use x="782.666016" xlink:href="#DejaVuSansMono-109"/>
    </g>
   </g>
   <g id="legend_1">
    <g id="patch_7">
     <path d="M 358.67625 82.0095 
L 450.12 82.0095 
Q 451.32 82.0095 451.32 80.8095 
L 451.32 22.189125 
Q 451.32 20.989125 450.12 20.989125 
L 358.67625 20.989125 
Q 357.47625 20.989125 357.47625 22.189125 
L 357.47625 80.8095 
Q 357.47625 82.0095 358.67625 82.0095 
z
" style="fill:#ffffff;opacity:0.8;stroke:#cccccc;stroke-linejoin:miter;"/>
    </g>
    <g id="line2d_15">
     <path d="M 359.87625 36.889687 
L 371.87625 36.889687 
" style="fill:none;stroke:#1f77b4;stroke-linecap:square;stroke-width:0.666667;"/>
    </g>
    <g id="line2d_16"/>
    <g id="text_16">
     <!-- "Tallest": -->
     <g transform="translate(376.67625 27.980062)scale(0.06 -0.06)">
      <defs>
       <path d="M 2.296875 72.90625 
L 57.90625 72.90625 
L 57.90625 64.59375 
L 35.109375 64.59375 
L 35.109375 0 
L 25.203125 0 
L 25.203125 64.59375 
L 2.296875 64.59375 
z
" id="DejaVuSansMono-84"/>
       <path d="M 34.28125 27.484375 
L 31.296875 27.484375 
Q 23.4375 27.484375 19.453125 24.71875 
Q 15.484375 21.96875 15.484375 16.5 
Q 15.484375 11.578125 18.453125 8.84375 
Q 21.4375 6.109375 26.703125 6.109375 
Q 34.125 6.109375 38.375 11.25 
Q 42.625 16.40625 42.671875 25.484375 
L 42.671875 27.484375 
z
M 51.703125 31.203125 
L 51.703125 0 
L 42.671875 0 
L 42.671875 8.109375 
Q 39.796875 3.21875 35.421875 0.890625 
Q 31.0625 -1.421875 24.8125 -1.421875 
Q 16.453125 -1.421875 11.46875 3.296875 
Q 6.5 8.015625 6.5 15.921875 
Q 6.5 25.046875 12.625 29.78125 
Q 18.75 34.515625 30.609375 34.515625 
L 42.671875 34.515625 
L 42.671875 35.9375 
Q 42.625 42.484375 39.34375 45.4375 
Q 36.078125 48.390625 28.90625 48.390625 
Q 24.3125 48.390625 19.625 47.0625 
Q 14.9375 45.75 10.5 43.21875 
L 10.5 52.203125 
Q 15.484375 54.109375 20.046875 55.046875 
Q 24.609375 56 28.90625 56 
Q 35.6875 56 40.5 54 
Q 45.3125 52 48.296875 48 
Q 50.140625 45.5625 50.921875 41.96875 
Q 51.703125 38.375 51.703125 31.203125 
z
" id="DejaVuSansMono-97"/>
       <path d="M 47.515625 52.78125 
L 47.515625 44 
Q 43.65625 46.234375 39.75 47.359375 
Q 35.84375 48.484375 31.78125 48.484375 
Q 25.6875 48.484375 22.671875 46.5 
Q 19.671875 44.53125 19.671875 40.484375 
Q 19.671875 36.8125 21.921875 35 
Q 24.171875 33.203125 33.109375 31.5 
L 36.71875 30.8125 
Q 43.40625 29.546875 46.84375 25.734375 
Q 50.296875 21.921875 50.296875 15.828125 
Q 50.296875 7.71875 44.53125 3.140625 
Q 38.765625 -1.421875 28.515625 -1.421875 
Q 24.46875 -1.421875 20.015625 -0.5625 
Q 15.578125 0.296875 10.40625 2 
L 10.40625 11.28125 
Q 15.4375 8.6875 20.015625 7.390625 
Q 24.609375 6.109375 28.71875 6.109375 
Q 34.671875 6.109375 37.9375 8.515625 
Q 41.21875 10.9375 41.21875 15.28125 
Q 41.21875 21.53125 29.25 23.921875 
L 28.859375 24.03125 
L 25.484375 24.703125 
Q 17.71875 26.21875 14.15625 29.8125 
Q 10.59375 33.40625 10.59375 39.59375 
Q 10.59375 47.46875 15.90625 51.734375 
Q 21.234375 56 31.109375 56 
Q 35.5 56 39.546875 55.1875 
Q 43.609375 54.390625 47.515625 52.78125 
z
" id="DejaVuSansMono-115"/>
       <path d="M 29.984375 70.21875 
L 29.984375 54.6875 
L 50.390625 54.6875 
L 50.390625 47.703125 
L 29.984375 47.703125 
L 29.984375 18.015625 
Q 29.984375 11.96875 32.28125 9.5625 
Q 34.578125 7.171875 40.28125 7.171875 
L 50.390625 7.171875 
L 50.390625 0 
L 39.40625 0 
Q 29.296875 0 25.140625 4.046875 
Q 21 8.109375 21 18.015625 
L 21 47.703125 
L 6.390625 47.703125 
L 6.390625 54.6875 
L 21 54.6875 
L 21 70.21875 
z
" id="DejaVuSansMono-116"/>
       <path d="M 23.875 51.90625 
L 36.1875 51.90625 
L 36.1875 37.109375 
L 23.875 37.109375 
z
M 23.875 14.890625 
L 36.1875 14.890625 
L 36.1875 0 
L 23.875 0 
z
" id="DejaVuSansMono-58"/>
      </defs>
      <use xlink:href="#DejaVuSansMono-34"/>
      <use x="60.205078" xlink:href="#DejaVuSansMono-84"/>
      <use x="120.410156" xlink:href="#DejaVuSansMono-97"/>
      <use x="180.615234" xlink:href="#DejaVuSansMono-108"/>
      <use x="240.820312" xlink:href="#DejaVuSansMono-108"/>
      <use x="301.025391" xlink:href="#DejaVuSansMono-101"/>
      <use x="361.230469" xlink:href="#DejaVuSansMono-115"/>
      <use x="421.435547" xlink:href="#DejaVuSansMono-116"/>
      <use x="481.640625" xlink:href="#DejaVuSansMono-34"/>
      <use x="541.845703" xlink:href="#DejaVuSansMono-58"/>
     </g>
     <!-- y_0    = 1042431 -->
     <g transform="translate(376.67625 34.737)scale(0.06 -0.06)">
      <defs>
       <path d="M 4.296875 25.59375 
L 55.90625 25.59375 
L 55.90625 17.1875 
L 4.296875 17.1875 
z
M 4.296875 45.40625 
L 55.90625 45.40625 
L 55.90625 37.109375 
L 4.296875 37.109375 
z
" id="DejaVuSansMono-61"/>
      </defs>
      <use xlink:href="#DejaVuSansMono-121"/>
      <use x="60.205078" xlink:href="#DejaVuSansMono-95"/>
      <use x="120.410156" xlink:href="#DejaVuSansMono-48"/>
      <use x="180.615234" xlink:href="#DejaVuSansMono-32"/>
      <use x="240.820312" xlink:href="#DejaVuSansMono-32"/>
      <use x="301.025391" xlink:href="#DejaVuSansMono-32"/>
      <use x="361.230469" xlink:href="#DejaVuSansMono-32"/>
      <use x="421.435547" xlink:href="#DejaVuSansMono-61"/>
      <use x="481.640625" xlink:href="#DejaVuSansMono-32"/>
      <use x="541.845703" xlink:href="#DejaVuSansMono-49"/>
      <use x="602.050781" xlink:href="#DejaVuSansMono-48"/>
      <use x="662.255859" xlink:href="#DejaVuSansMono-52"/>
      <use x="722.460938" xlink:href="#DejaVuSansMono-50"/>
      <use x="782.666016" xlink:href="#DejaVuSansMono-52"/>
      <use x="842.871094" xlink:href="#DejaVuSansMono-51"/>
      <use x="903.076172" xlink:href="#DejaVuSansMono-49"/>
     </g>
     <!-- y_max  = 90239155648 -->
     <g transform="translate(376.67625 41.660812)scale(0.06 -0.06)">
      <defs>
       <path d="M 54.59375 54.6875 
L 35.015625 28.515625 
L 56.5 0 
L 46.09375 0 
L 30.078125 21.921875 
L 14.109375 0 
L 3.71875 0 
L 25.203125 28.515625 
L 5.609375 54.6875 
L 15.578125 54.6875 
L 30.078125 34.90625 
L 44.484375 54.6875 
z
" id="DejaVuSansMono-120"/>
       <path d="M 48.390625 71.296875 
L 48.390625 62.203125 
Q 45.3125 64.015625 41.84375 64.96875 
Q 38.375 65.921875 34.625 65.921875 
Q 25.25 65.921875 20.40625 58.859375 
Q 15.578125 51.8125 15.578125 38.09375 
Q 17.921875 42.96875 22.0625 45.578125 
Q 26.21875 48.1875 31.59375 48.1875 
Q 42.140625 48.1875 47.921875 41.71875 
Q 53.71875 35.25 53.71875 23.390625 
Q 53.71875 11.578125 47.75 5.078125 
Q 41.796875 -1.421875 31 -1.421875 
Q 18.3125 -1.421875 12.40625 7.6875 
Q 6.5 16.796875 6.5 36.375 
Q 6.5 54.828125 13.59375 64.515625 
Q 20.703125 74.21875 34.1875 74.21875 
Q 37.796875 74.21875 41.40625 73.453125 
Q 45.015625 72.703125 48.390625 71.296875 
z
M 30.8125 40.484375 
Q 24.515625 40.484375 20.890625 35.9375 
Q 17.28125 31.390625 17.28125 23.390625 
Q 17.28125 15.375 20.890625 10.828125 
Q 24.515625 6.296875 30.8125 6.296875 
Q 37.359375 6.296875 40.671875 10.609375 
Q 44 14.9375 44 23.390625 
Q 44 31.890625 40.671875 36.1875 
Q 37.359375 40.484375 30.8125 40.484375 
z
" id="DejaVuSansMono-54"/>
       <path d="M 30.078125 34.625 
Q 23.484375 34.625 19.890625 30.9375 
Q 16.3125 27.25 16.3125 20.515625 
Q 16.3125 13.765625 19.9375 10.03125 
Q 23.578125 6.296875 30.078125 6.296875 
Q 36.71875 6.296875 40.296875 9.984375 
Q 43.890625 13.671875 43.890625 20.515625 
Q 43.890625 27.203125 40.25 30.90625 
Q 36.625 34.625 30.078125 34.625 
z
M 21.484375 38.71875 
Q 15.1875 40.328125 11.640625 44.71875 
Q 8.109375 49.125 8.109375 55.328125 
Q 8.109375 64.015625 14.015625 69.109375 
Q 19.921875 74.21875 30.078125 74.21875 
Q 40.28125 74.21875 46.1875 69.109375 
Q 52.09375 64.015625 52.09375 55.328125 
Q 52.09375 49.125 48.546875 44.71875 
Q 45.015625 40.328125 38.71875 38.71875 
Q 46.046875 37.109375 49.921875 32.21875 
Q 53.8125 27.34375 53.8125 19.578125 
Q 53.8125 9.71875 47.515625 4.140625 
Q 41.21875 -1.421875 30.078125 -1.421875 
Q 18.953125 -1.421875 12.671875 4.125 
Q 6.390625 9.671875 6.390625 19.484375 
Q 6.390625 27.296875 10.265625 32.203125 
Q 14.15625 37.109375 21.484375 38.71875 
z
M 17.921875 54.390625 
Q 17.921875 48.53125 21.046875 45.453125 
Q 24.171875 42.390625 30.078125 42.390625 
Q 36.03125 42.390625 39.15625 45.453125 
Q 42.28125 48.53125 42.28125 54.390625 
Q 42.28125 60.359375 39.171875 63.484375 
Q 36.078125 66.609375 30.078125 66.609375 
Q 24.171875 66.609375 21.046875 63.453125 
Q 17.921875 60.296875 17.921875 54.390625 
z
" id="DejaVuSansMono-56"/>
      </defs>
      <use xlink:href="#DejaVuSansMono-121"/>
      <use x="60.205078" xlink:href="#DejaVuSansMono-95"/>
      <use x="120.410156" xlink:href="#DejaVuSansMono-109"/>
      <use x="180.615234" xlink:href="#DejaVuSansMono-97"/>
      <use x="240.820312" xlink:href="#DejaVuSansMono-120"/>
      <use x="301.025391" xlink:href="#DejaVuSansMono-32"/>
      <use x="361.230469" xlink:href="#DejaVuSansMono-32"/>
      <use x="421.435547" xlink:href="#DejaVuSansMono-61"/>
      <use x="481.640625" xlink:href="#DejaVuSansMono-32"/>
      <use x="541.845703" xlink:href="#DejaVuSansMono-57"/>
      <use x="602.050781" xlink:href="#DejaVuSansMono-48"/>
      <use x="662.255859" xlink:href="#DejaVuSansMono-50"/>
      <use x="722.460938" xlink:href="#DejaVuSansMono-51"/>
      <use x="782.666016" xlink:href="#DejaVuSansMono-57"/>
      <use x="842.871094" xlink:href="#DejaVuSansMono-49"/>
      <use x="903.076172" xlink:href="#DejaVuSansMono-53"/>
      <use x="963.28125" xlink:href="#DejaVuSansMono-53"/>
      <use x="1023.486328" xlink:href="#DejaVuSansMono-54"/>
      <use x="1083.691406" xlink:href="#DejaVuSansMono-52"/>
      <use x="1143.896484" xlink:href="#DejaVuSansMono-56"/>
     </g>
     <!-- x_max  = 440 -->
     <g transform="translate(376.67625 48.584625)scale(0.06 -0.06)">
      <use xlink:href="#DejaVuSansMono-120"/>
      <use x="60.205078" xlink:href="#DejaVuSansMono-95"/>
      <use x="120.410156" xlink:href="#DejaVuSansMono-109"/>
      <use x="180.615234" xlink:href="#DejaVuSansMono-97"/>
      <use x="240.820312" xlink:href="#DejaVuSansMono-120"/>
      <use x="301.025391" xlink:href="#DejaVuSansMono-32"/>
      <use x="361.230469" xlink:href="#DejaVuSansMono-32"/>
      <use x="421.435547" xlink:href="#DejaVuSansMono-61"/>
      <use x="481.640625" xlink:href="#DejaVuSansMono-32"/>
      <use x="541.845703" xlink:href="#DejaVuSansMono-52"/>
      <use x="602.050781" xlink:href="#DejaVuSansMono-52"/>
      <use x="662.255859" xlink:href="#DejaVuSansMono-48"/>
     </g>
    </g>
    <g id="line2d_17">
     <path d="M 359.87625 66.499875 
L 371.87625 66.499875 
" style="fill:none;stroke:#ff7f0e;stroke-linecap:square;stroke-width:0.666667;"/>
    </g>
    <g id="line2d_18"/>
    <g id="text_17">
     <!-- "Widest":  -->
     <g transform="translate(376.67625 57.59025)scale(0.06 -0.06)">
      <defs>
       <path d="M 0 72.90625 
L 9.625 72.90625 
L 16.609375 13.71875 
L 24.90625 52.875 
L 35.203125 52.875 
L 43.609375 13.625 
L 50.59375 72.90625 
L 60.203125 72.90625 
L 49.3125 0 
L 39.984375 0 
L 30.078125 43.3125 
L 20.21875 0 
L 10.890625 0 
z
" id="DejaVuSansMono-87"/>
       <path d="M 12.5 54.6875 
L 35.5 54.6875 
L 35.5 6.984375 
L 53.328125 6.984375 
L 53.328125 0 
L 8.6875 0 
L 8.6875 6.984375 
L 26.515625 6.984375 
L 26.515625 47.703125 
L 12.5 47.703125 
z
M 26.515625 75.984375 
L 35.5 75.984375 
L 35.5 64.59375 
L 26.515625 64.59375 
z
" id="DejaVuSansMono-105"/>
       <path d="M 41.890625 47.703125 
L 41.890625 75.984375 
L 50.875 75.984375 
L 50.875 0 
L 41.890625 0 
L 41.890625 6.890625 
Q 39.65625 2.828125 35.90625 0.703125 
Q 32.171875 -1.421875 27.296875 -1.421875 
Q 17.390625 -1.421875 11.6875 6.265625 
Q 6 13.96875 6 27.484375 
Q 6 40.828125 11.71875 48.40625 
Q 17.4375 56 27.296875 56 
Q 32.234375 56 35.984375 53.875 
Q 39.75 51.765625 41.890625 47.703125 
z
M 15.484375 27.296875 
Q 15.484375 16.84375 18.796875 11.515625 
Q 22.125 6.203125 28.609375 6.203125 
Q 35.109375 6.203125 38.5 11.5625 
Q 41.890625 16.9375 41.890625 27.296875 
Q 41.890625 37.703125 38.5 43.046875 
Q 35.109375 48.390625 28.609375 48.390625 
Q 22.125 48.390625 18.796875 43.0625 
Q 15.484375 37.75 15.484375 27.296875 
z
" id="DejaVuSansMono-100"/>
      </defs>
      <use xlink:href="#DejaVuSansMono-34"/>
      <use x="60.205078" xlink:href="#DejaVuSansMono-87"/>
      <use x="120.410156" xlink:href="#DejaVuSansMono-105"/>
      <use x="180.615234" xlink:href="#DejaVuSansMono-100"/>
      <use x="240.820312" xlink:href="#DejaVuSansMono-101"/>
      <use x="301.025391" xlink:href="#DejaVuSansMono-115"/>
      <use x="361.230469" xlink:href="#DejaVuSansMono-116"/>
      <use x="421.435547" xlink:href="#DejaVuSansMono-34"/>
      <use x="481.640625" xlink:href="#DejaVuSansMono-58"/>
      <use x="541.845703" xlink:href="#DejaVuSansMono-32"/>
     </g>
     <!-- y_0    = 837799 -->
     <g transform="translate(376.67625 64.347187)scale(0.06 -0.06)">
      <use xlink:href="#DejaVuSansMono-121"/>
      <use x="60.205078" xlink:href="#DejaVuSansMono-95"/>
      <use x="120.410156" xlink:href="#DejaVuSansMono-48"/>
      <use x="180.615234" xlink:href="#DejaVuSansMono-32"/>
      <use x="240.820312" xlink:href="#DejaVuSansMono-32"/>
      <use x="301.025391" xlink:href="#DejaVuSansMono-32"/>
      <use x="361.230469" xlink:href="#DejaVuSansMono-32"/>
      <use x="421.435547" xlink:href="#DejaVuSansMono-61"/>
      <use x="481.640625" xlink:href="#DejaVuSansMono-32"/>
      <use x="541.845703" xlink:href="#DejaVuSansMono-56"/>
      <use x="602.050781" xlink:href="#DejaVuSansMono-51"/>
      <use x="662.255859" xlink:href="#DejaVuSansMono-55"/>
      <use x="722.460938" xlink:href="#DejaVuSansMono-55"/>
      <use x="782.666016" xlink:href="#DejaVuSansMono-57"/>
      <use x="842.871094" xlink:href="#DejaVuSansMono-57"/>
     </g>
     <!-- y_max  = 2974984576 -->
     <g transform="translate(376.67625 71.271)scale(0.06 -0.06)">
      <use xlink:href="#DejaVuSansMono-121"/>
      <use x="60.205078" xlink:href="#DejaVuSansMono-95"/>
      <use x="120.410156" xlink:href="#DejaVuSansMono-109"/>
      <use x="180.615234" xlink:href="#DejaVuSansMono-97"/>
      <use x="240.820312" xlink:href="#DejaVuSansMono-120"/>
      <use x="301.025391" xlink:href="#DejaVuSansMono-32"/>
      <use x="361.230469" xlink:href="#DejaVuSansMono-32"/>
      <use x="421.435547" xlink:href="#DejaVuSansMono-61"/>
      <use x="481.640625" xlink:href="#DejaVuSansMono-32"/>
      <use x="541.845703" xlink:href="#DejaVuSansMono-50"/>
      <use x="602.050781" xlink:href="#DejaVuSansMono-57"/>
      <use x="662.255859" xlink:href="#DejaVuSansMono-55"/>
      <use x="722.460938" xlink:href="#DejaVuSansMono-52"/>
      <use x="782.666016" xlink:href="#DejaVuSansMono-57"/>
      <use x="842.871094" xlink:href="#DejaVuSansMono-56"/>
      <use x="903.076172" xlink:href="#DejaVuSansMono-52"/>
      <use x="963.28125" xlink:href="#DejaVuSansMono-53"/>
      <use x="1023.486328" xlink:href="#DejaVuSansMono-55"/>
      <use x="1083.691406" xlink:href="#DejaVuSansMono-54"/>
     </g>
     <!-- x_max  = 525 -->
     <g transform="translate(376.67625 78.194812)scale(0.06 -0.06)">
      <use xlink:href="#DejaVuSansMono-120"/>
      <use x="60.205078" xlink:href="#DejaVuSansMono-95"/>
      <use x="120.410156" xlink:href="#DejaVuSansMono-109"/>
      <use x="180.615234" xlink:href="#DejaVuSansMono-97"/>
      <use x="240.820312" xlink:href="#DejaVuSansMono-120"/>
      <use x="301.025391" xlink:href="#DejaVuSansMono-32"/>
      <use x="361.230469" xlink:href="#DejaVuSansMono-32"/>
      <use x="421.435547" xlink:href="#DejaVuSansMono-61"/>
      <use x="481.640625" xlink:href="#DejaVuSansMono-32"/>
      <use x="541.845703" xlink:href="#DejaVuSansMono-53"/>
      <use x="602.050781" xlink:href="#DejaVuSansMono-50"/>
      <use x="662.255859" xlink:href="#DejaVuSansMono-53"/>
     </g>
    </g>
   </g>
  </g>
 </g>
 <defs>
  <clipPath id="p1ace47307f">
   <rect height="298.453375" width="418.46125" x="35.85875" y="17.989125"/>
  </clipPath>
 </defs>
</svg>
