<?xml version="1.0" encoding="utf-8" standalone="no"?>
<!DOCTYPE svg PUBLIC "-//W3C//DTD SVG 1.1//EN"
  "http://www.w3.org/Graphics/SVG/1.1/DTD/svg11.dtd">
<!-- Created with matplotlib (https://matplotlib.org/) -->
<svg height="345.6pt" version="1.1" viewBox="0 0 460.8 345.6" width="460.8pt" xmlns="http://www.w3.org/2000/svg" xmlns:xlink="http://www.w3.org/1999/xlink">
 <metadata>
  <rdf:RDF xmlns:cc="http://creativecommons.org/ns#" xmlns:dc="http://purl.org/dc/elements/1.1/" xmlns:rdf="http://www.w3.org/1999/02/22-rdf-syntax-ns#">
   <cc:Work>
    <dc:type rdf:resource="http://purl.org/dc/dcmitype/StillImage"/>
    <dc:date>2022-03-17T00:40:57.303412</dc:date>
    <dc:format>image/svg+xml</dc:format>
    <dc:creator>
     <cc:Agent>
      <dc:title>Matplotlib v3.3.2, https://matplotlib.org/</dc:title>
     </cc:Agent>
    </dc:creator>
   </cc:Work>
  </rdf:RDF>
 </metadata>
 <defs>
  <style type="text/css">*{stroke-linecap:butt;stroke-linejoin:round;}</style>
 </defs>
 <g id="figure_1">
  <g id="patch_1">
   <path d="M 0 345.6 
L 460.8 345.6 
L 460.8 0 
L 0 0 
z
" style="fill:#ffffff;"/>
  </g>
  <g id="axes_1">
   <g id="patch_2">
    <path d="M 35.85875 316.4425 
L 454.32 316.4425 
L 454.32 17.989125 
L 35.85875 17.989125 
z
" style="fill:#ffffff;"/>
   </g>
   <g id="matplotlib.axis_1">
    <g id="xtick_1">
     <g id="line2d_1">
      <defs>
       <path d="M 0 0 
L 0 3.5 
" id="m9ca9bd27f3" style="stroke:#000000;stroke-width:0.8;"/>
      </defs>
      <g>
       <use style="stroke:#000000;stroke-width:0.8;" x="54.879716" xlink:href="#m9ca9bd27f3" y="316.4425"/>
      </g>
     </g>
     <g id="text_1">
      <!-- 0 -->
      <g transform="translate(53.073622 328.033437)scale(0.06 -0.06)">
       <defs>
        <path d="M 23.578125 36.625 
Q 23.578125 39.3125 25.453125 41.265625 
Q 27.34375 43.21875 29.984375 43.21875 
Q 32.71875 43.21875 34.671875 41.265625 
Q 36.625 39.3125 36.625 36.625 
Q 36.625 33.890625 34.6875 31.984375 
Q 32.765625 30.078125 29.984375 30.078125 
Q 27.25 30.078125 25.40625 31.9375 
Q 23.578125 33.796875 23.578125 36.625 
z
M 30.078125 66.40625 
Q 23.1875 66.40625 19.796875 58.984375 
Q 16.40625 51.5625 16.40625 36.375 
Q 16.40625 21.234375 19.796875 13.8125 
Q 23.1875 6.390625 30.078125 6.390625 
Q 37.015625 6.390625 40.40625 13.8125 
Q 43.796875 21.234375 43.796875 36.375 
Q 43.796875 51.5625 40.40625 58.984375 
Q 37.015625 66.40625 30.078125 66.40625 
z
M 30.078125 74.21875 
Q 41.75 74.21875 47.734375 64.640625 
Q 53.71875 55.078125 53.71875 36.375 
Q 53.71875 17.71875 47.734375 8.140625 
Q 41.75 -1.421875 30.078125 -1.421875 
Q 18.40625 -1.421875 12.453125 8.140625 
Q 6.5 17.71875 6.5 36.375 
Q 6.5 55.078125 12.453125 64.640625 
Q 18.40625 74.21875 30.078125 74.21875 
z
" id="DejaVuSansMono-48"/>
       </defs>
       <use xlink:href="#DejaVuSansMono-48"/>
      </g>
     </g>
    </g>
    <g id="xtick_2">
     <g id="line2d_2">
      <g>
       <use style="stroke:#000000;stroke-width:0.8;" x="109.933163" xlink:href="#m9ca9bd27f3" y="316.4425"/>
      </g>
     </g>
     <g id="text_2">
      <!-- 100 -->
      <g transform="translate(104.514882 328.033437)scale(0.06 -0.06)">
       <defs>
        <path d="M 13.1875 8.296875 
L 28.515625 8.296875 
L 28.515625 64.015625 
L 12.015625 60.296875 
L 12.015625 69.28125 
L 28.421875 72.90625 
L 38.28125 72.90625 
L 38.28125 8.296875 
L 53.421875 8.296875 
L 53.421875 0 
L 13.1875 0 
z
" id="DejaVuSansMono-49"/>
       </defs>
       <use xlink:href="#DejaVuSansMono-49"/>
       <use x="60.205078" xlink:href="#DejaVuSansMono-48"/>
       <use x="120.410156" xlink:href="#DejaVuSansMono-48"/>
      </g>
     </g>
    </g>
    <g id="xtick_3">
     <g id="line2d_3">
      <g>
       <use style="stroke:#000000;stroke-width:0.8;" x="164.98661" xlink:href="#m9ca9bd27f3" y="316.4425"/>
      </g>
     </g>
     <g id="text_3">
      <!-- 200 -->
      <g transform="translate(159.568328 328.033437)scale(0.06 -0.06)">
       <defs>
        <path d="M 18.21875 8.296875 
L 51.703125 8.296875 
L 51.703125 0 
L 7.421875 0 
L 7.421875 8.296875 
Q 16.546875 17.921875 23.375 25.296875 
Q 30.21875 32.671875 32.8125 35.6875 
Q 37.703125 41.65625 39.40625 45.34375 
Q 41.109375 49.03125 41.109375 52.875 
Q 41.109375 58.984375 37.515625 62.453125 
Q 33.9375 65.921875 27.6875 65.921875 
Q 23.25 65.921875 18.359375 64.3125 
Q 13.484375 62.703125 8.015625 59.421875 
L 8.015625 69.390625 
Q 13.03125 71.78125 17.890625 73 
Q 22.75 74.21875 27.484375 74.21875 
Q 38.1875 74.21875 44.703125 68.53125 
Q 51.21875 62.84375 51.21875 53.609375 
Q 51.21875 48.921875 49.046875 44.234375 
Q 46.875 39.546875 42 33.890625 
Q 39.265625 30.71875 34.0625 25.09375 
Q 28.859375 19.484375 18.21875 8.296875 
z
" id="DejaVuSansMono-50"/>
       </defs>
       <use xlink:href="#DejaVuSansMono-50"/>
       <use x="60.205078" xlink:href="#DejaVuSansMono-48"/>
       <use x="120.410156" xlink:href="#DejaVuSansMono-48"/>
      </g>
     </g>
    </g>
    <g id="xtick_4">
     <g id="line2d_4">
      <g>
       <use style="stroke:#000000;stroke-width:0.8;" x="220.040057" xlink:href="#m9ca9bd27f3" y="316.4425"/>
      </g>
     </g>
     <g id="text_4">
      <!-- 300 -->
      <g transform="translate(214.621775 328.033437)scale(0.06 -0.06)">
       <defs>
        <path d="M 37.890625 39.015625 
Q 45.0625 37.109375 48.875 32.25 
Q 52.6875 27.390625 52.6875 20.125 
Q 52.6875 10.0625 45.921875 4.3125 
Q 39.15625 -1.421875 27.203125 -1.421875 
Q 22.171875 -1.421875 16.9375 -0.484375 
Q 11.71875 0.4375 6.6875 2.203125 
L 6.6875 12.015625 
Q 11.671875 9.421875 16.5 8.15625 
Q 21.34375 6.890625 26.125 6.890625 
Q 34.234375 6.890625 38.578125 10.546875 
Q 42.921875 14.203125 42.921875 21.09375 
Q 42.921875 27.4375 38.578125 31.171875 
Q 34.234375 34.90625 26.8125 34.90625 
L 19.28125 34.90625 
L 19.28125 43.015625 
L 26.8125 43.015625 
Q 33.59375 43.015625 37.40625 45.984375 
Q 41.21875 48.96875 41.21875 54.296875 
Q 41.21875 59.90625 37.671875 62.90625 
Q 34.125 65.921875 27.59375 65.921875 
Q 23.25 65.921875 18.609375 64.9375 
Q 13.96875 63.96875 8.890625 62.015625 
L 8.890625 71.09375 
Q 14.796875 72.65625 19.40625 73.4375 
Q 24.03125 74.21875 27.59375 74.21875 
Q 38.234375 74.21875 44.609375 68.875 
Q 50.984375 63.53125 50.984375 54.6875 
Q 50.984375 48.6875 47.625 44.671875 
Q 44.28125 40.671875 37.890625 39.015625 
z
" id="DejaVuSansMono-51"/>
       </defs>
       <use xlink:href="#DejaVuSansMono-51"/>
       <use x="60.205078" xlink:href="#DejaVuSansMono-48"/>
       <use x="120.410156" xlink:href="#DejaVuSansMono-48"/>
      </g>
     </g>
    </g>
    <g id="xtick_5">
     <g id="line2d_5">
      <g>
       <use style="stroke:#000000;stroke-width:0.8;" x="275.093504" xlink:href="#m9ca9bd27f3" y="316.4425"/>
      </g>
     </g>
     <g id="text_5">
      <!-- 400 -->
      <g transform="translate(269.675222 328.033437)scale(0.06 -0.06)">
       <defs>
        <path d="M 35.890625 63.921875 
L 12.890625 25.390625 
L 35.890625 25.390625 
z
M 34.28125 72.90625 
L 45.703125 72.90625 
L 45.703125 25.390625 
L 55.421875 25.390625 
L 55.421875 17.390625 
L 45.703125 17.390625 
L 45.703125 0 
L 35.890625 0 
L 35.890625 17.390625 
L 4.984375 17.390625 
L 4.984375 26.703125 
z
" id="DejaVuSansMono-52"/>
       </defs>
       <use xlink:href="#DejaVuSansMono-52"/>
       <use x="60.205078" xlink:href="#DejaVuSansMono-48"/>
       <use x="120.410156" xlink:href="#DejaVuSansMono-48"/>
      </g>
     </g>
    </g>
    <g id="xtick_6">
     <g id="line2d_6">
      <g>
       <use style="stroke:#000000;stroke-width:0.8;" x="330.14695" xlink:href="#m9ca9bd27f3" y="316.4425"/>
      </g>
     </g>
     <g id="text_6">
      <!-- 500 -->
      <g transform="translate(324.728669 328.033437)scale(0.06 -0.06)">
       <defs>
        <path d="M 10.109375 72.90625 
L 47.015625 72.90625 
L 47.015625 64.59375 
L 19.09375 64.59375 
L 19.09375 46.6875 
Q 21.1875 47.46875 23.3125 47.828125 
Q 25.4375 48.1875 27.59375 48.1875 
Q 38.921875 48.1875 45.5625 41.5 
Q 52.203125 34.8125 52.203125 23.390625 
Q 52.203125 11.859375 45.234375 5.21875 
Q 38.28125 -1.421875 26.21875 -1.421875 
Q 20.40625 -1.421875 15.59375 -0.640625 
Q 10.796875 0.140625 6.984375 1.703125 
L 6.984375 11.71875 
Q 11.46875 9.28125 16.015625 8.078125 
Q 20.5625 6.890625 25.296875 6.890625 
Q 33.453125 6.890625 37.859375 11.1875 
Q 42.28125 15.484375 42.28125 23.390625 
Q 42.28125 31.203125 37.71875 35.546875 
Q 33.15625 39.890625 25 39.890625 
Q 21.046875 39.890625 17.28125 38.984375 
Q 13.53125 38.09375 10.109375 36.28125 
z
" id="DejaVuSansMono-53"/>
       </defs>
       <use xlink:href="#DejaVuSansMono-53"/>
       <use x="60.205078" xlink:href="#DejaVuSansMono-48"/>
       <use x="120.410156" xlink:href="#DejaVuSansMono-48"/>
      </g>
     </g>
    </g>
    <g id="xtick_7">
     <g id="line2d_7">
      <g>
       <use style="stroke:#000000;stroke-width:0.8;" x="385.200397" xlink:href="#m9ca9bd27f3" y="316.4425"/>
      </g>
     </g>
     <g id="text_7">
      <!-- 600 -->
      <g transform="translate(379.782116 328.033437)scale(0.06 -0.06)">
       <defs>
        <path d="M 48.390625 71.296875 
L 48.390625 62.203125 
Q 45.3125 64.015625 41.84375 64.96875 
Q 38.375 65.921875 34.625 65.921875 
Q 25.25 65.921875 20.40625 58.859375 
Q 15.578125 51.8125 15.578125 38.09375 
Q 17.921875 42.96875 22.0625 45.578125 
Q 26.21875 48.1875 31.59375 48.1875 
Q 42.140625 48.1875 47.921875 41.71875 
Q 53.71875 35.25 53.71875 23.390625 
Q 53.71875 11.578125 47.75 5.078125 
Q 41.796875 -1.421875 31 -1.421875 
Q 18.3125 -1.421875 12.40625 7.6875 
Q 6.5 16.796875 6.5 36.375 
Q 6.5 54.828125 13.59375 64.515625 
Q 20.703125 74.21875 34.1875 74.21875 
Q 37.796875 74.21875 41.40625 73.453125 
Q 45.015625 72.703125 48.390625 71.296875 
z
M 30.8125 40.484375 
Q 24.515625 40.484375 20.890625 35.9375 
Q 17.28125 31.390625 17.28125 23.390625 
Q 17.28125 15.375 20.890625 10.828125 
Q 24.515625 6.296875 30.8125 6.296875 
Q 37.359375 6.296875 40.671875 10.609375 
Q 44 14.9375 44 23.390625 
Q 44 31.890625 40.671875 36.1875 
Q 37.359375 40.484375 30.8125 40.484375 
z
" id="DejaVuSansMono-54"/>
       </defs>
       <use xlink:href="#DejaVuSansMono-54"/>
       <use x="60.205078" xlink:href="#DejaVuSansMono-48"/>
       <use x="120.410156" xlink:href="#DejaVuSansMono-48"/>
      </g>
     </g>
    </g>
    <g id="xtick_8">
     <g id="line2d_8">
      <g>
       <use style="stroke:#000000;stroke-width:0.8;" x="440.253844" xlink:href="#m9ca9bd27f3" y="316.4425"/>
      </g>
     </g>
     <g id="text_8">
      <!-- 700 -->
      <g transform="translate(434.835563 328.033437)scale(0.06 -0.06)">
       <defs>
        <path d="M 6.78125 72.90625 
L 52.6875 72.90625 
L 52.6875 68.703125 
L 26.609375 0 
L 16.3125 0 
L 41.703125 64.59375 
L 6.78125 64.59375 
z
" id="DejaVuSansMono-55"/>
       </defs>
       <use xlink:href="#DejaVuSansMono-55"/>
       <use x="60.205078" xlink:href="#DejaVuSansMono-48"/>
       <use x="120.410156" xlink:href="#DejaVuSansMono-48"/>
      </g>
     </g>
    </g>
    <g id="text_9">
     <!-- n -->
     <g transform="translate(243.283281 337.872187)scale(0.06 -0.06)">
      <defs>
       <path d="M 51.3125 33.890625 
L 51.3125 0 
L 42.28125 0 
L 42.28125 33.890625 
Q 42.28125 41.265625 39.6875 44.71875 
Q 37.109375 48.1875 31.59375 48.1875 
Q 25.296875 48.1875 21.890625 43.71875 
Q 18.5 39.265625 18.5 30.90625 
L 18.5 0 
L 9.515625 0 
L 9.515625 54.6875 
L 18.5 54.6875 
L 18.5 46.484375 
Q 20.90625 51.171875 25 53.578125 
Q 29.109375 56 34.71875 56 
Q 43.0625 56 47.1875 50.5 
Q 51.3125 45.015625 51.3125 33.890625 
z
" id="DejaVuSansMono-110"/>
      </defs>
      <use xlink:href="#DejaVuSansMono-110"/>
     </g>
    </g>
   </g>
   <g id="matplotlib.axis_2">
    <g id="ytick_1">
     <g id="line2d_9">
      <defs>
       <path d="M 0 0 
L -3.5 0 
" id="m7c2e9ef93e" style="stroke:#000000;stroke-width:0.8;"/>
      </defs>
      <g>
       <use style="stroke:#000000;stroke-width:0.8;" x="35.85875" xlink:href="#m7c2e9ef93e" y="283.187834"/>
      </g>
     </g>
     <g id="text_10">
      <!-- $\mathdefault{10^{1}}$ -->
      <g transform="translate(18.83875 285.483302)scale(0.06 -0.06)">
       <use transform="translate(0 0.684375)" xlink:href="#DejaVuSansMono-49"/>
       <use transform="translate(60.205078 0.684375)" xlink:href="#DejaVuSansMono-48"/>
       <use transform="translate(121.367188 38.965625)scale(0.7)" xlink:href="#DejaVuSansMono-49"/>
      </g>
     </g>
    </g>
    <g id="ytick_2">
     <g id="line2d_10">
      <g>
       <use style="stroke:#000000;stroke-width:0.8;" x="35.85875" xlink:href="#m7c2e9ef93e" y="243.810626"/>
      </g>
     </g>
     <g id="text_11">
      <!-- $\mathdefault{10^{3}}$ -->
      <g transform="translate(18.83875 246.106094)scale(0.06 -0.06)">
       <use transform="translate(0 0.765625)" xlink:href="#DejaVuSansMono-49"/>
       <use transform="translate(60.205078 0.765625)" xlink:href="#DejaVuSansMono-48"/>
       <use transform="translate(121.367188 39.046875)scale(0.7)" xlink:href="#DejaVuSansMono-51"/>
      </g>
     </g>
    </g>
    <g id="ytick_3">
     <g id="line2d_11">
      <g>
       <use style="stroke:#000000;stroke-width:0.8;" x="35.85875" xlink:href="#m7c2e9ef93e" y="204.433418"/>
      </g>
     </g>
     <g id="text_12">
      <!-- $\mathdefault{10^{5}}$ -->
      <g transform="translate(18.83875 206.728887)scale(0.06 -0.06)">
       <use transform="translate(0 0.684375)" xlink:href="#DejaVuSansMono-49"/>
       <use transform="translate(60.205078 0.684375)" xlink:href="#DejaVuSansMono-48"/>
       <use transform="translate(121.367188 38.965625)scale(0.7)" xlink:href="#DejaVuSansMono-53"/>
      </g>
     </g>
    </g>
    <g id="ytick_4">
     <g id="line2d_12">
      <g>
       <use style="stroke:#000000;stroke-width:0.8;" x="35.85875" xlink:href="#m7c2e9ef93e" y="165.05621"/>
      </g>
     </g>
     <g id="text_13">
      <!-- $\mathdefault{10^{7}}$ -->
      <g transform="translate(18.83875 167.351679)scale(0.06 -0.06)">
       <use transform="translate(0 0.684375)" xlink:href="#DejaVuSansMono-49"/>
       <use transform="translate(60.205078 0.684375)" xlink:href="#DejaVuSansMono-48"/>
       <use transform="translate(121.367188 38.965625)scale(0.7)" xlink:href="#DejaVuSansMono-55"/>
      </g>
     </g>
    </g>
    <g id="ytick_5">
     <g id="line2d_13">
      <g>
       <use style="stroke:#000000;stroke-width:0.8;" x="35.85875" xlink:href="#m7c2e9ef93e" y="125.679002"/>
      </g>
     </g>
     <g id="text_14">
      <!-- $\mathdefault{10^{9}}$ -->
      <g transform="translate(18.83875 127.974471)scale(0.06 -0.06)">
       <defs>
        <path d="M 29.109375 32.328125 
Q 35.40625 32.328125 38.984375 36.859375 
Q 42.578125 41.40625 42.578125 49.421875 
Q 42.578125 57.421875 38.984375 61.953125 
Q 35.40625 66.5 29.109375 66.5 
Q 22.5625 66.5 19.234375 62.171875 
Q 15.921875 57.859375 15.921875 49.421875 
Q 15.921875 40.921875 19.21875 36.625 
Q 22.515625 32.328125 29.109375 32.328125 
z
M 11.53125 1.515625 
L 11.53125 10.59375 
Q 14.59375 8.796875 18.0625 7.84375 
Q 21.53125 6.890625 25.296875 6.890625 
Q 34.671875 6.890625 39.46875 13.9375 
Q 44.28125 21 44.28125 34.71875 
Q 42 29.828125 37.84375 27.21875 
Q 33.6875 24.609375 28.328125 24.609375 
Q 17.78125 24.609375 11.984375 31.09375 
Q 6.203125 37.59375 6.203125 49.515625 
Q 6.203125 61.28125 12.125 67.75 
Q 18.0625 74.21875 28.90625 74.21875 
Q 41.609375 74.21875 47.515625 65.078125 
Q 53.421875 55.953125 53.421875 36.375 
Q 53.421875 17.96875 46.3125 8.265625 
Q 39.203125 -1.421875 25.6875 -1.421875 
Q 22.125 -1.421875 18.5 -0.65625 
Q 14.890625 0.09375 11.53125 1.515625 
z
" id="DejaVuSansMono-57"/>
       </defs>
       <use transform="translate(0 0.765625)" xlink:href="#DejaVuSansMono-49"/>
       <use transform="translate(60.205078 0.765625)" xlink:href="#DejaVuSansMono-48"/>
       <use transform="translate(121.367188 39.046875)scale(0.7)" xlink:href="#DejaVuSansMono-57"/>
      </g>
     </g>
    </g>
    <g id="ytick_6">
     <g id="line2d_14">
      <g>
       <use style="stroke:#000000;stroke-width:0.8;" x="35.85875" xlink:href="#m7c2e9ef93e" y="86.301794"/>
      </g>
     </g>
     <g id="text_15">
      <!-- $\mathdefault{10^{11}}$ -->
      <g transform="translate(16.31875 88.597263)scale(0.06 -0.06)">
       <use transform="translate(0 0.684375)" xlink:href="#DejaVuSansMono-49"/>
       <use transform="translate(60.205078 0.684375)" xlink:href="#DejaVuSansMono-48"/>
       <use transform="translate(121.367188 38.965625)scale(0.7)" xlink:href="#DejaVuSansMono-49"/>
       <use transform="translate(163.510742 38.965625)scale(0.7)" xlink:href="#DejaVuSansMono-49"/>
      </g>
     </g>
    </g>
    <g id="ytick_7">
     <g id="line2d_15">
      <g>
       <use style="stroke:#000000;stroke-width:0.8;" x="35.85875" xlink:href="#m7c2e9ef93e" y="46.924586"/>
      </g>
     </g>
     <g id="text_16">
      <!-- $\mathdefault{10^{13}}$ -->
      <g transform="translate(16.31875 49.220055)scale(0.06 -0.06)">
       <use transform="translate(0 0.765625)" xlink:href="#DejaVuSansMono-49"/>
       <use transform="translate(60.205078 0.765625)" xlink:href="#DejaVuSansMono-48"/>
       <use transform="translate(121.367188 39.046875)scale(0.7)" xlink:href="#DejaVuSansMono-49"/>
       <use transform="translate(163.510742 39.046875)scale(0.7)" xlink:href="#DejaVuSansMono-51"/>
      </g>
     </g>
    </g>
    <g id="text_17">
     <!-- y_n -->
     <g transform="translate(10.904063 172.634094)rotate(-90)scale(0.06 -0.06)">
      <defs>
       <path d="M 41.890625 17.578125 
Q 39.65625 11.859375 36.1875 2.546875 
Q 31.34375 -10.359375 29.6875 -13.1875 
Q 27.4375 -17 24.0625 -18.890625 
Q 20.703125 -20.796875 16.21875 -20.796875 
L 8.984375 -20.796875 
L 8.984375 -13.28125 
L 14.3125 -13.28125 
Q 18.265625 -13.28125 20.5 -10.984375 
Q 22.75 -8.6875 26.21875 0.875 
L 5.078125 54.6875 
L 14.59375 54.6875 
L 30.8125 11.921875 
L 46.78125 54.6875 
L 56.296875 54.6875 
z
" id="DejaVuSansMono-121"/>
       <path d="M 60.203125 -19.671875 
L 60.203125 -23.578125 
L 0 -23.578125 
L 0 -19.671875 
z
" id="DejaVuSansMono-95"/>
      </defs>
      <use xlink:href="#DejaVuSansMono-121"/>
      <use x="60.205078" xlink:href="#DejaVuSansMono-95"/>
      <use x="120.410156" xlink:href="#DejaVuSansMono-110"/>
     </g>
    </g>
   </g>
   <g id="line2d_16">
    <path clip-path="url(#p3a6687f162)" d="M 54.879716 168.568199 
L 55.43025 159.174348 
L 55.980785 165.101208 
L 56.531319 155.707356 
L 57.632388 167.561077 
L 58.182923 158.167225 
L 58.733457 164.094085 
L 59.283992 154.700234 
L 60.385061 166.553954 
L 60.935595 157.160103 
L 61.48613 163.086963 
L 62.036664 153.693111 
L 62.587198 159.619972 
L 63.137733 150.22612 
L 63.688267 156.152981 
L 64.238802 146.759129 
L 64.789336 152.685989 
L 65.339871 143.292138 
L 65.890405 149.218998 
L 66.44094 139.825147 
L 66.991474 145.752007 
L 67.542009 136.358156 
L 68.092543 142.285016 
L 68.643078 132.891165 
L 69.193612 138.818025 
L 69.744147 129.424174 
L 70.845216 141.277894 
L 71.39575 131.884043 
L 73.047353 149.664624 
L 73.597888 140.270773 
L 74.148422 146.197633 
L 74.698957 136.803781 
L 75.249491 142.730642 
L 75.800026 133.33679 
L 76.35056 139.263651 
L 76.901095 129.869799 
L 77.451629 135.79666 
L 78.002164 126.402808 
L 78.552698 132.329669 
L 79.103233 122.935817 
L 80.204301 134.789538 
L 80.754836 125.395686 
L 81.30537 131.322547 
L 81.855905 121.928695 
L 82.406439 127.855556 
L 82.956974 118.461704 
L 83.507508 124.388565 
L 84.058043 114.994713 
L 84.608577 120.921574 
L 85.159112 111.527722 
L 85.709646 117.454583 
L 86.260181 108.060731 
L 86.810715 113.987591 
L 87.36125 104.59374 
L 87.911784 110.5206 
L 88.462319 101.126749 
L 90.113922 118.90733 
L 90.664456 109.513479 
L 91.214991 115.440339 
L 91.765525 106.046488 
L 92.31606 111.973348 
L 92.866594 102.579497 
L 93.417129 108.506357 
L 93.967663 99.112506 
L 95.068732 110.966226 
L 95.619267 101.572375 
L 96.720336 113.426096 
L 97.27087 104.032244 
L 97.821405 109.959104 
L 98.371939 100.565253 
L 99.473008 112.418974 
L 100.023542 103.025122 
L 101.124611 114.878843 
L 101.675146 105.484992 
L 102.776215 117.338712 
L 103.326749 107.944861 
L 103.877284 113.871721 
L 104.427818 104.47787 
L 104.978353 110.40473 
L 105.528887 101.010879 
L 106.079422 106.937739 
L 106.629956 97.543888 
L 108.281559 115.324469 
L 108.832094 105.930617 
L 109.933163 117.784338 
L 110.483697 108.390487 
L 111.034232 114.317347 
L 111.584766 104.923496 
L 112.685835 116.777216 
L 113.23637 107.383365 
L 113.786904 113.310225 
L 114.337439 103.916374 
L 114.887973 109.843234 
L 115.438508 100.449383 
L 115.989042 106.376243 
L 116.539576 96.982392 
L 117.090111 102.909252 
L 117.640645 93.515401 
L 118.19118 99.442261 
L 118.741714 90.04841 
L 119.292249 95.97527 
L 119.842783 86.581419 
L 120.943852 98.435139 
L 121.494387 89.041288 
L 122.044921 94.968148 
L 122.595456 85.574297 
L 123.14599 91.501157 
L 123.696525 82.107306 
L 124.247059 88.034166 
L 124.797593 78.640315 
L 125.348128 84.567175 
L 125.898662 75.173324 
L 126.449197 81.100184 
L 126.999731 71.706333 
L 127.550266 77.633193 
L 128.1008 68.239342 
L 128.651335 74.166202 
L 129.201869 64.772351 
L 129.752404 70.699211 
L 130.302938 61.305359 
L 130.853473 67.23222 
L 131.404007 57.838368 
L 131.954542 63.765229 
L 132.505076 54.371377 
L 133.055611 60.298238 
L 133.606145 50.904386 
L 134.156679 56.831247 
L 134.707214 47.437395 
L 135.808283 59.291116 
L 136.358817 49.897265 
L 136.909352 55.824125 
L 137.459886 46.430273 
L 138.010421 52.357134 
L 138.560955 42.963282 
L 139.11149 48.890143 
L 139.662024 39.496291 
L 140.212559 45.423152 
L 140.763093 36.0293 
L 141.864162 47.883021 
L 142.414697 38.48917 
L 142.965231 44.41603 
L 143.515765 35.022179 
L 144.0663 40.949039 
L 144.616834 31.555187 
L 146.818972 55.262629 
L 147.369507 45.868778 
L 149.02111 63.649359 
L 149.571645 54.255507 
L 151.773782 77.962949 
L 152.324317 68.569097 
L 153.425386 80.422818 
L 153.97592 71.028967 
L 156.728593 100.663268 
L 157.279127 91.269417 
L 157.829662 97.196277 
L 158.380196 87.802426 
L 158.930731 93.729286 
L 159.481265 84.335435 
L 160.0318 90.262295 
L 160.582334 80.868444 
L 161.132868 86.795304 
L 161.683403 77.401453 
L 162.233937 83.328313 
L 162.784472 73.934462 
L 163.885541 85.788182 
L 164.436075 76.394331 
L 166.087679 94.174912 
L 166.638213 84.781061 
L 167.739282 96.634781 
L 168.289817 87.24093 
L 170.491954 110.948371 
L 171.042489 101.55452 
L 173.795161 131.188822 
L 174.345696 121.79497 
L 175.446765 133.648691 
L 175.997299 124.25484 
L 176.547834 130.1817 
L 177.098368 120.787849 
L 178.199437 132.641569 
L 178.749971 123.247718 
L 179.300506 129.174578 
L 179.85104 119.780727 
L 180.952109 131.634447 
L 181.502644 122.240596 
L 182.603713 134.094317 
L 183.154247 124.700465 
L 183.704782 130.627326 
L 184.255316 121.233474 
L 184.805851 127.160335 
L 185.356385 117.766483 
L 186.457454 129.620204 
L 187.007989 120.226353 
L 187.558523 126.153213 
L 188.109057 116.759361 
L 188.659592 122.686222 
L 189.210126 113.29237 
L 190.311195 125.146091 
L 190.86173 115.75224 
L 191.412264 121.6791 
L 191.962799 112.285249 
L 192.513333 118.212109 
L 193.063868 108.818258 
L 194.715471 126.598839 
L 195.266006 117.204987 
L 195.81654 123.131848 
L 196.367074 113.737996 
L 198.018678 131.518577 
L 198.569212 122.124726 
L 200.220816 139.905307 
L 200.77135 130.511455 
L 201.321885 136.438316 
L 201.872419 127.044464 
L 202.973488 138.898185 
L 203.524023 129.504334 
L 204.074557 135.431194 
L 204.625092 126.037343 
L 206.276695 143.817924 
L 206.827229 134.424072 
L 207.377764 140.350933 
L 207.928298 130.957081 
L 208.478833 136.883942 
L 209.029367 127.49009 
L 210.680971 145.270671 
L 211.231505 135.87682 
L 211.78204 141.80368 
L 212.332574 132.409829 
L 212.883109 138.336689 
L 213.433643 128.942838 
L 214.534712 140.796558 
L 215.085246 131.402707 
L 217.287384 155.110148 
L 217.837919 145.716297 
L 218.938988 157.570018 
L 219.489522 148.176166 
L 221.141126 165.956747 
L 221.69166 156.562895 
L 222.242195 162.489756 
L 222.792729 153.095904 
L 223.343263 159.022764 
L 223.893798 149.628913 
L 224.444332 155.555773 
L 224.994867 146.161922 
L 225.545401 152.088782 
L 226.095936 142.694931 
L 226.64647 148.621791 
L 227.197005 139.22794 
L 228.298074 151.08166 
L 228.848608 141.687809 
L 229.399143 147.614669 
L 229.949677 138.220818 
L 230.500212 144.147678 
L 231.050746 134.753827 
L 231.601281 140.680687 
L 232.151815 131.286836 
L 232.702349 137.213696 
L 233.252884 127.819844 
L 235.455022 151.527286 
L 236.005556 142.133434 
L 237.106625 153.987155 
L 237.65716 144.593304 
L 238.207694 150.520164 
L 238.758229 141.126313 
L 239.859298 152.980033 
L 240.409832 143.586182 
L 241.510901 155.439902 
L 242.061435 146.046051 
L 243.162504 157.899772 
L 243.713039 148.50592 
L 244.263573 154.432781 
L 244.814108 145.038929 
L 245.364642 150.965789 
L 245.915177 141.571938 
L 247.56678 159.352519 
L 248.117315 149.958667 
L 248.667849 155.885528 
L 249.218384 146.491676 
L 249.768918 152.418537 
L 250.319452 143.024685 
L 252.52159 166.732127 
L 253.072125 157.338275 
L 255.274263 181.045716 
L 255.824797 171.651863 
L 256.375332 177.578723 
L 256.925866 168.184871 
L 258.026935 180.038591 
L 258.577469 170.644738 
L 259.128004 176.571599 
L 259.678538 167.177746 
L 260.229073 173.104607 
L 260.779607 163.710754 
L 261.330142 169.637615 
L 261.880676 160.243763 
L 262.981745 172.097484 
L 263.53228 162.703632 
L 264.633349 174.557352 
L 265.183883 165.1635 
L 266.284952 177.017221 
L 266.835487 167.623368 
L 267.386021 173.550228 
L 267.936555 164.156376 
L 269.037624 176.010097 
L 269.588159 166.616245 
L 270.138693 172.543105 
L 270.689228 163.149253 
L 271.239762 169.076113 
L 271.790297 159.682261 
L 273.992435 183.389703 
L 274.542969 173.995849 
L 275.644038 185.84957 
L 276.194573 176.455715 
L 277.846176 194.236296 
L 278.39671 184.842436 
L 280.048314 202.623017 
L 280.598848 193.229143 
L 282.250452 211.009724 
L 282.800986 201.615811 
L 283.351521 207.542671 
L 283.902055 198.148779 
L 284.45259 204.075639 
L 285.003124 194.68176 
L 286.104193 206.535481 
L 286.654727 197.141593 
L 288.306331 214.922174 
L 288.856865 205.528226 
L 289.4074 211.455086 
L 289.957934 202.06117 
L 290.508469 207.98803 
L 291.059003 198.594136 
L 291.609538 204.520996 
L 292.160072 195.127116 
L 294.36221 218.834557 
L 294.912744 209.440552 
L 295.463279 215.367412 
L 296.013813 205.973459 
L 296.564348 211.900319 
L 297.114882 202.506399 
L 297.665417 208.43326 
L 298.215951 199.039363 
L 298.766486 204.966223 
L 299.31702 195.572341 
L 299.867555 201.499202 
L 300.418089 192.10533 
L 300.968624 198.03219 
L 301.519158 188.638326 
L 302.620227 200.492046 
L 303.170761 191.098177 
L 304.822365 208.878758 
L 305.372899 199.484859 
L 305.923434 205.411719 
L 306.473968 196.017836 
L 308.676106 219.725277 
L 309.226641 210.331255 
L 309.777175 216.258116 
L 310.32771 206.864151 
L 311.979313 224.644732 
L 312.529847 215.250577 
L 313.080382 221.177438 
L 313.630916 211.783384 
L 314.181451 217.710245 
L 314.731985 208.316258 
L 315.28252 214.243119 
L 315.833054 204.849178 
L 316.383589 210.776038 
L 316.934123 201.382127 
L 317.484658 207.308987 
L 318.035192 197.915096 
L 319.136261 209.768817 
L 319.686796 200.374912 
L 321.338399 218.155493 
L 321.888933 208.7615 
L 323.540537 226.542081 
L 324.091071 217.147851 
L 324.641606 223.074711 
L 325.19214 213.680608 
L 325.742675 219.607468 
L 326.293209 210.213449 
L 326.843744 216.140309 
L 327.394278 206.746346 
L 328.495347 218.600066 
L 329.045882 209.206065 
L 329.596416 215.132926 
L 330.14695 205.738975 
L 332.349088 229.446416 
L 332.899623 220.052034 
L 335.652295 249.686335 
L 336.20283 240.286819 
L 336.753364 246.21368 
L 337.303899 236.816054 
L 337.854433 242.742914 
L 338.404968 233.346548 
L 340.056571 251.127129 
L 340.607105 241.726574 
L 341.708174 253.580294 
L 342.258709 244.177513 
L 342.809243 250.104373 
L 343.359778 240.704573 
L 343.910312 246.631434 
L 344.460847 237.233619 
L 345.011381 243.16048 
L 345.561916 233.763987 
L 346.11245 239.690847 
L 346.662985 230.295236 
L 347.213519 236.222096 
L 347.764053 226.827071 
L 349.415657 244.607652 
L 349.966191 235.210673 
L 350.516726 241.137533 
L 351.06726 231.741597 
L 351.617795 237.668457 
L 352.168329 228.273216 
L 352.718864 234.200077 
L 353.269398 224.805299 
L 355.471536 248.51274 
L 356.022071 239.113951 
L 357.123139 250.967671 
L 357.673674 241.56724 
L 358.774743 253.420961 
L 359.325277 244.018344 
L 361.527415 267.725785 
L 362.07795 258.285336 
L 363.729553 276.065917 
L 364.280088 266.549033 
L 364.830622 272.475893 
L 365.381157 263.000992 
L 365.931691 268.927853 
L 366.482225 259.480392 
L 369.234898 289.114694 
L 369.785432 279.168996 
L 371.98757 302.876437 
L 371.98757 302.876437 
" style="fill:none;stroke:#1f77b4;stroke-linecap:square;stroke-width:0.666667;"/>
   </g>
   <g id="line2d_17">
    <path clip-path="url(#p3a6687f162)" d="M 54.879716 161.626787 
L 55.43025 152.232935 
L 56.531319 164.086656 
L 57.081854 154.692804 
L 58.182923 166.546525 
L 58.733457 157.152673 
L 59.283992 163.079533 
L 59.834526 153.685682 
L 60.385061 159.612542 
L 60.935595 150.218691 
L 61.48613 156.145551 
L 62.036664 146.751699 
L 62.587198 152.67856 
L 63.137733 143.284708 
L 63.688267 149.211569 
L 64.238802 139.817717 
L 64.789336 145.744578 
L 65.339871 136.350726 
L 66.44094 148.204447 
L 66.991474 138.810595 
L 67.542009 144.737456 
L 68.092543 135.343604 
L 68.643078 141.270465 
L 69.193612 131.876613 
L 69.744147 137.803474 
L 70.294681 128.409622 
L 70.845216 134.336483 
L 71.39575 124.942631 
L 71.946284 130.869491 
L 72.496819 121.47564 
L 74.148422 139.256221 
L 74.698957 129.86237 
L 75.249491 135.78923 
L 75.800026 126.395379 
L 76.901095 138.249099 
L 77.451629 128.855248 
L 78.002164 134.782108 
L 78.552698 125.388257 
L 80.204301 143.168838 
L 80.754836 133.774986 
L 81.30537 139.701847 
L 81.855905 130.307995 
L 82.406439 136.234856 
L 82.956974 126.841004 
L 83.507508 132.767865 
L 84.058043 123.374013 
L 84.608577 129.300874 
L 85.159112 119.907022 
L 86.260181 131.760743 
L 86.810715 122.366892 
L 87.36125 128.293752 
L 87.911784 118.8999 
L 89.012853 130.753621 
L 89.563387 121.35977 
L 90.664456 133.21349 
L 91.214991 123.819639 
L 91.765525 129.746499 
L 92.31606 120.352648 
L 92.866594 126.279508 
L 93.417129 116.885657 
L 93.967663 122.812517 
L 94.518198 113.418666 
L 95.068732 119.345526 
L 95.619267 109.951675 
L 96.720336 121.805396 
L 97.27087 112.411544 
L 98.371939 124.265265 
L 98.922473 114.871413 
L 99.473008 120.798274 
L 100.023542 111.404422 
L 101.124611 123.258143 
L 101.675146 113.864292 
L 102.22568 119.791152 
L 102.776215 110.397301 
L 103.326749 116.324161 
L 103.877284 106.93031 
L 104.427818 112.85717 
L 104.978353 103.463318 
L 105.528887 109.390179 
L 106.079422 99.996327 
L 107.18049 111.850048 
L 107.731025 102.456197 
L 108.281559 108.383057 
L 108.832094 98.989206 
L 109.933163 110.842926 
L 110.483697 101.449075 
L 111.584766 113.302796 
L 112.135301 103.908944 
L 112.685835 109.835805 
L 113.23637 100.441953 
L 115.438508 124.149395 
L 115.989042 114.755543 
L 117.640645 132.536124 
L 118.19118 123.142273 
L 118.741714 129.069133 
L 119.292249 119.675282 
L 120.943852 137.455863 
L 121.494387 128.062011 
L 122.595456 139.915732 
L 123.14599 130.521881 
L 123.696525 136.448741 
L 124.247059 127.05489 
L 124.797593 132.98175 
L 125.348128 123.587899 
L 125.898662 129.514759 
L 126.449197 120.120908 
L 126.999731 126.047768 
L 127.550266 116.653917 
L 128.651335 128.507637 
L 129.201869 119.113786 
L 130.853473 136.894367 
L 131.404007 127.500515 
L 131.954542 133.427376 
L 132.505076 124.033524 
L 133.055611 129.960385 
L 133.606145 120.566533 
L 134.156679 126.493394 
L 134.707214 117.099542 
L 135.257748 123.026403 
L 135.808283 113.632551 
L 136.358817 119.559412 
L 136.909352 110.16556 
L 137.459886 116.092421 
L 138.010421 106.698569 
L 138.560955 112.625429 
L 139.11149 103.231578 
L 140.212559 115.085299 
L 140.763093 105.691447 
L 141.864162 117.545168 
L 142.414697 108.151317 
L 143.515765 120.005037 
L 144.0663 110.611186 
L 144.616834 116.538046 
L 145.167369 107.144195 
L 146.268438 118.997916 
L 146.818972 109.604064 
L 148.470576 127.384645 
L 149.02111 117.990794 
L 149.571645 123.917654 
L 150.122179 114.523803 
L 150.672714 120.450663 
L 151.223248 111.056812 
L 151.773782 116.983672 
L 152.324317 107.589821 
L 152.874851 113.516681 
L 153.425386 104.12283 
L 153.97592 110.04969 
L 154.526455 100.655839 
L 155.627524 112.509559 
L 156.178058 103.115708 
L 156.728593 109.042568 
L 157.279127 99.648717 
L 157.829662 105.575577 
L 158.380196 96.181726 
L 158.930731 102.108586 
L 159.481265 92.714735 
L 160.0318 98.641595 
L 160.582334 89.247744 
L 161.132868 95.174604 
L 161.683403 85.780753 
L 162.233937 91.707613 
L 162.784472 82.313761 
L 165.537144 111.948063 
L 166.087679 102.554212 
L 166.638213 108.481072 
L 167.188748 99.087221 
L 167.739282 105.014081 
L 168.289817 95.62023 
L 168.840351 101.54709 
L 169.390885 92.153239 
L 171.593023 115.86068 
L 172.143558 106.466829 
L 172.694092 112.393689 
L 173.244627 102.999838 
L 175.446765 126.707279 
L 175.997299 117.313428 
L 177.098368 129.167148 
L 177.648903 119.773297 
L 178.749971 131.627018 
L 179.300506 122.233166 
L 179.85104 128.160027 
L 180.401575 118.766175 
L 182.053178 136.546756 
L 182.603713 127.152905 
L 184.805851 150.860346 
L 185.356385 141.466495 
L 186.457454 153.320216 
L 187.007989 143.926364 
L 188.109057 155.780085 
L 188.659592 146.386233 
L 189.210126 152.313094 
L 189.760661 142.919242 
L 190.86173 154.772963 
L 191.412264 145.379111 
L 191.962799 151.305972 
L 192.513333 141.91212 
L 193.063868 147.838981 
L 193.614402 138.445129 
L 194.164937 144.37199 
L 194.715471 134.978138 
L 195.266006 140.904998 
L 195.81654 131.511147 
L 196.367074 137.438007 
L 196.917609 128.044156 
L 198.569212 145.824737 
L 199.119747 136.430886 
L 199.670281 142.357746 
L 200.220816 132.963894 
L 200.77135 138.890755 
L 201.321885 129.496903 
L 201.872419 135.423764 
L 202.422954 126.029912 
L 202.973488 131.956773 
L 203.524023 122.562921 
L 204.074557 128.489782 
L 204.625092 119.09593 
L 205.175626 125.022791 
L 205.72616 115.628939 
L 206.276695 121.5558 
L 206.827229 112.161948 
L 207.377764 118.088808 
L 207.928298 108.694957 
L 209.029367 120.548678 
L 209.579902 111.154826 
L 211.78204 134.862268 
L 212.332574 125.468416 
L 215.085246 155.102718 
L 215.635781 145.708867 
L 217.287384 163.489448 
L 217.837919 154.095596 
L 218.388453 160.022456 
L 218.938988 150.628605 
L 219.489522 156.555465 
L 220.040057 147.161614 
L 220.590591 153.088474 
L 221.141126 143.694623 
L 221.69166 149.621483 
L 222.242195 140.227631 
L 222.792729 146.154492 
L 223.343263 136.76064 
L 224.444332 148.614361 
L 224.994867 139.22051 
L 225.545401 145.14737 
L 226.095936 135.753519 
L 226.64647 141.680379 
L 227.197005 132.286527 
L 227.747539 138.213388 
L 228.298074 128.819536 
L 228.848608 134.746397 
L 229.399143 125.352545 
L 229.949677 131.279406 
L 230.500212 121.885554 
L 232.151815 139.666135 
L 232.702349 130.272284 
L 233.803418 142.126005 
L 234.353953 132.732153 
L 234.904487 138.659014 
L 235.455022 129.265162 
L 236.005556 135.192023 
L 236.556091 125.798171 
L 238.758229 149.505613 
L 239.308763 140.111761 
L 240.960366 157.892342 
L 241.510901 148.498491 
L 242.61197 160.352211 
L 243.162504 150.95836 
L 244.263573 162.81208 
L 244.814108 153.418229 
L 245.364642 159.345089 
L 245.915177 149.951238 
L 247.016246 161.804958 
L 247.56678 152.411107 
L 248.667849 164.264827 
L 249.218384 154.870976 
L 250.319452 166.724696 
L 250.869987 157.330845 
L 251.420521 163.257705 
L 251.971056 153.863853 
L 252.52159 159.790714 
L 253.072125 150.396862 
L 253.622659 156.323723 
L 254.173194 146.929871 
L 255.824797 164.710452 
L 256.375332 155.3166 
L 256.925866 161.243461 
L 257.476401 151.849609 
L 258.577469 163.70333 
L 259.128004 154.309478 
L 260.229073 166.163199 
L 260.779607 156.769347 
L 261.330142 162.696208 
L 261.880676 153.302356 
L 262.981745 165.156077 
L 263.53228 155.762225 
L 265.183883 173.542806 
L 265.734418 164.148954 
L 266.835487 176.002675 
L 267.386021 166.608822 
L 267.936555 172.535683 
L 268.48709 163.14183 
L 270.689228 186.849272 
L 271.239762 177.455417 
L 271.790297 183.382277 
L 272.340831 173.988423 
L 272.891366 179.915284 
L 273.4419 170.521431 
L 274.542969 182.375151 
L 275.093504 172.981298 
L 276.745107 190.761879 
L 277.295641 181.368022 
L 278.39671 193.221742 
L 278.947245 183.827883 
L 280.048314 195.681604 
L 280.598848 186.287742 
L 281.149383 192.214603 
L 281.699917 182.820744 
L 282.800986 194.674465 
L 283.351521 185.280605 
L 283.902055 191.207465 
L 284.45259 181.813608 
L 285.003124 187.740468 
L 285.553658 178.346612 
L 286.104193 184.273473 
L 286.654727 174.879619 
L 287.205262 180.806479 
L 287.755796 171.412626 
L 288.306331 177.339486 
L 288.856865 167.945634 
L 289.4074 173.872494 
L 289.957934 164.478642 
L 290.508469 170.405502 
L 291.059003 161.01165 
L 292.160072 172.865371 
L 292.710607 163.471519 
L 293.261141 169.398379 
L 293.811676 160.004527 
L 295.463279 177.785108 
L 296.013813 168.391256 
L 296.564348 174.318116 
L 297.114882 164.924264 
L 298.215951 176.777984 
L 298.766486 167.384132 
L 300.418089 185.164713 
L 300.968624 175.770859 
L 301.519158 181.697719 
L 302.069693 172.303865 
L 302.620227 178.230726 
L 303.170761 168.836873 
L 303.721296 174.763733 
L 304.27183 165.369881 
L 308.125572 206.857904 
L 308.676106 197.464014 
L 309.226641 203.390875 
L 309.777175 193.996998 
L 310.32771 199.923858 
L 310.878244 190.52999 
L 311.428779 196.456851 
L 311.979313 187.062988 
L 313.080382 198.916709 
L 313.630916 189.522842 
L 314.731985 201.376563 
L 315.28252 191.982692 
L 315.833054 197.909552 
L 316.383589 188.515687 
L 316.934123 194.442548 
L 317.484658 185.048687 
L 318.035192 190.975548 
L 318.585727 181.58169 
L 319.136261 187.508551 
L 319.686796 178.114695 
L 320.23733 184.041556 
L 320.787865 174.647702 
L 321.338399 180.574562 
L 321.888933 171.180709 
L 322.990002 183.03443 
L 323.540537 173.640576 
L 324.091071 179.567436 
L 324.641606 170.173583 
L 325.19214 176.100444 
L 325.742675 166.706591 
L 326.293209 172.633452 
L 326.843744 163.239599 
L 327.394278 169.16646 
L 327.944813 159.772608 
L 328.495347 165.699468 
L 329.045882 156.305617 
L 330.697485 174.086198 
L 331.248019 164.692345 
L 332.349088 176.546066 
L 332.899623 167.152214 
L 334.000692 179.005934 
L 334.551226 169.612081 
L 335.101761 175.538942 
L 335.652295 166.145089 
L 336.20283 172.07195 
L 336.753364 162.678098 
L 337.303899 168.604958 
L 337.854433 159.211106 
L 338.404968 165.137967 
L 338.955502 155.744115 
L 340.056571 167.597836 
L 340.607105 158.203984 
L 341.15764 164.130844 
L 341.708174 154.736993 
L 342.258709 160.663853 
L 342.809243 151.270001 
L 345.561916 180.904303 
L 346.11245 171.51045 
L 347.213519 183.364171 
L 347.764053 173.970317 
L 348.865122 185.824037 
L 349.415657 176.430183 
L 350.516726 188.283904 
L 351.06726 178.890048 
L 352.718864 196.670629 
L 353.269398 187.276766 
L 354.921002 205.057347 
L 355.471536 195.663465 
L 356.022071 201.590325 
L 356.572605 192.196453 
L 359.325277 221.830755 
L 359.875812 212.436686 
L 360.976881 224.290407 
L 361.527415 214.896264 
L 363.179019 232.676846 
L 363.729553 223.282219 
L 365.381157 241.0628 
L 365.931691 231.666882 
L 366.482225 237.593742 
L 367.03276 228.198514 
L 370.335967 263.759676 
L 370.886501 254.336491 
L 371.98757 266.190212 
L 372.538105 256.757405 
L 373.639174 268.611126 
L 374.189708 259.165609 
L 374.740242 265.092469 
L 375.290777 255.664346 
L 375.841311 261.591207 
L 376.391846 252.174584 
L 378.043449 269.955165 
L 378.593984 260.500885 
L 379.144518 266.427745 
L 379.695053 256.993844 
L 380.245587 262.920704 
L 380.796122 253.500256 
L 381.346656 259.427117 
L 381.897191 250.015581 
L 382.99826 261.869301 
L 383.548794 252.451927 
L 384.649863 264.305647 
L 385.200397 254.880532 
L 385.750932 260.807393 
L 386.301466 251.392762 
L 387.402535 263.246483 
L 387.95307 253.825004 
L 388.503604 259.751864 
L 389.054139 250.339644 
L 389.604673 256.266504 
L 390.155208 246.860429 
L 391.256277 258.71415 
L 391.806811 249.304027 
L 392.357345 255.230887 
L 392.90788 245.826205 
L 393.458414 251.753066 
L 394.008949 242.352002 
L 394.559483 248.278862 
L 395.110018 238.880205 
L 396.211087 250.733926 
L 396.761621 241.333672 
L 398.413225 259.114253 
L 398.963759 249.703352 
L 399.514294 255.630212 
L 400.064828 246.225013 
L 400.615363 252.151873 
L 401.165897 242.750465 
L 402.266966 254.604185 
L 402.8175 245.200268 
L 403.368035 251.127129 
L 403.918569 241.726574 
L 405.019638 253.580294 
L 405.570173 244.177513 
L 406.120707 250.104373 
L 406.671242 240.704573 
L 407.221776 246.631434 
L 407.772311 237.233619 
L 408.322845 243.16048 
L 408.87338 233.763987 
L 409.423914 239.690847 
L 409.974449 230.295236 
L 410.524983 236.222096 
L 411.075517 226.827071 
L 412.727121 244.607652 
L 413.277655 235.210673 
L 413.82819 241.137533 
L 414.378724 231.741597 
L 414.929259 237.668457 
L 415.479793 228.273216 
L 416.030328 234.200077 
L 416.580862 224.805299 
L 418.783 248.51274 
L 419.333534 239.113951 
L 420.434603 250.967671 
L 420.985138 241.56724 
L 422.086207 253.420961 
L 422.636741 244.018344 
L 424.838879 267.725785 
L 425.389414 258.285336 
L 427.041017 276.065917 
L 427.591552 266.549033 
L 428.142086 272.475893 
L 428.69262 263.000992 
L 429.243155 268.927853 
L 429.793689 259.480392 
L 432.546362 289.114694 
L 433.096896 279.168996 
L 435.299034 302.876437 
L 435.299034 302.876437 
" style="fill:none;stroke:#ff7f0e;stroke-linecap:square;stroke-width:0.666667;"/>
   </g>
   <g id="patch_3">
    <path d="M 35.85875 316.4425 
L 35.85875 17.989125 
" style="fill:none;stroke:#000000;stroke-linecap:square;stroke-linejoin:miter;stroke-width:0.8;"/>
   </g>
   <g id="patch_4">
    <path d="M 454.32 316.4425 
L 454.32 17.989125 
" style="fill:none;stroke:#000000;stroke-linecap:square;stroke-linejoin:miter;stroke-width:0.8;"/>
   </g>
   <g id="patch_5">
    <path d="M 35.85875 316.4425 
L 454.32 316.4425 
" style="fill:none;stroke:#000000;stroke-linecap:square;stroke-linejoin:miter;stroke-width:0.8;"/>
   </g>
   <g id="patch_6">
    <path d="M 35.85875 17.989125 
L 454.32 17.989125 
" style="fill:none;stroke:#000000;stroke-linecap:square;stroke-linejoin:miter;stroke-width:0.8;"/>
   </g>
   <g id="text_18">
    <!-- "3y+1" problem -->
    <g transform="translate(214.747 11.989125)scale(0.072 -0.072)">
     <defs>
      <path d="M 43.703125 72.90625 
L 43.703125 45.796875 
L 35.203125 45.796875 
L 35.203125 72.90625 
z
M 25 72.90625 
L 25 45.796875 
L 16.5 45.796875 
L 16.5 72.90625 
z
" id="DejaVuSansMono-34"/>
      <path d="M 34.1875 57.171875 
L 34.1875 35.5 
L 55.90625 35.5 
L 55.90625 27.203125 
L 34.1875 27.203125 
L 34.1875 5.515625 
L 25.984375 5.515625 
L 25.984375 27.203125 
L 4.296875 27.203125 
L 4.296875 35.5 
L 25.984375 35.5 
L 25.984375 57.171875 
z
" id="DejaVuSansMono-43"/>
      <path id="DejaVuSansMono-32"/>
      <path d="M 18.3125 6.890625 
L 18.3125 -20.796875 
L 9.28125 -20.796875 
L 9.28125 54.6875 
L 18.3125 54.6875 
L 18.3125 47.703125 
Q 20.5625 51.765625 24.296875 53.875 
Q 28.03125 56 32.90625 56 
Q 42.828125 56 48.46875 48.328125 
Q 54.109375 40.671875 54.109375 27.09375 
Q 54.109375 13.765625 48.4375 6.171875 
Q 42.78125 -1.421875 32.90625 -1.421875 
Q 27.9375 -1.421875 24.1875 0.703125 
Q 20.453125 2.828125 18.3125 6.890625 
z
M 44.671875 27.296875 
Q 44.671875 37.75 41.375 43.0625 
Q 38.09375 48.390625 31.59375 48.390625 
Q 25.046875 48.390625 21.671875 43.046875 
Q 18.3125 37.703125 18.3125 27.296875 
Q 18.3125 16.9375 21.671875 11.5625 
Q 25.046875 6.203125 31.59375 6.203125 
Q 38.09375 6.203125 41.375 11.515625 
Q 44.671875 16.84375 44.671875 27.296875 
z
" id="DejaVuSansMono-112"/>
      <path d="M 56.390625 43.40625 
Q 53.515625 45.65625 50.53125 46.671875 
Q 47.5625 47.703125 44 47.703125 
Q 35.59375 47.703125 31.140625 42.421875 
Q 26.703125 37.15625 26.703125 27.203125 
L 26.703125 0 
L 17.671875 0 
L 17.671875 54.6875 
L 26.703125 54.6875 
L 26.703125 44 
Q 28.953125 49.8125 33.609375 52.90625 
Q 38.28125 56 44.671875 56 
Q 48 56 50.875 55.171875 
Q 53.765625 54.34375 56.390625 52.59375 
z
" id="DejaVuSansMono-114"/>
      <path d="M 30.078125 48.390625 
Q 23.25 48.390625 19.734375 43.0625 
Q 16.21875 37.75 16.21875 27.296875 
Q 16.21875 16.890625 19.734375 11.546875 
Q 23.25 6.203125 30.078125 6.203125 
Q 36.96875 6.203125 40.484375 11.546875 
Q 44 16.890625 44 27.296875 
Q 44 37.75 40.484375 43.0625 
Q 36.96875 48.390625 30.078125 48.390625 
z
M 30.078125 56 
Q 41.453125 56 47.484375 48.625 
Q 53.515625 41.265625 53.515625 27.296875 
Q 53.515625 13.28125 47.5 5.921875 
Q 41.5 -1.421875 30.078125 -1.421875 
Q 18.703125 -1.421875 12.6875 5.921875 
Q 6.6875 13.28125 6.6875 27.296875 
Q 6.6875 41.265625 12.6875 48.625 
Q 18.703125 56 30.078125 56 
z
" id="DejaVuSansMono-111"/>
      <path d="M 44.828125 27.296875 
Q 44.828125 37.75 41.5 43.0625 
Q 38.1875 48.390625 31.6875 48.390625 
Q 25.140625 48.390625 21.765625 43.046875 
Q 18.40625 37.703125 18.40625 27.296875 
Q 18.40625 16.9375 21.765625 11.5625 
Q 25.140625 6.203125 31.6875 6.203125 
Q 38.1875 6.203125 41.5 11.515625 
Q 44.828125 16.84375 44.828125 27.296875 
z
M 18.40625 47.703125 
Q 20.5625 51.703125 24.34375 53.84375 
Q 28.125 56 33.109375 56 
Q 42.96875 56 48.625 48.40625 
Q 54.296875 40.828125 54.296875 27.484375 
Q 54.296875 13.96875 48.609375 6.265625 
Q 42.921875 -1.421875 33.015625 -1.421875 
Q 28.125 -1.421875 24.390625 0.703125 
Q 20.65625 2.828125 18.40625 6.890625 
L 18.40625 0 
L 9.421875 0 
L 9.421875 75.984375 
L 18.40625 75.984375 
z
" id="DejaVuSansMono-98"/>
      <path d="M 31.203125 19.828125 
Q 31.203125 13.765625 33.421875 10.6875 
Q 35.640625 7.625 39.984375 7.625 
L 50.484375 7.625 
L 50.484375 0 
L 39.109375 0 
Q 31.0625 0 26.640625 5.171875 
Q 22.21875 10.359375 22.21875 19.828125 
L 22.21875 69.484375 
L 7.8125 69.484375 
L 7.8125 76.515625 
L 31.203125 76.515625 
z
" id="DejaVuSansMono-108"/>
      <path d="M 54.296875 29.59375 
L 54.296875 25.203125 
L 15.375 25.203125 
L 15.375 24.90625 
Q 15.375 15.96875 20.03125 11.078125 
Q 24.703125 6.203125 33.203125 6.203125 
Q 37.5 6.203125 42.1875 7.5625 
Q 46.875 8.9375 52.203125 11.71875 
L 52.203125 2.78125 
Q 47.078125 0.6875 42.3125 -0.359375 
Q 37.546875 -1.421875 33.109375 -1.421875 
Q 20.359375 -1.421875 13.171875 6.21875 
Q 6 13.875 6 27.296875 
Q 6 40.375 13.03125 48.1875 
Q 20.0625 56 31.78125 56 
Q 42.234375 56 48.265625 48.921875 
Q 54.296875 41.84375 54.296875 29.59375 
z
M 45.3125 32.234375 
Q 45.125 40.140625 41.578125 44.265625 
Q 38.03125 48.390625 31.390625 48.390625 
Q 24.90625 48.390625 20.703125 44.09375 
Q 16.5 39.796875 15.71875 32.171875 
z
" id="DejaVuSansMono-101"/>
      <path d="M 33.015625 49.125 
Q 34.671875 52.640625 37.234375 54.3125 
Q 39.796875 56 43.40625 56 
Q 50 56 52.703125 50.890625 
Q 55.421875 45.796875 55.421875 31.6875 
L 55.421875 0 
L 47.21875 0 
L 47.21875 31.296875 
Q 47.21875 42.875 45.921875 45.671875 
Q 44.625 48.484375 41.21875 48.484375 
Q 37.3125 48.484375 35.859375 45.484375 
Q 34.421875 42.484375 34.421875 31.296875 
L 34.421875 0 
L 26.21875 0 
L 26.21875 31.296875 
Q 26.21875 43.015625 24.828125 45.75 
Q 23.4375 48.484375 19.828125 48.484375 
Q 16.265625 48.484375 14.875 45.484375 
Q 13.484375 42.484375 13.484375 31.296875 
L 13.484375 0 
L 5.328125 0 
L 5.328125 54.6875 
L 13.484375 54.6875 
L 13.484375 50 
Q 15.09375 52.9375 17.5 54.46875 
Q 19.921875 56 23 56 
Q 26.703125 56 29.171875 54.296875 
Q 31.640625 52.59375 33.015625 49.125 
z
" id="DejaVuSansMono-109"/>
     </defs>
     <use xlink:href="#DejaVuSansMono-34"/>
     <use x="60.205078" xlink:href="#DejaVuSansMono-51"/>
     <use x="120.410156" xlink:href="#DejaVuSansMono-121"/>
     <use x="180.615234" xlink:href="#DejaVuSansMono-43"/>
     <use x="240.820312" xlink:href="#DejaVuSansMono-49"/>
     <use x="301.025391" xlink:href="#DejaVuSansMono-34"/>
     <use x="361.230469" xlink:href="#DejaVuSansMono-32"/>
     <use x="421.435547" xlink:href="#DejaVuSansMono-112"/>
     <use x="481.640625" xlink:href="#DejaVuSansMono-114"/>
     <use x="541.845703" xlink:href="#DejaVuSansMono-111"/>
     <use x="602.050781" xlink:href="#DejaVuSansMono-98"/>
     <use x="662.255859" xlink:href="#DejaVuSansMono-108"/>
     <use x="722.460938" xlink:href="#DejaVuSansMono-101"/>
     <use x="782.666016" xlink:href="#DejaVuSansMono-109"/>
    </g>
   </g>
   <g id="legend_1">
    <g id="patch_7">
     <path d="M 347.839688 82.0095 
L 450.12 82.0095 
Q 451.32 82.0095 451.32 80.8095 
L 451.32 22.189125 
Q 451.32 20.989125 450.12 20.989125 
L 347.839688 20.989125 
Q 346.639688 20.989125 346.639688 22.189125 
L 346.639688 80.8095 
Q 346.639688 82.0095 347.839688 82.0095 
z
" style="fill:#ffffff;opacity:0.8;stroke:#cccccc;stroke-linejoin:miter;"/>
    </g>
    <g id="line2d_18">
     <path d="M 349.039688 36.889687 
L 361.039688 36.889687 
" style="fill:none;stroke:#1f77b4;stroke-linecap:square;stroke-width:0.666667;"/>
    </g>
    <g id="line2d_19"/>
    <g id="text_19">
     <!-- "Tallest": -->
     <g transform="translate(365.839688 27.980062)scale(0.06 -0.06)">
      <defs>
       <path d="M 2.296875 72.90625 
L 57.90625 72.90625 
L 57.90625 64.59375 
L 35.109375 64.59375 
L 35.109375 0 
L 25.203125 0 
L 25.203125 64.59375 
L 2.296875 64.59375 
z
" id="DejaVuSansMono-84"/>
       <path d="M 34.28125 27.484375 
L 31.296875 27.484375 
Q 23.4375 27.484375 19.453125 24.71875 
Q 15.484375 21.96875 15.484375 16.5 
Q 15.484375 11.578125 18.453125 8.84375 
Q 21.4375 6.109375 26.703125 6.109375 
Q 34.125 6.109375 38.375 11.25 
Q 42.625 16.40625 42.671875 25.484375 
L 42.671875 27.484375 
z
M 51.703125 31.203125 
L 51.703125 0 
L 42.671875 0 
L 42.671875 8.109375 
Q 39.796875 3.21875 35.421875 0.890625 
Q 31.0625 -1.421875 24.8125 -1.421875 
Q 16.453125 -1.421875 11.46875 3.296875 
Q 6.5 8.015625 6.5 15.921875 
Q 6.5 25.046875 12.625 29.78125 
Q 18.75 34.515625 30.609375 34.515625 
L 42.671875 34.515625 
L 42.671875 35.9375 
Q 42.625 42.484375 39.34375 45.4375 
Q 36.078125 48.390625 28.90625 48.390625 
Q 24.3125 48.390625 19.625 47.0625 
Q 14.9375 45.75 10.5 43.21875 
L 10.5 52.203125 
Q 15.484375 54.109375 20.046875 55.046875 
Q 24.609375 56 28.90625 56 
Q 35.6875 56 40.5 54 
Q 45.3125 52 48.296875 48 
Q 50.140625 45.5625 50.921875 41.96875 
Q 51.703125 38.375 51.703125 31.203125 
z
" id="DejaVuSansMono-97"/>
       <path d="M 47.515625 52.78125 
L 47.515625 44 
Q 43.65625 46.234375 39.75 47.359375 
Q 35.84375 48.484375 31.78125 48.484375 
Q 25.6875 48.484375 22.671875 46.5 
Q 19.671875 44.53125 19.671875 40.484375 
Q 19.671875 36.8125 21.921875 35 
Q 24.171875 33.203125 33.109375 31.5 
L 36.71875 30.8125 
Q 43.40625 29.546875 46.84375 25.734375 
Q 50.296875 21.921875 50.296875 15.828125 
Q 50.296875 7.71875 44.53125 3.140625 
Q 38.765625 -1.421875 28.515625 -1.421875 
Q 24.46875 -1.421875 20.015625 -0.5625 
Q 15.578125 0.296875 10.40625 2 
L 10.40625 11.28125 
Q 15.4375 8.6875 20.015625 7.390625 
Q 24.609375 6.109375 28.71875 6.109375 
Q 34.671875 6.109375 37.9375 8.515625 
Q 41.21875 10.9375 41.21875 15.28125 
Q 41.21875 21.53125 29.25 23.921875 
L 28.859375 24.03125 
L 25.484375 24.703125 
Q 17.71875 26.21875 14.15625 29.8125 
Q 10.59375 33.40625 10.59375 39.59375 
Q 10.59375 47.46875 15.90625 51.734375 
Q 21.234375 56 31.109375 56 
Q 35.5 56 39.546875 55.1875 
Q 43.609375 54.390625 47.515625 52.78125 
z
" id="DejaVuSansMono-115"/>
       <path d="M 29.984375 70.21875 
L 29.984375 54.6875 
L 50.390625 54.6875 
L 50.390625 47.703125 
L 29.984375 47.703125 
L 29.984375 18.015625 
Q 29.984375 11.96875 32.28125 9.5625 
Q 34.578125 7.171875 40.28125 7.171875 
L 50.390625 7.171875 
L 50.390625 0 
L 39.40625 0 
Q 29.296875 0 25.140625 4.046875 
Q 21 8.109375 21 18.015625 
L 21 47.703125 
L 6.390625 47.703125 
L 6.390625 54.6875 
L 21 54.6875 
L 21 70.21875 
z
" id="DejaVuSansMono-116"/>
       <path d="M 23.875 51.90625 
L 36.1875 51.90625 
L 36.1875 37.109375 
L 23.875 37.109375 
z
M 23.875 14.890625 
L 36.1875 14.890625 
L 36.1875 0 
L 23.875 0 
z
" id="DejaVuSansMono-58"/>
      </defs>
      <use xlink:href="#DejaVuSansMono-34"/>
      <use x="60.205078" xlink:href="#DejaVuSansMono-84"/>
      <use x="120.410156" xlink:href="#DejaVuSansMono-97"/>
      <use x="180.615234" xlink:href="#DejaVuSansMono-108"/>
      <use x="240.820312" xlink:href="#DejaVuSansMono-108"/>
      <use x="301.025391" xlink:href="#DejaVuSansMono-101"/>
      <use x="361.230469" xlink:href="#DejaVuSansMono-115"/>
      <use x="421.435547" xlink:href="#DejaVuSansMono-116"/>
      <use x="481.640625" xlink:href="#DejaVuSansMono-34"/>
      <use x="541.845703" xlink:href="#DejaVuSansMono-58"/>
     </g>
     <!-- y_0    = 6631675 -->
     <g transform="translate(365.839688 34.737)scale(0.06 -0.06)">
      <defs>
       <path d="M 4.296875 25.59375 
L 55.90625 25.59375 
L 55.90625 17.1875 
L 4.296875 17.1875 
z
M 4.296875 45.40625 
L 55.90625 45.40625 
L 55.90625 37.109375 
L 4.296875 37.109375 
z
" id="DejaVuSansMono-61"/>
      </defs>
      <use xlink:href="#DejaVuSansMono-121"/>
      <use x="60.205078" xlink:href="#DejaVuSansMono-95"/>
      <use x="120.410156" xlink:href="#DejaVuSansMono-48"/>
      <use x="180.615234" xlink:href="#DejaVuSansMono-32"/>
      <use x="240.820312" xlink:href="#DejaVuSansMono-32"/>
      <use x="301.025391" xlink:href="#DejaVuSansMono-32"/>
      <use x="361.230469" xlink:href="#DejaVuSansMono-32"/>
      <use x="421.435547" xlink:href="#DejaVuSansMono-61"/>
      <use x="481.640625" xlink:href="#DejaVuSansMono-32"/>
      <use x="541.845703" xlink:href="#DejaVuSansMono-54"/>
      <use x="602.050781" xlink:href="#DejaVuSansMono-54"/>
      <use x="662.255859" xlink:href="#DejaVuSansMono-51"/>
      <use x="722.460938" xlink:href="#DejaVuSansMono-49"/>
      <use x="782.666016" xlink:href="#DejaVuSansMono-54"/>
      <use x="842.871094" xlink:href="#DejaVuSansMono-55"/>
      <use x="903.076172" xlink:href="#DejaVuSansMono-53"/>
     </g>
     <!-- y_max  = 60342610919632 -->
     <g transform="translate(365.839688 41.660812)scale(0.06 -0.06)">
      <defs>
       <path d="M 54.59375 54.6875 
L 35.015625 28.515625 
L 56.5 0 
L 46.09375 0 
L 30.078125 21.921875 
L 14.109375 0 
L 3.71875 0 
L 25.203125 28.515625 
L 5.609375 54.6875 
L 15.578125 54.6875 
L 30.078125 34.90625 
L 44.484375 54.6875 
z
" id="DejaVuSansMono-120"/>
      </defs>
      <use xlink:href="#DejaVuSansMono-121"/>
      <use x="60.205078" xlink:href="#DejaVuSansMono-95"/>
      <use x="120.410156" xlink:href="#DejaVuSansMono-109"/>
      <use x="180.615234" xlink:href="#DejaVuSansMono-97"/>
      <use x="240.820312" xlink:href="#DejaVuSansMono-120"/>
      <use x="301.025391" xlink:href="#DejaVuSansMono-32"/>
      <use x="361.230469" xlink:href="#DejaVuSansMono-32"/>
      <use x="421.435547" xlink:href="#DejaVuSansMono-61"/>
      <use x="481.640625" xlink:href="#DejaVuSansMono-32"/>
      <use x="541.845703" xlink:href="#DejaVuSansMono-54"/>
      <use x="602.050781" xlink:href="#DejaVuSansMono-48"/>
      <use x="662.255859" xlink:href="#DejaVuSansMono-51"/>
      <use x="722.460938" xlink:href="#DejaVuSansMono-52"/>
      <use x="782.666016" xlink:href="#DejaVuSansMono-50"/>
      <use x="842.871094" xlink:href="#DejaVuSansMono-54"/>
      <use x="903.076172" xlink:href="#DejaVuSansMono-49"/>
      <use x="963.28125" xlink:href="#DejaVuSansMono-48"/>
      <use x="1023.486328" xlink:href="#DejaVuSansMono-57"/>
      <use x="1083.691406" xlink:href="#DejaVuSansMono-49"/>
      <use x="1143.896484" xlink:href="#DejaVuSansMono-57"/>
      <use x="1204.101562" xlink:href="#DejaVuSansMono-54"/>
      <use x="1264.306641" xlink:href="#DejaVuSansMono-51"/>
      <use x="1324.511719" xlink:href="#DejaVuSansMono-50"/>
     </g>
     <!-- x_max  = 577 -->
     <g transform="translate(365.839688 48.584625)scale(0.06 -0.06)">
      <use xlink:href="#DejaVuSansMono-120"/>
      <use x="60.205078" xlink:href="#DejaVuSansMono-95"/>
      <use x="120.410156" xlink:href="#DejaVuSansMono-109"/>
      <use x="180.615234" xlink:href="#DejaVuSansMono-97"/>
      <use x="240.820312" xlink:href="#DejaVuSansMono-120"/>
      <use x="301.025391" xlink:href="#DejaVuSansMono-32"/>
      <use x="361.230469" xlink:href="#DejaVuSansMono-32"/>
      <use x="421.435547" xlink:href="#DejaVuSansMono-61"/>
      <use x="481.640625" xlink:href="#DejaVuSansMono-32"/>
      <use x="541.845703" xlink:href="#DejaVuSansMono-53"/>
      <use x="602.050781" xlink:href="#DejaVuSansMono-55"/>
      <use x="662.255859" xlink:href="#DejaVuSansMono-55"/>
     </g>
    </g>
    <g id="line2d_20">
     <path d="M 349.039688 66.499875 
L 361.039688 66.499875 
" style="fill:none;stroke:#ff7f0e;stroke-linecap:square;stroke-width:0.666667;"/>
    </g>
    <g id="line2d_21"/>
    <g id="text_20">
     <!-- "Widest":  -->
     <g transform="translate(365.839688 57.59025)scale(0.06 -0.06)">
      <defs>
       <path d="M 0 72.90625 
L 9.625 72.90625 
L 16.609375 13.71875 
L 24.90625 52.875 
L 35.203125 52.875 
L 43.609375 13.625 
L 50.59375 72.90625 
L 60.203125 72.90625 
L 49.3125 0 
L 39.984375 0 
L 30.078125 43.3125 
L 20.21875 0 
L 10.890625 0 
z
" id="DejaVuSansMono-87"/>
       <path d="M 12.5 54.6875 
L 35.5 54.6875 
L 35.5 6.984375 
L 53.328125 6.984375 
L 53.328125 0 
L 8.6875 0 
L 8.6875 6.984375 
L 26.515625 6.984375 
L 26.515625 47.703125 
L 12.5 47.703125 
z
M 26.515625 75.984375 
L 35.5 75.984375 
L 35.5 64.59375 
L 26.515625 64.59375 
z
" id="DejaVuSansMono-105"/>
       <path d="M 41.890625 47.703125 
L 41.890625 75.984375 
L 50.875 75.984375 
L 50.875 0 
L 41.890625 0 
L 41.890625 6.890625 
Q 39.65625 2.828125 35.90625 0.703125 
Q 32.171875 -1.421875 27.296875 -1.421875 
Q 17.390625 -1.421875 11.6875 6.265625 
Q 6 13.96875 6 27.484375 
Q 6 40.828125 11.71875 48.40625 
Q 17.4375 56 27.296875 56 
Q 32.234375 56 35.984375 53.875 
Q 39.75 51.765625 41.890625 47.703125 
z
M 15.484375 27.296875 
Q 15.484375 16.84375 18.796875 11.515625 
Q 22.125 6.203125 28.609375 6.203125 
Q 35.109375 6.203125 38.5 11.5625 
Q 41.890625 16.9375 41.890625 27.296875 
Q 41.890625 37.703125 38.5 43.046875 
Q 35.109375 48.390625 28.609375 48.390625 
Q 22.125 48.390625 18.796875 43.0625 
Q 15.484375 37.75 15.484375 27.296875 
z
" id="DejaVuSansMono-100"/>
      </defs>
      <use xlink:href="#DejaVuSansMono-34"/>
      <use x="60.205078" xlink:href="#DejaVuSansMono-87"/>
      <use x="120.410156" xlink:href="#DejaVuSansMono-105"/>
      <use x="180.615234" xlink:href="#DejaVuSansMono-100"/>
      <use x="240.820312" xlink:href="#DejaVuSansMono-101"/>
      <use x="301.025391" xlink:href="#DejaVuSansMono-115"/>
      <use x="361.230469" xlink:href="#DejaVuSansMono-116"/>
      <use x="421.435547" xlink:href="#DejaVuSansMono-34"/>
      <use x="481.640625" xlink:href="#DejaVuSansMono-58"/>
      <use x="541.845703" xlink:href="#DejaVuSansMono-32"/>
     </g>
     <!-- y_0    = 14934241 -->
     <g transform="translate(365.839688 64.347187)scale(0.06 -0.06)">
      <use xlink:href="#DejaVuSansMono-121"/>
      <use x="60.205078" xlink:href="#DejaVuSansMono-95"/>
      <use x="120.410156" xlink:href="#DejaVuSansMono-48"/>
      <use x="180.615234" xlink:href="#DejaVuSansMono-32"/>
      <use x="240.820312" xlink:href="#DejaVuSansMono-32"/>
      <use x="301.025391" xlink:href="#DejaVuSansMono-32"/>
      <use x="361.230469" xlink:href="#DejaVuSansMono-32"/>
      <use x="421.435547" xlink:href="#DejaVuSansMono-61"/>
      <use x="481.640625" xlink:href="#DejaVuSansMono-32"/>
      <use x="541.845703" xlink:href="#DejaVuSansMono-49"/>
      <use x="602.050781" xlink:href="#DejaVuSansMono-52"/>
      <use x="662.255859" xlink:href="#DejaVuSansMono-57"/>
      <use x="722.460938" xlink:href="#DejaVuSansMono-51"/>
      <use x="782.666016" xlink:href="#DejaVuSansMono-52"/>
      <use x="842.871094" xlink:href="#DejaVuSansMono-50"/>
      <use x="903.076172" xlink:href="#DejaVuSansMono-52"/>
      <use x="963.28125" xlink:href="#DejaVuSansMono-49"/>
     </g>
     <!-- y_max  = 159424614880 -->
     <g transform="translate(365.839688 71.271)scale(0.06 -0.06)">
      <defs>
       <path d="M 30.078125 34.625 
Q 23.484375 34.625 19.890625 30.9375 
Q 16.3125 27.25 16.3125 20.515625 
Q 16.3125 13.765625 19.9375 10.03125 
Q 23.578125 6.296875 30.078125 6.296875 
Q 36.71875 6.296875 40.296875 9.984375 
Q 43.890625 13.671875 43.890625 20.515625 
Q 43.890625 27.203125 40.25 30.90625 
Q 36.625 34.625 30.078125 34.625 
z
M 21.484375 38.71875 
Q 15.1875 40.328125 11.640625 44.71875 
Q 8.109375 49.125 8.109375 55.328125 
Q 8.109375 64.015625 14.015625 69.109375 
Q 19.921875 74.21875 30.078125 74.21875 
Q 40.28125 74.21875 46.1875 69.109375 
Q 52.09375 64.015625 52.09375 55.328125 
Q 52.09375 49.125 48.546875 44.71875 
Q 45.015625 40.328125 38.71875 38.71875 
Q 46.046875 37.109375 49.921875 32.21875 
Q 53.8125 27.34375 53.8125 19.578125 
Q 53.8125 9.71875 47.515625 4.140625 
Q 41.21875 -1.421875 30.078125 -1.421875 
Q 18.953125 -1.421875 12.671875 4.125 
Q 6.390625 9.671875 6.390625 19.484375 
Q 6.390625 27.296875 10.265625 32.203125 
Q 14.15625 37.109375 21.484375 38.71875 
z
M 17.921875 54.390625 
Q 17.921875 48.53125 21.046875 45.453125 
Q 24.171875 42.390625 30.078125 42.390625 
Q 36.03125 42.390625 39.15625 45.453125 
Q 42.28125 48.53125 42.28125 54.390625 
Q 42.28125 60.359375 39.171875 63.484375 
Q 36.078125 66.609375 30.078125 66.609375 
Q 24.171875 66.609375 21.046875 63.453125 
Q 17.921875 60.296875 17.921875 54.390625 
z
" id="DejaVuSansMono-56"/>
      </defs>
      <use xlink:href="#DejaVuSansMono-121"/>
      <use x="60.205078" xlink:href="#DejaVuSansMono-95"/>
      <use x="120.410156" xlink:href="#DejaVuSansMono-109"/>
      <use x="180.615234" xlink:href="#DejaVuSansMono-97"/>
      <use x="240.820312" xlink:href="#DejaVuSansMono-120"/>
      <use x="301.025391" xlink:href="#DejaVuSansMono-32"/>
      <use x="361.230469" xlink:href="#DejaVuSansMono-32"/>
      <use x="421.435547" xlink:href="#DejaVuSansMono-61"/>
      <use x="481.640625" xlink:href="#DejaVuSansMono-32"/>
      <use x="541.845703" xlink:href="#DejaVuSansMono-49"/>
      <use x="602.050781" xlink:href="#DejaVuSansMono-53"/>
      <use x="662.255859" xlink:href="#DejaVuSansMono-57"/>
      <use x="722.460938" xlink:href="#DejaVuSansMono-52"/>
      <use x="782.666016" xlink:href="#DejaVuSansMono-50"/>
      <use x="842.871094" xlink:href="#DejaVuSansMono-52"/>
      <use x="903.076172" xlink:href="#DejaVuSansMono-54"/>
      <use x="963.28125" xlink:href="#DejaVuSansMono-49"/>
      <use x="1023.486328" xlink:href="#DejaVuSansMono-52"/>
      <use x="1083.691406" xlink:href="#DejaVuSansMono-56"/>
      <use x="1143.896484" xlink:href="#DejaVuSansMono-56"/>
      <use x="1204.101562" xlink:href="#DejaVuSansMono-48"/>
     </g>
     <!-- x_max  = 692 -->
     <g transform="translate(365.839688 78.194812)scale(0.06 -0.06)">
      <use xlink:href="#DejaVuSansMono-120"/>
      <use x="60.205078" xlink:href="#DejaVuSansMono-95"/>
      <use x="120.410156" xlink:href="#DejaVuSansMono-109"/>
      <use x="180.615234" xlink:href="#DejaVuSansMono-97"/>
      <use x="240.820312" xlink:href="#DejaVuSansMono-120"/>
      <use x="301.025391" xlink:href="#DejaVuSansMono-32"/>
      <use x="361.230469" xlink:href="#DejaVuSansMono-32"/>
      <use x="421.435547" xlink:href="#DejaVuSansMono-61"/>
      <use x="481.640625" xlink:href="#DejaVuSansMono-32"/>
      <use x="541.845703" xlink:href="#DejaVuSansMono-54"/>
      <use x="602.050781" xlink:href="#DejaVuSansMono-57"/>
      <use x="662.255859" xlink:href="#DejaVuSansMono-50"/>
     </g>
    </g>
   </g>
  </g>
 </g>
 <defs>
  <clipPath id="p3a6687f162">
   <rect height="298.453375" width="418.46125" x="35.85875" y="17.989125"/>
  </clipPath>
 </defs>
</svg>
