<?xml version="1.0" encoding="utf-8" standalone="no"?>
<!DOCTYPE svg PUBLIC "-//W3C//DTD SVG 1.1//EN"
  "http://www.w3.org/Graphics/SVG/1.1/DTD/svg11.dtd">
<!-- Created with matplotlib (https://matplotlib.org/) -->
<svg height="345.6pt" version="1.1" viewBox="0 0 460.8 345.6" width="460.8pt" xmlns="http://www.w3.org/2000/svg" xmlns:xlink="http://www.w3.org/1999/xlink">
 <metadata>
  <rdf:RDF xmlns:cc="http://creativecommons.org/ns#" xmlns:dc="http://purl.org/dc/elements/1.1/" xmlns:rdf="http://www.w3.org/1999/02/22-rdf-syntax-ns#">
   <cc:Work>
    <dc:type rdf:resource="http://purl.org/dc/dcmitype/StillImage"/>
    <dc:date>2022-03-17T00:25:59.900666</dc:date>
    <dc:format>image/svg+xml</dc:format>
    <dc:creator>
     <cc:Agent>
      <dc:title>Matplotlib v3.3.2, https://matplotlib.org/</dc:title>
     </cc:Agent>
    </dc:creator>
   </cc:Work>
  </rdf:RDF>
 </metadata>
 <defs>
  <style type="text/css">*{stroke-linecap:butt;stroke-linejoin:round;}</style>
 </defs>
 <g id="figure_1">
  <g id="patch_1">
   <path d="M 0 345.6 
L 460.8 345.6 
L 460.8 0 
L 0 0 
z
" style="fill:#ffffff;"/>
  </g>
  <g id="axes_1">
   <g id="patch_2">
    <path d="M 35.85875 316.4425 
L 454.32 316.4425 
L 454.32 17.989125 
L 35.85875 17.989125 
z
" style="fill:#ffffff;"/>
   </g>
   <g id="matplotlib.axis_1">
    <g id="xtick_1">
     <g id="line2d_1">
      <defs>
       <path d="M 0 0 
L 0 3.5 
" id="m482aaa0109" style="stroke:#000000;stroke-width:0.8;"/>
      </defs>
      <g>
       <use style="stroke:#000000;stroke-width:0.8;" x="54.879716" xlink:href="#m482aaa0109" y="316.4425"/>
      </g>
     </g>
     <g id="text_1">
      <!-- 0 -->
      <g transform="translate(53.073622 328.033437)scale(0.06 -0.06)">
       <defs>
        <path d="M 23.578125 36.625 
Q 23.578125 39.3125 25.453125 41.265625 
Q 27.34375 43.21875 29.984375 43.21875 
Q 32.71875 43.21875 34.671875 41.265625 
Q 36.625 39.3125 36.625 36.625 
Q 36.625 33.890625 34.6875 31.984375 
Q 32.765625 30.078125 29.984375 30.078125 
Q 27.25 30.078125 25.40625 31.9375 
Q 23.578125 33.796875 23.578125 36.625 
z
M 30.078125 66.40625 
Q 23.1875 66.40625 19.796875 58.984375 
Q 16.40625 51.5625 16.40625 36.375 
Q 16.40625 21.234375 19.796875 13.8125 
Q 23.1875 6.390625 30.078125 6.390625 
Q 37.015625 6.390625 40.40625 13.8125 
Q 43.796875 21.234375 43.796875 36.375 
Q 43.796875 51.5625 40.40625 58.984375 
Q 37.015625 66.40625 30.078125 66.40625 
z
M 30.078125 74.21875 
Q 41.75 74.21875 47.734375 64.640625 
Q 53.71875 55.078125 53.71875 36.375 
Q 53.71875 17.71875 47.734375 8.140625 
Q 41.75 -1.421875 30.078125 -1.421875 
Q 18.40625 -1.421875 12.453125 8.140625 
Q 6.5 17.71875 6.5 36.375 
Q 6.5 55.078125 12.453125 64.640625 
Q 18.40625 74.21875 30.078125 74.21875 
z
" id="DejaVuSansMono-48"/>
       </defs>
       <use xlink:href="#DejaVuSansMono-48"/>
      </g>
     </g>
    </g>
    <g id="xtick_2">
     <g id="line2d_2">
      <g>
       <use style="stroke:#000000;stroke-width:0.8;" x="127.065545" xlink:href="#m482aaa0109" y="316.4425"/>
      </g>
     </g>
     <g id="text_2">
      <!-- 100 -->
      <g transform="translate(121.647264 328.033437)scale(0.06 -0.06)">
       <defs>
        <path d="M 13.1875 8.296875 
L 28.515625 8.296875 
L 28.515625 64.015625 
L 12.015625 60.296875 
L 12.015625 69.28125 
L 28.421875 72.90625 
L 38.28125 72.90625 
L 38.28125 8.296875 
L 53.421875 8.296875 
L 53.421875 0 
L 13.1875 0 
z
" id="DejaVuSansMono-49"/>
       </defs>
       <use xlink:href="#DejaVuSansMono-49"/>
       <use x="60.205078" xlink:href="#DejaVuSansMono-48"/>
       <use x="120.410156" xlink:href="#DejaVuSansMono-48"/>
      </g>
     </g>
    </g>
    <g id="xtick_3">
     <g id="line2d_3">
      <g>
       <use style="stroke:#000000;stroke-width:0.8;" x="199.251374" xlink:href="#m482aaa0109" y="316.4425"/>
      </g>
     </g>
     <g id="text_3">
      <!-- 200 -->
      <g transform="translate(193.833092 328.033437)scale(0.06 -0.06)">
       <defs>
        <path d="M 18.21875 8.296875 
L 51.703125 8.296875 
L 51.703125 0 
L 7.421875 0 
L 7.421875 8.296875 
Q 16.546875 17.921875 23.375 25.296875 
Q 30.21875 32.671875 32.8125 35.6875 
Q 37.703125 41.65625 39.40625 45.34375 
Q 41.109375 49.03125 41.109375 52.875 
Q 41.109375 58.984375 37.515625 62.453125 
Q 33.9375 65.921875 27.6875 65.921875 
Q 23.25 65.921875 18.359375 64.3125 
Q 13.484375 62.703125 8.015625 59.421875 
L 8.015625 69.390625 
Q 13.03125 71.78125 17.890625 73 
Q 22.75 74.21875 27.484375 74.21875 
Q 38.1875 74.21875 44.703125 68.53125 
Q 51.21875 62.84375 51.21875 53.609375 
Q 51.21875 48.921875 49.046875 44.234375 
Q 46.875 39.546875 42 33.890625 
Q 39.265625 30.71875 34.0625 25.09375 
Q 28.859375 19.484375 18.21875 8.296875 
z
" id="DejaVuSansMono-50"/>
       </defs>
       <use xlink:href="#DejaVuSansMono-50"/>
       <use x="60.205078" xlink:href="#DejaVuSansMono-48"/>
       <use x="120.410156" xlink:href="#DejaVuSansMono-48"/>
      </g>
     </g>
    </g>
    <g id="xtick_4">
     <g id="line2d_4">
      <g>
       <use style="stroke:#000000;stroke-width:0.8;" x="271.437203" xlink:href="#m482aaa0109" y="316.4425"/>
      </g>
     </g>
     <g id="text_4">
      <!-- 300 -->
      <g transform="translate(266.018921 328.033437)scale(0.06 -0.06)">
       <defs>
        <path d="M 37.890625 39.015625 
Q 45.0625 37.109375 48.875 32.25 
Q 52.6875 27.390625 52.6875 20.125 
Q 52.6875 10.0625 45.921875 4.3125 
Q 39.15625 -1.421875 27.203125 -1.421875 
Q 22.171875 -1.421875 16.9375 -0.484375 
Q 11.71875 0.4375 6.6875 2.203125 
L 6.6875 12.015625 
Q 11.671875 9.421875 16.5 8.15625 
Q 21.34375 6.890625 26.125 6.890625 
Q 34.234375 6.890625 38.578125 10.546875 
Q 42.921875 14.203125 42.921875 21.09375 
Q 42.921875 27.4375 38.578125 31.171875 
Q 34.234375 34.90625 26.8125 34.90625 
L 19.28125 34.90625 
L 19.28125 43.015625 
L 26.8125 43.015625 
Q 33.59375 43.015625 37.40625 45.984375 
Q 41.21875 48.96875 41.21875 54.296875 
Q 41.21875 59.90625 37.671875 62.90625 
Q 34.125 65.921875 27.59375 65.921875 
Q 23.25 65.921875 18.609375 64.9375 
Q 13.96875 63.96875 8.890625 62.015625 
L 8.890625 71.09375 
Q 14.796875 72.65625 19.40625 73.4375 
Q 24.03125 74.21875 27.59375 74.21875 
Q 38.234375 74.21875 44.609375 68.875 
Q 50.984375 63.53125 50.984375 54.6875 
Q 50.984375 48.6875 47.625 44.671875 
Q 44.28125 40.671875 37.890625 39.015625 
z
" id="DejaVuSansMono-51"/>
       </defs>
       <use xlink:href="#DejaVuSansMono-51"/>
       <use x="60.205078" xlink:href="#DejaVuSansMono-48"/>
       <use x="120.410156" xlink:href="#DejaVuSansMono-48"/>
      </g>
     </g>
    </g>
    <g id="xtick_5">
     <g id="line2d_5">
      <g>
       <use style="stroke:#000000;stroke-width:0.8;" x="343.623031" xlink:href="#m482aaa0109" y="316.4425"/>
      </g>
     </g>
     <g id="text_5">
      <!-- 400 -->
      <g transform="translate(338.20475 328.033437)scale(0.06 -0.06)">
       <defs>
        <path d="M 35.890625 63.921875 
L 12.890625 25.390625 
L 35.890625 25.390625 
z
M 34.28125 72.90625 
L 45.703125 72.90625 
L 45.703125 25.390625 
L 55.421875 25.390625 
L 55.421875 17.390625 
L 45.703125 17.390625 
L 45.703125 0 
L 35.890625 0 
L 35.890625 17.390625 
L 4.984375 17.390625 
L 4.984375 26.703125 
z
" id="DejaVuSansMono-52"/>
       </defs>
       <use xlink:href="#DejaVuSansMono-52"/>
       <use x="60.205078" xlink:href="#DejaVuSansMono-48"/>
       <use x="120.410156" xlink:href="#DejaVuSansMono-48"/>
      </g>
     </g>
    </g>
    <g id="xtick_6">
     <g id="line2d_6">
      <g>
       <use style="stroke:#000000;stroke-width:0.8;" x="415.80886" xlink:href="#m482aaa0109" y="316.4425"/>
      </g>
     </g>
     <g id="text_6">
      <!-- 500 -->
      <g transform="translate(410.390579 328.033437)scale(0.06 -0.06)">
       <defs>
        <path d="M 10.109375 72.90625 
L 47.015625 72.90625 
L 47.015625 64.59375 
L 19.09375 64.59375 
L 19.09375 46.6875 
Q 21.1875 47.46875 23.3125 47.828125 
Q 25.4375 48.1875 27.59375 48.1875 
Q 38.921875 48.1875 45.5625 41.5 
Q 52.203125 34.8125 52.203125 23.390625 
Q 52.203125 11.859375 45.234375 5.21875 
Q 38.28125 -1.421875 26.21875 -1.421875 
Q 20.40625 -1.421875 15.59375 -0.640625 
Q 10.796875 0.140625 6.984375 1.703125 
L 6.984375 11.71875 
Q 11.46875 9.28125 16.015625 8.078125 
Q 20.5625 6.890625 25.296875 6.890625 
Q 33.453125 6.890625 37.859375 11.1875 
Q 42.28125 15.484375 42.28125 23.390625 
Q 42.28125 31.203125 37.71875 35.546875 
Q 33.15625 39.890625 25 39.890625 
Q 21.046875 39.890625 17.28125 38.984375 
Q 13.53125 38.09375 10.109375 36.28125 
z
" id="DejaVuSansMono-53"/>
       </defs>
       <use xlink:href="#DejaVuSansMono-53"/>
       <use x="60.205078" xlink:href="#DejaVuSansMono-48"/>
       <use x="120.410156" xlink:href="#DejaVuSansMono-48"/>
      </g>
     </g>
    </g>
    <g id="text_7">
     <!-- n -->
     <g transform="translate(243.283281 337.872187)scale(0.06 -0.06)">
      <defs>
       <path d="M 51.3125 33.890625 
L 51.3125 0 
L 42.28125 0 
L 42.28125 33.890625 
Q 42.28125 41.265625 39.6875 44.71875 
Q 37.109375 48.1875 31.59375 48.1875 
Q 25.296875 48.1875 21.890625 43.71875 
Q 18.5 39.265625 18.5 30.90625 
L 18.5 0 
L 9.515625 0 
L 9.515625 54.6875 
L 18.5 54.6875 
L 18.5 46.484375 
Q 20.90625 51.171875 25 53.578125 
Q 29.109375 56 34.71875 56 
Q 43.0625 56 47.1875 50.5 
Q 51.3125 45.015625 51.3125 33.890625 
z
" id="DejaVuSansMono-110"/>
      </defs>
      <use xlink:href="#DejaVuSansMono-110"/>
     </g>
    </g>
   </g>
   <g id="matplotlib.axis_2">
    <g id="ytick_1">
     <g id="line2d_7">
      <defs>
       <path d="M 0 0 
L -3.5 0 
" id="mfd011b2e33" style="stroke:#000000;stroke-width:0.8;"/>
      </defs>
      <g>
       <use style="stroke:#000000;stroke-width:0.8;" x="35.85875" xlink:href="#mfd011b2e33" y="278.110443"/>
      </g>
     </g>
     <g id="text_8">
      <!-- $\mathdefault{10^{1}}$ -->
      <g transform="translate(18.83875 280.405912)scale(0.06 -0.06)">
       <use transform="translate(0 0.684375)" xlink:href="#DejaVuSansMono-49"/>
       <use transform="translate(60.205078 0.684375)" xlink:href="#DejaVuSansMono-48"/>
       <use transform="translate(121.367188 38.965625)scale(0.7)" xlink:href="#DejaVuSansMono-49"/>
      </g>
     </g>
    </g>
    <g id="ytick_2">
     <g id="line2d_8">
      <g>
       <use style="stroke:#000000;stroke-width:0.8;" x="35.85875" xlink:href="#mfd011b2e33" y="228.578455"/>
      </g>
     </g>
     <g id="text_9">
      <!-- $\mathdefault{10^{3}}$ -->
      <g transform="translate(18.83875 230.873924)scale(0.06 -0.06)">
       <use transform="translate(0 0.765625)" xlink:href="#DejaVuSansMono-49"/>
       <use transform="translate(60.205078 0.765625)" xlink:href="#DejaVuSansMono-48"/>
       <use transform="translate(121.367188 39.046875)scale(0.7)" xlink:href="#DejaVuSansMono-51"/>
      </g>
     </g>
    </g>
    <g id="ytick_3">
     <g id="line2d_9">
      <g>
       <use style="stroke:#000000;stroke-width:0.8;" x="35.85875" xlink:href="#mfd011b2e33" y="179.046466"/>
      </g>
     </g>
     <g id="text_10">
      <!-- $\mathdefault{10^{5}}$ -->
      <g transform="translate(18.83875 181.341935)scale(0.06 -0.06)">
       <use transform="translate(0 0.684375)" xlink:href="#DejaVuSansMono-49"/>
       <use transform="translate(60.205078 0.684375)" xlink:href="#DejaVuSansMono-48"/>
       <use transform="translate(121.367188 38.965625)scale(0.7)" xlink:href="#DejaVuSansMono-53"/>
      </g>
     </g>
    </g>
    <g id="ytick_4">
     <g id="line2d_10">
      <g>
       <use style="stroke:#000000;stroke-width:0.8;" x="35.85875" xlink:href="#mfd011b2e33" y="129.514478"/>
      </g>
     </g>
     <g id="text_11">
      <!-- $\mathdefault{10^{7}}$ -->
      <g transform="translate(18.83875 131.809947)scale(0.06 -0.06)">
       <defs>
        <path d="M 6.78125 72.90625 
L 52.6875 72.90625 
L 52.6875 68.703125 
L 26.609375 0 
L 16.3125 0 
L 41.703125 64.59375 
L 6.78125 64.59375 
z
" id="DejaVuSansMono-55"/>
       </defs>
       <use transform="translate(0 0.684375)" xlink:href="#DejaVuSansMono-49"/>
       <use transform="translate(60.205078 0.684375)" xlink:href="#DejaVuSansMono-48"/>
       <use transform="translate(121.367188 38.965625)scale(0.7)" xlink:href="#DejaVuSansMono-55"/>
      </g>
     </g>
    </g>
    <g id="ytick_5">
     <g id="line2d_11">
      <g>
       <use style="stroke:#000000;stroke-width:0.8;" x="35.85875" xlink:href="#mfd011b2e33" y="79.982489"/>
      </g>
     </g>
     <g id="text_12">
      <!-- $\mathdefault{10^{9}}$ -->
      <g transform="translate(18.83875 82.277958)scale(0.06 -0.06)">
       <defs>
        <path d="M 29.109375 32.328125 
Q 35.40625 32.328125 38.984375 36.859375 
Q 42.578125 41.40625 42.578125 49.421875 
Q 42.578125 57.421875 38.984375 61.953125 
Q 35.40625 66.5 29.109375 66.5 
Q 22.5625 66.5 19.234375 62.171875 
Q 15.921875 57.859375 15.921875 49.421875 
Q 15.921875 40.921875 19.21875 36.625 
Q 22.515625 32.328125 29.109375 32.328125 
z
M 11.53125 1.515625 
L 11.53125 10.59375 
Q 14.59375 8.796875 18.0625 7.84375 
Q 21.53125 6.890625 25.296875 6.890625 
Q 34.671875 6.890625 39.46875 13.9375 
Q 44.28125 21 44.28125 34.71875 
Q 42 29.828125 37.84375 27.21875 
Q 33.6875 24.609375 28.328125 24.609375 
Q 17.78125 24.609375 11.984375 31.09375 
Q 6.203125 37.59375 6.203125 49.515625 
Q 6.203125 61.28125 12.125 67.75 
Q 18.0625 74.21875 28.90625 74.21875 
Q 41.609375 74.21875 47.515625 65.078125 
Q 53.421875 55.953125 53.421875 36.375 
Q 53.421875 17.96875 46.3125 8.265625 
Q 39.203125 -1.421875 25.6875 -1.421875 
Q 22.125 -1.421875 18.5 -0.65625 
Q 14.890625 0.09375 11.53125 1.515625 
z
" id="DejaVuSansMono-57"/>
       </defs>
       <use transform="translate(0 0.765625)" xlink:href="#DejaVuSansMono-49"/>
       <use transform="translate(60.205078 0.765625)" xlink:href="#DejaVuSansMono-48"/>
       <use transform="translate(121.367188 39.046875)scale(0.7)" xlink:href="#DejaVuSansMono-57"/>
      </g>
     </g>
    </g>
    <g id="ytick_6">
     <g id="line2d_12">
      <g>
       <use style="stroke:#000000;stroke-width:0.8;" x="35.85875" xlink:href="#mfd011b2e33" y="30.450501"/>
      </g>
     </g>
     <g id="text_13">
      <!-- $\mathdefault{10^{11}}$ -->
      <g transform="translate(16.31875 32.74597)scale(0.06 -0.06)">
       <use transform="translate(0 0.684375)" xlink:href="#DejaVuSansMono-49"/>
       <use transform="translate(60.205078 0.684375)" xlink:href="#DejaVuSansMono-48"/>
       <use transform="translate(121.367188 38.965625)scale(0.7)" xlink:href="#DejaVuSansMono-49"/>
       <use transform="translate(163.510742 38.965625)scale(0.7)" xlink:href="#DejaVuSansMono-49"/>
      </g>
     </g>
    </g>
    <g id="text_14">
     <!-- y_n -->
     <g transform="translate(10.904063 172.634094)rotate(-90)scale(0.06 -0.06)">
      <defs>
       <path d="M 41.890625 17.578125 
Q 39.65625 11.859375 36.1875 2.546875 
Q 31.34375 -10.359375 29.6875 -13.1875 
Q 27.4375 -17 24.0625 -18.890625 
Q 20.703125 -20.796875 16.21875 -20.796875 
L 8.984375 -20.796875 
L 8.984375 -13.28125 
L 14.3125 -13.28125 
Q 18.265625 -13.28125 20.5 -10.984375 
Q 22.75 -8.6875 26.21875 0.875 
L 5.078125 54.6875 
L 14.59375 54.6875 
L 30.8125 11.921875 
L 46.78125 54.6875 
L 56.296875 54.6875 
z
" id="DejaVuSansMono-121"/>
       <path d="M 60.203125 -19.671875 
L 60.203125 -23.578125 
L 0 -23.578125 
L 0 -19.671875 
z
" id="DejaVuSansMono-95"/>
      </defs>
      <use xlink:href="#DejaVuSansMono-121"/>
      <use x="60.205078" xlink:href="#DejaVuSansMono-95"/>
      <use x="120.410156" xlink:href="#DejaVuSansMono-110"/>
     </g>
    </g>
   </g>
   <g id="line2d_13">
    <path clip-path="url(#pd30f3d643d)" d="M 54.879716 153.833512 
L 55.601574 142.017127 
L 56.323432 149.472434 
L 57.045291 137.656049 
L 57.767149 145.111356 
L 58.489007 133.294973 
L 59.210866 140.75028 
L 59.932724 128.933896 
L 60.654582 136.389204 
L 61.376441 124.572821 
L 62.098299 132.028128 
L 62.820157 120.211745 
L 63.542015 127.667052 
L 64.263874 115.85067 
L 64.985732 123.305977 
L 65.70759 111.489594 
L 66.429449 118.944902 
L 67.151307 107.128519 
L 67.873165 114.583826 
L 68.595023 102.767444 
L 69.316882 110.222751 
L 70.03874 98.406369 
L 71.482457 113.316983 
L 72.204315 101.500601 
L 72.926173 108.955908 
L 73.648031 97.139526 
L 74.36989 104.594833 
L 75.091748 92.77845 
L 76.535465 107.689065 
L 77.257323 95.872682 
L 79.422898 118.238604 
L 80.144756 106.422221 
L 80.866614 113.877529 
L 81.588473 102.061146 
L 82.310331 109.516453 
L 83.032189 97.700071 
L 83.754047 105.155378 
L 84.475906 93.338996 
L 85.197764 100.794303 
L 85.919622 88.977921 
L 86.641481 96.433228 
L 87.363339 84.616846 
L 88.085197 92.072153 
L 88.807055 80.255771 
L 89.528914 87.711078 
L 90.250772 75.894695 
L 90.97263 83.350003 
L 91.694489 71.53362 
L 92.416347 78.988928 
L 93.138205 67.172545 
L 95.30378 89.538467 
L 96.025638 77.722084 
L 96.747497 85.177392 
L 97.469355 73.361009 
L 98.191213 80.816316 
L 98.913072 68.999934 
L 100.356788 83.910548 
L 101.078646 72.094166 
L 101.800505 79.549473 
L 102.522363 67.733091 
L 103.96608 82.643705 
L 104.687938 70.827323 
L 106.853513 93.193245 
L 107.575371 81.376862 
L 109.019088 96.287477 
L 109.740946 84.471094 
L 110.462804 91.926401 
L 111.184662 80.110019 
L 111.906521 87.565326 
L 112.628379 75.748944 
L 113.350237 83.204251 
L 114.072096 71.387869 
L 114.793954 78.843176 
L 115.515812 67.026794 
L 117.681387 89.392715 
L 118.403245 77.576333 
L 119.125104 85.03164 
L 119.846962 73.215258 
L 122.734395 103.036486 
L 123.456253 91.220104 
L 124.89997 106.130718 
L 125.621828 94.314336 
L 126.343686 101.769643 
L 127.065545 89.953261 
L 127.787403 97.408568 
L 128.509261 85.592186 
L 129.23112 93.047493 
L 129.952978 81.231111 
L 130.674836 88.686418 
L 131.396695 76.870036 
L 132.118553 84.325343 
L 132.840411 72.508961 
L 133.562269 79.964268 
L 134.284128 68.147885 
L 135.005986 75.603193 
L 135.727844 63.78681 
L 137.893419 86.152732 
L 138.615277 74.33635 
L 139.337136 81.791657 
L 140.058994 69.975274 
L 140.780852 77.430582 
L 141.502711 65.614199 
L 142.224569 73.069506 
L 142.946427 61.253124 
L 143.668285 68.708431 
L 144.390144 56.892049 
L 145.112002 64.347356 
L 145.83386 52.530974 
L 147.999435 74.896895 
L 148.721293 63.080513 
L 150.886868 85.446435 
L 151.608727 73.630052 
L 152.330585 81.085359 
L 153.052443 69.268977 
L 153.774301 76.724284 
L 154.49616 64.907902 
L 155.218018 72.363209 
L 155.939876 60.546827 
L 157.383593 75.457441 
L 158.105451 63.641059 
L 158.827309 71.096366 
L 159.549168 59.279984 
L 160.271026 66.735291 
L 160.992884 54.918909 
L 161.714743 62.374216 
L 162.436601 50.557834 
L 165.324034 80.379062 
L 166.045892 68.56268 
L 166.767751 76.017987 
L 167.489609 64.201605 
L 168.211467 71.656912 
L 168.933326 59.84053 
L 169.655184 67.295837 
L 170.377042 55.479455 
L 171.820759 70.390069 
L 172.542617 58.573687 
L 173.986334 73.484301 
L 174.708192 61.667919 
L 175.43005 69.123226 
L 176.151908 57.306844 
L 176.873767 64.762151 
L 177.595625 52.945768 
L 178.317483 60.401076 
L 179.039342 48.584693 
L 180.483058 63.495308 
L 181.204916 51.678925 
L 182.648633 66.58954 
L 183.370491 54.773157 
L 184.814208 69.683772 
L 185.536066 57.867389 
L 186.257924 65.322697 
L 186.979783 53.506314 
L 187.701641 60.961621 
L 188.423499 49.145239 
L 189.145358 56.600546 
L 189.867216 44.784164 
L 190.589074 52.239471 
L 191.310932 40.423089 
L 192.754649 55.333703 
L 193.476507 43.517321 
L 194.198366 50.972628 
L 194.920224 39.156246 
L 195.642082 46.611553 
L 196.363941 34.795171 
L 198.529515 57.161092 
L 199.251374 45.34471 
L 199.973232 52.800017 
L 200.69509 40.983635 
L 201.416949 48.438942 
L 202.138807 36.62256 
L 202.860665 44.077867 
L 203.582523 32.261485 
L 205.02624 47.172099 
L 205.748098 35.355717 
L 207.191815 50.266331 
L 207.913673 38.449949 
L 210.079248 60.81587 
L 210.801106 48.999488 
L 211.522965 56.454795 
L 212.244823 44.638413 
L 212.966681 52.09372 
L 213.688539 40.277338 
L 214.410398 47.732645 
L 215.132256 35.916263 
L 215.854114 43.37157 
L 216.575973 31.555187 
L 220.907122 76.28703 
L 221.628981 64.470648 
L 222.350839 71.925955 
L 223.072697 60.109573 
L 223.794555 67.56488 
L 224.516414 55.748498 
L 226.681989 78.114419 
L 227.403847 66.298037 
L 228.847564 81.208651 
L 229.569422 69.392269 
L 231.734997 91.75819 
L 232.456855 79.941808 
L 233.178713 87.397115 
L 233.900572 75.580733 
L 234.62243 83.03604 
L 235.344288 71.219658 
L 236.066146 78.674965 
L 236.788005 66.858583 
L 237.509863 74.31389 
L 238.231721 62.497508 
L 238.95358 69.952815 
L 239.675438 58.136433 
L 240.397296 65.59174 
L 241.119154 53.775358 
L 244.728446 91.051893 
L 245.450304 79.235511 
L 249.059596 116.512047 
L 249.781454 104.695664 
L 257.000037 179.248736 
L 257.721895 167.432317 
L 259.165612 182.342931 
L 259.88747 170.5265 
L 260.609328 177.981807 
L 261.331186 166.165393 
L 264.21862 195.986621 
L 264.940478 184.170066 
L 267.106053 206.535987 
L 267.827911 194.719143 
L 268.549769 202.17445 
L 269.271628 190.35776 
L 271.437203 212.723682 
L 272.159061 200.906478 
L 272.880919 208.361785 
L 273.602777 196.544856 
L 274.324636 204.000163 
L 275.046494 192.183416 
L 275.768352 199.638723 
L 276.490211 187.822098 
L 280.82136 232.553941 
L 281.543219 220.732371 
L 282.265077 228.187678 
L 282.986935 216.367839 
L 285.15251 238.733761 
L 285.874368 226.908166 
L 288.761801 256.729394 
L 289.48366 244.864011 
L 290.927376 259.774625 
L 291.649235 247.893253 
L 292.371093 255.348561 
L 293.092951 243.489069 
L 293.814809 250.944376 
L 294.536668 239.09935 
L 296.702243 261.465272 
L 297.424101 249.572877 
L 298.145959 257.028184 
L 298.867818 245.161423 
L 299.589676 252.616731 
L 300.311534 240.766893 
L 301.033392 248.222201 
L 301.755251 236.383573 
L 303.198967 251.294187 
L 303.920826 239.448215 
L 305.364542 254.35883 
L 306.0864 242.503121 
L 306.808259 249.958428 
L 307.530117 238.115908 
L 308.973834 253.026522 
L 309.695692 241.175388 
L 310.41755 248.630695 
L 311.139408 236.791207 
L 311.861267 244.246514 
L 312.583125 232.414756 
L 314.026842 247.32537 
L 314.7487 235.48852 
L 315.470558 242.943827 
L 316.192416 231.113822 
L 316.914275 238.569129 
L 317.636133 226.743674 
L 318.357991 234.198981 
L 319.07985 222.376554 
L 320.523566 237.287169 
L 321.245424 225.462733 
L 323.410999 247.828654 
L 324.132858 235.990825 
L 324.854716 243.446132 
L 325.576574 231.615475 
L 326.298432 239.070782 
L 327.020291 227.244894 
L 328.464007 242.155509 
L 329.185866 230.326465 
L 329.907724 237.781772 
L 330.629582 225.956958 
L 332.073299 240.867572 
L 332.795157 229.039956 
L 333.517015 236.495264 
L 334.238874 224.671399 
L 334.960732 232.126706 
L 335.68259 220.305339 
L 336.404449 227.760646 
L 337.126307 215.940941 
L 337.848165 223.396249 
L 338.570023 211.577652 
L 339.291882 219.032959 
L 340.01374 207.215101 
L 342.179315 229.581022 
L 342.901173 217.760705 
L 343.623031 225.216013 
L 344.34489 213.397008 
L 345.066748 220.852315 
L 345.788606 209.034185 
L 346.510465 216.489492 
L 347.232323 204.671945 
L 350.119756 234.493173 
L 350.841614 222.670579 
L 352.285331 237.581193 
L 353.007189 225.756534 
L 354.450906 240.667149 
L 355.172764 228.839741 
L 358.060197 258.660969 
L 358.782055 246.785972 
L 360.94763 269.151894 
L 361.669489 257.18075 
L 362.391347 264.636057 
L 363.113205 252.717724 
L 363.835064 260.173031 
L 364.556922 248.289215 
L 368.166213 285.56575 
L 368.888072 273.055209 
L 371.775505 302.876437 
L 371.775505 302.876437 
" style="fill:none;stroke:#1f77b4;stroke-linecap:square;stroke-width:0.666667;"/>
   </g>
   <g id="line2d_14">
    <path clip-path="url(#pd30f3d643d)" d="M 54.879716 153.089762 
L 55.601574 141.273376 
L 57.045291 156.18399 
L 57.767149 144.367604 
L 58.489007 151.822911 
L 59.210866 140.006526 
L 59.932724 147.461833 
L 60.654582 135.645449 
L 62.098299 150.556063 
L 62.820157 138.739678 
L 63.542015 146.194986 
L 64.263874 134.378602 
L 65.70759 149.289216 
L 66.429449 137.472831 
L 67.151307 144.928139 
L 67.873165 133.111755 
L 68.595023 140.567062 
L 69.316882 128.750679 
L 70.03874 136.205986 
L 70.760598 124.389603 
L 72.204315 139.300217 
L 72.926173 127.483834 
L 73.648031 134.939141 
L 74.36989 123.122758 
L 75.091748 130.578065 
L 75.813606 118.761683 
L 76.535465 126.21699 
L 77.257323 114.400607 
L 77.979181 121.855915 
L 78.701039 110.039532 
L 79.422898 117.494839 
L 80.144756 105.678457 
L 80.866614 113.133764 
L 81.588473 101.317382 
L 83.032189 116.227996 
L 83.754047 104.411614 
L 84.475906 111.866921 
L 85.197764 100.050539 
L 85.919622 107.505846 
L 86.641481 95.689463 
L 87.363339 103.144771 
L 88.085197 91.328388 
L 88.807055 98.783695 
L 89.528914 86.967313 
L 90.250772 94.42262 
L 90.97263 82.606238 
L 91.694489 90.061545 
L 92.416347 78.245163 
L 93.138205 85.70047 
L 93.860064 73.884088 
L 95.30378 88.794702 
L 96.025638 76.97832 
L 96.747497 84.433627 
L 97.469355 72.617245 
L 98.191213 80.072552 
L 98.913072 68.25617 
L 103.96608 120.44332 
L 104.687938 108.626937 
L 105.409796 116.082244 
L 106.131654 104.265862 
L 108.297229 126.631783 
L 109.019088 114.815401 
L 109.740946 122.270708 
L 110.462804 110.454326 
L 111.184662 117.909633 
L 111.906521 106.09325 
L 112.628379 113.548557 
L 113.350237 101.732175 
L 114.072096 109.187482 
L 114.793954 97.3711 
L 115.515812 104.826407 
L 116.23767 93.010025 
L 116.959529 100.465332 
L 117.681387 88.64895 
L 118.403245 96.104257 
L 119.125104 84.287875 
L 121.290678 106.653796 
L 122.012537 94.837414 
L 122.734395 102.292721 
L 123.456253 90.476339 
L 124.178112 97.931646 
L 124.89997 86.115263 
L 126.343686 101.025878 
L 127.065545 89.209495 
L 127.787403 96.664803 
L 128.509261 84.84842 
L 129.952978 99.759035 
L 130.674836 87.942652 
L 131.396695 95.397959 
L 132.118553 83.581577 
L 133.562269 98.492191 
L 134.284128 86.675809 
L 135.005986 94.131116 
L 135.727844 82.314734 
L 137.171561 97.225348 
L 137.893419 85.408966 
L 138.615277 92.864273 
L 139.337136 81.047891 
L 140.058994 88.503198 
L 140.780852 76.686816 
L 141.502711 84.142123 
L 142.224569 72.325741 
L 144.390144 94.691662 
L 145.112002 82.87528 
L 147.999435 112.696508 
L 148.721293 100.880126 
L 149.443152 108.335433 
L 150.16501 96.519051 
L 150.886868 103.974358 
L 151.608727 92.157976 
L 152.330585 99.613283 
L 153.052443 87.796901 
L 153.774301 95.252208 
L 154.49616 83.435826 
L 155.939876 98.34644 
L 156.661735 86.530058 
L 158.827309 108.895979 
L 159.549168 97.079597 
L 162.436601 126.900825 
L 163.158459 115.084443 
L 164.602176 129.995057 
L 165.324034 118.178674 
L 166.045892 125.633982 
L 166.767751 113.817599 
L 167.489609 121.272906 
L 168.211467 109.456524 
L 168.933326 116.911831 
L 169.655184 105.095449 
L 172.542617 134.916677 
L 173.264475 123.100294 
L 174.708192 138.010909 
L 175.43005 126.194525 
L 177.595625 148.560447 
L 178.317483 136.744063 
L 180.483058 159.109984 
L 181.204916 147.293596 
L 181.926775 154.748903 
L 182.648633 142.932517 
L 183.370491 150.387824 
L 184.09235 138.57144 
L 184.814208 146.026747 
L 185.536066 134.210363 
L 186.979783 149.120977 
L 187.701641 137.304593 
L 189.145358 152.215207 
L 189.867216 140.398822 
L 191.310932 155.309436 
L 192.032791 143.49305 
L 192.754649 150.948357 
L 193.476507 139.131972 
L 194.198366 146.587279 
L 194.920224 134.770895 
L 195.642082 142.226202 
L 196.363941 130.409819 
L 197.085799 137.865126 
L 197.807657 126.048743 
L 199.973232 148.414664 
L 200.69509 136.59828 
L 201.416949 144.053587 
L 202.138807 132.237204 
L 202.860665 139.692511 
L 203.582523 127.876128 
L 205.748098 150.242049 
L 206.469957 138.425664 
L 207.191815 145.880971 
L 207.913673 134.064588 
L 208.635531 141.519895 
L 209.35739 129.703511 
L 211.522965 152.069433 
L 212.244823 140.253048 
L 212.966681 147.708355 
L 213.688539 135.891971 
L 214.410398 143.347278 
L 215.132256 131.530894 
L 215.854114 138.986201 
L 216.575973 127.169818 
L 217.297831 134.625125 
L 218.019689 122.808743 
L 218.741547 130.26405 
L 219.463406 118.447667 
L 220.907122 133.358281 
L 221.628981 121.541899 
L 222.350839 128.997206 
L 223.072697 117.180823 
L 223.794555 124.63613 
L 224.516414 112.819748 
L 225.238272 120.275055 
L 225.96013 108.458673 
L 227.403847 123.369287 
L 228.125705 111.552904 
L 230.29128 133.918826 
L 231.013138 122.102443 
L 231.734997 129.55775 
L 232.456855 117.741368 
L 233.900572 132.651982 
L 234.62243 120.835599 
L 235.344288 128.290906 
L 236.066146 116.474524 
L 236.788005 123.929831 
L 237.509863 112.113448 
L 238.231721 119.568755 
L 238.95358 107.752373 
L 239.675438 115.20768 
L 240.397296 103.391298 
L 241.119154 110.846605 
L 241.841013 99.030223 
L 244.006588 121.396144 
L 244.728446 109.579762 
L 246.172162 124.490376 
L 246.894021 112.673994 
L 247.615879 120.129301 
L 248.337737 108.312918 
L 249.781454 123.223533 
L 250.503312 111.40715 
L 251.22517 118.862457 
L 251.947029 107.046075 
L 252.668887 114.501382 
L 253.390745 102.685 
L 254.834462 117.595614 
L 255.55632 105.779232 
L 257.000037 120.689846 
L 257.721895 108.873463 
L 258.443753 116.328771 
L 259.165612 104.512388 
L 259.88747 111.967695 
L 260.609328 100.151313 
L 261.331186 107.60662 
L 262.053045 95.790238 
L 265.662336 133.066774 
L 266.384195 121.250391 
L 267.827911 136.161005 
L 268.549769 124.344622 
L 269.993486 139.255236 
L 270.715344 127.438853 
L 271.437203 134.89416 
L 272.159061 123.077778 
L 272.880919 130.533085 
L 273.602777 118.716702 
L 275.046494 133.627316 
L 275.768352 121.810934 
L 276.490211 129.266241 
L 277.212069 117.449858 
L 277.933927 124.905165 
L 278.655785 113.088783 
L 279.377644 120.54409 
L 280.099502 108.727708 
L 281.543219 123.638322 
L 282.265077 111.821939 
L 285.15251 141.643168 
L 285.874368 129.826785 
L 287.318085 144.737399 
L 288.039943 132.921015 
L 290.927376 162.742244 
L 291.649235 150.925854 
L 292.371093 158.381161 
L 293.092951 146.564773 
L 293.814809 154.02008 
L 294.536668 142.203695 
L 295.980384 157.114309 
L 296.702243 145.297922 
L 297.424101 152.753229 
L 298.145959 140.936844 
L 299.589676 155.847458 
L 300.311534 144.031072 
L 301.033392 151.486379 
L 301.755251 139.669994 
L 303.198967 154.580608 
L 303.920826 142.764222 
L 305.364542 157.674836 
L 306.0864 145.858449 
L 307.530117 160.769064 
L 308.251975 148.952675 
L 310.41755 171.318596 
L 311.139408 159.502196 
L 313.304983 181.868118 
L 314.026842 170.051689 
L 316.192416 192.41761 
L 316.914275 180.601104 
L 317.636133 188.056411 
L 318.357991 176.239946 
L 319.07985 183.695253 
L 319.801708 171.878816 
L 320.523566 179.334123 
L 321.245424 167.517704 
L 322.689141 182.428318 
L 323.410999 170.611887 
L 325.576574 192.977808 
L 326.298432 181.161295 
L 327.020291 188.616602 
L 327.742149 176.800132 
L 328.464007 184.25544 
L 329.185866 172.438999 
L 331.351441 194.804921 
L 332.073299 182.988383 
L 333.517015 197.898997 
L 334.238874 186.082408 
L 335.68259 200.993023 
L 336.404449 189.176364 
L 339.291882 218.997593 
L 340.01374 207.17974 
L 342.901173 237.000968 
L 343.623031 225.176744 
L 345.066748 240.087358 
L 345.788606 228.260528 
L 346.510465 235.715835 
L 347.232323 223.892494 
L 347.954181 231.347801 
L 348.676039 219.526781 
L 351.563473 249.34801 
L 352.285331 237.50693 
L 353.729047 252.417545 
L 354.450906 240.56832 
L 356.616481 262.934242 
L 357.338339 251.030768 
L 358.782055 265.941382 
L 359.503914 254.009964 
L 360.225772 261.465272 
L 360.94763 249.572877 
L 361.669489 257.028184 
L 362.391347 245.161423 
L 363.113205 252.616731 
L 363.835064 240.766893 
L 364.556922 248.222201 
L 365.27878 236.383573 
L 366.722497 251.294187 
L 367.444355 239.448215 
L 368.888072 254.35883 
L 369.60993 242.503121 
L 370.331788 249.958428 
L 371.053646 238.115908 
L 372.497363 253.026522 
L 373.219221 241.175388 
L 373.94108 248.630695 
L 374.662938 236.791207 
L 375.384796 244.246514 
L 376.106654 232.414756 
L 377.550371 247.32537 
L 378.272229 235.48852 
L 378.994088 242.943827 
L 379.715946 231.113822 
L 380.437804 238.569129 
L 381.159662 226.743674 
L 381.881521 234.198981 
L 382.603379 222.376554 
L 384.047096 237.287169 
L 384.768954 225.462733 
L 386.934529 247.828654 
L 387.656387 235.990825 
L 388.378245 243.446132 
L 389.100104 231.615475 
L 389.821962 239.070782 
L 390.54382 227.244894 
L 391.987537 242.155509 
L 392.709395 230.326465 
L 393.431253 237.781772 
L 394.153112 225.956958 
L 395.596828 240.867572 
L 396.318686 229.039956 
L 397.040545 236.495264 
L 397.762403 224.671399 
L 398.484261 232.126706 
L 399.20612 220.305339 
L 399.927978 227.760646 
L 400.649836 215.940941 
L 401.371695 223.396249 
L 402.093553 211.577652 
L 402.815411 219.032959 
L 403.537269 207.215101 
L 405.702844 229.581022 
L 406.424703 217.760705 
L 407.146561 225.216013 
L 407.868419 213.397008 
L 408.590277 220.852315 
L 409.312136 209.034185 
L 410.033994 216.489492 
L 410.755852 204.671945 
L 413.643285 234.493173 
L 414.365144 222.670579 
L 415.80886 237.581193 
L 416.530719 225.756534 
L 417.974435 240.667149 
L 418.696293 228.839741 
L 421.583727 258.660969 
L 422.305585 246.785972 
L 424.47116 269.151894 
L 425.193018 257.18075 
L 425.914876 264.636057 
L 426.636735 252.717724 
L 427.358593 260.173031 
L 428.080451 248.289215 
L 431.689743 285.56575 
L 432.411601 273.055209 
L 435.299034 302.876437 
L 435.299034 302.876437 
" style="fill:none;stroke:#ff7f0e;stroke-linecap:square;stroke-width:0.666667;"/>
   </g>
   <g id="patch_3">
    <path d="M 35.85875 316.4425 
L 35.85875 17.989125 
" style="fill:none;stroke:#000000;stroke-linecap:square;stroke-linejoin:miter;stroke-width:0.8;"/>
   </g>
   <g id="patch_4">
    <path d="M 454.32 316.4425 
L 454.32 17.989125 
" style="fill:none;stroke:#000000;stroke-linecap:square;stroke-linejoin:miter;stroke-width:0.8;"/>
   </g>
   <g id="patch_5">
    <path d="M 35.85875 316.4425 
L 454.32 316.4425 
" style="fill:none;stroke:#000000;stroke-linecap:square;stroke-linejoin:miter;stroke-width:0.8;"/>
   </g>
   <g id="patch_6">
    <path d="M 35.85875 17.989125 
L 454.32 17.989125 
" style="fill:none;stroke:#000000;stroke-linecap:square;stroke-linejoin:miter;stroke-width:0.8;"/>
   </g>
   <g id="text_15">
    <!-- "3y+1" problem -->
    <g transform="translate(214.747 11.989125)scale(0.072 -0.072)">
     <defs>
      <path d="M 43.703125 72.90625 
L 43.703125 45.796875 
L 35.203125 45.796875 
L 35.203125 72.90625 
z
M 25 72.90625 
L 25 45.796875 
L 16.5 45.796875 
L 16.5 72.90625 
z
" id="DejaVuSansMono-34"/>
      <path d="M 34.1875 57.171875 
L 34.1875 35.5 
L 55.90625 35.5 
L 55.90625 27.203125 
L 34.1875 27.203125 
L 34.1875 5.515625 
L 25.984375 5.515625 
L 25.984375 27.203125 
L 4.296875 27.203125 
L 4.296875 35.5 
L 25.984375 35.5 
L 25.984375 57.171875 
z
" id="DejaVuSansMono-43"/>
      <path id="DejaVuSansMono-32"/>
      <path d="M 18.3125 6.890625 
L 18.3125 -20.796875 
L 9.28125 -20.796875 
L 9.28125 54.6875 
L 18.3125 54.6875 
L 18.3125 47.703125 
Q 20.5625 51.765625 24.296875 53.875 
Q 28.03125 56 32.90625 56 
Q 42.828125 56 48.46875 48.328125 
Q 54.109375 40.671875 54.109375 27.09375 
Q 54.109375 13.765625 48.4375 6.171875 
Q 42.78125 -1.421875 32.90625 -1.421875 
Q 27.9375 -1.421875 24.1875 0.703125 
Q 20.453125 2.828125 18.3125 6.890625 
z
M 44.671875 27.296875 
Q 44.671875 37.75 41.375 43.0625 
Q 38.09375 48.390625 31.59375 48.390625 
Q 25.046875 48.390625 21.671875 43.046875 
Q 18.3125 37.703125 18.3125 27.296875 
Q 18.3125 16.9375 21.671875 11.5625 
Q 25.046875 6.203125 31.59375 6.203125 
Q 38.09375 6.203125 41.375 11.515625 
Q 44.671875 16.84375 44.671875 27.296875 
z
" id="DejaVuSansMono-112"/>
      <path d="M 56.390625 43.40625 
Q 53.515625 45.65625 50.53125 46.671875 
Q 47.5625 47.703125 44 47.703125 
Q 35.59375 47.703125 31.140625 42.421875 
Q 26.703125 37.15625 26.703125 27.203125 
L 26.703125 0 
L 17.671875 0 
L 17.671875 54.6875 
L 26.703125 54.6875 
L 26.703125 44 
Q 28.953125 49.8125 33.609375 52.90625 
Q 38.28125 56 44.671875 56 
Q 48 56 50.875 55.171875 
Q 53.765625 54.34375 56.390625 52.59375 
z
" id="DejaVuSansMono-114"/>
      <path d="M 30.078125 48.390625 
Q 23.25 48.390625 19.734375 43.0625 
Q 16.21875 37.75 16.21875 27.296875 
Q 16.21875 16.890625 19.734375 11.546875 
Q 23.25 6.203125 30.078125 6.203125 
Q 36.96875 6.203125 40.484375 11.546875 
Q 44 16.890625 44 27.296875 
Q 44 37.75 40.484375 43.0625 
Q 36.96875 48.390625 30.078125 48.390625 
z
M 30.078125 56 
Q 41.453125 56 47.484375 48.625 
Q 53.515625 41.265625 53.515625 27.296875 
Q 53.515625 13.28125 47.5 5.921875 
Q 41.5 -1.421875 30.078125 -1.421875 
Q 18.703125 -1.421875 12.6875 5.921875 
Q 6.6875 13.28125 6.6875 27.296875 
Q 6.6875 41.265625 12.6875 48.625 
Q 18.703125 56 30.078125 56 
z
" id="DejaVuSansMono-111"/>
      <path d="M 44.828125 27.296875 
Q 44.828125 37.75 41.5 43.0625 
Q 38.1875 48.390625 31.6875 48.390625 
Q 25.140625 48.390625 21.765625 43.046875 
Q 18.40625 37.703125 18.40625 27.296875 
Q 18.40625 16.9375 21.765625 11.5625 
Q 25.140625 6.203125 31.6875 6.203125 
Q 38.1875 6.203125 41.5 11.515625 
Q 44.828125 16.84375 44.828125 27.296875 
z
M 18.40625 47.703125 
Q 20.5625 51.703125 24.34375 53.84375 
Q 28.125 56 33.109375 56 
Q 42.96875 56 48.625 48.40625 
Q 54.296875 40.828125 54.296875 27.484375 
Q 54.296875 13.96875 48.609375 6.265625 
Q 42.921875 -1.421875 33.015625 -1.421875 
Q 28.125 -1.421875 24.390625 0.703125 
Q 20.65625 2.828125 18.40625 6.890625 
L 18.40625 0 
L 9.421875 0 
L 9.421875 75.984375 
L 18.40625 75.984375 
z
" id="DejaVuSansMono-98"/>
      <path d="M 31.203125 19.828125 
Q 31.203125 13.765625 33.421875 10.6875 
Q 35.640625 7.625 39.984375 7.625 
L 50.484375 7.625 
L 50.484375 0 
L 39.109375 0 
Q 31.0625 0 26.640625 5.171875 
Q 22.21875 10.359375 22.21875 19.828125 
L 22.21875 69.484375 
L 7.8125 69.484375 
L 7.8125 76.515625 
L 31.203125 76.515625 
z
" id="DejaVuSansMono-108"/>
      <path d="M 54.296875 29.59375 
L 54.296875 25.203125 
L 15.375 25.203125 
L 15.375 24.90625 
Q 15.375 15.96875 20.03125 11.078125 
Q 24.703125 6.203125 33.203125 6.203125 
Q 37.5 6.203125 42.1875 7.5625 
Q 46.875 8.9375 52.203125 11.71875 
L 52.203125 2.78125 
Q 47.078125 0.6875 42.3125 -0.359375 
Q 37.546875 -1.421875 33.109375 -1.421875 
Q 20.359375 -1.421875 13.171875 6.21875 
Q 6 13.875 6 27.296875 
Q 6 40.375 13.03125 48.1875 
Q 20.0625 56 31.78125 56 
Q 42.234375 56 48.265625 48.921875 
Q 54.296875 41.84375 54.296875 29.59375 
z
M 45.3125 32.234375 
Q 45.125 40.140625 41.578125 44.265625 
Q 38.03125 48.390625 31.390625 48.390625 
Q 24.90625 48.390625 20.703125 44.09375 
Q 16.5 39.796875 15.71875 32.171875 
z
" id="DejaVuSansMono-101"/>
      <path d="M 33.015625 49.125 
Q 34.671875 52.640625 37.234375 54.3125 
Q 39.796875 56 43.40625 56 
Q 50 56 52.703125 50.890625 
Q 55.421875 45.796875 55.421875 31.6875 
L 55.421875 0 
L 47.21875 0 
L 47.21875 31.296875 
Q 47.21875 42.875 45.921875 45.671875 
Q 44.625 48.484375 41.21875 48.484375 
Q 37.3125 48.484375 35.859375 45.484375 
Q 34.421875 42.484375 34.421875 31.296875 
L 34.421875 0 
L 26.21875 0 
L 26.21875 31.296875 
Q 26.21875 43.015625 24.828125 45.75 
Q 23.4375 48.484375 19.828125 48.484375 
Q 16.265625 48.484375 14.875 45.484375 
Q 13.484375 42.484375 13.484375 31.296875 
L 13.484375 0 
L 5.328125 0 
L 5.328125 54.6875 
L 13.484375 54.6875 
L 13.484375 50 
Q 15.09375 52.9375 17.5 54.46875 
Q 19.921875 56 23 56 
Q 26.703125 56 29.171875 54.296875 
Q 31.640625 52.59375 33.015625 49.125 
z
" id="DejaVuSansMono-109"/>
     </defs>
     <use xlink:href="#DejaVuSansMono-34"/>
     <use x="60.205078" xlink:href="#DejaVuSansMono-51"/>
     <use x="120.410156" xlink:href="#DejaVuSansMono-121"/>
     <use x="180.615234" xlink:href="#DejaVuSansMono-43"/>
     <use x="240.820312" xlink:href="#DejaVuSansMono-49"/>
     <use x="301.025391" xlink:href="#DejaVuSansMono-34"/>
     <use x="361.230469" xlink:href="#DejaVuSansMono-32"/>
     <use x="421.435547" xlink:href="#DejaVuSansMono-112"/>
     <use x="481.640625" xlink:href="#DejaVuSansMono-114"/>
     <use x="541.845703" xlink:href="#DejaVuSansMono-111"/>
     <use x="602.050781" xlink:href="#DejaVuSansMono-98"/>
     <use x="662.255859" xlink:href="#DejaVuSansMono-108"/>
     <use x="722.460938" xlink:href="#DejaVuSansMono-101"/>
     <use x="782.666016" xlink:href="#DejaVuSansMono-109"/>
    </g>
   </g>
   <g id="legend_1">
    <g id="patch_7">
     <path d="M 358.67625 82.0095 
L 450.12 82.0095 
Q 451.32 82.0095 451.32 80.8095 
L 451.32 22.189125 
Q 451.32 20.989125 450.12 20.989125 
L 358.67625 20.989125 
Q 357.47625 20.989125 357.47625 22.189125 
L 357.47625 80.8095 
Q 357.47625 82.0095 358.67625 82.0095 
z
" style="fill:#ffffff;opacity:0.8;stroke:#cccccc;stroke-linejoin:miter;"/>
    </g>
    <g id="line2d_15">
     <path d="M 359.87625 36.889687 
L 371.87625 36.889687 
" style="fill:none;stroke:#1f77b4;stroke-linecap:square;stroke-width:0.666667;"/>
    </g>
    <g id="line2d_16"/>
    <g id="text_16">
     <!-- "Tallest": -->
     <g transform="translate(376.67625 27.980062)scale(0.06 -0.06)">
      <defs>
       <path d="M 2.296875 72.90625 
L 57.90625 72.90625 
L 57.90625 64.59375 
L 35.109375 64.59375 
L 35.109375 0 
L 25.203125 0 
L 25.203125 64.59375 
L 2.296875 64.59375 
z
" id="DejaVuSansMono-84"/>
       <path d="M 34.28125 27.484375 
L 31.296875 27.484375 
Q 23.4375 27.484375 19.453125 24.71875 
Q 15.484375 21.96875 15.484375 16.5 
Q 15.484375 11.578125 18.453125 8.84375 
Q 21.4375 6.109375 26.703125 6.109375 
Q 34.125 6.109375 38.375 11.25 
Q 42.625 16.40625 42.671875 25.484375 
L 42.671875 27.484375 
z
M 51.703125 31.203125 
L 51.703125 0 
L 42.671875 0 
L 42.671875 8.109375 
Q 39.796875 3.21875 35.421875 0.890625 
Q 31.0625 -1.421875 24.8125 -1.421875 
Q 16.453125 -1.421875 11.46875 3.296875 
Q 6.5 8.015625 6.5 15.921875 
Q 6.5 25.046875 12.625 29.78125 
Q 18.75 34.515625 30.609375 34.515625 
L 42.671875 34.515625 
L 42.671875 35.9375 
Q 42.625 42.484375 39.34375 45.4375 
Q 36.078125 48.390625 28.90625 48.390625 
Q 24.3125 48.390625 19.625 47.0625 
Q 14.9375 45.75 10.5 43.21875 
L 10.5 52.203125 
Q 15.484375 54.109375 20.046875 55.046875 
Q 24.609375 56 28.90625 56 
Q 35.6875 56 40.5 54 
Q 45.3125 52 48.296875 48 
Q 50.140625 45.5625 50.921875 41.96875 
Q 51.703125 38.375 51.703125 31.203125 
z
" id="DejaVuSansMono-97"/>
       <path d="M 47.515625 52.78125 
L 47.515625 44 
Q 43.65625 46.234375 39.75 47.359375 
Q 35.84375 48.484375 31.78125 48.484375 
Q 25.6875 48.484375 22.671875 46.5 
Q 19.671875 44.53125 19.671875 40.484375 
Q 19.671875 36.8125 21.921875 35 
Q 24.171875 33.203125 33.109375 31.5 
L 36.71875 30.8125 
Q 43.40625 29.546875 46.84375 25.734375 
Q 50.296875 21.921875 50.296875 15.828125 
Q 50.296875 7.71875 44.53125 3.140625 
Q 38.765625 -1.421875 28.515625 -1.421875 
Q 24.46875 -1.421875 20.015625 -0.5625 
Q 15.578125 0.296875 10.40625 2 
L 10.40625 11.28125 
Q 15.4375 8.6875 20.015625 7.390625 
Q 24.609375 6.109375 28.71875 6.109375 
Q 34.671875 6.109375 37.9375 8.515625 
Q 41.21875 10.9375 41.21875 15.28125 
Q 41.21875 21.53125 29.25 23.921875 
L 28.859375 24.03125 
L 25.484375 24.703125 
Q 17.71875 26.21875 14.15625 29.8125 
Q 10.59375 33.40625 10.59375 39.59375 
Q 10.59375 47.46875 15.90625 51.734375 
Q 21.234375 56 31.109375 56 
Q 35.5 56 39.546875 55.1875 
Q 43.609375 54.390625 47.515625 52.78125 
z
" id="DejaVuSansMono-115"/>
       <path d="M 29.984375 70.21875 
L 29.984375 54.6875 
L 50.390625 54.6875 
L 50.390625 47.703125 
L 29.984375 47.703125 
L 29.984375 18.015625 
Q 29.984375 11.96875 32.28125 9.5625 
Q 34.578125 7.171875 40.28125 7.171875 
L 50.390625 7.171875 
L 50.390625 0 
L 39.40625 0 
Q 29.296875 0 25.140625 4.046875 
Q 21 8.109375 21 18.015625 
L 21 47.703125 
L 6.390625 47.703125 
L 6.390625 54.6875 
L 21 54.6875 
L 21 70.21875 
z
" id="DejaVuSansMono-116"/>
       <path d="M 23.875 51.90625 
L 36.1875 51.90625 
L 36.1875 37.109375 
L 23.875 37.109375 
z
M 23.875 14.890625 
L 36.1875 14.890625 
L 36.1875 0 
L 23.875 0 
z
" id="DejaVuSansMono-58"/>
      </defs>
      <use xlink:href="#DejaVuSansMono-34"/>
      <use x="60.205078" xlink:href="#DejaVuSansMono-84"/>
      <use x="120.410156" xlink:href="#DejaVuSansMono-97"/>
      <use x="180.615234" xlink:href="#DejaVuSansMono-108"/>
      <use x="240.820312" xlink:href="#DejaVuSansMono-108"/>
      <use x="301.025391" xlink:href="#DejaVuSansMono-101"/>
      <use x="361.230469" xlink:href="#DejaVuSansMono-115"/>
      <use x="421.435547" xlink:href="#DejaVuSansMono-116"/>
      <use x="481.640625" xlink:href="#DejaVuSansMono-34"/>
      <use x="541.845703" xlink:href="#DejaVuSansMono-58"/>
     </g>
     <!-- y_0    = 1042431 -->
     <g transform="translate(376.67625 34.737)scale(0.06 -0.06)">
      <defs>
       <path d="M 4.296875 25.59375 
L 55.90625 25.59375 
L 55.90625 17.1875 
L 4.296875 17.1875 
z
M 4.296875 45.40625 
L 55.90625 45.40625 
L 55.90625 37.109375 
L 4.296875 37.109375 
z
" id="DejaVuSansMono-61"/>
      </defs>
      <use xlink:href="#DejaVuSansMono-121"/>
      <use x="60.205078" xlink:href="#DejaVuSansMono-95"/>
      <use x="120.410156" xlink:href="#DejaVuSansMono-48"/>
      <use x="180.615234" xlink:href="#DejaVuSansMono-32"/>
      <use x="240.820312" xlink:href="#DejaVuSansMono-32"/>
      <use x="301.025391" xlink:href="#DejaVuSansMono-32"/>
      <use x="361.230469" xlink:href="#DejaVuSansMono-32"/>
      <use x="421.435547" xlink:href="#DejaVuSansMono-61"/>
      <use x="481.640625" xlink:href="#DejaVuSansMono-32"/>
      <use x="541.845703" xlink:href="#DejaVuSansMono-49"/>
      <use x="602.050781" xlink:href="#DejaVuSansMono-48"/>
      <use x="662.255859" xlink:href="#DejaVuSansMono-52"/>
      <use x="722.460938" xlink:href="#DejaVuSansMono-50"/>
      <use x="782.666016" xlink:href="#DejaVuSansMono-52"/>
      <use x="842.871094" xlink:href="#DejaVuSansMono-51"/>
      <use x="903.076172" xlink:href="#DejaVuSansMono-49"/>
     </g>
     <!-- y_max  = 90239155648 -->
     <g transform="translate(376.67625 41.660812)scale(0.06 -0.06)">
      <defs>
       <path d="M 54.59375 54.6875 
L 35.015625 28.515625 
L 56.5 0 
L 46.09375 0 
L 30.078125 21.921875 
L 14.109375 0 
L 3.71875 0 
L 25.203125 28.515625 
L 5.609375 54.6875 
L 15.578125 54.6875 
L 30.078125 34.90625 
L 44.484375 54.6875 
z
" id="DejaVuSansMono-120"/>
       <path d="M 48.390625 71.296875 
L 48.390625 62.203125 
Q 45.3125 64.015625 41.84375 64.96875 
Q 38.375 65.921875 34.625 65.921875 
Q 25.25 65.921875 20.40625 58.859375 
Q 15.578125 51.8125 15.578125 38.09375 
Q 17.921875 42.96875 22.0625 45.578125 
Q 26.21875 48.1875 31.59375 48.1875 
Q 42.140625 48.1875 47.921875 41.71875 
Q 53.71875 35.25 53.71875 23.390625 
Q 53.71875 11.578125 47.75 5.078125 
Q 41.796875 -1.421875 31 -1.421875 
Q 18.3125 -1.421875 12.40625 7.6875 
Q 6.5 16.796875 6.5 36.375 
Q 6.5 54.828125 13.59375 64.515625 
Q 20.703125 74.21875 34.1875 74.21875 
Q 37.796875 74.21875 41.40625 73.453125 
Q 45.015625 72.703125 48.390625 71.296875 
z
M 30.8125 40.484375 
Q 24.515625 40.484375 20.890625 35.9375 
Q 17.28125 31.390625 17.28125 23.390625 
Q 17.28125 15.375 20.890625 10.828125 
Q 24.515625 6.296875 30.8125 6.296875 
Q 37.359375 6.296875 40.671875 10.609375 
Q 44 14.9375 44 23.390625 
Q 44 31.890625 40.671875 36.1875 
Q 37.359375 40.484375 30.8125 40.484375 
z
" id="DejaVuSansMono-54"/>
       <path d="M 30.078125 34.625 
Q 23.484375 34.625 19.890625 30.9375 
Q 16.3125 27.25 16.3125 20.515625 
Q 16.3125 13.765625 19.9375 10.03125 
Q 23.578125 6.296875 30.078125 6.296875 
Q 36.71875 6.296875 40.296875 9.984375 
Q 43.890625 13.671875 43.890625 20.515625 
Q 43.890625 27.203125 40.25 30.90625 
Q 36.625 34.625 30.078125 34.625 
z
M 21.484375 38.71875 
Q 15.1875 40.328125 11.640625 44.71875 
Q 8.109375 49.125 8.109375 55.328125 
Q 8.109375 64.015625 14.015625 69.109375 
Q 19.921875 74.21875 30.078125 74.21875 
Q 40.28125 74.21875 46.1875 69.109375 
Q 52.09375 64.015625 52.09375 55.328125 
Q 52.09375 49.125 48.546875 44.71875 
Q 45.015625 40.328125 38.71875 38.71875 
Q 46.046875 37.109375 49.921875 32.21875 
Q 53.8125 27.34375 53.8125 19.578125 
Q 53.8125 9.71875 47.515625 4.140625 
Q 41.21875 -1.421875 30.078125 -1.421875 
Q 18.953125 -1.421875 12.671875 4.125 
Q 6.390625 9.671875 6.390625 19.484375 
Q 6.390625 27.296875 10.265625 32.203125 
Q 14.15625 37.109375 21.484375 38.71875 
z
M 17.921875 54.390625 
Q 17.921875 48.53125 21.046875 45.453125 
Q 24.171875 42.390625 30.078125 42.390625 
Q 36.03125 42.390625 39.15625 45.453125 
Q 42.28125 48.53125 42.28125 54.390625 
Q 42.28125 60.359375 39.171875 63.484375 
Q 36.078125 66.609375 30.078125 66.609375 
Q 24.171875 66.609375 21.046875 63.453125 
Q 17.921875 60.296875 17.921875 54.390625 
z
" id="DejaVuSansMono-56"/>
      </defs>
      <use xlink:href="#DejaVuSansMono-121"/>
      <use x="60.205078" xlink:href="#DejaVuSansMono-95"/>
      <use x="120.410156" xlink:href="#DejaVuSansMono-109"/>
      <use x="180.615234" xlink:href="#DejaVuSansMono-97"/>
      <use x="240.820312" xlink:href="#DejaVuSansMono-120"/>
      <use x="301.025391" xlink:href="#DejaVuSansMono-32"/>
      <use x="361.230469" xlink:href="#DejaVuSansMono-32"/>
      <use x="421.435547" xlink:href="#DejaVuSansMono-61"/>
      <use x="481.640625" xlink:href="#DejaVuSansMono-32"/>
      <use x="541.845703" xlink:href="#DejaVuSansMono-57"/>
      <use x="602.050781" xlink:href="#DejaVuSansMono-48"/>
      <use x="662.255859" xlink:href="#DejaVuSansMono-50"/>
      <use x="722.460938" xlink:href="#DejaVuSansMono-51"/>
      <use x="782.666016" xlink:href="#DejaVuSansMono-57"/>
      <use x="842.871094" xlink:href="#DejaVuSansMono-49"/>
      <use x="903.076172" xlink:href="#DejaVuSansMono-53"/>
      <use x="963.28125" xlink:href="#DejaVuSansMono-53"/>
      <use x="1023.486328" xlink:href="#DejaVuSansMono-54"/>
      <use x="1083.691406" xlink:href="#DejaVuSansMono-52"/>
      <use x="1143.896484" xlink:href="#DejaVuSansMono-56"/>
     </g>
     <!-- x_max  = 440 -->
     <g transform="translate(376.67625 48.584625)scale(0.06 -0.06)">
      <use xlink:href="#DejaVuSansMono-120"/>
      <use x="60.205078" xlink:href="#DejaVuSansMono-95"/>
      <use x="120.410156" xlink:href="#DejaVuSansMono-109"/>
      <use x="180.615234" xlink:href="#DejaVuSansMono-97"/>
      <use x="240.820312" xlink:href="#DejaVuSansMono-120"/>
      <use x="301.025391" xlink:href="#DejaVuSansMono-32"/>
      <use x="361.230469" xlink:href="#DejaVuSansMono-32"/>
      <use x="421.435547" xlink:href="#DejaVuSansMono-61"/>
      <use x="481.640625" xlink:href="#DejaVuSansMono-32"/>
      <use x="541.845703" xlink:href="#DejaVuSansMono-52"/>
      <use x="602.050781" xlink:href="#DejaVuSansMono-52"/>
      <use x="662.255859" xlink:href="#DejaVuSansMono-48"/>
     </g>
    </g>
    <g id="line2d_17">
     <path d="M 359.87625 66.499875 
L 371.87625 66.499875 
" style="fill:none;stroke:#ff7f0e;stroke-linecap:square;stroke-width:0.666667;"/>
    </g>
    <g id="line2d_18"/>
    <g id="text_17">
     <!-- "Widest":  -->
     <g transform="translate(376.67625 57.59025)scale(0.06 -0.06)">
      <defs>
       <path d="M 0 72.90625 
L 9.625 72.90625 
L 16.609375 13.71875 
L 24.90625 52.875 
L 35.203125 52.875 
L 43.609375 13.625 
L 50.59375 72.90625 
L 60.203125 72.90625 
L 49.3125 0 
L 39.984375 0 
L 30.078125 43.3125 
L 20.21875 0 
L 10.890625 0 
z
" id="DejaVuSansMono-87"/>
       <path d="M 12.5 54.6875 
L 35.5 54.6875 
L 35.5 6.984375 
L 53.328125 6.984375 
L 53.328125 0 
L 8.6875 0 
L 8.6875 6.984375 
L 26.515625 6.984375 
L 26.515625 47.703125 
L 12.5 47.703125 
z
M 26.515625 75.984375 
L 35.5 75.984375 
L 35.5 64.59375 
L 26.515625 64.59375 
z
" id="DejaVuSansMono-105"/>
       <path d="M 41.890625 47.703125 
L 41.890625 75.984375 
L 50.875 75.984375 
L 50.875 0 
L 41.890625 0 
L 41.890625 6.890625 
Q 39.65625 2.828125 35.90625 0.703125 
Q 32.171875 -1.421875 27.296875 -1.421875 
Q 17.390625 -1.421875 11.6875 6.265625 
Q 6 13.96875 6 27.484375 
Q 6 40.828125 11.71875 48.40625 
Q 17.4375 56 27.296875 56 
Q 32.234375 56 35.984375 53.875 
Q 39.75 51.765625 41.890625 47.703125 
z
M 15.484375 27.296875 
Q 15.484375 16.84375 18.796875 11.515625 
Q 22.125 6.203125 28.609375 6.203125 
Q 35.109375 6.203125 38.5 11.5625 
Q 41.890625 16.9375 41.890625 27.296875 
Q 41.890625 37.703125 38.5 43.046875 
Q 35.109375 48.390625 28.609375 48.390625 
Q 22.125 48.390625 18.796875 43.0625 
Q 15.484375 37.75 15.484375 27.296875 
z
" id="DejaVuSansMono-100"/>
      </defs>
      <use xlink:href="#DejaVuSansMono-34"/>
      <use x="60.205078" xlink:href="#DejaVuSansMono-87"/>
      <use x="120.410156" xlink:href="#DejaVuSansMono-105"/>
      <use x="180.615234" xlink:href="#DejaVuSansMono-100"/>
      <use x="240.820312" xlink:href="#DejaVuSansMono-101"/>
      <use x="301.025391" xlink:href="#DejaVuSansMono-115"/>
      <use x="361.230469" xlink:href="#DejaVuSansMono-116"/>
      <use x="421.435547" xlink:href="#DejaVuSansMono-34"/>
      <use x="481.640625" xlink:href="#DejaVuSansMono-58"/>
      <use x="541.845703" xlink:href="#DejaVuSansMono-32"/>
     </g>
     <!-- y_0    = 1117065 -->
     <g transform="translate(376.67625 64.347187)scale(0.06 -0.06)">
      <use xlink:href="#DejaVuSansMono-121"/>
      <use x="60.205078" xlink:href="#DejaVuSansMono-95"/>
      <use x="120.410156" xlink:href="#DejaVuSansMono-48"/>
      <use x="180.615234" xlink:href="#DejaVuSansMono-32"/>
      <use x="240.820312" xlink:href="#DejaVuSansMono-32"/>
      <use x="301.025391" xlink:href="#DejaVuSansMono-32"/>
      <use x="361.230469" xlink:href="#DejaVuSansMono-32"/>
      <use x="421.435547" xlink:href="#DejaVuSansMono-61"/>
      <use x="481.640625" xlink:href="#DejaVuSansMono-32"/>
      <use x="541.845703" xlink:href="#DejaVuSansMono-49"/>
      <use x="602.050781" xlink:href="#DejaVuSansMono-49"/>
      <use x="662.255859" xlink:href="#DejaVuSansMono-49"/>
      <use x="722.460938" xlink:href="#DejaVuSansMono-55"/>
      <use x="782.666016" xlink:href="#DejaVuSansMono-48"/>
      <use x="842.871094" xlink:href="#DejaVuSansMono-54"/>
      <use x="903.076172" xlink:href="#DejaVuSansMono-53"/>
     </g>
     <!-- y_max  = 2974984576 -->
     <g transform="translate(376.67625 71.271)scale(0.06 -0.06)">
      <use xlink:href="#DejaVuSansMono-121"/>
      <use x="60.205078" xlink:href="#DejaVuSansMono-95"/>
      <use x="120.410156" xlink:href="#DejaVuSansMono-109"/>
      <use x="180.615234" xlink:href="#DejaVuSansMono-97"/>
      <use x="240.820312" xlink:href="#DejaVuSansMono-120"/>
      <use x="301.025391" xlink:href="#DejaVuSansMono-32"/>
      <use x="361.230469" xlink:href="#DejaVuSansMono-32"/>
      <use x="421.435547" xlink:href="#DejaVuSansMono-61"/>
      <use x="481.640625" xlink:href="#DejaVuSansMono-32"/>
      <use x="541.845703" xlink:href="#DejaVuSansMono-50"/>
      <use x="602.050781" xlink:href="#DejaVuSansMono-57"/>
      <use x="662.255859" xlink:href="#DejaVuSansMono-55"/>
      <use x="722.460938" xlink:href="#DejaVuSansMono-52"/>
      <use x="782.666016" xlink:href="#DejaVuSansMono-57"/>
      <use x="842.871094" xlink:href="#DejaVuSansMono-56"/>
      <use x="903.076172" xlink:href="#DejaVuSansMono-52"/>
      <use x="963.28125" xlink:href="#DejaVuSansMono-53"/>
      <use x="1023.486328" xlink:href="#DejaVuSansMono-55"/>
      <use x="1083.691406" xlink:href="#DejaVuSansMono-54"/>
     </g>
     <!-- x_max  = 528 -->
     <g transform="translate(376.67625 78.194812)scale(0.06 -0.06)">
      <use xlink:href="#DejaVuSansMono-120"/>
      <use x="60.205078" xlink:href="#DejaVuSansMono-95"/>
      <use x="120.410156" xlink:href="#DejaVuSansMono-109"/>
      <use x="180.615234" xlink:href="#DejaVuSansMono-97"/>
      <use x="240.820312" xlink:href="#DejaVuSansMono-120"/>
      <use x="301.025391" xlink:href="#DejaVuSansMono-32"/>
      <use x="361.230469" xlink:href="#DejaVuSansMono-32"/>
      <use x="421.435547" xlink:href="#DejaVuSansMono-61"/>
      <use x="481.640625" xlink:href="#DejaVuSansMono-32"/>
      <use x="541.845703" xlink:href="#DejaVuSansMono-53"/>
      <use x="602.050781" xlink:href="#DejaVuSansMono-50"/>
      <use x="662.255859" xlink:href="#DejaVuSansMono-56"/>
     </g>
    </g>
   </g>
  </g>
 </g>
 <defs>
  <clipPath id="pd30f3d643d">
   <rect height="298.453375" width="418.46125" x="35.85875" y="17.989125"/>
  </clipPath>
 </defs>
</svg>
