<?xml version="1.0" encoding="utf-8" standalone="no"?>
<!DOCTYPE svg PUBLIC "-//W3C//DTD SVG 1.1//EN"
  "http://www.w3.org/Graphics/SVG/1.1/DTD/svg11.dtd">
<!-- Created with matplotlib (https://matplotlib.org/) -->
<svg height="345.6pt" version="1.1" viewBox="0 0 460.8 345.6" width="460.8pt" xmlns="http://www.w3.org/2000/svg" xmlns:xlink="http://www.w3.org/1999/xlink">
 <metadata>
  <rdf:RDF xmlns:cc="http://creativecommons.org/ns#" xmlns:dc="http://purl.org/dc/elements/1.1/" xmlns:rdf="http://www.w3.org/1999/02/22-rdf-syntax-ns#">
   <cc:Work>
    <dc:type rdf:resource="http://purl.org/dc/dcmitype/StillImage"/>
    <dc:date>2022-03-17T00:24:58.387344</dc:date>
    <dc:format>image/svg+xml</dc:format>
    <dc:creator>
     <cc:Agent>
      <dc:title>Matplotlib v3.3.2, https://matplotlib.org/</dc:title>
     </cc:Agent>
    </dc:creator>
   </cc:Work>
  </rdf:RDF>
 </metadata>
 <defs>
  <style type="text/css">*{stroke-linecap:butt;stroke-linejoin:round;}</style>
 </defs>
 <g id="figure_1">
  <g id="patch_1">
   <path d="M 0 345.6 
L 460.8 345.6 
L 460.8 0 
L 0 0 
z
" style="fill:#ffffff;"/>
  </g>
  <g id="axes_1">
   <g id="patch_2">
    <path d="M 33.33875 316.4425 
L 454.32 316.4425 
L 454.32 17.989125 
L 33.33875 17.989125 
z
" style="fill:#ffffff;"/>
   </g>
   <g id="matplotlib.axis_1">
    <g id="xtick_1">
     <g id="line2d_1">
      <defs>
       <path d="M 0 0 
L 0 3.5 
" id="m2d7d863b37" style="stroke:#000000;stroke-width:0.8;"/>
      </defs>
      <g>
       <use style="stroke:#000000;stroke-width:0.8;" x="52.474261" xlink:href="#m2d7d863b37" y="316.4425"/>
      </g>
     </g>
     <g id="text_1">
      <!-- 0 -->
      <g transform="translate(50.668168 328.033437)scale(0.06 -0.06)">
       <defs>
        <path d="M 23.578125 36.625 
Q 23.578125 39.3125 25.453125 41.265625 
Q 27.34375 43.21875 29.984375 43.21875 
Q 32.71875 43.21875 34.671875 41.265625 
Q 36.625 39.3125 36.625 36.625 
Q 36.625 33.890625 34.6875 31.984375 
Q 32.765625 30.078125 29.984375 30.078125 
Q 27.25 30.078125 25.40625 31.9375 
Q 23.578125 33.796875 23.578125 36.625 
z
M 30.078125 66.40625 
Q 23.1875 66.40625 19.796875 58.984375 
Q 16.40625 51.5625 16.40625 36.375 
Q 16.40625 21.234375 19.796875 13.8125 
Q 23.1875 6.390625 30.078125 6.390625 
Q 37.015625 6.390625 40.40625 13.8125 
Q 43.796875 21.234375 43.796875 36.375 
Q 43.796875 51.5625 40.40625 58.984375 
Q 37.015625 66.40625 30.078125 66.40625 
z
M 30.078125 74.21875 
Q 41.75 74.21875 47.734375 64.640625 
Q 53.71875 55.078125 53.71875 36.375 
Q 53.71875 17.71875 47.734375 8.140625 
Q 41.75 -1.421875 30.078125 -1.421875 
Q 18.40625 -1.421875 12.453125 8.140625 
Q 6.5 17.71875 6.5 36.375 
Q 6.5 55.078125 12.453125 64.640625 
Q 18.40625 74.21875 30.078125 74.21875 
z
" id="DejaVuSansMono-48"/>
       </defs>
       <use xlink:href="#DejaVuSansMono-48"/>
      </g>
     </g>
    </g>
    <g id="xtick_2">
     <g id="line2d_2">
      <g>
       <use style="stroke:#000000;stroke-width:0.8;" x="106.682509" xlink:href="#m2d7d863b37" y="316.4425"/>
      </g>
     </g>
     <g id="text_2">
      <!-- 50 -->
      <g transform="translate(103.070321 328.033437)scale(0.06 -0.06)">
       <defs>
        <path d="M 10.109375 72.90625 
L 47.015625 72.90625 
L 47.015625 64.59375 
L 19.09375 64.59375 
L 19.09375 46.6875 
Q 21.1875 47.46875 23.3125 47.828125 
Q 25.4375 48.1875 27.59375 48.1875 
Q 38.921875 48.1875 45.5625 41.5 
Q 52.203125 34.8125 52.203125 23.390625 
Q 52.203125 11.859375 45.234375 5.21875 
Q 38.28125 -1.421875 26.21875 -1.421875 
Q 20.40625 -1.421875 15.59375 -0.640625 
Q 10.796875 0.140625 6.984375 1.703125 
L 6.984375 11.71875 
Q 11.46875 9.28125 16.015625 8.078125 
Q 20.5625 6.890625 25.296875 6.890625 
Q 33.453125 6.890625 37.859375 11.1875 
Q 42.28125 15.484375 42.28125 23.390625 
Q 42.28125 31.203125 37.71875 35.546875 
Q 33.15625 39.890625 25 39.890625 
Q 21.046875 39.890625 17.28125 38.984375 
Q 13.53125 38.09375 10.109375 36.28125 
z
" id="DejaVuSansMono-53"/>
       </defs>
       <use xlink:href="#DejaVuSansMono-53"/>
       <use x="60.205078" xlink:href="#DejaVuSansMono-48"/>
      </g>
     </g>
    </g>
    <g id="xtick_3">
     <g id="line2d_3">
      <g>
       <use style="stroke:#000000;stroke-width:0.8;" x="160.890756" xlink:href="#m2d7d863b37" y="316.4425"/>
      </g>
     </g>
     <g id="text_3">
      <!-- 100 -->
      <g transform="translate(155.472475 328.033437)scale(0.06 -0.06)">
       <defs>
        <path d="M 13.1875 8.296875 
L 28.515625 8.296875 
L 28.515625 64.015625 
L 12.015625 60.296875 
L 12.015625 69.28125 
L 28.421875 72.90625 
L 38.28125 72.90625 
L 38.28125 8.296875 
L 53.421875 8.296875 
L 53.421875 0 
L 13.1875 0 
z
" id="DejaVuSansMono-49"/>
       </defs>
       <use xlink:href="#DejaVuSansMono-49"/>
       <use x="60.205078" xlink:href="#DejaVuSansMono-48"/>
       <use x="120.410156" xlink:href="#DejaVuSansMono-48"/>
      </g>
     </g>
    </g>
    <g id="xtick_4">
     <g id="line2d_4">
      <g>
       <use style="stroke:#000000;stroke-width:0.8;" x="215.099004" xlink:href="#m2d7d863b37" y="316.4425"/>
      </g>
     </g>
     <g id="text_4">
      <!-- 150 -->
      <g transform="translate(209.680723 328.033437)scale(0.06 -0.06)">
       <use xlink:href="#DejaVuSansMono-49"/>
       <use x="60.205078" xlink:href="#DejaVuSansMono-53"/>
       <use x="120.410156" xlink:href="#DejaVuSansMono-48"/>
      </g>
     </g>
    </g>
    <g id="xtick_5">
     <g id="line2d_5">
      <g>
       <use style="stroke:#000000;stroke-width:0.8;" x="269.307251" xlink:href="#m2d7d863b37" y="316.4425"/>
      </g>
     </g>
     <g id="text_5">
      <!-- 200 -->
      <g transform="translate(263.88897 328.033437)scale(0.06 -0.06)">
       <defs>
        <path d="M 18.21875 8.296875 
L 51.703125 8.296875 
L 51.703125 0 
L 7.421875 0 
L 7.421875 8.296875 
Q 16.546875 17.921875 23.375 25.296875 
Q 30.21875 32.671875 32.8125 35.6875 
Q 37.703125 41.65625 39.40625 45.34375 
Q 41.109375 49.03125 41.109375 52.875 
Q 41.109375 58.984375 37.515625 62.453125 
Q 33.9375 65.921875 27.6875 65.921875 
Q 23.25 65.921875 18.359375 64.3125 
Q 13.484375 62.703125 8.015625 59.421875 
L 8.015625 69.390625 
Q 13.03125 71.78125 17.890625 73 
Q 22.75 74.21875 27.484375 74.21875 
Q 38.1875 74.21875 44.703125 68.53125 
Q 51.21875 62.84375 51.21875 53.609375 
Q 51.21875 48.921875 49.046875 44.234375 
Q 46.875 39.546875 42 33.890625 
Q 39.265625 30.71875 34.0625 25.09375 
Q 28.859375 19.484375 18.21875 8.296875 
z
" id="DejaVuSansMono-50"/>
       </defs>
       <use xlink:href="#DejaVuSansMono-50"/>
       <use x="60.205078" xlink:href="#DejaVuSansMono-48"/>
       <use x="120.410156" xlink:href="#DejaVuSansMono-48"/>
      </g>
     </g>
    </g>
    <g id="xtick_6">
     <g id="line2d_6">
      <g>
       <use style="stroke:#000000;stroke-width:0.8;" x="323.515499" xlink:href="#m2d7d863b37" y="316.4425"/>
      </g>
     </g>
     <g id="text_6">
      <!-- 250 -->
      <g transform="translate(318.097218 328.033437)scale(0.06 -0.06)">
       <use xlink:href="#DejaVuSansMono-50"/>
       <use x="60.205078" xlink:href="#DejaVuSansMono-53"/>
       <use x="120.410156" xlink:href="#DejaVuSansMono-48"/>
      </g>
     </g>
    </g>
    <g id="xtick_7">
     <g id="line2d_7">
      <g>
       <use style="stroke:#000000;stroke-width:0.8;" x="377.723746" xlink:href="#m2d7d863b37" y="316.4425"/>
      </g>
     </g>
     <g id="text_7">
      <!-- 300 -->
      <g transform="translate(372.305465 328.033437)scale(0.06 -0.06)">
       <defs>
        <path d="M 37.890625 39.015625 
Q 45.0625 37.109375 48.875 32.25 
Q 52.6875 27.390625 52.6875 20.125 
Q 52.6875 10.0625 45.921875 4.3125 
Q 39.15625 -1.421875 27.203125 -1.421875 
Q 22.171875 -1.421875 16.9375 -0.484375 
Q 11.71875 0.4375 6.6875 2.203125 
L 6.6875 12.015625 
Q 11.671875 9.421875 16.5 8.15625 
Q 21.34375 6.890625 26.125 6.890625 
Q 34.234375 6.890625 38.578125 10.546875 
Q 42.921875 14.203125 42.921875 21.09375 
Q 42.921875 27.4375 38.578125 31.171875 
Q 34.234375 34.90625 26.8125 34.90625 
L 19.28125 34.90625 
L 19.28125 43.015625 
L 26.8125 43.015625 
Q 33.59375 43.015625 37.40625 45.984375 
Q 41.21875 48.96875 41.21875 54.296875 
Q 41.21875 59.90625 37.671875 62.90625 
Q 34.125 65.921875 27.59375 65.921875 
Q 23.25 65.921875 18.609375 64.9375 
Q 13.96875 63.96875 8.890625 62.015625 
L 8.890625 71.09375 
Q 14.796875 72.65625 19.40625 73.4375 
Q 24.03125 74.21875 27.59375 74.21875 
Q 38.234375 74.21875 44.609375 68.875 
Q 50.984375 63.53125 50.984375 54.6875 
Q 50.984375 48.6875 47.625 44.671875 
Q 44.28125 40.671875 37.890625 39.015625 
z
" id="DejaVuSansMono-51"/>
       </defs>
       <use xlink:href="#DejaVuSansMono-51"/>
       <use x="60.205078" xlink:href="#DejaVuSansMono-48"/>
       <use x="120.410156" xlink:href="#DejaVuSansMono-48"/>
      </g>
     </g>
    </g>
    <g id="xtick_8">
     <g id="line2d_8">
      <g>
       <use style="stroke:#000000;stroke-width:0.8;" x="431.931994" xlink:href="#m2d7d863b37" y="316.4425"/>
      </g>
     </g>
     <g id="text_8">
      <!-- 350 -->
      <g transform="translate(426.513713 328.033437)scale(0.06 -0.06)">
       <use xlink:href="#DejaVuSansMono-51"/>
       <use x="60.205078" xlink:href="#DejaVuSansMono-53"/>
       <use x="120.410156" xlink:href="#DejaVuSansMono-48"/>
      </g>
     </g>
    </g>
    <g id="text_9">
     <!-- n -->
     <g transform="translate(242.023281 337.872187)scale(0.06 -0.06)">
      <defs>
       <path d="M 51.3125 33.890625 
L 51.3125 0 
L 42.28125 0 
L 42.28125 33.890625 
Q 42.28125 41.265625 39.6875 44.71875 
Q 37.109375 48.1875 31.59375 48.1875 
Q 25.296875 48.1875 21.890625 43.71875 
Q 18.5 39.265625 18.5 30.90625 
L 18.5 0 
L 9.515625 0 
L 9.515625 54.6875 
L 18.5 54.6875 
L 18.5 46.484375 
Q 20.90625 51.171875 25 53.578125 
Q 29.109375 56 34.71875 56 
Q 43.0625 56 47.1875 50.5 
Q 51.3125 45.015625 51.3125 33.890625 
z
" id="DejaVuSansMono-110"/>
      </defs>
      <use xlink:href="#DejaVuSansMono-110"/>
     </g>
    </g>
   </g>
   <g id="matplotlib.axis_2">
    <g id="ytick_1">
     <g id="line2d_9">
      <defs>
       <path d="M 0 0 
L -3.5 0 
" id="ma16413deb3" style="stroke:#000000;stroke-width:0.8;"/>
      </defs>
      <g>
       <use style="stroke:#000000;stroke-width:0.8;" x="33.33875" xlink:href="#ma16413deb3" y="274.155766"/>
      </g>
     </g>
     <g id="text_10">
      <!-- $\mathdefault{10^{1}}$ -->
      <g transform="translate(16.31875 276.451235)scale(0.06 -0.06)">
       <use transform="translate(0 0.684375)" xlink:href="#DejaVuSansMono-49"/>
       <use transform="translate(60.205078 0.684375)" xlink:href="#DejaVuSansMono-48"/>
       <use transform="translate(121.367188 38.965625)scale(0.7)" xlink:href="#DejaVuSansMono-49"/>
      </g>
     </g>
    </g>
    <g id="ytick_2">
     <g id="line2d_10">
      <g>
       <use style="stroke:#000000;stroke-width:0.8;" x="33.33875" xlink:href="#ma16413deb3" y="216.714423"/>
      </g>
     </g>
     <g id="text_11">
      <!-- $\mathdefault{10^{3}}$ -->
      <g transform="translate(16.31875 219.009892)scale(0.06 -0.06)">
       <use transform="translate(0 0.765625)" xlink:href="#DejaVuSansMono-49"/>
       <use transform="translate(60.205078 0.765625)" xlink:href="#DejaVuSansMono-48"/>
       <use transform="translate(121.367188 39.046875)scale(0.7)" xlink:href="#DejaVuSansMono-51"/>
      </g>
     </g>
    </g>
    <g id="ytick_3">
     <g id="line2d_11">
      <g>
       <use style="stroke:#000000;stroke-width:0.8;" x="33.33875" xlink:href="#ma16413deb3" y="159.273081"/>
      </g>
     </g>
     <g id="text_12">
      <!-- $\mathdefault{10^{5}}$ -->
      <g transform="translate(16.31875 161.568549)scale(0.06 -0.06)">
       <use transform="translate(0 0.684375)" xlink:href="#DejaVuSansMono-49"/>
       <use transform="translate(60.205078 0.684375)" xlink:href="#DejaVuSansMono-48"/>
       <use transform="translate(121.367188 38.965625)scale(0.7)" xlink:href="#DejaVuSansMono-53"/>
      </g>
     </g>
    </g>
    <g id="ytick_4">
     <g id="line2d_12">
      <g>
       <use style="stroke:#000000;stroke-width:0.8;" x="33.33875" xlink:href="#ma16413deb3" y="101.831738"/>
      </g>
     </g>
     <g id="text_13">
      <!-- $\mathdefault{10^{7}}$ -->
      <g transform="translate(16.31875 104.127207)scale(0.06 -0.06)">
       <defs>
        <path d="M 6.78125 72.90625 
L 52.6875 72.90625 
L 52.6875 68.703125 
L 26.609375 0 
L 16.3125 0 
L 41.703125 64.59375 
L 6.78125 64.59375 
z
" id="DejaVuSansMono-55"/>
       </defs>
       <use transform="translate(0 0.684375)" xlink:href="#DejaVuSansMono-49"/>
       <use transform="translate(60.205078 0.684375)" xlink:href="#DejaVuSansMono-48"/>
       <use transform="translate(121.367188 38.965625)scale(0.7)" xlink:href="#DejaVuSansMono-55"/>
      </g>
     </g>
    </g>
    <g id="ytick_5">
     <g id="line2d_13">
      <g>
       <use style="stroke:#000000;stroke-width:0.8;" x="33.33875" xlink:href="#ma16413deb3" y="44.390395"/>
      </g>
     </g>
     <g id="text_14">
      <!-- $\mathdefault{10^{9}}$ -->
      <g transform="translate(16.31875 46.685864)scale(0.06 -0.06)">
       <defs>
        <path d="M 29.109375 32.328125 
Q 35.40625 32.328125 38.984375 36.859375 
Q 42.578125 41.40625 42.578125 49.421875 
Q 42.578125 57.421875 38.984375 61.953125 
Q 35.40625 66.5 29.109375 66.5 
Q 22.5625 66.5 19.234375 62.171875 
Q 15.921875 57.859375 15.921875 49.421875 
Q 15.921875 40.921875 19.21875 36.625 
Q 22.515625 32.328125 29.109375 32.328125 
z
M 11.53125 1.515625 
L 11.53125 10.59375 
Q 14.59375 8.796875 18.0625 7.84375 
Q 21.53125 6.890625 25.296875 6.890625 
Q 34.671875 6.890625 39.46875 13.9375 
Q 44.28125 21 44.28125 34.71875 
Q 42 29.828125 37.84375 27.21875 
Q 33.6875 24.609375 28.328125 24.609375 
Q 17.78125 24.609375 11.984375 31.09375 
Q 6.203125 37.59375 6.203125 49.515625 
Q 6.203125 61.28125 12.125 67.75 
Q 18.0625 74.21875 28.90625 74.21875 
Q 41.609375 74.21875 47.515625 65.078125 
Q 53.421875 55.953125 53.421875 36.375 
Q 53.421875 17.96875 46.3125 8.265625 
Q 39.203125 -1.421875 25.6875 -1.421875 
Q 22.125 -1.421875 18.5 -0.65625 
Q 14.890625 0.09375 11.53125 1.515625 
z
" id="DejaVuSansMono-57"/>
       </defs>
       <use transform="translate(0 0.765625)" xlink:href="#DejaVuSansMono-49"/>
       <use transform="translate(60.205078 0.765625)" xlink:href="#DejaVuSansMono-48"/>
       <use transform="translate(121.367188 39.046875)scale(0.7)" xlink:href="#DejaVuSansMono-57"/>
      </g>
     </g>
    </g>
    <g id="text_15">
     <!-- y_n -->
     <g transform="translate(10.904062 172.634094)rotate(-90)scale(0.06 -0.06)">
      <defs>
       <path d="M 41.890625 17.578125 
Q 39.65625 11.859375 36.1875 2.546875 
Q 31.34375 -10.359375 29.6875 -13.1875 
Q 27.4375 -17 24.0625 -18.890625 
Q 20.703125 -20.796875 16.21875 -20.796875 
L 8.984375 -20.796875 
L 8.984375 -13.28125 
L 14.3125 -13.28125 
Q 18.265625 -13.28125 20.5 -10.984375 
Q 22.75 -8.6875 26.21875 0.875 
L 5.078125 54.6875 
L 14.59375 54.6875 
L 30.8125 11.921875 
L 46.78125 54.6875 
L 56.296875 54.6875 
z
" id="DejaVuSansMono-121"/>
       <path d="M 60.203125 -19.671875 
L 60.203125 -23.578125 
L 0 -23.578125 
L 0 -19.671875 
z
" id="DejaVuSansMono-95"/>
      </defs>
      <use xlink:href="#DejaVuSansMono-121"/>
      <use x="60.205078" xlink:href="#DejaVuSansMono-95"/>
      <use x="120.410156" xlink:href="#DejaVuSansMono-110"/>
     </g>
    </g>
   </g>
   <g id="line2d_14">
    <path clip-path="url(#p71fc5b0192)" d="M 52.474261 155.222532 
L 53.558426 141.519259 
L 54.642591 150.165043 
L 55.726756 136.46178 
L 56.810921 145.107563 
L 57.895086 131.404307 
L 58.979251 140.050091 
L 60.063416 126.346839 
L 61.147581 134.992623 
L 62.231746 121.289374 
L 63.315911 129.935158 
L 64.400076 116.231911 
L 65.484241 124.877695 
L 66.568406 111.174449 
L 68.736736 128.466016 
L 69.820901 114.76277 
L 71.98923 132.054337 
L 73.073395 118.35109 
L 74.15756 126.996873 
L 75.241725 113.293627 
L 77.410055 130.585195 
L 78.49422 116.881948 
L 79.578385 125.527731 
L 80.66255 111.824486 
L 81.746715 120.470269 
L 82.83088 106.767025 
L 83.915045 115.412808 
L 84.99921 101.709564 
L 86.083375 110.355348 
L 87.16754 96.652104 
L 88.251705 105.297888 
L 89.33587 91.594644 
L 90.420035 100.240428 
L 91.5042 86.537185 
L 92.588365 95.182968 
L 93.672529 81.479725 
L 94.756694 90.125509 
L 95.840859 76.422266 
L 96.925024 85.06805 
L 98.009189 71.364807 
L 99.093354 80.01059 
L 100.177519 66.307348 
L 103.430014 92.244698 
L 104.514179 78.541455 
L 105.598344 87.187239 
L 106.682509 73.483996 
L 107.766674 82.12978 
L 108.850839 68.426537 
L 109.935004 77.07232 
L 111.019169 63.369078 
L 112.103334 72.014861 
L 113.187499 58.311618 
L 115.355828 75.603185 
L 116.439993 61.899943 
L 117.524158 70.545726 
L 118.608323 56.842483 
L 119.692488 65.488267 
L 120.776653 51.785024 
L 121.860818 60.430808 
L 122.944983 46.727565 
L 124.029148 55.373349 
L 125.113313 41.670106 
L 126.197478 50.315889 
L 127.281643 36.612647 
L 128.365808 45.25843 
L 129.449973 31.555187 
L 134.870798 74.784105 
L 135.954962 61.080863 
L 141.375787 104.30978 
L 142.459952 90.606537 
L 146.796612 125.189672 
L 147.880777 111.486426 
L 151.133272 137.423777 
L 152.217437 123.720527 
L 157.638261 166.949445 
L 158.722426 153.246125 
L 160.890756 170.537692 
L 161.974921 156.834347 
L 163.059086 165.48013 
L 164.143251 151.776819 
L 167.395746 177.71417 
L 168.479911 164.010745 
L 169.564076 172.656528 
L 170.648241 158.953164 
L 171.732406 167.598948 
L 172.816571 153.895624 
L 173.900736 162.541407 
L 174.984901 148.838111 
L 181.48989 200.712812 
L 182.574055 187.008417 
L 183.65822 195.6542 
L 184.742385 181.950189 
L 185.82655 190.595973 
L 186.910715 176.892218 
L 192.33154 220.121136 
L 193.415705 206.412431 
L 195.584035 223.703998 
L 196.6682 209.993476 
L 197.752365 218.639259 
L 198.83653 204.931166 
L 201.004859 222.222733 
L 202.089024 208.513026 
L 203.173189 217.158809 
L 204.257354 203.451259 
L 208.594014 238.034393 
L 209.678179 224.3082 
L 215.099004 267.537118 
L 216.183169 253.591669 
L 218.351499 270.883237 
L 219.435664 256.864199 
L 222.688158 282.80155 
L 223.772323 268.293303 
L 228.108983 302.876437 
L 228.108983 302.876437 
" style="fill:none;stroke:#1f77b4;stroke-linecap:square;stroke-width:0.666667;"/>
   </g>
   <g id="line2d_15">
    <path clip-path="url(#p71fc5b0192)" d="M 52.474261 158.518187 
L 53.558426 144.814905 
L 54.642591 153.460689 
L 55.726756 139.75742 
L 56.810921 148.403204 
L 57.895086 134.699944 
L 58.979251 143.345727 
L 60.063416 129.642473 
L 61.147581 138.288256 
L 62.231746 124.585006 
L 63.315911 133.230789 
L 64.400076 119.527541 
L 65.484241 128.173325 
L 66.568406 114.470079 
L 67.652571 123.115862 
L 68.736736 109.412617 
L 70.905066 126.704185 
L 71.98923 113.000939 
L 73.073395 121.646722 
L 74.15756 107.943478 
L 75.241725 116.589261 
L 76.32589 102.886017 
L 77.410055 111.531801 
L 78.49422 97.828557 
L 79.578385 106.47434 
L 80.66255 92.771097 
L 81.746715 101.416881 
L 82.83088 87.713638 
L 83.915045 96.359421 
L 84.99921 82.656178 
L 86.083375 91.301962 
L 87.16754 77.598719 
L 88.251705 86.244502 
L 89.33587 72.541259 
L 93.672529 107.124394 
L 94.756694 93.42115 
L 96.925024 110.712717 
L 98.009189 97.009474 
L 99.093354 105.655257 
L 100.177519 91.952014 
L 102.345849 109.243581 
L 103.430014 95.540338 
L 105.598344 112.831905 
L 106.682509 99.128661 
L 107.766674 107.774445 
L 108.850839 94.071201 
L 111.019169 111.362768 
L 112.103334 97.659525 
L 114.271664 114.951092 
L 115.355828 101.247848 
L 117.524158 118.539415 
L 118.608323 104.836171 
L 119.692488 113.481954 
L 120.776653 99.778711 
L 126.197478 143.007628 
L 127.281643 129.304374 
L 128.365808 137.950158 
L 129.449973 124.246908 
L 131.618303 141.538475 
L 132.702468 127.835222 
L 133.786633 136.481006 
L 134.870798 122.777756 
L 135.954962 131.42354 
L 137.039127 117.720293 
L 138.123292 126.366076 
L 139.207457 112.66283 
L 140.291622 121.308614 
L 141.375787 107.605369 
L 142.459952 116.251153 
L 143.544117 102.547909 
L 144.628282 111.193692 
L 145.712447 97.490449 
L 146.796612 106.136232 
L 147.880777 92.432989 
L 150.049107 109.724556 
L 151.133272 96.021313 
L 153.301602 113.31288 
L 154.385767 99.609636 
L 155.469932 108.255419 
L 156.554097 94.552176 
L 159.806591 120.489527 
L 160.890756 106.786282 
L 163.059086 124.077849 
L 164.143251 110.374604 
L 165.227416 119.020388 
L 166.311581 105.317143 
L 168.479911 122.60871 
L 169.564076 108.905465 
L 170.648241 117.551249 
L 171.732406 103.848005 
L 172.816571 112.493788 
L 173.900736 98.790545 
L 176.069066 116.082112 
L 177.153231 102.378868 
L 178.237396 111.024651 
L 179.32156 97.321408 
L 180.405725 105.967191 
L 181.48989 92.263948 
L 183.65822 109.555515 
L 184.742385 95.852272 
L 187.99488 121.789622 
L 189.079045 108.086377 
L 191.247375 125.377945 
L 192.33154 111.674699 
L 194.49987 128.966266 
L 195.584035 115.26302 
L 196.6682 123.908803 
L 197.752365 110.205558 
L 201.004859 136.142909 
L 202.089024 122.43966 
L 204.257354 139.731227 
L 205.341519 126.027975 
L 206.425684 134.673759 
L 207.509849 120.97051 
L 209.678179 138.262078 
L 210.762344 124.558827 
L 212.930674 141.850394 
L 214.014839 128.147141 
L 215.099004 136.792925 
L 216.183169 123.089675 
L 220.519829 157.672809 
L 221.603994 143.96953 
L 223.772323 161.261097 
L 224.856488 147.557806 
L 225.940653 156.203589 
L 227.024818 142.500314 
L 230.277313 168.437665 
L 231.361478 154.734335 
L 232.445643 163.380119 
L 233.529808 149.676818 
L 235.698138 166.968386 
L 236.782303 153.265066 
L 237.866468 161.910849 
L 238.950633 148.207555 
L 240.034798 156.853339 
L 241.118963 143.150062 
L 243.287293 160.441629 
L 244.371457 146.73834 
L 246.539787 164.029908 
L 247.623952 150.326604 
L 251.960612 184.909738 
L 253.044777 171.206171 
L 257.381437 205.789305 
L 258.465602 192.084331 
L 260.633932 209.375898 
L 261.718097 195.670347 
L 263.886427 212.961914 
L 264.970592 199.255594 
L 266.054756 207.901378 
L 267.138921 194.196084 
L 268.223086 202.841868 
L 269.307251 189.137258 
L 271.475581 206.428825 
L 272.559746 192.723759 
L 274.728076 210.015327 
L 275.812241 196.309654 
L 276.896406 204.955438 
L 277.980571 191.250575 
L 279.064736 199.896359 
L 280.148901 186.192036 
L 281.233066 194.83782 
L 282.317231 181.133858 
L 284.485561 198.425425 
L 285.569726 184.721222 
L 288.82222 210.658573 
L 289.906385 196.952772 
L 292.074715 214.244339 
L 293.15888 200.537686 
L 294.243045 209.18347 
L 295.32721 195.477954 
L 299.66387 230.061088 
L 300.748035 216.34573 
L 301.8322 224.991513 
L 302.916365 211.2802 
L 304.00053 219.925983 
L 305.084695 206.217363 
L 309.421354 240.800497 
L 310.505519 227.068613 
L 312.673849 244.360181 
L 313.758014 230.618852 
L 317.010509 256.556202 
L 318.094674 242.751961 
L 320.263004 260.043528 
L 321.347169 246.206881 
L 322.431334 254.852664 
L 323.515499 241.061271 
L 324.599664 249.707055 
L 325.683829 235.945389 
L 326.767994 244.591173 
L 327.852159 230.849133 
L 328.936324 239.494917 
L 330.020489 225.765876 
L 332.188818 243.057443 
L 333.272983 229.319886 
L 335.441313 246.611453 
L 336.525478 232.862605 
L 337.609643 241.508388 
L 338.693808 227.774834 
L 340.862138 245.066401 
L 341.946303 231.322857 
L 343.030468 239.968641 
L 344.114633 226.238602 
L 345.198798 234.884386 
L 346.282963 221.163312 
L 348.451293 238.454879 
L 349.535458 224.7279 
L 350.619623 233.373684 
L 351.703788 219.654642 
L 352.787952 228.300426 
L 353.872117 214.586661 
L 354.956282 223.232445 
L 356.040447 209.522193 
L 358.208777 226.81376 
L 359.292942 213.101177 
L 362.545437 239.038528 
L 363.629602 225.310414 
L 364.713767 233.956197 
L 365.797932 220.236401 
L 366.882097 228.882184 
L 367.966262 215.167918 
L 370.134592 232.459485 
L 371.218757 218.741559 
L 372.302922 227.387343 
L 373.387086 213.674321 
L 375.555416 230.965888 
L 376.639581 217.249618 
L 377.723746 225.895402 
L 378.807911 212.183482 
L 379.892076 220.829266 
L 380.976241 207.120242 
L 382.060406 215.766025 
L 383.144571 202.05893 
L 384.228736 210.704713 
L 385.312901 196.998903 
L 386.397066 205.644686 
L 387.481231 191.939732 
L 390.733726 217.877083 
L 391.817891 204.169277 
L 392.902056 212.81506 
L 393.986221 199.108777 
L 395.070385 207.75456 
L 396.15455 194.04929 
L 397.238715 202.695074 
L 398.32288 188.99048 
L 402.65954 223.573614 
L 403.743705 209.863168 
L 405.912035 227.154735 
L 406.9962 213.441894 
L 409.16453 230.733461 
L 410.248695 217.017432 
L 414.585355 251.600566 
L 415.66952 237.829349 
L 418.922014 263.7667 
L 420.006179 249.883983 
L 421.090344 258.529767 
L 422.174509 244.708293 
L 423.258674 253.354077 
L 424.342839 239.572632 
L 429.763664 282.80155 
L 430.847829 268.293303 
L 435.184489 302.876437 
L 435.184489 302.876437 
" style="fill:none;stroke:#ff7f0e;stroke-linecap:square;stroke-width:0.666667;"/>
   </g>
   <g id="patch_3">
    <path d="M 33.33875 316.4425 
L 33.33875 17.989125 
" style="fill:none;stroke:#000000;stroke-linecap:square;stroke-linejoin:miter;stroke-width:0.8;"/>
   </g>
   <g id="patch_4">
    <path d="M 454.32 316.4425 
L 454.32 17.989125 
" style="fill:none;stroke:#000000;stroke-linecap:square;stroke-linejoin:miter;stroke-width:0.8;"/>
   </g>
   <g id="patch_5">
    <path d="M 33.33875 316.4425 
L 454.32 316.4425 
" style="fill:none;stroke:#000000;stroke-linecap:square;stroke-linejoin:miter;stroke-width:0.8;"/>
   </g>
   <g id="patch_6">
    <path d="M 33.33875 17.989125 
L 454.32 17.989125 
" style="fill:none;stroke:#000000;stroke-linecap:square;stroke-linejoin:miter;stroke-width:0.8;"/>
   </g>
   <g id="text_16">
    <!-- "3y+1" problem -->
    <g transform="translate(213.487 11.989125)scale(0.072 -0.072)">
     <defs>
      <path d="M 43.703125 72.90625 
L 43.703125 45.796875 
L 35.203125 45.796875 
L 35.203125 72.90625 
z
M 25 72.90625 
L 25 45.796875 
L 16.5 45.796875 
L 16.5 72.90625 
z
" id="DejaVuSansMono-34"/>
      <path d="M 34.1875 57.171875 
L 34.1875 35.5 
L 55.90625 35.5 
L 55.90625 27.203125 
L 34.1875 27.203125 
L 34.1875 5.515625 
L 25.984375 5.515625 
L 25.984375 27.203125 
L 4.296875 27.203125 
L 4.296875 35.5 
L 25.984375 35.5 
L 25.984375 57.171875 
z
" id="DejaVuSansMono-43"/>
      <path id="DejaVuSansMono-32"/>
      <path d="M 18.3125 6.890625 
L 18.3125 -20.796875 
L 9.28125 -20.796875 
L 9.28125 54.6875 
L 18.3125 54.6875 
L 18.3125 47.703125 
Q 20.5625 51.765625 24.296875 53.875 
Q 28.03125 56 32.90625 56 
Q 42.828125 56 48.46875 48.328125 
Q 54.109375 40.671875 54.109375 27.09375 
Q 54.109375 13.765625 48.4375 6.171875 
Q 42.78125 -1.421875 32.90625 -1.421875 
Q 27.9375 -1.421875 24.1875 0.703125 
Q 20.453125 2.828125 18.3125 6.890625 
z
M 44.671875 27.296875 
Q 44.671875 37.75 41.375 43.0625 
Q 38.09375 48.390625 31.59375 48.390625 
Q 25.046875 48.390625 21.671875 43.046875 
Q 18.3125 37.703125 18.3125 27.296875 
Q 18.3125 16.9375 21.671875 11.5625 
Q 25.046875 6.203125 31.59375 6.203125 
Q 38.09375 6.203125 41.375 11.515625 
Q 44.671875 16.84375 44.671875 27.296875 
z
" id="DejaVuSansMono-112"/>
      <path d="M 56.390625 43.40625 
Q 53.515625 45.65625 50.53125 46.671875 
Q 47.5625 47.703125 44 47.703125 
Q 35.59375 47.703125 31.140625 42.421875 
Q 26.703125 37.15625 26.703125 27.203125 
L 26.703125 0 
L 17.671875 0 
L 17.671875 54.6875 
L 26.703125 54.6875 
L 26.703125 44 
Q 28.953125 49.8125 33.609375 52.90625 
Q 38.28125 56 44.671875 56 
Q 48 56 50.875 55.171875 
Q 53.765625 54.34375 56.390625 52.59375 
z
" id="DejaVuSansMono-114"/>
      <path d="M 30.078125 48.390625 
Q 23.25 48.390625 19.734375 43.0625 
Q 16.21875 37.75 16.21875 27.296875 
Q 16.21875 16.890625 19.734375 11.546875 
Q 23.25 6.203125 30.078125 6.203125 
Q 36.96875 6.203125 40.484375 11.546875 
Q 44 16.890625 44 27.296875 
Q 44 37.75 40.484375 43.0625 
Q 36.96875 48.390625 30.078125 48.390625 
z
M 30.078125 56 
Q 41.453125 56 47.484375 48.625 
Q 53.515625 41.265625 53.515625 27.296875 
Q 53.515625 13.28125 47.5 5.921875 
Q 41.5 -1.421875 30.078125 -1.421875 
Q 18.703125 -1.421875 12.6875 5.921875 
Q 6.6875 13.28125 6.6875 27.296875 
Q 6.6875 41.265625 12.6875 48.625 
Q 18.703125 56 30.078125 56 
z
" id="DejaVuSansMono-111"/>
      <path d="M 44.828125 27.296875 
Q 44.828125 37.75 41.5 43.0625 
Q 38.1875 48.390625 31.6875 48.390625 
Q 25.140625 48.390625 21.765625 43.046875 
Q 18.40625 37.703125 18.40625 27.296875 
Q 18.40625 16.9375 21.765625 11.5625 
Q 25.140625 6.203125 31.6875 6.203125 
Q 38.1875 6.203125 41.5 11.515625 
Q 44.828125 16.84375 44.828125 27.296875 
z
M 18.40625 47.703125 
Q 20.5625 51.703125 24.34375 53.84375 
Q 28.125 56 33.109375 56 
Q 42.96875 56 48.625 48.40625 
Q 54.296875 40.828125 54.296875 27.484375 
Q 54.296875 13.96875 48.609375 6.265625 
Q 42.921875 -1.421875 33.015625 -1.421875 
Q 28.125 -1.421875 24.390625 0.703125 
Q 20.65625 2.828125 18.40625 6.890625 
L 18.40625 0 
L 9.421875 0 
L 9.421875 75.984375 
L 18.40625 75.984375 
z
" id="DejaVuSansMono-98"/>
      <path d="M 31.203125 19.828125 
Q 31.203125 13.765625 33.421875 10.6875 
Q 35.640625 7.625 39.984375 7.625 
L 50.484375 7.625 
L 50.484375 0 
L 39.109375 0 
Q 31.0625 0 26.640625 5.171875 
Q 22.21875 10.359375 22.21875 19.828125 
L 22.21875 69.484375 
L 7.8125 69.484375 
L 7.8125 76.515625 
L 31.203125 76.515625 
z
" id="DejaVuSansMono-108"/>
      <path d="M 54.296875 29.59375 
L 54.296875 25.203125 
L 15.375 25.203125 
L 15.375 24.90625 
Q 15.375 15.96875 20.03125 11.078125 
Q 24.703125 6.203125 33.203125 6.203125 
Q 37.5 6.203125 42.1875 7.5625 
Q 46.875 8.9375 52.203125 11.71875 
L 52.203125 2.78125 
Q 47.078125 0.6875 42.3125 -0.359375 
Q 37.546875 -1.421875 33.109375 -1.421875 
Q 20.359375 -1.421875 13.171875 6.21875 
Q 6 13.875 6 27.296875 
Q 6 40.375 13.03125 48.1875 
Q 20.0625 56 31.78125 56 
Q 42.234375 56 48.265625 48.921875 
Q 54.296875 41.84375 54.296875 29.59375 
z
M 45.3125 32.234375 
Q 45.125 40.140625 41.578125 44.265625 
Q 38.03125 48.390625 31.390625 48.390625 
Q 24.90625 48.390625 20.703125 44.09375 
Q 16.5 39.796875 15.71875 32.171875 
z
" id="DejaVuSansMono-101"/>
      <path d="M 33.015625 49.125 
Q 34.671875 52.640625 37.234375 54.3125 
Q 39.796875 56 43.40625 56 
Q 50 56 52.703125 50.890625 
Q 55.421875 45.796875 55.421875 31.6875 
L 55.421875 0 
L 47.21875 0 
L 47.21875 31.296875 
Q 47.21875 42.875 45.921875 45.671875 
Q 44.625 48.484375 41.21875 48.484375 
Q 37.3125 48.484375 35.859375 45.484375 
Q 34.421875 42.484375 34.421875 31.296875 
L 34.421875 0 
L 26.21875 0 
L 26.21875 31.296875 
Q 26.21875 43.015625 24.828125 45.75 
Q 23.4375 48.484375 19.828125 48.484375 
Q 16.265625 48.484375 14.875 45.484375 
Q 13.484375 42.484375 13.484375 31.296875 
L 13.484375 0 
L 5.328125 0 
L 5.328125 54.6875 
L 13.484375 54.6875 
L 13.484375 50 
Q 15.09375 52.9375 17.5 54.46875 
Q 19.921875 56 23 56 
Q 26.703125 56 29.171875 54.296875 
Q 31.640625 52.59375 33.015625 49.125 
z
" id="DejaVuSansMono-109"/>
     </defs>
     <use xlink:href="#DejaVuSansMono-34"/>
     <use x="60.205078" xlink:href="#DejaVuSansMono-51"/>
     <use x="120.410156" xlink:href="#DejaVuSansMono-121"/>
     <use x="180.615234" xlink:href="#DejaVuSansMono-43"/>
     <use x="240.820312" xlink:href="#DejaVuSansMono-49"/>
     <use x="301.025391" xlink:href="#DejaVuSansMono-34"/>
     <use x="361.230469" xlink:href="#DejaVuSansMono-32"/>
     <use x="421.435547" xlink:href="#DejaVuSansMono-112"/>
     <use x="481.640625" xlink:href="#DejaVuSansMono-114"/>
     <use x="541.845703" xlink:href="#DejaVuSansMono-111"/>
     <use x="602.050781" xlink:href="#DejaVuSansMono-98"/>
     <use x="662.255859" xlink:href="#DejaVuSansMono-108"/>
     <use x="722.460938" xlink:href="#DejaVuSansMono-101"/>
     <use x="782.666016" xlink:href="#DejaVuSansMono-109"/>
    </g>
   </g>
   <g id="legend_1">
    <g id="patch_7">
     <path d="M 362.288437 82.0095 
L 450.12 82.0095 
Q 451.32 82.0095 451.32 80.8095 
L 451.32 22.189125 
Q 451.32 20.989125 450.12 20.989125 
L 362.288437 20.989125 
Q 361.088437 20.989125 361.088437 22.189125 
L 361.088437 80.8095 
Q 361.088437 82.0095 362.288437 82.0095 
z
" style="fill:#ffffff;opacity:0.8;stroke:#cccccc;stroke-linejoin:miter;"/>
    </g>
    <g id="line2d_16">
     <path d="M 363.488437 36.889687 
L 375.488437 36.889687 
" style="fill:none;stroke:#1f77b4;stroke-linecap:square;stroke-width:0.666667;"/>
    </g>
    <g id="line2d_17"/>
    <g id="text_17">
     <!-- "Tallest": -->
     <g transform="translate(380.288437 27.980062)scale(0.06 -0.06)">
      <defs>
       <path d="M 2.296875 72.90625 
L 57.90625 72.90625 
L 57.90625 64.59375 
L 35.109375 64.59375 
L 35.109375 0 
L 25.203125 0 
L 25.203125 64.59375 
L 2.296875 64.59375 
z
" id="DejaVuSansMono-84"/>
       <path d="M 34.28125 27.484375 
L 31.296875 27.484375 
Q 23.4375 27.484375 19.453125 24.71875 
Q 15.484375 21.96875 15.484375 16.5 
Q 15.484375 11.578125 18.453125 8.84375 
Q 21.4375 6.109375 26.703125 6.109375 
Q 34.125 6.109375 38.375 11.25 
Q 42.625 16.40625 42.671875 25.484375 
L 42.671875 27.484375 
z
M 51.703125 31.203125 
L 51.703125 0 
L 42.671875 0 
L 42.671875 8.109375 
Q 39.796875 3.21875 35.421875 0.890625 
Q 31.0625 -1.421875 24.8125 -1.421875 
Q 16.453125 -1.421875 11.46875 3.296875 
Q 6.5 8.015625 6.5 15.921875 
Q 6.5 25.046875 12.625 29.78125 
Q 18.75 34.515625 30.609375 34.515625 
L 42.671875 34.515625 
L 42.671875 35.9375 
Q 42.625 42.484375 39.34375 45.4375 
Q 36.078125 48.390625 28.90625 48.390625 
Q 24.3125 48.390625 19.625 47.0625 
Q 14.9375 45.75 10.5 43.21875 
L 10.5 52.203125 
Q 15.484375 54.109375 20.046875 55.046875 
Q 24.609375 56 28.90625 56 
Q 35.6875 56 40.5 54 
Q 45.3125 52 48.296875 48 
Q 50.140625 45.5625 50.921875 41.96875 
Q 51.703125 38.375 51.703125 31.203125 
z
" id="DejaVuSansMono-97"/>
       <path d="M 47.515625 52.78125 
L 47.515625 44 
Q 43.65625 46.234375 39.75 47.359375 
Q 35.84375 48.484375 31.78125 48.484375 
Q 25.6875 48.484375 22.671875 46.5 
Q 19.671875 44.53125 19.671875 40.484375 
Q 19.671875 36.8125 21.921875 35 
Q 24.171875 33.203125 33.109375 31.5 
L 36.71875 30.8125 
Q 43.40625 29.546875 46.84375 25.734375 
Q 50.296875 21.921875 50.296875 15.828125 
Q 50.296875 7.71875 44.53125 3.140625 
Q 38.765625 -1.421875 28.515625 -1.421875 
Q 24.46875 -1.421875 20.015625 -0.5625 
Q 15.578125 0.296875 10.40625 2 
L 10.40625 11.28125 
Q 15.4375 8.6875 20.015625 7.390625 
Q 24.609375 6.109375 28.71875 6.109375 
Q 34.671875 6.109375 37.9375 8.515625 
Q 41.21875 10.9375 41.21875 15.28125 
Q 41.21875 21.53125 29.25 23.921875 
L 28.859375 24.03125 
L 25.484375 24.703125 
Q 17.71875 26.21875 14.15625 29.8125 
Q 10.59375 33.40625 10.59375 39.59375 
Q 10.59375 47.46875 15.90625 51.734375 
Q 21.234375 56 31.109375 56 
Q 35.5 56 39.546875 55.1875 
Q 43.609375 54.390625 47.515625 52.78125 
z
" id="DejaVuSansMono-115"/>
       <path d="M 29.984375 70.21875 
L 29.984375 54.6875 
L 50.390625 54.6875 
L 50.390625 47.703125 
L 29.984375 47.703125 
L 29.984375 18.015625 
Q 29.984375 11.96875 32.28125 9.5625 
Q 34.578125 7.171875 40.28125 7.171875 
L 50.390625 7.171875 
L 50.390625 0 
L 39.40625 0 
Q 29.296875 0 25.140625 4.046875 
Q 21 8.109375 21 18.015625 
L 21 47.703125 
L 6.390625 47.703125 
L 6.390625 54.6875 
L 21 54.6875 
L 21 70.21875 
z
" id="DejaVuSansMono-116"/>
       <path d="M 23.875 51.90625 
L 36.1875 51.90625 
L 36.1875 37.109375 
L 23.875 37.109375 
z
M 23.875 14.890625 
L 36.1875 14.890625 
L 36.1875 0 
L 23.875 0 
z
" id="DejaVuSansMono-58"/>
      </defs>
      <use xlink:href="#DejaVuSansMono-34"/>
      <use x="60.205078" xlink:href="#DejaVuSansMono-84"/>
      <use x="120.410156" xlink:href="#DejaVuSansMono-97"/>
      <use x="180.615234" xlink:href="#DejaVuSansMono-108"/>
      <use x="240.820312" xlink:href="#DejaVuSansMono-108"/>
      <use x="301.025391" xlink:href="#DejaVuSansMono-101"/>
      <use x="361.230469" xlink:href="#DejaVuSansMono-115"/>
      <use x="421.435547" xlink:href="#DejaVuSansMono-116"/>
      <use x="481.640625" xlink:href="#DejaVuSansMono-34"/>
      <use x="541.845703" xlink:href="#DejaVuSansMono-58"/>
     </g>
     <!-- y_0    = 138367 -->
     <g transform="translate(380.288437 34.737)scale(0.06 -0.06)">
      <defs>
       <path d="M 4.296875 25.59375 
L 55.90625 25.59375 
L 55.90625 17.1875 
L 4.296875 17.1875 
z
M 4.296875 45.40625 
L 55.90625 45.40625 
L 55.90625 37.109375 
L 4.296875 37.109375 
z
" id="DejaVuSansMono-61"/>
       <path d="M 30.078125 34.625 
Q 23.484375 34.625 19.890625 30.9375 
Q 16.3125 27.25 16.3125 20.515625 
Q 16.3125 13.765625 19.9375 10.03125 
Q 23.578125 6.296875 30.078125 6.296875 
Q 36.71875 6.296875 40.296875 9.984375 
Q 43.890625 13.671875 43.890625 20.515625 
Q 43.890625 27.203125 40.25 30.90625 
Q 36.625 34.625 30.078125 34.625 
z
M 21.484375 38.71875 
Q 15.1875 40.328125 11.640625 44.71875 
Q 8.109375 49.125 8.109375 55.328125 
Q 8.109375 64.015625 14.015625 69.109375 
Q 19.921875 74.21875 30.078125 74.21875 
Q 40.28125 74.21875 46.1875 69.109375 
Q 52.09375 64.015625 52.09375 55.328125 
Q 52.09375 49.125 48.546875 44.71875 
Q 45.015625 40.328125 38.71875 38.71875 
Q 46.046875 37.109375 49.921875 32.21875 
Q 53.8125 27.34375 53.8125 19.578125 
Q 53.8125 9.71875 47.515625 4.140625 
Q 41.21875 -1.421875 30.078125 -1.421875 
Q 18.953125 -1.421875 12.671875 4.125 
Q 6.390625 9.671875 6.390625 19.484375 
Q 6.390625 27.296875 10.265625 32.203125 
Q 14.15625 37.109375 21.484375 38.71875 
z
M 17.921875 54.390625 
Q 17.921875 48.53125 21.046875 45.453125 
Q 24.171875 42.390625 30.078125 42.390625 
Q 36.03125 42.390625 39.15625 45.453125 
Q 42.28125 48.53125 42.28125 54.390625 
Q 42.28125 60.359375 39.171875 63.484375 
Q 36.078125 66.609375 30.078125 66.609375 
Q 24.171875 66.609375 21.046875 63.453125 
Q 17.921875 60.296875 17.921875 54.390625 
z
" id="DejaVuSansMono-56"/>
       <path d="M 48.390625 71.296875 
L 48.390625 62.203125 
Q 45.3125 64.015625 41.84375 64.96875 
Q 38.375 65.921875 34.625 65.921875 
Q 25.25 65.921875 20.40625 58.859375 
Q 15.578125 51.8125 15.578125 38.09375 
Q 17.921875 42.96875 22.0625 45.578125 
Q 26.21875 48.1875 31.59375 48.1875 
Q 42.140625 48.1875 47.921875 41.71875 
Q 53.71875 35.25 53.71875 23.390625 
Q 53.71875 11.578125 47.75 5.078125 
Q 41.796875 -1.421875 31 -1.421875 
Q 18.3125 -1.421875 12.40625 7.6875 
Q 6.5 16.796875 6.5 36.375 
Q 6.5 54.828125 13.59375 64.515625 
Q 20.703125 74.21875 34.1875 74.21875 
Q 37.796875 74.21875 41.40625 73.453125 
Q 45.015625 72.703125 48.390625 71.296875 
z
M 30.8125 40.484375 
Q 24.515625 40.484375 20.890625 35.9375 
Q 17.28125 31.390625 17.28125 23.390625 
Q 17.28125 15.375 20.890625 10.828125 
Q 24.515625 6.296875 30.8125 6.296875 
Q 37.359375 6.296875 40.671875 10.609375 
Q 44 14.9375 44 23.390625 
Q 44 31.890625 40.671875 36.1875 
Q 37.359375 40.484375 30.8125 40.484375 
z
" id="DejaVuSansMono-54"/>
      </defs>
      <use xlink:href="#DejaVuSansMono-121"/>
      <use x="60.205078" xlink:href="#DejaVuSansMono-95"/>
      <use x="120.410156" xlink:href="#DejaVuSansMono-48"/>
      <use x="180.615234" xlink:href="#DejaVuSansMono-32"/>
      <use x="240.820312" xlink:href="#DejaVuSansMono-32"/>
      <use x="301.025391" xlink:href="#DejaVuSansMono-32"/>
      <use x="361.230469" xlink:href="#DejaVuSansMono-32"/>
      <use x="421.435547" xlink:href="#DejaVuSansMono-61"/>
      <use x="481.640625" xlink:href="#DejaVuSansMono-32"/>
      <use x="541.845703" xlink:href="#DejaVuSansMono-49"/>
      <use x="602.050781" xlink:href="#DejaVuSansMono-51"/>
      <use x="662.255859" xlink:href="#DejaVuSansMono-56"/>
      <use x="722.460938" xlink:href="#DejaVuSansMono-51"/>
      <use x="782.666016" xlink:href="#DejaVuSansMono-54"/>
      <use x="842.871094" xlink:href="#DejaVuSansMono-55"/>
     </g>
     <!-- y_max  = 2798323360 -->
     <g transform="translate(380.288437 41.660812)scale(0.06 -0.06)">
      <defs>
       <path d="M 54.59375 54.6875 
L 35.015625 28.515625 
L 56.5 0 
L 46.09375 0 
L 30.078125 21.921875 
L 14.109375 0 
L 3.71875 0 
L 25.203125 28.515625 
L 5.609375 54.6875 
L 15.578125 54.6875 
L 30.078125 34.90625 
L 44.484375 54.6875 
z
" id="DejaVuSansMono-120"/>
      </defs>
      <use xlink:href="#DejaVuSansMono-121"/>
      <use x="60.205078" xlink:href="#DejaVuSansMono-95"/>
      <use x="120.410156" xlink:href="#DejaVuSansMono-109"/>
      <use x="180.615234" xlink:href="#DejaVuSansMono-97"/>
      <use x="240.820312" xlink:href="#DejaVuSansMono-120"/>
      <use x="301.025391" xlink:href="#DejaVuSansMono-32"/>
      <use x="361.230469" xlink:href="#DejaVuSansMono-32"/>
      <use x="421.435547" xlink:href="#DejaVuSansMono-61"/>
      <use x="481.640625" xlink:href="#DejaVuSansMono-32"/>
      <use x="541.845703" xlink:href="#DejaVuSansMono-50"/>
      <use x="602.050781" xlink:href="#DejaVuSansMono-55"/>
      <use x="662.255859" xlink:href="#DejaVuSansMono-57"/>
      <use x="722.460938" xlink:href="#DejaVuSansMono-56"/>
      <use x="782.666016" xlink:href="#DejaVuSansMono-51"/>
      <use x="842.871094" xlink:href="#DejaVuSansMono-50"/>
      <use x="903.076172" xlink:href="#DejaVuSansMono-51"/>
      <use x="963.28125" xlink:href="#DejaVuSansMono-51"/>
      <use x="1023.486328" xlink:href="#DejaVuSansMono-54"/>
      <use x="1083.691406" xlink:href="#DejaVuSansMono-48"/>
     </g>
     <!-- x_max  = 163 -->
     <g transform="translate(380.288437 48.584625)scale(0.06 -0.06)">
      <use xlink:href="#DejaVuSansMono-120"/>
      <use x="60.205078" xlink:href="#DejaVuSansMono-95"/>
      <use x="120.410156" xlink:href="#DejaVuSansMono-109"/>
      <use x="180.615234" xlink:href="#DejaVuSansMono-97"/>
      <use x="240.820312" xlink:href="#DejaVuSansMono-120"/>
      <use x="301.025391" xlink:href="#DejaVuSansMono-32"/>
      <use x="361.230469" xlink:href="#DejaVuSansMono-32"/>
      <use x="421.435547" xlink:href="#DejaVuSansMono-61"/>
      <use x="481.640625" xlink:href="#DejaVuSansMono-32"/>
      <use x="541.845703" xlink:href="#DejaVuSansMono-49"/>
      <use x="602.050781" xlink:href="#DejaVuSansMono-54"/>
      <use x="662.255859" xlink:href="#DejaVuSansMono-51"/>
     </g>
    </g>
    <g id="line2d_18">
     <path d="M 363.488437 66.499875 
L 375.488437 66.499875 
" style="fill:none;stroke:#ff7f0e;stroke-linecap:square;stroke-width:0.666667;"/>
    </g>
    <g id="line2d_19"/>
    <g id="text_18">
     <!-- "Widest":  -->
     <g transform="translate(380.288437 57.59025)scale(0.06 -0.06)">
      <defs>
       <path d="M 0 72.90625 
L 9.625 72.90625 
L 16.609375 13.71875 
L 24.90625 52.875 
L 35.203125 52.875 
L 43.609375 13.625 
L 50.59375 72.90625 
L 60.203125 72.90625 
L 49.3125 0 
L 39.984375 0 
L 30.078125 43.3125 
L 20.21875 0 
L 10.890625 0 
z
" id="DejaVuSansMono-87"/>
       <path d="M 12.5 54.6875 
L 35.5 54.6875 
L 35.5 6.984375 
L 53.328125 6.984375 
L 53.328125 0 
L 8.6875 0 
L 8.6875 6.984375 
L 26.515625 6.984375 
L 26.515625 47.703125 
L 12.5 47.703125 
z
M 26.515625 75.984375 
L 35.5 75.984375 
L 35.5 64.59375 
L 26.515625 64.59375 
z
" id="DejaVuSansMono-105"/>
       <path d="M 41.890625 47.703125 
L 41.890625 75.984375 
L 50.875 75.984375 
L 50.875 0 
L 41.890625 0 
L 41.890625 6.890625 
Q 39.65625 2.828125 35.90625 0.703125 
Q 32.171875 -1.421875 27.296875 -1.421875 
Q 17.390625 -1.421875 11.6875 6.265625 
Q 6 13.96875 6 27.484375 
Q 6 40.828125 11.71875 48.40625 
Q 17.4375 56 27.296875 56 
Q 32.234375 56 35.984375 53.875 
Q 39.75 51.765625 41.890625 47.703125 
z
M 15.484375 27.296875 
Q 15.484375 16.84375 18.796875 11.515625 
Q 22.125 6.203125 28.609375 6.203125 
Q 35.109375 6.203125 38.5 11.5625 
Q 41.890625 16.9375 41.890625 27.296875 
Q 41.890625 37.703125 38.5 43.046875 
Q 35.109375 48.390625 28.609375 48.390625 
Q 22.125 48.390625 18.796875 43.0625 
Q 15.484375 37.75 15.484375 27.296875 
z
" id="DejaVuSansMono-100"/>
      </defs>
      <use xlink:href="#DejaVuSansMono-34"/>
      <use x="60.205078" xlink:href="#DejaVuSansMono-87"/>
      <use x="120.410156" xlink:href="#DejaVuSansMono-105"/>
      <use x="180.615234" xlink:href="#DejaVuSansMono-100"/>
      <use x="240.820312" xlink:href="#DejaVuSansMono-101"/>
      <use x="301.025391" xlink:href="#DejaVuSansMono-115"/>
      <use x="361.230469" xlink:href="#DejaVuSansMono-116"/>
      <use x="421.435547" xlink:href="#DejaVuSansMono-34"/>
      <use x="481.640625" xlink:href="#DejaVuSansMono-58"/>
      <use x="541.845703" xlink:href="#DejaVuSansMono-32"/>
     </g>
     <!-- y_0    = 106239 -->
     <g transform="translate(380.288437 64.347187)scale(0.06 -0.06)">
      <use xlink:href="#DejaVuSansMono-121"/>
      <use x="60.205078" xlink:href="#DejaVuSansMono-95"/>
      <use x="120.410156" xlink:href="#DejaVuSansMono-48"/>
      <use x="180.615234" xlink:href="#DejaVuSansMono-32"/>
      <use x="240.820312" xlink:href="#DejaVuSansMono-32"/>
      <use x="301.025391" xlink:href="#DejaVuSansMono-32"/>
      <use x="361.230469" xlink:href="#DejaVuSansMono-32"/>
      <use x="421.435547" xlink:href="#DejaVuSansMono-61"/>
      <use x="481.640625" xlink:href="#DejaVuSansMono-32"/>
      <use x="541.845703" xlink:href="#DejaVuSansMono-49"/>
      <use x="602.050781" xlink:href="#DejaVuSansMono-48"/>
      <use x="662.255859" xlink:href="#DejaVuSansMono-54"/>
      <use x="722.460938" xlink:href="#DejaVuSansMono-50"/>
      <use x="782.666016" xlink:href="#DejaVuSansMono-51"/>
      <use x="842.871094" xlink:href="#DejaVuSansMono-57"/>
     </g>
     <!-- y_max  = 104674192 -->
     <g transform="translate(380.288437 71.271)scale(0.06 -0.06)">
      <defs>
       <path d="M 35.890625 63.921875 
L 12.890625 25.390625 
L 35.890625 25.390625 
z
M 34.28125 72.90625 
L 45.703125 72.90625 
L 45.703125 25.390625 
L 55.421875 25.390625 
L 55.421875 17.390625 
L 45.703125 17.390625 
L 45.703125 0 
L 35.890625 0 
L 35.890625 17.390625 
L 4.984375 17.390625 
L 4.984375 26.703125 
z
" id="DejaVuSansMono-52"/>
      </defs>
      <use xlink:href="#DejaVuSansMono-121"/>
      <use x="60.205078" xlink:href="#DejaVuSansMono-95"/>
      <use x="120.410156" xlink:href="#DejaVuSansMono-109"/>
      <use x="180.615234" xlink:href="#DejaVuSansMono-97"/>
      <use x="240.820312" xlink:href="#DejaVuSansMono-120"/>
      <use x="301.025391" xlink:href="#DejaVuSansMono-32"/>
      <use x="361.230469" xlink:href="#DejaVuSansMono-32"/>
      <use x="421.435547" xlink:href="#DejaVuSansMono-61"/>
      <use x="481.640625" xlink:href="#DejaVuSansMono-32"/>
      <use x="541.845703" xlink:href="#DejaVuSansMono-49"/>
      <use x="602.050781" xlink:href="#DejaVuSansMono-48"/>
      <use x="662.255859" xlink:href="#DejaVuSansMono-52"/>
      <use x="722.460938" xlink:href="#DejaVuSansMono-54"/>
      <use x="782.666016" xlink:href="#DejaVuSansMono-55"/>
      <use x="842.871094" xlink:href="#DejaVuSansMono-52"/>
      <use x="903.076172" xlink:href="#DejaVuSansMono-49"/>
      <use x="963.28125" xlink:href="#DejaVuSansMono-57"/>
      <use x="1023.486328" xlink:href="#DejaVuSansMono-50"/>
     </g>
     <!-- x_max  = 354 -->
     <g transform="translate(380.288437 78.194812)scale(0.06 -0.06)">
      <use xlink:href="#DejaVuSansMono-120"/>
      <use x="60.205078" xlink:href="#DejaVuSansMono-95"/>
      <use x="120.410156" xlink:href="#DejaVuSansMono-109"/>
      <use x="180.615234" xlink:href="#DejaVuSansMono-97"/>
      <use x="240.820312" xlink:href="#DejaVuSansMono-120"/>
      <use x="301.025391" xlink:href="#DejaVuSansMono-32"/>
      <use x="361.230469" xlink:href="#DejaVuSansMono-32"/>
      <use x="421.435547" xlink:href="#DejaVuSansMono-61"/>
      <use x="481.640625" xlink:href="#DejaVuSansMono-32"/>
      <use x="541.845703" xlink:href="#DejaVuSansMono-51"/>
      <use x="602.050781" xlink:href="#DejaVuSansMono-53"/>
      <use x="662.255859" xlink:href="#DejaVuSansMono-52"/>
     </g>
    </g>
   </g>
  </g>
 </g>
 <defs>
  <clipPath id="p71fc5b0192">
   <rect height="298.453375" width="420.98125" x="33.33875" y="17.989125"/>
  </clipPath>
 </defs>
</svg>
