<?xml version="1.0" encoding="utf-8" standalone="no"?>
<!DOCTYPE svg PUBLIC "-//W3C//DTD SVG 1.1//EN"
  "http://www.w3.org/Graphics/SVG/1.1/DTD/svg11.dtd">
<!-- Created with matplotlib (https://matplotlib.org/) -->
<svg height="345.6pt" version="1.1" viewBox="0 0 460.8 345.6" width="460.8pt" xmlns="http://www.w3.org/2000/svg" xmlns:xlink="http://www.w3.org/1999/xlink">
 <metadata>
  <rdf:RDF xmlns:cc="http://creativecommons.org/ns#" xmlns:dc="http://purl.org/dc/elements/1.1/" xmlns:rdf="http://www.w3.org/1999/02/22-rdf-syntax-ns#">
   <cc:Work>
    <dc:type rdf:resource="http://purl.org/dc/dcmitype/StillImage"/>
    <dc:date>2022-03-17T01:48:28.432060</dc:date>
    <dc:format>image/svg+xml</dc:format>
    <dc:creator>
     <cc:Agent>
      <dc:title>Matplotlib v3.3.2, https://matplotlib.org/</dc:title>
     </cc:Agent>
    </dc:creator>
   </cc:Work>
  </rdf:RDF>
 </metadata>
 <defs>
  <style type="text/css">*{stroke-linecap:butt;stroke-linejoin:round;}</style>
 </defs>
 <g id="figure_1">
  <g id="patch_1">
   <path d="M 0 345.6 
L 460.8 345.6 
L 460.8 0 
L 0 0 
z
" style="fill:#ffffff;"/>
  </g>
  <g id="axes_1">
   <g id="patch_2">
    <path d="M 35.85875 316.4425 
L 454.32 316.4425 
L 454.32 17.989125 
L 35.85875 17.989125 
z
" style="fill:#ffffff;"/>
   </g>
   <g id="matplotlib.axis_1">
    <g id="xtick_1">
     <g id="line2d_1">
      <defs>
       <path d="M 0 0 
L 0 3.5 
" id="m059657bb36" style="stroke:#000000;stroke-width:0.8;"/>
      </defs>
      <g>
       <use style="stroke:#000000;stroke-width:0.8;" x="54.879716" xlink:href="#m059657bb36" y="316.4425"/>
      </g>
     </g>
     <g id="text_1">
      <!-- 0 -->
      <g transform="translate(53.073622 328.033437)scale(0.06 -0.06)">
       <defs>
        <path d="M 23.578125 36.625 
Q 23.578125 39.3125 25.453125 41.265625 
Q 27.34375 43.21875 29.984375 43.21875 
Q 32.71875 43.21875 34.671875 41.265625 
Q 36.625 39.3125 36.625 36.625 
Q 36.625 33.890625 34.6875 31.984375 
Q 32.765625 30.078125 29.984375 30.078125 
Q 27.25 30.078125 25.40625 31.9375 
Q 23.578125 33.796875 23.578125 36.625 
z
M 30.078125 66.40625 
Q 23.1875 66.40625 19.796875 58.984375 
Q 16.40625 51.5625 16.40625 36.375 
Q 16.40625 21.234375 19.796875 13.8125 
Q 23.1875 6.390625 30.078125 6.390625 
Q 37.015625 6.390625 40.40625 13.8125 
Q 43.796875 21.234375 43.796875 36.375 
Q 43.796875 51.5625 40.40625 58.984375 
Q 37.015625 66.40625 30.078125 66.40625 
z
M 30.078125 74.21875 
Q 41.75 74.21875 47.734375 64.640625 
Q 53.71875 55.078125 53.71875 36.375 
Q 53.71875 17.71875 47.734375 8.140625 
Q 41.75 -1.421875 30.078125 -1.421875 
Q 18.40625 -1.421875 12.453125 8.140625 
Q 6.5 17.71875 6.5 36.375 
Q 6.5 55.078125 12.453125 64.640625 
Q 18.40625 74.21875 30.078125 74.21875 
z
" id="DejaVuSansMono-48"/>
       </defs>
       <use xlink:href="#DejaVuSansMono-48"/>
      </g>
     </g>
    </g>
    <g id="xtick_2">
     <g id="line2d_2">
      <g>
       <use style="stroke:#000000;stroke-width:0.8;" x="135.052386" xlink:href="#m059657bb36" y="316.4425"/>
      </g>
     </g>
     <g id="text_2">
      <!-- 200 -->
      <g transform="translate(129.634104 328.033437)scale(0.06 -0.06)">
       <defs>
        <path d="M 18.21875 8.296875 
L 51.703125 8.296875 
L 51.703125 0 
L 7.421875 0 
L 7.421875 8.296875 
Q 16.546875 17.921875 23.375 25.296875 
Q 30.21875 32.671875 32.8125 35.6875 
Q 37.703125 41.65625 39.40625 45.34375 
Q 41.109375 49.03125 41.109375 52.875 
Q 41.109375 58.984375 37.515625 62.453125 
Q 33.9375 65.921875 27.6875 65.921875 
Q 23.25 65.921875 18.359375 64.3125 
Q 13.484375 62.703125 8.015625 59.421875 
L 8.015625 69.390625 
Q 13.03125 71.78125 17.890625 73 
Q 22.75 74.21875 27.484375 74.21875 
Q 38.1875 74.21875 44.703125 68.53125 
Q 51.21875 62.84375 51.21875 53.609375 
Q 51.21875 48.921875 49.046875 44.234375 
Q 46.875 39.546875 42 33.890625 
Q 39.265625 30.71875 34.0625 25.09375 
Q 28.859375 19.484375 18.21875 8.296875 
z
" id="DejaVuSansMono-50"/>
       </defs>
       <use xlink:href="#DejaVuSansMono-50"/>
       <use x="60.205078" xlink:href="#DejaVuSansMono-48"/>
       <use x="120.410156" xlink:href="#DejaVuSansMono-48"/>
      </g>
     </g>
    </g>
    <g id="xtick_3">
     <g id="line2d_3">
      <g>
       <use style="stroke:#000000;stroke-width:0.8;" x="215.225056" xlink:href="#m059657bb36" y="316.4425"/>
      </g>
     </g>
     <g id="text_3">
      <!-- 400 -->
      <g transform="translate(209.806774 328.033437)scale(0.06 -0.06)">
       <defs>
        <path d="M 35.890625 63.921875 
L 12.890625 25.390625 
L 35.890625 25.390625 
z
M 34.28125 72.90625 
L 45.703125 72.90625 
L 45.703125 25.390625 
L 55.421875 25.390625 
L 55.421875 17.390625 
L 45.703125 17.390625 
L 45.703125 0 
L 35.890625 0 
L 35.890625 17.390625 
L 4.984375 17.390625 
L 4.984375 26.703125 
z
" id="DejaVuSansMono-52"/>
       </defs>
       <use xlink:href="#DejaVuSansMono-52"/>
       <use x="60.205078" xlink:href="#DejaVuSansMono-48"/>
       <use x="120.410156" xlink:href="#DejaVuSansMono-48"/>
      </g>
     </g>
    </g>
    <g id="xtick_4">
     <g id="line2d_4">
      <g>
       <use style="stroke:#000000;stroke-width:0.8;" x="295.397725" xlink:href="#m059657bb36" y="316.4425"/>
      </g>
     </g>
     <g id="text_4">
      <!-- 600 -->
      <g transform="translate(289.979444 328.033437)scale(0.06 -0.06)">
       <defs>
        <path d="M 48.390625 71.296875 
L 48.390625 62.203125 
Q 45.3125 64.015625 41.84375 64.96875 
Q 38.375 65.921875 34.625 65.921875 
Q 25.25 65.921875 20.40625 58.859375 
Q 15.578125 51.8125 15.578125 38.09375 
Q 17.921875 42.96875 22.0625 45.578125 
Q 26.21875 48.1875 31.59375 48.1875 
Q 42.140625 48.1875 47.921875 41.71875 
Q 53.71875 35.25 53.71875 23.390625 
Q 53.71875 11.578125 47.75 5.078125 
Q 41.796875 -1.421875 31 -1.421875 
Q 18.3125 -1.421875 12.40625 7.6875 
Q 6.5 16.796875 6.5 36.375 
Q 6.5 54.828125 13.59375 64.515625 
Q 20.703125 74.21875 34.1875 74.21875 
Q 37.796875 74.21875 41.40625 73.453125 
Q 45.015625 72.703125 48.390625 71.296875 
z
M 30.8125 40.484375 
Q 24.515625 40.484375 20.890625 35.9375 
Q 17.28125 31.390625 17.28125 23.390625 
Q 17.28125 15.375 20.890625 10.828125 
Q 24.515625 6.296875 30.8125 6.296875 
Q 37.359375 6.296875 40.671875 10.609375 
Q 44 14.9375 44 23.390625 
Q 44 31.890625 40.671875 36.1875 
Q 37.359375 40.484375 30.8125 40.484375 
z
" id="DejaVuSansMono-54"/>
       </defs>
       <use xlink:href="#DejaVuSansMono-54"/>
       <use x="60.205078" xlink:href="#DejaVuSansMono-48"/>
       <use x="120.410156" xlink:href="#DejaVuSansMono-48"/>
      </g>
     </g>
    </g>
    <g id="xtick_5">
     <g id="line2d_5">
      <g>
       <use style="stroke:#000000;stroke-width:0.8;" x="375.570395" xlink:href="#m059657bb36" y="316.4425"/>
      </g>
     </g>
     <g id="text_5">
      <!-- 800 -->
      <g transform="translate(370.152114 328.033437)scale(0.06 -0.06)">
       <defs>
        <path d="M 30.078125 34.625 
Q 23.484375 34.625 19.890625 30.9375 
Q 16.3125 27.25 16.3125 20.515625 
Q 16.3125 13.765625 19.9375 10.03125 
Q 23.578125 6.296875 30.078125 6.296875 
Q 36.71875 6.296875 40.296875 9.984375 
Q 43.890625 13.671875 43.890625 20.515625 
Q 43.890625 27.203125 40.25 30.90625 
Q 36.625 34.625 30.078125 34.625 
z
M 21.484375 38.71875 
Q 15.1875 40.328125 11.640625 44.71875 
Q 8.109375 49.125 8.109375 55.328125 
Q 8.109375 64.015625 14.015625 69.109375 
Q 19.921875 74.21875 30.078125 74.21875 
Q 40.28125 74.21875 46.1875 69.109375 
Q 52.09375 64.015625 52.09375 55.328125 
Q 52.09375 49.125 48.546875 44.71875 
Q 45.015625 40.328125 38.71875 38.71875 
Q 46.046875 37.109375 49.921875 32.21875 
Q 53.8125 27.34375 53.8125 19.578125 
Q 53.8125 9.71875 47.515625 4.140625 
Q 41.21875 -1.421875 30.078125 -1.421875 
Q 18.953125 -1.421875 12.671875 4.125 
Q 6.390625 9.671875 6.390625 19.484375 
Q 6.390625 27.296875 10.265625 32.203125 
Q 14.15625 37.109375 21.484375 38.71875 
z
M 17.921875 54.390625 
Q 17.921875 48.53125 21.046875 45.453125 
Q 24.171875 42.390625 30.078125 42.390625 
Q 36.03125 42.390625 39.15625 45.453125 
Q 42.28125 48.53125 42.28125 54.390625 
Q 42.28125 60.359375 39.171875 63.484375 
Q 36.078125 66.609375 30.078125 66.609375 
Q 24.171875 66.609375 21.046875 63.453125 
Q 17.921875 60.296875 17.921875 54.390625 
z
" id="DejaVuSansMono-56"/>
       </defs>
       <use xlink:href="#DejaVuSansMono-56"/>
       <use x="60.205078" xlink:href="#DejaVuSansMono-48"/>
       <use x="120.410156" xlink:href="#DejaVuSansMono-48"/>
      </g>
     </g>
    </g>
    <g id="text_6">
     <!-- n -->
     <g transform="translate(243.283281 337.872187)scale(0.06 -0.06)">
      <defs>
       <path d="M 51.3125 33.890625 
L 51.3125 0 
L 42.28125 0 
L 42.28125 33.890625 
Q 42.28125 41.265625 39.6875 44.71875 
Q 37.109375 48.1875 31.59375 48.1875 
Q 25.296875 48.1875 21.890625 43.71875 
Q 18.5 39.265625 18.5 30.90625 
L 18.5 0 
L 9.515625 0 
L 9.515625 54.6875 
L 18.5 54.6875 
L 18.5 46.484375 
Q 20.90625 51.171875 25 53.578125 
Q 29.109375 56 34.71875 56 
Q 43.0625 56 47.1875 50.5 
Q 51.3125 45.015625 51.3125 33.890625 
z
" id="DejaVuSansMono-110"/>
      </defs>
      <use xlink:href="#DejaVuSansMono-110"/>
     </g>
    </g>
   </g>
   <g id="matplotlib.axis_2">
    <g id="ytick_1">
     <g id="line2d_6">
      <defs>
       <path d="M 0 0 
L -3.5 0 
" id="m735e3b6970" style="stroke:#000000;stroke-width:0.8;"/>
      </defs>
      <g>
       <use style="stroke:#000000;stroke-width:0.8;" x="35.85875" xlink:href="#m735e3b6970" y="285.188664"/>
      </g>
     </g>
     <g id="text_7">
      <!-- $\mathdefault{10^{1}}$ -->
      <g transform="translate(18.83875 287.484133)scale(0.06 -0.06)">
       <defs>
        <path d="M 13.1875 8.296875 
L 28.515625 8.296875 
L 28.515625 64.015625 
L 12.015625 60.296875 
L 12.015625 69.28125 
L 28.421875 72.90625 
L 38.28125 72.90625 
L 38.28125 8.296875 
L 53.421875 8.296875 
L 53.421875 0 
L 13.1875 0 
z
" id="DejaVuSansMono-49"/>
       </defs>
       <use transform="translate(0 0.684375)" xlink:href="#DejaVuSansMono-49"/>
       <use transform="translate(60.205078 0.684375)" xlink:href="#DejaVuSansMono-48"/>
       <use transform="translate(121.367188 38.965625)scale(0.7)" xlink:href="#DejaVuSansMono-49"/>
      </g>
     </g>
    </g>
    <g id="ytick_2">
     <g id="line2d_7">
      <g>
       <use style="stroke:#000000;stroke-width:0.8;" x="35.85875" xlink:href="#m735e3b6970" y="249.813117"/>
      </g>
     </g>
     <g id="text_8">
      <!-- $\mathdefault{10^{3}}$ -->
      <g transform="translate(18.83875 252.108585)scale(0.06 -0.06)">
       <defs>
        <path d="M 37.890625 39.015625 
Q 45.0625 37.109375 48.875 32.25 
Q 52.6875 27.390625 52.6875 20.125 
Q 52.6875 10.0625 45.921875 4.3125 
Q 39.15625 -1.421875 27.203125 -1.421875 
Q 22.171875 -1.421875 16.9375 -0.484375 
Q 11.71875 0.4375 6.6875 2.203125 
L 6.6875 12.015625 
Q 11.671875 9.421875 16.5 8.15625 
Q 21.34375 6.890625 26.125 6.890625 
Q 34.234375 6.890625 38.578125 10.546875 
Q 42.921875 14.203125 42.921875 21.09375 
Q 42.921875 27.4375 38.578125 31.171875 
Q 34.234375 34.90625 26.8125 34.90625 
L 19.28125 34.90625 
L 19.28125 43.015625 
L 26.8125 43.015625 
Q 33.59375 43.015625 37.40625 45.984375 
Q 41.21875 48.96875 41.21875 54.296875 
Q 41.21875 59.90625 37.671875 62.90625 
Q 34.125 65.921875 27.59375 65.921875 
Q 23.25 65.921875 18.609375 64.9375 
Q 13.96875 63.96875 8.890625 62.015625 
L 8.890625 71.09375 
Q 14.796875 72.65625 19.40625 73.4375 
Q 24.03125 74.21875 27.59375 74.21875 
Q 38.234375 74.21875 44.609375 68.875 
Q 50.984375 63.53125 50.984375 54.6875 
Q 50.984375 48.6875 47.625 44.671875 
Q 44.28125 40.671875 37.890625 39.015625 
z
" id="DejaVuSansMono-51"/>
       </defs>
       <use transform="translate(0 0.765625)" xlink:href="#DejaVuSansMono-49"/>
       <use transform="translate(60.205078 0.765625)" xlink:href="#DejaVuSansMono-48"/>
       <use transform="translate(121.367188 39.046875)scale(0.7)" xlink:href="#DejaVuSansMono-51"/>
      </g>
     </g>
    </g>
    <g id="ytick_3">
     <g id="line2d_8">
      <g>
       <use style="stroke:#000000;stroke-width:0.8;" x="35.85875" xlink:href="#m735e3b6970" y="214.437569"/>
      </g>
     </g>
     <g id="text_9">
      <!-- $\mathdefault{10^{5}}$ -->
      <g transform="translate(18.83875 216.733038)scale(0.06 -0.06)">
       <defs>
        <path d="M 10.109375 72.90625 
L 47.015625 72.90625 
L 47.015625 64.59375 
L 19.09375 64.59375 
L 19.09375 46.6875 
Q 21.1875 47.46875 23.3125 47.828125 
Q 25.4375 48.1875 27.59375 48.1875 
Q 38.921875 48.1875 45.5625 41.5 
Q 52.203125 34.8125 52.203125 23.390625 
Q 52.203125 11.859375 45.234375 5.21875 
Q 38.28125 -1.421875 26.21875 -1.421875 
Q 20.40625 -1.421875 15.59375 -0.640625 
Q 10.796875 0.140625 6.984375 1.703125 
L 6.984375 11.71875 
Q 11.46875 9.28125 16.015625 8.078125 
Q 20.5625 6.890625 25.296875 6.890625 
Q 33.453125 6.890625 37.859375 11.1875 
Q 42.28125 15.484375 42.28125 23.390625 
Q 42.28125 31.203125 37.71875 35.546875 
Q 33.15625 39.890625 25 39.890625 
Q 21.046875 39.890625 17.28125 38.984375 
Q 13.53125 38.09375 10.109375 36.28125 
z
" id="DejaVuSansMono-53"/>
       </defs>
       <use transform="translate(0 0.684375)" xlink:href="#DejaVuSansMono-49"/>
       <use transform="translate(60.205078 0.684375)" xlink:href="#DejaVuSansMono-48"/>
       <use transform="translate(121.367188 38.965625)scale(0.7)" xlink:href="#DejaVuSansMono-53"/>
      </g>
     </g>
    </g>
    <g id="ytick_4">
     <g id="line2d_9">
      <g>
       <use style="stroke:#000000;stroke-width:0.8;" x="35.85875" xlink:href="#m735e3b6970" y="179.062022"/>
      </g>
     </g>
     <g id="text_10">
      <!-- $\mathdefault{10^{7}}$ -->
      <g transform="translate(18.83875 181.357491)scale(0.06 -0.06)">
       <defs>
        <path d="M 6.78125 72.90625 
L 52.6875 72.90625 
L 52.6875 68.703125 
L 26.609375 0 
L 16.3125 0 
L 41.703125 64.59375 
L 6.78125 64.59375 
z
" id="DejaVuSansMono-55"/>
       </defs>
       <use transform="translate(0 0.684375)" xlink:href="#DejaVuSansMono-49"/>
       <use transform="translate(60.205078 0.684375)" xlink:href="#DejaVuSansMono-48"/>
       <use transform="translate(121.367188 38.965625)scale(0.7)" xlink:href="#DejaVuSansMono-55"/>
      </g>
     </g>
    </g>
    <g id="ytick_5">
     <g id="line2d_10">
      <g>
       <use style="stroke:#000000;stroke-width:0.8;" x="35.85875" xlink:href="#m735e3b6970" y="143.686475"/>
      </g>
     </g>
     <g id="text_11">
      <!-- $\mathdefault{10^{9}}$ -->
      <g transform="translate(18.83875 145.981944)scale(0.06 -0.06)">
       <defs>
        <path d="M 29.109375 32.328125 
Q 35.40625 32.328125 38.984375 36.859375 
Q 42.578125 41.40625 42.578125 49.421875 
Q 42.578125 57.421875 38.984375 61.953125 
Q 35.40625 66.5 29.109375 66.5 
Q 22.5625 66.5 19.234375 62.171875 
Q 15.921875 57.859375 15.921875 49.421875 
Q 15.921875 40.921875 19.21875 36.625 
Q 22.515625 32.328125 29.109375 32.328125 
z
M 11.53125 1.515625 
L 11.53125 10.59375 
Q 14.59375 8.796875 18.0625 7.84375 
Q 21.53125 6.890625 25.296875 6.890625 
Q 34.671875 6.890625 39.46875 13.9375 
Q 44.28125 21 44.28125 34.71875 
Q 42 29.828125 37.84375 27.21875 
Q 33.6875 24.609375 28.328125 24.609375 
Q 17.78125 24.609375 11.984375 31.09375 
Q 6.203125 37.59375 6.203125 49.515625 
Q 6.203125 61.28125 12.125 67.75 
Q 18.0625 74.21875 28.90625 74.21875 
Q 41.609375 74.21875 47.515625 65.078125 
Q 53.421875 55.953125 53.421875 36.375 
Q 53.421875 17.96875 46.3125 8.265625 
Q 39.203125 -1.421875 25.6875 -1.421875 
Q 22.125 -1.421875 18.5 -0.65625 
Q 14.890625 0.09375 11.53125 1.515625 
z
" id="DejaVuSansMono-57"/>
       </defs>
       <use transform="translate(0 0.765625)" xlink:href="#DejaVuSansMono-49"/>
       <use transform="translate(60.205078 0.765625)" xlink:href="#DejaVuSansMono-48"/>
       <use transform="translate(121.367188 39.046875)scale(0.7)" xlink:href="#DejaVuSansMono-57"/>
      </g>
     </g>
    </g>
    <g id="ytick_6">
     <g id="line2d_11">
      <g>
       <use style="stroke:#000000;stroke-width:0.8;" x="35.85875" xlink:href="#m735e3b6970" y="108.310928"/>
      </g>
     </g>
     <g id="text_12">
      <!-- $\mathdefault{10^{11}}$ -->
      <g transform="translate(16.31875 110.606397)scale(0.06 -0.06)">
       <use transform="translate(0 0.684375)" xlink:href="#DejaVuSansMono-49"/>
       <use transform="translate(60.205078 0.684375)" xlink:href="#DejaVuSansMono-48"/>
       <use transform="translate(121.367188 38.965625)scale(0.7)" xlink:href="#DejaVuSansMono-49"/>
       <use transform="translate(163.510742 38.965625)scale(0.7)" xlink:href="#DejaVuSansMono-49"/>
      </g>
     </g>
    </g>
    <g id="ytick_7">
     <g id="line2d_12">
      <g>
       <use style="stroke:#000000;stroke-width:0.8;" x="35.85875" xlink:href="#m735e3b6970" y="72.935381"/>
      </g>
     </g>
     <g id="text_13">
      <!-- $\mathdefault{10^{13}}$ -->
      <g transform="translate(16.31875 75.230849)scale(0.06 -0.06)">
       <use transform="translate(0 0.765625)" xlink:href="#DejaVuSansMono-49"/>
       <use transform="translate(60.205078 0.765625)" xlink:href="#DejaVuSansMono-48"/>
       <use transform="translate(121.367188 39.046875)scale(0.7)" xlink:href="#DejaVuSansMono-49"/>
       <use transform="translate(163.510742 39.046875)scale(0.7)" xlink:href="#DejaVuSansMono-51"/>
      </g>
     </g>
    </g>
    <g id="ytick_8">
     <g id="line2d_13">
      <g>
       <use style="stroke:#000000;stroke-width:0.8;" x="35.85875" xlink:href="#m735e3b6970" y="37.559833"/>
      </g>
     </g>
     <g id="text_14">
      <!-- $\mathdefault{10^{15}}$ -->
      <g transform="translate(16.31875 39.855302)scale(0.06 -0.06)">
       <use transform="translate(0 0.684375)" xlink:href="#DejaVuSansMono-49"/>
       <use transform="translate(60.205078 0.684375)" xlink:href="#DejaVuSansMono-48"/>
       <use transform="translate(121.367188 38.965625)scale(0.7)" xlink:href="#DejaVuSansMono-49"/>
       <use transform="translate(163.510742 38.965625)scale(0.7)" xlink:href="#DejaVuSansMono-53"/>
      </g>
     </g>
    </g>
    <g id="text_15">
     <!-- y_n -->
     <g transform="translate(10.904063 172.634094)rotate(-90)scale(0.06 -0.06)">
      <defs>
       <path d="M 41.890625 17.578125 
Q 39.65625 11.859375 36.1875 2.546875 
Q 31.34375 -10.359375 29.6875 -13.1875 
Q 27.4375 -17 24.0625 -18.890625 
Q 20.703125 -20.796875 16.21875 -20.796875 
L 8.984375 -20.796875 
L 8.984375 -13.28125 
L 14.3125 -13.28125 
Q 18.265625 -13.28125 20.5 -10.984375 
Q 22.75 -8.6875 26.21875 0.875 
L 5.078125 54.6875 
L 14.59375 54.6875 
L 30.8125 11.921875 
L 46.78125 54.6875 
L 56.296875 54.6875 
z
" id="DejaVuSansMono-121"/>
       <path d="M 60.203125 -19.671875 
L 60.203125 -23.578125 
L 0 -23.578125 
L 0 -19.671875 
z
" id="DejaVuSansMono-95"/>
      </defs>
      <use xlink:href="#DejaVuSansMono-121"/>
      <use x="60.205078" xlink:href="#DejaVuSansMono-95"/>
      <use x="120.410156" xlink:href="#DejaVuSansMono-110"/>
     </g>
    </g>
   </g>
   <g id="line2d_14">
    <path clip-path="url(#p2a63997f0b)" d="M 54.879716 163.08363 
L 55.280579 154.644417 
L 55.681443 159.968968 
L 56.082306 151.529755 
L 56.483169 156.854305 
L 56.884033 148.415092 
L 57.284896 153.739643 
L 57.685759 145.30043 
L 58.487486 155.949531 
L 58.888349 147.510318 
L 59.289213 152.834869 
L 59.690076 144.395656 
L 60.090939 149.720206 
L 60.491803 141.280994 
L 60.892666 146.605544 
L 61.293529 138.166331 
L 61.694393 143.490882 
L 62.095256 135.051669 
L 62.49612 140.376219 
L 62.896983 131.937007 
L 63.297846 137.261557 
L 63.69871 128.822344 
L 64.099573 134.146895 
L 64.500436 125.707682 
L 64.9013 131.032232 
L 65.302163 122.59302 
L 65.703026 127.91757 
L 66.10389 119.478357 
L 66.504753 124.802908 
L 66.905616 116.363695 
L 67.30648 121.688245 
L 67.707343 113.249033 
L 68.909933 129.222684 
L 69.310796 120.783471 
L 69.71166 126.108021 
L 70.112523 117.668809 
L 70.91425 128.31791 
L 71.315113 119.878697 
L 71.715977 125.203247 
L 72.11684 116.764035 
L 72.517703 122.088585 
L 72.918567 113.649372 
L 73.720293 124.298473 
L 74.121157 115.85926 
L 74.52202 121.183811 
L 74.922883 112.744598 
L 76.125473 128.718249 
L 76.526337 120.279036 
L 77.328063 130.928137 
L 77.728927 122.488925 
L 78.12979 127.813475 
L 78.530653 119.374262 
L 78.931517 124.698813 
L 79.33238 116.2596 
L 80.134107 126.908701 
L 80.53497 118.469488 
L 80.935834 123.794038 
L 81.336697 115.354826 
L 82.138424 126.003926 
L 82.539287 117.564714 
L 82.94015 122.889264 
L 83.341014 114.450051 
L 83.741877 119.774602 
L 84.14274 111.335389 
L 84.944467 121.98449 
L 85.34533 113.545277 
L 85.746194 118.869828 
L 86.147057 110.430615 
L 86.54792 115.755165 
L 86.948784 107.315953 
L 87.750511 117.965053 
L 88.151374 109.525841 
L 88.552237 114.850391 
L 88.953101 106.411178 
L 89.353964 111.735729 
L 89.754827 103.296516 
L 90.556554 113.945617 
L 90.957417 105.506404 
L 91.358281 110.830954 
L 91.759144 102.391742 
L 92.160007 107.716292 
L 92.560871 99.277079 
L 92.961734 104.60163 
L 93.362597 96.162417 
L 93.763461 101.486967 
L 94.164324 93.047755 
L 94.565187 98.372305 
L 94.966051 89.933092 
L 95.366914 95.257643 
L 95.767778 86.81843 
L 96.569504 97.467531 
L 96.970368 89.028318 
L 97.371231 94.352869 
L 97.772094 85.913656 
L 98.172958 91.238206 
L 98.573821 82.798994 
L 98.974684 88.123544 
L 99.375548 79.684331 
L 99.776411 85.008882 
L 100.177274 76.569669 
L 100.979001 87.21877 
L 101.379864 78.779557 
L 101.780728 84.104107 
L 102.181591 75.664895 
L 102.582454 80.989445 
L 102.983318 72.550232 
L 103.384181 77.874783 
L 103.785044 69.43557 
L 104.185908 74.76012 
L 104.586771 66.320908 
L 104.987635 71.645458 
L 105.388498 63.206245 
L 105.789361 68.530796 
L 106.190225 60.091583 
L 106.591088 65.416133 
L 106.991951 56.976921 
L 107.392815 62.301471 
L 107.793678 53.862258 
L 108.194541 59.186809 
L 108.595405 50.747596 
L 108.996268 56.072146 
L 109.397131 47.632934 
L 110.599721 63.606585 
L 111.000585 55.167372 
L 111.401448 60.491923 
L 111.802311 52.05271 
L 112.203175 57.37726 
L 112.604038 48.938048 
L 113.004902 54.262598 
L 113.405765 45.823385 
L 114.207492 56.472486 
L 114.608355 48.033273 
L 115.009218 53.357824 
L 115.410082 44.918611 
L 115.810945 50.243161 
L 116.211808 41.803949 
L 117.013535 52.45305 
L 117.414398 44.013837 
L 117.815262 49.338387 
L 118.216125 40.899174 
L 118.616988 46.223725 
L 119.017852 37.784512 
L 119.418715 43.109063 
L 119.819578 34.66985 
L 120.220442 39.9944 
L 120.621305 31.555187 
L 121.423032 42.204288 
L 121.823895 33.765076 
L 123.026485 49.738727 
L 123.427349 41.299514 
L 124.229075 51.948615 
L 124.629939 43.509402 
L 125.030802 48.833953 
L 125.431665 40.39474 
L 126.233392 51.043841 
L 126.634255 42.604628 
L 127.836845 58.578279 
L 128.237709 50.139066 
L 128.638572 55.463617 
L 129.039435 47.024404 
L 129.440299 52.348955 
L 129.841162 43.909742 
L 130.642889 54.558843 
L 131.043752 46.11963 
L 131.845479 56.768731 
L 132.246342 48.329518 
L 132.647206 53.654068 
L 133.048069 45.214856 
L 133.448932 50.539406 
L 133.849796 42.100193 
L 134.250659 47.424744 
L 134.651522 38.985531 
L 135.052386 44.310081 
L 135.453249 35.870869 
L 136.655839 51.84452 
L 137.056702 43.405307 
L 137.457566 48.729858 
L 137.858429 40.290645 
L 138.660156 50.939746 
L 139.061019 42.500533 
L 139.461883 47.825083 
L 139.862746 39.385871 
L 140.664473 50.034971 
L 141.065336 41.595759 
L 141.466199 46.920309 
L 141.867063 38.481096 
L 142.267926 43.805647 
L 142.668789 35.366434 
L 143.871379 51.340085 
L 144.272243 42.900873 
L 144.673106 48.225423 
L 145.073969 39.78621 
L 145.875696 50.435311 
L 146.276559 41.996098 
L 148.280876 68.61885 
L 148.68174 60.179638 
L 149.082603 65.504188 
L 149.483466 57.064975 
L 149.88433 62.389526 
L 150.285193 53.950313 
L 151.08692 64.599414 
L 151.487783 56.160201 
L 151.888646 61.484751 
L 152.28951 53.045539 
L 153.091236 63.69464 
L 153.4921 55.255427 
L 153.892963 60.579977 
L 154.293826 52.140765 
L 155.496417 68.114416 
L 155.89728 59.675203 
L 156.699007 70.324304 
L 157.09987 61.885091 
L 157.901597 72.534192 
L 158.30246 64.094979 
L 158.703323 69.41953 
L 159.104187 60.980317 
L 159.50505 66.304867 
L 159.905913 57.865655 
L 160.306777 63.190205 
L 160.70764 54.750992 
L 161.108503 60.075543 
L 161.509367 51.63633 
L 163.11282 72.934532 
L 163.513683 64.495319 
L 163.914547 69.819869 
L 164.31541 61.380656 
L 165.117137 72.029757 
L 165.518 63.590545 
L 165.918864 68.915095 
L 166.319727 60.475882 
L 166.72059 65.800433 
L 167.121454 57.36122 
L 168.324044 73.334871 
L 168.724907 64.895658 
L 169.526634 75.544759 
L 169.927497 67.105547 
L 171.130087 83.079198 
L 171.53095 74.639985 
L 171.931814 79.964535 
L 172.332677 71.525323 
L 173.535267 87.498974 
L 173.936131 79.059761 
L 174.737857 89.708862 
L 175.138721 81.269649 
L 176.341311 97.243301 
L 176.742174 88.804088 
L 177.143037 94.128638 
L 177.543901 85.689425 
L 178.746491 101.663077 
L 179.147354 93.223864 
L 179.548217 98.548414 
L 179.949081 90.109202 
L 180.349944 95.433752 
L 180.750807 86.994539 
L 181.552534 97.64364 
L 181.953398 89.204427 
L 182.354261 94.528978 
L 182.755124 86.089765 
L 183.556851 96.738866 
L 183.957714 88.299653 
L 184.358578 93.624204 
L 184.759441 85.184991 
L 185.160304 90.509541 
L 185.561168 82.070329 
L 185.962031 87.394879 
L 186.362894 78.955666 
L 186.763758 84.280217 
L 187.164621 75.841004 
L 187.565484 81.165554 
L 187.966348 72.726342 
L 189.970665 99.349094 
L 190.371528 90.909881 
L 191.974981 112.208083 
L 192.375845 103.76887 
L 192.776708 109.09342 
L 193.177571 100.654207 
L 193.979298 111.303308 
L 194.380161 102.864096 
L 196.384478 129.486848 
L 196.785341 121.047635 
L 197.186205 126.372185 
L 197.587068 117.932973 
L 198.789658 133.906624 
L 199.190522 125.467411 
L 201.194838 152.090163 
L 201.595702 143.65095 
L 201.996565 148.975501 
L 202.397428 140.536288 
L 202.798292 145.860838 
L 203.199155 137.421626 
L 203.600018 142.746176 
L 204.000882 134.306963 
L 204.401745 139.631514 
L 204.802608 131.192301 
L 206.005198 147.165952 
L 206.406062 138.72674 
L 207.608652 154.700391 
L 208.009515 146.261178 
L 208.811242 156.910279 
L 209.212105 148.471066 
L 209.612969 153.795617 
L 210.013832 145.356404 
L 210.815559 156.005505 
L 211.216422 147.566292 
L 212.018149 158.215393 
L 212.419012 149.77618 
L 213.621602 165.749831 
L 214.022465 157.310618 
L 214.824192 167.959719 
L 215.225056 159.520506 
L 216.427646 175.494158 
L 216.828509 167.054945 
L 217.229372 172.379495 
L 217.630236 163.940282 
L 218.031099 169.264833 
L 218.431962 160.82562 
L 219.233689 171.474721 
L 219.634552 163.035508 
L 220.035416 168.360058 
L 220.436279 159.920846 
L 221.238006 170.569946 
L 221.638869 162.130734 
L 222.039732 167.455284 
L 222.440596 159.016071 
L 223.242322 169.665172 
L 223.643186 161.225959 
L 224.044049 166.55051 
L 224.444913 158.111297 
L 225.647503 174.084948 
L 226.048366 165.645735 
L 226.449229 170.970286 
L 226.850093 162.531073 
L 227.250956 167.855623 
L 227.651819 159.41641 
L 228.052683 164.740961 
L 228.453546 156.301748 
L 229.656136 172.275399 
L 230.056999 163.836186 
L 230.457863 169.160737 
L 230.858726 160.721524 
L 231.660453 171.370625 
L 232.061316 162.931412 
L 232.46218 168.255962 
L 232.863043 159.81675 
L 233.66477 170.46585 
L 234.065633 162.026638 
L 234.466496 167.351188 
L 234.86736 158.911975 
L 235.669086 169.561076 
L 236.06995 161.121863 
L 236.470813 166.446414 
L 236.871676 158.007201 
L 237.27254 163.331751 
L 237.673403 154.892538 
L 238.074266 160.217089 
L 238.47513 151.777876 
L 239.276856 162.426977 
L 239.67772 153.987764 
L 240.078583 159.312315 
L 240.479446 150.873102 
L 242.0829 172.171304 
L 242.483763 163.732091 
L 246.492397 216.977595 
L 246.89326 208.538346 
L 248.496713 229.836548 
L 248.897577 221.397145 
L 249.29844 226.721696 
L 249.699304 218.282356 
L 250.100167 223.606907 
L 250.50103 215.167609 
L 250.901894 220.49216 
L 251.302757 212.052891 
L 251.70362 217.377441 
L 252.104484 208.938191 
L 252.90621 219.587292 
L 253.307074 211.148029 
L 253.707937 216.472579 
L 254.1088 208.033333 
L 254.509664 213.357884 
L 254.910527 204.918649 
L 255.31139 210.243199 
L 255.712254 201.803971 
L 256.914844 217.777623 
L 257.315707 209.33837 
L 257.71657 214.662921 
L 258.117434 206.223682 
L 261.725204 254.144635 
L 262.126067 245.700924 
L 262.927794 256.350025 
L 263.328657 247.904818 
L 263.729521 253.229368 
L 264.130384 244.786162 
L 264.932111 255.435263 
L 265.332974 246.990728 
L 266.134701 257.639829 
L 266.535564 249.193527 
L 267.337291 259.842627 
L 267.738154 251.393972 
L 268.139018 256.718522 
L 268.539881 248.273021 
L 268.940744 253.597571 
L 269.341608 245.154169 
L 269.742471 250.478719 
L 270.143334 242.036715 
L 272.548514 273.984017 
L 272.949378 265.485486 
L 273.350241 270.810036 
L 273.751104 262.331531 
L 274.552831 272.980632 
L 274.953694 264.48934 
L 275.755421 275.13844 
L 276.156285 266.630333 
L 277.759738 287.928535 
L 278.160601 279.131969 
L 278.561465 284.456519 
L 278.962328 275.787985 
L 279.363191 281.112536 
L 279.764055 272.524159 
L 280.565781 283.17326 
L 280.966645 274.539563 
L 282.169235 290.513214 
L 282.570098 281.578236 
L 284.173552 302.876437 
L 284.173552 302.876437 
" style="fill:none;stroke:#1f77b4;stroke-linecap:square;stroke-width:0.666667;"/>
   </g>
   <g id="line2d_15">
    <path clip-path="url(#p2a63997f0b)" d="M 54.879716 164.835195 
L 55.280579 156.395982 
L 55.681443 161.720533 
L 56.082306 153.28132 
L 56.483169 158.60587 
L 56.884033 150.166657 
L 57.284896 155.491208 
L 57.685759 147.051995 
L 58.086623 152.376545 
L 58.487486 143.937333 
L 58.888349 149.261883 
L 59.289213 140.82267 
L 59.690076 146.147221 
L 60.090939 137.708008 
L 60.491803 143.032558 
L 60.892666 134.593346 
L 61.293529 139.917896 
L 61.694393 131.478683 
L 62.49612 142.127784 
L 62.896983 133.688572 
L 63.297846 139.013122 
L 63.69871 130.573909 
L 64.099573 135.89846 
L 64.500436 127.459247 
L 64.9013 132.783797 
L 65.302163 124.344585 
L 65.703026 129.669135 
L 66.10389 121.229922 
L 66.504753 126.554473 
L 66.905616 118.11526 
L 67.30648 123.43981 
L 67.707343 115.000598 
L 68.50907 125.649698 
L 68.909933 117.210486 
L 69.310796 122.535036 
L 69.71166 114.095823 
L 70.112523 119.420374 
L 70.513387 110.981161 
L 70.91425 116.305711 
L 71.315113 107.866499 
L 71.715977 113.191049 
L 72.11684 104.751836 
L 72.517703 110.076387 
L 72.918567 101.637174 
L 73.31943 106.961724 
L 73.720293 98.522512 
L 74.121157 103.847062 
L 74.52202 95.407849 
L 76.526337 122.030601 
L 76.9272 113.591389 
L 77.328063 118.915939 
L 77.728927 110.476726 
L 78.12979 115.801277 
L 78.530653 107.362064 
L 78.931517 112.686614 
L 79.33238 104.247402 
L 79.733244 109.571952 
L 80.134107 101.132739 
L 80.53497 106.45729 
L 80.935834 98.018077 
L 81.73756 108.667178 
L 82.138424 100.227965 
L 82.539287 105.552516 
L 82.94015 97.113303 
L 83.341014 102.437853 
L 83.741877 93.998641 
L 84.14274 99.323191 
L 84.543604 90.883978 
L 85.34533 101.533079 
L 85.746194 93.093866 
L 86.54792 103.742967 
L 86.948784 95.303754 
L 87.750511 105.952855 
L 88.151374 97.513642 
L 88.552237 102.838193 
L 88.953101 94.39898 
L 90.155691 110.372631 
L 90.556554 101.933419 
L 90.957417 107.257969 
L 91.358281 98.818756 
L 91.759144 104.143307 
L 92.160007 95.704094 
L 93.763461 117.002296 
L 94.164324 108.563083 
L 94.966051 119.212184 
L 95.366914 110.772971 
L 95.767778 116.097521 
L 96.168641 107.658309 
L 96.970368 118.307409 
L 97.371231 109.868197 
L 97.772094 115.192747 
L 98.172958 106.753534 
L 98.573821 112.078085 
L 98.974684 103.638872 
L 99.375548 108.963423 
L 99.776411 100.52421 
L 100.578138 111.173311 
L 100.979001 102.734098 
L 101.780728 113.383199 
L 102.181591 104.943986 
L 102.582454 110.268536 
L 102.983318 101.829324 
L 103.785044 112.478424 
L 104.185908 104.039212 
L 104.586771 109.363762 
L 104.987635 100.924549 
L 105.388498 106.2491 
L 105.789361 97.809887 
L 106.591088 108.458988 
L 106.991951 100.019775 
L 107.392815 105.344326 
L 107.793678 96.905113 
L 108.595405 107.554214 
L 108.996268 99.115001 
L 110.198858 115.088652 
L 110.599721 106.649439 
L 111.401448 117.29854 
L 111.802311 108.859328 
L 112.203175 114.183878 
L 112.604038 105.744665 
L 113.405765 116.393766 
L 113.806628 107.954553 
L 114.207492 113.279104 
L 114.608355 104.839891 
L 115.009218 110.164441 
L 115.410082 101.725229 
L 116.211808 112.374329 
L 116.612672 103.935117 
L 117.013535 109.259667 
L 117.414398 100.820454 
L 118.216125 111.469555 
L 118.616988 103.030342 
L 119.819578 119.003994 
L 120.220442 110.564781 
L 121.823895 131.862983 
L 122.224759 123.42377 
L 123.026485 134.072871 
L 123.427349 125.633658 
L 123.828212 130.958208 
L 124.229075 122.518996 
L 124.629939 127.843546 
L 125.030802 119.404333 
L 125.832529 130.053434 
L 126.233392 121.614221 
L 126.634255 126.938772 
L 127.035119 118.499559 
L 127.435982 123.824109 
L 127.836845 115.384897 
L 128.237709 120.709447 
L 128.638572 112.270234 
L 129.440299 122.919335 
L 129.841162 114.480123 
L 130.642889 125.129223 
L 131.043752 116.690011 
L 131.444616 122.014561 
L 131.845479 113.575348 
L 132.246342 118.899899 
L 132.647206 110.460686 
L 133.048069 115.785236 
L 133.448932 107.346024 
L 134.250659 117.995124 
L 134.651522 109.555912 
L 135.453249 120.205013 
L 135.854112 111.7658 
L 136.254976 117.09035 
L 136.655839 108.651137 
L 137.056702 113.975688 
L 137.457566 105.536475 
L 137.858429 110.861026 
L 138.259292 102.421813 
L 139.061019 113.070914 
L 139.461883 104.631701 
L 140.263609 115.280802 
L 140.664473 106.841589 
L 141.466199 117.49069 
L 141.867063 109.051477 
L 142.267926 114.376028 
L 142.668789 105.936815 
L 143.069653 111.261365 
L 143.470516 102.822152 
L 144.673106 118.795804 
L 145.073969 110.356591 
L 146.677423 131.654793 
L 147.078286 123.21558 
L 147.47915 128.54013 
L 147.880013 120.100918 
L 148.280876 125.425468 
L 148.68174 116.986255 
L 149.483466 127.635356 
L 149.88433 119.196143 
L 150.686056 129.845244 
L 151.08692 121.406031 
L 151.487783 126.730582 
L 151.888646 118.291369 
L 152.28951 123.615919 
L 152.690373 115.176707 
L 153.091236 120.501257 
L 153.4921 112.062044 
L 153.892963 117.386595 
L 154.293826 108.947382 
L 154.69469 114.271933 
L 155.095553 105.83272 
L 156.699007 127.130921 
L 157.09987 118.691709 
L 157.500733 124.016259 
L 157.901597 115.577046 
L 159.104187 131.550698 
L 159.50505 123.111485 
L 160.306777 133.760586 
L 160.70764 125.321373 
L 161.108503 130.645923 
L 161.509367 122.206711 
L 161.91023 127.531261 
L 162.311093 119.092048 
L 162.711957 124.416599 
L 163.11282 115.977386 
L 163.513683 121.301936 
L 163.914547 112.862724 
L 165.918864 139.485476 
L 166.319727 131.046263 
L 166.72059 136.370813 
L 167.121454 127.931601 
L 167.522317 133.256151 
L 167.92318 124.816938 
L 168.324044 130.141489 
L 168.724907 121.702276 
L 169.12577 127.026826 
L 169.526634 118.587614 
L 169.927497 123.912164 
L 170.32836 115.472951 
L 171.130087 126.122052 
L 171.53095 117.682839 
L 172.332677 128.33194 
L 172.733541 119.892728 
L 173.535267 130.541828 
L 173.936131 122.102616 
L 174.737857 132.751716 
L 175.138721 124.312504 
L 175.940447 134.961605 
L 176.341311 126.522392 
L 176.742174 131.846942 
L 177.143037 123.407729 
L 177.543901 128.73228 
L 177.944764 120.293067 
L 178.345627 125.617618 
L 178.746491 117.178405 
L 179.147354 122.502955 
L 179.548217 114.063742 
L 180.349944 124.712843 
L 180.750807 116.273631 
L 181.151671 121.598181 
L 181.552534 113.158968 
L 181.953398 118.483519 
L 182.354261 110.044306 
L 182.755124 115.368856 
L 183.155988 106.929644 
L 183.556851 112.254194 
L 183.957714 103.814981 
L 184.759441 114.464082 
L 185.160304 106.024869 
L 185.561168 111.34942 
L 185.962031 102.910207 
L 186.362894 108.234757 
L 186.763758 99.795545 
L 187.565484 110.444646 
L 187.966348 102.005433 
L 188.367211 107.329983 
L 188.768074 98.89077 
L 189.569801 109.539871 
L 189.970665 101.100659 
L 190.371528 106.425209 
L 190.772391 97.985996 
L 191.574118 108.635097 
L 191.974981 100.195884 
L 192.776708 110.844985 
L 193.177571 102.405772 
L 193.979298 113.054873 
L 194.380161 104.615661 
L 194.781025 109.940211 
L 195.181888 101.500998 
L 195.582751 106.825549 
L 195.983615 98.386336 
L 196.785341 109.035437 
L 197.186205 100.596224 
L 197.587068 105.920774 
L 197.987931 97.481562 
L 198.789658 108.130662 
L 199.190522 99.69145 
L 199.591385 105.016 
L 199.992248 96.576787 
L 200.393112 101.901338 
L 200.793975 93.462125 
L 201.595702 104.111226 
L 201.996565 95.672013 
L 203.600018 116.970215 
L 204.000882 108.531002 
L 204.802608 119.180103 
L 205.203472 110.74089 
L 205.604335 116.065441 
L 206.005198 107.626228 
L 206.806925 118.275329 
L 207.207789 109.836116 
L 207.608652 115.160666 
L 208.009515 106.721454 
L 208.410379 112.046004 
L 208.811242 103.606791 
L 209.612969 114.255892 
L 210.013832 105.816679 
L 210.414695 111.14123 
L 210.815559 102.702017 
L 211.617285 113.351118 
L 212.018149 104.911905 
L 212.419012 110.236456 
L 212.819875 101.797243 
L 213.621602 112.446344 
L 214.022465 104.007131 
L 215.225056 119.980782 
L 215.625919 111.541569 
L 216.427646 122.19067 
L 216.828509 113.751457 
L 217.229372 119.076008 
L 217.630236 110.636795 
L 218.031099 115.961346 
L 218.431962 107.522133 
L 218.832826 112.846683 
L 219.233689 104.40747 
L 220.837142 125.705672 
L 221.238006 117.266459 
L 222.039732 127.91556 
L 222.440596 119.476347 
L 222.841459 124.800898 
L 223.242322 116.361685 
L 223.643186 121.686236 
L 224.044049 113.247023 
L 224.444913 118.571573 
L 224.845776 110.132361 
L 226.449229 131.430562 
L 226.850093 122.991349 
L 227.250956 128.3159 
L 227.651819 119.876687 
L 228.052683 125.201238 
L 228.453546 116.762025 
L 228.854409 122.086575 
L 229.255273 113.647362 
L 229.656136 118.971913 
L 230.056999 110.5327 
L 230.858726 121.181801 
L 231.259589 112.742588 
L 232.46218 128.716239 
L 232.863043 120.277027 
L 233.66477 130.926128 
L 234.065633 122.486915 
L 234.466496 127.811465 
L 234.86736 119.372252 
L 235.268223 124.696803 
L 235.669086 116.25759 
L 236.871676 132.231241 
L 237.27254 123.792029 
L 238.074266 134.441129 
L 238.47513 126.001917 
L 239.67772 141.975568 
L 240.078583 133.536355 
L 240.479446 138.860906 
L 240.88031 130.421693 
L 242.884627 157.044445 
L 243.28549 148.605232 
L 244.087217 159.254333 
L 244.48808 150.81512 
L 244.888943 156.139671 
L 245.289807 147.700458 
L 245.69067 153.025008 
L 246.091533 144.585796 
L 246.492397 149.910346 
L 246.89326 141.471133 
L 247.294123 146.795684 
L 247.694987 138.356471 
L 248.496713 149.005572 
L 248.897577 140.566359 
L 249.29844 145.890909 
L 249.699304 137.451697 
L 250.100167 142.776247 
L 250.50103 134.337034 
L 250.901894 139.661585 
L 251.302757 131.222372 
L 251.70362 136.546922 
L 252.104484 128.10771 
L 252.90621 138.756811 
L 253.307074 130.317598 
L 254.1088 140.966699 
L 254.509664 132.527486 
L 254.910527 137.852036 
L 255.31139 129.412824 
L 256.113117 140.061924 
L 256.51398 131.622712 
L 257.315707 142.271812 
L 257.71657 133.8326 
L 258.518297 144.481701 
L 258.919161 136.042488 
L 259.720887 146.691589 
L 260.121751 138.252376 
L 261.324341 154.226027 
L 261.725204 145.786814 
L 262.126067 151.111365 
L 262.526931 142.672152 
L 262.927794 147.996702 
L 263.328657 139.55749 
L 264.130384 150.206591 
L 264.531247 141.767378 
L 265.733837 157.741029 
L 266.134701 149.301816 
L 266.535564 154.626367 
L 266.936428 146.187154 
L 267.337291 151.511704 
L 267.738154 143.072492 
L 268.139018 148.397042 
L 268.539881 139.957829 
L 268.940744 145.28238 
L 269.341608 136.843167 
L 270.143334 147.492268 
L 270.544198 139.053055 
L 272.147651 160.351257 
L 272.548514 151.912044 
L 272.949378 157.236594 
L 273.350241 148.797382 
L 273.751104 154.121932 
L 274.151968 145.682719 
L 274.953694 156.33182 
L 275.354558 147.892607 
L 275.755421 153.217158 
L 276.156285 144.777945 
L 276.557148 150.102495 
L 276.958011 141.663283 
L 277.358875 146.987833 
L 277.759738 138.54862 
L 278.561465 149.197721 
L 278.962328 140.758508 
L 279.363191 146.083059 
L 279.764055 137.643846 
L 280.164918 142.968397 
L 280.565781 134.529184 
L 281.367508 145.178285 
L 281.768371 136.739072 
L 283.371825 158.037274 
L 283.772688 149.598061 
L 284.173552 154.922611 
L 284.574415 146.483398 
L 284.975278 151.807949 
L 285.376142 143.368736 
L 285.777005 148.693287 
L 286.177868 140.254074 
L 286.578732 145.578624 
L 286.979595 137.139411 
L 287.781322 147.788512 
L 288.182185 139.3493 
L 288.583048 144.67385 
L 288.983912 136.234637 
L 289.384775 141.559188 
L 289.785638 133.119975 
L 290.587365 143.769076 
L 290.988228 135.329863 
L 291.389092 140.654413 
L 291.789955 132.215201 
L 292.992545 148.188852 
L 293.393409 139.749639 
L 294.195135 150.39874 
L 294.595999 141.959527 
L 296.199452 163.257729 
L 296.600315 154.818516 
L 297.001179 160.143067 
L 297.402042 151.703854 
L 298.203769 162.352955 
L 298.604632 153.913742 
L 299.005495 159.238292 
L 299.406359 150.799079 
L 300.608949 166.772731 
L 301.009812 158.333518 
L 301.811539 168.982619 
L 302.212402 160.543406 
L 303.014129 171.192507 
L 303.414992 162.753294 
L 304.617582 178.726945 
L 305.018446 170.287732 
L 305.419309 175.612283 
L 305.820172 167.17307 
L 306.221036 172.49762 
L 306.621899 164.058407 
L 307.022762 169.382958 
L 307.423626 160.943745 
L 307.824489 166.268295 
L 308.225352 157.829083 
L 309.027079 168.478183 
L 309.427943 160.038971 
L 310.229669 170.688071 
L 310.630533 162.248859 
L 311.031396 167.573409 
L 311.432259 159.134196 
L 311.833123 164.458747 
L 312.233986 156.019534 
L 312.634849 161.344084 
L 313.035713 152.904871 
L 313.436576 158.229422 
L 313.837439 149.790209 
L 314.639166 160.43931 
L 315.040029 152.000097 
L 315.841756 162.649198 
L 316.242619 154.209985 
L 316.643483 159.534536 
L 317.044346 151.095323 
L 317.445209 156.419873 
L 317.846073 147.980661 
L 318.246936 153.305211 
L 318.6478 144.865998 
L 319.048663 150.190549 
L 319.449526 141.751336 
L 320.251253 152.400437 
L 320.652116 143.961224 
L 321.05298 149.285774 
L 321.453843 140.846562 
L 321.854706 146.171112 
L 322.25557 137.731899 
L 323.057296 148.381 
L 323.45816 139.941787 
L 323.859023 145.266338 
L 324.259886 136.827125 
L 325.462476 152.800776 
L 325.86334 144.361564 
L 326.264203 149.686114 
L 326.665067 141.246901 
L 331.475427 205.141506 
L 331.87629 196.702286 
L 332.678017 207.351387 
L 333.07888 198.912164 
L 333.479743 204.236714 
L 333.880607 195.797495 
L 334.28147 201.122045 
L 334.682333 192.682828 
L 335.083197 198.007378 
L 335.48406 189.568162 
L 335.884924 194.892713 
L 336.285787 186.453498 
L 337.087514 197.102599 
L 337.488377 188.663383 
L 337.88924 193.987934 
L 338.290104 185.548719 
L 338.690967 190.87327 
L 339.09183 182.434056 
L 339.893557 193.083157 
L 340.29442 184.643942 
L 340.695284 189.968493 
L 341.096147 181.529279 
L 341.49701 186.853829 
L 341.897874 178.414616 
L 342.6996 189.063717 
L 343.100464 180.624503 
L 343.501327 185.949053 
L 343.902191 177.50984 
L 344.303054 182.834391 
L 344.703917 174.395177 
L 346.307371 195.693379 
L 346.708234 187.254164 
L 348.311687 208.552366 
L 348.712551 200.113141 
L 349.113414 205.437691 
L 349.514277 196.998471 
L 349.915141 202.323021 
L 350.316004 193.883803 
L 351.117731 204.532904 
L 351.518594 196.093684 
L 351.919458 201.418235 
L 352.320321 192.979017 
L 352.721184 198.303568 
L 353.122048 189.864352 
L 353.522911 195.188902 
L 353.923774 186.749687 
L 354.725501 197.398788 
L 355.126364 188.959573 
L 355.928091 199.608673 
L 356.328954 191.169457 
L 356.729818 196.494007 
L 357.130681 188.054792 
L 357.531544 193.379343 
L 357.932408 184.940128 
L 359.535861 206.23833 
L 359.936724 197.799108 
L 362.742768 235.070961 
L 363.143631 226.631373 
L 363.544495 231.955923 
L 363.945358 223.51646 
L 364.346221 228.84101 
L 364.747085 220.401631 
L 365.147948 225.726181 
L 365.548811 217.286857 
L 365.949675 222.611407 
L 366.350538 214.172121 
L 367.152265 224.821221 
L 367.553128 216.38191 
L 367.953991 221.70646 
L 368.354855 213.267181 
L 368.755718 218.591732 
L 369.156582 210.152475 
L 371.160898 236.775227 
L 371.561762 228.335545 
L 371.962625 233.660096 
L 372.363488 225.22057 
L 373.566078 241.194222 
L 373.966942 232.754175 
L 374.367805 238.078726 
L 374.768668 229.638957 
L 375.169532 234.963507 
L 375.570395 226.523924 
L 375.971258 231.848475 
L 376.372122 223.409015 
L 376.772985 228.733565 
L 377.173848 220.294188 
L 377.574712 225.618738 
L 377.975575 217.179416 
L 378.376439 222.503966 
L 378.777302 214.06468 
L 379.178165 219.389231 
L 379.579029 210.949969 
L 379.979892 216.27452 
L 380.380755 207.835274 
L 380.781619 213.159825 
L 381.182482 204.72059 
L 381.984209 215.369691 
L 382.385072 206.93045 
L 383.587662 222.904101 
L 383.988525 214.464811 
L 384.389389 219.789361 
L 384.790252 211.350097 
L 385.191115 216.674648 
L 385.591979 208.235401 
L 385.992842 213.559951 
L 386.393706 205.120715 
L 386.794569 210.445266 
L 387.195432 202.006038 
L 387.596296 207.330588 
L 387.997159 198.891365 
L 388.798886 209.540466 
L 389.199749 201.10124 
L 389.600612 206.42579 
L 390.001476 197.986569 
L 390.402339 203.311119 
L 390.803202 194.8719 
L 392.005792 210.845552 
L 392.406656 202.406323 
L 393.208382 213.055424 
L 393.609246 204.616189 
L 394.410972 215.26529 
L 394.811836 206.826049 
L 395.613563 217.47515 
L 396.014426 209.035899 
L 396.415289 214.36045 
L 396.816153 205.921211 
L 397.617879 216.570312 
L 398.018743 208.131066 
L 399.221333 224.104717 
L 399.622196 215.665414 
L 400.423923 226.314515 
L 400.824786 217.875182 
L 401.225649 223.199732 
L 401.626513 214.76044 
L 402.428239 225.40954 
L 402.829103 216.970221 
L 403.229966 222.294771 
L 403.63083 213.855487 
L 405.635146 240.478239 
L 406.03601 232.038267 
L 406.436873 237.362817 
L 406.837736 228.923098 
L 407.639463 239.572199 
L 408.040326 231.132311 
L 408.842053 241.781412 
L 409.242916 233.3413 
L 410.445506 249.314951 
L 410.84637 240.873339 
L 411.247233 246.197889 
L 411.648097 237.757077 
L 412.449823 248.406178 
L 412.850687 239.964833 
L 413.652413 250.613934 
L 414.053277 242.17188 
L 415.65673 263.470082 
L 416.057593 255.015733 
L 416.85932 265.664834 
L 417.260183 257.205485 
L 417.661047 262.530036 
L 418.06191 254.077429 
L 418.462773 259.401979 
L 418.863637 250.95385 
L 419.2645 256.2784 
L 419.665363 247.833249 
L 420.066227 253.157799 
L 420.46709 244.71463 
L 420.867954 250.03918 
L 421.268817 241.597331 
L 421.66968 246.921881 
L 422.070544 238.480911 
L 422.87227 249.130012 
L 423.273134 240.688457 
L 424.876587 261.986659 
L 425.27745 253.534965 
L 426.48004 269.508617 
L 426.880904 261.036222 
L 428.083494 277.009873 
L 428.484357 268.482868 
L 429.686947 284.456519 
L 430.087811 275.787985 
L 430.488674 281.112536 
L 430.889537 272.524159 
L 431.691264 283.17326 
L 432.092127 274.539563 
L 433.294717 290.513214 
L 433.695581 281.578236 
L 435.299034 302.876437 
L 435.299034 302.876437 
" style="fill:none;stroke:#ff7f0e;stroke-linecap:square;stroke-width:0.666667;"/>
   </g>
   <g id="patch_3">
    <path d="M 35.85875 316.4425 
L 35.85875 17.989125 
" style="fill:none;stroke:#000000;stroke-linecap:square;stroke-linejoin:miter;stroke-width:0.8;"/>
   </g>
   <g id="patch_4">
    <path d="M 454.32 316.4425 
L 454.32 17.989125 
" style="fill:none;stroke:#000000;stroke-linecap:square;stroke-linejoin:miter;stroke-width:0.8;"/>
   </g>
   <g id="patch_5">
    <path d="M 35.85875 316.4425 
L 454.32 316.4425 
" style="fill:none;stroke:#000000;stroke-linecap:square;stroke-linejoin:miter;stroke-width:0.8;"/>
   </g>
   <g id="patch_6">
    <path d="M 35.85875 17.989125 
L 454.32 17.989125 
" style="fill:none;stroke:#000000;stroke-linecap:square;stroke-linejoin:miter;stroke-width:0.8;"/>
   </g>
   <g id="text_16">
    <!-- "3y+1" problem -->
    <g transform="translate(214.747 11.989125)scale(0.072 -0.072)">
     <defs>
      <path d="M 43.703125 72.90625 
L 43.703125 45.796875 
L 35.203125 45.796875 
L 35.203125 72.90625 
z
M 25 72.90625 
L 25 45.796875 
L 16.5 45.796875 
L 16.5 72.90625 
z
" id="DejaVuSansMono-34"/>
      <path d="M 34.1875 57.171875 
L 34.1875 35.5 
L 55.90625 35.5 
L 55.90625 27.203125 
L 34.1875 27.203125 
L 34.1875 5.515625 
L 25.984375 5.515625 
L 25.984375 27.203125 
L 4.296875 27.203125 
L 4.296875 35.5 
L 25.984375 35.5 
L 25.984375 57.171875 
z
" id="DejaVuSansMono-43"/>
      <path id="DejaVuSansMono-32"/>
      <path d="M 18.3125 6.890625 
L 18.3125 -20.796875 
L 9.28125 -20.796875 
L 9.28125 54.6875 
L 18.3125 54.6875 
L 18.3125 47.703125 
Q 20.5625 51.765625 24.296875 53.875 
Q 28.03125 56 32.90625 56 
Q 42.828125 56 48.46875 48.328125 
Q 54.109375 40.671875 54.109375 27.09375 
Q 54.109375 13.765625 48.4375 6.171875 
Q 42.78125 -1.421875 32.90625 -1.421875 
Q 27.9375 -1.421875 24.1875 0.703125 
Q 20.453125 2.828125 18.3125 6.890625 
z
M 44.671875 27.296875 
Q 44.671875 37.75 41.375 43.0625 
Q 38.09375 48.390625 31.59375 48.390625 
Q 25.046875 48.390625 21.671875 43.046875 
Q 18.3125 37.703125 18.3125 27.296875 
Q 18.3125 16.9375 21.671875 11.5625 
Q 25.046875 6.203125 31.59375 6.203125 
Q 38.09375 6.203125 41.375 11.515625 
Q 44.671875 16.84375 44.671875 27.296875 
z
" id="DejaVuSansMono-112"/>
      <path d="M 56.390625 43.40625 
Q 53.515625 45.65625 50.53125 46.671875 
Q 47.5625 47.703125 44 47.703125 
Q 35.59375 47.703125 31.140625 42.421875 
Q 26.703125 37.15625 26.703125 27.203125 
L 26.703125 0 
L 17.671875 0 
L 17.671875 54.6875 
L 26.703125 54.6875 
L 26.703125 44 
Q 28.953125 49.8125 33.609375 52.90625 
Q 38.28125 56 44.671875 56 
Q 48 56 50.875 55.171875 
Q 53.765625 54.34375 56.390625 52.59375 
z
" id="DejaVuSansMono-114"/>
      <path d="M 30.078125 48.390625 
Q 23.25 48.390625 19.734375 43.0625 
Q 16.21875 37.75 16.21875 27.296875 
Q 16.21875 16.890625 19.734375 11.546875 
Q 23.25 6.203125 30.078125 6.203125 
Q 36.96875 6.203125 40.484375 11.546875 
Q 44 16.890625 44 27.296875 
Q 44 37.75 40.484375 43.0625 
Q 36.96875 48.390625 30.078125 48.390625 
z
M 30.078125 56 
Q 41.453125 56 47.484375 48.625 
Q 53.515625 41.265625 53.515625 27.296875 
Q 53.515625 13.28125 47.5 5.921875 
Q 41.5 -1.421875 30.078125 -1.421875 
Q 18.703125 -1.421875 12.6875 5.921875 
Q 6.6875 13.28125 6.6875 27.296875 
Q 6.6875 41.265625 12.6875 48.625 
Q 18.703125 56 30.078125 56 
z
" id="DejaVuSansMono-111"/>
      <path d="M 44.828125 27.296875 
Q 44.828125 37.75 41.5 43.0625 
Q 38.1875 48.390625 31.6875 48.390625 
Q 25.140625 48.390625 21.765625 43.046875 
Q 18.40625 37.703125 18.40625 27.296875 
Q 18.40625 16.9375 21.765625 11.5625 
Q 25.140625 6.203125 31.6875 6.203125 
Q 38.1875 6.203125 41.5 11.515625 
Q 44.828125 16.84375 44.828125 27.296875 
z
M 18.40625 47.703125 
Q 20.5625 51.703125 24.34375 53.84375 
Q 28.125 56 33.109375 56 
Q 42.96875 56 48.625 48.40625 
Q 54.296875 40.828125 54.296875 27.484375 
Q 54.296875 13.96875 48.609375 6.265625 
Q 42.921875 -1.421875 33.015625 -1.421875 
Q 28.125 -1.421875 24.390625 0.703125 
Q 20.65625 2.828125 18.40625 6.890625 
L 18.40625 0 
L 9.421875 0 
L 9.421875 75.984375 
L 18.40625 75.984375 
z
" id="DejaVuSansMono-98"/>
      <path d="M 31.203125 19.828125 
Q 31.203125 13.765625 33.421875 10.6875 
Q 35.640625 7.625 39.984375 7.625 
L 50.484375 7.625 
L 50.484375 0 
L 39.109375 0 
Q 31.0625 0 26.640625 5.171875 
Q 22.21875 10.359375 22.21875 19.828125 
L 22.21875 69.484375 
L 7.8125 69.484375 
L 7.8125 76.515625 
L 31.203125 76.515625 
z
" id="DejaVuSansMono-108"/>
      <path d="M 54.296875 29.59375 
L 54.296875 25.203125 
L 15.375 25.203125 
L 15.375 24.90625 
Q 15.375 15.96875 20.03125 11.078125 
Q 24.703125 6.203125 33.203125 6.203125 
Q 37.5 6.203125 42.1875 7.5625 
Q 46.875 8.9375 52.203125 11.71875 
L 52.203125 2.78125 
Q 47.078125 0.6875 42.3125 -0.359375 
Q 37.546875 -1.421875 33.109375 -1.421875 
Q 20.359375 -1.421875 13.171875 6.21875 
Q 6 13.875 6 27.296875 
Q 6 40.375 13.03125 48.1875 
Q 20.0625 56 31.78125 56 
Q 42.234375 56 48.265625 48.921875 
Q 54.296875 41.84375 54.296875 29.59375 
z
M 45.3125 32.234375 
Q 45.125 40.140625 41.578125 44.265625 
Q 38.03125 48.390625 31.390625 48.390625 
Q 24.90625 48.390625 20.703125 44.09375 
Q 16.5 39.796875 15.71875 32.171875 
z
" id="DejaVuSansMono-101"/>
      <path d="M 33.015625 49.125 
Q 34.671875 52.640625 37.234375 54.3125 
Q 39.796875 56 43.40625 56 
Q 50 56 52.703125 50.890625 
Q 55.421875 45.796875 55.421875 31.6875 
L 55.421875 0 
L 47.21875 0 
L 47.21875 31.296875 
Q 47.21875 42.875 45.921875 45.671875 
Q 44.625 48.484375 41.21875 48.484375 
Q 37.3125 48.484375 35.859375 45.484375 
Q 34.421875 42.484375 34.421875 31.296875 
L 34.421875 0 
L 26.21875 0 
L 26.21875 31.296875 
Q 26.21875 43.015625 24.828125 45.75 
Q 23.4375 48.484375 19.828125 48.484375 
Q 16.265625 48.484375 14.875 45.484375 
Q 13.484375 42.484375 13.484375 31.296875 
L 13.484375 0 
L 5.328125 0 
L 5.328125 54.6875 
L 13.484375 54.6875 
L 13.484375 50 
Q 15.09375 52.9375 17.5 54.46875 
Q 19.921875 56 23 56 
Q 26.703125 56 29.171875 54.296875 
Q 31.640625 52.59375 33.015625 49.125 
z
" id="DejaVuSansMono-109"/>
     </defs>
     <use xlink:href="#DejaVuSansMono-34"/>
     <use x="60.205078" xlink:href="#DejaVuSansMono-51"/>
     <use x="120.410156" xlink:href="#DejaVuSansMono-121"/>
     <use x="180.615234" xlink:href="#DejaVuSansMono-43"/>
     <use x="240.820312" xlink:href="#DejaVuSansMono-49"/>
     <use x="301.025391" xlink:href="#DejaVuSansMono-34"/>
     <use x="361.230469" xlink:href="#DejaVuSansMono-32"/>
     <use x="421.435547" xlink:href="#DejaVuSansMono-112"/>
     <use x="481.640625" xlink:href="#DejaVuSansMono-114"/>
     <use x="541.845703" xlink:href="#DejaVuSansMono-111"/>
     <use x="602.050781" xlink:href="#DejaVuSansMono-98"/>
     <use x="662.255859" xlink:href="#DejaVuSansMono-108"/>
     <use x="722.460938" xlink:href="#DejaVuSansMono-101"/>
     <use x="782.666016" xlink:href="#DejaVuSansMono-109"/>
    </g>
   </g>
   <g id="legend_1">
    <g id="patch_7">
     <path d="M 340.615313 82.0095 
L 450.12 82.0095 
Q 451.32 82.0095 451.32 80.8095 
L 451.32 22.189125 
Q 451.32 20.989125 450.12 20.989125 
L 340.615313 20.989125 
Q 339.415313 20.989125 339.415313 22.189125 
L 339.415313 80.8095 
Q 339.415313 82.0095 340.615313 82.0095 
z
" style="fill:#ffffff;opacity:0.8;stroke:#cccccc;stroke-linejoin:miter;"/>
    </g>
    <g id="line2d_16">
     <path d="M 341.815313 36.889687 
L 353.815313 36.889687 
" style="fill:none;stroke:#1f77b4;stroke-linecap:square;stroke-width:0.666667;"/>
    </g>
    <g id="line2d_17"/>
    <g id="text_17">
     <!-- "Tallest": -->
     <g transform="translate(358.615313 27.980062)scale(0.06 -0.06)">
      <defs>
       <path d="M 2.296875 72.90625 
L 57.90625 72.90625 
L 57.90625 64.59375 
L 35.109375 64.59375 
L 35.109375 0 
L 25.203125 0 
L 25.203125 64.59375 
L 2.296875 64.59375 
z
" id="DejaVuSansMono-84"/>
       <path d="M 34.28125 27.484375 
L 31.296875 27.484375 
Q 23.4375 27.484375 19.453125 24.71875 
Q 15.484375 21.96875 15.484375 16.5 
Q 15.484375 11.578125 18.453125 8.84375 
Q 21.4375 6.109375 26.703125 6.109375 
Q 34.125 6.109375 38.375 11.25 
Q 42.625 16.40625 42.671875 25.484375 
L 42.671875 27.484375 
z
M 51.703125 31.203125 
L 51.703125 0 
L 42.671875 0 
L 42.671875 8.109375 
Q 39.796875 3.21875 35.421875 0.890625 
Q 31.0625 -1.421875 24.8125 -1.421875 
Q 16.453125 -1.421875 11.46875 3.296875 
Q 6.5 8.015625 6.5 15.921875 
Q 6.5 25.046875 12.625 29.78125 
Q 18.75 34.515625 30.609375 34.515625 
L 42.671875 34.515625 
L 42.671875 35.9375 
Q 42.625 42.484375 39.34375 45.4375 
Q 36.078125 48.390625 28.90625 48.390625 
Q 24.3125 48.390625 19.625 47.0625 
Q 14.9375 45.75 10.5 43.21875 
L 10.5 52.203125 
Q 15.484375 54.109375 20.046875 55.046875 
Q 24.609375 56 28.90625 56 
Q 35.6875 56 40.5 54 
Q 45.3125 52 48.296875 48 
Q 50.140625 45.5625 50.921875 41.96875 
Q 51.703125 38.375 51.703125 31.203125 
z
" id="DejaVuSansMono-97"/>
       <path d="M 47.515625 52.78125 
L 47.515625 44 
Q 43.65625 46.234375 39.75 47.359375 
Q 35.84375 48.484375 31.78125 48.484375 
Q 25.6875 48.484375 22.671875 46.5 
Q 19.671875 44.53125 19.671875 40.484375 
Q 19.671875 36.8125 21.921875 35 
Q 24.171875 33.203125 33.109375 31.5 
L 36.71875 30.8125 
Q 43.40625 29.546875 46.84375 25.734375 
Q 50.296875 21.921875 50.296875 15.828125 
Q 50.296875 7.71875 44.53125 3.140625 
Q 38.765625 -1.421875 28.515625 -1.421875 
Q 24.46875 -1.421875 20.015625 -0.5625 
Q 15.578125 0.296875 10.40625 2 
L 10.40625 11.28125 
Q 15.4375 8.6875 20.015625 7.390625 
Q 24.609375 6.109375 28.71875 6.109375 
Q 34.671875 6.109375 37.9375 8.515625 
Q 41.21875 10.9375 41.21875 15.28125 
Q 41.21875 21.53125 29.25 23.921875 
L 28.859375 24.03125 
L 25.484375 24.703125 
Q 17.71875 26.21875 14.15625 29.8125 
Q 10.59375 33.40625 10.59375 39.59375 
Q 10.59375 47.46875 15.90625 51.734375 
Q 21.234375 56 31.109375 56 
Q 35.5 56 39.546875 55.1875 
Q 43.609375 54.390625 47.515625 52.78125 
z
" id="DejaVuSansMono-115"/>
       <path d="M 29.984375 70.21875 
L 29.984375 54.6875 
L 50.390625 54.6875 
L 50.390625 47.703125 
L 29.984375 47.703125 
L 29.984375 18.015625 
Q 29.984375 11.96875 32.28125 9.5625 
Q 34.578125 7.171875 40.28125 7.171875 
L 50.390625 7.171875 
L 50.390625 0 
L 39.40625 0 
Q 29.296875 0 25.140625 4.046875 
Q 21 8.109375 21 18.015625 
L 21 47.703125 
L 6.390625 47.703125 
L 6.390625 54.6875 
L 21 54.6875 
L 21 70.21875 
z
" id="DejaVuSansMono-116"/>
       <path d="M 23.875 51.90625 
L 36.1875 51.90625 
L 36.1875 37.109375 
L 23.875 37.109375 
z
M 23.875 14.890625 
L 36.1875 14.890625 
L 36.1875 0 
L 23.875 0 
z
" id="DejaVuSansMono-58"/>
      </defs>
      <use xlink:href="#DejaVuSansMono-34"/>
      <use x="60.205078" xlink:href="#DejaVuSansMono-84"/>
      <use x="120.410156" xlink:href="#DejaVuSansMono-97"/>
      <use x="180.615234" xlink:href="#DejaVuSansMono-108"/>
      <use x="240.820312" xlink:href="#DejaVuSansMono-108"/>
      <use x="301.025391" xlink:href="#DejaVuSansMono-101"/>
      <use x="361.230469" xlink:href="#DejaVuSansMono-115"/>
      <use x="421.435547" xlink:href="#DejaVuSansMono-116"/>
      <use x="481.640625" xlink:href="#DejaVuSansMono-34"/>
      <use x="541.845703" xlink:href="#DejaVuSansMono-58"/>
     </g>
     <!-- y_0    = 80049391 -->
     <g transform="translate(358.615313 34.737)scale(0.06 -0.06)">
      <defs>
       <path d="M 4.296875 25.59375 
L 55.90625 25.59375 
L 55.90625 17.1875 
L 4.296875 17.1875 
z
M 4.296875 45.40625 
L 55.90625 45.40625 
L 55.90625 37.109375 
L 4.296875 37.109375 
z
" id="DejaVuSansMono-61"/>
      </defs>
      <use xlink:href="#DejaVuSansMono-121"/>
      <use x="60.205078" xlink:href="#DejaVuSansMono-95"/>
      <use x="120.410156" xlink:href="#DejaVuSansMono-48"/>
      <use x="180.615234" xlink:href="#DejaVuSansMono-32"/>
      <use x="240.820312" xlink:href="#DejaVuSansMono-32"/>
      <use x="301.025391" xlink:href="#DejaVuSansMono-32"/>
      <use x="361.230469" xlink:href="#DejaVuSansMono-32"/>
      <use x="421.435547" xlink:href="#DejaVuSansMono-61"/>
      <use x="481.640625" xlink:href="#DejaVuSansMono-32"/>
      <use x="541.845703" xlink:href="#DejaVuSansMono-56"/>
      <use x="602.050781" xlink:href="#DejaVuSansMono-48"/>
      <use x="662.255859" xlink:href="#DejaVuSansMono-48"/>
      <use x="722.460938" xlink:href="#DejaVuSansMono-52"/>
      <use x="782.666016" xlink:href="#DejaVuSansMono-57"/>
      <use x="842.871094" xlink:href="#DejaVuSansMono-51"/>
      <use x="903.076172" xlink:href="#DejaVuSansMono-57"/>
      <use x="963.28125" xlink:href="#DejaVuSansMono-49"/>
     </g>
     <!-- y_max  = 2185143829170100 -->
     <g transform="translate(358.615313 41.660812)scale(0.06 -0.06)">
      <defs>
       <path d="M 54.59375 54.6875 
L 35.015625 28.515625 
L 56.5 0 
L 46.09375 0 
L 30.078125 21.921875 
L 14.109375 0 
L 3.71875 0 
L 25.203125 28.515625 
L 5.609375 54.6875 
L 15.578125 54.6875 
L 30.078125 34.90625 
L 44.484375 54.6875 
z
" id="DejaVuSansMono-120"/>
      </defs>
      <use xlink:href="#DejaVuSansMono-121"/>
      <use x="60.205078" xlink:href="#DejaVuSansMono-95"/>
      <use x="120.410156" xlink:href="#DejaVuSansMono-109"/>
      <use x="180.615234" xlink:href="#DejaVuSansMono-97"/>
      <use x="240.820312" xlink:href="#DejaVuSansMono-120"/>
      <use x="301.025391" xlink:href="#DejaVuSansMono-32"/>
      <use x="361.230469" xlink:href="#DejaVuSansMono-32"/>
      <use x="421.435547" xlink:href="#DejaVuSansMono-61"/>
      <use x="481.640625" xlink:href="#DejaVuSansMono-32"/>
      <use x="541.845703" xlink:href="#DejaVuSansMono-50"/>
      <use x="602.050781" xlink:href="#DejaVuSansMono-49"/>
      <use x="662.255859" xlink:href="#DejaVuSansMono-56"/>
      <use x="722.460938" xlink:href="#DejaVuSansMono-53"/>
      <use x="782.666016" xlink:href="#DejaVuSansMono-49"/>
      <use x="842.871094" xlink:href="#DejaVuSansMono-52"/>
      <use x="903.076172" xlink:href="#DejaVuSansMono-51"/>
      <use x="963.28125" xlink:href="#DejaVuSansMono-56"/>
      <use x="1023.486328" xlink:href="#DejaVuSansMono-50"/>
      <use x="1083.691406" xlink:href="#DejaVuSansMono-57"/>
      <use x="1143.896484" xlink:href="#DejaVuSansMono-49"/>
      <use x="1204.101562" xlink:href="#DejaVuSansMono-55"/>
      <use x="1264.306641" xlink:href="#DejaVuSansMono-48"/>
      <use x="1324.511719" xlink:href="#DejaVuSansMono-49"/>
      <use x="1384.716797" xlink:href="#DejaVuSansMono-48"/>
      <use x="1444.921875" xlink:href="#DejaVuSansMono-48"/>
     </g>
     <!-- x_max  = 573 -->
     <g transform="translate(358.615313 48.584625)scale(0.06 -0.06)">
      <use xlink:href="#DejaVuSansMono-120"/>
      <use x="60.205078" xlink:href="#DejaVuSansMono-95"/>
      <use x="120.410156" xlink:href="#DejaVuSansMono-109"/>
      <use x="180.615234" xlink:href="#DejaVuSansMono-97"/>
      <use x="240.820312" xlink:href="#DejaVuSansMono-120"/>
      <use x="301.025391" xlink:href="#DejaVuSansMono-32"/>
      <use x="361.230469" xlink:href="#DejaVuSansMono-32"/>
      <use x="421.435547" xlink:href="#DejaVuSansMono-61"/>
      <use x="481.640625" xlink:href="#DejaVuSansMono-32"/>
      <use x="541.845703" xlink:href="#DejaVuSansMono-53"/>
      <use x="602.050781" xlink:href="#DejaVuSansMono-55"/>
      <use x="662.255859" xlink:href="#DejaVuSansMono-51"/>
     </g>
    </g>
    <g id="line2d_18">
     <path d="M 341.815313 66.499875 
L 353.815313 66.499875 
" style="fill:none;stroke:#ff7f0e;stroke-linecap:square;stroke-width:0.666667;"/>
    </g>
    <g id="line2d_19"/>
    <g id="text_18">
     <!-- "Widest":  -->
     <g transform="translate(358.615313 57.59025)scale(0.06 -0.06)">
      <defs>
       <path d="M 0 72.90625 
L 9.625 72.90625 
L 16.609375 13.71875 
L 24.90625 52.875 
L 35.203125 52.875 
L 43.609375 13.625 
L 50.59375 72.90625 
L 60.203125 72.90625 
L 49.3125 0 
L 39.984375 0 
L 30.078125 43.3125 
L 20.21875 0 
L 10.890625 0 
z
" id="DejaVuSansMono-87"/>
       <path d="M 12.5 54.6875 
L 35.5 54.6875 
L 35.5 6.984375 
L 53.328125 6.984375 
L 53.328125 0 
L 8.6875 0 
L 8.6875 6.984375 
L 26.515625 6.984375 
L 26.515625 47.703125 
L 12.5 47.703125 
z
M 26.515625 75.984375 
L 35.5 75.984375 
L 35.5 64.59375 
L 26.515625 64.59375 
z
" id="DejaVuSansMono-105"/>
       <path d="M 41.890625 47.703125 
L 41.890625 75.984375 
L 50.875 75.984375 
L 50.875 0 
L 41.890625 0 
L 41.890625 6.890625 
Q 39.65625 2.828125 35.90625 0.703125 
Q 32.171875 -1.421875 27.296875 -1.421875 
Q 17.390625 -1.421875 11.6875 6.265625 
Q 6 13.96875 6 27.484375 
Q 6 40.828125 11.71875 48.40625 
Q 17.4375 56 27.296875 56 
Q 32.234375 56 35.984375 53.875 
Q 39.75 51.765625 41.890625 47.703125 
z
M 15.484375 27.296875 
Q 15.484375 16.84375 18.796875 11.515625 
Q 22.125 6.203125 28.609375 6.203125 
Q 35.109375 6.203125 38.5 11.5625 
Q 41.890625 16.9375 41.890625 27.296875 
Q 41.890625 37.703125 38.5 43.046875 
Q 35.109375 48.390625 28.609375 48.390625 
Q 22.125 48.390625 18.796875 43.0625 
Q 15.484375 37.75 15.484375 27.296875 
z
" id="DejaVuSansMono-100"/>
      </defs>
      <use xlink:href="#DejaVuSansMono-34"/>
      <use x="60.205078" xlink:href="#DejaVuSansMono-87"/>
      <use x="120.410156" xlink:href="#DejaVuSansMono-105"/>
      <use x="180.615234" xlink:href="#DejaVuSansMono-100"/>
      <use x="240.820312" xlink:href="#DejaVuSansMono-101"/>
      <use x="301.025391" xlink:href="#DejaVuSansMono-115"/>
      <use x="361.230469" xlink:href="#DejaVuSansMono-116"/>
      <use x="421.435547" xlink:href="#DejaVuSansMono-34"/>
      <use x="481.640625" xlink:href="#DejaVuSansMono-58"/>
      <use x="541.845703" xlink:href="#DejaVuSansMono-32"/>
     </g>
     <!-- y_0    = 63728127 -->
     <g transform="translate(358.615313 64.347187)scale(0.06 -0.06)">
      <use xlink:href="#DejaVuSansMono-121"/>
      <use x="60.205078" xlink:href="#DejaVuSansMono-95"/>
      <use x="120.410156" xlink:href="#DejaVuSansMono-48"/>
      <use x="180.615234" xlink:href="#DejaVuSansMono-32"/>
      <use x="240.820312" xlink:href="#DejaVuSansMono-32"/>
      <use x="301.025391" xlink:href="#DejaVuSansMono-32"/>
      <use x="361.230469" xlink:href="#DejaVuSansMono-32"/>
      <use x="421.435547" xlink:href="#DejaVuSansMono-61"/>
      <use x="481.640625" xlink:href="#DejaVuSansMono-32"/>
      <use x="541.845703" xlink:href="#DejaVuSansMono-54"/>
      <use x="602.050781" xlink:href="#DejaVuSansMono-51"/>
      <use x="662.255859" xlink:href="#DejaVuSansMono-55"/>
      <use x="722.460938" xlink:href="#DejaVuSansMono-50"/>
      <use x="782.666016" xlink:href="#DejaVuSansMono-56"/>
      <use x="842.871094" xlink:href="#DejaVuSansMono-49"/>
      <use x="903.076172" xlink:href="#DejaVuSansMono-50"/>
      <use x="963.28125" xlink:href="#DejaVuSansMono-55"/>
     </g>
     <!-- y_max  = 966616035460 -->
     <g transform="translate(358.615313 71.271)scale(0.06 -0.06)">
      <use xlink:href="#DejaVuSansMono-121"/>
      <use x="60.205078" xlink:href="#DejaVuSansMono-95"/>
      <use x="120.410156" xlink:href="#DejaVuSansMono-109"/>
      <use x="180.615234" xlink:href="#DejaVuSansMono-97"/>
      <use x="240.820312" xlink:href="#DejaVuSansMono-120"/>
      <use x="301.025391" xlink:href="#DejaVuSansMono-32"/>
      <use x="361.230469" xlink:href="#DejaVuSansMono-32"/>
      <use x="421.435547" xlink:href="#DejaVuSansMono-61"/>
      <use x="481.640625" xlink:href="#DejaVuSansMono-32"/>
      <use x="541.845703" xlink:href="#DejaVuSansMono-57"/>
      <use x="602.050781" xlink:href="#DejaVuSansMono-54"/>
      <use x="662.255859" xlink:href="#DejaVuSansMono-54"/>
      <use x="722.460938" xlink:href="#DejaVuSansMono-54"/>
      <use x="782.666016" xlink:href="#DejaVuSansMono-49"/>
      <use x="842.871094" xlink:href="#DejaVuSansMono-54"/>
      <use x="903.076172" xlink:href="#DejaVuSansMono-48"/>
      <use x="963.28125" xlink:href="#DejaVuSansMono-51"/>
      <use x="1023.486328" xlink:href="#DejaVuSansMono-53"/>
      <use x="1083.691406" xlink:href="#DejaVuSansMono-52"/>
      <use x="1143.896484" xlink:href="#DejaVuSansMono-54"/>
      <use x="1204.101562" xlink:href="#DejaVuSansMono-48"/>
     </g>
     <!-- x_max  = 950 -->
     <g transform="translate(358.615313 78.194812)scale(0.06 -0.06)">
      <use xlink:href="#DejaVuSansMono-120"/>
      <use x="60.205078" xlink:href="#DejaVuSansMono-95"/>
      <use x="120.410156" xlink:href="#DejaVuSansMono-109"/>
      <use x="180.615234" xlink:href="#DejaVuSansMono-97"/>
      <use x="240.820312" xlink:href="#DejaVuSansMono-120"/>
      <use x="301.025391" xlink:href="#DejaVuSansMono-32"/>
      <use x="361.230469" xlink:href="#DejaVuSansMono-32"/>
      <use x="421.435547" xlink:href="#DejaVuSansMono-61"/>
      <use x="481.640625" xlink:href="#DejaVuSansMono-32"/>
      <use x="541.845703" xlink:href="#DejaVuSansMono-57"/>
      <use x="602.050781" xlink:href="#DejaVuSansMono-53"/>
      <use x="662.255859" xlink:href="#DejaVuSansMono-48"/>
     </g>
    </g>
   </g>
  </g>
 </g>
 <defs>
  <clipPath id="p2a63997f0b">
   <rect height="298.453375" width="418.46125" x="35.85875" y="17.989125"/>
  </clipPath>
 </defs>
</svg>
