<?xml version="1.0" encoding="utf-8" standalone="no"?>
<!DOCTYPE svg PUBLIC "-//W3C//DTD SVG 1.1//EN"
  "http://www.w3.org/Graphics/SVG/1.1/DTD/svg11.dtd">
<!-- Created with matplotlib (https://matplotlib.org/) -->
<svg height="345.6pt" version="1.1" viewBox="0 0 460.8 345.6" width="460.8pt" xmlns="http://www.w3.org/2000/svg" xmlns:xlink="http://www.w3.org/1999/xlink">
 <metadata>
  <rdf:RDF xmlns:cc="http://creativecommons.org/ns#" xmlns:dc="http://purl.org/dc/elements/1.1/" xmlns:rdf="http://www.w3.org/1999/02/22-rdf-syntax-ns#">
   <cc:Work>
    <dc:type rdf:resource="http://purl.org/dc/dcmitype/StillImage"/>
    <dc:date>2022-03-17T00:25:37.259330</dc:date>
    <dc:format>image/svg+xml</dc:format>
    <dc:creator>
     <cc:Agent>
      <dc:title>Matplotlib v3.3.2, https://matplotlib.org/</dc:title>
     </cc:Agent>
    </dc:creator>
   </cc:Work>
  </rdf:RDF>
 </metadata>
 <defs>
  <style type="text/css">*{stroke-linecap:butt;stroke-linejoin:round;}</style>
 </defs>
 <g id="figure_1">
  <g id="patch_1">
   <path d="M 0 345.6 
L 460.8 345.6 
L 460.8 0 
L 0 0 
z
" style="fill:#ffffff;"/>
  </g>
  <g id="axes_1">
   <g id="patch_2">
    <path d="M 35.85875 316.4425 
L 454.32 316.4425 
L 454.32 17.989125 
L 35.85875 17.989125 
z
" style="fill:#ffffff;"/>
   </g>
   <g id="matplotlib.axis_1">
    <g id="xtick_1">
     <g id="line2d_1">
      <defs>
       <path d="M 0 0 
L 0 3.5 
" id="m2ac7cbe426" style="stroke:#000000;stroke-width:0.8;"/>
      </defs>
      <g>
       <use style="stroke:#000000;stroke-width:0.8;" x="54.879716" xlink:href="#m2ac7cbe426" y="316.4425"/>
      </g>
     </g>
     <g id="text_1">
      <!-- 0 -->
      <g transform="translate(53.073622 328.033437)scale(0.06 -0.06)">
       <defs>
        <path d="M 23.578125 36.625 
Q 23.578125 39.3125 25.453125 41.265625 
Q 27.34375 43.21875 29.984375 43.21875 
Q 32.71875 43.21875 34.671875 41.265625 
Q 36.625 39.3125 36.625 36.625 
Q 36.625 33.890625 34.6875 31.984375 
Q 32.765625 30.078125 29.984375 30.078125 
Q 27.25 30.078125 25.40625 31.9375 
Q 23.578125 33.796875 23.578125 36.625 
z
M 30.078125 66.40625 
Q 23.1875 66.40625 19.796875 58.984375 
Q 16.40625 51.5625 16.40625 36.375 
Q 16.40625 21.234375 19.796875 13.8125 
Q 23.1875 6.390625 30.078125 6.390625 
Q 37.015625 6.390625 40.40625 13.8125 
Q 43.796875 21.234375 43.796875 36.375 
Q 43.796875 51.5625 40.40625 58.984375 
Q 37.015625 66.40625 30.078125 66.40625 
z
M 30.078125 74.21875 
Q 41.75 74.21875 47.734375 64.640625 
Q 53.71875 55.078125 53.71875 36.375 
Q 53.71875 17.71875 47.734375 8.140625 
Q 41.75 -1.421875 30.078125 -1.421875 
Q 18.40625 -1.421875 12.453125 8.140625 
Q 6.5 17.71875 6.5 36.375 
Q 6.5 55.078125 12.453125 64.640625 
Q 18.40625 74.21875 30.078125 74.21875 
z
" id="DejaVuSansMono-48"/>
       </defs>
       <use xlink:href="#DejaVuSansMono-48"/>
      </g>
     </g>
    </g>
    <g id="xtick_2">
     <g id="line2d_2">
      <g>
       <use style="stroke:#000000;stroke-width:0.8;" x="129.765408" xlink:href="#m2ac7cbe426" y="316.4425"/>
      </g>
     </g>
     <g id="text_2">
      <!-- 100 -->
      <g transform="translate(124.347127 328.033437)scale(0.06 -0.06)">
       <defs>
        <path d="M 13.1875 8.296875 
L 28.515625 8.296875 
L 28.515625 64.015625 
L 12.015625 60.296875 
L 12.015625 69.28125 
L 28.421875 72.90625 
L 38.28125 72.90625 
L 38.28125 8.296875 
L 53.421875 8.296875 
L 53.421875 0 
L 13.1875 0 
z
" id="DejaVuSansMono-49"/>
       </defs>
       <use xlink:href="#DejaVuSansMono-49"/>
       <use x="60.205078" xlink:href="#DejaVuSansMono-48"/>
       <use x="120.410156" xlink:href="#DejaVuSansMono-48"/>
      </g>
     </g>
    </g>
    <g id="xtick_3">
     <g id="line2d_3">
      <g>
       <use style="stroke:#000000;stroke-width:0.8;" x="204.651101" xlink:href="#m2ac7cbe426" y="316.4425"/>
      </g>
     </g>
     <g id="text_3">
      <!-- 200 -->
      <g transform="translate(199.23282 328.033437)scale(0.06 -0.06)">
       <defs>
        <path d="M 18.21875 8.296875 
L 51.703125 8.296875 
L 51.703125 0 
L 7.421875 0 
L 7.421875 8.296875 
Q 16.546875 17.921875 23.375 25.296875 
Q 30.21875 32.671875 32.8125 35.6875 
Q 37.703125 41.65625 39.40625 45.34375 
Q 41.109375 49.03125 41.109375 52.875 
Q 41.109375 58.984375 37.515625 62.453125 
Q 33.9375 65.921875 27.6875 65.921875 
Q 23.25 65.921875 18.359375 64.3125 
Q 13.484375 62.703125 8.015625 59.421875 
L 8.015625 69.390625 
Q 13.03125 71.78125 17.890625 73 
Q 22.75 74.21875 27.484375 74.21875 
Q 38.1875 74.21875 44.703125 68.53125 
Q 51.21875 62.84375 51.21875 53.609375 
Q 51.21875 48.921875 49.046875 44.234375 
Q 46.875 39.546875 42 33.890625 
Q 39.265625 30.71875 34.0625 25.09375 
Q 28.859375 19.484375 18.21875 8.296875 
z
" id="DejaVuSansMono-50"/>
       </defs>
       <use xlink:href="#DejaVuSansMono-50"/>
       <use x="60.205078" xlink:href="#DejaVuSansMono-48"/>
       <use x="120.410156" xlink:href="#DejaVuSansMono-48"/>
      </g>
     </g>
    </g>
    <g id="xtick_4">
     <g id="line2d_4">
      <g>
       <use style="stroke:#000000;stroke-width:0.8;" x="279.536794" xlink:href="#m2ac7cbe426" y="316.4425"/>
      </g>
     </g>
     <g id="text_4">
      <!-- 300 -->
      <g transform="translate(274.118512 328.033437)scale(0.06 -0.06)">
       <defs>
        <path d="M 37.890625 39.015625 
Q 45.0625 37.109375 48.875 32.25 
Q 52.6875 27.390625 52.6875 20.125 
Q 52.6875 10.0625 45.921875 4.3125 
Q 39.15625 -1.421875 27.203125 -1.421875 
Q 22.171875 -1.421875 16.9375 -0.484375 
Q 11.71875 0.4375 6.6875 2.203125 
L 6.6875 12.015625 
Q 11.671875 9.421875 16.5 8.15625 
Q 21.34375 6.890625 26.125 6.890625 
Q 34.234375 6.890625 38.578125 10.546875 
Q 42.921875 14.203125 42.921875 21.09375 
Q 42.921875 27.4375 38.578125 31.171875 
Q 34.234375 34.90625 26.8125 34.90625 
L 19.28125 34.90625 
L 19.28125 43.015625 
L 26.8125 43.015625 
Q 33.59375 43.015625 37.40625 45.984375 
Q 41.21875 48.96875 41.21875 54.296875 
Q 41.21875 59.90625 37.671875 62.90625 
Q 34.125 65.921875 27.59375 65.921875 
Q 23.25 65.921875 18.609375 64.9375 
Q 13.96875 63.96875 8.890625 62.015625 
L 8.890625 71.09375 
Q 14.796875 72.65625 19.40625 73.4375 
Q 24.03125 74.21875 27.59375 74.21875 
Q 38.234375 74.21875 44.609375 68.875 
Q 50.984375 63.53125 50.984375 54.6875 
Q 50.984375 48.6875 47.625 44.671875 
Q 44.28125 40.671875 37.890625 39.015625 
z
" id="DejaVuSansMono-51"/>
       </defs>
       <use xlink:href="#DejaVuSansMono-51"/>
       <use x="60.205078" xlink:href="#DejaVuSansMono-48"/>
       <use x="120.410156" xlink:href="#DejaVuSansMono-48"/>
      </g>
     </g>
    </g>
    <g id="xtick_5">
     <g id="line2d_5">
      <g>
       <use style="stroke:#000000;stroke-width:0.8;" x="354.422486" xlink:href="#m2ac7cbe426" y="316.4425"/>
      </g>
     </g>
     <g id="text_5">
      <!-- 400 -->
      <g transform="translate(349.004205 328.033437)scale(0.06 -0.06)">
       <defs>
        <path d="M 35.890625 63.921875 
L 12.890625 25.390625 
L 35.890625 25.390625 
z
M 34.28125 72.90625 
L 45.703125 72.90625 
L 45.703125 25.390625 
L 55.421875 25.390625 
L 55.421875 17.390625 
L 45.703125 17.390625 
L 45.703125 0 
L 35.890625 0 
L 35.890625 17.390625 
L 4.984375 17.390625 
L 4.984375 26.703125 
z
" id="DejaVuSansMono-52"/>
       </defs>
       <use xlink:href="#DejaVuSansMono-52"/>
       <use x="60.205078" xlink:href="#DejaVuSansMono-48"/>
       <use x="120.410156" xlink:href="#DejaVuSansMono-48"/>
      </g>
     </g>
    </g>
    <g id="xtick_6">
     <g id="line2d_6">
      <g>
       <use style="stroke:#000000;stroke-width:0.8;" x="429.308179" xlink:href="#m2ac7cbe426" y="316.4425"/>
      </g>
     </g>
     <g id="text_6">
      <!-- 500 -->
      <g transform="translate(423.889897 328.033437)scale(0.06 -0.06)">
       <defs>
        <path d="M 10.109375 72.90625 
L 47.015625 72.90625 
L 47.015625 64.59375 
L 19.09375 64.59375 
L 19.09375 46.6875 
Q 21.1875 47.46875 23.3125 47.828125 
Q 25.4375 48.1875 27.59375 48.1875 
Q 38.921875 48.1875 45.5625 41.5 
Q 52.203125 34.8125 52.203125 23.390625 
Q 52.203125 11.859375 45.234375 5.21875 
Q 38.28125 -1.421875 26.21875 -1.421875 
Q 20.40625 -1.421875 15.59375 -0.640625 
Q 10.796875 0.140625 6.984375 1.703125 
L 6.984375 11.71875 
Q 11.46875 9.28125 16.015625 8.078125 
Q 20.5625 6.890625 25.296875 6.890625 
Q 33.453125 6.890625 37.859375 11.1875 
Q 42.28125 15.484375 42.28125 23.390625 
Q 42.28125 31.203125 37.71875 35.546875 
Q 33.15625 39.890625 25 39.890625 
Q 21.046875 39.890625 17.28125 38.984375 
Q 13.53125 38.09375 10.109375 36.28125 
z
" id="DejaVuSansMono-53"/>
       </defs>
       <use xlink:href="#DejaVuSansMono-53"/>
       <use x="60.205078" xlink:href="#DejaVuSansMono-48"/>
       <use x="120.410156" xlink:href="#DejaVuSansMono-48"/>
      </g>
     </g>
    </g>
    <g id="text_7">
     <!-- n -->
     <g transform="translate(243.283281 337.872187)scale(0.06 -0.06)">
      <defs>
       <path d="M 51.3125 33.890625 
L 51.3125 0 
L 42.28125 0 
L 42.28125 33.890625 
Q 42.28125 41.265625 39.6875 44.71875 
Q 37.109375 48.1875 31.59375 48.1875 
Q 25.296875 48.1875 21.890625 43.71875 
Q 18.5 39.265625 18.5 30.90625 
L 18.5 0 
L 9.515625 0 
L 9.515625 54.6875 
L 18.5 54.6875 
L 18.5 46.484375 
Q 20.90625 51.171875 25 53.578125 
Q 29.109375 56 34.71875 56 
Q 43.0625 56 47.1875 50.5 
Q 51.3125 45.015625 51.3125 33.890625 
z
" id="DejaVuSansMono-110"/>
      </defs>
      <use xlink:href="#DejaVuSansMono-110"/>
     </g>
    </g>
   </g>
   <g id="matplotlib.axis_2">
    <g id="ytick_1">
     <g id="line2d_7">
      <defs>
       <path d="M 0 0 
L -3.5 0 
" id="ma4f651242d" style="stroke:#000000;stroke-width:0.8;"/>
      </defs>
      <g>
       <use style="stroke:#000000;stroke-width:0.8;" x="35.85875" xlink:href="#ma4f651242d" y="277.650885"/>
      </g>
     </g>
     <g id="text_8">
      <!-- $\mathdefault{10^{1}}$ -->
      <g transform="translate(18.83875 279.946354)scale(0.06 -0.06)">
       <use transform="translate(0 0.684375)" xlink:href="#DejaVuSansMono-49"/>
       <use transform="translate(60.205078 0.684375)" xlink:href="#DejaVuSansMono-48"/>
       <use transform="translate(121.367188 38.965625)scale(0.7)" xlink:href="#DejaVuSansMono-49"/>
      </g>
     </g>
    </g>
    <g id="ytick_2">
     <g id="line2d_8">
      <g>
       <use style="stroke:#000000;stroke-width:0.8;" x="35.85875" xlink:href="#ma4f651242d" y="227.19978"/>
      </g>
     </g>
     <g id="text_9">
      <!-- $\mathdefault{10^{3}}$ -->
      <g transform="translate(18.83875 229.495248)scale(0.06 -0.06)">
       <use transform="translate(0 0.765625)" xlink:href="#DejaVuSansMono-49"/>
       <use transform="translate(60.205078 0.765625)" xlink:href="#DejaVuSansMono-48"/>
       <use transform="translate(121.367188 39.046875)scale(0.7)" xlink:href="#DejaVuSansMono-51"/>
      </g>
     </g>
    </g>
    <g id="ytick_3">
     <g id="line2d_9">
      <g>
       <use style="stroke:#000000;stroke-width:0.8;" x="35.85875" xlink:href="#ma4f651242d" y="176.748674"/>
      </g>
     </g>
     <g id="text_10">
      <!-- $\mathdefault{10^{5}}$ -->
      <g transform="translate(18.83875 179.044143)scale(0.06 -0.06)">
       <use transform="translate(0 0.684375)" xlink:href="#DejaVuSansMono-49"/>
       <use transform="translate(60.205078 0.684375)" xlink:href="#DejaVuSansMono-48"/>
       <use transform="translate(121.367188 38.965625)scale(0.7)" xlink:href="#DejaVuSansMono-53"/>
      </g>
     </g>
    </g>
    <g id="ytick_4">
     <g id="line2d_10">
      <g>
       <use style="stroke:#000000;stroke-width:0.8;" x="35.85875" xlink:href="#ma4f651242d" y="126.297569"/>
      </g>
     </g>
     <g id="text_11">
      <!-- $\mathdefault{10^{7}}$ -->
      <g transform="translate(18.83875 128.593038)scale(0.06 -0.06)">
       <defs>
        <path d="M 6.78125 72.90625 
L 52.6875 72.90625 
L 52.6875 68.703125 
L 26.609375 0 
L 16.3125 0 
L 41.703125 64.59375 
L 6.78125 64.59375 
z
" id="DejaVuSansMono-55"/>
       </defs>
       <use transform="translate(0 0.684375)" xlink:href="#DejaVuSansMono-49"/>
       <use transform="translate(60.205078 0.684375)" xlink:href="#DejaVuSansMono-48"/>
       <use transform="translate(121.367188 38.965625)scale(0.7)" xlink:href="#DejaVuSansMono-55"/>
      </g>
     </g>
    </g>
    <g id="ytick_5">
     <g id="line2d_11">
      <g>
       <use style="stroke:#000000;stroke-width:0.8;" x="35.85875" xlink:href="#ma4f651242d" y="75.846464"/>
      </g>
     </g>
     <g id="text_12">
      <!-- $\mathdefault{10^{9}}$ -->
      <g transform="translate(18.83875 78.141933)scale(0.06 -0.06)">
       <defs>
        <path d="M 29.109375 32.328125 
Q 35.40625 32.328125 38.984375 36.859375 
Q 42.578125 41.40625 42.578125 49.421875 
Q 42.578125 57.421875 38.984375 61.953125 
Q 35.40625 66.5 29.109375 66.5 
Q 22.5625 66.5 19.234375 62.171875 
Q 15.921875 57.859375 15.921875 49.421875 
Q 15.921875 40.921875 19.21875 36.625 
Q 22.515625 32.328125 29.109375 32.328125 
z
M 11.53125 1.515625 
L 11.53125 10.59375 
Q 14.59375 8.796875 18.0625 7.84375 
Q 21.53125 6.890625 25.296875 6.890625 
Q 34.671875 6.890625 39.46875 13.9375 
Q 44.28125 21 44.28125 34.71875 
Q 42 29.828125 37.84375 27.21875 
Q 33.6875 24.609375 28.328125 24.609375 
Q 17.78125 24.609375 11.984375 31.09375 
Q 6.203125 37.59375 6.203125 49.515625 
Q 6.203125 61.28125 12.125 67.75 
Q 18.0625 74.21875 28.90625 74.21875 
Q 41.609375 74.21875 47.515625 65.078125 
Q 53.421875 55.953125 53.421875 36.375 
Q 53.421875 17.96875 46.3125 8.265625 
Q 39.203125 -1.421875 25.6875 -1.421875 
Q 22.125 -1.421875 18.5 -0.65625 
Q 14.890625 0.09375 11.53125 1.515625 
z
" id="DejaVuSansMono-57"/>
       </defs>
       <use transform="translate(0 0.765625)" xlink:href="#DejaVuSansMono-49"/>
       <use transform="translate(60.205078 0.765625)" xlink:href="#DejaVuSansMono-48"/>
       <use transform="translate(121.367188 39.046875)scale(0.7)" xlink:href="#DejaVuSansMono-57"/>
      </g>
     </g>
    </g>
    <g id="ytick_6">
     <g id="line2d_12">
      <g>
       <use style="stroke:#000000;stroke-width:0.8;" x="35.85875" xlink:href="#ma4f651242d" y="25.395359"/>
      </g>
     </g>
     <g id="text_13">
      <!-- $\mathdefault{10^{11}}$ -->
      <g transform="translate(16.31875 27.690828)scale(0.06 -0.06)">
       <use transform="translate(0 0.684375)" xlink:href="#DejaVuSansMono-49"/>
       <use transform="translate(60.205078 0.684375)" xlink:href="#DejaVuSansMono-48"/>
       <use transform="translate(121.367188 38.965625)scale(0.7)" xlink:href="#DejaVuSansMono-49"/>
       <use transform="translate(163.510742 38.965625)scale(0.7)" xlink:href="#DejaVuSansMono-49"/>
      </g>
     </g>
    </g>
    <g id="text_14">
     <!-- y_n -->
     <g transform="translate(10.904063 172.634094)rotate(-90)scale(0.06 -0.06)">
      <defs>
       <path d="M 41.890625 17.578125 
Q 39.65625 11.859375 36.1875 2.546875 
Q 31.34375 -10.359375 29.6875 -13.1875 
Q 27.4375 -17 24.0625 -18.890625 
Q 20.703125 -20.796875 16.21875 -20.796875 
L 8.984375 -20.796875 
L 8.984375 -13.28125 
L 14.3125 -13.28125 
Q 18.265625 -13.28125 20.5 -10.984375 
Q 22.75 -8.6875 26.21875 0.875 
L 5.078125 54.6875 
L 14.59375 54.6875 
L 30.8125 11.921875 
L 46.78125 54.6875 
L 56.296875 54.6875 
z
" id="DejaVuSansMono-121"/>
       <path d="M 60.203125 -19.671875 
L 60.203125 -23.578125 
L 0 -23.578125 
L 0 -19.671875 
z
" id="DejaVuSansMono-95"/>
      </defs>
      <use xlink:href="#DejaVuSansMono-121"/>
      <use x="60.205078" xlink:href="#DejaVuSansMono-95"/>
      <use x="120.410156" xlink:href="#DejaVuSansMono-110"/>
     </g>
    </g>
   </g>
   <g id="line2d_13">
    <path clip-path="url(#pdabd81b77d)" d="M 54.879716 155.360237 
L 55.628573 143.324584 
L 56.37743 150.918232 
L 57.126287 138.882581 
L 57.875144 146.476229 
L 58.624001 134.44058 
L 59.372857 142.034228 
L 60.121714 129.998579 
L 60.870571 137.592227 
L 61.619428 125.556579 
L 62.368285 133.150227 
L 63.117142 121.114579 
L 63.865999 128.708227 
L 64.614856 116.672579 
L 65.363713 124.266227 
L 66.11257 112.230579 
L 66.861427 119.824227 
L 67.610284 107.78858 
L 68.359141 115.382228 
L 69.107997 103.34658 
L 69.856854 110.940228 
L 70.605711 98.904581 
L 71.354568 106.498229 
L 72.103425 94.462581 
L 72.852282 102.056229 
L 73.601139 90.020582 
L 74.349996 97.61423 
L 75.098853 85.578583 
L 76.596567 100.765879 
L 77.345424 88.730231 
L 78.843138 103.917527 
L 79.591994 91.88188 
L 80.340851 99.475528 
L 81.089708 87.439881 
L 81.838565 95.033529 
L 82.587422 82.997881 
L 83.336279 90.591529 
L 84.085136 78.555882 
L 84.833993 86.14953 
L 85.58285 74.113883 
L 86.331707 81.707531 
L 87.080564 69.671883 
L 87.829421 77.265531 
L 88.578278 65.229884 
L 89.327134 72.823532 
L 90.075991 60.787885 
L 91.573705 75.975181 
L 92.322562 63.939533 
L 93.071419 71.533181 
L 93.820276 59.497534 
L 95.31799 74.68483 
L 96.066847 62.649183 
L 96.815704 70.242831 
L 97.564561 58.207183 
L 98.313418 65.800831 
L 99.062275 53.765184 
L 99.811131 61.358832 
L 100.559988 49.323185 
L 101.308845 56.916833 
L 102.057702 44.881185 
L 102.806559 52.474833 
L 103.555416 40.439186 
L 104.304273 48.032834 
L 105.05313 35.997187 
L 105.801987 43.590835 
L 106.550844 31.555187 
L 111.792842 84.710723 
L 112.541699 72.675076 
L 114.78827 95.45602 
L 115.537127 83.420373 
L 118.532555 113.794965 
L 119.281412 101.759317 
L 123.025696 139.727557 
L 123.774553 127.691909 
L 124.52341 135.285557 
L 125.272267 123.249909 
L 126.769981 138.437205 
L 127.518838 126.401556 
L 128.267695 133.995204 
L 129.016552 121.959556 
L 131.263122 144.7405 
L 132.011979 132.704851 
L 132.760836 140.298499 
L 133.509693 128.26285 
L 134.25855 135.856498 
L 135.007407 123.82085 
L 136.505121 139.008146 
L 137.253978 126.972497 
L 139.500548 149.753441 
L 140.249405 137.717791 
L 140.998262 145.311439 
L 141.747119 133.27579 
L 143.99369 156.056734 
L 144.742547 144.021081 
L 145.491404 151.614729 
L 146.240261 139.579078 
L 147.737975 154.766374 
L 148.486832 142.730722 
L 149.235689 150.32437 
L 149.984545 138.288719 
L 151.482259 153.476015 
L 152.231116 141.440363 
L 155.975401 179.408603 
L 156.724258 167.372909 
L 157.473115 174.966557 
L 158.221972 162.930879 
L 159.719685 178.118175 
L 160.468542 166.082486 
L 161.966256 181.269782 
L 162.715113 169.23408 
L 163.46397 176.827728 
L 164.212827 164.792044 
L 165.710541 179.97934 
L 166.459398 167.943643 
L 168.705969 190.724587 
L 169.454826 178.688809 
L 170.203682 186.282457 
L 170.952539 174.246723 
L 173.19911 197.027667 
L 173.947967 184.991787 
L 174.696824 192.585435 
L 175.445681 180.549633 
L 176.943395 195.736929 
L 177.692252 183.701075 
L 178.441109 191.294723 
L 179.189966 179.258937 
L 179.938822 186.852585 
L 180.687679 174.816846 
L 182.185393 190.004142 
L 182.93425 177.968373 
L 185.180821 200.749317 
L 185.929678 188.713343 
L 186.678535 196.306991 
L 187.427392 184.271126 
L 188.176249 191.864774 
L 188.925106 179.828981 
L 189.673963 187.422629 
L 190.422819 175.386885 
L 191.920533 190.574181 
L 192.66939 178.538405 
L 197.162532 224.100293 
L 197.911389 212.061894 
L 198.660246 219.655542 
L 199.409103 207.618061 
L 200.157959 215.211709 
L 200.906816 203.174839 
L 201.655673 210.768487 
L 202.40453 198.732025 
L 203.902244 213.919321 
L 204.651101 201.882587 
L 206.148815 217.069883 
L 206.897672 205.032787 
L 208.395386 220.220083 
L 209.144243 208.182505 
L 209.893099 215.776153 
L 210.641956 203.739218 
L 215.135098 249.301106 
L 215.883955 237.238036 
L 218.879383 267.612628 
L 219.62824 255.431875 
L 221.125953 270.619171 
L 221.87481 258.392992 
L 222.623667 265.98664 
L 223.372524 253.825788 
L 225.619095 276.606732 
L 226.367952 264.244036 
L 227.116809 271.837684 
L 227.865666 259.589305 
L 229.36338 274.776601 
L 230.112236 262.463589 
L 232.358807 285.244533 
L 233.107664 272.501846 
L 236.103092 302.876437 
L 236.103092 302.876437 
" style="fill:none;stroke:#1f77b4;stroke-linecap:square;stroke-width:0.666667;"/>
   </g>
   <g id="line2d_14">
    <path clip-path="url(#pdabd81b77d)" d="M 54.879716 156.648856 
L 55.628573 144.613202 
L 56.37743 152.20685 
L 57.126287 140.171199 
L 58.624001 155.358495 
L 59.372857 143.322843 
L 60.121714 150.916491 
L 60.870571 138.88084 
L 61.619428 146.474488 
L 62.368285 134.438838 
L 63.117142 142.032486 
L 63.865999 129.996837 
L 65.363713 145.184133 
L 66.11257 133.148484 
L 66.861427 140.742132 
L 67.610284 128.706483 
L 69.107997 143.893779 
L 69.856854 131.85813 
L 70.605711 139.451778 
L 71.354568 127.41613 
L 72.103425 135.009778 
L 72.852282 122.97413 
L 73.601139 130.567778 
L 74.349996 118.53213 
L 75.098853 126.125778 
L 75.84771 114.09013 
L 76.596567 121.683778 
L 77.345424 109.648131 
L 78.094281 117.241779 
L 78.843138 105.206131 
L 79.591994 112.799779 
L 80.340851 100.764132 
L 81.089708 108.35778 
L 81.838565 96.322132 
L 84.085136 119.103076 
L 84.833993 107.067429 
L 85.58285 114.661077 
L 86.331707 102.625429 
L 89.327134 133.000021 
L 90.075991 120.964373 
L 90.824848 128.558021 
L 91.573705 116.522373 
L 92.322562 124.116021 
L 93.071419 112.080374 
L 93.820276 119.674022 
L 94.569133 107.638374 
L 95.31799 115.232022 
L 96.066847 103.196375 
L 96.815704 110.790023 
L 97.564561 98.754375 
L 98.313418 106.348023 
L 99.062275 94.312376 
L 100.559988 109.499672 
L 101.308845 97.464025 
L 102.057702 105.057673 
L 102.806559 93.022025 
L 104.304273 108.209321 
L 105.05313 96.173674 
L 105.801987 103.767322 
L 106.550844 91.731675 
L 107.299701 99.325323 
L 108.048558 87.289675 
L 108.797415 94.883323 
L 109.546271 82.847676 
L 113.290556 120.815916 
L 114.039413 108.780268 
L 115.537127 123.967564 
L 116.285984 111.931917 
L 117.034841 119.525565 
L 117.783698 107.489917 
L 118.532555 115.083565 
L 119.281412 103.047918 
L 120.030268 110.641566 
L 120.779125 98.605918 
L 121.527982 106.199566 
L 122.276839 94.163919 
L 123.025696 101.757567 
L 123.774553 89.72192 
L 124.52341 97.315568 
L 125.272267 85.27992 
L 126.021124 92.873568 
L 126.769981 80.837921 
L 127.518838 88.431569 
L 128.267695 76.395922 
L 129.016552 83.98957 
L 129.765408 71.953922 
L 130.514265 79.54757 
L 131.263122 67.511923 
L 132.011979 75.105571 
L 132.760836 63.069924 
L 133.509693 70.663572 
L 134.25855 58.627924 
L 135.007407 66.221572 
L 135.756264 54.185925 
L 137.253978 69.373221 
L 138.002835 57.337574 
L 140.249405 80.118518 
L 140.998262 68.08287 
L 142.495976 83.270166 
L 143.244833 71.234519 
L 143.99369 78.828167 
L 144.742547 66.79252 
L 146.989118 89.573464 
L 147.737975 77.537816 
L 148.486832 85.131464 
L 149.235689 73.095817 
L 149.984545 80.689465 
L 150.733402 68.653818 
L 151.482259 76.247466 
L 152.231116 64.211818 
L 152.979973 71.805466 
L 153.72883 59.769819 
L 156.724258 90.144411 
L 157.473115 78.108764 
L 158.221972 85.702412 
L 158.970829 73.666764 
L 160.468542 88.85406 
L 161.217399 76.818413 
L 161.966256 84.412061 
L 162.715113 72.376414 
L 165.710541 102.751006 
L 166.459398 90.715358 
L 168.705969 113.496302 
L 169.454826 101.460655 
L 170.203682 109.054303 
L 170.952539 97.018655 
L 171.701396 104.612303 
L 172.450253 92.576656 
L 173.19911 100.170304 
L 173.947967 88.134657 
L 175.445681 103.321953 
L 176.194538 91.286305 
L 177.692252 106.473601 
L 178.441109 94.437954 
L 179.189966 102.031602 
L 179.938822 89.995955 
L 180.687679 97.589603 
L 181.436536 85.553955 
L 182.185393 93.147603 
L 182.93425 81.111956 
L 183.683107 88.705604 
L 184.431964 76.669957 
L 185.180821 84.263605 
L 185.929678 72.227957 
L 186.678535 79.821605 
L 187.427392 67.785958 
L 188.176249 75.379606 
L 188.925106 63.343959 
L 192.66939 101.312199 
L 193.418247 89.276551 
L 194.915961 104.463847 
L 195.664818 92.4282 
L 196.413675 100.021848 
L 197.162532 87.9862 
L 198.660246 103.173496 
L 199.409103 91.137849 
L 200.906816 106.325145 
L 201.655673 94.289498 
L 203.153387 109.476794 
L 203.902244 97.441146 
L 204.651101 105.034794 
L 205.399958 92.999147 
L 206.897672 108.186443 
L 207.646529 96.150796 
L 208.395386 103.744444 
L 209.144243 91.708796 
L 210.641956 106.896092 
L 211.390813 94.860445 
L 212.13967 102.454093 
L 212.888527 90.418445 
L 215.135098 113.199389 
L 215.883955 101.163742 
L 217.381669 116.351038 
L 218.130526 104.31539 
L 221.125953 134.689982 
L 221.87481 122.654334 
L 223.372524 137.84163 
L 224.121381 125.805982 
L 225.619095 140.993278 
L 226.367952 128.957629 
L 227.116809 136.551277 
L 227.865666 124.515629 
L 228.614523 132.109277 
L 229.36338 120.073629 
L 230.112236 127.667277 
L 230.861093 115.631629 
L 233.107664 138.412573 
L 233.856521 126.376925 
L 234.605378 133.970573 
L 235.354235 121.934925 
L 236.851949 137.122221 
L 237.600806 125.086573 
L 238.349663 132.680221 
L 239.09852 120.644573 
L 239.847377 128.238221 
L 240.596233 116.202573 
L 242.842804 138.983517 
L 243.591661 126.947868 
L 244.340518 134.541516 
L 245.089375 122.505868 
L 246.587089 137.693164 
L 247.335946 125.657516 
L 248.83366 140.844812 
L 249.582517 128.809163 
L 250.331373 136.402811 
L 251.08023 124.367163 
L 252.577944 139.554459 
L 253.326801 127.51881 
L 254.824515 142.706106 
L 255.573372 130.670457 
L 257.819943 153.451401 
L 258.5688 141.41575 
L 259.317657 149.009398 
L 260.066514 136.973747 
L 260.81537 144.567395 
L 261.564227 132.531746 
L 262.313084 140.125394 
L 263.061941 128.089746 
L 265.308512 150.87069 
L 266.057369 138.835039 
L 266.806226 146.428687 
L 267.555083 134.393037 
L 269.801654 157.173981 
L 270.55051 145.138328 
L 272.048224 160.325624 
L 272.797081 148.289968 
L 273.545938 155.883616 
L 274.294795 143.847964 
L 276.541366 166.628908 
L 277.290223 154.593246 
L 278.03908 162.186894 
L 278.787937 150.151237 
L 280.285651 165.338533 
L 281.034507 153.302873 
L 281.783364 160.896521 
L 282.532221 148.860865 
L 283.281078 156.454513 
L 284.029935 144.41886 
L 287.025363 174.793452 
L 287.77422 162.757774 
L 288.523077 170.351422 
L 289.271934 158.315754 
L 291.518504 181.096698 
L 292.267361 169.060996 
L 293.765075 184.248292 
L 294.513932 172.212573 
L 295.262789 179.806221 
L 296.011646 167.770525 
L 296.760503 175.364173 
L 297.50936 163.328494 
L 298.258217 170.922141 
L 299.007074 158.886473 
L 299.755931 166.480121 
L 300.504787 154.444459 
L 301.253644 162.038107 
L 302.002501 150.00245 
L 302.751358 157.596098 
L 303.500215 145.560445 
L 304.249072 153.154093 
L 304.997929 141.118441 
L 307.2445 163.899385 
L 307.993357 151.863726 
L 309.491071 167.051022 
L 310.239928 155.01536 
L 310.988784 162.609008 
L 311.737641 150.573351 
L 313.235355 165.760647 
L 313.984212 153.724986 
L 315.481926 168.912282 
L 316.230783 156.876617 
L 317.728497 172.063913 
L 318.477354 160.028242 
L 319.975068 175.215538 
L 320.723924 163.179859 
L 322.970495 185.960802 
L 323.719352 173.925071 
L 325.965923 196.706014 
L 326.71478 184.670141 
L 327.463637 192.263789 
L 328.212494 180.227992 
L 328.961351 187.82164 
L 329.710208 175.785892 
L 330.459065 183.37954 
L 331.207921 171.343826 
L 332.705635 186.531122 
L 333.454492 174.495385 
L 334.952206 189.682681 
L 335.701063 177.646915 
L 339.445348 215.615155 
L 340.194205 203.578239 
L 340.943061 211.171887 
L 341.691918 199.135394 
L 342.440775 206.729042 
L 343.189632 194.692832 
L 343.938489 202.28648 
L 344.687346 190.250456 
L 345.436203 197.844104 
L 346.18506 185.808207 
L 346.933917 193.401855 
L 347.682774 181.36604 
L 349.929345 204.146984 
L 350.678202 192.110892 
L 352.175915 207.298188 
L 352.924772 195.261947 
L 353.673629 202.855595 
L 354.422486 190.819552 
L 355.171343 198.4132 
L 355.9202 186.377289 
L 357.417914 201.564585 
L 358.166771 189.528585 
L 360.413342 212.309529 
L 361.162198 200.272944 
L 364.906483 238.241184 
L 365.65534 226.195536 
L 367.901911 248.97648 
L 368.650768 236.91421 
L 370.148482 252.101506 
L 370.897338 240.030462 
L 371.646195 247.62411 
L 372.395052 235.564928 
L 373.143909 243.158576 
L 373.892766 231.107267 
L 375.39048 246.294563 
L 376.139337 234.238068 
L 376.888194 241.831716 
L 377.637051 229.782193 
L 378.385908 237.375841 
L 379.134765 225.330952 
L 379.883622 232.9246 
L 380.632479 220.882797 
L 382.130192 236.070093 
L 382.879049 224.026242 
L 385.12562 246.807186 
L 385.874477 234.749694 
L 386.623334 242.343342 
L 387.372191 230.293155 
L 388.121048 237.886803 
L 388.869905 225.841474 
L 390.367619 241.02877 
L 391.116475 228.980226 
L 391.865332 236.573874 
L 392.614189 224.529638 
L 394.111903 239.716934 
L 394.86076 227.669845 
L 395.609617 235.263493 
L 396.358474 223.220225 
L 397.107331 230.813873 
L 397.856188 218.773148 
L 398.605045 226.366795 
L 399.353902 214.327764 
L 400.102759 221.921412 
L 400.851616 209.88351 
L 401.600472 217.477158 
L 402.349329 205.440007 
L 404.5959 228.220951 
L 405.344757 216.181296 
L 406.093614 223.774944 
L 406.842471 211.736626 
L 407.591328 219.330274 
L 408.340185 207.292846 
L 409.089042 214.886494 
L 409.837899 202.84966 
L 412.833326 233.224252 
L 413.582183 221.182277 
L 415.079897 236.369573 
L 415.828754 224.325496 
L 417.326468 239.512792 
L 418.075325 227.465914 
L 421.070753 257.840506 
L 421.819609 245.745156 
L 424.06618 268.5261 
L 424.815037 256.33282 
L 425.563894 263.926468 
L 426.312751 251.786978 
L 427.061608 259.380626 
L 427.810465 247.276293 
L 431.554749 285.244533 
L 432.303606 272.501846 
L 435.299034 302.876437 
L 435.299034 302.876437 
" style="fill:none;stroke:#ff7f0e;stroke-linecap:square;stroke-width:0.666667;"/>
   </g>
   <g id="patch_3">
    <path d="M 35.85875 316.4425 
L 35.85875 17.989125 
" style="fill:none;stroke:#000000;stroke-linecap:square;stroke-linejoin:miter;stroke-width:0.8;"/>
   </g>
   <g id="patch_4">
    <path d="M 454.32 316.4425 
L 454.32 17.989125 
" style="fill:none;stroke:#000000;stroke-linecap:square;stroke-linejoin:miter;stroke-width:0.8;"/>
   </g>
   <g id="patch_5">
    <path d="M 35.85875 316.4425 
L 454.32 316.4425 
" style="fill:none;stroke:#000000;stroke-linecap:square;stroke-linejoin:miter;stroke-width:0.8;"/>
   </g>
   <g id="patch_6">
    <path d="M 35.85875 17.989125 
L 454.32 17.989125 
" style="fill:none;stroke:#000000;stroke-linecap:square;stroke-linejoin:miter;stroke-width:0.8;"/>
   </g>
   <g id="text_15">
    <!-- "3y+1" problem -->
    <g transform="translate(214.747 11.989125)scale(0.072 -0.072)">
     <defs>
      <path d="M 43.703125 72.90625 
L 43.703125 45.796875 
L 35.203125 45.796875 
L 35.203125 72.90625 
z
M 25 72.90625 
L 25 45.796875 
L 16.5 45.796875 
L 16.5 72.90625 
z
" id="DejaVuSansMono-34"/>
      <path d="M 34.1875 57.171875 
L 34.1875 35.5 
L 55.90625 35.5 
L 55.90625 27.203125 
L 34.1875 27.203125 
L 34.1875 5.515625 
L 25.984375 5.515625 
L 25.984375 27.203125 
L 4.296875 27.203125 
L 4.296875 35.5 
L 25.984375 35.5 
L 25.984375 57.171875 
z
" id="DejaVuSansMono-43"/>
      <path id="DejaVuSansMono-32"/>
      <path d="M 18.3125 6.890625 
L 18.3125 -20.796875 
L 9.28125 -20.796875 
L 9.28125 54.6875 
L 18.3125 54.6875 
L 18.3125 47.703125 
Q 20.5625 51.765625 24.296875 53.875 
Q 28.03125 56 32.90625 56 
Q 42.828125 56 48.46875 48.328125 
Q 54.109375 40.671875 54.109375 27.09375 
Q 54.109375 13.765625 48.4375 6.171875 
Q 42.78125 -1.421875 32.90625 -1.421875 
Q 27.9375 -1.421875 24.1875 0.703125 
Q 20.453125 2.828125 18.3125 6.890625 
z
M 44.671875 27.296875 
Q 44.671875 37.75 41.375 43.0625 
Q 38.09375 48.390625 31.59375 48.390625 
Q 25.046875 48.390625 21.671875 43.046875 
Q 18.3125 37.703125 18.3125 27.296875 
Q 18.3125 16.9375 21.671875 11.5625 
Q 25.046875 6.203125 31.59375 6.203125 
Q 38.09375 6.203125 41.375 11.515625 
Q 44.671875 16.84375 44.671875 27.296875 
z
" id="DejaVuSansMono-112"/>
      <path d="M 56.390625 43.40625 
Q 53.515625 45.65625 50.53125 46.671875 
Q 47.5625 47.703125 44 47.703125 
Q 35.59375 47.703125 31.140625 42.421875 
Q 26.703125 37.15625 26.703125 27.203125 
L 26.703125 0 
L 17.671875 0 
L 17.671875 54.6875 
L 26.703125 54.6875 
L 26.703125 44 
Q 28.953125 49.8125 33.609375 52.90625 
Q 38.28125 56 44.671875 56 
Q 48 56 50.875 55.171875 
Q 53.765625 54.34375 56.390625 52.59375 
z
" id="DejaVuSansMono-114"/>
      <path d="M 30.078125 48.390625 
Q 23.25 48.390625 19.734375 43.0625 
Q 16.21875 37.75 16.21875 27.296875 
Q 16.21875 16.890625 19.734375 11.546875 
Q 23.25 6.203125 30.078125 6.203125 
Q 36.96875 6.203125 40.484375 11.546875 
Q 44 16.890625 44 27.296875 
Q 44 37.75 40.484375 43.0625 
Q 36.96875 48.390625 30.078125 48.390625 
z
M 30.078125 56 
Q 41.453125 56 47.484375 48.625 
Q 53.515625 41.265625 53.515625 27.296875 
Q 53.515625 13.28125 47.5 5.921875 
Q 41.5 -1.421875 30.078125 -1.421875 
Q 18.703125 -1.421875 12.6875 5.921875 
Q 6.6875 13.28125 6.6875 27.296875 
Q 6.6875 41.265625 12.6875 48.625 
Q 18.703125 56 30.078125 56 
z
" id="DejaVuSansMono-111"/>
      <path d="M 44.828125 27.296875 
Q 44.828125 37.75 41.5 43.0625 
Q 38.1875 48.390625 31.6875 48.390625 
Q 25.140625 48.390625 21.765625 43.046875 
Q 18.40625 37.703125 18.40625 27.296875 
Q 18.40625 16.9375 21.765625 11.5625 
Q 25.140625 6.203125 31.6875 6.203125 
Q 38.1875 6.203125 41.5 11.515625 
Q 44.828125 16.84375 44.828125 27.296875 
z
M 18.40625 47.703125 
Q 20.5625 51.703125 24.34375 53.84375 
Q 28.125 56 33.109375 56 
Q 42.96875 56 48.625 48.40625 
Q 54.296875 40.828125 54.296875 27.484375 
Q 54.296875 13.96875 48.609375 6.265625 
Q 42.921875 -1.421875 33.015625 -1.421875 
Q 28.125 -1.421875 24.390625 0.703125 
Q 20.65625 2.828125 18.40625 6.890625 
L 18.40625 0 
L 9.421875 0 
L 9.421875 75.984375 
L 18.40625 75.984375 
z
" id="DejaVuSansMono-98"/>
      <path d="M 31.203125 19.828125 
Q 31.203125 13.765625 33.421875 10.6875 
Q 35.640625 7.625 39.984375 7.625 
L 50.484375 7.625 
L 50.484375 0 
L 39.109375 0 
Q 31.0625 0 26.640625 5.171875 
Q 22.21875 10.359375 22.21875 19.828125 
L 22.21875 69.484375 
L 7.8125 69.484375 
L 7.8125 76.515625 
L 31.203125 76.515625 
z
" id="DejaVuSansMono-108"/>
      <path d="M 54.296875 29.59375 
L 54.296875 25.203125 
L 15.375 25.203125 
L 15.375 24.90625 
Q 15.375 15.96875 20.03125 11.078125 
Q 24.703125 6.203125 33.203125 6.203125 
Q 37.5 6.203125 42.1875 7.5625 
Q 46.875 8.9375 52.203125 11.71875 
L 52.203125 2.78125 
Q 47.078125 0.6875 42.3125 -0.359375 
Q 37.546875 -1.421875 33.109375 -1.421875 
Q 20.359375 -1.421875 13.171875 6.21875 
Q 6 13.875 6 27.296875 
Q 6 40.375 13.03125 48.1875 
Q 20.0625 56 31.78125 56 
Q 42.234375 56 48.265625 48.921875 
Q 54.296875 41.84375 54.296875 29.59375 
z
M 45.3125 32.234375 
Q 45.125 40.140625 41.578125 44.265625 
Q 38.03125 48.390625 31.390625 48.390625 
Q 24.90625 48.390625 20.703125 44.09375 
Q 16.5 39.796875 15.71875 32.171875 
z
" id="DejaVuSansMono-101"/>
      <path d="M 33.015625 49.125 
Q 34.671875 52.640625 37.234375 54.3125 
Q 39.796875 56 43.40625 56 
Q 50 56 52.703125 50.890625 
Q 55.421875 45.796875 55.421875 31.6875 
L 55.421875 0 
L 47.21875 0 
L 47.21875 31.296875 
Q 47.21875 42.875 45.921875 45.671875 
Q 44.625 48.484375 41.21875 48.484375 
Q 37.3125 48.484375 35.859375 45.484375 
Q 34.421875 42.484375 34.421875 31.296875 
L 34.421875 0 
L 26.21875 0 
L 26.21875 31.296875 
Q 26.21875 43.015625 24.828125 45.75 
Q 23.4375 48.484375 19.828125 48.484375 
Q 16.265625 48.484375 14.875 45.484375 
Q 13.484375 42.484375 13.484375 31.296875 
L 13.484375 0 
L 5.328125 0 
L 5.328125 54.6875 
L 13.484375 54.6875 
L 13.484375 50 
Q 15.09375 52.9375 17.5 54.46875 
Q 19.921875 56 23 56 
Q 26.703125 56 29.171875 54.296875 
Q 31.640625 52.59375 33.015625 49.125 
z
" id="DejaVuSansMono-109"/>
     </defs>
     <use xlink:href="#DejaVuSansMono-34"/>
     <use x="60.205078" xlink:href="#DejaVuSansMono-51"/>
     <use x="120.410156" xlink:href="#DejaVuSansMono-121"/>
     <use x="180.615234" xlink:href="#DejaVuSansMono-43"/>
     <use x="240.820312" xlink:href="#DejaVuSansMono-49"/>
     <use x="301.025391" xlink:href="#DejaVuSansMono-34"/>
     <use x="361.230469" xlink:href="#DejaVuSansMono-32"/>
     <use x="421.435547" xlink:href="#DejaVuSansMono-112"/>
     <use x="481.640625" xlink:href="#DejaVuSansMono-114"/>
     <use x="541.845703" xlink:href="#DejaVuSansMono-111"/>
     <use x="602.050781" xlink:href="#DejaVuSansMono-98"/>
     <use x="662.255859" xlink:href="#DejaVuSansMono-108"/>
     <use x="722.460938" xlink:href="#DejaVuSansMono-101"/>
     <use x="782.666016" xlink:href="#DejaVuSansMono-109"/>
    </g>
   </g>
   <g id="legend_1">
    <g id="patch_7">
     <path d="M 358.67625 82.0095 
L 450.12 82.0095 
Q 451.32 82.0095 451.32 80.8095 
L 451.32 22.189125 
Q 451.32 20.989125 450.12 20.989125 
L 358.67625 20.989125 
Q 357.47625 20.989125 357.47625 22.189125 
L 357.47625 80.8095 
Q 357.47625 82.0095 358.67625 82.0095 
z
" style="fill:#ffffff;opacity:0.8;stroke:#cccccc;stroke-linejoin:miter;"/>
    </g>
    <g id="line2d_15">
     <path d="M 359.87625 36.889687 
L 371.87625 36.889687 
" style="fill:none;stroke:#1f77b4;stroke-linecap:square;stroke-width:0.666667;"/>
    </g>
    <g id="line2d_16"/>
    <g id="text_16">
     <!-- "Tallest": -->
     <g transform="translate(376.67625 27.980062)scale(0.06 -0.06)">
      <defs>
       <path d="M 2.296875 72.90625 
L 57.90625 72.90625 
L 57.90625 64.59375 
L 35.109375 64.59375 
L 35.109375 0 
L 25.203125 0 
L 25.203125 64.59375 
L 2.296875 64.59375 
z
" id="DejaVuSansMono-84"/>
       <path d="M 34.28125 27.484375 
L 31.296875 27.484375 
Q 23.4375 27.484375 19.453125 24.71875 
Q 15.484375 21.96875 15.484375 16.5 
Q 15.484375 11.578125 18.453125 8.84375 
Q 21.4375 6.109375 26.703125 6.109375 
Q 34.125 6.109375 38.375 11.25 
Q 42.625 16.40625 42.671875 25.484375 
L 42.671875 27.484375 
z
M 51.703125 31.203125 
L 51.703125 0 
L 42.671875 0 
L 42.671875 8.109375 
Q 39.796875 3.21875 35.421875 0.890625 
Q 31.0625 -1.421875 24.8125 -1.421875 
Q 16.453125 -1.421875 11.46875 3.296875 
Q 6.5 8.015625 6.5 15.921875 
Q 6.5 25.046875 12.625 29.78125 
Q 18.75 34.515625 30.609375 34.515625 
L 42.671875 34.515625 
L 42.671875 35.9375 
Q 42.625 42.484375 39.34375 45.4375 
Q 36.078125 48.390625 28.90625 48.390625 
Q 24.3125 48.390625 19.625 47.0625 
Q 14.9375 45.75 10.5 43.21875 
L 10.5 52.203125 
Q 15.484375 54.109375 20.046875 55.046875 
Q 24.609375 56 28.90625 56 
Q 35.6875 56 40.5 54 
Q 45.3125 52 48.296875 48 
Q 50.140625 45.5625 50.921875 41.96875 
Q 51.703125 38.375 51.703125 31.203125 
z
" id="DejaVuSansMono-97"/>
       <path d="M 47.515625 52.78125 
L 47.515625 44 
Q 43.65625 46.234375 39.75 47.359375 
Q 35.84375 48.484375 31.78125 48.484375 
Q 25.6875 48.484375 22.671875 46.5 
Q 19.671875 44.53125 19.671875 40.484375 
Q 19.671875 36.8125 21.921875 35 
Q 24.171875 33.203125 33.109375 31.5 
L 36.71875 30.8125 
Q 43.40625 29.546875 46.84375 25.734375 
Q 50.296875 21.921875 50.296875 15.828125 
Q 50.296875 7.71875 44.53125 3.140625 
Q 38.765625 -1.421875 28.515625 -1.421875 
Q 24.46875 -1.421875 20.015625 -0.5625 
Q 15.578125 0.296875 10.40625 2 
L 10.40625 11.28125 
Q 15.4375 8.6875 20.015625 7.390625 
Q 24.609375 6.109375 28.71875 6.109375 
Q 34.671875 6.109375 37.9375 8.515625 
Q 41.21875 10.9375 41.21875 15.28125 
Q 41.21875 21.53125 29.25 23.921875 
L 28.859375 24.03125 
L 25.484375 24.703125 
Q 17.71875 26.21875 14.15625 29.8125 
Q 10.59375 33.40625 10.59375 39.59375 
Q 10.59375 47.46875 15.90625 51.734375 
Q 21.234375 56 31.109375 56 
Q 35.5 56 39.546875 55.1875 
Q 43.609375 54.390625 47.515625 52.78125 
z
" id="DejaVuSansMono-115"/>
       <path d="M 29.984375 70.21875 
L 29.984375 54.6875 
L 50.390625 54.6875 
L 50.390625 47.703125 
L 29.984375 47.703125 
L 29.984375 18.015625 
Q 29.984375 11.96875 32.28125 9.5625 
Q 34.578125 7.171875 40.28125 7.171875 
L 50.390625 7.171875 
L 50.390625 0 
L 39.40625 0 
Q 29.296875 0 25.140625 4.046875 
Q 21 8.109375 21 18.015625 
L 21 47.703125 
L 6.390625 47.703125 
L 6.390625 54.6875 
L 21 54.6875 
L 21 70.21875 
z
" id="DejaVuSansMono-116"/>
       <path d="M 23.875 51.90625 
L 36.1875 51.90625 
L 36.1875 37.109375 
L 23.875 37.109375 
z
M 23.875 14.890625 
L 36.1875 14.890625 
L 36.1875 0 
L 23.875 0 
z
" id="DejaVuSansMono-58"/>
      </defs>
      <use xlink:href="#DejaVuSansMono-34"/>
      <use x="60.205078" xlink:href="#DejaVuSansMono-84"/>
      <use x="120.410156" xlink:href="#DejaVuSansMono-97"/>
      <use x="180.615234" xlink:href="#DejaVuSansMono-108"/>
      <use x="240.820312" xlink:href="#DejaVuSansMono-108"/>
      <use x="301.025391" xlink:href="#DejaVuSansMono-101"/>
      <use x="361.230469" xlink:href="#DejaVuSansMono-115"/>
      <use x="421.435547" xlink:href="#DejaVuSansMono-116"/>
      <use x="481.640625" xlink:href="#DejaVuSansMono-34"/>
      <use x="541.845703" xlink:href="#DejaVuSansMono-58"/>
     </g>
     <!-- y_0    = 704511 -->
     <g transform="translate(376.67625 34.737)scale(0.06 -0.06)">
      <defs>
       <path d="M 4.296875 25.59375 
L 55.90625 25.59375 
L 55.90625 17.1875 
L 4.296875 17.1875 
z
M 4.296875 45.40625 
L 55.90625 45.40625 
L 55.90625 37.109375 
L 4.296875 37.109375 
z
" id="DejaVuSansMono-61"/>
      </defs>
      <use xlink:href="#DejaVuSansMono-121"/>
      <use x="60.205078" xlink:href="#DejaVuSansMono-95"/>
      <use x="120.410156" xlink:href="#DejaVuSansMono-48"/>
      <use x="180.615234" xlink:href="#DejaVuSansMono-32"/>
      <use x="240.820312" xlink:href="#DejaVuSansMono-32"/>
      <use x="301.025391" xlink:href="#DejaVuSansMono-32"/>
      <use x="361.230469" xlink:href="#DejaVuSansMono-32"/>
      <use x="421.435547" xlink:href="#DejaVuSansMono-61"/>
      <use x="481.640625" xlink:href="#DejaVuSansMono-32"/>
      <use x="541.845703" xlink:href="#DejaVuSansMono-55"/>
      <use x="602.050781" xlink:href="#DejaVuSansMono-48"/>
      <use x="662.255859" xlink:href="#DejaVuSansMono-52"/>
      <use x="722.460938" xlink:href="#DejaVuSansMono-53"/>
      <use x="782.666016" xlink:href="#DejaVuSansMono-49"/>
      <use x="842.871094" xlink:href="#DejaVuSansMono-49"/>
     </g>
     <!-- y_max  = 56991483520 -->
     <g transform="translate(376.67625 41.660812)scale(0.06 -0.06)">
      <defs>
       <path d="M 54.59375 54.6875 
L 35.015625 28.515625 
L 56.5 0 
L 46.09375 0 
L 30.078125 21.921875 
L 14.109375 0 
L 3.71875 0 
L 25.203125 28.515625 
L 5.609375 54.6875 
L 15.578125 54.6875 
L 30.078125 34.90625 
L 44.484375 54.6875 
z
" id="DejaVuSansMono-120"/>
       <path d="M 48.390625 71.296875 
L 48.390625 62.203125 
Q 45.3125 64.015625 41.84375 64.96875 
Q 38.375 65.921875 34.625 65.921875 
Q 25.25 65.921875 20.40625 58.859375 
Q 15.578125 51.8125 15.578125 38.09375 
Q 17.921875 42.96875 22.0625 45.578125 
Q 26.21875 48.1875 31.59375 48.1875 
Q 42.140625 48.1875 47.921875 41.71875 
Q 53.71875 35.25 53.71875 23.390625 
Q 53.71875 11.578125 47.75 5.078125 
Q 41.796875 -1.421875 31 -1.421875 
Q 18.3125 -1.421875 12.40625 7.6875 
Q 6.5 16.796875 6.5 36.375 
Q 6.5 54.828125 13.59375 64.515625 
Q 20.703125 74.21875 34.1875 74.21875 
Q 37.796875 74.21875 41.40625 73.453125 
Q 45.015625 72.703125 48.390625 71.296875 
z
M 30.8125 40.484375 
Q 24.515625 40.484375 20.890625 35.9375 
Q 17.28125 31.390625 17.28125 23.390625 
Q 17.28125 15.375 20.890625 10.828125 
Q 24.515625 6.296875 30.8125 6.296875 
Q 37.359375 6.296875 40.671875 10.609375 
Q 44 14.9375 44 23.390625 
Q 44 31.890625 40.671875 36.1875 
Q 37.359375 40.484375 30.8125 40.484375 
z
" id="DejaVuSansMono-54"/>
       <path d="M 30.078125 34.625 
Q 23.484375 34.625 19.890625 30.9375 
Q 16.3125 27.25 16.3125 20.515625 
Q 16.3125 13.765625 19.9375 10.03125 
Q 23.578125 6.296875 30.078125 6.296875 
Q 36.71875 6.296875 40.296875 9.984375 
Q 43.890625 13.671875 43.890625 20.515625 
Q 43.890625 27.203125 40.25 30.90625 
Q 36.625 34.625 30.078125 34.625 
z
M 21.484375 38.71875 
Q 15.1875 40.328125 11.640625 44.71875 
Q 8.109375 49.125 8.109375 55.328125 
Q 8.109375 64.015625 14.015625 69.109375 
Q 19.921875 74.21875 30.078125 74.21875 
Q 40.28125 74.21875 46.1875 69.109375 
Q 52.09375 64.015625 52.09375 55.328125 
Q 52.09375 49.125 48.546875 44.71875 
Q 45.015625 40.328125 38.71875 38.71875 
Q 46.046875 37.109375 49.921875 32.21875 
Q 53.8125 27.34375 53.8125 19.578125 
Q 53.8125 9.71875 47.515625 4.140625 
Q 41.21875 -1.421875 30.078125 -1.421875 
Q 18.953125 -1.421875 12.671875 4.125 
Q 6.390625 9.671875 6.390625 19.484375 
Q 6.390625 27.296875 10.265625 32.203125 
Q 14.15625 37.109375 21.484375 38.71875 
z
M 17.921875 54.390625 
Q 17.921875 48.53125 21.046875 45.453125 
Q 24.171875 42.390625 30.078125 42.390625 
Q 36.03125 42.390625 39.15625 45.453125 
Q 42.28125 48.53125 42.28125 54.390625 
Q 42.28125 60.359375 39.171875 63.484375 
Q 36.078125 66.609375 30.078125 66.609375 
Q 24.171875 66.609375 21.046875 63.453125 
Q 17.921875 60.296875 17.921875 54.390625 
z
" id="DejaVuSansMono-56"/>
      </defs>
      <use xlink:href="#DejaVuSansMono-121"/>
      <use x="60.205078" xlink:href="#DejaVuSansMono-95"/>
      <use x="120.410156" xlink:href="#DejaVuSansMono-109"/>
      <use x="180.615234" xlink:href="#DejaVuSansMono-97"/>
      <use x="240.820312" xlink:href="#DejaVuSansMono-120"/>
      <use x="301.025391" xlink:href="#DejaVuSansMono-32"/>
      <use x="361.230469" xlink:href="#DejaVuSansMono-32"/>
      <use x="421.435547" xlink:href="#DejaVuSansMono-61"/>
      <use x="481.640625" xlink:href="#DejaVuSansMono-32"/>
      <use x="541.845703" xlink:href="#DejaVuSansMono-53"/>
      <use x="602.050781" xlink:href="#DejaVuSansMono-54"/>
      <use x="662.255859" xlink:href="#DejaVuSansMono-57"/>
      <use x="722.460938" xlink:href="#DejaVuSansMono-57"/>
      <use x="782.666016" xlink:href="#DejaVuSansMono-49"/>
      <use x="842.871094" xlink:href="#DejaVuSansMono-52"/>
      <use x="903.076172" xlink:href="#DejaVuSansMono-56"/>
      <use x="963.28125" xlink:href="#DejaVuSansMono-51"/>
      <use x="1023.486328" xlink:href="#DejaVuSansMono-53"/>
      <use x="1083.691406" xlink:href="#DejaVuSansMono-50"/>
      <use x="1143.896484" xlink:href="#DejaVuSansMono-48"/>
     </g>
     <!-- x_max  = 243 -->
     <g transform="translate(376.67625 48.584625)scale(0.06 -0.06)">
      <use xlink:href="#DejaVuSansMono-120"/>
      <use x="60.205078" xlink:href="#DejaVuSansMono-95"/>
      <use x="120.410156" xlink:href="#DejaVuSansMono-109"/>
      <use x="180.615234" xlink:href="#DejaVuSansMono-97"/>
      <use x="240.820312" xlink:href="#DejaVuSansMono-120"/>
      <use x="301.025391" xlink:href="#DejaVuSansMono-32"/>
      <use x="361.230469" xlink:href="#DejaVuSansMono-32"/>
      <use x="421.435547" xlink:href="#DejaVuSansMono-61"/>
      <use x="481.640625" xlink:href="#DejaVuSansMono-32"/>
      <use x="541.845703" xlink:href="#DejaVuSansMono-50"/>
      <use x="602.050781" xlink:href="#DejaVuSansMono-52"/>
      <use x="662.255859" xlink:href="#DejaVuSansMono-51"/>
     </g>
    </g>
    <g id="line2d_17">
     <path d="M 359.87625 66.499875 
L 371.87625 66.499875 
" style="fill:none;stroke:#ff7f0e;stroke-linecap:square;stroke-width:0.666667;"/>
    </g>
    <g id="line2d_18"/>
    <g id="text_17">
     <!-- "Widest":  -->
     <g transform="translate(376.67625 57.59025)scale(0.06 -0.06)">
      <defs>
       <path d="M 0 72.90625 
L 9.625 72.90625 
L 16.609375 13.71875 
L 24.90625 52.875 
L 35.203125 52.875 
L 43.609375 13.625 
L 50.59375 72.90625 
L 60.203125 72.90625 
L 49.3125 0 
L 39.984375 0 
L 30.078125 43.3125 
L 20.21875 0 
L 10.890625 0 
z
" id="DejaVuSansMono-87"/>
       <path d="M 12.5 54.6875 
L 35.5 54.6875 
L 35.5 6.984375 
L 53.328125 6.984375 
L 53.328125 0 
L 8.6875 0 
L 8.6875 6.984375 
L 26.515625 6.984375 
L 26.515625 47.703125 
L 12.5 47.703125 
z
M 26.515625 75.984375 
L 35.5 75.984375 
L 35.5 64.59375 
L 26.515625 64.59375 
z
" id="DejaVuSansMono-105"/>
       <path d="M 41.890625 47.703125 
L 41.890625 75.984375 
L 50.875 75.984375 
L 50.875 0 
L 41.890625 0 
L 41.890625 6.890625 
Q 39.65625 2.828125 35.90625 0.703125 
Q 32.171875 -1.421875 27.296875 -1.421875 
Q 17.390625 -1.421875 11.6875 6.265625 
Q 6 13.96875 6 27.484375 
Q 6 40.828125 11.71875 48.40625 
Q 17.4375 56 27.296875 56 
Q 32.234375 56 35.984375 53.875 
Q 39.75 51.765625 41.890625 47.703125 
z
M 15.484375 27.296875 
Q 15.484375 16.84375 18.796875 11.515625 
Q 22.125 6.203125 28.609375 6.203125 
Q 35.109375 6.203125 38.5 11.5625 
Q 41.890625 16.9375 41.890625 27.296875 
Q 41.890625 37.703125 38.5 43.046875 
Q 35.109375 48.390625 28.609375 48.390625 
Q 22.125 48.390625 18.796875 43.0625 
Q 15.484375 37.75 15.484375 27.296875 
z
" id="DejaVuSansMono-100"/>
      </defs>
      <use xlink:href="#DejaVuSansMono-34"/>
      <use x="60.205078" xlink:href="#DejaVuSansMono-87"/>
      <use x="120.410156" xlink:href="#DejaVuSansMono-105"/>
      <use x="180.615234" xlink:href="#DejaVuSansMono-100"/>
      <use x="240.820312" xlink:href="#DejaVuSansMono-101"/>
      <use x="301.025391" xlink:href="#DejaVuSansMono-115"/>
      <use x="361.230469" xlink:href="#DejaVuSansMono-116"/>
      <use x="421.435547" xlink:href="#DejaVuSansMono-34"/>
      <use x="481.640625" xlink:href="#DejaVuSansMono-58"/>
      <use x="541.845703" xlink:href="#DejaVuSansMono-32"/>
     </g>
     <!-- y_0    = 626331 -->
     <g transform="translate(376.67625 64.347187)scale(0.06 -0.06)">
      <use xlink:href="#DejaVuSansMono-121"/>
      <use x="60.205078" xlink:href="#DejaVuSansMono-95"/>
      <use x="120.410156" xlink:href="#DejaVuSansMono-48"/>
      <use x="180.615234" xlink:href="#DejaVuSansMono-32"/>
      <use x="240.820312" xlink:href="#DejaVuSansMono-32"/>
      <use x="301.025391" xlink:href="#DejaVuSansMono-32"/>
      <use x="361.230469" xlink:href="#DejaVuSansMono-32"/>
      <use x="421.435547" xlink:href="#DejaVuSansMono-61"/>
      <use x="481.640625" xlink:href="#DejaVuSansMono-32"/>
      <use x="541.845703" xlink:href="#DejaVuSansMono-54"/>
      <use x="602.050781" xlink:href="#DejaVuSansMono-50"/>
      <use x="662.255859" xlink:href="#DejaVuSansMono-54"/>
      <use x="722.460938" xlink:href="#DejaVuSansMono-51"/>
      <use x="782.666016" xlink:href="#DejaVuSansMono-51"/>
      <use x="842.871094" xlink:href="#DejaVuSansMono-49"/>
     </g>
     <!-- y_max  = 7222283188 -->
     <g transform="translate(376.67625 71.271)scale(0.06 -0.06)">
      <use xlink:href="#DejaVuSansMono-121"/>
      <use x="60.205078" xlink:href="#DejaVuSansMono-95"/>
      <use x="120.410156" xlink:href="#DejaVuSansMono-109"/>
      <use x="180.615234" xlink:href="#DejaVuSansMono-97"/>
      <use x="240.820312" xlink:href="#DejaVuSansMono-120"/>
      <use x="301.025391" xlink:href="#DejaVuSansMono-32"/>
      <use x="361.230469" xlink:href="#DejaVuSansMono-32"/>
      <use x="421.435547" xlink:href="#DejaVuSansMono-61"/>
      <use x="481.640625" xlink:href="#DejaVuSansMono-32"/>
      <use x="541.845703" xlink:href="#DejaVuSansMono-55"/>
      <use x="602.050781" xlink:href="#DejaVuSansMono-50"/>
      <use x="662.255859" xlink:href="#DejaVuSansMono-50"/>
      <use x="722.460938" xlink:href="#DejaVuSansMono-50"/>
      <use x="782.666016" xlink:href="#DejaVuSansMono-50"/>
      <use x="842.871094" xlink:href="#DejaVuSansMono-56"/>
      <use x="903.076172" xlink:href="#DejaVuSansMono-51"/>
      <use x="963.28125" xlink:href="#DejaVuSansMono-49"/>
      <use x="1023.486328" xlink:href="#DejaVuSansMono-56"/>
      <use x="1083.691406" xlink:href="#DejaVuSansMono-56"/>
     </g>
     <!-- x_max  = 509 -->
     <g transform="translate(376.67625 78.194812)scale(0.06 -0.06)">
      <use xlink:href="#DejaVuSansMono-120"/>
      <use x="60.205078" xlink:href="#DejaVuSansMono-95"/>
      <use x="120.410156" xlink:href="#DejaVuSansMono-109"/>
      <use x="180.615234" xlink:href="#DejaVuSansMono-97"/>
      <use x="240.820312" xlink:href="#DejaVuSansMono-120"/>
      <use x="301.025391" xlink:href="#DejaVuSansMono-32"/>
      <use x="361.230469" xlink:href="#DejaVuSansMono-32"/>
      <use x="421.435547" xlink:href="#DejaVuSansMono-61"/>
      <use x="481.640625" xlink:href="#DejaVuSansMono-32"/>
      <use x="541.845703" xlink:href="#DejaVuSansMono-53"/>
      <use x="602.050781" xlink:href="#DejaVuSansMono-48"/>
      <use x="662.255859" xlink:href="#DejaVuSansMono-57"/>
     </g>
    </g>
   </g>
  </g>
 </g>
 <defs>
  <clipPath id="pdabd81b77d">
   <rect height="298.453375" width="418.46125" x="35.85875" y="17.989125"/>
  </clipPath>
 </defs>
</svg>
