<?xml version="1.0" encoding="utf-8" standalone="no"?>
<!DOCTYPE svg PUBLIC "-//W3C//DTD SVG 1.1//EN"
  "http://www.w3.org/Graphics/SVG/1.1/DTD/svg11.dtd">
<!-- Created with matplotlib (https://matplotlib.org/) -->
<svg height="345.6pt" version="1.1" viewBox="0 0 460.8 345.6" width="460.8pt" xmlns="http://www.w3.org/2000/svg" xmlns:xlink="http://www.w3.org/1999/xlink">
 <metadata>
  <rdf:RDF xmlns:cc="http://creativecommons.org/ns#" xmlns:dc="http://purl.org/dc/elements/1.1/" xmlns:rdf="http://www.w3.org/1999/02/22-rdf-syntax-ns#">
   <cc:Work>
    <dc:type rdf:resource="http://purl.org/dc/dcmitype/StillImage"/>
    <dc:date>2022-03-17T00:32:00.060821</dc:date>
    <dc:format>image/svg+xml</dc:format>
    <dc:creator>
     <cc:Agent>
      <dc:title>Matplotlib v3.3.2, https://matplotlib.org/</dc:title>
     </cc:Agent>
    </dc:creator>
   </cc:Work>
  </rdf:RDF>
 </metadata>
 <defs>
  <style type="text/css">*{stroke-linecap:butt;stroke-linejoin:round;}</style>
 </defs>
 <g id="figure_1">
  <g id="patch_1">
   <path d="M 0 345.6 
L 460.8 345.6 
L 460.8 0 
L 0 0 
z
" style="fill:#ffffff;"/>
  </g>
  <g id="axes_1">
   <g id="patch_2">
    <path d="M 35.85875 316.4425 
L 454.32 316.4425 
L 454.32 17.989125 
L 35.85875 17.989125 
z
" style="fill:#ffffff;"/>
   </g>
   <g id="matplotlib.axis_1">
    <g id="xtick_1">
     <g id="line2d_1">
      <defs>
       <path d="M 0 0 
L 0 3.5 
" id="m5726e176d8" style="stroke:#000000;stroke-width:0.8;"/>
      </defs>
      <g>
       <use style="stroke:#000000;stroke-width:0.8;" x="54.879716" xlink:href="#m5726e176d8" y="316.4425"/>
      </g>
     </g>
     <g id="text_1">
      <!-- 0 -->
      <g transform="translate(53.073622 328.033437)scale(0.06 -0.06)">
       <defs>
        <path d="M 23.578125 36.625 
Q 23.578125 39.3125 25.453125 41.265625 
Q 27.34375 43.21875 29.984375 43.21875 
Q 32.71875 43.21875 34.671875 41.265625 
Q 36.625 39.3125 36.625 36.625 
Q 36.625 33.890625 34.6875 31.984375 
Q 32.765625 30.078125 29.984375 30.078125 
Q 27.25 30.078125 25.40625 31.9375 
Q 23.578125 33.796875 23.578125 36.625 
z
M 30.078125 66.40625 
Q 23.1875 66.40625 19.796875 58.984375 
Q 16.40625 51.5625 16.40625 36.375 
Q 16.40625 21.234375 19.796875 13.8125 
Q 23.1875 6.390625 30.078125 6.390625 
Q 37.015625 6.390625 40.40625 13.8125 
Q 43.796875 21.234375 43.796875 36.375 
Q 43.796875 51.5625 40.40625 58.984375 
Q 37.015625 66.40625 30.078125 66.40625 
z
M 30.078125 74.21875 
Q 41.75 74.21875 47.734375 64.640625 
Q 53.71875 55.078125 53.71875 36.375 
Q 53.71875 17.71875 47.734375 8.140625 
Q 41.75 -1.421875 30.078125 -1.421875 
Q 18.40625 -1.421875 12.453125 8.140625 
Q 6.5 17.71875 6.5 36.375 
Q 6.5 55.078125 12.453125 64.640625 
Q 18.40625 74.21875 30.078125 74.21875 
z
" id="DejaVuSansMono-48"/>
       </defs>
       <use xlink:href="#DejaVuSansMono-48"/>
      </g>
     </g>
    </g>
    <g id="xtick_2">
     <g id="line2d_2">
      <g>
       <use style="stroke:#000000;stroke-width:0.8;" x="117.039735" xlink:href="#m5726e176d8" y="316.4425"/>
      </g>
     </g>
     <g id="text_2">
      <!-- 100 -->
      <g transform="translate(111.621454 328.033437)scale(0.06 -0.06)">
       <defs>
        <path d="M 13.1875 8.296875 
L 28.515625 8.296875 
L 28.515625 64.015625 
L 12.015625 60.296875 
L 12.015625 69.28125 
L 28.421875 72.90625 
L 38.28125 72.90625 
L 38.28125 8.296875 
L 53.421875 8.296875 
L 53.421875 0 
L 13.1875 0 
z
" id="DejaVuSansMono-49"/>
       </defs>
       <use xlink:href="#DejaVuSansMono-49"/>
       <use x="60.205078" xlink:href="#DejaVuSansMono-48"/>
       <use x="120.410156" xlink:href="#DejaVuSansMono-48"/>
      </g>
     </g>
    </g>
    <g id="xtick_3">
     <g id="line2d_3">
      <g>
       <use style="stroke:#000000;stroke-width:0.8;" x="179.199755" xlink:href="#m5726e176d8" y="316.4425"/>
      </g>
     </g>
     <g id="text_3">
      <!-- 200 -->
      <g transform="translate(173.781473 328.033437)scale(0.06 -0.06)">
       <defs>
        <path d="M 18.21875 8.296875 
L 51.703125 8.296875 
L 51.703125 0 
L 7.421875 0 
L 7.421875 8.296875 
Q 16.546875 17.921875 23.375 25.296875 
Q 30.21875 32.671875 32.8125 35.6875 
Q 37.703125 41.65625 39.40625 45.34375 
Q 41.109375 49.03125 41.109375 52.875 
Q 41.109375 58.984375 37.515625 62.453125 
Q 33.9375 65.921875 27.6875 65.921875 
Q 23.25 65.921875 18.359375 64.3125 
Q 13.484375 62.703125 8.015625 59.421875 
L 8.015625 69.390625 
Q 13.03125 71.78125 17.890625 73 
Q 22.75 74.21875 27.484375 74.21875 
Q 38.1875 74.21875 44.703125 68.53125 
Q 51.21875 62.84375 51.21875 53.609375 
Q 51.21875 48.921875 49.046875 44.234375 
Q 46.875 39.546875 42 33.890625 
Q 39.265625 30.71875 34.0625 25.09375 
Q 28.859375 19.484375 18.21875 8.296875 
z
" id="DejaVuSansMono-50"/>
       </defs>
       <use xlink:href="#DejaVuSansMono-50"/>
       <use x="60.205078" xlink:href="#DejaVuSansMono-48"/>
       <use x="120.410156" xlink:href="#DejaVuSansMono-48"/>
      </g>
     </g>
    </g>
    <g id="xtick_4">
     <g id="line2d_4">
      <g>
       <use style="stroke:#000000;stroke-width:0.8;" x="241.359774" xlink:href="#m5726e176d8" y="316.4425"/>
      </g>
     </g>
     <g id="text_4">
      <!-- 300 -->
      <g transform="translate(235.941493 328.033437)scale(0.06 -0.06)">
       <defs>
        <path d="M 37.890625 39.015625 
Q 45.0625 37.109375 48.875 32.25 
Q 52.6875 27.390625 52.6875 20.125 
Q 52.6875 10.0625 45.921875 4.3125 
Q 39.15625 -1.421875 27.203125 -1.421875 
Q 22.171875 -1.421875 16.9375 -0.484375 
Q 11.71875 0.4375 6.6875 2.203125 
L 6.6875 12.015625 
Q 11.671875 9.421875 16.5 8.15625 
Q 21.34375 6.890625 26.125 6.890625 
Q 34.234375 6.890625 38.578125 10.546875 
Q 42.921875 14.203125 42.921875 21.09375 
Q 42.921875 27.4375 38.578125 31.171875 
Q 34.234375 34.90625 26.8125 34.90625 
L 19.28125 34.90625 
L 19.28125 43.015625 
L 26.8125 43.015625 
Q 33.59375 43.015625 37.40625 45.984375 
Q 41.21875 48.96875 41.21875 54.296875 
Q 41.21875 59.90625 37.671875 62.90625 
Q 34.125 65.921875 27.59375 65.921875 
Q 23.25 65.921875 18.609375 64.9375 
Q 13.96875 63.96875 8.890625 62.015625 
L 8.890625 71.09375 
Q 14.796875 72.65625 19.40625 73.4375 
Q 24.03125 74.21875 27.59375 74.21875 
Q 38.234375 74.21875 44.609375 68.875 
Q 50.984375 63.53125 50.984375 54.6875 
Q 50.984375 48.6875 47.625 44.671875 
Q 44.28125 40.671875 37.890625 39.015625 
z
" id="DejaVuSansMono-51"/>
       </defs>
       <use xlink:href="#DejaVuSansMono-51"/>
       <use x="60.205078" xlink:href="#DejaVuSansMono-48"/>
       <use x="120.410156" xlink:href="#DejaVuSansMono-48"/>
      </g>
     </g>
    </g>
    <g id="xtick_5">
     <g id="line2d_5">
      <g>
       <use style="stroke:#000000;stroke-width:0.8;" x="303.519793" xlink:href="#m5726e176d8" y="316.4425"/>
      </g>
     </g>
     <g id="text_5">
      <!-- 400 -->
      <g transform="translate(298.101512 328.033437)scale(0.06 -0.06)">
       <defs>
        <path d="M 35.890625 63.921875 
L 12.890625 25.390625 
L 35.890625 25.390625 
z
M 34.28125 72.90625 
L 45.703125 72.90625 
L 45.703125 25.390625 
L 55.421875 25.390625 
L 55.421875 17.390625 
L 45.703125 17.390625 
L 45.703125 0 
L 35.890625 0 
L 35.890625 17.390625 
L 4.984375 17.390625 
L 4.984375 26.703125 
z
" id="DejaVuSansMono-52"/>
       </defs>
       <use xlink:href="#DejaVuSansMono-52"/>
       <use x="60.205078" xlink:href="#DejaVuSansMono-48"/>
       <use x="120.410156" xlink:href="#DejaVuSansMono-48"/>
      </g>
     </g>
    </g>
    <g id="xtick_6">
     <g id="line2d_6">
      <g>
       <use style="stroke:#000000;stroke-width:0.8;" x="365.679812" xlink:href="#m5726e176d8" y="316.4425"/>
      </g>
     </g>
     <g id="text_6">
      <!-- 500 -->
      <g transform="translate(360.261531 328.033437)scale(0.06 -0.06)">
       <defs>
        <path d="M 10.109375 72.90625 
L 47.015625 72.90625 
L 47.015625 64.59375 
L 19.09375 64.59375 
L 19.09375 46.6875 
Q 21.1875 47.46875 23.3125 47.828125 
Q 25.4375 48.1875 27.59375 48.1875 
Q 38.921875 48.1875 45.5625 41.5 
Q 52.203125 34.8125 52.203125 23.390625 
Q 52.203125 11.859375 45.234375 5.21875 
Q 38.28125 -1.421875 26.21875 -1.421875 
Q 20.40625 -1.421875 15.59375 -0.640625 
Q 10.796875 0.140625 6.984375 1.703125 
L 6.984375 11.71875 
Q 11.46875 9.28125 16.015625 8.078125 
Q 20.5625 6.890625 25.296875 6.890625 
Q 33.453125 6.890625 37.859375 11.1875 
Q 42.28125 15.484375 42.28125 23.390625 
Q 42.28125 31.203125 37.71875 35.546875 
Q 33.15625 39.890625 25 39.890625 
Q 21.046875 39.890625 17.28125 38.984375 
Q 13.53125 38.09375 10.109375 36.28125 
z
" id="DejaVuSansMono-53"/>
       </defs>
       <use xlink:href="#DejaVuSansMono-53"/>
       <use x="60.205078" xlink:href="#DejaVuSansMono-48"/>
       <use x="120.410156" xlink:href="#DejaVuSansMono-48"/>
      </g>
     </g>
    </g>
    <g id="xtick_7">
     <g id="line2d_7">
      <g>
       <use style="stroke:#000000;stroke-width:0.8;" x="427.839832" xlink:href="#m5726e176d8" y="316.4425"/>
      </g>
     </g>
     <g id="text_7">
      <!-- 600 -->
      <g transform="translate(422.421551 328.033437)scale(0.06 -0.06)">
       <defs>
        <path d="M 48.390625 71.296875 
L 48.390625 62.203125 
Q 45.3125 64.015625 41.84375 64.96875 
Q 38.375 65.921875 34.625 65.921875 
Q 25.25 65.921875 20.40625 58.859375 
Q 15.578125 51.8125 15.578125 38.09375 
Q 17.921875 42.96875 22.0625 45.578125 
Q 26.21875 48.1875 31.59375 48.1875 
Q 42.140625 48.1875 47.921875 41.71875 
Q 53.71875 35.25 53.71875 23.390625 
Q 53.71875 11.578125 47.75 5.078125 
Q 41.796875 -1.421875 31 -1.421875 
Q 18.3125 -1.421875 12.40625 7.6875 
Q 6.5 16.796875 6.5 36.375 
Q 6.5 54.828125 13.59375 64.515625 
Q 20.703125 74.21875 34.1875 74.21875 
Q 37.796875 74.21875 41.40625 73.453125 
Q 45.015625 72.703125 48.390625 71.296875 
z
M 30.8125 40.484375 
Q 24.515625 40.484375 20.890625 35.9375 
Q 17.28125 31.390625 17.28125 23.390625 
Q 17.28125 15.375 20.890625 10.828125 
Q 24.515625 6.296875 30.8125 6.296875 
Q 37.359375 6.296875 40.671875 10.609375 
Q 44 14.9375 44 23.390625 
Q 44 31.890625 40.671875 36.1875 
Q 37.359375 40.484375 30.8125 40.484375 
z
" id="DejaVuSansMono-54"/>
       </defs>
       <use xlink:href="#DejaVuSansMono-54"/>
       <use x="60.205078" xlink:href="#DejaVuSansMono-48"/>
       <use x="120.410156" xlink:href="#DejaVuSansMono-48"/>
      </g>
     </g>
    </g>
    <g id="text_8">
     <!-- n -->
     <g transform="translate(243.283281 337.872187)scale(0.06 -0.06)">
      <defs>
       <path d="M 51.3125 33.890625 
L 51.3125 0 
L 42.28125 0 
L 42.28125 33.890625 
Q 42.28125 41.265625 39.6875 44.71875 
Q 37.109375 48.1875 31.59375 48.1875 
Q 25.296875 48.1875 21.890625 43.71875 
Q 18.5 39.265625 18.5 30.90625 
L 18.5 0 
L 9.515625 0 
L 9.515625 54.6875 
L 18.5 54.6875 
L 18.5 46.484375 
Q 20.90625 51.171875 25 53.578125 
Q 29.109375 56 34.71875 56 
Q 43.0625 56 47.1875 50.5 
Q 51.3125 45.015625 51.3125 33.890625 
z
" id="DejaVuSansMono-110"/>
      </defs>
      <use xlink:href="#DejaVuSansMono-110"/>
     </g>
    </g>
   </g>
   <g id="matplotlib.axis_2">
    <g id="ytick_1">
     <g id="line2d_8">
      <defs>
       <path d="M 0 0 
L -3.5 0 
" id="mae24940084" style="stroke:#000000;stroke-width:0.8;"/>
      </defs>
      <g>
       <use style="stroke:#000000;stroke-width:0.8;" x="35.85875" xlink:href="#mae24940084" y="283.187834"/>
      </g>
     </g>
     <g id="text_9">
      <!-- $\mathdefault{10^{1}}$ -->
      <g transform="translate(18.83875 285.483302)scale(0.06 -0.06)">
       <use transform="translate(0 0.684375)" xlink:href="#DejaVuSansMono-49"/>
       <use transform="translate(60.205078 0.684375)" xlink:href="#DejaVuSansMono-48"/>
       <use transform="translate(121.367188 38.965625)scale(0.7)" xlink:href="#DejaVuSansMono-49"/>
      </g>
     </g>
    </g>
    <g id="ytick_2">
     <g id="line2d_9">
      <g>
       <use style="stroke:#000000;stroke-width:0.8;" x="35.85875" xlink:href="#mae24940084" y="243.810626"/>
      </g>
     </g>
     <g id="text_10">
      <!-- $\mathdefault{10^{3}}$ -->
      <g transform="translate(18.83875 246.106094)scale(0.06 -0.06)">
       <use transform="translate(0 0.765625)" xlink:href="#DejaVuSansMono-49"/>
       <use transform="translate(60.205078 0.765625)" xlink:href="#DejaVuSansMono-48"/>
       <use transform="translate(121.367188 39.046875)scale(0.7)" xlink:href="#DejaVuSansMono-51"/>
      </g>
     </g>
    </g>
    <g id="ytick_3">
     <g id="line2d_10">
      <g>
       <use style="stroke:#000000;stroke-width:0.8;" x="35.85875" xlink:href="#mae24940084" y="204.433418"/>
      </g>
     </g>
     <g id="text_11">
      <!-- $\mathdefault{10^{5}}$ -->
      <g transform="translate(18.83875 206.728887)scale(0.06 -0.06)">
       <use transform="translate(0 0.684375)" xlink:href="#DejaVuSansMono-49"/>
       <use transform="translate(60.205078 0.684375)" xlink:href="#DejaVuSansMono-48"/>
       <use transform="translate(121.367188 38.965625)scale(0.7)" xlink:href="#DejaVuSansMono-53"/>
      </g>
     </g>
    </g>
    <g id="ytick_4">
     <g id="line2d_11">
      <g>
       <use style="stroke:#000000;stroke-width:0.8;" x="35.85875" xlink:href="#mae24940084" y="165.05621"/>
      </g>
     </g>
     <g id="text_12">
      <!-- $\mathdefault{10^{7}}$ -->
      <g transform="translate(18.83875 167.351679)scale(0.06 -0.06)">
       <defs>
        <path d="M 6.78125 72.90625 
L 52.6875 72.90625 
L 52.6875 68.703125 
L 26.609375 0 
L 16.3125 0 
L 41.703125 64.59375 
L 6.78125 64.59375 
z
" id="DejaVuSansMono-55"/>
       </defs>
       <use transform="translate(0 0.684375)" xlink:href="#DejaVuSansMono-49"/>
       <use transform="translate(60.205078 0.684375)" xlink:href="#DejaVuSansMono-48"/>
       <use transform="translate(121.367188 38.965625)scale(0.7)" xlink:href="#DejaVuSansMono-55"/>
      </g>
     </g>
    </g>
    <g id="ytick_5">
     <g id="line2d_12">
      <g>
       <use style="stroke:#000000;stroke-width:0.8;" x="35.85875" xlink:href="#mae24940084" y="125.679002"/>
      </g>
     </g>
     <g id="text_13">
      <!-- $\mathdefault{10^{9}}$ -->
      <g transform="translate(18.83875 127.974471)scale(0.06 -0.06)">
       <defs>
        <path d="M 29.109375 32.328125 
Q 35.40625 32.328125 38.984375 36.859375 
Q 42.578125 41.40625 42.578125 49.421875 
Q 42.578125 57.421875 38.984375 61.953125 
Q 35.40625 66.5 29.109375 66.5 
Q 22.5625 66.5 19.234375 62.171875 
Q 15.921875 57.859375 15.921875 49.421875 
Q 15.921875 40.921875 19.21875 36.625 
Q 22.515625 32.328125 29.109375 32.328125 
z
M 11.53125 1.515625 
L 11.53125 10.59375 
Q 14.59375 8.796875 18.0625 7.84375 
Q 21.53125 6.890625 25.296875 6.890625 
Q 34.671875 6.890625 39.46875 13.9375 
Q 44.28125 21 44.28125 34.71875 
Q 42 29.828125 37.84375 27.21875 
Q 33.6875 24.609375 28.328125 24.609375 
Q 17.78125 24.609375 11.984375 31.09375 
Q 6.203125 37.59375 6.203125 49.515625 
Q 6.203125 61.28125 12.125 67.75 
Q 18.0625 74.21875 28.90625 74.21875 
Q 41.609375 74.21875 47.515625 65.078125 
Q 53.421875 55.953125 53.421875 36.375 
Q 53.421875 17.96875 46.3125 8.265625 
Q 39.203125 -1.421875 25.6875 -1.421875 
Q 22.125 -1.421875 18.5 -0.65625 
Q 14.890625 0.09375 11.53125 1.515625 
z
" id="DejaVuSansMono-57"/>
       </defs>
       <use transform="translate(0 0.765625)" xlink:href="#DejaVuSansMono-49"/>
       <use transform="translate(60.205078 0.765625)" xlink:href="#DejaVuSansMono-48"/>
       <use transform="translate(121.367188 39.046875)scale(0.7)" xlink:href="#DejaVuSansMono-57"/>
      </g>
     </g>
    </g>
    <g id="ytick_6">
     <g id="line2d_13">
      <g>
       <use style="stroke:#000000;stroke-width:0.8;" x="35.85875" xlink:href="#mae24940084" y="86.301794"/>
      </g>
     </g>
     <g id="text_14">
      <!-- $\mathdefault{10^{11}}$ -->
      <g transform="translate(16.31875 88.597263)scale(0.06 -0.06)">
       <use transform="translate(0 0.684375)" xlink:href="#DejaVuSansMono-49"/>
       <use transform="translate(60.205078 0.684375)" xlink:href="#DejaVuSansMono-48"/>
       <use transform="translate(121.367188 38.965625)scale(0.7)" xlink:href="#DejaVuSansMono-49"/>
       <use transform="translate(163.510742 38.965625)scale(0.7)" xlink:href="#DejaVuSansMono-49"/>
      </g>
     </g>
    </g>
    <g id="ytick_7">
     <g id="line2d_14">
      <g>
       <use style="stroke:#000000;stroke-width:0.8;" x="35.85875" xlink:href="#mae24940084" y="46.924586"/>
      </g>
     </g>
     <g id="text_15">
      <!-- $\mathdefault{10^{13}}$ -->
      <g transform="translate(16.31875 49.220055)scale(0.06 -0.06)">
       <use transform="translate(0 0.765625)" xlink:href="#DejaVuSansMono-49"/>
       <use transform="translate(60.205078 0.765625)" xlink:href="#DejaVuSansMono-48"/>
       <use transform="translate(121.367188 39.046875)scale(0.7)" xlink:href="#DejaVuSansMono-49"/>
       <use transform="translate(163.510742 39.046875)scale(0.7)" xlink:href="#DejaVuSansMono-51"/>
      </g>
     </g>
    </g>
    <g id="text_16">
     <!-- y_n -->
     <g transform="translate(10.904063 172.634094)rotate(-90)scale(0.06 -0.06)">
      <defs>
       <path d="M 41.890625 17.578125 
Q 39.65625 11.859375 36.1875 2.546875 
Q 31.34375 -10.359375 29.6875 -13.1875 
Q 27.4375 -17 24.0625 -18.890625 
Q 20.703125 -20.796875 16.21875 -20.796875 
L 8.984375 -20.796875 
L 8.984375 -13.28125 
L 14.3125 -13.28125 
Q 18.265625 -13.28125 20.5 -10.984375 
Q 22.75 -8.6875 26.21875 0.875 
L 5.078125 54.6875 
L 14.59375 54.6875 
L 30.8125 11.921875 
L 46.78125 54.6875 
L 56.296875 54.6875 
z
" id="DejaVuSansMono-121"/>
       <path d="M 60.203125 -19.671875 
L 60.203125 -23.578125 
L 0 -23.578125 
L 0 -19.671875 
z
" id="DejaVuSansMono-95"/>
      </defs>
      <use xlink:href="#DejaVuSansMono-121"/>
      <use x="60.205078" xlink:href="#DejaVuSansMono-95"/>
      <use x="120.410156" xlink:href="#DejaVuSansMono-110"/>
     </g>
    </g>
   </g>
   <g id="line2d_15">
    <path clip-path="url(#p6b8d2ba0ca)" d="M 54.879716 168.568199 
L 55.501316 159.174348 
L 56.122916 165.101208 
L 56.744516 155.707356 
L 57.987717 167.561077 
L 58.609317 158.167225 
L 59.230917 164.094085 
L 59.852517 154.700234 
L 61.095718 166.553954 
L 61.717318 157.160103 
L 62.338918 163.086963 
L 62.960518 153.693111 
L 63.582119 159.619972 
L 64.203719 150.22612 
L 64.825319 156.152981 
L 65.446919 146.759129 
L 66.068519 152.685989 
L 66.69012 143.292138 
L 67.31172 149.218998 
L 67.93332 139.825147 
L 68.55492 145.752007 
L 69.17652 136.358156 
L 69.798121 142.285016 
L 70.419721 132.891165 
L 71.041321 138.818025 
L 71.662921 129.424174 
L 72.906122 141.277894 
L 73.527722 131.884043 
L 75.392522 149.664624 
L 76.014122 140.270773 
L 76.635723 146.197633 
L 77.257323 136.803781 
L 77.878923 142.730642 
L 78.500523 133.33679 
L 79.122123 139.263651 
L 79.743724 129.869799 
L 80.365324 135.79666 
L 80.986924 126.402808 
L 81.608524 132.329669 
L 82.230124 122.935817 
L 83.473325 134.789538 
L 84.094925 125.395686 
L 84.716525 131.322547 
L 85.338125 121.928695 
L 85.959726 127.855556 
L 86.581326 118.461704 
L 87.202926 124.388565 
L 87.824526 114.994713 
L 88.446126 120.921574 
L 89.067727 111.527722 
L 89.689327 117.454583 
L 90.310927 108.060731 
L 90.932527 113.987591 
L 91.554127 104.59374 
L 92.175727 110.5206 
L 92.797328 101.126749 
L 94.662128 118.90733 
L 95.283728 109.513479 
L 95.905329 115.440339 
L 96.526929 106.046488 
L 97.148529 111.973348 
L 97.770129 102.579497 
L 98.391729 108.506357 
L 99.01333 99.112506 
L 100.25653 110.966226 
L 100.87813 101.572375 
L 102.121331 113.426096 
L 102.742931 104.032244 
L 103.364531 109.959104 
L 103.986131 100.565253 
L 105.229332 112.418974 
L 105.850932 103.025122 
L 107.094132 114.878843 
L 107.715732 105.484992 
L 108.958933 117.338712 
L 109.580533 107.944861 
L 110.202133 113.871721 
L 110.823733 104.47787 
L 111.445333 110.40473 
L 112.066934 101.010879 
L 112.688534 106.937739 
L 113.310134 97.543888 
L 115.174935 115.324469 
L 115.796535 105.930617 
L 117.039735 117.784338 
L 117.661335 108.390487 
L 118.282936 114.317347 
L 118.904536 104.923496 
L 120.147736 116.777216 
L 120.769336 107.383365 
L 121.390937 113.310225 
L 122.012537 103.916374 
L 122.634137 109.843234 
L 123.255737 100.449383 
L 123.877337 106.376243 
L 124.498938 96.982392 
L 125.120538 102.909252 
L 125.742138 93.515401 
L 126.363738 99.442261 
L 126.985338 90.04841 
L 127.606939 95.97527 
L 128.228539 86.581419 
L 129.471739 98.435139 
L 130.093339 89.041288 
L 130.714939 94.968148 
L 131.33654 85.574297 
L 131.95814 91.501157 
L 132.57974 82.107306 
L 133.20134 88.034166 
L 133.82294 78.640315 
L 134.444541 84.567175 
L 135.066141 75.173324 
L 135.687741 81.100184 
L 136.309341 71.706333 
L 136.930941 77.633193 
L 137.552542 68.239342 
L 138.174142 74.166202 
L 138.795742 64.772351 
L 139.417342 70.699211 
L 140.038942 61.305359 
L 140.660543 67.23222 
L 141.282143 57.838368 
L 141.903743 63.765229 
L 142.525343 54.371377 
L 143.146943 60.298238 
L 143.768544 50.904386 
L 144.390144 56.831247 
L 145.011744 47.437395 
L 146.254944 59.291116 
L 146.876544 49.897265 
L 147.498145 55.824125 
L 148.119745 46.430273 
L 148.741345 52.357134 
L 149.362945 42.963282 
L 149.984545 48.890143 
L 150.606146 39.496291 
L 151.227746 45.423152 
L 151.849346 36.0293 
L 153.092546 47.883021 
L 153.714147 38.48917 
L 154.335747 44.41603 
L 154.957347 35.022179 
L 155.578947 40.949039 
L 156.200547 31.555187 
L 158.686948 55.262629 
L 159.308548 45.868778 
L 161.173349 63.649359 
L 161.794949 54.255507 
L 164.28135 77.962949 
L 164.90295 68.569097 
L 166.14615 80.422818 
L 166.767751 71.028967 
L 169.875752 100.663268 
L 170.497352 91.269417 
L 171.118952 97.196277 
L 171.740552 87.802426 
L 172.362152 93.729286 
L 172.983753 84.335435 
L 173.605353 90.262295 
L 174.226953 80.868444 
L 174.848553 86.795304 
L 175.470153 77.401453 
L 176.091754 83.328313 
L 176.713354 73.934462 
L 177.956554 85.788182 
L 178.578154 76.394331 
L 180.442955 94.174912 
L 181.064555 84.781061 
L 182.307755 96.634781 
L 182.929356 87.24093 
L 185.415756 110.948371 
L 186.037357 101.55452 
L 189.145358 131.188822 
L 189.766958 121.79497 
L 191.010158 133.648691 
L 191.631758 124.25484 
L 192.253359 130.1817 
L 192.874959 120.787849 
L 194.118159 132.641569 
L 194.739759 123.247718 
L 195.36136 129.174578 
L 195.98296 119.780727 
L 197.22616 131.634447 
L 197.84776 122.240596 
L 199.090961 134.094317 
L 199.712561 124.700465 
L 200.334161 130.627326 
L 200.955761 121.233474 
L 201.577361 127.160335 
L 202.198962 117.766483 
L 203.442162 129.620204 
L 204.063762 120.226353 
L 204.685362 126.153213 
L 205.306963 116.759361 
L 205.928563 122.686222 
L 206.550163 113.29237 
L 207.793363 125.146091 
L 208.414964 115.75224 
L 209.036564 121.6791 
L 209.658164 112.285249 
L 210.279764 118.212109 
L 210.901364 108.818258 
L 212.766165 126.598839 
L 213.387765 117.204987 
L 214.009365 123.131848 
L 214.630966 113.737996 
L 216.495766 131.518577 
L 217.117366 122.124726 
L 218.982167 139.905307 
L 219.603767 130.511455 
L 220.225367 136.438316 
L 220.846967 127.044464 
L 222.090168 138.898185 
L 222.711768 129.504334 
L 223.333368 135.431194 
L 223.954968 126.037343 
L 225.819769 143.817924 
L 226.441369 134.424072 
L 227.062969 140.350933 
L 227.68457 130.957081 
L 228.30617 136.883942 
L 228.92777 127.49009 
L 230.792571 145.270671 
L 231.414171 135.87682 
L 232.035771 141.80368 
L 232.657371 132.409829 
L 233.278971 138.336689 
L 233.900572 128.942838 
L 235.143772 140.796558 
L 235.765372 131.402707 
L 238.251773 155.110148 
L 238.873373 145.716297 
L 240.116573 157.570018 
L 240.738174 148.176166 
L 242.602974 165.956747 
L 243.224574 156.562895 
L 243.846175 162.489756 
L 244.467775 153.095904 
L 245.089375 159.022764 
L 245.710975 149.628913 
L 246.332575 155.555773 
L 246.954176 146.161922 
L 247.575776 152.088782 
L 248.197376 142.694931 
L 248.818976 148.621791 
L 249.440576 139.22794 
L 250.683777 151.08166 
L 251.305377 141.687809 
L 251.926977 147.614669 
L 252.548577 138.220818 
L 253.170178 144.147678 
L 253.791778 134.753827 
L 254.413378 140.680687 
L 255.034978 131.286836 
L 255.656578 137.213696 
L 256.278178 127.819844 
L 258.764579 151.527286 
L 259.386179 142.133434 
L 260.62938 153.987155 
L 261.25098 144.593304 
L 261.87258 150.520164 
L 262.49418 141.126313 
L 263.737381 152.980033 
L 264.358981 143.586182 
L 265.602181 155.439902 
L 266.223782 146.046051 
L 267.466982 157.899772 
L 268.088582 148.50592 
L 268.710182 154.432781 
L 269.331783 145.038929 
L 269.953383 150.965789 
L 270.574983 141.571938 
L 272.439783 159.352519 
L 273.061384 149.958667 
L 273.682984 155.885528 
L 274.304584 146.491676 
L 274.926184 152.418537 
L 275.547784 143.024685 
L 278.034185 166.732127 
L 278.655785 157.338275 
L 281.142186 181.045716 
L 281.763786 171.651863 
L 282.385387 177.578723 
L 283.006987 168.184871 
L 284.250187 180.038591 
L 284.871787 170.644738 
L 285.493388 176.571599 
L 286.114988 167.177746 
L 286.736588 173.104607 
L 287.358188 163.710754 
L 287.979788 169.637615 
L 288.601389 160.243763 
L 289.844589 172.097484 
L 290.466189 162.703632 
L 291.709389 174.557352 
L 292.33099 165.1635 
L 293.57419 177.017221 
L 294.19579 167.623368 
L 294.81739 173.550228 
L 295.438991 164.156376 
L 296.682191 176.010097 
L 297.303791 166.616245 
L 297.925391 172.543105 
L 298.546992 163.149253 
L 299.168592 169.076113 
L 299.790192 159.682261 
L 302.276593 183.389703 
L 302.898193 173.995849 
L 304.141393 185.84957 
L 304.762994 176.455715 
L 306.627794 194.236296 
L 307.249394 184.842436 
L 309.114195 202.623017 
L 309.735795 193.229143 
L 311.600596 211.009724 
L 312.222196 201.615811 
L 312.843796 207.542671 
L 313.465396 198.148779 
L 314.086996 204.075639 
L 314.708597 194.68176 
L 315.951797 206.535481 
L 316.573397 197.141593 
L 318.438198 214.922174 
L 319.059798 205.528226 
L 319.681398 211.455086 
L 320.302998 202.06117 
L 320.924599 207.98803 
L 321.546199 198.594136 
L 322.167799 204.520996 
L 322.789399 195.127116 
L 325.2758 218.834557 
L 325.8974 209.440552 
L 326.519 215.367412 
L 327.1406 205.973459 
L 327.762201 211.900319 
L 328.383801 202.506399 
L 329.005401 208.43326 
L 329.627001 199.039363 
L 330.248601 204.966223 
L 330.870202 195.572341 
L 331.491802 201.499202 
L 332.113402 192.10533 
L 332.735002 198.03219 
L 333.356602 188.638326 
L 334.599803 200.492046 
L 335.221403 191.098177 
L 337.086204 208.878758 
L 337.707804 199.484859 
L 338.329404 205.411719 
L 338.951004 196.017836 
L 341.437405 219.725277 
L 342.059005 210.331255 
L 342.680605 216.258116 
L 343.302206 206.864151 
L 345.167006 224.644732 
L 345.788606 215.250577 
L 346.410206 221.177438 
L 347.031807 211.783384 
L 347.653407 217.710245 
L 348.275007 208.316258 
L 348.896607 214.243119 
L 349.518207 204.849178 
L 350.139808 210.776038 
L 350.761408 201.382127 
L 351.383008 207.308987 
L 352.004608 197.915096 
L 353.247809 209.768817 
L 353.869409 200.374912 
L 355.734209 218.155493 
L 356.35581 208.7615 
L 358.22061 226.542081 
L 358.84221 217.147851 
L 359.463811 223.074711 
L 360.085411 213.680608 
L 360.707011 219.607468 
L 361.328611 210.213449 
L 361.950211 216.140309 
L 362.571811 206.746346 
L 363.815012 218.600066 
L 364.436612 209.206065 
L 365.058212 215.132926 
L 365.679812 205.738975 
L 368.166213 229.446416 
L 368.787813 220.052034 
L 371.895814 249.686335 
L 372.517415 240.286819 
L 373.139015 246.21368 
L 373.760615 236.816054 
L 374.382215 242.742914 
L 375.003815 233.346548 
L 376.868616 251.127129 
L 377.490216 241.726574 
L 378.733417 253.580294 
L 379.355017 244.177513 
L 379.976617 250.104373 
L 380.598217 240.704573 
L 381.219817 246.631434 
L 381.841417 237.233619 
L 382.463018 243.16048 
L 383.084618 233.763987 
L 383.706218 239.690847 
L 384.327818 230.295236 
L 384.949418 236.222096 
L 385.571019 226.827071 
L 387.435819 244.607652 
L 388.057419 235.210673 
L 388.67902 241.137533 
L 389.30062 231.741597 
L 389.92222 237.668457 
L 390.54382 228.273216 
L 391.16542 234.200077 
L 391.787021 224.805299 
L 394.273421 248.51274 
L 394.895022 239.113951 
L 396.138222 250.967671 
L 396.759822 241.56724 
L 398.003023 253.420961 
L 398.624623 244.018344 
L 401.111023 267.725785 
L 401.732624 258.285336 
L 403.597424 276.065917 
L 404.219024 266.549033 
L 404.840625 272.475893 
L 405.462225 263.000992 
L 406.083825 268.927853 
L 406.705425 259.480392 
L 409.813426 289.114694 
L 410.435026 279.168996 
L 412.921427 302.876437 
L 412.921427 302.876437 
" style="fill:none;stroke:#1f77b4;stroke-linecap:square;stroke-width:0.666667;"/>
   </g>
   <g id="line2d_16">
    <path clip-path="url(#p6b8d2ba0ca)" d="M 54.879716 169.938788 
L 55.501316 160.544936 
L 56.122916 166.471796 
L 56.744516 157.077945 
L 57.987717 168.931665 
L 58.609317 159.537814 
L 59.230917 165.464674 
L 59.852517 156.070822 
L 60.474118 161.997683 
L 61.095718 152.603831 
L 62.338918 164.457552 
L 62.960518 155.0637 
L 63.582119 160.99056 
L 64.203719 151.596709 
L 64.825319 157.523569 
L 65.446919 148.129718 
L 66.69012 159.983438 
L 67.31172 150.589587 
L 67.93332 156.516447 
L 68.55492 147.122596 
L 69.17652 153.049456 
L 69.798121 143.655604 
L 70.419721 149.582465 
L 71.041321 140.188613 
L 71.662921 146.115474 
L 72.284521 136.721622 
L 72.906122 142.648483 
L 73.527722 133.254631 
L 74.149322 139.181492 
L 74.770922 129.78764 
L 76.014122 141.641361 
L 76.635723 132.247509 
L 77.257323 138.17437 
L 77.878923 128.780518 
L 79.743724 146.561099 
L 80.365324 137.167248 
L 80.986924 143.094108 
L 81.608524 133.700257 
L 82.851725 145.553978 
L 83.473325 136.160126 
L 84.094925 142.086986 
L 84.716525 132.693135 
L 85.959726 144.546856 
L 86.581326 135.153004 
L 87.202926 141.079865 
L 87.824526 131.686013 
L 89.067727 143.539734 
L 89.689327 134.145883 
L 90.310927 140.072743 
L 90.932527 130.678891 
L 91.554127 136.605752 
L 92.175727 127.2119 
L 93.418928 139.065621 
L 94.040528 129.67177 
L 94.662128 135.59863 
L 95.283728 126.204779 
L 96.526929 138.058499 
L 97.148529 128.664648 
L 99.01333 146.445229 
L 99.63493 137.051378 
L 100.87813 148.905098 
L 101.49973 139.511247 
L 102.121331 145.438107 
L 102.742931 136.044256 
L 104.607731 153.824837 
L 105.229332 144.430985 
L 105.850932 150.357846 
L 106.472532 140.963994 
L 107.094132 146.890855 
L 107.715732 137.497003 
L 108.337333 143.423863 
L 108.958933 134.030012 
L 111.445333 157.737453 
L 112.066934 148.343602 
L 113.931734 166.124183 
L 114.553334 156.730331 
L 115.174935 162.657192 
L 115.796535 153.26334 
L 116.418135 159.1902 
L 117.039735 149.796349 
L 117.661335 155.723209 
L 118.282936 146.329358 
L 118.904536 152.256218 
L 119.526136 142.862366 
L 120.147736 148.789227 
L 120.769336 139.395375 
L 121.390937 145.322236 
L 122.012537 135.928384 
L 122.634137 141.855245 
L 123.255737 132.461393 
L 123.877337 138.388254 
L 124.498938 128.994402 
L 125.120538 134.921263 
L 125.742138 125.527411 
L 126.985338 137.381132 
L 127.606939 127.98728 
L 128.850139 139.841001 
L 129.471739 130.44715 
L 132.57974 160.081451 
L 133.20134 150.6876 
L 133.82294 156.61446 
L 134.444541 147.220609 
L 135.687741 159.074329 
L 136.309341 149.680478 
L 136.930941 155.607338 
L 137.552542 146.213487 
L 139.417342 163.994068 
L 140.038942 154.600216 
L 140.660543 160.527077 
L 141.282143 151.133225 
L 141.903743 157.060085 
L 142.525343 147.666234 
L 143.146943 153.593094 
L 143.768544 144.199243 
L 144.390144 150.126103 
L 145.011744 140.732252 
L 145.633344 146.659112 
L 146.254944 137.26526 
L 146.876544 143.192121 
L 147.498145 133.798269 
L 148.119745 139.72513 
L 148.741345 130.331278 
L 150.606146 148.111859 
L 151.227746 138.718008 
L 152.470946 150.571729 
L 153.092546 141.177877 
L 153.714147 147.104738 
L 154.335747 137.710886 
L 155.578947 149.564607 
L 156.200547 140.170755 
L 157.443748 152.024476 
L 158.065348 142.630625 
L 158.686948 148.557485 
L 159.308548 139.163633 
L 159.930149 145.090494 
L 160.551749 135.696642 
L 162.416549 153.477223 
L 163.03815 144.083372 
L 163.65975 150.010232 
L 164.28135 140.616381 
L 166.14615 158.396962 
L 166.767751 149.00311 
L 168.010951 160.856831 
L 168.632551 151.46298 
L 170.497352 169.243561 
L 171.118952 159.849709 
L 172.362152 171.703429 
L 172.983753 162.309577 
L 174.226953 174.163298 
L 174.848553 164.769446 
L 175.470153 170.696306 
L 176.091754 161.302454 
L 177.334954 173.156175 
L 177.956554 163.762323 
L 179.199755 175.616044 
L 179.821355 166.222191 
L 180.442955 172.149052 
L 181.064555 162.755199 
L 181.686155 168.68206 
L 182.307755 159.288208 
L 183.550956 171.141929 
L 184.172556 161.748077 
L 186.037357 179.528658 
L 186.658957 170.134805 
L 187.280557 176.061665 
L 187.902157 166.667813 
L 188.523757 172.594673 
L 189.145358 163.200821 
L 190.388558 175.054542 
L 191.010158 165.660689 
L 191.631758 171.58755 
L 192.253359 162.193698 
L 192.874959 168.120558 
L 193.496559 158.726706 
L 194.118159 164.653567 
L 194.739759 155.259715 
L 195.36136 161.186575 
L 195.98296 151.792724 
L 197.22616 163.646444 
L 197.84776 154.252593 
L 199.090961 166.106313 
L 199.712561 156.712462 
L 200.334161 162.639322 
L 200.955761 153.24547 
L 201.577361 159.172331 
L 202.198962 149.778479 
L 202.820562 155.70534 
L 203.442162 146.311488 
L 204.063762 152.238348 
L 204.685362 142.844497 
L 205.928563 154.698218 
L 206.550163 145.304366 
L 207.793363 157.158087 
L 208.414964 147.764235 
L 209.036564 153.691096 
L 209.658164 144.297244 
L 210.279764 150.224105 
L 210.901364 140.830253 
L 211.522965 146.757113 
L 212.144565 137.363262 
L 213.387765 149.216983 
L 214.009365 139.823131 
L 215.252566 151.676852 
L 215.874166 142.283 
L 217.117366 154.136721 
L 217.738967 144.74287 
L 218.360567 150.66973 
L 218.982167 141.275879 
L 219.603767 147.202739 
L 220.225367 137.808888 
L 221.468568 149.662608 
L 222.090168 140.268757 
L 222.711768 146.195617 
L 223.333368 136.801766 
L 223.954968 142.728626 
L 224.576569 133.334775 
L 226.441369 151.115356 
L 227.062969 141.721504 
L 228.92777 159.502085 
L 229.54937 150.108234 
L 230.17097 156.035094 
L 230.792571 146.641243 
L 232.657371 164.421824 
L 233.278971 155.027972 
L 233.900572 160.954832 
L 234.522172 151.560981 
L 236.386972 169.341562 
L 237.008572 159.94771 
L 237.630173 165.87457 
L 238.251773 156.480719 
L 238.873373 162.407579 
L 239.494973 153.013727 
L 241.981374 176.721169 
L 242.602974 167.327316 
L 243.224574 173.254177 
L 243.846175 163.860324 
L 245.089375 175.714045 
L 245.710975 166.320193 
L 246.332575 172.247053 
L 246.954176 162.853201 
L 247.575776 168.780061 
L 248.197376 159.386209 
L 248.818976 165.31307 
L 249.440576 155.919218 
L 251.926977 179.62666 
L 252.548577 170.232807 
L 253.791778 182.086527 
L 254.413378 172.692674 
L 255.034978 178.619534 
L 255.656578 169.225681 
L 256.899779 181.079402 
L 257.521379 171.685549 
L 258.142979 177.612409 
L 258.764579 168.218556 
L 259.386179 174.145417 
L 260.00778 164.751565 
L 260.62938 170.678425 
L 261.25098 161.284573 
L 262.49418 173.138294 
L 263.115781 163.744442 
L 263.737381 169.671302 
L 264.358981 160.27745 
L 264.980581 166.20431 
L 265.602181 156.810459 
L 266.223782 162.737319 
L 266.845382 153.343467 
L 267.466982 159.270328 
L 268.088582 149.876476 
L 268.710182 155.803337 
L 269.331783 146.409485 
L 270.574983 158.263206 
L 271.196583 148.869354 
L 271.818183 154.796215 
L 272.439783 145.402363 
L 273.682984 157.256084 
L 274.304584 147.862232 
L 275.547784 159.715953 
L 276.169385 150.322101 
L 276.790985 156.248962 
L 277.412585 146.85511 
L 279.277386 164.635691 
L 279.898986 155.24184 
L 280.520586 161.1687 
L 281.142186 151.774848 
L 282.385387 163.628569 
L 283.006987 154.234717 
L 283.628587 160.161578 
L 284.250187 150.767726 
L 284.871787 156.694587 
L 285.493388 147.300735 
L 286.114988 153.227595 
L 286.736588 143.833744 
L 289.222989 167.541185 
L 289.844589 158.147334 
L 290.466189 164.074194 
L 291.087789 154.680342 
L 292.33099 166.534063 
L 292.95259 157.140211 
L 293.57419 163.067072 
L 294.19579 153.67322 
L 295.438991 165.526941 
L 296.060591 156.133089 
L 296.682191 162.059949 
L 297.303791 152.666098 
L 297.925391 158.592958 
L 298.546992 149.199106 
L 299.790192 161.052827 
L 300.411792 151.658976 
L 301.033392 157.585836 
L 301.654993 148.191984 
L 304.762994 177.826286 
L 305.384594 168.432434 
L 306.627794 180.286154 
L 307.249394 170.892301 
L 309.735795 194.599743 
L 310.357395 185.205882 
L 310.978995 191.132743 
L 311.600596 181.738885 
L 312.843796 193.592606 
L 313.465396 184.198746 
L 314.086996 190.125607 
L 314.708597 180.73175 
L 316.573397 198.512331 
L 317.194997 189.118465 
L 318.438198 200.972186 
L 319.059798 191.578316 
L 319.681398 197.505176 
L 320.302998 188.111312 
L 321.546199 199.965033 
L 322.167799 190.571164 
L 324.0326 208.351745 
L 324.6542 198.957849 
L 325.2758 204.884709 
L 325.8974 195.490828 
L 326.519 201.417688 
L 327.1406 192.023817 
L 328.383801 203.877537 
L 329.005401 194.483659 
L 330.870202 212.26424 
L 331.491802 202.870318 
L 332.113402 208.797178 
L 332.735002 199.403279 
L 334.599803 217.18386 
L 335.221403 207.789882 
L 335.843003 213.716743 
L 336.464603 204.322807 
L 337.086204 210.249667 
L 337.707804 200.855759 
L 338.329404 206.78262 
L 338.951004 197.388731 
L 340.194205 209.242452 
L 340.815805 199.84855 
L 341.437405 205.775411 
L 342.059005 196.381526 
L 342.680605 202.308386 
L 343.302206 192.914512 
L 347.653407 234.402535 
L 348.275007 225.007735 
L 350.139808 242.788316 
L 350.761408 233.391936 
L 351.383008 239.318797 
L 352.004608 229.92326 
L 352.626208 235.85012 
L 353.247809 226.455145 
L 354.491009 238.308866 
L 355.112609 228.913517 
L 355.734209 234.840377 
L 356.35581 225.445528 
L 356.97741 231.372388 
L 357.59901 221.977871 
L 358.22061 227.904732 
L 358.84221 218.510437 
L 360.085411 230.364157 
L 360.707011 220.969714 
L 361.328611 226.896575 
L 361.950211 217.502329 
L 363.815012 235.28291 
L 364.436612 225.888007 
L 365.058212 231.814868 
L 365.679812 222.420316 
L 366.301413 228.347176 
L 366.923013 218.952857 
L 371.274214 260.44088 
L 371.895814 251.02712 
L 372.517415 256.95398 
L 373.139015 247.546882 
L 373.760615 253.473743 
L 374.382215 244.071072 
L 375.003815 249.997932 
L 375.625416 240.598206 
L 378.111816 264.305647 
L 378.733417 254.880532 
L 379.355017 260.807393 
L 379.976617 251.392762 
L 381.219817 263.246483 
L 381.841417 253.825004 
L 382.463018 259.751864 
L 383.084618 250.339644 
L 383.706218 256.266504 
L 384.327818 246.860429 
L 385.571019 258.71415 
L 386.192619 249.304027 
L 386.814219 255.230887 
L 387.435819 245.826205 
L 388.057419 251.753066 
L 388.67902 242.352002 
L 389.30062 248.278862 
L 389.92222 238.880205 
L 391.16542 250.733926 
L 391.787021 241.333672 
L 393.651821 259.114253 
L 394.273421 249.703352 
L 394.895022 255.630212 
L 395.516622 246.225013 
L 396.138222 252.151873 
L 396.759822 242.750465 
L 398.003023 254.604185 
L 398.624623 245.200268 
L 399.246223 251.127129 
L 399.867823 241.726574 
L 401.111023 253.580294 
L 401.732624 244.177513 
L 402.354224 250.104373 
L 402.975824 240.704573 
L 403.597424 246.631434 
L 404.219024 237.233619 
L 404.840625 243.16048 
L 405.462225 233.763987 
L 406.083825 239.690847 
L 406.705425 230.295236 
L 407.327025 236.222096 
L 407.948626 226.827071 
L 409.813426 244.607652 
L 410.435026 235.210673 
L 411.056627 241.137533 
L 411.678227 231.741597 
L 412.299827 237.668457 
L 412.921427 228.273216 
L 413.543027 234.200077 
L 414.164628 224.805299 
L 416.651028 248.51274 
L 417.272628 239.113951 
L 418.515829 250.967671 
L 419.137429 241.56724 
L 420.380629 253.420961 
L 421.00223 244.018344 
L 423.48863 267.725785 
L 424.110231 258.285336 
L 425.975031 276.065917 
L 426.596631 266.549033 
L 427.218232 272.475893 
L 427.839832 263.000992 
L 428.461432 268.927853 
L 429.083032 259.480392 
L 432.191033 289.114694 
L 432.812633 279.168996 
L 435.299034 302.876437 
L 435.299034 302.876437 
" style="fill:none;stroke:#ff7f0e;stroke-linecap:square;stroke-width:0.666667;"/>
   </g>
   <g id="patch_3">
    <path d="M 35.85875 316.4425 
L 35.85875 17.989125 
" style="fill:none;stroke:#000000;stroke-linecap:square;stroke-linejoin:miter;stroke-width:0.8;"/>
   </g>
   <g id="patch_4">
    <path d="M 454.32 316.4425 
L 454.32 17.989125 
" style="fill:none;stroke:#000000;stroke-linecap:square;stroke-linejoin:miter;stroke-width:0.8;"/>
   </g>
   <g id="patch_5">
    <path d="M 35.85875 316.4425 
L 454.32 316.4425 
" style="fill:none;stroke:#000000;stroke-linecap:square;stroke-linejoin:miter;stroke-width:0.8;"/>
   </g>
   <g id="patch_6">
    <path d="M 35.85875 17.989125 
L 454.32 17.989125 
" style="fill:none;stroke:#000000;stroke-linecap:square;stroke-linejoin:miter;stroke-width:0.8;"/>
   </g>
   <g id="text_17">
    <!-- "3y+1" problem -->
    <g transform="translate(214.747 11.989125)scale(0.072 -0.072)">
     <defs>
      <path d="M 43.703125 72.90625 
L 43.703125 45.796875 
L 35.203125 45.796875 
L 35.203125 72.90625 
z
M 25 72.90625 
L 25 45.796875 
L 16.5 45.796875 
L 16.5 72.90625 
z
" id="DejaVuSansMono-34"/>
      <path d="M 34.1875 57.171875 
L 34.1875 35.5 
L 55.90625 35.5 
L 55.90625 27.203125 
L 34.1875 27.203125 
L 34.1875 5.515625 
L 25.984375 5.515625 
L 25.984375 27.203125 
L 4.296875 27.203125 
L 4.296875 35.5 
L 25.984375 35.5 
L 25.984375 57.171875 
z
" id="DejaVuSansMono-43"/>
      <path id="DejaVuSansMono-32"/>
      <path d="M 18.3125 6.890625 
L 18.3125 -20.796875 
L 9.28125 -20.796875 
L 9.28125 54.6875 
L 18.3125 54.6875 
L 18.3125 47.703125 
Q 20.5625 51.765625 24.296875 53.875 
Q 28.03125 56 32.90625 56 
Q 42.828125 56 48.46875 48.328125 
Q 54.109375 40.671875 54.109375 27.09375 
Q 54.109375 13.765625 48.4375 6.171875 
Q 42.78125 -1.421875 32.90625 -1.421875 
Q 27.9375 -1.421875 24.1875 0.703125 
Q 20.453125 2.828125 18.3125 6.890625 
z
M 44.671875 27.296875 
Q 44.671875 37.75 41.375 43.0625 
Q 38.09375 48.390625 31.59375 48.390625 
Q 25.046875 48.390625 21.671875 43.046875 
Q 18.3125 37.703125 18.3125 27.296875 
Q 18.3125 16.9375 21.671875 11.5625 
Q 25.046875 6.203125 31.59375 6.203125 
Q 38.09375 6.203125 41.375 11.515625 
Q 44.671875 16.84375 44.671875 27.296875 
z
" id="DejaVuSansMono-112"/>
      <path d="M 56.390625 43.40625 
Q 53.515625 45.65625 50.53125 46.671875 
Q 47.5625 47.703125 44 47.703125 
Q 35.59375 47.703125 31.140625 42.421875 
Q 26.703125 37.15625 26.703125 27.203125 
L 26.703125 0 
L 17.671875 0 
L 17.671875 54.6875 
L 26.703125 54.6875 
L 26.703125 44 
Q 28.953125 49.8125 33.609375 52.90625 
Q 38.28125 56 44.671875 56 
Q 48 56 50.875 55.171875 
Q 53.765625 54.34375 56.390625 52.59375 
z
" id="DejaVuSansMono-114"/>
      <path d="M 30.078125 48.390625 
Q 23.25 48.390625 19.734375 43.0625 
Q 16.21875 37.75 16.21875 27.296875 
Q 16.21875 16.890625 19.734375 11.546875 
Q 23.25 6.203125 30.078125 6.203125 
Q 36.96875 6.203125 40.484375 11.546875 
Q 44 16.890625 44 27.296875 
Q 44 37.75 40.484375 43.0625 
Q 36.96875 48.390625 30.078125 48.390625 
z
M 30.078125 56 
Q 41.453125 56 47.484375 48.625 
Q 53.515625 41.265625 53.515625 27.296875 
Q 53.515625 13.28125 47.5 5.921875 
Q 41.5 -1.421875 30.078125 -1.421875 
Q 18.703125 -1.421875 12.6875 5.921875 
Q 6.6875 13.28125 6.6875 27.296875 
Q 6.6875 41.265625 12.6875 48.625 
Q 18.703125 56 30.078125 56 
z
" id="DejaVuSansMono-111"/>
      <path d="M 44.828125 27.296875 
Q 44.828125 37.75 41.5 43.0625 
Q 38.1875 48.390625 31.6875 48.390625 
Q 25.140625 48.390625 21.765625 43.046875 
Q 18.40625 37.703125 18.40625 27.296875 
Q 18.40625 16.9375 21.765625 11.5625 
Q 25.140625 6.203125 31.6875 6.203125 
Q 38.1875 6.203125 41.5 11.515625 
Q 44.828125 16.84375 44.828125 27.296875 
z
M 18.40625 47.703125 
Q 20.5625 51.703125 24.34375 53.84375 
Q 28.125 56 33.109375 56 
Q 42.96875 56 48.625 48.40625 
Q 54.296875 40.828125 54.296875 27.484375 
Q 54.296875 13.96875 48.609375 6.265625 
Q 42.921875 -1.421875 33.015625 -1.421875 
Q 28.125 -1.421875 24.390625 0.703125 
Q 20.65625 2.828125 18.40625 6.890625 
L 18.40625 0 
L 9.421875 0 
L 9.421875 75.984375 
L 18.40625 75.984375 
z
" id="DejaVuSansMono-98"/>
      <path d="M 31.203125 19.828125 
Q 31.203125 13.765625 33.421875 10.6875 
Q 35.640625 7.625 39.984375 7.625 
L 50.484375 7.625 
L 50.484375 0 
L 39.109375 0 
Q 31.0625 0 26.640625 5.171875 
Q 22.21875 10.359375 22.21875 19.828125 
L 22.21875 69.484375 
L 7.8125 69.484375 
L 7.8125 76.515625 
L 31.203125 76.515625 
z
" id="DejaVuSansMono-108"/>
      <path d="M 54.296875 29.59375 
L 54.296875 25.203125 
L 15.375 25.203125 
L 15.375 24.90625 
Q 15.375 15.96875 20.03125 11.078125 
Q 24.703125 6.203125 33.203125 6.203125 
Q 37.5 6.203125 42.1875 7.5625 
Q 46.875 8.9375 52.203125 11.71875 
L 52.203125 2.78125 
Q 47.078125 0.6875 42.3125 -0.359375 
Q 37.546875 -1.421875 33.109375 -1.421875 
Q 20.359375 -1.421875 13.171875 6.21875 
Q 6 13.875 6 27.296875 
Q 6 40.375 13.03125 48.1875 
Q 20.0625 56 31.78125 56 
Q 42.234375 56 48.265625 48.921875 
Q 54.296875 41.84375 54.296875 29.59375 
z
M 45.3125 32.234375 
Q 45.125 40.140625 41.578125 44.265625 
Q 38.03125 48.390625 31.390625 48.390625 
Q 24.90625 48.390625 20.703125 44.09375 
Q 16.5 39.796875 15.71875 32.171875 
z
" id="DejaVuSansMono-101"/>
      <path d="M 33.015625 49.125 
Q 34.671875 52.640625 37.234375 54.3125 
Q 39.796875 56 43.40625 56 
Q 50 56 52.703125 50.890625 
Q 55.421875 45.796875 55.421875 31.6875 
L 55.421875 0 
L 47.21875 0 
L 47.21875 31.296875 
Q 47.21875 42.875 45.921875 45.671875 
Q 44.625 48.484375 41.21875 48.484375 
Q 37.3125 48.484375 35.859375 45.484375 
Q 34.421875 42.484375 34.421875 31.296875 
L 34.421875 0 
L 26.21875 0 
L 26.21875 31.296875 
Q 26.21875 43.015625 24.828125 45.75 
Q 23.4375 48.484375 19.828125 48.484375 
Q 16.265625 48.484375 14.875 45.484375 
Q 13.484375 42.484375 13.484375 31.296875 
L 13.484375 0 
L 5.328125 0 
L 5.328125 54.6875 
L 13.484375 54.6875 
L 13.484375 50 
Q 15.09375 52.9375 17.5 54.46875 
Q 19.921875 56 23 56 
Q 26.703125 56 29.171875 54.296875 
Q 31.640625 52.59375 33.015625 49.125 
z
" id="DejaVuSansMono-109"/>
     </defs>
     <use xlink:href="#DejaVuSansMono-34"/>
     <use x="60.205078" xlink:href="#DejaVuSansMono-51"/>
     <use x="120.410156" xlink:href="#DejaVuSansMono-121"/>
     <use x="180.615234" xlink:href="#DejaVuSansMono-43"/>
     <use x="240.820312" xlink:href="#DejaVuSansMono-49"/>
     <use x="301.025391" xlink:href="#DejaVuSansMono-34"/>
     <use x="361.230469" xlink:href="#DejaVuSansMono-32"/>
     <use x="421.435547" xlink:href="#DejaVuSansMono-112"/>
     <use x="481.640625" xlink:href="#DejaVuSansMono-114"/>
     <use x="541.845703" xlink:href="#DejaVuSansMono-111"/>
     <use x="602.050781" xlink:href="#DejaVuSansMono-98"/>
     <use x="662.255859" xlink:href="#DejaVuSansMono-108"/>
     <use x="722.460938" xlink:href="#DejaVuSansMono-101"/>
     <use x="782.666016" xlink:href="#DejaVuSansMono-109"/>
    </g>
   </g>
   <g id="legend_1">
    <g id="patch_7">
     <path d="M 347.839688 82.0095 
L 450.12 82.0095 
Q 451.32 82.0095 451.32 80.8095 
L 451.32 22.189125 
Q 451.32 20.989125 450.12 20.989125 
L 347.839688 20.989125 
Q 346.639688 20.989125 346.639688 22.189125 
L 346.639688 80.8095 
Q 346.639688 82.0095 347.839688 82.0095 
z
" style="fill:#ffffff;opacity:0.8;stroke:#cccccc;stroke-linejoin:miter;"/>
    </g>
    <g id="line2d_17">
     <path d="M 349.039688 36.889687 
L 361.039688 36.889687 
" style="fill:none;stroke:#1f77b4;stroke-linecap:square;stroke-width:0.666667;"/>
    </g>
    <g id="line2d_18"/>
    <g id="text_18">
     <!-- "Tallest": -->
     <g transform="translate(365.839688 27.980062)scale(0.06 -0.06)">
      <defs>
       <path d="M 2.296875 72.90625 
L 57.90625 72.90625 
L 57.90625 64.59375 
L 35.109375 64.59375 
L 35.109375 0 
L 25.203125 0 
L 25.203125 64.59375 
L 2.296875 64.59375 
z
" id="DejaVuSansMono-84"/>
       <path d="M 34.28125 27.484375 
L 31.296875 27.484375 
Q 23.4375 27.484375 19.453125 24.71875 
Q 15.484375 21.96875 15.484375 16.5 
Q 15.484375 11.578125 18.453125 8.84375 
Q 21.4375 6.109375 26.703125 6.109375 
Q 34.125 6.109375 38.375 11.25 
Q 42.625 16.40625 42.671875 25.484375 
L 42.671875 27.484375 
z
M 51.703125 31.203125 
L 51.703125 0 
L 42.671875 0 
L 42.671875 8.109375 
Q 39.796875 3.21875 35.421875 0.890625 
Q 31.0625 -1.421875 24.8125 -1.421875 
Q 16.453125 -1.421875 11.46875 3.296875 
Q 6.5 8.015625 6.5 15.921875 
Q 6.5 25.046875 12.625 29.78125 
Q 18.75 34.515625 30.609375 34.515625 
L 42.671875 34.515625 
L 42.671875 35.9375 
Q 42.625 42.484375 39.34375 45.4375 
Q 36.078125 48.390625 28.90625 48.390625 
Q 24.3125 48.390625 19.625 47.0625 
Q 14.9375 45.75 10.5 43.21875 
L 10.5 52.203125 
Q 15.484375 54.109375 20.046875 55.046875 
Q 24.609375 56 28.90625 56 
Q 35.6875 56 40.5 54 
Q 45.3125 52 48.296875 48 
Q 50.140625 45.5625 50.921875 41.96875 
Q 51.703125 38.375 51.703125 31.203125 
z
" id="DejaVuSansMono-97"/>
       <path d="M 47.515625 52.78125 
L 47.515625 44 
Q 43.65625 46.234375 39.75 47.359375 
Q 35.84375 48.484375 31.78125 48.484375 
Q 25.6875 48.484375 22.671875 46.5 
Q 19.671875 44.53125 19.671875 40.484375 
Q 19.671875 36.8125 21.921875 35 
Q 24.171875 33.203125 33.109375 31.5 
L 36.71875 30.8125 
Q 43.40625 29.546875 46.84375 25.734375 
Q 50.296875 21.921875 50.296875 15.828125 
Q 50.296875 7.71875 44.53125 3.140625 
Q 38.765625 -1.421875 28.515625 -1.421875 
Q 24.46875 -1.421875 20.015625 -0.5625 
Q 15.578125 0.296875 10.40625 2 
L 10.40625 11.28125 
Q 15.4375 8.6875 20.015625 7.390625 
Q 24.609375 6.109375 28.71875 6.109375 
Q 34.671875 6.109375 37.9375 8.515625 
Q 41.21875 10.9375 41.21875 15.28125 
Q 41.21875 21.53125 29.25 23.921875 
L 28.859375 24.03125 
L 25.484375 24.703125 
Q 17.71875 26.21875 14.15625 29.8125 
Q 10.59375 33.40625 10.59375 39.59375 
Q 10.59375 47.46875 15.90625 51.734375 
Q 21.234375 56 31.109375 56 
Q 35.5 56 39.546875 55.1875 
Q 43.609375 54.390625 47.515625 52.78125 
z
" id="DejaVuSansMono-115"/>
       <path d="M 29.984375 70.21875 
L 29.984375 54.6875 
L 50.390625 54.6875 
L 50.390625 47.703125 
L 29.984375 47.703125 
L 29.984375 18.015625 
Q 29.984375 11.96875 32.28125 9.5625 
Q 34.578125 7.171875 40.28125 7.171875 
L 50.390625 7.171875 
L 50.390625 0 
L 39.40625 0 
Q 29.296875 0 25.140625 4.046875 
Q 21 8.109375 21 18.015625 
L 21 47.703125 
L 6.390625 47.703125 
L 6.390625 54.6875 
L 21 54.6875 
L 21 70.21875 
z
" id="DejaVuSansMono-116"/>
       <path d="M 23.875 51.90625 
L 36.1875 51.90625 
L 36.1875 37.109375 
L 23.875 37.109375 
z
M 23.875 14.890625 
L 36.1875 14.890625 
L 36.1875 0 
L 23.875 0 
z
" id="DejaVuSansMono-58"/>
      </defs>
      <use xlink:href="#DejaVuSansMono-34"/>
      <use x="60.205078" xlink:href="#DejaVuSansMono-84"/>
      <use x="120.410156" xlink:href="#DejaVuSansMono-97"/>
      <use x="180.615234" xlink:href="#DejaVuSansMono-108"/>
      <use x="240.820312" xlink:href="#DejaVuSansMono-108"/>
      <use x="301.025391" xlink:href="#DejaVuSansMono-101"/>
      <use x="361.230469" xlink:href="#DejaVuSansMono-115"/>
      <use x="421.435547" xlink:href="#DejaVuSansMono-116"/>
      <use x="481.640625" xlink:href="#DejaVuSansMono-34"/>
      <use x="541.845703" xlink:href="#DejaVuSansMono-58"/>
     </g>
     <!-- y_0    = 6631675 -->
     <g transform="translate(365.839688 34.737)scale(0.06 -0.06)">
      <defs>
       <path d="M 4.296875 25.59375 
L 55.90625 25.59375 
L 55.90625 17.1875 
L 4.296875 17.1875 
z
M 4.296875 45.40625 
L 55.90625 45.40625 
L 55.90625 37.109375 
L 4.296875 37.109375 
z
" id="DejaVuSansMono-61"/>
      </defs>
      <use xlink:href="#DejaVuSansMono-121"/>
      <use x="60.205078" xlink:href="#DejaVuSansMono-95"/>
      <use x="120.410156" xlink:href="#DejaVuSansMono-48"/>
      <use x="180.615234" xlink:href="#DejaVuSansMono-32"/>
      <use x="240.820312" xlink:href="#DejaVuSansMono-32"/>
      <use x="301.025391" xlink:href="#DejaVuSansMono-32"/>
      <use x="361.230469" xlink:href="#DejaVuSansMono-32"/>
      <use x="421.435547" xlink:href="#DejaVuSansMono-61"/>
      <use x="481.640625" xlink:href="#DejaVuSansMono-32"/>
      <use x="541.845703" xlink:href="#DejaVuSansMono-54"/>
      <use x="602.050781" xlink:href="#DejaVuSansMono-54"/>
      <use x="662.255859" xlink:href="#DejaVuSansMono-51"/>
      <use x="722.460938" xlink:href="#DejaVuSansMono-49"/>
      <use x="782.666016" xlink:href="#DejaVuSansMono-54"/>
      <use x="842.871094" xlink:href="#DejaVuSansMono-55"/>
      <use x="903.076172" xlink:href="#DejaVuSansMono-53"/>
     </g>
     <!-- y_max  = 60342610919632 -->
     <g transform="translate(365.839688 41.660812)scale(0.06 -0.06)">
      <defs>
       <path d="M 54.59375 54.6875 
L 35.015625 28.515625 
L 56.5 0 
L 46.09375 0 
L 30.078125 21.921875 
L 14.109375 0 
L 3.71875 0 
L 25.203125 28.515625 
L 5.609375 54.6875 
L 15.578125 54.6875 
L 30.078125 34.90625 
L 44.484375 54.6875 
z
" id="DejaVuSansMono-120"/>
      </defs>
      <use xlink:href="#DejaVuSansMono-121"/>
      <use x="60.205078" xlink:href="#DejaVuSansMono-95"/>
      <use x="120.410156" xlink:href="#DejaVuSansMono-109"/>
      <use x="180.615234" xlink:href="#DejaVuSansMono-97"/>
      <use x="240.820312" xlink:href="#DejaVuSansMono-120"/>
      <use x="301.025391" xlink:href="#DejaVuSansMono-32"/>
      <use x="361.230469" xlink:href="#DejaVuSansMono-32"/>
      <use x="421.435547" xlink:href="#DejaVuSansMono-61"/>
      <use x="481.640625" xlink:href="#DejaVuSansMono-32"/>
      <use x="541.845703" xlink:href="#DejaVuSansMono-54"/>
      <use x="602.050781" xlink:href="#DejaVuSansMono-48"/>
      <use x="662.255859" xlink:href="#DejaVuSansMono-51"/>
      <use x="722.460938" xlink:href="#DejaVuSansMono-52"/>
      <use x="782.666016" xlink:href="#DejaVuSansMono-50"/>
      <use x="842.871094" xlink:href="#DejaVuSansMono-54"/>
      <use x="903.076172" xlink:href="#DejaVuSansMono-49"/>
      <use x="963.28125" xlink:href="#DejaVuSansMono-48"/>
      <use x="1023.486328" xlink:href="#DejaVuSansMono-57"/>
      <use x="1083.691406" xlink:href="#DejaVuSansMono-49"/>
      <use x="1143.896484" xlink:href="#DejaVuSansMono-57"/>
      <use x="1204.101562" xlink:href="#DejaVuSansMono-54"/>
      <use x="1264.306641" xlink:href="#DejaVuSansMono-51"/>
      <use x="1324.511719" xlink:href="#DejaVuSansMono-50"/>
     </g>
     <!-- x_max  = 577 -->
     <g transform="translate(365.839688 48.584625)scale(0.06 -0.06)">
      <use xlink:href="#DejaVuSansMono-120"/>
      <use x="60.205078" xlink:href="#DejaVuSansMono-95"/>
      <use x="120.410156" xlink:href="#DejaVuSansMono-109"/>
      <use x="180.615234" xlink:href="#DejaVuSansMono-97"/>
      <use x="240.820312" xlink:href="#DejaVuSansMono-120"/>
      <use x="301.025391" xlink:href="#DejaVuSansMono-32"/>
      <use x="361.230469" xlink:href="#DejaVuSansMono-32"/>
      <use x="421.435547" xlink:href="#DejaVuSansMono-61"/>
      <use x="481.640625" xlink:href="#DejaVuSansMono-32"/>
      <use x="541.845703" xlink:href="#DejaVuSansMono-53"/>
      <use x="602.050781" xlink:href="#DejaVuSansMono-55"/>
      <use x="662.255859" xlink:href="#DejaVuSansMono-55"/>
     </g>
    </g>
    <g id="line2d_19">
     <path d="M 349.039688 66.499875 
L 361.039688 66.499875 
" style="fill:none;stroke:#ff7f0e;stroke-linecap:square;stroke-width:0.666667;"/>
    </g>
    <g id="line2d_20"/>
    <g id="text_19">
     <!-- "Widest":  -->
     <g transform="translate(365.839688 57.59025)scale(0.06 -0.06)">
      <defs>
       <path d="M 0 72.90625 
L 9.625 72.90625 
L 16.609375 13.71875 
L 24.90625 52.875 
L 35.203125 52.875 
L 43.609375 13.625 
L 50.59375 72.90625 
L 60.203125 72.90625 
L 49.3125 0 
L 39.984375 0 
L 30.078125 43.3125 
L 20.21875 0 
L 10.890625 0 
z
" id="DejaVuSansMono-87"/>
       <path d="M 12.5 54.6875 
L 35.5 54.6875 
L 35.5 6.984375 
L 53.328125 6.984375 
L 53.328125 0 
L 8.6875 0 
L 8.6875 6.984375 
L 26.515625 6.984375 
L 26.515625 47.703125 
L 12.5 47.703125 
z
M 26.515625 75.984375 
L 35.5 75.984375 
L 35.5 64.59375 
L 26.515625 64.59375 
z
" id="DejaVuSansMono-105"/>
       <path d="M 41.890625 47.703125 
L 41.890625 75.984375 
L 50.875 75.984375 
L 50.875 0 
L 41.890625 0 
L 41.890625 6.890625 
Q 39.65625 2.828125 35.90625 0.703125 
Q 32.171875 -1.421875 27.296875 -1.421875 
Q 17.390625 -1.421875 11.6875 6.265625 
Q 6 13.96875 6 27.484375 
Q 6 40.828125 11.71875 48.40625 
Q 17.4375 56 27.296875 56 
Q 32.234375 56 35.984375 53.875 
Q 39.75 51.765625 41.890625 47.703125 
z
M 15.484375 27.296875 
Q 15.484375 16.84375 18.796875 11.515625 
Q 22.125 6.203125 28.609375 6.203125 
Q 35.109375 6.203125 38.5 11.5625 
Q 41.890625 16.9375 41.890625 27.296875 
Q 41.890625 37.703125 38.5 43.046875 
Q 35.109375 48.390625 28.609375 48.390625 
Q 22.125 48.390625 18.796875 43.0625 
Q 15.484375 37.75 15.484375 27.296875 
z
" id="DejaVuSansMono-100"/>
      </defs>
      <use xlink:href="#DejaVuSansMono-34"/>
      <use x="60.205078" xlink:href="#DejaVuSansMono-87"/>
      <use x="120.410156" xlink:href="#DejaVuSansMono-105"/>
      <use x="180.615234" xlink:href="#DejaVuSansMono-100"/>
      <use x="240.820312" xlink:href="#DejaVuSansMono-101"/>
      <use x="301.025391" xlink:href="#DejaVuSansMono-115"/>
      <use x="361.230469" xlink:href="#DejaVuSansMono-116"/>
      <use x="421.435547" xlink:href="#DejaVuSansMono-34"/>
      <use x="481.640625" xlink:href="#DejaVuSansMono-58"/>
      <use x="541.845703" xlink:href="#DejaVuSansMono-32"/>
     </g>
     <!-- y_0    = 5649499 -->
     <g transform="translate(365.839688 64.347187)scale(0.06 -0.06)">
      <use xlink:href="#DejaVuSansMono-121"/>
      <use x="60.205078" xlink:href="#DejaVuSansMono-95"/>
      <use x="120.410156" xlink:href="#DejaVuSansMono-48"/>
      <use x="180.615234" xlink:href="#DejaVuSansMono-32"/>
      <use x="240.820312" xlink:href="#DejaVuSansMono-32"/>
      <use x="301.025391" xlink:href="#DejaVuSansMono-32"/>
      <use x="361.230469" xlink:href="#DejaVuSansMono-32"/>
      <use x="421.435547" xlink:href="#DejaVuSansMono-61"/>
      <use x="481.640625" xlink:href="#DejaVuSansMono-32"/>
      <use x="541.845703" xlink:href="#DejaVuSansMono-53"/>
      <use x="602.050781" xlink:href="#DejaVuSansMono-54"/>
      <use x="662.255859" xlink:href="#DejaVuSansMono-52"/>
      <use x="722.460938" xlink:href="#DejaVuSansMono-57"/>
      <use x="782.666016" xlink:href="#DejaVuSansMono-52"/>
      <use x="842.871094" xlink:href="#DejaVuSansMono-57"/>
      <use x="903.076172" xlink:href="#DejaVuSansMono-57"/>
     </g>
     <!-- y_max  = 1017886660 -->
     <g transform="translate(365.839688 71.271)scale(0.06 -0.06)">
      <defs>
       <path d="M 30.078125 34.625 
Q 23.484375 34.625 19.890625 30.9375 
Q 16.3125 27.25 16.3125 20.515625 
Q 16.3125 13.765625 19.9375 10.03125 
Q 23.578125 6.296875 30.078125 6.296875 
Q 36.71875 6.296875 40.296875 9.984375 
Q 43.890625 13.671875 43.890625 20.515625 
Q 43.890625 27.203125 40.25 30.90625 
Q 36.625 34.625 30.078125 34.625 
z
M 21.484375 38.71875 
Q 15.1875 40.328125 11.640625 44.71875 
Q 8.109375 49.125 8.109375 55.328125 
Q 8.109375 64.015625 14.015625 69.109375 
Q 19.921875 74.21875 30.078125 74.21875 
Q 40.28125 74.21875 46.1875 69.109375 
Q 52.09375 64.015625 52.09375 55.328125 
Q 52.09375 49.125 48.546875 44.71875 
Q 45.015625 40.328125 38.71875 38.71875 
Q 46.046875 37.109375 49.921875 32.21875 
Q 53.8125 27.34375 53.8125 19.578125 
Q 53.8125 9.71875 47.515625 4.140625 
Q 41.21875 -1.421875 30.078125 -1.421875 
Q 18.953125 -1.421875 12.671875 4.125 
Q 6.390625 9.671875 6.390625 19.484375 
Q 6.390625 27.296875 10.265625 32.203125 
Q 14.15625 37.109375 21.484375 38.71875 
z
M 17.921875 54.390625 
Q 17.921875 48.53125 21.046875 45.453125 
Q 24.171875 42.390625 30.078125 42.390625 
Q 36.03125 42.390625 39.15625 45.453125 
Q 42.28125 48.53125 42.28125 54.390625 
Q 42.28125 60.359375 39.171875 63.484375 
Q 36.078125 66.609375 30.078125 66.609375 
Q 24.171875 66.609375 21.046875 63.453125 
Q 17.921875 60.296875 17.921875 54.390625 
z
" id="DejaVuSansMono-56"/>
      </defs>
      <use xlink:href="#DejaVuSansMono-121"/>
      <use x="60.205078" xlink:href="#DejaVuSansMono-95"/>
      <use x="120.410156" xlink:href="#DejaVuSansMono-109"/>
      <use x="180.615234" xlink:href="#DejaVuSansMono-97"/>
      <use x="240.820312" xlink:href="#DejaVuSansMono-120"/>
      <use x="301.025391" xlink:href="#DejaVuSansMono-32"/>
      <use x="361.230469" xlink:href="#DejaVuSansMono-32"/>
      <use x="421.435547" xlink:href="#DejaVuSansMono-61"/>
      <use x="481.640625" xlink:href="#DejaVuSansMono-32"/>
      <use x="541.845703" xlink:href="#DejaVuSansMono-49"/>
      <use x="602.050781" xlink:href="#DejaVuSansMono-48"/>
      <use x="662.255859" xlink:href="#DejaVuSansMono-49"/>
      <use x="722.460938" xlink:href="#DejaVuSansMono-55"/>
      <use x="782.666016" xlink:href="#DejaVuSansMono-56"/>
      <use x="842.871094" xlink:href="#DejaVuSansMono-56"/>
      <use x="903.076172" xlink:href="#DejaVuSansMono-54"/>
      <use x="963.28125" xlink:href="#DejaVuSansMono-54"/>
      <use x="1023.486328" xlink:href="#DejaVuSansMono-54"/>
      <use x="1083.691406" xlink:href="#DejaVuSansMono-48"/>
     </g>
     <!-- x_max  = 613 -->
     <g transform="translate(365.839688 78.194812)scale(0.06 -0.06)">
      <use xlink:href="#DejaVuSansMono-120"/>
      <use x="60.205078" xlink:href="#DejaVuSansMono-95"/>
      <use x="120.410156" xlink:href="#DejaVuSansMono-109"/>
      <use x="180.615234" xlink:href="#DejaVuSansMono-97"/>
      <use x="240.820312" xlink:href="#DejaVuSansMono-120"/>
      <use x="301.025391" xlink:href="#DejaVuSansMono-32"/>
      <use x="361.230469" xlink:href="#DejaVuSansMono-32"/>
      <use x="421.435547" xlink:href="#DejaVuSansMono-61"/>
      <use x="481.640625" xlink:href="#DejaVuSansMono-32"/>
      <use x="541.845703" xlink:href="#DejaVuSansMono-54"/>
      <use x="602.050781" xlink:href="#DejaVuSansMono-49"/>
      <use x="662.255859" xlink:href="#DejaVuSansMono-51"/>
     </g>
    </g>
   </g>
  </g>
 </g>
 <defs>
  <clipPath id="p6b8d2ba0ca">
   <rect height="298.453375" width="418.46125" x="35.85875" y="17.989125"/>
  </clipPath>
 </defs>
</svg>
