<?xml version="1.0" encoding="utf-8" standalone="no"?>
<!DOCTYPE svg PUBLIC "-//W3C//DTD SVG 1.1//EN"
  "http://www.w3.org/Graphics/SVG/1.1/DTD/svg11.dtd">
<!-- Created with matplotlib (https://matplotlib.org/) -->
<svg height="345.6pt" version="1.1" viewBox="0 0 460.8 345.6" width="460.8pt" xmlns="http://www.w3.org/2000/svg" xmlns:xlink="http://www.w3.org/1999/xlink">
 <metadata>
  <rdf:RDF xmlns:cc="http://creativecommons.org/ns#" xmlns:dc="http://purl.org/dc/elements/1.1/" xmlns:rdf="http://www.w3.org/1999/02/22-rdf-syntax-ns#">
   <cc:Work>
    <dc:type rdf:resource="http://purl.org/dc/dcmitype/StillImage"/>
    <dc:date>2022-03-17T00:29:56.098508</dc:date>
    <dc:format>image/svg+xml</dc:format>
    <dc:creator>
     <cc:Agent>
      <dc:title>Matplotlib v3.3.2, https://matplotlib.org/</dc:title>
     </cc:Agent>
    </dc:creator>
   </cc:Work>
  </rdf:RDF>
 </metadata>
 <defs>
  <style type="text/css">*{stroke-linecap:butt;stroke-linejoin:round;}</style>
 </defs>
 <g id="figure_1">
  <g id="patch_1">
   <path d="M 0 345.6 
L 460.8 345.6 
L 460.8 0 
L 0 0 
z
" style="fill:#ffffff;"/>
  </g>
  <g id="axes_1">
   <g id="patch_2">
    <path d="M 35.85875 316.4425 
L 454.32 316.4425 
L 454.32 17.989125 
L 35.85875 17.989125 
z
" style="fill:#ffffff;"/>
   </g>
   <g id="matplotlib.axis_1">
    <g id="xtick_1">
     <g id="line2d_1">
      <defs>
       <path d="M 0 0 
L 0 3.5 
" id="m6f2c46e540" style="stroke:#000000;stroke-width:0.8;"/>
      </defs>
      <g>
       <use style="stroke:#000000;stroke-width:0.8;" x="54.879716" xlink:href="#m6f2c46e540" y="316.4425"/>
      </g>
     </g>
     <g id="text_1">
      <!-- 0 -->
      <g transform="translate(53.073622 328.033437)scale(0.06 -0.06)">
       <defs>
        <path d="M 23.578125 36.625 
Q 23.578125 39.3125 25.453125 41.265625 
Q 27.34375 43.21875 29.984375 43.21875 
Q 32.71875 43.21875 34.671875 41.265625 
Q 36.625 39.3125 36.625 36.625 
Q 36.625 33.890625 34.6875 31.984375 
Q 32.765625 30.078125 29.984375 30.078125 
Q 27.25 30.078125 25.40625 31.9375 
Q 23.578125 33.796875 23.578125 36.625 
z
M 30.078125 66.40625 
Q 23.1875 66.40625 19.796875 58.984375 
Q 16.40625 51.5625 16.40625 36.375 
Q 16.40625 21.234375 19.796875 13.8125 
Q 23.1875 6.390625 30.078125 6.390625 
Q 37.015625 6.390625 40.40625 13.8125 
Q 43.796875 21.234375 43.796875 36.375 
Q 43.796875 51.5625 40.40625 58.984375 
Q 37.015625 66.40625 30.078125 66.40625 
z
M 30.078125 74.21875 
Q 41.75 74.21875 47.734375 64.640625 
Q 53.71875 55.078125 53.71875 36.375 
Q 53.71875 17.71875 47.734375 8.140625 
Q 41.75 -1.421875 30.078125 -1.421875 
Q 18.40625 -1.421875 12.453125 8.140625 
Q 6.5 17.71875 6.5 36.375 
Q 6.5 55.078125 12.453125 64.640625 
Q 18.40625 74.21875 30.078125 74.21875 
z
" id="DejaVuSansMono-48"/>
       </defs>
       <use xlink:href="#DejaVuSansMono-48"/>
      </g>
     </g>
    </g>
    <g id="xtick_2">
     <g id="line2d_2">
      <g>
       <use style="stroke:#000000;stroke-width:0.8;" x="118.708461" xlink:href="#m6f2c46e540" y="316.4425"/>
      </g>
     </g>
     <g id="text_2">
      <!-- 100 -->
      <g transform="translate(113.290179 328.033437)scale(0.06 -0.06)">
       <defs>
        <path d="M 13.1875 8.296875 
L 28.515625 8.296875 
L 28.515625 64.015625 
L 12.015625 60.296875 
L 12.015625 69.28125 
L 28.421875 72.90625 
L 38.28125 72.90625 
L 38.28125 8.296875 
L 53.421875 8.296875 
L 53.421875 0 
L 13.1875 0 
z
" id="DejaVuSansMono-49"/>
       </defs>
       <use xlink:href="#DejaVuSansMono-49"/>
       <use x="60.205078" xlink:href="#DejaVuSansMono-48"/>
       <use x="120.410156" xlink:href="#DejaVuSansMono-48"/>
      </g>
     </g>
    </g>
    <g id="xtick_3">
     <g id="line2d_3">
      <g>
       <use style="stroke:#000000;stroke-width:0.8;" x="182.537205" xlink:href="#m6f2c46e540" y="316.4425"/>
      </g>
     </g>
     <g id="text_3">
      <!-- 200 -->
      <g transform="translate(177.118924 328.033437)scale(0.06 -0.06)">
       <defs>
        <path d="M 18.21875 8.296875 
L 51.703125 8.296875 
L 51.703125 0 
L 7.421875 0 
L 7.421875 8.296875 
Q 16.546875 17.921875 23.375 25.296875 
Q 30.21875 32.671875 32.8125 35.6875 
Q 37.703125 41.65625 39.40625 45.34375 
Q 41.109375 49.03125 41.109375 52.875 
Q 41.109375 58.984375 37.515625 62.453125 
Q 33.9375 65.921875 27.6875 65.921875 
Q 23.25 65.921875 18.359375 64.3125 
Q 13.484375 62.703125 8.015625 59.421875 
L 8.015625 69.390625 
Q 13.03125 71.78125 17.890625 73 
Q 22.75 74.21875 27.484375 74.21875 
Q 38.1875 74.21875 44.703125 68.53125 
Q 51.21875 62.84375 51.21875 53.609375 
Q 51.21875 48.921875 49.046875 44.234375 
Q 46.875 39.546875 42 33.890625 
Q 39.265625 30.71875 34.0625 25.09375 
Q 28.859375 19.484375 18.21875 8.296875 
z
" id="DejaVuSansMono-50"/>
       </defs>
       <use xlink:href="#DejaVuSansMono-50"/>
       <use x="60.205078" xlink:href="#DejaVuSansMono-48"/>
       <use x="120.410156" xlink:href="#DejaVuSansMono-48"/>
      </g>
     </g>
    </g>
    <g id="xtick_4">
     <g id="line2d_4">
      <g>
       <use style="stroke:#000000;stroke-width:0.8;" x="246.36595" xlink:href="#m6f2c46e540" y="316.4425"/>
      </g>
     </g>
     <g id="text_4">
      <!-- 300 -->
      <g transform="translate(240.947669 328.033437)scale(0.06 -0.06)">
       <defs>
        <path d="M 37.890625 39.015625 
Q 45.0625 37.109375 48.875 32.25 
Q 52.6875 27.390625 52.6875 20.125 
Q 52.6875 10.0625 45.921875 4.3125 
Q 39.15625 -1.421875 27.203125 -1.421875 
Q 22.171875 -1.421875 16.9375 -0.484375 
Q 11.71875 0.4375 6.6875 2.203125 
L 6.6875 12.015625 
Q 11.671875 9.421875 16.5 8.15625 
Q 21.34375 6.890625 26.125 6.890625 
Q 34.234375 6.890625 38.578125 10.546875 
Q 42.921875 14.203125 42.921875 21.09375 
Q 42.921875 27.4375 38.578125 31.171875 
Q 34.234375 34.90625 26.8125 34.90625 
L 19.28125 34.90625 
L 19.28125 43.015625 
L 26.8125 43.015625 
Q 33.59375 43.015625 37.40625 45.984375 
Q 41.21875 48.96875 41.21875 54.296875 
Q 41.21875 59.90625 37.671875 62.90625 
Q 34.125 65.921875 27.59375 65.921875 
Q 23.25 65.921875 18.609375 64.9375 
Q 13.96875 63.96875 8.890625 62.015625 
L 8.890625 71.09375 
Q 14.796875 72.65625 19.40625 73.4375 
Q 24.03125 74.21875 27.59375 74.21875 
Q 38.234375 74.21875 44.609375 68.875 
Q 50.984375 63.53125 50.984375 54.6875 
Q 50.984375 48.6875 47.625 44.671875 
Q 44.28125 40.671875 37.890625 39.015625 
z
" id="DejaVuSansMono-51"/>
       </defs>
       <use xlink:href="#DejaVuSansMono-51"/>
       <use x="60.205078" xlink:href="#DejaVuSansMono-48"/>
       <use x="120.410156" xlink:href="#DejaVuSansMono-48"/>
      </g>
     </g>
    </g>
    <g id="xtick_5">
     <g id="line2d_5">
      <g>
       <use style="stroke:#000000;stroke-width:0.8;" x="310.194695" xlink:href="#m6f2c46e540" y="316.4425"/>
      </g>
     </g>
     <g id="text_5">
      <!-- 400 -->
      <g transform="translate(304.776413 328.033437)scale(0.06 -0.06)">
       <defs>
        <path d="M 35.890625 63.921875 
L 12.890625 25.390625 
L 35.890625 25.390625 
z
M 34.28125 72.90625 
L 45.703125 72.90625 
L 45.703125 25.390625 
L 55.421875 25.390625 
L 55.421875 17.390625 
L 45.703125 17.390625 
L 45.703125 0 
L 35.890625 0 
L 35.890625 17.390625 
L 4.984375 17.390625 
L 4.984375 26.703125 
z
" id="DejaVuSansMono-52"/>
       </defs>
       <use xlink:href="#DejaVuSansMono-52"/>
       <use x="60.205078" xlink:href="#DejaVuSansMono-48"/>
       <use x="120.410156" xlink:href="#DejaVuSansMono-48"/>
      </g>
     </g>
    </g>
    <g id="xtick_6">
     <g id="line2d_6">
      <g>
       <use style="stroke:#000000;stroke-width:0.8;" x="374.023439" xlink:href="#m6f2c46e540" y="316.4425"/>
      </g>
     </g>
     <g id="text_6">
      <!-- 500 -->
      <g transform="translate(368.605158 328.033437)scale(0.06 -0.06)">
       <defs>
        <path d="M 10.109375 72.90625 
L 47.015625 72.90625 
L 47.015625 64.59375 
L 19.09375 64.59375 
L 19.09375 46.6875 
Q 21.1875 47.46875 23.3125 47.828125 
Q 25.4375 48.1875 27.59375 48.1875 
Q 38.921875 48.1875 45.5625 41.5 
Q 52.203125 34.8125 52.203125 23.390625 
Q 52.203125 11.859375 45.234375 5.21875 
Q 38.28125 -1.421875 26.21875 -1.421875 
Q 20.40625 -1.421875 15.59375 -0.640625 
Q 10.796875 0.140625 6.984375 1.703125 
L 6.984375 11.71875 
Q 11.46875 9.28125 16.015625 8.078125 
Q 20.5625 6.890625 25.296875 6.890625 
Q 33.453125 6.890625 37.859375 11.1875 
Q 42.28125 15.484375 42.28125 23.390625 
Q 42.28125 31.203125 37.71875 35.546875 
Q 33.15625 39.890625 25 39.890625 
Q 21.046875 39.890625 17.28125 38.984375 
Q 13.53125 38.09375 10.109375 36.28125 
z
" id="DejaVuSansMono-53"/>
       </defs>
       <use xlink:href="#DejaVuSansMono-53"/>
       <use x="60.205078" xlink:href="#DejaVuSansMono-48"/>
       <use x="120.410156" xlink:href="#DejaVuSansMono-48"/>
      </g>
     </g>
    </g>
    <g id="xtick_7">
     <g id="line2d_7">
      <g>
       <use style="stroke:#000000;stroke-width:0.8;" x="437.852184" xlink:href="#m6f2c46e540" y="316.4425"/>
      </g>
     </g>
     <g id="text_7">
      <!-- 600 -->
      <g transform="translate(432.433903 328.033437)scale(0.06 -0.06)">
       <defs>
        <path d="M 48.390625 71.296875 
L 48.390625 62.203125 
Q 45.3125 64.015625 41.84375 64.96875 
Q 38.375 65.921875 34.625 65.921875 
Q 25.25 65.921875 20.40625 58.859375 
Q 15.578125 51.8125 15.578125 38.09375 
Q 17.921875 42.96875 22.0625 45.578125 
Q 26.21875 48.1875 31.59375 48.1875 
Q 42.140625 48.1875 47.921875 41.71875 
Q 53.71875 35.25 53.71875 23.390625 
Q 53.71875 11.578125 47.75 5.078125 
Q 41.796875 -1.421875 31 -1.421875 
Q 18.3125 -1.421875 12.40625 7.6875 
Q 6.5 16.796875 6.5 36.375 
Q 6.5 54.828125 13.59375 64.515625 
Q 20.703125 74.21875 34.1875 74.21875 
Q 37.796875 74.21875 41.40625 73.453125 
Q 45.015625 72.703125 48.390625 71.296875 
z
M 30.8125 40.484375 
Q 24.515625 40.484375 20.890625 35.9375 
Q 17.28125 31.390625 17.28125 23.390625 
Q 17.28125 15.375 20.890625 10.828125 
Q 24.515625 6.296875 30.8125 6.296875 
Q 37.359375 6.296875 40.671875 10.609375 
Q 44 14.9375 44 23.390625 
Q 44 31.890625 40.671875 36.1875 
Q 37.359375 40.484375 30.8125 40.484375 
z
" id="DejaVuSansMono-54"/>
       </defs>
       <use xlink:href="#DejaVuSansMono-54"/>
       <use x="60.205078" xlink:href="#DejaVuSansMono-48"/>
       <use x="120.410156" xlink:href="#DejaVuSansMono-48"/>
      </g>
     </g>
    </g>
    <g id="text_8">
     <!-- n -->
     <g transform="translate(243.283281 337.872187)scale(0.06 -0.06)">
      <defs>
       <path d="M 51.3125 33.890625 
L 51.3125 0 
L 42.28125 0 
L 42.28125 33.890625 
Q 42.28125 41.265625 39.6875 44.71875 
Q 37.109375 48.1875 31.59375 48.1875 
Q 25.296875 48.1875 21.890625 43.71875 
Q 18.5 39.265625 18.5 30.90625 
L 18.5 0 
L 9.515625 0 
L 9.515625 54.6875 
L 18.5 54.6875 
L 18.5 46.484375 
Q 20.90625 51.171875 25 53.578125 
Q 29.109375 56 34.71875 56 
Q 43.0625 56 47.1875 50.5 
Q 51.3125 45.015625 51.3125 33.890625 
z
" id="DejaVuSansMono-110"/>
      </defs>
      <use xlink:href="#DejaVuSansMono-110"/>
     </g>
    </g>
   </g>
   <g id="matplotlib.axis_2">
    <g id="ytick_1">
     <g id="line2d_8">
      <defs>
       <path d="M 0 0 
L -3.5 0 
" id="me8920f8cb0" style="stroke:#000000;stroke-width:0.8;"/>
      </defs>
      <g>
       <use style="stroke:#000000;stroke-width:0.8;" x="35.85875" xlink:href="#me8920f8cb0" y="280.490528"/>
      </g>
     </g>
     <g id="text_9">
      <!-- $\mathdefault{10^{1}}$ -->
      <g transform="translate(18.83875 282.785996)scale(0.06 -0.06)">
       <use transform="translate(0 0.684375)" xlink:href="#DejaVuSansMono-49"/>
       <use transform="translate(60.205078 0.684375)" xlink:href="#DejaVuSansMono-48"/>
       <use transform="translate(121.367188 38.965625)scale(0.7)" xlink:href="#DejaVuSansMono-49"/>
      </g>
     </g>
    </g>
    <g id="ytick_2">
     <g id="line2d_9">
      <g>
       <use style="stroke:#000000;stroke-width:0.8;" x="35.85875" xlink:href="#me8920f8cb0" y="235.718708"/>
      </g>
     </g>
     <g id="text_10">
      <!-- $\mathdefault{10^{3}}$ -->
      <g transform="translate(18.83875 238.014177)scale(0.06 -0.06)">
       <use transform="translate(0 0.765625)" xlink:href="#DejaVuSansMono-49"/>
       <use transform="translate(60.205078 0.765625)" xlink:href="#DejaVuSansMono-48"/>
       <use transform="translate(121.367188 39.046875)scale(0.7)" xlink:href="#DejaVuSansMono-51"/>
      </g>
     </g>
    </g>
    <g id="ytick_3">
     <g id="line2d_10">
      <g>
       <use style="stroke:#000000;stroke-width:0.8;" x="35.85875" xlink:href="#me8920f8cb0" y="190.946888"/>
      </g>
     </g>
     <g id="text_11">
      <!-- $\mathdefault{10^{5}}$ -->
      <g transform="translate(18.83875 193.242357)scale(0.06 -0.06)">
       <use transform="translate(0 0.684375)" xlink:href="#DejaVuSansMono-49"/>
       <use transform="translate(60.205078 0.684375)" xlink:href="#DejaVuSansMono-48"/>
       <use transform="translate(121.367188 38.965625)scale(0.7)" xlink:href="#DejaVuSansMono-53"/>
      </g>
     </g>
    </g>
    <g id="ytick_4">
     <g id="line2d_11">
      <g>
       <use style="stroke:#000000;stroke-width:0.8;" x="35.85875" xlink:href="#me8920f8cb0" y="146.175069"/>
      </g>
     </g>
     <g id="text_12">
      <!-- $\mathdefault{10^{7}}$ -->
      <g transform="translate(18.83875 148.470537)scale(0.06 -0.06)">
       <defs>
        <path d="M 6.78125 72.90625 
L 52.6875 72.90625 
L 52.6875 68.703125 
L 26.609375 0 
L 16.3125 0 
L 41.703125 64.59375 
L 6.78125 64.59375 
z
" id="DejaVuSansMono-55"/>
       </defs>
       <use transform="translate(0 0.684375)" xlink:href="#DejaVuSansMono-49"/>
       <use transform="translate(60.205078 0.684375)" xlink:href="#DejaVuSansMono-48"/>
       <use transform="translate(121.367188 38.965625)scale(0.7)" xlink:href="#DejaVuSansMono-55"/>
      </g>
     </g>
    </g>
    <g id="ytick_5">
     <g id="line2d_12">
      <g>
       <use style="stroke:#000000;stroke-width:0.8;" x="35.85875" xlink:href="#me8920f8cb0" y="101.403249"/>
      </g>
     </g>
     <g id="text_13">
      <!-- $\mathdefault{10^{9}}$ -->
      <g transform="translate(18.83875 103.698718)scale(0.06 -0.06)">
       <defs>
        <path d="M 29.109375 32.328125 
Q 35.40625 32.328125 38.984375 36.859375 
Q 42.578125 41.40625 42.578125 49.421875 
Q 42.578125 57.421875 38.984375 61.953125 
Q 35.40625 66.5 29.109375 66.5 
Q 22.5625 66.5 19.234375 62.171875 
Q 15.921875 57.859375 15.921875 49.421875 
Q 15.921875 40.921875 19.21875 36.625 
Q 22.515625 32.328125 29.109375 32.328125 
z
M 11.53125 1.515625 
L 11.53125 10.59375 
Q 14.59375 8.796875 18.0625 7.84375 
Q 21.53125 6.890625 25.296875 6.890625 
Q 34.671875 6.890625 39.46875 13.9375 
Q 44.28125 21 44.28125 34.71875 
Q 42 29.828125 37.84375 27.21875 
Q 33.6875 24.609375 28.328125 24.609375 
Q 17.78125 24.609375 11.984375 31.09375 
Q 6.203125 37.59375 6.203125 49.515625 
Q 6.203125 61.28125 12.125 67.75 
Q 18.0625 74.21875 28.90625 74.21875 
Q 41.609375 74.21875 47.515625 65.078125 
Q 53.421875 55.953125 53.421875 36.375 
Q 53.421875 17.96875 46.3125 8.265625 
Q 39.203125 -1.421875 25.6875 -1.421875 
Q 22.125 -1.421875 18.5 -0.65625 
Q 14.890625 0.09375 11.53125 1.515625 
z
" id="DejaVuSansMono-57"/>
       </defs>
       <use transform="translate(0 0.765625)" xlink:href="#DejaVuSansMono-49"/>
       <use transform="translate(60.205078 0.765625)" xlink:href="#DejaVuSansMono-48"/>
       <use transform="translate(121.367188 39.046875)scale(0.7)" xlink:href="#DejaVuSansMono-57"/>
      </g>
     </g>
    </g>
    <g id="ytick_6">
     <g id="line2d_13">
      <g>
       <use style="stroke:#000000;stroke-width:0.8;" x="35.85875" xlink:href="#me8920f8cb0" y="56.631429"/>
      </g>
     </g>
     <g id="text_14">
      <!-- $\mathdefault{10^{11}}$ -->
      <g transform="translate(16.31875 58.926898)scale(0.06 -0.06)">
       <use transform="translate(0 0.684375)" xlink:href="#DejaVuSansMono-49"/>
       <use transform="translate(60.205078 0.684375)" xlink:href="#DejaVuSansMono-48"/>
       <use transform="translate(121.367188 38.965625)scale(0.7)" xlink:href="#DejaVuSansMono-49"/>
       <use transform="translate(163.510742 38.965625)scale(0.7)" xlink:href="#DejaVuSansMono-49"/>
      </g>
     </g>
    </g>
    <g id="text_15">
     <!-- y_n -->
     <g transform="translate(10.904063 172.634094)rotate(-90)scale(0.06 -0.06)">
      <defs>
       <path d="M 41.890625 17.578125 
Q 39.65625 11.859375 36.1875 2.546875 
Q 31.34375 -10.359375 29.6875 -13.1875 
Q 27.4375 -17 24.0625 -18.890625 
Q 20.703125 -20.796875 16.21875 -20.796875 
L 8.984375 -20.796875 
L 8.984375 -13.28125 
L 14.3125 -13.28125 
Q 18.265625 -13.28125 20.5 -10.984375 
Q 22.75 -8.6875 26.21875 0.875 
L 5.078125 54.6875 
L 14.59375 54.6875 
L 30.8125 11.921875 
L 46.78125 54.6875 
L 56.296875 54.6875 
z
" id="DejaVuSansMono-121"/>
       <path d="M 60.203125 -19.671875 
L 60.203125 -23.578125 
L 0 -23.578125 
L 0 -19.671875 
z
" id="DejaVuSansMono-95"/>
      </defs>
      <use xlink:href="#DejaVuSansMono-121"/>
      <use x="60.205078" xlink:href="#DejaVuSansMono-95"/>
      <use x="120.410156" xlink:href="#DejaVuSansMono-110"/>
     </g>
    </g>
   </g>
   <g id="line2d_14">
    <path clip-path="url(#p964ad0b4b1)" d="M 54.879716 153.644602 
L 55.518003 142.963808 
L 56.156291 149.702639 
L 56.794578 139.021845 
L 58.071153 152.499506 
L 58.709441 141.818712 
L 59.347728 148.557542 
L 59.986015 137.876748 
L 60.624303 144.615578 
L 61.26259 133.934785 
L 61.900878 140.673615 
L 62.539165 129.992821 
L 63.177453 136.731652 
L 63.81574 126.050858 
L 64.454028 132.789689 
L 65.092315 122.108895 
L 66.36889 135.586556 
L 67.007177 124.905762 
L 67.645465 131.644593 
L 68.283752 120.963799 
L 68.92204 127.70263 
L 69.560327 117.021836 
L 70.198615 123.760666 
L 70.836902 113.079873 
L 72.113477 126.557534 
L 72.751764 115.87674 
L 73.390052 122.615571 
L 74.028339 111.934777 
L 75.304914 125.412438 
L 75.943202 114.731644 
L 76.581489 121.470475 
L 77.219777 110.789681 
L 77.858064 117.528512 
L 78.496351 106.847718 
L 79.134639 113.586549 
L 79.772926 102.905755 
L 81.049501 116.383416 
L 81.687789 105.702623 
L 82.964364 119.180283 
L 83.602651 108.49949 
L 84.879226 121.977151 
L 85.517513 111.296357 
L 86.155801 118.035187 
L 86.794088 107.354394 
L 87.432376 114.093224 
L 88.070663 103.412431 
L 88.708951 110.151261 
L 89.347238 99.470468 
L 89.985525 106.209298 
L 90.623813 95.528505 
L 91.900388 109.006166 
L 92.538675 98.325372 
L 93.176963 105.064202 
L 93.81525 94.383409 
L 94.453538 101.122239 
L 95.091825 90.441446 
L 95.730112 97.180276 
L 96.3684 86.499483 
L 97.006687 93.238313 
L 97.644975 82.55752 
L 100.198125 109.512841 
L 100.836412 98.832048 
L 101.4747 105.570878 
L 102.112987 94.890085 
L 103.389562 108.367746 
L 104.027849 97.686952 
L 105.942712 117.903443 
L 106.580999 107.22265 
L 107.857574 120.70031 
L 108.495861 110.019517 
L 109.772436 123.497178 
L 110.410724 112.816384 
L 111.049011 119.555215 
L 111.687299 108.874421 
L 112.325586 115.613252 
L 112.963874 104.932458 
L 113.602161 111.671289 
L 114.240448 100.990495 
L 114.878736 107.729325 
L 115.517023 97.048532 
L 116.155311 103.787362 
L 116.793598 93.106569 
L 117.431886 99.845399 
L 118.070173 89.164606 
L 119.346748 102.642267 
L 119.985035 91.961473 
L 120.623323 98.700304 
L 121.26161 88.01951 
L 121.899898 94.758341 
L 122.538185 84.077547 
L 123.81476 97.555208 
L 124.453048 86.874414 
L 125.091335 93.613245 
L 125.729622 82.932451 
L 127.006197 96.410112 
L 127.644485 85.729319 
L 128.92106 99.206979 
L 129.559347 88.526186 
L 130.197635 95.265016 
L 130.835922 84.584223 
L 131.47421 91.323053 
L 132.112497 80.64226 
L 132.750784 87.38109 
L 133.389072 76.700297 
L 134.027359 83.439127 
L 134.665647 72.758334 
L 135.942222 86.235994 
L 136.580509 75.555201 
L 137.218797 82.294031 
L 137.857084 71.613238 
L 138.495371 78.352068 
L 139.133659 67.671275 
L 139.771946 74.410105 
L 140.410234 63.729312 
L 141.686809 77.206973 
L 142.325096 66.526179 
L 143.601671 80.00384 
L 144.239958 69.323046 
L 144.878246 76.061877 
L 145.516533 65.381083 
L 146.154821 72.119914 
L 146.793108 61.43912 
L 147.431396 68.177951 
L 148.069683 57.497157 
L 149.346258 70.974818 
L 149.984545 60.294025 
L 151.26112 73.771685 
L 151.899408 63.090892 
L 152.537695 69.829722 
L 153.175983 59.148929 
L 153.81427 65.887759 
L 154.452558 55.206966 
L 155.090845 61.945796 
L 155.729132 51.265003 
L 156.36742 58.003833 
L 157.005707 47.32304 
L 157.643995 54.06187 
L 158.282282 43.381077 
L 158.92057 50.119907 
L 159.558857 39.439114 
L 160.197145 46.177944 
L 160.835432 35.497151 
L 161.473719 42.235981 
L 162.112007 31.555187 
L 163.388582 45.032848 
L 164.026869 34.352055 
L 166.580019 61.307376 
L 167.218307 50.626583 
L 167.856594 57.365413 
L 168.494881 46.68462 
L 169.133169 53.42345 
L 169.771456 42.742657 
L 171.048031 56.220317 
L 171.686319 45.539524 
L 172.324606 52.278354 
L 172.962894 41.597561 
L 173.601181 48.336391 
L 174.239468 37.655598 
L 174.877756 44.394428 
L 175.516043 33.713635 
L 176.792618 47.191296 
L 177.430906 36.510502 
L 178.707481 49.988163 
L 179.345768 39.307369 
L 179.984055 46.0462 
L 180.622343 35.365406 
L 181.898918 48.843067 
L 182.537205 38.162274 
L 184.452068 58.378765 
L 185.090355 47.697971 
L 185.728642 54.436802 
L 186.36693 43.756008 
L 190.196655 84.18899 
L 190.834942 73.508197 
L 191.473229 80.247027 
L 192.111517 69.566234 
L 195.302954 103.260386 
L 195.941242 92.579592 
L 198.494391 119.534914 
L 199.132679 108.85412 
L 199.770966 115.59295 
L 200.409254 104.912157 
L 204.877266 152.08397 
L 205.515553 141.403176 
L 206.153841 148.142006 
L 206.792128 137.461212 
L 207.430416 144.200042 
L 208.068703 133.519249 
L 209.345278 146.996909 
L 209.983565 136.316116 
L 211.26014 149.793776 
L 211.898428 139.112983 
L 213.175003 152.590643 
L 213.81329 141.909849 
L 214.451578 148.64868 
L 215.089865 137.967886 
L 217.004727 158.184377 
L 217.643015 147.503582 
L 218.281302 154.242413 
L 218.91959 143.561618 
L 221.472739 170.51694 
L 222.111027 159.836142 
L 222.749314 166.574973 
L 223.387602 155.894177 
L 224.025889 162.633007 
L 224.664177 151.952212 
L 225.302464 158.691042 
L 225.940752 148.010248 
L 226.579039 154.749078 
L 227.217326 144.068284 
L 229.770476 171.023605 
L 230.408764 160.342808 
L 231.685339 173.820468 
L 232.323626 163.139669 
L 232.961914 169.8785 
L 233.600201 159.197703 
L 234.238488 165.936533 
L 234.876776 155.255737 
L 235.515063 161.994568 
L 236.153351 151.313772 
L 236.791638 158.052603 
L 237.429926 147.371808 
L 238.706501 160.849469 
L 239.344788 150.168674 
L 240.621363 163.646335 
L 241.25965 152.965539 
L 243.174513 173.182031 
L 243.8128 162.501232 
L 245.089375 175.978893 
L 245.727662 165.298092 
L 246.36595 172.036923 
L 247.004237 161.356125 
L 248.280812 174.833785 
L 248.9191 164.152986 
L 249.557387 170.891816 
L 250.195675 160.211019 
L 250.833962 166.949849 
L 251.472249 156.269053 
L 252.748824 169.746713 
L 253.387112 159.065916 
L 255.301974 179.282407 
L 255.940262 168.601604 
L 256.578549 175.340435 
L 257.216836 164.659635 
L 257.855124 171.398465 
L 258.493411 160.717667 
L 259.769986 174.195328 
L 260.408274 163.514529 
L 261.046561 170.253359 
L 261.684849 159.572562 
L 262.961424 173.050223 
L 263.599711 162.369424 
L 264.237998 169.108254 
L 264.876286 158.427458 
L 265.514573 165.166288 
L 266.152861 154.485492 
L 266.791148 161.224323 
L 267.429436 150.543528 
L 268.067723 157.282358 
L 268.706011 146.601564 
L 269.982585 160.079224 
L 270.620873 149.39843 
L 271.25916 156.13726 
L 271.897448 145.456466 
L 273.174023 158.934126 
L 273.81231 148.253332 
L 274.450598 154.992162 
L 275.088885 144.311368 
L 276.36546 157.789028 
L 277.003747 147.108234 
L 279.556897 174.063555 
L 280.195185 163.382756 
L 280.833472 170.121587 
L 281.471759 159.440789 
L 282.110047 166.17962 
L 282.748334 155.498824 
L 284.663197 175.715315 
L 285.301484 165.034515 
L 286.578059 178.512175 
L 287.216346 167.831373 
L 287.854634 174.570203 
L 288.492921 163.889404 
L 289.131209 170.628234 
L 289.769496 159.947437 
L 290.407784 166.686267 
L 291.046071 156.005471 
L 293.599221 182.960793 
L 294.237508 172.279985 
L 295.514083 185.757646 
L 296.152371 175.076833 
L 298.705521 202.032155 
L 299.343808 191.35126 
L 299.982095 198.09009 
L 300.620383 187.409229 
L 301.25867 194.14806 
L 301.896958 183.467221 
L 303.173533 196.944882 
L 303.81182 186.264028 
L 304.450108 193.002859 
L 305.088395 182.322025 
L 305.726682 189.060856 
L 306.36497 178.380036 
L 307.641545 191.857696 
L 308.279832 181.176867 
L 309.556407 194.654528 
L 310.194695 183.973687 
L 312.747844 210.929008 
L 313.386132 200.247962 
L 315.939282 227.203283 
L 316.577569 216.52114 
L 317.854144 229.998801 
L 318.492431 219.316208 
L 319.769006 232.793869 
L 320.407294 222.110677 
L 321.045581 228.849508 
L 321.683869 218.167116 
L 322.322156 224.905946 
L 322.960443 214.224087 
L 324.237018 227.701748 
L 324.875306 217.019534 
L 326.151881 230.497194 
L 326.790168 219.814507 
L 327.428456 226.553337 
L 328.066743 215.871282 
L 328.705031 222.610112 
L 329.343318 211.928477 
L 329.981605 218.667307 
L 330.619893 207.985953 
L 331.896468 221.463614 
L 332.534755 210.782072 
L 334.449618 230.998564 
L 335.087905 220.315776 
L 336.36448 233.793437 
L 337.002767 223.109985 
L 337.641055 229.848816 
L 338.279342 219.166251 
L 340.832492 246.121572 
L 341.470779 235.431335 
L 342.109067 242.170165 
L 342.747354 231.483081 
L 343.385642 238.221912 
L 344.023929 227.536927 
L 346.577079 254.492248 
L 347.215366 243.789131 
L 348.491941 257.266792 
L 349.130229 246.556312 
L 351.045091 266.772803 
L 351.683379 256.013288 
L 352.959953 269.490949 
L 353.598241 258.706175 
L 354.236528 265.445006 
L 354.874816 254.695505 
L 355.513103 261.434335 
L 356.151391 250.708005 
L 356.789678 257.446835 
L 357.427966 246.735802 
L 358.066253 253.474632 
L 358.70454 242.773731 
L 359.981115 256.251392 
L 360.619403 245.543853 
L 361.895978 259.021513 
L 362.534265 248.305173 
L 363.172553 255.044004 
L 363.81084 244.339584 
L 365.087415 257.817245 
L 365.725702 247.105039 
L 366.36399 253.84387 
L 367.002277 243.142191 
L 367.640565 249.881021 
L 368.278852 239.186329 
L 369.555427 252.66399 
L 370.193715 241.964696 
L 370.832002 248.703526 
L 371.470289 238.010419 
L 372.108577 244.749249 
L 372.746864 234.060255 
L 373.385152 240.799085 
L 374.023439 230.112828 
L 375.300014 243.590489 
L 375.938302 232.902416 
L 377.853164 253.118907 
L 378.491451 242.418728 
L 379.129739 249.157558 
L 379.768026 238.463862 
L 380.406314 245.202692 
L 381.044601 234.513307 
L 382.321176 247.990967 
L 382.959463 237.29873 
L 383.597751 244.03756 
L 384.236038 233.349144 
L 385.512613 246.826805 
L 386.150901 236.135858 
L 386.789188 242.874688 
L 387.427476 232.187132 
L 388.065763 238.925962 
L 388.70405 228.240663 
L 389.342338 234.979493 
L 389.980625 224.295697 
L 390.618913 231.034527 
L 391.2572 220.351732 
L 391.895488 227.090562 
L 392.533775 216.408435 
L 394.448638 236.624926 
L 395.086925 225.940576 
L 395.725212 232.679406 
L 396.3635 221.996242 
L 397.001787 228.735073 
L 397.640075 218.052699 
L 398.278362 224.79153 
L 398.91665 214.109683 
L 401.469799 241.065005 
L 402.108087 230.378596 
L 403.384662 243.856257 
L 404.022949 233.167982 
L 405.299524 246.645643 
L 405.937812 235.954883 
L 408.490961 262.910205 
L 409.129249 252.17643 
L 411.044111 272.392921 
L 411.682399 261.572239 
L 412.320686 268.311069 
L 412.958973 257.538123 
L 413.597261 264.276953 
L 414.235548 253.535206 
L 417.426986 287.229358 
L 418.065273 275.921116 
L 420.618423 302.876437 
L 420.618423 302.876437 
" style="fill:none;stroke:#1f77b4;stroke-linecap:square;stroke-width:0.666667;"/>
   </g>
   <g id="line2d_15">
    <path clip-path="url(#p964ad0b4b1)" d="M 54.879716 155.756443 
L 55.518003 145.075648 
L 56.156291 151.814479 
L 56.794578 141.133685 
L 57.432866 147.872515 
L 58.071153 137.191721 
L 59.347728 150.669382 
L 59.986015 139.988588 
L 61.26259 153.466249 
L 61.900878 142.785455 
L 63.177453 156.263115 
L 63.81574 145.582321 
L 64.454028 152.321151 
L 65.092315 141.640357 
L 65.730603 148.379188 
L 66.36889 137.698394 
L 67.645465 151.176055 
L 68.283752 140.495261 
L 68.92204 147.234091 
L 69.560327 136.553297 
L 70.198615 143.292128 
L 70.836902 132.611334 
L 71.47519 139.350164 
L 72.113477 128.669371 
L 72.751764 135.408201 
L 73.390052 124.727408 
L 74.028339 131.466238 
L 74.666627 120.785445 
L 75.304914 127.524275 
L 75.943202 116.843481 
L 76.581489 123.582312 
L 77.219777 112.901518 
L 77.858064 119.640349 
L 78.496351 108.959555 
L 79.772926 122.437216 
L 80.411214 111.756423 
L 81.049501 118.495253 
L 81.687789 107.814459 
L 82.964364 121.29212 
L 83.602651 110.611327 
L 84.240938 117.350157 
L 84.879226 106.669364 
L 85.517513 113.408194 
L 86.155801 102.727401 
L 86.794088 109.466231 
L 87.432376 98.785438 
L 88.070663 105.524268 
L 88.708951 94.843474 
L 89.347238 101.582305 
L 89.985525 90.901511 
L 90.623813 97.640342 
L 91.2621 86.959548 
L 91.900388 93.698379 
L 92.538675 83.017585 
L 93.176963 89.756416 
L 93.81525 79.075622 
L 94.453538 85.814453 
L 95.091825 75.133659 
L 95.730112 81.87249 
L 96.3684 71.191696 
L 98.283262 91.408187 
L 98.92155 80.727394 
L 99.559837 87.466224 
L 100.198125 76.785431 
L 102.751274 103.740752 
L 103.389562 93.059959 
L 104.027849 99.798789 
L 104.666137 89.117996 
L 105.304424 95.856826 
L 105.942712 85.176033 
L 107.219287 98.653693 
L 107.857574 87.9729 
L 108.495861 94.71173 
L 109.134149 84.030937 
L 109.772436 90.769767 
L 110.410724 80.088974 
L 111.049011 86.827804 
L 111.687299 76.147011 
L 112.963874 89.624671 
L 113.602161 78.943878 
L 114.240448 85.682708 
L 114.878736 75.001915 
L 115.517023 81.740745 
L 116.155311 71.059952 
L 116.793598 77.798782 
L 117.431886 67.117989 
L 118.070173 73.856819 
L 118.708461 63.176026 
L 119.985035 76.653687 
L 120.623323 65.972893 
L 121.26161 72.711724 
L 121.899898 62.03093 
L 122.538185 68.76976 
L 123.176473 58.088967 
L 123.81476 64.827797 
L 124.453048 54.147004 
L 125.091335 60.885834 
L 125.729622 50.205041 
L 126.36791 56.943871 
L 127.006197 46.263078 
L 128.92106 66.479569 
L 129.559347 55.798776 
L 130.197635 62.537606 
L 130.835922 51.856812 
L 132.112497 65.334473 
L 132.750784 54.65368 
L 133.389072 61.39251 
L 134.027359 50.711717 
L 135.303934 64.189377 
L 135.942222 53.508584 
L 137.218797 66.986245 
L 137.857084 56.305451 
L 138.495371 63.044282 
L 139.133659 52.363488 
L 140.410234 65.841149 
L 141.048521 55.160356 
L 141.686809 61.899186 
L 142.325096 51.218393 
L 142.963384 57.957223 
L 143.601671 47.276429 
L 144.878246 60.75409 
L 145.516533 50.073297 
L 146.154821 56.812127 
L 146.793108 46.131334 
L 151.26112 93.303146 
L 151.899408 82.622353 
L 154.452558 109.577674 
L 155.090845 98.896881 
L 155.729132 105.635711 
L 156.36742 94.954918 
L 157.643995 108.432578 
L 158.282282 97.751785 
L 158.92057 104.490615 
L 159.558857 93.809822 
L 160.197145 100.548652 
L 160.835432 89.867859 
L 162.750294 110.08435 
L 163.388582 99.403556 
L 164.026869 106.142387 
L 164.665157 95.461593 
L 165.303444 102.200424 
L 165.941732 91.51963 
L 166.580019 98.258461 
L 167.218307 87.577667 
L 169.133169 107.794158 
L 169.771456 97.113365 
L 173.601181 137.546347 
L 174.239468 126.865553 
L 174.877756 133.604384 
L 175.516043 122.92359 
L 176.154331 129.662421 
L 176.792618 118.981627 
L 177.430906 125.720458 
L 178.069193 115.039664 
L 179.345768 128.517325 
L 179.984055 117.836531 
L 180.622343 124.575362 
L 181.26063 113.894568 
L 182.537205 127.372229 
L 183.175493 116.691436 
L 183.81378 123.430266 
L 184.452068 112.749472 
L 185.090355 119.488303 
L 185.728642 108.807509 
L 187.005217 122.28517 
L 187.643505 111.604377 
L 188.281792 118.343207 
L 188.92008 107.662414 
L 190.196655 121.140074 
L 190.834942 110.459281 
L 193.388092 137.414602 
L 194.026379 126.733809 
L 194.664667 133.472639 
L 195.302954 122.791846 
L 195.941242 129.530676 
L 196.579529 118.849882 
L 197.856104 132.327543 
L 198.494391 121.64675 
L 200.409254 141.863241 
L 201.047541 131.182447 
L 201.685829 137.921277 
L 202.324116 127.240484 
L 204.238978 147.456975 
L 204.877266 136.776181 
L 205.515553 143.515012 
L 206.153841 132.834218 
L 206.792128 139.573048 
L 207.430416 128.892255 
L 208.706991 142.369915 
L 209.345278 131.689122 
L 211.26014 151.905613 
L 211.898428 141.224819 
L 212.536715 147.963649 
L 213.175003 137.282855 
L 213.81329 144.021686 
L 214.451578 133.340892 
L 215.089865 140.079722 
L 215.728152 129.398929 
L 216.36644 136.137759 
L 217.004727 125.456966 
L 218.281302 138.934626 
L 218.91959 128.253833 
L 219.557877 134.992663 
L 220.196165 124.31187 
L 221.472739 137.78953 
L 222.111027 127.108737 
L 223.387602 140.586398 
L 224.025889 129.905604 
L 225.302464 143.383265 
L 225.940752 132.702471 
L 226.579039 139.441301 
L 227.217326 128.760508 
L 227.855614 135.499338 
L 228.493901 124.818545 
L 230.408764 145.035036 
L 231.047051 134.354242 
L 231.685339 141.093072 
L 232.323626 130.412279 
L 232.961914 137.151109 
L 233.600201 126.470316 
L 234.238488 133.209146 
L 234.876776 122.528352 
L 236.153351 136.006013 
L 236.791638 125.32522 
L 237.429926 132.06405 
L 238.068213 121.383256 
L 239.344788 134.860917 
L 239.983075 124.180124 
L 241.25965 137.657784 
L 241.897938 126.976991 
L 243.174513 140.454651 
L 243.8128 129.773858 
L 245.089375 143.251519 
L 245.727662 132.570725 
L 247.004237 146.048386 
L 247.642525 135.367592 
L 252.110537 182.539404 
L 252.748824 171.858597 
L 254.025399 185.336258 
L 254.663687 174.655446 
L 255.301974 181.394277 
L 255.940262 170.713471 
L 256.578549 177.452302 
L 257.216836 166.7715 
L 258.493411 180.249161 
L 259.131699 169.568357 
L 259.769986 176.307187 
L 260.408274 165.626386 
L 261.684849 179.104047 
L 262.323136 168.423244 
L 263.599711 181.900905 
L 264.237998 171.220099 
L 264.876286 177.958929 
L 265.514573 167.278127 
L 266.152861 174.016957 
L 266.791148 163.336158 
L 267.429436 170.074989 
L 268.067723 159.394191 
L 268.706011 166.133022 
L 269.344298 155.452226 
L 269.982585 162.191056 
L 270.620873 151.510261 
L 271.25916 158.249091 
L 271.897448 147.568297 
L 273.174023 161.045958 
L 273.81231 150.365163 
L 274.450598 157.103993 
L 275.088885 146.423199 
L 275.727172 153.162029 
L 276.36546 142.481235 
L 277.003747 149.220065 
L 277.642035 138.539272 
L 279.556897 158.755763 
L 280.195185 148.074968 
L 280.833472 154.813798 
L 281.471759 144.133004 
L 282.748334 157.610665 
L 283.386622 146.92987 
L 284.024909 153.668701 
L 284.663197 142.987907 
L 285.939772 156.465567 
L 286.578059 145.784773 
L 287.854634 159.262434 
L 288.492921 148.581639 
L 291.046071 175.53696 
L 291.684359 164.85616 
L 292.322646 171.594991 
L 292.960933 160.914193 
L 293.599221 167.653023 
L 294.237508 156.972227 
L 294.875796 163.711057 
L 295.514083 153.030262 
L 298.705521 186.724414 
L 299.343808 176.043599 
L 299.982095 182.78243 
L 300.620383 172.101622 
L 301.25867 178.840453 
L 301.896958 168.15965 
L 305.088395 201.853802 
L 305.726682 191.172909 
L 306.36497 197.911739 
L 307.003257 187.230879 
L 307.641545 193.96971 
L 308.279832 183.288872 
L 310.194695 203.505363 
L 310.832982 192.824452 
L 311.471269 199.563282 
L 312.109557 188.88241 
L 312.747844 195.62124 
L 313.386132 184.940395 
L 315.939282 211.895716 
L 316.577569 201.214643 
L 317.854144 214.692304 
L 318.492431 204.011138 
L 319.130719 210.749968 
L 319.769006 200.068926 
L 320.407294 206.807756 
L 321.045581 196.126797 
L 322.960443 216.343288 
L 323.598731 205.662053 
L 324.875306 219.139714 
L 325.513593 208.458332 
L 326.151881 215.197162 
L 326.790168 204.515976 
L 327.428456 211.254806 
L 328.066743 200.573751 
L 328.705031 207.312582 
L 329.343318 196.631614 
L 329.981605 203.370444 
L 330.619893 192.689535 
L 331.25818 199.428365 
L 331.896468 188.747494 
L 332.534755 195.486324 
L 333.173043 184.805479 
L 335.726192 211.760801 
L 336.36448 201.079731 
L 337.002767 207.818562 
L 337.641055 197.137585 
L 338.91763 210.615245 
L 339.555917 199.934207 
L 340.832492 213.411868 
L 341.470779 202.730747 
L 342.109067 209.469578 
L 342.747354 198.788567 
L 343.385642 205.527397 
L 344.023929 194.846458 
L 344.662217 201.585289 
L 345.300504 190.904399 
L 345.938792 197.643229 
L 346.577079 186.962371 
L 347.215366 193.701201 
L 347.853654 183.020365 
L 349.130229 196.498026 
L 349.768516 185.817175 
L 351.045091 199.294836 
L 351.683379 188.613966 
L 354.236528 215.569287 
L 354.874816 204.888086 
L 356.151391 218.365746 
L 356.789678 207.684409 
L 357.427966 214.42324 
L 358.066253 203.742084 
L 358.70454 210.480914 
L 359.342828 199.799879 
L 360.619403 213.27754 
L 361.25769 202.596424 
L 362.534265 216.074085 
L 363.172553 205.392862 
L 363.81084 212.131692 
L 364.449128 201.450612 
L 365.087415 208.189443 
L 365.725702 197.508458 
L 367.640565 217.724949 
L 368.278852 207.043647 
L 370.193715 227.260138 
L 370.832002 216.577987 
L 371.470289 223.316817 
L 372.108577 212.635119 
L 374.023439 232.85161 
L 374.661727 222.168404 
L 375.300014 228.907234 
L 375.938302 218.224833 
L 376.576589 224.963663 
L 377.214876 214.281798 
L 377.853164 221.020628 
L 378.491451 210.33912 
L 379.129739 217.07795 
L 379.768026 206.396681 
L 380.406314 213.135511 
L 381.044601 202.4544 
L 382.959463 222.670891 
L 383.597751 211.989251 
L 384.236038 218.728081 
L 384.874326 208.046723 
L 386.789188 228.263214 
L 387.427476 217.580916 
L 388.70405 231.058577 
L 389.342338 220.375777 
L 389.980625 227.114607 
L 390.618913 216.432476 
L 391.2572 223.171307 
L 391.895488 212.489622 
L 392.533775 219.228452 
L 393.172063 208.547064 
L 395.086925 228.763555 
L 395.725212 218.081178 
L 397.640075 238.297669 
L 398.278362 227.612651 
L 398.91665 234.351481 
L 399.554937 223.667873 
L 400.193225 230.406703 
L 400.831512 219.724033 
L 401.469799 226.462864 
L 402.108087 215.78082 
L 402.746374 222.51965 
L 403.384662 211.838023 
L 404.022949 218.576853 
L 404.661237 207.895504 
L 405.299524 214.634334 
L 405.937812 203.953171 
L 406.576099 210.692001 
L 407.214386 200.010961 
L 408.490961 213.488621 
L 409.129249 202.807499 
L 410.405824 216.285159 
L 411.044111 205.603927 
L 415.512123 252.775739 
L 416.150411 242.076231 
L 418.065273 262.292723 
L 418.70356 251.5622 
L 419.980135 265.03986 
L 420.618423 254.293154 
L 421.894998 267.770815 
L 422.533285 257.002828 
L 425.086435 283.958149 
L 425.724722 272.825084 
L 426.36301 279.563915 
L 427.001297 268.592889 
L 427.639585 275.331719 
L 428.277872 264.462141 
L 429.554447 277.939802 
L 430.192735 267.012867 
L 432.107597 287.229358 
L 432.745884 275.921116 
L 435.299034 302.876437 
L 435.299034 302.876437 
" style="fill:none;stroke:#ff7f0e;stroke-linecap:square;stroke-width:0.666667;"/>
   </g>
   <g id="patch_3">
    <path d="M 35.85875 316.4425 
L 35.85875 17.989125 
" style="fill:none;stroke:#000000;stroke-linecap:square;stroke-linejoin:miter;stroke-width:0.8;"/>
   </g>
   <g id="patch_4">
    <path d="M 454.32 316.4425 
L 454.32 17.989125 
" style="fill:none;stroke:#000000;stroke-linecap:square;stroke-linejoin:miter;stroke-width:0.8;"/>
   </g>
   <g id="patch_5">
    <path d="M 35.85875 316.4425 
L 454.32 316.4425 
" style="fill:none;stroke:#000000;stroke-linecap:square;stroke-linejoin:miter;stroke-width:0.8;"/>
   </g>
   <g id="patch_6">
    <path d="M 35.85875 17.989125 
L 454.32 17.989125 
" style="fill:none;stroke:#000000;stroke-linecap:square;stroke-linejoin:miter;stroke-width:0.8;"/>
   </g>
   <g id="text_16">
    <!-- "3y+1" problem -->
    <g transform="translate(214.747 11.989125)scale(0.072 -0.072)">
     <defs>
      <path d="M 43.703125 72.90625 
L 43.703125 45.796875 
L 35.203125 45.796875 
L 35.203125 72.90625 
z
M 25 72.90625 
L 25 45.796875 
L 16.5 45.796875 
L 16.5 72.90625 
z
" id="DejaVuSansMono-34"/>
      <path d="M 34.1875 57.171875 
L 34.1875 35.5 
L 55.90625 35.5 
L 55.90625 27.203125 
L 34.1875 27.203125 
L 34.1875 5.515625 
L 25.984375 5.515625 
L 25.984375 27.203125 
L 4.296875 27.203125 
L 4.296875 35.5 
L 25.984375 35.5 
L 25.984375 57.171875 
z
" id="DejaVuSansMono-43"/>
      <path id="DejaVuSansMono-32"/>
      <path d="M 18.3125 6.890625 
L 18.3125 -20.796875 
L 9.28125 -20.796875 
L 9.28125 54.6875 
L 18.3125 54.6875 
L 18.3125 47.703125 
Q 20.5625 51.765625 24.296875 53.875 
Q 28.03125 56 32.90625 56 
Q 42.828125 56 48.46875 48.328125 
Q 54.109375 40.671875 54.109375 27.09375 
Q 54.109375 13.765625 48.4375 6.171875 
Q 42.78125 -1.421875 32.90625 -1.421875 
Q 27.9375 -1.421875 24.1875 0.703125 
Q 20.453125 2.828125 18.3125 6.890625 
z
M 44.671875 27.296875 
Q 44.671875 37.75 41.375 43.0625 
Q 38.09375 48.390625 31.59375 48.390625 
Q 25.046875 48.390625 21.671875 43.046875 
Q 18.3125 37.703125 18.3125 27.296875 
Q 18.3125 16.9375 21.671875 11.5625 
Q 25.046875 6.203125 31.59375 6.203125 
Q 38.09375 6.203125 41.375 11.515625 
Q 44.671875 16.84375 44.671875 27.296875 
z
" id="DejaVuSansMono-112"/>
      <path d="M 56.390625 43.40625 
Q 53.515625 45.65625 50.53125 46.671875 
Q 47.5625 47.703125 44 47.703125 
Q 35.59375 47.703125 31.140625 42.421875 
Q 26.703125 37.15625 26.703125 27.203125 
L 26.703125 0 
L 17.671875 0 
L 17.671875 54.6875 
L 26.703125 54.6875 
L 26.703125 44 
Q 28.953125 49.8125 33.609375 52.90625 
Q 38.28125 56 44.671875 56 
Q 48 56 50.875 55.171875 
Q 53.765625 54.34375 56.390625 52.59375 
z
" id="DejaVuSansMono-114"/>
      <path d="M 30.078125 48.390625 
Q 23.25 48.390625 19.734375 43.0625 
Q 16.21875 37.75 16.21875 27.296875 
Q 16.21875 16.890625 19.734375 11.546875 
Q 23.25 6.203125 30.078125 6.203125 
Q 36.96875 6.203125 40.484375 11.546875 
Q 44 16.890625 44 27.296875 
Q 44 37.75 40.484375 43.0625 
Q 36.96875 48.390625 30.078125 48.390625 
z
M 30.078125 56 
Q 41.453125 56 47.484375 48.625 
Q 53.515625 41.265625 53.515625 27.296875 
Q 53.515625 13.28125 47.5 5.921875 
Q 41.5 -1.421875 30.078125 -1.421875 
Q 18.703125 -1.421875 12.6875 5.921875 
Q 6.6875 13.28125 6.6875 27.296875 
Q 6.6875 41.265625 12.6875 48.625 
Q 18.703125 56 30.078125 56 
z
" id="DejaVuSansMono-111"/>
      <path d="M 44.828125 27.296875 
Q 44.828125 37.75 41.5 43.0625 
Q 38.1875 48.390625 31.6875 48.390625 
Q 25.140625 48.390625 21.765625 43.046875 
Q 18.40625 37.703125 18.40625 27.296875 
Q 18.40625 16.9375 21.765625 11.5625 
Q 25.140625 6.203125 31.6875 6.203125 
Q 38.1875 6.203125 41.5 11.515625 
Q 44.828125 16.84375 44.828125 27.296875 
z
M 18.40625 47.703125 
Q 20.5625 51.703125 24.34375 53.84375 
Q 28.125 56 33.109375 56 
Q 42.96875 56 48.625 48.40625 
Q 54.296875 40.828125 54.296875 27.484375 
Q 54.296875 13.96875 48.609375 6.265625 
Q 42.921875 -1.421875 33.015625 -1.421875 
Q 28.125 -1.421875 24.390625 0.703125 
Q 20.65625 2.828125 18.40625 6.890625 
L 18.40625 0 
L 9.421875 0 
L 9.421875 75.984375 
L 18.40625 75.984375 
z
" id="DejaVuSansMono-98"/>
      <path d="M 31.203125 19.828125 
Q 31.203125 13.765625 33.421875 10.6875 
Q 35.640625 7.625 39.984375 7.625 
L 50.484375 7.625 
L 50.484375 0 
L 39.109375 0 
Q 31.0625 0 26.640625 5.171875 
Q 22.21875 10.359375 22.21875 19.828125 
L 22.21875 69.484375 
L 7.8125 69.484375 
L 7.8125 76.515625 
L 31.203125 76.515625 
z
" id="DejaVuSansMono-108"/>
      <path d="M 54.296875 29.59375 
L 54.296875 25.203125 
L 15.375 25.203125 
L 15.375 24.90625 
Q 15.375 15.96875 20.03125 11.078125 
Q 24.703125 6.203125 33.203125 6.203125 
Q 37.5 6.203125 42.1875 7.5625 
Q 46.875 8.9375 52.203125 11.71875 
L 52.203125 2.78125 
Q 47.078125 0.6875 42.3125 -0.359375 
Q 37.546875 -1.421875 33.109375 -1.421875 
Q 20.359375 -1.421875 13.171875 6.21875 
Q 6 13.875 6 27.296875 
Q 6 40.375 13.03125 48.1875 
Q 20.0625 56 31.78125 56 
Q 42.234375 56 48.265625 48.921875 
Q 54.296875 41.84375 54.296875 29.59375 
z
M 45.3125 32.234375 
Q 45.125 40.140625 41.578125 44.265625 
Q 38.03125 48.390625 31.390625 48.390625 
Q 24.90625 48.390625 20.703125 44.09375 
Q 16.5 39.796875 15.71875 32.171875 
z
" id="DejaVuSansMono-101"/>
      <path d="M 33.015625 49.125 
Q 34.671875 52.640625 37.234375 54.3125 
Q 39.796875 56 43.40625 56 
Q 50 56 52.703125 50.890625 
Q 55.421875 45.796875 55.421875 31.6875 
L 55.421875 0 
L 47.21875 0 
L 47.21875 31.296875 
Q 47.21875 42.875 45.921875 45.671875 
Q 44.625 48.484375 41.21875 48.484375 
Q 37.3125 48.484375 35.859375 45.484375 
Q 34.421875 42.484375 34.421875 31.296875 
L 34.421875 0 
L 26.21875 0 
L 26.21875 31.296875 
Q 26.21875 43.015625 24.828125 45.75 
Q 23.4375 48.484375 19.828125 48.484375 
Q 16.265625 48.484375 14.875 45.484375 
Q 13.484375 42.484375 13.484375 31.296875 
L 13.484375 0 
L 5.328125 0 
L 5.328125 54.6875 
L 13.484375 54.6875 
L 13.484375 50 
Q 15.09375 52.9375 17.5 54.46875 
Q 19.921875 56 23 56 
Q 26.703125 56 29.171875 54.296875 
Q 31.640625 52.59375 33.015625 49.125 
z
" id="DejaVuSansMono-109"/>
     </defs>
     <use xlink:href="#DejaVuSansMono-34"/>
     <use x="60.205078" xlink:href="#DejaVuSansMono-51"/>
     <use x="120.410156" xlink:href="#DejaVuSansMono-121"/>
     <use x="180.615234" xlink:href="#DejaVuSansMono-43"/>
     <use x="240.820312" xlink:href="#DejaVuSansMono-49"/>
     <use x="301.025391" xlink:href="#DejaVuSansMono-34"/>
     <use x="361.230469" xlink:href="#DejaVuSansMono-32"/>
     <use x="421.435547" xlink:href="#DejaVuSansMono-112"/>
     <use x="481.640625" xlink:href="#DejaVuSansMono-114"/>
     <use x="541.845703" xlink:href="#DejaVuSansMono-111"/>
     <use x="602.050781" xlink:href="#DejaVuSansMono-98"/>
     <use x="662.255859" xlink:href="#DejaVuSansMono-108"/>
     <use x="722.460938" xlink:href="#DejaVuSansMono-101"/>
     <use x="782.666016" xlink:href="#DejaVuSansMono-109"/>
    </g>
   </g>
   <g id="legend_1">
    <g id="patch_7">
     <path d="M 351.451875 82.0095 
L 450.12 82.0095 
Q 451.32 82.0095 451.32 80.8095 
L 451.32 22.189125 
Q 451.32 20.989125 450.12 20.989125 
L 351.451875 20.989125 
Q 350.251875 20.989125 350.251875 22.189125 
L 350.251875 80.8095 
Q 350.251875 82.0095 351.451875 82.0095 
z
" style="fill:#ffffff;opacity:0.8;stroke:#cccccc;stroke-linejoin:miter;"/>
    </g>
    <g id="line2d_16">
     <path d="M 352.651875 36.889687 
L 364.651875 36.889687 
" style="fill:none;stroke:#1f77b4;stroke-linecap:square;stroke-width:0.666667;"/>
    </g>
    <g id="line2d_17"/>
    <g id="text_17">
     <!-- "Tallest": -->
     <g transform="translate(369.451875 27.980062)scale(0.06 -0.06)">
      <defs>
       <path d="M 2.296875 72.90625 
L 57.90625 72.90625 
L 57.90625 64.59375 
L 35.109375 64.59375 
L 35.109375 0 
L 25.203125 0 
L 25.203125 64.59375 
L 2.296875 64.59375 
z
" id="DejaVuSansMono-84"/>
       <path d="M 34.28125 27.484375 
L 31.296875 27.484375 
Q 23.4375 27.484375 19.453125 24.71875 
Q 15.484375 21.96875 15.484375 16.5 
Q 15.484375 11.578125 18.453125 8.84375 
Q 21.4375 6.109375 26.703125 6.109375 
Q 34.125 6.109375 38.375 11.25 
Q 42.625 16.40625 42.671875 25.484375 
L 42.671875 27.484375 
z
M 51.703125 31.203125 
L 51.703125 0 
L 42.671875 0 
L 42.671875 8.109375 
Q 39.796875 3.21875 35.421875 0.890625 
Q 31.0625 -1.421875 24.8125 -1.421875 
Q 16.453125 -1.421875 11.46875 3.296875 
Q 6.5 8.015625 6.5 15.921875 
Q 6.5 25.046875 12.625 29.78125 
Q 18.75 34.515625 30.609375 34.515625 
L 42.671875 34.515625 
L 42.671875 35.9375 
Q 42.625 42.484375 39.34375 45.4375 
Q 36.078125 48.390625 28.90625 48.390625 
Q 24.3125 48.390625 19.625 47.0625 
Q 14.9375 45.75 10.5 43.21875 
L 10.5 52.203125 
Q 15.484375 54.109375 20.046875 55.046875 
Q 24.609375 56 28.90625 56 
Q 35.6875 56 40.5 54 
Q 45.3125 52 48.296875 48 
Q 50.140625 45.5625 50.921875 41.96875 
Q 51.703125 38.375 51.703125 31.203125 
z
" id="DejaVuSansMono-97"/>
       <path d="M 47.515625 52.78125 
L 47.515625 44 
Q 43.65625 46.234375 39.75 47.359375 
Q 35.84375 48.484375 31.78125 48.484375 
Q 25.6875 48.484375 22.671875 46.5 
Q 19.671875 44.53125 19.671875 40.484375 
Q 19.671875 36.8125 21.921875 35 
Q 24.171875 33.203125 33.109375 31.5 
L 36.71875 30.8125 
Q 43.40625 29.546875 46.84375 25.734375 
Q 50.296875 21.921875 50.296875 15.828125 
Q 50.296875 7.71875 44.53125 3.140625 
Q 38.765625 -1.421875 28.515625 -1.421875 
Q 24.46875 -1.421875 20.015625 -0.5625 
Q 15.578125 0.296875 10.40625 2 
L 10.40625 11.28125 
Q 15.4375 8.6875 20.015625 7.390625 
Q 24.609375 6.109375 28.71875 6.109375 
Q 34.671875 6.109375 37.9375 8.515625 
Q 41.21875 10.9375 41.21875 15.28125 
Q 41.21875 21.53125 29.25 23.921875 
L 28.859375 24.03125 
L 25.484375 24.703125 
Q 17.71875 26.21875 14.15625 29.8125 
Q 10.59375 33.40625 10.59375 39.59375 
Q 10.59375 47.46875 15.90625 51.734375 
Q 21.234375 56 31.109375 56 
Q 35.5 56 39.546875 55.1875 
Q 43.609375 54.390625 47.515625 52.78125 
z
" id="DejaVuSansMono-115"/>
       <path d="M 29.984375 70.21875 
L 29.984375 54.6875 
L 50.390625 54.6875 
L 50.390625 47.703125 
L 29.984375 47.703125 
L 29.984375 18.015625 
Q 29.984375 11.96875 32.28125 9.5625 
Q 34.578125 7.171875 40.28125 7.171875 
L 50.390625 7.171875 
L 50.390625 0 
L 39.40625 0 
Q 29.296875 0 25.140625 4.046875 
Q 21 8.109375 21 18.015625 
L 21 47.703125 
L 6.390625 47.703125 
L 6.390625 54.6875 
L 21 54.6875 
L 21 70.21875 
z
" id="DejaVuSansMono-116"/>
       <path d="M 23.875 51.90625 
L 36.1875 51.90625 
L 36.1875 37.109375 
L 23.875 37.109375 
z
M 23.875 14.890625 
L 36.1875 14.890625 
L 36.1875 0 
L 23.875 0 
z
" id="DejaVuSansMono-58"/>
      </defs>
      <use xlink:href="#DejaVuSansMono-34"/>
      <use x="60.205078" xlink:href="#DejaVuSansMono-84"/>
      <use x="120.410156" xlink:href="#DejaVuSansMono-97"/>
      <use x="180.615234" xlink:href="#DejaVuSansMono-108"/>
      <use x="240.820312" xlink:href="#DejaVuSansMono-108"/>
      <use x="301.025391" xlink:href="#DejaVuSansMono-101"/>
      <use x="361.230469" xlink:href="#DejaVuSansMono-115"/>
      <use x="421.435547" xlink:href="#DejaVuSansMono-116"/>
      <use x="481.640625" xlink:href="#DejaVuSansMono-34"/>
      <use x="541.845703" xlink:href="#DejaVuSansMono-58"/>
     </g>
     <!-- y_0    = 4637979 -->
     <g transform="translate(369.451875 34.737)scale(0.06 -0.06)">
      <defs>
       <path d="M 4.296875 25.59375 
L 55.90625 25.59375 
L 55.90625 17.1875 
L 4.296875 17.1875 
z
M 4.296875 45.40625 
L 55.90625 45.40625 
L 55.90625 37.109375 
L 4.296875 37.109375 
z
" id="DejaVuSansMono-61"/>
      </defs>
      <use xlink:href="#DejaVuSansMono-121"/>
      <use x="60.205078" xlink:href="#DejaVuSansMono-95"/>
      <use x="120.410156" xlink:href="#DejaVuSansMono-48"/>
      <use x="180.615234" xlink:href="#DejaVuSansMono-32"/>
      <use x="240.820312" xlink:href="#DejaVuSansMono-32"/>
      <use x="301.025391" xlink:href="#DejaVuSansMono-32"/>
      <use x="361.230469" xlink:href="#DejaVuSansMono-32"/>
      <use x="421.435547" xlink:href="#DejaVuSansMono-61"/>
      <use x="481.640625" xlink:href="#DejaVuSansMono-32"/>
      <use x="541.845703" xlink:href="#DejaVuSansMono-52"/>
      <use x="602.050781" xlink:href="#DejaVuSansMono-54"/>
      <use x="662.255859" xlink:href="#DejaVuSansMono-51"/>
      <use x="722.460938" xlink:href="#DejaVuSansMono-55"/>
      <use x="782.666016" xlink:href="#DejaVuSansMono-57"/>
      <use x="842.871094" xlink:href="#DejaVuSansMono-55"/>
      <use x="903.076172" xlink:href="#DejaVuSansMono-57"/>
     </g>
     <!-- y_max  = 1318802294932 -->
     <g transform="translate(369.451875 41.660812)scale(0.06 -0.06)">
      <defs>
       <path d="M 54.59375 54.6875 
L 35.015625 28.515625 
L 56.5 0 
L 46.09375 0 
L 30.078125 21.921875 
L 14.109375 0 
L 3.71875 0 
L 25.203125 28.515625 
L 5.609375 54.6875 
L 15.578125 54.6875 
L 30.078125 34.90625 
L 44.484375 54.6875 
z
" id="DejaVuSansMono-120"/>
       <path d="M 30.078125 34.625 
Q 23.484375 34.625 19.890625 30.9375 
Q 16.3125 27.25 16.3125 20.515625 
Q 16.3125 13.765625 19.9375 10.03125 
Q 23.578125 6.296875 30.078125 6.296875 
Q 36.71875 6.296875 40.296875 9.984375 
Q 43.890625 13.671875 43.890625 20.515625 
Q 43.890625 27.203125 40.25 30.90625 
Q 36.625 34.625 30.078125 34.625 
z
M 21.484375 38.71875 
Q 15.1875 40.328125 11.640625 44.71875 
Q 8.109375 49.125 8.109375 55.328125 
Q 8.109375 64.015625 14.015625 69.109375 
Q 19.921875 74.21875 30.078125 74.21875 
Q 40.28125 74.21875 46.1875 69.109375 
Q 52.09375 64.015625 52.09375 55.328125 
Q 52.09375 49.125 48.546875 44.71875 
Q 45.015625 40.328125 38.71875 38.71875 
Q 46.046875 37.109375 49.921875 32.21875 
Q 53.8125 27.34375 53.8125 19.578125 
Q 53.8125 9.71875 47.515625 4.140625 
Q 41.21875 -1.421875 30.078125 -1.421875 
Q 18.953125 -1.421875 12.671875 4.125 
Q 6.390625 9.671875 6.390625 19.484375 
Q 6.390625 27.296875 10.265625 32.203125 
Q 14.15625 37.109375 21.484375 38.71875 
z
M 17.921875 54.390625 
Q 17.921875 48.53125 21.046875 45.453125 
Q 24.171875 42.390625 30.078125 42.390625 
Q 36.03125 42.390625 39.15625 45.453125 
Q 42.28125 48.53125 42.28125 54.390625 
Q 42.28125 60.359375 39.171875 63.484375 
Q 36.078125 66.609375 30.078125 66.609375 
Q 24.171875 66.609375 21.046875 63.453125 
Q 17.921875 60.296875 17.921875 54.390625 
z
" id="DejaVuSansMono-56"/>
      </defs>
      <use xlink:href="#DejaVuSansMono-121"/>
      <use x="60.205078" xlink:href="#DejaVuSansMono-95"/>
      <use x="120.410156" xlink:href="#DejaVuSansMono-109"/>
      <use x="180.615234" xlink:href="#DejaVuSansMono-97"/>
      <use x="240.820312" xlink:href="#DejaVuSansMono-120"/>
      <use x="301.025391" xlink:href="#DejaVuSansMono-32"/>
      <use x="361.230469" xlink:href="#DejaVuSansMono-32"/>
      <use x="421.435547" xlink:href="#DejaVuSansMono-61"/>
      <use x="481.640625" xlink:href="#DejaVuSansMono-32"/>
      <use x="541.845703" xlink:href="#DejaVuSansMono-49"/>
      <use x="602.050781" xlink:href="#DejaVuSansMono-51"/>
      <use x="662.255859" xlink:href="#DejaVuSansMono-49"/>
      <use x="722.460938" xlink:href="#DejaVuSansMono-56"/>
      <use x="782.666016" xlink:href="#DejaVuSansMono-56"/>
      <use x="842.871094" xlink:href="#DejaVuSansMono-48"/>
      <use x="903.076172" xlink:href="#DejaVuSansMono-50"/>
      <use x="963.28125" xlink:href="#DejaVuSansMono-50"/>
      <use x="1023.486328" xlink:href="#DejaVuSansMono-57"/>
      <use x="1083.691406" xlink:href="#DejaVuSansMono-52"/>
      <use x="1143.896484" xlink:href="#DejaVuSansMono-57"/>
      <use x="1204.101562" xlink:href="#DejaVuSansMono-51"/>
      <use x="1264.306641" xlink:href="#DejaVuSansMono-50"/>
     </g>
     <!-- x_max  = 574 -->
     <g transform="translate(369.451875 48.584625)scale(0.06 -0.06)">
      <use xlink:href="#DejaVuSansMono-120"/>
      <use x="60.205078" xlink:href="#DejaVuSansMono-95"/>
      <use x="120.410156" xlink:href="#DejaVuSansMono-109"/>
      <use x="180.615234" xlink:href="#DejaVuSansMono-97"/>
      <use x="240.820312" xlink:href="#DejaVuSansMono-120"/>
      <use x="301.025391" xlink:href="#DejaVuSansMono-32"/>
      <use x="361.230469" xlink:href="#DejaVuSansMono-32"/>
      <use x="421.435547" xlink:href="#DejaVuSansMono-61"/>
      <use x="481.640625" xlink:href="#DejaVuSansMono-32"/>
      <use x="541.845703" xlink:href="#DejaVuSansMono-53"/>
      <use x="602.050781" xlink:href="#DejaVuSansMono-55"/>
      <use x="662.255859" xlink:href="#DejaVuSansMono-52"/>
     </g>
    </g>
    <g id="line2d_18">
     <path d="M 352.651875 66.499875 
L 364.651875 66.499875 
" style="fill:none;stroke:#ff7f0e;stroke-linecap:square;stroke-width:0.666667;"/>
    </g>
    <g id="line2d_19"/>
    <g id="text_18">
     <!-- "Widest":  -->
     <g transform="translate(369.451875 57.59025)scale(0.06 -0.06)">
      <defs>
       <path d="M 0 72.90625 
L 9.625 72.90625 
L 16.609375 13.71875 
L 24.90625 52.875 
L 35.203125 52.875 
L 43.609375 13.625 
L 50.59375 72.90625 
L 60.203125 72.90625 
L 49.3125 0 
L 39.984375 0 
L 30.078125 43.3125 
L 20.21875 0 
L 10.890625 0 
z
" id="DejaVuSansMono-87"/>
       <path d="M 12.5 54.6875 
L 35.5 54.6875 
L 35.5 6.984375 
L 53.328125 6.984375 
L 53.328125 0 
L 8.6875 0 
L 8.6875 6.984375 
L 26.515625 6.984375 
L 26.515625 47.703125 
L 12.5 47.703125 
z
M 26.515625 75.984375 
L 35.5 75.984375 
L 35.5 64.59375 
L 26.515625 64.59375 
z
" id="DejaVuSansMono-105"/>
       <path d="M 41.890625 47.703125 
L 41.890625 75.984375 
L 50.875 75.984375 
L 50.875 0 
L 41.890625 0 
L 41.890625 6.890625 
Q 39.65625 2.828125 35.90625 0.703125 
Q 32.171875 -1.421875 27.296875 -1.421875 
Q 17.390625 -1.421875 11.6875 6.265625 
Q 6 13.96875 6 27.484375 
Q 6 40.828125 11.71875 48.40625 
Q 17.4375 56 27.296875 56 
Q 32.234375 56 35.984375 53.875 
Q 39.75 51.765625 41.890625 47.703125 
z
M 15.484375 27.296875 
Q 15.484375 16.84375 18.796875 11.515625 
Q 22.125 6.203125 28.609375 6.203125 
Q 35.109375 6.203125 38.5 11.5625 
Q 41.890625 16.9375 41.890625 27.296875 
Q 41.890625 37.703125 38.5 43.046875 
Q 35.109375 48.390625 28.609375 48.390625 
Q 22.125 48.390625 18.796875 43.0625 
Q 15.484375 37.75 15.484375 27.296875 
z
" id="DejaVuSansMono-100"/>
      </defs>
      <use xlink:href="#DejaVuSansMono-34"/>
      <use x="60.205078" xlink:href="#DejaVuSansMono-87"/>
      <use x="120.410156" xlink:href="#DejaVuSansMono-105"/>
      <use x="180.615234" xlink:href="#DejaVuSansMono-100"/>
      <use x="240.820312" xlink:href="#DejaVuSansMono-101"/>
      <use x="301.025391" xlink:href="#DejaVuSansMono-115"/>
      <use x="361.230469" xlink:href="#DejaVuSansMono-116"/>
      <use x="421.435547" xlink:href="#DejaVuSansMono-34"/>
      <use x="481.640625" xlink:href="#DejaVuSansMono-58"/>
      <use x="541.845703" xlink:href="#DejaVuSansMono-32"/>
     </g>
     <!-- y_0    = 3732423 -->
     <g transform="translate(369.451875 64.347187)scale(0.06 -0.06)">
      <use xlink:href="#DejaVuSansMono-121"/>
      <use x="60.205078" xlink:href="#DejaVuSansMono-95"/>
      <use x="120.410156" xlink:href="#DejaVuSansMono-48"/>
      <use x="180.615234" xlink:href="#DejaVuSansMono-32"/>
      <use x="240.820312" xlink:href="#DejaVuSansMono-32"/>
      <use x="301.025391" xlink:href="#DejaVuSansMono-32"/>
      <use x="361.230469" xlink:href="#DejaVuSansMono-32"/>
      <use x="421.435547" xlink:href="#DejaVuSansMono-61"/>
      <use x="481.640625" xlink:href="#DejaVuSansMono-32"/>
      <use x="541.845703" xlink:href="#DejaVuSansMono-51"/>
      <use x="602.050781" xlink:href="#DejaVuSansMono-55"/>
      <use x="662.255859" xlink:href="#DejaVuSansMono-51"/>
      <use x="722.460938" xlink:href="#DejaVuSansMono-50"/>
      <use x="782.666016" xlink:href="#DejaVuSansMono-52"/>
      <use x="842.871094" xlink:href="#DejaVuSansMono-50"/>
      <use x="903.076172" xlink:href="#DejaVuSansMono-51"/>
     </g>
     <!-- y_max  = 294475592320 -->
     <g transform="translate(369.451875 71.271)scale(0.06 -0.06)">
      <use xlink:href="#DejaVuSansMono-121"/>
      <use x="60.205078" xlink:href="#DejaVuSansMono-95"/>
      <use x="120.410156" xlink:href="#DejaVuSansMono-109"/>
      <use x="180.615234" xlink:href="#DejaVuSansMono-97"/>
      <use x="240.820312" xlink:href="#DejaVuSansMono-120"/>
      <use x="301.025391" xlink:href="#DejaVuSansMono-32"/>
      <use x="361.230469" xlink:href="#DejaVuSansMono-32"/>
      <use x="421.435547" xlink:href="#DejaVuSansMono-61"/>
      <use x="481.640625" xlink:href="#DejaVuSansMono-32"/>
      <use x="541.845703" xlink:href="#DejaVuSansMono-50"/>
      <use x="602.050781" xlink:href="#DejaVuSansMono-57"/>
      <use x="662.255859" xlink:href="#DejaVuSansMono-52"/>
      <use x="722.460938" xlink:href="#DejaVuSansMono-52"/>
      <use x="782.666016" xlink:href="#DejaVuSansMono-55"/>
      <use x="842.871094" xlink:href="#DejaVuSansMono-53"/>
      <use x="903.076172" xlink:href="#DejaVuSansMono-53"/>
      <use x="963.28125" xlink:href="#DejaVuSansMono-57"/>
      <use x="1023.486328" xlink:href="#DejaVuSansMono-50"/>
      <use x="1083.691406" xlink:href="#DejaVuSansMono-51"/>
      <use x="1143.896484" xlink:href="#DejaVuSansMono-50"/>
      <use x="1204.101562" xlink:href="#DejaVuSansMono-48"/>
     </g>
     <!-- x_max  = 597 -->
     <g transform="translate(369.451875 78.194812)scale(0.06 -0.06)">
      <use xlink:href="#DejaVuSansMono-120"/>
      <use x="60.205078" xlink:href="#DejaVuSansMono-95"/>
      <use x="120.410156" xlink:href="#DejaVuSansMono-109"/>
      <use x="180.615234" xlink:href="#DejaVuSansMono-97"/>
      <use x="240.820312" xlink:href="#DejaVuSansMono-120"/>
      <use x="301.025391" xlink:href="#DejaVuSansMono-32"/>
      <use x="361.230469" xlink:href="#DejaVuSansMono-32"/>
      <use x="421.435547" xlink:href="#DejaVuSansMono-61"/>
      <use x="481.640625" xlink:href="#DejaVuSansMono-32"/>
      <use x="541.845703" xlink:href="#DejaVuSansMono-53"/>
      <use x="602.050781" xlink:href="#DejaVuSansMono-57"/>
      <use x="662.255859" xlink:href="#DejaVuSansMono-55"/>
     </g>
    </g>
   </g>
  </g>
 </g>
 <defs>
  <clipPath id="p964ad0b4b1">
   <rect height="298.453375" width="418.46125" x="35.85875" y="17.989125"/>
  </clipPath>
 </defs>
</svg>
