<?xml version="1.0" encoding="utf-8" standalone="no"?>
<!DOCTYPE svg PUBLIC "-//W3C//DTD SVG 1.1//EN"
  "http://www.w3.org/Graphics/SVG/1.1/DTD/svg11.dtd">
<!-- Created with matplotlib (https://matplotlib.org/) -->
<svg height="345.6pt" version="1.1" viewBox="0 0 460.8 345.6" width="460.8pt" xmlns="http://www.w3.org/2000/svg" xmlns:xlink="http://www.w3.org/1999/xlink">
 <metadata>
  <rdf:RDF xmlns:cc="http://creativecommons.org/ns#" xmlns:dc="http://purl.org/dc/elements/1.1/" xmlns:rdf="http://www.w3.org/1999/02/22-rdf-syntax-ns#">
   <cc:Work>
    <dc:type rdf:resource="http://purl.org/dc/dcmitype/StillImage"/>
    <dc:date>2022-03-17T00:31:41.380130</dc:date>
    <dc:format>image/svg+xml</dc:format>
    <dc:creator>
     <cc:Agent>
      <dc:title>Matplotlib v3.3.2, https://matplotlib.org/</dc:title>
     </cc:Agent>
    </dc:creator>
   </cc:Work>
  </rdf:RDF>
 </metadata>
 <defs>
  <style type="text/css">*{stroke-linecap:butt;stroke-linejoin:round;}</style>
 </defs>
 <g id="figure_1">
  <g id="patch_1">
   <path d="M 0 345.6 
L 460.8 345.6 
L 460.8 0 
L 0 0 
z
" style="fill:#ffffff;"/>
  </g>
  <g id="axes_1">
   <g id="patch_2">
    <path d="M 35.85875 316.4425 
L 454.32 316.4425 
L 454.32 17.989125 
L 35.85875 17.989125 
z
" style="fill:#ffffff;"/>
   </g>
   <g id="matplotlib.axis_1">
    <g id="xtick_1">
     <g id="line2d_1">
      <defs>
       <path d="M 0 0 
L 0 3.5 
" id="meb3d77b599" style="stroke:#000000;stroke-width:0.8;"/>
      </defs>
      <g>
       <use style="stroke:#000000;stroke-width:0.8;" x="54.879716" xlink:href="#meb3d77b599" y="316.4425"/>
      </g>
     </g>
     <g id="text_1">
      <!-- 0 -->
      <g transform="translate(53.073622 328.033437)scale(0.06 -0.06)">
       <defs>
        <path d="M 23.578125 36.625 
Q 23.578125 39.3125 25.453125 41.265625 
Q 27.34375 43.21875 29.984375 43.21875 
Q 32.71875 43.21875 34.671875 41.265625 
Q 36.625 39.3125 36.625 36.625 
Q 36.625 33.890625 34.6875 31.984375 
Q 32.765625 30.078125 29.984375 30.078125 
Q 27.25 30.078125 25.40625 31.9375 
Q 23.578125 33.796875 23.578125 36.625 
z
M 30.078125 66.40625 
Q 23.1875 66.40625 19.796875 58.984375 
Q 16.40625 51.5625 16.40625 36.375 
Q 16.40625 21.234375 19.796875 13.8125 
Q 23.1875 6.390625 30.078125 6.390625 
Q 37.015625 6.390625 40.40625 13.8125 
Q 43.796875 21.234375 43.796875 36.375 
Q 43.796875 51.5625 40.40625 58.984375 
Q 37.015625 66.40625 30.078125 66.40625 
z
M 30.078125 74.21875 
Q 41.75 74.21875 47.734375 64.640625 
Q 53.71875 55.078125 53.71875 36.375 
Q 53.71875 17.71875 47.734375 8.140625 
Q 41.75 -1.421875 30.078125 -1.421875 
Q 18.40625 -1.421875 12.453125 8.140625 
Q 6.5 17.71875 6.5 36.375 
Q 6.5 55.078125 12.453125 64.640625 
Q 18.40625 74.21875 30.078125 74.21875 
z
" id="DejaVuSansMono-48"/>
       </defs>
       <use xlink:href="#DejaVuSansMono-48"/>
      </g>
     </g>
    </g>
    <g id="xtick_2">
     <g id="line2d_2">
      <g>
       <use style="stroke:#000000;stroke-width:0.8;" x="117.039735" xlink:href="#meb3d77b599" y="316.4425"/>
      </g>
     </g>
     <g id="text_2">
      <!-- 100 -->
      <g transform="translate(111.621454 328.033437)scale(0.06 -0.06)">
       <defs>
        <path d="M 13.1875 8.296875 
L 28.515625 8.296875 
L 28.515625 64.015625 
L 12.015625 60.296875 
L 12.015625 69.28125 
L 28.421875 72.90625 
L 38.28125 72.90625 
L 38.28125 8.296875 
L 53.421875 8.296875 
L 53.421875 0 
L 13.1875 0 
z
" id="DejaVuSansMono-49"/>
       </defs>
       <use xlink:href="#DejaVuSansMono-49"/>
       <use x="60.205078" xlink:href="#DejaVuSansMono-48"/>
       <use x="120.410156" xlink:href="#DejaVuSansMono-48"/>
      </g>
     </g>
    </g>
    <g id="xtick_3">
     <g id="line2d_3">
      <g>
       <use style="stroke:#000000;stroke-width:0.8;" x="179.199755" xlink:href="#meb3d77b599" y="316.4425"/>
      </g>
     </g>
     <g id="text_3">
      <!-- 200 -->
      <g transform="translate(173.781473 328.033437)scale(0.06 -0.06)">
       <defs>
        <path d="M 18.21875 8.296875 
L 51.703125 8.296875 
L 51.703125 0 
L 7.421875 0 
L 7.421875 8.296875 
Q 16.546875 17.921875 23.375 25.296875 
Q 30.21875 32.671875 32.8125 35.6875 
Q 37.703125 41.65625 39.40625 45.34375 
Q 41.109375 49.03125 41.109375 52.875 
Q 41.109375 58.984375 37.515625 62.453125 
Q 33.9375 65.921875 27.6875 65.921875 
Q 23.25 65.921875 18.359375 64.3125 
Q 13.484375 62.703125 8.015625 59.421875 
L 8.015625 69.390625 
Q 13.03125 71.78125 17.890625 73 
Q 22.75 74.21875 27.484375 74.21875 
Q 38.1875 74.21875 44.703125 68.53125 
Q 51.21875 62.84375 51.21875 53.609375 
Q 51.21875 48.921875 49.046875 44.234375 
Q 46.875 39.546875 42 33.890625 
Q 39.265625 30.71875 34.0625 25.09375 
Q 28.859375 19.484375 18.21875 8.296875 
z
" id="DejaVuSansMono-50"/>
       </defs>
       <use xlink:href="#DejaVuSansMono-50"/>
       <use x="60.205078" xlink:href="#DejaVuSansMono-48"/>
       <use x="120.410156" xlink:href="#DejaVuSansMono-48"/>
      </g>
     </g>
    </g>
    <g id="xtick_4">
     <g id="line2d_4">
      <g>
       <use style="stroke:#000000;stroke-width:0.8;" x="241.359774" xlink:href="#meb3d77b599" y="316.4425"/>
      </g>
     </g>
     <g id="text_4">
      <!-- 300 -->
      <g transform="translate(235.941493 328.033437)scale(0.06 -0.06)">
       <defs>
        <path d="M 37.890625 39.015625 
Q 45.0625 37.109375 48.875 32.25 
Q 52.6875 27.390625 52.6875 20.125 
Q 52.6875 10.0625 45.921875 4.3125 
Q 39.15625 -1.421875 27.203125 -1.421875 
Q 22.171875 -1.421875 16.9375 -0.484375 
Q 11.71875 0.4375 6.6875 2.203125 
L 6.6875 12.015625 
Q 11.671875 9.421875 16.5 8.15625 
Q 21.34375 6.890625 26.125 6.890625 
Q 34.234375 6.890625 38.578125 10.546875 
Q 42.921875 14.203125 42.921875 21.09375 
Q 42.921875 27.4375 38.578125 31.171875 
Q 34.234375 34.90625 26.8125 34.90625 
L 19.28125 34.90625 
L 19.28125 43.015625 
L 26.8125 43.015625 
Q 33.59375 43.015625 37.40625 45.984375 
Q 41.21875 48.96875 41.21875 54.296875 
Q 41.21875 59.90625 37.671875 62.90625 
Q 34.125 65.921875 27.59375 65.921875 
Q 23.25 65.921875 18.609375 64.9375 
Q 13.96875 63.96875 8.890625 62.015625 
L 8.890625 71.09375 
Q 14.796875 72.65625 19.40625 73.4375 
Q 24.03125 74.21875 27.59375 74.21875 
Q 38.234375 74.21875 44.609375 68.875 
Q 50.984375 63.53125 50.984375 54.6875 
Q 50.984375 48.6875 47.625 44.671875 
Q 44.28125 40.671875 37.890625 39.015625 
z
" id="DejaVuSansMono-51"/>
       </defs>
       <use xlink:href="#DejaVuSansMono-51"/>
       <use x="60.205078" xlink:href="#DejaVuSansMono-48"/>
       <use x="120.410156" xlink:href="#DejaVuSansMono-48"/>
      </g>
     </g>
    </g>
    <g id="xtick_5">
     <g id="line2d_5">
      <g>
       <use style="stroke:#000000;stroke-width:0.8;" x="303.519793" xlink:href="#meb3d77b599" y="316.4425"/>
      </g>
     </g>
     <g id="text_5">
      <!-- 400 -->
      <g transform="translate(298.101512 328.033437)scale(0.06 -0.06)">
       <defs>
        <path d="M 35.890625 63.921875 
L 12.890625 25.390625 
L 35.890625 25.390625 
z
M 34.28125 72.90625 
L 45.703125 72.90625 
L 45.703125 25.390625 
L 55.421875 25.390625 
L 55.421875 17.390625 
L 45.703125 17.390625 
L 45.703125 0 
L 35.890625 0 
L 35.890625 17.390625 
L 4.984375 17.390625 
L 4.984375 26.703125 
z
" id="DejaVuSansMono-52"/>
       </defs>
       <use xlink:href="#DejaVuSansMono-52"/>
       <use x="60.205078" xlink:href="#DejaVuSansMono-48"/>
       <use x="120.410156" xlink:href="#DejaVuSansMono-48"/>
      </g>
     </g>
    </g>
    <g id="xtick_6">
     <g id="line2d_6">
      <g>
       <use style="stroke:#000000;stroke-width:0.8;" x="365.679812" xlink:href="#meb3d77b599" y="316.4425"/>
      </g>
     </g>
     <g id="text_6">
      <!-- 500 -->
      <g transform="translate(360.261531 328.033437)scale(0.06 -0.06)">
       <defs>
        <path d="M 10.109375 72.90625 
L 47.015625 72.90625 
L 47.015625 64.59375 
L 19.09375 64.59375 
L 19.09375 46.6875 
Q 21.1875 47.46875 23.3125 47.828125 
Q 25.4375 48.1875 27.59375 48.1875 
Q 38.921875 48.1875 45.5625 41.5 
Q 52.203125 34.8125 52.203125 23.390625 
Q 52.203125 11.859375 45.234375 5.21875 
Q 38.28125 -1.421875 26.21875 -1.421875 
Q 20.40625 -1.421875 15.59375 -0.640625 
Q 10.796875 0.140625 6.984375 1.703125 
L 6.984375 11.71875 
Q 11.46875 9.28125 16.015625 8.078125 
Q 20.5625 6.890625 25.296875 6.890625 
Q 33.453125 6.890625 37.859375 11.1875 
Q 42.28125 15.484375 42.28125 23.390625 
Q 42.28125 31.203125 37.71875 35.546875 
Q 33.15625 39.890625 25 39.890625 
Q 21.046875 39.890625 17.28125 38.984375 
Q 13.53125 38.09375 10.109375 36.28125 
z
" id="DejaVuSansMono-53"/>
       </defs>
       <use xlink:href="#DejaVuSansMono-53"/>
       <use x="60.205078" xlink:href="#DejaVuSansMono-48"/>
       <use x="120.410156" xlink:href="#DejaVuSansMono-48"/>
      </g>
     </g>
    </g>
    <g id="xtick_7">
     <g id="line2d_7">
      <g>
       <use style="stroke:#000000;stroke-width:0.8;" x="427.839832" xlink:href="#meb3d77b599" y="316.4425"/>
      </g>
     </g>
     <g id="text_7">
      <!-- 600 -->
      <g transform="translate(422.421551 328.033437)scale(0.06 -0.06)">
       <defs>
        <path d="M 48.390625 71.296875 
L 48.390625 62.203125 
Q 45.3125 64.015625 41.84375 64.96875 
Q 38.375 65.921875 34.625 65.921875 
Q 25.25 65.921875 20.40625 58.859375 
Q 15.578125 51.8125 15.578125 38.09375 
Q 17.921875 42.96875 22.0625 45.578125 
Q 26.21875 48.1875 31.59375 48.1875 
Q 42.140625 48.1875 47.921875 41.71875 
Q 53.71875 35.25 53.71875 23.390625 
Q 53.71875 11.578125 47.75 5.078125 
Q 41.796875 -1.421875 31 -1.421875 
Q 18.3125 -1.421875 12.40625 7.6875 
Q 6.5 16.796875 6.5 36.375 
Q 6.5 54.828125 13.59375 64.515625 
Q 20.703125 74.21875 34.1875 74.21875 
Q 37.796875 74.21875 41.40625 73.453125 
Q 45.015625 72.703125 48.390625 71.296875 
z
M 30.8125 40.484375 
Q 24.515625 40.484375 20.890625 35.9375 
Q 17.28125 31.390625 17.28125 23.390625 
Q 17.28125 15.375 20.890625 10.828125 
Q 24.515625 6.296875 30.8125 6.296875 
Q 37.359375 6.296875 40.671875 10.609375 
Q 44 14.9375 44 23.390625 
Q 44 31.890625 40.671875 36.1875 
Q 37.359375 40.484375 30.8125 40.484375 
z
" id="DejaVuSansMono-54"/>
       </defs>
       <use xlink:href="#DejaVuSansMono-54"/>
       <use x="60.205078" xlink:href="#DejaVuSansMono-48"/>
       <use x="120.410156" xlink:href="#DejaVuSansMono-48"/>
      </g>
     </g>
    </g>
    <g id="text_8">
     <!-- n -->
     <g transform="translate(243.283281 337.872187)scale(0.06 -0.06)">
      <defs>
       <path d="M 51.3125 33.890625 
L 51.3125 0 
L 42.28125 0 
L 42.28125 33.890625 
Q 42.28125 41.265625 39.6875 44.71875 
Q 37.109375 48.1875 31.59375 48.1875 
Q 25.296875 48.1875 21.890625 43.71875 
Q 18.5 39.265625 18.5 30.90625 
L 18.5 0 
L 9.515625 0 
L 9.515625 54.6875 
L 18.5 54.6875 
L 18.5 46.484375 
Q 20.90625 51.171875 25 53.578125 
Q 29.109375 56 34.71875 56 
Q 43.0625 56 47.1875 50.5 
Q 51.3125 45.015625 51.3125 33.890625 
z
" id="DejaVuSansMono-110"/>
      </defs>
      <use xlink:href="#DejaVuSansMono-110"/>
     </g>
    </g>
   </g>
   <g id="matplotlib.axis_2">
    <g id="ytick_1">
     <g id="line2d_8">
      <defs>
       <path d="M 0 0 
L -3.5 0 
" id="m0908733c98" style="stroke:#000000;stroke-width:0.8;"/>
      </defs>
      <g>
       <use style="stroke:#000000;stroke-width:0.8;" x="35.85875" xlink:href="#m0908733c98" y="281.480957"/>
      </g>
     </g>
     <g id="text_9">
      <!-- $\mathdefault{10^{1}}$ -->
      <g transform="translate(18.83875 283.776425)scale(0.06 -0.06)">
       <use transform="translate(0 0.684375)" xlink:href="#DejaVuSansMono-49"/>
       <use transform="translate(60.205078 0.684375)" xlink:href="#DejaVuSansMono-48"/>
       <use transform="translate(121.367188 38.965625)scale(0.7)" xlink:href="#DejaVuSansMono-49"/>
      </g>
     </g>
    </g>
    <g id="ytick_2">
     <g id="line2d_9">
      <g>
       <use style="stroke:#000000;stroke-width:0.8;" x="35.85875" xlink:href="#m0908733c98" y="238.689995"/>
      </g>
     </g>
     <g id="text_10">
      <!-- $\mathdefault{10^{3}}$ -->
      <g transform="translate(18.83875 240.985463)scale(0.06 -0.06)">
       <use transform="translate(0 0.765625)" xlink:href="#DejaVuSansMono-49"/>
       <use transform="translate(60.205078 0.765625)" xlink:href="#DejaVuSansMono-48"/>
       <use transform="translate(121.367188 39.046875)scale(0.7)" xlink:href="#DejaVuSansMono-51"/>
      </g>
     </g>
    </g>
    <g id="ytick_3">
     <g id="line2d_10">
      <g>
       <use style="stroke:#000000;stroke-width:0.8;" x="35.85875" xlink:href="#m0908733c98" y="195.899033"/>
      </g>
     </g>
     <g id="text_11">
      <!-- $\mathdefault{10^{5}}$ -->
      <g transform="translate(18.83875 198.194501)scale(0.06 -0.06)">
       <use transform="translate(0 0.684375)" xlink:href="#DejaVuSansMono-49"/>
       <use transform="translate(60.205078 0.684375)" xlink:href="#DejaVuSansMono-48"/>
       <use transform="translate(121.367188 38.965625)scale(0.7)" xlink:href="#DejaVuSansMono-53"/>
      </g>
     </g>
    </g>
    <g id="ytick_4">
     <g id="line2d_11">
      <g>
       <use style="stroke:#000000;stroke-width:0.8;" x="35.85875" xlink:href="#m0908733c98" y="153.108071"/>
      </g>
     </g>
     <g id="text_12">
      <!-- $\mathdefault{10^{7}}$ -->
      <g transform="translate(18.83875 155.403539)scale(0.06 -0.06)">
       <defs>
        <path d="M 6.78125 72.90625 
L 52.6875 72.90625 
L 52.6875 68.703125 
L 26.609375 0 
L 16.3125 0 
L 41.703125 64.59375 
L 6.78125 64.59375 
z
" id="DejaVuSansMono-55"/>
       </defs>
       <use transform="translate(0 0.684375)" xlink:href="#DejaVuSansMono-49"/>
       <use transform="translate(60.205078 0.684375)" xlink:href="#DejaVuSansMono-48"/>
       <use transform="translate(121.367188 38.965625)scale(0.7)" xlink:href="#DejaVuSansMono-55"/>
      </g>
     </g>
    </g>
    <g id="ytick_5">
     <g id="line2d_12">
      <g>
       <use style="stroke:#000000;stroke-width:0.8;" x="35.85875" xlink:href="#m0908733c98" y="110.317109"/>
      </g>
     </g>
     <g id="text_13">
      <!-- $\mathdefault{10^{9}}$ -->
      <g transform="translate(18.83875 112.612577)scale(0.06 -0.06)">
       <defs>
        <path d="M 29.109375 32.328125 
Q 35.40625 32.328125 38.984375 36.859375 
Q 42.578125 41.40625 42.578125 49.421875 
Q 42.578125 57.421875 38.984375 61.953125 
Q 35.40625 66.5 29.109375 66.5 
Q 22.5625 66.5 19.234375 62.171875 
Q 15.921875 57.859375 15.921875 49.421875 
Q 15.921875 40.921875 19.21875 36.625 
Q 22.515625 32.328125 29.109375 32.328125 
z
M 11.53125 1.515625 
L 11.53125 10.59375 
Q 14.59375 8.796875 18.0625 7.84375 
Q 21.53125 6.890625 25.296875 6.890625 
Q 34.671875 6.890625 39.46875 13.9375 
Q 44.28125 21 44.28125 34.71875 
Q 42 29.828125 37.84375 27.21875 
Q 33.6875 24.609375 28.328125 24.609375 
Q 17.78125 24.609375 11.984375 31.09375 
Q 6.203125 37.59375 6.203125 49.515625 
Q 6.203125 61.28125 12.125 67.75 
Q 18.0625 74.21875 28.90625 74.21875 
Q 41.609375 74.21875 47.515625 65.078125 
Q 53.421875 55.953125 53.421875 36.375 
Q 53.421875 17.96875 46.3125 8.265625 
Q 39.203125 -1.421875 25.6875 -1.421875 
Q 22.125 -1.421875 18.5 -0.65625 
Q 14.890625 0.09375 11.53125 1.515625 
z
" id="DejaVuSansMono-57"/>
       </defs>
       <use transform="translate(0 0.765625)" xlink:href="#DejaVuSansMono-49"/>
       <use transform="translate(60.205078 0.765625)" xlink:href="#DejaVuSansMono-48"/>
       <use transform="translate(121.367188 39.046875)scale(0.7)" xlink:href="#DejaVuSansMono-57"/>
      </g>
     </g>
    </g>
    <g id="ytick_6">
     <g id="line2d_13">
      <g>
       <use style="stroke:#000000;stroke-width:0.8;" x="35.85875" xlink:href="#m0908733c98" y="67.526147"/>
      </g>
     </g>
     <g id="text_14">
      <!-- $\mathdefault{10^{11}}$ -->
      <g transform="translate(16.31875 69.821615)scale(0.06 -0.06)">
       <use transform="translate(0 0.684375)" xlink:href="#DejaVuSansMono-49"/>
       <use transform="translate(60.205078 0.684375)" xlink:href="#DejaVuSansMono-48"/>
       <use transform="translate(121.367188 38.965625)scale(0.7)" xlink:href="#DejaVuSansMono-49"/>
       <use transform="translate(163.510742 38.965625)scale(0.7)" xlink:href="#DejaVuSansMono-49"/>
      </g>
     </g>
    </g>
    <g id="ytick_7">
     <g id="line2d_14">
      <g>
       <use style="stroke:#000000;stroke-width:0.8;" x="35.85875" xlink:href="#m0908733c98" y="24.735185"/>
      </g>
     </g>
     <g id="text_15">
      <!-- $\mathdefault{10^{13}}$ -->
      <g transform="translate(16.31875 27.030653)scale(0.06 -0.06)">
       <use transform="translate(0 0.765625)" xlink:href="#DejaVuSansMono-49"/>
       <use transform="translate(60.205078 0.765625)" xlink:href="#DejaVuSansMono-48"/>
       <use transform="translate(121.367188 39.046875)scale(0.7)" xlink:href="#DejaVuSansMono-49"/>
       <use transform="translate(163.510742 39.046875)scale(0.7)" xlink:href="#DejaVuSansMono-51"/>
      </g>
     </g>
    </g>
    <g id="text_16">
     <!-- y_n -->
     <g transform="translate(10.904063 172.634094)rotate(-90)scale(0.06 -0.06)">
      <defs>
       <path d="M 41.890625 17.578125 
Q 39.65625 11.859375 36.1875 2.546875 
Q 31.34375 -10.359375 29.6875 -13.1875 
Q 27.4375 -17 24.0625 -18.890625 
Q 20.703125 -20.796875 16.21875 -20.796875 
L 8.984375 -20.796875 
L 8.984375 -13.28125 
L 14.3125 -13.28125 
Q 18.265625 -13.28125 20.5 -10.984375 
Q 22.75 -8.6875 26.21875 0.875 
L 5.078125 54.6875 
L 14.59375 54.6875 
L 30.8125 11.921875 
L 46.78125 54.6875 
L 56.296875 54.6875 
z
" id="DejaVuSansMono-121"/>
       <path d="M 60.203125 -19.671875 
L 60.203125 -23.578125 
L 0 -23.578125 
L 0 -19.671875 
z
" id="DejaVuSansMono-95"/>
      </defs>
      <use xlink:href="#DejaVuSansMono-121"/>
      <use x="60.205078" xlink:href="#DejaVuSansMono-95"/>
      <use x="120.410156" xlink:href="#DejaVuSansMono-110"/>
     </g>
    </g>
   </g>
   <g id="line2d_15">
    <path clip-path="url(#p989aef85bc)" d="M 54.879716 157.23084 
L 55.501316 147.022601 
L 56.122916 153.463282 
L 56.744516 143.255043 
L 57.366117 149.695725 
L 57.987717 139.487486 
L 58.609317 145.928168 
L 59.230917 135.719929 
L 60.474118 148.601292 
L 61.095718 138.393053 
L 61.717318 144.833734 
L 62.338918 134.625496 
L 62.960518 141.066177 
L 63.582119 130.857938 
L 64.203719 137.29862 
L 64.825319 127.090381 
L 65.446919 133.531063 
L 66.068519 123.322824 
L 67.31172 136.204187 
L 67.93332 125.995948 
L 68.55492 132.43663 
L 69.17652 122.228391 
L 70.419721 135.109754 
L 71.041321 124.901515 
L 71.662921 131.342197 
L 72.284521 121.133958 
L 72.906122 127.57464 
L 73.527722 117.366401 
L 74.149322 123.807082 
L 74.770922 113.598844 
L 75.392522 120.039525 
L 76.014122 109.831286 
L 76.635723 116.271968 
L 77.257323 106.063729 
L 77.878923 112.504411 
L 78.500523 102.296172 
L 79.122123 108.736854 
L 79.743724 98.528615 
L 80.986924 111.409978 
L 81.608524 101.201739 
L 82.230124 107.642421 
L 82.851725 97.434182 
L 83.473325 103.874864 
L 84.094925 93.666625 
L 84.716525 100.107306 
L 85.338125 89.899068 
L 85.959726 96.339749 
L 86.581326 86.13151 
L 87.202926 92.572192 
L 87.824526 82.363953 
L 88.446126 88.804635 
L 89.067727 78.596396 
L 90.310927 91.477759 
L 90.932527 81.26952 
L 91.554127 87.710202 
L 92.175727 77.501963 
L 92.797328 83.942645 
L 93.418928 73.734406 
L 94.662128 86.615769 
L 95.283728 76.40753 
L 95.905329 82.848212 
L 96.526929 72.639973 
L 97.148529 79.080655 
L 97.770129 68.872416 
L 98.391729 75.313098 
L 99.01333 65.104859 
L 99.63493 71.54554 
L 100.25653 61.337302 
L 101.49973 74.218665 
L 102.121331 64.010426 
L 102.742931 70.451108 
L 103.364531 60.242869 
L 103.986131 66.68355 
L 104.607731 56.475312 
L 105.229332 62.915993 
L 105.850932 52.707754 
L 106.472532 59.148436 
L 107.094132 48.940197 
L 108.337333 61.82156 
L 108.958933 51.613322 
L 109.580533 58.054003 
L 110.202133 47.845764 
L 111.445333 60.727128 
L 112.066934 50.518889 
L 112.688534 56.95957 
L 113.310134 46.751332 
L 115.796535 72.514058 
L 116.418135 62.305819 
L 117.039735 68.746501 
L 117.661335 58.538262 
L 118.282936 64.978943 
L 118.904536 54.770705 
L 120.769336 74.092749 
L 121.390937 63.884511 
L 122.012537 70.325192 
L 122.634137 60.116953 
L 123.877337 72.998317 
L 124.498938 62.790078 
L 125.120538 69.230759 
L 125.742138 59.022521 
L 126.363738 65.463202 
L 126.985338 55.254963 
L 127.606939 61.695645 
L 128.228539 51.487406 
L 128.850139 57.928088 
L 129.471739 47.719849 
L 130.093339 54.160531 
L 130.714939 43.952292 
L 131.33654 50.392973 
L 131.95814 40.184735 
L 132.57974 46.625416 
L 133.20134 36.417178 
L 133.82294 42.857859 
L 134.444541 32.64962 
L 135.687741 45.530983 
L 136.309341 35.322745 
L 136.930941 41.763426 
L 137.552542 31.555187 
L 139.417342 50.877232 
L 140.038942 40.668993 
L 140.660543 47.109675 
L 141.282143 36.901436 
L 142.525343 49.782799 
L 143.146943 39.574561 
L 143.768544 46.015242 
L 144.390144 35.807003 
L 145.633344 48.688367 
L 146.254944 38.480128 
L 148.119745 57.802172 
L 148.741345 47.593934 
L 151.227746 73.35666 
L 151.849346 63.148421 
L 154.335747 88.911147 
L 154.957347 78.702909 
L 156.822148 98.024953 
L 157.443748 87.816715 
L 160.551749 120.020122 
L 161.173349 109.811884 
L 161.794949 116.252565 
L 162.416549 106.044326 
L 163.65975 118.925689 
L 164.28135 108.717451 
L 166.767751 134.480177 
L 167.389351 124.271938 
L 168.010951 130.71262 
L 168.632551 120.504381 
L 169.875752 133.385744 
L 170.497352 123.177505 
L 171.118952 129.618187 
L 171.740552 119.409948 
L 172.983753 132.291311 
L 173.605353 122.083072 
L 174.848553 134.964435 
L 175.470153 124.756197 
L 177.956554 150.518923 
L 178.578154 140.310684 
L 179.199755 146.751365 
L 179.821355 136.543127 
L 180.442955 142.983808 
L 181.064555 132.775569 
L 181.686155 139.216251 
L 182.307755 129.008012 
L 182.929356 135.448694 
L 183.550956 125.240455 
L 184.172556 131.681136 
L 184.794156 121.472898 
L 186.037357 134.354261 
L 186.658957 124.146022 
L 187.902157 137.027385 
L 188.523757 126.819146 
L 189.766958 139.700509 
L 190.388558 129.492271 
L 191.010158 135.932952 
L 191.631758 125.724713 
L 193.496559 145.046758 
L 194.118159 134.838519 
L 197.22616 167.041927 
L 197.84776 156.833687 
L 198.469361 163.274368 
L 199.090961 153.066129 
L 200.955761 172.388173 
L 201.577361 162.179932 
L 202.198962 168.620614 
L 202.820562 158.412373 
L 203.442162 164.853055 
L 204.063762 154.644815 
L 205.306963 167.526178 
L 205.928563 157.317938 
L 206.550163 163.758619 
L 207.171763 153.55038 
L 207.793363 159.991061 
L 208.414964 149.782822 
L 209.658164 162.664185 
L 210.279764 152.455945 
L 212.144565 171.77799 
L 212.766165 161.569749 
L 213.387765 168.01043 
L 214.009365 157.80219 
L 214.630966 164.242872 
L 215.252566 154.034632 
L 215.874166 160.475314 
L 216.495766 150.267074 
L 218.360567 169.589119 
L 218.982167 159.380878 
L 219.603767 165.82156 
L 220.225367 155.61332 
L 221.468568 168.494683 
L 222.090168 158.286443 
L 222.711768 164.727124 
L 223.333368 154.518884 
L 223.954968 160.959566 
L 224.576569 150.751326 
L 225.198169 157.192008 
L 225.819769 146.983769 
L 226.441369 153.42445 
L 227.062969 143.216211 
L 227.68457 149.656893 
L 228.30617 139.448654 
L 229.54937 152.330017 
L 230.17097 142.121778 
L 230.792571 148.562459 
L 231.414171 138.354221 
L 232.035771 144.794902 
L 232.657371 134.586663 
L 234.522172 153.908708 
L 235.143772 143.700469 
L 235.765372 150.14115 
L 236.386972 139.932911 
L 237.008572 146.373593 
L 237.630173 136.165354 
L 238.251773 142.606036 
L 238.873373 132.397797 
L 239.494973 138.838478 
L 240.116573 128.630239 
L 241.359774 141.511603 
L 241.981374 131.303364 
L 242.602974 137.744045 
L 243.224574 127.535807 
L 244.467775 140.41717 
L 245.089375 130.208931 
L 245.710975 136.649612 
L 246.332575 126.441374 
L 247.575776 139.322737 
L 248.197376 129.114498 
L 248.818976 135.555179 
L 249.440576 125.346941 
L 250.062177 131.787622 
L 250.683777 121.579383 
L 253.170178 147.34211 
L 253.791778 137.133871 
L 254.413378 143.574552 
L 255.034978 133.366313 
L 258.142979 165.569721 
L 258.764579 155.361481 
L 260.00778 168.242844 
L 260.62938 158.034604 
L 261.25098 164.475286 
L 261.87258 154.267046 
L 264.980581 186.470454 
L 265.602181 176.262204 
L 266.223782 182.702885 
L 266.845382 172.494639 
L 267.466982 178.93532 
L 268.088582 168.727077 
L 268.710182 175.167758 
L 269.331783 164.959516 
L 271.818183 190.722242 
L 272.439783 180.513986 
L 274.926184 206.276712 
L 275.547784 196.068379 
L 276.169385 202.50906 
L 276.790985 192.300759 
L 278.034185 205.182122 
L 278.655785 194.973799 
L 279.277386 201.41448 
L 279.898986 191.206185 
L 280.520586 197.646867 
L 281.142186 187.438591 
L 283.628587 213.201317 
L 284.250187 202.992879 
L 284.871787 209.433561 
L 285.493388 199.225189 
L 286.114988 205.66587 
L 286.736588 195.457543 
L 287.358188 201.898225 
L 287.979788 191.689927 
L 289.222989 204.57129 
L 289.844589 194.362972 
L 291.709389 213.685017 
L 292.33099 203.476568 
L 292.95259 209.91725 
L 293.57419 199.708871 
L 294.81739 212.590234 
L 295.438991 202.381809 
L 296.060591 208.82249 
L 296.682191 198.614127 
L 297.303791 205.054809 
L 297.925391 194.846487 
L 298.546992 201.287169 
L 299.168592 191.078875 
L 301.033392 210.400919 
L 301.654993 200.192533 
L 302.276593 206.633215 
L 302.898193 196.424877 
L 303.519793 202.865559 
L 304.141393 192.657255 
L 305.384594 205.538618 
L 306.006194 195.330292 
L 307.870995 214.652336 
L 308.492595 204.443865 
L 309.735795 217.325228 
L 310.357395 207.116678 
L 310.978995 213.55736 
L 311.600596 203.348914 
L 312.222196 209.789595 
L 312.843796 199.581218 
L 313.465396 206.0219 
L 314.086996 195.813569 
L 315.330197 208.694932 
L 315.951797 198.486571 
L 316.573397 204.927252 
L 317.194997 194.718932 
L 317.816598 201.159613 
L 318.438198 190.95132 
L 319.059798 197.392002 
L 319.681398 187.183727 
L 322.167799 212.946453 
L 322.789399 202.73802 
L 323.410999 209.178702 
L 324.0326 198.970333 
L 324.6542 205.411015 
L 325.2758 195.20269 
L 325.8974 201.643372 
L 326.519 191.435075 
L 327.1406 197.875757 
L 327.762201 187.66748 
L 330.248601 213.430206 
L 330.870202 203.221763 
L 333.978203 235.425171 
L 334.599803 225.214753 
L 336.464603 244.536797 
L 337.086204 234.322749 
L 340.815805 272.966839 
L 341.437405 262.635526 
L 342.680605 275.516889 
L 343.302206 265.147047 
L 343.923806 271.587729 
L 344.545406 261.273295 
L 346.410206 280.59534 
L 347.031807 270.109709 
L 347.653407 276.550391 
L 348.275007 266.161721 
L 349.518207 279.043084 
L 350.139808 268.599593 
L 352.004608 287.921638 
L 352.626208 277.113711 
L 355.112609 302.876437 
L 355.112609 302.876437 
" style="fill:none;stroke:#1f77b4;stroke-linecap:square;stroke-width:0.666667;"/>
   </g>
   <g id="line2d_16">
    <path clip-path="url(#p989aef85bc)" d="M 54.879716 158.413937 
L 55.501316 148.205698 
L 56.122916 154.646379 
L 56.744516 144.43814 
L 57.987717 157.319503 
L 58.609317 147.111264 
L 59.230917 153.551946 
L 59.852517 143.343707 
L 60.474118 149.784388 
L 61.095718 139.576149 
L 62.338918 152.457512 
L 62.960518 142.249273 
L 63.582119 148.689955 
L 64.203719 138.481716 
L 64.825319 144.922398 
L 65.446919 134.714159 
L 66.69012 147.595522 
L 67.31172 137.387283 
L 67.93332 143.827964 
L 68.55492 133.619726 
L 69.17652 140.060407 
L 69.798121 129.852168 
L 70.419721 136.29285 
L 71.041321 126.084611 
L 71.662921 132.525293 
L 72.284521 122.317054 
L 72.906122 128.757735 
L 73.527722 118.549497 
L 74.149322 124.990178 
L 74.770922 114.781939 
L 76.014122 127.663303 
L 76.635723 117.455064 
L 77.257323 123.895745 
L 77.878923 113.687507 
L 79.743724 133.009551 
L 80.365324 122.801313 
L 80.986924 129.241994 
L 81.608524 119.033755 
L 82.851725 131.915118 
L 83.473325 121.70688 
L 84.094925 128.147561 
L 84.716525 117.939322 
L 85.959726 130.820686 
L 86.581326 120.612447 
L 87.202926 127.053128 
L 87.824526 116.84489 
L 89.067727 129.726253 
L 89.689327 119.518014 
L 90.310927 125.958695 
L 90.932527 115.750457 
L 91.554127 122.191138 
L 92.175727 111.982899 
L 93.418928 124.864263 
L 94.040528 114.656024 
L 94.662128 121.096705 
L 95.283728 110.888467 
L 96.526929 123.76983 
L 97.148529 113.561591 
L 99.01333 132.883636 
L 99.63493 122.675397 
L 100.87813 135.55676 
L 101.49973 125.348521 
L 102.121331 131.789203 
L 102.742931 121.580964 
L 104.607731 140.903009 
L 105.229332 130.69477 
L 105.850932 137.135451 
L 106.472532 126.927213 
L 107.094132 133.367894 
L 107.715732 123.159655 
L 108.337333 129.600337 
L 108.958933 119.392098 
L 111.445333 145.154824 
L 112.066934 134.946585 
L 113.931734 154.26863 
L 114.553334 144.060391 
L 115.174935 150.501073 
L 115.796535 140.292834 
L 116.418135 146.733515 
L 117.039735 136.525276 
L 117.661335 142.965958 
L 118.282936 132.757719 
L 118.904536 139.198401 
L 119.526136 128.990162 
L 120.147736 135.430843 
L 120.769336 125.222604 
L 121.390937 131.663286 
L 122.012537 121.455047 
L 122.634137 127.895729 
L 123.255737 117.68749 
L 123.877337 124.128172 
L 124.498938 113.919933 
L 125.120538 120.360614 
L 125.742138 110.152376 
L 126.985338 123.033739 
L 127.606939 112.8255 
L 128.850139 125.706863 
L 129.471739 115.498624 
L 132.57974 147.702032 
L 133.20134 137.493793 
L 133.82294 143.934475 
L 134.444541 133.726236 
L 135.687741 146.607599 
L 136.309341 136.39936 
L 136.930941 142.840042 
L 137.552542 132.631803 
L 139.417342 151.953847 
L 140.038942 141.745608 
L 140.660543 148.18629 
L 141.282143 137.978051 
L 141.903743 144.418733 
L 142.525343 134.210494 
L 143.146943 140.651175 
L 143.768544 130.442937 
L 144.390144 136.883618 
L 145.011744 126.675379 
L 145.633344 133.116061 
L 146.254944 122.907822 
L 146.876544 129.348504 
L 147.498145 119.140265 
L 148.119745 125.580946 
L 148.741345 115.372708 
L 150.606146 134.694752 
L 151.227746 124.486514 
L 152.470946 137.367877 
L 153.092546 127.159638 
L 153.714147 133.600319 
L 154.335747 123.392081 
L 155.578947 136.273444 
L 156.200547 126.065205 
L 157.443748 138.946568 
L 158.065348 128.738329 
L 158.686948 135.179011 
L 159.308548 124.970772 
L 159.930149 131.411454 
L 160.551749 121.203215 
L 162.416549 140.525259 
L 163.03815 130.317021 
L 163.65975 136.757702 
L 164.28135 126.549463 
L 166.14615 145.871508 
L 166.767751 135.663269 
L 168.010951 148.544632 
L 168.632551 138.336393 
L 170.497352 157.658438 
L 171.118952 147.450199 
L 172.362152 160.331562 
L 172.983753 150.123322 
L 174.226953 163.004686 
L 174.848553 152.796446 
L 175.470153 159.237127 
L 176.091754 149.028888 
L 177.334954 161.910251 
L 177.956554 151.702012 
L 179.199755 164.583375 
L 179.821355 154.375135 
L 180.442955 160.815817 
L 181.064555 150.607577 
L 181.686155 157.048259 
L 182.307755 146.840019 
L 183.550956 159.721383 
L 184.172556 149.513143 
L 186.037357 168.835188 
L 186.658957 158.626947 
L 187.280557 165.067629 
L 187.902157 154.859389 
L 188.523757 161.300071 
L 189.145358 151.091831 
L 190.388558 163.973194 
L 191.010158 153.764955 
L 191.631758 160.205636 
L 192.253359 149.997397 
L 192.874959 156.438078 
L 193.496559 146.229839 
L 194.118159 152.670521 
L 194.739759 142.462282 
L 195.36136 148.902963 
L 195.98296 138.694724 
L 197.22616 151.576087 
L 197.84776 141.367848 
L 199.090961 154.249211 
L 199.712561 144.040972 
L 200.334161 150.481654 
L 200.955761 140.273415 
L 201.577361 146.714096 
L 202.198962 136.505858 
L 202.820562 142.946539 
L 203.442162 132.7383 
L 204.063762 139.178982 
L 204.685362 128.970743 
L 205.928563 141.852106 
L 206.550163 131.643867 
L 207.793363 144.52523 
L 208.414964 134.316991 
L 209.036564 140.757673 
L 209.658164 130.549434 
L 210.279764 136.990116 
L 210.901364 126.781877 
L 211.522965 133.222559 
L 212.144565 123.01432 
L 213.387765 135.895683 
L 214.009365 125.687444 
L 215.252566 138.568807 
L 215.874166 128.360568 
L 217.117366 141.241931 
L 217.738967 131.033693 
L 218.360567 137.474374 
L 218.982167 127.266135 
L 219.603767 133.706817 
L 220.225367 123.498578 
L 221.468568 136.379941 
L 222.090168 126.171702 
L 222.711768 132.612384 
L 223.333368 122.404145 
L 223.954968 128.844827 
L 224.576569 118.636588 
L 226.441369 137.958633 
L 227.062969 127.750394 
L 228.92777 147.072439 
L 229.54937 136.8642 
L 230.17097 143.304881 
L 230.792571 133.096642 
L 232.657371 152.418687 
L 233.278971 142.210448 
L 233.900572 148.65113 
L 234.522172 138.442891 
L 236.386972 157.764935 
L 237.008572 147.556696 
L 237.630173 153.997378 
L 238.251773 143.789139 
L 238.873373 150.22982 
L 239.494973 140.021581 
L 241.981374 165.784307 
L 242.602974 155.576067 
L 243.224574 162.016749 
L 243.846175 151.808509 
L 245.089375 164.689872 
L 245.710975 154.481633 
L 246.332575 160.922314 
L 246.954176 150.714075 
L 247.575776 157.154756 
L 248.197376 146.946517 
L 248.818976 153.387199 
L 249.440576 143.17896 
L 251.926977 168.941686 
L 252.548577 158.733445 
L 253.791778 171.614808 
L 254.413378 161.406567 
L 255.034978 167.847249 
L 255.656578 157.639009 
L 256.899779 170.520372 
L 257.521379 160.312131 
L 258.142979 166.752813 
L 258.764579 156.544573 
L 259.386179 162.985254 
L 260.00778 152.777014 
L 260.62938 159.217696 
L 261.25098 149.009457 
L 262.49418 161.89082 
L 263.115781 151.68258 
L 263.737381 158.123262 
L 264.358981 147.915023 
L 264.980581 154.355704 
L 265.602181 144.147465 
L 266.223782 150.588147 
L 266.845382 140.379908 
L 267.466982 146.820589 
L 268.088582 136.61235 
L 268.710182 143.053032 
L 269.331783 132.844793 
L 270.574983 145.726156 
L 271.196583 135.517917 
L 271.818183 141.958599 
L 272.439783 131.75036 
L 273.682984 144.631723 
L 274.304584 134.423484 
L 275.547784 147.304847 
L 276.169385 137.096608 
L 276.790985 143.53729 
L 277.412585 133.329051 
L 279.277386 152.651096 
L 279.898986 142.442857 
L 280.520586 148.883538 
L 281.142186 138.675299 
L 282.385387 151.556662 
L 283.006987 141.348423 
L 283.628587 147.789105 
L 284.250187 137.580866 
L 284.871787 144.021548 
L 285.493388 133.813309 
L 286.114988 140.25399 
L 286.736588 130.045751 
L 289.222989 155.808478 
L 289.844589 145.600238 
L 290.466189 152.04092 
L 291.087789 141.832681 
L 292.33099 154.714044 
L 292.95259 144.505805 
L 293.57419 150.946487 
L 294.19579 140.738248 
L 295.438991 153.619611 
L 296.060591 143.411372 
L 296.682191 149.852053 
L 297.303791 139.643814 
L 297.925391 146.084496 
L 298.546992 135.876257 
L 299.790192 148.75762 
L 300.411792 138.549381 
L 301.033392 144.990063 
L 301.654993 134.781824 
L 304.762994 166.985231 
L 305.384594 156.776991 
L 306.627794 169.658354 
L 307.249394 159.450114 
L 309.735795 185.21284 
L 310.357395 175.004592 
L 310.978995 181.445273 
L 311.600596 171.237028 
L 312.843796 184.118391 
L 313.465396 173.910143 
L 314.086996 180.350825 
L 314.708597 170.14258 
L 316.573397 189.464625 
L 317.194997 179.256371 
L 318.438198 192.137734 
L 319.059798 181.929475 
L 319.681398 188.370156 
L 320.302998 178.161904 
L 321.546199 191.043267 
L 322.167799 180.83501 
L 324.0326 200.157054 
L 324.6542 189.948767 
L 325.2758 196.389448 
L 325.8974 186.181177 
L 326.519 192.621858 
L 327.1406 182.413598 
L 328.383801 195.294961 
L 329.005401 185.086693 
L 330.870202 204.408738 
L 331.491802 194.200422 
L 332.113402 200.641103 
L 332.735002 190.432813 
L 334.599803 209.754858 
L 335.221403 199.546481 
L 335.843003 205.987163 
L 336.464603 195.778832 
L 337.086204 202.219514 
L 337.707804 192.011214 
L 338.329404 198.451895 
L 338.951004 188.243616 
L 340.194205 201.124979 
L 340.815805 190.916686 
L 341.437405 197.357368 
L 342.059005 187.149093 
L 342.680605 193.589774 
L 343.302206 183.381511 
L 347.653407 228.466282 
L 348.275007 218.257013 
L 350.139808 237.579057 
L 350.761408 227.368071 
L 351.383008 233.808752 
L 352.004608 223.598682 
L 352.626208 230.039364 
L 353.247809 219.829904 
L 354.491009 232.711267 
L 355.112609 222.501401 
L 355.734209 228.942083 
L 356.35581 218.732759 
L 356.97741 225.173441 
L 357.59901 214.964479 
L 358.22061 221.40516 
L 358.84221 211.196439 
L 360.085411 224.077803 
L 360.707011 213.868921 
L 361.328611 220.309603 
L 361.950211 210.100935 
L 363.815012 229.42298 
L 364.436612 219.213599 
L 365.058212 225.654281 
L 365.679812 215.44528 
L 366.301413 221.885962 
L 366.923013 211.677215 
L 371.274214 256.761986 
L 371.895814 246.532113 
L 372.517415 252.972795 
L 373.139015 242.750161 
L 373.760615 249.190843 
L 374.382215 238.97302 
L 375.003815 245.413701 
L 375.625416 235.199078 
L 378.111816 260.961805 
L 378.733417 250.719592 
L 379.355017 257.160273 
L 379.976617 246.929454 
L 381.219817 259.810817 
L 381.841417 249.572556 
L 382.463018 256.013237 
L 383.084618 245.785037 
L 383.706218 252.225719 
L 384.327818 242.004196 
L 385.571019 254.88556 
L 386.192619 244.659639 
L 386.814219 251.10032 
L 387.435819 240.880312 
L 388.057419 247.320994 
L 388.67902 237.104917 
L 389.30062 243.545599 
L 389.92222 233.332138 
L 391.16542 246.213501 
L 391.787021 235.998305 
L 393.651821 255.320349 
L 394.273421 245.093582 
L 394.895022 251.534264 
L 395.516622 241.313694 
L 396.138222 247.754375 
L 396.759822 237.537924 
L 398.003023 250.419287 
L 398.624623 240.200111 
L 399.246223 246.640792 
L 399.867823 236.425268 
L 401.111023 249.306632 
L 401.732624 239.088688 
L 402.354224 245.52937 
L 402.975824 235.314667 
L 403.597424 241.755349 
L 404.219024 231.542803 
L 404.840625 237.983485 
L 405.462225 227.772376 
L 406.083825 234.213058 
L 406.705425 224.002906 
L 407.327025 230.443587 
L 407.948626 220.234074 
L 409.813426 239.556118 
L 410.435026 229.34448 
L 411.056627 235.785162 
L 411.678227 225.574658 
L 412.299827 232.015339 
L 412.921427 221.80559 
L 413.543027 228.246272 
L 414.164628 218.037027 
L 416.651028 243.799753 
L 417.272628 233.586148 
L 418.515829 246.467511 
L 419.137429 236.252122 
L 420.380629 249.133485 
L 421.00223 238.915721 
L 423.48863 264.678447 
L 424.110231 254.419571 
L 425.975031 273.741615 
L 426.596631 263.399677 
L 427.218232 269.840359 
L 427.839832 259.544044 
L 428.461432 265.984726 
L 429.083032 255.71823 
L 432.191033 287.921638 
L 432.812633 277.113711 
L 435.299034 302.876437 
L 435.299034 302.876437 
" style="fill:none;stroke:#ff7f0e;stroke-linecap:square;stroke-width:0.666667;"/>
   </g>
   <g id="patch_3">
    <path d="M 35.85875 316.4425 
L 35.85875 17.989125 
" style="fill:none;stroke:#000000;stroke-linecap:square;stroke-linejoin:miter;stroke-width:0.8;"/>
   </g>
   <g id="patch_4">
    <path d="M 454.32 316.4425 
L 454.32 17.989125 
" style="fill:none;stroke:#000000;stroke-linecap:square;stroke-linejoin:miter;stroke-width:0.8;"/>
   </g>
   <g id="patch_5">
    <path d="M 35.85875 316.4425 
L 454.32 316.4425 
" style="fill:none;stroke:#000000;stroke-linecap:square;stroke-linejoin:miter;stroke-width:0.8;"/>
   </g>
   <g id="patch_6">
    <path d="M 35.85875 17.989125 
L 454.32 17.989125 
" style="fill:none;stroke:#000000;stroke-linecap:square;stroke-linejoin:miter;stroke-width:0.8;"/>
   </g>
   <g id="text_17">
    <!-- "3y+1" problem -->
    <g transform="translate(214.747 11.989125)scale(0.072 -0.072)">
     <defs>
      <path d="M 43.703125 72.90625 
L 43.703125 45.796875 
L 35.203125 45.796875 
L 35.203125 72.90625 
z
M 25 72.90625 
L 25 45.796875 
L 16.5 45.796875 
L 16.5 72.90625 
z
" id="DejaVuSansMono-34"/>
      <path d="M 34.1875 57.171875 
L 34.1875 35.5 
L 55.90625 35.5 
L 55.90625 27.203125 
L 34.1875 27.203125 
L 34.1875 5.515625 
L 25.984375 5.515625 
L 25.984375 27.203125 
L 4.296875 27.203125 
L 4.296875 35.5 
L 25.984375 35.5 
L 25.984375 57.171875 
z
" id="DejaVuSansMono-43"/>
      <path id="DejaVuSansMono-32"/>
      <path d="M 18.3125 6.890625 
L 18.3125 -20.796875 
L 9.28125 -20.796875 
L 9.28125 54.6875 
L 18.3125 54.6875 
L 18.3125 47.703125 
Q 20.5625 51.765625 24.296875 53.875 
Q 28.03125 56 32.90625 56 
Q 42.828125 56 48.46875 48.328125 
Q 54.109375 40.671875 54.109375 27.09375 
Q 54.109375 13.765625 48.4375 6.171875 
Q 42.78125 -1.421875 32.90625 -1.421875 
Q 27.9375 -1.421875 24.1875 0.703125 
Q 20.453125 2.828125 18.3125 6.890625 
z
M 44.671875 27.296875 
Q 44.671875 37.75 41.375 43.0625 
Q 38.09375 48.390625 31.59375 48.390625 
Q 25.046875 48.390625 21.671875 43.046875 
Q 18.3125 37.703125 18.3125 27.296875 
Q 18.3125 16.9375 21.671875 11.5625 
Q 25.046875 6.203125 31.59375 6.203125 
Q 38.09375 6.203125 41.375 11.515625 
Q 44.671875 16.84375 44.671875 27.296875 
z
" id="DejaVuSansMono-112"/>
      <path d="M 56.390625 43.40625 
Q 53.515625 45.65625 50.53125 46.671875 
Q 47.5625 47.703125 44 47.703125 
Q 35.59375 47.703125 31.140625 42.421875 
Q 26.703125 37.15625 26.703125 27.203125 
L 26.703125 0 
L 17.671875 0 
L 17.671875 54.6875 
L 26.703125 54.6875 
L 26.703125 44 
Q 28.953125 49.8125 33.609375 52.90625 
Q 38.28125 56 44.671875 56 
Q 48 56 50.875 55.171875 
Q 53.765625 54.34375 56.390625 52.59375 
z
" id="DejaVuSansMono-114"/>
      <path d="M 30.078125 48.390625 
Q 23.25 48.390625 19.734375 43.0625 
Q 16.21875 37.75 16.21875 27.296875 
Q 16.21875 16.890625 19.734375 11.546875 
Q 23.25 6.203125 30.078125 6.203125 
Q 36.96875 6.203125 40.484375 11.546875 
Q 44 16.890625 44 27.296875 
Q 44 37.75 40.484375 43.0625 
Q 36.96875 48.390625 30.078125 48.390625 
z
M 30.078125 56 
Q 41.453125 56 47.484375 48.625 
Q 53.515625 41.265625 53.515625 27.296875 
Q 53.515625 13.28125 47.5 5.921875 
Q 41.5 -1.421875 30.078125 -1.421875 
Q 18.703125 -1.421875 12.6875 5.921875 
Q 6.6875 13.28125 6.6875 27.296875 
Q 6.6875 41.265625 12.6875 48.625 
Q 18.703125 56 30.078125 56 
z
" id="DejaVuSansMono-111"/>
      <path d="M 44.828125 27.296875 
Q 44.828125 37.75 41.5 43.0625 
Q 38.1875 48.390625 31.6875 48.390625 
Q 25.140625 48.390625 21.765625 43.046875 
Q 18.40625 37.703125 18.40625 27.296875 
Q 18.40625 16.9375 21.765625 11.5625 
Q 25.140625 6.203125 31.6875 6.203125 
Q 38.1875 6.203125 41.5 11.515625 
Q 44.828125 16.84375 44.828125 27.296875 
z
M 18.40625 47.703125 
Q 20.5625 51.703125 24.34375 53.84375 
Q 28.125 56 33.109375 56 
Q 42.96875 56 48.625 48.40625 
Q 54.296875 40.828125 54.296875 27.484375 
Q 54.296875 13.96875 48.609375 6.265625 
Q 42.921875 -1.421875 33.015625 -1.421875 
Q 28.125 -1.421875 24.390625 0.703125 
Q 20.65625 2.828125 18.40625 6.890625 
L 18.40625 0 
L 9.421875 0 
L 9.421875 75.984375 
L 18.40625 75.984375 
z
" id="DejaVuSansMono-98"/>
      <path d="M 31.203125 19.828125 
Q 31.203125 13.765625 33.421875 10.6875 
Q 35.640625 7.625 39.984375 7.625 
L 50.484375 7.625 
L 50.484375 0 
L 39.109375 0 
Q 31.0625 0 26.640625 5.171875 
Q 22.21875 10.359375 22.21875 19.828125 
L 22.21875 69.484375 
L 7.8125 69.484375 
L 7.8125 76.515625 
L 31.203125 76.515625 
z
" id="DejaVuSansMono-108"/>
      <path d="M 54.296875 29.59375 
L 54.296875 25.203125 
L 15.375 25.203125 
L 15.375 24.90625 
Q 15.375 15.96875 20.03125 11.078125 
Q 24.703125 6.203125 33.203125 6.203125 
Q 37.5 6.203125 42.1875 7.5625 
Q 46.875 8.9375 52.203125 11.71875 
L 52.203125 2.78125 
Q 47.078125 0.6875 42.3125 -0.359375 
Q 37.546875 -1.421875 33.109375 -1.421875 
Q 20.359375 -1.421875 13.171875 6.21875 
Q 6 13.875 6 27.296875 
Q 6 40.375 13.03125 48.1875 
Q 20.0625 56 31.78125 56 
Q 42.234375 56 48.265625 48.921875 
Q 54.296875 41.84375 54.296875 29.59375 
z
M 45.3125 32.234375 
Q 45.125 40.140625 41.578125 44.265625 
Q 38.03125 48.390625 31.390625 48.390625 
Q 24.90625 48.390625 20.703125 44.09375 
Q 16.5 39.796875 15.71875 32.171875 
z
" id="DejaVuSansMono-101"/>
      <path d="M 33.015625 49.125 
Q 34.671875 52.640625 37.234375 54.3125 
Q 39.796875 56 43.40625 56 
Q 50 56 52.703125 50.890625 
Q 55.421875 45.796875 55.421875 31.6875 
L 55.421875 0 
L 47.21875 0 
L 47.21875 31.296875 
Q 47.21875 42.875 45.921875 45.671875 
Q 44.625 48.484375 41.21875 48.484375 
Q 37.3125 48.484375 35.859375 45.484375 
Q 34.421875 42.484375 34.421875 31.296875 
L 34.421875 0 
L 26.21875 0 
L 26.21875 31.296875 
Q 26.21875 43.015625 24.828125 45.75 
Q 23.4375 48.484375 19.828125 48.484375 
Q 16.265625 48.484375 14.875 45.484375 
Q 13.484375 42.484375 13.484375 31.296875 
L 13.484375 0 
L 5.328125 0 
L 5.328125 54.6875 
L 13.484375 54.6875 
L 13.484375 50 
Q 15.09375 52.9375 17.5 54.46875 
Q 19.921875 56 23 56 
Q 26.703125 56 29.171875 54.296875 
Q 31.640625 52.59375 33.015625 49.125 
z
" id="DejaVuSansMono-109"/>
     </defs>
     <use xlink:href="#DejaVuSansMono-34"/>
     <use x="60.205078" xlink:href="#DejaVuSansMono-51"/>
     <use x="120.410156" xlink:href="#DejaVuSansMono-121"/>
     <use x="180.615234" xlink:href="#DejaVuSansMono-43"/>
     <use x="240.820312" xlink:href="#DejaVuSansMono-49"/>
     <use x="301.025391" xlink:href="#DejaVuSansMono-34"/>
     <use x="361.230469" xlink:href="#DejaVuSansMono-32"/>
     <use x="421.435547" xlink:href="#DejaVuSansMono-112"/>
     <use x="481.640625" xlink:href="#DejaVuSansMono-114"/>
     <use x="541.845703" xlink:href="#DejaVuSansMono-111"/>
     <use x="602.050781" xlink:href="#DejaVuSansMono-98"/>
     <use x="662.255859" xlink:href="#DejaVuSansMono-108"/>
     <use x="722.460938" xlink:href="#DejaVuSansMono-101"/>
     <use x="782.666016" xlink:href="#DejaVuSansMono-109"/>
    </g>
   </g>
   <g id="legend_1">
    <g id="patch_7">
     <path d="M 351.451875 82.0095 
L 450.12 82.0095 
Q 451.32 82.0095 451.32 80.8095 
L 451.32 22.189125 
Q 451.32 20.989125 450.12 20.989125 
L 351.451875 20.989125 
Q 350.251875 20.989125 350.251875 22.189125 
L 350.251875 80.8095 
Q 350.251875 82.0095 351.451875 82.0095 
z
" style="fill:#ffffff;opacity:0.8;stroke:#cccccc;stroke-linejoin:miter;"/>
    </g>
    <g id="line2d_17">
     <path d="M 352.651875 36.889687 
L 364.651875 36.889687 
" style="fill:none;stroke:#1f77b4;stroke-linecap:square;stroke-width:0.666667;"/>
    </g>
    <g id="line2d_18"/>
    <g id="text_18">
     <!-- "Tallest": -->
     <g transform="translate(369.451875 27.980062)scale(0.06 -0.06)">
      <defs>
       <path d="M 2.296875 72.90625 
L 57.90625 72.90625 
L 57.90625 64.59375 
L 35.109375 64.59375 
L 35.109375 0 
L 25.203125 0 
L 25.203125 64.59375 
L 2.296875 64.59375 
z
" id="DejaVuSansMono-84"/>
       <path d="M 34.28125 27.484375 
L 31.296875 27.484375 
Q 23.4375 27.484375 19.453125 24.71875 
Q 15.484375 21.96875 15.484375 16.5 
Q 15.484375 11.578125 18.453125 8.84375 
Q 21.4375 6.109375 26.703125 6.109375 
Q 34.125 6.109375 38.375 11.25 
Q 42.625 16.40625 42.671875 25.484375 
L 42.671875 27.484375 
z
M 51.703125 31.203125 
L 51.703125 0 
L 42.671875 0 
L 42.671875 8.109375 
Q 39.796875 3.21875 35.421875 0.890625 
Q 31.0625 -1.421875 24.8125 -1.421875 
Q 16.453125 -1.421875 11.46875 3.296875 
Q 6.5 8.015625 6.5 15.921875 
Q 6.5 25.046875 12.625 29.78125 
Q 18.75 34.515625 30.609375 34.515625 
L 42.671875 34.515625 
L 42.671875 35.9375 
Q 42.625 42.484375 39.34375 45.4375 
Q 36.078125 48.390625 28.90625 48.390625 
Q 24.3125 48.390625 19.625 47.0625 
Q 14.9375 45.75 10.5 43.21875 
L 10.5 52.203125 
Q 15.484375 54.109375 20.046875 55.046875 
Q 24.609375 56 28.90625 56 
Q 35.6875 56 40.5 54 
Q 45.3125 52 48.296875 48 
Q 50.140625 45.5625 50.921875 41.96875 
Q 51.703125 38.375 51.703125 31.203125 
z
" id="DejaVuSansMono-97"/>
       <path d="M 47.515625 52.78125 
L 47.515625 44 
Q 43.65625 46.234375 39.75 47.359375 
Q 35.84375 48.484375 31.78125 48.484375 
Q 25.6875 48.484375 22.671875 46.5 
Q 19.671875 44.53125 19.671875 40.484375 
Q 19.671875 36.8125 21.921875 35 
Q 24.171875 33.203125 33.109375 31.5 
L 36.71875 30.8125 
Q 43.40625 29.546875 46.84375 25.734375 
Q 50.296875 21.921875 50.296875 15.828125 
Q 50.296875 7.71875 44.53125 3.140625 
Q 38.765625 -1.421875 28.515625 -1.421875 
Q 24.46875 -1.421875 20.015625 -0.5625 
Q 15.578125 0.296875 10.40625 2 
L 10.40625 11.28125 
Q 15.4375 8.6875 20.015625 7.390625 
Q 24.609375 6.109375 28.71875 6.109375 
Q 34.671875 6.109375 37.9375 8.515625 
Q 41.21875 10.9375 41.21875 15.28125 
Q 41.21875 21.53125 29.25 23.921875 
L 28.859375 24.03125 
L 25.484375 24.703125 
Q 17.71875 26.21875 14.15625 29.8125 
Q 10.59375 33.40625 10.59375 39.59375 
Q 10.59375 47.46875 15.90625 51.734375 
Q 21.234375 56 31.109375 56 
Q 35.5 56 39.546875 55.1875 
Q 43.609375 54.390625 47.515625 52.78125 
z
" id="DejaVuSansMono-115"/>
       <path d="M 29.984375 70.21875 
L 29.984375 54.6875 
L 50.390625 54.6875 
L 50.390625 47.703125 
L 29.984375 47.703125 
L 29.984375 18.015625 
Q 29.984375 11.96875 32.28125 9.5625 
Q 34.578125 7.171875 40.28125 7.171875 
L 50.390625 7.171875 
L 50.390625 0 
L 39.40625 0 
Q 29.296875 0 25.140625 4.046875 
Q 21 8.109375 21 18.015625 
L 21 47.703125 
L 6.390625 47.703125 
L 6.390625 54.6875 
L 21 54.6875 
L 21 70.21875 
z
" id="DejaVuSansMono-116"/>
       <path d="M 23.875 51.90625 
L 36.1875 51.90625 
L 36.1875 37.109375 
L 23.875 37.109375 
z
M 23.875 14.890625 
L 36.1875 14.890625 
L 36.1875 0 
L 23.875 0 
z
" id="DejaVuSansMono-58"/>
      </defs>
      <use xlink:href="#DejaVuSansMono-34"/>
      <use x="60.205078" xlink:href="#DejaVuSansMono-84"/>
      <use x="120.410156" xlink:href="#DejaVuSansMono-97"/>
      <use x="180.615234" xlink:href="#DejaVuSansMono-108"/>
      <use x="240.820312" xlink:href="#DejaVuSansMono-108"/>
      <use x="301.025391" xlink:href="#DejaVuSansMono-101"/>
      <use x="361.230469" xlink:href="#DejaVuSansMono-115"/>
      <use x="421.435547" xlink:href="#DejaVuSansMono-116"/>
      <use x="481.640625" xlink:href="#DejaVuSansMono-34"/>
      <use x="541.845703" xlink:href="#DejaVuSansMono-58"/>
     </g>
     <!-- y_0    = 6416623 -->
     <g transform="translate(369.451875 34.737)scale(0.06 -0.06)">
      <defs>
       <path d="M 4.296875 25.59375 
L 55.90625 25.59375 
L 55.90625 17.1875 
L 4.296875 17.1875 
z
M 4.296875 45.40625 
L 55.90625 45.40625 
L 55.90625 37.109375 
L 4.296875 37.109375 
z
" id="DejaVuSansMono-61"/>
      </defs>
      <use xlink:href="#DejaVuSansMono-121"/>
      <use x="60.205078" xlink:href="#DejaVuSansMono-95"/>
      <use x="120.410156" xlink:href="#DejaVuSansMono-48"/>
      <use x="180.615234" xlink:href="#DejaVuSansMono-32"/>
      <use x="240.820312" xlink:href="#DejaVuSansMono-32"/>
      <use x="301.025391" xlink:href="#DejaVuSansMono-32"/>
      <use x="361.230469" xlink:href="#DejaVuSansMono-32"/>
      <use x="421.435547" xlink:href="#DejaVuSansMono-61"/>
      <use x="481.640625" xlink:href="#DejaVuSansMono-32"/>
      <use x="541.845703" xlink:href="#DejaVuSansMono-54"/>
      <use x="602.050781" xlink:href="#DejaVuSansMono-52"/>
      <use x="662.255859" xlink:href="#DejaVuSansMono-49"/>
      <use x="722.460938" xlink:href="#DejaVuSansMono-54"/>
      <use x="782.666016" xlink:href="#DejaVuSansMono-54"/>
      <use x="842.871094" xlink:href="#DejaVuSansMono-50"/>
      <use x="903.076172" xlink:href="#DejaVuSansMono-51"/>
     </g>
     <!-- y_max  = 4799996945368 -->
     <g transform="translate(369.451875 41.660812)scale(0.06 -0.06)">
      <defs>
       <path d="M 54.59375 54.6875 
L 35.015625 28.515625 
L 56.5 0 
L 46.09375 0 
L 30.078125 21.921875 
L 14.109375 0 
L 3.71875 0 
L 25.203125 28.515625 
L 5.609375 54.6875 
L 15.578125 54.6875 
L 30.078125 34.90625 
L 44.484375 54.6875 
z
" id="DejaVuSansMono-120"/>
       <path d="M 30.078125 34.625 
Q 23.484375 34.625 19.890625 30.9375 
Q 16.3125 27.25 16.3125 20.515625 
Q 16.3125 13.765625 19.9375 10.03125 
Q 23.578125 6.296875 30.078125 6.296875 
Q 36.71875 6.296875 40.296875 9.984375 
Q 43.890625 13.671875 43.890625 20.515625 
Q 43.890625 27.203125 40.25 30.90625 
Q 36.625 34.625 30.078125 34.625 
z
M 21.484375 38.71875 
Q 15.1875 40.328125 11.640625 44.71875 
Q 8.109375 49.125 8.109375 55.328125 
Q 8.109375 64.015625 14.015625 69.109375 
Q 19.921875 74.21875 30.078125 74.21875 
Q 40.28125 74.21875 46.1875 69.109375 
Q 52.09375 64.015625 52.09375 55.328125 
Q 52.09375 49.125 48.546875 44.71875 
Q 45.015625 40.328125 38.71875 38.71875 
Q 46.046875 37.109375 49.921875 32.21875 
Q 53.8125 27.34375 53.8125 19.578125 
Q 53.8125 9.71875 47.515625 4.140625 
Q 41.21875 -1.421875 30.078125 -1.421875 
Q 18.953125 -1.421875 12.671875 4.125 
Q 6.390625 9.671875 6.390625 19.484375 
Q 6.390625 27.296875 10.265625 32.203125 
Q 14.15625 37.109375 21.484375 38.71875 
z
M 17.921875 54.390625 
Q 17.921875 48.53125 21.046875 45.453125 
Q 24.171875 42.390625 30.078125 42.390625 
Q 36.03125 42.390625 39.15625 45.453125 
Q 42.28125 48.53125 42.28125 54.390625 
Q 42.28125 60.359375 39.171875 63.484375 
Q 36.078125 66.609375 30.078125 66.609375 
Q 24.171875 66.609375 21.046875 63.453125 
Q 17.921875 60.296875 17.921875 54.390625 
z
" id="DejaVuSansMono-56"/>
      </defs>
      <use xlink:href="#DejaVuSansMono-121"/>
      <use x="60.205078" xlink:href="#DejaVuSansMono-95"/>
      <use x="120.410156" xlink:href="#DejaVuSansMono-109"/>
      <use x="180.615234" xlink:href="#DejaVuSansMono-97"/>
      <use x="240.820312" xlink:href="#DejaVuSansMono-120"/>
      <use x="301.025391" xlink:href="#DejaVuSansMono-32"/>
      <use x="361.230469" xlink:href="#DejaVuSansMono-32"/>
      <use x="421.435547" xlink:href="#DejaVuSansMono-61"/>
      <use x="481.640625" xlink:href="#DejaVuSansMono-32"/>
      <use x="541.845703" xlink:href="#DejaVuSansMono-52"/>
      <use x="602.050781" xlink:href="#DejaVuSansMono-55"/>
      <use x="662.255859" xlink:href="#DejaVuSansMono-57"/>
      <use x="722.460938" xlink:href="#DejaVuSansMono-57"/>
      <use x="782.666016" xlink:href="#DejaVuSansMono-57"/>
      <use x="842.871094" xlink:href="#DejaVuSansMono-57"/>
      <use x="903.076172" xlink:href="#DejaVuSansMono-54"/>
      <use x="963.28125" xlink:href="#DejaVuSansMono-57"/>
      <use x="1023.486328" xlink:href="#DejaVuSansMono-52"/>
      <use x="1083.691406" xlink:href="#DejaVuSansMono-53"/>
      <use x="1143.896484" xlink:href="#DejaVuSansMono-51"/>
      <use x="1204.101562" xlink:href="#DejaVuSansMono-54"/>
      <use x="1264.306641" xlink:href="#DejaVuSansMono-56"/>
     </g>
     <!-- x_max  = 484 -->
     <g transform="translate(369.451875 48.584625)scale(0.06 -0.06)">
      <use xlink:href="#DejaVuSansMono-120"/>
      <use x="60.205078" xlink:href="#DejaVuSansMono-95"/>
      <use x="120.410156" xlink:href="#DejaVuSansMono-109"/>
      <use x="180.615234" xlink:href="#DejaVuSansMono-97"/>
      <use x="240.820312" xlink:href="#DejaVuSansMono-120"/>
      <use x="301.025391" xlink:href="#DejaVuSansMono-32"/>
      <use x="361.230469" xlink:href="#DejaVuSansMono-32"/>
      <use x="421.435547" xlink:href="#DejaVuSansMono-61"/>
      <use x="481.640625" xlink:href="#DejaVuSansMono-32"/>
      <use x="541.845703" xlink:href="#DejaVuSansMono-52"/>
      <use x="602.050781" xlink:href="#DejaVuSansMono-56"/>
      <use x="662.255859" xlink:href="#DejaVuSansMono-52"/>
     </g>
    </g>
    <g id="line2d_19">
     <path d="M 352.651875 66.499875 
L 364.651875 66.499875 
" style="fill:none;stroke:#ff7f0e;stroke-linecap:square;stroke-width:0.666667;"/>
    </g>
    <g id="line2d_20"/>
    <g id="text_19">
     <!-- "Widest":  -->
     <g transform="translate(369.451875 57.59025)scale(0.06 -0.06)">
      <defs>
       <path d="M 0 72.90625 
L 9.625 72.90625 
L 16.609375 13.71875 
L 24.90625 52.875 
L 35.203125 52.875 
L 43.609375 13.625 
L 50.59375 72.90625 
L 60.203125 72.90625 
L 49.3125 0 
L 39.984375 0 
L 30.078125 43.3125 
L 20.21875 0 
L 10.890625 0 
z
" id="DejaVuSansMono-87"/>
       <path d="M 12.5 54.6875 
L 35.5 54.6875 
L 35.5 6.984375 
L 53.328125 6.984375 
L 53.328125 0 
L 8.6875 0 
L 8.6875 6.984375 
L 26.515625 6.984375 
L 26.515625 47.703125 
L 12.5 47.703125 
z
M 26.515625 75.984375 
L 35.5 75.984375 
L 35.5 64.59375 
L 26.515625 64.59375 
z
" id="DejaVuSansMono-105"/>
       <path d="M 41.890625 47.703125 
L 41.890625 75.984375 
L 50.875 75.984375 
L 50.875 0 
L 41.890625 0 
L 41.890625 6.890625 
Q 39.65625 2.828125 35.90625 0.703125 
Q 32.171875 -1.421875 27.296875 -1.421875 
Q 17.390625 -1.421875 11.6875 6.265625 
Q 6 13.96875 6 27.484375 
Q 6 40.828125 11.71875 48.40625 
Q 17.4375 56 27.296875 56 
Q 32.234375 56 35.984375 53.875 
Q 39.75 51.765625 41.890625 47.703125 
z
M 15.484375 27.296875 
Q 15.484375 16.84375 18.796875 11.515625 
Q 22.125 6.203125 28.609375 6.203125 
Q 35.109375 6.203125 38.5 11.5625 
Q 41.890625 16.9375 41.890625 27.296875 
Q 41.890625 37.703125 38.5 43.046875 
Q 35.109375 48.390625 28.609375 48.390625 
Q 22.125 48.390625 18.796875 43.0625 
Q 15.484375 37.75 15.484375 27.296875 
z
" id="DejaVuSansMono-100"/>
      </defs>
      <use xlink:href="#DejaVuSansMono-34"/>
      <use x="60.205078" xlink:href="#DejaVuSansMono-87"/>
      <use x="120.410156" xlink:href="#DejaVuSansMono-105"/>
      <use x="180.615234" xlink:href="#DejaVuSansMono-100"/>
      <use x="240.820312" xlink:href="#DejaVuSansMono-101"/>
      <use x="301.025391" xlink:href="#DejaVuSansMono-115"/>
      <use x="361.230469" xlink:href="#DejaVuSansMono-116"/>
      <use x="421.435547" xlink:href="#DejaVuSansMono-34"/>
      <use x="481.640625" xlink:href="#DejaVuSansMono-58"/>
      <use x="541.845703" xlink:href="#DejaVuSansMono-32"/>
     </g>
     <!-- y_0    = 5649499 -->
     <g transform="translate(369.451875 64.347187)scale(0.06 -0.06)">
      <use xlink:href="#DejaVuSansMono-121"/>
      <use x="60.205078" xlink:href="#DejaVuSansMono-95"/>
      <use x="120.410156" xlink:href="#DejaVuSansMono-48"/>
      <use x="180.615234" xlink:href="#DejaVuSansMono-32"/>
      <use x="240.820312" xlink:href="#DejaVuSansMono-32"/>
      <use x="301.025391" xlink:href="#DejaVuSansMono-32"/>
      <use x="361.230469" xlink:href="#DejaVuSansMono-32"/>
      <use x="421.435547" xlink:href="#DejaVuSansMono-61"/>
      <use x="481.640625" xlink:href="#DejaVuSansMono-32"/>
      <use x="541.845703" xlink:href="#DejaVuSansMono-53"/>
      <use x="602.050781" xlink:href="#DejaVuSansMono-54"/>
      <use x="662.255859" xlink:href="#DejaVuSansMono-52"/>
      <use x="722.460938" xlink:href="#DejaVuSansMono-57"/>
      <use x="782.666016" xlink:href="#DejaVuSansMono-52"/>
      <use x="842.871094" xlink:href="#DejaVuSansMono-57"/>
      <use x="903.076172" xlink:href="#DejaVuSansMono-57"/>
     </g>
     <!-- y_max  = 1017886660 -->
     <g transform="translate(369.451875 71.271)scale(0.06 -0.06)">
      <use xlink:href="#DejaVuSansMono-121"/>
      <use x="60.205078" xlink:href="#DejaVuSansMono-95"/>
      <use x="120.410156" xlink:href="#DejaVuSansMono-109"/>
      <use x="180.615234" xlink:href="#DejaVuSansMono-97"/>
      <use x="240.820312" xlink:href="#DejaVuSansMono-120"/>
      <use x="301.025391" xlink:href="#DejaVuSansMono-32"/>
      <use x="361.230469" xlink:href="#DejaVuSansMono-32"/>
      <use x="421.435547" xlink:href="#DejaVuSansMono-61"/>
      <use x="481.640625" xlink:href="#DejaVuSansMono-32"/>
      <use x="541.845703" xlink:href="#DejaVuSansMono-49"/>
      <use x="602.050781" xlink:href="#DejaVuSansMono-48"/>
      <use x="662.255859" xlink:href="#DejaVuSansMono-49"/>
      <use x="722.460938" xlink:href="#DejaVuSansMono-55"/>
      <use x="782.666016" xlink:href="#DejaVuSansMono-56"/>
      <use x="842.871094" xlink:href="#DejaVuSansMono-56"/>
      <use x="903.076172" xlink:href="#DejaVuSansMono-54"/>
      <use x="963.28125" xlink:href="#DejaVuSansMono-54"/>
      <use x="1023.486328" xlink:href="#DejaVuSansMono-54"/>
      <use x="1083.691406" xlink:href="#DejaVuSansMono-48"/>
     </g>
     <!-- x_max  = 613 -->
     <g transform="translate(369.451875 78.194812)scale(0.06 -0.06)">
      <use xlink:href="#DejaVuSansMono-120"/>
      <use x="60.205078" xlink:href="#DejaVuSansMono-95"/>
      <use x="120.410156" xlink:href="#DejaVuSansMono-109"/>
      <use x="180.615234" xlink:href="#DejaVuSansMono-97"/>
      <use x="240.820312" xlink:href="#DejaVuSansMono-120"/>
      <use x="301.025391" xlink:href="#DejaVuSansMono-32"/>
      <use x="361.230469" xlink:href="#DejaVuSansMono-32"/>
      <use x="421.435547" xlink:href="#DejaVuSansMono-61"/>
      <use x="481.640625" xlink:href="#DejaVuSansMono-32"/>
      <use x="541.845703" xlink:href="#DejaVuSansMono-54"/>
      <use x="602.050781" xlink:href="#DejaVuSansMono-49"/>
      <use x="662.255859" xlink:href="#DejaVuSansMono-51"/>
     </g>
    </g>
   </g>
  </g>
 </g>
 <defs>
  <clipPath id="p989aef85bc">
   <rect height="298.453375" width="418.46125" x="35.85875" y="17.989125"/>
  </clipPath>
 </defs>
</svg>
