<?xml version="1.0" encoding="utf-8" standalone="no"?>
<!DOCTYPE svg PUBLIC "-//W3C//DTD SVG 1.1//EN"
  "http://www.w3.org/Graphics/SVG/1.1/DTD/svg11.dtd">
<!-- Created with matplotlib (https://matplotlib.org/) -->
<svg height="345.6pt" version="1.1" viewBox="0 0 460.8 345.6" width="460.8pt" xmlns="http://www.w3.org/2000/svg" xmlns:xlink="http://www.w3.org/1999/xlink">
 <metadata>
  <rdf:RDF xmlns:cc="http://creativecommons.org/ns#" xmlns:dc="http://purl.org/dc/elements/1.1/" xmlns:rdf="http://www.w3.org/1999/02/22-rdf-syntax-ns#">
   <cc:Work>
    <dc:type rdf:resource="http://purl.org/dc/dcmitype/StillImage"/>
    <dc:date>2022-03-17T00:32:01.674401</dc:date>
    <dc:format>image/svg+xml</dc:format>
    <dc:creator>
     <cc:Agent>
      <dc:title>Matplotlib v3.3.2, https://matplotlib.org/</dc:title>
     </cc:Agent>
    </dc:creator>
   </cc:Work>
  </rdf:RDF>
 </metadata>
 <defs>
  <style type="text/css">*{stroke-linecap:butt;stroke-linejoin:round;}</style>
 </defs>
 <g id="figure_1">
  <g id="patch_1">
   <path d="M 0 345.6 
L 460.8 345.6 
L 460.8 0 
L 0 0 
z
" style="fill:#ffffff;"/>
  </g>
  <g id="axes_1">
   <g id="patch_2">
    <path d="M 35.85875 316.4425 
L 454.32 316.4425 
L 454.32 17.989125 
L 35.85875 17.989125 
z
" style="fill:#ffffff;"/>
   </g>
   <g id="matplotlib.axis_1">
    <g id="xtick_1">
     <g id="line2d_1">
      <defs>
       <path d="M 0 0 
L 0 3.5 
" id="m1d42f8a00b" style="stroke:#000000;stroke-width:0.8;"/>
      </defs>
      <g>
       <use style="stroke:#000000;stroke-width:0.8;" x="54.879716" xlink:href="#m1d42f8a00b" y="316.4425"/>
      </g>
     </g>
     <g id="text_1">
      <!-- 0 -->
      <g transform="translate(53.073622 328.033437)scale(0.06 -0.06)">
       <defs>
        <path d="M 23.578125 36.625 
Q 23.578125 39.3125 25.453125 41.265625 
Q 27.34375 43.21875 29.984375 43.21875 
Q 32.71875 43.21875 34.671875 41.265625 
Q 36.625 39.3125 36.625 36.625 
Q 36.625 33.890625 34.6875 31.984375 
Q 32.765625 30.078125 29.984375 30.078125 
Q 27.25 30.078125 25.40625 31.9375 
Q 23.578125 33.796875 23.578125 36.625 
z
M 30.078125 66.40625 
Q 23.1875 66.40625 19.796875 58.984375 
Q 16.40625 51.5625 16.40625 36.375 
Q 16.40625 21.234375 19.796875 13.8125 
Q 23.1875 6.390625 30.078125 6.390625 
Q 37.015625 6.390625 40.40625 13.8125 
Q 43.796875 21.234375 43.796875 36.375 
Q 43.796875 51.5625 40.40625 58.984375 
Q 37.015625 66.40625 30.078125 66.40625 
z
M 30.078125 74.21875 
Q 41.75 74.21875 47.734375 64.640625 
Q 53.71875 55.078125 53.71875 36.375 
Q 53.71875 17.71875 47.734375 8.140625 
Q 41.75 -1.421875 30.078125 -1.421875 
Q 18.40625 -1.421875 12.453125 8.140625 
Q 6.5 17.71875 6.5 36.375 
Q 6.5 55.078125 12.453125 64.640625 
Q 18.40625 74.21875 30.078125 74.21875 
z
" id="DejaVuSansMono-48"/>
       </defs>
       <use xlink:href="#DejaVuSansMono-48"/>
      </g>
     </g>
    </g>
    <g id="xtick_2">
     <g id="line2d_2">
      <g>
       <use style="stroke:#000000;stroke-width:0.8;" x="112.171782" xlink:href="#m1d42f8a00b" y="316.4425"/>
      </g>
     </g>
     <g id="text_2">
      <!-- 100 -->
      <g transform="translate(106.753501 328.033437)scale(0.06 -0.06)">
       <defs>
        <path d="M 13.1875 8.296875 
L 28.515625 8.296875 
L 28.515625 64.015625 
L 12.015625 60.296875 
L 12.015625 69.28125 
L 28.421875 72.90625 
L 38.28125 72.90625 
L 38.28125 8.296875 
L 53.421875 8.296875 
L 53.421875 0 
L 13.1875 0 
z
" id="DejaVuSansMono-49"/>
       </defs>
       <use xlink:href="#DejaVuSansMono-49"/>
       <use x="60.205078" xlink:href="#DejaVuSansMono-48"/>
       <use x="120.410156" xlink:href="#DejaVuSansMono-48"/>
      </g>
     </g>
    </g>
    <g id="xtick_3">
     <g id="line2d_3">
      <g>
       <use style="stroke:#000000;stroke-width:0.8;" x="169.463848" xlink:href="#m1d42f8a00b" y="316.4425"/>
      </g>
     </g>
     <g id="text_3">
      <!-- 200 -->
      <g transform="translate(164.045567 328.033437)scale(0.06 -0.06)">
       <defs>
        <path d="M 18.21875 8.296875 
L 51.703125 8.296875 
L 51.703125 0 
L 7.421875 0 
L 7.421875 8.296875 
Q 16.546875 17.921875 23.375 25.296875 
Q 30.21875 32.671875 32.8125 35.6875 
Q 37.703125 41.65625 39.40625 45.34375 
Q 41.109375 49.03125 41.109375 52.875 
Q 41.109375 58.984375 37.515625 62.453125 
Q 33.9375 65.921875 27.6875 65.921875 
Q 23.25 65.921875 18.359375 64.3125 
Q 13.484375 62.703125 8.015625 59.421875 
L 8.015625 69.390625 
Q 13.03125 71.78125 17.890625 73 
Q 22.75 74.21875 27.484375 74.21875 
Q 38.1875 74.21875 44.703125 68.53125 
Q 51.21875 62.84375 51.21875 53.609375 
Q 51.21875 48.921875 49.046875 44.234375 
Q 46.875 39.546875 42 33.890625 
Q 39.265625 30.71875 34.0625 25.09375 
Q 28.859375 19.484375 18.21875 8.296875 
z
" id="DejaVuSansMono-50"/>
       </defs>
       <use xlink:href="#DejaVuSansMono-50"/>
       <use x="60.205078" xlink:href="#DejaVuSansMono-48"/>
       <use x="120.410156" xlink:href="#DejaVuSansMono-48"/>
      </g>
     </g>
    </g>
    <g id="xtick_4">
     <g id="line2d_4">
      <g>
       <use style="stroke:#000000;stroke-width:0.8;" x="226.755914" xlink:href="#m1d42f8a00b" y="316.4425"/>
      </g>
     </g>
     <g id="text_4">
      <!-- 300 -->
      <g transform="translate(221.337633 328.033437)scale(0.06 -0.06)">
       <defs>
        <path d="M 37.890625 39.015625 
Q 45.0625 37.109375 48.875 32.25 
Q 52.6875 27.390625 52.6875 20.125 
Q 52.6875 10.0625 45.921875 4.3125 
Q 39.15625 -1.421875 27.203125 -1.421875 
Q 22.171875 -1.421875 16.9375 -0.484375 
Q 11.71875 0.4375 6.6875 2.203125 
L 6.6875 12.015625 
Q 11.671875 9.421875 16.5 8.15625 
Q 21.34375 6.890625 26.125 6.890625 
Q 34.234375 6.890625 38.578125 10.546875 
Q 42.921875 14.203125 42.921875 21.09375 
Q 42.921875 27.4375 38.578125 31.171875 
Q 34.234375 34.90625 26.8125 34.90625 
L 19.28125 34.90625 
L 19.28125 43.015625 
L 26.8125 43.015625 
Q 33.59375 43.015625 37.40625 45.984375 
Q 41.21875 48.96875 41.21875 54.296875 
Q 41.21875 59.90625 37.671875 62.90625 
Q 34.125 65.921875 27.59375 65.921875 
Q 23.25 65.921875 18.609375 64.9375 
Q 13.96875 63.96875 8.890625 62.015625 
L 8.890625 71.09375 
Q 14.796875 72.65625 19.40625 73.4375 
Q 24.03125 74.21875 27.59375 74.21875 
Q 38.234375 74.21875 44.609375 68.875 
Q 50.984375 63.53125 50.984375 54.6875 
Q 50.984375 48.6875 47.625 44.671875 
Q 44.28125 40.671875 37.890625 39.015625 
z
" id="DejaVuSansMono-51"/>
       </defs>
       <use xlink:href="#DejaVuSansMono-51"/>
       <use x="60.205078" xlink:href="#DejaVuSansMono-48"/>
       <use x="120.410156" xlink:href="#DejaVuSansMono-48"/>
      </g>
     </g>
    </g>
    <g id="xtick_5">
     <g id="line2d_5">
      <g>
       <use style="stroke:#000000;stroke-width:0.8;" x="284.04798" xlink:href="#m1d42f8a00b" y="316.4425"/>
      </g>
     </g>
     <g id="text_5">
      <!-- 400 -->
      <g transform="translate(278.629699 328.033437)scale(0.06 -0.06)">
       <defs>
        <path d="M 35.890625 63.921875 
L 12.890625 25.390625 
L 35.890625 25.390625 
z
M 34.28125 72.90625 
L 45.703125 72.90625 
L 45.703125 25.390625 
L 55.421875 25.390625 
L 55.421875 17.390625 
L 45.703125 17.390625 
L 45.703125 0 
L 35.890625 0 
L 35.890625 17.390625 
L 4.984375 17.390625 
L 4.984375 26.703125 
z
" id="DejaVuSansMono-52"/>
       </defs>
       <use xlink:href="#DejaVuSansMono-52"/>
       <use x="60.205078" xlink:href="#DejaVuSansMono-48"/>
       <use x="120.410156" xlink:href="#DejaVuSansMono-48"/>
      </g>
     </g>
    </g>
    <g id="xtick_6">
     <g id="line2d_6">
      <g>
       <use style="stroke:#000000;stroke-width:0.8;" x="341.340046" xlink:href="#m1d42f8a00b" y="316.4425"/>
      </g>
     </g>
     <g id="text_6">
      <!-- 500 -->
      <g transform="translate(335.921765 328.033437)scale(0.06 -0.06)">
       <defs>
        <path d="M 10.109375 72.90625 
L 47.015625 72.90625 
L 47.015625 64.59375 
L 19.09375 64.59375 
L 19.09375 46.6875 
Q 21.1875 47.46875 23.3125 47.828125 
Q 25.4375 48.1875 27.59375 48.1875 
Q 38.921875 48.1875 45.5625 41.5 
Q 52.203125 34.8125 52.203125 23.390625 
Q 52.203125 11.859375 45.234375 5.21875 
Q 38.28125 -1.421875 26.21875 -1.421875 
Q 20.40625 -1.421875 15.59375 -0.640625 
Q 10.796875 0.140625 6.984375 1.703125 
L 6.984375 11.71875 
Q 11.46875 9.28125 16.015625 8.078125 
Q 20.5625 6.890625 25.296875 6.890625 
Q 33.453125 6.890625 37.859375 11.1875 
Q 42.28125 15.484375 42.28125 23.390625 
Q 42.28125 31.203125 37.71875 35.546875 
Q 33.15625 39.890625 25 39.890625 
Q 21.046875 39.890625 17.28125 38.984375 
Q 13.53125 38.09375 10.109375 36.28125 
z
" id="DejaVuSansMono-53"/>
       </defs>
       <use xlink:href="#DejaVuSansMono-53"/>
       <use x="60.205078" xlink:href="#DejaVuSansMono-48"/>
       <use x="120.410156" xlink:href="#DejaVuSansMono-48"/>
      </g>
     </g>
    </g>
    <g id="xtick_7">
     <g id="line2d_7">
      <g>
       <use style="stroke:#000000;stroke-width:0.8;" x="398.632112" xlink:href="#m1d42f8a00b" y="316.4425"/>
      </g>
     </g>
     <g id="text_7">
      <!-- 600 -->
      <g transform="translate(393.213831 328.033437)scale(0.06 -0.06)">
       <defs>
        <path d="M 48.390625 71.296875 
L 48.390625 62.203125 
Q 45.3125 64.015625 41.84375 64.96875 
Q 38.375 65.921875 34.625 65.921875 
Q 25.25 65.921875 20.40625 58.859375 
Q 15.578125 51.8125 15.578125 38.09375 
Q 17.921875 42.96875 22.0625 45.578125 
Q 26.21875 48.1875 31.59375 48.1875 
Q 42.140625 48.1875 47.921875 41.71875 
Q 53.71875 35.25 53.71875 23.390625 
Q 53.71875 11.578125 47.75 5.078125 
Q 41.796875 -1.421875 31 -1.421875 
Q 18.3125 -1.421875 12.40625 7.6875 
Q 6.5 16.796875 6.5 36.375 
Q 6.5 54.828125 13.59375 64.515625 
Q 20.703125 74.21875 34.1875 74.21875 
Q 37.796875 74.21875 41.40625 73.453125 
Q 45.015625 72.703125 48.390625 71.296875 
z
M 30.8125 40.484375 
Q 24.515625 40.484375 20.890625 35.9375 
Q 17.28125 31.390625 17.28125 23.390625 
Q 17.28125 15.375 20.890625 10.828125 
Q 24.515625 6.296875 30.8125 6.296875 
Q 37.359375 6.296875 40.671875 10.609375 
Q 44 14.9375 44 23.390625 
Q 44 31.890625 40.671875 36.1875 
Q 37.359375 40.484375 30.8125 40.484375 
z
" id="DejaVuSansMono-54"/>
       </defs>
       <use xlink:href="#DejaVuSansMono-54"/>
       <use x="60.205078" xlink:href="#DejaVuSansMono-48"/>
       <use x="120.410156" xlink:href="#DejaVuSansMono-48"/>
      </g>
     </g>
    </g>
    <g id="text_8">
     <!-- n -->
     <g transform="translate(243.283281 337.872187)scale(0.06 -0.06)">
      <defs>
       <path d="M 51.3125 33.890625 
L 51.3125 0 
L 42.28125 0 
L 42.28125 33.890625 
Q 42.28125 41.265625 39.6875 44.71875 
Q 37.109375 48.1875 31.59375 48.1875 
Q 25.296875 48.1875 21.890625 43.71875 
Q 18.5 39.265625 18.5 30.90625 
L 18.5 0 
L 9.515625 0 
L 9.515625 54.6875 
L 18.5 54.6875 
L 18.5 46.484375 
Q 20.90625 51.171875 25 53.578125 
Q 29.109375 56 34.71875 56 
Q 43.0625 56 47.1875 50.5 
Q 51.3125 45.015625 51.3125 33.890625 
z
" id="DejaVuSansMono-110"/>
      </defs>
      <use xlink:href="#DejaVuSansMono-110"/>
     </g>
    </g>
   </g>
   <g id="matplotlib.axis_2">
    <g id="ytick_1">
     <g id="line2d_8">
      <defs>
       <path d="M 0 0 
L -3.5 0 
" id="m407e1aea42" style="stroke:#000000;stroke-width:0.8;"/>
      </defs>
      <g>
       <use style="stroke:#000000;stroke-width:0.8;" x="35.85875" xlink:href="#m407e1aea42" y="283.187834"/>
      </g>
     </g>
     <g id="text_9">
      <!-- $\mathdefault{10^{1}}$ -->
      <g transform="translate(18.83875 285.483302)scale(0.06 -0.06)">
       <use transform="translate(0 0.684375)" xlink:href="#DejaVuSansMono-49"/>
       <use transform="translate(60.205078 0.684375)" xlink:href="#DejaVuSansMono-48"/>
       <use transform="translate(121.367188 38.965625)scale(0.7)" xlink:href="#DejaVuSansMono-49"/>
      </g>
     </g>
    </g>
    <g id="ytick_2">
     <g id="line2d_9">
      <g>
       <use style="stroke:#000000;stroke-width:0.8;" x="35.85875" xlink:href="#m407e1aea42" y="243.810626"/>
      </g>
     </g>
     <g id="text_10">
      <!-- $\mathdefault{10^{3}}$ -->
      <g transform="translate(18.83875 246.106094)scale(0.06 -0.06)">
       <use transform="translate(0 0.765625)" xlink:href="#DejaVuSansMono-49"/>
       <use transform="translate(60.205078 0.765625)" xlink:href="#DejaVuSansMono-48"/>
       <use transform="translate(121.367188 39.046875)scale(0.7)" xlink:href="#DejaVuSansMono-51"/>
      </g>
     </g>
    </g>
    <g id="ytick_3">
     <g id="line2d_10">
      <g>
       <use style="stroke:#000000;stroke-width:0.8;" x="35.85875" xlink:href="#m407e1aea42" y="204.433418"/>
      </g>
     </g>
     <g id="text_11">
      <!-- $\mathdefault{10^{5}}$ -->
      <g transform="translate(18.83875 206.728887)scale(0.06 -0.06)">
       <use transform="translate(0 0.684375)" xlink:href="#DejaVuSansMono-49"/>
       <use transform="translate(60.205078 0.684375)" xlink:href="#DejaVuSansMono-48"/>
       <use transform="translate(121.367188 38.965625)scale(0.7)" xlink:href="#DejaVuSansMono-53"/>
      </g>
     </g>
    </g>
    <g id="ytick_4">
     <g id="line2d_11">
      <g>
       <use style="stroke:#000000;stroke-width:0.8;" x="35.85875" xlink:href="#m407e1aea42" y="165.05621"/>
      </g>
     </g>
     <g id="text_12">
      <!-- $\mathdefault{10^{7}}$ -->
      <g transform="translate(18.83875 167.351679)scale(0.06 -0.06)">
       <defs>
        <path d="M 6.78125 72.90625 
L 52.6875 72.90625 
L 52.6875 68.703125 
L 26.609375 0 
L 16.3125 0 
L 41.703125 64.59375 
L 6.78125 64.59375 
z
" id="DejaVuSansMono-55"/>
       </defs>
       <use transform="translate(0 0.684375)" xlink:href="#DejaVuSansMono-49"/>
       <use transform="translate(60.205078 0.684375)" xlink:href="#DejaVuSansMono-48"/>
       <use transform="translate(121.367188 38.965625)scale(0.7)" xlink:href="#DejaVuSansMono-55"/>
      </g>
     </g>
    </g>
    <g id="ytick_5">
     <g id="line2d_12">
      <g>
       <use style="stroke:#000000;stroke-width:0.8;" x="35.85875" xlink:href="#m407e1aea42" y="125.679002"/>
      </g>
     </g>
     <g id="text_13">
      <!-- $\mathdefault{10^{9}}$ -->
      <g transform="translate(18.83875 127.974471)scale(0.06 -0.06)">
       <defs>
        <path d="M 29.109375 32.328125 
Q 35.40625 32.328125 38.984375 36.859375 
Q 42.578125 41.40625 42.578125 49.421875 
Q 42.578125 57.421875 38.984375 61.953125 
Q 35.40625 66.5 29.109375 66.5 
Q 22.5625 66.5 19.234375 62.171875 
Q 15.921875 57.859375 15.921875 49.421875 
Q 15.921875 40.921875 19.21875 36.625 
Q 22.515625 32.328125 29.109375 32.328125 
z
M 11.53125 1.515625 
L 11.53125 10.59375 
Q 14.59375 8.796875 18.0625 7.84375 
Q 21.53125 6.890625 25.296875 6.890625 
Q 34.671875 6.890625 39.46875 13.9375 
Q 44.28125 21 44.28125 34.71875 
Q 42 29.828125 37.84375 27.21875 
Q 33.6875 24.609375 28.328125 24.609375 
Q 17.78125 24.609375 11.984375 31.09375 
Q 6.203125 37.59375 6.203125 49.515625 
Q 6.203125 61.28125 12.125 67.75 
Q 18.0625 74.21875 28.90625 74.21875 
Q 41.609375 74.21875 47.515625 65.078125 
Q 53.421875 55.953125 53.421875 36.375 
Q 53.421875 17.96875 46.3125 8.265625 
Q 39.203125 -1.421875 25.6875 -1.421875 
Q 22.125 -1.421875 18.5 -0.65625 
Q 14.890625 0.09375 11.53125 1.515625 
z
" id="DejaVuSansMono-57"/>
       </defs>
       <use transform="translate(0 0.765625)" xlink:href="#DejaVuSansMono-49"/>
       <use transform="translate(60.205078 0.765625)" xlink:href="#DejaVuSansMono-48"/>
       <use transform="translate(121.367188 39.046875)scale(0.7)" xlink:href="#DejaVuSansMono-57"/>
      </g>
     </g>
    </g>
    <g id="ytick_6">
     <g id="line2d_13">
      <g>
       <use style="stroke:#000000;stroke-width:0.8;" x="35.85875" xlink:href="#m407e1aea42" y="86.301794"/>
      </g>
     </g>
     <g id="text_14">
      <!-- $\mathdefault{10^{11}}$ -->
      <g transform="translate(16.31875 88.597263)scale(0.06 -0.06)">
       <use transform="translate(0 0.684375)" xlink:href="#DejaVuSansMono-49"/>
       <use transform="translate(60.205078 0.684375)" xlink:href="#DejaVuSansMono-48"/>
       <use transform="translate(121.367188 38.965625)scale(0.7)" xlink:href="#DejaVuSansMono-49"/>
       <use transform="translate(163.510742 38.965625)scale(0.7)" xlink:href="#DejaVuSansMono-49"/>
      </g>
     </g>
    </g>
    <g id="ytick_7">
     <g id="line2d_14">
      <g>
       <use style="stroke:#000000;stroke-width:0.8;" x="35.85875" xlink:href="#m407e1aea42" y="46.924586"/>
      </g>
     </g>
     <g id="text_15">
      <!-- $\mathdefault{10^{13}}$ -->
      <g transform="translate(16.31875 49.220055)scale(0.06 -0.06)">
       <use transform="translate(0 0.765625)" xlink:href="#DejaVuSansMono-49"/>
       <use transform="translate(60.205078 0.765625)" xlink:href="#DejaVuSansMono-48"/>
       <use transform="translate(121.367188 39.046875)scale(0.7)" xlink:href="#DejaVuSansMono-49"/>
       <use transform="translate(163.510742 39.046875)scale(0.7)" xlink:href="#DejaVuSansMono-51"/>
      </g>
     </g>
    </g>
    <g id="text_16">
     <!-- y_n -->
     <g transform="translate(10.904063 172.634094)rotate(-90)scale(0.06 -0.06)">
      <defs>
       <path d="M 41.890625 17.578125 
Q 39.65625 11.859375 36.1875 2.546875 
Q 31.34375 -10.359375 29.6875 -13.1875 
Q 27.4375 -17 24.0625 -18.890625 
Q 20.703125 -20.796875 16.21875 -20.796875 
L 8.984375 -20.796875 
L 8.984375 -13.28125 
L 14.3125 -13.28125 
Q 18.265625 -13.28125 20.5 -10.984375 
Q 22.75 -8.6875 26.21875 0.875 
L 5.078125 54.6875 
L 14.59375 54.6875 
L 30.8125 11.921875 
L 46.78125 54.6875 
L 56.296875 54.6875 
z
" id="DejaVuSansMono-121"/>
       <path d="M 60.203125 -19.671875 
L 60.203125 -23.578125 
L 0 -23.578125 
L 0 -19.671875 
z
" id="DejaVuSansMono-95"/>
      </defs>
      <use xlink:href="#DejaVuSansMono-121"/>
      <use x="60.205078" xlink:href="#DejaVuSansMono-95"/>
      <use x="120.410156" xlink:href="#DejaVuSansMono-110"/>
     </g>
    </g>
   </g>
   <g id="line2d_15">
    <path clip-path="url(#p69eb884767)" d="M 54.879716 168.568199 
L 55.452637 159.174348 
L 56.025557 165.101208 
L 56.598478 155.707356 
L 57.744319 167.561077 
L 58.31724 158.167225 
L 58.890161 164.094085 
L 59.463081 154.700234 
L 60.608923 166.553954 
L 61.181843 157.160103 
L 61.754764 163.086963 
L 62.327684 153.693111 
L 62.900605 159.619972 
L 63.473526 150.22612 
L 64.046446 156.152981 
L 64.619367 146.759129 
L 65.192288 152.685989 
L 65.765208 143.292138 
L 66.338129 149.218998 
L 66.91105 139.825147 
L 67.48397 145.752007 
L 68.056891 136.358156 
L 68.629812 142.285016 
L 69.202732 132.891165 
L 69.775653 138.818025 
L 70.348574 129.424174 
L 71.494415 141.277894 
L 72.067336 131.884043 
L 73.786098 149.664624 
L 74.359018 140.270773 
L 74.931939 146.197633 
L 75.50486 136.803781 
L 76.07778 142.730642 
L 76.650701 133.33679 
L 77.223622 139.263651 
L 77.796542 129.869799 
L 78.369463 135.79666 
L 78.942384 126.402808 
L 79.515304 132.329669 
L 80.088225 122.935817 
L 81.234066 134.789538 
L 81.806987 125.395686 
L 82.379908 131.322547 
L 82.952828 121.928695 
L 83.525749 127.855556 
L 84.09867 118.461704 
L 84.67159 124.388565 
L 85.244511 114.994713 
L 85.817432 120.921574 
L 86.390352 111.527722 
L 86.963273 117.454583 
L 87.536194 108.060731 
L 88.109114 113.987591 
L 88.682035 104.59374 
L 89.254956 110.5206 
L 89.827876 101.126749 
L 91.546638 118.90733 
L 92.119559 109.513479 
L 92.692479 115.440339 
L 93.2654 106.046488 
L 93.838321 111.973348 
L 94.411241 102.579497 
L 94.984162 108.506357 
L 95.557083 99.112506 
L 96.702924 110.966226 
L 97.275845 101.572375 
L 98.421686 113.426096 
L 98.994607 104.032244 
L 99.567527 109.959104 
L 100.140448 100.565253 
L 101.286289 112.418974 
L 101.85921 103.025122 
L 103.005051 114.878843 
L 103.577972 105.484992 
L 104.723813 117.338712 
L 105.296734 107.944861 
L 105.869655 113.871721 
L 106.442575 104.47787 
L 107.015496 110.40473 
L 107.588417 101.010879 
L 108.161337 106.937739 
L 108.734258 97.543888 
L 110.45302 115.324469 
L 111.025941 105.930617 
L 112.171782 117.784338 
L 112.744703 108.390487 
L 113.317623 114.317347 
L 113.890544 104.923496 
L 115.036385 116.777216 
L 115.609306 107.383365 
L 116.182227 113.310225 
L 116.755147 103.916374 
L 117.328068 109.843234 
L 117.900988 100.449383 
L 118.473909 106.376243 
L 119.04683 96.982392 
L 119.61975 102.909252 
L 120.192671 93.515401 
L 120.765592 99.442261 
L 121.338512 90.04841 
L 121.911433 95.97527 
L 122.484354 86.581419 
L 123.630195 98.435139 
L 124.203116 89.041288 
L 124.776036 94.968148 
L 125.348957 85.574297 
L 125.921878 91.501157 
L 126.494798 82.107306 
L 127.067719 88.034166 
L 127.64064 78.640315 
L 128.21356 84.567175 
L 128.786481 75.173324 
L 129.359402 81.100184 
L 129.932322 71.706333 
L 130.505243 77.633193 
L 131.078164 68.239342 
L 131.651084 74.166202 
L 132.224005 64.772351 
L 132.796926 70.699211 
L 133.369846 61.305359 
L 133.942767 67.23222 
L 134.515688 57.838368 
L 135.088608 63.765229 
L 135.661529 54.371377 
L 136.23445 60.298238 
L 136.80737 50.904386 
L 137.380291 56.831247 
L 137.953212 47.437395 
L 139.099053 59.291116 
L 139.671974 49.897265 
L 140.244894 55.824125 
L 140.817815 46.430273 
L 141.390736 52.357134 
L 141.963656 42.963282 
L 142.536577 48.890143 
L 143.109498 39.496291 
L 143.682418 45.423152 
L 144.255339 36.0293 
L 145.40118 47.883021 
L 145.974101 38.48917 
L 146.547021 44.41603 
L 147.119942 35.022179 
L 147.692863 40.949039 
L 148.265783 31.555187 
L 150.557466 55.262629 
L 151.130387 45.868778 
L 152.849149 63.649359 
L 153.422069 54.255507 
L 155.713752 77.962949 
L 156.286673 68.569097 
L 157.432514 80.422818 
L 158.005435 71.028967 
L 160.870038 100.663268 
L 161.442959 91.269417 
L 162.015879 97.196277 
L 162.5888 87.802426 
L 163.161721 93.729286 
L 163.734641 84.335435 
L 164.307562 90.262295 
L 164.880483 80.868444 
L 165.453403 86.795304 
L 166.026324 77.401453 
L 166.599245 83.328313 
L 167.172165 73.934462 
L 168.318007 85.788182 
L 168.890927 76.394331 
L 170.609689 94.174912 
L 171.18261 84.781061 
L 172.328451 96.634781 
L 172.901372 87.24093 
L 175.193054 110.948371 
L 175.765975 101.55452 
L 178.630578 131.188822 
L 179.203499 121.79497 
L 180.34934 133.648691 
L 180.922261 124.25484 
L 181.495182 130.1817 
L 182.068102 120.787849 
L 183.213944 132.641569 
L 183.786864 123.247718 
L 184.359785 129.174578 
L 184.932706 119.780727 
L 186.078547 131.634447 
L 186.651468 122.240596 
L 187.797309 134.094317 
L 188.37023 124.700465 
L 188.94315 130.627326 
L 189.516071 121.233474 
L 190.088992 127.160335 
L 190.661912 117.766483 
L 191.807754 129.620204 
L 192.380674 120.226353 
L 192.953595 126.153213 
L 193.526516 116.759361 
L 194.099436 122.686222 
L 194.672357 113.29237 
L 195.818198 125.146091 
L 196.391119 115.75224 
L 196.96404 121.6791 
L 197.53696 112.285249 
L 198.109881 118.212109 
L 198.682802 108.818258 
L 200.401564 126.598839 
L 200.974484 117.204987 
L 201.547405 123.131848 
L 202.120326 113.737996 
L 203.839087 131.518577 
L 204.412008 122.124726 
L 206.13077 139.905307 
L 206.703691 130.511455 
L 207.276611 136.438316 
L 207.849532 127.044464 
L 208.995373 138.898185 
L 209.568294 129.504334 
L 210.141215 135.431194 
L 210.714135 126.037343 
L 212.432897 143.817924 
L 213.005818 134.424072 
L 213.578739 140.350933 
L 214.151659 130.957081 
L 214.72458 136.883942 
L 215.297501 127.49009 
L 217.016263 145.270671 
L 217.589183 135.87682 
L 218.162104 141.80368 
L 218.735025 132.409829 
L 219.307945 138.336689 
L 219.880866 128.942838 
L 221.026707 140.796558 
L 221.599628 131.402707 
L 223.891311 155.110148 
L 224.464231 145.716297 
L 225.610073 157.570018 
L 226.182993 148.176166 
L 227.901755 165.956747 
L 228.474676 156.562895 
L 229.047597 162.489756 
L 229.620517 153.095904 
L 230.193438 159.022764 
L 230.766359 149.628913 
L 231.339279 155.555773 
L 231.9122 146.161922 
L 232.48512 152.088782 
L 233.058041 142.694931 
L 233.630962 148.621791 
L 234.203882 139.22794 
L 235.349724 151.08166 
L 235.922644 141.687809 
L 236.495565 147.614669 
L 237.068486 138.220818 
L 237.641406 144.147678 
L 238.214327 134.753827 
L 238.787248 140.680687 
L 239.360168 131.286836 
L 239.933089 137.213696 
L 240.50601 127.819844 
L 242.797692 151.527286 
L 243.370613 142.133434 
L 244.516454 153.987155 
L 245.089375 144.593304 
L 245.662296 150.520164 
L 246.235216 141.126313 
L 247.381058 152.980033 
L 247.953978 143.586182 
L 249.09982 155.439902 
L 249.67274 146.046051 
L 250.818582 157.899772 
L 251.391502 148.50592 
L 251.964423 154.432781 
L 252.537344 145.038929 
L 253.110264 150.965789 
L 253.683185 141.571938 
L 255.401947 159.352519 
L 255.974868 149.958667 
L 256.547788 155.885528 
L 257.120709 146.491676 
L 257.69363 152.418537 
L 258.26655 143.024685 
L 260.558233 166.732127 
L 261.131153 157.338275 
L 263.422836 181.045716 
L 263.995757 171.651863 
L 264.568677 177.578723 
L 265.141598 168.184871 
L 266.287439 180.038591 
L 266.86036 170.644738 
L 267.433281 176.571599 
L 268.006201 167.177746 
L 268.579122 173.104607 
L 269.152043 163.710754 
L 269.724963 169.637615 
L 270.297884 160.243763 
L 271.443725 172.097484 
L 272.016646 162.703632 
L 273.162487 174.557352 
L 273.735408 165.1635 
L 274.881249 177.017221 
L 275.45417 167.623368 
L 276.027091 173.550228 
L 276.600011 164.156376 
L 277.745853 176.010097 
L 278.318773 166.616245 
L 278.891694 172.543105 
L 279.464615 163.149253 
L 280.037535 169.076113 
L 280.610456 159.682261 
L 282.902139 183.389703 
L 283.475059 173.995849 
L 284.620901 185.84957 
L 285.193821 176.455715 
L 286.912583 194.236296 
L 287.485504 184.842436 
L 289.204266 202.623017 
L 289.777186 193.229143 
L 291.495948 211.009724 
L 292.068869 201.615811 
L 292.64179 207.542671 
L 293.21471 198.148779 
L 293.787631 204.075639 
L 294.360552 194.68176 
L 295.506393 206.535481 
L 296.079314 197.141593 
L 297.798076 214.922174 
L 298.370996 205.528226 
L 298.943917 211.455086 
L 299.516838 202.06117 
L 300.089758 207.98803 
L 300.662679 198.594136 
L 301.2356 204.520996 
L 301.80852 195.127116 
L 304.100203 218.834557 
L 304.673124 209.440552 
L 305.246044 215.367412 
L 305.818965 205.973459 
L 306.391886 211.900319 
L 306.964806 202.506399 
L 307.537727 208.43326 
L 308.110648 199.039363 
L 308.683568 204.966223 
L 309.256489 195.572341 
L 309.82941 201.499202 
L 310.40233 192.10533 
L 310.975251 198.03219 
L 311.548172 188.638326 
L 312.694013 200.492046 
L 313.266934 191.098177 
L 314.985696 208.878758 
L 315.558616 199.484859 
L 316.131537 205.411719 
L 316.704457 196.017836 
L 318.99614 219.725277 
L 319.569061 210.331255 
L 320.141981 216.258116 
L 320.714902 206.864151 
L 322.433664 224.644732 
L 323.006585 215.250577 
L 323.579505 221.177438 
L 324.152426 211.783384 
L 324.725347 217.710245 
L 325.298267 208.316258 
L 325.871188 214.243119 
L 326.444109 204.849178 
L 327.017029 210.776038 
L 327.58995 201.382127 
L 328.162871 207.308987 
L 328.735791 197.915096 
L 329.881633 209.768817 
L 330.454553 200.374912 
L 332.173315 218.155493 
L 332.746236 208.7615 
L 334.464998 226.542081 
L 335.037919 217.147851 
L 335.610839 223.074711 
L 336.18376 213.680608 
L 336.756681 219.607468 
L 337.329601 210.213449 
L 337.902522 216.140309 
L 338.475443 206.746346 
L 339.621284 218.600066 
L 340.194205 209.206065 
L 340.767125 215.132926 
L 341.340046 205.738975 
L 343.631729 229.446416 
L 344.204649 220.052034 
L 347.069252 249.686335 
L 347.642173 240.286819 
L 348.215094 246.21368 
L 348.788014 236.816054 
L 349.360935 242.742914 
L 349.933856 233.346548 
L 351.652618 251.127129 
L 352.225538 241.726574 
L 353.37138 253.580294 
L 353.9443 244.177513 
L 354.517221 250.104373 
L 355.090142 240.704573 
L 355.663062 246.631434 
L 356.235983 237.233619 
L 356.808904 243.16048 
L 357.381824 233.763987 
L 357.954745 239.690847 
L 358.527666 230.295236 
L 359.100586 236.222096 
L 359.673507 226.827071 
L 361.392269 244.607652 
L 361.96519 235.210673 
L 362.53811 241.137533 
L 363.111031 231.741597 
L 363.683952 237.668457 
L 364.256872 228.273216 
L 364.829793 234.200077 
L 365.402714 224.805299 
L 367.694396 248.51274 
L 368.267317 239.113951 
L 369.413158 250.967671 
L 369.986079 241.56724 
L 371.13192 253.420961 
L 371.704841 244.018344 
L 373.996523 267.725785 
L 374.569444 258.285336 
L 376.288206 276.065917 
L 376.861127 266.549033 
L 377.434047 272.475893 
L 378.006968 263.000992 
L 378.579889 268.927853 
L 379.152809 259.480392 
L 382.017413 289.114694 
L 382.590333 279.168996 
L 384.882016 302.876437 
L 384.882016 302.876437 
" style="fill:none;stroke:#1f77b4;stroke-linecap:square;stroke-width:0.666667;"/>
   </g>
   <g id="line2d_16">
    <path clip-path="url(#p69eb884767)" d="M 54.879716 168.545531 
L 55.452637 159.15168 
L 56.025557 165.07854 
L 56.598478 155.684688 
L 57.171399 161.611549 
L 57.744319 152.217697 
L 58.31724 158.144557 
L 58.890161 148.750706 
L 59.463081 154.677566 
L 60.036002 145.283715 
L 60.608923 151.210575 
L 61.181843 141.816724 
L 62.327684 153.670444 
L 62.900605 144.276593 
L 63.473526 150.203453 
L 64.046446 140.809602 
L 64.619367 146.736462 
L 65.192288 137.342611 
L 65.765208 143.269471 
L 66.338129 133.87562 
L 66.91105 139.80248 
L 67.48397 130.408628 
L 68.629812 142.262349 
L 69.202732 132.868498 
L 69.775653 138.795358 
L 70.348574 129.401507 
L 70.921494 135.328367 
L 71.494415 125.934516 
L 72.067336 131.861376 
L 72.640256 122.467525 
L 73.213177 128.394385 
L 73.786098 119.000533 
L 74.359018 124.927394 
L 74.931939 115.533542 
L 75.50486 121.460403 
L 76.07778 112.066551 
L 77.223622 123.920272 
L 77.796542 114.526421 
L 78.369463 120.453281 
L 78.942384 111.05943 
L 80.088225 122.91315 
L 80.661146 113.519299 
L 81.234066 119.446159 
L 81.806987 110.052308 
L 82.379908 115.979168 
L 82.952828 106.585317 
L 84.09867 118.439037 
L 84.67159 109.045186 
L 85.817432 120.898907 
L 86.390352 111.505055 
L 89.827876 147.066218 
L 90.400797 137.672366 
L 90.973717 143.599226 
L 91.546638 134.205375 
L 93.2654 151.985956 
L 93.838321 142.592105 
L 94.411241 148.518965 
L 94.984162 139.125113 
L 95.557083 145.051974 
L 96.130003 135.658122 
L 97.275845 147.511843 
L 97.848765 138.117992 
L 98.421686 144.044852 
L 98.994607 134.651001 
L 99.567527 140.577861 
L 100.140448 131.18401 
L 100.713369 137.11087 
L 101.286289 127.717018 
L 101.85921 133.643879 
L 102.432131 124.250027 
L 103.005051 130.176888 
L 103.577972 120.783036 
L 105.296734 138.563617 
L 105.869655 129.169766 
L 106.442575 135.096626 
L 107.015496 125.702775 
L 107.588417 131.629635 
L 108.161337 122.235784 
L 108.734258 128.162644 
L 109.307179 118.768793 
L 109.880099 124.695653 
L 110.45302 115.301802 
L 111.025941 121.228662 
L 111.598861 111.834811 
L 112.171782 117.761671 
L 112.744703 108.36782 
L 115.036385 132.075261 
L 115.609306 122.68141 
L 117.328068 140.461991 
L 117.900988 131.068139 
L 118.473909 136.995 
L 119.04683 127.601148 
L 120.192671 139.454869 
L 120.765592 130.061017 
L 121.338512 135.987878 
L 121.911433 126.594026 
L 122.484354 132.520887 
L 123.057274 123.127035 
L 124.203116 134.980756 
L 124.776036 125.586905 
L 125.348957 131.513765 
L 125.921878 122.119914 
L 127.067719 133.973634 
L 127.64064 124.579783 
L 128.21356 130.506643 
L 128.786481 121.112792 
L 129.359402 127.039652 
L 129.932322 117.645801 
L 130.505243 123.572661 
L 131.078164 114.17881 
L 133.369846 137.886251 
L 133.942767 128.4924 
L 134.515688 134.41926 
L 135.088608 125.025409 
L 135.661529 130.952269 
L 136.23445 121.558418 
L 136.80737 127.485278 
L 137.380291 118.091427 
L 137.953212 124.018287 
L 138.526132 114.624435 
L 139.671974 126.478156 
L 140.244894 117.084305 
L 140.817815 123.011165 
L 141.390736 113.617314 
L 142.536577 125.471034 
L 143.109498 116.077183 
L 144.255339 127.930904 
L 144.82826 118.537052 
L 145.40118 124.463913 
L 145.974101 115.070061 
L 147.119942 126.923782 
L 147.692863 117.529931 
L 148.265783 123.456791 
L 148.838704 114.062939 
L 149.984545 125.91666 
L 150.557466 116.522809 
L 152.276228 134.30339 
L 152.849149 124.909538 
L 153.422069 130.836399 
L 153.99499 121.442547 
L 154.567911 127.369408 
L 155.140831 117.975556 
L 155.713752 123.902417 
L 156.286673 114.508565 
L 156.859593 120.435426 
L 157.432514 111.041574 
L 158.005435 116.968435 
L 158.578355 107.574583 
L 162.015879 143.135745 
L 162.5888 133.741894 
L 163.161721 139.668754 
L 163.734641 130.274903 
L 166.026324 153.982344 
L 166.599245 144.588493 
L 168.890927 168.295934 
L 169.463848 158.902082 
L 170.036769 164.828943 
L 170.609689 155.435091 
L 171.755531 167.288812 
L 172.328451 157.89496 
L 172.901372 163.82182 
L 173.474293 154.427969 
L 174.047213 160.354829 
L 174.620134 150.960977 
L 175.193054 156.887838 
L 175.765975 147.493986 
L 176.338896 153.420847 
L 176.911816 144.026995 
L 177.484737 149.953855 
L 178.057658 140.560004 
L 178.630578 146.486864 
L 179.203499 137.093013 
L 179.77642 143.019873 
L 180.34934 133.626022 
L 180.922261 139.552882 
L 181.495182 130.159031 
L 183.786864 153.866472 
L 184.359785 144.472621 
L 186.078547 162.253202 
L 186.651468 152.85935 
L 187.224388 158.786211 
L 187.797309 149.392359 
L 189.516071 167.17294 
L 190.088992 157.779088 
L 191.234833 169.632809 
L 191.807754 160.238957 
L 192.380674 166.165817 
L 192.953595 156.771966 
L 194.099436 168.625686 
L 194.672357 159.231835 
L 195.245278 165.158695 
L 195.818198 155.764843 
L 196.391119 161.691704 
L 196.96404 152.297852 
L 198.109881 164.151573 
L 198.682802 154.757721 
L 199.255722 160.684581 
L 199.828643 151.29073 
L 200.401564 157.21759 
L 200.974484 147.823739 
L 201.547405 153.750599 
L 202.120326 144.356747 
L 202.693246 150.283608 
L 203.266167 140.889756 
L 203.839087 146.816617 
L 204.412008 137.422765 
L 205.557849 149.276486 
L 206.13077 139.882635 
L 206.703691 145.809495 
L 207.276611 136.415643 
L 207.849532 142.342504 
L 208.422453 132.948652 
L 208.995373 138.875513 
L 209.568294 129.481661 
L 210.714135 141.335382 
L 211.287056 131.941531 
L 211.859977 137.868391 
L 212.432897 128.47454 
L 213.578739 140.32826 
L 214.151659 130.934409 
L 214.72458 136.861269 
L 215.297501 127.467418 
L 218.162104 157.10172 
L 218.735025 147.707868 
L 219.307945 153.634728 
L 219.880866 144.240877 
L 220.453787 150.167737 
L 221.026707 140.773886 
L 221.599628 146.700746 
L 222.172549 137.306895 
L 222.745469 143.233755 
L 223.31839 133.839904 
L 225.037152 151.620485 
L 225.610073 142.226633 
L 226.182993 148.153494 
L 226.755914 138.759642 
L 228.474676 156.540223 
L 229.047597 147.146372 
L 229.620517 153.073232 
L 230.193438 143.679381 
L 230.766359 149.606241 
L 231.339279 140.212389 
L 232.48512 152.06611 
L 233.058041 142.672259 
L 234.203882 154.525979 
L 234.776803 145.132128 
L 235.349724 151.058988 
L 235.922644 141.665137 
L 236.495565 147.591997 
L 237.068486 138.198146 
L 237.641406 144.125006 
L 238.214327 134.731155 
L 238.787248 140.658015 
L 239.360168 131.264164 
L 239.933089 137.191024 
L 240.50601 127.797172 
L 241.07893 133.724033 
L 241.651851 124.330181 
L 242.224772 130.257042 
L 242.797692 120.86319 
L 243.370613 126.790051 
L 243.943534 117.396199 
L 244.516454 123.32306 
L 245.089375 113.929208 
L 246.808137 131.709789 
L 247.381058 122.315938 
L 247.953978 128.242798 
L 248.526899 118.848947 
L 249.09982 124.775807 
L 249.67274 115.381956 
L 250.245661 121.308816 
L 250.818582 111.914965 
L 251.391502 117.841825 
L 251.964423 108.447974 
L 253.683185 126.228555 
L 254.256106 116.834703 
L 254.829026 122.761564 
L 255.401947 113.367712 
L 255.974868 119.294573 
L 256.547788 109.900721 
L 257.120709 115.827582 
L 257.69363 106.43373 
L 258.26655 112.36059 
L 258.839471 102.966739 
L 260.558233 120.74732 
L 261.131153 111.353469 
L 261.704074 117.280329 
L 262.276995 107.886478 
L 263.422836 119.740198 
L 263.995757 110.346347 
L 264.568677 116.273207 
L 265.141598 106.879356 
L 266.287439 118.733077 
L 266.86036 109.339225 
L 267.433281 115.266086 
L 268.006201 105.872234 
L 268.579122 111.799094 
L 269.152043 102.405243 
L 271.443725 126.112685 
L 272.016646 116.718833 
L 273.162487 128.572554 
L 273.735408 119.178702 
L 274.308329 125.105563 
L 274.881249 115.711711 
L 275.45417 121.638572 
L 276.027091 112.24472 
L 276.600011 118.171581 
L 277.172932 108.777729 
L 278.891694 126.55831 
L 279.464615 117.164459 
L 280.610456 129.01818 
L 281.183377 119.624328 
L 281.756297 125.551189 
L 282.329218 116.157337 
L 282.902139 122.084197 
L 283.475059 112.690346 
L 284.04798 118.617206 
L 284.620901 109.223355 
L 285.193821 115.150215 
L 285.766742 105.756364 
L 286.912583 117.610085 
L 287.485504 108.216233 
L 288.058424 114.143094 
L 288.631345 104.749242 
L 289.777186 116.602963 
L 290.350107 107.209111 
L 292.64179 130.916553 
L 293.21471 121.522701 
L 293.787631 127.449562 
L 294.360552 118.05571 
L 296.079314 135.836292 
L 296.652234 126.44244 
L 297.225155 132.3693 
L 297.798076 122.975449 
L 298.370996 128.902309 
L 298.943917 119.508458 
L 299.516838 125.435318 
L 300.089758 116.041467 
L 301.2356 127.895188 
L 301.80852 118.501336 
L 303.527282 136.281917 
L 304.100203 126.888066 
L 305.818965 144.668647 
L 306.391886 135.274795 
L 306.964806 141.201656 
L 307.537727 131.807804 
L 308.110648 137.734665 
L 308.683568 128.340813 
L 309.256489 134.267674 
L 309.82941 124.873822 
L 310.40233 130.800683 
L 310.975251 121.406831 
L 313.839854 151.041133 
L 314.412775 141.647282 
L 314.985696 147.574142 
L 315.558616 138.18029 
L 316.704457 150.034011 
L 317.277378 140.64016 
L 318.423219 152.49388 
L 318.99614 143.100029 
L 320.141981 154.95375 
L 320.714902 145.559898 
L 321.287823 151.486759 
L 321.860743 142.092907 
L 322.433664 148.019767 
L 323.006585 138.625916 
L 323.579505 144.552776 
L 324.152426 135.158925 
L 325.871188 152.939506 
L 326.444109 143.545654 
L 327.017029 149.472515 
L 327.58995 140.078663 
L 328.162871 146.005524 
L 328.735791 136.611672 
L 329.881633 148.465393 
L 330.454553 139.071542 
L 331.600395 150.925262 
L 332.173315 141.531411 
L 332.746236 147.458271 
L 333.319157 138.06442 
L 335.610839 161.771861 
L 336.18376 152.378009 
L 339.048363 182.012311 
L 339.621284 172.618458 
L 340.194205 178.545318 
L 340.767125 169.151465 
L 342.485887 186.932046 
L 343.058808 177.538191 
L 343.631729 183.465052 
L 344.204649 174.071198 
L 345.35049 185.924919 
L 345.923411 176.531064 
L 346.496332 182.457924 
L 347.069252 173.064071 
L 347.642173 178.990931 
L 348.215094 169.597078 
L 348.788014 175.523938 
L 349.360935 166.130086 
L 350.506776 177.983807 
L 351.079697 168.589954 
L 352.798459 186.370535 
L 353.37138 176.97668 
L 355.663062 200.684122 
L 356.235983 191.290252 
L 356.808904 197.217112 
L 357.381824 187.823249 
L 358.527666 199.676969 
L 359.100586 190.283102 
L 359.673507 196.209962 
L 360.246428 186.8161 
L 360.819348 192.74296 
L 361.392269 183.349101 
L 361.96519 189.275962 
L 362.53811 179.882105 
L 364.256872 197.662687 
L 364.829793 188.268822 
L 365.975634 200.122543 
L 366.548555 190.728674 
L 367.121476 196.655535 
L 367.694396 187.261672 
L 368.267317 193.188532 
L 368.840238 183.794673 
L 370.559 201.575254 
L 371.13192 192.181382 
L 371.704841 198.108243 
L 372.277762 188.714378 
L 373.423603 200.568098 
L 373.996523 191.174229 
L 375.142365 203.02795 
L 375.715285 193.634074 
L 376.861127 205.487795 
L 377.434047 196.093911 
L 378.006968 202.020771 
L 378.579889 192.626898 
L 379.152809 198.553759 
L 379.72573 189.159893 
L 380.298651 195.086753 
L 380.871571 185.692892 
L 382.590333 203.473474 
L 383.163254 194.079597 
L 384.309095 205.933317 
L 384.882016 196.539432 
L 385.454937 202.466292 
L 386.027857 193.072418 
L 386.600778 198.999279 
L 387.173699 189.605412 
L 388.31954 201.459133 
L 388.892461 192.065261 
L 390.038302 203.918982 
L 390.611223 194.525104 
L 391.757064 206.378824 
L 392.329985 196.984937 
L 392.902905 202.911798 
L 393.475826 193.517922 
L 396.340429 223.152224 
L 396.91335 213.758118 
L 398.059191 225.611839 
L 398.632112 216.217648 
L 399.777953 228.071369 
L 400.350874 218.677065 
L 402.069636 236.457646 
L 402.642556 227.062589 
L 403.215477 232.989449 
L 403.788398 223.594794 
L 404.934239 235.448515 
L 405.50716 226.053591 
L 406.08008 231.980452 
L 406.653001 222.585886 
L 410.090525 258.147048 
L 410.663446 248.737968 
L 411.236366 254.664829 
L 411.809287 245.26084 
L 412.955128 257.114561 
L 413.528049 247.707212 
L 414.10097 253.634072 
L 414.67389 244.231234 
L 416.392652 262.011815 
L 416.965573 252.594046 
L 417.538494 258.520906 
L 418.111414 249.111147 
L 418.684335 255.038007 
L 419.257256 245.633567 
L 420.976018 263.414148 
L 421.548938 253.992123 
L 423.840621 277.699564 
L 424.413542 268.157002 
L 424.986462 274.083863 
L 425.559383 264.592288 
L 427.278145 282.372869 
L 427.851066 272.723756 
L 428.423986 278.650616 
L 428.996907 269.090727 
L 430.142748 280.944448 
L 430.715669 271.334113 
L 432.434431 289.114694 
L 433.007351 279.168996 
L 435.299034 302.876437 
L 435.299034 302.876437 
" style="fill:none;stroke:#ff7f0e;stroke-linecap:square;stroke-width:0.666667;"/>
   </g>
   <g id="patch_3">
    <path d="M 35.85875 316.4425 
L 35.85875 17.989125 
" style="fill:none;stroke:#000000;stroke-linecap:square;stroke-linejoin:miter;stroke-width:0.8;"/>
   </g>
   <g id="patch_4">
    <path d="M 454.32 316.4425 
L 454.32 17.989125 
" style="fill:none;stroke:#000000;stroke-linecap:square;stroke-linejoin:miter;stroke-width:0.8;"/>
   </g>
   <g id="patch_5">
    <path d="M 35.85875 316.4425 
L 454.32 316.4425 
" style="fill:none;stroke:#000000;stroke-linecap:square;stroke-linejoin:miter;stroke-width:0.8;"/>
   </g>
   <g id="patch_6">
    <path d="M 35.85875 17.989125 
L 454.32 17.989125 
" style="fill:none;stroke:#000000;stroke-linecap:square;stroke-linejoin:miter;stroke-width:0.8;"/>
   </g>
   <g id="text_17">
    <!-- "3y+1" problem -->
    <g transform="translate(214.747 11.989125)scale(0.072 -0.072)">
     <defs>
      <path d="M 43.703125 72.90625 
L 43.703125 45.796875 
L 35.203125 45.796875 
L 35.203125 72.90625 
z
M 25 72.90625 
L 25 45.796875 
L 16.5 45.796875 
L 16.5 72.90625 
z
" id="DejaVuSansMono-34"/>
      <path d="M 34.1875 57.171875 
L 34.1875 35.5 
L 55.90625 35.5 
L 55.90625 27.203125 
L 34.1875 27.203125 
L 34.1875 5.515625 
L 25.984375 5.515625 
L 25.984375 27.203125 
L 4.296875 27.203125 
L 4.296875 35.5 
L 25.984375 35.5 
L 25.984375 57.171875 
z
" id="DejaVuSansMono-43"/>
      <path id="DejaVuSansMono-32"/>
      <path d="M 18.3125 6.890625 
L 18.3125 -20.796875 
L 9.28125 -20.796875 
L 9.28125 54.6875 
L 18.3125 54.6875 
L 18.3125 47.703125 
Q 20.5625 51.765625 24.296875 53.875 
Q 28.03125 56 32.90625 56 
Q 42.828125 56 48.46875 48.328125 
Q 54.109375 40.671875 54.109375 27.09375 
Q 54.109375 13.765625 48.4375 6.171875 
Q 42.78125 -1.421875 32.90625 -1.421875 
Q 27.9375 -1.421875 24.1875 0.703125 
Q 20.453125 2.828125 18.3125 6.890625 
z
M 44.671875 27.296875 
Q 44.671875 37.75 41.375 43.0625 
Q 38.09375 48.390625 31.59375 48.390625 
Q 25.046875 48.390625 21.671875 43.046875 
Q 18.3125 37.703125 18.3125 27.296875 
Q 18.3125 16.9375 21.671875 11.5625 
Q 25.046875 6.203125 31.59375 6.203125 
Q 38.09375 6.203125 41.375 11.515625 
Q 44.671875 16.84375 44.671875 27.296875 
z
" id="DejaVuSansMono-112"/>
      <path d="M 56.390625 43.40625 
Q 53.515625 45.65625 50.53125 46.671875 
Q 47.5625 47.703125 44 47.703125 
Q 35.59375 47.703125 31.140625 42.421875 
Q 26.703125 37.15625 26.703125 27.203125 
L 26.703125 0 
L 17.671875 0 
L 17.671875 54.6875 
L 26.703125 54.6875 
L 26.703125 44 
Q 28.953125 49.8125 33.609375 52.90625 
Q 38.28125 56 44.671875 56 
Q 48 56 50.875 55.171875 
Q 53.765625 54.34375 56.390625 52.59375 
z
" id="DejaVuSansMono-114"/>
      <path d="M 30.078125 48.390625 
Q 23.25 48.390625 19.734375 43.0625 
Q 16.21875 37.75 16.21875 27.296875 
Q 16.21875 16.890625 19.734375 11.546875 
Q 23.25 6.203125 30.078125 6.203125 
Q 36.96875 6.203125 40.484375 11.546875 
Q 44 16.890625 44 27.296875 
Q 44 37.75 40.484375 43.0625 
Q 36.96875 48.390625 30.078125 48.390625 
z
M 30.078125 56 
Q 41.453125 56 47.484375 48.625 
Q 53.515625 41.265625 53.515625 27.296875 
Q 53.515625 13.28125 47.5 5.921875 
Q 41.5 -1.421875 30.078125 -1.421875 
Q 18.703125 -1.421875 12.6875 5.921875 
Q 6.6875 13.28125 6.6875 27.296875 
Q 6.6875 41.265625 12.6875 48.625 
Q 18.703125 56 30.078125 56 
z
" id="DejaVuSansMono-111"/>
      <path d="M 44.828125 27.296875 
Q 44.828125 37.75 41.5 43.0625 
Q 38.1875 48.390625 31.6875 48.390625 
Q 25.140625 48.390625 21.765625 43.046875 
Q 18.40625 37.703125 18.40625 27.296875 
Q 18.40625 16.9375 21.765625 11.5625 
Q 25.140625 6.203125 31.6875 6.203125 
Q 38.1875 6.203125 41.5 11.515625 
Q 44.828125 16.84375 44.828125 27.296875 
z
M 18.40625 47.703125 
Q 20.5625 51.703125 24.34375 53.84375 
Q 28.125 56 33.109375 56 
Q 42.96875 56 48.625 48.40625 
Q 54.296875 40.828125 54.296875 27.484375 
Q 54.296875 13.96875 48.609375 6.265625 
Q 42.921875 -1.421875 33.015625 -1.421875 
Q 28.125 -1.421875 24.390625 0.703125 
Q 20.65625 2.828125 18.40625 6.890625 
L 18.40625 0 
L 9.421875 0 
L 9.421875 75.984375 
L 18.40625 75.984375 
z
" id="DejaVuSansMono-98"/>
      <path d="M 31.203125 19.828125 
Q 31.203125 13.765625 33.421875 10.6875 
Q 35.640625 7.625 39.984375 7.625 
L 50.484375 7.625 
L 50.484375 0 
L 39.109375 0 
Q 31.0625 0 26.640625 5.171875 
Q 22.21875 10.359375 22.21875 19.828125 
L 22.21875 69.484375 
L 7.8125 69.484375 
L 7.8125 76.515625 
L 31.203125 76.515625 
z
" id="DejaVuSansMono-108"/>
      <path d="M 54.296875 29.59375 
L 54.296875 25.203125 
L 15.375 25.203125 
L 15.375 24.90625 
Q 15.375 15.96875 20.03125 11.078125 
Q 24.703125 6.203125 33.203125 6.203125 
Q 37.5 6.203125 42.1875 7.5625 
Q 46.875 8.9375 52.203125 11.71875 
L 52.203125 2.78125 
Q 47.078125 0.6875 42.3125 -0.359375 
Q 37.546875 -1.421875 33.109375 -1.421875 
Q 20.359375 -1.421875 13.171875 6.21875 
Q 6 13.875 6 27.296875 
Q 6 40.375 13.03125 48.1875 
Q 20.0625 56 31.78125 56 
Q 42.234375 56 48.265625 48.921875 
Q 54.296875 41.84375 54.296875 29.59375 
z
M 45.3125 32.234375 
Q 45.125 40.140625 41.578125 44.265625 
Q 38.03125 48.390625 31.390625 48.390625 
Q 24.90625 48.390625 20.703125 44.09375 
Q 16.5 39.796875 15.71875 32.171875 
z
" id="DejaVuSansMono-101"/>
      <path d="M 33.015625 49.125 
Q 34.671875 52.640625 37.234375 54.3125 
Q 39.796875 56 43.40625 56 
Q 50 56 52.703125 50.890625 
Q 55.421875 45.796875 55.421875 31.6875 
L 55.421875 0 
L 47.21875 0 
L 47.21875 31.296875 
Q 47.21875 42.875 45.921875 45.671875 
Q 44.625 48.484375 41.21875 48.484375 
Q 37.3125 48.484375 35.859375 45.484375 
Q 34.421875 42.484375 34.421875 31.296875 
L 34.421875 0 
L 26.21875 0 
L 26.21875 31.296875 
Q 26.21875 43.015625 24.828125 45.75 
Q 23.4375 48.484375 19.828125 48.484375 
Q 16.265625 48.484375 14.875 45.484375 
Q 13.484375 42.484375 13.484375 31.296875 
L 13.484375 0 
L 5.328125 0 
L 5.328125 54.6875 
L 13.484375 54.6875 
L 13.484375 50 
Q 15.09375 52.9375 17.5 54.46875 
Q 19.921875 56 23 56 
Q 26.703125 56 29.171875 54.296875 
Q 31.640625 52.59375 33.015625 49.125 
z
" id="DejaVuSansMono-109"/>
     </defs>
     <use xlink:href="#DejaVuSansMono-34"/>
     <use x="60.205078" xlink:href="#DejaVuSansMono-51"/>
     <use x="120.410156" xlink:href="#DejaVuSansMono-121"/>
     <use x="180.615234" xlink:href="#DejaVuSansMono-43"/>
     <use x="240.820312" xlink:href="#DejaVuSansMono-49"/>
     <use x="301.025391" xlink:href="#DejaVuSansMono-34"/>
     <use x="361.230469" xlink:href="#DejaVuSansMono-32"/>
     <use x="421.435547" xlink:href="#DejaVuSansMono-112"/>
     <use x="481.640625" xlink:href="#DejaVuSansMono-114"/>
     <use x="541.845703" xlink:href="#DejaVuSansMono-111"/>
     <use x="602.050781" xlink:href="#DejaVuSansMono-98"/>
     <use x="662.255859" xlink:href="#DejaVuSansMono-108"/>
     <use x="722.460938" xlink:href="#DejaVuSansMono-101"/>
     <use x="782.666016" xlink:href="#DejaVuSansMono-109"/>
    </g>
   </g>
   <g id="legend_1">
    <g id="patch_7">
     <path d="M 347.839688 82.0095 
L 450.12 82.0095 
Q 451.32 82.0095 451.32 80.8095 
L 451.32 22.189125 
Q 451.32 20.989125 450.12 20.989125 
L 347.839688 20.989125 
Q 346.639688 20.989125 346.639688 22.189125 
L 346.639688 80.8095 
Q 346.639688 82.0095 347.839688 82.0095 
z
" style="fill:#ffffff;opacity:0.8;stroke:#cccccc;stroke-linejoin:miter;"/>
    </g>
    <g id="line2d_17">
     <path d="M 349.039688 36.889687 
L 361.039688 36.889687 
" style="fill:none;stroke:#1f77b4;stroke-linecap:square;stroke-width:0.666667;"/>
    </g>
    <g id="line2d_18"/>
    <g id="text_18">
     <!-- "Tallest": -->
     <g transform="translate(365.839688 27.980062)scale(0.06 -0.06)">
      <defs>
       <path d="M 2.296875 72.90625 
L 57.90625 72.90625 
L 57.90625 64.59375 
L 35.109375 64.59375 
L 35.109375 0 
L 25.203125 0 
L 25.203125 64.59375 
L 2.296875 64.59375 
z
" id="DejaVuSansMono-84"/>
       <path d="M 34.28125 27.484375 
L 31.296875 27.484375 
Q 23.4375 27.484375 19.453125 24.71875 
Q 15.484375 21.96875 15.484375 16.5 
Q 15.484375 11.578125 18.453125 8.84375 
Q 21.4375 6.109375 26.703125 6.109375 
Q 34.125 6.109375 38.375 11.25 
Q 42.625 16.40625 42.671875 25.484375 
L 42.671875 27.484375 
z
M 51.703125 31.203125 
L 51.703125 0 
L 42.671875 0 
L 42.671875 8.109375 
Q 39.796875 3.21875 35.421875 0.890625 
Q 31.0625 -1.421875 24.8125 -1.421875 
Q 16.453125 -1.421875 11.46875 3.296875 
Q 6.5 8.015625 6.5 15.921875 
Q 6.5 25.046875 12.625 29.78125 
Q 18.75 34.515625 30.609375 34.515625 
L 42.671875 34.515625 
L 42.671875 35.9375 
Q 42.625 42.484375 39.34375 45.4375 
Q 36.078125 48.390625 28.90625 48.390625 
Q 24.3125 48.390625 19.625 47.0625 
Q 14.9375 45.75 10.5 43.21875 
L 10.5 52.203125 
Q 15.484375 54.109375 20.046875 55.046875 
Q 24.609375 56 28.90625 56 
Q 35.6875 56 40.5 54 
Q 45.3125 52 48.296875 48 
Q 50.140625 45.5625 50.921875 41.96875 
Q 51.703125 38.375 51.703125 31.203125 
z
" id="DejaVuSansMono-97"/>
       <path d="M 47.515625 52.78125 
L 47.515625 44 
Q 43.65625 46.234375 39.75 47.359375 
Q 35.84375 48.484375 31.78125 48.484375 
Q 25.6875 48.484375 22.671875 46.5 
Q 19.671875 44.53125 19.671875 40.484375 
Q 19.671875 36.8125 21.921875 35 
Q 24.171875 33.203125 33.109375 31.5 
L 36.71875 30.8125 
Q 43.40625 29.546875 46.84375 25.734375 
Q 50.296875 21.921875 50.296875 15.828125 
Q 50.296875 7.71875 44.53125 3.140625 
Q 38.765625 -1.421875 28.515625 -1.421875 
Q 24.46875 -1.421875 20.015625 -0.5625 
Q 15.578125 0.296875 10.40625 2 
L 10.40625 11.28125 
Q 15.4375 8.6875 20.015625 7.390625 
Q 24.609375 6.109375 28.71875 6.109375 
Q 34.671875 6.109375 37.9375 8.515625 
Q 41.21875 10.9375 41.21875 15.28125 
Q 41.21875 21.53125 29.25 23.921875 
L 28.859375 24.03125 
L 25.484375 24.703125 
Q 17.71875 26.21875 14.15625 29.8125 
Q 10.59375 33.40625 10.59375 39.59375 
Q 10.59375 47.46875 15.90625 51.734375 
Q 21.234375 56 31.109375 56 
Q 35.5 56 39.546875 55.1875 
Q 43.609375 54.390625 47.515625 52.78125 
z
" id="DejaVuSansMono-115"/>
       <path d="M 29.984375 70.21875 
L 29.984375 54.6875 
L 50.390625 54.6875 
L 50.390625 47.703125 
L 29.984375 47.703125 
L 29.984375 18.015625 
Q 29.984375 11.96875 32.28125 9.5625 
Q 34.578125 7.171875 40.28125 7.171875 
L 50.390625 7.171875 
L 50.390625 0 
L 39.40625 0 
Q 29.296875 0 25.140625 4.046875 
Q 21 8.109375 21 18.015625 
L 21 47.703125 
L 6.390625 47.703125 
L 6.390625 54.6875 
L 21 54.6875 
L 21 70.21875 
z
" id="DejaVuSansMono-116"/>
       <path d="M 23.875 51.90625 
L 36.1875 51.90625 
L 36.1875 37.109375 
L 23.875 37.109375 
z
M 23.875 14.890625 
L 36.1875 14.890625 
L 36.1875 0 
L 23.875 0 
z
" id="DejaVuSansMono-58"/>
      </defs>
      <use xlink:href="#DejaVuSansMono-34"/>
      <use x="60.205078" xlink:href="#DejaVuSansMono-84"/>
      <use x="120.410156" xlink:href="#DejaVuSansMono-97"/>
      <use x="180.615234" xlink:href="#DejaVuSansMono-108"/>
      <use x="240.820312" xlink:href="#DejaVuSansMono-108"/>
      <use x="301.025391" xlink:href="#DejaVuSansMono-101"/>
      <use x="361.230469" xlink:href="#DejaVuSansMono-115"/>
      <use x="421.435547" xlink:href="#DejaVuSansMono-116"/>
      <use x="481.640625" xlink:href="#DejaVuSansMono-34"/>
      <use x="541.845703" xlink:href="#DejaVuSansMono-58"/>
     </g>
     <!-- y_0    = 6631675 -->
     <g transform="translate(365.839688 34.737)scale(0.06 -0.06)">
      <defs>
       <path d="M 4.296875 25.59375 
L 55.90625 25.59375 
L 55.90625 17.1875 
L 4.296875 17.1875 
z
M 4.296875 45.40625 
L 55.90625 45.40625 
L 55.90625 37.109375 
L 4.296875 37.109375 
z
" id="DejaVuSansMono-61"/>
      </defs>
      <use xlink:href="#DejaVuSansMono-121"/>
      <use x="60.205078" xlink:href="#DejaVuSansMono-95"/>
      <use x="120.410156" xlink:href="#DejaVuSansMono-48"/>
      <use x="180.615234" xlink:href="#DejaVuSansMono-32"/>
      <use x="240.820312" xlink:href="#DejaVuSansMono-32"/>
      <use x="301.025391" xlink:href="#DejaVuSansMono-32"/>
      <use x="361.230469" xlink:href="#DejaVuSansMono-32"/>
      <use x="421.435547" xlink:href="#DejaVuSansMono-61"/>
      <use x="481.640625" xlink:href="#DejaVuSansMono-32"/>
      <use x="541.845703" xlink:href="#DejaVuSansMono-54"/>
      <use x="602.050781" xlink:href="#DejaVuSansMono-54"/>
      <use x="662.255859" xlink:href="#DejaVuSansMono-51"/>
      <use x="722.460938" xlink:href="#DejaVuSansMono-49"/>
      <use x="782.666016" xlink:href="#DejaVuSansMono-54"/>
      <use x="842.871094" xlink:href="#DejaVuSansMono-55"/>
      <use x="903.076172" xlink:href="#DejaVuSansMono-53"/>
     </g>
     <!-- y_max  = 60342610919632 -->
     <g transform="translate(365.839688 41.660812)scale(0.06 -0.06)">
      <defs>
       <path d="M 54.59375 54.6875 
L 35.015625 28.515625 
L 56.5 0 
L 46.09375 0 
L 30.078125 21.921875 
L 14.109375 0 
L 3.71875 0 
L 25.203125 28.515625 
L 5.609375 54.6875 
L 15.578125 54.6875 
L 30.078125 34.90625 
L 44.484375 54.6875 
z
" id="DejaVuSansMono-120"/>
      </defs>
      <use xlink:href="#DejaVuSansMono-121"/>
      <use x="60.205078" xlink:href="#DejaVuSansMono-95"/>
      <use x="120.410156" xlink:href="#DejaVuSansMono-109"/>
      <use x="180.615234" xlink:href="#DejaVuSansMono-97"/>
      <use x="240.820312" xlink:href="#DejaVuSansMono-120"/>
      <use x="301.025391" xlink:href="#DejaVuSansMono-32"/>
      <use x="361.230469" xlink:href="#DejaVuSansMono-32"/>
      <use x="421.435547" xlink:href="#DejaVuSansMono-61"/>
      <use x="481.640625" xlink:href="#DejaVuSansMono-32"/>
      <use x="541.845703" xlink:href="#DejaVuSansMono-54"/>
      <use x="602.050781" xlink:href="#DejaVuSansMono-48"/>
      <use x="662.255859" xlink:href="#DejaVuSansMono-51"/>
      <use x="722.460938" xlink:href="#DejaVuSansMono-52"/>
      <use x="782.666016" xlink:href="#DejaVuSansMono-50"/>
      <use x="842.871094" xlink:href="#DejaVuSansMono-54"/>
      <use x="903.076172" xlink:href="#DejaVuSansMono-49"/>
      <use x="963.28125" xlink:href="#DejaVuSansMono-48"/>
      <use x="1023.486328" xlink:href="#DejaVuSansMono-57"/>
      <use x="1083.691406" xlink:href="#DejaVuSansMono-49"/>
      <use x="1143.896484" xlink:href="#DejaVuSansMono-57"/>
      <use x="1204.101562" xlink:href="#DejaVuSansMono-54"/>
      <use x="1264.306641" xlink:href="#DejaVuSansMono-51"/>
      <use x="1324.511719" xlink:href="#DejaVuSansMono-50"/>
     </g>
     <!-- x_max  = 577 -->
     <g transform="translate(365.839688 48.584625)scale(0.06 -0.06)">
      <use xlink:href="#DejaVuSansMono-120"/>
      <use x="60.205078" xlink:href="#DejaVuSansMono-95"/>
      <use x="120.410156" xlink:href="#DejaVuSansMono-109"/>
      <use x="180.615234" xlink:href="#DejaVuSansMono-97"/>
      <use x="240.820312" xlink:href="#DejaVuSansMono-120"/>
      <use x="301.025391" xlink:href="#DejaVuSansMono-32"/>
      <use x="361.230469" xlink:href="#DejaVuSansMono-32"/>
      <use x="421.435547" xlink:href="#DejaVuSansMono-61"/>
      <use x="481.640625" xlink:href="#DejaVuSansMono-32"/>
      <use x="541.845703" xlink:href="#DejaVuSansMono-53"/>
      <use x="602.050781" xlink:href="#DejaVuSansMono-55"/>
      <use x="662.255859" xlink:href="#DejaVuSansMono-55"/>
     </g>
    </g>
    <g id="line2d_19">
     <path d="M 349.039688 66.499875 
L 361.039688 66.499875 
" style="fill:none;stroke:#ff7f0e;stroke-linecap:square;stroke-width:0.666667;"/>
    </g>
    <g id="line2d_20"/>
    <g id="text_19">
     <!-- "Widest":  -->
     <g transform="translate(365.839688 57.59025)scale(0.06 -0.06)">
      <defs>
       <path d="M 0 72.90625 
L 9.625 72.90625 
L 16.609375 13.71875 
L 24.90625 52.875 
L 35.203125 52.875 
L 43.609375 13.625 
L 50.59375 72.90625 
L 60.203125 72.90625 
L 49.3125 0 
L 39.984375 0 
L 30.078125 43.3125 
L 20.21875 0 
L 10.890625 0 
z
" id="DejaVuSansMono-87"/>
       <path d="M 12.5 54.6875 
L 35.5 54.6875 
L 35.5 6.984375 
L 53.328125 6.984375 
L 53.328125 0 
L 8.6875 0 
L 8.6875 6.984375 
L 26.515625 6.984375 
L 26.515625 47.703125 
L 12.5 47.703125 
z
M 26.515625 75.984375 
L 35.5 75.984375 
L 35.5 64.59375 
L 26.515625 64.59375 
z
" id="DejaVuSansMono-105"/>
       <path d="M 41.890625 47.703125 
L 41.890625 75.984375 
L 50.875 75.984375 
L 50.875 0 
L 41.890625 0 
L 41.890625 6.890625 
Q 39.65625 2.828125 35.90625 0.703125 
Q 32.171875 -1.421875 27.296875 -1.421875 
Q 17.390625 -1.421875 11.6875 6.265625 
Q 6 13.96875 6 27.484375 
Q 6 40.828125 11.71875 48.40625 
Q 17.4375 56 27.296875 56 
Q 32.234375 56 35.984375 53.875 
Q 39.75 51.765625 41.890625 47.703125 
z
M 15.484375 27.296875 
Q 15.484375 16.84375 18.796875 11.515625 
Q 22.125 6.203125 28.609375 6.203125 
Q 35.109375 6.203125 38.5 11.5625 
Q 41.890625 16.9375 41.890625 27.296875 
Q 41.890625 37.703125 38.5 43.046875 
Q 35.109375 48.390625 28.609375 48.390625 
Q 22.125 48.390625 18.796875 43.0625 
Q 15.484375 37.75 15.484375 27.296875 
z
" id="DejaVuSansMono-100"/>
      </defs>
      <use xlink:href="#DejaVuSansMono-34"/>
      <use x="60.205078" xlink:href="#DejaVuSansMono-87"/>
      <use x="120.410156" xlink:href="#DejaVuSansMono-105"/>
      <use x="180.615234" xlink:href="#DejaVuSansMono-100"/>
      <use x="240.820312" xlink:href="#DejaVuSansMono-101"/>
      <use x="301.025391" xlink:href="#DejaVuSansMono-115"/>
      <use x="361.230469" xlink:href="#DejaVuSansMono-116"/>
      <use x="421.435547" xlink:href="#DejaVuSansMono-34"/>
      <use x="481.640625" xlink:href="#DejaVuSansMono-58"/>
      <use x="541.845703" xlink:href="#DejaVuSansMono-32"/>
     </g>
     <!-- y_0    = 6649279 -->
     <g transform="translate(365.839688 64.347187)scale(0.06 -0.06)">
      <use xlink:href="#DejaVuSansMono-121"/>
      <use x="60.205078" xlink:href="#DejaVuSansMono-95"/>
      <use x="120.410156" xlink:href="#DejaVuSansMono-48"/>
      <use x="180.615234" xlink:href="#DejaVuSansMono-32"/>
      <use x="240.820312" xlink:href="#DejaVuSansMono-32"/>
      <use x="301.025391" xlink:href="#DejaVuSansMono-32"/>
      <use x="361.230469" xlink:href="#DejaVuSansMono-32"/>
      <use x="421.435547" xlink:href="#DejaVuSansMono-61"/>
      <use x="481.640625" xlink:href="#DejaVuSansMono-32"/>
      <use x="541.845703" xlink:href="#DejaVuSansMono-54"/>
      <use x="602.050781" xlink:href="#DejaVuSansMono-54"/>
      <use x="662.255859" xlink:href="#DejaVuSansMono-52"/>
      <use x="722.460938" xlink:href="#DejaVuSansMono-57"/>
      <use x="782.666016" xlink:href="#DejaVuSansMono-50"/>
      <use x="842.871094" xlink:href="#DejaVuSansMono-55"/>
      <use x="903.076172" xlink:href="#DejaVuSansMono-57"/>
     </g>
     <!-- y_max  = 15208728208 -->
     <g transform="translate(365.839688 71.271)scale(0.06 -0.06)">
      <defs>
       <path d="M 30.078125 34.625 
Q 23.484375 34.625 19.890625 30.9375 
Q 16.3125 27.25 16.3125 20.515625 
Q 16.3125 13.765625 19.9375 10.03125 
Q 23.578125 6.296875 30.078125 6.296875 
Q 36.71875 6.296875 40.296875 9.984375 
Q 43.890625 13.671875 43.890625 20.515625 
Q 43.890625 27.203125 40.25 30.90625 
Q 36.625 34.625 30.078125 34.625 
z
M 21.484375 38.71875 
Q 15.1875 40.328125 11.640625 44.71875 
Q 8.109375 49.125 8.109375 55.328125 
Q 8.109375 64.015625 14.015625 69.109375 
Q 19.921875 74.21875 30.078125 74.21875 
Q 40.28125 74.21875 46.1875 69.109375 
Q 52.09375 64.015625 52.09375 55.328125 
Q 52.09375 49.125 48.546875 44.71875 
Q 45.015625 40.328125 38.71875 38.71875 
Q 46.046875 37.109375 49.921875 32.21875 
Q 53.8125 27.34375 53.8125 19.578125 
Q 53.8125 9.71875 47.515625 4.140625 
Q 41.21875 -1.421875 30.078125 -1.421875 
Q 18.953125 -1.421875 12.671875 4.125 
Q 6.390625 9.671875 6.390625 19.484375 
Q 6.390625 27.296875 10.265625 32.203125 
Q 14.15625 37.109375 21.484375 38.71875 
z
M 17.921875 54.390625 
Q 17.921875 48.53125 21.046875 45.453125 
Q 24.171875 42.390625 30.078125 42.390625 
Q 36.03125 42.390625 39.15625 45.453125 
Q 42.28125 48.53125 42.28125 54.390625 
Q 42.28125 60.359375 39.171875 63.484375 
Q 36.078125 66.609375 30.078125 66.609375 
Q 24.171875 66.609375 21.046875 63.453125 
Q 17.921875 60.296875 17.921875 54.390625 
z
" id="DejaVuSansMono-56"/>
      </defs>
      <use xlink:href="#DejaVuSansMono-121"/>
      <use x="60.205078" xlink:href="#DejaVuSansMono-95"/>
      <use x="120.410156" xlink:href="#DejaVuSansMono-109"/>
      <use x="180.615234" xlink:href="#DejaVuSansMono-97"/>
      <use x="240.820312" xlink:href="#DejaVuSansMono-120"/>
      <use x="301.025391" xlink:href="#DejaVuSansMono-32"/>
      <use x="361.230469" xlink:href="#DejaVuSansMono-32"/>
      <use x="421.435547" xlink:href="#DejaVuSansMono-61"/>
      <use x="481.640625" xlink:href="#DejaVuSansMono-32"/>
      <use x="541.845703" xlink:href="#DejaVuSansMono-49"/>
      <use x="602.050781" xlink:href="#DejaVuSansMono-53"/>
      <use x="662.255859" xlink:href="#DejaVuSansMono-50"/>
      <use x="722.460938" xlink:href="#DejaVuSansMono-48"/>
      <use x="782.666016" xlink:href="#DejaVuSansMono-56"/>
      <use x="842.871094" xlink:href="#DejaVuSansMono-55"/>
      <use x="903.076172" xlink:href="#DejaVuSansMono-50"/>
      <use x="963.28125" xlink:href="#DejaVuSansMono-56"/>
      <use x="1023.486328" xlink:href="#DejaVuSansMono-50"/>
      <use x="1083.691406" xlink:href="#DejaVuSansMono-48"/>
      <use x="1143.896484" xlink:href="#DejaVuSansMono-56"/>
     </g>
     <!-- x_max  = 665 -->
     <g transform="translate(365.839688 78.194812)scale(0.06 -0.06)">
      <use xlink:href="#DejaVuSansMono-120"/>
      <use x="60.205078" xlink:href="#DejaVuSansMono-95"/>
      <use x="120.410156" xlink:href="#DejaVuSansMono-109"/>
      <use x="180.615234" xlink:href="#DejaVuSansMono-97"/>
      <use x="240.820312" xlink:href="#DejaVuSansMono-120"/>
      <use x="301.025391" xlink:href="#DejaVuSansMono-32"/>
      <use x="361.230469" xlink:href="#DejaVuSansMono-32"/>
      <use x="421.435547" xlink:href="#DejaVuSansMono-61"/>
      <use x="481.640625" xlink:href="#DejaVuSansMono-32"/>
      <use x="541.845703" xlink:href="#DejaVuSansMono-54"/>
      <use x="602.050781" xlink:href="#DejaVuSansMono-54"/>
      <use x="662.255859" xlink:href="#DejaVuSansMono-53"/>
     </g>
    </g>
   </g>
  </g>
 </g>
 <defs>
  <clipPath id="p69eb884767">
   <rect height="298.453375" width="418.46125" x="35.85875" y="17.989125"/>
  </clipPath>
 </defs>
</svg>
