<?xml version="1.0" encoding="utf-8" standalone="no"?>
<!DOCTYPE svg PUBLIC "-//W3C//DTD SVG 1.1//EN"
  "http://www.w3.org/Graphics/SVG/1.1/DTD/svg11.dtd">
<!-- Created with matplotlib (https://matplotlib.org/) -->
<svg height="345.6pt" version="1.1" viewBox="0 0 460.8 345.6" width="460.8pt" xmlns="http://www.w3.org/2000/svg" xmlns:xlink="http://www.w3.org/1999/xlink">
 <metadata>
  <rdf:RDF xmlns:cc="http://creativecommons.org/ns#" xmlns:dc="http://purl.org/dc/elements/1.1/" xmlns:rdf="http://www.w3.org/1999/02/22-rdf-syntax-ns#">
   <cc:Work>
    <dc:type rdf:resource="http://purl.org/dc/dcmitype/StillImage"/>
    <dc:date>2022-03-17T00:25:05.465590</dc:date>
    <dc:format>image/svg+xml</dc:format>
    <dc:creator>
     <cc:Agent>
      <dc:title>Matplotlib v3.3.2, https://matplotlib.org/</dc:title>
     </cc:Agent>
    </dc:creator>
   </cc:Work>
  </rdf:RDF>
 </metadata>
 <defs>
  <style type="text/css">*{stroke-linecap:butt;stroke-linejoin:round;}</style>
 </defs>
 <g id="figure_1">
  <g id="patch_1">
   <path d="M 0 345.6 
L 460.8 345.6 
L 460.8 0 
L 0 0 
z
" style="fill:#ffffff;"/>
  </g>
  <g id="axes_1">
   <g id="patch_2">
    <path d="M 33.33875 316.4425 
L 454.32 316.4425 
L 454.32 17.989125 
L 33.33875 17.989125 
z
" style="fill:#ffffff;"/>
   </g>
   <g id="matplotlib.axis_1">
    <g id="xtick_1">
     <g id="line2d_1">
      <defs>
       <path d="M 0 0 
L 0 3.5 
" id="m9e895f3ebe" style="stroke:#000000;stroke-width:0.8;"/>
      </defs>
      <g>
       <use style="stroke:#000000;stroke-width:0.8;" x="52.474261" xlink:href="#m9e895f3ebe" y="316.4425"/>
      </g>
     </g>
     <g id="text_1">
      <!-- 0 -->
      <g transform="translate(50.668168 328.033437)scale(0.06 -0.06)">
       <defs>
        <path d="M 23.578125 36.625 
Q 23.578125 39.3125 25.453125 41.265625 
Q 27.34375 43.21875 29.984375 43.21875 
Q 32.71875 43.21875 34.671875 41.265625 
Q 36.625 39.3125 36.625 36.625 
Q 36.625 33.890625 34.6875 31.984375 
Q 32.765625 30.078125 29.984375 30.078125 
Q 27.25 30.078125 25.40625 31.9375 
Q 23.578125 33.796875 23.578125 36.625 
z
M 30.078125 66.40625 
Q 23.1875 66.40625 19.796875 58.984375 
Q 16.40625 51.5625 16.40625 36.375 
Q 16.40625 21.234375 19.796875 13.8125 
Q 23.1875 6.390625 30.078125 6.390625 
Q 37.015625 6.390625 40.40625 13.8125 
Q 43.796875 21.234375 43.796875 36.375 
Q 43.796875 51.5625 40.40625 58.984375 
Q 37.015625 66.40625 30.078125 66.40625 
z
M 30.078125 74.21875 
Q 41.75 74.21875 47.734375 64.640625 
Q 53.71875 55.078125 53.71875 36.375 
Q 53.71875 17.71875 47.734375 8.140625 
Q 41.75 -1.421875 30.078125 -1.421875 
Q 18.40625 -1.421875 12.453125 8.140625 
Q 6.5 17.71875 6.5 36.375 
Q 6.5 55.078125 12.453125 64.640625 
Q 18.40625 74.21875 30.078125 74.21875 
z
" id="DejaVuSansMono-48"/>
       </defs>
       <use xlink:href="#DejaVuSansMono-48"/>
      </g>
     </g>
    </g>
    <g id="xtick_2">
     <g id="line2d_2">
      <g>
       <use style="stroke:#000000;stroke-width:0.8;" x="139.060286" xlink:href="#m9e895f3ebe" y="316.4425"/>
      </g>
     </g>
     <g id="text_2">
      <!-- 100 -->
      <g transform="translate(133.642004 328.033437)scale(0.06 -0.06)">
       <defs>
        <path d="M 13.1875 8.296875 
L 28.515625 8.296875 
L 28.515625 64.015625 
L 12.015625 60.296875 
L 12.015625 69.28125 
L 28.421875 72.90625 
L 38.28125 72.90625 
L 38.28125 8.296875 
L 53.421875 8.296875 
L 53.421875 0 
L 13.1875 0 
z
" id="DejaVuSansMono-49"/>
       </defs>
       <use xlink:href="#DejaVuSansMono-49"/>
       <use x="60.205078" xlink:href="#DejaVuSansMono-48"/>
       <use x="120.410156" xlink:href="#DejaVuSansMono-48"/>
      </g>
     </g>
    </g>
    <g id="xtick_3">
     <g id="line2d_3">
      <g>
       <use style="stroke:#000000;stroke-width:0.8;" x="225.64631" xlink:href="#m9e895f3ebe" y="316.4425"/>
      </g>
     </g>
     <g id="text_3">
      <!-- 200 -->
      <g transform="translate(220.228029 328.033437)scale(0.06 -0.06)">
       <defs>
        <path d="M 18.21875 8.296875 
L 51.703125 8.296875 
L 51.703125 0 
L 7.421875 0 
L 7.421875 8.296875 
Q 16.546875 17.921875 23.375 25.296875 
Q 30.21875 32.671875 32.8125 35.6875 
Q 37.703125 41.65625 39.40625 45.34375 
Q 41.109375 49.03125 41.109375 52.875 
Q 41.109375 58.984375 37.515625 62.453125 
Q 33.9375 65.921875 27.6875 65.921875 
Q 23.25 65.921875 18.359375 64.3125 
Q 13.484375 62.703125 8.015625 59.421875 
L 8.015625 69.390625 
Q 13.03125 71.78125 17.890625 73 
Q 22.75 74.21875 27.484375 74.21875 
Q 38.1875 74.21875 44.703125 68.53125 
Q 51.21875 62.84375 51.21875 53.609375 
Q 51.21875 48.921875 49.046875 44.234375 
Q 46.875 39.546875 42 33.890625 
Q 39.265625 30.71875 34.0625 25.09375 
Q 28.859375 19.484375 18.21875 8.296875 
z
" id="DejaVuSansMono-50"/>
       </defs>
       <use xlink:href="#DejaVuSansMono-50"/>
       <use x="60.205078" xlink:href="#DejaVuSansMono-48"/>
       <use x="120.410156" xlink:href="#DejaVuSansMono-48"/>
      </g>
     </g>
    </g>
    <g id="xtick_4">
     <g id="line2d_4">
      <g>
       <use style="stroke:#000000;stroke-width:0.8;" x="312.232334" xlink:href="#m9e895f3ebe" y="316.4425"/>
      </g>
     </g>
     <g id="text_4">
      <!-- 300 -->
      <g transform="translate(306.814053 328.033437)scale(0.06 -0.06)">
       <defs>
        <path d="M 37.890625 39.015625 
Q 45.0625 37.109375 48.875 32.25 
Q 52.6875 27.390625 52.6875 20.125 
Q 52.6875 10.0625 45.921875 4.3125 
Q 39.15625 -1.421875 27.203125 -1.421875 
Q 22.171875 -1.421875 16.9375 -0.484375 
Q 11.71875 0.4375 6.6875 2.203125 
L 6.6875 12.015625 
Q 11.671875 9.421875 16.5 8.15625 
Q 21.34375 6.890625 26.125 6.890625 
Q 34.234375 6.890625 38.578125 10.546875 
Q 42.921875 14.203125 42.921875 21.09375 
Q 42.921875 27.4375 38.578125 31.171875 
Q 34.234375 34.90625 26.8125 34.90625 
L 19.28125 34.90625 
L 19.28125 43.015625 
L 26.8125 43.015625 
Q 33.59375 43.015625 37.40625 45.984375 
Q 41.21875 48.96875 41.21875 54.296875 
Q 41.21875 59.90625 37.671875 62.90625 
Q 34.125 65.921875 27.59375 65.921875 
Q 23.25 65.921875 18.609375 64.9375 
Q 13.96875 63.96875 8.890625 62.015625 
L 8.890625 71.09375 
Q 14.796875 72.65625 19.40625 73.4375 
Q 24.03125 74.21875 27.59375 74.21875 
Q 38.234375 74.21875 44.609375 68.875 
Q 50.984375 63.53125 50.984375 54.6875 
Q 50.984375 48.6875 47.625 44.671875 
Q 44.28125 40.671875 37.890625 39.015625 
z
" id="DejaVuSansMono-51"/>
       </defs>
       <use xlink:href="#DejaVuSansMono-51"/>
       <use x="60.205078" xlink:href="#DejaVuSansMono-48"/>
       <use x="120.410156" xlink:href="#DejaVuSansMono-48"/>
      </g>
     </g>
    </g>
    <g id="xtick_5">
     <g id="line2d_5">
      <g>
       <use style="stroke:#000000;stroke-width:0.8;" x="398.818358" xlink:href="#m9e895f3ebe" y="316.4425"/>
      </g>
     </g>
     <g id="text_5">
      <!-- 400 -->
      <g transform="translate(393.400077 328.033437)scale(0.06 -0.06)">
       <defs>
        <path d="M 35.890625 63.921875 
L 12.890625 25.390625 
L 35.890625 25.390625 
z
M 34.28125 72.90625 
L 45.703125 72.90625 
L 45.703125 25.390625 
L 55.421875 25.390625 
L 55.421875 17.390625 
L 45.703125 17.390625 
L 45.703125 0 
L 35.890625 0 
L 35.890625 17.390625 
L 4.984375 17.390625 
L 4.984375 26.703125 
z
" id="DejaVuSansMono-52"/>
       </defs>
       <use xlink:href="#DejaVuSansMono-52"/>
       <use x="60.205078" xlink:href="#DejaVuSansMono-48"/>
       <use x="120.410156" xlink:href="#DejaVuSansMono-48"/>
      </g>
     </g>
    </g>
    <g id="text_6">
     <!-- n -->
     <g transform="translate(242.023281 337.872187)scale(0.06 -0.06)">
      <defs>
       <path d="M 51.3125 33.890625 
L 51.3125 0 
L 42.28125 0 
L 42.28125 33.890625 
Q 42.28125 41.265625 39.6875 44.71875 
Q 37.109375 48.1875 31.59375 48.1875 
Q 25.296875 48.1875 21.890625 43.71875 
Q 18.5 39.265625 18.5 30.90625 
L 18.5 0 
L 9.515625 0 
L 9.515625 54.6875 
L 18.5 54.6875 
L 18.5 46.484375 
Q 20.90625 51.171875 25 53.578125 
Q 29.109375 56 34.71875 56 
Q 43.0625 56 47.1875 50.5 
Q 51.3125 45.015625 51.3125 33.890625 
z
" id="DejaVuSansMono-110"/>
      </defs>
      <use xlink:href="#DejaVuSansMono-110"/>
     </g>
    </g>
   </g>
   <g id="matplotlib.axis_2">
    <g id="ytick_1">
     <g id="line2d_6">
      <defs>
       <path d="M 0 0 
L -3.5 0 
" id="mf258dd8780" style="stroke:#000000;stroke-width:0.8;"/>
      </defs>
      <g>
       <use style="stroke:#000000;stroke-width:0.8;" x="33.33875" xlink:href="#mf258dd8780" y="276.767227"/>
      </g>
     </g>
     <g id="text_7">
      <!-- $\mathdefault{10^{1}}$ -->
      <g transform="translate(16.31875 279.062696)scale(0.06 -0.06)">
       <use transform="translate(0 0.684375)" xlink:href="#DejaVuSansMono-49"/>
       <use transform="translate(60.205078 0.684375)" xlink:href="#DejaVuSansMono-48"/>
       <use transform="translate(121.367188 38.965625)scale(0.7)" xlink:href="#DejaVuSansMono-49"/>
      </g>
     </g>
    </g>
    <g id="ytick_2">
     <g id="line2d_7">
      <g>
       <use style="stroke:#000000;stroke-width:0.8;" x="33.33875" xlink:href="#mf258dd8780" y="224.548806"/>
      </g>
     </g>
     <g id="text_8">
      <!-- $\mathdefault{10^{3}}$ -->
      <g transform="translate(16.31875 226.844275)scale(0.06 -0.06)">
       <use transform="translate(0 0.765625)" xlink:href="#DejaVuSansMono-49"/>
       <use transform="translate(60.205078 0.765625)" xlink:href="#DejaVuSansMono-48"/>
       <use transform="translate(121.367188 39.046875)scale(0.7)" xlink:href="#DejaVuSansMono-51"/>
      </g>
     </g>
    </g>
    <g id="ytick_3">
     <g id="line2d_8">
      <g>
       <use style="stroke:#000000;stroke-width:0.8;" x="33.33875" xlink:href="#mf258dd8780" y="172.330386"/>
      </g>
     </g>
     <g id="text_9">
      <!-- $\mathdefault{10^{5}}$ -->
      <g transform="translate(16.31875 174.625854)scale(0.06 -0.06)">
       <defs>
        <path d="M 10.109375 72.90625 
L 47.015625 72.90625 
L 47.015625 64.59375 
L 19.09375 64.59375 
L 19.09375 46.6875 
Q 21.1875 47.46875 23.3125 47.828125 
Q 25.4375 48.1875 27.59375 48.1875 
Q 38.921875 48.1875 45.5625 41.5 
Q 52.203125 34.8125 52.203125 23.390625 
Q 52.203125 11.859375 45.234375 5.21875 
Q 38.28125 -1.421875 26.21875 -1.421875 
Q 20.40625 -1.421875 15.59375 -0.640625 
Q 10.796875 0.140625 6.984375 1.703125 
L 6.984375 11.71875 
Q 11.46875 9.28125 16.015625 8.078125 
Q 20.5625 6.890625 25.296875 6.890625 
Q 33.453125 6.890625 37.859375 11.1875 
Q 42.28125 15.484375 42.28125 23.390625 
Q 42.28125 31.203125 37.71875 35.546875 
Q 33.15625 39.890625 25 39.890625 
Q 21.046875 39.890625 17.28125 38.984375 
Q 13.53125 38.09375 10.109375 36.28125 
z
" id="DejaVuSansMono-53"/>
       </defs>
       <use transform="translate(0 0.684375)" xlink:href="#DejaVuSansMono-49"/>
       <use transform="translate(60.205078 0.684375)" xlink:href="#DejaVuSansMono-48"/>
       <use transform="translate(121.367188 38.965625)scale(0.7)" xlink:href="#DejaVuSansMono-53"/>
      </g>
     </g>
    </g>
    <g id="ytick_4">
     <g id="line2d_9">
      <g>
       <use style="stroke:#000000;stroke-width:0.8;" x="33.33875" xlink:href="#mf258dd8780" y="120.111965"/>
      </g>
     </g>
     <g id="text_10">
      <!-- $\mathdefault{10^{7}}$ -->
      <g transform="translate(16.31875 122.407434)scale(0.06 -0.06)">
       <defs>
        <path d="M 6.78125 72.90625 
L 52.6875 72.90625 
L 52.6875 68.703125 
L 26.609375 0 
L 16.3125 0 
L 41.703125 64.59375 
L 6.78125 64.59375 
z
" id="DejaVuSansMono-55"/>
       </defs>
       <use transform="translate(0 0.684375)" xlink:href="#DejaVuSansMono-49"/>
       <use transform="translate(60.205078 0.684375)" xlink:href="#DejaVuSansMono-48"/>
       <use transform="translate(121.367188 38.965625)scale(0.7)" xlink:href="#DejaVuSansMono-55"/>
      </g>
     </g>
    </g>
    <g id="ytick_5">
     <g id="line2d_10">
      <g>
       <use style="stroke:#000000;stroke-width:0.8;" x="33.33875" xlink:href="#mf258dd8780" y="67.893544"/>
      </g>
     </g>
     <g id="text_11">
      <!-- $\mathdefault{10^{9}}$ -->
      <g transform="translate(16.31875 70.189013)scale(0.06 -0.06)">
       <defs>
        <path d="M 29.109375 32.328125 
Q 35.40625 32.328125 38.984375 36.859375 
Q 42.578125 41.40625 42.578125 49.421875 
Q 42.578125 57.421875 38.984375 61.953125 
Q 35.40625 66.5 29.109375 66.5 
Q 22.5625 66.5 19.234375 62.171875 
Q 15.921875 57.859375 15.921875 49.421875 
Q 15.921875 40.921875 19.21875 36.625 
Q 22.515625 32.328125 29.109375 32.328125 
z
M 11.53125 1.515625 
L 11.53125 10.59375 
Q 14.59375 8.796875 18.0625 7.84375 
Q 21.53125 6.890625 25.296875 6.890625 
Q 34.671875 6.890625 39.46875 13.9375 
Q 44.28125 21 44.28125 34.71875 
Q 42 29.828125 37.84375 27.21875 
Q 33.6875 24.609375 28.328125 24.609375 
Q 17.78125 24.609375 11.984375 31.09375 
Q 6.203125 37.59375 6.203125 49.515625 
Q 6.203125 61.28125 12.125 67.75 
Q 18.0625 74.21875 28.90625 74.21875 
Q 41.609375 74.21875 47.515625 65.078125 
Q 53.421875 55.953125 53.421875 36.375 
Q 53.421875 17.96875 46.3125 8.265625 
Q 39.203125 -1.421875 25.6875 -1.421875 
Q 22.125 -1.421875 18.5 -0.65625 
Q 14.890625 0.09375 11.53125 1.515625 
z
" id="DejaVuSansMono-57"/>
       </defs>
       <use transform="translate(0 0.765625)" xlink:href="#DejaVuSansMono-49"/>
       <use transform="translate(60.205078 0.765625)" xlink:href="#DejaVuSansMono-48"/>
       <use transform="translate(121.367188 39.046875)scale(0.7)" xlink:href="#DejaVuSansMono-57"/>
      </g>
     </g>
    </g>
    <g id="text_12">
     <!-- y_n -->
     <g transform="translate(10.904062 172.634094)rotate(-90)scale(0.06 -0.06)">
      <defs>
       <path d="M 41.890625 17.578125 
Q 39.65625 11.859375 36.1875 2.546875 
Q 31.34375 -10.359375 29.6875 -13.1875 
Q 27.4375 -17 24.0625 -18.890625 
Q 20.703125 -20.796875 16.21875 -20.796875 
L 8.984375 -20.796875 
L 8.984375 -13.28125 
L 14.3125 -13.28125 
Q 18.265625 -13.28125 20.5 -10.984375 
Q 22.75 -8.6875 26.21875 0.875 
L 5.078125 54.6875 
L 14.59375 54.6875 
L 30.8125 11.921875 
L 46.78125 54.6875 
L 56.296875 54.6875 
z
" id="DejaVuSansMono-121"/>
       <path d="M 60.203125 -19.671875 
L 60.203125 -23.578125 
L 0 -23.578125 
L 0 -19.671875 
z
" id="DejaVuSansMono-95"/>
      </defs>
      <use xlink:href="#DejaVuSansMono-121"/>
      <use x="60.205078" xlink:href="#DejaVuSansMono-95"/>
      <use x="120.410156" xlink:href="#DejaVuSansMono-110"/>
     </g>
    </g>
   </g>
   <g id="line2d_11">
    <path clip-path="url(#p5974aa789d)" d="M 52.474261 161.056443 
L 53.340122 148.59917 
L 54.205982 156.458825 
L 55.071842 144.001557 
L 55.937702 151.861212 
L 56.803563 139.403947 
L 57.669423 147.263602 
L 58.535283 134.806339 
L 59.401143 142.665994 
L 60.267004 130.208732 
L 61.132864 138.068388 
L 61.998724 125.611127 
L 63.730445 141.330438 
L 64.596305 128.873176 
L 65.462165 136.732832 
L 66.328025 124.275571 
L 68.925606 147.854537 
L 69.791466 135.397274 
L 70.657326 143.256929 
L 71.523187 130.799667 
L 72.389047 138.659323 
L 73.254907 126.202061 
L 75.852488 149.781028 
L 76.718348 137.323763 
L 77.584208 145.183419 
L 78.450069 132.726156 
L 79.315929 140.585812 
L 80.181789 128.12855 
L 81.047649 135.988206 
L 81.91351 123.530945 
L 82.77937 131.3906 
L 83.64523 118.93334 
L 84.51109 126.792996 
L 85.376951 114.335736 
L 87.108671 130.055047 
L 87.974531 117.597787 
L 88.840392 125.457442 
L 89.706252 113.000182 
L 90.572112 120.859838 
L 91.437972 108.402578 
L 92.303833 116.262234 
L 93.169693 103.804974 
L 94.035553 111.66463 
L 94.901413 99.20737 
L 95.767273 107.067026 
L 96.633134 94.609766 
L 97.498994 102.469422 
L 98.364854 90.012163 
L 99.230714 97.871818 
L 100.096575 85.414559 
L 102.694155 108.993525 
L 103.560016 96.536266 
L 104.425876 104.395921 
L 105.291736 91.938662 
L 106.157596 99.798318 
L 107.023457 87.341058 
L 108.755177 103.060369 
L 109.621037 90.60311 
L 110.486898 98.462766 
L 111.352758 86.005506 
L 113.084478 101.724817 
L 113.950339 89.267558 
L 114.816199 97.127213 
L 115.682059 84.669954 
L 116.547919 92.52961 
L 117.41378 80.07235 
L 118.27964 87.932006 
L 119.1455 75.474747 
L 120.877221 91.194058 
L 121.743081 78.736798 
L 122.608941 86.596454 
L 123.474801 74.139195 
L 124.340662 81.99885 
L 125.206522 69.541591 
L 126.072382 77.401246 
L 126.938242 64.943987 
L 127.804102 72.803643 
L 128.669963 60.346383 
L 132.133404 91.785005 
L 132.999264 79.327746 
L 133.865124 87.187402 
L 134.730984 74.730142 
L 135.596845 82.589798 
L 136.462705 70.132539 
L 138.194425 85.85185 
L 139.060286 73.39459 
L 139.926146 81.254246 
L 140.792006 68.796987 
L 141.657866 76.656642 
L 142.523727 64.199383 
L 143.389587 72.059038 
L 144.255447 59.601779 
L 145.987168 75.32109 
L 146.853028 62.863831 
L 149.450609 86.442797 
L 150.316469 73.985538 
L 151.182329 81.845194 
L 152.048189 69.387934 
L 152.91405 77.24759 
L 153.77991 64.790331 
L 154.64577 72.649986 
L 155.51163 60.192727 
L 156.37749 68.052382 
L 157.243351 55.595123 
L 158.975071 71.314434 
L 159.840931 58.857175 
L 160.706792 66.71683 
L 161.572652 54.259571 
L 164.170233 77.838538 
L 165.036093 65.381278 
L 166.767813 81.100589 
L 167.633674 68.64333 
L 169.365394 84.362641 
L 170.231254 71.905382 
L 171.097115 79.765037 
L 171.962975 67.307778 
L 173.694695 83.027089 
L 174.560556 70.56983 
L 176.292276 86.289141 
L 177.158136 73.831882 
L 178.023997 81.691537 
L 178.889857 69.234278 
L 179.755717 77.093933 
L 180.621577 64.636674 
L 182.353298 80.355985 
L 183.219158 67.898726 
L 184.085018 75.758381 
L 184.950878 63.301122 
L 185.816739 71.160778 
L 186.682599 58.703518 
L 187.548459 66.563174 
L 188.414319 54.105915 
L 190.14604 69.825226 
L 191.0119 57.367967 
L 191.87776 65.227622 
L 192.743621 52.770363 
L 194.475341 68.489674 
L 195.341201 56.032415 
L 196.207062 63.89207 
L 197.072922 51.434811 
L 197.938782 59.294466 
L 198.804642 46.837207 
L 199.670503 54.696863 
L 200.536363 42.239603 
L 202.268083 57.958914 
L 203.133944 45.501655 
L 207.463245 84.799933 
L 208.329105 72.342673 
L 210.060826 88.061984 
L 210.926686 75.604725 
L 211.792546 83.464381 
L 212.658406 71.007121 
L 213.524267 78.866777 
L 214.390127 66.409518 
L 215.255987 74.269173 
L 216.121847 61.811914 
L 216.987707 69.671569 
L 217.853568 57.21431 
L 218.719428 65.073966 
L 219.585288 52.616706 
L 220.451148 60.476362 
L 221.317009 48.019103 
L 223.048729 63.738414 
L 223.914589 51.281154 
L 224.78045 59.14081 
L 225.64631 46.683551 
L 226.51217 54.543206 
L 227.37803 42.085947 
L 229.109751 57.805258 
L 229.975611 45.347999 
L 230.841471 53.207654 
L 231.707332 40.750395 
L 232.573192 48.61005 
L 233.439052 36.152791 
L 234.304912 44.012447 
L 235.170773 31.555187 
L 237.768353 55.134154 
L 238.634214 42.676895 
L 240.365934 58.396206 
L 241.231794 45.938946 
L 242.097655 53.798602 
L 242.963515 41.341343 
L 243.829375 49.200998 
L 244.695235 36.743739 
L 247.292816 60.322705 
L 248.158676 47.865446 
L 249.024536 55.725102 
L 249.890397 43.267843 
L 255.085558 90.425775 
L 255.951418 77.968516 
L 257.683139 93.687827 
L 258.548999 81.230568 
L 260.28072 96.949879 
L 261.14658 84.49262 
L 262.8783 100.211931 
L 263.744161 87.754671 
L 264.610021 95.614327 
L 265.475881 83.157068 
L 268.073462 106.736034 
L 268.939322 94.278775 
L 272.402763 125.717397 
L 273.268623 113.260137 
L 275.000344 128.979448 
L 275.866204 116.522188 
L 280.195505 155.820465 
L 281.061365 143.363197 
L 288.854108 214.100097 
L 289.719968 201.641333 
L 291.451688 217.360644 
L 292.317549 204.90138 
L 294.915129 228.480347 
L 295.78099 216.017743 
L 296.64685 223.877398 
L 297.51271 211.416577 
L 300.976151 242.855199 
L 301.842011 230.378962 
L 302.707872 238.238618 
L 303.573732 225.768724 
L 304.439592 233.62838 
L 305.305452 221.162706 
L 307.037173 236.882017 
L 307.903033 224.413547 
L 309.634753 240.132858 
L 310.500614 227.660669 
L 313.098194 251.239636 
L 313.964055 238.74266 
L 314.829915 246.602315 
L 315.695775 234.118656 
L 316.561635 241.978311 
L 317.427496 229.503485 
L 318.293356 237.363141 
L 319.159216 224.894186 
L 320.025076 232.753841 
L 320.890937 220.288792 
L 324.354378 251.727414 
L 325.220238 239.228695 
L 326.086098 247.088351 
L 326.951958 234.603536 
L 328.683679 250.322847 
L 329.549539 237.828951 
L 330.415399 245.688606 
L 331.28126 233.206988 
L 332.14712 241.066644 
L 333.01298 228.593174 
L 334.7447 244.312485 
L 335.610561 231.833648 
L 336.476421 239.693304 
L 337.342281 227.221682 
L 338.208141 235.081338 
L 339.074002 222.614514 
L 339.939862 230.474169 
L 340.805722 218.010538 
L 342.537443 233.729849 
L 343.403303 221.264099 
L 346.000884 244.843066 
L 346.866744 232.363196 
L 347.732604 240.222851 
L 348.598464 227.750544 
L 349.464325 235.610199 
L 350.330185 223.142919 
L 352.061905 238.86223 
L 352.927766 226.391622 
L 353.793626 234.251278 
L 354.659486 221.785129 
L 356.391207 237.50444 
L 357.257067 225.035338 
L 358.122927 232.894994 
L 358.988787 220.429846 
L 359.854648 228.289502 
L 360.720508 215.826987 
L 361.586368 223.686643 
L 362.452228 211.225881 
L 363.318088 219.085536 
L 364.183949 206.625943 
L 365.049809 214.485598 
L 365.915669 202.026783 
L 368.51325 225.60575 
L 369.37911 213.144342 
L 370.24497 221.003998 
L 371.110831 208.543974 
L 371.976691 216.403629 
L 372.842551 203.944527 
L 373.708411 211.804183 
L 374.574272 199.345695 
L 378.037713 230.784317 
L 378.903573 218.320509 
L 380.635293 234.03982 
L 381.501154 221.573835 
L 383.232874 237.293146 
L 384.098734 224.824263 
L 387.562175 256.262885 
L 388.428036 243.743833 
L 391.025616 267.322799 
L 391.891477 254.702385 
L 392.757337 262.56204 
L 393.623197 249.997301 
L 394.489057 257.856956 
L 395.354917 245.328605 
L 399.684219 284.626883 
L 400.550079 271.437816 
L 404.01352 302.876437 
L 404.01352 302.876437 
" style="fill:none;stroke:#1f77b4;stroke-linecap:square;stroke-width:0.666667;"/>
   </g>
   <g id="line2d_12">
    <path clip-path="url(#p5974aa789d)" d="M 52.474261 162.854892 
L 53.340122 150.397616 
L 54.205982 158.257271 
L 55.071842 145.800001 
L 55.937702 153.659657 
L 56.803563 141.20239 
L 58.535283 156.921701 
L 59.401143 144.464432 
L 60.267004 152.324088 
L 61.132864 139.866822 
L 61.998724 147.726478 
L 62.864584 135.269214 
L 64.596305 150.988525 
L 65.462165 138.53126 
L 67.193885 154.250571 
L 68.059746 141.793304 
L 68.925606 149.65296 
L 69.791466 137.195695 
L 71.523187 152.915006 
L 72.389047 140.45774 
L 73.254907 148.317396 
L 74.120767 135.860132 
L 74.986628 143.719787 
L 75.852488 131.262525 
L 76.718348 139.122181 
L 77.584208 126.664919 
L 78.450069 134.524575 
L 79.315929 122.067314 
L 81.047649 137.786625 
L 81.91351 125.329364 
L 82.77937 133.18902 
L 83.64523 120.731759 
L 84.51109 128.591415 
L 85.376951 116.134155 
L 86.242811 123.99381 
L 87.108671 111.536551 
L 89.706252 135.115517 
L 90.572112 122.658256 
L 91.437972 130.517912 
L 92.303833 118.060652 
L 93.169693 125.920307 
L 94.035553 113.463047 
L 94.901413 121.322703 
L 95.767273 108.865443 
L 97.498994 124.584754 
L 98.364854 112.127494 
L 99.230714 119.98715 
L 100.096575 107.52989 
L 100.962435 115.389546 
L 101.828295 102.932286 
L 103.560016 118.651597 
L 104.425876 106.194338 
L 105.291736 114.053993 
L 106.157596 101.596734 
L 107.023457 109.456389 
L 107.889317 96.99913 
L 110.486898 120.578096 
L 111.352758 108.120837 
L 112.218618 115.980492 
L 113.084478 103.523233 
L 116.547919 134.961855 
L 117.41378 122.504594 
L 118.27964 130.36425 
L 119.1455 117.90699 
L 120.877221 133.626301 
L 121.743081 121.16904 
L 122.608941 129.028696 
L 123.474801 116.571435 
L 124.340662 124.431091 
L 125.206522 111.973831 
L 128.669963 143.412453 
L 129.535823 130.955191 
L 130.401683 138.814846 
L 131.267543 126.357585 
L 132.133404 134.217241 
L 132.999264 121.75998 
L 135.596845 145.338947 
L 136.462705 132.881684 
L 137.328565 140.741339 
L 138.194425 128.284078 
L 139.060286 136.143733 
L 139.926146 123.686473 
L 140.792006 131.546128 
L 141.657866 119.088868 
L 144.255447 142.667834 
L 145.121307 130.210572 
L 147.718888 153.789539 
L 148.584748 141.332272 
L 149.450609 149.191928 
L 150.316469 136.734664 
L 152.91405 160.31363 
L 153.77991 147.856358 
L 155.51163 163.575669 
L 156.37749 151.118392 
L 157.243351 158.978048 
L 158.109211 146.520777 
L 159.840931 162.240088 
L 160.706792 149.782813 
L 162.438512 165.502124 
L 163.304372 153.044844 
L 164.170233 160.904499 
L 165.036093 148.447226 
L 167.633674 172.026193 
L 168.499534 159.568897 
L 169.365394 167.428552 
L 170.231254 154.971269 
L 171.097115 162.830924 
L 171.962975 150.373649 
L 172.828835 158.233304 
L 173.694695 145.776034 
L 174.560556 153.635689 
L 175.426416 141.178423 
L 176.292276 149.038078 
L 177.158136 136.580814 
L 179.755717 160.159781 
L 180.621577 147.702509 
L 181.487438 155.562164 
L 182.353298 143.104896 
L 183.219158 150.964552 
L 184.085018 138.507287 
L 184.950878 146.366942 
L 185.816739 133.909679 
L 186.682599 141.769335 
L 187.548459 129.312073 
L 189.28018 145.031384 
L 190.14604 132.574121 
L 191.0119 140.433777 
L 191.87776 127.976515 
L 192.743621 135.836171 
L 193.609481 123.37891 
L 195.341201 139.098221 
L 196.207062 126.64096 
L 197.072922 134.500615 
L 197.938782 122.043355 
L 198.804642 129.90301 
L 199.670503 117.44575 
L 200.536363 125.305406 
L 201.402223 112.848146 
L 206.597385 160.006079 
L 207.463245 147.548807 
L 208.329105 155.408462 
L 209.194965 142.951195 
L 210.060826 150.81085 
L 210.926686 138.353585 
L 213.524267 161.932552 
L 214.390127 149.475277 
L 215.255987 157.334933 
L 216.121847 144.877664 
L 216.987707 152.737319 
L 217.853568 140.280053 
L 218.719428 148.139709 
L 219.585288 135.682445 
L 220.451148 143.5421 
L 221.317009 131.084838 
L 222.182869 138.944494 
L 223.048729 126.487232 
L 225.64631 150.066199 
L 226.51217 137.608934 
L 227.37803 145.46859 
L 228.243891 133.011327 
L 229.109751 140.870983 
L 229.975611 128.413721 
L 230.841471 136.273377 
L 231.707332 123.816116 
L 232.573192 131.675771 
L 233.439052 119.218511 
L 236.036633 142.797477 
L 236.902493 130.340215 
L 239.500074 153.919182 
L 240.365934 141.461915 
L 241.231794 149.321571 
L 242.097655 136.864307 
L 243.829375 152.583617 
L 244.695235 140.126352 
L 246.426956 155.845663 
L 247.292816 143.388395 
L 249.890397 166.967361 
L 250.756257 154.510078 
L 251.622117 162.369734 
L 252.487977 149.912459 
L 254.219698 165.63177 
L 255.085558 153.17449 
L 255.951418 161.034145 
L 256.817279 148.576872 
L 257.683139 156.436527 
L 258.548999 143.979259 
L 261.14658 167.558225 
L 262.01244 155.100941 
L 262.8783 162.960597 
L 263.744161 150.503321 
L 264.610021 158.362977 
L 265.475881 145.905706 
L 267.207602 161.625017 
L 268.073462 149.167743 
L 270.671043 172.74671 
L 271.536903 160.289411 
L 272.402763 168.149067 
L 273.268623 155.691782 
L 275.000344 171.411093 
L 275.866204 158.953798 
L 278.463785 182.532765 
L 279.329645 170.075413 
L 280.195505 177.935068 
L 281.061365 165.477747 
L 282.793086 181.197058 
L 283.658946 168.739716 
L 284.524806 176.599372 
L 285.390667 164.142057 
L 286.256527 172.001713 
L 287.122387 159.544417 
L 289.719968 183.123383 
L 290.585828 170.666026 
L 291.451688 178.525682 
L 292.317549 166.068357 
L 294.049269 181.787668 
L 294.915129 169.330322 
L 298.37857 200.768944 
L 299.244431 188.311221 
L 300.110291 196.170876 
L 300.976151 183.713307 
L 301.842011 191.572963 
L 302.707872 179.115497 
L 303.573732 186.975153 
L 304.439592 174.517756 
L 307.037173 198.096723 
L 307.903033 185.639097 
L 308.768893 193.498752 
L 309.634753 181.041249 
L 313.098194 212.47987 
L 313.964055 200.021308 
L 314.829915 207.880963 
L 315.695775 195.422835 
L 318.293356 219.001801 
L 319.159216 206.542225 
L 320.025076 214.40188 
L 320.890937 201.943077 
L 321.756797 209.802732 
L 322.622657 197.344443 
L 323.488517 205.204099 
L 324.354378 192.746153 
L 325.220238 200.605809 
L 326.086098 188.148092 
L 329.549539 219.586714 
L 330.415399 207.127015 
L 333.01298 230.705981 
L 333.87884 218.242219 
L 337.342281 249.68084 
L 338.208141 237.188958 
L 340.805722 260.767924 
L 341.671582 248.21885 
L 343.403303 263.938161 
L 344.269163 251.359627 
L 345.135023 259.219283 
L 346.000884 246.681888 
L 346.866744 254.541544 
L 347.732604 242.031174 
L 348.598464 249.89083 
L 349.464325 237.398301 
L 350.330185 245.257956 
L 351.196045 232.777245 
L 352.927766 248.496556 
L 353.793626 236.008103 
L 355.525346 251.727414 
L 356.391207 239.228695 
L 357.257067 247.088351 
L 358.122927 234.603536 
L 359.854648 250.322847 
L 360.720508 237.828951 
L 361.586368 245.688606 
L 362.452228 233.206988 
L 363.318088 241.066644 
L 364.183949 228.593174 
L 365.915669 244.312485 
L 366.781529 231.833648 
L 367.64739 239.693304 
L 368.51325 227.221682 
L 369.37911 235.081338 
L 370.24497 222.614514 
L 371.110831 230.474169 
L 371.976691 218.010538 
L 373.708411 233.729849 
L 374.574272 221.264099 
L 377.171852 244.843066 
L 378.037713 232.363196 
L 378.903573 240.222851 
L 379.769433 227.750544 
L 380.635293 235.610199 
L 381.501154 223.142919 
L 383.232874 238.86223 
L 384.098734 226.391622 
L 384.964595 234.251278 
L 385.830455 221.785129 
L 387.562175 237.50444 
L 388.428036 225.035338 
L 389.293896 232.894994 
L 390.159756 220.429846 
L 391.025616 228.289502 
L 391.891477 215.826987 
L 392.757337 223.686643 
L 393.623197 211.225881 
L 394.489057 219.085536 
L 395.354917 206.625943 
L 396.220778 214.485598 
L 397.086638 202.026783 
L 399.684219 225.60575 
L 400.550079 213.144342 
L 401.415939 221.003998 
L 402.281799 208.543974 
L 403.14766 216.403629 
L 404.01352 203.944527 
L 404.87938 211.804183 
L 405.74524 199.345695 
L 409.208681 230.784317 
L 410.074542 218.320509 
L 411.806262 234.03982 
L 412.672122 221.573835 
L 414.403843 237.293146 
L 415.269703 224.824263 
L 418.733144 256.262885 
L 419.599004 243.743833 
L 422.196585 267.322799 
L 423.062445 254.702385 
L 423.928305 262.56204 
L 424.794166 249.997301 
L 425.660026 257.856956 
L 426.525886 245.328605 
L 430.855187 284.626883 
L 431.721048 271.437816 
L 435.184489 302.876437 
L 435.184489 302.876437 
" style="fill:none;stroke:#ff7f0e;stroke-linecap:square;stroke-width:0.666667;"/>
   </g>
   <g id="patch_3">
    <path d="M 33.33875 316.4425 
L 33.33875 17.989125 
" style="fill:none;stroke:#000000;stroke-linecap:square;stroke-linejoin:miter;stroke-width:0.8;"/>
   </g>
   <g id="patch_4">
    <path d="M 454.32 316.4425 
L 454.32 17.989125 
" style="fill:none;stroke:#000000;stroke-linecap:square;stroke-linejoin:miter;stroke-width:0.8;"/>
   </g>
   <g id="patch_5">
    <path d="M 33.33875 316.4425 
L 454.32 316.4425 
" style="fill:none;stroke:#000000;stroke-linecap:square;stroke-linejoin:miter;stroke-width:0.8;"/>
   </g>
   <g id="patch_6">
    <path d="M 33.33875 17.989125 
L 454.32 17.989125 
" style="fill:none;stroke:#000000;stroke-linecap:square;stroke-linejoin:miter;stroke-width:0.8;"/>
   </g>
   <g id="text_13">
    <!-- "3y+1" problem -->
    <g transform="translate(213.487 11.989125)scale(0.072 -0.072)">
     <defs>
      <path d="M 43.703125 72.90625 
L 43.703125 45.796875 
L 35.203125 45.796875 
L 35.203125 72.90625 
z
M 25 72.90625 
L 25 45.796875 
L 16.5 45.796875 
L 16.5 72.90625 
z
" id="DejaVuSansMono-34"/>
      <path d="M 34.1875 57.171875 
L 34.1875 35.5 
L 55.90625 35.5 
L 55.90625 27.203125 
L 34.1875 27.203125 
L 34.1875 5.515625 
L 25.984375 5.515625 
L 25.984375 27.203125 
L 4.296875 27.203125 
L 4.296875 35.5 
L 25.984375 35.5 
L 25.984375 57.171875 
z
" id="DejaVuSansMono-43"/>
      <path id="DejaVuSansMono-32"/>
      <path d="M 18.3125 6.890625 
L 18.3125 -20.796875 
L 9.28125 -20.796875 
L 9.28125 54.6875 
L 18.3125 54.6875 
L 18.3125 47.703125 
Q 20.5625 51.765625 24.296875 53.875 
Q 28.03125 56 32.90625 56 
Q 42.828125 56 48.46875 48.328125 
Q 54.109375 40.671875 54.109375 27.09375 
Q 54.109375 13.765625 48.4375 6.171875 
Q 42.78125 -1.421875 32.90625 -1.421875 
Q 27.9375 -1.421875 24.1875 0.703125 
Q 20.453125 2.828125 18.3125 6.890625 
z
M 44.671875 27.296875 
Q 44.671875 37.75 41.375 43.0625 
Q 38.09375 48.390625 31.59375 48.390625 
Q 25.046875 48.390625 21.671875 43.046875 
Q 18.3125 37.703125 18.3125 27.296875 
Q 18.3125 16.9375 21.671875 11.5625 
Q 25.046875 6.203125 31.59375 6.203125 
Q 38.09375 6.203125 41.375 11.515625 
Q 44.671875 16.84375 44.671875 27.296875 
z
" id="DejaVuSansMono-112"/>
      <path d="M 56.390625 43.40625 
Q 53.515625 45.65625 50.53125 46.671875 
Q 47.5625 47.703125 44 47.703125 
Q 35.59375 47.703125 31.140625 42.421875 
Q 26.703125 37.15625 26.703125 27.203125 
L 26.703125 0 
L 17.671875 0 
L 17.671875 54.6875 
L 26.703125 54.6875 
L 26.703125 44 
Q 28.953125 49.8125 33.609375 52.90625 
Q 38.28125 56 44.671875 56 
Q 48 56 50.875 55.171875 
Q 53.765625 54.34375 56.390625 52.59375 
z
" id="DejaVuSansMono-114"/>
      <path d="M 30.078125 48.390625 
Q 23.25 48.390625 19.734375 43.0625 
Q 16.21875 37.75 16.21875 27.296875 
Q 16.21875 16.890625 19.734375 11.546875 
Q 23.25 6.203125 30.078125 6.203125 
Q 36.96875 6.203125 40.484375 11.546875 
Q 44 16.890625 44 27.296875 
Q 44 37.75 40.484375 43.0625 
Q 36.96875 48.390625 30.078125 48.390625 
z
M 30.078125 56 
Q 41.453125 56 47.484375 48.625 
Q 53.515625 41.265625 53.515625 27.296875 
Q 53.515625 13.28125 47.5 5.921875 
Q 41.5 -1.421875 30.078125 -1.421875 
Q 18.703125 -1.421875 12.6875 5.921875 
Q 6.6875 13.28125 6.6875 27.296875 
Q 6.6875 41.265625 12.6875 48.625 
Q 18.703125 56 30.078125 56 
z
" id="DejaVuSansMono-111"/>
      <path d="M 44.828125 27.296875 
Q 44.828125 37.75 41.5 43.0625 
Q 38.1875 48.390625 31.6875 48.390625 
Q 25.140625 48.390625 21.765625 43.046875 
Q 18.40625 37.703125 18.40625 27.296875 
Q 18.40625 16.9375 21.765625 11.5625 
Q 25.140625 6.203125 31.6875 6.203125 
Q 38.1875 6.203125 41.5 11.515625 
Q 44.828125 16.84375 44.828125 27.296875 
z
M 18.40625 47.703125 
Q 20.5625 51.703125 24.34375 53.84375 
Q 28.125 56 33.109375 56 
Q 42.96875 56 48.625 48.40625 
Q 54.296875 40.828125 54.296875 27.484375 
Q 54.296875 13.96875 48.609375 6.265625 
Q 42.921875 -1.421875 33.015625 -1.421875 
Q 28.125 -1.421875 24.390625 0.703125 
Q 20.65625 2.828125 18.40625 6.890625 
L 18.40625 0 
L 9.421875 0 
L 9.421875 75.984375 
L 18.40625 75.984375 
z
" id="DejaVuSansMono-98"/>
      <path d="M 31.203125 19.828125 
Q 31.203125 13.765625 33.421875 10.6875 
Q 35.640625 7.625 39.984375 7.625 
L 50.484375 7.625 
L 50.484375 0 
L 39.109375 0 
Q 31.0625 0 26.640625 5.171875 
Q 22.21875 10.359375 22.21875 19.828125 
L 22.21875 69.484375 
L 7.8125 69.484375 
L 7.8125 76.515625 
L 31.203125 76.515625 
z
" id="DejaVuSansMono-108"/>
      <path d="M 54.296875 29.59375 
L 54.296875 25.203125 
L 15.375 25.203125 
L 15.375 24.90625 
Q 15.375 15.96875 20.03125 11.078125 
Q 24.703125 6.203125 33.203125 6.203125 
Q 37.5 6.203125 42.1875 7.5625 
Q 46.875 8.9375 52.203125 11.71875 
L 52.203125 2.78125 
Q 47.078125 0.6875 42.3125 -0.359375 
Q 37.546875 -1.421875 33.109375 -1.421875 
Q 20.359375 -1.421875 13.171875 6.21875 
Q 6 13.875 6 27.296875 
Q 6 40.375 13.03125 48.1875 
Q 20.0625 56 31.78125 56 
Q 42.234375 56 48.265625 48.921875 
Q 54.296875 41.84375 54.296875 29.59375 
z
M 45.3125 32.234375 
Q 45.125 40.140625 41.578125 44.265625 
Q 38.03125 48.390625 31.390625 48.390625 
Q 24.90625 48.390625 20.703125 44.09375 
Q 16.5 39.796875 15.71875 32.171875 
z
" id="DejaVuSansMono-101"/>
      <path d="M 33.015625 49.125 
Q 34.671875 52.640625 37.234375 54.3125 
Q 39.796875 56 43.40625 56 
Q 50 56 52.703125 50.890625 
Q 55.421875 45.796875 55.421875 31.6875 
L 55.421875 0 
L 47.21875 0 
L 47.21875 31.296875 
Q 47.21875 42.875 45.921875 45.671875 
Q 44.625 48.484375 41.21875 48.484375 
Q 37.3125 48.484375 35.859375 45.484375 
Q 34.421875 42.484375 34.421875 31.296875 
L 34.421875 0 
L 26.21875 0 
L 26.21875 31.296875 
Q 26.21875 43.015625 24.828125 45.75 
Q 23.4375 48.484375 19.828125 48.484375 
Q 16.265625 48.484375 14.875 45.484375 
Q 13.484375 42.484375 13.484375 31.296875 
L 13.484375 0 
L 5.328125 0 
L 5.328125 54.6875 
L 13.484375 54.6875 
L 13.484375 50 
Q 15.09375 52.9375 17.5 54.46875 
Q 19.921875 56 23 56 
Q 26.703125 56 29.171875 54.296875 
Q 31.640625 52.59375 33.015625 49.125 
z
" id="DejaVuSansMono-109"/>
     </defs>
     <use xlink:href="#DejaVuSansMono-34"/>
     <use x="60.205078" xlink:href="#DejaVuSansMono-51"/>
     <use x="120.410156" xlink:href="#DejaVuSansMono-121"/>
     <use x="180.615234" xlink:href="#DejaVuSansMono-43"/>
     <use x="240.820312" xlink:href="#DejaVuSansMono-49"/>
     <use x="301.025391" xlink:href="#DejaVuSansMono-34"/>
     <use x="361.230469" xlink:href="#DejaVuSansMono-32"/>
     <use x="421.435547" xlink:href="#DejaVuSansMono-112"/>
     <use x="481.640625" xlink:href="#DejaVuSansMono-114"/>
     <use x="541.845703" xlink:href="#DejaVuSansMono-111"/>
     <use x="602.050781" xlink:href="#DejaVuSansMono-98"/>
     <use x="662.255859" xlink:href="#DejaVuSansMono-108"/>
     <use x="722.460938" xlink:href="#DejaVuSansMono-101"/>
     <use x="782.666016" xlink:href="#DejaVuSansMono-109"/>
    </g>
   </g>
   <g id="legend_1">
    <g id="patch_7">
     <path d="M 358.67625 82.0095 
L 450.12 82.0095 
Q 451.32 82.0095 451.32 80.8095 
L 451.32 22.189125 
Q 451.32 20.989125 450.12 20.989125 
L 358.67625 20.989125 
Q 357.47625 20.989125 357.47625 22.189125 
L 357.47625 80.8095 
Q 357.47625 82.0095 358.67625 82.0095 
z
" style="fill:#ffffff;opacity:0.8;stroke:#cccccc;stroke-linejoin:miter;"/>
    </g>
    <g id="line2d_13">
     <path d="M 359.87625 36.889687 
L 371.87625 36.889687 
" style="fill:none;stroke:#1f77b4;stroke-linecap:square;stroke-width:0.666667;"/>
    </g>
    <g id="line2d_14"/>
    <g id="text_14">
     <!-- "Tallest": -->
     <g transform="translate(376.67625 27.980062)scale(0.06 -0.06)">
      <defs>
       <path d="M 2.296875 72.90625 
L 57.90625 72.90625 
L 57.90625 64.59375 
L 35.109375 64.59375 
L 35.109375 0 
L 25.203125 0 
L 25.203125 64.59375 
L 2.296875 64.59375 
z
" id="DejaVuSansMono-84"/>
       <path d="M 34.28125 27.484375 
L 31.296875 27.484375 
Q 23.4375 27.484375 19.453125 24.71875 
Q 15.484375 21.96875 15.484375 16.5 
Q 15.484375 11.578125 18.453125 8.84375 
Q 21.4375 6.109375 26.703125 6.109375 
Q 34.125 6.109375 38.375 11.25 
Q 42.625 16.40625 42.671875 25.484375 
L 42.671875 27.484375 
z
M 51.703125 31.203125 
L 51.703125 0 
L 42.671875 0 
L 42.671875 8.109375 
Q 39.796875 3.21875 35.421875 0.890625 
Q 31.0625 -1.421875 24.8125 -1.421875 
Q 16.453125 -1.421875 11.46875 3.296875 
Q 6.5 8.015625 6.5 15.921875 
Q 6.5 25.046875 12.625 29.78125 
Q 18.75 34.515625 30.609375 34.515625 
L 42.671875 34.515625 
L 42.671875 35.9375 
Q 42.625 42.484375 39.34375 45.4375 
Q 36.078125 48.390625 28.90625 48.390625 
Q 24.3125 48.390625 19.625 47.0625 
Q 14.9375 45.75 10.5 43.21875 
L 10.5 52.203125 
Q 15.484375 54.109375 20.046875 55.046875 
Q 24.609375 56 28.90625 56 
Q 35.6875 56 40.5 54 
Q 45.3125 52 48.296875 48 
Q 50.140625 45.5625 50.921875 41.96875 
Q 51.703125 38.375 51.703125 31.203125 
z
" id="DejaVuSansMono-97"/>
       <path d="M 47.515625 52.78125 
L 47.515625 44 
Q 43.65625 46.234375 39.75 47.359375 
Q 35.84375 48.484375 31.78125 48.484375 
Q 25.6875 48.484375 22.671875 46.5 
Q 19.671875 44.53125 19.671875 40.484375 
Q 19.671875 36.8125 21.921875 35 
Q 24.171875 33.203125 33.109375 31.5 
L 36.71875 30.8125 
Q 43.40625 29.546875 46.84375 25.734375 
Q 50.296875 21.921875 50.296875 15.828125 
Q 50.296875 7.71875 44.53125 3.140625 
Q 38.765625 -1.421875 28.515625 -1.421875 
Q 24.46875 -1.421875 20.015625 -0.5625 
Q 15.578125 0.296875 10.40625 2 
L 10.40625 11.28125 
Q 15.4375 8.6875 20.015625 7.390625 
Q 24.609375 6.109375 28.71875 6.109375 
Q 34.671875 6.109375 37.9375 8.515625 
Q 41.21875 10.9375 41.21875 15.28125 
Q 41.21875 21.53125 29.25 23.921875 
L 28.859375 24.03125 
L 25.484375 24.703125 
Q 17.71875 26.21875 14.15625 29.8125 
Q 10.59375 33.40625 10.59375 39.59375 
Q 10.59375 47.46875 15.90625 51.734375 
Q 21.234375 56 31.109375 56 
Q 35.5 56 39.546875 55.1875 
Q 43.609375 54.390625 47.515625 52.78125 
z
" id="DejaVuSansMono-115"/>
       <path d="M 29.984375 70.21875 
L 29.984375 54.6875 
L 50.390625 54.6875 
L 50.390625 47.703125 
L 29.984375 47.703125 
L 29.984375 18.015625 
Q 29.984375 11.96875 32.28125 9.5625 
Q 34.578125 7.171875 40.28125 7.171875 
L 50.390625 7.171875 
L 50.390625 0 
L 39.40625 0 
Q 29.296875 0 25.140625 4.046875 
Q 21 8.109375 21 18.015625 
L 21 47.703125 
L 6.390625 47.703125 
L 6.390625 54.6875 
L 21 54.6875 
L 21 70.21875 
z
" id="DejaVuSansMono-116"/>
       <path d="M 23.875 51.90625 
L 36.1875 51.90625 
L 36.1875 37.109375 
L 23.875 37.109375 
z
M 23.875 14.890625 
L 36.1875 14.890625 
L 36.1875 0 
L 23.875 0 
z
" id="DejaVuSansMono-58"/>
      </defs>
      <use xlink:href="#DejaVuSansMono-34"/>
      <use x="60.205078" xlink:href="#DejaVuSansMono-84"/>
      <use x="120.410156" xlink:href="#DejaVuSansMono-97"/>
      <use x="180.615234" xlink:href="#DejaVuSansMono-108"/>
      <use x="240.820312" xlink:href="#DejaVuSansMono-108"/>
      <use x="301.025391" xlink:href="#DejaVuSansMono-101"/>
      <use x="361.230469" xlink:href="#DejaVuSansMono-115"/>
      <use x="421.435547" xlink:href="#DejaVuSansMono-116"/>
      <use x="481.640625" xlink:href="#DejaVuSansMono-34"/>
      <use x="541.845703" xlink:href="#DejaVuSansMono-58"/>
     </g>
     <!-- y_0    = 270271 -->
     <g transform="translate(376.67625 34.737)scale(0.06 -0.06)">
      <defs>
       <path d="M 4.296875 25.59375 
L 55.90625 25.59375 
L 55.90625 17.1875 
L 4.296875 17.1875 
z
M 4.296875 45.40625 
L 55.90625 45.40625 
L 55.90625 37.109375 
L 4.296875 37.109375 
z
" id="DejaVuSansMono-61"/>
      </defs>
      <use xlink:href="#DejaVuSansMono-121"/>
      <use x="60.205078" xlink:href="#DejaVuSansMono-95"/>
      <use x="120.410156" xlink:href="#DejaVuSansMono-48"/>
      <use x="180.615234" xlink:href="#DejaVuSansMono-32"/>
      <use x="240.820312" xlink:href="#DejaVuSansMono-32"/>
      <use x="301.025391" xlink:href="#DejaVuSansMono-32"/>
      <use x="361.230469" xlink:href="#DejaVuSansMono-32"/>
      <use x="421.435547" xlink:href="#DejaVuSansMono-61"/>
      <use x="481.640625" xlink:href="#DejaVuSansMono-32"/>
      <use x="541.845703" xlink:href="#DejaVuSansMono-50"/>
      <use x="602.050781" xlink:href="#DejaVuSansMono-55"/>
      <use x="662.255859" xlink:href="#DejaVuSansMono-48"/>
      <use x="722.460938" xlink:href="#DejaVuSansMono-50"/>
      <use x="782.666016" xlink:href="#DejaVuSansMono-55"/>
      <use x="842.871094" xlink:href="#DejaVuSansMono-49"/>
     </g>
     <!-- y_max  = 24648077896 -->
     <g transform="translate(376.67625 41.660812)scale(0.06 -0.06)">
      <defs>
       <path d="M 54.59375 54.6875 
L 35.015625 28.515625 
L 56.5 0 
L 46.09375 0 
L 30.078125 21.921875 
L 14.109375 0 
L 3.71875 0 
L 25.203125 28.515625 
L 5.609375 54.6875 
L 15.578125 54.6875 
L 30.078125 34.90625 
L 44.484375 54.6875 
z
" id="DejaVuSansMono-120"/>
       <path d="M 48.390625 71.296875 
L 48.390625 62.203125 
Q 45.3125 64.015625 41.84375 64.96875 
Q 38.375 65.921875 34.625 65.921875 
Q 25.25 65.921875 20.40625 58.859375 
Q 15.578125 51.8125 15.578125 38.09375 
Q 17.921875 42.96875 22.0625 45.578125 
Q 26.21875 48.1875 31.59375 48.1875 
Q 42.140625 48.1875 47.921875 41.71875 
Q 53.71875 35.25 53.71875 23.390625 
Q 53.71875 11.578125 47.75 5.078125 
Q 41.796875 -1.421875 31 -1.421875 
Q 18.3125 -1.421875 12.40625 7.6875 
Q 6.5 16.796875 6.5 36.375 
Q 6.5 54.828125 13.59375 64.515625 
Q 20.703125 74.21875 34.1875 74.21875 
Q 37.796875 74.21875 41.40625 73.453125 
Q 45.015625 72.703125 48.390625 71.296875 
z
M 30.8125 40.484375 
Q 24.515625 40.484375 20.890625 35.9375 
Q 17.28125 31.390625 17.28125 23.390625 
Q 17.28125 15.375 20.890625 10.828125 
Q 24.515625 6.296875 30.8125 6.296875 
Q 37.359375 6.296875 40.671875 10.609375 
Q 44 14.9375 44 23.390625 
Q 44 31.890625 40.671875 36.1875 
Q 37.359375 40.484375 30.8125 40.484375 
z
" id="DejaVuSansMono-54"/>
       <path d="M 30.078125 34.625 
Q 23.484375 34.625 19.890625 30.9375 
Q 16.3125 27.25 16.3125 20.515625 
Q 16.3125 13.765625 19.9375 10.03125 
Q 23.578125 6.296875 30.078125 6.296875 
Q 36.71875 6.296875 40.296875 9.984375 
Q 43.890625 13.671875 43.890625 20.515625 
Q 43.890625 27.203125 40.25 30.90625 
Q 36.625 34.625 30.078125 34.625 
z
M 21.484375 38.71875 
Q 15.1875 40.328125 11.640625 44.71875 
Q 8.109375 49.125 8.109375 55.328125 
Q 8.109375 64.015625 14.015625 69.109375 
Q 19.921875 74.21875 30.078125 74.21875 
Q 40.28125 74.21875 46.1875 69.109375 
Q 52.09375 64.015625 52.09375 55.328125 
Q 52.09375 49.125 48.546875 44.71875 
Q 45.015625 40.328125 38.71875 38.71875 
Q 46.046875 37.109375 49.921875 32.21875 
Q 53.8125 27.34375 53.8125 19.578125 
Q 53.8125 9.71875 47.515625 4.140625 
Q 41.21875 -1.421875 30.078125 -1.421875 
Q 18.953125 -1.421875 12.671875 4.125 
Q 6.390625 9.671875 6.390625 19.484375 
Q 6.390625 27.296875 10.265625 32.203125 
Q 14.15625 37.109375 21.484375 38.71875 
z
M 17.921875 54.390625 
Q 17.921875 48.53125 21.046875 45.453125 
Q 24.171875 42.390625 30.078125 42.390625 
Q 36.03125 42.390625 39.15625 45.453125 
Q 42.28125 48.53125 42.28125 54.390625 
Q 42.28125 60.359375 39.171875 63.484375 
Q 36.078125 66.609375 30.078125 66.609375 
Q 24.171875 66.609375 21.046875 63.453125 
Q 17.921875 60.296875 17.921875 54.390625 
z
" id="DejaVuSansMono-56"/>
      </defs>
      <use xlink:href="#DejaVuSansMono-121"/>
      <use x="60.205078" xlink:href="#DejaVuSansMono-95"/>
      <use x="120.410156" xlink:href="#DejaVuSansMono-109"/>
      <use x="180.615234" xlink:href="#DejaVuSansMono-97"/>
      <use x="240.820312" xlink:href="#DejaVuSansMono-120"/>
      <use x="301.025391" xlink:href="#DejaVuSansMono-32"/>
      <use x="361.230469" xlink:href="#DejaVuSansMono-32"/>
      <use x="421.435547" xlink:href="#DejaVuSansMono-61"/>
      <use x="481.640625" xlink:href="#DejaVuSansMono-32"/>
      <use x="541.845703" xlink:href="#DejaVuSansMono-50"/>
      <use x="602.050781" xlink:href="#DejaVuSansMono-52"/>
      <use x="662.255859" xlink:href="#DejaVuSansMono-54"/>
      <use x="722.460938" xlink:href="#DejaVuSansMono-52"/>
      <use x="782.666016" xlink:href="#DejaVuSansMono-56"/>
      <use x="842.871094" xlink:href="#DejaVuSansMono-48"/>
      <use x="903.076172" xlink:href="#DejaVuSansMono-55"/>
      <use x="963.28125" xlink:href="#DejaVuSansMono-55"/>
      <use x="1023.486328" xlink:href="#DejaVuSansMono-56"/>
      <use x="1083.691406" xlink:href="#DejaVuSansMono-57"/>
      <use x="1143.896484" xlink:href="#DejaVuSansMono-54"/>
     </g>
     <!-- x_max  = 407 -->
     <g transform="translate(376.67625 48.584625)scale(0.06 -0.06)">
      <use xlink:href="#DejaVuSansMono-120"/>
      <use x="60.205078" xlink:href="#DejaVuSansMono-95"/>
      <use x="120.410156" xlink:href="#DejaVuSansMono-109"/>
      <use x="180.615234" xlink:href="#DejaVuSansMono-97"/>
      <use x="240.820312" xlink:href="#DejaVuSansMono-120"/>
      <use x="301.025391" xlink:href="#DejaVuSansMono-32"/>
      <use x="361.230469" xlink:href="#DejaVuSansMono-32"/>
      <use x="421.435547" xlink:href="#DejaVuSansMono-61"/>
      <use x="481.640625" xlink:href="#DejaVuSansMono-32"/>
      <use x="541.845703" xlink:href="#DejaVuSansMono-52"/>
      <use x="602.050781" xlink:href="#DejaVuSansMono-48"/>
      <use x="662.255859" xlink:href="#DejaVuSansMono-55"/>
     </g>
    </g>
    <g id="line2d_15">
     <path d="M 359.87625 66.499875 
L 371.87625 66.499875 
" style="fill:none;stroke:#ff7f0e;stroke-linecap:square;stroke-width:0.666667;"/>
    </g>
    <g id="line2d_16"/>
    <g id="text_15">
     <!-- "Widest":  -->
     <g transform="translate(376.67625 57.59025)scale(0.06 -0.06)">
      <defs>
       <path d="M 0 72.90625 
L 9.625 72.90625 
L 16.609375 13.71875 
L 24.90625 52.875 
L 35.203125 52.875 
L 43.609375 13.625 
L 50.59375 72.90625 
L 60.203125 72.90625 
L 49.3125 0 
L 39.984375 0 
L 30.078125 43.3125 
L 20.21875 0 
L 10.890625 0 
z
" id="DejaVuSansMono-87"/>
       <path d="M 12.5 54.6875 
L 35.5 54.6875 
L 35.5 6.984375 
L 53.328125 6.984375 
L 53.328125 0 
L 8.6875 0 
L 8.6875 6.984375 
L 26.515625 6.984375 
L 26.515625 47.703125 
L 12.5 47.703125 
z
M 26.515625 75.984375 
L 35.5 75.984375 
L 35.5 64.59375 
L 26.515625 64.59375 
z
" id="DejaVuSansMono-105"/>
       <path d="M 41.890625 47.703125 
L 41.890625 75.984375 
L 50.875 75.984375 
L 50.875 0 
L 41.890625 0 
L 41.890625 6.890625 
Q 39.65625 2.828125 35.90625 0.703125 
Q 32.171875 -1.421875 27.296875 -1.421875 
Q 17.390625 -1.421875 11.6875 6.265625 
Q 6 13.96875 6 27.484375 
Q 6 40.828125 11.71875 48.40625 
Q 17.4375 56 27.296875 56 
Q 32.234375 56 35.984375 53.875 
Q 39.75 51.765625 41.890625 47.703125 
z
M 15.484375 27.296875 
Q 15.484375 16.84375 18.796875 11.515625 
Q 22.125 6.203125 28.609375 6.203125 
Q 35.109375 6.203125 38.5 11.5625 
Q 41.890625 16.9375 41.890625 27.296875 
Q 41.890625 37.703125 38.5 43.046875 
Q 35.109375 48.390625 28.609375 48.390625 
Q 22.125 48.390625 18.796875 43.0625 
Q 15.484375 37.75 15.484375 27.296875 
z
" id="DejaVuSansMono-100"/>
      </defs>
      <use xlink:href="#DejaVuSansMono-34"/>
      <use x="60.205078" xlink:href="#DejaVuSansMono-87"/>
      <use x="120.410156" xlink:href="#DejaVuSansMono-105"/>
      <use x="180.615234" xlink:href="#DejaVuSansMono-100"/>
      <use x="240.820312" xlink:href="#DejaVuSansMono-101"/>
      <use x="301.025391" xlink:href="#DejaVuSansMono-115"/>
      <use x="361.230469" xlink:href="#DejaVuSansMono-116"/>
      <use x="421.435547" xlink:href="#DejaVuSansMono-34"/>
      <use x="481.640625" xlink:href="#DejaVuSansMono-58"/>
      <use x="541.845703" xlink:href="#DejaVuSansMono-32"/>
     </g>
     <!-- y_0    = 230631 -->
     <g transform="translate(376.67625 64.347187)scale(0.06 -0.06)">
      <use xlink:href="#DejaVuSansMono-121"/>
      <use x="60.205078" xlink:href="#DejaVuSansMono-95"/>
      <use x="120.410156" xlink:href="#DejaVuSansMono-48"/>
      <use x="180.615234" xlink:href="#DejaVuSansMono-32"/>
      <use x="240.820312" xlink:href="#DejaVuSansMono-32"/>
      <use x="301.025391" xlink:href="#DejaVuSansMono-32"/>
      <use x="361.230469" xlink:href="#DejaVuSansMono-32"/>
      <use x="421.435547" xlink:href="#DejaVuSansMono-61"/>
      <use x="481.640625" xlink:href="#DejaVuSansMono-32"/>
      <use x="541.845703" xlink:href="#DejaVuSansMono-50"/>
      <use x="602.050781" xlink:href="#DejaVuSansMono-51"/>
      <use x="662.255859" xlink:href="#DejaVuSansMono-48"/>
      <use x="722.460938" xlink:href="#DejaVuSansMono-54"/>
      <use x="782.666016" xlink:href="#DejaVuSansMono-51"/>
      <use x="842.871094" xlink:href="#DejaVuSansMono-49"/>
     </g>
     <!-- y_max  = 76778008 -->
     <g transform="translate(376.67625 71.271)scale(0.06 -0.06)">
      <use xlink:href="#DejaVuSansMono-121"/>
      <use x="60.205078" xlink:href="#DejaVuSansMono-95"/>
      <use x="120.410156" xlink:href="#DejaVuSansMono-109"/>
      <use x="180.615234" xlink:href="#DejaVuSansMono-97"/>
      <use x="240.820312" xlink:href="#DejaVuSansMono-120"/>
      <use x="301.025391" xlink:href="#DejaVuSansMono-32"/>
      <use x="361.230469" xlink:href="#DejaVuSansMono-32"/>
      <use x="421.435547" xlink:href="#DejaVuSansMono-61"/>
      <use x="481.640625" xlink:href="#DejaVuSansMono-32"/>
      <use x="541.845703" xlink:href="#DejaVuSansMono-55"/>
      <use x="602.050781" xlink:href="#DejaVuSansMono-54"/>
      <use x="662.255859" xlink:href="#DejaVuSansMono-55"/>
      <use x="722.460938" xlink:href="#DejaVuSansMono-55"/>
      <use x="782.666016" xlink:href="#DejaVuSansMono-56"/>
      <use x="842.871094" xlink:href="#DejaVuSansMono-48"/>
      <use x="903.076172" xlink:href="#DejaVuSansMono-48"/>
      <use x="963.28125" xlink:href="#DejaVuSansMono-56"/>
     </g>
     <!-- x_max  = 443 -->
     <g transform="translate(376.67625 78.194812)scale(0.06 -0.06)">
      <use xlink:href="#DejaVuSansMono-120"/>
      <use x="60.205078" xlink:href="#DejaVuSansMono-95"/>
      <use x="120.410156" xlink:href="#DejaVuSansMono-109"/>
      <use x="180.615234" xlink:href="#DejaVuSansMono-97"/>
      <use x="240.820312" xlink:href="#DejaVuSansMono-120"/>
      <use x="301.025391" xlink:href="#DejaVuSansMono-32"/>
      <use x="361.230469" xlink:href="#DejaVuSansMono-32"/>
      <use x="421.435547" xlink:href="#DejaVuSansMono-61"/>
      <use x="481.640625" xlink:href="#DejaVuSansMono-32"/>
      <use x="541.845703" xlink:href="#DejaVuSansMono-52"/>
      <use x="602.050781" xlink:href="#DejaVuSansMono-52"/>
      <use x="662.255859" xlink:href="#DejaVuSansMono-51"/>
     </g>
    </g>
   </g>
  </g>
 </g>
 <defs>
  <clipPath id="p5974aa789d">
   <rect height="298.453375" width="420.98125" x="33.33875" y="17.989125"/>
  </clipPath>
 </defs>
</svg>
