<?xml version="1.0" encoding="utf-8" standalone="no"?>
<!DOCTYPE svg PUBLIC "-//W3C//DTD SVG 1.1//EN"
  "http://www.w3.org/Graphics/SVG/1.1/DTD/svg11.dtd">
<!-- Created with matplotlib (https://matplotlib.org/) -->
<svg height="345.6pt" version="1.1" viewBox="0 0 460.8 345.6" width="460.8pt" xmlns="http://www.w3.org/2000/svg" xmlns:xlink="http://www.w3.org/1999/xlink">
 <metadata>
  <rdf:RDF xmlns:cc="http://creativecommons.org/ns#" xmlns:dc="http://purl.org/dc/elements/1.1/" xmlns:rdf="http://www.w3.org/1999/02/22-rdf-syntax-ns#">
   <cc:Work>
    <dc:type rdf:resource="http://purl.org/dc/dcmitype/StillImage"/>
    <dc:date>2022-03-17T00:27:50.929871</dc:date>
    <dc:format>image/svg+xml</dc:format>
    <dc:creator>
     <cc:Agent>
      <dc:title>Matplotlib v3.3.2, https://matplotlib.org/</dc:title>
     </cc:Agent>
    </dc:creator>
   </cc:Work>
  </rdf:RDF>
 </metadata>
 <defs>
  <style type="text/css">*{stroke-linecap:butt;stroke-linejoin:round;}</style>
 </defs>
 <g id="figure_1">
  <g id="patch_1">
   <path d="M 0 345.6 
L 460.8 345.6 
L 460.8 0 
L 0 0 
z
" style="fill:#ffffff;"/>
  </g>
  <g id="axes_1">
   <g id="patch_2">
    <path d="M 35.85875 316.4425 
L 454.32 316.4425 
L 454.32 17.989125 
L 35.85875 17.989125 
z
" style="fill:#ffffff;"/>
   </g>
   <g id="matplotlib.axis_1">
    <g id="xtick_1">
     <g id="line2d_1">
      <defs>
       <path d="M 0 0 
L 0 3.5 
" id="m0174a1bde6" style="stroke:#000000;stroke-width:0.8;"/>
      </defs>
      <g>
       <use style="stroke:#000000;stroke-width:0.8;" x="54.879716" xlink:href="#m0174a1bde6" y="316.4425"/>
      </g>
     </g>
     <g id="text_1">
      <!-- 0 -->
      <g transform="translate(53.073622 328.033437)scale(0.06 -0.06)">
       <defs>
        <path d="M 23.578125 36.625 
Q 23.578125 39.3125 25.453125 41.265625 
Q 27.34375 43.21875 29.984375 43.21875 
Q 32.71875 43.21875 34.671875 41.265625 
Q 36.625 39.3125 36.625 36.625 
Q 36.625 33.890625 34.6875 31.984375 
Q 32.765625 30.078125 29.984375 30.078125 
Q 27.25 30.078125 25.40625 31.9375 
Q 23.578125 33.796875 23.578125 36.625 
z
M 30.078125 66.40625 
Q 23.1875 66.40625 19.796875 58.984375 
Q 16.40625 51.5625 16.40625 36.375 
Q 16.40625 21.234375 19.796875 13.8125 
Q 23.1875 6.390625 30.078125 6.390625 
Q 37.015625 6.390625 40.40625 13.8125 
Q 43.796875 21.234375 43.796875 36.375 
Q 43.796875 51.5625 40.40625 58.984375 
Q 37.015625 66.40625 30.078125 66.40625 
z
M 30.078125 74.21875 
Q 41.75 74.21875 47.734375 64.640625 
Q 53.71875 55.078125 53.71875 36.375 
Q 53.71875 17.71875 47.734375 8.140625 
Q 41.75 -1.421875 30.078125 -1.421875 
Q 18.40625 -1.421875 12.453125 8.140625 
Q 6.5 17.71875 6.5 36.375 
Q 6.5 55.078125 12.453125 64.640625 
Q 18.40625 74.21875 30.078125 74.21875 
z
" id="DejaVuSansMono-48"/>
       </defs>
       <use xlink:href="#DejaVuSansMono-48"/>
      </g>
     </g>
    </g>
    <g id="xtick_2">
     <g id="line2d_2">
      <g>
       <use style="stroke:#000000;stroke-width:0.8;" x="122.933261" xlink:href="#m0174a1bde6" y="316.4425"/>
      </g>
     </g>
     <g id="text_2">
      <!-- 100 -->
      <g transform="translate(117.51498 328.033437)scale(0.06 -0.06)">
       <defs>
        <path d="M 13.1875 8.296875 
L 28.515625 8.296875 
L 28.515625 64.015625 
L 12.015625 60.296875 
L 12.015625 69.28125 
L 28.421875 72.90625 
L 38.28125 72.90625 
L 38.28125 8.296875 
L 53.421875 8.296875 
L 53.421875 0 
L 13.1875 0 
z
" id="DejaVuSansMono-49"/>
       </defs>
       <use xlink:href="#DejaVuSansMono-49"/>
       <use x="60.205078" xlink:href="#DejaVuSansMono-48"/>
       <use x="120.410156" xlink:href="#DejaVuSansMono-48"/>
      </g>
     </g>
    </g>
    <g id="xtick_3">
     <g id="line2d_3">
      <g>
       <use style="stroke:#000000;stroke-width:0.8;" x="190.986806" xlink:href="#m0174a1bde6" y="316.4425"/>
      </g>
     </g>
     <g id="text_3">
      <!-- 200 -->
      <g transform="translate(185.568525 328.033437)scale(0.06 -0.06)">
       <defs>
        <path d="M 18.21875 8.296875 
L 51.703125 8.296875 
L 51.703125 0 
L 7.421875 0 
L 7.421875 8.296875 
Q 16.546875 17.921875 23.375 25.296875 
Q 30.21875 32.671875 32.8125 35.6875 
Q 37.703125 41.65625 39.40625 45.34375 
Q 41.109375 49.03125 41.109375 52.875 
Q 41.109375 58.984375 37.515625 62.453125 
Q 33.9375 65.921875 27.6875 65.921875 
Q 23.25 65.921875 18.359375 64.3125 
Q 13.484375 62.703125 8.015625 59.421875 
L 8.015625 69.390625 
Q 13.03125 71.78125 17.890625 73 
Q 22.75 74.21875 27.484375 74.21875 
Q 38.1875 74.21875 44.703125 68.53125 
Q 51.21875 62.84375 51.21875 53.609375 
Q 51.21875 48.921875 49.046875 44.234375 
Q 46.875 39.546875 42 33.890625 
Q 39.265625 30.71875 34.0625 25.09375 
Q 28.859375 19.484375 18.21875 8.296875 
z
" id="DejaVuSansMono-50"/>
       </defs>
       <use xlink:href="#DejaVuSansMono-50"/>
       <use x="60.205078" xlink:href="#DejaVuSansMono-48"/>
       <use x="120.410156" xlink:href="#DejaVuSansMono-48"/>
      </g>
     </g>
    </g>
    <g id="xtick_4">
     <g id="line2d_4">
      <g>
       <use style="stroke:#000000;stroke-width:0.8;" x="259.040352" xlink:href="#m0174a1bde6" y="316.4425"/>
      </g>
     </g>
     <g id="text_4">
      <!-- 300 -->
      <g transform="translate(253.622071 328.033437)scale(0.06 -0.06)">
       <defs>
        <path d="M 37.890625 39.015625 
Q 45.0625 37.109375 48.875 32.25 
Q 52.6875 27.390625 52.6875 20.125 
Q 52.6875 10.0625 45.921875 4.3125 
Q 39.15625 -1.421875 27.203125 -1.421875 
Q 22.171875 -1.421875 16.9375 -0.484375 
Q 11.71875 0.4375 6.6875 2.203125 
L 6.6875 12.015625 
Q 11.671875 9.421875 16.5 8.15625 
Q 21.34375 6.890625 26.125 6.890625 
Q 34.234375 6.890625 38.578125 10.546875 
Q 42.921875 14.203125 42.921875 21.09375 
Q 42.921875 27.4375 38.578125 31.171875 
Q 34.234375 34.90625 26.8125 34.90625 
L 19.28125 34.90625 
L 19.28125 43.015625 
L 26.8125 43.015625 
Q 33.59375 43.015625 37.40625 45.984375 
Q 41.21875 48.96875 41.21875 54.296875 
Q 41.21875 59.90625 37.671875 62.90625 
Q 34.125 65.921875 27.59375 65.921875 
Q 23.25 65.921875 18.609375 64.9375 
Q 13.96875 63.96875 8.890625 62.015625 
L 8.890625 71.09375 
Q 14.796875 72.65625 19.40625 73.4375 
Q 24.03125 74.21875 27.59375 74.21875 
Q 38.234375 74.21875 44.609375 68.875 
Q 50.984375 63.53125 50.984375 54.6875 
Q 50.984375 48.6875 47.625 44.671875 
Q 44.28125 40.671875 37.890625 39.015625 
z
" id="DejaVuSansMono-51"/>
       </defs>
       <use xlink:href="#DejaVuSansMono-51"/>
       <use x="60.205078" xlink:href="#DejaVuSansMono-48"/>
       <use x="120.410156" xlink:href="#DejaVuSansMono-48"/>
      </g>
     </g>
    </g>
    <g id="xtick_5">
     <g id="line2d_5">
      <g>
       <use style="stroke:#000000;stroke-width:0.8;" x="327.093897" xlink:href="#m0174a1bde6" y="316.4425"/>
      </g>
     </g>
     <g id="text_5">
      <!-- 400 -->
      <g transform="translate(321.675616 328.033437)scale(0.06 -0.06)">
       <defs>
        <path d="M 35.890625 63.921875 
L 12.890625 25.390625 
L 35.890625 25.390625 
z
M 34.28125 72.90625 
L 45.703125 72.90625 
L 45.703125 25.390625 
L 55.421875 25.390625 
L 55.421875 17.390625 
L 45.703125 17.390625 
L 45.703125 0 
L 35.890625 0 
L 35.890625 17.390625 
L 4.984375 17.390625 
L 4.984375 26.703125 
z
" id="DejaVuSansMono-52"/>
       </defs>
       <use xlink:href="#DejaVuSansMono-52"/>
       <use x="60.205078" xlink:href="#DejaVuSansMono-48"/>
       <use x="120.410156" xlink:href="#DejaVuSansMono-48"/>
      </g>
     </g>
    </g>
    <g id="xtick_6">
     <g id="line2d_6">
      <g>
       <use style="stroke:#000000;stroke-width:0.8;" x="395.147442" xlink:href="#m0174a1bde6" y="316.4425"/>
      </g>
     </g>
     <g id="text_6">
      <!-- 500 -->
      <g transform="translate(389.729161 328.033437)scale(0.06 -0.06)">
       <defs>
        <path d="M 10.109375 72.90625 
L 47.015625 72.90625 
L 47.015625 64.59375 
L 19.09375 64.59375 
L 19.09375 46.6875 
Q 21.1875 47.46875 23.3125 47.828125 
Q 25.4375 48.1875 27.59375 48.1875 
Q 38.921875 48.1875 45.5625 41.5 
Q 52.203125 34.8125 52.203125 23.390625 
Q 52.203125 11.859375 45.234375 5.21875 
Q 38.28125 -1.421875 26.21875 -1.421875 
Q 20.40625 -1.421875 15.59375 -0.640625 
Q 10.796875 0.140625 6.984375 1.703125 
L 6.984375 11.71875 
Q 11.46875 9.28125 16.015625 8.078125 
Q 20.5625 6.890625 25.296875 6.890625 
Q 33.453125 6.890625 37.859375 11.1875 
Q 42.28125 15.484375 42.28125 23.390625 
Q 42.28125 31.203125 37.71875 35.546875 
Q 33.15625 39.890625 25 39.890625 
Q 21.046875 39.890625 17.28125 38.984375 
Q 13.53125 38.09375 10.109375 36.28125 
z
" id="DejaVuSansMono-53"/>
       </defs>
       <use xlink:href="#DejaVuSansMono-53"/>
       <use x="60.205078" xlink:href="#DejaVuSansMono-48"/>
       <use x="120.410156" xlink:href="#DejaVuSansMono-48"/>
      </g>
     </g>
    </g>
    <g id="text_7">
     <!-- n -->
     <g transform="translate(243.283281 337.872187)scale(0.06 -0.06)">
      <defs>
       <path d="M 51.3125 33.890625 
L 51.3125 0 
L 42.28125 0 
L 42.28125 33.890625 
Q 42.28125 41.265625 39.6875 44.71875 
Q 37.109375 48.1875 31.59375 48.1875 
Q 25.296875 48.1875 21.890625 43.71875 
Q 18.5 39.265625 18.5 30.90625 
L 18.5 0 
L 9.515625 0 
L 9.515625 54.6875 
L 18.5 54.6875 
L 18.5 46.484375 
Q 20.90625 51.171875 25 53.578125 
Q 29.109375 56 34.71875 56 
Q 43.0625 56 47.1875 50.5 
Q 51.3125 45.015625 51.3125 33.890625 
z
" id="DejaVuSansMono-110"/>
      </defs>
      <use xlink:href="#DejaVuSansMono-110"/>
     </g>
    </g>
   </g>
   <g id="matplotlib.axis_2">
    <g id="ytick_1">
     <g id="line2d_7">
      <defs>
       <path d="M 0 0 
L -3.5 0 
" id="m79217c6aaf" style="stroke:#000000;stroke-width:0.8;"/>
      </defs>
      <g>
       <use style="stroke:#000000;stroke-width:0.8;" x="35.85875" xlink:href="#m79217c6aaf" y="279.379936"/>
      </g>
     </g>
     <g id="text_8">
      <!-- $\mathdefault{10^{1}}$ -->
      <g transform="translate(18.83875 281.675405)scale(0.06 -0.06)">
       <use transform="translate(0 0.684375)" xlink:href="#DejaVuSansMono-49"/>
       <use transform="translate(60.205078 0.684375)" xlink:href="#DejaVuSansMono-48"/>
       <use transform="translate(121.367188 38.965625)scale(0.7)" xlink:href="#DejaVuSansMono-49"/>
      </g>
     </g>
    </g>
    <g id="ytick_2">
     <g id="line2d_8">
      <g>
       <use style="stroke:#000000;stroke-width:0.8;" x="35.85875" xlink:href="#m79217c6aaf" y="232.386933"/>
      </g>
     </g>
     <g id="text_9">
      <!-- $\mathdefault{10^{3}}$ -->
      <g transform="translate(18.83875 234.682402)scale(0.06 -0.06)">
       <use transform="translate(0 0.765625)" xlink:href="#DejaVuSansMono-49"/>
       <use transform="translate(60.205078 0.765625)" xlink:href="#DejaVuSansMono-48"/>
       <use transform="translate(121.367188 39.046875)scale(0.7)" xlink:href="#DejaVuSansMono-51"/>
      </g>
     </g>
    </g>
    <g id="ytick_3">
     <g id="line2d_9">
      <g>
       <use style="stroke:#000000;stroke-width:0.8;" x="35.85875" xlink:href="#m79217c6aaf" y="185.393931"/>
      </g>
     </g>
     <g id="text_10">
      <!-- $\mathdefault{10^{5}}$ -->
      <g transform="translate(18.83875 187.689399)scale(0.06 -0.06)">
       <use transform="translate(0 0.684375)" xlink:href="#DejaVuSansMono-49"/>
       <use transform="translate(60.205078 0.684375)" xlink:href="#DejaVuSansMono-48"/>
       <use transform="translate(121.367188 38.965625)scale(0.7)" xlink:href="#DejaVuSansMono-53"/>
      </g>
     </g>
    </g>
    <g id="ytick_4">
     <g id="line2d_10">
      <g>
       <use style="stroke:#000000;stroke-width:0.8;" x="35.85875" xlink:href="#m79217c6aaf" y="138.400928"/>
      </g>
     </g>
     <g id="text_11">
      <!-- $\mathdefault{10^{7}}$ -->
      <g transform="translate(18.83875 140.696397)scale(0.06 -0.06)">
       <defs>
        <path d="M 6.78125 72.90625 
L 52.6875 72.90625 
L 52.6875 68.703125 
L 26.609375 0 
L 16.3125 0 
L 41.703125 64.59375 
L 6.78125 64.59375 
z
" id="DejaVuSansMono-55"/>
       </defs>
       <use transform="translate(0 0.684375)" xlink:href="#DejaVuSansMono-49"/>
       <use transform="translate(60.205078 0.684375)" xlink:href="#DejaVuSansMono-48"/>
       <use transform="translate(121.367188 38.965625)scale(0.7)" xlink:href="#DejaVuSansMono-55"/>
      </g>
     </g>
    </g>
    <g id="ytick_5">
     <g id="line2d_11">
      <g>
       <use style="stroke:#000000;stroke-width:0.8;" x="35.85875" xlink:href="#m79217c6aaf" y="91.407925"/>
      </g>
     </g>
     <g id="text_12">
      <!-- $\mathdefault{10^{9}}$ -->
      <g transform="translate(18.83875 93.703394)scale(0.06 -0.06)">
       <defs>
        <path d="M 29.109375 32.328125 
Q 35.40625 32.328125 38.984375 36.859375 
Q 42.578125 41.40625 42.578125 49.421875 
Q 42.578125 57.421875 38.984375 61.953125 
Q 35.40625 66.5 29.109375 66.5 
Q 22.5625 66.5 19.234375 62.171875 
Q 15.921875 57.859375 15.921875 49.421875 
Q 15.921875 40.921875 19.21875 36.625 
Q 22.515625 32.328125 29.109375 32.328125 
z
M 11.53125 1.515625 
L 11.53125 10.59375 
Q 14.59375 8.796875 18.0625 7.84375 
Q 21.53125 6.890625 25.296875 6.890625 
Q 34.671875 6.890625 39.46875 13.9375 
Q 44.28125 21 44.28125 34.71875 
Q 42 29.828125 37.84375 27.21875 
Q 33.6875 24.609375 28.328125 24.609375 
Q 17.78125 24.609375 11.984375 31.09375 
Q 6.203125 37.59375 6.203125 49.515625 
Q 6.203125 61.28125 12.125 67.75 
Q 18.0625 74.21875 28.90625 74.21875 
Q 41.609375 74.21875 47.515625 65.078125 
Q 53.421875 55.953125 53.421875 36.375 
Q 53.421875 17.96875 46.3125 8.265625 
Q 39.203125 -1.421875 25.6875 -1.421875 
Q 22.125 -1.421875 18.5 -0.65625 
Q 14.890625 0.09375 11.53125 1.515625 
z
" id="DejaVuSansMono-57"/>
       </defs>
       <use transform="translate(0 0.765625)" xlink:href="#DejaVuSansMono-49"/>
       <use transform="translate(60.205078 0.765625)" xlink:href="#DejaVuSansMono-48"/>
       <use transform="translate(121.367188 39.046875)scale(0.7)" xlink:href="#DejaVuSansMono-57"/>
      </g>
     </g>
    </g>
    <g id="ytick_6">
     <g id="line2d_12">
      <g>
       <use style="stroke:#000000;stroke-width:0.8;" x="35.85875" xlink:href="#m79217c6aaf" y="44.414922"/>
      </g>
     </g>
     <g id="text_13">
      <!-- $\mathdefault{10^{11}}$ -->
      <g transform="translate(16.31875 46.710391)scale(0.06 -0.06)">
       <use transform="translate(0 0.684375)" xlink:href="#DejaVuSansMono-49"/>
       <use transform="translate(60.205078 0.684375)" xlink:href="#DejaVuSansMono-48"/>
       <use transform="translate(121.367188 38.965625)scale(0.7)" xlink:href="#DejaVuSansMono-49"/>
       <use transform="translate(163.510742 38.965625)scale(0.7)" xlink:href="#DejaVuSansMono-49"/>
      </g>
     </g>
    </g>
    <g id="text_14">
     <!-- y_n -->
     <g transform="translate(10.904063 172.634094)rotate(-90)scale(0.06 -0.06)">
      <defs>
       <path d="M 41.890625 17.578125 
Q 39.65625 11.859375 36.1875 2.546875 
Q 31.34375 -10.359375 29.6875 -13.1875 
Q 27.4375 -17 24.0625 -18.890625 
Q 20.703125 -20.796875 16.21875 -20.796875 
L 8.984375 -20.796875 
L 8.984375 -13.28125 
L 14.3125 -13.28125 
Q 18.265625 -13.28125 20.5 -10.984375 
Q 22.75 -8.6875 26.21875 0.875 
L 5.078125 54.6875 
L 14.59375 54.6875 
L 30.8125 11.921875 
L 46.78125 54.6875 
L 56.296875 54.6875 
z
" id="DejaVuSansMono-121"/>
       <path d="M 60.203125 -19.671875 
L 60.203125 -23.578125 
L 0 -23.578125 
L 0 -19.671875 
z
" id="DejaVuSansMono-95"/>
      </defs>
      <use xlink:href="#DejaVuSansMono-121"/>
      <use x="60.205078" xlink:href="#DejaVuSansMono-95"/>
      <use x="120.410156" xlink:href="#DejaVuSansMono-110"/>
     </g>
    </g>
   </g>
   <g id="line2d_13">
    <path clip-path="url(#p3d0682aa74)" d="M 54.879716 151.820081 
L 55.560251 140.609399 
L 56.240787 147.682551 
L 56.921322 136.47187 
L 57.601858 143.545022 
L 58.282393 132.334341 
L 59.643464 146.480644 
L 60.324 135.269963 
L 61.004535 142.343115 
L 61.68507 131.132434 
L 62.365606 138.205586 
L 63.046141 126.994906 
L 64.407212 141.141209 
L 65.087748 129.930528 
L 65.768283 137.00368 
L 66.448819 125.793 
L 67.80989 139.939303 
L 68.490425 128.728622 
L 69.17096 135.801774 
L 69.851496 124.591094 
L 70.532031 131.664245 
L 71.212567 120.453565 
L 71.893102 127.526717 
L 72.573638 116.316036 
L 73.254173 123.389188 
L 73.934709 112.178508 
L 74.615244 119.251659 
L 75.295779 108.040979 
L 75.976315 115.114131 
L 76.65685 103.903451 
L 77.337386 110.976602 
L 78.017921 99.765922 
L 78.698457 106.839074 
L 79.378992 95.628393 
L 80.059528 102.701545 
L 80.740063 91.490865 
L 82.101134 105.637168 
L 82.781669 94.426488 
L 83.462205 101.49964 
L 84.14274 90.28896 
L 86.184347 111.508415 
L 86.864882 100.297735 
L 87.545418 107.370886 
L 88.225953 96.160206 
L 88.906489 103.233358 
L 89.587024 92.022677 
L 90.267559 99.095829 
L 90.948095 87.885149 
L 91.62863 94.958301 
L 92.309166 83.74762 
L 92.989701 90.820772 
L 93.670237 79.610092 
L 95.031308 93.756395 
L 95.711843 82.545715 
L 96.392379 89.618867 
L 97.072914 78.408187 
L 97.753449 85.481338 
L 98.433985 74.270658 
L 99.11452 81.34381 
L 99.795056 70.13313 
L 100.475591 77.206281 
L 101.156127 65.995601 
L 101.836662 73.068753 
L 102.517198 61.858073 
L 103.197733 68.931224 
L 103.878269 57.720544 
L 105.919875 78.939999 
L 106.60041 67.729319 
L 107.280946 74.802471 
L 107.961481 63.59179 
L 110.683623 91.884397 
L 111.364159 80.673717 
L 112.044694 87.746869 
L 112.725229 76.536189 
L 114.0863 90.682492 
L 114.766836 79.471812 
L 115.447371 86.544963 
L 116.127907 75.334283 
L 117.488978 89.480587 
L 118.169513 78.269906 
L 118.850048 85.343058 
L 119.530584 74.132378 
L 120.211119 81.20553 
L 120.891655 69.994849 
L 121.57219 77.068001 
L 122.252726 65.857321 
L 122.933261 72.930473 
L 123.613797 61.719792 
L 124.294332 68.792944 
L 124.974868 57.582264 
L 125.655403 64.655416 
L 126.335938 53.444735 
L 127.016474 60.517887 
L 127.697009 49.307207 
L 128.377545 56.380359 
L 129.05808 45.169678 
L 129.738616 52.24283 
L 130.419151 41.03215 
L 131.099687 48.105302 
L 131.780222 36.894621 
L 133.141293 51.040925 
L 133.821828 39.830245 
L 134.502364 46.903396 
L 135.182899 35.692716 
L 135.863435 42.765868 
L 136.54397 31.555187 
L 139.266112 59.847794 
L 139.946648 48.637114 
L 141.988254 69.856569 
L 142.668789 58.645889 
L 143.349325 65.719041 
L 144.02986 54.50836 
L 144.710396 61.581512 
L 145.390931 50.370832 
L 147.432538 71.590287 
L 148.113073 60.379607 
L 149.474144 74.52591 
L 150.154679 63.31523 
L 152.876821 91.607837 
L 153.557357 80.397157 
L 154.918427 94.54346 
L 155.598963 83.33278 
L 161.723782 146.991145 
L 162.404317 135.780464 
L 164.445924 156.999919 
L 165.126459 145.789237 
L 165.806995 152.862389 
L 166.48753 141.651707 
L 167.848601 155.79801 
L 168.529137 144.587328 
L 169.890207 158.733632 
L 170.570743 147.522949 
L 171.251278 154.596101 
L 171.931814 143.385419 
L 173.292885 157.531722 
L 173.97342 146.32104 
L 174.653956 153.394192 
L 175.334491 142.18351 
L 176.015027 149.256662 
L 176.695562 138.04598 
L 177.376097 145.119132 
L 178.056633 133.908451 
L 178.737168 140.981603 
L 179.417704 129.770922 
L 181.45931 150.990377 
L 182.139846 139.779696 
L 182.820381 146.852848 
L 183.500917 135.642167 
L 185.542523 156.861622 
L 186.223058 145.65094 
L 188.264665 166.870395 
L 188.9452 155.659709 
L 192.347877 191.025467 
L 193.028413 179.814728 
L 193.708948 186.88788 
L 194.389484 175.67716 
L 196.43109 196.896615 
L 197.111626 185.68583 
L 198.472696 199.832134 
L 199.153232 188.621313 
L 199.833767 195.694465 
L 200.514303 184.483692 
L 201.194838 191.556843 
L 201.875374 180.346101 
L 203.236445 194.492404 
L 203.91698 183.281641 
L 204.597516 190.354793 
L 205.278051 179.144057 
L 205.958586 186.217209 
L 206.639122 175.006492 
L 208.000193 189.152795 
L 208.680728 177.942066 
L 209.361264 185.015218 
L 210.041799 173.804505 
L 212.763941 202.097111 
L 213.444476 190.886256 
L 214.125012 197.959408 
L 214.805547 186.748611 
L 217.527689 215.041218 
L 218.208225 203.829916 
L 219.569296 217.97622 
L 220.249831 206.764711 
L 221.610902 220.911014 
L 222.291437 209.69923 
L 222.971973 216.772381 
L 223.652508 205.560965 
L 224.333044 212.634116 
L 225.013579 201.422945 
L 226.37465 215.569249 
L 227.055185 204.357914 
L 229.096792 225.577369 
L 229.777327 214.364944 
L 231.818934 235.584399 
L 232.499469 224.369067 
L 233.180005 231.442218 
L 233.86054 220.228438 
L 235.221611 234.374741 
L 235.902146 223.159929 
L 236.582682 230.233081 
L 237.263217 219.019647 
L 237.943753 226.092798 
L 238.624288 214.880283 
L 240.665895 236.099738 
L 241.34643 224.884164 
L 242.026965 231.957316 
L 242.707501 220.743375 
L 243.388036 227.816527 
L 244.068572 216.603673 
L 246.110178 237.823129 
L 246.790714 226.606655 
L 247.471249 233.679807 
L 248.151785 222.465267 
L 249.512855 236.61157 
L 250.193391 225.395745 
L 254.276604 267.834655 
L 254.957139 256.514836 
L 255.637675 263.587988 
L 256.31821 252.305191 
L 256.998745 259.378343 
L 257.679281 248.119867 
L 258.359816 255.193019 
L 259.040352 243.950599 
L 259.720887 251.02375 
L 260.401423 239.791965 
L 261.762494 253.938268 
L 262.443029 242.699515 
L 263.8041 256.845819 
L 264.484635 245.597828 
L 265.165171 252.67098 
L 265.845706 241.435501 
L 267.206777 255.581805 
L 267.887313 244.338154 
L 268.567848 251.411306 
L 269.248384 240.178704 
L 269.928919 247.251856 
L 270.609454 236.026588 
L 271.970525 250.172891 
L 272.651061 238.942792 
L 273.331596 246.015944 
L 274.012132 234.792339 
L 274.692667 241.86549 
L 275.373203 230.646202 
L 276.053738 237.719354 
L 276.734274 226.502939 
L 278.095344 240.649243 
L 278.77588 229.430922 
L 280.817486 250.650377 
L 281.498022 239.419349 
L 282.178557 246.492501 
L 282.859093 235.268278 
L 283.539628 242.341429 
L 284.220164 231.121731 
L 285.581234 245.268034 
L 286.26177 234.045342 
L 286.942305 241.118493 
L 287.622841 229.899813 
L 288.983912 244.046116 
L 289.664447 232.824779 
L 290.344983 239.89793 
L 291.025518 228.680152 
L 291.706054 235.753303 
L 292.386589 224.537893 
L 293.067124 231.611045 
L 293.74766 220.397213 
L 294.428195 227.470365 
L 295.108731 216.257584 
L 295.789266 223.330735 
L 296.469802 212.118655 
L 298.511408 233.33811 
L 299.191944 222.123697 
L 299.872479 229.196848 
L 300.553014 217.98368 
L 301.23355 225.056832 
L 301.914085 213.844493 
L 302.594621 220.917645 
L 303.275156 209.705859 
L 305.997298 237.998466 
L 306.677833 226.781893 
L 308.038904 240.928196 
L 308.71944 229.709663 
L 310.080511 243.855967 
L 310.761046 232.634826 
L 313.483188 260.927433 
L 314.163723 249.661142 
L 316.20533 270.880598 
L 316.885865 259.523089 
L 317.566401 266.596241 
L 318.246936 255.288835 
L 318.927472 262.361987 
L 319.608007 251.087329 
L 323.010684 286.453088 
L 323.69122 274.583831 
L 326.413362 302.876437 
L 326.413362 302.876437 
" style="fill:none;stroke:#1f77b4;stroke-linecap:square;stroke-width:0.666667;"/>
   </g>
   <g id="line2d_14">
    <path clip-path="url(#p3d0682aa74)" d="M 54.879716 153.406857 
L 55.560251 142.196175 
L 56.921322 156.342479 
L 57.601858 145.131796 
L 58.282393 152.204948 
L 58.962929 140.994267 
L 59.643464 148.067418 
L 60.324 136.856737 
L 61.004535 143.929889 
L 61.68507 132.719208 
L 62.365606 139.79236 
L 63.046141 128.581679 
L 63.726677 135.654831 
L 64.407212 124.444151 
L 65.087748 131.517302 
L 65.768283 120.306622 
L 67.129354 134.452925 
L 67.80989 123.242245 
L 69.17096 137.388548 
L 69.851496 126.177868 
L 70.532031 133.251019 
L 71.212567 122.040339 
L 71.893102 129.113491 
L 72.573638 117.90281 
L 73.934709 132.049114 
L 74.615244 120.838433 
L 75.295779 127.911585 
L 75.976315 116.700905 
L 77.337386 130.847208 
L 78.017921 119.636528 
L 78.698457 126.709679 
L 79.378992 115.498999 
L 80.059528 122.572151 
L 80.740063 111.361471 
L 81.420599 118.434622 
L 82.101134 107.223942 
L 82.781669 114.297094 
L 83.462205 103.086413 
L 84.14274 110.159565 
L 84.823276 98.948885 
L 87.545418 127.241492 
L 88.225953 116.030811 
L 90.267559 137.250267 
L 90.948095 126.039586 
L 91.62863 133.112738 
L 92.309166 121.902057 
L 92.989701 128.975209 
L 93.670237 117.764529 
L 94.350772 124.83768 
L 95.031308 113.627 
L 96.392379 127.773303 
L 97.072914 116.562623 
L 98.433985 130.708927 
L 99.11452 119.498246 
L 100.475591 133.64455 
L 101.156127 122.433869 
L 101.836662 129.507021 
L 102.517198 118.29634 
L 103.197733 125.369492 
L 103.878269 114.158812 
L 105.239339 128.305115 
L 105.919875 117.094435 
L 106.60041 124.167587 
L 107.280946 112.956906 
L 109.322552 134.176361 
L 110.003088 122.965681 
L 111.364159 137.111984 
L 112.044694 125.901304 
L 112.725229 132.974456 
L 113.405765 121.763775 
L 114.0863 128.836927 
L 114.766836 117.626247 
L 115.447371 124.699398 
L 116.127907 113.488718 
L 116.808442 120.56187 
L 117.488978 109.351189 
L 118.169513 116.424341 
L 118.850048 105.213661 
L 120.211119 119.359964 
L 120.891655 108.149284 
L 121.57219 115.222436 
L 122.252726 104.011755 
L 122.933261 111.084907 
L 123.613797 99.874227 
L 125.655403 121.093682 
L 126.335938 109.883002 
L 127.016474 116.956153 
L 127.697009 105.745473 
L 128.377545 112.818625 
L 129.05808 101.607945 
L 129.738616 108.681096 
L 130.419151 97.470416 
L 131.099687 104.543568 
L 131.780222 93.332888 
L 133.141293 107.479191 
L 133.821828 96.268511 
L 134.502364 103.341663 
L 135.182899 92.130982 
L 135.863435 99.204134 
L 136.54397 87.993454 
L 137.224506 95.066605 
L 137.905041 83.855925 
L 138.585577 90.929077 
L 139.266112 79.718397 
L 139.946648 86.791548 
L 140.627183 75.580868 
L 141.307718 82.65402 
L 141.988254 71.44334 
L 142.668789 78.516491 
L 143.349325 67.305811 
L 144.02986 74.378963 
L 144.710396 63.168283 
L 145.390931 70.241434 
L 146.071467 59.030754 
L 150.154679 101.469664 
L 150.835215 90.258984 
L 152.196286 104.405288 
L 152.876821 93.194607 
L 153.557357 100.267759 
L 154.237892 89.057079 
L 154.918427 96.130231 
L 155.598963 84.91955 
L 156.279498 91.992702 
L 156.960034 80.782022 
L 159.00164 102.001477 
L 159.682176 90.790797 
L 161.043247 104.9371 
L 161.723782 93.72642 
L 162.404317 100.799572 
L 163.084853 89.588891 
L 163.765388 96.662043 
L 164.445924 85.451363 
L 165.126459 92.524515 
L 165.806995 81.313834 
L 167.168066 95.460138 
L 167.848601 84.249458 
L 169.209672 98.395761 
L 169.890207 87.185081 
L 170.570743 94.258232 
L 171.251278 83.047552 
L 173.292885 104.267007 
L 173.97342 93.056327 
L 175.334491 107.202631 
L 176.015027 95.99195 
L 176.695562 103.065102 
L 177.376097 91.854422 
L 178.056633 98.927573 
L 178.737168 87.716893 
L 179.417704 94.790045 
L 180.098239 83.579365 
L 180.778775 90.652516 
L 181.45931 79.441836 
L 182.139846 86.514988 
L 182.820381 75.304308 
L 183.500917 82.377459 
L 184.181452 71.166779 
L 185.542523 85.313083 
L 186.223058 74.102402 
L 187.584129 88.248706 
L 188.264665 77.038026 
L 188.9452 84.111177 
L 189.625736 72.900497 
L 190.306271 79.973649 
L 190.986806 68.762969 
L 191.667342 75.83612 
L 192.347877 64.62544 
L 193.028413 71.698592 
L 193.708948 60.487912 
L 194.389484 67.561063 
L 195.070019 56.350383 
L 195.750555 63.423535 
L 196.43109 52.212855 
L 197.792161 66.359158 
L 198.472696 55.148478 
L 199.833767 69.294781 
L 200.514303 58.084101 
L 203.236445 86.376708 
L 203.91698 75.166028 
L 210.722335 145.897545 
L 211.40287 134.686864 
L 212.083406 141.760015 
L 212.763941 130.549335 
L 214.805547 151.76879 
L 215.486083 140.558108 
L 216.166618 147.63126 
L 216.847154 136.420579 
L 217.527689 143.493731 
L 218.208225 132.28305 
L 218.88876 139.356202 
L 219.569296 128.145521 
L 220.249831 135.218673 
L 220.930366 124.007992 
L 221.610902 131.081144 
L 222.291437 119.870464 
L 223.652508 134.016767 
L 224.333044 122.806087 
L 225.013579 129.879238 
L 225.694115 118.668558 
L 227.055185 132.814861 
L 227.735721 121.604181 
L 229.096792 135.750484 
L 229.777327 124.539804 
L 231.818934 145.759259 
L 232.499469 134.548578 
L 233.86054 148.694881 
L 234.541075 137.4842 
L 235.221611 144.557352 
L 235.902146 133.346671 
L 237.263217 147.492975 
L 237.943753 136.282294 
L 238.624288 143.355445 
L 239.304824 132.144764 
L 241.34643 153.36422 
L 242.026965 142.153538 
L 242.707501 149.22669 
L 243.388036 138.016008 
L 244.068572 145.08916 
L 244.749107 133.878479 
L 245.429643 140.951631 
L 246.110178 129.74095 
L 246.790714 136.814102 
L 247.471249 125.603421 
L 248.151785 132.676573 
L 248.83232 121.465893 
L 252.234997 156.831651 
L 252.915533 145.620969 
L 253.596068 152.694121 
L 254.276604 141.483439 
L 254.957139 148.556591 
L 255.637675 137.34591 
L 256.31821 144.419061 
L 256.998745 133.208381 
L 257.679281 140.281532 
L 258.359816 129.070852 
L 261.762494 164.43661 
L 262.443029 153.225926 
L 263.123565 160.299077 
L 263.8041 149.088394 
L 264.484635 156.161546 
L 265.165171 144.950864 
L 265.845706 152.024015 
L 266.526242 140.813334 
L 267.206777 147.886486 
L 267.887313 136.675805 
L 268.567848 143.748956 
L 269.248384 132.538275 
L 270.609454 146.684579 
L 271.28999 135.473898 
L 271.970525 142.54705 
L 272.651061 131.336369 
L 273.331596 138.409521 
L 274.012132 127.19884 
L 274.692667 134.271992 
L 275.373203 123.061311 
L 276.053738 130.134463 
L 276.734274 118.923783 
L 277.414809 125.996934 
L 278.095344 114.786254 
L 278.77588 121.859406 
L 279.456415 110.648725 
L 280.817486 124.795029 
L 281.498022 113.584349 
L 282.178557 120.6575 
L 282.859093 109.44682 
L 284.220164 123.593123 
L 284.900699 112.382443 
L 285.581234 119.455595 
L 286.26177 108.244915 
L 286.942305 115.318066 
L 287.622841 104.107386 
L 288.303376 111.180538 
L 288.983912 99.969857 
L 290.344983 114.116161 
L 291.025518 102.905481 
L 291.706054 109.978632 
L 292.386589 98.767952 
L 293.74766 112.914256 
L 294.428195 101.703575 
L 295.789266 115.849879 
L 296.469802 104.639198 
L 297.150337 111.71235 
L 297.830873 100.50167 
L 298.511408 107.574822 
L 299.191944 96.364141 
L 299.872479 103.437293 
L 300.553014 92.226613 
L 306.677833 155.884978 
L 307.358369 144.674296 
L 310.761046 180.040055 
L 311.441582 168.829354 
L 313.483188 190.048809 
L 314.163723 178.838076 
L 314.844259 185.911227 
L 315.524794 174.700511 
L 316.885865 188.846815 
L 317.566401 177.636087 
L 319.608007 198.855542 
L 320.288543 187.644734 
L 320.969078 194.717886 
L 321.649613 183.507121 
L 322.330149 190.580273 
L 323.010684 179.369536 
L 323.69122 186.442688 
L 324.371755 175.23197 
L 325.732826 189.378273 
L 326.413362 178.167543 
L 327.093897 185.240694 
L 327.774433 174.029981 
L 329.135503 188.176284 
L 329.816039 176.965559 
L 330.496574 184.038711 
L 331.17711 172.828001 
L 331.857645 179.901153 
L 332.538181 168.690453 
L 333.899252 182.836756 
L 334.579787 171.626049 
L 335.260323 178.699201 
L 335.940858 167.488503 
L 336.621393 174.561655 
L 337.301929 163.350963 
L 337.982464 170.424115 
L 338.663 159.213427 
L 339.343535 166.286578 
L 340.024071 155.075893 
L 342.065677 176.295348 
L 342.746212 165.084654 
L 343.426748 172.157805 
L 344.107283 160.947116 
L 344.787819 168.020268 
L 345.468354 156.809581 
L 346.829425 170.955885 
L 347.509961 159.745196 
L 348.871032 173.8915 
L 349.551567 162.680808 
L 351.593173 183.900263 
L 352.273709 172.689554 
L 352.954244 179.762706 
L 353.63478 168.552006 
L 355.676386 189.771461 
L 356.356922 178.560728 
L 358.398528 199.780184 
L 359.079063 188.569364 
L 359.759599 195.642516 
L 360.440134 184.431743 
L 364.523347 226.870653 
L 365.203882 215.657992 
L 368.60656 251.02375 
L 369.287095 239.791965 
L 370.648166 253.938268 
L 371.328702 242.699515 
L 372.689772 256.845819 
L 373.370308 245.597828 
L 374.050843 252.67098 
L 374.731379 241.435501 
L 376.09245 255.581805 
L 376.772985 244.338154 
L 377.453521 251.411306 
L 378.134056 240.178704 
L 378.814591 247.251856 
L 379.495127 236.026588 
L 380.856198 250.172891 
L 381.536733 238.942792 
L 382.217269 246.015944 
L 382.897804 234.792339 
L 383.57834 241.86549 
L 384.258875 230.646202 
L 384.939411 237.719354 
L 385.619946 226.502939 
L 386.981017 240.649243 
L 387.661552 229.430922 
L 389.703159 250.650377 
L 390.383694 239.419349 
L 391.06423 246.492501 
L 391.744765 235.268278 
L 392.425301 242.341429 
L 393.105836 231.121731 
L 394.466907 245.268034 
L 395.147442 234.045342 
L 395.827978 241.118493 
L 396.508513 229.899813 
L 397.869584 244.046116 
L 398.55012 232.824779 
L 399.230655 239.89793 
L 399.911191 228.680152 
L 400.591726 235.753303 
L 401.272261 224.537893 
L 401.952797 231.611045 
L 402.633332 220.397213 
L 403.313868 227.470365 
L 403.994403 216.257584 
L 404.674939 223.330735 
L 405.355474 212.118655 
L 407.397081 233.33811 
L 408.077616 222.123697 
L 408.758151 229.196848 
L 409.438687 217.98368 
L 410.119222 225.056832 
L 410.799758 213.844493 
L 411.480293 220.917645 
L 412.160829 209.705859 
L 414.882971 237.998466 
L 415.563506 226.781893 
L 416.924577 240.928196 
L 417.605112 229.709663 
L 418.966183 243.855967 
L 419.646719 232.634826 
L 422.36886 260.927433 
L 423.049396 249.661142 
L 425.091002 270.880598 
L 425.771538 259.523089 
L 426.452073 266.596241 
L 427.132609 255.288835 
L 427.813144 262.361987 
L 428.49368 251.087329 
L 431.896357 286.453088 
L 432.576892 274.583831 
L 435.299034 302.876437 
L 435.299034 302.876437 
" style="fill:none;stroke:#ff7f0e;stroke-linecap:square;stroke-width:0.666667;"/>
   </g>
   <g id="patch_3">
    <path d="M 35.85875 316.4425 
L 35.85875 17.989125 
" style="fill:none;stroke:#000000;stroke-linecap:square;stroke-linejoin:miter;stroke-width:0.8;"/>
   </g>
   <g id="patch_4">
    <path d="M 454.32 316.4425 
L 454.32 17.989125 
" style="fill:none;stroke:#000000;stroke-linecap:square;stroke-linejoin:miter;stroke-width:0.8;"/>
   </g>
   <g id="patch_5">
    <path d="M 35.85875 316.4425 
L 454.32 316.4425 
" style="fill:none;stroke:#000000;stroke-linecap:square;stroke-linejoin:miter;stroke-width:0.8;"/>
   </g>
   <g id="patch_6">
    <path d="M 35.85875 17.989125 
L 454.32 17.989125 
" style="fill:none;stroke:#000000;stroke-linecap:square;stroke-linejoin:miter;stroke-width:0.8;"/>
   </g>
   <g id="text_15">
    <!-- "3y+1" problem -->
    <g transform="translate(214.747 11.989125)scale(0.072 -0.072)">
     <defs>
      <path d="M 43.703125 72.90625 
L 43.703125 45.796875 
L 35.203125 45.796875 
L 35.203125 72.90625 
z
M 25 72.90625 
L 25 45.796875 
L 16.5 45.796875 
L 16.5 72.90625 
z
" id="DejaVuSansMono-34"/>
      <path d="M 34.1875 57.171875 
L 34.1875 35.5 
L 55.90625 35.5 
L 55.90625 27.203125 
L 34.1875 27.203125 
L 34.1875 5.515625 
L 25.984375 5.515625 
L 25.984375 27.203125 
L 4.296875 27.203125 
L 4.296875 35.5 
L 25.984375 35.5 
L 25.984375 57.171875 
z
" id="DejaVuSansMono-43"/>
      <path id="DejaVuSansMono-32"/>
      <path d="M 18.3125 6.890625 
L 18.3125 -20.796875 
L 9.28125 -20.796875 
L 9.28125 54.6875 
L 18.3125 54.6875 
L 18.3125 47.703125 
Q 20.5625 51.765625 24.296875 53.875 
Q 28.03125 56 32.90625 56 
Q 42.828125 56 48.46875 48.328125 
Q 54.109375 40.671875 54.109375 27.09375 
Q 54.109375 13.765625 48.4375 6.171875 
Q 42.78125 -1.421875 32.90625 -1.421875 
Q 27.9375 -1.421875 24.1875 0.703125 
Q 20.453125 2.828125 18.3125 6.890625 
z
M 44.671875 27.296875 
Q 44.671875 37.75 41.375 43.0625 
Q 38.09375 48.390625 31.59375 48.390625 
Q 25.046875 48.390625 21.671875 43.046875 
Q 18.3125 37.703125 18.3125 27.296875 
Q 18.3125 16.9375 21.671875 11.5625 
Q 25.046875 6.203125 31.59375 6.203125 
Q 38.09375 6.203125 41.375 11.515625 
Q 44.671875 16.84375 44.671875 27.296875 
z
" id="DejaVuSansMono-112"/>
      <path d="M 56.390625 43.40625 
Q 53.515625 45.65625 50.53125 46.671875 
Q 47.5625 47.703125 44 47.703125 
Q 35.59375 47.703125 31.140625 42.421875 
Q 26.703125 37.15625 26.703125 27.203125 
L 26.703125 0 
L 17.671875 0 
L 17.671875 54.6875 
L 26.703125 54.6875 
L 26.703125 44 
Q 28.953125 49.8125 33.609375 52.90625 
Q 38.28125 56 44.671875 56 
Q 48 56 50.875 55.171875 
Q 53.765625 54.34375 56.390625 52.59375 
z
" id="DejaVuSansMono-114"/>
      <path d="M 30.078125 48.390625 
Q 23.25 48.390625 19.734375 43.0625 
Q 16.21875 37.75 16.21875 27.296875 
Q 16.21875 16.890625 19.734375 11.546875 
Q 23.25 6.203125 30.078125 6.203125 
Q 36.96875 6.203125 40.484375 11.546875 
Q 44 16.890625 44 27.296875 
Q 44 37.75 40.484375 43.0625 
Q 36.96875 48.390625 30.078125 48.390625 
z
M 30.078125 56 
Q 41.453125 56 47.484375 48.625 
Q 53.515625 41.265625 53.515625 27.296875 
Q 53.515625 13.28125 47.5 5.921875 
Q 41.5 -1.421875 30.078125 -1.421875 
Q 18.703125 -1.421875 12.6875 5.921875 
Q 6.6875 13.28125 6.6875 27.296875 
Q 6.6875 41.265625 12.6875 48.625 
Q 18.703125 56 30.078125 56 
z
" id="DejaVuSansMono-111"/>
      <path d="M 44.828125 27.296875 
Q 44.828125 37.75 41.5 43.0625 
Q 38.1875 48.390625 31.6875 48.390625 
Q 25.140625 48.390625 21.765625 43.046875 
Q 18.40625 37.703125 18.40625 27.296875 
Q 18.40625 16.9375 21.765625 11.5625 
Q 25.140625 6.203125 31.6875 6.203125 
Q 38.1875 6.203125 41.5 11.515625 
Q 44.828125 16.84375 44.828125 27.296875 
z
M 18.40625 47.703125 
Q 20.5625 51.703125 24.34375 53.84375 
Q 28.125 56 33.109375 56 
Q 42.96875 56 48.625 48.40625 
Q 54.296875 40.828125 54.296875 27.484375 
Q 54.296875 13.96875 48.609375 6.265625 
Q 42.921875 -1.421875 33.015625 -1.421875 
Q 28.125 -1.421875 24.390625 0.703125 
Q 20.65625 2.828125 18.40625 6.890625 
L 18.40625 0 
L 9.421875 0 
L 9.421875 75.984375 
L 18.40625 75.984375 
z
" id="DejaVuSansMono-98"/>
      <path d="M 31.203125 19.828125 
Q 31.203125 13.765625 33.421875 10.6875 
Q 35.640625 7.625 39.984375 7.625 
L 50.484375 7.625 
L 50.484375 0 
L 39.109375 0 
Q 31.0625 0 26.640625 5.171875 
Q 22.21875 10.359375 22.21875 19.828125 
L 22.21875 69.484375 
L 7.8125 69.484375 
L 7.8125 76.515625 
L 31.203125 76.515625 
z
" id="DejaVuSansMono-108"/>
      <path d="M 54.296875 29.59375 
L 54.296875 25.203125 
L 15.375 25.203125 
L 15.375 24.90625 
Q 15.375 15.96875 20.03125 11.078125 
Q 24.703125 6.203125 33.203125 6.203125 
Q 37.5 6.203125 42.1875 7.5625 
Q 46.875 8.9375 52.203125 11.71875 
L 52.203125 2.78125 
Q 47.078125 0.6875 42.3125 -0.359375 
Q 37.546875 -1.421875 33.109375 -1.421875 
Q 20.359375 -1.421875 13.171875 6.21875 
Q 6 13.875 6 27.296875 
Q 6 40.375 13.03125 48.1875 
Q 20.0625 56 31.78125 56 
Q 42.234375 56 48.265625 48.921875 
Q 54.296875 41.84375 54.296875 29.59375 
z
M 45.3125 32.234375 
Q 45.125 40.140625 41.578125 44.265625 
Q 38.03125 48.390625 31.390625 48.390625 
Q 24.90625 48.390625 20.703125 44.09375 
Q 16.5 39.796875 15.71875 32.171875 
z
" id="DejaVuSansMono-101"/>
      <path d="M 33.015625 49.125 
Q 34.671875 52.640625 37.234375 54.3125 
Q 39.796875 56 43.40625 56 
Q 50 56 52.703125 50.890625 
Q 55.421875 45.796875 55.421875 31.6875 
L 55.421875 0 
L 47.21875 0 
L 47.21875 31.296875 
Q 47.21875 42.875 45.921875 45.671875 
Q 44.625 48.484375 41.21875 48.484375 
Q 37.3125 48.484375 35.859375 45.484375 
Q 34.421875 42.484375 34.421875 31.296875 
L 34.421875 0 
L 26.21875 0 
L 26.21875 31.296875 
Q 26.21875 43.015625 24.828125 45.75 
Q 23.4375 48.484375 19.828125 48.484375 
Q 16.265625 48.484375 14.875 45.484375 
Q 13.484375 42.484375 13.484375 31.296875 
L 13.484375 0 
L 5.328125 0 
L 5.328125 54.6875 
L 13.484375 54.6875 
L 13.484375 50 
Q 15.09375 52.9375 17.5 54.46875 
Q 19.921875 56 23 56 
Q 26.703125 56 29.171875 54.296875 
Q 31.640625 52.59375 33.015625 49.125 
z
" id="DejaVuSansMono-109"/>
     </defs>
     <use xlink:href="#DejaVuSansMono-34"/>
     <use x="60.205078" xlink:href="#DejaVuSansMono-51"/>
     <use x="120.410156" xlink:href="#DejaVuSansMono-121"/>
     <use x="180.615234" xlink:href="#DejaVuSansMono-43"/>
     <use x="240.820312" xlink:href="#DejaVuSansMono-49"/>
     <use x="301.025391" xlink:href="#DejaVuSansMono-34"/>
     <use x="361.230469" xlink:href="#DejaVuSansMono-32"/>
     <use x="421.435547" xlink:href="#DejaVuSansMono-112"/>
     <use x="481.640625" xlink:href="#DejaVuSansMono-114"/>
     <use x="541.845703" xlink:href="#DejaVuSansMono-111"/>
     <use x="602.050781" xlink:href="#DejaVuSansMono-98"/>
     <use x="662.255859" xlink:href="#DejaVuSansMono-108"/>
     <use x="722.460938" xlink:href="#DejaVuSansMono-101"/>
     <use x="782.666016" xlink:href="#DejaVuSansMono-109"/>
    </g>
   </g>
   <g id="legend_1">
    <g id="patch_7">
     <path d="M 355.064062 82.0095 
L 450.12 82.0095 
Q 451.32 82.0095 451.32 80.8095 
L 451.32 22.189125 
Q 451.32 20.989125 450.12 20.989125 
L 355.064062 20.989125 
Q 353.864062 20.989125 353.864062 22.189125 
L 353.864062 80.8095 
Q 353.864062 82.0095 355.064062 82.0095 
z
" style="fill:#ffffff;opacity:0.8;stroke:#cccccc;stroke-linejoin:miter;"/>
    </g>
    <g id="line2d_15">
     <path d="M 356.264062 36.889687 
L 368.264062 36.889687 
" style="fill:none;stroke:#1f77b4;stroke-linecap:square;stroke-width:0.666667;"/>
    </g>
    <g id="line2d_16"/>
    <g id="text_16">
     <!-- "Tallest": -->
     <g transform="translate(373.064062 27.980062)scale(0.06 -0.06)">
      <defs>
       <path d="M 2.296875 72.90625 
L 57.90625 72.90625 
L 57.90625 64.59375 
L 35.109375 64.59375 
L 35.109375 0 
L 25.203125 0 
L 25.203125 64.59375 
L 2.296875 64.59375 
z
" id="DejaVuSansMono-84"/>
       <path d="M 34.28125 27.484375 
L 31.296875 27.484375 
Q 23.4375 27.484375 19.453125 24.71875 
Q 15.484375 21.96875 15.484375 16.5 
Q 15.484375 11.578125 18.453125 8.84375 
Q 21.4375 6.109375 26.703125 6.109375 
Q 34.125 6.109375 38.375 11.25 
Q 42.625 16.40625 42.671875 25.484375 
L 42.671875 27.484375 
z
M 51.703125 31.203125 
L 51.703125 0 
L 42.671875 0 
L 42.671875 8.109375 
Q 39.796875 3.21875 35.421875 0.890625 
Q 31.0625 -1.421875 24.8125 -1.421875 
Q 16.453125 -1.421875 11.46875 3.296875 
Q 6.5 8.015625 6.5 15.921875 
Q 6.5 25.046875 12.625 29.78125 
Q 18.75 34.515625 30.609375 34.515625 
L 42.671875 34.515625 
L 42.671875 35.9375 
Q 42.625 42.484375 39.34375 45.4375 
Q 36.078125 48.390625 28.90625 48.390625 
Q 24.3125 48.390625 19.625 47.0625 
Q 14.9375 45.75 10.5 43.21875 
L 10.5 52.203125 
Q 15.484375 54.109375 20.046875 55.046875 
Q 24.609375 56 28.90625 56 
Q 35.6875 56 40.5 54 
Q 45.3125 52 48.296875 48 
Q 50.140625 45.5625 50.921875 41.96875 
Q 51.703125 38.375 51.703125 31.203125 
z
" id="DejaVuSansMono-97"/>
       <path d="M 47.515625 52.78125 
L 47.515625 44 
Q 43.65625 46.234375 39.75 47.359375 
Q 35.84375 48.484375 31.78125 48.484375 
Q 25.6875 48.484375 22.671875 46.5 
Q 19.671875 44.53125 19.671875 40.484375 
Q 19.671875 36.8125 21.921875 35 
Q 24.171875 33.203125 33.109375 31.5 
L 36.71875 30.8125 
Q 43.40625 29.546875 46.84375 25.734375 
Q 50.296875 21.921875 50.296875 15.828125 
Q 50.296875 7.71875 44.53125 3.140625 
Q 38.765625 -1.421875 28.515625 -1.421875 
Q 24.46875 -1.421875 20.015625 -0.5625 
Q 15.578125 0.296875 10.40625 2 
L 10.40625 11.28125 
Q 15.4375 8.6875 20.015625 7.390625 
Q 24.609375 6.109375 28.71875 6.109375 
Q 34.671875 6.109375 37.9375 8.515625 
Q 41.21875 10.9375 41.21875 15.28125 
Q 41.21875 21.53125 29.25 23.921875 
L 28.859375 24.03125 
L 25.484375 24.703125 
Q 17.71875 26.21875 14.15625 29.8125 
Q 10.59375 33.40625 10.59375 39.59375 
Q 10.59375 47.46875 15.90625 51.734375 
Q 21.234375 56 31.109375 56 
Q 35.5 56 39.546875 55.1875 
Q 43.609375 54.390625 47.515625 52.78125 
z
" id="DejaVuSansMono-115"/>
       <path d="M 29.984375 70.21875 
L 29.984375 54.6875 
L 50.390625 54.6875 
L 50.390625 47.703125 
L 29.984375 47.703125 
L 29.984375 18.015625 
Q 29.984375 11.96875 32.28125 9.5625 
Q 34.578125 7.171875 40.28125 7.171875 
L 50.390625 7.171875 
L 50.390625 0 
L 39.40625 0 
Q 29.296875 0 25.140625 4.046875 
Q 21 8.109375 21 18.015625 
L 21 47.703125 
L 6.390625 47.703125 
L 6.390625 54.6875 
L 21 54.6875 
L 21 70.21875 
z
" id="DejaVuSansMono-116"/>
       <path d="M 23.875 51.90625 
L 36.1875 51.90625 
L 36.1875 37.109375 
L 23.875 37.109375 
z
M 23.875 14.890625 
L 36.1875 14.890625 
L 36.1875 0 
L 23.875 0 
z
" id="DejaVuSansMono-58"/>
      </defs>
      <use xlink:href="#DejaVuSansMono-34"/>
      <use x="60.205078" xlink:href="#DejaVuSansMono-84"/>
      <use x="120.410156" xlink:href="#DejaVuSansMono-97"/>
      <use x="180.615234" xlink:href="#DejaVuSansMono-108"/>
      <use x="240.820312" xlink:href="#DejaVuSansMono-108"/>
      <use x="301.025391" xlink:href="#DejaVuSansMono-101"/>
      <use x="361.230469" xlink:href="#DejaVuSansMono-115"/>
      <use x="421.435547" xlink:href="#DejaVuSansMono-116"/>
      <use x="481.640625" xlink:href="#DejaVuSansMono-34"/>
      <use x="541.845703" xlink:href="#DejaVuSansMono-58"/>
     </g>
     <!-- y_0    = 2684647 -->
     <g transform="translate(373.064062 34.737)scale(0.06 -0.06)">
      <defs>
       <path d="M 4.296875 25.59375 
L 55.90625 25.59375 
L 55.90625 17.1875 
L 4.296875 17.1875 
z
M 4.296875 45.40625 
L 55.90625 45.40625 
L 55.90625 37.109375 
L 4.296875 37.109375 
z
" id="DejaVuSansMono-61"/>
       <path d="M 48.390625 71.296875 
L 48.390625 62.203125 
Q 45.3125 64.015625 41.84375 64.96875 
Q 38.375 65.921875 34.625 65.921875 
Q 25.25 65.921875 20.40625 58.859375 
Q 15.578125 51.8125 15.578125 38.09375 
Q 17.921875 42.96875 22.0625 45.578125 
Q 26.21875 48.1875 31.59375 48.1875 
Q 42.140625 48.1875 47.921875 41.71875 
Q 53.71875 35.25 53.71875 23.390625 
Q 53.71875 11.578125 47.75 5.078125 
Q 41.796875 -1.421875 31 -1.421875 
Q 18.3125 -1.421875 12.40625 7.6875 
Q 6.5 16.796875 6.5 36.375 
Q 6.5 54.828125 13.59375 64.515625 
Q 20.703125 74.21875 34.1875 74.21875 
Q 37.796875 74.21875 41.40625 73.453125 
Q 45.015625 72.703125 48.390625 71.296875 
z
M 30.8125 40.484375 
Q 24.515625 40.484375 20.890625 35.9375 
Q 17.28125 31.390625 17.28125 23.390625 
Q 17.28125 15.375 20.890625 10.828125 
Q 24.515625 6.296875 30.8125 6.296875 
Q 37.359375 6.296875 40.671875 10.609375 
Q 44 14.9375 44 23.390625 
Q 44 31.890625 40.671875 36.1875 
Q 37.359375 40.484375 30.8125 40.484375 
z
" id="DejaVuSansMono-54"/>
       <path d="M 30.078125 34.625 
Q 23.484375 34.625 19.890625 30.9375 
Q 16.3125 27.25 16.3125 20.515625 
Q 16.3125 13.765625 19.9375 10.03125 
Q 23.578125 6.296875 30.078125 6.296875 
Q 36.71875 6.296875 40.296875 9.984375 
Q 43.890625 13.671875 43.890625 20.515625 
Q 43.890625 27.203125 40.25 30.90625 
Q 36.625 34.625 30.078125 34.625 
z
M 21.484375 38.71875 
Q 15.1875 40.328125 11.640625 44.71875 
Q 8.109375 49.125 8.109375 55.328125 
Q 8.109375 64.015625 14.015625 69.109375 
Q 19.921875 74.21875 30.078125 74.21875 
Q 40.28125 74.21875 46.1875 69.109375 
Q 52.09375 64.015625 52.09375 55.328125 
Q 52.09375 49.125 48.546875 44.71875 
Q 45.015625 40.328125 38.71875 38.71875 
Q 46.046875 37.109375 49.921875 32.21875 
Q 53.8125 27.34375 53.8125 19.578125 
Q 53.8125 9.71875 47.515625 4.140625 
Q 41.21875 -1.421875 30.078125 -1.421875 
Q 18.953125 -1.421875 12.671875 4.125 
Q 6.390625 9.671875 6.390625 19.484375 
Q 6.390625 27.296875 10.265625 32.203125 
Q 14.15625 37.109375 21.484375 38.71875 
z
M 17.921875 54.390625 
Q 17.921875 48.53125 21.046875 45.453125 
Q 24.171875 42.390625 30.078125 42.390625 
Q 36.03125 42.390625 39.15625 45.453125 
Q 42.28125 48.53125 42.28125 54.390625 
Q 42.28125 60.359375 39.171875 63.484375 
Q 36.078125 66.609375 30.078125 66.609375 
Q 24.171875 66.609375 21.046875 63.453125 
Q 17.921875 60.296875 17.921875 54.390625 
z
" id="DejaVuSansMono-56"/>
      </defs>
      <use xlink:href="#DejaVuSansMono-121"/>
      <use x="60.205078" xlink:href="#DejaVuSansMono-95"/>
      <use x="120.410156" xlink:href="#DejaVuSansMono-48"/>
      <use x="180.615234" xlink:href="#DejaVuSansMono-32"/>
      <use x="240.820312" xlink:href="#DejaVuSansMono-32"/>
      <use x="301.025391" xlink:href="#DejaVuSansMono-32"/>
      <use x="361.230469" xlink:href="#DejaVuSansMono-32"/>
      <use x="421.435547" xlink:href="#DejaVuSansMono-61"/>
      <use x="481.640625" xlink:href="#DejaVuSansMono-32"/>
      <use x="541.845703" xlink:href="#DejaVuSansMono-50"/>
      <use x="602.050781" xlink:href="#DejaVuSansMono-54"/>
      <use x="662.255859" xlink:href="#DejaVuSansMono-56"/>
      <use x="722.460938" xlink:href="#DejaVuSansMono-52"/>
      <use x="782.666016" xlink:href="#DejaVuSansMono-54"/>
      <use x="842.871094" xlink:href="#DejaVuSansMono-52"/>
      <use x="903.076172" xlink:href="#DejaVuSansMono-55"/>
     </g>
     <!-- y_max  = 352617812944 -->
     <g transform="translate(373.064062 41.660812)scale(0.06 -0.06)">
      <defs>
       <path d="M 54.59375 54.6875 
L 35.015625 28.515625 
L 56.5 0 
L 46.09375 0 
L 30.078125 21.921875 
L 14.109375 0 
L 3.71875 0 
L 25.203125 28.515625 
L 5.609375 54.6875 
L 15.578125 54.6875 
L 30.078125 34.90625 
L 44.484375 54.6875 
z
" id="DejaVuSansMono-120"/>
      </defs>
      <use xlink:href="#DejaVuSansMono-121"/>
      <use x="60.205078" xlink:href="#DejaVuSansMono-95"/>
      <use x="120.410156" xlink:href="#DejaVuSansMono-109"/>
      <use x="180.615234" xlink:href="#DejaVuSansMono-97"/>
      <use x="240.820312" xlink:href="#DejaVuSansMono-120"/>
      <use x="301.025391" xlink:href="#DejaVuSansMono-32"/>
      <use x="361.230469" xlink:href="#DejaVuSansMono-32"/>
      <use x="421.435547" xlink:href="#DejaVuSansMono-61"/>
      <use x="481.640625" xlink:href="#DejaVuSansMono-32"/>
      <use x="541.845703" xlink:href="#DejaVuSansMono-51"/>
      <use x="602.050781" xlink:href="#DejaVuSansMono-53"/>
      <use x="662.255859" xlink:href="#DejaVuSansMono-50"/>
      <use x="722.460938" xlink:href="#DejaVuSansMono-54"/>
      <use x="782.666016" xlink:href="#DejaVuSansMono-49"/>
      <use x="842.871094" xlink:href="#DejaVuSansMono-55"/>
      <use x="903.076172" xlink:href="#DejaVuSansMono-56"/>
      <use x="963.28125" xlink:href="#DejaVuSansMono-49"/>
      <use x="1023.486328" xlink:href="#DejaVuSansMono-50"/>
      <use x="1083.691406" xlink:href="#DejaVuSansMono-57"/>
      <use x="1143.896484" xlink:href="#DejaVuSansMono-52"/>
      <use x="1204.101562" xlink:href="#DejaVuSansMono-52"/>
     </g>
     <!-- x_max  = 400 -->
     <g transform="translate(373.064062 48.584625)scale(0.06 -0.06)">
      <use xlink:href="#DejaVuSansMono-120"/>
      <use x="60.205078" xlink:href="#DejaVuSansMono-95"/>
      <use x="120.410156" xlink:href="#DejaVuSansMono-109"/>
      <use x="180.615234" xlink:href="#DejaVuSansMono-97"/>
      <use x="240.820312" xlink:href="#DejaVuSansMono-120"/>
      <use x="301.025391" xlink:href="#DejaVuSansMono-32"/>
      <use x="361.230469" xlink:href="#DejaVuSansMono-32"/>
      <use x="421.435547" xlink:href="#DejaVuSansMono-61"/>
      <use x="481.640625" xlink:href="#DejaVuSansMono-32"/>
      <use x="541.845703" xlink:href="#DejaVuSansMono-52"/>
      <use x="602.050781" xlink:href="#DejaVuSansMono-48"/>
      <use x="662.255859" xlink:href="#DejaVuSansMono-48"/>
     </g>
    </g>
    <g id="line2d_17">
     <path d="M 356.264062 66.499875 
L 368.264062 66.499875 
" style="fill:none;stroke:#ff7f0e;stroke-linecap:square;stroke-width:0.666667;"/>
    </g>
    <g id="line2d_18"/>
    <g id="text_17">
     <!-- "Widest":  -->
     <g transform="translate(373.064062 57.59025)scale(0.06 -0.06)">
      <defs>
       <path d="M 0 72.90625 
L 9.625 72.90625 
L 16.609375 13.71875 
L 24.90625 52.875 
L 35.203125 52.875 
L 43.609375 13.625 
L 50.59375 72.90625 
L 60.203125 72.90625 
L 49.3125 0 
L 39.984375 0 
L 30.078125 43.3125 
L 20.21875 0 
L 10.890625 0 
z
" id="DejaVuSansMono-87"/>
       <path d="M 12.5 54.6875 
L 35.5 54.6875 
L 35.5 6.984375 
L 53.328125 6.984375 
L 53.328125 0 
L 8.6875 0 
L 8.6875 6.984375 
L 26.515625 6.984375 
L 26.515625 47.703125 
L 12.5 47.703125 
z
M 26.515625 75.984375 
L 35.5 75.984375 
L 35.5 64.59375 
L 26.515625 64.59375 
z
" id="DejaVuSansMono-105"/>
       <path d="M 41.890625 47.703125 
L 41.890625 75.984375 
L 50.875 75.984375 
L 50.875 0 
L 41.890625 0 
L 41.890625 6.890625 
Q 39.65625 2.828125 35.90625 0.703125 
Q 32.171875 -1.421875 27.296875 -1.421875 
Q 17.390625 -1.421875 11.6875 6.265625 
Q 6 13.96875 6 27.484375 
Q 6 40.828125 11.71875 48.40625 
Q 17.4375 56 27.296875 56 
Q 32.234375 56 35.984375 53.875 
Q 39.75 51.765625 41.890625 47.703125 
z
M 15.484375 27.296875 
Q 15.484375 16.84375 18.796875 11.515625 
Q 22.125 6.203125 28.609375 6.203125 
Q 35.109375 6.203125 38.5 11.5625 
Q 41.890625 16.9375 41.890625 27.296875 
Q 41.890625 37.703125 38.5 43.046875 
Q 35.109375 48.390625 28.609375 48.390625 
Q 22.125 48.390625 18.796875 43.0625 
Q 15.484375 37.75 15.484375 27.296875 
z
" id="DejaVuSansMono-100"/>
      </defs>
      <use xlink:href="#DejaVuSansMono-34"/>
      <use x="60.205078" xlink:href="#DejaVuSansMono-87"/>
      <use x="120.410156" xlink:href="#DejaVuSansMono-105"/>
      <use x="180.615234" xlink:href="#DejaVuSansMono-100"/>
      <use x="240.820312" xlink:href="#DejaVuSansMono-101"/>
      <use x="301.025391" xlink:href="#DejaVuSansMono-115"/>
      <use x="361.230469" xlink:href="#DejaVuSansMono-116"/>
      <use x="421.435547" xlink:href="#DejaVuSansMono-34"/>
      <use x="481.640625" xlink:href="#DejaVuSansMono-58"/>
      <use x="541.845703" xlink:href="#DejaVuSansMono-32"/>
     </g>
     <!-- y_0    = 2298025 -->
     <g transform="translate(373.064062 64.347187)scale(0.06 -0.06)">
      <use xlink:href="#DejaVuSansMono-121"/>
      <use x="60.205078" xlink:href="#DejaVuSansMono-95"/>
      <use x="120.410156" xlink:href="#DejaVuSansMono-48"/>
      <use x="180.615234" xlink:href="#DejaVuSansMono-32"/>
      <use x="240.820312" xlink:href="#DejaVuSansMono-32"/>
      <use x="301.025391" xlink:href="#DejaVuSansMono-32"/>
      <use x="361.230469" xlink:href="#DejaVuSansMono-32"/>
      <use x="421.435547" xlink:href="#DejaVuSansMono-61"/>
      <use x="481.640625" xlink:href="#DejaVuSansMono-32"/>
      <use x="541.845703" xlink:href="#DejaVuSansMono-50"/>
      <use x="602.050781" xlink:href="#DejaVuSansMono-50"/>
      <use x="662.255859" xlink:href="#DejaVuSansMono-57"/>
      <use x="722.460938" xlink:href="#DejaVuSansMono-56"/>
      <use x="782.666016" xlink:href="#DejaVuSansMono-48"/>
      <use x="842.871094" xlink:href="#DejaVuSansMono-50"/>
      <use x="903.076172" xlink:href="#DejaVuSansMono-53"/>
     </g>
     <!-- y_max  = 46571871940 -->
     <g transform="translate(373.064062 71.271)scale(0.06 -0.06)">
      <use xlink:href="#DejaVuSansMono-121"/>
      <use x="60.205078" xlink:href="#DejaVuSansMono-95"/>
      <use x="120.410156" xlink:href="#DejaVuSansMono-109"/>
      <use x="180.615234" xlink:href="#DejaVuSansMono-97"/>
      <use x="240.820312" xlink:href="#DejaVuSansMono-120"/>
      <use x="301.025391" xlink:href="#DejaVuSansMono-32"/>
      <use x="361.230469" xlink:href="#DejaVuSansMono-32"/>
      <use x="421.435547" xlink:href="#DejaVuSansMono-61"/>
      <use x="481.640625" xlink:href="#DejaVuSansMono-32"/>
      <use x="541.845703" xlink:href="#DejaVuSansMono-52"/>
      <use x="602.050781" xlink:href="#DejaVuSansMono-54"/>
      <use x="662.255859" xlink:href="#DejaVuSansMono-53"/>
      <use x="722.460938" xlink:href="#DejaVuSansMono-55"/>
      <use x="782.666016" xlink:href="#DejaVuSansMono-49"/>
      <use x="842.871094" xlink:href="#DejaVuSansMono-56"/>
      <use x="903.076172" xlink:href="#DejaVuSansMono-55"/>
      <use x="963.28125" xlink:href="#DejaVuSansMono-49"/>
      <use x="1023.486328" xlink:href="#DejaVuSansMono-57"/>
      <use x="1083.691406" xlink:href="#DejaVuSansMono-52"/>
      <use x="1143.896484" xlink:href="#DejaVuSansMono-48"/>
     </g>
     <!-- x_max  = 560 -->
     <g transform="translate(373.064062 78.194812)scale(0.06 -0.06)">
      <use xlink:href="#DejaVuSansMono-120"/>
      <use x="60.205078" xlink:href="#DejaVuSansMono-95"/>
      <use x="120.410156" xlink:href="#DejaVuSansMono-109"/>
      <use x="180.615234" xlink:href="#DejaVuSansMono-97"/>
      <use x="240.820312" xlink:href="#DejaVuSansMono-120"/>
      <use x="301.025391" xlink:href="#DejaVuSansMono-32"/>
      <use x="361.230469" xlink:href="#DejaVuSansMono-32"/>
      <use x="421.435547" xlink:href="#DejaVuSansMono-61"/>
      <use x="481.640625" xlink:href="#DejaVuSansMono-32"/>
      <use x="541.845703" xlink:href="#DejaVuSansMono-53"/>
      <use x="602.050781" xlink:href="#DejaVuSansMono-54"/>
      <use x="662.255859" xlink:href="#DejaVuSansMono-48"/>
     </g>
    </g>
   </g>
  </g>
 </g>
 <defs>
  <clipPath id="p3d0682aa74">
   <rect height="298.453375" width="418.46125" x="35.85875" y="17.989125"/>
  </clipPath>
 </defs>
</svg>
