<?xml version="1.0" encoding="utf-8" standalone="no"?>
<!DOCTYPE svg PUBLIC "-//W3C//DTD SVG 1.1//EN"
  "http://www.w3.org/Graphics/SVG/1.1/DTD/svg11.dtd">
<!-- Created with matplotlib (https://matplotlib.org/) -->
<svg height="345.6pt" version="1.1" viewBox="0 0 460.8 345.6" width="460.8pt" xmlns="http://www.w3.org/2000/svg" xmlns:xlink="http://www.w3.org/1999/xlink">
 <metadata>
  <rdf:RDF xmlns:cc="http://creativecommons.org/ns#" xmlns:dc="http://purl.org/dc/elements/1.1/" xmlns:rdf="http://www.w3.org/1999/02/22-rdf-syntax-ns#">
   <cc:Work>
    <dc:type rdf:resource="http://purl.org/dc/dcmitype/StillImage"/>
    <dc:date>2022-03-17T00:26:22.383375</dc:date>
    <dc:format>image/svg+xml</dc:format>
    <dc:creator>
     <cc:Agent>
      <dc:title>Matplotlib v3.3.2, https://matplotlib.org/</dc:title>
     </cc:Agent>
    </dc:creator>
   </cc:Work>
  </rdf:RDF>
 </metadata>
 <defs>
  <style type="text/css">*{stroke-linecap:butt;stroke-linejoin:round;}</style>
 </defs>
 <g id="figure_1">
  <g id="patch_1">
   <path d="M 0 345.6 
L 460.8 345.6 
L 460.8 0 
L 0 0 
z
" style="fill:#ffffff;"/>
  </g>
  <g id="axes_1">
   <g id="patch_2">
    <path d="M 35.85875 316.4425 
L 454.32 316.4425 
L 454.32 17.989125 
L 35.85875 17.989125 
z
" style="fill:#ffffff;"/>
   </g>
   <g id="matplotlib.axis_1">
    <g id="xtick_1">
     <g id="line2d_1">
      <defs>
       <path d="M 0 0 
L 0 3.5 
" id="m659bdd2ce5" style="stroke:#000000;stroke-width:0.8;"/>
      </defs>
      <g>
       <use style="stroke:#000000;stroke-width:0.8;" x="54.879716" xlink:href="#m659bdd2ce5" y="316.4425"/>
      </g>
     </g>
     <g id="text_1">
      <!-- 0 -->
      <g transform="translate(53.073622 328.033437)scale(0.06 -0.06)">
       <defs>
        <path d="M 23.578125 36.625 
Q 23.578125 39.3125 25.453125 41.265625 
Q 27.34375 43.21875 29.984375 43.21875 
Q 32.71875 43.21875 34.671875 41.265625 
Q 36.625 39.3125 36.625 36.625 
Q 36.625 33.890625 34.6875 31.984375 
Q 32.765625 30.078125 29.984375 30.078125 
Q 27.25 30.078125 25.40625 31.9375 
Q 23.578125 33.796875 23.578125 36.625 
z
M 30.078125 66.40625 
Q 23.1875 66.40625 19.796875 58.984375 
Q 16.40625 51.5625 16.40625 36.375 
Q 16.40625 21.234375 19.796875 13.8125 
Q 23.1875 6.390625 30.078125 6.390625 
Q 37.015625 6.390625 40.40625 13.8125 
Q 43.796875 21.234375 43.796875 36.375 
Q 43.796875 51.5625 40.40625 58.984375 
Q 37.015625 66.40625 30.078125 66.40625 
z
M 30.078125 74.21875 
Q 41.75 74.21875 47.734375 64.640625 
Q 53.71875 55.078125 53.71875 36.375 
Q 53.71875 17.71875 47.734375 8.140625 
Q 41.75 -1.421875 30.078125 -1.421875 
Q 18.40625 -1.421875 12.453125 8.140625 
Q 6.5 17.71875 6.5 36.375 
Q 6.5 55.078125 12.453125 64.640625 
Q 18.40625 74.21875 30.078125 74.21875 
z
" id="DejaVuSansMono-48"/>
       </defs>
       <use xlink:href="#DejaVuSansMono-48"/>
      </g>
     </g>
    </g>
    <g id="xtick_2">
     <g id="line2d_2">
      <g>
       <use style="stroke:#000000;stroke-width:0.8;" x="127.065545" xlink:href="#m659bdd2ce5" y="316.4425"/>
      </g>
     </g>
     <g id="text_2">
      <!-- 100 -->
      <g transform="translate(121.647264 328.033437)scale(0.06 -0.06)">
       <defs>
        <path d="M 13.1875 8.296875 
L 28.515625 8.296875 
L 28.515625 64.015625 
L 12.015625 60.296875 
L 12.015625 69.28125 
L 28.421875 72.90625 
L 38.28125 72.90625 
L 38.28125 8.296875 
L 53.421875 8.296875 
L 53.421875 0 
L 13.1875 0 
z
" id="DejaVuSansMono-49"/>
       </defs>
       <use xlink:href="#DejaVuSansMono-49"/>
       <use x="60.205078" xlink:href="#DejaVuSansMono-48"/>
       <use x="120.410156" xlink:href="#DejaVuSansMono-48"/>
      </g>
     </g>
    </g>
    <g id="xtick_3">
     <g id="line2d_3">
      <g>
       <use style="stroke:#000000;stroke-width:0.8;" x="199.251374" xlink:href="#m659bdd2ce5" y="316.4425"/>
      </g>
     </g>
     <g id="text_3">
      <!-- 200 -->
      <g transform="translate(193.833092 328.033437)scale(0.06 -0.06)">
       <defs>
        <path d="M 18.21875 8.296875 
L 51.703125 8.296875 
L 51.703125 0 
L 7.421875 0 
L 7.421875 8.296875 
Q 16.546875 17.921875 23.375 25.296875 
Q 30.21875 32.671875 32.8125 35.6875 
Q 37.703125 41.65625 39.40625 45.34375 
Q 41.109375 49.03125 41.109375 52.875 
Q 41.109375 58.984375 37.515625 62.453125 
Q 33.9375 65.921875 27.6875 65.921875 
Q 23.25 65.921875 18.359375 64.3125 
Q 13.484375 62.703125 8.015625 59.421875 
L 8.015625 69.390625 
Q 13.03125 71.78125 17.890625 73 
Q 22.75 74.21875 27.484375 74.21875 
Q 38.1875 74.21875 44.703125 68.53125 
Q 51.21875 62.84375 51.21875 53.609375 
Q 51.21875 48.921875 49.046875 44.234375 
Q 46.875 39.546875 42 33.890625 
Q 39.265625 30.71875 34.0625 25.09375 
Q 28.859375 19.484375 18.21875 8.296875 
z
" id="DejaVuSansMono-50"/>
       </defs>
       <use xlink:href="#DejaVuSansMono-50"/>
       <use x="60.205078" xlink:href="#DejaVuSansMono-48"/>
       <use x="120.410156" xlink:href="#DejaVuSansMono-48"/>
      </g>
     </g>
    </g>
    <g id="xtick_4">
     <g id="line2d_4">
      <g>
       <use style="stroke:#000000;stroke-width:0.8;" x="271.437203" xlink:href="#m659bdd2ce5" y="316.4425"/>
      </g>
     </g>
     <g id="text_4">
      <!-- 300 -->
      <g transform="translate(266.018921 328.033437)scale(0.06 -0.06)">
       <defs>
        <path d="M 37.890625 39.015625 
Q 45.0625 37.109375 48.875 32.25 
Q 52.6875 27.390625 52.6875 20.125 
Q 52.6875 10.0625 45.921875 4.3125 
Q 39.15625 -1.421875 27.203125 -1.421875 
Q 22.171875 -1.421875 16.9375 -0.484375 
Q 11.71875 0.4375 6.6875 2.203125 
L 6.6875 12.015625 
Q 11.671875 9.421875 16.5 8.15625 
Q 21.34375 6.890625 26.125 6.890625 
Q 34.234375 6.890625 38.578125 10.546875 
Q 42.921875 14.203125 42.921875 21.09375 
Q 42.921875 27.4375 38.578125 31.171875 
Q 34.234375 34.90625 26.8125 34.90625 
L 19.28125 34.90625 
L 19.28125 43.015625 
L 26.8125 43.015625 
Q 33.59375 43.015625 37.40625 45.984375 
Q 41.21875 48.96875 41.21875 54.296875 
Q 41.21875 59.90625 37.671875 62.90625 
Q 34.125 65.921875 27.59375 65.921875 
Q 23.25 65.921875 18.609375 64.9375 
Q 13.96875 63.96875 8.890625 62.015625 
L 8.890625 71.09375 
Q 14.796875 72.65625 19.40625 73.4375 
Q 24.03125 74.21875 27.59375 74.21875 
Q 38.234375 74.21875 44.609375 68.875 
Q 50.984375 63.53125 50.984375 54.6875 
Q 50.984375 48.6875 47.625 44.671875 
Q 44.28125 40.671875 37.890625 39.015625 
z
" id="DejaVuSansMono-51"/>
       </defs>
       <use xlink:href="#DejaVuSansMono-51"/>
       <use x="60.205078" xlink:href="#DejaVuSansMono-48"/>
       <use x="120.410156" xlink:href="#DejaVuSansMono-48"/>
      </g>
     </g>
    </g>
    <g id="xtick_5">
     <g id="line2d_5">
      <g>
       <use style="stroke:#000000;stroke-width:0.8;" x="343.623031" xlink:href="#m659bdd2ce5" y="316.4425"/>
      </g>
     </g>
     <g id="text_5">
      <!-- 400 -->
      <g transform="translate(338.20475 328.033437)scale(0.06 -0.06)">
       <defs>
        <path d="M 35.890625 63.921875 
L 12.890625 25.390625 
L 35.890625 25.390625 
z
M 34.28125 72.90625 
L 45.703125 72.90625 
L 45.703125 25.390625 
L 55.421875 25.390625 
L 55.421875 17.390625 
L 45.703125 17.390625 
L 45.703125 0 
L 35.890625 0 
L 35.890625 17.390625 
L 4.984375 17.390625 
L 4.984375 26.703125 
z
" id="DejaVuSansMono-52"/>
       </defs>
       <use xlink:href="#DejaVuSansMono-52"/>
       <use x="60.205078" xlink:href="#DejaVuSansMono-48"/>
       <use x="120.410156" xlink:href="#DejaVuSansMono-48"/>
      </g>
     </g>
    </g>
    <g id="xtick_6">
     <g id="line2d_6">
      <g>
       <use style="stroke:#000000;stroke-width:0.8;" x="415.80886" xlink:href="#m659bdd2ce5" y="316.4425"/>
      </g>
     </g>
     <g id="text_6">
      <!-- 500 -->
      <g transform="translate(410.390579 328.033437)scale(0.06 -0.06)">
       <defs>
        <path d="M 10.109375 72.90625 
L 47.015625 72.90625 
L 47.015625 64.59375 
L 19.09375 64.59375 
L 19.09375 46.6875 
Q 21.1875 47.46875 23.3125 47.828125 
Q 25.4375 48.1875 27.59375 48.1875 
Q 38.921875 48.1875 45.5625 41.5 
Q 52.203125 34.8125 52.203125 23.390625 
Q 52.203125 11.859375 45.234375 5.21875 
Q 38.28125 -1.421875 26.21875 -1.421875 
Q 20.40625 -1.421875 15.59375 -0.640625 
Q 10.796875 0.140625 6.984375 1.703125 
L 6.984375 11.71875 
Q 11.46875 9.28125 16.015625 8.078125 
Q 20.5625 6.890625 25.296875 6.890625 
Q 33.453125 6.890625 37.859375 11.1875 
Q 42.28125 15.484375 42.28125 23.390625 
Q 42.28125 31.203125 37.71875 35.546875 
Q 33.15625 39.890625 25 39.890625 
Q 21.046875 39.890625 17.28125 38.984375 
Q 13.53125 38.09375 10.109375 36.28125 
z
" id="DejaVuSansMono-53"/>
       </defs>
       <use xlink:href="#DejaVuSansMono-53"/>
       <use x="60.205078" xlink:href="#DejaVuSansMono-48"/>
       <use x="120.410156" xlink:href="#DejaVuSansMono-48"/>
      </g>
     </g>
    </g>
    <g id="text_7">
     <!-- n -->
     <g transform="translate(243.283281 337.872187)scale(0.06 -0.06)">
      <defs>
       <path d="M 51.3125 33.890625 
L 51.3125 0 
L 42.28125 0 
L 42.28125 33.890625 
Q 42.28125 41.265625 39.6875 44.71875 
Q 37.109375 48.1875 31.59375 48.1875 
Q 25.296875 48.1875 21.890625 43.71875 
Q 18.5 39.265625 18.5 30.90625 
L 18.5 0 
L 9.515625 0 
L 9.515625 54.6875 
L 18.5 54.6875 
L 18.5 46.484375 
Q 20.90625 51.171875 25 53.578125 
Q 29.109375 56 34.71875 56 
Q 43.0625 56 47.1875 50.5 
Q 51.3125 45.015625 51.3125 33.890625 
z
" id="DejaVuSansMono-110"/>
      </defs>
      <use xlink:href="#DejaVuSansMono-110"/>
     </g>
    </g>
   </g>
   <g id="matplotlib.axis_2">
    <g id="ytick_1">
     <g id="line2d_7">
      <defs>
       <path d="M 0 0 
L -3.5 0 
" id="md7c7bc530f" style="stroke:#000000;stroke-width:0.8;"/>
      </defs>
      <g>
       <use style="stroke:#000000;stroke-width:0.8;" x="35.85875" xlink:href="#md7c7bc530f" y="278.609691"/>
      </g>
     </g>
     <g id="text_8">
      <!-- $\mathdefault{10^{1}}$ -->
      <g transform="translate(18.83875 280.90516)scale(0.06 -0.06)">
       <use transform="translate(0 0.684375)" xlink:href="#DejaVuSansMono-49"/>
       <use transform="translate(60.205078 0.684375)" xlink:href="#DejaVuSansMono-48"/>
       <use transform="translate(121.367188 38.965625)scale(0.7)" xlink:href="#DejaVuSansMono-49"/>
      </g>
     </g>
    </g>
    <g id="ytick_2">
     <g id="line2d_8">
      <g>
       <use style="stroke:#000000;stroke-width:0.8;" x="35.85875" xlink:href="#md7c7bc530f" y="230.076198"/>
      </g>
     </g>
     <g id="text_9">
      <!-- $\mathdefault{10^{3}}$ -->
      <g transform="translate(18.83875 232.371666)scale(0.06 -0.06)">
       <use transform="translate(0 0.765625)" xlink:href="#DejaVuSansMono-49"/>
       <use transform="translate(60.205078 0.765625)" xlink:href="#DejaVuSansMono-48"/>
       <use transform="translate(121.367188 39.046875)scale(0.7)" xlink:href="#DejaVuSansMono-51"/>
      </g>
     </g>
    </g>
    <g id="ytick_3">
     <g id="line2d_9">
      <g>
       <use style="stroke:#000000;stroke-width:0.8;" x="35.85875" xlink:href="#md7c7bc530f" y="181.542705"/>
      </g>
     </g>
     <g id="text_10">
      <!-- $\mathdefault{10^{5}}$ -->
      <g transform="translate(18.83875 183.838173)scale(0.06 -0.06)">
       <use transform="translate(0 0.684375)" xlink:href="#DejaVuSansMono-49"/>
       <use transform="translate(60.205078 0.684375)" xlink:href="#DejaVuSansMono-48"/>
       <use transform="translate(121.367188 38.965625)scale(0.7)" xlink:href="#DejaVuSansMono-53"/>
      </g>
     </g>
    </g>
    <g id="ytick_4">
     <g id="line2d_10">
      <g>
       <use style="stroke:#000000;stroke-width:0.8;" x="35.85875" xlink:href="#md7c7bc530f" y="133.009211"/>
      </g>
     </g>
     <g id="text_11">
      <!-- $\mathdefault{10^{7}}$ -->
      <g transform="translate(18.83875 135.30468)scale(0.06 -0.06)">
       <defs>
        <path d="M 6.78125 72.90625 
L 52.6875 72.90625 
L 52.6875 68.703125 
L 26.609375 0 
L 16.3125 0 
L 41.703125 64.59375 
L 6.78125 64.59375 
z
" id="DejaVuSansMono-55"/>
       </defs>
       <use transform="translate(0 0.684375)" xlink:href="#DejaVuSansMono-49"/>
       <use transform="translate(60.205078 0.684375)" xlink:href="#DejaVuSansMono-48"/>
       <use transform="translate(121.367188 38.965625)scale(0.7)" xlink:href="#DejaVuSansMono-55"/>
      </g>
     </g>
    </g>
    <g id="ytick_5">
     <g id="line2d_11">
      <g>
       <use style="stroke:#000000;stroke-width:0.8;" x="35.85875" xlink:href="#md7c7bc530f" y="84.475718"/>
      </g>
     </g>
     <g id="text_12">
      <!-- $\mathdefault{10^{9}}$ -->
      <g transform="translate(18.83875 86.771187)scale(0.06 -0.06)">
       <defs>
        <path d="M 29.109375 32.328125 
Q 35.40625 32.328125 38.984375 36.859375 
Q 42.578125 41.40625 42.578125 49.421875 
Q 42.578125 57.421875 38.984375 61.953125 
Q 35.40625 66.5 29.109375 66.5 
Q 22.5625 66.5 19.234375 62.171875 
Q 15.921875 57.859375 15.921875 49.421875 
Q 15.921875 40.921875 19.21875 36.625 
Q 22.515625 32.328125 29.109375 32.328125 
z
M 11.53125 1.515625 
L 11.53125 10.59375 
Q 14.59375 8.796875 18.0625 7.84375 
Q 21.53125 6.890625 25.296875 6.890625 
Q 34.671875 6.890625 39.46875 13.9375 
Q 44.28125 21 44.28125 34.71875 
Q 42 29.828125 37.84375 27.21875 
Q 33.6875 24.609375 28.328125 24.609375 
Q 17.78125 24.609375 11.984375 31.09375 
Q 6.203125 37.59375 6.203125 49.515625 
Q 6.203125 61.28125 12.125 67.75 
Q 18.0625 74.21875 28.90625 74.21875 
Q 41.609375 74.21875 47.515625 65.078125 
Q 53.421875 55.953125 53.421875 36.375 
Q 53.421875 17.96875 46.3125 8.265625 
Q 39.203125 -1.421875 25.6875 -1.421875 
Q 22.125 -1.421875 18.5 -0.65625 
Q 14.890625 0.09375 11.53125 1.515625 
z
" id="DejaVuSansMono-57"/>
       </defs>
       <use transform="translate(0 0.765625)" xlink:href="#DejaVuSansMono-49"/>
       <use transform="translate(60.205078 0.765625)" xlink:href="#DejaVuSansMono-48"/>
       <use transform="translate(121.367188 39.046875)scale(0.7)" xlink:href="#DejaVuSansMono-57"/>
      </g>
     </g>
    </g>
    <g id="ytick_6">
     <g id="line2d_12">
      <g>
       <use style="stroke:#000000;stroke-width:0.8;" x="35.85875" xlink:href="#md7c7bc530f" y="35.942225"/>
      </g>
     </g>
     <g id="text_13">
      <!-- $\mathdefault{10^{11}}$ -->
      <g transform="translate(16.31875 38.237694)scale(0.06 -0.06)">
       <use transform="translate(0 0.684375)" xlink:href="#DejaVuSansMono-49"/>
       <use transform="translate(60.205078 0.684375)" xlink:href="#DejaVuSansMono-48"/>
       <use transform="translate(121.367188 38.965625)scale(0.7)" xlink:href="#DejaVuSansMono-49"/>
       <use transform="translate(163.510742 38.965625)scale(0.7)" xlink:href="#DejaVuSansMono-49"/>
      </g>
     </g>
    </g>
    <g id="text_14">
     <!-- y_n -->
     <g transform="translate(10.904063 172.634094)rotate(-90)scale(0.06 -0.06)">
      <defs>
       <path d="M 41.890625 17.578125 
Q 39.65625 11.859375 36.1875 2.546875 
Q 31.34375 -10.359375 29.6875 -13.1875 
Q 27.4375 -17 24.0625 -18.890625 
Q 20.703125 -20.796875 16.21875 -20.796875 
L 8.984375 -20.796875 
L 8.984375 -13.28125 
L 14.3125 -13.28125 
Q 18.265625 -13.28125 20.5 -10.984375 
Q 22.75 -8.6875 26.21875 0.875 
L 5.078125 54.6875 
L 14.59375 54.6875 
L 30.8125 11.921875 
L 46.78125 54.6875 
L 56.296875 54.6875 
z
" id="DejaVuSansMono-121"/>
       <path d="M 60.203125 -19.671875 
L 60.203125 -23.578125 
L 0 -23.578125 
L 0 -19.671875 
z
" id="DejaVuSansMono-95"/>
      </defs>
      <use xlink:href="#DejaVuSansMono-121"/>
      <use x="60.205078" xlink:href="#DejaVuSansMono-95"/>
      <use x="120.410156" xlink:href="#DejaVuSansMono-110"/>
     </g>
    </g>
   </g>
   <g id="line2d_13">
    <path clip-path="url(#pd03442baca)" d="M 54.879716 153.422723 
L 55.601574 141.84454 
L 56.323432 149.149559 
L 57.045291 137.571377 
L 57.767149 144.876395 
L 58.489007 133.298213 
L 59.210866 140.603232 
L 59.932724 129.025051 
L 60.654582 136.330069 
L 61.376441 124.751888 
L 62.098299 132.056907 
L 62.820157 120.478726 
L 63.542015 127.783745 
L 64.263874 116.205564 
L 65.70759 130.815601 
L 66.429449 119.23742 
L 67.151307 126.542439 
L 67.873165 114.964258 
L 68.595023 122.269277 
L 69.316882 110.691096 
L 70.03874 117.996115 
L 70.760598 106.417934 
L 72.204315 121.027971 
L 72.926173 109.449791 
L 74.36989 124.059828 
L 75.091748 112.481647 
L 76.535465 127.091684 
L 77.257323 115.513503 
L 77.979181 122.818522 
L 78.701039 111.240341 
L 80.866614 133.155397 
L 81.588473 121.577216 
L 82.310331 128.882235 
L 83.032189 117.304054 
L 83.754047 124.609073 
L 84.475906 113.030892 
L 85.919622 127.640929 
L 86.641481 116.062748 
L 87.363339 123.367767 
L 88.085197 111.789586 
L 88.807055 119.094605 
L 89.528914 107.516424 
L 90.250772 114.821443 
L 90.97263 103.243262 
L 92.416347 117.8533 
L 93.138205 106.275119 
L 93.860064 113.580137 
L 94.581922 102.001957 
L 95.30378 109.306975 
L 96.025638 97.728795 
L 97.469355 112.338832 
L 98.191213 100.760651 
L 98.913072 108.06567 
L 99.63493 96.487489 
L 100.356788 103.792508 
L 101.078646 92.214327 
L 101.800505 99.519346 
L 102.522363 87.941165 
L 103.96608 102.551203 
L 104.687938 90.973022 
L 105.409796 98.278041 
L 106.131654 86.69986 
L 106.853513 94.004879 
L 107.575371 82.426698 
L 108.297229 89.731717 
L 109.019088 78.153536 
L 109.740946 85.458555 
L 110.462804 73.880374 
L 111.906521 88.490412 
L 112.628379 76.912231 
L 114.072096 91.522268 
L 114.793954 79.944088 
L 115.515812 87.249106 
L 116.23767 75.670926 
L 116.959529 82.975944 
L 117.681387 71.397764 
L 118.403245 78.702782 
L 119.125104 67.124602 
L 120.56882 81.734639 
L 121.290678 70.156458 
L 122.012537 77.461477 
L 122.734395 65.883296 
L 123.456253 73.188315 
L 124.178112 61.610134 
L 125.621828 76.220172 
L 126.343686 64.641991 
L 127.065545 71.94701 
L 127.787403 60.368829 
L 128.509261 67.673848 
L 129.23112 56.095667 
L 129.952978 63.400686 
L 130.674836 51.822505 
L 131.396695 59.127524 
L 132.118553 47.549343 
L 132.840411 54.854362 
L 133.562269 43.276181 
L 135.005986 57.886219 
L 135.727844 46.308038 
L 136.449703 53.613057 
L 137.171561 42.034876 
L 140.058994 71.25495 
L 140.780852 59.67677 
L 142.224569 74.286807 
L 142.946427 62.708627 
L 143.668285 70.013645 
L 144.390144 58.435465 
L 145.112002 65.740483 
L 145.83386 54.162303 
L 146.555719 61.467321 
L 147.277577 49.889141 
L 147.999435 57.194159 
L 148.721293 45.615979 
L 150.16501 60.226016 
L 150.886868 48.647835 
L 151.608727 55.952854 
L 152.330585 44.374673 
L 153.052443 51.679692 
L 153.774301 40.101511 
L 154.49616 47.40653 
L 155.218018 35.828349 
L 155.939876 43.133368 
L 156.661735 31.555187 
L 158.105451 46.165225 
L 158.827309 34.587044 
L 160.271026 49.197081 
L 160.992884 37.618901 
L 161.714743 44.923919 
L 162.436601 33.345739 
L 163.880318 47.955776 
L 164.602176 36.377596 
L 166.045892 50.987633 
L 166.767751 39.409452 
L 168.933326 61.324508 
L 169.655184 49.746327 
L 170.377042 57.051346 
L 171.0989 45.473166 
L 171.820759 52.778184 
L 172.542617 41.200004 
L 173.264475 48.505022 
L 173.986334 36.926842 
L 179.039342 88.061972 
L 179.7612 76.483791 
L 181.926775 98.398847 
L 182.648633 86.820667 
L 184.09235 101.430704 
L 184.814208 89.852523 
L 185.536066 97.157542 
L 186.257924 85.579361 
L 186.979783 92.88438 
L 187.701641 81.306199 
L 189.867216 103.221255 
L 190.589074 91.643075 
L 192.032791 106.253112 
L 192.754649 94.674931 
L 193.476507 101.97995 
L 194.198366 90.401769 
L 194.920224 97.706788 
L 195.642082 86.128607 
L 197.085799 100.738645 
L 197.807657 89.160464 
L 198.529515 96.465483 
L 199.251374 84.887302 
L 201.416949 106.802358 
L 202.138807 95.224177 
L 204.304382 117.139233 
L 205.02624 105.561052 
L 205.748098 112.866071 
L 206.469957 101.28789 
L 207.913673 115.897928 
L 208.635531 104.319747 
L 209.35739 111.624766 
L 210.079248 100.046585 
L 210.801106 107.351604 
L 211.522965 95.773423 
L 212.966681 110.38346 
L 213.688539 98.80528 
L 214.410398 106.110298 
L 215.132256 94.532118 
L 215.854114 101.837136 
L 216.575973 90.258956 
L 219.463406 119.47903 
L 220.185264 107.900849 
L 223.794555 144.425943 
L 224.516414 132.847761 
L 225.238272 140.15278 
L 225.96013 128.574598 
L 226.681989 135.879617 
L 227.403847 124.301436 
L 230.29128 153.52151 
L 231.013138 141.943327 
L 231.734997 149.248346 
L 232.456855 137.670164 
L 233.178713 144.975182 
L 233.900572 133.397001 
L 236.066146 155.312056 
L 236.788005 143.733873 
L 238.231721 158.34391 
L 238.95358 146.765726 
L 239.675438 154.070744 
L 240.397296 142.492561 
L 241.119154 149.79758 
L 241.841013 138.219398 
L 242.562871 145.524416 
L 243.284729 133.946234 
L 245.450304 155.86129 
L 246.172162 144.283107 
L 246.894021 151.588125 
L 247.615879 140.009943 
L 249.059596 154.61998 
L 249.781454 143.041797 
L 251.22517 157.651834 
L 251.947029 146.07365 
L 252.668887 153.378668 
L 253.390745 141.800485 
L 257.721895 185.630597 
L 258.443753 174.052365 
L 259.88747 188.662402 
L 260.609328 177.084152 
L 261.331186 184.389171 
L 262.053045 172.810944 
L 262.774903 180.115963 
L 263.496761 168.537752 
L 264.940478 183.147789 
L 265.662336 171.569567 
L 267.106053 186.179605 
L 267.827911 174.601369 
L 272.159061 218.431481 
L 272.880919 206.852137 
L 273.602777 214.157156 
L 274.324636 202.578199 
L 275.768352 217.188237 
L 276.490211 205.609022 
L 279.377644 234.829096 
L 280.099502 223.245402 
L 282.265077 245.160458 
L 282.986935 233.567589 
L 283.708793 240.872608 
L 284.430652 229.284647 
L 285.15251 236.589665 
L 285.874368 225.004969 
L 286.596227 232.309988 
L 287.318085 220.727466 
L 288.761801 235.337503 
L 289.48366 223.753536 
L 290.205518 231.058555 
L 290.927376 219.476519 
L 291.649235 226.781538 
L 292.371093 215.200787 
L 293.092951 222.505806 
L 293.814809 210.925913 
L 294.536668 218.230931 
L 295.258526 206.651609 
L 298.145959 235.871684 
L 298.867818 224.287417 
L 300.311534 238.897454 
L 301.033392 227.311163 
L 302.477109 241.921201 
L 303.198967 230.332216 
L 306.0864 259.552291 
L 306.808259 247.916677 
L 308.973834 269.831733 
L 309.695692 258.101911 
L 310.41755 265.40693 
L 311.139408 253.728853 
L 311.861267 261.033872 
L 312.583125 249.389616 
L 316.192416 285.91471 
L 316.914275 273.656363 
L 319.801708 302.876437 
L 319.801708 302.876437 
" style="fill:none;stroke:#1f77b4;stroke-linecap:square;stroke-width:0.666667;"/>
   </g>
   <g id="line2d_14">
    <path clip-path="url(#pd03442baca)" d="M 54.879716 156.109251 
L 55.601574 144.531067 
L 57.045291 159.141104 
L 57.767149 147.562919 
L 58.489007 154.867938 
L 59.210866 143.289754 
L 59.932724 150.594773 
L 60.654582 139.016591 
L 62.098299 153.626628 
L 62.820157 142.048445 
L 63.542015 149.353463 
L 64.263874 137.775281 
L 65.70759 152.385318 
L 66.429449 140.807136 
L 67.151307 148.112154 
L 67.873165 136.533972 
L 68.595023 143.838991 
L 69.316882 132.260809 
L 70.03874 139.565828 
L 70.760598 127.987647 
L 72.204315 142.597684 
L 72.926173 131.019502 
L 73.648031 138.324521 
L 74.36989 126.74634 
L 75.091748 134.051359 
L 75.813606 122.473178 
L 76.535465 129.778196 
L 77.257323 118.200015 
L 77.979181 125.505034 
L 78.701039 113.926853 
L 79.422898 121.231872 
L 80.144756 109.653691 
L 80.866614 116.95871 
L 81.588473 105.380529 
L 83.032189 119.990566 
L 83.754047 108.412386 
L 84.475906 115.717404 
L 85.197764 104.139224 
L 85.919622 111.444242 
L 86.641481 99.866062 
L 87.363339 107.17108 
L 88.085197 95.5929 
L 88.807055 102.897918 
L 89.528914 91.319738 
L 90.250772 98.624756 
L 90.97263 87.046576 
L 91.694489 94.351594 
L 92.416347 82.773414 
L 93.138205 90.078432 
L 93.860064 78.500252 
L 95.30378 93.110289 
L 96.025638 81.532108 
L 96.747497 88.837127 
L 97.469355 77.258946 
L 98.191213 84.563965 
L 98.913072 72.985784 
L 103.96608 124.120915 
L 104.687938 112.542734 
L 105.409796 119.847753 
L 106.131654 108.269572 
L 108.297229 130.184628 
L 109.019088 118.606447 
L 109.740946 125.911466 
L 110.462804 114.333285 
L 111.184662 121.638304 
L 111.906521 110.060123 
L 112.628379 117.365141 
L 113.350237 105.786961 
L 114.072096 113.091979 
L 114.793954 101.513799 
L 115.515812 108.818817 
L 116.23767 97.240637 
L 116.959529 104.545655 
L 117.681387 92.967475 
L 118.403245 100.272493 
L 119.125104 88.694313 
L 121.290678 110.609369 
L 122.012537 99.031188 
L 122.734395 106.336207 
L 123.456253 94.758026 
L 124.178112 102.063045 
L 124.89997 90.484864 
L 126.343686 105.094901 
L 127.065545 93.516721 
L 127.787403 100.821739 
L 128.509261 89.243559 
L 129.952978 103.853596 
L 130.674836 92.275415 
L 131.396695 99.580434 
L 132.118553 88.002253 
L 133.562269 102.612291 
L 134.284128 91.03411 
L 135.005986 98.339129 
L 135.727844 86.760948 
L 137.171561 101.370985 
L 137.893419 89.792805 
L 138.615277 97.097823 
L 139.337136 85.519643 
L 140.058994 92.824661 
L 140.780852 81.246481 
L 141.502711 88.551499 
L 142.224569 76.973319 
L 144.390144 98.888375 
L 145.112002 87.310194 
L 147.999435 116.530269 
L 148.721293 104.952088 
L 149.443152 112.257107 
L 150.16501 100.678926 
L 150.886868 107.983945 
L 151.608727 96.405764 
L 152.330585 103.710783 
L 153.052443 92.132602 
L 153.774301 99.437621 
L 154.49616 87.85944 
L 155.939876 102.469477 
L 156.661735 90.891297 
L 158.827309 112.806352 
L 159.549168 101.228172 
L 162.436601 130.448246 
L 163.158459 118.870065 
L 164.602176 133.480103 
L 165.324034 121.901922 
L 166.045892 129.20694 
L 166.767751 117.62876 
L 167.489609 124.933778 
L 168.211467 113.355597 
L 168.933326 120.660616 
L 169.655184 109.082435 
L 172.542617 138.30251 
L 173.264475 126.724329 
L 174.708192 141.334366 
L 175.43005 129.756185 
L 177.595625 151.67124 
L 178.317483 140.093058 
L 180.483058 162.008114 
L 181.204916 150.429928 
L 181.926775 157.734946 
L 182.648633 146.156762 
L 183.370491 153.461781 
L 184.09235 141.883598 
L 184.814208 149.188616 
L 185.536066 137.610434 
L 186.979783 152.220471 
L 187.701641 140.642288 
L 189.145358 155.252326 
L 189.867216 143.674142 
L 191.310932 158.284179 
L 192.032791 146.705995 
L 192.754649 154.011014 
L 193.476507 142.43283 
L 194.198366 149.737849 
L 194.920224 138.159667 
L 195.642082 145.464685 
L 196.363941 133.886504 
L 197.085799 141.191522 
L 197.807657 129.613341 
L 199.973232 151.528397 
L 200.69509 139.950214 
L 201.416949 147.255233 
L 202.138807 135.677051 
L 202.860665 142.982069 
L 203.582523 131.403888 
L 205.748098 153.318944 
L 206.469957 141.740761 
L 207.191815 149.045779 
L 207.913673 137.467597 
L 208.635531 144.772616 
L 209.35739 133.194434 
L 211.522965 155.10949 
L 212.244823 143.531307 
L 212.966681 150.836325 
L 213.688539 139.258143 
L 214.410398 146.563161 
L 215.132256 134.98498 
L 215.854114 142.289998 
L 216.575973 130.711817 
L 217.297831 138.016835 
L 218.019689 126.438654 
L 218.741547 133.743673 
L 219.463406 122.165492 
L 220.907122 136.775529 
L 221.628981 125.197348 
L 222.350839 132.502367 
L 223.072697 120.924186 
L 223.794555 128.229204 
L 224.516414 116.651024 
L 225.238272 123.956042 
L 225.96013 112.377861 
L 227.403847 126.987899 
L 228.125705 115.409718 
L 230.29128 137.324774 
L 231.013138 125.746593 
L 231.734997 133.051611 
L 232.456855 121.47343 
L 233.900572 136.083468 
L 234.62243 124.505287 
L 235.344288 131.810305 
L 236.066146 120.232124 
L 236.788005 127.537143 
L 237.509863 115.958962 
L 238.231721 123.263981 
L 238.95358 111.6858 
L 239.675438 118.990819 
L 240.397296 107.412638 
L 241.119154 114.717657 
L 241.841013 103.139476 
L 244.006588 125.054532 
L 244.728446 113.476351 
L 246.172162 128.086388 
L 246.894021 116.508208 
L 247.615879 123.813226 
L 248.337737 112.235045 
L 249.781454 126.845083 
L 250.503312 115.266902 
L 251.22517 122.57192 
L 251.947029 110.99374 
L 252.668887 118.298758 
L 253.390745 106.720578 
L 254.834462 121.330615 
L 255.55632 109.752434 
L 257.000037 124.362472 
L 257.721895 112.784291 
L 258.443753 120.089309 
L 259.165612 108.511129 
L 259.88747 115.816147 
L 260.609328 104.237967 
L 261.331186 111.542985 
L 262.053045 99.964805 
L 265.662336 136.489898 
L 266.384195 124.911717 
L 267.827911 139.521754 
L 268.549769 127.943573 
L 269.993486 142.55361 
L 270.715344 130.975429 
L 271.437203 138.280447 
L 272.159061 126.702266 
L 272.880919 134.007285 
L 273.602777 122.429104 
L 275.046494 137.039141 
L 275.768352 125.46096 
L 276.490211 132.765978 
L 277.212069 121.187797 
L 277.933927 128.492816 
L 278.655785 116.914635 
L 279.377644 124.219654 
L 280.099502 112.641473 
L 281.543219 127.25151 
L 282.265077 115.67333 
L 285.15251 144.893404 
L 285.874368 133.315222 
L 287.318085 147.92526 
L 288.039943 136.347078 
L 290.927376 165.567152 
L 291.649235 153.988964 
L 292.371093 161.293982 
L 293.092951 149.715797 
L 293.814809 157.020815 
L 294.536668 145.442631 
L 295.980384 160.052669 
L 296.702243 148.474483 
L 297.424101 155.779502 
L 298.145959 144.201318 
L 299.589676 158.811356 
L 300.311534 147.233171 
L 301.033392 154.53819 
L 301.755251 142.960006 
L 303.198967 157.570044 
L 303.920826 145.991859 
L 305.364542 160.601897 
L 306.0864 149.023711 
L 307.530117 163.633749 
L 308.251975 152.055561 
L 310.41755 173.970617 
L 311.139408 162.39242 
L 313.304983 184.307476 
L 314.026842 172.729249 
L 316.192416 194.644305 
L 316.914275 183.066003 
L 317.636133 190.371021 
L 318.357991 178.79276 
L 319.07985 186.097778 
L 319.801708 174.519544 
L 320.523566 181.824562 
L 321.245424 170.246346 
L 322.689141 184.856383 
L 323.410999 173.278154 
L 325.576574 195.19321 
L 326.298432 183.614901 
L 327.020291 190.91992 
L 327.742149 179.341654 
L 328.464007 186.646672 
L 329.185866 175.068435 
L 331.351441 196.98349 
L 332.073299 185.405158 
L 333.517015 200.015195 
L 334.238874 188.436812 
L 335.68259 203.046849 
L 336.404449 191.468398 
L 339.291882 220.688473 
L 340.01374 209.108851 
L 342.901173 238.328925 
L 343.623031 226.74306 
L 345.066748 241.353098 
L 345.788606 229.76468 
L 346.510465 237.069699 
L 347.232323 225.484699 
L 347.954181 232.789718 
L 348.676039 221.206993 
L 351.563473 250.427068 
L 352.285331 238.824688 
L 353.729047 253.434725 
L 354.450906 241.824364 
L 356.616481 263.73942 
L 357.338339 252.075904 
L 358.782055 266.685941 
L 359.503914 254.995044 
L 360.225772 262.300063 
L 360.94763 250.647402 
L 361.669489 257.95242 
L 362.391347 246.324877 
L 363.113205 253.629896 
L 363.835064 242.018935 
L 364.556922 249.323953 
L 365.27878 237.723975 
L 366.722497 252.334013 
L 367.444355 240.726839 
L 368.888072 255.336876 
L 369.60993 243.720162 
L 370.331788 251.025181 
L 371.053646 239.421389 
L 372.497363 254.031427 
L 373.219221 242.419195 
L 373.94108 249.724213 
L 374.662938 238.123393 
L 375.384796 245.428411 
L 376.106654 233.835164 
L 377.550371 248.445202 
L 378.272229 236.846966 
L 378.994088 244.151985 
L 379.715946 232.560455 
L 380.437804 239.865474 
L 381.159662 228.278403 
L 381.881521 235.583422 
L 382.603379 223.999319 
L 384.047096 238.609356 
L 384.768954 227.023284 
L 386.934529 248.93834 
L 387.656387 237.339145 
L 388.378245 244.644163 
L 389.100104 233.051996 
L 389.821962 240.357015 
L 390.54382 228.76952 
L 391.987537 243.379557 
L 392.709395 231.788971 
L 393.431253 239.093989 
L 394.153112 227.507546 
L 395.596828 242.117583 
L 396.318686 230.528396 
L 397.040545 237.833415 
L 397.762403 226.247903 
L 398.484261 233.552921 
L 399.20612 221.969856 
L 399.927978 229.274875 
L 400.649836 217.693439 
L 401.371695 224.998457 
L 402.093553 213.418107 
L 402.815411 220.723126 
L 403.537269 209.143499 
L 405.702844 231.058555 
L 406.424703 219.476519 
L 407.146561 226.781538 
L 407.868419 215.200787 
L 408.590277 222.505806 
L 409.312136 210.925913 
L 410.033994 218.230931 
L 410.755852 206.651609 
L 413.643285 235.871684 
L 414.365144 224.287417 
L 415.80886 238.897454 
L 416.530719 227.311163 
L 417.974435 241.921201 
L 418.696293 230.332216 
L 421.583727 259.552291 
L 422.305585 247.916677 
L 424.47116 269.831733 
L 425.193018 258.101911 
L 425.914876 265.40693 
L 426.636735 253.728853 
L 427.358593 261.033872 
L 428.080451 249.389616 
L 431.689743 285.91471 
L 432.411601 273.656363 
L 435.299034 302.876437 
L 435.299034 302.876437 
" style="fill:none;stroke:#ff7f0e;stroke-linecap:square;stroke-width:0.666667;"/>
   </g>
   <g id="patch_3">
    <path d="M 35.85875 316.4425 
L 35.85875 17.989125 
" style="fill:none;stroke:#000000;stroke-linecap:square;stroke-linejoin:miter;stroke-width:0.8;"/>
   </g>
   <g id="patch_4">
    <path d="M 454.32 316.4425 
L 454.32 17.989125 
" style="fill:none;stroke:#000000;stroke-linecap:square;stroke-linejoin:miter;stroke-width:0.8;"/>
   </g>
   <g id="patch_5">
    <path d="M 35.85875 316.4425 
L 454.32 316.4425 
" style="fill:none;stroke:#000000;stroke-linecap:square;stroke-linejoin:miter;stroke-width:0.8;"/>
   </g>
   <g id="patch_6">
    <path d="M 35.85875 17.989125 
L 454.32 17.989125 
" style="fill:none;stroke:#000000;stroke-linecap:square;stroke-linejoin:miter;stroke-width:0.8;"/>
   </g>
   <g id="text_15">
    <!-- "3y+1" problem -->
    <g transform="translate(214.747 11.989125)scale(0.072 -0.072)">
     <defs>
      <path d="M 43.703125 72.90625 
L 43.703125 45.796875 
L 35.203125 45.796875 
L 35.203125 72.90625 
z
M 25 72.90625 
L 25 45.796875 
L 16.5 45.796875 
L 16.5 72.90625 
z
" id="DejaVuSansMono-34"/>
      <path d="M 34.1875 57.171875 
L 34.1875 35.5 
L 55.90625 35.5 
L 55.90625 27.203125 
L 34.1875 27.203125 
L 34.1875 5.515625 
L 25.984375 5.515625 
L 25.984375 27.203125 
L 4.296875 27.203125 
L 4.296875 35.5 
L 25.984375 35.5 
L 25.984375 57.171875 
z
" id="DejaVuSansMono-43"/>
      <path id="DejaVuSansMono-32"/>
      <path d="M 18.3125 6.890625 
L 18.3125 -20.796875 
L 9.28125 -20.796875 
L 9.28125 54.6875 
L 18.3125 54.6875 
L 18.3125 47.703125 
Q 20.5625 51.765625 24.296875 53.875 
Q 28.03125 56 32.90625 56 
Q 42.828125 56 48.46875 48.328125 
Q 54.109375 40.671875 54.109375 27.09375 
Q 54.109375 13.765625 48.4375 6.171875 
Q 42.78125 -1.421875 32.90625 -1.421875 
Q 27.9375 -1.421875 24.1875 0.703125 
Q 20.453125 2.828125 18.3125 6.890625 
z
M 44.671875 27.296875 
Q 44.671875 37.75 41.375 43.0625 
Q 38.09375 48.390625 31.59375 48.390625 
Q 25.046875 48.390625 21.671875 43.046875 
Q 18.3125 37.703125 18.3125 27.296875 
Q 18.3125 16.9375 21.671875 11.5625 
Q 25.046875 6.203125 31.59375 6.203125 
Q 38.09375 6.203125 41.375 11.515625 
Q 44.671875 16.84375 44.671875 27.296875 
z
" id="DejaVuSansMono-112"/>
      <path d="M 56.390625 43.40625 
Q 53.515625 45.65625 50.53125 46.671875 
Q 47.5625 47.703125 44 47.703125 
Q 35.59375 47.703125 31.140625 42.421875 
Q 26.703125 37.15625 26.703125 27.203125 
L 26.703125 0 
L 17.671875 0 
L 17.671875 54.6875 
L 26.703125 54.6875 
L 26.703125 44 
Q 28.953125 49.8125 33.609375 52.90625 
Q 38.28125 56 44.671875 56 
Q 48 56 50.875 55.171875 
Q 53.765625 54.34375 56.390625 52.59375 
z
" id="DejaVuSansMono-114"/>
      <path d="M 30.078125 48.390625 
Q 23.25 48.390625 19.734375 43.0625 
Q 16.21875 37.75 16.21875 27.296875 
Q 16.21875 16.890625 19.734375 11.546875 
Q 23.25 6.203125 30.078125 6.203125 
Q 36.96875 6.203125 40.484375 11.546875 
Q 44 16.890625 44 27.296875 
Q 44 37.75 40.484375 43.0625 
Q 36.96875 48.390625 30.078125 48.390625 
z
M 30.078125 56 
Q 41.453125 56 47.484375 48.625 
Q 53.515625 41.265625 53.515625 27.296875 
Q 53.515625 13.28125 47.5 5.921875 
Q 41.5 -1.421875 30.078125 -1.421875 
Q 18.703125 -1.421875 12.6875 5.921875 
Q 6.6875 13.28125 6.6875 27.296875 
Q 6.6875 41.265625 12.6875 48.625 
Q 18.703125 56 30.078125 56 
z
" id="DejaVuSansMono-111"/>
      <path d="M 44.828125 27.296875 
Q 44.828125 37.75 41.5 43.0625 
Q 38.1875 48.390625 31.6875 48.390625 
Q 25.140625 48.390625 21.765625 43.046875 
Q 18.40625 37.703125 18.40625 27.296875 
Q 18.40625 16.9375 21.765625 11.5625 
Q 25.140625 6.203125 31.6875 6.203125 
Q 38.1875 6.203125 41.5 11.515625 
Q 44.828125 16.84375 44.828125 27.296875 
z
M 18.40625 47.703125 
Q 20.5625 51.703125 24.34375 53.84375 
Q 28.125 56 33.109375 56 
Q 42.96875 56 48.625 48.40625 
Q 54.296875 40.828125 54.296875 27.484375 
Q 54.296875 13.96875 48.609375 6.265625 
Q 42.921875 -1.421875 33.015625 -1.421875 
Q 28.125 -1.421875 24.390625 0.703125 
Q 20.65625 2.828125 18.40625 6.890625 
L 18.40625 0 
L 9.421875 0 
L 9.421875 75.984375 
L 18.40625 75.984375 
z
" id="DejaVuSansMono-98"/>
      <path d="M 31.203125 19.828125 
Q 31.203125 13.765625 33.421875 10.6875 
Q 35.640625 7.625 39.984375 7.625 
L 50.484375 7.625 
L 50.484375 0 
L 39.109375 0 
Q 31.0625 0 26.640625 5.171875 
Q 22.21875 10.359375 22.21875 19.828125 
L 22.21875 69.484375 
L 7.8125 69.484375 
L 7.8125 76.515625 
L 31.203125 76.515625 
z
" id="DejaVuSansMono-108"/>
      <path d="M 54.296875 29.59375 
L 54.296875 25.203125 
L 15.375 25.203125 
L 15.375 24.90625 
Q 15.375 15.96875 20.03125 11.078125 
Q 24.703125 6.203125 33.203125 6.203125 
Q 37.5 6.203125 42.1875 7.5625 
Q 46.875 8.9375 52.203125 11.71875 
L 52.203125 2.78125 
Q 47.078125 0.6875 42.3125 -0.359375 
Q 37.546875 -1.421875 33.109375 -1.421875 
Q 20.359375 -1.421875 13.171875 6.21875 
Q 6 13.875 6 27.296875 
Q 6 40.375 13.03125 48.1875 
Q 20.0625 56 31.78125 56 
Q 42.234375 56 48.265625 48.921875 
Q 54.296875 41.84375 54.296875 29.59375 
z
M 45.3125 32.234375 
Q 45.125 40.140625 41.578125 44.265625 
Q 38.03125 48.390625 31.390625 48.390625 
Q 24.90625 48.390625 20.703125 44.09375 
Q 16.5 39.796875 15.71875 32.171875 
z
" id="DejaVuSansMono-101"/>
      <path d="M 33.015625 49.125 
Q 34.671875 52.640625 37.234375 54.3125 
Q 39.796875 56 43.40625 56 
Q 50 56 52.703125 50.890625 
Q 55.421875 45.796875 55.421875 31.6875 
L 55.421875 0 
L 47.21875 0 
L 47.21875 31.296875 
Q 47.21875 42.875 45.921875 45.671875 
Q 44.625 48.484375 41.21875 48.484375 
Q 37.3125 48.484375 35.859375 45.484375 
Q 34.421875 42.484375 34.421875 31.296875 
L 34.421875 0 
L 26.21875 0 
L 26.21875 31.296875 
Q 26.21875 43.015625 24.828125 45.75 
Q 23.4375 48.484375 19.828125 48.484375 
Q 16.265625 48.484375 14.875 45.484375 
Q 13.484375 42.484375 13.484375 31.296875 
L 13.484375 0 
L 5.328125 0 
L 5.328125 54.6875 
L 13.484375 54.6875 
L 13.484375 50 
Q 15.09375 52.9375 17.5 54.46875 
Q 19.921875 56 23 56 
Q 26.703125 56 29.171875 54.296875 
Q 31.640625 52.59375 33.015625 49.125 
z
" id="DejaVuSansMono-109"/>
     </defs>
     <use xlink:href="#DejaVuSansMono-34"/>
     <use x="60.205078" xlink:href="#DejaVuSansMono-51"/>
     <use x="120.410156" xlink:href="#DejaVuSansMono-121"/>
     <use x="180.615234" xlink:href="#DejaVuSansMono-43"/>
     <use x="240.820312" xlink:href="#DejaVuSansMono-49"/>
     <use x="301.025391" xlink:href="#DejaVuSansMono-34"/>
     <use x="361.230469" xlink:href="#DejaVuSansMono-32"/>
     <use x="421.435547" xlink:href="#DejaVuSansMono-112"/>
     <use x="481.640625" xlink:href="#DejaVuSansMono-114"/>
     <use x="541.845703" xlink:href="#DejaVuSansMono-111"/>
     <use x="602.050781" xlink:href="#DejaVuSansMono-98"/>
     <use x="662.255859" xlink:href="#DejaVuSansMono-108"/>
     <use x="722.460938" xlink:href="#DejaVuSansMono-101"/>
     <use x="782.666016" xlink:href="#DejaVuSansMono-109"/>
    </g>
   </g>
   <g id="legend_1">
    <g id="patch_7">
     <path d="M 355.064062 82.0095 
L 450.12 82.0095 
Q 451.32 82.0095 451.32 80.8095 
L 451.32 22.189125 
Q 451.32 20.989125 450.12 20.989125 
L 355.064062 20.989125 
Q 353.864062 20.989125 353.864062 22.189125 
L 353.864062 80.8095 
Q 353.864062 82.0095 355.064062 82.0095 
z
" style="fill:#ffffff;opacity:0.8;stroke:#cccccc;stroke-linejoin:miter;"/>
    </g>
    <g id="line2d_15">
     <path d="M 356.264062 36.889687 
L 368.264062 36.889687 
" style="fill:none;stroke:#1f77b4;stroke-linecap:square;stroke-width:0.666667;"/>
    </g>
    <g id="line2d_16"/>
    <g id="text_16">
     <!-- "Tallest": -->
     <g transform="translate(373.064062 27.980062)scale(0.06 -0.06)">
      <defs>
       <path d="M 2.296875 72.90625 
L 57.90625 72.90625 
L 57.90625 64.59375 
L 35.109375 64.59375 
L 35.109375 0 
L 25.203125 0 
L 25.203125 64.59375 
L 2.296875 64.59375 
z
" id="DejaVuSansMono-84"/>
       <path d="M 34.28125 27.484375 
L 31.296875 27.484375 
Q 23.4375 27.484375 19.453125 24.71875 
Q 15.484375 21.96875 15.484375 16.5 
Q 15.484375 11.578125 18.453125 8.84375 
Q 21.4375 6.109375 26.703125 6.109375 
Q 34.125 6.109375 38.375 11.25 
Q 42.625 16.40625 42.671875 25.484375 
L 42.671875 27.484375 
z
M 51.703125 31.203125 
L 51.703125 0 
L 42.671875 0 
L 42.671875 8.109375 
Q 39.796875 3.21875 35.421875 0.890625 
Q 31.0625 -1.421875 24.8125 -1.421875 
Q 16.453125 -1.421875 11.46875 3.296875 
Q 6.5 8.015625 6.5 15.921875 
Q 6.5 25.046875 12.625 29.78125 
Q 18.75 34.515625 30.609375 34.515625 
L 42.671875 34.515625 
L 42.671875 35.9375 
Q 42.625 42.484375 39.34375 45.4375 
Q 36.078125 48.390625 28.90625 48.390625 
Q 24.3125 48.390625 19.625 47.0625 
Q 14.9375 45.75 10.5 43.21875 
L 10.5 52.203125 
Q 15.484375 54.109375 20.046875 55.046875 
Q 24.609375 56 28.90625 56 
Q 35.6875 56 40.5 54 
Q 45.3125 52 48.296875 48 
Q 50.140625 45.5625 50.921875 41.96875 
Q 51.703125 38.375 51.703125 31.203125 
z
" id="DejaVuSansMono-97"/>
       <path d="M 47.515625 52.78125 
L 47.515625 44 
Q 43.65625 46.234375 39.75 47.359375 
Q 35.84375 48.484375 31.78125 48.484375 
Q 25.6875 48.484375 22.671875 46.5 
Q 19.671875 44.53125 19.671875 40.484375 
Q 19.671875 36.8125 21.921875 35 
Q 24.171875 33.203125 33.109375 31.5 
L 36.71875 30.8125 
Q 43.40625 29.546875 46.84375 25.734375 
Q 50.296875 21.921875 50.296875 15.828125 
Q 50.296875 7.71875 44.53125 3.140625 
Q 38.765625 -1.421875 28.515625 -1.421875 
Q 24.46875 -1.421875 20.015625 -0.5625 
Q 15.578125 0.296875 10.40625 2 
L 10.40625 11.28125 
Q 15.4375 8.6875 20.015625 7.390625 
Q 24.609375 6.109375 28.71875 6.109375 
Q 34.671875 6.109375 37.9375 8.515625 
Q 41.21875 10.9375 41.21875 15.28125 
Q 41.21875 21.53125 29.25 23.921875 
L 28.859375 24.03125 
L 25.484375 24.703125 
Q 17.71875 26.21875 14.15625 29.8125 
Q 10.59375 33.40625 10.59375 39.59375 
Q 10.59375 47.46875 15.90625 51.734375 
Q 21.234375 56 31.109375 56 
Q 35.5 56 39.546875 55.1875 
Q 43.609375 54.390625 47.515625 52.78125 
z
" id="DejaVuSansMono-115"/>
       <path d="M 29.984375 70.21875 
L 29.984375 54.6875 
L 50.390625 54.6875 
L 50.390625 47.703125 
L 29.984375 47.703125 
L 29.984375 18.015625 
Q 29.984375 11.96875 32.28125 9.5625 
Q 34.578125 7.171875 40.28125 7.171875 
L 50.390625 7.171875 
L 50.390625 0 
L 39.40625 0 
Q 29.296875 0 25.140625 4.046875 
Q 21 8.109375 21 18.015625 
L 21 47.703125 
L 6.390625 47.703125 
L 6.390625 54.6875 
L 21 54.6875 
L 21 70.21875 
z
" id="DejaVuSansMono-116"/>
       <path d="M 23.875 51.90625 
L 36.1875 51.90625 
L 36.1875 37.109375 
L 23.875 37.109375 
z
M 23.875 14.890625 
L 36.1875 14.890625 
L 36.1875 0 
L 23.875 0 
z
" id="DejaVuSansMono-58"/>
      </defs>
      <use xlink:href="#DejaVuSansMono-34"/>
      <use x="60.205078" xlink:href="#DejaVuSansMono-84"/>
      <use x="120.410156" xlink:href="#DejaVuSansMono-97"/>
      <use x="180.615234" xlink:href="#DejaVuSansMono-108"/>
      <use x="240.820312" xlink:href="#DejaVuSansMono-108"/>
      <use x="301.025391" xlink:href="#DejaVuSansMono-101"/>
      <use x="361.230469" xlink:href="#DejaVuSansMono-115"/>
      <use x="421.435547" xlink:href="#DejaVuSansMono-116"/>
      <use x="481.640625" xlink:href="#DejaVuSansMono-34"/>
      <use x="541.845703" xlink:href="#DejaVuSansMono-58"/>
     </g>
     <!-- y_0    = 1441407 -->
     <g transform="translate(373.064062 34.737)scale(0.06 -0.06)">
      <defs>
       <path d="M 4.296875 25.59375 
L 55.90625 25.59375 
L 55.90625 17.1875 
L 4.296875 17.1875 
z
M 4.296875 45.40625 
L 55.90625 45.40625 
L 55.90625 37.109375 
L 4.296875 37.109375 
z
" id="DejaVuSansMono-61"/>
      </defs>
      <use xlink:href="#DejaVuSansMono-121"/>
      <use x="60.205078" xlink:href="#DejaVuSansMono-95"/>
      <use x="120.410156" xlink:href="#DejaVuSansMono-48"/>
      <use x="180.615234" xlink:href="#DejaVuSansMono-32"/>
      <use x="240.820312" xlink:href="#DejaVuSansMono-32"/>
      <use x="301.025391" xlink:href="#DejaVuSansMono-32"/>
      <use x="361.230469" xlink:href="#DejaVuSansMono-32"/>
      <use x="421.435547" xlink:href="#DejaVuSansMono-61"/>
      <use x="481.640625" xlink:href="#DejaVuSansMono-32"/>
      <use x="541.845703" xlink:href="#DejaVuSansMono-49"/>
      <use x="602.050781" xlink:href="#DejaVuSansMono-52"/>
      <use x="662.255859" xlink:href="#DejaVuSansMono-52"/>
      <use x="722.460938" xlink:href="#DejaVuSansMono-49"/>
      <use x="782.666016" xlink:href="#DejaVuSansMono-52"/>
      <use x="842.871094" xlink:href="#DejaVuSansMono-48"/>
      <use x="903.076172" xlink:href="#DejaVuSansMono-55"/>
     </g>
     <!-- y_max  = 151629574372 -->
     <g transform="translate(373.064062 41.660812)scale(0.06 -0.06)">
      <defs>
       <path d="M 54.59375 54.6875 
L 35.015625 28.515625 
L 56.5 0 
L 46.09375 0 
L 30.078125 21.921875 
L 14.109375 0 
L 3.71875 0 
L 25.203125 28.515625 
L 5.609375 54.6875 
L 15.578125 54.6875 
L 30.078125 34.90625 
L 44.484375 54.6875 
z
" id="DejaVuSansMono-120"/>
       <path d="M 48.390625 71.296875 
L 48.390625 62.203125 
Q 45.3125 64.015625 41.84375 64.96875 
Q 38.375 65.921875 34.625 65.921875 
Q 25.25 65.921875 20.40625 58.859375 
Q 15.578125 51.8125 15.578125 38.09375 
Q 17.921875 42.96875 22.0625 45.578125 
Q 26.21875 48.1875 31.59375 48.1875 
Q 42.140625 48.1875 47.921875 41.71875 
Q 53.71875 35.25 53.71875 23.390625 
Q 53.71875 11.578125 47.75 5.078125 
Q 41.796875 -1.421875 31 -1.421875 
Q 18.3125 -1.421875 12.40625 7.6875 
Q 6.5 16.796875 6.5 36.375 
Q 6.5 54.828125 13.59375 64.515625 
Q 20.703125 74.21875 34.1875 74.21875 
Q 37.796875 74.21875 41.40625 73.453125 
Q 45.015625 72.703125 48.390625 71.296875 
z
M 30.8125 40.484375 
Q 24.515625 40.484375 20.890625 35.9375 
Q 17.28125 31.390625 17.28125 23.390625 
Q 17.28125 15.375 20.890625 10.828125 
Q 24.515625 6.296875 30.8125 6.296875 
Q 37.359375 6.296875 40.671875 10.609375 
Q 44 14.9375 44 23.390625 
Q 44 31.890625 40.671875 36.1875 
Q 37.359375 40.484375 30.8125 40.484375 
z
" id="DejaVuSansMono-54"/>
      </defs>
      <use xlink:href="#DejaVuSansMono-121"/>
      <use x="60.205078" xlink:href="#DejaVuSansMono-95"/>
      <use x="120.410156" xlink:href="#DejaVuSansMono-109"/>
      <use x="180.615234" xlink:href="#DejaVuSansMono-97"/>
      <use x="240.820312" xlink:href="#DejaVuSansMono-120"/>
      <use x="301.025391" xlink:href="#DejaVuSansMono-32"/>
      <use x="361.230469" xlink:href="#DejaVuSansMono-32"/>
      <use x="421.435547" xlink:href="#DejaVuSansMono-61"/>
      <use x="481.640625" xlink:href="#DejaVuSansMono-32"/>
      <use x="541.845703" xlink:href="#DejaVuSansMono-49"/>
      <use x="602.050781" xlink:href="#DejaVuSansMono-53"/>
      <use x="662.255859" xlink:href="#DejaVuSansMono-49"/>
      <use x="722.460938" xlink:href="#DejaVuSansMono-54"/>
      <use x="782.666016" xlink:href="#DejaVuSansMono-50"/>
      <use x="842.871094" xlink:href="#DejaVuSansMono-57"/>
      <use x="903.076172" xlink:href="#DejaVuSansMono-53"/>
      <use x="963.28125" xlink:href="#DejaVuSansMono-55"/>
      <use x="1023.486328" xlink:href="#DejaVuSansMono-52"/>
      <use x="1083.691406" xlink:href="#DejaVuSansMono-51"/>
      <use x="1143.896484" xlink:href="#DejaVuSansMono-55"/>
      <use x="1204.101562" xlink:href="#DejaVuSansMono-50"/>
     </g>
     <!-- x_max  = 368 -->
     <g transform="translate(373.064062 48.584625)scale(0.06 -0.06)">
      <defs>
       <path d="M 30.078125 34.625 
Q 23.484375 34.625 19.890625 30.9375 
Q 16.3125 27.25 16.3125 20.515625 
Q 16.3125 13.765625 19.9375 10.03125 
Q 23.578125 6.296875 30.078125 6.296875 
Q 36.71875 6.296875 40.296875 9.984375 
Q 43.890625 13.671875 43.890625 20.515625 
Q 43.890625 27.203125 40.25 30.90625 
Q 36.625 34.625 30.078125 34.625 
z
M 21.484375 38.71875 
Q 15.1875 40.328125 11.640625 44.71875 
Q 8.109375 49.125 8.109375 55.328125 
Q 8.109375 64.015625 14.015625 69.109375 
Q 19.921875 74.21875 30.078125 74.21875 
Q 40.28125 74.21875 46.1875 69.109375 
Q 52.09375 64.015625 52.09375 55.328125 
Q 52.09375 49.125 48.546875 44.71875 
Q 45.015625 40.328125 38.71875 38.71875 
Q 46.046875 37.109375 49.921875 32.21875 
Q 53.8125 27.34375 53.8125 19.578125 
Q 53.8125 9.71875 47.515625 4.140625 
Q 41.21875 -1.421875 30.078125 -1.421875 
Q 18.953125 -1.421875 12.671875 4.125 
Q 6.390625 9.671875 6.390625 19.484375 
Q 6.390625 27.296875 10.265625 32.203125 
Q 14.15625 37.109375 21.484375 38.71875 
z
M 17.921875 54.390625 
Q 17.921875 48.53125 21.046875 45.453125 
Q 24.171875 42.390625 30.078125 42.390625 
Q 36.03125 42.390625 39.15625 45.453125 
Q 42.28125 48.53125 42.28125 54.390625 
Q 42.28125 60.359375 39.171875 63.484375 
Q 36.078125 66.609375 30.078125 66.609375 
Q 24.171875 66.609375 21.046875 63.453125 
Q 17.921875 60.296875 17.921875 54.390625 
z
" id="DejaVuSansMono-56"/>
      </defs>
      <use xlink:href="#DejaVuSansMono-120"/>
      <use x="60.205078" xlink:href="#DejaVuSansMono-95"/>
      <use x="120.410156" xlink:href="#DejaVuSansMono-109"/>
      <use x="180.615234" xlink:href="#DejaVuSansMono-97"/>
      <use x="240.820312" xlink:href="#DejaVuSansMono-120"/>
      <use x="301.025391" xlink:href="#DejaVuSansMono-32"/>
      <use x="361.230469" xlink:href="#DejaVuSansMono-32"/>
      <use x="421.435547" xlink:href="#DejaVuSansMono-61"/>
      <use x="481.640625" xlink:href="#DejaVuSansMono-32"/>
      <use x="541.845703" xlink:href="#DejaVuSansMono-51"/>
      <use x="602.050781" xlink:href="#DejaVuSansMono-54"/>
      <use x="662.255859" xlink:href="#DejaVuSansMono-56"/>
     </g>
    </g>
    <g id="line2d_17">
     <path d="M 356.264062 66.499875 
L 368.264062 66.499875 
" style="fill:none;stroke:#ff7f0e;stroke-linecap:square;stroke-width:0.666667;"/>
    </g>
    <g id="line2d_18"/>
    <g id="text_17">
     <!-- "Widest":  -->
     <g transform="translate(373.064062 57.59025)scale(0.06 -0.06)">
      <defs>
       <path d="M 0 72.90625 
L 9.625 72.90625 
L 16.609375 13.71875 
L 24.90625 52.875 
L 35.203125 52.875 
L 43.609375 13.625 
L 50.59375 72.90625 
L 60.203125 72.90625 
L 49.3125 0 
L 39.984375 0 
L 30.078125 43.3125 
L 20.21875 0 
L 10.890625 0 
z
" id="DejaVuSansMono-87"/>
       <path d="M 12.5 54.6875 
L 35.5 54.6875 
L 35.5 6.984375 
L 53.328125 6.984375 
L 53.328125 0 
L 8.6875 0 
L 8.6875 6.984375 
L 26.515625 6.984375 
L 26.515625 47.703125 
L 12.5 47.703125 
z
M 26.515625 75.984375 
L 35.5 75.984375 
L 35.5 64.59375 
L 26.515625 64.59375 
z
" id="DejaVuSansMono-105"/>
       <path d="M 41.890625 47.703125 
L 41.890625 75.984375 
L 50.875 75.984375 
L 50.875 0 
L 41.890625 0 
L 41.890625 6.890625 
Q 39.65625 2.828125 35.90625 0.703125 
Q 32.171875 -1.421875 27.296875 -1.421875 
Q 17.390625 -1.421875 11.6875 6.265625 
Q 6 13.96875 6 27.484375 
Q 6 40.828125 11.71875 48.40625 
Q 17.4375 56 27.296875 56 
Q 32.234375 56 35.984375 53.875 
Q 39.75 51.765625 41.890625 47.703125 
z
M 15.484375 27.296875 
Q 15.484375 16.84375 18.796875 11.515625 
Q 22.125 6.203125 28.609375 6.203125 
Q 35.109375 6.203125 38.5 11.5625 
Q 41.890625 16.9375 41.890625 27.296875 
Q 41.890625 37.703125 38.5 43.046875 
Q 35.109375 48.390625 28.609375 48.390625 
Q 22.125 48.390625 18.796875 43.0625 
Q 15.484375 37.75 15.484375 27.296875 
z
" id="DejaVuSansMono-100"/>
      </defs>
      <use xlink:href="#DejaVuSansMono-34"/>
      <use x="60.205078" xlink:href="#DejaVuSansMono-87"/>
      <use x="120.410156" xlink:href="#DejaVuSansMono-105"/>
      <use x="180.615234" xlink:href="#DejaVuSansMono-100"/>
      <use x="240.820312" xlink:href="#DejaVuSansMono-101"/>
      <use x="301.025391" xlink:href="#DejaVuSansMono-115"/>
      <use x="361.230469" xlink:href="#DejaVuSansMono-116"/>
      <use x="421.435547" xlink:href="#DejaVuSansMono-34"/>
      <use x="481.640625" xlink:href="#DejaVuSansMono-58"/>
      <use x="541.845703" xlink:href="#DejaVuSansMono-32"/>
     </g>
     <!-- y_0    = 1117065 -->
     <g transform="translate(373.064062 64.347187)scale(0.06 -0.06)">
      <use xlink:href="#DejaVuSansMono-121"/>
      <use x="60.205078" xlink:href="#DejaVuSansMono-95"/>
      <use x="120.410156" xlink:href="#DejaVuSansMono-48"/>
      <use x="180.615234" xlink:href="#DejaVuSansMono-32"/>
      <use x="240.820312" xlink:href="#DejaVuSansMono-32"/>
      <use x="301.025391" xlink:href="#DejaVuSansMono-32"/>
      <use x="361.230469" xlink:href="#DejaVuSansMono-32"/>
      <use x="421.435547" xlink:href="#DejaVuSansMono-61"/>
      <use x="481.640625" xlink:href="#DejaVuSansMono-32"/>
      <use x="541.845703" xlink:href="#DejaVuSansMono-49"/>
      <use x="602.050781" xlink:href="#DejaVuSansMono-49"/>
      <use x="662.255859" xlink:href="#DejaVuSansMono-49"/>
      <use x="722.460938" xlink:href="#DejaVuSansMono-55"/>
      <use x="782.666016" xlink:href="#DejaVuSansMono-48"/>
      <use x="842.871094" xlink:href="#DejaVuSansMono-54"/>
      <use x="903.076172" xlink:href="#DejaVuSansMono-53"/>
     </g>
     <!-- y_max  = 2974984576 -->
     <g transform="translate(373.064062 71.271)scale(0.06 -0.06)">
      <use xlink:href="#DejaVuSansMono-121"/>
      <use x="60.205078" xlink:href="#DejaVuSansMono-95"/>
      <use x="120.410156" xlink:href="#DejaVuSansMono-109"/>
      <use x="180.615234" xlink:href="#DejaVuSansMono-97"/>
      <use x="240.820312" xlink:href="#DejaVuSansMono-120"/>
      <use x="301.025391" xlink:href="#DejaVuSansMono-32"/>
      <use x="361.230469" xlink:href="#DejaVuSansMono-32"/>
      <use x="421.435547" xlink:href="#DejaVuSansMono-61"/>
      <use x="481.640625" xlink:href="#DejaVuSansMono-32"/>
      <use x="541.845703" xlink:href="#DejaVuSansMono-50"/>
      <use x="602.050781" xlink:href="#DejaVuSansMono-57"/>
      <use x="662.255859" xlink:href="#DejaVuSansMono-55"/>
      <use x="722.460938" xlink:href="#DejaVuSansMono-52"/>
      <use x="782.666016" xlink:href="#DejaVuSansMono-57"/>
      <use x="842.871094" xlink:href="#DejaVuSansMono-56"/>
      <use x="903.076172" xlink:href="#DejaVuSansMono-52"/>
      <use x="963.28125" xlink:href="#DejaVuSansMono-53"/>
      <use x="1023.486328" xlink:href="#DejaVuSansMono-55"/>
      <use x="1083.691406" xlink:href="#DejaVuSansMono-54"/>
     </g>
     <!-- x_max  = 528 -->
     <g transform="translate(373.064062 78.194812)scale(0.06 -0.06)">
      <use xlink:href="#DejaVuSansMono-120"/>
      <use x="60.205078" xlink:href="#DejaVuSansMono-95"/>
      <use x="120.410156" xlink:href="#DejaVuSansMono-109"/>
      <use x="180.615234" xlink:href="#DejaVuSansMono-97"/>
      <use x="240.820312" xlink:href="#DejaVuSansMono-120"/>
      <use x="301.025391" xlink:href="#DejaVuSansMono-32"/>
      <use x="361.230469" xlink:href="#DejaVuSansMono-32"/>
      <use x="421.435547" xlink:href="#DejaVuSansMono-61"/>
      <use x="481.640625" xlink:href="#DejaVuSansMono-32"/>
      <use x="541.845703" xlink:href="#DejaVuSansMono-53"/>
      <use x="602.050781" xlink:href="#DejaVuSansMono-50"/>
      <use x="662.255859" xlink:href="#DejaVuSansMono-56"/>
     </g>
    </g>
   </g>
  </g>
 </g>
 <defs>
  <clipPath id="pd03442baca">
   <rect height="298.453375" width="418.46125" x="35.85875" y="17.989125"/>
  </clipPath>
 </defs>
</svg>
