<?xml version="1.0" encoding="utf-8" standalone="no"?>
<!DOCTYPE svg PUBLIC "-//W3C//DTD SVG 1.1//EN"
  "http://www.w3.org/Graphics/SVG/1.1/DTD/svg11.dtd">
<!-- Created with matplotlib (https://matplotlib.org/) -->
<svg height="345.6pt" version="1.1" viewBox="0 0 460.8 345.6" width="460.8pt" xmlns="http://www.w3.org/2000/svg" xmlns:xlink="http://www.w3.org/1999/xlink">
 <metadata>
  <rdf:RDF xmlns:cc="http://creativecommons.org/ns#" xmlns:dc="http://purl.org/dc/elements/1.1/" xmlns:rdf="http://www.w3.org/1999/02/22-rdf-syntax-ns#">
   <cc:Work>
    <dc:type rdf:resource="http://purl.org/dc/dcmitype/StillImage"/>
    <dc:date>2022-03-17T00:30:54.129363</dc:date>
    <dc:format>image/svg+xml</dc:format>
    <dc:creator>
     <cc:Agent>
      <dc:title>Matplotlib v3.3.2, https://matplotlib.org/</dc:title>
     </cc:Agent>
    </dc:creator>
   </cc:Work>
  </rdf:RDF>
 </metadata>
 <defs>
  <style type="text/css">*{stroke-linecap:butt;stroke-linejoin:round;}</style>
 </defs>
 <g id="figure_1">
  <g id="patch_1">
   <path d="M 0 345.6 
L 460.8 345.6 
L 460.8 0 
L 0 0 
z
" style="fill:#ffffff;"/>
  </g>
  <g id="axes_1">
   <g id="patch_2">
    <path d="M 35.85875 316.4425 
L 454.32 316.4425 
L 454.32 17.989125 
L 35.85875 17.989125 
z
" style="fill:#ffffff;"/>
   </g>
   <g id="matplotlib.axis_1">
    <g id="xtick_1">
     <g id="line2d_1">
      <defs>
       <path d="M 0 0 
L 0 3.5 
" id="m1d3ee04ad8" style="stroke:#000000;stroke-width:0.8;"/>
      </defs>
      <g>
       <use style="stroke:#000000;stroke-width:0.8;" x="54.879716" xlink:href="#m1d3ee04ad8" y="316.4425"/>
      </g>
     </g>
     <g id="text_1">
      <!-- 0 -->
      <g transform="translate(53.073622 328.033437)scale(0.06 -0.06)">
       <defs>
        <path d="M 23.578125 36.625 
Q 23.578125 39.3125 25.453125 41.265625 
Q 27.34375 43.21875 29.984375 43.21875 
Q 32.71875 43.21875 34.671875 41.265625 
Q 36.625 39.3125 36.625 36.625 
Q 36.625 33.890625 34.6875 31.984375 
Q 32.765625 30.078125 29.984375 30.078125 
Q 27.25 30.078125 25.40625 31.9375 
Q 23.578125 33.796875 23.578125 36.625 
z
M 30.078125 66.40625 
Q 23.1875 66.40625 19.796875 58.984375 
Q 16.40625 51.5625 16.40625 36.375 
Q 16.40625 21.234375 19.796875 13.8125 
Q 23.1875 6.390625 30.078125 6.390625 
Q 37.015625 6.390625 40.40625 13.8125 
Q 43.796875 21.234375 43.796875 36.375 
Q 43.796875 51.5625 40.40625 58.984375 
Q 37.015625 66.40625 30.078125 66.40625 
z
M 30.078125 74.21875 
Q 41.75 74.21875 47.734375 64.640625 
Q 53.71875 55.078125 53.71875 36.375 
Q 53.71875 17.71875 47.734375 8.140625 
Q 41.75 -1.421875 30.078125 -1.421875 
Q 18.40625 -1.421875 12.453125 8.140625 
Q 6.5 17.71875 6.5 36.375 
Q 6.5 55.078125 12.453125 64.640625 
Q 18.40625 74.21875 30.078125 74.21875 
z
" id="DejaVuSansMono-48"/>
       </defs>
       <use xlink:href="#DejaVuSansMono-48"/>
      </g>
     </g>
    </g>
    <g id="xtick_2">
     <g id="line2d_2">
      <g>
       <use style="stroke:#000000;stroke-width:0.8;" x="117.039735" xlink:href="#m1d3ee04ad8" y="316.4425"/>
      </g>
     </g>
     <g id="text_2">
      <!-- 100 -->
      <g transform="translate(111.621454 328.033437)scale(0.06 -0.06)">
       <defs>
        <path d="M 13.1875 8.296875 
L 28.515625 8.296875 
L 28.515625 64.015625 
L 12.015625 60.296875 
L 12.015625 69.28125 
L 28.421875 72.90625 
L 38.28125 72.90625 
L 38.28125 8.296875 
L 53.421875 8.296875 
L 53.421875 0 
L 13.1875 0 
z
" id="DejaVuSansMono-49"/>
       </defs>
       <use xlink:href="#DejaVuSansMono-49"/>
       <use x="60.205078" xlink:href="#DejaVuSansMono-48"/>
       <use x="120.410156" xlink:href="#DejaVuSansMono-48"/>
      </g>
     </g>
    </g>
    <g id="xtick_3">
     <g id="line2d_3">
      <g>
       <use style="stroke:#000000;stroke-width:0.8;" x="179.199755" xlink:href="#m1d3ee04ad8" y="316.4425"/>
      </g>
     </g>
     <g id="text_3">
      <!-- 200 -->
      <g transform="translate(173.781473 328.033437)scale(0.06 -0.06)">
       <defs>
        <path d="M 18.21875 8.296875 
L 51.703125 8.296875 
L 51.703125 0 
L 7.421875 0 
L 7.421875 8.296875 
Q 16.546875 17.921875 23.375 25.296875 
Q 30.21875 32.671875 32.8125 35.6875 
Q 37.703125 41.65625 39.40625 45.34375 
Q 41.109375 49.03125 41.109375 52.875 
Q 41.109375 58.984375 37.515625 62.453125 
Q 33.9375 65.921875 27.6875 65.921875 
Q 23.25 65.921875 18.359375 64.3125 
Q 13.484375 62.703125 8.015625 59.421875 
L 8.015625 69.390625 
Q 13.03125 71.78125 17.890625 73 
Q 22.75 74.21875 27.484375 74.21875 
Q 38.1875 74.21875 44.703125 68.53125 
Q 51.21875 62.84375 51.21875 53.609375 
Q 51.21875 48.921875 49.046875 44.234375 
Q 46.875 39.546875 42 33.890625 
Q 39.265625 30.71875 34.0625 25.09375 
Q 28.859375 19.484375 18.21875 8.296875 
z
" id="DejaVuSansMono-50"/>
       </defs>
       <use xlink:href="#DejaVuSansMono-50"/>
       <use x="60.205078" xlink:href="#DejaVuSansMono-48"/>
       <use x="120.410156" xlink:href="#DejaVuSansMono-48"/>
      </g>
     </g>
    </g>
    <g id="xtick_4">
     <g id="line2d_4">
      <g>
       <use style="stroke:#000000;stroke-width:0.8;" x="241.359774" xlink:href="#m1d3ee04ad8" y="316.4425"/>
      </g>
     </g>
     <g id="text_4">
      <!-- 300 -->
      <g transform="translate(235.941493 328.033437)scale(0.06 -0.06)">
       <defs>
        <path d="M 37.890625 39.015625 
Q 45.0625 37.109375 48.875 32.25 
Q 52.6875 27.390625 52.6875 20.125 
Q 52.6875 10.0625 45.921875 4.3125 
Q 39.15625 -1.421875 27.203125 -1.421875 
Q 22.171875 -1.421875 16.9375 -0.484375 
Q 11.71875 0.4375 6.6875 2.203125 
L 6.6875 12.015625 
Q 11.671875 9.421875 16.5 8.15625 
Q 21.34375 6.890625 26.125 6.890625 
Q 34.234375 6.890625 38.578125 10.546875 
Q 42.921875 14.203125 42.921875 21.09375 
Q 42.921875 27.4375 38.578125 31.171875 
Q 34.234375 34.90625 26.8125 34.90625 
L 19.28125 34.90625 
L 19.28125 43.015625 
L 26.8125 43.015625 
Q 33.59375 43.015625 37.40625 45.984375 
Q 41.21875 48.96875 41.21875 54.296875 
Q 41.21875 59.90625 37.671875 62.90625 
Q 34.125 65.921875 27.59375 65.921875 
Q 23.25 65.921875 18.609375 64.9375 
Q 13.96875 63.96875 8.890625 62.015625 
L 8.890625 71.09375 
Q 14.796875 72.65625 19.40625 73.4375 
Q 24.03125 74.21875 27.59375 74.21875 
Q 38.234375 74.21875 44.609375 68.875 
Q 50.984375 63.53125 50.984375 54.6875 
Q 50.984375 48.6875 47.625 44.671875 
Q 44.28125 40.671875 37.890625 39.015625 
z
" id="DejaVuSansMono-51"/>
       </defs>
       <use xlink:href="#DejaVuSansMono-51"/>
       <use x="60.205078" xlink:href="#DejaVuSansMono-48"/>
       <use x="120.410156" xlink:href="#DejaVuSansMono-48"/>
      </g>
     </g>
    </g>
    <g id="xtick_5">
     <g id="line2d_5">
      <g>
       <use style="stroke:#000000;stroke-width:0.8;" x="303.519793" xlink:href="#m1d3ee04ad8" y="316.4425"/>
      </g>
     </g>
     <g id="text_5">
      <!-- 400 -->
      <g transform="translate(298.101512 328.033437)scale(0.06 -0.06)">
       <defs>
        <path d="M 35.890625 63.921875 
L 12.890625 25.390625 
L 35.890625 25.390625 
z
M 34.28125 72.90625 
L 45.703125 72.90625 
L 45.703125 25.390625 
L 55.421875 25.390625 
L 55.421875 17.390625 
L 45.703125 17.390625 
L 45.703125 0 
L 35.890625 0 
L 35.890625 17.390625 
L 4.984375 17.390625 
L 4.984375 26.703125 
z
" id="DejaVuSansMono-52"/>
       </defs>
       <use xlink:href="#DejaVuSansMono-52"/>
       <use x="60.205078" xlink:href="#DejaVuSansMono-48"/>
       <use x="120.410156" xlink:href="#DejaVuSansMono-48"/>
      </g>
     </g>
    </g>
    <g id="xtick_6">
     <g id="line2d_6">
      <g>
       <use style="stroke:#000000;stroke-width:0.8;" x="365.679812" xlink:href="#m1d3ee04ad8" y="316.4425"/>
      </g>
     </g>
     <g id="text_6">
      <!-- 500 -->
      <g transform="translate(360.261531 328.033437)scale(0.06 -0.06)">
       <defs>
        <path d="M 10.109375 72.90625 
L 47.015625 72.90625 
L 47.015625 64.59375 
L 19.09375 64.59375 
L 19.09375 46.6875 
Q 21.1875 47.46875 23.3125 47.828125 
Q 25.4375 48.1875 27.59375 48.1875 
Q 38.921875 48.1875 45.5625 41.5 
Q 52.203125 34.8125 52.203125 23.390625 
Q 52.203125 11.859375 45.234375 5.21875 
Q 38.28125 -1.421875 26.21875 -1.421875 
Q 20.40625 -1.421875 15.59375 -0.640625 
Q 10.796875 0.140625 6.984375 1.703125 
L 6.984375 11.71875 
Q 11.46875 9.28125 16.015625 8.078125 
Q 20.5625 6.890625 25.296875 6.890625 
Q 33.453125 6.890625 37.859375 11.1875 
Q 42.28125 15.484375 42.28125 23.390625 
Q 42.28125 31.203125 37.71875 35.546875 
Q 33.15625 39.890625 25 39.890625 
Q 21.046875 39.890625 17.28125 38.984375 
Q 13.53125 38.09375 10.109375 36.28125 
z
" id="DejaVuSansMono-53"/>
       </defs>
       <use xlink:href="#DejaVuSansMono-53"/>
       <use x="60.205078" xlink:href="#DejaVuSansMono-48"/>
       <use x="120.410156" xlink:href="#DejaVuSansMono-48"/>
      </g>
     </g>
    </g>
    <g id="xtick_7">
     <g id="line2d_7">
      <g>
       <use style="stroke:#000000;stroke-width:0.8;" x="427.839832" xlink:href="#m1d3ee04ad8" y="316.4425"/>
      </g>
     </g>
     <g id="text_7">
      <!-- 600 -->
      <g transform="translate(422.421551 328.033437)scale(0.06 -0.06)">
       <defs>
        <path d="M 48.390625 71.296875 
L 48.390625 62.203125 
Q 45.3125 64.015625 41.84375 64.96875 
Q 38.375 65.921875 34.625 65.921875 
Q 25.25 65.921875 20.40625 58.859375 
Q 15.578125 51.8125 15.578125 38.09375 
Q 17.921875 42.96875 22.0625 45.578125 
Q 26.21875 48.1875 31.59375 48.1875 
Q 42.140625 48.1875 47.921875 41.71875 
Q 53.71875 35.25 53.71875 23.390625 
Q 53.71875 11.578125 47.75 5.078125 
Q 41.796875 -1.421875 31 -1.421875 
Q 18.3125 -1.421875 12.40625 7.6875 
Q 6.5 16.796875 6.5 36.375 
Q 6.5 54.828125 13.59375 64.515625 
Q 20.703125 74.21875 34.1875 74.21875 
Q 37.796875 74.21875 41.40625 73.453125 
Q 45.015625 72.703125 48.390625 71.296875 
z
M 30.8125 40.484375 
Q 24.515625 40.484375 20.890625 35.9375 
Q 17.28125 31.390625 17.28125 23.390625 
Q 17.28125 15.375 20.890625 10.828125 
Q 24.515625 6.296875 30.8125 6.296875 
Q 37.359375 6.296875 40.671875 10.609375 
Q 44 14.9375 44 23.390625 
Q 44 31.890625 40.671875 36.1875 
Q 37.359375 40.484375 30.8125 40.484375 
z
" id="DejaVuSansMono-54"/>
       </defs>
       <use xlink:href="#DejaVuSansMono-54"/>
       <use x="60.205078" xlink:href="#DejaVuSansMono-48"/>
       <use x="120.410156" xlink:href="#DejaVuSansMono-48"/>
      </g>
     </g>
    </g>
    <g id="text_8">
     <!-- n -->
     <g transform="translate(243.283281 337.872187)scale(0.06 -0.06)">
      <defs>
       <path d="M 51.3125 33.890625 
L 51.3125 0 
L 42.28125 0 
L 42.28125 33.890625 
Q 42.28125 41.265625 39.6875 44.71875 
Q 37.109375 48.1875 31.59375 48.1875 
Q 25.296875 48.1875 21.890625 43.71875 
Q 18.5 39.265625 18.5 30.90625 
L 18.5 0 
L 9.515625 0 
L 9.515625 54.6875 
L 18.5 54.6875 
L 18.5 46.484375 
Q 20.90625 51.171875 25 53.578125 
Q 29.109375 56 34.71875 56 
Q 43.0625 56 47.1875 50.5 
Q 51.3125 45.015625 51.3125 33.890625 
z
" id="DejaVuSansMono-110"/>
      </defs>
      <use xlink:href="#DejaVuSansMono-110"/>
     </g>
    </g>
   </g>
   <g id="matplotlib.axis_2">
    <g id="ytick_1">
     <g id="line2d_8">
      <defs>
       <path d="M 0 0 
L -3.5 0 
" id="m1ebcb0a06b" style="stroke:#000000;stroke-width:0.8;"/>
      </defs>
      <g>
       <use style="stroke:#000000;stroke-width:0.8;" x="35.85875" xlink:href="#m1ebcb0a06b" y="280.964708"/>
      </g>
     </g>
     <g id="text_9">
      <!-- $\mathdefault{10^{1}}$ -->
      <g transform="translate(18.83875 283.260177)scale(0.06 -0.06)">
       <use transform="translate(0 0.684375)" xlink:href="#DejaVuSansMono-49"/>
       <use transform="translate(60.205078 0.684375)" xlink:href="#DejaVuSansMono-48"/>
       <use transform="translate(121.367188 38.965625)scale(0.7)" xlink:href="#DejaVuSansMono-49"/>
      </g>
     </g>
    </g>
    <g id="ytick_2">
     <g id="line2d_9">
      <g>
       <use style="stroke:#000000;stroke-width:0.8;" x="35.85875" xlink:href="#m1ebcb0a06b" y="237.141249"/>
      </g>
     </g>
     <g id="text_10">
      <!-- $\mathdefault{10^{3}}$ -->
      <g transform="translate(18.83875 239.436718)scale(0.06 -0.06)">
       <use transform="translate(0 0.765625)" xlink:href="#DejaVuSansMono-49"/>
       <use transform="translate(60.205078 0.765625)" xlink:href="#DejaVuSansMono-48"/>
       <use transform="translate(121.367188 39.046875)scale(0.7)" xlink:href="#DejaVuSansMono-51"/>
      </g>
     </g>
    </g>
    <g id="ytick_3">
     <g id="line2d_10">
      <g>
       <use style="stroke:#000000;stroke-width:0.8;" x="35.85875" xlink:href="#m1ebcb0a06b" y="193.31779"/>
      </g>
     </g>
     <g id="text_11">
      <!-- $\mathdefault{10^{5}}$ -->
      <g transform="translate(18.83875 195.613258)scale(0.06 -0.06)">
       <use transform="translate(0 0.684375)" xlink:href="#DejaVuSansMono-49"/>
       <use transform="translate(60.205078 0.684375)" xlink:href="#DejaVuSansMono-48"/>
       <use transform="translate(121.367188 38.965625)scale(0.7)" xlink:href="#DejaVuSansMono-53"/>
      </g>
     </g>
    </g>
    <g id="ytick_4">
     <g id="line2d_11">
      <g>
       <use style="stroke:#000000;stroke-width:0.8;" x="35.85875" xlink:href="#m1ebcb0a06b" y="149.494331"/>
      </g>
     </g>
     <g id="text_12">
      <!-- $\mathdefault{10^{7}}$ -->
      <g transform="translate(18.83875 151.789799)scale(0.06 -0.06)">
       <defs>
        <path d="M 6.78125 72.90625 
L 52.6875 72.90625 
L 52.6875 68.703125 
L 26.609375 0 
L 16.3125 0 
L 41.703125 64.59375 
L 6.78125 64.59375 
z
" id="DejaVuSansMono-55"/>
       </defs>
       <use transform="translate(0 0.684375)" xlink:href="#DejaVuSansMono-49"/>
       <use transform="translate(60.205078 0.684375)" xlink:href="#DejaVuSansMono-48"/>
       <use transform="translate(121.367188 38.965625)scale(0.7)" xlink:href="#DejaVuSansMono-55"/>
      </g>
     </g>
    </g>
    <g id="ytick_5">
     <g id="line2d_12">
      <g>
       <use style="stroke:#000000;stroke-width:0.8;" x="35.85875" xlink:href="#m1ebcb0a06b" y="105.670872"/>
      </g>
     </g>
     <g id="text_13">
      <!-- $\mathdefault{10^{9}}$ -->
      <g transform="translate(18.83875 107.96634)scale(0.06 -0.06)">
       <defs>
        <path d="M 29.109375 32.328125 
Q 35.40625 32.328125 38.984375 36.859375 
Q 42.578125 41.40625 42.578125 49.421875 
Q 42.578125 57.421875 38.984375 61.953125 
Q 35.40625 66.5 29.109375 66.5 
Q 22.5625 66.5 19.234375 62.171875 
Q 15.921875 57.859375 15.921875 49.421875 
Q 15.921875 40.921875 19.21875 36.625 
Q 22.515625 32.328125 29.109375 32.328125 
z
M 11.53125 1.515625 
L 11.53125 10.59375 
Q 14.59375 8.796875 18.0625 7.84375 
Q 21.53125 6.890625 25.296875 6.890625 
Q 34.671875 6.890625 39.46875 13.9375 
Q 44.28125 21 44.28125 34.71875 
Q 42 29.828125 37.84375 27.21875 
Q 33.6875 24.609375 28.328125 24.609375 
Q 17.78125 24.609375 11.984375 31.09375 
Q 6.203125 37.59375 6.203125 49.515625 
Q 6.203125 61.28125 12.125 67.75 
Q 18.0625 74.21875 28.90625 74.21875 
Q 41.609375 74.21875 47.515625 65.078125 
Q 53.421875 55.953125 53.421875 36.375 
Q 53.421875 17.96875 46.3125 8.265625 
Q 39.203125 -1.421875 25.6875 -1.421875 
Q 22.125 -1.421875 18.5 -0.65625 
Q 14.890625 0.09375 11.53125 1.515625 
z
" id="DejaVuSansMono-57"/>
       </defs>
       <use transform="translate(0 0.765625)" xlink:href="#DejaVuSansMono-49"/>
       <use transform="translate(60.205078 0.765625)" xlink:href="#DejaVuSansMono-48"/>
       <use transform="translate(121.367188 39.046875)scale(0.7)" xlink:href="#DejaVuSansMono-57"/>
      </g>
     </g>
    </g>
    <g id="ytick_6">
     <g id="line2d_13">
      <g>
       <use style="stroke:#000000;stroke-width:0.8;" x="35.85875" xlink:href="#m1ebcb0a06b" y="61.847412"/>
      </g>
     </g>
     <g id="text_14">
      <!-- $\mathdefault{10^{11}}$ -->
      <g transform="translate(16.31875 64.142881)scale(0.06 -0.06)">
       <use transform="translate(0 0.684375)" xlink:href="#DejaVuSansMono-49"/>
       <use transform="translate(60.205078 0.684375)" xlink:href="#DejaVuSansMono-48"/>
       <use transform="translate(121.367188 38.965625)scale(0.7)" xlink:href="#DejaVuSansMono-49"/>
       <use transform="translate(163.510742 38.965625)scale(0.7)" xlink:href="#DejaVuSansMono-49"/>
      </g>
     </g>
    </g>
    <g id="ytick_7">
     <g id="line2d_14">
      <g>
       <use style="stroke:#000000;stroke-width:0.8;" x="35.85875" xlink:href="#m1ebcb0a06b" y="18.023953"/>
      </g>
     </g>
     <g id="text_15">
      <!-- $\mathdefault{10^{13}}$ -->
      <g transform="translate(16.31875 20.319422)scale(0.06 -0.06)">
       <use transform="translate(0 0.765625)" xlink:href="#DejaVuSansMono-49"/>
       <use transform="translate(60.205078 0.765625)" xlink:href="#DejaVuSansMono-48"/>
       <use transform="translate(121.367188 39.046875)scale(0.7)" xlink:href="#DejaVuSansMono-49"/>
       <use transform="translate(163.510742 39.046875)scale(0.7)" xlink:href="#DejaVuSansMono-51"/>
      </g>
     </g>
    </g>
    <g id="text_16">
     <!-- y_n -->
     <g transform="translate(10.904063 172.634094)rotate(-90)scale(0.06 -0.06)">
      <defs>
       <path d="M 41.890625 17.578125 
Q 39.65625 11.859375 36.1875 2.546875 
Q 31.34375 -10.359375 29.6875 -13.1875 
Q 27.4375 -17 24.0625 -18.890625 
Q 20.703125 -20.796875 16.21875 -20.796875 
L 8.984375 -20.796875 
L 8.984375 -13.28125 
L 14.3125 -13.28125 
Q 18.265625 -13.28125 20.5 -10.984375 
Q 22.75 -8.6875 26.21875 0.875 
L 5.078125 54.6875 
L 14.59375 54.6875 
L 30.8125 11.921875 
L 46.78125 54.6875 
L 56.296875 54.6875 
z
" id="DejaVuSansMono-121"/>
       <path d="M 60.203125 -19.671875 
L 60.203125 -23.578125 
L 0 -23.578125 
L 0 -19.671875 
z
" id="DejaVuSansMono-95"/>
      </defs>
      <use xlink:href="#DejaVuSansMono-121"/>
      <use x="60.205078" xlink:href="#DejaVuSansMono-95"/>
      <use x="120.410156" xlink:href="#DejaVuSansMono-110"/>
     </g>
    </g>
   </g>
   <g id="line2d_15">
    <path clip-path="url(#pe61e05cd6d)" d="M 54.879716 154.916956 
L 55.501316 144.462404 
L 56.122916 151.058492 
L 56.744516 140.603939 
L 57.366117 147.200027 
L 57.987717 136.745475 
L 58.609317 143.341563 
L 59.230917 132.887011 
L 59.852517 139.483099 
L 60.474118 129.028547 
L 61.095718 135.624635 
L 61.717318 125.170083 
L 62.338918 131.766171 
L 62.960518 121.311619 
L 64.203719 134.503794 
L 64.825319 124.049242 
L 65.446919 130.64533 
L 66.068519 120.190778 
L 66.69012 126.786866 
L 67.31172 116.332314 
L 67.93332 122.928402 
L 68.55492 112.47385 
L 69.17652 119.069938 
L 69.798121 108.615386 
L 71.041321 121.807562 
L 71.662921 111.35301 
L 72.284521 117.949098 
L 72.906122 107.494546 
L 73.527722 114.090634 
L 74.149322 103.636082 
L 74.770922 110.23217 
L 75.392522 99.777618 
L 76.014122 106.373706 
L 76.635723 95.919154 
L 77.878923 109.111329 
L 78.500523 98.656777 
L 79.743724 111.848953 
L 80.365324 101.394401 
L 81.608524 114.586577 
L 82.230124 104.132025 
L 82.851725 110.728113 
L 83.473325 100.273561 
L 84.094925 106.869649 
L 84.716525 96.415097 
L 85.338125 103.011185 
L 85.959726 92.556633 
L 86.581326 99.152721 
L 87.202926 88.698169 
L 88.446126 101.890345 
L 89.067727 91.435793 
L 89.689327 98.03188 
L 90.310927 87.577329 
L 90.932527 94.173416 
L 91.554127 83.718865 
L 92.797328 96.91104 
L 93.418928 86.456488 
L 94.662128 99.648664 
L 95.283728 89.194112 
L 98.391729 122.174551 
L 99.01333 111.72 
L 99.63493 118.316087 
L 100.25653 107.861535 
L 101.49973 121.053711 
L 102.121331 110.599159 
L 103.364531 123.791335 
L 103.986131 113.336783 
L 104.607731 119.932871 
L 105.229332 109.478319 
L 105.850932 116.074407 
L 106.472532 105.619855 
L 107.094132 112.215943 
L 107.715732 101.761391 
L 108.337333 108.357479 
L 108.958933 97.902927 
L 109.580533 104.499015 
L 110.202133 94.044463 
L 110.823733 100.640551 
L 111.445333 90.185999 
L 112.688534 103.378174 
L 113.310134 92.923623 
L 113.931734 99.51971 
L 114.553334 89.065158 
L 115.174935 95.661246 
L 115.796535 85.206694 
L 118.904536 118.187134 
L 119.526136 107.732582 
L 120.147736 114.32867 
L 120.769336 103.874118 
L 121.390937 110.470206 
L 122.012537 100.015654 
L 122.634137 106.611742 
L 123.255737 96.15719 
L 123.877337 102.753277 
L 124.498938 92.298726 
L 125.742138 105.490901 
L 126.363738 95.036349 
L 126.985338 101.632437 
L 127.606939 91.177885 
L 128.228539 97.773973 
L 128.850139 87.319421 
L 129.471739 93.915509 
L 130.093339 83.460957 
L 130.714939 90.057045 
L 131.33654 79.602493 
L 133.82294 105.986845 
L 134.444541 95.532293 
L 135.066141 102.128381 
L 135.687741 91.673829 
L 136.309341 98.269917 
L 136.930941 87.815365 
L 137.552542 94.411452 
L 138.174142 83.956901 
L 139.417342 97.149076 
L 140.038942 86.694524 
L 140.660543 93.290612 
L 141.282143 82.83606 
L 141.903743 89.432148 
L 142.525343 78.977596 
L 143.146943 85.573684 
L 143.768544 75.119132 
L 144.390144 81.71522 
L 145.011744 71.260668 
L 145.633344 77.856756 
L 146.254944 67.402204 
L 146.876544 73.998292 
L 147.498145 63.54374 
L 148.119745 70.139828 
L 148.741345 59.685276 
L 149.362945 66.281364 
L 149.984545 55.826812 
L 150.606146 62.4229 
L 151.227746 51.968348 
L 151.849346 58.564436 
L 152.470946 48.109884 
L 153.714147 61.30206 
L 154.335747 50.847508 
L 154.957347 57.443596 
L 155.578947 46.989044 
L 156.200547 53.585132 
L 156.822148 43.13058 
L 157.443748 49.726667 
L 158.065348 39.272116 
L 158.686948 45.868203 
L 159.308548 35.413652 
L 159.930149 42.009739 
L 160.551749 31.555187 
L 163.65975 64.535627 
L 164.28135 54.081075 
L 164.90295 60.677163 
L 165.52455 50.222611 
L 166.14615 56.818699 
L 166.767751 46.364147 
L 167.389351 52.960235 
L 168.010951 42.505683 
L 169.254151 55.697858 
L 169.875752 45.243307 
L 172.362152 71.627658 
L 172.983753 61.173106 
L 174.226953 74.365282 
L 174.848553 63.91073 
L 177.956554 96.891169 
L 178.578154 86.436617 
L 179.199755 93.032705 
L 179.821355 82.578153 
L 181.064555 95.770329 
L 181.686155 85.315777 
L 182.929356 98.507953 
L 183.550956 88.053401 
L 184.172556 94.649489 
L 184.794156 84.194937 
L 185.415756 90.791025 
L 186.037357 80.336473 
L 186.658957 86.932561 
L 187.280557 76.478009 
L 187.902157 83.074097 
L 188.523757 72.619545 
L 190.388558 92.407808 
L 191.010158 81.953256 
L 191.631758 88.549344 
L 192.253359 78.094792 
L 194.118159 97.883056 
L 194.739759 87.428504 
L 195.36136 94.024592 
L 195.98296 83.57004 
L 196.60456 90.166128 
L 197.22616 79.711576 
L 197.84776 86.307664 
L 198.469361 75.853112 
L 199.712561 89.045287 
L 200.334161 78.590736 
L 200.955761 85.186823 
L 201.577361 74.732272 
L 202.820562 87.924447 
L 203.442162 77.469895 
L 204.685362 90.662071 
L 205.306963 80.207519 
L 205.928563 86.803607 
L 206.550163 76.349055 
L 207.171763 82.945143 
L 207.793363 72.490591 
L 208.414964 79.086679 
L 209.036564 68.632127 
L 209.658164 75.228215 
L 210.279764 64.773663 
L 212.144565 84.561926 
L 212.766165 74.107375 
L 213.387765 80.703462 
L 214.009365 70.248911 
L 215.252566 83.441086 
L 215.874166 72.986534 
L 216.495766 79.582622 
L 217.117366 69.12807 
L 217.738967 75.724158 
L 218.360567 65.269606 
L 218.982167 71.865694 
L 219.603767 61.411142 
L 220.225367 68.00723 
L 220.846967 57.552678 
L 224.576569 97.129205 
L 225.198169 86.674653 
L 225.819769 93.270741 
L 226.441369 82.816189 
L 227.062969 89.412277 
L 227.68457 78.957725 
L 228.92777 92.149901 
L 229.54937 81.695349 
L 230.17097 88.291437 
L 230.792571 77.836885 
L 231.414171 84.432973 
L 232.035771 73.978421 
L 232.657371 80.574509 
L 233.278971 70.119957 
L 233.900572 76.716045 
L 234.522172 66.261493 
L 237.008572 92.645844 
L 237.630173 82.191292 
L 238.873373 95.383468 
L 239.494973 84.928916 
L 240.116573 91.525004 
L 240.738174 81.070452 
L 241.359774 87.66654 
L 241.981374 77.211988 
L 243.846175 97.000252 
L 244.467775 86.5457 
L 247.575776 119.526139 
L 248.197376 109.071587 
L 248.818976 115.667675 
L 249.440576 105.213123 
L 250.062177 111.809211 
L 250.683777 101.354659 
L 254.413378 140.931186 
L 255.034978 130.476634 
L 257.521379 156.860986 
L 258.142979 146.406433 
L 260.00778 166.194697 
L 260.62938 155.740143 
L 263.115781 182.124494 
L 263.737381 171.669933 
L 264.980581 184.862108 
L 265.602181 174.407543 
L 266.223782 181.003631 
L 266.845382 170.549071 
L 268.088582 183.741246 
L 268.710182 173.286683 
L 269.331783 179.882771 
L 269.953383 169.428211 
L 270.574983 176.024299 
L 271.196583 165.569742 
L 276.169385 218.338445 
L 276.790985 207.883453 
L 278.655785 227.671717 
L 279.277386 217.215992 
L 280.520586 230.408168 
L 281.142186 219.952053 
L 283.006987 239.740316 
L 283.628587 229.281597 
L 284.871787 242.473773 
L 285.493388 232.013667 
L 286.114988 238.609755 
L 286.736588 228.151502 
L 287.979788 241.343678 
L 288.601389 230.884194 
L 289.222989 237.480282 
L 289.844589 227.022444 
L 292.33099 253.406795 
L 292.95259 242.934734 
L 296.060591 275.915174 
L 296.682191 265.275836 
L 297.925391 278.468012 
L 298.546992 267.772532 
L 300.411792 287.560796 
L 301.033392 276.492086 
L 303.519793 302.876437 
L 303.519793 302.876437 
" style="fill:none;stroke:#1f77b4;stroke-linecap:square;stroke-width:0.666667;"/>
   </g>
   <g id="line2d_16">
    <path clip-path="url(#pe61e05cd6d)" d="M 54.879716 154.928222 
L 55.501316 144.473669 
L 56.122916 151.069757 
L 56.744516 140.615205 
L 57.987717 153.807381 
L 58.609317 143.352828 
L 59.230917 149.948916 
L 59.852517 139.494364 
L 60.474118 146.090452 
L 61.095718 135.6359 
L 62.338918 148.828075 
L 62.960518 138.373523 
L 63.582119 144.969611 
L 64.203719 134.515059 
L 64.825319 141.111147 
L 65.446919 130.656595 
L 66.69012 143.84877 
L 67.31172 133.394218 
L 67.93332 139.990306 
L 68.55492 129.535754 
L 69.17652 136.131842 
L 69.798121 125.67729 
L 70.419721 132.273378 
L 71.041321 121.818826 
L 71.662921 128.414914 
L 72.284521 117.960362 
L 72.906122 124.55645 
L 73.527722 114.101898 
L 74.149322 120.697986 
L 74.770922 110.243434 
L 76.014122 123.435609 
L 76.635723 112.981058 
L 77.257323 119.577145 
L 77.878923 109.122593 
L 79.743724 128.910857 
L 80.365324 118.456305 
L 80.986924 125.052393 
L 81.608524 114.597841 
L 82.851725 127.790017 
L 83.473325 117.335465 
L 84.094925 123.931553 
L 84.716525 113.477001 
L 85.959726 126.669176 
L 86.581326 116.214625 
L 87.202926 122.810712 
L 87.824526 112.35616 
L 89.067727 125.548336 
L 89.689327 115.093784 
L 90.310927 121.689872 
L 90.932527 111.23532 
L 91.554127 117.831408 
L 92.175727 107.376856 
L 93.418928 120.569032 
L 94.040528 110.11448 
L 94.662128 116.710568 
L 95.283728 106.256016 
L 96.526929 119.448192 
L 97.148529 108.99364 
L 99.01333 128.781903 
L 99.63493 118.327351 
L 100.87813 131.519527 
L 101.49973 121.064975 
L 102.121331 127.661063 
L 102.742931 117.206511 
L 104.607731 136.994775 
L 105.229332 126.540223 
L 105.850932 133.13631 
L 106.472532 122.681758 
L 107.094132 129.277846 
L 107.715732 118.823294 
L 108.337333 125.419382 
L 108.958933 114.96483 
L 111.445333 141.349182 
L 112.066934 130.89463 
L 113.931734 150.682893 
L 114.553334 140.228341 
L 115.174935 146.824429 
L 115.796535 136.369877 
L 116.418135 142.965965 
L 117.039735 132.511412 
L 117.661335 139.1075 
L 118.282936 128.652948 
L 118.904536 135.249036 
L 119.526136 124.794484 
L 120.147736 131.390572 
L 120.769336 120.93602 
L 121.390937 127.532108 
L 122.012537 117.077556 
L 122.634137 123.673644 
L 123.255737 113.219092 
L 123.877337 119.81518 
L 124.498938 109.360628 
L 125.120538 115.956716 
L 125.742138 105.502164 
L 126.985338 118.69434 
L 127.606939 108.239788 
L 128.850139 121.431963 
L 129.471739 110.977411 
L 132.57974 143.957851 
L 133.20134 133.503299 
L 133.82294 140.099386 
L 134.444541 129.644834 
L 135.687741 142.83701 
L 136.309341 132.382458 
L 136.930941 138.978546 
L 137.552542 128.523994 
L 139.417342 148.312258 
L 140.038942 137.857705 
L 140.660543 144.453793 
L 141.282143 133.999241 
L 141.903743 140.595329 
L 142.525343 130.140777 
L 143.146943 136.736865 
L 143.768544 126.282313 
L 144.390144 132.878401 
L 145.011744 122.423849 
L 145.633344 129.019937 
L 146.254944 118.565385 
L 146.876544 125.161472 
L 147.498145 114.706921 
L 148.119745 121.303008 
L 148.741345 110.848456 
L 150.606146 130.63672 
L 151.227746 120.182168 
L 152.470946 133.374344 
L 153.092546 122.919792 
L 153.714147 129.51588 
L 154.335747 119.061328 
L 155.578947 132.253503 
L 156.200547 121.798952 
L 157.443748 134.991127 
L 158.065348 124.536575 
L 158.686948 131.132663 
L 159.308548 120.678111 
L 159.930149 127.274199 
L 160.551749 116.819647 
L 162.416549 136.607911 
L 163.03815 126.153359 
L 163.65975 132.749447 
L 164.28135 122.294895 
L 166.14615 142.083158 
L 166.767751 131.628606 
L 168.010951 144.820782 
L 168.632551 134.36623 
L 170.497352 154.154493 
L 171.118952 143.699941 
L 172.362152 156.892117 
L 172.983753 146.437564 
L 174.226953 159.62974 
L 174.848553 149.175187 
L 175.470153 155.771275 
L 176.091754 145.316722 
L 177.334954 158.508898 
L 177.956554 148.054345 
L 179.199755 161.246521 
L 179.821355 150.791968 
L 180.442955 157.388056 
L 181.064555 146.933503 
L 181.686155 153.529591 
L 182.307755 143.075039 
L 183.550956 156.267214 
L 184.172556 145.812662 
L 186.037357 165.600925 
L 186.658957 155.146372 
L 187.280557 161.74246 
L 187.902157 151.287906 
L 188.523757 157.883994 
L 189.145358 147.429442 
L 190.388558 160.621617 
L 191.010158 150.167064 
L 191.631758 156.763152 
L 192.253359 146.3086 
L 192.874959 152.904688 
L 193.496559 142.450135 
L 194.118159 149.046223 
L 194.739759 138.591671 
L 195.36136 145.187759 
L 195.98296 134.733207 
L 197.22616 147.925382 
L 197.84776 137.47083 
L 199.090961 150.663006 
L 199.712561 140.208454 
L 200.334161 146.804541 
L 200.955761 136.349989 
L 201.577361 142.946077 
L 202.198962 132.491525 
L 202.820562 139.087613 
L 203.442162 128.633061 
L 204.063762 135.229149 
L 204.685362 124.774597 
L 205.928563 137.966773 
L 206.550163 127.512221 
L 207.793363 140.704396 
L 208.414964 130.249844 
L 209.036564 136.845932 
L 209.658164 126.39138 
L 210.279764 132.987468 
L 210.901364 122.532916 
L 211.522965 129.129004 
L 212.144565 118.674452 
L 213.387765 131.866628 
L 214.009365 121.412076 
L 215.252566 134.604251 
L 215.874166 124.149699 
L 217.117366 137.341875 
L 217.738967 126.887323 
L 218.360567 133.483411 
L 218.982167 123.028859 
L 219.603767 129.624947 
L 220.225367 119.170395 
L 221.468568 132.362571 
L 222.090168 121.908019 
L 222.711768 128.504107 
L 223.333368 118.049555 
L 223.954968 124.645643 
L 224.576569 114.191091 
L 226.441369 133.979354 
L 227.062969 123.524802 
L 228.92777 143.313066 
L 229.54937 132.858514 
L 230.17097 139.454602 
L 230.792571 129.00005 
L 232.657371 148.788313 
L 233.278971 138.333761 
L 233.900572 144.929849 
L 234.522172 134.475297 
L 236.386972 154.26356 
L 237.008572 143.809008 
L 237.630173 150.405096 
L 238.251773 139.950543 
L 238.873373 146.546631 
L 239.494973 136.092079 
L 241.981374 162.476431 
L 242.602974 152.021877 
L 243.224574 158.617965 
L 243.846175 148.163413 
L 245.089375 161.355588 
L 245.710975 150.901035 
L 246.332575 157.497123 
L 246.954176 147.04257 
L 247.575776 153.638658 
L 248.197376 143.184106 
L 248.818976 149.780194 
L 249.440576 139.325642 
L 251.926977 165.709993 
L 252.548577 155.255439 
L 253.791778 168.447615 
L 254.413378 157.993061 
L 255.034978 164.589149 
L 255.656578 154.134595 
L 256.899779 167.326771 
L 257.521379 156.872217 
L 258.142979 163.468305 
L 258.764579 153.013752 
L 259.386179 159.609839 
L 260.00778 149.155287 
L 260.62938 155.751374 
L 261.25098 145.296822 
L 262.49418 158.488998 
L 263.115781 148.034445 
L 263.737381 154.630533 
L 264.358981 144.17598 
L 264.980581 150.772068 
L 265.602181 140.317516 
L 266.223782 146.913604 
L 266.845382 136.459052 
L 267.466982 143.055139 
L 268.088582 132.600587 
L 268.710182 139.196675 
L 269.331783 128.742123 
L 270.574983 141.934299 
L 271.196583 131.479747 
L 271.818183 138.075835 
L 272.439783 127.621283 
L 273.682984 140.813458 
L 274.304584 130.358906 
L 275.547784 143.551082 
L 276.169385 133.09653 
L 276.790985 139.692618 
L 277.412585 129.238066 
L 279.277386 149.026329 
L 279.898986 138.571777 
L 280.520586 145.167865 
L 281.142186 134.713313 
L 282.385387 147.905489 
L 283.006987 137.450937 
L 283.628587 144.047024 
L 284.250187 133.592472 
L 284.871787 140.18856 
L 285.493388 129.734008 
L 286.114988 136.330096 
L 286.736588 125.875544 
L 289.222989 152.259895 
L 289.844589 141.805343 
L 290.466189 148.401431 
L 291.087789 137.946879 
L 292.33099 151.139055 
L 292.95259 140.684502 
L 293.57419 147.28059 
L 294.19579 136.826038 
L 295.438991 150.018214 
L 296.060591 139.563661 
L 296.682191 146.159749 
L 297.303791 135.705197 
L 297.925391 142.301285 
L 298.546992 131.846733 
L 299.790192 145.038909 
L 300.411792 134.584357 
L 301.033392 141.180444 
L 301.654993 130.725892 
L 304.762994 163.706332 
L 305.384594 153.251778 
L 306.627794 166.443954 
L 307.249394 155.9894 
L 309.735795 182.373752 
L 310.357395 171.91919 
L 310.978995 178.515278 
L 311.600596 168.060719 
L 312.843796 181.252895 
L 313.465396 170.798334 
L 314.086996 177.394422 
L 314.708597 166.939864 
L 316.573397 186.728127 
L 317.194997 176.27356 
L 318.438198 189.465735 
L 319.059798 179.011162 
L 319.681398 185.60725 
L 320.302998 175.152684 
L 321.546199 188.34486 
L 322.167799 177.890289 
L 324.0326 197.678553 
L 324.6542 187.223951 
L 325.2758 193.820039 
L 325.8974 183.365453 
L 326.519 189.961541 
L 327.1406 179.506967 
L 328.383801 192.699143 
L 329.005401 182.244561 
L 330.870202 202.032824 
L 331.491802 191.578193 
L 332.113402 198.174281 
L 332.735002 187.719676 
L 334.599803 207.50794 
L 335.221403 197.053247 
L 335.843003 203.649335 
L 336.464603 193.194689 
L 337.086204 199.790777 
L 337.707804 189.336163 
L 338.329404 195.93225 
L 338.951004 185.477657 
L 340.194205 198.669832 
L 340.815805 188.215225 
L 341.437405 194.811313 
L 342.059005 184.356724 
L 342.680605 190.952812 
L 343.302206 180.498235 
L 347.653407 226.67085 
L 348.275007 216.215242 
L 350.139808 236.003506 
L 350.761408 225.54614 
L 351.383008 232.142228 
L 352.004608 221.6858 
L 352.626208 228.281888 
L 353.247809 217.826086 
L 354.491009 231.018262 
L 355.112609 220.562043 
L 355.734209 227.158131 
L 356.35581 216.702468 
L 356.97741 223.298556 
L 357.59901 212.843263 
L 358.22061 219.439351 
L 358.84221 208.984306 
L 360.085411 222.176481 
L 360.707011 211.721271 
L 361.328611 218.317359 
L 361.950211 207.862368 
L 363.815012 227.650632 
L 364.436612 217.19491 
L 365.058212 223.790998 
L 365.679812 213.335666 
L 366.301413 219.931754 
L 366.923013 209.476682 
L 371.274214 255.649297 
L 371.895814 245.172589 
L 372.517415 251.768677 
L 373.139015 241.299383 
L 373.760615 247.89547 
L 374.382215 237.431103 
L 375.003815 244.027191 
L 375.625416 233.566101 
L 378.111816 259.950452 
L 378.733417 249.461106 
L 379.355017 256.057194 
L 379.976617 245.579517 
L 381.219817 258.771693 
L 381.841417 248.286394 
L 382.463018 254.882482 
L 383.084618 244.407487 
L 383.706218 251.003575 
L 384.327818 240.535419 
L 385.571019 253.727594 
L 386.192619 243.254934 
L 386.814219 249.851022 
L 387.435819 239.384416 
L 388.057419 245.980504 
L 388.67902 235.517925 
L 389.30062 242.114013 
L 389.92222 231.654113 
L 391.16542 244.846289 
L 391.787021 234.384612 
L 393.651821 254.172875 
L 394.273421 243.699348 
L 394.895022 250.295436 
L 395.516622 239.828255 
L 396.138222 246.424343 
L 396.759822 235.96138 
L 398.003023 249.153556 
L 398.624623 238.687802 
L 399.246223 245.28389 
L 399.867823 234.821877 
L 401.111023 248.014053 
L 401.732624 237.549563 
L 402.354224 244.145651 
L 402.975824 233.684479 
L 403.597424 240.280567 
L 404.219024 229.821604 
L 404.840625 236.417692 
L 405.462225 225.960201 
L 406.083825 232.556288 
L 406.705425 222.099778 
L 407.327025 228.695865 
L 407.948626 218.240008 
L 409.813426 238.028271 
L 410.435026 227.570238 
L 411.056627 234.166326 
L 411.678227 223.709454 
L 412.299827 230.305542 
L 412.921427 219.849443 
L 413.543027 226.445531 
L 414.164628 215.989948 
L 416.651028 242.3743 
L 417.272628 231.914252 
L 418.515829 245.106428 
L 419.137429 234.644553 
L 420.380629 247.836729 
L 421.00223 237.372422 
L 423.48863 263.756773 
L 424.110231 253.250362 
L 425.975031 273.038625 
L 426.596631 262.447148 
L 427.218232 269.043236 
L 427.839832 258.498483 
L 428.461432 265.094571 
L 429.083032 254.580357 
L 432.191033 287.560796 
L 432.812633 276.492086 
L 435.299034 302.876437 
L 435.299034 302.876437 
" style="fill:none;stroke:#ff7f0e;stroke-linecap:square;stroke-width:0.666667;"/>
   </g>
   <g id="patch_3">
    <path d="M 35.85875 316.4425 
L 35.85875 17.989125 
" style="fill:none;stroke:#000000;stroke-linecap:square;stroke-linejoin:miter;stroke-width:0.8;"/>
   </g>
   <g id="patch_4">
    <path d="M 454.32 316.4425 
L 454.32 17.989125 
" style="fill:none;stroke:#000000;stroke-linecap:square;stroke-linejoin:miter;stroke-width:0.8;"/>
   </g>
   <g id="patch_5">
    <path d="M 35.85875 316.4425 
L 454.32 316.4425 
" style="fill:none;stroke:#000000;stroke-linecap:square;stroke-linejoin:miter;stroke-width:0.8;"/>
   </g>
   <g id="patch_6">
    <path d="M 35.85875 17.989125 
L 454.32 17.989125 
" style="fill:none;stroke:#000000;stroke-linecap:square;stroke-linejoin:miter;stroke-width:0.8;"/>
   </g>
   <g id="text_17">
    <!-- "3y+1" problem -->
    <g transform="translate(214.747 11.989125)scale(0.072 -0.072)">
     <defs>
      <path d="M 43.703125 72.90625 
L 43.703125 45.796875 
L 35.203125 45.796875 
L 35.203125 72.90625 
z
M 25 72.90625 
L 25 45.796875 
L 16.5 45.796875 
L 16.5 72.90625 
z
" id="DejaVuSansMono-34"/>
      <path d="M 34.1875 57.171875 
L 34.1875 35.5 
L 55.90625 35.5 
L 55.90625 27.203125 
L 34.1875 27.203125 
L 34.1875 5.515625 
L 25.984375 5.515625 
L 25.984375 27.203125 
L 4.296875 27.203125 
L 4.296875 35.5 
L 25.984375 35.5 
L 25.984375 57.171875 
z
" id="DejaVuSansMono-43"/>
      <path id="DejaVuSansMono-32"/>
      <path d="M 18.3125 6.890625 
L 18.3125 -20.796875 
L 9.28125 -20.796875 
L 9.28125 54.6875 
L 18.3125 54.6875 
L 18.3125 47.703125 
Q 20.5625 51.765625 24.296875 53.875 
Q 28.03125 56 32.90625 56 
Q 42.828125 56 48.46875 48.328125 
Q 54.109375 40.671875 54.109375 27.09375 
Q 54.109375 13.765625 48.4375 6.171875 
Q 42.78125 -1.421875 32.90625 -1.421875 
Q 27.9375 -1.421875 24.1875 0.703125 
Q 20.453125 2.828125 18.3125 6.890625 
z
M 44.671875 27.296875 
Q 44.671875 37.75 41.375 43.0625 
Q 38.09375 48.390625 31.59375 48.390625 
Q 25.046875 48.390625 21.671875 43.046875 
Q 18.3125 37.703125 18.3125 27.296875 
Q 18.3125 16.9375 21.671875 11.5625 
Q 25.046875 6.203125 31.59375 6.203125 
Q 38.09375 6.203125 41.375 11.515625 
Q 44.671875 16.84375 44.671875 27.296875 
z
" id="DejaVuSansMono-112"/>
      <path d="M 56.390625 43.40625 
Q 53.515625 45.65625 50.53125 46.671875 
Q 47.5625 47.703125 44 47.703125 
Q 35.59375 47.703125 31.140625 42.421875 
Q 26.703125 37.15625 26.703125 27.203125 
L 26.703125 0 
L 17.671875 0 
L 17.671875 54.6875 
L 26.703125 54.6875 
L 26.703125 44 
Q 28.953125 49.8125 33.609375 52.90625 
Q 38.28125 56 44.671875 56 
Q 48 56 50.875 55.171875 
Q 53.765625 54.34375 56.390625 52.59375 
z
" id="DejaVuSansMono-114"/>
      <path d="M 30.078125 48.390625 
Q 23.25 48.390625 19.734375 43.0625 
Q 16.21875 37.75 16.21875 27.296875 
Q 16.21875 16.890625 19.734375 11.546875 
Q 23.25 6.203125 30.078125 6.203125 
Q 36.96875 6.203125 40.484375 11.546875 
Q 44 16.890625 44 27.296875 
Q 44 37.75 40.484375 43.0625 
Q 36.96875 48.390625 30.078125 48.390625 
z
M 30.078125 56 
Q 41.453125 56 47.484375 48.625 
Q 53.515625 41.265625 53.515625 27.296875 
Q 53.515625 13.28125 47.5 5.921875 
Q 41.5 -1.421875 30.078125 -1.421875 
Q 18.703125 -1.421875 12.6875 5.921875 
Q 6.6875 13.28125 6.6875 27.296875 
Q 6.6875 41.265625 12.6875 48.625 
Q 18.703125 56 30.078125 56 
z
" id="DejaVuSansMono-111"/>
      <path d="M 44.828125 27.296875 
Q 44.828125 37.75 41.5 43.0625 
Q 38.1875 48.390625 31.6875 48.390625 
Q 25.140625 48.390625 21.765625 43.046875 
Q 18.40625 37.703125 18.40625 27.296875 
Q 18.40625 16.9375 21.765625 11.5625 
Q 25.140625 6.203125 31.6875 6.203125 
Q 38.1875 6.203125 41.5 11.515625 
Q 44.828125 16.84375 44.828125 27.296875 
z
M 18.40625 47.703125 
Q 20.5625 51.703125 24.34375 53.84375 
Q 28.125 56 33.109375 56 
Q 42.96875 56 48.625 48.40625 
Q 54.296875 40.828125 54.296875 27.484375 
Q 54.296875 13.96875 48.609375 6.265625 
Q 42.921875 -1.421875 33.015625 -1.421875 
Q 28.125 -1.421875 24.390625 0.703125 
Q 20.65625 2.828125 18.40625 6.890625 
L 18.40625 0 
L 9.421875 0 
L 9.421875 75.984375 
L 18.40625 75.984375 
z
" id="DejaVuSansMono-98"/>
      <path d="M 31.203125 19.828125 
Q 31.203125 13.765625 33.421875 10.6875 
Q 35.640625 7.625 39.984375 7.625 
L 50.484375 7.625 
L 50.484375 0 
L 39.109375 0 
Q 31.0625 0 26.640625 5.171875 
Q 22.21875 10.359375 22.21875 19.828125 
L 22.21875 69.484375 
L 7.8125 69.484375 
L 7.8125 76.515625 
L 31.203125 76.515625 
z
" id="DejaVuSansMono-108"/>
      <path d="M 54.296875 29.59375 
L 54.296875 25.203125 
L 15.375 25.203125 
L 15.375 24.90625 
Q 15.375 15.96875 20.03125 11.078125 
Q 24.703125 6.203125 33.203125 6.203125 
Q 37.5 6.203125 42.1875 7.5625 
Q 46.875 8.9375 52.203125 11.71875 
L 52.203125 2.78125 
Q 47.078125 0.6875 42.3125 -0.359375 
Q 37.546875 -1.421875 33.109375 -1.421875 
Q 20.359375 -1.421875 13.171875 6.21875 
Q 6 13.875 6 27.296875 
Q 6 40.375 13.03125 48.1875 
Q 20.0625 56 31.78125 56 
Q 42.234375 56 48.265625 48.921875 
Q 54.296875 41.84375 54.296875 29.59375 
z
M 45.3125 32.234375 
Q 45.125 40.140625 41.578125 44.265625 
Q 38.03125 48.390625 31.390625 48.390625 
Q 24.90625 48.390625 20.703125 44.09375 
Q 16.5 39.796875 15.71875 32.171875 
z
" id="DejaVuSansMono-101"/>
      <path d="M 33.015625 49.125 
Q 34.671875 52.640625 37.234375 54.3125 
Q 39.796875 56 43.40625 56 
Q 50 56 52.703125 50.890625 
Q 55.421875 45.796875 55.421875 31.6875 
L 55.421875 0 
L 47.21875 0 
L 47.21875 31.296875 
Q 47.21875 42.875 45.921875 45.671875 
Q 44.625 48.484375 41.21875 48.484375 
Q 37.3125 48.484375 35.859375 45.484375 
Q 34.421875 42.484375 34.421875 31.296875 
L 34.421875 0 
L 26.21875 0 
L 26.21875 31.296875 
Q 26.21875 43.015625 24.828125 45.75 
Q 23.4375 48.484375 19.828125 48.484375 
Q 16.265625 48.484375 14.875 45.484375 
Q 13.484375 42.484375 13.484375 31.296875 
L 13.484375 0 
L 5.328125 0 
L 5.328125 54.6875 
L 13.484375 54.6875 
L 13.484375 50 
Q 15.09375 52.9375 17.5 54.46875 
Q 19.921875 56 23 56 
Q 26.703125 56 29.171875 54.296875 
Q 31.640625 52.59375 33.015625 49.125 
z
" id="DejaVuSansMono-109"/>
     </defs>
     <use xlink:href="#DejaVuSansMono-34"/>
     <use x="60.205078" xlink:href="#DejaVuSansMono-51"/>
     <use x="120.410156" xlink:href="#DejaVuSansMono-121"/>
     <use x="180.615234" xlink:href="#DejaVuSansMono-43"/>
     <use x="240.820312" xlink:href="#DejaVuSansMono-49"/>
     <use x="301.025391" xlink:href="#DejaVuSansMono-34"/>
     <use x="361.230469" xlink:href="#DejaVuSansMono-32"/>
     <use x="421.435547" xlink:href="#DejaVuSansMono-112"/>
     <use x="481.640625" xlink:href="#DejaVuSansMono-114"/>
     <use x="541.845703" xlink:href="#DejaVuSansMono-111"/>
     <use x="602.050781" xlink:href="#DejaVuSansMono-98"/>
     <use x="662.255859" xlink:href="#DejaVuSansMono-108"/>
     <use x="722.460938" xlink:href="#DejaVuSansMono-101"/>
     <use x="782.666016" xlink:href="#DejaVuSansMono-109"/>
    </g>
   </g>
   <g id="legend_1">
    <g id="patch_7">
     <path d="M 351.451875 82.0095 
L 450.12 82.0095 
Q 451.32 82.0095 451.32 80.8095 
L 451.32 22.189125 
Q 451.32 20.989125 450.12 20.989125 
L 351.451875 20.989125 
Q 350.251875 20.989125 350.251875 22.189125 
L 350.251875 80.8095 
Q 350.251875 82.0095 351.451875 82.0095 
z
" style="fill:#ffffff;opacity:0.8;stroke:#cccccc;stroke-linejoin:miter;"/>
    </g>
    <g id="line2d_17">
     <path d="M 352.651875 36.889687 
L 364.651875 36.889687 
" style="fill:none;stroke:#1f77b4;stroke-linecap:square;stroke-width:0.666667;"/>
    </g>
    <g id="line2d_18"/>
    <g id="text_18">
     <!-- "Tallest": -->
     <g transform="translate(369.451875 27.980062)scale(0.06 -0.06)">
      <defs>
       <path d="M 2.296875 72.90625 
L 57.90625 72.90625 
L 57.90625 64.59375 
L 35.109375 64.59375 
L 35.109375 0 
L 25.203125 0 
L 25.203125 64.59375 
L 2.296875 64.59375 
z
" id="DejaVuSansMono-84"/>
       <path d="M 34.28125 27.484375 
L 31.296875 27.484375 
Q 23.4375 27.484375 19.453125 24.71875 
Q 15.484375 21.96875 15.484375 16.5 
Q 15.484375 11.578125 18.453125 8.84375 
Q 21.4375 6.109375 26.703125 6.109375 
Q 34.125 6.109375 38.375 11.25 
Q 42.625 16.40625 42.671875 25.484375 
L 42.671875 27.484375 
z
M 51.703125 31.203125 
L 51.703125 0 
L 42.671875 0 
L 42.671875 8.109375 
Q 39.796875 3.21875 35.421875 0.890625 
Q 31.0625 -1.421875 24.8125 -1.421875 
Q 16.453125 -1.421875 11.46875 3.296875 
Q 6.5 8.015625 6.5 15.921875 
Q 6.5 25.046875 12.625 29.78125 
Q 18.75 34.515625 30.609375 34.515625 
L 42.671875 34.515625 
L 42.671875 35.9375 
Q 42.625 42.484375 39.34375 45.4375 
Q 36.078125 48.390625 28.90625 48.390625 
Q 24.3125 48.390625 19.625 47.0625 
Q 14.9375 45.75 10.5 43.21875 
L 10.5 52.203125 
Q 15.484375 54.109375 20.046875 55.046875 
Q 24.609375 56 28.90625 56 
Q 35.6875 56 40.5 54 
Q 45.3125 52 48.296875 48 
Q 50.140625 45.5625 50.921875 41.96875 
Q 51.703125 38.375 51.703125 31.203125 
z
" id="DejaVuSansMono-97"/>
       <path d="M 47.515625 52.78125 
L 47.515625 44 
Q 43.65625 46.234375 39.75 47.359375 
Q 35.84375 48.484375 31.78125 48.484375 
Q 25.6875 48.484375 22.671875 46.5 
Q 19.671875 44.53125 19.671875 40.484375 
Q 19.671875 36.8125 21.921875 35 
Q 24.171875 33.203125 33.109375 31.5 
L 36.71875 30.8125 
Q 43.40625 29.546875 46.84375 25.734375 
Q 50.296875 21.921875 50.296875 15.828125 
Q 50.296875 7.71875 44.53125 3.140625 
Q 38.765625 -1.421875 28.515625 -1.421875 
Q 24.46875 -1.421875 20.015625 -0.5625 
Q 15.578125 0.296875 10.40625 2 
L 10.40625 11.28125 
Q 15.4375 8.6875 20.015625 7.390625 
Q 24.609375 6.109375 28.71875 6.109375 
Q 34.671875 6.109375 37.9375 8.515625 
Q 41.21875 10.9375 41.21875 15.28125 
Q 41.21875 21.53125 29.25 23.921875 
L 28.859375 24.03125 
L 25.484375 24.703125 
Q 17.71875 26.21875 14.15625 29.8125 
Q 10.59375 33.40625 10.59375 39.59375 
Q 10.59375 47.46875 15.90625 51.734375 
Q 21.234375 56 31.109375 56 
Q 35.5 56 39.546875 55.1875 
Q 43.609375 54.390625 47.515625 52.78125 
z
" id="DejaVuSansMono-115"/>
       <path d="M 29.984375 70.21875 
L 29.984375 54.6875 
L 50.390625 54.6875 
L 50.390625 47.703125 
L 29.984375 47.703125 
L 29.984375 18.015625 
Q 29.984375 11.96875 32.28125 9.5625 
Q 34.578125 7.171875 40.28125 7.171875 
L 50.390625 7.171875 
L 50.390625 0 
L 39.40625 0 
Q 29.296875 0 25.140625 4.046875 
Q 21 8.109375 21 18.015625 
L 21 47.703125 
L 6.390625 47.703125 
L 6.390625 54.6875 
L 21 54.6875 
L 21 70.21875 
z
" id="DejaVuSansMono-116"/>
       <path d="M 23.875 51.90625 
L 36.1875 51.90625 
L 36.1875 37.109375 
L 23.875 37.109375 
z
M 23.875 14.890625 
L 36.1875 14.890625 
L 36.1875 0 
L 23.875 0 
z
" id="DejaVuSansMono-58"/>
      </defs>
      <use xlink:href="#DejaVuSansMono-34"/>
      <use x="60.205078" xlink:href="#DejaVuSansMono-84"/>
      <use x="120.410156" xlink:href="#DejaVuSansMono-97"/>
      <use x="180.615234" xlink:href="#DejaVuSansMono-108"/>
      <use x="240.820312" xlink:href="#DejaVuSansMono-108"/>
      <use x="301.025391" xlink:href="#DejaVuSansMono-101"/>
      <use x="361.230469" xlink:href="#DejaVuSansMono-115"/>
      <use x="421.435547" xlink:href="#DejaVuSansMono-116"/>
      <use x="481.640625" xlink:href="#DejaVuSansMono-34"/>
      <use x="541.845703" xlink:href="#DejaVuSansMono-58"/>
     </g>
     <!-- y_0    = 5656191 -->
     <g transform="translate(369.451875 34.737)scale(0.06 -0.06)">
      <defs>
       <path d="M 4.296875 25.59375 
L 55.90625 25.59375 
L 55.90625 17.1875 
L 4.296875 17.1875 
z
M 4.296875 45.40625 
L 55.90625 45.40625 
L 55.90625 37.109375 
L 4.296875 37.109375 
z
" id="DejaVuSansMono-61"/>
      </defs>
      <use xlink:href="#DejaVuSansMono-121"/>
      <use x="60.205078" xlink:href="#DejaVuSansMono-95"/>
      <use x="120.410156" xlink:href="#DejaVuSansMono-48"/>
      <use x="180.615234" xlink:href="#DejaVuSansMono-32"/>
      <use x="240.820312" xlink:href="#DejaVuSansMono-32"/>
      <use x="301.025391" xlink:href="#DejaVuSansMono-32"/>
      <use x="361.230469" xlink:href="#DejaVuSansMono-32"/>
      <use x="421.435547" xlink:href="#DejaVuSansMono-61"/>
      <use x="481.640625" xlink:href="#DejaVuSansMono-32"/>
      <use x="541.845703" xlink:href="#DejaVuSansMono-53"/>
      <use x="602.050781" xlink:href="#DejaVuSansMono-54"/>
      <use x="662.255859" xlink:href="#DejaVuSansMono-53"/>
      <use x="722.460938" xlink:href="#DejaVuSansMono-54"/>
      <use x="782.666016" xlink:href="#DejaVuSansMono-49"/>
      <use x="842.871094" xlink:href="#DejaVuSansMono-57"/>
      <use x="903.076172" xlink:href="#DejaVuSansMono-49"/>
     </g>
     <!-- y_max  = 2412493616608 -->
     <g transform="translate(369.451875 41.660812)scale(0.06 -0.06)">
      <defs>
       <path d="M 54.59375 54.6875 
L 35.015625 28.515625 
L 56.5 0 
L 46.09375 0 
L 30.078125 21.921875 
L 14.109375 0 
L 3.71875 0 
L 25.203125 28.515625 
L 5.609375 54.6875 
L 15.578125 54.6875 
L 30.078125 34.90625 
L 44.484375 54.6875 
z
" id="DejaVuSansMono-120"/>
       <path d="M 30.078125 34.625 
Q 23.484375 34.625 19.890625 30.9375 
Q 16.3125 27.25 16.3125 20.515625 
Q 16.3125 13.765625 19.9375 10.03125 
Q 23.578125 6.296875 30.078125 6.296875 
Q 36.71875 6.296875 40.296875 9.984375 
Q 43.890625 13.671875 43.890625 20.515625 
Q 43.890625 27.203125 40.25 30.90625 
Q 36.625 34.625 30.078125 34.625 
z
M 21.484375 38.71875 
Q 15.1875 40.328125 11.640625 44.71875 
Q 8.109375 49.125 8.109375 55.328125 
Q 8.109375 64.015625 14.015625 69.109375 
Q 19.921875 74.21875 30.078125 74.21875 
Q 40.28125 74.21875 46.1875 69.109375 
Q 52.09375 64.015625 52.09375 55.328125 
Q 52.09375 49.125 48.546875 44.71875 
Q 45.015625 40.328125 38.71875 38.71875 
Q 46.046875 37.109375 49.921875 32.21875 
Q 53.8125 27.34375 53.8125 19.578125 
Q 53.8125 9.71875 47.515625 4.140625 
Q 41.21875 -1.421875 30.078125 -1.421875 
Q 18.953125 -1.421875 12.671875 4.125 
Q 6.390625 9.671875 6.390625 19.484375 
Q 6.390625 27.296875 10.265625 32.203125 
Q 14.15625 37.109375 21.484375 38.71875 
z
M 17.921875 54.390625 
Q 17.921875 48.53125 21.046875 45.453125 
Q 24.171875 42.390625 30.078125 42.390625 
Q 36.03125 42.390625 39.15625 45.453125 
Q 42.28125 48.53125 42.28125 54.390625 
Q 42.28125 60.359375 39.171875 63.484375 
Q 36.078125 66.609375 30.078125 66.609375 
Q 24.171875 66.609375 21.046875 63.453125 
Q 17.921875 60.296875 17.921875 54.390625 
z
" id="DejaVuSansMono-56"/>
      </defs>
      <use xlink:href="#DejaVuSansMono-121"/>
      <use x="60.205078" xlink:href="#DejaVuSansMono-95"/>
      <use x="120.410156" xlink:href="#DejaVuSansMono-109"/>
      <use x="180.615234" xlink:href="#DejaVuSansMono-97"/>
      <use x="240.820312" xlink:href="#DejaVuSansMono-120"/>
      <use x="301.025391" xlink:href="#DejaVuSansMono-32"/>
      <use x="361.230469" xlink:href="#DejaVuSansMono-32"/>
      <use x="421.435547" xlink:href="#DejaVuSansMono-61"/>
      <use x="481.640625" xlink:href="#DejaVuSansMono-32"/>
      <use x="541.845703" xlink:href="#DejaVuSansMono-50"/>
      <use x="602.050781" xlink:href="#DejaVuSansMono-52"/>
      <use x="662.255859" xlink:href="#DejaVuSansMono-49"/>
      <use x="722.460938" xlink:href="#DejaVuSansMono-50"/>
      <use x="782.666016" xlink:href="#DejaVuSansMono-52"/>
      <use x="842.871094" xlink:href="#DejaVuSansMono-57"/>
      <use x="903.076172" xlink:href="#DejaVuSansMono-51"/>
      <use x="963.28125" xlink:href="#DejaVuSansMono-54"/>
      <use x="1023.486328" xlink:href="#DejaVuSansMono-49"/>
      <use x="1083.691406" xlink:href="#DejaVuSansMono-54"/>
      <use x="1143.896484" xlink:href="#DejaVuSansMono-54"/>
      <use x="1204.101562" xlink:href="#DejaVuSansMono-48"/>
      <use x="1264.306641" xlink:href="#DejaVuSansMono-56"/>
     </g>
     <!-- x_max  = 401 -->
     <g transform="translate(369.451875 48.584625)scale(0.06 -0.06)">
      <use xlink:href="#DejaVuSansMono-120"/>
      <use x="60.205078" xlink:href="#DejaVuSansMono-95"/>
      <use x="120.410156" xlink:href="#DejaVuSansMono-109"/>
      <use x="180.615234" xlink:href="#DejaVuSansMono-97"/>
      <use x="240.820312" xlink:href="#DejaVuSansMono-120"/>
      <use x="301.025391" xlink:href="#DejaVuSansMono-32"/>
      <use x="361.230469" xlink:href="#DejaVuSansMono-32"/>
      <use x="421.435547" xlink:href="#DejaVuSansMono-61"/>
      <use x="481.640625" xlink:href="#DejaVuSansMono-32"/>
      <use x="541.845703" xlink:href="#DejaVuSansMono-52"/>
      <use x="602.050781" xlink:href="#DejaVuSansMono-48"/>
      <use x="662.255859" xlink:href="#DejaVuSansMono-49"/>
     </g>
    </g>
    <g id="line2d_19">
     <path d="M 352.651875 66.499875 
L 364.651875 66.499875 
" style="fill:none;stroke:#ff7f0e;stroke-linecap:square;stroke-width:0.666667;"/>
    </g>
    <g id="line2d_20"/>
    <g id="text_19">
     <!-- "Widest":  -->
     <g transform="translate(369.451875 57.59025)scale(0.06 -0.06)">
      <defs>
       <path d="M 0 72.90625 
L 9.625 72.90625 
L 16.609375 13.71875 
L 24.90625 52.875 
L 35.203125 52.875 
L 43.609375 13.625 
L 50.59375 72.90625 
L 60.203125 72.90625 
L 49.3125 0 
L 39.984375 0 
L 30.078125 43.3125 
L 20.21875 0 
L 10.890625 0 
z
" id="DejaVuSansMono-87"/>
       <path d="M 12.5 54.6875 
L 35.5 54.6875 
L 35.5 6.984375 
L 53.328125 6.984375 
L 53.328125 0 
L 8.6875 0 
L 8.6875 6.984375 
L 26.515625 6.984375 
L 26.515625 47.703125 
L 12.5 47.703125 
z
M 26.515625 75.984375 
L 35.5 75.984375 
L 35.5 64.59375 
L 26.515625 64.59375 
z
" id="DejaVuSansMono-105"/>
       <path d="M 41.890625 47.703125 
L 41.890625 75.984375 
L 50.875 75.984375 
L 50.875 0 
L 41.890625 0 
L 41.890625 6.890625 
Q 39.65625 2.828125 35.90625 0.703125 
Q 32.171875 -1.421875 27.296875 -1.421875 
Q 17.390625 -1.421875 11.6875 6.265625 
Q 6 13.96875 6 27.484375 
Q 6 40.828125 11.71875 48.40625 
Q 17.4375 56 27.296875 56 
Q 32.234375 56 35.984375 53.875 
Q 39.75 51.765625 41.890625 47.703125 
z
M 15.484375 27.296875 
Q 15.484375 16.84375 18.796875 11.515625 
Q 22.125 6.203125 28.609375 6.203125 
Q 35.109375 6.203125 38.5 11.5625 
Q 41.890625 16.9375 41.890625 27.296875 
Q 41.890625 37.703125 38.5 43.046875 
Q 35.109375 48.390625 28.609375 48.390625 
Q 22.125 48.390625 18.796875 43.0625 
Q 15.484375 37.75 15.484375 27.296875 
z
" id="DejaVuSansMono-100"/>
      </defs>
      <use xlink:href="#DejaVuSansMono-34"/>
      <use x="60.205078" xlink:href="#DejaVuSansMono-87"/>
      <use x="120.410156" xlink:href="#DejaVuSansMono-105"/>
      <use x="180.615234" xlink:href="#DejaVuSansMono-100"/>
      <use x="240.820312" xlink:href="#DejaVuSansMono-101"/>
      <use x="301.025391" xlink:href="#DejaVuSansMono-115"/>
      <use x="361.230469" xlink:href="#DejaVuSansMono-116"/>
      <use x="421.435547" xlink:href="#DejaVuSansMono-34"/>
      <use x="481.640625" xlink:href="#DejaVuSansMono-58"/>
      <use x="541.845703" xlink:href="#DejaVuSansMono-32"/>
     </g>
     <!-- y_0    = 5649499 -->
     <g transform="translate(369.451875 64.347187)scale(0.06 -0.06)">
      <use xlink:href="#DejaVuSansMono-121"/>
      <use x="60.205078" xlink:href="#DejaVuSansMono-95"/>
      <use x="120.410156" xlink:href="#DejaVuSansMono-48"/>
      <use x="180.615234" xlink:href="#DejaVuSansMono-32"/>
      <use x="240.820312" xlink:href="#DejaVuSansMono-32"/>
      <use x="301.025391" xlink:href="#DejaVuSansMono-32"/>
      <use x="361.230469" xlink:href="#DejaVuSansMono-32"/>
      <use x="421.435547" xlink:href="#DejaVuSansMono-61"/>
      <use x="481.640625" xlink:href="#DejaVuSansMono-32"/>
      <use x="541.845703" xlink:href="#DejaVuSansMono-53"/>
      <use x="602.050781" xlink:href="#DejaVuSansMono-54"/>
      <use x="662.255859" xlink:href="#DejaVuSansMono-52"/>
      <use x="722.460938" xlink:href="#DejaVuSansMono-57"/>
      <use x="782.666016" xlink:href="#DejaVuSansMono-52"/>
      <use x="842.871094" xlink:href="#DejaVuSansMono-57"/>
      <use x="903.076172" xlink:href="#DejaVuSansMono-57"/>
     </g>
     <!-- y_max  = 1017886660 -->
     <g transform="translate(369.451875 71.271)scale(0.06 -0.06)">
      <use xlink:href="#DejaVuSansMono-121"/>
      <use x="60.205078" xlink:href="#DejaVuSansMono-95"/>
      <use x="120.410156" xlink:href="#DejaVuSansMono-109"/>
      <use x="180.615234" xlink:href="#DejaVuSansMono-97"/>
      <use x="240.820312" xlink:href="#DejaVuSansMono-120"/>
      <use x="301.025391" xlink:href="#DejaVuSansMono-32"/>
      <use x="361.230469" xlink:href="#DejaVuSansMono-32"/>
      <use x="421.435547" xlink:href="#DejaVuSansMono-61"/>
      <use x="481.640625" xlink:href="#DejaVuSansMono-32"/>
      <use x="541.845703" xlink:href="#DejaVuSansMono-49"/>
      <use x="602.050781" xlink:href="#DejaVuSansMono-48"/>
      <use x="662.255859" xlink:href="#DejaVuSansMono-49"/>
      <use x="722.460938" xlink:href="#DejaVuSansMono-55"/>
      <use x="782.666016" xlink:href="#DejaVuSansMono-56"/>
      <use x="842.871094" xlink:href="#DejaVuSansMono-56"/>
      <use x="903.076172" xlink:href="#DejaVuSansMono-54"/>
      <use x="963.28125" xlink:href="#DejaVuSansMono-54"/>
      <use x="1023.486328" xlink:href="#DejaVuSansMono-54"/>
      <use x="1083.691406" xlink:href="#DejaVuSansMono-48"/>
     </g>
     <!-- x_max  = 613 -->
     <g transform="translate(369.451875 78.194812)scale(0.06 -0.06)">
      <use xlink:href="#DejaVuSansMono-120"/>
      <use x="60.205078" xlink:href="#DejaVuSansMono-95"/>
      <use x="120.410156" xlink:href="#DejaVuSansMono-109"/>
      <use x="180.615234" xlink:href="#DejaVuSansMono-97"/>
      <use x="240.820312" xlink:href="#DejaVuSansMono-120"/>
      <use x="301.025391" xlink:href="#DejaVuSansMono-32"/>
      <use x="361.230469" xlink:href="#DejaVuSansMono-32"/>
      <use x="421.435547" xlink:href="#DejaVuSansMono-61"/>
      <use x="481.640625" xlink:href="#DejaVuSansMono-32"/>
      <use x="541.845703" xlink:href="#DejaVuSansMono-54"/>
      <use x="602.050781" xlink:href="#DejaVuSansMono-49"/>
      <use x="662.255859" xlink:href="#DejaVuSansMono-51"/>
     </g>
    </g>
   </g>
  </g>
 </g>
 <defs>
  <clipPath id="pe61e05cd6d">
   <rect height="298.453375" width="418.46125" x="35.85875" y="17.989125"/>
  </clipPath>
 </defs>
</svg>
