<?xml version="1.0" encoding="utf-8" standalone="no"?>
<!DOCTYPE svg PUBLIC "-//W3C//DTD SVG 1.1//EN"
  "http://www.w3.org/Graphics/SVG/1.1/DTD/svg11.dtd">
<!-- Created with matplotlib (https://matplotlib.org/) -->
<svg height="345.6pt" version="1.1" viewBox="0 0 460.8 345.6" width="460.8pt" xmlns="http://www.w3.org/2000/svg" xmlns:xlink="http://www.w3.org/1999/xlink">
 <metadata>
  <rdf:RDF xmlns:cc="http://creativecommons.org/ns#" xmlns:dc="http://purl.org/dc/elements/1.1/" xmlns:rdf="http://www.w3.org/1999/02/22-rdf-syntax-ns#">
   <cc:Work>
    <dc:type rdf:resource="http://purl.org/dc/dcmitype/StillImage"/>
    <dc:date>2022-03-17T00:25:34.495592</dc:date>
    <dc:format>image/svg+xml</dc:format>
    <dc:creator>
     <cc:Agent>
      <dc:title>Matplotlib v3.3.2, https://matplotlib.org/</dc:title>
     </cc:Agent>
    </dc:creator>
   </cc:Work>
  </rdf:RDF>
 </metadata>
 <defs>
  <style type="text/css">*{stroke-linecap:butt;stroke-linejoin:round;}</style>
 </defs>
 <g id="figure_1">
  <g id="patch_1">
   <path d="M 0 345.6 
L 460.8 345.6 
L 460.8 0 
L 0 0 
z
" style="fill:#ffffff;"/>
  </g>
  <g id="axes_1">
   <g id="patch_2">
    <path d="M 35.85875 316.4425 
L 454.32 316.4425 
L 454.32 17.989125 
L 35.85875 17.989125 
z
" style="fill:#ffffff;"/>
   </g>
   <g id="matplotlib.axis_1">
    <g id="xtick_1">
     <g id="line2d_1">
      <defs>
       <path d="M 0 0 
L 0 3.5 
" id="mce91458093" style="stroke:#000000;stroke-width:0.8;"/>
      </defs>
      <g>
       <use style="stroke:#000000;stroke-width:0.8;" x="54.879716" xlink:href="#mce91458093" y="316.4425"/>
      </g>
     </g>
     <g id="text_1">
      <!-- 0 -->
      <g transform="translate(53.073622 328.033437)scale(0.06 -0.06)">
       <defs>
        <path d="M 23.578125 36.625 
Q 23.578125 39.3125 25.453125 41.265625 
Q 27.34375 43.21875 29.984375 43.21875 
Q 32.71875 43.21875 34.671875 41.265625 
Q 36.625 39.3125 36.625 36.625 
Q 36.625 33.890625 34.6875 31.984375 
Q 32.765625 30.078125 29.984375 30.078125 
Q 27.25 30.078125 25.40625 31.9375 
Q 23.578125 33.796875 23.578125 36.625 
z
M 30.078125 66.40625 
Q 23.1875 66.40625 19.796875 58.984375 
Q 16.40625 51.5625 16.40625 36.375 
Q 16.40625 21.234375 19.796875 13.8125 
Q 23.1875 6.390625 30.078125 6.390625 
Q 37.015625 6.390625 40.40625 13.8125 
Q 43.796875 21.234375 43.796875 36.375 
Q 43.796875 51.5625 40.40625 58.984375 
Q 37.015625 66.40625 30.078125 66.40625 
z
M 30.078125 74.21875 
Q 41.75 74.21875 47.734375 64.640625 
Q 53.71875 55.078125 53.71875 36.375 
Q 53.71875 17.71875 47.734375 8.140625 
Q 41.75 -1.421875 30.078125 -1.421875 
Q 18.40625 -1.421875 12.453125 8.140625 
Q 6.5 17.71875 6.5 36.375 
Q 6.5 55.078125 12.453125 64.640625 
Q 18.40625 74.21875 30.078125 74.21875 
z
" id="DejaVuSansMono-48"/>
       </defs>
       <use xlink:href="#DejaVuSansMono-48"/>
      </g>
     </g>
    </g>
    <g id="xtick_2">
     <g id="line2d_2">
      <g>
       <use style="stroke:#000000;stroke-width:0.8;" x="129.765408" xlink:href="#mce91458093" y="316.4425"/>
      </g>
     </g>
     <g id="text_2">
      <!-- 100 -->
      <g transform="translate(124.347127 328.033437)scale(0.06 -0.06)">
       <defs>
        <path d="M 13.1875 8.296875 
L 28.515625 8.296875 
L 28.515625 64.015625 
L 12.015625 60.296875 
L 12.015625 69.28125 
L 28.421875 72.90625 
L 38.28125 72.90625 
L 38.28125 8.296875 
L 53.421875 8.296875 
L 53.421875 0 
L 13.1875 0 
z
" id="DejaVuSansMono-49"/>
       </defs>
       <use xlink:href="#DejaVuSansMono-49"/>
       <use x="60.205078" xlink:href="#DejaVuSansMono-48"/>
       <use x="120.410156" xlink:href="#DejaVuSansMono-48"/>
      </g>
     </g>
    </g>
    <g id="xtick_3">
     <g id="line2d_3">
      <g>
       <use style="stroke:#000000;stroke-width:0.8;" x="204.651101" xlink:href="#mce91458093" y="316.4425"/>
      </g>
     </g>
     <g id="text_3">
      <!-- 200 -->
      <g transform="translate(199.23282 328.033437)scale(0.06 -0.06)">
       <defs>
        <path d="M 18.21875 8.296875 
L 51.703125 8.296875 
L 51.703125 0 
L 7.421875 0 
L 7.421875 8.296875 
Q 16.546875 17.921875 23.375 25.296875 
Q 30.21875 32.671875 32.8125 35.6875 
Q 37.703125 41.65625 39.40625 45.34375 
Q 41.109375 49.03125 41.109375 52.875 
Q 41.109375 58.984375 37.515625 62.453125 
Q 33.9375 65.921875 27.6875 65.921875 
Q 23.25 65.921875 18.359375 64.3125 
Q 13.484375 62.703125 8.015625 59.421875 
L 8.015625 69.390625 
Q 13.03125 71.78125 17.890625 73 
Q 22.75 74.21875 27.484375 74.21875 
Q 38.1875 74.21875 44.703125 68.53125 
Q 51.21875 62.84375 51.21875 53.609375 
Q 51.21875 48.921875 49.046875 44.234375 
Q 46.875 39.546875 42 33.890625 
Q 39.265625 30.71875 34.0625 25.09375 
Q 28.859375 19.484375 18.21875 8.296875 
z
" id="DejaVuSansMono-50"/>
       </defs>
       <use xlink:href="#DejaVuSansMono-50"/>
       <use x="60.205078" xlink:href="#DejaVuSansMono-48"/>
       <use x="120.410156" xlink:href="#DejaVuSansMono-48"/>
      </g>
     </g>
    </g>
    <g id="xtick_4">
     <g id="line2d_4">
      <g>
       <use style="stroke:#000000;stroke-width:0.8;" x="279.536794" xlink:href="#mce91458093" y="316.4425"/>
      </g>
     </g>
     <g id="text_4">
      <!-- 300 -->
      <g transform="translate(274.118512 328.033437)scale(0.06 -0.06)">
       <defs>
        <path d="M 37.890625 39.015625 
Q 45.0625 37.109375 48.875 32.25 
Q 52.6875 27.390625 52.6875 20.125 
Q 52.6875 10.0625 45.921875 4.3125 
Q 39.15625 -1.421875 27.203125 -1.421875 
Q 22.171875 -1.421875 16.9375 -0.484375 
Q 11.71875 0.4375 6.6875 2.203125 
L 6.6875 12.015625 
Q 11.671875 9.421875 16.5 8.15625 
Q 21.34375 6.890625 26.125 6.890625 
Q 34.234375 6.890625 38.578125 10.546875 
Q 42.921875 14.203125 42.921875 21.09375 
Q 42.921875 27.4375 38.578125 31.171875 
Q 34.234375 34.90625 26.8125 34.90625 
L 19.28125 34.90625 
L 19.28125 43.015625 
L 26.8125 43.015625 
Q 33.59375 43.015625 37.40625 45.984375 
Q 41.21875 48.96875 41.21875 54.296875 
Q 41.21875 59.90625 37.671875 62.90625 
Q 34.125 65.921875 27.59375 65.921875 
Q 23.25 65.921875 18.609375 64.9375 
Q 13.96875 63.96875 8.890625 62.015625 
L 8.890625 71.09375 
Q 14.796875 72.65625 19.40625 73.4375 
Q 24.03125 74.21875 27.59375 74.21875 
Q 38.234375 74.21875 44.609375 68.875 
Q 50.984375 63.53125 50.984375 54.6875 
Q 50.984375 48.6875 47.625 44.671875 
Q 44.28125 40.671875 37.890625 39.015625 
z
" id="DejaVuSansMono-51"/>
       </defs>
       <use xlink:href="#DejaVuSansMono-51"/>
       <use x="60.205078" xlink:href="#DejaVuSansMono-48"/>
       <use x="120.410156" xlink:href="#DejaVuSansMono-48"/>
      </g>
     </g>
    </g>
    <g id="xtick_5">
     <g id="line2d_5">
      <g>
       <use style="stroke:#000000;stroke-width:0.8;" x="354.422486" xlink:href="#mce91458093" y="316.4425"/>
      </g>
     </g>
     <g id="text_5">
      <!-- 400 -->
      <g transform="translate(349.004205 328.033437)scale(0.06 -0.06)">
       <defs>
        <path d="M 35.890625 63.921875 
L 12.890625 25.390625 
L 35.890625 25.390625 
z
M 34.28125 72.90625 
L 45.703125 72.90625 
L 45.703125 25.390625 
L 55.421875 25.390625 
L 55.421875 17.390625 
L 45.703125 17.390625 
L 45.703125 0 
L 35.890625 0 
L 35.890625 17.390625 
L 4.984375 17.390625 
L 4.984375 26.703125 
z
" id="DejaVuSansMono-52"/>
       </defs>
       <use xlink:href="#DejaVuSansMono-52"/>
       <use x="60.205078" xlink:href="#DejaVuSansMono-48"/>
       <use x="120.410156" xlink:href="#DejaVuSansMono-48"/>
      </g>
     </g>
    </g>
    <g id="xtick_6">
     <g id="line2d_6">
      <g>
       <use style="stroke:#000000;stroke-width:0.8;" x="429.308179" xlink:href="#mce91458093" y="316.4425"/>
      </g>
     </g>
     <g id="text_6">
      <!-- 500 -->
      <g transform="translate(423.889897 328.033437)scale(0.06 -0.06)">
       <defs>
        <path d="M 10.109375 72.90625 
L 47.015625 72.90625 
L 47.015625 64.59375 
L 19.09375 64.59375 
L 19.09375 46.6875 
Q 21.1875 47.46875 23.3125 47.828125 
Q 25.4375 48.1875 27.59375 48.1875 
Q 38.921875 48.1875 45.5625 41.5 
Q 52.203125 34.8125 52.203125 23.390625 
Q 52.203125 11.859375 45.234375 5.21875 
Q 38.28125 -1.421875 26.21875 -1.421875 
Q 20.40625 -1.421875 15.59375 -0.640625 
Q 10.796875 0.140625 6.984375 1.703125 
L 6.984375 11.71875 
Q 11.46875 9.28125 16.015625 8.078125 
Q 20.5625 6.890625 25.296875 6.890625 
Q 33.453125 6.890625 37.859375 11.1875 
Q 42.28125 15.484375 42.28125 23.390625 
Q 42.28125 31.203125 37.71875 35.546875 
Q 33.15625 39.890625 25 39.890625 
Q 21.046875 39.890625 17.28125 38.984375 
Q 13.53125 38.09375 10.109375 36.28125 
z
" id="DejaVuSansMono-53"/>
       </defs>
       <use xlink:href="#DejaVuSansMono-53"/>
       <use x="60.205078" xlink:href="#DejaVuSansMono-48"/>
       <use x="120.410156" xlink:href="#DejaVuSansMono-48"/>
      </g>
     </g>
    </g>
    <g id="text_7">
     <!-- n -->
     <g transform="translate(243.283281 337.872187)scale(0.06 -0.06)">
      <defs>
       <path d="M 51.3125 33.890625 
L 51.3125 0 
L 42.28125 0 
L 42.28125 33.890625 
Q 42.28125 41.265625 39.6875 44.71875 
Q 37.109375 48.1875 31.59375 48.1875 
Q 25.296875 48.1875 21.890625 43.71875 
Q 18.5 39.265625 18.5 30.90625 
L 18.5 0 
L 9.515625 0 
L 9.515625 54.6875 
L 18.5 54.6875 
L 18.5 46.484375 
Q 20.90625 51.171875 25 53.578125 
Q 29.109375 56 34.71875 56 
Q 43.0625 56 47.1875 50.5 
Q 51.3125 45.015625 51.3125 33.890625 
z
" id="DejaVuSansMono-110"/>
      </defs>
      <use xlink:href="#DejaVuSansMono-110"/>
     </g>
    </g>
   </g>
   <g id="matplotlib.axis_2">
    <g id="ytick_1">
     <g id="line2d_7">
      <defs>
       <path d="M 0 0 
L -3.5 0 
" id="m75564ece91" style="stroke:#000000;stroke-width:0.8;"/>
      </defs>
      <g>
       <use style="stroke:#000000;stroke-width:0.8;" x="35.85875" xlink:href="#m75564ece91" y="277.566669"/>
      </g>
     </g>
     <g id="text_8">
      <!-- $\mathdefault{10^{1}}$ -->
      <g transform="translate(18.83875 279.862138)scale(0.06 -0.06)">
       <use transform="translate(0 0.684375)" xlink:href="#DejaVuSansMono-49"/>
       <use transform="translate(60.205078 0.684375)" xlink:href="#DejaVuSansMono-48"/>
       <use transform="translate(121.367188 38.965625)scale(0.7)" xlink:href="#DejaVuSansMono-49"/>
      </g>
     </g>
    </g>
    <g id="ytick_2">
     <g id="line2d_8">
      <g>
       <use style="stroke:#000000;stroke-width:0.8;" x="35.85875" xlink:href="#m75564ece91" y="226.947132"/>
      </g>
     </g>
     <g id="text_9">
      <!-- $\mathdefault{10^{3}}$ -->
      <g transform="translate(18.83875 229.242601)scale(0.06 -0.06)">
       <use transform="translate(0 0.765625)" xlink:href="#DejaVuSansMono-49"/>
       <use transform="translate(60.205078 0.765625)" xlink:href="#DejaVuSansMono-48"/>
       <use transform="translate(121.367188 39.046875)scale(0.7)" xlink:href="#DejaVuSansMono-51"/>
      </g>
     </g>
    </g>
    <g id="ytick_3">
     <g id="line2d_9">
      <g>
       <use style="stroke:#000000;stroke-width:0.8;" x="35.85875" xlink:href="#m75564ece91" y="176.327595"/>
      </g>
     </g>
     <g id="text_10">
      <!-- $\mathdefault{10^{5}}$ -->
      <g transform="translate(18.83875 178.623064)scale(0.06 -0.06)">
       <use transform="translate(0 0.684375)" xlink:href="#DejaVuSansMono-49"/>
       <use transform="translate(60.205078 0.684375)" xlink:href="#DejaVuSansMono-48"/>
       <use transform="translate(121.367188 38.965625)scale(0.7)" xlink:href="#DejaVuSansMono-53"/>
      </g>
     </g>
    </g>
    <g id="ytick_4">
     <g id="line2d_10">
      <g>
       <use style="stroke:#000000;stroke-width:0.8;" x="35.85875" xlink:href="#m75564ece91" y="125.708058"/>
      </g>
     </g>
     <g id="text_11">
      <!-- $\mathdefault{10^{7}}$ -->
      <g transform="translate(18.83875 128.003527)scale(0.06 -0.06)">
       <defs>
        <path d="M 6.78125 72.90625 
L 52.6875 72.90625 
L 52.6875 68.703125 
L 26.609375 0 
L 16.3125 0 
L 41.703125 64.59375 
L 6.78125 64.59375 
z
" id="DejaVuSansMono-55"/>
       </defs>
       <use transform="translate(0 0.684375)" xlink:href="#DejaVuSansMono-49"/>
       <use transform="translate(60.205078 0.684375)" xlink:href="#DejaVuSansMono-48"/>
       <use transform="translate(121.367188 38.965625)scale(0.7)" xlink:href="#DejaVuSansMono-55"/>
      </g>
     </g>
    </g>
    <g id="ytick_5">
     <g id="line2d_11">
      <g>
       <use style="stroke:#000000;stroke-width:0.8;" x="35.85875" xlink:href="#m75564ece91" y="75.088521"/>
      </g>
     </g>
     <g id="text_12">
      <!-- $\mathdefault{10^{9}}$ -->
      <g transform="translate(18.83875 77.38399)scale(0.06 -0.06)">
       <defs>
        <path d="M 29.109375 32.328125 
Q 35.40625 32.328125 38.984375 36.859375 
Q 42.578125 41.40625 42.578125 49.421875 
Q 42.578125 57.421875 38.984375 61.953125 
Q 35.40625 66.5 29.109375 66.5 
Q 22.5625 66.5 19.234375 62.171875 
Q 15.921875 57.859375 15.921875 49.421875 
Q 15.921875 40.921875 19.21875 36.625 
Q 22.515625 32.328125 29.109375 32.328125 
z
M 11.53125 1.515625 
L 11.53125 10.59375 
Q 14.59375 8.796875 18.0625 7.84375 
Q 21.53125 6.890625 25.296875 6.890625 
Q 34.671875 6.890625 39.46875 13.9375 
Q 44.28125 21 44.28125 34.71875 
Q 42 29.828125 37.84375 27.21875 
Q 33.6875 24.609375 28.328125 24.609375 
Q 17.78125 24.609375 11.984375 31.09375 
Q 6.203125 37.59375 6.203125 49.515625 
Q 6.203125 61.28125 12.125 67.75 
Q 18.0625 74.21875 28.90625 74.21875 
Q 41.609375 74.21875 47.515625 65.078125 
Q 53.421875 55.953125 53.421875 36.375 
Q 53.421875 17.96875 46.3125 8.265625 
Q 39.203125 -1.421875 25.6875 -1.421875 
Q 22.125 -1.421875 18.5 -0.65625 
Q 14.890625 0.09375 11.53125 1.515625 
z
" id="DejaVuSansMono-57"/>
       </defs>
       <use transform="translate(0 0.765625)" xlink:href="#DejaVuSansMono-49"/>
       <use transform="translate(60.205078 0.765625)" xlink:href="#DejaVuSansMono-48"/>
       <use transform="translate(121.367188 39.046875)scale(0.7)" xlink:href="#DejaVuSansMono-57"/>
      </g>
     </g>
    </g>
    <g id="ytick_6">
     <g id="line2d_12">
      <g>
       <use style="stroke:#000000;stroke-width:0.8;" x="35.85875" xlink:href="#m75564ece91" y="24.468984"/>
      </g>
     </g>
     <g id="text_13">
      <!-- $\mathdefault{10^{11}}$ -->
      <g transform="translate(16.31875 26.764453)scale(0.06 -0.06)">
       <use transform="translate(0 0.684375)" xlink:href="#DejaVuSansMono-49"/>
       <use transform="translate(60.205078 0.684375)" xlink:href="#DejaVuSansMono-48"/>
       <use transform="translate(121.367188 38.965625)scale(0.7)" xlink:href="#DejaVuSansMono-49"/>
       <use transform="translate(163.510742 38.965625)scale(0.7)" xlink:href="#DejaVuSansMono-49"/>
      </g>
     </g>
    </g>
    <g id="text_14">
     <!-- y_n -->
     <g transform="translate(10.904063 172.634094)rotate(-90)scale(0.06 -0.06)">
      <defs>
       <path d="M 41.890625 17.578125 
Q 39.65625 11.859375 36.1875 2.546875 
Q 31.34375 -10.359375 29.6875 -13.1875 
Q 27.4375 -17 24.0625 -18.890625 
Q 20.703125 -20.796875 16.21875 -20.796875 
L 8.984375 -20.796875 
L 8.984375 -13.28125 
L 14.3125 -13.28125 
Q 18.265625 -13.28125 20.5 -10.984375 
Q 22.75 -8.6875 26.21875 0.875 
L 5.078125 54.6875 
L 14.59375 54.6875 
L 30.8125 11.921875 
L 46.78125 54.6875 
L 56.296875 54.6875 
z
" id="DejaVuSansMono-121"/>
       <path d="M 60.203125 -19.671875 
L 60.203125 -23.578125 
L 0 -23.578125 
L 0 -19.671875 
z
" id="DejaVuSansMono-95"/>
      </defs>
      <use xlink:href="#DejaVuSansMono-121"/>
      <use x="60.205078" xlink:href="#DejaVuSansMono-95"/>
      <use x="120.410156" xlink:href="#DejaVuSansMono-110"/>
     </g>
    </g>
   </g>
   <g id="line2d_13">
    <path clip-path="url(#p19d0143e6e)" d="M 54.879716 155.498617 
L 55.628573 143.422783 
L 56.37743 151.041782 
L 57.126287 138.96595 
L 57.875144 146.584949 
L 58.624001 134.509118 
L 59.372857 142.128118 
L 60.121714 130.052288 
L 60.870571 137.671287 
L 61.619428 125.595458 
L 62.368285 133.214457 
L 63.117142 121.138628 
L 63.865999 128.757627 
L 64.614856 116.681798 
L 66.11257 131.919797 
L 66.861427 119.843968 
L 67.610284 127.462968 
L 68.359141 115.387139 
L 69.107997 123.006138 
L 69.856854 110.93031 
L 71.354568 126.168309 
L 72.103425 114.09248 
L 72.852282 121.711479 
L 73.601139 109.63565 
L 74.349996 117.25465 
L 75.098853 105.178821 
L 76.596567 120.41682 
L 77.345424 108.340992 
L 78.094281 115.959991 
L 78.843138 103.884162 
L 80.340851 119.122161 
L 81.089708 107.046333 
L 81.838565 114.665332 
L 82.587422 102.589504 
L 83.336279 110.208503 
L 84.085136 98.132675 
L 86.331707 120.989673 
L 87.080564 108.913844 
L 87.829421 116.532844 
L 88.578278 104.457015 
L 90.075991 119.695014 
L 90.824848 107.619185 
L 91.573705 115.238185 
L 92.322562 103.162356 
L 94.569133 126.019355 
L 95.31799 113.943526 
L 96.066847 121.562525 
L 96.815704 109.486697 
L 97.564561 117.105696 
L 98.313418 105.029867 
L 99.062275 112.648867 
L 99.811131 100.573038 
L 100.559988 108.192038 
L 101.308845 96.116209 
L 102.057702 103.735209 
L 102.806559 91.65938 
L 104.304273 106.897379 
L 105.05313 94.821551 
L 105.801987 102.44055 
L 106.550844 90.364722 
L 108.048558 105.602721 
L 108.797415 93.526892 
L 109.546271 101.145892 
L 110.295128 89.070063 
L 111.792842 104.308062 
L 112.541699 92.232233 
L 113.290556 99.851233 
L 114.039413 87.775404 
L 114.78827 95.394404 
L 115.537127 83.318575 
L 116.285984 90.937575 
L 117.034841 78.861746 
L 119.281412 101.718745 
L 120.030268 89.642916 
L 121.527982 104.880915 
L 122.276839 92.805087 
L 123.025696 100.424086 
L 123.774553 88.348258 
L 124.52341 95.967257 
L 125.272267 83.891429 
L 127.518838 106.748427 
L 128.267695 94.672599 
L 129.016552 102.291598 
L 129.765408 90.21577 
L 130.514265 97.834769 
L 131.263122 85.758941 
L 132.011979 93.37794 
L 132.760836 81.302112 
L 133.509693 88.921111 
L 134.25855 76.845283 
L 135.007407 84.464282 
L 135.756264 72.388454 
L 136.505121 80.007453 
L 137.253978 67.931625 
L 139.500548 90.788623 
L 140.249405 78.712795 
L 140.998262 86.331794 
L 141.747119 74.255966 
L 142.495976 81.874965 
L 143.244833 69.799137 
L 143.99369 77.418136 
L 144.742547 65.342308 
L 145.491404 72.961307 
L 146.240261 60.885479 
L 146.989118 68.504478 
L 147.737975 56.42865 
L 148.486832 64.047649 
L 149.235689 51.971821 
L 150.733402 67.209819 
L 151.482259 55.133991 
L 152.231116 62.75299 
L 152.979973 50.677162 
L 153.72883 58.296161 
L 154.477687 46.220333 
L 155.975401 61.458332 
L 156.724258 49.382503 
L 157.473115 57.001503 
L 158.221972 44.925674 
L 158.970829 52.544674 
L 159.719685 40.468845 
L 160.468542 48.087845 
L 161.217399 36.012016 
L 161.966256 43.631016 
L 162.715113 31.555187 
L 167.208255 77.269184 
L 167.957112 65.193356 
L 170.952539 95.669354 
L 171.701396 83.593525 
L 173.19911 98.831524 
L 173.947967 86.755696 
L 174.696824 94.374695 
L 175.445681 82.298867 
L 176.194538 89.917866 
L 176.943395 77.842038 
L 178.441109 93.080037 
L 179.189966 81.004208 
L 179.938822 88.623208 
L 180.687679 76.547379 
L 182.185393 91.785378 
L 182.93425 79.70955 
L 184.431964 94.947549 
L 185.180821 82.87172 
L 188.176249 113.347718 
L 188.925106 101.27189 
L 190.422819 116.509889 
L 191.171676 104.43406 
L 191.920533 112.05306 
L 192.66939 99.977231 
L 195.664818 130.453229 
L 196.413675 118.3774 
L 197.162532 125.996399 
L 197.911389 113.92057 
L 199.409103 129.158569 
L 200.157959 117.08274 
L 201.655673 132.320739 
L 202.40453 120.24491 
L 203.153387 127.86391 
L 203.902244 115.788081 
L 206.897672 146.264079 
L 207.646529 134.188248 
L 208.395386 141.807247 
L 209.144243 129.731417 
L 209.893099 137.350417 
L 210.641956 125.274587 
L 211.390813 132.893587 
L 212.13967 120.817758 
L 214.386241 143.674756 
L 215.135098 131.598926 
L 215.883955 139.217925 
L 216.632812 127.142095 
L 218.879383 149.999094 
L 219.62824 137.923262 
L 220.377096 145.542262 
L 221.125953 133.466431 
L 221.87481 141.08543 
L 222.623667 129.0096 
L 227.116809 174.723597 
L 227.865666 162.647737 
L 228.614523 170.266737 
L 229.36338 158.190887 
L 230.112236 165.809887 
L 230.861093 153.734044 
L 231.60995 161.353044 
L 232.358807 149.277206 
L 233.107664 156.896205 
L 233.856521 144.82037 
L 234.605378 152.43937 
L 235.354235 140.363537 
L 236.103092 147.982537 
L 236.851949 135.906706 
L 237.600806 143.525705 
L 238.349663 131.449875 
L 239.09852 139.068874 
L 239.847377 126.993044 
L 240.596233 134.612044 
L 241.34509 122.536215 
L 244.340518 153.012213 
L 245.089375 140.93638 
L 245.838232 148.555379 
L 246.587089 136.479548 
L 248.83366 159.336546 
L 249.582517 147.26071 
L 250.331373 154.879709 
L 251.08023 142.803876 
L 252.577944 158.041875 
L 253.326801 145.966039 
L 254.824515 161.204038 
L 255.573372 149.128201 
L 257.071086 164.3662 
L 257.819943 152.290359 
L 260.066514 175.147357 
L 260.81537 163.071496 
L 261.564227 170.690495 
L 262.313084 158.614645 
L 263.061941 166.233644 
L 263.810798 154.157801 
L 265.308512 169.3958 
L 266.057369 157.319952 
L 266.806226 164.938952 
L 267.555083 152.86311 
L 268.30394 160.48211 
L 269.052797 148.406273 
L 270.55051 163.644272 
L 271.299367 151.568432 
L 272.048224 159.187431 
L 272.797081 147.111595 
L 273.545938 154.730594 
L 274.294795 142.654761 
L 276.541366 165.511759 
L 277.290223 153.435917 
L 281.034507 191.530914 
L 281.783364 179.45494 
L 282.532221 187.073939 
L 283.281078 174.998013 
L 284.029935 182.617013 
L 284.778792 170.54112 
L 287.025363 193.398118 
L 287.77422 181.322116 
L 289.271934 196.560115 
L 290.020791 184.484056 
L 290.769647 192.103056 
L 291.518504 180.027073 
L 292.267361 187.646073 
L 293.016218 175.570142 
L 293.765075 183.189141 
L 294.513932 171.113244 
L 295.262789 178.732244 
L 296.011646 166.65637 
L 296.760503 174.275369 
L 297.50936 162.19951 
L 298.258217 169.81851 
L 299.007074 157.742661 
L 299.755931 165.36166 
L 300.504787 153.285818 
L 301.253644 160.904818 
L 302.002501 148.82898 
L 304.249072 171.685979 
L 304.997929 159.610126 
L 305.746786 167.229126 
L 306.495643 155.153281 
L 307.2445 162.772281 
L 307.993357 150.696442 
L 308.742214 158.315441 
L 309.491071 146.239606 
L 310.239928 153.858605 
L 310.988784 141.782772 
L 313.235355 164.63977 
L 313.984212 152.563929 
L 314.733069 160.182929 
L 315.481926 148.107092 
L 316.97964 163.345091 
L 317.728497 151.269251 
L 318.477354 158.88825 
L 319.226211 146.812414 
L 322.970495 184.907412 
L 323.719352 172.831503 
L 324.468209 180.450503 
L 325.217066 168.374621 
L 325.965923 175.993621 
L 326.71478 163.917757 
L 328.961351 186.774755 
L 329.710208 174.698832 
L 331.207921 189.936831 
L 331.956778 177.860876 
L 333.454492 193.098875 
L 334.203349 181.022878 
L 335.701063 196.260877 
L 336.44992 184.184824 
L 340.194205 222.279821 
L 340.943061 210.201597 
L 342.440775 225.439596 
L 343.189632 213.360573 
L 343.938489 220.979573 
L 344.687346 208.901616 
L 346.18506 224.139615 
L 346.933917 212.060948 
L 347.682774 219.679948 
L 348.431631 207.602228 
L 349.929345 222.840227 
L 350.678202 210.761877 
L 352.924772 233.618876 
L 353.673629 221.536326 
L 355.171343 236.774325 
L 355.9202 224.689542 
L 357.417914 239.927541 
L 358.166771 227.839784 
L 358.915628 235.458784 
L 359.664485 223.37501 
L 361.911055 246.232009 
L 362.659912 234.135022 
L 364.906483 256.99202 
L 365.65534 244.859967 
L 367.153054 260.097966 
L 367.901911 247.947616 
L 369.399625 263.185615 
L 370.148482 251.011204 
L 373.143909 281.487202 
L 373.892766 268.90003 
L 374.641623 276.51903 
L 375.39048 264.115061 
L 376.139337 271.73406 
L 376.888194 259.44479 
L 378.385908 274.682789 
L 379.134765 262.32867 
L 381.381335 285.185669 
L 382.130192 272.40044 
L 385.12562 302.876437 
L 385.12562 302.876437 
" style="fill:none;stroke:#1f77b4;stroke-linecap:square;stroke-width:0.666667;"/>
   </g>
   <g id="line2d_14">
    <path clip-path="url(#p19d0143e6e)" d="M 54.879716 156.160673 
L 55.628573 144.084838 
L 56.37743 151.703838 
L 57.126287 139.628005 
L 58.624001 154.866004 
L 59.372857 142.790171 
L 60.121714 150.40917 
L 60.870571 138.333338 
L 61.619428 145.952338 
L 62.368285 133.876507 
L 63.117142 141.495506 
L 63.865999 129.419676 
L 65.363713 144.657675 
L 66.11257 132.581845 
L 66.861427 140.200844 
L 67.610284 128.125014 
L 69.107997 143.363013 
L 69.856854 131.287183 
L 70.605711 138.906183 
L 71.354568 126.830353 
L 72.103425 134.449352 
L 72.852282 122.373523 
L 73.601139 129.992523 
L 74.349996 117.916694 
L 75.098853 125.535693 
L 75.84771 113.459864 
L 76.596567 121.078864 
L 77.345424 109.003035 
L 78.094281 116.622034 
L 78.843138 104.546206 
L 79.591994 112.165205 
L 80.340851 100.089377 
L 81.089708 107.708376 
L 81.838565 95.632548 
L 84.085136 118.489546 
L 84.833993 106.413717 
L 85.58285 114.032717 
L 86.331707 101.956888 
L 89.327134 132.432886 
L 90.075991 120.357057 
L 90.824848 127.976057 
L 91.573705 115.900228 
L 92.322562 123.519227 
L 93.071419 111.443398 
L 93.820276 119.062398 
L 94.569133 106.986569 
L 95.31799 114.605569 
L 96.066847 102.52974 
L 96.815704 110.14874 
L 97.564561 98.072911 
L 98.313418 105.69191 
L 99.062275 93.616082 
L 100.559988 108.854081 
L 101.308845 96.778252 
L 102.057702 104.397252 
L 102.806559 92.321423 
L 104.304273 107.559422 
L 105.05313 95.483594 
L 105.801987 103.102593 
L 106.550844 91.026765 
L 107.299701 98.645764 
L 108.048558 86.569936 
L 108.797415 94.188935 
L 109.546271 82.113107 
L 113.290556 120.208104 
L 114.039413 108.132275 
L 115.537127 123.370274 
L 116.285984 111.294446 
L 117.034841 118.913445 
L 117.783698 106.837616 
L 118.532555 114.456616 
L 119.281412 102.380787 
L 120.030268 109.999787 
L 120.779125 97.923958 
L 121.527982 105.542958 
L 122.276839 93.467129 
L 123.025696 101.086129 
L 123.774553 89.0103 
L 124.52341 96.6293 
L 125.272267 84.553471 
L 126.021124 92.172471 
L 126.769981 80.096642 
L 127.518838 87.715642 
L 128.267695 75.639813 
L 129.016552 83.258813 
L 129.765408 71.182984 
L 130.514265 78.801983 
L 131.263122 66.726155 
L 132.011979 74.345154 
L 132.760836 62.269326 
L 133.509693 69.888325 
L 134.25855 57.812497 
L 135.007407 65.431496 
L 135.756264 53.355668 
L 137.253978 68.593667 
L 138.002835 56.517838 
L 140.249405 79.374837 
L 140.998262 67.299008 
L 142.495976 82.537007 
L 143.244833 70.461179 
L 143.99369 78.080178 
L 144.742547 66.00435 
L 146.989118 88.861348 
L 147.737975 76.78552 
L 148.486832 84.404519 
L 149.235689 72.328691 
L 149.984545 79.94769 
L 150.733402 67.871862 
L 151.482259 75.490861 
L 152.231116 63.415033 
L 152.979973 71.034032 
L 153.72883 58.958204 
L 156.724258 89.434202 
L 157.473115 77.358373 
L 158.221972 84.977373 
L 158.970829 72.901544 
L 160.468542 88.139543 
L 161.217399 76.063715 
L 161.966256 83.682714 
L 162.715113 71.606886 
L 165.710541 102.082884 
L 166.459398 90.007055 
L 168.705969 112.864054 
L 169.454826 100.788225 
L 170.203682 108.407225 
L 170.952539 96.331396 
L 171.701396 103.950396 
L 172.450253 91.874567 
L 173.19911 99.493567 
L 173.947967 87.417738 
L 175.445681 102.655737 
L 176.194538 90.579909 
L 177.692252 105.817908 
L 178.441109 93.742079 
L 179.189966 101.361078 
L 179.938822 89.28525 
L 180.687679 96.904249 
L 181.436536 84.828421 
L 182.185393 92.44742 
L 182.93425 80.371592 
L 183.683107 87.990591 
L 184.431964 75.914763 
L 185.180821 83.533762 
L 185.929678 71.457934 
L 186.678535 79.076933 
L 187.427392 67.001105 
L 188.176249 74.620104 
L 188.925106 62.544276 
L 192.66939 100.639273 
L 193.418247 88.563445 
L 194.915961 103.801444 
L 195.664818 91.725615 
L 196.413675 99.344615 
L 197.162532 87.268786 
L 198.660246 102.506785 
L 199.409103 90.430957 
L 200.906816 105.668956 
L 201.655673 93.593127 
L 203.153387 108.831126 
L 203.902244 96.755298 
L 204.651101 104.374297 
L 205.399958 92.298468 
L 206.897672 107.536467 
L 207.646529 95.460639 
L 208.395386 103.079638 
L 209.144243 91.00381 
L 210.641956 106.241809 
L 211.390813 94.16598 
L 212.13967 101.78498 
L 212.888527 89.709151 
L 215.135098 112.56615 
L 215.883955 100.490321 
L 217.381669 115.72832 
L 218.130526 103.652491 
L 221.125953 134.128489 
L 221.87481 122.05266 
L 223.372524 137.290659 
L 224.121381 125.21483 
L 225.619095 140.452829 
L 226.367952 128.376999 
L 227.116809 135.995998 
L 227.865666 123.920169 
L 228.614523 131.539168 
L 229.36338 119.463339 
L 230.112236 127.082339 
L 230.861093 115.00651 
L 233.107664 137.863508 
L 233.856521 125.787679 
L 234.605378 133.406678 
L 235.354235 121.330849 
L 236.851949 136.568848 
L 237.600806 124.493018 
L 238.349663 132.112018 
L 239.09852 120.036189 
L 239.847377 127.655188 
L 240.596233 115.579359 
L 242.842804 138.436358 
L 243.591661 126.360528 
L 244.340518 133.979528 
L 245.089375 121.903698 
L 246.587089 137.141697 
L 247.335946 125.065868 
L 248.83366 140.303867 
L 249.582517 128.228037 
L 250.331373 135.847036 
L 251.08023 123.771207 
L 252.577944 139.009206 
L 253.326801 126.933376 
L 254.824515 142.171375 
L 255.573372 130.095545 
L 257.819943 152.952544 
L 258.5688 140.876711 
L 259.317657 148.49571 
L 260.066514 136.419879 
L 260.81537 144.038878 
L 261.564227 131.963048 
L 262.313084 139.582047 
L 263.061941 127.506218 
L 265.308512 150.363216 
L 266.057369 138.287384 
L 266.806226 145.906384 
L 267.555083 133.830553 
L 269.801654 156.687551 
L 270.55051 144.611717 
L 272.048224 159.849716 
L 272.797081 147.773879 
L 273.545938 155.392879 
L 274.294795 143.317045 
L 276.541366 166.174043 
L 277.290223 154.0982 
L 278.03908 161.7172 
L 278.787937 149.641361 
L 280.285651 164.87936 
L 281.034507 152.803519 
L 281.783364 160.422518 
L 282.532221 148.346681 
L 283.281078 155.965681 
L 284.029935 143.889847 
L 287.025363 174.365845 
L 287.77422 162.289985 
L 288.523077 169.908985 
L 289.271934 157.833136 
L 291.518504 180.690134 
L 292.267361 168.614251 
L 293.765075 183.85225 
L 294.513932 171.776349 
L 295.262789 179.395349 
L 296.011646 167.319472 
L 296.760503 174.938471 
L 297.50936 162.862611 
L 298.258217 170.48161 
L 299.007074 158.40576 
L 299.755931 166.02476 
L 300.504787 153.948917 
L 301.253644 161.567916 
L 302.002501 149.492078 
L 302.751358 157.111078 
L 303.500215 145.035243 
L 304.249072 152.654242 
L 304.997929 140.57841 
L 307.2445 163.435408 
L 307.993357 151.359568 
L 309.491071 166.597567 
L 310.239928 154.521724 
L 310.988784 162.140723 
L 311.737641 150.064885 
L 313.235355 165.302884 
L 313.984212 153.227042 
L 315.481926 168.465041 
L 316.230783 156.389194 
L 317.728497 171.627193 
L 318.477354 159.551341 
L 319.975068 174.78934 
L 320.723924 162.713479 
L 322.970495 185.570478 
L 323.719352 173.494564 
L 325.965923 196.351563 
L 326.71478 184.275508 
L 327.463637 191.894507 
L 328.212494 179.818528 
L 328.961351 187.437527 
L 329.710208 175.361598 
L 330.459065 182.980598 
L 331.207921 170.904702 
L 332.705635 186.142701 
L 333.454492 174.066783 
L 334.952206 189.304782 
L 335.701063 177.228834 
L 339.445348 215.323832 
L 340.194205 203.246731 
L 340.943061 210.86573 
L 341.691918 198.789053 
L 342.440775 206.408053 
L 343.189632 194.331659 
L 343.938489 201.950658 
L 344.687346 189.874453 
L 345.436203 197.493452 
L 346.18506 185.417373 
L 346.933917 193.036372 
L 347.682774 180.960376 
L 349.929345 203.817375 
L 350.678202 191.741099 
L 352.175915 206.979098 
L 352.924772 194.902674 
L 353.673629 202.521674 
L 354.422486 190.445448 
L 355.171343 198.064448 
L 355.9202 185.988354 
L 357.417914 201.226353 
L 358.166771 189.150172 
L 360.413342 212.00717 
L 361.162198 199.930401 
L 364.906483 238.025398 
L 365.65534 225.939536 
L 367.901911 248.796535 
L 368.650768 236.693994 
L 370.148482 251.931993 
L 370.897338 239.82065 
L 371.646195 247.439649 
L 372.395052 235.340208 
L 373.143909 242.959207 
L 373.892766 230.867665 
L 375.39048 246.105664 
L 376.139337 234.008918 
L 376.888194 241.627918 
L 377.637051 229.538167 
L 378.385908 237.157166 
L 379.134765 225.072066 
L 379.883622 232.691065 
L 380.632479 220.60906 
L 382.130192 235.847059 
L 382.879049 223.763 
L 385.12562 246.619998 
L 385.874477 234.522252 
L 386.623334 242.141251 
L 387.372191 230.050835 
L 388.121048 237.669834 
L 388.869905 225.584291 
L 390.367619 240.82229 
L 391.116475 228.733523 
L 391.865332 236.352522 
L 392.614189 224.268076 
L 394.111903 239.506075 
L 394.86076 227.418767 
L 395.609617 235.037766 
L 396.358474 222.954291 
L 397.107331 230.573291 
L 397.856188 218.492367 
L 398.605045 226.111367 
L 399.353902 214.032143 
L 400.102759 221.651143 
L 400.851616 209.573051 
L 401.600472 217.192051 
L 402.349329 205.114714 
L 404.5959 227.971713 
L 405.344757 215.891863 
L 406.093614 223.510862 
L 406.842471 211.432354 
L 407.591328 219.051353 
L 408.340185 206.973739 
L 409.089042 214.592738 
L 409.837899 202.515719 
L 412.833326 232.991717 
L 413.582183 220.90954 
L 415.079897 236.147539 
L 415.828754 224.063252 
L 417.326468 239.301251 
L 418.075325 227.214155 
L 421.070753 257.690153 
L 421.819609 245.554423 
L 424.06618 268.411421 
L 424.815037 256.177433 
L 425.563894 263.796433 
L 426.312751 251.616415 
L 427.061608 259.235414 
L 427.810465 247.090671 
L 431.554749 285.185669 
L 432.303606 272.40044 
L 435.299034 302.876437 
L 435.299034 302.876437 
" style="fill:none;stroke:#ff7f0e;stroke-linecap:square;stroke-width:0.666667;"/>
   </g>
   <g id="patch_3">
    <path d="M 35.85875 316.4425 
L 35.85875 17.989125 
" style="fill:none;stroke:#000000;stroke-linecap:square;stroke-linejoin:miter;stroke-width:0.8;"/>
   </g>
   <g id="patch_4">
    <path d="M 454.32 316.4425 
L 454.32 17.989125 
" style="fill:none;stroke:#000000;stroke-linecap:square;stroke-linejoin:miter;stroke-width:0.8;"/>
   </g>
   <g id="patch_5">
    <path d="M 35.85875 316.4425 
L 454.32 316.4425 
" style="fill:none;stroke:#000000;stroke-linecap:square;stroke-linejoin:miter;stroke-width:0.8;"/>
   </g>
   <g id="patch_6">
    <path d="M 35.85875 17.989125 
L 454.32 17.989125 
" style="fill:none;stroke:#000000;stroke-linecap:square;stroke-linejoin:miter;stroke-width:0.8;"/>
   </g>
   <g id="text_15">
    <!-- "3y+1" problem -->
    <g transform="translate(214.747 11.989125)scale(0.072 -0.072)">
     <defs>
      <path d="M 43.703125 72.90625 
L 43.703125 45.796875 
L 35.203125 45.796875 
L 35.203125 72.90625 
z
M 25 72.90625 
L 25 45.796875 
L 16.5 45.796875 
L 16.5 72.90625 
z
" id="DejaVuSansMono-34"/>
      <path d="M 34.1875 57.171875 
L 34.1875 35.5 
L 55.90625 35.5 
L 55.90625 27.203125 
L 34.1875 27.203125 
L 34.1875 5.515625 
L 25.984375 5.515625 
L 25.984375 27.203125 
L 4.296875 27.203125 
L 4.296875 35.5 
L 25.984375 35.5 
L 25.984375 57.171875 
z
" id="DejaVuSansMono-43"/>
      <path id="DejaVuSansMono-32"/>
      <path d="M 18.3125 6.890625 
L 18.3125 -20.796875 
L 9.28125 -20.796875 
L 9.28125 54.6875 
L 18.3125 54.6875 
L 18.3125 47.703125 
Q 20.5625 51.765625 24.296875 53.875 
Q 28.03125 56 32.90625 56 
Q 42.828125 56 48.46875 48.328125 
Q 54.109375 40.671875 54.109375 27.09375 
Q 54.109375 13.765625 48.4375 6.171875 
Q 42.78125 -1.421875 32.90625 -1.421875 
Q 27.9375 -1.421875 24.1875 0.703125 
Q 20.453125 2.828125 18.3125 6.890625 
z
M 44.671875 27.296875 
Q 44.671875 37.75 41.375 43.0625 
Q 38.09375 48.390625 31.59375 48.390625 
Q 25.046875 48.390625 21.671875 43.046875 
Q 18.3125 37.703125 18.3125 27.296875 
Q 18.3125 16.9375 21.671875 11.5625 
Q 25.046875 6.203125 31.59375 6.203125 
Q 38.09375 6.203125 41.375 11.515625 
Q 44.671875 16.84375 44.671875 27.296875 
z
" id="DejaVuSansMono-112"/>
      <path d="M 56.390625 43.40625 
Q 53.515625 45.65625 50.53125 46.671875 
Q 47.5625 47.703125 44 47.703125 
Q 35.59375 47.703125 31.140625 42.421875 
Q 26.703125 37.15625 26.703125 27.203125 
L 26.703125 0 
L 17.671875 0 
L 17.671875 54.6875 
L 26.703125 54.6875 
L 26.703125 44 
Q 28.953125 49.8125 33.609375 52.90625 
Q 38.28125 56 44.671875 56 
Q 48 56 50.875 55.171875 
Q 53.765625 54.34375 56.390625 52.59375 
z
" id="DejaVuSansMono-114"/>
      <path d="M 30.078125 48.390625 
Q 23.25 48.390625 19.734375 43.0625 
Q 16.21875 37.75 16.21875 27.296875 
Q 16.21875 16.890625 19.734375 11.546875 
Q 23.25 6.203125 30.078125 6.203125 
Q 36.96875 6.203125 40.484375 11.546875 
Q 44 16.890625 44 27.296875 
Q 44 37.75 40.484375 43.0625 
Q 36.96875 48.390625 30.078125 48.390625 
z
M 30.078125 56 
Q 41.453125 56 47.484375 48.625 
Q 53.515625 41.265625 53.515625 27.296875 
Q 53.515625 13.28125 47.5 5.921875 
Q 41.5 -1.421875 30.078125 -1.421875 
Q 18.703125 -1.421875 12.6875 5.921875 
Q 6.6875 13.28125 6.6875 27.296875 
Q 6.6875 41.265625 12.6875 48.625 
Q 18.703125 56 30.078125 56 
z
" id="DejaVuSansMono-111"/>
      <path d="M 44.828125 27.296875 
Q 44.828125 37.75 41.5 43.0625 
Q 38.1875 48.390625 31.6875 48.390625 
Q 25.140625 48.390625 21.765625 43.046875 
Q 18.40625 37.703125 18.40625 27.296875 
Q 18.40625 16.9375 21.765625 11.5625 
Q 25.140625 6.203125 31.6875 6.203125 
Q 38.1875 6.203125 41.5 11.515625 
Q 44.828125 16.84375 44.828125 27.296875 
z
M 18.40625 47.703125 
Q 20.5625 51.703125 24.34375 53.84375 
Q 28.125 56 33.109375 56 
Q 42.96875 56 48.625 48.40625 
Q 54.296875 40.828125 54.296875 27.484375 
Q 54.296875 13.96875 48.609375 6.265625 
Q 42.921875 -1.421875 33.015625 -1.421875 
Q 28.125 -1.421875 24.390625 0.703125 
Q 20.65625 2.828125 18.40625 6.890625 
L 18.40625 0 
L 9.421875 0 
L 9.421875 75.984375 
L 18.40625 75.984375 
z
" id="DejaVuSansMono-98"/>
      <path d="M 31.203125 19.828125 
Q 31.203125 13.765625 33.421875 10.6875 
Q 35.640625 7.625 39.984375 7.625 
L 50.484375 7.625 
L 50.484375 0 
L 39.109375 0 
Q 31.0625 0 26.640625 5.171875 
Q 22.21875 10.359375 22.21875 19.828125 
L 22.21875 69.484375 
L 7.8125 69.484375 
L 7.8125 76.515625 
L 31.203125 76.515625 
z
" id="DejaVuSansMono-108"/>
      <path d="M 54.296875 29.59375 
L 54.296875 25.203125 
L 15.375 25.203125 
L 15.375 24.90625 
Q 15.375 15.96875 20.03125 11.078125 
Q 24.703125 6.203125 33.203125 6.203125 
Q 37.5 6.203125 42.1875 7.5625 
Q 46.875 8.9375 52.203125 11.71875 
L 52.203125 2.78125 
Q 47.078125 0.6875 42.3125 -0.359375 
Q 37.546875 -1.421875 33.109375 -1.421875 
Q 20.359375 -1.421875 13.171875 6.21875 
Q 6 13.875 6 27.296875 
Q 6 40.375 13.03125 48.1875 
Q 20.0625 56 31.78125 56 
Q 42.234375 56 48.265625 48.921875 
Q 54.296875 41.84375 54.296875 29.59375 
z
M 45.3125 32.234375 
Q 45.125 40.140625 41.578125 44.265625 
Q 38.03125 48.390625 31.390625 48.390625 
Q 24.90625 48.390625 20.703125 44.09375 
Q 16.5 39.796875 15.71875 32.171875 
z
" id="DejaVuSansMono-101"/>
      <path d="M 33.015625 49.125 
Q 34.671875 52.640625 37.234375 54.3125 
Q 39.796875 56 43.40625 56 
Q 50 56 52.703125 50.890625 
Q 55.421875 45.796875 55.421875 31.6875 
L 55.421875 0 
L 47.21875 0 
L 47.21875 31.296875 
Q 47.21875 42.875 45.921875 45.671875 
Q 44.625 48.484375 41.21875 48.484375 
Q 37.3125 48.484375 35.859375 45.484375 
Q 34.421875 42.484375 34.421875 31.296875 
L 34.421875 0 
L 26.21875 0 
L 26.21875 31.296875 
Q 26.21875 43.015625 24.828125 45.75 
Q 23.4375 48.484375 19.828125 48.484375 
Q 16.265625 48.484375 14.875 45.484375 
Q 13.484375 42.484375 13.484375 31.296875 
L 13.484375 0 
L 5.328125 0 
L 5.328125 54.6875 
L 13.484375 54.6875 
L 13.484375 50 
Q 15.09375 52.9375 17.5 54.46875 
Q 19.921875 56 23 56 
Q 26.703125 56 29.171875 54.296875 
Q 31.640625 52.59375 33.015625 49.125 
z
" id="DejaVuSansMono-109"/>
     </defs>
     <use xlink:href="#DejaVuSansMono-34"/>
     <use x="60.205078" xlink:href="#DejaVuSansMono-51"/>
     <use x="120.410156" xlink:href="#DejaVuSansMono-121"/>
     <use x="180.615234" xlink:href="#DejaVuSansMono-43"/>
     <use x="240.820312" xlink:href="#DejaVuSansMono-49"/>
     <use x="301.025391" xlink:href="#DejaVuSansMono-34"/>
     <use x="361.230469" xlink:href="#DejaVuSansMono-32"/>
     <use x="421.435547" xlink:href="#DejaVuSansMono-112"/>
     <use x="481.640625" xlink:href="#DejaVuSansMono-114"/>
     <use x="541.845703" xlink:href="#DejaVuSansMono-111"/>
     <use x="602.050781" xlink:href="#DejaVuSansMono-98"/>
     <use x="662.255859" xlink:href="#DejaVuSansMono-108"/>
     <use x="722.460938" xlink:href="#DejaVuSansMono-101"/>
     <use x="782.666016" xlink:href="#DejaVuSansMono-109"/>
    </g>
   </g>
   <g id="legend_1">
    <g id="patch_7">
     <path d="M 358.67625 82.0095 
L 450.12 82.0095 
Q 451.32 82.0095 451.32 80.8095 
L 451.32 22.189125 
Q 451.32 20.989125 450.12 20.989125 
L 358.67625 20.989125 
Q 357.47625 20.989125 357.47625 22.189125 
L 357.47625 80.8095 
Q 357.47625 82.0095 358.67625 82.0095 
z
" style="fill:#ffffff;opacity:0.8;stroke:#cccccc;stroke-linejoin:miter;"/>
    </g>
    <g id="line2d_15">
     <path d="M 359.87625 36.889687 
L 371.87625 36.889687 
" style="fill:none;stroke:#1f77b4;stroke-linecap:square;stroke-width:0.666667;"/>
    </g>
    <g id="line2d_16"/>
    <g id="text_16">
     <!-- "Tallest": -->
     <g transform="translate(376.67625 27.980062)scale(0.06 -0.06)">
      <defs>
       <path d="M 2.296875 72.90625 
L 57.90625 72.90625 
L 57.90625 64.59375 
L 35.109375 64.59375 
L 35.109375 0 
L 25.203125 0 
L 25.203125 64.59375 
L 2.296875 64.59375 
z
" id="DejaVuSansMono-84"/>
       <path d="M 34.28125 27.484375 
L 31.296875 27.484375 
Q 23.4375 27.484375 19.453125 24.71875 
Q 15.484375 21.96875 15.484375 16.5 
Q 15.484375 11.578125 18.453125 8.84375 
Q 21.4375 6.109375 26.703125 6.109375 
Q 34.125 6.109375 38.375 11.25 
Q 42.625 16.40625 42.671875 25.484375 
L 42.671875 27.484375 
z
M 51.703125 31.203125 
L 51.703125 0 
L 42.671875 0 
L 42.671875 8.109375 
Q 39.796875 3.21875 35.421875 0.890625 
Q 31.0625 -1.421875 24.8125 -1.421875 
Q 16.453125 -1.421875 11.46875 3.296875 
Q 6.5 8.015625 6.5 15.921875 
Q 6.5 25.046875 12.625 29.78125 
Q 18.75 34.515625 30.609375 34.515625 
L 42.671875 34.515625 
L 42.671875 35.9375 
Q 42.625 42.484375 39.34375 45.4375 
Q 36.078125 48.390625 28.90625 48.390625 
Q 24.3125 48.390625 19.625 47.0625 
Q 14.9375 45.75 10.5 43.21875 
L 10.5 52.203125 
Q 15.484375 54.109375 20.046875 55.046875 
Q 24.609375 56 28.90625 56 
Q 35.6875 56 40.5 54 
Q 45.3125 52 48.296875 48 
Q 50.140625 45.5625 50.921875 41.96875 
Q 51.703125 38.375 51.703125 31.203125 
z
" id="DejaVuSansMono-97"/>
       <path d="M 47.515625 52.78125 
L 47.515625 44 
Q 43.65625 46.234375 39.75 47.359375 
Q 35.84375 48.484375 31.78125 48.484375 
Q 25.6875 48.484375 22.671875 46.5 
Q 19.671875 44.53125 19.671875 40.484375 
Q 19.671875 36.8125 21.921875 35 
Q 24.171875 33.203125 33.109375 31.5 
L 36.71875 30.8125 
Q 43.40625 29.546875 46.84375 25.734375 
Q 50.296875 21.921875 50.296875 15.828125 
Q 50.296875 7.71875 44.53125 3.140625 
Q 38.765625 -1.421875 28.515625 -1.421875 
Q 24.46875 -1.421875 20.015625 -0.5625 
Q 15.578125 0.296875 10.40625 2 
L 10.40625 11.28125 
Q 15.4375 8.6875 20.015625 7.390625 
Q 24.609375 6.109375 28.71875 6.109375 
Q 34.671875 6.109375 37.9375 8.515625 
Q 41.21875 10.9375 41.21875 15.28125 
Q 41.21875 21.53125 29.25 23.921875 
L 28.859375 24.03125 
L 25.484375 24.703125 
Q 17.71875 26.21875 14.15625 29.8125 
Q 10.59375 33.40625 10.59375 39.59375 
Q 10.59375 47.46875 15.90625 51.734375 
Q 21.234375 56 31.109375 56 
Q 35.5 56 39.546875 55.1875 
Q 43.609375 54.390625 47.515625 52.78125 
z
" id="DejaVuSansMono-115"/>
       <path d="M 29.984375 70.21875 
L 29.984375 54.6875 
L 50.390625 54.6875 
L 50.390625 47.703125 
L 29.984375 47.703125 
L 29.984375 18.015625 
Q 29.984375 11.96875 32.28125 9.5625 
Q 34.578125 7.171875 40.28125 7.171875 
L 50.390625 7.171875 
L 50.390625 0 
L 39.40625 0 
Q 29.296875 0 25.140625 4.046875 
Q 21 8.109375 21 18.015625 
L 21 47.703125 
L 6.390625 47.703125 
L 6.390625 54.6875 
L 21 54.6875 
L 21 70.21875 
z
" id="DejaVuSansMono-116"/>
       <path d="M 23.875 51.90625 
L 36.1875 51.90625 
L 36.1875 37.109375 
L 23.875 37.109375 
z
M 23.875 14.890625 
L 36.1875 14.890625 
L 36.1875 0 
L 23.875 0 
z
" id="DejaVuSansMono-58"/>
      </defs>
      <use xlink:href="#DejaVuSansMono-34"/>
      <use x="60.205078" xlink:href="#DejaVuSansMono-84"/>
      <use x="120.410156" xlink:href="#DejaVuSansMono-97"/>
      <use x="180.615234" xlink:href="#DejaVuSansMono-108"/>
      <use x="240.820312" xlink:href="#DejaVuSansMono-108"/>
      <use x="301.025391" xlink:href="#DejaVuSansMono-101"/>
      <use x="361.230469" xlink:href="#DejaVuSansMono-115"/>
      <use x="421.435547" xlink:href="#DejaVuSansMono-116"/>
      <use x="481.640625" xlink:href="#DejaVuSansMono-34"/>
      <use x="541.845703" xlink:href="#DejaVuSansMono-58"/>
     </g>
     <!-- y_0    = 665215 -->
     <g transform="translate(376.67625 34.737)scale(0.06 -0.06)">
      <defs>
       <path d="M 4.296875 25.59375 
L 55.90625 25.59375 
L 55.90625 17.1875 
L 4.296875 17.1875 
z
M 4.296875 45.40625 
L 55.90625 45.40625 
L 55.90625 37.109375 
L 4.296875 37.109375 
z
" id="DejaVuSansMono-61"/>
       <path d="M 48.390625 71.296875 
L 48.390625 62.203125 
Q 45.3125 64.015625 41.84375 64.96875 
Q 38.375 65.921875 34.625 65.921875 
Q 25.25 65.921875 20.40625 58.859375 
Q 15.578125 51.8125 15.578125 38.09375 
Q 17.921875 42.96875 22.0625 45.578125 
Q 26.21875 48.1875 31.59375 48.1875 
Q 42.140625 48.1875 47.921875 41.71875 
Q 53.71875 35.25 53.71875 23.390625 
Q 53.71875 11.578125 47.75 5.078125 
Q 41.796875 -1.421875 31 -1.421875 
Q 18.3125 -1.421875 12.40625 7.6875 
Q 6.5 16.796875 6.5 36.375 
Q 6.5 54.828125 13.59375 64.515625 
Q 20.703125 74.21875 34.1875 74.21875 
Q 37.796875 74.21875 41.40625 73.453125 
Q 45.015625 72.703125 48.390625 71.296875 
z
M 30.8125 40.484375 
Q 24.515625 40.484375 20.890625 35.9375 
Q 17.28125 31.390625 17.28125 23.390625 
Q 17.28125 15.375 20.890625 10.828125 
Q 24.515625 6.296875 30.8125 6.296875 
Q 37.359375 6.296875 40.671875 10.609375 
Q 44 14.9375 44 23.390625 
Q 44 31.890625 40.671875 36.1875 
Q 37.359375 40.484375 30.8125 40.484375 
z
" id="DejaVuSansMono-54"/>
      </defs>
      <use xlink:href="#DejaVuSansMono-121"/>
      <use x="60.205078" xlink:href="#DejaVuSansMono-95"/>
      <use x="120.410156" xlink:href="#DejaVuSansMono-48"/>
      <use x="180.615234" xlink:href="#DejaVuSansMono-32"/>
      <use x="240.820312" xlink:href="#DejaVuSansMono-32"/>
      <use x="301.025391" xlink:href="#DejaVuSansMono-32"/>
      <use x="361.230469" xlink:href="#DejaVuSansMono-32"/>
      <use x="421.435547" xlink:href="#DejaVuSansMono-61"/>
      <use x="481.640625" xlink:href="#DejaVuSansMono-32"/>
      <use x="541.845703" xlink:href="#DejaVuSansMono-54"/>
      <use x="602.050781" xlink:href="#DejaVuSansMono-54"/>
      <use x="662.255859" xlink:href="#DejaVuSansMono-53"/>
      <use x="722.460938" xlink:href="#DejaVuSansMono-50"/>
      <use x="782.666016" xlink:href="#DejaVuSansMono-49"/>
      <use x="842.871094" xlink:href="#DejaVuSansMono-53"/>
     </g>
     <!-- y_max  = 52483285312 -->
     <g transform="translate(376.67625 41.660812)scale(0.06 -0.06)">
      <defs>
       <path d="M 54.59375 54.6875 
L 35.015625 28.515625 
L 56.5 0 
L 46.09375 0 
L 30.078125 21.921875 
L 14.109375 0 
L 3.71875 0 
L 25.203125 28.515625 
L 5.609375 54.6875 
L 15.578125 54.6875 
L 30.078125 34.90625 
L 44.484375 54.6875 
z
" id="DejaVuSansMono-120"/>
       <path d="M 30.078125 34.625 
Q 23.484375 34.625 19.890625 30.9375 
Q 16.3125 27.25 16.3125 20.515625 
Q 16.3125 13.765625 19.9375 10.03125 
Q 23.578125 6.296875 30.078125 6.296875 
Q 36.71875 6.296875 40.296875 9.984375 
Q 43.890625 13.671875 43.890625 20.515625 
Q 43.890625 27.203125 40.25 30.90625 
Q 36.625 34.625 30.078125 34.625 
z
M 21.484375 38.71875 
Q 15.1875 40.328125 11.640625 44.71875 
Q 8.109375 49.125 8.109375 55.328125 
Q 8.109375 64.015625 14.015625 69.109375 
Q 19.921875 74.21875 30.078125 74.21875 
Q 40.28125 74.21875 46.1875 69.109375 
Q 52.09375 64.015625 52.09375 55.328125 
Q 52.09375 49.125 48.546875 44.71875 
Q 45.015625 40.328125 38.71875 38.71875 
Q 46.046875 37.109375 49.921875 32.21875 
Q 53.8125 27.34375 53.8125 19.578125 
Q 53.8125 9.71875 47.515625 4.140625 
Q 41.21875 -1.421875 30.078125 -1.421875 
Q 18.953125 -1.421875 12.671875 4.125 
Q 6.390625 9.671875 6.390625 19.484375 
Q 6.390625 27.296875 10.265625 32.203125 
Q 14.15625 37.109375 21.484375 38.71875 
z
M 17.921875 54.390625 
Q 17.921875 48.53125 21.046875 45.453125 
Q 24.171875 42.390625 30.078125 42.390625 
Q 36.03125 42.390625 39.15625 45.453125 
Q 42.28125 48.53125 42.28125 54.390625 
Q 42.28125 60.359375 39.171875 63.484375 
Q 36.078125 66.609375 30.078125 66.609375 
Q 24.171875 66.609375 21.046875 63.453125 
Q 17.921875 60.296875 17.921875 54.390625 
z
" id="DejaVuSansMono-56"/>
      </defs>
      <use xlink:href="#DejaVuSansMono-121"/>
      <use x="60.205078" xlink:href="#DejaVuSansMono-95"/>
      <use x="120.410156" xlink:href="#DejaVuSansMono-109"/>
      <use x="180.615234" xlink:href="#DejaVuSansMono-97"/>
      <use x="240.820312" xlink:href="#DejaVuSansMono-120"/>
      <use x="301.025391" xlink:href="#DejaVuSansMono-32"/>
      <use x="361.230469" xlink:href="#DejaVuSansMono-32"/>
      <use x="421.435547" xlink:href="#DejaVuSansMono-61"/>
      <use x="481.640625" xlink:href="#DejaVuSansMono-32"/>
      <use x="541.845703" xlink:href="#DejaVuSansMono-53"/>
      <use x="602.050781" xlink:href="#DejaVuSansMono-50"/>
      <use x="662.255859" xlink:href="#DejaVuSansMono-52"/>
      <use x="722.460938" xlink:href="#DejaVuSansMono-56"/>
      <use x="782.666016" xlink:href="#DejaVuSansMono-51"/>
      <use x="842.871094" xlink:href="#DejaVuSansMono-50"/>
      <use x="903.076172" xlink:href="#DejaVuSansMono-56"/>
      <use x="963.28125" xlink:href="#DejaVuSansMono-53"/>
      <use x="1023.486328" xlink:href="#DejaVuSansMono-51"/>
      <use x="1083.691406" xlink:href="#DejaVuSansMono-49"/>
      <use x="1143.896484" xlink:href="#DejaVuSansMono-50"/>
     </g>
     <!-- x_max  = 442 -->
     <g transform="translate(376.67625 48.584625)scale(0.06 -0.06)">
      <use xlink:href="#DejaVuSansMono-120"/>
      <use x="60.205078" xlink:href="#DejaVuSansMono-95"/>
      <use x="120.410156" xlink:href="#DejaVuSansMono-109"/>
      <use x="180.615234" xlink:href="#DejaVuSansMono-97"/>
      <use x="240.820312" xlink:href="#DejaVuSansMono-120"/>
      <use x="301.025391" xlink:href="#DejaVuSansMono-32"/>
      <use x="361.230469" xlink:href="#DejaVuSansMono-32"/>
      <use x="421.435547" xlink:href="#DejaVuSansMono-61"/>
      <use x="481.640625" xlink:href="#DejaVuSansMono-32"/>
      <use x="541.845703" xlink:href="#DejaVuSansMono-52"/>
      <use x="602.050781" xlink:href="#DejaVuSansMono-52"/>
      <use x="662.255859" xlink:href="#DejaVuSansMono-50"/>
     </g>
    </g>
    <g id="line2d_17">
     <path d="M 359.87625 66.499875 
L 371.87625 66.499875 
" style="fill:none;stroke:#ff7f0e;stroke-linecap:square;stroke-width:0.666667;"/>
    </g>
    <g id="line2d_18"/>
    <g id="text_17">
     <!-- "Widest":  -->
     <g transform="translate(376.67625 57.59025)scale(0.06 -0.06)">
      <defs>
       <path d="M 0 72.90625 
L 9.625 72.90625 
L 16.609375 13.71875 
L 24.90625 52.875 
L 35.203125 52.875 
L 43.609375 13.625 
L 50.59375 72.90625 
L 60.203125 72.90625 
L 49.3125 0 
L 39.984375 0 
L 30.078125 43.3125 
L 20.21875 0 
L 10.890625 0 
z
" id="DejaVuSansMono-87"/>
       <path d="M 12.5 54.6875 
L 35.5 54.6875 
L 35.5 6.984375 
L 53.328125 6.984375 
L 53.328125 0 
L 8.6875 0 
L 8.6875 6.984375 
L 26.515625 6.984375 
L 26.515625 47.703125 
L 12.5 47.703125 
z
M 26.515625 75.984375 
L 35.5 75.984375 
L 35.5 64.59375 
L 26.515625 64.59375 
z
" id="DejaVuSansMono-105"/>
       <path d="M 41.890625 47.703125 
L 41.890625 75.984375 
L 50.875 75.984375 
L 50.875 0 
L 41.890625 0 
L 41.890625 6.890625 
Q 39.65625 2.828125 35.90625 0.703125 
Q 32.171875 -1.421875 27.296875 -1.421875 
Q 17.390625 -1.421875 11.6875 6.265625 
Q 6 13.96875 6 27.484375 
Q 6 40.828125 11.71875 48.40625 
Q 17.4375 56 27.296875 56 
Q 32.234375 56 35.984375 53.875 
Q 39.75 51.765625 41.890625 47.703125 
z
M 15.484375 27.296875 
Q 15.484375 16.84375 18.796875 11.515625 
Q 22.125 6.203125 28.609375 6.203125 
Q 35.109375 6.203125 38.5 11.5625 
Q 41.890625 16.9375 41.890625 27.296875 
Q 41.890625 37.703125 38.5 43.046875 
Q 35.109375 48.390625 28.609375 48.390625 
Q 22.125 48.390625 18.796875 43.0625 
Q 15.484375 37.75 15.484375 27.296875 
z
" id="DejaVuSansMono-100"/>
      </defs>
      <use xlink:href="#DejaVuSansMono-34"/>
      <use x="60.205078" xlink:href="#DejaVuSansMono-87"/>
      <use x="120.410156" xlink:href="#DejaVuSansMono-105"/>
      <use x="180.615234" xlink:href="#DejaVuSansMono-100"/>
      <use x="240.820312" xlink:href="#DejaVuSansMono-101"/>
      <use x="301.025391" xlink:href="#DejaVuSansMono-115"/>
      <use x="361.230469" xlink:href="#DejaVuSansMono-116"/>
      <use x="421.435547" xlink:href="#DejaVuSansMono-34"/>
      <use x="481.640625" xlink:href="#DejaVuSansMono-58"/>
      <use x="541.845703" xlink:href="#DejaVuSansMono-32"/>
     </g>
     <!-- y_0    = 626331 -->
     <g transform="translate(376.67625 64.347187)scale(0.06 -0.06)">
      <use xlink:href="#DejaVuSansMono-121"/>
      <use x="60.205078" xlink:href="#DejaVuSansMono-95"/>
      <use x="120.410156" xlink:href="#DejaVuSansMono-48"/>
      <use x="180.615234" xlink:href="#DejaVuSansMono-32"/>
      <use x="240.820312" xlink:href="#DejaVuSansMono-32"/>
      <use x="301.025391" xlink:href="#DejaVuSansMono-32"/>
      <use x="361.230469" xlink:href="#DejaVuSansMono-32"/>
      <use x="421.435547" xlink:href="#DejaVuSansMono-61"/>
      <use x="481.640625" xlink:href="#DejaVuSansMono-32"/>
      <use x="541.845703" xlink:href="#DejaVuSansMono-54"/>
      <use x="602.050781" xlink:href="#DejaVuSansMono-50"/>
      <use x="662.255859" xlink:href="#DejaVuSansMono-54"/>
      <use x="722.460938" xlink:href="#DejaVuSansMono-51"/>
      <use x="782.666016" xlink:href="#DejaVuSansMono-51"/>
      <use x="842.871094" xlink:href="#DejaVuSansMono-49"/>
     </g>
     <!-- y_max  = 7222283188 -->
     <g transform="translate(376.67625 71.271)scale(0.06 -0.06)">
      <use xlink:href="#DejaVuSansMono-121"/>
      <use x="60.205078" xlink:href="#DejaVuSansMono-95"/>
      <use x="120.410156" xlink:href="#DejaVuSansMono-109"/>
      <use x="180.615234" xlink:href="#DejaVuSansMono-97"/>
      <use x="240.820312" xlink:href="#DejaVuSansMono-120"/>
      <use x="301.025391" xlink:href="#DejaVuSansMono-32"/>
      <use x="361.230469" xlink:href="#DejaVuSansMono-32"/>
      <use x="421.435547" xlink:href="#DejaVuSansMono-61"/>
      <use x="481.640625" xlink:href="#DejaVuSansMono-32"/>
      <use x="541.845703" xlink:href="#DejaVuSansMono-55"/>
      <use x="602.050781" xlink:href="#DejaVuSansMono-50"/>
      <use x="662.255859" xlink:href="#DejaVuSansMono-50"/>
      <use x="722.460938" xlink:href="#DejaVuSansMono-50"/>
      <use x="782.666016" xlink:href="#DejaVuSansMono-50"/>
      <use x="842.871094" xlink:href="#DejaVuSansMono-56"/>
      <use x="903.076172" xlink:href="#DejaVuSansMono-51"/>
      <use x="963.28125" xlink:href="#DejaVuSansMono-49"/>
      <use x="1023.486328" xlink:href="#DejaVuSansMono-56"/>
      <use x="1083.691406" xlink:href="#DejaVuSansMono-56"/>
     </g>
     <!-- x_max  = 509 -->
     <g transform="translate(376.67625 78.194812)scale(0.06 -0.06)">
      <use xlink:href="#DejaVuSansMono-120"/>
      <use x="60.205078" xlink:href="#DejaVuSansMono-95"/>
      <use x="120.410156" xlink:href="#DejaVuSansMono-109"/>
      <use x="180.615234" xlink:href="#DejaVuSansMono-97"/>
      <use x="240.820312" xlink:href="#DejaVuSansMono-120"/>
      <use x="301.025391" xlink:href="#DejaVuSansMono-32"/>
      <use x="361.230469" xlink:href="#DejaVuSansMono-32"/>
      <use x="421.435547" xlink:href="#DejaVuSansMono-61"/>
      <use x="481.640625" xlink:href="#DejaVuSansMono-32"/>
      <use x="541.845703" xlink:href="#DejaVuSansMono-53"/>
      <use x="602.050781" xlink:href="#DejaVuSansMono-48"/>
      <use x="662.255859" xlink:href="#DejaVuSansMono-57"/>
     </g>
    </g>
   </g>
  </g>
 </g>
 <defs>
  <clipPath id="p19d0143e6e">
   <rect height="298.453375" width="418.46125" x="35.85875" y="17.989125"/>
  </clipPath>
 </defs>
</svg>
