<?xml version="1.0" encoding="utf-8" standalone="no"?>
<!DOCTYPE svg PUBLIC "-//W3C//DTD SVG 1.1//EN"
  "http://www.w3.org/Graphics/SVG/1.1/DTD/svg11.dtd">
<!-- Created with matplotlib (https://matplotlib.org/) -->
<svg height="345.6pt" version="1.1" viewBox="0 0 460.8 345.6" width="460.8pt" xmlns="http://www.w3.org/2000/svg" xmlns:xlink="http://www.w3.org/1999/xlink">
 <metadata>
  <rdf:RDF xmlns:cc="http://creativecommons.org/ns#" xmlns:dc="http://purl.org/dc/elements/1.1/" xmlns:rdf="http://www.w3.org/1999/02/22-rdf-syntax-ns#">
   <cc:Work>
    <dc:type rdf:resource="http://purl.org/dc/dcmitype/StillImage"/>
    <dc:date>2022-03-17T01:01:35.363306</dc:date>
    <dc:format>image/svg+xml</dc:format>
    <dc:creator>
     <cc:Agent>
      <dc:title>Matplotlib v3.3.2, https://matplotlib.org/</dc:title>
     </cc:Agent>
    </dc:creator>
   </cc:Work>
  </rdf:RDF>
 </metadata>
 <defs>
  <style type="text/css">*{stroke-linecap:butt;stroke-linejoin:round;}</style>
 </defs>
 <g id="figure_1">
  <g id="patch_1">
   <path d="M 0 345.6 
L 460.8 345.6 
L 460.8 0 
L 0 0 
z
" style="fill:#ffffff;"/>
  </g>
  <g id="axes_1">
   <g id="patch_2">
    <path d="M 35.85875 316.4425 
L 454.32 316.4425 
L 454.32 17.989125 
L 35.85875 17.989125 
z
" style="fill:#ffffff;"/>
   </g>
   <g id="matplotlib.axis_1">
    <g id="xtick_1">
     <g id="line2d_1">
      <defs>
       <path d="M 0 0 
L 0 3.5 
" id="m9b49ae58fe" style="stroke:#000000;stroke-width:0.8;"/>
      </defs>
      <g>
       <use style="stroke:#000000;stroke-width:0.8;" x="54.879716" xlink:href="#m9b49ae58fe" y="316.4425"/>
      </g>
     </g>
     <g id="text_1">
      <!-- 0 -->
      <g transform="translate(53.073622 328.033437)scale(0.06 -0.06)">
       <defs>
        <path d="M 23.578125 36.625 
Q 23.578125 39.3125 25.453125 41.265625 
Q 27.34375 43.21875 29.984375 43.21875 
Q 32.71875 43.21875 34.671875 41.265625 
Q 36.625 39.3125 36.625 36.625 
Q 36.625 33.890625 34.6875 31.984375 
Q 32.765625 30.078125 29.984375 30.078125 
Q 27.25 30.078125 25.40625 31.9375 
Q 23.578125 33.796875 23.578125 36.625 
z
M 30.078125 66.40625 
Q 23.1875 66.40625 19.796875 58.984375 
Q 16.40625 51.5625 16.40625 36.375 
Q 16.40625 21.234375 19.796875 13.8125 
Q 23.1875 6.390625 30.078125 6.390625 
Q 37.015625 6.390625 40.40625 13.8125 
Q 43.796875 21.234375 43.796875 36.375 
Q 43.796875 51.5625 40.40625 58.984375 
Q 37.015625 66.40625 30.078125 66.40625 
z
M 30.078125 74.21875 
Q 41.75 74.21875 47.734375 64.640625 
Q 53.71875 55.078125 53.71875 36.375 
Q 53.71875 17.71875 47.734375 8.140625 
Q 41.75 -1.421875 30.078125 -1.421875 
Q 18.40625 -1.421875 12.453125 8.140625 
Q 6.5 17.71875 6.5 36.375 
Q 6.5 55.078125 12.453125 64.640625 
Q 18.40625 74.21875 30.078125 74.21875 
z
" id="DejaVuSansMono-48"/>
       </defs>
       <use xlink:href="#DejaVuSansMono-48"/>
      </g>
     </g>
    </g>
    <g id="xtick_2">
     <g id="line2d_2">
      <g>
       <use style="stroke:#000000;stroke-width:0.8;" x="106.011345" xlink:href="#m9b49ae58fe" y="316.4425"/>
      </g>
     </g>
     <g id="text_2">
      <!-- 100 -->
      <g transform="translate(100.593063 328.033437)scale(0.06 -0.06)">
       <defs>
        <path d="M 13.1875 8.296875 
L 28.515625 8.296875 
L 28.515625 64.015625 
L 12.015625 60.296875 
L 12.015625 69.28125 
L 28.421875 72.90625 
L 38.28125 72.90625 
L 38.28125 8.296875 
L 53.421875 8.296875 
L 53.421875 0 
L 13.1875 0 
z
" id="DejaVuSansMono-49"/>
       </defs>
       <use xlink:href="#DejaVuSansMono-49"/>
       <use x="60.205078" xlink:href="#DejaVuSansMono-48"/>
       <use x="120.410156" xlink:href="#DejaVuSansMono-48"/>
      </g>
     </g>
    </g>
    <g id="xtick_3">
     <g id="line2d_3">
      <g>
       <use style="stroke:#000000;stroke-width:0.8;" x="157.142973" xlink:href="#m9b49ae58fe" y="316.4425"/>
      </g>
     </g>
     <g id="text_3">
      <!-- 200 -->
      <g transform="translate(151.724692 328.033437)scale(0.06 -0.06)">
       <defs>
        <path d="M 18.21875 8.296875 
L 51.703125 8.296875 
L 51.703125 0 
L 7.421875 0 
L 7.421875 8.296875 
Q 16.546875 17.921875 23.375 25.296875 
Q 30.21875 32.671875 32.8125 35.6875 
Q 37.703125 41.65625 39.40625 45.34375 
Q 41.109375 49.03125 41.109375 52.875 
Q 41.109375 58.984375 37.515625 62.453125 
Q 33.9375 65.921875 27.6875 65.921875 
Q 23.25 65.921875 18.359375 64.3125 
Q 13.484375 62.703125 8.015625 59.421875 
L 8.015625 69.390625 
Q 13.03125 71.78125 17.890625 73 
Q 22.75 74.21875 27.484375 74.21875 
Q 38.1875 74.21875 44.703125 68.53125 
Q 51.21875 62.84375 51.21875 53.609375 
Q 51.21875 48.921875 49.046875 44.234375 
Q 46.875 39.546875 42 33.890625 
Q 39.265625 30.71875 34.0625 25.09375 
Q 28.859375 19.484375 18.21875 8.296875 
z
" id="DejaVuSansMono-50"/>
       </defs>
       <use xlink:href="#DejaVuSansMono-50"/>
       <use x="60.205078" xlink:href="#DejaVuSansMono-48"/>
       <use x="120.410156" xlink:href="#DejaVuSansMono-48"/>
      </g>
     </g>
    </g>
    <g id="xtick_4">
     <g id="line2d_4">
      <g>
       <use style="stroke:#000000;stroke-width:0.8;" x="208.274602" xlink:href="#m9b49ae58fe" y="316.4425"/>
      </g>
     </g>
     <g id="text_4">
      <!-- 300 -->
      <g transform="translate(202.856321 328.033437)scale(0.06 -0.06)">
       <defs>
        <path d="M 37.890625 39.015625 
Q 45.0625 37.109375 48.875 32.25 
Q 52.6875 27.390625 52.6875 20.125 
Q 52.6875 10.0625 45.921875 4.3125 
Q 39.15625 -1.421875 27.203125 -1.421875 
Q 22.171875 -1.421875 16.9375 -0.484375 
Q 11.71875 0.4375 6.6875 2.203125 
L 6.6875 12.015625 
Q 11.671875 9.421875 16.5 8.15625 
Q 21.34375 6.890625 26.125 6.890625 
Q 34.234375 6.890625 38.578125 10.546875 
Q 42.921875 14.203125 42.921875 21.09375 
Q 42.921875 27.4375 38.578125 31.171875 
Q 34.234375 34.90625 26.8125 34.90625 
L 19.28125 34.90625 
L 19.28125 43.015625 
L 26.8125 43.015625 
Q 33.59375 43.015625 37.40625 45.984375 
Q 41.21875 48.96875 41.21875 54.296875 
Q 41.21875 59.90625 37.671875 62.90625 
Q 34.125 65.921875 27.59375 65.921875 
Q 23.25 65.921875 18.609375 64.9375 
Q 13.96875 63.96875 8.890625 62.015625 
L 8.890625 71.09375 
Q 14.796875 72.65625 19.40625 73.4375 
Q 24.03125 74.21875 27.59375 74.21875 
Q 38.234375 74.21875 44.609375 68.875 
Q 50.984375 63.53125 50.984375 54.6875 
Q 50.984375 48.6875 47.625 44.671875 
Q 44.28125 40.671875 37.890625 39.015625 
z
" id="DejaVuSansMono-51"/>
       </defs>
       <use xlink:href="#DejaVuSansMono-51"/>
       <use x="60.205078" xlink:href="#DejaVuSansMono-48"/>
       <use x="120.410156" xlink:href="#DejaVuSansMono-48"/>
      </g>
     </g>
    </g>
    <g id="xtick_5">
     <g id="line2d_5">
      <g>
       <use style="stroke:#000000;stroke-width:0.8;" x="259.406231" xlink:href="#m9b49ae58fe" y="316.4425"/>
      </g>
     </g>
     <g id="text_5">
      <!-- 400 -->
      <g transform="translate(253.98795 328.033437)scale(0.06 -0.06)">
       <defs>
        <path d="M 35.890625 63.921875 
L 12.890625 25.390625 
L 35.890625 25.390625 
z
M 34.28125 72.90625 
L 45.703125 72.90625 
L 45.703125 25.390625 
L 55.421875 25.390625 
L 55.421875 17.390625 
L 45.703125 17.390625 
L 45.703125 0 
L 35.890625 0 
L 35.890625 17.390625 
L 4.984375 17.390625 
L 4.984375 26.703125 
z
" id="DejaVuSansMono-52"/>
       </defs>
       <use xlink:href="#DejaVuSansMono-52"/>
       <use x="60.205078" xlink:href="#DejaVuSansMono-48"/>
       <use x="120.410156" xlink:href="#DejaVuSansMono-48"/>
      </g>
     </g>
    </g>
    <g id="xtick_6">
     <g id="line2d_6">
      <g>
       <use style="stroke:#000000;stroke-width:0.8;" x="310.53786" xlink:href="#m9b49ae58fe" y="316.4425"/>
      </g>
     </g>
     <g id="text_6">
      <!-- 500 -->
      <g transform="translate(305.119579 328.033437)scale(0.06 -0.06)">
       <defs>
        <path d="M 10.109375 72.90625 
L 47.015625 72.90625 
L 47.015625 64.59375 
L 19.09375 64.59375 
L 19.09375 46.6875 
Q 21.1875 47.46875 23.3125 47.828125 
Q 25.4375 48.1875 27.59375 48.1875 
Q 38.921875 48.1875 45.5625 41.5 
Q 52.203125 34.8125 52.203125 23.390625 
Q 52.203125 11.859375 45.234375 5.21875 
Q 38.28125 -1.421875 26.21875 -1.421875 
Q 20.40625 -1.421875 15.59375 -0.640625 
Q 10.796875 0.140625 6.984375 1.703125 
L 6.984375 11.71875 
Q 11.46875 9.28125 16.015625 8.078125 
Q 20.5625 6.890625 25.296875 6.890625 
Q 33.453125 6.890625 37.859375 11.1875 
Q 42.28125 15.484375 42.28125 23.390625 
Q 42.28125 31.203125 37.71875 35.546875 
Q 33.15625 39.890625 25 39.890625 
Q 21.046875 39.890625 17.28125 38.984375 
Q 13.53125 38.09375 10.109375 36.28125 
z
" id="DejaVuSansMono-53"/>
       </defs>
       <use xlink:href="#DejaVuSansMono-53"/>
       <use x="60.205078" xlink:href="#DejaVuSansMono-48"/>
       <use x="120.410156" xlink:href="#DejaVuSansMono-48"/>
      </g>
     </g>
    </g>
    <g id="xtick_7">
     <g id="line2d_7">
      <g>
       <use style="stroke:#000000;stroke-width:0.8;" x="361.669489" xlink:href="#m9b49ae58fe" y="316.4425"/>
      </g>
     </g>
     <g id="text_7">
      <!-- 600 -->
      <g transform="translate(356.251207 328.033437)scale(0.06 -0.06)">
       <defs>
        <path d="M 48.390625 71.296875 
L 48.390625 62.203125 
Q 45.3125 64.015625 41.84375 64.96875 
Q 38.375 65.921875 34.625 65.921875 
Q 25.25 65.921875 20.40625 58.859375 
Q 15.578125 51.8125 15.578125 38.09375 
Q 17.921875 42.96875 22.0625 45.578125 
Q 26.21875 48.1875 31.59375 48.1875 
Q 42.140625 48.1875 47.921875 41.71875 
Q 53.71875 35.25 53.71875 23.390625 
Q 53.71875 11.578125 47.75 5.078125 
Q 41.796875 -1.421875 31 -1.421875 
Q 18.3125 -1.421875 12.40625 7.6875 
Q 6.5 16.796875 6.5 36.375 
Q 6.5 54.828125 13.59375 64.515625 
Q 20.703125 74.21875 34.1875 74.21875 
Q 37.796875 74.21875 41.40625 73.453125 
Q 45.015625 72.703125 48.390625 71.296875 
z
M 30.8125 40.484375 
Q 24.515625 40.484375 20.890625 35.9375 
Q 17.28125 31.390625 17.28125 23.390625 
Q 17.28125 15.375 20.890625 10.828125 
Q 24.515625 6.296875 30.8125 6.296875 
Q 37.359375 6.296875 40.671875 10.609375 
Q 44 14.9375 44 23.390625 
Q 44 31.890625 40.671875 36.1875 
Q 37.359375 40.484375 30.8125 40.484375 
z
" id="DejaVuSansMono-54"/>
       </defs>
       <use xlink:href="#DejaVuSansMono-54"/>
       <use x="60.205078" xlink:href="#DejaVuSansMono-48"/>
       <use x="120.410156" xlink:href="#DejaVuSansMono-48"/>
      </g>
     </g>
    </g>
    <g id="xtick_8">
     <g id="line2d_8">
      <g>
       <use style="stroke:#000000;stroke-width:0.8;" x="412.801117" xlink:href="#m9b49ae58fe" y="316.4425"/>
      </g>
     </g>
     <g id="text_8">
      <!-- 700 -->
      <g transform="translate(407.382836 328.033437)scale(0.06 -0.06)">
       <defs>
        <path d="M 6.78125 72.90625 
L 52.6875 72.90625 
L 52.6875 68.703125 
L 26.609375 0 
L 16.3125 0 
L 41.703125 64.59375 
L 6.78125 64.59375 
z
" id="DejaVuSansMono-55"/>
       </defs>
       <use xlink:href="#DejaVuSansMono-55"/>
       <use x="60.205078" xlink:href="#DejaVuSansMono-48"/>
       <use x="120.410156" xlink:href="#DejaVuSansMono-48"/>
      </g>
     </g>
    </g>
    <g id="text_9">
     <!-- n -->
     <g transform="translate(243.283281 337.872187)scale(0.06 -0.06)">
      <defs>
       <path d="M 51.3125 33.890625 
L 51.3125 0 
L 42.28125 0 
L 42.28125 33.890625 
Q 42.28125 41.265625 39.6875 44.71875 
Q 37.109375 48.1875 31.59375 48.1875 
Q 25.296875 48.1875 21.890625 43.71875 
Q 18.5 39.265625 18.5 30.90625 
L 18.5 0 
L 9.515625 0 
L 9.515625 54.6875 
L 18.5 54.6875 
L 18.5 46.484375 
Q 20.90625 51.171875 25 53.578125 
Q 29.109375 56 34.71875 56 
Q 43.0625 56 47.1875 50.5 
Q 51.3125 45.015625 51.3125 33.890625 
z
" id="DejaVuSansMono-110"/>
      </defs>
      <use xlink:href="#DejaVuSansMono-110"/>
     </g>
    </g>
   </g>
   <g id="matplotlib.axis_2">
    <g id="ytick_1">
     <g id="line2d_9">
      <defs>
       <path d="M 0 0 
L -3.5 0 
" id="m71cdc2f6fa" style="stroke:#000000;stroke-width:0.8;"/>
      </defs>
      <g>
       <use style="stroke:#000000;stroke-width:0.8;" x="35.85875" xlink:href="#m71cdc2f6fa" y="284.146728"/>
      </g>
     </g>
     <g id="text_10">
      <!-- $\mathdefault{10^{1}}$ -->
      <g transform="translate(18.83875 286.442196)scale(0.06 -0.06)">
       <use transform="translate(0 0.684375)" xlink:href="#DejaVuSansMono-49"/>
       <use transform="translate(60.205078 0.684375)" xlink:href="#DejaVuSansMono-48"/>
       <use transform="translate(121.367188 38.965625)scale(0.7)" xlink:href="#DejaVuSansMono-49"/>
      </g>
     </g>
    </g>
    <g id="ytick_2">
     <g id="line2d_10">
      <g>
       <use style="stroke:#000000;stroke-width:0.8;" x="35.85875" xlink:href="#m71cdc2f6fa" y="246.687308"/>
      </g>
     </g>
     <g id="text_11">
      <!-- $\mathdefault{10^{3}}$ -->
      <g transform="translate(18.83875 248.982776)scale(0.06 -0.06)">
       <use transform="translate(0 0.765625)" xlink:href="#DejaVuSansMono-49"/>
       <use transform="translate(60.205078 0.765625)" xlink:href="#DejaVuSansMono-48"/>
       <use transform="translate(121.367188 39.046875)scale(0.7)" xlink:href="#DejaVuSansMono-51"/>
      </g>
     </g>
    </g>
    <g id="ytick_3">
     <g id="line2d_11">
      <g>
       <use style="stroke:#000000;stroke-width:0.8;" x="35.85875" xlink:href="#m71cdc2f6fa" y="209.227888"/>
      </g>
     </g>
     <g id="text_12">
      <!-- $\mathdefault{10^{5}}$ -->
      <g transform="translate(18.83875 211.523356)scale(0.06 -0.06)">
       <use transform="translate(0 0.684375)" xlink:href="#DejaVuSansMono-49"/>
       <use transform="translate(60.205078 0.684375)" xlink:href="#DejaVuSansMono-48"/>
       <use transform="translate(121.367188 38.965625)scale(0.7)" xlink:href="#DejaVuSansMono-53"/>
      </g>
     </g>
    </g>
    <g id="ytick_4">
     <g id="line2d_12">
      <g>
       <use style="stroke:#000000;stroke-width:0.8;" x="35.85875" xlink:href="#m71cdc2f6fa" y="171.768468"/>
      </g>
     </g>
     <g id="text_13">
      <!-- $\mathdefault{10^{7}}$ -->
      <g transform="translate(18.83875 174.063937)scale(0.06 -0.06)">
       <use transform="translate(0 0.684375)" xlink:href="#DejaVuSansMono-49"/>
       <use transform="translate(60.205078 0.684375)" xlink:href="#DejaVuSansMono-48"/>
       <use transform="translate(121.367188 38.965625)scale(0.7)" xlink:href="#DejaVuSansMono-55"/>
      </g>
     </g>
    </g>
    <g id="ytick_5">
     <g id="line2d_13">
      <g>
       <use style="stroke:#000000;stroke-width:0.8;" x="35.85875" xlink:href="#m71cdc2f6fa" y="134.309048"/>
      </g>
     </g>
     <g id="text_14">
      <!-- $\mathdefault{10^{9}}$ -->
      <g transform="translate(18.83875 136.604517)scale(0.06 -0.06)">
       <defs>
        <path d="M 29.109375 32.328125 
Q 35.40625 32.328125 38.984375 36.859375 
Q 42.578125 41.40625 42.578125 49.421875 
Q 42.578125 57.421875 38.984375 61.953125 
Q 35.40625 66.5 29.109375 66.5 
Q 22.5625 66.5 19.234375 62.171875 
Q 15.921875 57.859375 15.921875 49.421875 
Q 15.921875 40.921875 19.21875 36.625 
Q 22.515625 32.328125 29.109375 32.328125 
z
M 11.53125 1.515625 
L 11.53125 10.59375 
Q 14.59375 8.796875 18.0625 7.84375 
Q 21.53125 6.890625 25.296875 6.890625 
Q 34.671875 6.890625 39.46875 13.9375 
Q 44.28125 21 44.28125 34.71875 
Q 42 29.828125 37.84375 27.21875 
Q 33.6875 24.609375 28.328125 24.609375 
Q 17.78125 24.609375 11.984375 31.09375 
Q 6.203125 37.59375 6.203125 49.515625 
Q 6.203125 61.28125 12.125 67.75 
Q 18.0625 74.21875 28.90625 74.21875 
Q 41.609375 74.21875 47.515625 65.078125 
Q 53.421875 55.953125 53.421875 36.375 
Q 53.421875 17.96875 46.3125 8.265625 
Q 39.203125 -1.421875 25.6875 -1.421875 
Q 22.125 -1.421875 18.5 -0.65625 
Q 14.890625 0.09375 11.53125 1.515625 
z
" id="DejaVuSansMono-57"/>
       </defs>
       <use transform="translate(0 0.765625)" xlink:href="#DejaVuSansMono-49"/>
       <use transform="translate(60.205078 0.765625)" xlink:href="#DejaVuSansMono-48"/>
       <use transform="translate(121.367188 39.046875)scale(0.7)" xlink:href="#DejaVuSansMono-57"/>
      </g>
     </g>
    </g>
    <g id="ytick_6">
     <g id="line2d_14">
      <g>
       <use style="stroke:#000000;stroke-width:0.8;" x="35.85875" xlink:href="#m71cdc2f6fa" y="96.849628"/>
      </g>
     </g>
     <g id="text_15">
      <!-- $\mathdefault{10^{11}}$ -->
      <g transform="translate(16.31875 99.145097)scale(0.06 -0.06)">
       <use transform="translate(0 0.684375)" xlink:href="#DejaVuSansMono-49"/>
       <use transform="translate(60.205078 0.684375)" xlink:href="#DejaVuSansMono-48"/>
       <use transform="translate(121.367188 38.965625)scale(0.7)" xlink:href="#DejaVuSansMono-49"/>
       <use transform="translate(163.510742 38.965625)scale(0.7)" xlink:href="#DejaVuSansMono-49"/>
      </g>
     </g>
    </g>
    <g id="ytick_7">
     <g id="line2d_15">
      <g>
       <use style="stroke:#000000;stroke-width:0.8;" x="35.85875" xlink:href="#m71cdc2f6fa" y="59.390208"/>
      </g>
     </g>
     <g id="text_16">
      <!-- $\mathdefault{10^{13}}$ -->
      <g transform="translate(16.31875 61.685677)scale(0.06 -0.06)">
       <use transform="translate(0 0.765625)" xlink:href="#DejaVuSansMono-49"/>
       <use transform="translate(60.205078 0.765625)" xlink:href="#DejaVuSansMono-48"/>
       <use transform="translate(121.367188 39.046875)scale(0.7)" xlink:href="#DejaVuSansMono-49"/>
       <use transform="translate(163.510742 39.046875)scale(0.7)" xlink:href="#DejaVuSansMono-51"/>
      </g>
     </g>
    </g>
    <g id="ytick_8">
     <g id="line2d_16">
      <g>
       <use style="stroke:#000000;stroke-width:0.8;" x="35.85875" xlink:href="#m71cdc2f6fa" y="21.930788"/>
      </g>
     </g>
     <g id="text_17">
      <!-- $\mathdefault{10^{15}}$ -->
      <g transform="translate(16.31875 24.226257)scale(0.06 -0.06)">
       <use transform="translate(0 0.684375)" xlink:href="#DejaVuSansMono-49"/>
       <use transform="translate(60.205078 0.684375)" xlink:href="#DejaVuSansMono-48"/>
       <use transform="translate(121.367188 38.965625)scale(0.7)" xlink:href="#DejaVuSansMono-49"/>
       <use transform="translate(163.510742 38.965625)scale(0.7)" xlink:href="#DejaVuSansMono-53"/>
      </g>
     </g>
    </g>
    <g id="text_18">
     <!-- y_n -->
     <g transform="translate(10.904063 172.634094)rotate(-90)scale(0.06 -0.06)">
      <defs>
       <path d="M 41.890625 17.578125 
Q 39.65625 11.859375 36.1875 2.546875 
Q 31.34375 -10.359375 29.6875 -13.1875 
Q 27.4375 -17 24.0625 -18.890625 
Q 20.703125 -20.796875 16.21875 -20.796875 
L 8.984375 -20.796875 
L 8.984375 -13.28125 
L 14.3125 -13.28125 
Q 18.265625 -13.28125 20.5 -10.984375 
Q 22.75 -8.6875 26.21875 0.875 
L 5.078125 54.6875 
L 14.59375 54.6875 
L 30.8125 11.921875 
L 46.78125 54.6875 
L 56.296875 54.6875 
z
" id="DejaVuSansMono-121"/>
       <path d="M 60.203125 -19.671875 
L 60.203125 -23.578125 
L 0 -23.578125 
L 0 -19.671875 
z
" id="DejaVuSansMono-95"/>
      </defs>
      <use xlink:href="#DejaVuSansMono-121"/>
      <use x="60.205078" xlink:href="#DejaVuSansMono-95"/>
      <use x="120.410156" xlink:href="#DejaVuSansMono-110"/>
     </g>
    </g>
   </g>
   <g id="line2d_17">
    <path clip-path="url(#pb6b04dc0a1)" d="M 54.879716 166.278676 
L 55.391032 157.342333 
L 55.902348 162.980538 
L 56.413665 154.044195 
L 56.924981 159.682399 
L 57.436297 150.746057 
L 57.947614 156.384261 
L 58.45893 147.447918 
L 58.970246 153.086123 
L 59.481562 144.14978 
L 59.992879 149.787985 
L 60.504195 140.851642 
L 61.015511 146.489846 
L 61.526828 137.553504 
L 62.54946 148.829913 
L 63.060777 139.89357 
L 64.594725 156.808183 
L 65.106042 147.871841 
L 65.617358 153.510045 
L 66.128674 144.573702 
L 66.639991 150.211907 
L 67.151307 141.275564 
L 67.662623 146.913769 
L 68.173939 137.977426 
L 69.196572 149.253835 
L 69.707888 140.317492 
L 70.730521 151.593901 
L 71.241837 142.657559 
L 72.26447 153.933968 
L 72.775786 144.997625 
L 73.287102 150.635829 
L 73.798419 141.699487 
L 74.309735 147.337691 
L 74.821051 138.401348 
L 75.332367 144.039553 
L 75.843684 135.10321 
L 76.355 140.741415 
L 76.866316 131.805072 
L 77.377633 137.443276 
L 77.888949 128.506934 
L 78.400265 134.145138 
L 78.911581 125.208795 
L 79.422898 130.847 
L 79.934214 121.910657 
L 80.44553 127.548862 
L 80.956847 118.612519 
L 81.468163 124.250724 
L 81.979479 115.314381 
L 83.002112 126.59079 
L 83.513428 117.654447 
L 84.024744 123.292652 
L 84.536061 114.356309 
L 85.047377 119.994513 
L 85.558693 111.058171 
L 86.581326 122.33458 
L 87.092642 113.398237 
L 87.603958 119.036442 
L 88.115275 110.100099 
L 88.626591 115.738303 
L 89.137907 106.801961 
L 91.183172 129.354779 
L 91.694489 120.418436 
L 92.205805 126.05664 
L 92.717121 117.120298 
L 93.228437 122.758502 
L 93.739754 113.822159 
L 94.25107 119.460364 
L 94.762386 110.524021 
L 95.785019 121.80043 
L 96.296335 112.864088 
L 96.807652 118.502292 
L 97.318968 109.565949 
L 98.3416 120.842358 
L 98.852917 111.906016 
L 99.364233 117.54422 
L 99.875549 108.607877 
L 100.386866 114.246082 
L 100.898182 105.309739 
L 101.920814 116.586148 
L 102.432131 107.649806 
L 104.477396 130.202624 
L 104.988712 121.266281 
L 105.500028 126.904485 
L 106.011345 117.968143 
L 106.522661 123.606347 
L 107.033977 114.670004 
L 108.05661 125.946413 
L 108.567926 117.010071 
L 109.590559 128.28648 
L 110.101875 119.350137 
L 110.613191 124.988342 
L 111.124508 116.051999 
L 112.14714 127.328408 
L 112.658456 118.392065 
L 113.681089 129.668474 
L 114.192405 120.732131 
L 114.703722 126.370336 
L 115.215038 117.433993 
L 115.726354 123.072198 
L 116.23767 114.135855 
L 117.771619 131.050469 
L 118.282936 122.114126 
L 118.794252 127.75233 
L 119.305568 118.815988 
L 120.839517 135.730601 
L 121.350833 126.794258 
L 122.373466 138.070667 
L 122.884782 129.134325 
L 123.907415 140.410734 
L 124.418731 131.474391 
L 125.441364 142.7508 
L 125.95268 133.814457 
L 126.463996 139.452662 
L 126.975312 130.516319 
L 127.486629 136.154524 
L 127.997945 127.218181 
L 129.020578 138.49459 
L 129.531894 129.558247 
L 130.04321 135.196452 
L 130.554527 126.260109 
L 131.065843 131.898313 
L 131.577159 122.961971 
L 132.088475 128.600175 
L 132.599792 119.663833 
L 133.111108 125.302037 
L 133.622424 116.365694 
L 134.133741 122.003899 
L 134.645057 113.067556 
L 135.156373 118.705761 
L 135.667689 109.769418 
L 136.179006 115.407622 
L 136.690322 106.47128 
L 138.224271 123.385893 
L 138.735587 114.449551 
L 139.75822 125.72596 
L 140.269536 116.789617 
L 141.803485 133.70423 
L 142.314801 124.767888 
L 142.826117 130.406092 
L 143.337434 121.469749 
L 143.84875 127.107954 
L 144.360066 118.171611 
L 144.871383 123.809816 
L 145.382699 114.873473 
L 145.894015 120.511677 
L 146.405331 111.575335 
L 146.916648 117.213539 
L 147.427964 108.277197 
L 148.961913 125.19181 
L 149.473229 116.255467 
L 149.984545 121.893672 
L 150.495862 112.957329 
L 151.007178 118.595534 
L 151.518494 109.659191 
L 152.541127 120.9356 
L 153.052443 111.999257 
L 153.563759 117.637462 
L 154.075076 108.701119 
L 154.586392 114.339324 
L 155.097708 105.402981 
L 155.609025 111.041185 
L 156.120341 102.104843 
L 157.142973 113.381252 
L 157.65429 104.444909 
L 158.676922 115.721318 
L 159.188239 106.784975 
L 159.699555 112.42318 
L 160.210871 103.486837 
L 160.722187 109.125042 
L 161.233504 100.188699 
L 162.256136 111.465108 
L 162.767453 102.528765 
L 163.278769 108.16697 
L 163.790085 99.230627 
L 164.812718 110.507036 
L 165.324034 101.570693 
L 165.83535 107.208898 
L 166.346667 98.272555 
L 166.857983 103.910759 
L 167.369299 94.974417 
L 167.880616 100.612621 
L 168.391932 91.676279 
L 168.903248 97.314483 
L 169.414564 88.37814 
L 169.925881 94.016345 
L 170.437197 85.080002 
L 170.948513 90.718207 
L 171.45983 81.781864 
L 171.971146 87.420068 
L 172.482462 78.483726 
L 173.505095 89.760135 
L 174.016411 80.823792 
L 175.039044 92.100201 
L 175.55036 83.163858 
L 176.061676 88.802063 
L 176.572992 79.86572 
L 177.084309 85.503925 
L 177.595625 76.567582 
L 178.618258 87.843991 
L 179.129574 78.907648 
L 179.64089 84.545853 
L 180.152206 75.60951 
L 180.663523 81.247715 
L 181.174839 72.311372 
L 183.220104 94.86419 
L 183.73142 85.927847 
L 184.242737 91.566052 
L 184.754053 82.629709 
L 185.265369 88.267913 
L 185.776686 79.331571 
L 186.288002 84.969775 
L 186.799318 76.033432 
L 187.310634 81.671637 
L 187.821951 72.735294 
L 188.333267 78.373499 
L 188.844583 69.437156 
L 189.867216 80.713565 
L 190.378532 71.777222 
L 190.889848 77.415427 
L 191.401165 68.479084 
L 191.912481 74.117289 
L 192.423797 65.180946 
L 192.935114 70.81915 
L 193.44643 61.882808 
L 193.957746 67.521012 
L 194.469062 58.58467 
L 196.514328 81.137488 
L 197.025644 72.201145 
L 197.53696 77.839349 
L 198.048277 68.903007 
L 199.582225 85.81762 
L 200.093542 76.881277 
L 200.604858 82.519482 
L 201.116174 73.583139 
L 202.138807 84.859548 
L 202.650123 75.923206 
L 203.161439 81.56141 
L 203.672756 72.625067 
L 204.184072 78.263272 
L 204.695388 69.326929 
L 205.718021 80.603338 
L 206.229337 71.666995 
L 206.740653 77.3052 
L 207.25197 68.368857 
L 207.763286 74.007062 
L 208.274602 65.070719 
L 208.785919 70.708924 
L 209.297235 61.772581 
L 209.808551 67.410785 
L 210.319867 58.474443 
L 210.831184 64.112647 
L 211.3425 55.176304 
L 211.853816 60.814509 
L 212.365133 51.878166 
L 213.387765 63.154575 
L 213.899081 54.218232 
L 214.921714 65.494641 
L 215.43303 56.558299 
L 216.455663 67.834708 
L 216.966979 58.898365 
L 217.478295 64.53657 
L 217.989612 55.600227 
L 218.500928 61.238431 
L 219.012244 52.302089 
L 220.034877 63.578498 
L 220.546193 54.642155 
L 221.057509 60.280359 
L 221.568826 51.344017 
L 222.080142 56.982221 
L 222.591458 48.045879 
L 223.102775 53.684083 
L 223.614091 44.74774 
L 224.125407 50.385945 
L 224.636723 41.449602 
L 225.14804 47.087807 
L 225.659356 38.151464 
L 226.170672 43.789668 
L 226.681989 34.853326 
L 227.193305 40.49153 
L 227.704621 31.555187 
L 229.23857 48.469801 
L 229.749886 39.533458 
L 231.795152 62.086276 
L 232.306468 53.149934 
L 232.817784 58.788138 
L 233.3291 49.851795 
L 233.840417 55.49 
L 234.351733 46.553657 
L 234.863049 52.191862 
L 235.374366 43.255519 
L 238.442263 77.084746 
L 238.95358 68.148403 
L 239.464896 73.786608 
L 239.976212 64.850265 
L 240.487528 70.48847 
L 240.998845 61.552127 
L 241.510161 67.190331 
L 242.021477 58.253989 
L 243.04411 69.530398 
L 243.555426 60.594055 
L 247.645956 105.699691 
L 248.157273 96.763348 
L 251.736487 136.23078 
L 252.247803 127.294437 
L 253.781752 144.209051 
L 254.293068 135.272708 
L 254.804384 140.910912 
L 255.315701 131.97457 
L 256.338333 143.250979 
L 256.84965 134.314636 
L 258.383598 151.22925 
L 258.894915 142.292907 
L 259.406231 147.931111 
L 259.917547 138.994769 
L 260.94018 150.271178 
L 261.451496 141.334835 
L 262.474129 152.611244 
L 262.985445 143.674901 
L 263.496761 149.313106 
L 264.008078 140.376763 
L 264.519394 146.014967 
L 265.03071 137.078625 
L 265.542027 142.716829 
L 266.053343 133.780487 
L 266.564659 139.418691 
L 267.075975 130.482348 
L 269.121241 153.035166 
L 269.632557 144.098824 
L 270.143873 149.737028 
L 270.655189 140.800685 
L 272.700455 163.353503 
L 273.211771 154.417161 
L 274.74572 171.331774 
L 275.257036 162.395431 
L 276.790985 179.310045 
L 277.302301 170.373701 
L 278.324934 181.65011 
L 278.83625 172.713767 
L 279.347566 178.351971 
L 279.858883 169.415628 
L 281.904148 191.968446 
L 282.415464 183.0321 
L 282.92678 188.670304 
L 283.438097 179.733959 
L 284.972045 196.648573 
L 285.483362 187.712225 
L 285.994678 193.350429 
L 286.505994 184.414082 
L 287.017311 190.052287 
L 287.528627 181.115942 
L 288.039943 186.754146 
L 288.551259 177.817802 
L 289.573892 189.094211 
L 290.085208 180.157866 
L 290.596525 185.79607 
L 291.107841 176.859726 
L 291.619157 182.497931 
L 292.130473 173.561587 
L 293.153106 184.837996 
L 293.664422 175.901652 
L 294.175739 181.539856 
L 294.687055 172.603513 
L 297.243636 200.794535 
L 297.754953 191.858183 
L 298.266269 197.496387 
L 298.777585 188.560038 
L 299.800218 199.836447 
L 300.311534 190.900096 
L 300.82285 196.538301 
L 301.334167 187.601952 
L 301.845483 193.240157 
L 302.356799 184.30381 
L 302.868116 189.942015 
L 303.379432 181.005669 
L 304.913381 197.920283 
L 305.424697 188.983933 
L 306.44733 200.260342 
L 306.958646 191.323991 
L 307.981278 202.6004 
L 308.492595 193.664045 
L 309.515227 204.940454 
L 310.026544 196.004095 
L 310.53786 201.6423 
L 311.049176 192.705946 
L 311.560492 198.344151 
L 312.071809 189.407801 
L 313.605758 206.322415 
L 314.117074 197.386053 
L 314.62839 203.024257 
L 315.139706 194.087902 
L 316.673655 211.002516 
L 317.184972 202.066139 
L 317.696288 207.704344 
L 318.207604 198.767978 
L 318.71892 204.406183 
L 319.230237 195.469825 
L 319.741553 201.10803 
L 320.252869 192.171677 
L 322.809451 220.3627 
L 323.320767 211.42625 
L 323.832083 217.064455 
L 324.3434 208.128041 
L 324.854716 213.766246 
L 325.366032 204.829855 
L 325.877348 210.46806 
L 326.388665 201.531686 
L 326.899981 207.16989 
L 327.411297 198.233526 
L 330.479195 232.062753 
L 330.990511 223.125962 
L 334.058409 256.955189 
L 334.569725 248.009271 
L 335.081042 253.647475 
L 335.592358 244.704755 
L 336.614991 255.981164 
L 337.126307 247.036326 
L 337.637623 252.674531 
L 338.148939 243.732529 
L 338.660256 249.370734 
L 339.171572 240.430621 
L 339.682888 246.068826 
L 340.194205 237.12997 
L 340.705521 242.768175 
L 341.216837 233.830158 
L 341.728153 239.468362 
L 342.23947 230.530903 
L 343.773419 247.445517 
L 344.284735 238.506198 
L 344.796051 244.144403 
L 345.307367 235.206077 
L 345.818684 240.844281 
L 346.33 231.906617 
L 346.841316 237.544821 
L 347.352633 228.607597 
L 349.397898 251.160415 
L 349.909214 242.219375 
L 350.931847 253.495784 
L 351.443163 244.553182 
L 352.465795 255.829591 
L 352.977112 246.884909 
L 355.022377 269.437728 
L 355.533693 260.457057 
L 357.067642 277.37167 
L 357.578958 268.318286 
L 358.090275 273.956491 
L 358.601591 264.943046 
L 359.112907 270.581251 
L 359.624223 261.59391 
L 362.180805 289.784932 
L 362.692121 280.323619 
L 364.737386 302.876437 
L 364.737386 302.876437 
" style="fill:none;stroke:#1f77b4;stroke-linecap:square;stroke-width:0.666667;"/>
   </g>
   <g id="line2d_18">
    <path clip-path="url(#pb6b04dc0a1)" d="M 54.879716 161.172174 
L 55.391032 152.235831 
L 55.902348 157.874035 
L 56.413665 148.937693 
L 56.924981 154.575897 
L 57.436297 145.639554 
L 57.947614 151.277759 
L 58.45893 142.341416 
L 59.481562 153.617825 
L 59.992879 144.681482 
L 60.504195 150.319687 
L 61.015511 141.383344 
L 61.526828 147.021549 
L 62.038144 138.085206 
L 62.54946 143.72341 
L 63.060777 134.787068 
L 63.572093 140.425272 
L 64.083409 131.488929 
L 64.594725 137.127134 
L 65.106042 128.190791 
L 65.617358 133.828996 
L 66.128674 124.892653 
L 67.662623 141.807267 
L 68.173939 132.870924 
L 69.196572 144.147333 
L 69.707888 135.21099 
L 70.219205 140.849195 
L 70.730521 131.912852 
L 71.241837 137.551056 
L 71.753153 128.614714 
L 72.775786 139.891123 
L 73.287102 130.95478 
L 73.798419 136.592984 
L 74.309735 127.656642 
L 75.332367 138.933051 
L 75.843684 129.996708 
L 77.377633 146.911322 
L 77.888949 137.974979 
L 78.911581 149.251388 
L 79.422898 140.315045 
L 80.956847 157.229659 
L 81.468163 148.293316 
L 83.513428 170.846134 
L 84.024744 161.909791 
L 85.047377 173.1862 
L 85.558693 164.249857 
L 86.070009 169.888061 
L 86.581326 160.951719 
L 87.092642 166.589923 
L 87.603958 157.65358 
L 88.115275 163.291785 
L 88.626591 154.355442 
L 89.137907 159.993646 
L 89.649223 151.057304 
L 90.16054 156.695508 
L 90.671856 147.759165 
L 91.183172 153.39737 
L 91.694489 144.461027 
L 92.717121 155.737436 
L 93.228437 146.801093 
L 93.739754 152.439298 
L 94.25107 143.502955 
L 94.762386 149.14116 
L 95.273703 140.204817 
L 95.785019 145.843021 
L 96.296335 136.906679 
L 96.807652 142.544883 
L 97.318968 133.60854 
L 97.830284 139.246745 
L 98.3416 130.310402 
L 99.875549 147.225016 
L 100.386866 138.288673 
L 100.898182 143.926878 
L 101.409498 134.990535 
L 102.432131 146.266944 
L 102.943447 137.330601 
L 103.454763 142.968806 
L 103.96608 134.032463 
L 105.500028 150.947076 
L 106.011345 142.010734 
L 106.522661 147.648938 
L 107.033977 138.712595 
L 107.545294 144.3508 
L 108.05661 135.414457 
L 108.567926 141.052662 
L 109.079242 132.116319 
L 109.590559 137.754524 
L 110.101875 128.818181 
L 111.124508 140.09459 
L 111.635824 131.158247 
L 112.14714 136.796452 
L 112.658456 127.860109 
L 113.681089 139.136518 
L 114.192405 130.200175 
L 115.215038 141.476584 
L 115.726354 132.540242 
L 116.23767 138.178446 
L 116.748987 129.242103 
L 117.260303 134.880308 
L 117.771619 125.943965 
L 118.282936 131.58217 
L 118.794252 122.645827 
L 119.305568 128.284031 
L 119.816884 119.347689 
L 120.839517 130.624098 
L 121.350833 121.687755 
L 122.373466 132.964164 
L 122.884782 124.027821 
L 123.396098 129.666026 
L 123.907415 120.729683 
L 124.930047 132.006092 
L 125.441364 123.069749 
L 125.95268 128.707954 
L 126.463996 119.771611 
L 126.975312 125.409816 
L 127.486629 116.473473 
L 127.997945 122.111677 
L 128.509261 113.175335 
L 129.020578 118.813539 
L 129.531894 109.877197 
L 130.554527 121.153606 
L 131.065843 112.217263 
L 131.577159 117.855467 
L 132.088475 108.919125 
L 133.111108 120.195534 
L 133.622424 111.259191 
L 134.645057 122.5356 
L 135.156373 113.599257 
L 135.667689 119.237462 
L 136.179006 110.301119 
L 138.224271 132.853937 
L 138.735587 123.917594 
L 140.269536 140.832208 
L 140.780852 131.895865 
L 141.292169 137.53407 
L 141.803485 128.597727 
L 143.337434 145.51234 
L 143.84875 136.575998 
L 144.871383 147.852407 
L 145.382699 138.916064 
L 145.894015 144.554268 
L 146.405331 135.617926 
L 146.916648 141.25613 
L 147.427964 132.319788 
L 147.93928 137.957992 
L 148.450597 129.021649 
L 148.961913 134.659854 
L 149.473229 125.723511 
L 150.495862 136.99992 
L 151.007178 128.063577 
L 152.541127 144.978191 
L 153.052443 136.041848 
L 153.563759 141.680053 
L 154.075076 132.74371 
L 154.586392 138.381914 
L 155.097708 129.445572 
L 155.609025 135.083776 
L 156.120341 126.147434 
L 156.631657 131.785638 
L 157.142973 122.849295 
L 157.65429 128.4875 
L 158.165606 119.551157 
L 158.676922 125.189362 
L 159.188239 116.253019 
L 159.699555 121.891223 
L 160.210871 112.954881 
L 161.233504 124.23129 
L 161.74482 115.294947 
L 162.767453 126.571356 
L 163.278769 117.635013 
L 164.301402 128.911422 
L 164.812718 119.97508 
L 165.324034 125.613284 
L 165.83535 116.676941 
L 166.857983 127.95335 
L 167.369299 119.017008 
L 168.903248 135.931621 
L 169.414564 126.995279 
L 169.925881 132.633483 
L 170.437197 123.69714 
L 170.948513 129.335345 
L 171.45983 120.399002 
L 171.971146 126.037207 
L 172.482462 117.100864 
L 172.993778 122.739068 
L 173.505095 113.802726 
L 174.016411 119.44093 
L 174.527727 110.504587 
L 175.55036 121.780996 
L 176.061676 112.844654 
L 176.572992 118.482858 
L 177.084309 109.546516 
L 177.595625 115.18472 
L 178.106941 106.248377 
L 178.618258 111.886582 
L 179.129574 102.950239 
L 179.64089 108.588444 
L 180.152206 99.652101 
L 180.663523 105.290305 
L 181.174839 96.353963 
L 181.686155 101.992167 
L 182.197472 93.055825 
L 184.754053 121.246847 
L 185.265369 112.310504 
L 185.776686 117.948709 
L 186.288002 109.012366 
L 186.799318 114.650571 
L 187.310634 105.714228 
L 187.821951 111.352432 
L 188.333267 102.41609 
L 190.378532 124.968908 
L 190.889848 116.032565 
L 191.401165 121.67077 
L 191.912481 112.734427 
L 193.957746 135.287245 
L 194.469062 126.350902 
L 195.491695 137.627311 
L 196.003011 128.690968 
L 197.025644 139.967377 
L 197.53696 131.031035 
L 198.048277 136.669239 
L 198.559593 127.732896 
L 200.093542 144.64751 
L 200.604858 135.711167 
L 202.650123 158.263985 
L 203.161439 149.327643 
L 204.184072 160.604052 
L 204.695388 151.667709 
L 205.718021 162.944118 
L 206.229337 154.007775 
L 206.740653 159.64598 
L 207.25197 150.709637 
L 208.274602 161.986046 
L 208.785919 153.049703 
L 209.297235 158.687907 
L 209.808551 149.751565 
L 210.319867 155.389769 
L 210.831184 146.453426 
L 211.3425 152.091631 
L 211.853816 143.155288 
L 212.365133 148.793493 
L 212.876449 139.85715 
L 213.387765 145.495354 
L 213.899081 136.559012 
L 215.43303 153.473625 
L 215.944347 144.537283 
L 216.455663 150.175487 
L 216.966979 141.239144 
L 217.478295 146.877349 
L 217.989612 137.941006 
L 218.500928 143.579211 
L 219.012244 134.642868 
L 219.523561 140.281072 
L 220.034877 131.34473 
L 220.546193 136.982934 
L 221.057509 128.046591 
L 221.568826 133.684796 
L 222.080142 124.748453 
L 222.591458 130.386658 
L 223.102775 121.450315 
L 223.614091 127.08852 
L 224.125407 118.152177 
L 225.14804 129.428586 
L 225.659356 120.492243 
L 227.704621 143.045061 
L 228.215937 134.108718 
L 230.772519 162.299741 
L 231.283835 153.363398 
L 232.817784 170.278012 
L 233.3291 161.341669 
L 233.840417 166.979873 
L 234.351733 158.04353 
L 234.863049 163.681735 
L 235.374366 154.745392 
L 235.885682 160.383597 
L 236.396998 151.447254 
L 236.908314 157.085458 
L 237.419631 148.149116 
L 237.930947 153.78732 
L 238.442263 144.850977 
L 239.464896 156.127386 
L 239.976212 147.191044 
L 240.487528 152.829248 
L 240.998845 143.892905 
L 241.510161 149.53111 
L 242.021477 140.594767 
L 242.532794 146.232972 
L 243.04411 137.296629 
L 243.555426 142.934833 
L 244.066742 133.998491 
L 244.578059 139.636695 
L 245.089375 130.700352 
L 246.623324 147.614966 
L 247.13464 138.678623 
L 248.157273 149.955032 
L 248.668589 141.01869 
L 249.179905 146.656894 
L 249.691222 137.720551 
L 250.202538 143.358756 
L 250.713854 134.422413 
L 252.759119 156.975231 
L 253.270436 148.038888 
L 254.804384 164.953502 
L 255.315701 156.017159 
L 256.338333 167.293568 
L 256.84965 158.357225 
L 257.872282 169.633634 
L 258.383598 160.697291 
L 258.894915 166.335496 
L 259.406231 157.399153 
L 260.428864 168.675562 
L 260.94018 159.739219 
L 261.962812 171.015628 
L 262.474129 162.079285 
L 263.496761 173.355694 
L 264.008078 164.419351 
L 264.519394 170.057556 
L 265.03071 161.121213 
L 265.542027 166.759417 
L 266.053343 157.823074 
L 266.564659 163.461279 
L 267.075975 154.524936 
L 268.609924 171.43955 
L 269.121241 162.503207 
L 269.632557 168.141411 
L 270.143873 159.205068 
L 271.166506 170.481477 
L 271.677822 161.545134 
L 272.700455 172.821543 
L 273.211771 163.8852 
L 273.723087 169.523405 
L 274.234403 160.587062 
L 275.257036 171.863471 
L 275.768352 162.927128 
L 277.302301 179.841741 
L 277.813617 170.905398 
L 278.83625 182.181807 
L 279.347566 173.245463 
L 279.858883 178.883668 
L 280.370199 169.947324 
L 282.415464 192.500142 
L 282.92678 183.563796 
L 283.438097 189.202001 
L 283.949413 180.265656 
L 284.460729 185.90386 
L 284.972045 176.967516 
L 285.994678 188.243925 
L 286.505994 179.30758 
L 288.039943 196.222194 
L 288.551259 187.285846 
L 289.573892 198.562255 
L 290.085208 189.625904 
L 291.107841 200.902314 
L 291.619157 191.965961 
L 292.130473 197.604166 
L 292.64179 188.667816 
L 293.664422 199.944225 
L 294.175739 191.007874 
L 294.687055 196.646078 
L 295.198371 187.70973 
L 295.709687 193.347935 
L 296.221004 184.411588 
L 296.73232 190.049792 
L 297.243636 181.113447 
L 297.754953 186.751652 
L 298.266269 177.815307 
L 298.777585 183.453512 
L 299.288902 174.517168 
L 299.800218 180.155372 
L 300.311534 171.219029 
L 300.82285 176.857233 
L 301.334167 167.92089 
L 302.356799 179.197299 
L 302.868116 170.260956 
L 303.379432 175.89916 
L 303.890748 166.962817 
L 305.424697 183.877431 
L 305.936013 174.941087 
L 306.44733 180.579291 
L 306.958646 171.642948 
L 307.981278 182.919357 
L 308.492595 173.983013 
L 310.026544 190.897627 
L 310.53786 181.961281 
L 311.049176 187.599485 
L 311.560492 178.663141 
L 312.071809 184.301345 
L 312.583125 175.365001 
L 313.094441 181.003206 
L 313.605758 172.066862 
L 317.184972 211.534294 
L 317.696288 202.597915 
L 318.207604 208.23612 
L 318.71892 199.299753 
L 319.230237 204.937957 
L 319.741553 196.001599 
L 320.252869 201.639803 
L 320.764186 192.70345 
L 321.786818 203.979859 
L 322.298134 195.043502 
L 323.320767 206.319911 
L 323.832083 197.383549 
L 324.3434 203.021754 
L 324.854716 194.085398 
L 325.366032 199.723603 
L 325.877348 190.787252 
L 326.388665 196.425456 
L 326.899981 187.489108 
L 327.411297 193.127312 
L 327.922614 184.190966 
L 328.43393 189.829171 
L 328.945246 180.892825 
L 329.456562 186.53103 
L 329.967879 177.594685 
L 330.990511 188.871094 
L 331.501828 179.93475 
L 332.013144 185.572954 
L 332.52446 176.63661 
L 333.035777 182.274814 
L 333.547093 173.338471 
L 334.058409 178.976675 
L 334.569725 170.040332 
L 335.081042 175.678536 
L 335.592358 166.742193 
L 336.103674 172.380398 
L 336.614991 163.444055 
L 338.148939 180.358668 
L 338.660256 171.422325 
L 339.682888 182.698734 
L 340.194205 173.76239 
L 341.216837 185.038799 
L 341.728153 176.102455 
L 342.23947 181.740659 
L 342.750786 172.804316 
L 343.262102 178.44252 
L 343.773419 169.506177 
L 344.284735 175.144381 
L 344.796051 166.208038 
L 345.307367 171.846243 
L 345.818684 162.9099 
L 346.841316 174.186309 
L 347.352633 165.249966 
L 347.863949 170.88817 
L 348.375265 161.951827 
L 348.886581 167.590032 
L 349.397898 158.653689 
L 351.954479 186.844711 
L 352.465795 177.908367 
L 353.488428 189.184776 
L 353.999744 180.248431 
L 355.022377 191.52484 
L 355.533693 182.588494 
L 356.556326 193.864903 
L 357.067642 184.928556 
L 358.601591 201.84317 
L 359.112907 192.906816 
L 360.646856 209.82143 
L 361.158172 200.885058 
L 361.669489 206.523262 
L 362.180805 197.5869 
L 364.737386 225.777923 
L 365.248703 216.841373 
L 366.271335 228.117782 
L 366.782652 219.181162 
L 368.3166 236.095776 
L 368.827917 227.158696 
L 370.361866 244.073309 
L 370.873182 235.135001 
L 371.384498 240.773205 
L 371.895814 231.835552 
L 374.963712 265.664779 
L 375.475028 256.700532 
L 376.497661 267.976941 
L 377.008977 259.00354 
L 378.03161 270.279949 
L 378.542926 261.294457 
L 379.054242 266.932661 
L 379.565559 257.963717 
L 380.076875 263.601921 
L 380.588191 254.643916 
L 382.12214 271.55853 
L 382.633456 262.564701 
L 383.144773 268.202906 
L 383.656089 259.228463 
L 384.167405 264.866668 
L 384.678722 255.905024 
L 385.190038 261.543229 
L 385.701354 252.590063 
L 386.723987 263.866472 
L 387.235303 254.907751 
L 388.257936 266.18416 
L 388.769252 257.218077 
L 389.280568 262.856281 
L 389.791884 253.900171 
L 390.814517 265.17658 
L 391.325833 256.213956 
L 391.83715 261.85216 
L 392.348466 252.898343 
L 392.859782 258.536548 
L 393.371098 249.588576 
L 394.393731 260.864985 
L 394.905047 251.913164 
L 395.416364 257.551368 
L 395.92768 248.604723 
L 396.438996 254.242927 
L 396.950312 245.299723 
L 397.461629 250.937927 
L 397.972945 241.997014 
L 398.995578 253.273423 
L 399.506894 244.330989 
L 401.040843 261.245603 
L 401.552159 252.29304 
L 402.063475 257.931245 
L 402.574792 248.984107 
L 403.086108 254.622311 
L 403.597424 245.67878 
L 404.620057 256.955189 
L 405.131373 248.009271 
L 405.642689 253.647475 
L 406.154006 244.704755 
L 407.176638 255.981164 
L 407.687955 247.036326 
L 408.199271 252.674531 
L 408.710587 243.732529 
L 409.221903 249.370734 
L 409.73322 240.430621 
L 410.244536 246.068826 
L 410.755852 237.12997 
L 411.267169 242.768175 
L 411.778485 233.830158 
L 412.289801 239.468362 
L 412.801117 230.530903 
L 414.335066 247.445517 
L 414.846383 238.506198 
L 415.357699 244.144403 
L 415.869015 235.206077 
L 416.380331 240.844281 
L 416.891648 231.906617 
L 417.402964 237.544821 
L 417.91428 228.607597 
L 419.959545 251.160415 
L 420.470862 242.219375 
L 421.493494 253.495784 
L 422.004811 244.553182 
L 423.027443 255.829591 
L 423.538759 246.884909 
L 425.584025 269.437728 
L 426.095341 260.457057 
L 427.62929 277.37167 
L 428.140606 268.318286 
L 428.651922 273.956491 
L 429.163239 264.943046 
L 429.674555 270.581251 
L 430.185871 261.59391 
L 432.742453 289.784932 
L 433.253769 280.323619 
L 435.299034 302.876437 
L 435.299034 302.876437 
" style="fill:none;stroke:#ff7f0e;stroke-linecap:square;stroke-width:0.666667;"/>
   </g>
   <g id="patch_3">
    <path d="M 35.85875 316.4425 
L 35.85875 17.989125 
" style="fill:none;stroke:#000000;stroke-linecap:square;stroke-linejoin:miter;stroke-width:0.8;"/>
   </g>
   <g id="patch_4">
    <path d="M 454.32 316.4425 
L 454.32 17.989125 
" style="fill:none;stroke:#000000;stroke-linecap:square;stroke-linejoin:miter;stroke-width:0.8;"/>
   </g>
   <g id="patch_5">
    <path d="M 35.85875 316.4425 
L 454.32 316.4425 
" style="fill:none;stroke:#000000;stroke-linecap:square;stroke-linejoin:miter;stroke-width:0.8;"/>
   </g>
   <g id="patch_6">
    <path d="M 35.85875 17.989125 
L 454.32 17.989125 
" style="fill:none;stroke:#000000;stroke-linecap:square;stroke-linejoin:miter;stroke-width:0.8;"/>
   </g>
   <g id="text_19">
    <!-- "3y+1" problem -->
    <g transform="translate(214.747 11.989125)scale(0.072 -0.072)">
     <defs>
      <path d="M 43.703125 72.90625 
L 43.703125 45.796875 
L 35.203125 45.796875 
L 35.203125 72.90625 
z
M 25 72.90625 
L 25 45.796875 
L 16.5 45.796875 
L 16.5 72.90625 
z
" id="DejaVuSansMono-34"/>
      <path d="M 34.1875 57.171875 
L 34.1875 35.5 
L 55.90625 35.5 
L 55.90625 27.203125 
L 34.1875 27.203125 
L 34.1875 5.515625 
L 25.984375 5.515625 
L 25.984375 27.203125 
L 4.296875 27.203125 
L 4.296875 35.5 
L 25.984375 35.5 
L 25.984375 57.171875 
z
" id="DejaVuSansMono-43"/>
      <path id="DejaVuSansMono-32"/>
      <path d="M 18.3125 6.890625 
L 18.3125 -20.796875 
L 9.28125 -20.796875 
L 9.28125 54.6875 
L 18.3125 54.6875 
L 18.3125 47.703125 
Q 20.5625 51.765625 24.296875 53.875 
Q 28.03125 56 32.90625 56 
Q 42.828125 56 48.46875 48.328125 
Q 54.109375 40.671875 54.109375 27.09375 
Q 54.109375 13.765625 48.4375 6.171875 
Q 42.78125 -1.421875 32.90625 -1.421875 
Q 27.9375 -1.421875 24.1875 0.703125 
Q 20.453125 2.828125 18.3125 6.890625 
z
M 44.671875 27.296875 
Q 44.671875 37.75 41.375 43.0625 
Q 38.09375 48.390625 31.59375 48.390625 
Q 25.046875 48.390625 21.671875 43.046875 
Q 18.3125 37.703125 18.3125 27.296875 
Q 18.3125 16.9375 21.671875 11.5625 
Q 25.046875 6.203125 31.59375 6.203125 
Q 38.09375 6.203125 41.375 11.515625 
Q 44.671875 16.84375 44.671875 27.296875 
z
" id="DejaVuSansMono-112"/>
      <path d="M 56.390625 43.40625 
Q 53.515625 45.65625 50.53125 46.671875 
Q 47.5625 47.703125 44 47.703125 
Q 35.59375 47.703125 31.140625 42.421875 
Q 26.703125 37.15625 26.703125 27.203125 
L 26.703125 0 
L 17.671875 0 
L 17.671875 54.6875 
L 26.703125 54.6875 
L 26.703125 44 
Q 28.953125 49.8125 33.609375 52.90625 
Q 38.28125 56 44.671875 56 
Q 48 56 50.875 55.171875 
Q 53.765625 54.34375 56.390625 52.59375 
z
" id="DejaVuSansMono-114"/>
      <path d="M 30.078125 48.390625 
Q 23.25 48.390625 19.734375 43.0625 
Q 16.21875 37.75 16.21875 27.296875 
Q 16.21875 16.890625 19.734375 11.546875 
Q 23.25 6.203125 30.078125 6.203125 
Q 36.96875 6.203125 40.484375 11.546875 
Q 44 16.890625 44 27.296875 
Q 44 37.75 40.484375 43.0625 
Q 36.96875 48.390625 30.078125 48.390625 
z
M 30.078125 56 
Q 41.453125 56 47.484375 48.625 
Q 53.515625 41.265625 53.515625 27.296875 
Q 53.515625 13.28125 47.5 5.921875 
Q 41.5 -1.421875 30.078125 -1.421875 
Q 18.703125 -1.421875 12.6875 5.921875 
Q 6.6875 13.28125 6.6875 27.296875 
Q 6.6875 41.265625 12.6875 48.625 
Q 18.703125 56 30.078125 56 
z
" id="DejaVuSansMono-111"/>
      <path d="M 44.828125 27.296875 
Q 44.828125 37.75 41.5 43.0625 
Q 38.1875 48.390625 31.6875 48.390625 
Q 25.140625 48.390625 21.765625 43.046875 
Q 18.40625 37.703125 18.40625 27.296875 
Q 18.40625 16.9375 21.765625 11.5625 
Q 25.140625 6.203125 31.6875 6.203125 
Q 38.1875 6.203125 41.5 11.515625 
Q 44.828125 16.84375 44.828125 27.296875 
z
M 18.40625 47.703125 
Q 20.5625 51.703125 24.34375 53.84375 
Q 28.125 56 33.109375 56 
Q 42.96875 56 48.625 48.40625 
Q 54.296875 40.828125 54.296875 27.484375 
Q 54.296875 13.96875 48.609375 6.265625 
Q 42.921875 -1.421875 33.015625 -1.421875 
Q 28.125 -1.421875 24.390625 0.703125 
Q 20.65625 2.828125 18.40625 6.890625 
L 18.40625 0 
L 9.421875 0 
L 9.421875 75.984375 
L 18.40625 75.984375 
z
" id="DejaVuSansMono-98"/>
      <path d="M 31.203125 19.828125 
Q 31.203125 13.765625 33.421875 10.6875 
Q 35.640625 7.625 39.984375 7.625 
L 50.484375 7.625 
L 50.484375 0 
L 39.109375 0 
Q 31.0625 0 26.640625 5.171875 
Q 22.21875 10.359375 22.21875 19.828125 
L 22.21875 69.484375 
L 7.8125 69.484375 
L 7.8125 76.515625 
L 31.203125 76.515625 
z
" id="DejaVuSansMono-108"/>
      <path d="M 54.296875 29.59375 
L 54.296875 25.203125 
L 15.375 25.203125 
L 15.375 24.90625 
Q 15.375 15.96875 20.03125 11.078125 
Q 24.703125 6.203125 33.203125 6.203125 
Q 37.5 6.203125 42.1875 7.5625 
Q 46.875 8.9375 52.203125 11.71875 
L 52.203125 2.78125 
Q 47.078125 0.6875 42.3125 -0.359375 
Q 37.546875 -1.421875 33.109375 -1.421875 
Q 20.359375 -1.421875 13.171875 6.21875 
Q 6 13.875 6 27.296875 
Q 6 40.375 13.03125 48.1875 
Q 20.0625 56 31.78125 56 
Q 42.234375 56 48.265625 48.921875 
Q 54.296875 41.84375 54.296875 29.59375 
z
M 45.3125 32.234375 
Q 45.125 40.140625 41.578125 44.265625 
Q 38.03125 48.390625 31.390625 48.390625 
Q 24.90625 48.390625 20.703125 44.09375 
Q 16.5 39.796875 15.71875 32.171875 
z
" id="DejaVuSansMono-101"/>
      <path d="M 33.015625 49.125 
Q 34.671875 52.640625 37.234375 54.3125 
Q 39.796875 56 43.40625 56 
Q 50 56 52.703125 50.890625 
Q 55.421875 45.796875 55.421875 31.6875 
L 55.421875 0 
L 47.21875 0 
L 47.21875 31.296875 
Q 47.21875 42.875 45.921875 45.671875 
Q 44.625 48.484375 41.21875 48.484375 
Q 37.3125 48.484375 35.859375 45.484375 
Q 34.421875 42.484375 34.421875 31.296875 
L 34.421875 0 
L 26.21875 0 
L 26.21875 31.296875 
Q 26.21875 43.015625 24.828125 45.75 
Q 23.4375 48.484375 19.828125 48.484375 
Q 16.265625 48.484375 14.875 45.484375 
Q 13.484375 42.484375 13.484375 31.296875 
L 13.484375 0 
L 5.328125 0 
L 5.328125 54.6875 
L 13.484375 54.6875 
L 13.484375 50 
Q 15.09375 52.9375 17.5 54.46875 
Q 19.921875 56 23 56 
Q 26.703125 56 29.171875 54.296875 
Q 31.640625 52.59375 33.015625 49.125 
z
" id="DejaVuSansMono-109"/>
     </defs>
     <use xlink:href="#DejaVuSansMono-34"/>
     <use x="60.205078" xlink:href="#DejaVuSansMono-51"/>
     <use x="120.410156" xlink:href="#DejaVuSansMono-121"/>
     <use x="180.615234" xlink:href="#DejaVuSansMono-43"/>
     <use x="240.820312" xlink:href="#DejaVuSansMono-49"/>
     <use x="301.025391" xlink:href="#DejaVuSansMono-34"/>
     <use x="361.230469" xlink:href="#DejaVuSansMono-32"/>
     <use x="421.435547" xlink:href="#DejaVuSansMono-112"/>
     <use x="481.640625" xlink:href="#DejaVuSansMono-114"/>
     <use x="541.845703" xlink:href="#DejaVuSansMono-111"/>
     <use x="602.050781" xlink:href="#DejaVuSansMono-98"/>
     <use x="662.255859" xlink:href="#DejaVuSansMono-108"/>
     <use x="722.460938" xlink:href="#DejaVuSansMono-101"/>
     <use x="782.666016" xlink:href="#DejaVuSansMono-109"/>
    </g>
   </g>
   <g id="legend_1">
    <g id="patch_7">
     <path d="M 344.2275 82.0095 
L 450.12 82.0095 
Q 451.32 82.0095 451.32 80.8095 
L 451.32 22.189125 
Q 451.32 20.989125 450.12 20.989125 
L 344.2275 20.989125 
Q 343.0275 20.989125 343.0275 22.189125 
L 343.0275 80.8095 
Q 343.0275 82.0095 344.2275 82.0095 
z
" style="fill:#ffffff;opacity:0.8;stroke:#cccccc;stroke-linejoin:miter;"/>
    </g>
    <g id="line2d_19">
     <path d="M 345.4275 36.889687 
L 357.4275 36.889687 
" style="fill:none;stroke:#1f77b4;stroke-linecap:square;stroke-width:0.666667;"/>
    </g>
    <g id="line2d_20"/>
    <g id="text_20">
     <!-- "Tallest": -->
     <g transform="translate(362.2275 27.980062)scale(0.06 -0.06)">
      <defs>
       <path d="M 2.296875 72.90625 
L 57.90625 72.90625 
L 57.90625 64.59375 
L 35.109375 64.59375 
L 35.109375 0 
L 25.203125 0 
L 25.203125 64.59375 
L 2.296875 64.59375 
z
" id="DejaVuSansMono-84"/>
       <path d="M 34.28125 27.484375 
L 31.296875 27.484375 
Q 23.4375 27.484375 19.453125 24.71875 
Q 15.484375 21.96875 15.484375 16.5 
Q 15.484375 11.578125 18.453125 8.84375 
Q 21.4375 6.109375 26.703125 6.109375 
Q 34.125 6.109375 38.375 11.25 
Q 42.625 16.40625 42.671875 25.484375 
L 42.671875 27.484375 
z
M 51.703125 31.203125 
L 51.703125 0 
L 42.671875 0 
L 42.671875 8.109375 
Q 39.796875 3.21875 35.421875 0.890625 
Q 31.0625 -1.421875 24.8125 -1.421875 
Q 16.453125 -1.421875 11.46875 3.296875 
Q 6.5 8.015625 6.5 15.921875 
Q 6.5 25.046875 12.625 29.78125 
Q 18.75 34.515625 30.609375 34.515625 
L 42.671875 34.515625 
L 42.671875 35.9375 
Q 42.625 42.484375 39.34375 45.4375 
Q 36.078125 48.390625 28.90625 48.390625 
Q 24.3125 48.390625 19.625 47.0625 
Q 14.9375 45.75 10.5 43.21875 
L 10.5 52.203125 
Q 15.484375 54.109375 20.046875 55.046875 
Q 24.609375 56 28.90625 56 
Q 35.6875 56 40.5 54 
Q 45.3125 52 48.296875 48 
Q 50.140625 45.5625 50.921875 41.96875 
Q 51.703125 38.375 51.703125 31.203125 
z
" id="DejaVuSansMono-97"/>
       <path d="M 47.515625 52.78125 
L 47.515625 44 
Q 43.65625 46.234375 39.75 47.359375 
Q 35.84375 48.484375 31.78125 48.484375 
Q 25.6875 48.484375 22.671875 46.5 
Q 19.671875 44.53125 19.671875 40.484375 
Q 19.671875 36.8125 21.921875 35 
Q 24.171875 33.203125 33.109375 31.5 
L 36.71875 30.8125 
Q 43.40625 29.546875 46.84375 25.734375 
Q 50.296875 21.921875 50.296875 15.828125 
Q 50.296875 7.71875 44.53125 3.140625 
Q 38.765625 -1.421875 28.515625 -1.421875 
Q 24.46875 -1.421875 20.015625 -0.5625 
Q 15.578125 0.296875 10.40625 2 
L 10.40625 11.28125 
Q 15.4375 8.6875 20.015625 7.390625 
Q 24.609375 6.109375 28.71875 6.109375 
Q 34.671875 6.109375 37.9375 8.515625 
Q 41.21875 10.9375 41.21875 15.28125 
Q 41.21875 21.53125 29.25 23.921875 
L 28.859375 24.03125 
L 25.484375 24.703125 
Q 17.71875 26.21875 14.15625 29.8125 
Q 10.59375 33.40625 10.59375 39.59375 
Q 10.59375 47.46875 15.90625 51.734375 
Q 21.234375 56 31.109375 56 
Q 35.5 56 39.546875 55.1875 
Q 43.609375 54.390625 47.515625 52.78125 
z
" id="DejaVuSansMono-115"/>
       <path d="M 29.984375 70.21875 
L 29.984375 54.6875 
L 50.390625 54.6875 
L 50.390625 47.703125 
L 29.984375 47.703125 
L 29.984375 18.015625 
Q 29.984375 11.96875 32.28125 9.5625 
Q 34.578125 7.171875 40.28125 7.171875 
L 50.390625 7.171875 
L 50.390625 0 
L 39.40625 0 
Q 29.296875 0 25.140625 4.046875 
Q 21 8.109375 21 18.015625 
L 21 47.703125 
L 6.390625 47.703125 
L 6.390625 54.6875 
L 21 54.6875 
L 21 70.21875 
z
" id="DejaVuSansMono-116"/>
       <path d="M 23.875 51.90625 
L 36.1875 51.90625 
L 36.1875 37.109375 
L 23.875 37.109375 
z
M 23.875 14.890625 
L 36.1875 14.890625 
L 36.1875 0 
L 23.875 0 
z
" id="DejaVuSansMono-58"/>
      </defs>
      <use xlink:href="#DejaVuSansMono-34"/>
      <use x="60.205078" xlink:href="#DejaVuSansMono-84"/>
      <use x="120.410156" xlink:href="#DejaVuSansMono-97"/>
      <use x="180.615234" xlink:href="#DejaVuSansMono-108"/>
      <use x="240.820312" xlink:href="#DejaVuSansMono-108"/>
      <use x="301.025391" xlink:href="#DejaVuSansMono-101"/>
      <use x="361.230469" xlink:href="#DejaVuSansMono-115"/>
      <use x="421.435547" xlink:href="#DejaVuSansMono-116"/>
      <use x="481.640625" xlink:href="#DejaVuSansMono-34"/>
      <use x="541.845703" xlink:href="#DejaVuSansMono-58"/>
     </g>
     <!-- y_0    = 19638399 -->
     <g transform="translate(362.2275 34.737)scale(0.06 -0.06)">
      <defs>
       <path d="M 4.296875 25.59375 
L 55.90625 25.59375 
L 55.90625 17.1875 
L 4.296875 17.1875 
z
M 4.296875 45.40625 
L 55.90625 45.40625 
L 55.90625 37.109375 
L 4.296875 37.109375 
z
" id="DejaVuSansMono-61"/>
       <path d="M 30.078125 34.625 
Q 23.484375 34.625 19.890625 30.9375 
Q 16.3125 27.25 16.3125 20.515625 
Q 16.3125 13.765625 19.9375 10.03125 
Q 23.578125 6.296875 30.078125 6.296875 
Q 36.71875 6.296875 40.296875 9.984375 
Q 43.890625 13.671875 43.890625 20.515625 
Q 43.890625 27.203125 40.25 30.90625 
Q 36.625 34.625 30.078125 34.625 
z
M 21.484375 38.71875 
Q 15.1875 40.328125 11.640625 44.71875 
Q 8.109375 49.125 8.109375 55.328125 
Q 8.109375 64.015625 14.015625 69.109375 
Q 19.921875 74.21875 30.078125 74.21875 
Q 40.28125 74.21875 46.1875 69.109375 
Q 52.09375 64.015625 52.09375 55.328125 
Q 52.09375 49.125 48.546875 44.71875 
Q 45.015625 40.328125 38.71875 38.71875 
Q 46.046875 37.109375 49.921875 32.21875 
Q 53.8125 27.34375 53.8125 19.578125 
Q 53.8125 9.71875 47.515625 4.140625 
Q 41.21875 -1.421875 30.078125 -1.421875 
Q 18.953125 -1.421875 12.671875 4.125 
Q 6.390625 9.671875 6.390625 19.484375 
Q 6.390625 27.296875 10.265625 32.203125 
Q 14.15625 37.109375 21.484375 38.71875 
z
M 17.921875 54.390625 
Q 17.921875 48.53125 21.046875 45.453125 
Q 24.171875 42.390625 30.078125 42.390625 
Q 36.03125 42.390625 39.15625 45.453125 
Q 42.28125 48.53125 42.28125 54.390625 
Q 42.28125 60.359375 39.171875 63.484375 
Q 36.078125 66.609375 30.078125 66.609375 
Q 24.171875 66.609375 21.046875 63.453125 
Q 17.921875 60.296875 17.921875 54.390625 
z
" id="DejaVuSansMono-56"/>
      </defs>
      <use xlink:href="#DejaVuSansMono-121"/>
      <use x="60.205078" xlink:href="#DejaVuSansMono-95"/>
      <use x="120.410156" xlink:href="#DejaVuSansMono-48"/>
      <use x="180.615234" xlink:href="#DejaVuSansMono-32"/>
      <use x="240.820312" xlink:href="#DejaVuSansMono-32"/>
      <use x="301.025391" xlink:href="#DejaVuSansMono-32"/>
      <use x="361.230469" xlink:href="#DejaVuSansMono-32"/>
      <use x="421.435547" xlink:href="#DejaVuSansMono-61"/>
      <use x="481.640625" xlink:href="#DejaVuSansMono-32"/>
      <use x="541.845703" xlink:href="#DejaVuSansMono-49"/>
      <use x="602.050781" xlink:href="#DejaVuSansMono-57"/>
      <use x="662.255859" xlink:href="#DejaVuSansMono-54"/>
      <use x="722.460938" xlink:href="#DejaVuSansMono-51"/>
      <use x="782.666016" xlink:href="#DejaVuSansMono-56"/>
      <use x="842.871094" xlink:href="#DejaVuSansMono-51"/>
      <use x="903.076172" xlink:href="#DejaVuSansMono-57"/>
      <use x="963.28125" xlink:href="#DejaVuSansMono-57"/>
     </g>
     <!-- y_max  = 306296925203752 -->
     <g transform="translate(362.2275 41.660812)scale(0.06 -0.06)">
      <defs>
       <path d="M 54.59375 54.6875 
L 35.015625 28.515625 
L 56.5 0 
L 46.09375 0 
L 30.078125 21.921875 
L 14.109375 0 
L 3.71875 0 
L 25.203125 28.515625 
L 5.609375 54.6875 
L 15.578125 54.6875 
L 30.078125 34.90625 
L 44.484375 54.6875 
z
" id="DejaVuSansMono-120"/>
      </defs>
      <use xlink:href="#DejaVuSansMono-121"/>
      <use x="60.205078" xlink:href="#DejaVuSansMono-95"/>
      <use x="120.410156" xlink:href="#DejaVuSansMono-109"/>
      <use x="180.615234" xlink:href="#DejaVuSansMono-97"/>
      <use x="240.820312" xlink:href="#DejaVuSansMono-120"/>
      <use x="301.025391" xlink:href="#DejaVuSansMono-32"/>
      <use x="361.230469" xlink:href="#DejaVuSansMono-32"/>
      <use x="421.435547" xlink:href="#DejaVuSansMono-61"/>
      <use x="481.640625" xlink:href="#DejaVuSansMono-32"/>
      <use x="541.845703" xlink:href="#DejaVuSansMono-51"/>
      <use x="602.050781" xlink:href="#DejaVuSansMono-48"/>
      <use x="662.255859" xlink:href="#DejaVuSansMono-54"/>
      <use x="722.460938" xlink:href="#DejaVuSansMono-50"/>
      <use x="782.666016" xlink:href="#DejaVuSansMono-57"/>
      <use x="842.871094" xlink:href="#DejaVuSansMono-54"/>
      <use x="903.076172" xlink:href="#DejaVuSansMono-57"/>
      <use x="963.28125" xlink:href="#DejaVuSansMono-50"/>
      <use x="1023.486328" xlink:href="#DejaVuSansMono-53"/>
      <use x="1083.691406" xlink:href="#DejaVuSansMono-50"/>
      <use x="1143.896484" xlink:href="#DejaVuSansMono-48"/>
      <use x="1204.101562" xlink:href="#DejaVuSansMono-51"/>
      <use x="1264.306641" xlink:href="#DejaVuSansMono-55"/>
      <use x="1324.511719" xlink:href="#DejaVuSansMono-53"/>
      <use x="1384.716797" xlink:href="#DejaVuSansMono-50"/>
     </g>
     <!-- x_max  = 607 -->
     <g transform="translate(362.2275 48.584625)scale(0.06 -0.06)">
      <use xlink:href="#DejaVuSansMono-120"/>
      <use x="60.205078" xlink:href="#DejaVuSansMono-95"/>
      <use x="120.410156" xlink:href="#DejaVuSansMono-109"/>
      <use x="180.615234" xlink:href="#DejaVuSansMono-97"/>
      <use x="240.820312" xlink:href="#DejaVuSansMono-120"/>
      <use x="301.025391" xlink:href="#DejaVuSansMono-32"/>
      <use x="361.230469" xlink:href="#DejaVuSansMono-32"/>
      <use x="421.435547" xlink:href="#DejaVuSansMono-61"/>
      <use x="481.640625" xlink:href="#DejaVuSansMono-32"/>
      <use x="541.845703" xlink:href="#DejaVuSansMono-54"/>
      <use x="602.050781" xlink:href="#DejaVuSansMono-48"/>
      <use x="662.255859" xlink:href="#DejaVuSansMono-55"/>
     </g>
    </g>
    <g id="line2d_21">
     <path d="M 345.4275 66.499875 
L 357.4275 66.499875 
" style="fill:none;stroke:#ff7f0e;stroke-linecap:square;stroke-width:0.666667;"/>
    </g>
    <g id="line2d_22"/>
    <g id="text_21">
     <!-- "Widest":  -->
     <g transform="translate(362.2275 57.59025)scale(0.06 -0.06)">
      <defs>
       <path d="M 0 72.90625 
L 9.625 72.90625 
L 16.609375 13.71875 
L 24.90625 52.875 
L 35.203125 52.875 
L 43.609375 13.625 
L 50.59375 72.90625 
L 60.203125 72.90625 
L 49.3125 0 
L 39.984375 0 
L 30.078125 43.3125 
L 20.21875 0 
L 10.890625 0 
z
" id="DejaVuSansMono-87"/>
       <path d="M 12.5 54.6875 
L 35.5 54.6875 
L 35.5 6.984375 
L 53.328125 6.984375 
L 53.328125 0 
L 8.6875 0 
L 8.6875 6.984375 
L 26.515625 6.984375 
L 26.515625 47.703125 
L 12.5 47.703125 
z
M 26.515625 75.984375 
L 35.5 75.984375 
L 35.5 64.59375 
L 26.515625 64.59375 
z
" id="DejaVuSansMono-105"/>
       <path d="M 41.890625 47.703125 
L 41.890625 75.984375 
L 50.875 75.984375 
L 50.875 0 
L 41.890625 0 
L 41.890625 6.890625 
Q 39.65625 2.828125 35.90625 0.703125 
Q 32.171875 -1.421875 27.296875 -1.421875 
Q 17.390625 -1.421875 11.6875 6.265625 
Q 6 13.96875 6 27.484375 
Q 6 40.828125 11.71875 48.40625 
Q 17.4375 56 27.296875 56 
Q 32.234375 56 35.984375 53.875 
Q 39.75 51.765625 41.890625 47.703125 
z
M 15.484375 27.296875 
Q 15.484375 16.84375 18.796875 11.515625 
Q 22.125 6.203125 28.609375 6.203125 
Q 35.109375 6.203125 38.5 11.5625 
Q 41.890625 16.9375 41.890625 27.296875 
Q 41.890625 37.703125 38.5 43.046875 
Q 35.109375 48.390625 28.609375 48.390625 
Q 22.125 48.390625 18.796875 43.0625 
Q 15.484375 37.75 15.484375 27.296875 
z
" id="DejaVuSansMono-100"/>
      </defs>
      <use xlink:href="#DejaVuSansMono-34"/>
      <use x="60.205078" xlink:href="#DejaVuSansMono-87"/>
      <use x="120.410156" xlink:href="#DejaVuSansMono-105"/>
      <use x="180.615234" xlink:href="#DejaVuSansMono-100"/>
      <use x="240.820312" xlink:href="#DejaVuSansMono-101"/>
      <use x="301.025391" xlink:href="#DejaVuSansMono-115"/>
      <use x="361.230469" xlink:href="#DejaVuSansMono-116"/>
      <use x="421.435547" xlink:href="#DejaVuSansMono-34"/>
      <use x="481.640625" xlink:href="#DejaVuSansMono-58"/>
      <use x="541.845703" xlink:href="#DejaVuSansMono-32"/>
     </g>
     <!-- y_0    = 36791535 -->
     <g transform="translate(362.2275 64.347187)scale(0.06 -0.06)">
      <use xlink:href="#DejaVuSansMono-121"/>
      <use x="60.205078" xlink:href="#DejaVuSansMono-95"/>
      <use x="120.410156" xlink:href="#DejaVuSansMono-48"/>
      <use x="180.615234" xlink:href="#DejaVuSansMono-32"/>
      <use x="240.820312" xlink:href="#DejaVuSansMono-32"/>
      <use x="301.025391" xlink:href="#DejaVuSansMono-32"/>
      <use x="361.230469" xlink:href="#DejaVuSansMono-32"/>
      <use x="421.435547" xlink:href="#DejaVuSansMono-61"/>
      <use x="481.640625" xlink:href="#DejaVuSansMono-32"/>
      <use x="541.845703" xlink:href="#DejaVuSansMono-51"/>
      <use x="602.050781" xlink:href="#DejaVuSansMono-54"/>
      <use x="662.255859" xlink:href="#DejaVuSansMono-55"/>
      <use x="722.460938" xlink:href="#DejaVuSansMono-57"/>
      <use x="782.666016" xlink:href="#DejaVuSansMono-49"/>
      <use x="842.871094" xlink:href="#DejaVuSansMono-53"/>
      <use x="903.076172" xlink:href="#DejaVuSansMono-51"/>
      <use x="963.28125" xlink:href="#DejaVuSansMono-53"/>
     </g>
     <!-- y_max  = 159424614880 -->
     <g transform="translate(362.2275 71.271)scale(0.06 -0.06)">
      <use xlink:href="#DejaVuSansMono-121"/>
      <use x="60.205078" xlink:href="#DejaVuSansMono-95"/>
      <use x="120.410156" xlink:href="#DejaVuSansMono-109"/>
      <use x="180.615234" xlink:href="#DejaVuSansMono-97"/>
      <use x="240.820312" xlink:href="#DejaVuSansMono-120"/>
      <use x="301.025391" xlink:href="#DejaVuSansMono-32"/>
      <use x="361.230469" xlink:href="#DejaVuSansMono-32"/>
      <use x="421.435547" xlink:href="#DejaVuSansMono-61"/>
      <use x="481.640625" xlink:href="#DejaVuSansMono-32"/>
      <use x="541.845703" xlink:href="#DejaVuSansMono-49"/>
      <use x="602.050781" xlink:href="#DejaVuSansMono-53"/>
      <use x="662.255859" xlink:href="#DejaVuSansMono-57"/>
      <use x="722.460938" xlink:href="#DejaVuSansMono-52"/>
      <use x="782.666016" xlink:href="#DejaVuSansMono-50"/>
      <use x="842.871094" xlink:href="#DejaVuSansMono-52"/>
      <use x="903.076172" xlink:href="#DejaVuSansMono-54"/>
      <use x="963.28125" xlink:href="#DejaVuSansMono-49"/>
      <use x="1023.486328" xlink:href="#DejaVuSansMono-52"/>
      <use x="1083.691406" xlink:href="#DejaVuSansMono-56"/>
      <use x="1143.896484" xlink:href="#DejaVuSansMono-56"/>
      <use x="1204.101562" xlink:href="#DejaVuSansMono-48"/>
     </g>
     <!-- x_max  = 745 -->
     <g transform="translate(362.2275 78.194812)scale(0.06 -0.06)">
      <use xlink:href="#DejaVuSansMono-120"/>
      <use x="60.205078" xlink:href="#DejaVuSansMono-95"/>
      <use x="120.410156" xlink:href="#DejaVuSansMono-109"/>
      <use x="180.615234" xlink:href="#DejaVuSansMono-97"/>
      <use x="240.820312" xlink:href="#DejaVuSansMono-120"/>
      <use x="301.025391" xlink:href="#DejaVuSansMono-32"/>
      <use x="361.230469" xlink:href="#DejaVuSansMono-32"/>
      <use x="421.435547" xlink:href="#DejaVuSansMono-61"/>
      <use x="481.640625" xlink:href="#DejaVuSansMono-32"/>
      <use x="541.845703" xlink:href="#DejaVuSansMono-55"/>
      <use x="602.050781" xlink:href="#DejaVuSansMono-52"/>
      <use x="662.255859" xlink:href="#DejaVuSansMono-53"/>
     </g>
    </g>
   </g>
  </g>
 </g>
 <defs>
  <clipPath id="pb6b04dc0a1">
   <rect height="298.453375" width="418.46125" x="35.85875" y="17.989125"/>
  </clipPath>
 </defs>
</svg>
