<?xml version="1.0" encoding="utf-8" standalone="no"?>
<!DOCTYPE svg PUBLIC "-//W3C//DTD SVG 1.1//EN"
  "http://www.w3.org/Graphics/SVG/1.1/DTD/svg11.dtd">
<!-- Created with matplotlib (https://matplotlib.org/) -->
<svg height="345.6pt" version="1.1" viewBox="0 0 460.8 345.6" width="460.8pt" xmlns="http://www.w3.org/2000/svg" xmlns:xlink="http://www.w3.org/1999/xlink">
 <metadata>
  <rdf:RDF xmlns:cc="http://creativecommons.org/ns#" xmlns:dc="http://purl.org/dc/elements/1.1/" xmlns:rdf="http://www.w3.org/1999/02/22-rdf-syntax-ns#">
   <cc:Work>
    <dc:type rdf:resource="http://purl.org/dc/dcmitype/StillImage"/>
    <dc:date>2022-03-17T09:21:10.259909</dc:date>
    <dc:format>image/svg+xml</dc:format>
    <dc:creator>
     <cc:Agent>
      <dc:title>Matplotlib v3.3.2, https://matplotlib.org/</dc:title>
     </cc:Agent>
    </dc:creator>
   </cc:Work>
  </rdf:RDF>
 </metadata>
 <defs>
  <style type="text/css">*{stroke-linecap:butt;stroke-linejoin:round;}</style>
 </defs>
 <g id="figure_1">
  <g id="patch_1">
   <path d="M 0 345.6 
L 460.8 345.6 
L 460.8 0 
L 0 0 
z
" style="fill:#ffffff;"/>
  </g>
  <g id="axes_1">
   <g id="patch_2">
    <path d="M 35.85875 316.4425 
L 447.317058 316.4425 
L 447.317058 17.989125 
L 35.85875 17.989125 
z
" style="fill:#ffffff;"/>
   </g>
   <g id="matplotlib.axis_1">
    <g id="xtick_1">
     <g id="line2d_1">
      <defs>
       <path d="M 0 0 
L 0 3.5 
" id="m79a23789d9" style="stroke:#000000;stroke-width:0.8;"/>
      </defs>
      <g>
       <use style="stroke:#000000;stroke-width:0.8;" x="54.5614" xlink:href="#m79a23789d9" y="316.4425"/>
      </g>
     </g>
     <g id="text_1">
      <!-- 0 -->
      <g transform="translate(52.755307 328.033437)scale(0.06 -0.06)">
       <defs>
        <path d="M 23.578125 36.625 
Q 23.578125 39.3125 25.453125 41.265625 
Q 27.34375 43.21875 29.984375 43.21875 
Q 32.71875 43.21875 34.671875 41.265625 
Q 36.625 39.3125 36.625 36.625 
Q 36.625 33.890625 34.6875 31.984375 
Q 32.765625 30.078125 29.984375 30.078125 
Q 27.25 30.078125 25.40625 31.9375 
Q 23.578125 33.796875 23.578125 36.625 
z
M 30.078125 66.40625 
Q 23.1875 66.40625 19.796875 58.984375 
Q 16.40625 51.5625 16.40625 36.375 
Q 16.40625 21.234375 19.796875 13.8125 
Q 23.1875 6.390625 30.078125 6.390625 
Q 37.015625 6.390625 40.40625 13.8125 
Q 43.796875 21.234375 43.796875 36.375 
Q 43.796875 51.5625 40.40625 58.984375 
Q 37.015625 66.40625 30.078125 66.40625 
z
M 30.078125 74.21875 
Q 41.75 74.21875 47.734375 64.640625 
Q 53.71875 55.078125 53.71875 36.375 
Q 53.71875 17.71875 47.734375 8.140625 
Q 41.75 -1.421875 30.078125 -1.421875 
Q 18.40625 -1.421875 12.453125 8.140625 
Q 6.5 17.71875 6.5 36.375 
Q 6.5 55.078125 12.453125 64.640625 
Q 18.40625 74.21875 30.078125 74.21875 
z
" id="DejaVuSansMono-48"/>
       </defs>
       <use xlink:href="#DejaVuSansMono-48"/>
      </g>
     </g>
    </g>
    <g id="xtick_2">
     <g id="line2d_2">
      <g>
       <use style="stroke:#000000;stroke-width:0.8;" x="133.061507" xlink:href="#m79a23789d9" y="316.4425"/>
      </g>
     </g>
     <g id="text_2">
      <!-- 200 -->
      <g transform="translate(127.643226 328.033437)scale(0.06 -0.06)">
       <defs>
        <path d="M 18.21875 8.296875 
L 51.703125 8.296875 
L 51.703125 0 
L 7.421875 0 
L 7.421875 8.296875 
Q 16.546875 17.921875 23.375 25.296875 
Q 30.21875 32.671875 32.8125 35.6875 
Q 37.703125 41.65625 39.40625 45.34375 
Q 41.109375 49.03125 41.109375 52.875 
Q 41.109375 58.984375 37.515625 62.453125 
Q 33.9375 65.921875 27.6875 65.921875 
Q 23.25 65.921875 18.359375 64.3125 
Q 13.484375 62.703125 8.015625 59.421875 
L 8.015625 69.390625 
Q 13.03125 71.78125 17.890625 73 
Q 22.75 74.21875 27.484375 74.21875 
Q 38.1875 74.21875 44.703125 68.53125 
Q 51.21875 62.84375 51.21875 53.609375 
Q 51.21875 48.921875 49.046875 44.234375 
Q 46.875 39.546875 42 33.890625 
Q 39.265625 30.71875 34.0625 25.09375 
Q 28.859375 19.484375 18.21875 8.296875 
z
" id="DejaVuSansMono-50"/>
       </defs>
       <use xlink:href="#DejaVuSansMono-50"/>
       <use x="60.205078" xlink:href="#DejaVuSansMono-48"/>
       <use x="120.410156" xlink:href="#DejaVuSansMono-48"/>
      </g>
     </g>
    </g>
    <g id="xtick_3">
     <g id="line2d_3">
      <g>
       <use style="stroke:#000000;stroke-width:0.8;" x="211.561613" xlink:href="#m79a23789d9" y="316.4425"/>
      </g>
     </g>
     <g id="text_3">
      <!-- 400 -->
      <g transform="translate(206.143332 328.033437)scale(0.06 -0.06)">
       <defs>
        <path d="M 35.890625 63.921875 
L 12.890625 25.390625 
L 35.890625 25.390625 
z
M 34.28125 72.90625 
L 45.703125 72.90625 
L 45.703125 25.390625 
L 55.421875 25.390625 
L 55.421875 17.390625 
L 45.703125 17.390625 
L 45.703125 0 
L 35.890625 0 
L 35.890625 17.390625 
L 4.984375 17.390625 
L 4.984375 26.703125 
z
" id="DejaVuSansMono-52"/>
       </defs>
       <use xlink:href="#DejaVuSansMono-52"/>
       <use x="60.205078" xlink:href="#DejaVuSansMono-48"/>
       <use x="120.410156" xlink:href="#DejaVuSansMono-48"/>
      </g>
     </g>
    </g>
    <g id="xtick_4">
     <g id="line2d_4">
      <g>
       <use style="stroke:#000000;stroke-width:0.8;" x="290.06172" xlink:href="#m79a23789d9" y="316.4425"/>
      </g>
     </g>
     <g id="text_4">
      <!-- 600 -->
      <g transform="translate(284.643438 328.033437)scale(0.06 -0.06)">
       <defs>
        <path d="M 48.390625 71.296875 
L 48.390625 62.203125 
Q 45.3125 64.015625 41.84375 64.96875 
Q 38.375 65.921875 34.625 65.921875 
Q 25.25 65.921875 20.40625 58.859375 
Q 15.578125 51.8125 15.578125 38.09375 
Q 17.921875 42.96875 22.0625 45.578125 
Q 26.21875 48.1875 31.59375 48.1875 
Q 42.140625 48.1875 47.921875 41.71875 
Q 53.71875 35.25 53.71875 23.390625 
Q 53.71875 11.578125 47.75 5.078125 
Q 41.796875 -1.421875 31 -1.421875 
Q 18.3125 -1.421875 12.40625 7.6875 
Q 6.5 16.796875 6.5 36.375 
Q 6.5 54.828125 13.59375 64.515625 
Q 20.703125 74.21875 34.1875 74.21875 
Q 37.796875 74.21875 41.40625 73.453125 
Q 45.015625 72.703125 48.390625 71.296875 
z
M 30.8125 40.484375 
Q 24.515625 40.484375 20.890625 35.9375 
Q 17.28125 31.390625 17.28125 23.390625 
Q 17.28125 15.375 20.890625 10.828125 
Q 24.515625 6.296875 30.8125 6.296875 
Q 37.359375 6.296875 40.671875 10.609375 
Q 44 14.9375 44 23.390625 
Q 44 31.890625 40.671875 36.1875 
Q 37.359375 40.484375 30.8125 40.484375 
z
" id="DejaVuSansMono-54"/>
       </defs>
       <use xlink:href="#DejaVuSansMono-54"/>
       <use x="60.205078" xlink:href="#DejaVuSansMono-48"/>
       <use x="120.410156" xlink:href="#DejaVuSansMono-48"/>
      </g>
     </g>
    </g>
    <g id="xtick_5">
     <g id="line2d_5">
      <g>
       <use style="stroke:#000000;stroke-width:0.8;" x="368.561826" xlink:href="#m79a23789d9" y="316.4425"/>
      </g>
     </g>
     <g id="text_5">
      <!-- 800 -->
      <g transform="translate(363.143545 328.033437)scale(0.06 -0.06)">
       <defs>
        <path d="M 30.078125 34.625 
Q 23.484375 34.625 19.890625 30.9375 
Q 16.3125 27.25 16.3125 20.515625 
Q 16.3125 13.765625 19.9375 10.03125 
Q 23.578125 6.296875 30.078125 6.296875 
Q 36.71875 6.296875 40.296875 9.984375 
Q 43.890625 13.671875 43.890625 20.515625 
Q 43.890625 27.203125 40.25 30.90625 
Q 36.625 34.625 30.078125 34.625 
z
M 21.484375 38.71875 
Q 15.1875 40.328125 11.640625 44.71875 
Q 8.109375 49.125 8.109375 55.328125 
Q 8.109375 64.015625 14.015625 69.109375 
Q 19.921875 74.21875 30.078125 74.21875 
Q 40.28125 74.21875 46.1875 69.109375 
Q 52.09375 64.015625 52.09375 55.328125 
Q 52.09375 49.125 48.546875 44.71875 
Q 45.015625 40.328125 38.71875 38.71875 
Q 46.046875 37.109375 49.921875 32.21875 
Q 53.8125 27.34375 53.8125 19.578125 
Q 53.8125 9.71875 47.515625 4.140625 
Q 41.21875 -1.421875 30.078125 -1.421875 
Q 18.953125 -1.421875 12.671875 4.125 
Q 6.390625 9.671875 6.390625 19.484375 
Q 6.390625 27.296875 10.265625 32.203125 
Q 14.15625 37.109375 21.484375 38.71875 
z
M 17.921875 54.390625 
Q 17.921875 48.53125 21.046875 45.453125 
Q 24.171875 42.390625 30.078125 42.390625 
Q 36.03125 42.390625 39.15625 45.453125 
Q 42.28125 48.53125 42.28125 54.390625 
Q 42.28125 60.359375 39.171875 63.484375 
Q 36.078125 66.609375 30.078125 66.609375 
Q 24.171875 66.609375 21.046875 63.453125 
Q 17.921875 60.296875 17.921875 54.390625 
z
" id="DejaVuSansMono-56"/>
       </defs>
       <use xlink:href="#DejaVuSansMono-56"/>
       <use x="60.205078" xlink:href="#DejaVuSansMono-48"/>
       <use x="120.410156" xlink:href="#DejaVuSansMono-48"/>
      </g>
     </g>
    </g>
    <g id="xtick_6">
     <g id="line2d_6">
      <g>
       <use style="stroke:#000000;stroke-width:0.8;" x="447.061932" xlink:href="#m79a23789d9" y="316.4425"/>
      </g>
     </g>
     <g id="text_6">
      <!-- 1000 -->
      <g transform="translate(439.837557 328.033437)scale(0.06 -0.06)">
       <defs>
        <path d="M 13.1875 8.296875 
L 28.515625 8.296875 
L 28.515625 64.015625 
L 12.015625 60.296875 
L 12.015625 69.28125 
L 28.421875 72.90625 
L 38.28125 72.90625 
L 38.28125 8.296875 
L 53.421875 8.296875 
L 53.421875 0 
L 13.1875 0 
z
" id="DejaVuSansMono-49"/>
       </defs>
       <use xlink:href="#DejaVuSansMono-49"/>
       <use x="60.205078" xlink:href="#DejaVuSansMono-48"/>
       <use x="120.410156" xlink:href="#DejaVuSansMono-48"/>
       <use x="180.615234" xlink:href="#DejaVuSansMono-48"/>
      </g>
     </g>
    </g>
    <g id="text_7">
     <!-- n -->
     <g transform="translate(239.78181 337.872187)scale(0.06 -0.06)">
      <defs>
       <path d="M 51.3125 33.890625 
L 51.3125 0 
L 42.28125 0 
L 42.28125 33.890625 
Q 42.28125 41.265625 39.6875 44.71875 
Q 37.109375 48.1875 31.59375 48.1875 
Q 25.296875 48.1875 21.890625 43.71875 
Q 18.5 39.265625 18.5 30.90625 
L 18.5 0 
L 9.515625 0 
L 9.515625 54.6875 
L 18.5 54.6875 
L 18.5 46.484375 
Q 20.90625 51.171875 25 53.578125 
Q 29.109375 56 34.71875 56 
Q 43.0625 56 47.1875 50.5 
Q 51.3125 45.015625 51.3125 33.890625 
z
" id="DejaVuSansMono-110"/>
      </defs>
      <use xlink:href="#DejaVuSansMono-110"/>
     </g>
    </g>
   </g>
   <g id="matplotlib.axis_2">
    <g id="ytick_1">
     <g id="line2d_7">
      <defs>
       <path d="M 0 0 
L -3.5 0 
" id="m71857644af" style="stroke:#000000;stroke-width:0.8;"/>
      </defs>
      <g>
       <use style="stroke:#000000;stroke-width:0.8;" x="35.85875" xlink:href="#m71857644af" y="285.389436"/>
      </g>
     </g>
     <g id="text_8">
      <!-- $\mathdefault{10^{1}}$ -->
      <g transform="translate(18.83875 287.684905)scale(0.06 -0.06)">
       <use transform="translate(0 0.684375)" xlink:href="#DejaVuSansMono-49"/>
       <use transform="translate(60.205078 0.684375)" xlink:href="#DejaVuSansMono-48"/>
       <use transform="translate(121.367188 38.965625)scale(0.7)" xlink:href="#DejaVuSansMono-49"/>
      </g>
     </g>
    </g>
    <g id="ytick_2">
     <g id="line2d_8">
      <g>
       <use style="stroke:#000000;stroke-width:0.8;" x="35.85875" xlink:href="#m71857644af" y="250.415433"/>
      </g>
     </g>
     <g id="text_9">
      <!-- $\mathdefault{10^{3}}$ -->
      <g transform="translate(18.83875 252.710902)scale(0.06 -0.06)">
       <defs>
        <path d="M 37.890625 39.015625 
Q 45.0625 37.109375 48.875 32.25 
Q 52.6875 27.390625 52.6875 20.125 
Q 52.6875 10.0625 45.921875 4.3125 
Q 39.15625 -1.421875 27.203125 -1.421875 
Q 22.171875 -1.421875 16.9375 -0.484375 
Q 11.71875 0.4375 6.6875 2.203125 
L 6.6875 12.015625 
Q 11.671875 9.421875 16.5 8.15625 
Q 21.34375 6.890625 26.125 6.890625 
Q 34.234375 6.890625 38.578125 10.546875 
Q 42.921875 14.203125 42.921875 21.09375 
Q 42.921875 27.4375 38.578125 31.171875 
Q 34.234375 34.90625 26.8125 34.90625 
L 19.28125 34.90625 
L 19.28125 43.015625 
L 26.8125 43.015625 
Q 33.59375 43.015625 37.40625 45.984375 
Q 41.21875 48.96875 41.21875 54.296875 
Q 41.21875 59.90625 37.671875 62.90625 
Q 34.125 65.921875 27.59375 65.921875 
Q 23.25 65.921875 18.609375 64.9375 
Q 13.96875 63.96875 8.890625 62.015625 
L 8.890625 71.09375 
Q 14.796875 72.65625 19.40625 73.4375 
Q 24.03125 74.21875 27.59375 74.21875 
Q 38.234375 74.21875 44.609375 68.875 
Q 50.984375 63.53125 50.984375 54.6875 
Q 50.984375 48.6875 47.625 44.671875 
Q 44.28125 40.671875 37.890625 39.015625 
z
" id="DejaVuSansMono-51"/>
       </defs>
       <use transform="translate(0 0.765625)" xlink:href="#DejaVuSansMono-49"/>
       <use transform="translate(60.205078 0.765625)" xlink:href="#DejaVuSansMono-48"/>
       <use transform="translate(121.367188 39.046875)scale(0.7)" xlink:href="#DejaVuSansMono-51"/>
      </g>
     </g>
    </g>
    <g id="ytick_3">
     <g id="line2d_9">
      <g>
       <use style="stroke:#000000;stroke-width:0.8;" x="35.85875" xlink:href="#m71857644af" y="215.44143"/>
      </g>
     </g>
     <g id="text_10">
      <!-- $\mathdefault{10^{5}}$ -->
      <g transform="translate(18.83875 217.736898)scale(0.06 -0.06)">
       <defs>
        <path d="M 10.109375 72.90625 
L 47.015625 72.90625 
L 47.015625 64.59375 
L 19.09375 64.59375 
L 19.09375 46.6875 
Q 21.1875 47.46875 23.3125 47.828125 
Q 25.4375 48.1875 27.59375 48.1875 
Q 38.921875 48.1875 45.5625 41.5 
Q 52.203125 34.8125 52.203125 23.390625 
Q 52.203125 11.859375 45.234375 5.21875 
Q 38.28125 -1.421875 26.21875 -1.421875 
Q 20.40625 -1.421875 15.59375 -0.640625 
Q 10.796875 0.140625 6.984375 1.703125 
L 6.984375 11.71875 
Q 11.46875 9.28125 16.015625 8.078125 
Q 20.5625 6.890625 25.296875 6.890625 
Q 33.453125 6.890625 37.859375 11.1875 
Q 42.28125 15.484375 42.28125 23.390625 
Q 42.28125 31.203125 37.71875 35.546875 
Q 33.15625 39.890625 25 39.890625 
Q 21.046875 39.890625 17.28125 38.984375 
Q 13.53125 38.09375 10.109375 36.28125 
z
" id="DejaVuSansMono-53"/>
       </defs>
       <use transform="translate(0 0.684375)" xlink:href="#DejaVuSansMono-49"/>
       <use transform="translate(60.205078 0.684375)" xlink:href="#DejaVuSansMono-48"/>
       <use transform="translate(121.367188 38.965625)scale(0.7)" xlink:href="#DejaVuSansMono-53"/>
      </g>
     </g>
    </g>
    <g id="ytick_4">
     <g id="line2d_10">
      <g>
       <use style="stroke:#000000;stroke-width:0.8;" x="35.85875" xlink:href="#m71857644af" y="180.467427"/>
      </g>
     </g>
     <g id="text_11">
      <!-- $\mathdefault{10^{7}}$ -->
      <g transform="translate(18.83875 182.762895)scale(0.06 -0.06)">
       <defs>
        <path d="M 6.78125 72.90625 
L 52.6875 72.90625 
L 52.6875 68.703125 
L 26.609375 0 
L 16.3125 0 
L 41.703125 64.59375 
L 6.78125 64.59375 
z
" id="DejaVuSansMono-55"/>
       </defs>
       <use transform="translate(0 0.684375)" xlink:href="#DejaVuSansMono-49"/>
       <use transform="translate(60.205078 0.684375)" xlink:href="#DejaVuSansMono-48"/>
       <use transform="translate(121.367188 38.965625)scale(0.7)" xlink:href="#DejaVuSansMono-55"/>
      </g>
     </g>
    </g>
    <g id="ytick_5">
     <g id="line2d_11">
      <g>
       <use style="stroke:#000000;stroke-width:0.8;" x="35.85875" xlink:href="#m71857644af" y="145.493423"/>
      </g>
     </g>
     <g id="text_12">
      <!-- $\mathdefault{10^{9}}$ -->
      <g transform="translate(18.83875 147.788892)scale(0.06 -0.06)">
       <defs>
        <path d="M 29.109375 32.328125 
Q 35.40625 32.328125 38.984375 36.859375 
Q 42.578125 41.40625 42.578125 49.421875 
Q 42.578125 57.421875 38.984375 61.953125 
Q 35.40625 66.5 29.109375 66.5 
Q 22.5625 66.5 19.234375 62.171875 
Q 15.921875 57.859375 15.921875 49.421875 
Q 15.921875 40.921875 19.21875 36.625 
Q 22.515625 32.328125 29.109375 32.328125 
z
M 11.53125 1.515625 
L 11.53125 10.59375 
Q 14.59375 8.796875 18.0625 7.84375 
Q 21.53125 6.890625 25.296875 6.890625 
Q 34.671875 6.890625 39.46875 13.9375 
Q 44.28125 21 44.28125 34.71875 
Q 42 29.828125 37.84375 27.21875 
Q 33.6875 24.609375 28.328125 24.609375 
Q 17.78125 24.609375 11.984375 31.09375 
Q 6.203125 37.59375 6.203125 49.515625 
Q 6.203125 61.28125 12.125 67.75 
Q 18.0625 74.21875 28.90625 74.21875 
Q 41.609375 74.21875 47.515625 65.078125 
Q 53.421875 55.953125 53.421875 36.375 
Q 53.421875 17.96875 46.3125 8.265625 
Q 39.203125 -1.421875 25.6875 -1.421875 
Q 22.125 -1.421875 18.5 -0.65625 
Q 14.890625 0.09375 11.53125 1.515625 
z
" id="DejaVuSansMono-57"/>
       </defs>
       <use transform="translate(0 0.765625)" xlink:href="#DejaVuSansMono-49"/>
       <use transform="translate(60.205078 0.765625)" xlink:href="#DejaVuSansMono-48"/>
       <use transform="translate(121.367188 39.046875)scale(0.7)" xlink:href="#DejaVuSansMono-57"/>
      </g>
     </g>
    </g>
    <g id="ytick_6">
     <g id="line2d_12">
      <g>
       <use style="stroke:#000000;stroke-width:0.8;" x="35.85875" xlink:href="#m71857644af" y="110.51942"/>
      </g>
     </g>
     <g id="text_13">
      <!-- $\mathdefault{10^{11}}$ -->
      <g transform="translate(16.31875 112.814889)scale(0.06 -0.06)">
       <use transform="translate(0 0.684375)" xlink:href="#DejaVuSansMono-49"/>
       <use transform="translate(60.205078 0.684375)" xlink:href="#DejaVuSansMono-48"/>
       <use transform="translate(121.367188 38.965625)scale(0.7)" xlink:href="#DejaVuSansMono-49"/>
       <use transform="translate(163.510742 38.965625)scale(0.7)" xlink:href="#DejaVuSansMono-49"/>
      </g>
     </g>
    </g>
    <g id="ytick_7">
     <g id="line2d_13">
      <g>
       <use style="stroke:#000000;stroke-width:0.8;" x="35.85875" xlink:href="#m71857644af" y="75.545417"/>
      </g>
     </g>
     <g id="text_14">
      <!-- $\mathdefault{10^{13}}$ -->
      <g transform="translate(16.31875 77.840886)scale(0.06 -0.06)">
       <use transform="translate(0 0.765625)" xlink:href="#DejaVuSansMono-49"/>
       <use transform="translate(60.205078 0.765625)" xlink:href="#DejaVuSansMono-48"/>
       <use transform="translate(121.367188 39.046875)scale(0.7)" xlink:href="#DejaVuSansMono-49"/>
       <use transform="translate(163.510742 39.046875)scale(0.7)" xlink:href="#DejaVuSansMono-51"/>
      </g>
     </g>
    </g>
    <g id="ytick_8">
     <g id="line2d_14">
      <g>
       <use style="stroke:#000000;stroke-width:0.8;" x="35.85875" xlink:href="#m71857644af" y="40.571414"/>
      </g>
     </g>
     <g id="text_15">
      <!-- $\mathdefault{10^{15}}$ -->
      <g transform="translate(16.31875 42.866883)scale(0.06 -0.06)">
       <use transform="translate(0 0.684375)" xlink:href="#DejaVuSansMono-49"/>
       <use transform="translate(60.205078 0.684375)" xlink:href="#DejaVuSansMono-48"/>
       <use transform="translate(121.367188 38.965625)scale(0.7)" xlink:href="#DejaVuSansMono-49"/>
       <use transform="translate(163.510742 38.965625)scale(0.7)" xlink:href="#DejaVuSansMono-53"/>
      </g>
     </g>
    </g>
    <g id="text_16">
     <!-- y_n -->
     <g transform="translate(10.904063 172.634094)rotate(-90)scale(0.06 -0.06)">
      <defs>
       <path d="M 41.890625 17.578125 
Q 39.65625 11.859375 36.1875 2.546875 
Q 31.34375 -10.359375 29.6875 -13.1875 
Q 27.4375 -17 24.0625 -18.890625 
Q 20.703125 -20.796875 16.21875 -20.796875 
L 8.984375 -20.796875 
L 8.984375 -13.28125 
L 14.3125 -13.28125 
Q 18.265625 -13.28125 20.5 -10.984375 
Q 22.75 -8.6875 26.21875 0.875 
L 5.078125 54.6875 
L 14.59375 54.6875 
L 30.8125 11.921875 
L 46.78125 54.6875 
L 56.296875 54.6875 
z
" id="DejaVuSansMono-121"/>
       <path d="M 60.203125 -19.671875 
L 60.203125 -23.578125 
L 0 -23.578125 
L 0 -19.671875 
z
" id="DejaVuSansMono-95"/>
      </defs>
      <use xlink:href="#DejaVuSansMono-121"/>
      <use x="60.205078" xlink:href="#DejaVuSansMono-95"/>
      <use x="120.410156" xlink:href="#DejaVuSansMono-110"/>
     </g>
    </g>
   </g>
   <g id="line2d_15">
    <path clip-path="url(#p2aa5d371cf)" d="M 54.5614 161.590664 
L 54.953901 153.247244 
L 55.346401 158.511356 
L 55.738902 150.167936 
L 56.131402 155.432048 
L 56.523903 147.088628 
L 56.916404 152.35274 
L 57.308904 144.00932 
L 57.701405 149.273432 
L 58.093905 140.930012 
L 58.486406 146.194124 
L 58.878906 137.850704 
L 59.271407 143.114816 
L 59.663907 134.771396 
L 60.056408 140.035508 
L 60.448908 131.692087 
L 60.841409 136.956199 
L 61.233909 128.612779 
L 62.01891 139.141003 
L 62.411411 130.797583 
L 62.803912 136.061695 
L 63.196412 127.718275 
L 63.588913 132.982387 
L 63.981413 124.638967 
L 64.766414 135.167191 
L 65.158915 126.823771 
L 65.551415 132.087883 
L 65.943916 123.744463 
L 66.336416 129.008575 
L 66.728917 120.665155 
L 67.121417 125.929267 
L 67.513918 117.585846 
L 68.298919 128.11407 
L 68.69142 119.77065 
L 69.08392 125.034762 
L 69.476421 116.691342 
L 69.868921 121.955454 
L 70.261422 113.612034 
L 70.653922 118.876146 
L 71.046423 110.532726 
L 71.831424 121.06095 
L 72.223924 112.71753 
L 72.616425 117.981642 
L 73.008925 109.638222 
L 73.401426 114.902334 
L 73.793926 106.558914 
L 74.186427 111.823026 
L 74.578927 103.479605 
L 74.971428 108.743717 
L 75.363929 100.400297 
L 76.14893 110.928521 
L 76.54143 102.585101 
L 76.933931 107.849213 
L 77.326431 99.505793 
L 77.718932 104.769905 
L 78.111432 96.426485 
L 78.503933 101.690597 
L 78.896433 93.347177 
L 79.288934 98.611289 
L 79.681434 90.267869 
L 80.073935 95.531981 
L 80.466435 87.188561 
L 80.858936 92.452673 
L 81.251437 84.109252 
L 81.643937 89.373364 
L 82.036438 81.029944 
L 82.428938 86.294056 
L 82.821439 77.950636 
L 83.213939 83.214748 
L 83.60644 74.871328 
L 84.391441 85.399552 
L 84.783941 77.056132 
L 85.176442 82.320244 
L 85.568942 73.976824 
L 86.353943 84.505048 
L 86.746444 76.161628 
L 87.138945 81.42574 
L 87.531445 73.08232 
L 87.923946 78.346432 
L 88.316446 70.003011 
L 89.101447 80.531236 
L 89.493948 72.187815 
L 89.886448 77.451927 
L 90.278949 69.108507 
L 90.671449 74.372619 
L 91.06395 66.029199 
L 91.45645 71.293311 
L 91.848951 62.949891 
L 92.241451 68.214003 
L 92.633952 59.870583 
L 93.418953 70.398807 
L 93.811454 62.055387 
L 94.203954 67.319499 
L 94.596455 58.976079 
L 94.988955 64.240191 
L 95.381456 55.896771 
L 95.773956 61.160883 
L 96.166457 52.817462 
L 96.558957 58.081574 
L 96.951458 49.738154 
L 97.343958 55.002266 
L 97.736459 46.658846 
L 98.128959 51.922958 
L 98.52146 43.579538 
L 99.306461 54.107762 
L 99.698962 45.764342 
L 100.091462 51.028454 
L 100.483963 42.685034 
L 101.661464 58.47737 
L 102.053965 50.13395 
L 102.446465 55.398062 
L 102.838966 47.054642 
L 103.623967 57.582866 
L 104.016467 49.239445 
L 104.408968 54.503557 
L 104.801468 46.160137 
L 105.193969 51.424249 
L 105.58647 43.080829 
L 105.97897 48.344941 
L 106.371471 40.001521 
L 106.763971 45.265633 
L 107.156472 36.922213 
L 107.548972 42.186325 
L 107.941473 33.842905 
L 109.118974 49.635241 
L 109.511475 41.291821 
L 109.903975 46.555933 
L 110.296476 38.212513 
L 110.688976 43.476625 
L 111.081477 35.133204 
L 111.473978 40.397316 
L 111.866478 32.053896 
L 113.04398 47.846232 
L 113.43648 39.502812 
L 113.828981 44.766924 
L 114.221481 36.423504 
L 115.006482 46.951728 
L 115.398983 38.608308 
L 116.183984 49.136532 
L 116.576484 40.793112 
L 116.968985 46.057224 
L 117.361485 37.713804 
L 117.753986 42.977916 
L 118.146487 34.634496 
L 118.538987 39.898608 
L 118.931488 31.555187 
L 119.716489 42.083412 
L 120.108989 33.739991 
L 121.286491 49.532327 
L 121.678991 41.188907 
L 122.856493 56.981243 
L 123.248993 48.637823 
L 123.641494 53.901935 
L 124.033995 45.558515 
L 124.818996 56.086739 
L 125.211496 47.743319 
L 125.996497 58.271543 
L 126.388998 49.928123 
L 127.173999 60.456347 
L 127.566499 52.112927 
L 128.3515 62.641151 
L 128.744001 54.297731 
L 129.529002 64.825955 
L 129.921503 56.482534 
L 130.314003 61.746646 
L 130.706504 53.403226 
L 131.491505 63.93145 
L 131.884005 55.58803 
L 133.061507 71.380366 
L 133.454007 63.036946 
L 133.846508 68.301058 
L 134.239008 59.957638 
L 134.631509 65.22175 
L 135.024009 56.87833 
L 137.771513 93.727114 
L 138.164014 85.383694 
L 138.556514 90.647806 
L 138.949015 82.304386 
L 140.911517 108.624946 
L 141.304018 100.281526 
L 142.48152 116.073862 
L 142.87402 107.730441 
L 143.266521 112.994553 
L 143.659021 104.651133 
L 144.836523 120.443469 
L 145.229023 112.100049 
L 145.621524 117.364161 
L 146.014024 109.020741 
L 147.976527 135.341301 
L 148.369028 126.997881 
L 148.761528 132.261993 
L 149.154029 123.918573 
L 149.546529 129.182685 
L 149.93903 120.839265 
L 151.116531 136.631601 
L 151.509032 128.288181 
L 151.901532 133.552293 
L 152.294033 125.208873 
L 152.686533 130.472985 
L 153.079034 122.129564 
L 153.864035 132.657788 
L 154.256536 124.314368 
L 154.649036 129.57848 
L 155.041537 121.23506 
L 155.434037 126.499172 
L 155.826538 118.155752 
L 156.219038 123.419864 
L 156.611539 115.076444 
L 157.004039 120.340556 
L 157.39654 111.997136 
L 157.78904 117.261248 
L 158.181541 108.917828 
L 158.574041 114.18194 
L 158.966542 105.83852 
L 159.359042 111.102632 
L 159.751543 102.759211 
L 160.144043 108.023323 
L 160.536544 99.679903 
L 160.929045 104.944015 
L 161.321545 96.600595 
L 161.714046 101.864707 
L 162.106546 93.521287 
L 162.499047 98.785399 
L 162.891547 90.441979 
L 163.676548 100.970203 
L 164.069049 92.626783 
L 165.24655 108.419119 
L 165.639051 100.075699 
L 166.424052 110.603923 
L 166.816553 102.260503 
L 167.994054 118.052839 
L 168.386555 109.709418 
L 168.779055 114.97353 
L 169.171556 106.63011 
L 170.349057 122.422446 
L 170.741558 114.079026 
L 171.526559 124.60725 
L 171.919059 116.26383 
L 173.096561 132.056166 
L 173.489062 123.712746 
L 175.059064 144.769194 
L 175.451564 136.425774 
L 175.844065 141.689886 
L 176.236565 133.346466 
L 177.021566 143.87469 
L 177.414067 135.53127 
L 177.806567 140.795382 
L 178.199068 132.451962 
L 179.37657 148.244298 
L 179.76907 139.900877 
L 180.161571 145.164989 
L 180.554071 136.821569 
L 181.339072 147.349793 
L 181.731573 139.006373 
L 183.301575 160.062821 
L 183.694075 151.719401 
L 184.479076 162.247625 
L 184.871577 153.904205 
L 187.22658 185.488877 
L 187.619081 177.145456 
L 189.189083 198.201904 
L 189.581583 189.858482 
L 189.974084 195.122594 
L 190.366584 186.779172 
L 191.936587 207.83562 
L 192.329087 199.49219 
L 193.114088 210.020414 
L 193.506589 201.676982 
L 193.899089 206.941094 
L 194.29159 198.597665 
L 194.68409 203.861777 
L 195.076591 195.518352 
L 195.469091 200.782464 
L 195.861592 192.43904 
L 197.431594 213.495488 
L 197.824095 205.152048 
L 199.786597 231.472608 
L 200.179098 223.128979 
L 200.964099 233.657203 
L 201.356599 225.313504 
L 202.534101 241.10584 
L 202.926601 232.761677 
L 203.319102 238.025789 
L 203.711603 229.681874 
L 204.104103 234.945986 
L 204.496604 226.602236 
L 204.889104 231.866348 
L 205.281605 223.522707 
L 206.459106 239.315043 
L 206.851607 230.971036 
L 207.636608 241.49926 
L 208.029108 233.155058 
L 208.421609 238.41917 
L 208.814109 230.075228 
L 210.776612 256.395788 
L 211.169113 248.046806 
L 211.561613 253.310918 
L 211.954114 244.963793 
L 212.346614 250.227905 
L 212.739115 241.882015 
L 213.524116 252.410239 
L 213.916616 244.063528 
L 214.701617 254.591752 
L 215.094118 246.243946 
L 215.879119 256.77217 
L 216.27162 248.422905 
L 217.056621 258.951129 
L 217.449121 250.599924 
L 219.019123 271.656372 
L 219.411624 263.271565 
L 220.589125 279.063901 
L 220.981626 270.611205 
L 221.374126 275.875317 
L 221.766627 267.459911 
L 222.159128 272.724023 
L 222.551628 264.332988 
L 224.514131 290.653548 
L 224.906631 281.819989 
L 226.476633 302.876437 
L 226.476633 302.876437 
" style="fill:none;stroke:#1f77b4;stroke-linecap:square;stroke-width:0.666667;"/>
   </g>
   <g id="line2d_16">
    <path clip-path="url(#p2aa5d371cf)" d="M 54.5614 158.95317 
L 54.953901 150.60975 
L 55.738902 161.137974 
L 56.131402 152.794554 
L 56.523903 158.058666 
L 56.916404 149.715246 
L 57.308904 154.979358 
L 57.701405 146.635938 
L 58.093905 151.90005 
L 58.486406 143.55663 
L 58.878906 148.820742 
L 59.271407 140.477322 
L 59.663907 145.741434 
L 60.056408 137.398013 
L 60.448908 142.662125 
L 60.841409 134.318705 
L 61.233909 139.582817 
L 61.62641 131.239397 
L 62.01891 136.503509 
L 62.411411 128.160089 
L 62.803912 133.424201 
L 63.196412 125.080781 
L 64.373914 140.873117 
L 64.766414 132.529697 
L 65.158915 137.793809 
L 65.551415 129.450389 
L 65.943916 134.714501 
L 66.336416 126.371081 
L 66.728917 131.635193 
L 67.121417 123.291773 
L 67.513918 128.555885 
L 67.906418 120.212464 
L 68.298919 125.476576 
L 68.69142 117.133156 
L 69.476421 127.66138 
L 69.868921 119.31796 
L 70.261422 124.582072 
L 70.653922 116.238652 
L 71.046423 121.502764 
L 71.438923 113.159344 
L 71.831424 118.423456 
L 72.223924 110.080036 
L 72.616425 115.344148 
L 73.008925 107.000728 
L 73.401426 112.26484 
L 73.793926 103.92142 
L 74.186427 109.185532 
L 74.578927 100.842111 
L 74.971428 106.106223 
L 75.363929 97.762803 
L 77.326431 124.083363 
L 77.718932 115.739943 
L 78.111432 121.004055 
L 78.503933 112.660635 
L 78.896433 117.924747 
L 79.288934 109.581327 
L 79.681434 114.845439 
L 80.073935 106.502019 
L 80.466435 111.766131 
L 80.858936 103.422711 
L 81.251437 108.686823 
L 81.643937 100.343403 
L 82.428938 110.871627 
L 82.821439 102.528206 
L 83.213939 107.792318 
L 83.60644 99.448898 
L 83.99894 104.71301 
L 84.391441 96.36959 
L 84.783941 101.633702 
L 85.176442 93.290282 
L 85.961443 103.818506 
L 86.353943 95.475086 
L 87.138945 106.00331 
L 87.531445 97.65989 
L 88.316446 108.188114 
L 88.708947 99.844694 
L 89.101447 105.108806 
L 89.493948 96.765386 
L 90.671449 112.557722 
L 91.06395 104.214301 
L 91.45645 109.478414 
L 91.848951 101.134993 
L 92.241451 106.399105 
L 92.633952 98.055685 
L 94.203954 119.112133 
L 94.596455 110.768713 
L 95.381456 121.296937 
L 95.773956 112.953517 
L 96.166457 118.217629 
L 96.558957 109.874209 
L 97.343958 120.402433 
L 97.736459 112.059013 
L 98.128959 117.323125 
L 98.52146 108.979705 
L 98.91396 114.243817 
L 99.306461 105.900397 
L 99.698962 111.164509 
L 100.091462 102.821088 
L 100.876463 113.349312 
L 101.268964 105.005892 
L 102.053965 115.534116 
L 102.446465 107.190696 
L 102.838966 112.454808 
L 103.231466 104.111388 
L 104.016467 114.639612 
L 104.408968 106.296192 
L 104.801468 111.560304 
L 105.193969 103.216884 
L 105.58647 108.480996 
L 105.97897 100.137576 
L 106.763971 110.6658 
L 107.156472 102.32238 
L 107.548972 107.586492 
L 107.941473 99.243071 
L 108.726474 109.771295 
L 109.118974 101.427875 
L 110.296476 117.220211 
L 110.688976 108.876791 
L 111.473978 119.405015 
L 111.866478 111.061595 
L 112.258979 116.325707 
L 112.651479 107.982287 
L 113.43648 118.510511 
L 113.828981 110.167091 
L 114.221481 115.431203 
L 114.613982 107.087783 
L 115.006482 112.351895 
L 115.398983 104.008475 
L 116.183984 114.536699 
L 116.576484 106.193279 
L 116.968985 111.457391 
L 117.361485 103.11397 
L 118.146487 113.642194 
L 118.538987 105.298774 
L 119.716489 121.09111 
L 120.108989 112.74769 
L 121.678991 133.804138 
L 122.071492 125.460718 
L 122.856493 135.988942 
L 123.248993 127.645522 
L 123.641494 132.909634 
L 124.033995 124.566214 
L 124.426495 129.830326 
L 124.818996 121.486906 
L 125.603997 132.01513 
L 125.996497 123.67171 
L 126.388998 128.935822 
L 126.781498 120.592401 
L 127.173999 125.856513 
L 127.566499 117.513093 
L 127.959 122.777205 
L 128.3515 114.433785 
L 129.136501 124.962009 
L 129.529002 116.618589 
L 130.314003 127.146813 
L 130.706504 118.803393 
L 131.099004 124.067505 
L 131.491505 115.724085 
L 131.884005 120.988197 
L 132.276506 112.644777 
L 132.669006 117.908889 
L 133.061507 109.565469 
L 133.846508 120.093693 
L 134.239008 111.750272 
L 135.024009 122.278496 
L 135.41651 113.935076 
L 135.80901 119.199188 
L 136.201511 110.855768 
L 136.594012 116.11988 
L 136.986512 107.77646 
L 137.379013 113.040572 
L 137.771513 104.697152 
L 138.556514 115.225376 
L 138.949015 106.881956 
L 139.734016 117.41018 
L 140.126516 109.06676 
L 140.911517 119.594984 
L 141.304018 111.251564 
L 141.696518 116.515676 
L 142.089019 108.172256 
L 142.48152 113.436368 
L 142.87402 105.092947 
L 144.051522 120.885283 
L 144.444022 112.541863 
L 146.014024 133.598311 
L 146.406525 125.254891 
L 146.799025 130.519003 
L 147.191526 122.175583 
L 147.584026 127.439695 
L 147.976527 119.096275 
L 148.761528 129.624499 
L 149.154029 121.281079 
L 149.93903 131.809303 
L 150.33153 123.465883 
L 150.724031 128.729995 
L 151.116531 120.386575 
L 151.509032 125.650687 
L 151.901532 117.307266 
L 152.294033 122.571378 
L 152.686533 114.227958 
L 153.079034 119.49207 
L 153.471534 111.14865 
L 153.864035 116.412762 
L 154.256536 108.069342 
L 155.826538 129.12579 
L 156.219038 120.78237 
L 156.611539 126.046482 
L 157.004039 117.703062 
L 158.181541 133.495398 
L 158.574041 125.151978 
L 159.359042 135.680202 
L 159.751543 127.336782 
L 160.144043 132.600894 
L 160.536544 124.257473 
L 160.929045 129.521586 
L 161.321545 121.178165 
L 161.714046 126.442277 
L 162.106546 118.098857 
L 162.499047 123.362969 
L 162.891547 115.019549 
L 164.85405 141.340109 
L 165.24655 132.996689 
L 165.639051 138.260801 
L 166.031551 129.917381 
L 166.424052 135.181493 
L 166.816553 126.838073 
L 167.209053 132.102185 
L 167.601554 123.758765 
L 167.994054 129.022877 
L 168.386555 120.679457 
L 168.779055 125.943569 
L 169.171556 117.600148 
L 169.956557 128.128372 
L 170.349057 119.784952 
L 171.134058 130.313176 
L 171.526559 121.969756 
L 172.31156 132.49798 
L 172.704061 124.15456 
L 173.489062 134.682784 
L 173.881562 126.339364 
L 174.666563 136.867588 
L 175.059064 128.524168 
L 175.451564 133.78828 
L 175.844065 125.44486 
L 176.236565 130.708972 
L 176.629066 122.365552 
L 177.021566 127.629664 
L 177.414067 119.286243 
L 177.806567 124.550355 
L 178.199068 116.206935 
L 178.984069 126.735159 
L 179.37657 118.391739 
L 179.76907 123.655851 
L 180.161571 115.312431 
L 180.554071 120.576543 
L 180.946572 112.233123 
L 181.339072 117.497235 
L 181.731573 109.153815 
L 182.124073 114.417927 
L 182.516574 106.074507 
L 183.301575 116.602731 
L 183.694075 108.259311 
L 184.086576 113.523423 
L 184.479076 105.180002 
L 184.871577 110.444114 
L 185.264078 102.100694 
L 186.049079 112.628918 
L 186.441579 104.285498 
L 186.83408 109.54961 
L 187.22658 101.20619 
L 188.011581 111.734414 
L 188.404082 103.390994 
L 188.796582 108.655106 
L 189.189083 100.311686 
L 189.974084 110.83991 
L 190.366584 102.49649 
L 191.151586 113.024714 
L 191.544086 104.681294 
L 192.329087 115.209518 
L 192.721588 106.866098 
L 193.114088 112.13021 
L 193.506589 103.786789 
L 193.899089 109.050901 
L 194.29159 100.707481 
L 195.076591 111.235705 
L 195.469091 102.892285 
L 195.861592 108.156397 
L 196.254092 99.812977 
L 197.039094 110.341201 
L 197.431594 101.997781 
L 197.824095 107.261893 
L 198.216595 98.918473 
L 198.609096 104.182585 
L 199.001596 95.839165 
L 199.786597 106.367389 
L 200.179098 98.023969 
L 201.7491 119.080417 
L 202.1416 110.736996 
L 202.926601 121.26522 
L 203.319102 112.9218 
L 203.711603 118.185912 
L 204.104103 109.842492 
L 204.889104 120.370716 
L 205.281605 112.027296 
L 205.674105 117.291408 
L 206.066606 108.947988 
L 206.459106 114.2121 
L 206.851607 105.86868 
L 207.636608 116.396904 
L 208.029108 108.053484 
L 208.421609 113.317596 
L 208.814109 104.974176 
L 209.599111 115.5024 
L 209.991611 107.158979 
L 210.384112 112.423091 
L 210.776612 104.079671 
L 211.561613 114.607895 
L 211.954114 106.264475 
L 213.131615 122.056811 
L 213.524116 113.713391 
L 214.309117 124.241615 
L 214.701617 115.898195 
L 215.094118 121.162307 
L 215.486619 112.818887 
L 215.879119 118.082999 
L 216.27162 109.739579 
L 216.66412 115.003691 
L 217.056621 106.660271 
L 218.626623 127.716719 
L 219.019123 119.373299 
L 219.804124 129.901523 
L 220.196625 121.558102 
L 220.589125 126.822214 
L 220.981626 118.478794 
L 221.374126 123.742906 
L 221.766627 115.399486 
L 222.159128 120.663598 
L 222.551628 112.320178 
L 224.12163 133.376626 
L 224.514131 125.033206 
L 224.906631 130.297318 
L 225.299132 121.953898 
L 225.691632 127.21801 
L 226.084133 118.87459 
L 226.476633 124.138702 
L 226.869134 115.795282 
L 227.261634 121.059394 
L 227.654135 112.715973 
L 228.439136 123.244197 
L 228.831637 114.900777 
L 230.009138 130.693113 
L 230.401639 122.349693 
L 231.18664 132.877917 
L 231.57914 124.534497 
L 231.971641 129.798609 
L 232.364141 121.455189 
L 232.756642 126.719301 
L 233.149142 118.375881 
L 234.326644 134.168217 
L 234.719145 125.824797 
L 235.504146 136.353021 
L 235.896646 128.009601 
L 237.074148 143.801937 
L 237.466648 135.458517 
L 237.859149 140.722629 
L 238.251649 132.379208 
L 240.214152 158.699768 
L 240.606653 150.356348 
L 241.391654 160.884572 
L 241.784154 152.541152 
L 242.176655 157.805264 
L 242.569155 149.461844 
L 242.961656 154.725956 
L 243.354156 146.382536 
L 243.746657 151.646648 
L 244.139157 143.303228 
L 244.531658 148.56734 
L 244.924158 140.22392 
L 245.709159 150.752144 
L 246.10166 142.408724 
L 246.494161 147.672836 
L 246.886661 139.329415 
L 247.279162 144.593527 
L 247.671662 136.250107 
L 248.064163 141.514219 
L 248.456663 133.170799 
L 248.849164 138.434911 
L 249.241664 130.091491 
L 250.026665 140.619715 
L 250.419166 132.276295 
L 251.204167 142.804519 
L 251.596667 134.461099 
L 251.989168 139.725211 
L 252.381669 131.381791 
L 253.16667 141.910015 
L 253.55917 133.566595 
L 254.344171 144.094819 
L 254.736672 135.751398 
L 255.521673 146.279622 
L 255.914173 137.936202 
L 256.699174 148.464426 
L 257.091675 140.121006 
L 258.269177 155.913342 
L 258.661677 147.569922 
L 259.054178 152.834034 
L 259.446678 144.490614 
L 259.839179 149.754726 
L 260.231679 141.411306 
L 261.01668 151.93953 
L 261.409181 143.59611 
L 262.586682 159.388446 
L 262.979183 151.045026 
L 263.371683 156.309138 
L 263.764184 147.965717 
L 264.156684 153.229829 
L 264.549185 144.886409 
L 264.941686 150.150521 
L 265.334186 141.807101 
L 265.726687 147.071213 
L 266.119187 138.727793 
L 266.904188 149.256017 
L 267.296689 140.912597 
L 268.866691 161.969045 
L 269.259191 153.625625 
L 269.651692 158.889737 
L 270.044192 150.546317 
L 270.436693 155.810429 
L 270.829194 147.467008 
L 271.614195 157.995233 
L 272.006695 149.651812 
L 272.399196 154.915924 
L 272.791696 146.572504 
L 273.184197 151.836616 
L 273.576697 143.493196 
L 273.969198 148.757308 
L 274.361698 140.413888 
L 275.146699 150.942112 
L 275.5392 142.598692 
L 275.9317 147.862804 
L 276.324201 139.519384 
L 276.716702 144.783496 
L 277.109202 136.440076 
L 277.894203 146.9683 
L 278.286704 138.624879 
L 279.856706 159.681328 
L 280.249206 151.337907 
L 280.641707 156.602019 
L 281.034207 148.258599 
L 281.426708 153.522711 
L 281.819208 145.179291 
L 282.211709 150.443403 
L 282.60421 142.099983 
L 282.99671 147.364095 
L 283.389211 139.020675 
L 284.174212 149.548899 
L 284.566712 141.205479 
L 284.959213 146.469591 
L 285.351713 138.126171 
L 285.744214 143.390283 
L 286.136714 135.046862 
L 286.921715 145.575086 
L 287.314216 137.231666 
L 287.706716 142.495778 
L 288.099217 134.152358 
L 289.276719 149.944694 
L 289.669219 141.601274 
L 290.45422 152.129498 
L 290.846721 143.786078 
L 292.416723 164.842526 
L 292.809223 156.499106 
L 293.201724 161.763218 
L 293.594224 153.419798 
L 294.379225 163.948022 
L 294.771726 155.604602 
L 295.164227 160.868714 
L 295.556727 152.525293 
L 296.734229 168.317629 
L 297.126729 159.974209 
L 297.91173 170.502433 
L 298.304231 162.159013 
L 299.089232 172.687237 
L 299.481732 164.343817 
L 300.659234 180.136153 
L 301.051735 171.792733 
L 301.444235 177.056845 
L 301.836736 168.713424 
L 302.229236 173.977536 
L 302.621737 165.634116 
L 303.014237 170.898228 
L 303.406738 162.554808 
L 303.799238 167.81892 
L 304.191739 159.4755 
L 304.97674 170.003724 
L 305.36924 161.660303 
L 306.154241 172.188527 
L 306.546742 163.845107 
L 306.939242 169.109219 
L 307.331743 160.765799 
L 307.724244 166.029911 
L 308.116744 157.686491 
L 308.509245 162.950603 
L 308.901745 154.607183 
L 309.294246 159.871295 
L 309.686746 151.527875 
L 310.471747 162.056099 
L 310.864248 153.712678 
L 311.649249 164.240902 
L 312.041749 155.897482 
L 312.43425 161.161594 
L 312.82675 152.818174 
L 313.219251 158.082286 
L 313.611752 149.738866 
L 314.004252 155.002978 
L 314.396753 146.659558 
L 314.789253 151.92367 
L 315.181754 143.58025 
L 315.966755 154.108474 
L 316.359255 145.765054 
L 316.751756 151.029166 
L 317.144256 142.685746 
L 317.536757 147.949858 
L 317.929257 139.606437 
L 318.714258 150.134661 
L 319.106759 141.791241 
L 319.49926 147.055353 
L 319.89176 138.711933 
L 321.069262 154.504269 
L 321.461762 146.160849 
L 321.854263 151.424961 
L 322.246763 143.081541 
L 326.95677 206.250885 
L 327.34927 197.907457 
L 328.134271 208.435681 
L 328.526772 200.092251 
L 328.919272 205.356363 
L 329.311773 197.012936 
L 329.704273 202.277048 
L 330.096774 193.933624 
L 330.489274 199.197736 
L 330.881775 190.854313 
L 331.274275 196.118425 
L 331.666776 187.775002 
L 332.451777 198.303226 
L 332.844278 189.959804 
L 333.236778 195.223916 
L 333.629279 186.880494 
L 334.021779 192.144606 
L 334.41428 183.801185 
L 335.199281 194.329409 
L 335.591781 185.985987 
L 335.984282 191.250099 
L 336.376782 182.906678 
L 336.769283 188.17079 
L 337.161783 179.827369 
L 337.946785 190.355593 
L 338.339285 182.012172 
L 338.731786 187.276284 
L 339.124286 178.932863 
L 339.516787 184.196975 
L 339.909287 175.853555 
L 341.479289 196.910003 
L 341.87179 188.56658 
L 343.441792 209.623028 
L 343.834293 201.279596 
L 344.226793 206.543708 
L 344.619294 198.20028 
L 345.011794 203.464392 
L 345.404295 195.120967 
L 346.189296 205.649191 
L 346.581796 197.305764 
L 346.974297 202.569876 
L 347.366797 194.226451 
L 347.759298 199.490563 
L 348.151798 191.14714 
L 348.544299 196.411252 
L 348.936799 188.06783 
L 349.7218 198.596054 
L 350.114301 190.252631 
L 350.899302 200.780855 
L 351.291803 192.437431 
L 351.684303 197.701543 
L 352.076804 189.358121 
L 352.469304 194.622233 
L 352.861805 186.278811 
L 354.431807 207.335259 
L 354.824307 198.99183 
L 357.571811 235.840614 
L 357.964312 227.496822 
L 358.356812 232.760934 
L 358.749313 224.417267 
L 359.141813 229.681379 
L 359.534314 221.337793 
L 359.926814 226.601905 
L 360.319315 218.258375 
L 360.711815 223.522487 
L 361.104316 215.178994 
L 361.889317 225.707218 
L 362.281818 217.3637 
L 362.674318 222.627812 
L 363.066819 214.284327 
L 363.459319 219.548439 
L 363.85182 211.204975 
L 365.814322 237.525535 
L 366.206823 229.181651 
L 366.599323 234.445763 
L 366.991824 226.102034 
L 368.169325 241.89437 
L 368.561826 233.550125 
L 368.954327 238.814237 
L 369.346827 230.470268 
L 369.739328 235.73438 
L 370.131828 227.390593 
L 370.524329 232.654705 
L 370.916829 224.311041 
L 371.30933 229.575153 
L 371.70183 221.23157 
L 372.094331 226.495682 
L 372.486831 218.152154 
L 372.879332 223.416266 
L 373.271832 215.072773 
L 373.664333 220.336885 
L 374.056833 211.993417 
L 374.449334 217.257529 
L 374.841835 208.914076 
L 375.234335 214.178189 
L 375.626836 205.834747 
L 376.411837 216.362971 
L 376.804337 208.019522 
L 377.981839 223.811858 
L 378.374339 215.468362 
L 378.76684 220.732474 
L 379.15934 212.389003 
L 379.551841 217.653115 
L 379.944341 209.309661 
L 380.336842 214.573773 
L 380.729343 206.23033 
L 381.121843 211.494442 
L 381.514344 203.151007 
L 381.906844 208.415119 
L 382.299345 200.071689 
L 383.084346 210.599913 
L 383.476846 202.256479 
L 383.869347 207.520591 
L 384.261847 199.177162 
L 384.654348 204.441274 
L 385.046848 196.097848 
L 386.22435 211.890184 
L 386.616851 203.546748 
L 387.401852 214.074972 
L 387.794352 205.731531 
L 388.579353 216.259755 
L 388.971854 207.916307 
L 389.756855 218.444531 
L 390.149355 210.101073 
L 390.541856 215.365185 
L 390.934356 207.02174 
L 391.719357 217.549964 
L 392.111858 209.20651 
L 393.28936 224.998846 
L 393.68186 216.655337 
L 394.466861 227.183561 
L 394.859362 218.840022 
L 395.251862 224.104134 
L 395.644363 215.760635 
L 396.429364 226.288859 
L 396.821864 217.945333 
L 397.214365 223.209445 
L 397.606865 214.865955 
L 399.569368 241.186515 
L 399.961869 232.842344 
L 400.354369 238.106456 
L 400.74687 229.762535 
L 401.531871 240.290759 
L 401.924371 231.946671 
L 402.709372 242.474895 
L 403.101873 234.130586 
L 404.279374 249.922922 
L 404.671875 241.577129 
L 405.064376 246.841241 
L 405.456876 238.49624 
L 406.241877 249.024464 
L 406.634378 240.678936 
L 407.419379 251.20716 
L 407.811879 242.860931 
L 409.381881 263.917379 
L 409.774382 255.558995 
L 410.559383 266.087219 
L 410.951883 257.723891 
L 411.344384 262.988003 
L 411.736885 254.631341 
L 412.129385 259.895453 
L 412.521886 251.543217 
L 412.914386 256.807329 
L 413.306887 248.458038 
L 413.699387 253.72215 
L 414.091888 245.374818 
L 414.484388 250.63893 
L 414.876889 242.292903 
L 415.269389 247.557015 
L 415.66189 239.211858 
L 416.446891 249.740082 
L 416.839391 241.394346 
L 418.409394 262.450794 
L 418.801894 254.095035 
L 419.979396 269.887371 
L 420.371896 261.511145 
L 421.549398 277.303481 
L 421.941898 268.873266 
L 423.1194 284.665602 
L 423.511901 276.095463 
L 423.904401 281.359575 
L 424.296902 272.868684 
L 425.081903 283.396908 
L 425.474403 274.861212 
L 426.651905 290.653548 
L 427.044405 281.819989 
L 428.614407 302.876437 
L 428.614407 302.876437 
" style="fill:none;stroke:#ff7f0e;stroke-linecap:square;stroke-width:0.666667;"/>
   </g>
   <g id="patch_3">
    <path d="M 35.85875 316.4425 
L 35.85875 17.989125 
" style="fill:none;stroke:#000000;stroke-linecap:square;stroke-linejoin:miter;stroke-width:0.8;"/>
   </g>
   <g id="patch_4">
    <path d="M 447.317058 316.4425 
L 447.317058 17.989125 
" style="fill:none;stroke:#000000;stroke-linecap:square;stroke-linejoin:miter;stroke-width:0.8;"/>
   </g>
   <g id="patch_5">
    <path d="M 35.85875 316.4425 
L 447.317058 316.4425 
" style="fill:none;stroke:#000000;stroke-linecap:square;stroke-linejoin:miter;stroke-width:0.8;"/>
   </g>
   <g id="patch_6">
    <path d="M 35.85875 17.989125 
L 447.317058 17.989125 
" style="fill:none;stroke:#000000;stroke-linecap:square;stroke-linejoin:miter;stroke-width:0.8;"/>
   </g>
   <g id="text_17">
    <!-- "3y+1" problem -->
    <g transform="translate(211.245529 11.989125)scale(0.072 -0.072)">
     <defs>
      <path d="M 43.703125 72.90625 
L 43.703125 45.796875 
L 35.203125 45.796875 
L 35.203125 72.90625 
z
M 25 72.90625 
L 25 45.796875 
L 16.5 45.796875 
L 16.5 72.90625 
z
" id="DejaVuSansMono-34"/>
      <path d="M 34.1875 57.171875 
L 34.1875 35.5 
L 55.90625 35.5 
L 55.90625 27.203125 
L 34.1875 27.203125 
L 34.1875 5.515625 
L 25.984375 5.515625 
L 25.984375 27.203125 
L 4.296875 27.203125 
L 4.296875 35.5 
L 25.984375 35.5 
L 25.984375 57.171875 
z
" id="DejaVuSansMono-43"/>
      <path id="DejaVuSansMono-32"/>
      <path d="M 18.3125 6.890625 
L 18.3125 -20.796875 
L 9.28125 -20.796875 
L 9.28125 54.6875 
L 18.3125 54.6875 
L 18.3125 47.703125 
Q 20.5625 51.765625 24.296875 53.875 
Q 28.03125 56 32.90625 56 
Q 42.828125 56 48.46875 48.328125 
Q 54.109375 40.671875 54.109375 27.09375 
Q 54.109375 13.765625 48.4375 6.171875 
Q 42.78125 -1.421875 32.90625 -1.421875 
Q 27.9375 -1.421875 24.1875 0.703125 
Q 20.453125 2.828125 18.3125 6.890625 
z
M 44.671875 27.296875 
Q 44.671875 37.75 41.375 43.0625 
Q 38.09375 48.390625 31.59375 48.390625 
Q 25.046875 48.390625 21.671875 43.046875 
Q 18.3125 37.703125 18.3125 27.296875 
Q 18.3125 16.9375 21.671875 11.5625 
Q 25.046875 6.203125 31.59375 6.203125 
Q 38.09375 6.203125 41.375 11.515625 
Q 44.671875 16.84375 44.671875 27.296875 
z
" id="DejaVuSansMono-112"/>
      <path d="M 56.390625 43.40625 
Q 53.515625 45.65625 50.53125 46.671875 
Q 47.5625 47.703125 44 47.703125 
Q 35.59375 47.703125 31.140625 42.421875 
Q 26.703125 37.15625 26.703125 27.203125 
L 26.703125 0 
L 17.671875 0 
L 17.671875 54.6875 
L 26.703125 54.6875 
L 26.703125 44 
Q 28.953125 49.8125 33.609375 52.90625 
Q 38.28125 56 44.671875 56 
Q 48 56 50.875 55.171875 
Q 53.765625 54.34375 56.390625 52.59375 
z
" id="DejaVuSansMono-114"/>
      <path d="M 30.078125 48.390625 
Q 23.25 48.390625 19.734375 43.0625 
Q 16.21875 37.75 16.21875 27.296875 
Q 16.21875 16.890625 19.734375 11.546875 
Q 23.25 6.203125 30.078125 6.203125 
Q 36.96875 6.203125 40.484375 11.546875 
Q 44 16.890625 44 27.296875 
Q 44 37.75 40.484375 43.0625 
Q 36.96875 48.390625 30.078125 48.390625 
z
M 30.078125 56 
Q 41.453125 56 47.484375 48.625 
Q 53.515625 41.265625 53.515625 27.296875 
Q 53.515625 13.28125 47.5 5.921875 
Q 41.5 -1.421875 30.078125 -1.421875 
Q 18.703125 -1.421875 12.6875 5.921875 
Q 6.6875 13.28125 6.6875 27.296875 
Q 6.6875 41.265625 12.6875 48.625 
Q 18.703125 56 30.078125 56 
z
" id="DejaVuSansMono-111"/>
      <path d="M 44.828125 27.296875 
Q 44.828125 37.75 41.5 43.0625 
Q 38.1875 48.390625 31.6875 48.390625 
Q 25.140625 48.390625 21.765625 43.046875 
Q 18.40625 37.703125 18.40625 27.296875 
Q 18.40625 16.9375 21.765625 11.5625 
Q 25.140625 6.203125 31.6875 6.203125 
Q 38.1875 6.203125 41.5 11.515625 
Q 44.828125 16.84375 44.828125 27.296875 
z
M 18.40625 47.703125 
Q 20.5625 51.703125 24.34375 53.84375 
Q 28.125 56 33.109375 56 
Q 42.96875 56 48.625 48.40625 
Q 54.296875 40.828125 54.296875 27.484375 
Q 54.296875 13.96875 48.609375 6.265625 
Q 42.921875 -1.421875 33.015625 -1.421875 
Q 28.125 -1.421875 24.390625 0.703125 
Q 20.65625 2.828125 18.40625 6.890625 
L 18.40625 0 
L 9.421875 0 
L 9.421875 75.984375 
L 18.40625 75.984375 
z
" id="DejaVuSansMono-98"/>
      <path d="M 31.203125 19.828125 
Q 31.203125 13.765625 33.421875 10.6875 
Q 35.640625 7.625 39.984375 7.625 
L 50.484375 7.625 
L 50.484375 0 
L 39.109375 0 
Q 31.0625 0 26.640625 5.171875 
Q 22.21875 10.359375 22.21875 19.828125 
L 22.21875 69.484375 
L 7.8125 69.484375 
L 7.8125 76.515625 
L 31.203125 76.515625 
z
" id="DejaVuSansMono-108"/>
      <path d="M 54.296875 29.59375 
L 54.296875 25.203125 
L 15.375 25.203125 
L 15.375 24.90625 
Q 15.375 15.96875 20.03125 11.078125 
Q 24.703125 6.203125 33.203125 6.203125 
Q 37.5 6.203125 42.1875 7.5625 
Q 46.875 8.9375 52.203125 11.71875 
L 52.203125 2.78125 
Q 47.078125 0.6875 42.3125 -0.359375 
Q 37.546875 -1.421875 33.109375 -1.421875 
Q 20.359375 -1.421875 13.171875 6.21875 
Q 6 13.875 6 27.296875 
Q 6 40.375 13.03125 48.1875 
Q 20.0625 56 31.78125 56 
Q 42.234375 56 48.265625 48.921875 
Q 54.296875 41.84375 54.296875 29.59375 
z
M 45.3125 32.234375 
Q 45.125 40.140625 41.578125 44.265625 
Q 38.03125 48.390625 31.390625 48.390625 
Q 24.90625 48.390625 20.703125 44.09375 
Q 16.5 39.796875 15.71875 32.171875 
z
" id="DejaVuSansMono-101"/>
      <path d="M 33.015625 49.125 
Q 34.671875 52.640625 37.234375 54.3125 
Q 39.796875 56 43.40625 56 
Q 50 56 52.703125 50.890625 
Q 55.421875 45.796875 55.421875 31.6875 
L 55.421875 0 
L 47.21875 0 
L 47.21875 31.296875 
Q 47.21875 42.875 45.921875 45.671875 
Q 44.625 48.484375 41.21875 48.484375 
Q 37.3125 48.484375 35.859375 45.484375 
Q 34.421875 42.484375 34.421875 31.296875 
L 34.421875 0 
L 26.21875 0 
L 26.21875 31.296875 
Q 26.21875 43.015625 24.828125 45.75 
Q 23.4375 48.484375 19.828125 48.484375 
Q 16.265625 48.484375 14.875 45.484375 
Q 13.484375 42.484375 13.484375 31.296875 
L 13.484375 0 
L 5.328125 0 
L 5.328125 54.6875 
L 13.484375 54.6875 
L 13.484375 50 
Q 15.09375 52.9375 17.5 54.46875 
Q 19.921875 56 23 56 
Q 26.703125 56 29.171875 54.296875 
Q 31.640625 52.59375 33.015625 49.125 
z
" id="DejaVuSansMono-109"/>
     </defs>
     <use xlink:href="#DejaVuSansMono-34"/>
     <use x="60.205078" xlink:href="#DejaVuSansMono-51"/>
     <use x="120.410156" xlink:href="#DejaVuSansMono-121"/>
     <use x="180.615234" xlink:href="#DejaVuSansMono-43"/>
     <use x="240.820312" xlink:href="#DejaVuSansMono-49"/>
     <use x="301.025391" xlink:href="#DejaVuSansMono-34"/>
     <use x="361.230469" xlink:href="#DejaVuSansMono-32"/>
     <use x="421.435547" xlink:href="#DejaVuSansMono-112"/>
     <use x="481.640625" xlink:href="#DejaVuSansMono-114"/>
     <use x="541.845703" xlink:href="#DejaVuSansMono-111"/>
     <use x="602.050781" xlink:href="#DejaVuSansMono-98"/>
     <use x="662.255859" xlink:href="#DejaVuSansMono-108"/>
     <use x="722.460938" xlink:href="#DejaVuSansMono-101"/>
     <use x="782.666016" xlink:href="#DejaVuSansMono-109"/>
    </g>
   </g>
   <g id="legend_1">
    <g id="patch_7">
     <path d="M 333.61237 82.0095 
L 443.117058 82.0095 
Q 444.317058 82.0095 444.317058 80.8095 
L 444.317058 22.189125 
Q 444.317058 20.989125 443.117058 20.989125 
L 333.61237 20.989125 
Q 332.41237 20.989125 332.41237 22.189125 
L 332.41237 80.8095 
Q 332.41237 82.0095 333.61237 82.0095 
z
" style="fill:#ffffff;opacity:0.8;stroke:#cccccc;stroke-linejoin:miter;"/>
    </g>
    <g id="line2d_17">
     <path d="M 334.81237 36.889687 
L 346.81237 36.889687 
" style="fill:none;stroke:#1f77b4;stroke-linecap:square;stroke-width:0.666667;"/>
    </g>
    <g id="line2d_18"/>
    <g id="text_18">
     <!-- "Tallest": -->
     <g transform="translate(351.61237 27.980062)scale(0.06 -0.06)">
      <defs>
       <path d="M 2.296875 72.90625 
L 57.90625 72.90625 
L 57.90625 64.59375 
L 35.109375 64.59375 
L 35.109375 0 
L 25.203125 0 
L 25.203125 64.59375 
L 2.296875 64.59375 
z
" id="DejaVuSansMono-84"/>
       <path d="M 34.28125 27.484375 
L 31.296875 27.484375 
Q 23.4375 27.484375 19.453125 24.71875 
Q 15.484375 21.96875 15.484375 16.5 
Q 15.484375 11.578125 18.453125 8.84375 
Q 21.4375 6.109375 26.703125 6.109375 
Q 34.125 6.109375 38.375 11.25 
Q 42.625 16.40625 42.671875 25.484375 
L 42.671875 27.484375 
z
M 51.703125 31.203125 
L 51.703125 0 
L 42.671875 0 
L 42.671875 8.109375 
Q 39.796875 3.21875 35.421875 0.890625 
Q 31.0625 -1.421875 24.8125 -1.421875 
Q 16.453125 -1.421875 11.46875 3.296875 
Q 6.5 8.015625 6.5 15.921875 
Q 6.5 25.046875 12.625 29.78125 
Q 18.75 34.515625 30.609375 34.515625 
L 42.671875 34.515625 
L 42.671875 35.9375 
Q 42.625 42.484375 39.34375 45.4375 
Q 36.078125 48.390625 28.90625 48.390625 
Q 24.3125 48.390625 19.625 47.0625 
Q 14.9375 45.75 10.5 43.21875 
L 10.5 52.203125 
Q 15.484375 54.109375 20.046875 55.046875 
Q 24.609375 56 28.90625 56 
Q 35.6875 56 40.5 54 
Q 45.3125 52 48.296875 48 
Q 50.140625 45.5625 50.921875 41.96875 
Q 51.703125 38.375 51.703125 31.203125 
z
" id="DejaVuSansMono-97"/>
       <path d="M 47.515625 52.78125 
L 47.515625 44 
Q 43.65625 46.234375 39.75 47.359375 
Q 35.84375 48.484375 31.78125 48.484375 
Q 25.6875 48.484375 22.671875 46.5 
Q 19.671875 44.53125 19.671875 40.484375 
Q 19.671875 36.8125 21.921875 35 
Q 24.171875 33.203125 33.109375 31.5 
L 36.71875 30.8125 
Q 43.40625 29.546875 46.84375 25.734375 
Q 50.296875 21.921875 50.296875 15.828125 
Q 50.296875 7.71875 44.53125 3.140625 
Q 38.765625 -1.421875 28.515625 -1.421875 
Q 24.46875 -1.421875 20.015625 -0.5625 
Q 15.578125 0.296875 10.40625 2 
L 10.40625 11.28125 
Q 15.4375 8.6875 20.015625 7.390625 
Q 24.609375 6.109375 28.71875 6.109375 
Q 34.671875 6.109375 37.9375 8.515625 
Q 41.21875 10.9375 41.21875 15.28125 
Q 41.21875 21.53125 29.25 23.921875 
L 28.859375 24.03125 
L 25.484375 24.703125 
Q 17.71875 26.21875 14.15625 29.8125 
Q 10.59375 33.40625 10.59375 39.59375 
Q 10.59375 47.46875 15.90625 51.734375 
Q 21.234375 56 31.109375 56 
Q 35.5 56 39.546875 55.1875 
Q 43.609375 54.390625 47.515625 52.78125 
z
" id="DejaVuSansMono-115"/>
       <path d="M 29.984375 70.21875 
L 29.984375 54.6875 
L 50.390625 54.6875 
L 50.390625 47.703125 
L 29.984375 47.703125 
L 29.984375 18.015625 
Q 29.984375 11.96875 32.28125 9.5625 
Q 34.578125 7.171875 40.28125 7.171875 
L 50.390625 7.171875 
L 50.390625 0 
L 39.40625 0 
Q 29.296875 0 25.140625 4.046875 
Q 21 8.109375 21 18.015625 
L 21 47.703125 
L 6.390625 47.703125 
L 6.390625 54.6875 
L 21 54.6875 
L 21 70.21875 
z
" id="DejaVuSansMono-116"/>
       <path d="M 23.875 51.90625 
L 36.1875 51.90625 
L 36.1875 37.109375 
L 23.875 37.109375 
z
M 23.875 14.890625 
L 36.1875 14.890625 
L 36.1875 0 
L 23.875 0 
z
" id="DejaVuSansMono-58"/>
      </defs>
      <use xlink:href="#DejaVuSansMono-34"/>
      <use x="60.205078" xlink:href="#DejaVuSansMono-84"/>
      <use x="120.410156" xlink:href="#DejaVuSansMono-97"/>
      <use x="180.615234" xlink:href="#DejaVuSansMono-108"/>
      <use x="240.820312" xlink:href="#DejaVuSansMono-108"/>
      <use x="301.025391" xlink:href="#DejaVuSansMono-101"/>
      <use x="361.230469" xlink:href="#DejaVuSansMono-115"/>
      <use x="421.435547" xlink:href="#DejaVuSansMono-116"/>
      <use x="481.640625" xlink:href="#DejaVuSansMono-34"/>
      <use x="541.845703" xlink:href="#DejaVuSansMono-58"/>
     </g>
     <!-- y_0    = 120080895 -->
     <g transform="translate(351.61237 34.737)scale(0.06 -0.06)">
      <defs>
       <path d="M 4.296875 25.59375 
L 55.90625 25.59375 
L 55.90625 17.1875 
L 4.296875 17.1875 
z
M 4.296875 45.40625 
L 55.90625 45.40625 
L 55.90625 37.109375 
L 4.296875 37.109375 
z
" id="DejaVuSansMono-61"/>
      </defs>
      <use xlink:href="#DejaVuSansMono-121"/>
      <use x="60.205078" xlink:href="#DejaVuSansMono-95"/>
      <use x="120.410156" xlink:href="#DejaVuSansMono-48"/>
      <use x="180.615234" xlink:href="#DejaVuSansMono-32"/>
      <use x="240.820312" xlink:href="#DejaVuSansMono-32"/>
      <use x="301.025391" xlink:href="#DejaVuSansMono-32"/>
      <use x="361.230469" xlink:href="#DejaVuSansMono-32"/>
      <use x="421.435547" xlink:href="#DejaVuSansMono-61"/>
      <use x="481.640625" xlink:href="#DejaVuSansMono-32"/>
      <use x="541.845703" xlink:href="#DejaVuSansMono-49"/>
      <use x="602.050781" xlink:href="#DejaVuSansMono-50"/>
      <use x="662.255859" xlink:href="#DejaVuSansMono-48"/>
      <use x="722.460938" xlink:href="#DejaVuSansMono-48"/>
      <use x="782.666016" xlink:href="#DejaVuSansMono-56"/>
      <use x="842.871094" xlink:href="#DejaVuSansMono-48"/>
      <use x="903.076172" xlink:href="#DejaVuSansMono-56"/>
      <use x="963.28125" xlink:href="#DejaVuSansMono-57"/>
      <use x="1023.486328" xlink:href="#DejaVuSansMono-53"/>
     </g>
     <!-- y_max  = 3277901576118580 -->
     <g transform="translate(351.61237 41.660812)scale(0.06 -0.06)">
      <defs>
       <path d="M 54.59375 54.6875 
L 35.015625 28.515625 
L 56.5 0 
L 46.09375 0 
L 30.078125 21.921875 
L 14.109375 0 
L 3.71875 0 
L 25.203125 28.515625 
L 5.609375 54.6875 
L 15.578125 54.6875 
L 30.078125 34.90625 
L 44.484375 54.6875 
z
" id="DejaVuSansMono-120"/>
      </defs>
      <use xlink:href="#DejaVuSansMono-121"/>
      <use x="60.205078" xlink:href="#DejaVuSansMono-95"/>
      <use x="120.410156" xlink:href="#DejaVuSansMono-109"/>
      <use x="180.615234" xlink:href="#DejaVuSansMono-97"/>
      <use x="240.820312" xlink:href="#DejaVuSansMono-120"/>
      <use x="301.025391" xlink:href="#DejaVuSansMono-32"/>
      <use x="361.230469" xlink:href="#DejaVuSansMono-32"/>
      <use x="421.435547" xlink:href="#DejaVuSansMono-61"/>
      <use x="481.640625" xlink:href="#DejaVuSansMono-32"/>
      <use x="541.845703" xlink:href="#DejaVuSansMono-51"/>
      <use x="602.050781" xlink:href="#DejaVuSansMono-50"/>
      <use x="662.255859" xlink:href="#DejaVuSansMono-55"/>
      <use x="722.460938" xlink:href="#DejaVuSansMono-55"/>
      <use x="782.666016" xlink:href="#DejaVuSansMono-57"/>
      <use x="842.871094" xlink:href="#DejaVuSansMono-48"/>
      <use x="903.076172" xlink:href="#DejaVuSansMono-49"/>
      <use x="963.28125" xlink:href="#DejaVuSansMono-53"/>
      <use x="1023.486328" xlink:href="#DejaVuSansMono-55"/>
      <use x="1083.691406" xlink:href="#DejaVuSansMono-54"/>
      <use x="1143.896484" xlink:href="#DejaVuSansMono-49"/>
      <use x="1204.101562" xlink:href="#DejaVuSansMono-49"/>
      <use x="1264.306641" xlink:href="#DejaVuSansMono-56"/>
      <use x="1324.511719" xlink:href="#DejaVuSansMono-53"/>
      <use x="1384.716797" xlink:href="#DejaVuSansMono-56"/>
      <use x="1444.921875" xlink:href="#DejaVuSansMono-48"/>
     </g>
     <!-- x_max  = 439 -->
     <g transform="translate(351.61237 48.584625)scale(0.06 -0.06)">
      <use xlink:href="#DejaVuSansMono-120"/>
      <use x="60.205078" xlink:href="#DejaVuSansMono-95"/>
      <use x="120.410156" xlink:href="#DejaVuSansMono-109"/>
      <use x="180.615234" xlink:href="#DejaVuSansMono-97"/>
      <use x="240.820312" xlink:href="#DejaVuSansMono-120"/>
      <use x="301.025391" xlink:href="#DejaVuSansMono-32"/>
      <use x="361.230469" xlink:href="#DejaVuSansMono-32"/>
      <use x="421.435547" xlink:href="#DejaVuSansMono-61"/>
      <use x="481.640625" xlink:href="#DejaVuSansMono-32"/>
      <use x="541.845703" xlink:href="#DejaVuSansMono-52"/>
      <use x="602.050781" xlink:href="#DejaVuSansMono-51"/>
      <use x="662.255859" xlink:href="#DejaVuSansMono-57"/>
     </g>
    </g>
    <g id="line2d_19">
     <path d="M 334.81237 66.499875 
L 346.81237 66.499875 
" style="fill:none;stroke:#ff7f0e;stroke-linecap:square;stroke-width:0.666667;"/>
    </g>
    <g id="line2d_20"/>
    <g id="text_19">
     <!-- "Widest":  -->
     <g transform="translate(351.61237 57.59025)scale(0.06 -0.06)">
      <defs>
       <path d="M 0 72.90625 
L 9.625 72.90625 
L 16.609375 13.71875 
L 24.90625 52.875 
L 35.203125 52.875 
L 43.609375 13.625 
L 50.59375 72.90625 
L 60.203125 72.90625 
L 49.3125 0 
L 39.984375 0 
L 30.078125 43.3125 
L 20.21875 0 
L 10.890625 0 
z
" id="DejaVuSansMono-87"/>
       <path d="M 12.5 54.6875 
L 35.5 54.6875 
L 35.5 6.984375 
L 53.328125 6.984375 
L 53.328125 0 
L 8.6875 0 
L 8.6875 6.984375 
L 26.515625 6.984375 
L 26.515625 47.703125 
L 12.5 47.703125 
z
M 26.515625 75.984375 
L 35.5 75.984375 
L 35.5 64.59375 
L 26.515625 64.59375 
z
" id="DejaVuSansMono-105"/>
       <path d="M 41.890625 47.703125 
L 41.890625 75.984375 
L 50.875 75.984375 
L 50.875 0 
L 41.890625 0 
L 41.890625 6.890625 
Q 39.65625 2.828125 35.90625 0.703125 
Q 32.171875 -1.421875 27.296875 -1.421875 
Q 17.390625 -1.421875 11.6875 6.265625 
Q 6 13.96875 6 27.484375 
Q 6 40.828125 11.71875 48.40625 
Q 17.4375 56 27.296875 56 
Q 32.234375 56 35.984375 53.875 
Q 39.75 51.765625 41.890625 47.703125 
z
M 15.484375 27.296875 
Q 15.484375 16.84375 18.796875 11.515625 
Q 22.125 6.203125 28.609375 6.203125 
Q 35.109375 6.203125 38.5 11.5625 
Q 41.890625 16.9375 41.890625 27.296875 
Q 41.890625 37.703125 38.5 43.046875 
Q 35.109375 48.390625 28.609375 48.390625 
Q 22.125 48.390625 18.796875 43.0625 
Q 15.484375 37.75 15.484375 27.296875 
z
" id="DejaVuSansMono-100"/>
      </defs>
      <use xlink:href="#DejaVuSansMono-34"/>
      <use x="60.205078" xlink:href="#DejaVuSansMono-87"/>
      <use x="120.410156" xlink:href="#DejaVuSansMono-105"/>
      <use x="180.615234" xlink:href="#DejaVuSansMono-100"/>
      <use x="240.820312" xlink:href="#DejaVuSansMono-101"/>
      <use x="301.025391" xlink:href="#DejaVuSansMono-115"/>
      <use x="361.230469" xlink:href="#DejaVuSansMono-116"/>
      <use x="421.435547" xlink:href="#DejaVuSansMono-34"/>
      <use x="481.640625" xlink:href="#DejaVuSansMono-58"/>
      <use x="541.845703" xlink:href="#DejaVuSansMono-32"/>
     </g>
     <!-- y_0    = 169941673 -->
     <g transform="translate(351.61237 64.347187)scale(0.06 -0.06)">
      <use xlink:href="#DejaVuSansMono-121"/>
      <use x="60.205078" xlink:href="#DejaVuSansMono-95"/>
      <use x="120.410156" xlink:href="#DejaVuSansMono-48"/>
      <use x="180.615234" xlink:href="#DejaVuSansMono-32"/>
      <use x="240.820312" xlink:href="#DejaVuSansMono-32"/>
      <use x="301.025391" xlink:href="#DejaVuSansMono-32"/>
      <use x="361.230469" xlink:href="#DejaVuSansMono-32"/>
      <use x="421.435547" xlink:href="#DejaVuSansMono-61"/>
      <use x="481.640625" xlink:href="#DejaVuSansMono-32"/>
      <use x="541.845703" xlink:href="#DejaVuSansMono-49"/>
      <use x="602.050781" xlink:href="#DejaVuSansMono-54"/>
      <use x="662.255859" xlink:href="#DejaVuSansMono-57"/>
      <use x="722.460938" xlink:href="#DejaVuSansMono-57"/>
      <use x="782.666016" xlink:href="#DejaVuSansMono-52"/>
      <use x="842.871094" xlink:href="#DejaVuSansMono-49"/>
      <use x="903.076172" xlink:href="#DejaVuSansMono-54"/>
      <use x="963.28125" xlink:href="#DejaVuSansMono-55"/>
      <use x="1023.486328" xlink:href="#DejaVuSansMono-51"/>
     </g>
     <!-- y_max  = 966616035460 -->
     <g transform="translate(351.61237 71.271)scale(0.06 -0.06)">
      <use xlink:href="#DejaVuSansMono-121"/>
      <use x="60.205078" xlink:href="#DejaVuSansMono-95"/>
      <use x="120.410156" xlink:href="#DejaVuSansMono-109"/>
      <use x="180.615234" xlink:href="#DejaVuSansMono-97"/>
      <use x="240.820312" xlink:href="#DejaVuSansMono-120"/>
      <use x="301.025391" xlink:href="#DejaVuSansMono-32"/>
      <use x="361.230469" xlink:href="#DejaVuSansMono-32"/>
      <use x="421.435547" xlink:href="#DejaVuSansMono-61"/>
      <use x="481.640625" xlink:href="#DejaVuSansMono-32"/>
      <use x="541.845703" xlink:href="#DejaVuSansMono-57"/>
      <use x="602.050781" xlink:href="#DejaVuSansMono-54"/>
      <use x="662.255859" xlink:href="#DejaVuSansMono-54"/>
      <use x="722.460938" xlink:href="#DejaVuSansMono-54"/>
      <use x="782.666016" xlink:href="#DejaVuSansMono-49"/>
      <use x="842.871094" xlink:href="#DejaVuSansMono-54"/>
      <use x="903.076172" xlink:href="#DejaVuSansMono-48"/>
      <use x="963.28125" xlink:href="#DejaVuSansMono-51"/>
      <use x="1023.486328" xlink:href="#DejaVuSansMono-53"/>
      <use x="1083.691406" xlink:href="#DejaVuSansMono-52"/>
      <use x="1143.896484" xlink:href="#DejaVuSansMono-54"/>
      <use x="1204.101562" xlink:href="#DejaVuSansMono-48"/>
     </g>
     <!-- x_max  = 954 -->
     <g transform="translate(351.61237 78.194812)scale(0.06 -0.06)">
      <use xlink:href="#DejaVuSansMono-120"/>
      <use x="60.205078" xlink:href="#DejaVuSansMono-95"/>
      <use x="120.410156" xlink:href="#DejaVuSansMono-109"/>
      <use x="180.615234" xlink:href="#DejaVuSansMono-97"/>
      <use x="240.820312" xlink:href="#DejaVuSansMono-120"/>
      <use x="301.025391" xlink:href="#DejaVuSansMono-32"/>
      <use x="361.230469" xlink:href="#DejaVuSansMono-32"/>
      <use x="421.435547" xlink:href="#DejaVuSansMono-61"/>
      <use x="481.640625" xlink:href="#DejaVuSansMono-32"/>
      <use x="541.845703" xlink:href="#DejaVuSansMono-57"/>
      <use x="602.050781" xlink:href="#DejaVuSansMono-53"/>
      <use x="662.255859" xlink:href="#DejaVuSansMono-52"/>
     </g>
    </g>
   </g>
  </g>
 </g>
 <defs>
  <clipPath id="p2aa5d371cf">
   <rect height="298.453375" width="411.458308" x="35.85875" y="17.989125"/>
  </clipPath>
 </defs>
</svg>
