<?xml version="1.0" encoding="utf-8" standalone="no"?>
<!DOCTYPE svg PUBLIC "-//W3C//DTD SVG 1.1//EN"
  "http://www.w3.org/Graphics/SVG/1.1/DTD/svg11.dtd">
<!-- Created with matplotlib (https://matplotlib.org/) -->
<svg height="345.6pt" version="1.1" viewBox="0 0 460.8 345.6" width="460.8pt" xmlns="http://www.w3.org/2000/svg" xmlns:xlink="http://www.w3.org/1999/xlink">
 <metadata>
  <rdf:RDF xmlns:cc="http://creativecommons.org/ns#" xmlns:dc="http://purl.org/dc/elements/1.1/" xmlns:rdf="http://www.w3.org/1999/02/22-rdf-syntax-ns#">
   <cc:Work>
    <dc:type rdf:resource="http://purl.org/dc/dcmitype/StillImage"/>
    <dc:date>2022-03-17T10:21:53.626388</dc:date>
    <dc:format>image/svg+xml</dc:format>
    <dc:creator>
     <cc:Agent>
      <dc:title>Matplotlib v3.3.2, https://matplotlib.org/</dc:title>
     </cc:Agent>
    </dc:creator>
   </cc:Work>
  </rdf:RDF>
 </metadata>
 <defs>
  <style type="text/css">*{stroke-linecap:butt;stroke-linejoin:round;}</style>
 </defs>
 <g id="figure_1">
  <g id="patch_1">
   <path d="M 0 345.6 
L 460.8 345.6 
L 460.8 0 
L 0 0 
z
" style="fill:#ffffff;"/>
  </g>
  <g id="axes_1">
   <g id="patch_2">
    <path d="M 35.85875 316.4425 
L 448.386093 316.4425 
L 448.386093 17.989125 
L 35.85875 17.989125 
z
" style="fill:#ffffff;"/>
   </g>
   <g id="matplotlib.axis_1">
    <g id="xtick_1">
     <g id="line2d_1">
      <defs>
       <path d="M 0 0 
L 0 3.5 
" id="m054f4ef5f7" style="stroke:#000000;stroke-width:0.8;"/>
      </defs>
      <g>
       <use style="stroke:#000000;stroke-width:0.8;" x="54.609993" xlink:href="#m054f4ef5f7" y="316.4425"/>
      </g>
     </g>
     <g id="text_1">
      <!-- 0 -->
      <g transform="translate(52.803899 328.033437)scale(0.06 -0.06)">
       <defs>
        <path d="M 23.578125 36.625 
Q 23.578125 39.3125 25.453125 41.265625 
Q 27.34375 43.21875 29.984375 43.21875 
Q 32.71875 43.21875 34.671875 41.265625 
Q 36.625 39.3125 36.625 36.625 
Q 36.625 33.890625 34.6875 31.984375 
Q 32.765625 30.078125 29.984375 30.078125 
Q 27.25 30.078125 25.40625 31.9375 
Q 23.578125 33.796875 23.578125 36.625 
z
M 30.078125 66.40625 
Q 23.1875 66.40625 19.796875 58.984375 
Q 16.40625 51.5625 16.40625 36.375 
Q 16.40625 21.234375 19.796875 13.8125 
Q 23.1875 6.390625 30.078125 6.390625 
Q 37.015625 6.390625 40.40625 13.8125 
Q 43.796875 21.234375 43.796875 36.375 
Q 43.796875 51.5625 40.40625 58.984375 
Q 37.015625 66.40625 30.078125 66.40625 
z
M 30.078125 74.21875 
Q 41.75 74.21875 47.734375 64.640625 
Q 53.71875 55.078125 53.71875 36.375 
Q 53.71875 17.71875 47.734375 8.140625 
Q 41.75 -1.421875 30.078125 -1.421875 
Q 18.40625 -1.421875 12.453125 8.140625 
Q 6.5 17.71875 6.5 36.375 
Q 6.5 55.078125 12.453125 64.640625 
Q 18.40625 74.21875 30.078125 74.21875 
z
" id="DejaVuSansMono-48"/>
       </defs>
       <use xlink:href="#DejaVuSansMono-48"/>
      </g>
     </g>
    </g>
    <g id="xtick_2">
     <g id="line2d_2">
      <g>
       <use style="stroke:#000000;stroke-width:0.8;" x="133.067076" xlink:href="#m054f4ef5f7" y="316.4425"/>
      </g>
     </g>
     <g id="text_2">
      <!-- 200 -->
      <g transform="translate(127.648795 328.033437)scale(0.06 -0.06)">
       <defs>
        <path d="M 18.21875 8.296875 
L 51.703125 8.296875 
L 51.703125 0 
L 7.421875 0 
L 7.421875 8.296875 
Q 16.546875 17.921875 23.375 25.296875 
Q 30.21875 32.671875 32.8125 35.6875 
Q 37.703125 41.65625 39.40625 45.34375 
Q 41.109375 49.03125 41.109375 52.875 
Q 41.109375 58.984375 37.515625 62.453125 
Q 33.9375 65.921875 27.6875 65.921875 
Q 23.25 65.921875 18.359375 64.3125 
Q 13.484375 62.703125 8.015625 59.421875 
L 8.015625 69.390625 
Q 13.03125 71.78125 17.890625 73 
Q 22.75 74.21875 27.484375 74.21875 
Q 38.1875 74.21875 44.703125 68.53125 
Q 51.21875 62.84375 51.21875 53.609375 
Q 51.21875 48.921875 49.046875 44.234375 
Q 46.875 39.546875 42 33.890625 
Q 39.265625 30.71875 34.0625 25.09375 
Q 28.859375 19.484375 18.21875 8.296875 
z
" id="DejaVuSansMono-50"/>
       </defs>
       <use xlink:href="#DejaVuSansMono-50"/>
       <use x="60.205078" xlink:href="#DejaVuSansMono-48"/>
       <use x="120.410156" xlink:href="#DejaVuSansMono-48"/>
      </g>
     </g>
    </g>
    <g id="xtick_3">
     <g id="line2d_3">
      <g>
       <use style="stroke:#000000;stroke-width:0.8;" x="211.524159" xlink:href="#m054f4ef5f7" y="316.4425"/>
      </g>
     </g>
     <g id="text_3">
      <!-- 400 -->
      <g transform="translate(206.105878 328.033437)scale(0.06 -0.06)">
       <defs>
        <path d="M 35.890625 63.921875 
L 12.890625 25.390625 
L 35.890625 25.390625 
z
M 34.28125 72.90625 
L 45.703125 72.90625 
L 45.703125 25.390625 
L 55.421875 25.390625 
L 55.421875 17.390625 
L 45.703125 17.390625 
L 45.703125 0 
L 35.890625 0 
L 35.890625 17.390625 
L 4.984375 17.390625 
L 4.984375 26.703125 
z
" id="DejaVuSansMono-52"/>
       </defs>
       <use xlink:href="#DejaVuSansMono-52"/>
       <use x="60.205078" xlink:href="#DejaVuSansMono-48"/>
       <use x="120.410156" xlink:href="#DejaVuSansMono-48"/>
      </g>
     </g>
    </g>
    <g id="xtick_4">
     <g id="line2d_4">
      <g>
       <use style="stroke:#000000;stroke-width:0.8;" x="289.981242" xlink:href="#m054f4ef5f7" y="316.4425"/>
      </g>
     </g>
     <g id="text_4">
      <!-- 600 -->
      <g transform="translate(284.562961 328.033437)scale(0.06 -0.06)">
       <defs>
        <path d="M 48.390625 71.296875 
L 48.390625 62.203125 
Q 45.3125 64.015625 41.84375 64.96875 
Q 38.375 65.921875 34.625 65.921875 
Q 25.25 65.921875 20.40625 58.859375 
Q 15.578125 51.8125 15.578125 38.09375 
Q 17.921875 42.96875 22.0625 45.578125 
Q 26.21875 48.1875 31.59375 48.1875 
Q 42.140625 48.1875 47.921875 41.71875 
Q 53.71875 35.25 53.71875 23.390625 
Q 53.71875 11.578125 47.75 5.078125 
Q 41.796875 -1.421875 31 -1.421875 
Q 18.3125 -1.421875 12.40625 7.6875 
Q 6.5 16.796875 6.5 36.375 
Q 6.5 54.828125 13.59375 64.515625 
Q 20.703125 74.21875 34.1875 74.21875 
Q 37.796875 74.21875 41.40625 73.453125 
Q 45.015625 72.703125 48.390625 71.296875 
z
M 30.8125 40.484375 
Q 24.515625 40.484375 20.890625 35.9375 
Q 17.28125 31.390625 17.28125 23.390625 
Q 17.28125 15.375 20.890625 10.828125 
Q 24.515625 6.296875 30.8125 6.296875 
Q 37.359375 6.296875 40.671875 10.609375 
Q 44 14.9375 44 23.390625 
Q 44 31.890625 40.671875 36.1875 
Q 37.359375 40.484375 30.8125 40.484375 
z
" id="DejaVuSansMono-54"/>
       </defs>
       <use xlink:href="#DejaVuSansMono-54"/>
       <use x="60.205078" xlink:href="#DejaVuSansMono-48"/>
       <use x="120.410156" xlink:href="#DejaVuSansMono-48"/>
      </g>
     </g>
    </g>
    <g id="xtick_5">
     <g id="line2d_5">
      <g>
       <use style="stroke:#000000;stroke-width:0.8;" x="368.438325" xlink:href="#m054f4ef5f7" y="316.4425"/>
      </g>
     </g>
     <g id="text_5">
      <!-- 800 -->
      <g transform="translate(363.020044 328.033437)scale(0.06 -0.06)">
       <defs>
        <path d="M 30.078125 34.625 
Q 23.484375 34.625 19.890625 30.9375 
Q 16.3125 27.25 16.3125 20.515625 
Q 16.3125 13.765625 19.9375 10.03125 
Q 23.578125 6.296875 30.078125 6.296875 
Q 36.71875 6.296875 40.296875 9.984375 
Q 43.890625 13.671875 43.890625 20.515625 
Q 43.890625 27.203125 40.25 30.90625 
Q 36.625 34.625 30.078125 34.625 
z
M 21.484375 38.71875 
Q 15.1875 40.328125 11.640625 44.71875 
Q 8.109375 49.125 8.109375 55.328125 
Q 8.109375 64.015625 14.015625 69.109375 
Q 19.921875 74.21875 30.078125 74.21875 
Q 40.28125 74.21875 46.1875 69.109375 
Q 52.09375 64.015625 52.09375 55.328125 
Q 52.09375 49.125 48.546875 44.71875 
Q 45.015625 40.328125 38.71875 38.71875 
Q 46.046875 37.109375 49.921875 32.21875 
Q 53.8125 27.34375 53.8125 19.578125 
Q 53.8125 9.71875 47.515625 4.140625 
Q 41.21875 -1.421875 30.078125 -1.421875 
Q 18.953125 -1.421875 12.671875 4.125 
Q 6.390625 9.671875 6.390625 19.484375 
Q 6.390625 27.296875 10.265625 32.203125 
Q 14.15625 37.109375 21.484375 38.71875 
z
M 17.921875 54.390625 
Q 17.921875 48.53125 21.046875 45.453125 
Q 24.171875 42.390625 30.078125 42.390625 
Q 36.03125 42.390625 39.15625 45.453125 
Q 42.28125 48.53125 42.28125 54.390625 
Q 42.28125 60.359375 39.171875 63.484375 
Q 36.078125 66.609375 30.078125 66.609375 
Q 24.171875 66.609375 21.046875 63.453125 
Q 17.921875 60.296875 17.921875 54.390625 
z
" id="DejaVuSansMono-56"/>
       </defs>
       <use xlink:href="#DejaVuSansMono-56"/>
       <use x="60.205078" xlink:href="#DejaVuSansMono-48"/>
       <use x="120.410156" xlink:href="#DejaVuSansMono-48"/>
      </g>
     </g>
    </g>
    <g id="xtick_6">
     <g id="line2d_6">
      <g>
       <use style="stroke:#000000;stroke-width:0.8;" x="446.895408" xlink:href="#m054f4ef5f7" y="316.4425"/>
      </g>
     </g>
     <g id="text_6">
      <!-- 1000 -->
      <g transform="translate(439.671033 328.033437)scale(0.06 -0.06)">
       <defs>
        <path d="M 13.1875 8.296875 
L 28.515625 8.296875 
L 28.515625 64.015625 
L 12.015625 60.296875 
L 12.015625 69.28125 
L 28.421875 72.90625 
L 38.28125 72.90625 
L 38.28125 8.296875 
L 53.421875 8.296875 
L 53.421875 0 
L 13.1875 0 
z
" id="DejaVuSansMono-49"/>
       </defs>
       <use xlink:href="#DejaVuSansMono-49"/>
       <use x="60.205078" xlink:href="#DejaVuSansMono-48"/>
       <use x="120.410156" xlink:href="#DejaVuSansMono-48"/>
       <use x="180.615234" xlink:href="#DejaVuSansMono-48"/>
      </g>
     </g>
    </g>
    <g id="text_7">
     <!-- n -->
     <g transform="translate(240.316328 337.872187)scale(0.06 -0.06)">
      <defs>
       <path d="M 51.3125 33.890625 
L 51.3125 0 
L 42.28125 0 
L 42.28125 33.890625 
Q 42.28125 41.265625 39.6875 44.71875 
Q 37.109375 48.1875 31.59375 48.1875 
Q 25.296875 48.1875 21.890625 43.71875 
Q 18.5 39.265625 18.5 30.90625 
L 18.5 0 
L 9.515625 0 
L 9.515625 54.6875 
L 18.5 54.6875 
L 18.5 46.484375 
Q 20.90625 51.171875 25 53.578125 
Q 29.109375 56 34.71875 56 
Q 43.0625 56 47.1875 50.5 
Q 51.3125 45.015625 51.3125 33.890625 
z
" id="DejaVuSansMono-110"/>
      </defs>
      <use xlink:href="#DejaVuSansMono-110"/>
     </g>
    </g>
   </g>
   <g id="matplotlib.axis_2">
    <g id="ytick_1">
     <g id="line2d_7">
      <defs>
       <path d="M 0 0 
L -3.5 0 
" id="m5cca32dadb" style="stroke:#000000;stroke-width:0.8;"/>
      </defs>
      <g>
       <use style="stroke:#000000;stroke-width:0.8;" x="35.85875" xlink:href="#m5cca32dadb" y="285.711274"/>
      </g>
     </g>
     <g id="text_8">
      <!-- $\mathdefault{10^{1}}$ -->
      <g transform="translate(18.83875 288.006743)scale(0.06 -0.06)">
       <use transform="translate(0 0.684375)" xlink:href="#DejaVuSansMono-49"/>
       <use transform="translate(60.205078 0.684375)" xlink:href="#DejaVuSansMono-48"/>
       <use transform="translate(121.367188 38.965625)scale(0.7)" xlink:href="#DejaVuSansMono-49"/>
      </g>
     </g>
    </g>
    <g id="ytick_2">
     <g id="line2d_8">
      <g>
       <use style="stroke:#000000;stroke-width:0.8;" x="35.85875" xlink:href="#m5cca32dadb" y="251.380947"/>
      </g>
     </g>
     <g id="text_9">
      <!-- $\mathdefault{10^{3}}$ -->
      <g transform="translate(18.83875 253.676416)scale(0.06 -0.06)">
       <defs>
        <path d="M 37.890625 39.015625 
Q 45.0625 37.109375 48.875 32.25 
Q 52.6875 27.390625 52.6875 20.125 
Q 52.6875 10.0625 45.921875 4.3125 
Q 39.15625 -1.421875 27.203125 -1.421875 
Q 22.171875 -1.421875 16.9375 -0.484375 
Q 11.71875 0.4375 6.6875 2.203125 
L 6.6875 12.015625 
Q 11.671875 9.421875 16.5 8.15625 
Q 21.34375 6.890625 26.125 6.890625 
Q 34.234375 6.890625 38.578125 10.546875 
Q 42.921875 14.203125 42.921875 21.09375 
Q 42.921875 27.4375 38.578125 31.171875 
Q 34.234375 34.90625 26.8125 34.90625 
L 19.28125 34.90625 
L 19.28125 43.015625 
L 26.8125 43.015625 
Q 33.59375 43.015625 37.40625 45.984375 
Q 41.21875 48.96875 41.21875 54.296875 
Q 41.21875 59.90625 37.671875 62.90625 
Q 34.125 65.921875 27.59375 65.921875 
Q 23.25 65.921875 18.609375 64.9375 
Q 13.96875 63.96875 8.890625 62.015625 
L 8.890625 71.09375 
Q 14.796875 72.65625 19.40625 73.4375 
Q 24.03125 74.21875 27.59375 74.21875 
Q 38.234375 74.21875 44.609375 68.875 
Q 50.984375 63.53125 50.984375 54.6875 
Q 50.984375 48.6875 47.625 44.671875 
Q 44.28125 40.671875 37.890625 39.015625 
z
" id="DejaVuSansMono-51"/>
       </defs>
       <use transform="translate(0 0.765625)" xlink:href="#DejaVuSansMono-49"/>
       <use transform="translate(60.205078 0.765625)" xlink:href="#DejaVuSansMono-48"/>
       <use transform="translate(121.367188 39.046875)scale(0.7)" xlink:href="#DejaVuSansMono-51"/>
      </g>
     </g>
    </g>
    <g id="ytick_3">
     <g id="line2d_9">
      <g>
       <use style="stroke:#000000;stroke-width:0.8;" x="35.85875" xlink:href="#m5cca32dadb" y="217.05062"/>
      </g>
     </g>
     <g id="text_10">
      <!-- $\mathdefault{10^{5}}$ -->
      <g transform="translate(18.83875 219.346089)scale(0.06 -0.06)">
       <defs>
        <path d="M 10.109375 72.90625 
L 47.015625 72.90625 
L 47.015625 64.59375 
L 19.09375 64.59375 
L 19.09375 46.6875 
Q 21.1875 47.46875 23.3125 47.828125 
Q 25.4375 48.1875 27.59375 48.1875 
Q 38.921875 48.1875 45.5625 41.5 
Q 52.203125 34.8125 52.203125 23.390625 
Q 52.203125 11.859375 45.234375 5.21875 
Q 38.28125 -1.421875 26.21875 -1.421875 
Q 20.40625 -1.421875 15.59375 -0.640625 
Q 10.796875 0.140625 6.984375 1.703125 
L 6.984375 11.71875 
Q 11.46875 9.28125 16.015625 8.078125 
Q 20.5625 6.890625 25.296875 6.890625 
Q 33.453125 6.890625 37.859375 11.1875 
Q 42.28125 15.484375 42.28125 23.390625 
Q 42.28125 31.203125 37.71875 35.546875 
Q 33.15625 39.890625 25 39.890625 
Q 21.046875 39.890625 17.28125 38.984375 
Q 13.53125 38.09375 10.109375 36.28125 
z
" id="DejaVuSansMono-53"/>
       </defs>
       <use transform="translate(0 0.684375)" xlink:href="#DejaVuSansMono-49"/>
       <use transform="translate(60.205078 0.684375)" xlink:href="#DejaVuSansMono-48"/>
       <use transform="translate(121.367188 38.965625)scale(0.7)" xlink:href="#DejaVuSansMono-53"/>
      </g>
     </g>
    </g>
    <g id="ytick_4">
     <g id="line2d_10">
      <g>
       <use style="stroke:#000000;stroke-width:0.8;" x="35.85875" xlink:href="#m5cca32dadb" y="182.720293"/>
      </g>
     </g>
     <g id="text_11">
      <!-- $\mathdefault{10^{7}}$ -->
      <g transform="translate(18.83875 185.015761)scale(0.06 -0.06)">
       <defs>
        <path d="M 6.78125 72.90625 
L 52.6875 72.90625 
L 52.6875 68.703125 
L 26.609375 0 
L 16.3125 0 
L 41.703125 64.59375 
L 6.78125 64.59375 
z
" id="DejaVuSansMono-55"/>
       </defs>
       <use transform="translate(0 0.684375)" xlink:href="#DejaVuSansMono-49"/>
       <use transform="translate(60.205078 0.684375)" xlink:href="#DejaVuSansMono-48"/>
       <use transform="translate(121.367188 38.965625)scale(0.7)" xlink:href="#DejaVuSansMono-55"/>
      </g>
     </g>
    </g>
    <g id="ytick_5">
     <g id="line2d_11">
      <g>
       <use style="stroke:#000000;stroke-width:0.8;" x="35.85875" xlink:href="#m5cca32dadb" y="148.389966"/>
      </g>
     </g>
     <g id="text_12">
      <!-- $\mathdefault{10^{9}}$ -->
      <g transform="translate(18.83875 150.685434)scale(0.06 -0.06)">
       <defs>
        <path d="M 29.109375 32.328125 
Q 35.40625 32.328125 38.984375 36.859375 
Q 42.578125 41.40625 42.578125 49.421875 
Q 42.578125 57.421875 38.984375 61.953125 
Q 35.40625 66.5 29.109375 66.5 
Q 22.5625 66.5 19.234375 62.171875 
Q 15.921875 57.859375 15.921875 49.421875 
Q 15.921875 40.921875 19.21875 36.625 
Q 22.515625 32.328125 29.109375 32.328125 
z
M 11.53125 1.515625 
L 11.53125 10.59375 
Q 14.59375 8.796875 18.0625 7.84375 
Q 21.53125 6.890625 25.296875 6.890625 
Q 34.671875 6.890625 39.46875 13.9375 
Q 44.28125 21 44.28125 34.71875 
Q 42 29.828125 37.84375 27.21875 
Q 33.6875 24.609375 28.328125 24.609375 
Q 17.78125 24.609375 11.984375 31.09375 
Q 6.203125 37.59375 6.203125 49.515625 
Q 6.203125 61.28125 12.125 67.75 
Q 18.0625 74.21875 28.90625 74.21875 
Q 41.609375 74.21875 47.515625 65.078125 
Q 53.421875 55.953125 53.421875 36.375 
Q 53.421875 17.96875 46.3125 8.265625 
Q 39.203125 -1.421875 25.6875 -1.421875 
Q 22.125 -1.421875 18.5 -0.65625 
Q 14.890625 0.09375 11.53125 1.515625 
z
" id="DejaVuSansMono-57"/>
       </defs>
       <use transform="translate(0 0.765625)" xlink:href="#DejaVuSansMono-49"/>
       <use transform="translate(60.205078 0.765625)" xlink:href="#DejaVuSansMono-48"/>
       <use transform="translate(121.367188 39.046875)scale(0.7)" xlink:href="#DejaVuSansMono-57"/>
      </g>
     </g>
    </g>
    <g id="ytick_6">
     <g id="line2d_12">
      <g>
       <use style="stroke:#000000;stroke-width:0.8;" x="35.85875" xlink:href="#m5cca32dadb" y="114.059638"/>
      </g>
     </g>
     <g id="text_13">
      <!-- $\mathdefault{10^{11}}$ -->
      <g transform="translate(16.31875 116.355107)scale(0.06 -0.06)">
       <use transform="translate(0 0.684375)" xlink:href="#DejaVuSansMono-49"/>
       <use transform="translate(60.205078 0.684375)" xlink:href="#DejaVuSansMono-48"/>
       <use transform="translate(121.367188 38.965625)scale(0.7)" xlink:href="#DejaVuSansMono-49"/>
       <use transform="translate(163.510742 38.965625)scale(0.7)" xlink:href="#DejaVuSansMono-49"/>
      </g>
     </g>
    </g>
    <g id="ytick_7">
     <g id="line2d_13">
      <g>
       <use style="stroke:#000000;stroke-width:0.8;" x="35.85875" xlink:href="#m5cca32dadb" y="79.729311"/>
      </g>
     </g>
     <g id="text_14">
      <!-- $\mathdefault{10^{13}}$ -->
      <g transform="translate(16.31875 82.02478)scale(0.06 -0.06)">
       <use transform="translate(0 0.765625)" xlink:href="#DejaVuSansMono-49"/>
       <use transform="translate(60.205078 0.765625)" xlink:href="#DejaVuSansMono-48"/>
       <use transform="translate(121.367188 39.046875)scale(0.7)" xlink:href="#DejaVuSansMono-49"/>
       <use transform="translate(163.510742 39.046875)scale(0.7)" xlink:href="#DejaVuSansMono-51"/>
      </g>
     </g>
    </g>
    <g id="ytick_8">
     <g id="line2d_14">
      <g>
       <use style="stroke:#000000;stroke-width:0.8;" x="35.85875" xlink:href="#m5cca32dadb" y="45.398984"/>
      </g>
     </g>
     <g id="text_15">
      <!-- $\mathdefault{10^{15}}$ -->
      <g transform="translate(16.31875 47.694453)scale(0.06 -0.06)">
       <use transform="translate(0 0.684375)" xlink:href="#DejaVuSansMono-49"/>
       <use transform="translate(60.205078 0.684375)" xlink:href="#DejaVuSansMono-48"/>
       <use transform="translate(121.367188 38.965625)scale(0.7)" xlink:href="#DejaVuSansMono-49"/>
       <use transform="translate(163.510742 38.965625)scale(0.7)" xlink:href="#DejaVuSansMono-53"/>
      </g>
     </g>
    </g>
    <g id="text_16">
     <!-- y_n -->
     <g transform="translate(10.904063 172.634094)rotate(-90)scale(0.06 -0.06)">
      <defs>
       <path d="M 41.890625 17.578125 
Q 39.65625 11.859375 36.1875 2.546875 
Q 31.34375 -10.359375 29.6875 -13.1875 
Q 27.4375 -17 24.0625 -18.890625 
Q 20.703125 -20.796875 16.21875 -20.796875 
L 8.984375 -20.796875 
L 8.984375 -13.28125 
L 14.3125 -13.28125 
Q 18.265625 -13.28125 20.5 -10.984375 
Q 22.75 -8.6875 26.21875 0.875 
L 5.078125 54.6875 
L 14.59375 54.6875 
L 30.8125 11.921875 
L 46.78125 54.6875 
L 56.296875 54.6875 
z
" id="DejaVuSansMono-121"/>
       <path d="M 60.203125 -19.671875 
L 60.203125 -23.578125 
L 0 -23.578125 
L 0 -19.671875 
z
" id="DejaVuSansMono-95"/>
      </defs>
      <use xlink:href="#DejaVuSansMono-121"/>
      <use x="60.205078" xlink:href="#DejaVuSansMono-95"/>
      <use x="120.410156" xlink:href="#DejaVuSansMono-110"/>
     </g>
    </g>
   </g>
   <g id="line2d_15">
    <path clip-path="url(#p341fa04cc0)" d="M 54.609993 159.990026 
L 55.002278 151.800162 
L 55.394564 156.967391 
L 55.786849 148.777527 
L 56.179135 153.944756 
L 56.57142 145.754891 
L 56.963705 150.92212 
L 57.355991 142.732256 
L 57.748276 147.899485 
L 58.140562 139.709621 
L 58.925132 150.044079 
L 59.317418 141.854215 
L 59.709703 147.021444 
L 60.101989 138.831579 
L 61.278845 154.333267 
L 61.67113 146.143402 
L 62.063416 151.310631 
L 62.455701 143.120767 
L 62.847987 148.287996 
L 63.240272 140.098132 
L 63.632557 145.265361 
L 64.024843 137.075496 
L 64.417128 142.242726 
L 64.809414 134.052861 
L 65.593984 144.387319 
L 65.98627 136.197455 
L 66.378555 141.364684 
L 66.770841 133.17482 
L 67.555412 143.509278 
L 67.947697 135.319414 
L 68.339982 140.486643 
L 68.732268 132.296778 
L 69.124553 137.464008 
L 69.516839 129.274143 
L 69.909124 134.441372 
L 70.301409 126.251508 
L 70.693695 131.418737 
L 71.08598 123.228873 
L 72.262837 138.73056 
L 72.655122 130.540696 
L 73.439693 140.875154 
L 73.831978 132.685289 
L 74.224264 137.852519 
L 74.616549 129.662654 
L 75.008834 134.829883 
L 75.40112 126.640019 
L 76.185691 136.974477 
L 76.577976 128.784613 
L 76.970262 133.951842 
L 77.362547 125.761977 
L 77.754832 130.929207 
L 78.147118 122.739342 
L 78.539403 127.906571 
L 78.931689 119.716707 
L 79.716259 130.051165 
L 80.108545 121.861301 
L 80.50083 127.02853 
L 80.893116 118.838666 
L 81.285401 124.005895 
L 81.677687 115.81603 
L 82.069972 120.983259 
L 82.462257 112.793395 
L 82.854543 117.960624 
L 83.246828 109.77076 
L 84.423684 125.272447 
L 84.81597 117.082583 
L 85.208255 122.249812 
L 85.600541 114.059947 
L 85.992826 119.227177 
L 86.385112 111.037312 
L 86.777397 116.204541 
L 87.169682 108.014677 
L 87.561968 113.181906 
L 87.954253 104.992042 
L 88.738824 115.3265 
L 89.131109 107.136636 
L 89.523395 112.303865 
L 89.91568 104.114 
L 90.700251 114.448458 
L 91.092536 106.258594 
L 91.484822 111.425823 
L 91.877107 103.235959 
L 92.269393 108.403188 
L 92.661678 100.213324 
L 93.838534 115.715011 
L 94.23082 107.525147 
L 94.623105 112.692376 
L 95.015391 104.502511 
L 96.192247 120.004199 
L 96.584532 111.814334 
L 96.976818 116.981563 
L 97.369103 108.791699 
L 97.761389 113.958928 
L 98.153674 105.769064 
L 98.545959 110.936293 
L 98.938245 102.746428 
L 99.722816 113.080887 
L 100.115101 104.891022 
L 100.507386 110.058251 
L 100.899672 101.868387 
L 102.076528 117.370074 
L 102.468814 109.18021 
L 102.861099 114.347439 
L 103.253384 106.157575 
L 103.64567 111.324804 
L 104.037955 103.134939 
L 104.430241 108.302169 
L 104.822526 100.112304 
L 105.214811 105.279533 
L 105.607097 97.089669 
L 105.999382 102.256898 
L 106.391668 94.067034 
L 106.783953 99.234263 
L 107.176239 91.044398 
L 107.960809 101.378857 
L 108.353095 93.188992 
L 109.137666 103.52345 
L 109.529951 95.333586 
L 109.922236 100.500815 
L 110.314522 92.310951 
L 110.706807 97.47818 
L 111.099093 89.288316 
L 112.275949 104.790003 
L 112.668234 96.600139 
L 113.06052 101.767368 
L 113.452805 93.577503 
L 113.845091 98.744732 
L 114.237376 90.554868 
L 114.629661 95.722097 
L 115.021947 87.532233 
L 115.414232 92.699462 
L 115.806518 84.509597 
L 116.198803 89.676827 
L 116.591088 81.486962 
L 116.983374 86.654191 
L 117.375659 78.464327 
L 117.767945 83.631556 
L 118.16023 75.441692 
L 118.552516 80.608921 
L 118.944801 72.419056 
L 119.337086 77.586286 
L 119.729372 69.396421 
L 120.121657 74.56365 
L 120.513943 66.373786 
L 120.906228 71.541015 
L 121.298513 63.351151 
L 121.690799 68.51838 
L 122.083084 60.328515 
L 123.259941 75.830203 
L 123.652226 67.640338 
L 124.044511 72.807567 
L 124.436797 64.617703 
L 124.829082 69.784932 
L 125.221368 61.595068 
L 125.613653 66.762297 
L 126.005938 58.572433 
L 126.398224 63.739662 
L 126.790509 55.549797 
L 127.182795 60.717026 
L 127.57508 52.527162 
L 127.967366 57.694391 
L 128.359651 49.504527 
L 128.751936 54.671756 
L 129.144222 46.481892 
L 129.536507 51.649121 
L 129.928793 43.459256 
L 130.713363 53.793714 
L 131.105649 45.60385 
L 131.89022 55.938308 
L 132.282505 47.748444 
L 132.674791 52.915673 
L 133.067076 44.725809 
L 133.851647 55.060267 
L 134.243932 46.870403 
L 134.636218 52.037632 
L 135.028503 43.847767 
L 135.420788 49.014996 
L 135.813074 40.825132 
L 136.205359 45.992361 
L 136.597645 37.802497 
L 137.382216 48.136955 
L 137.774501 39.947091 
L 138.166786 45.11432 
L 138.559072 36.924455 
L 139.343643 47.258914 
L 139.735928 39.069049 
L 140.128213 44.236278 
L 140.520499 36.046414 
L 141.697355 51.548101 
L 142.08964 43.358237 
L 143.266497 58.859924 
L 143.658782 50.67006 
L 144.443353 61.004518 
L 144.835638 52.814654 
L 145.620209 63.149112 
L 146.012495 54.959248 
L 146.40478 60.126477 
L 146.797065 51.936612 
L 147.581636 62.271071 
L 147.973922 54.081206 
L 148.366207 59.248435 
L 148.758493 51.058571 
L 149.150778 56.2258 
L 149.543063 48.035936 
L 149.935349 53.203165 
L 150.327634 45.0133 
L 150.71992 50.180529 
L 151.112205 41.990665 
L 151.50449 47.157894 
L 151.896776 38.96803 
L 153.073632 54.469717 
L 153.465918 46.279853 
L 154.250488 56.614311 
L 154.642774 48.424447 
L 155.035059 53.591676 
L 155.427345 45.401811 
L 155.81963 50.56904 
L 156.211915 42.379176 
L 156.604201 47.546405 
L 156.996486 39.356541 
L 157.781057 49.690999 
L 158.173343 41.501135 
L 158.957913 51.835593 
L 159.350199 43.645729 
L 159.742484 48.812958 
L 160.13477 40.623093 
L 160.527055 45.790322 
L 160.91934 37.600458 
L 161.311626 42.767687 
L 161.703911 34.577823 
L 162.096197 39.745052 
L 162.488482 31.555187 
L 164.057624 52.224104 
L 164.449909 44.03424 
L 164.842195 49.201469 
L 165.23448 41.011604 
L 165.626765 46.178833 
L 166.019051 37.988969 
L 166.411336 43.156198 
L 166.803622 34.966334 
L 167.195907 40.133563 
L 167.588192 31.943699 
L 169.157334 52.612615 
L 169.54962 44.422751 
L 170.33419 54.757209 
L 170.726476 46.567344 
L 171.118761 51.734574 
L 171.511047 43.544709 
L 171.903332 48.711938 
L 172.295617 40.522074 
L 173.864759 61.19099 
L 174.257045 53.001126 
L 174.64933 58.168355 
L 175.041615 49.978491 
L 176.218472 65.480178 
L 176.610757 57.290314 
L 177.003042 62.457543 
L 177.395328 54.267678 
L 178.179899 64.602137 
L 178.572184 56.412272 
L 179.74904 71.91396 
L 180.141326 63.724095 
L 180.533611 68.891324 
L 180.925897 60.70146 
L 182.495038 81.370376 
L 182.887324 73.180512 
L 186.025607 114.518345 
L 186.417892 106.328481 
L 187.594749 121.830168 
L 187.987034 113.640303 
L 188.37932 118.807533 
L 188.771605 110.617668 
L 189.948461 126.119356 
L 190.340747 117.929491 
L 190.733032 123.09672 
L 191.125317 114.906856 
L 192.694459 135.575772 
L 193.086745 127.385908 
L 193.47903 132.553137 
L 193.871315 124.363273 
L 194.263601 129.530502 
L 194.655886 121.340637 
L 195.440457 131.675096 
L 195.832742 123.485231 
L 196.225028 128.65246 
L 196.617313 120.462596 
L 197.009599 125.629825 
L 197.401884 117.439961 
L 198.57874 132.941648 
L 198.971026 124.751784 
L 199.363311 129.919013 
L 199.755597 121.729148 
L 200.540167 132.063607 
L 200.932453 123.873742 
L 201.324738 129.040971 
L 201.717024 120.851107 
L 203.286165 141.520023 
L 203.678451 133.330159 
L 205.639878 159.166305 
L 206.032163 150.97644 
L 207.601305 171.645357 
L 207.99359 163.455492 
L 209.562732 184.124409 
L 209.955017 175.934544 
L 211.131874 191.436231 
L 211.524159 183.246366 
L 211.916444 188.413595 
L 212.30873 180.22373 
L 214.270157 206.059876 
L 214.662442 197.870006 
L 215.054728 203.037235 
L 215.447013 194.847367 
L 216.231584 205.181825 
L 216.623869 196.991956 
L 218.977582 227.99533 
L 219.369867 219.805358 
L 219.762153 224.972587 
L 220.154438 216.782651 
L 220.939009 227.117109 
L 221.331294 218.927149 
L 221.72358 224.094378 
L 222.115865 215.90445 
L 222.900436 226.238908 
L 223.292721 218.048958 
L 223.685007 223.216187 
L 224.077292 215.026266 
L 226.82329 251.19687 
L 227.215576 243.004582 
L 228.000146 253.33904 
L 228.392432 245.145945 
L 229.177003 255.480403 
L 229.569288 247.286233 
L 230.353859 257.620692 
L 230.746144 249.425091 
L 231.530715 259.759549 
L 231.923001 251.562042 
L 233.492142 272.230959 
L 233.884428 264.000469 
L 235.061284 279.502156 
L 235.453569 271.205028 
L 235.845855 276.372257 
L 236.23814 268.111731 
L 236.630426 273.27896 
L 237.022711 265.042358 
L 238.984138 290.878503 
L 239.376424 282.207521 
L 240.945565 302.876437 
L 240.945565 302.876437 
" style="fill:none;stroke:#1f77b4;stroke-linecap:square;stroke-width:0.666667;"/>
   </g>
   <g id="line2d_16">
    <path clip-path="url(#p341fa04cc0)" d="M 54.609993 159.4574 
L 55.002278 151.267536 
L 55.786849 161.601994 
L 56.179135 153.412129 
L 56.963705 163.746588 
L 57.355991 155.556723 
L 57.748276 160.723952 
L 58.140562 152.534088 
L 58.532847 157.701317 
L 58.925132 149.511453 
L 59.317418 154.678682 
L 59.709703 146.488817 
L 60.101989 151.656047 
L 60.494274 143.466182 
L 60.88656 148.633411 
L 61.278845 140.443547 
L 61.67113 145.610776 
L 62.063416 137.420912 
L 62.455701 142.588141 
L 62.847987 134.398276 
L 63.240272 139.565506 
L 63.632557 131.375641 
L 64.024843 136.54287 
L 64.417128 128.353006 
L 65.593984 143.854693 
L 65.98627 135.664829 
L 66.378555 140.832058 
L 66.770841 132.642194 
L 67.163126 137.809423 
L 67.555412 129.619558 
L 67.947697 134.786787 
L 68.339982 126.596923 
L 68.732268 131.764152 
L 69.124553 123.574288 
L 69.516839 128.741517 
L 69.909124 120.551653 
L 70.693695 130.886111 
L 71.08598 122.696246 
L 71.478266 127.863475 
L 71.870551 119.673611 
L 72.262837 124.84084 
L 72.655122 116.650976 
L 73.047407 121.818205 
L 73.439693 113.628341 
L 73.831978 118.79557 
L 74.224264 110.605705 
L 74.616549 115.772934 
L 75.008834 107.58307 
L 75.40112 112.750299 
L 75.793405 104.560435 
L 76.185691 109.727664 
L 76.577976 101.5378 
L 78.539403 127.373945 
L 78.931689 119.184081 
L 79.323974 124.35131 
L 79.716259 116.161445 
L 80.108545 121.328675 
L 80.50083 113.13881 
L 80.893116 118.306039 
L 81.285401 110.116175 
L 81.677687 115.283404 
L 82.069972 107.09354 
L 82.462257 112.260769 
L 82.854543 104.070904 
L 83.639114 114.405363 
L 84.031399 106.215498 
L 84.423684 111.382727 
L 84.81597 103.192863 
L 85.208255 108.360092 
L 85.600541 100.170228 
L 85.992826 105.337457 
L 86.385112 97.147592 
L 87.169682 107.482051 
L 87.561968 99.292186 
L 88.346539 109.626645 
L 88.738824 101.43678 
L 89.523395 111.771238 
L 89.91568 103.581374 
L 90.307966 108.748603 
L 90.700251 100.558739 
L 91.877107 116.060426 
L 92.269393 107.870562 
L 92.661678 113.037791 
L 93.053964 104.847926 
L 93.446249 110.015156 
L 93.838534 101.825291 
L 95.407676 122.494208 
L 95.799961 114.304343 
L 96.584532 124.638801 
L 96.976818 116.448937 
L 97.369103 121.616166 
L 97.761389 113.426302 
L 98.545959 123.76076 
L 98.938245 115.570896 
L 99.33053 120.738125 
L 99.722816 112.54826 
L 100.115101 117.71549 
L 100.507386 109.525625 
L 100.899672 114.692854 
L 101.291957 106.50299 
L 102.076528 116.837448 
L 102.468814 108.647584 
L 103.253384 118.982042 
L 103.64567 110.792178 
L 104.037955 115.959407 
L 104.430241 107.769542 
L 105.214811 118.104001 
L 105.607097 109.914136 
L 105.999382 115.081365 
L 106.391668 106.891501 
L 106.783953 112.05873 
L 107.176239 103.868866 
L 107.960809 114.203324 
L 108.353095 106.01346 
L 108.74538 111.180689 
L 109.137666 102.990824 
L 109.922236 113.325282 
L 110.314522 105.135418 
L 111.491378 120.637105 
L 111.883664 112.447241 
L 112.668234 122.781699 
L 113.06052 114.591835 
L 113.452805 119.759064 
L 113.845091 111.5692 
L 114.629661 121.903658 
L 115.021947 113.713793 
L 115.414232 118.881023 
L 115.806518 110.691158 
L 116.198803 115.858387 
L 116.591088 107.668523 
L 117.375659 118.002981 
L 117.767945 109.813117 
L 118.16023 114.980346 
L 118.552516 106.790482 
L 119.337086 117.12494 
L 119.729372 108.935075 
L 120.906228 124.436763 
L 121.298513 116.246898 
L 122.867655 136.915815 
L 123.259941 128.72595 
L 124.044511 139.060409 
L 124.436797 130.870544 
L 124.829082 136.037773 
L 125.221368 127.847909 
L 125.613653 133.015138 
L 126.005938 124.825274 
L 126.790509 135.159732 
L 127.182795 126.969868 
L 127.57508 132.137097 
L 127.967366 123.947232 
L 128.359651 129.114461 
L 128.751936 120.924597 
L 129.144222 126.091826 
L 129.536507 117.901962 
L 130.321078 128.23642 
L 130.713363 120.046556 
L 131.497934 130.381014 
L 131.89022 122.19115 
L 132.282505 127.358379 
L 132.674791 119.168514 
L 133.067076 124.335743 
L 133.459361 116.145879 
L 133.851647 121.313108 
L 134.243932 113.123244 
L 135.028503 123.457702 
L 135.420788 115.267838 
L 136.205359 125.602296 
L 136.597645 117.412431 
L 136.98993 122.579661 
L 137.382216 114.389796 
L 137.774501 119.557025 
L 138.166786 111.367161 
L 138.559072 116.53439 
L 138.951357 108.344526 
L 139.735928 118.678984 
L 140.128213 110.489119 
L 140.912784 120.823578 
L 141.30507 112.633713 
L 142.08964 122.968172 
L 142.481926 114.778307 
L 142.874211 119.945536 
L 143.266497 111.755672 
L 143.658782 116.922901 
L 144.051068 108.733037 
L 145.227924 124.234724 
L 145.620209 116.04486 
L 147.189351 136.713776 
L 147.581636 128.523912 
L 147.973922 133.691141 
L 148.366207 125.501276 
L 148.758493 130.668506 
L 149.150778 122.478641 
L 149.935349 132.813099 
L 150.327634 124.623235 
L 151.112205 134.957693 
L 151.50449 126.767829 
L 151.896776 131.935058 
L 152.289061 123.745194 
L 152.681347 128.912423 
L 153.073632 120.722558 
L 153.465918 125.889787 
L 153.858203 117.699923 
L 154.250488 122.867152 
L 154.642774 114.677288 
L 155.035059 119.844517 
L 155.427345 111.654653 
L 156.996486 132.323569 
L 157.388772 124.133705 
L 157.781057 129.300934 
L 158.173343 121.111069 
L 159.350199 136.612757 
L 159.742484 128.422892 
L 160.527055 138.757351 
L 160.91934 130.567486 
L 161.311626 135.734715 
L 161.703911 127.544851 
L 162.096197 132.71208 
L 162.488482 124.522216 
L 162.880768 129.689445 
L 163.273053 121.49958 
L 163.665338 126.666809 
L 164.057624 118.476945 
L 166.019051 144.313091 
L 166.411336 136.123226 
L 166.803622 141.290455 
L 167.195907 133.100591 
L 167.588192 138.26782 
L 167.980478 130.077956 
L 168.372763 135.245185 
L 168.765049 127.05532 
L 169.157334 132.22255 
L 169.54962 124.032685 
L 169.941905 129.199914 
L 170.33419 121.01005 
L 171.118761 131.344508 
L 171.511047 123.154644 
L 172.295617 133.489102 
L 172.687903 125.299238 
L 173.472474 135.633696 
L 173.864759 127.443832 
L 174.64933 137.77829 
L 175.041615 129.588425 
L 175.826186 139.922884 
L 176.218472 131.733019 
L 176.610757 136.900248 
L 177.003042 128.710384 
L 177.395328 133.877613 
L 177.787613 125.687749 
L 178.179899 130.854978 
L 178.572184 122.665113 
L 178.96447 127.832343 
L 179.356755 119.642478 
L 180.141326 129.976936 
L 180.533611 121.787072 
L 180.925897 126.954301 
L 181.318182 118.764437 
L 181.710467 123.931666 
L 182.102753 115.741801 
L 182.495038 120.909031 
L 182.887324 112.719166 
L 183.279609 117.886395 
L 183.671895 109.696531 
L 184.456465 120.030989 
L 184.848751 111.841125 
L 185.241036 117.008354 
L 185.633322 108.81849 
L 186.025607 113.985719 
L 186.417892 105.795854 
L 187.202463 116.130312 
L 187.594749 107.940448 
L 187.987034 113.107677 
L 188.37932 104.917813 
L 189.16389 115.252271 
L 189.556176 107.062407 
L 189.948461 112.229636 
L 190.340747 104.039771 
L 191.125317 114.37423 
L 191.517603 106.184365 
L 192.302174 116.518824 
L 192.694459 108.328959 
L 193.47903 118.663417 
L 193.871315 110.473553 
L 194.263601 115.640782 
L 194.655886 107.450918 
L 195.048172 112.618147 
L 195.440457 104.428282 
L 196.225028 114.762741 
L 196.617313 106.572876 
L 197.009599 111.740105 
L 197.401884 103.550241 
L 198.186455 113.884699 
L 198.57874 105.694835 
L 198.971026 110.862064 
L 199.363311 102.6722 
L 199.755597 107.839429 
L 200.147882 99.649564 
L 200.932453 109.984023 
L 201.324738 101.794158 
L 202.89388 122.463075 
L 203.286165 114.27321 
L 204.070736 124.607669 
L 204.463022 116.417804 
L 204.855307 121.585033 
L 205.247592 113.395169 
L 206.032163 123.729627 
L 206.424449 115.539763 
L 206.816734 120.706992 
L 207.209019 112.517127 
L 207.601305 117.684357 
L 207.99359 109.494492 
L 208.778161 119.82895 
L 209.170447 111.639086 
L 209.562732 116.806315 
L 209.955017 108.616451 
L 210.739588 118.950909 
L 211.131874 110.761045 
L 211.524159 115.928274 
L 211.916444 107.738409 
L 212.701015 118.072868 
L 213.093301 109.883003 
L 214.270157 125.384691 
L 214.662442 117.194826 
L 215.447013 127.529284 
L 215.839299 119.33942 
L 216.231584 124.506649 
L 216.623869 116.316785 
L 217.016155 121.484014 
L 217.40844 113.29415 
L 217.800726 118.461379 
L 218.193011 110.271514 
L 219.762153 130.940431 
L 220.154438 122.750566 
L 220.939009 133.085025 
L 221.331294 124.89516 
L 221.72358 130.062389 
L 222.115865 121.872525 
L 222.508151 127.039754 
L 222.900436 118.84989 
L 223.292721 124.017119 
L 223.685007 115.827254 
L 225.254149 136.496171 
L 225.646434 128.306306 
L 226.038719 133.473536 
L 226.431005 125.283671 
L 226.82329 130.4509 
L 227.215576 122.261036 
L 227.607861 127.428265 
L 228.000146 119.238401 
L 228.392432 124.40563 
L 228.784717 116.215765 
L 229.569288 126.550224 
L 229.961574 118.360359 
L 231.13843 133.862047 
L 231.530715 125.672182 
L 232.315286 136.00664 
L 232.707571 127.816776 
L 233.099857 132.984005 
L 233.492142 124.794141 
L 233.884428 129.96137 
L 234.276713 121.771506 
L 235.453569 137.273193 
L 235.845855 129.083328 
L 236.630426 139.417787 
L 237.022711 131.227922 
L 238.199567 146.72961 
L 238.591853 138.539745 
L 238.984138 143.706974 
L 239.376424 135.51711 
L 241.337851 161.353256 
L 241.730136 153.163391 
L 242.514707 163.497849 
L 242.906992 155.307985 
L 243.299278 160.475214 
L 243.691563 152.28535 
L 244.083849 157.452579 
L 244.476134 149.262714 
L 244.868419 154.429944 
L 245.260705 146.240079 
L 245.65299 151.407308 
L 246.045276 143.217444 
L 246.829846 153.551902 
L 247.222132 145.362038 
L 247.614417 150.529267 
L 248.006703 142.339403 
L 248.398988 147.506632 
L 248.791273 139.316767 
L 249.183559 144.483996 
L 249.575844 136.294132 
L 249.96813 141.461361 
L 250.360415 133.271497 
L 251.144986 143.605955 
L 251.537271 135.416091 
L 252.321842 145.750549 
L 252.714128 137.560684 
L 253.106413 142.727914 
L 253.498698 134.538049 
L 254.283269 144.872507 
L 254.675555 136.682643 
L 255.460126 147.017101 
L 255.852411 138.827237 
L 256.636982 149.161695 
L 257.029267 140.971831 
L 257.813838 151.306289 
L 258.206123 143.116425 
L 259.38298 158.618112 
L 259.775265 150.428247 
L 260.167551 155.595477 
L 260.559836 147.405612 
L 260.952121 152.572841 
L 261.344407 144.382977 
L 262.128978 154.717435 
L 262.521263 146.527571 
L 263.698119 162.029258 
L 264.090405 153.839394 
L 264.48269 159.006623 
L 264.874976 150.816758 
L 265.267261 155.983988 
L 265.659546 147.794123 
L 266.051832 152.961352 
L 266.444117 144.771488 
L 266.836403 149.938717 
L 267.228688 141.748853 
L 268.013259 152.083311 
L 268.405544 143.893446 
L 269.974686 164.562363 
L 270.366971 156.372499 
L 270.759257 161.539728 
L 271.151542 153.349863 
L 271.543828 158.517092 
L 271.936113 150.327228 
L 272.720684 160.661686 
L 273.112969 152.471822 
L 273.505255 157.639051 
L 273.89754 149.449187 
L 274.289825 154.616416 
L 274.682111 146.426551 
L 275.074396 151.59378 
L 275.466682 143.403916 
L 276.251253 153.738374 
L 276.643538 145.54851 
L 277.035823 150.715739 
L 277.428109 142.525875 
L 277.820394 147.693104 
L 278.21268 139.503239 
L 278.99725 149.837698 
L 279.389536 141.647833 
L 280.958678 162.31675 
L 281.350963 154.126885 
L 281.743248 159.294114 
L 282.135534 151.10425 
L 282.527819 156.271479 
L 282.920105 148.081615 
L 283.31239 153.248844 
L 283.704675 145.058979 
L 284.096961 150.226209 
L 284.489246 142.036344 
L 285.273817 152.370802 
L 285.666103 144.180938 
L 286.058388 149.348167 
L 286.450673 141.158303 
L 286.842959 146.325532 
L 287.235244 138.135667 
L 288.019815 148.470126 
L 288.4121 140.280261 
L 288.804386 145.44749 
L 289.196671 137.257626 
L 290.373528 152.759313 
L 290.765813 144.569449 
L 291.550384 154.903907 
L 291.942669 146.714043 
L 293.511811 167.382959 
L 293.904096 159.193095 
L 294.296382 164.360324 
L 294.688667 156.17046 
L 295.473238 166.504918 
L 295.865523 158.315053 
L 296.257809 163.482283 
L 296.650094 155.292418 
L 297.82695 170.794105 
L 298.219236 162.604241 
L 299.003807 172.938699 
L 299.396092 164.748835 
L 300.180663 175.083293 
L 300.572948 166.893429 
L 301.749805 182.395116 
L 302.14209 174.205251 
L 302.534375 179.37248 
L 302.926661 171.182616 
L 303.318946 176.349845 
L 303.711232 168.159981 
L 304.103517 173.32721 
L 304.495802 165.137345 
L 304.888088 170.304574 
L 305.280373 162.11471 
L 306.064944 172.449168 
L 306.45723 164.259304 
L 307.2418 174.593762 
L 307.634086 166.403897 
L 308.026371 171.571127 
L 308.418657 163.381262 
L 308.810942 168.548491 
L 309.203227 160.358627 
L 309.595513 165.525856 
L 309.987798 157.335992 
L 310.380084 162.503221 
L 310.772369 154.313356 
L 311.55694 164.647814 
L 311.949225 156.45795 
L 312.733796 166.792408 
L 313.126082 158.602544 
L 313.518367 163.769773 
L 313.910652 155.579909 
L 314.302938 160.747138 
L 314.695223 152.557273 
L 315.087509 157.724502 
L 315.479794 149.534638 
L 315.87208 154.701867 
L 316.264365 146.512003 
L 317.048936 156.846461 
L 317.441221 148.656597 
L 317.833507 153.823826 
L 318.225792 145.633961 
L 318.618077 150.80119 
L 319.010363 142.611326 
L 319.794934 152.945784 
L 320.187219 144.75592 
L 320.579505 149.923149 
L 320.97179 141.733285 
L 322.148646 157.234972 
L 322.540932 149.045108 
L 322.933217 154.212337 
L 323.325502 146.022472 
L 328.032927 208.029222 
L 328.425213 199.83935 
L 329.209784 210.173808 
L 329.602069 201.983934 
L 329.994354 207.151163 
L 330.38664 198.961292 
L 330.778925 204.128521 
L 331.171211 195.938652 
L 331.563496 201.105881 
L 331.955782 192.916014 
L 332.348067 198.083243 
L 332.740352 189.893377 
L 333.524923 200.227835 
L 333.917209 192.037968 
L 334.309494 197.205197 
L 334.701779 189.015331 
L 335.094065 194.18256 
L 335.48635 185.992695 
L 336.270921 196.327153 
L 336.663207 188.137287 
L 337.055492 193.304516 
L 337.447777 185.114651 
L 337.840063 190.28188 
L 338.232348 182.092015 
L 339.016919 192.426473 
L 339.409204 184.236608 
L 339.80149 189.403837 
L 340.193775 181.213972 
L 340.586061 186.381201 
L 340.978346 178.191336 
L 342.547488 198.860253 
L 342.939773 190.670386 
L 344.508915 211.339303 
L 344.9012 203.149427 
L 345.293486 208.316656 
L 345.685771 200.126784 
L 346.078057 205.294013 
L 346.470342 197.104143 
L 347.254913 207.438602 
L 347.647198 199.24873 
L 348.039484 204.415959 
L 348.431769 196.226091 
L 348.824054 201.39332 
L 349.21634 193.203452 
L 349.608625 198.370681 
L 350.000911 190.180815 
L 350.785482 200.515273 
L 351.177767 192.325406 
L 351.962338 202.659864 
L 352.354623 194.469996 
L 352.746909 199.637225 
L 353.139194 191.447359 
L 353.531479 196.614588 
L 353.923765 188.424722 
L 355.492906 209.093638 
L 355.885192 200.903765 
L 358.63119 237.074369 
L 359.023475 228.88414 
L 359.415761 234.051369 
L 359.808046 225.861262 
L 360.200331 231.028491 
L 360.592617 222.838464 
L 360.984902 228.005694 
L 361.377188 219.815721 
L 361.769473 224.98295 
L 362.161759 216.793014 
L 362.946329 227.127472 
L 363.338615 218.937512 
L 363.7309 224.104741 
L 364.123186 215.914812 
L 364.515471 221.082042 
L 364.907756 212.892134 
L 366.869184 238.72828 
L 367.261469 230.53796 
L 367.653754 235.70519 
L 368.04604 227.515022 
L 369.222896 243.016709 
L 369.615181 234.826036 
L 370.007467 239.993265 
L 370.399752 231.802861 
L 370.792038 236.97009 
L 371.184323 228.779866 
L 371.576609 233.947095 
L 371.968894 225.756991 
L 372.361179 230.92422 
L 372.753465 222.734196 
L 373.14575 227.901425 
L 373.538036 219.711454 
L 373.930321 224.878684 
L 374.322606 216.688748 
L 374.714892 221.855977 
L 375.107177 213.666066 
L 375.499463 218.833295 
L 375.891748 210.643399 
L 376.284034 215.810628 
L 376.676319 207.620742 
L 377.46089 217.955201 
L 377.853175 209.765308 
L 379.030031 225.266996 
L 379.422317 217.077056 
L 379.814602 222.244285 
L 380.206888 214.054371 
L 380.599173 219.2216 
L 380.991458 211.031703 
L 381.383744 216.198932 
L 381.776029 208.009045 
L 382.168315 213.176274 
L 382.5606 204.986395 
L 382.952886 210.153624 
L 383.345171 201.96375 
L 384.129742 212.298208 
L 384.522027 204.108331 
L 384.914313 209.27556 
L 385.306598 201.085687 
L 385.698883 206.252916 
L 386.091169 198.063046 
L 387.268025 213.564733 
L 387.660311 205.374853 
L 388.444881 215.709311 
L 388.837167 207.519426 
L 389.621738 217.853884 
L 390.014023 209.663992 
L 390.798594 219.998451 
L 391.190879 211.808549 
L 391.583165 216.975778 
L 391.97545 208.785889 
L 392.760021 219.120348 
L 393.152306 210.93045 
L 394.329163 226.432138 
L 394.721448 218.242186 
L 395.506019 228.576644 
L 395.898304 220.386663 
L 396.29059 225.553892 
L 396.682875 217.36395 
L 397.467446 227.698408 
L 397.859731 219.50844 
L 398.252017 224.675669 
L 398.644302 216.485736 
L 400.605729 242.321882 
L 400.998015 234.13128 
L 401.3903 239.298509 
L 401.782586 231.108153 
L 402.567156 241.442612 
L 402.959442 233.252092 
L 403.744013 243.58655 
L 404.136298 235.395813 
L 405.313154 250.8975 
L 405.70544 242.705307 
L 406.097725 247.872536 
L 406.49001 239.68112 
L 407.274581 250.015578 
L 407.666867 241.823645 
L 408.451438 252.158103 
L 408.843723 243.965481 
L 410.412865 264.634398 
L 410.80515 256.429844 
L 411.589721 266.764303 
L 411.982006 258.554898 
L 412.374292 263.722127 
L 412.766577 255.519264 
L 413.158863 260.686493 
L 413.551148 252.487975 
L 413.943433 257.655204 
L 414.335719 249.459577 
L 414.728004 254.626806 
L 415.12029 246.433102 
L 415.512575 251.600331 
L 415.90486 243.407908 
L 416.297146 248.575137 
L 416.689431 240.383567 
L 417.474002 250.718025 
L 417.866288 242.525888 
L 419.435429 263.194804 
L 419.827715 254.992828 
L 421.004571 270.494516 
L 421.396856 262.272449 
L 422.573713 277.774137 
L 422.965998 269.499074 
L 424.142854 285.000762 
L 424.53514 276.588351 
L 424.927425 281.755581 
L 425.31971 273.420959 
L 426.104281 283.755418 
L 426.496567 275.376816 
L 427.673423 290.878503 
L 428.065708 282.207521 
L 429.63485 302.876437 
L 429.63485 302.876437 
" style="fill:none;stroke:#ff7f0e;stroke-linecap:square;stroke-width:0.666667;"/>
   </g>
   <g id="patch_3">
    <path d="M 35.85875 316.4425 
L 35.85875 17.989125 
" style="fill:none;stroke:#000000;stroke-linecap:square;stroke-linejoin:miter;stroke-width:0.8;"/>
   </g>
   <g id="patch_4">
    <path d="M 448.386093 316.4425 
L 448.386093 17.989125 
" style="fill:none;stroke:#000000;stroke-linecap:square;stroke-linejoin:miter;stroke-width:0.8;"/>
   </g>
   <g id="patch_5">
    <path d="M 35.85875 316.4425 
L 448.386093 316.4425 
" style="fill:none;stroke:#000000;stroke-linecap:square;stroke-linejoin:miter;stroke-width:0.8;"/>
   </g>
   <g id="patch_6">
    <path d="M 35.85875 17.989125 
L 448.386093 17.989125 
" style="fill:none;stroke:#000000;stroke-linecap:square;stroke-linejoin:miter;stroke-width:0.8;"/>
   </g>
   <g id="text_17">
    <!-- "3y+1" problem -->
    <g transform="translate(211.780046 11.989125)scale(0.072 -0.072)">
     <defs>
      <path d="M 43.703125 72.90625 
L 43.703125 45.796875 
L 35.203125 45.796875 
L 35.203125 72.90625 
z
M 25 72.90625 
L 25 45.796875 
L 16.5 45.796875 
L 16.5 72.90625 
z
" id="DejaVuSansMono-34"/>
      <path d="M 34.1875 57.171875 
L 34.1875 35.5 
L 55.90625 35.5 
L 55.90625 27.203125 
L 34.1875 27.203125 
L 34.1875 5.515625 
L 25.984375 5.515625 
L 25.984375 27.203125 
L 4.296875 27.203125 
L 4.296875 35.5 
L 25.984375 35.5 
L 25.984375 57.171875 
z
" id="DejaVuSansMono-43"/>
      <path id="DejaVuSansMono-32"/>
      <path d="M 18.3125 6.890625 
L 18.3125 -20.796875 
L 9.28125 -20.796875 
L 9.28125 54.6875 
L 18.3125 54.6875 
L 18.3125 47.703125 
Q 20.5625 51.765625 24.296875 53.875 
Q 28.03125 56 32.90625 56 
Q 42.828125 56 48.46875 48.328125 
Q 54.109375 40.671875 54.109375 27.09375 
Q 54.109375 13.765625 48.4375 6.171875 
Q 42.78125 -1.421875 32.90625 -1.421875 
Q 27.9375 -1.421875 24.1875 0.703125 
Q 20.453125 2.828125 18.3125 6.890625 
z
M 44.671875 27.296875 
Q 44.671875 37.75 41.375 43.0625 
Q 38.09375 48.390625 31.59375 48.390625 
Q 25.046875 48.390625 21.671875 43.046875 
Q 18.3125 37.703125 18.3125 27.296875 
Q 18.3125 16.9375 21.671875 11.5625 
Q 25.046875 6.203125 31.59375 6.203125 
Q 38.09375 6.203125 41.375 11.515625 
Q 44.671875 16.84375 44.671875 27.296875 
z
" id="DejaVuSansMono-112"/>
      <path d="M 56.390625 43.40625 
Q 53.515625 45.65625 50.53125 46.671875 
Q 47.5625 47.703125 44 47.703125 
Q 35.59375 47.703125 31.140625 42.421875 
Q 26.703125 37.15625 26.703125 27.203125 
L 26.703125 0 
L 17.671875 0 
L 17.671875 54.6875 
L 26.703125 54.6875 
L 26.703125 44 
Q 28.953125 49.8125 33.609375 52.90625 
Q 38.28125 56 44.671875 56 
Q 48 56 50.875 55.171875 
Q 53.765625 54.34375 56.390625 52.59375 
z
" id="DejaVuSansMono-114"/>
      <path d="M 30.078125 48.390625 
Q 23.25 48.390625 19.734375 43.0625 
Q 16.21875 37.75 16.21875 27.296875 
Q 16.21875 16.890625 19.734375 11.546875 
Q 23.25 6.203125 30.078125 6.203125 
Q 36.96875 6.203125 40.484375 11.546875 
Q 44 16.890625 44 27.296875 
Q 44 37.75 40.484375 43.0625 
Q 36.96875 48.390625 30.078125 48.390625 
z
M 30.078125 56 
Q 41.453125 56 47.484375 48.625 
Q 53.515625 41.265625 53.515625 27.296875 
Q 53.515625 13.28125 47.5 5.921875 
Q 41.5 -1.421875 30.078125 -1.421875 
Q 18.703125 -1.421875 12.6875 5.921875 
Q 6.6875 13.28125 6.6875 27.296875 
Q 6.6875 41.265625 12.6875 48.625 
Q 18.703125 56 30.078125 56 
z
" id="DejaVuSansMono-111"/>
      <path d="M 44.828125 27.296875 
Q 44.828125 37.75 41.5 43.0625 
Q 38.1875 48.390625 31.6875 48.390625 
Q 25.140625 48.390625 21.765625 43.046875 
Q 18.40625 37.703125 18.40625 27.296875 
Q 18.40625 16.9375 21.765625 11.5625 
Q 25.140625 6.203125 31.6875 6.203125 
Q 38.1875 6.203125 41.5 11.515625 
Q 44.828125 16.84375 44.828125 27.296875 
z
M 18.40625 47.703125 
Q 20.5625 51.703125 24.34375 53.84375 
Q 28.125 56 33.109375 56 
Q 42.96875 56 48.625 48.40625 
Q 54.296875 40.828125 54.296875 27.484375 
Q 54.296875 13.96875 48.609375 6.265625 
Q 42.921875 -1.421875 33.015625 -1.421875 
Q 28.125 -1.421875 24.390625 0.703125 
Q 20.65625 2.828125 18.40625 6.890625 
L 18.40625 0 
L 9.421875 0 
L 9.421875 75.984375 
L 18.40625 75.984375 
z
" id="DejaVuSansMono-98"/>
      <path d="M 31.203125 19.828125 
Q 31.203125 13.765625 33.421875 10.6875 
Q 35.640625 7.625 39.984375 7.625 
L 50.484375 7.625 
L 50.484375 0 
L 39.109375 0 
Q 31.0625 0 26.640625 5.171875 
Q 22.21875 10.359375 22.21875 19.828125 
L 22.21875 69.484375 
L 7.8125 69.484375 
L 7.8125 76.515625 
L 31.203125 76.515625 
z
" id="DejaVuSansMono-108"/>
      <path d="M 54.296875 29.59375 
L 54.296875 25.203125 
L 15.375 25.203125 
L 15.375 24.90625 
Q 15.375 15.96875 20.03125 11.078125 
Q 24.703125 6.203125 33.203125 6.203125 
Q 37.5 6.203125 42.1875 7.5625 
Q 46.875 8.9375 52.203125 11.71875 
L 52.203125 2.78125 
Q 47.078125 0.6875 42.3125 -0.359375 
Q 37.546875 -1.421875 33.109375 -1.421875 
Q 20.359375 -1.421875 13.171875 6.21875 
Q 6 13.875 6 27.296875 
Q 6 40.375 13.03125 48.1875 
Q 20.0625 56 31.78125 56 
Q 42.234375 56 48.265625 48.921875 
Q 54.296875 41.84375 54.296875 29.59375 
z
M 45.3125 32.234375 
Q 45.125 40.140625 41.578125 44.265625 
Q 38.03125 48.390625 31.390625 48.390625 
Q 24.90625 48.390625 20.703125 44.09375 
Q 16.5 39.796875 15.71875 32.171875 
z
" id="DejaVuSansMono-101"/>
      <path d="M 33.015625 49.125 
Q 34.671875 52.640625 37.234375 54.3125 
Q 39.796875 56 43.40625 56 
Q 50 56 52.703125 50.890625 
Q 55.421875 45.796875 55.421875 31.6875 
L 55.421875 0 
L 47.21875 0 
L 47.21875 31.296875 
Q 47.21875 42.875 45.921875 45.671875 
Q 44.625 48.484375 41.21875 48.484375 
Q 37.3125 48.484375 35.859375 45.484375 
Q 34.421875 42.484375 34.421875 31.296875 
L 34.421875 0 
L 26.21875 0 
L 26.21875 31.296875 
Q 26.21875 43.015625 24.828125 45.75 
Q 23.4375 48.484375 19.828125 48.484375 
Q 16.265625 48.484375 14.875 45.484375 
Q 13.484375 42.484375 13.484375 31.296875 
L 13.484375 0 
L 5.328125 0 
L 5.328125 54.6875 
L 13.484375 54.6875 
L 13.484375 50 
Q 15.09375 52.9375 17.5 54.46875 
Q 19.921875 56 23 56 
Q 26.703125 56 29.171875 54.296875 
Q 31.640625 52.59375 33.015625 49.125 
z
" id="DejaVuSansMono-109"/>
     </defs>
     <use xlink:href="#DejaVuSansMono-34"/>
     <use x="60.205078" xlink:href="#DejaVuSansMono-51"/>
     <use x="120.410156" xlink:href="#DejaVuSansMono-121"/>
     <use x="180.615234" xlink:href="#DejaVuSansMono-43"/>
     <use x="240.820312" xlink:href="#DejaVuSansMono-49"/>
     <use x="301.025391" xlink:href="#DejaVuSansMono-34"/>
     <use x="361.230469" xlink:href="#DejaVuSansMono-32"/>
     <use x="421.435547" xlink:href="#DejaVuSansMono-112"/>
     <use x="481.640625" xlink:href="#DejaVuSansMono-114"/>
     <use x="541.845703" xlink:href="#DejaVuSansMono-111"/>
     <use x="602.050781" xlink:href="#DejaVuSansMono-98"/>
     <use x="662.255859" xlink:href="#DejaVuSansMono-108"/>
     <use x="722.460938" xlink:href="#DejaVuSansMono-101"/>
     <use x="782.666016" xlink:href="#DejaVuSansMono-109"/>
    </g>
   </g>
   <g id="legend_1">
    <g id="patch_7">
     <path d="M 334.681405 82.0095 
L 444.186093 82.0095 
Q 445.386093 82.0095 445.386093 80.8095 
L 445.386093 22.189125 
Q 445.386093 20.989125 444.186093 20.989125 
L 334.681405 20.989125 
Q 333.481405 20.989125 333.481405 22.189125 
L 333.481405 80.8095 
Q 333.481405 82.0095 334.681405 82.0095 
z
" style="fill:#ffffff;opacity:0.8;stroke:#cccccc;stroke-linejoin:miter;"/>
    </g>
    <g id="line2d_17">
     <path d="M 335.881405 36.889687 
L 347.881405 36.889687 
" style="fill:none;stroke:#1f77b4;stroke-linecap:square;stroke-width:0.666667;"/>
    </g>
    <g id="line2d_18"/>
    <g id="text_18">
     <!-- "Tallest": -->
     <g transform="translate(352.681405 27.980062)scale(0.06 -0.06)">
      <defs>
       <path d="M 2.296875 72.90625 
L 57.90625 72.90625 
L 57.90625 64.59375 
L 35.109375 64.59375 
L 35.109375 0 
L 25.203125 0 
L 25.203125 64.59375 
L 2.296875 64.59375 
z
" id="DejaVuSansMono-84"/>
       <path d="M 34.28125 27.484375 
L 31.296875 27.484375 
Q 23.4375 27.484375 19.453125 24.71875 
Q 15.484375 21.96875 15.484375 16.5 
Q 15.484375 11.578125 18.453125 8.84375 
Q 21.4375 6.109375 26.703125 6.109375 
Q 34.125 6.109375 38.375 11.25 
Q 42.625 16.40625 42.671875 25.484375 
L 42.671875 27.484375 
z
M 51.703125 31.203125 
L 51.703125 0 
L 42.671875 0 
L 42.671875 8.109375 
Q 39.796875 3.21875 35.421875 0.890625 
Q 31.0625 -1.421875 24.8125 -1.421875 
Q 16.453125 -1.421875 11.46875 3.296875 
Q 6.5 8.015625 6.5 15.921875 
Q 6.5 25.046875 12.625 29.78125 
Q 18.75 34.515625 30.609375 34.515625 
L 42.671875 34.515625 
L 42.671875 35.9375 
Q 42.625 42.484375 39.34375 45.4375 
Q 36.078125 48.390625 28.90625 48.390625 
Q 24.3125 48.390625 19.625 47.0625 
Q 14.9375 45.75 10.5 43.21875 
L 10.5 52.203125 
Q 15.484375 54.109375 20.046875 55.046875 
Q 24.609375 56 28.90625 56 
Q 35.6875 56 40.5 54 
Q 45.3125 52 48.296875 48 
Q 50.140625 45.5625 50.921875 41.96875 
Q 51.703125 38.375 51.703125 31.203125 
z
" id="DejaVuSansMono-97"/>
       <path d="M 47.515625 52.78125 
L 47.515625 44 
Q 43.65625 46.234375 39.75 47.359375 
Q 35.84375 48.484375 31.78125 48.484375 
Q 25.6875 48.484375 22.671875 46.5 
Q 19.671875 44.53125 19.671875 40.484375 
Q 19.671875 36.8125 21.921875 35 
Q 24.171875 33.203125 33.109375 31.5 
L 36.71875 30.8125 
Q 43.40625 29.546875 46.84375 25.734375 
Q 50.296875 21.921875 50.296875 15.828125 
Q 50.296875 7.71875 44.53125 3.140625 
Q 38.765625 -1.421875 28.515625 -1.421875 
Q 24.46875 -1.421875 20.015625 -0.5625 
Q 15.578125 0.296875 10.40625 2 
L 10.40625 11.28125 
Q 15.4375 8.6875 20.015625 7.390625 
Q 24.609375 6.109375 28.71875 6.109375 
Q 34.671875 6.109375 37.9375 8.515625 
Q 41.21875 10.9375 41.21875 15.28125 
Q 41.21875 21.53125 29.25 23.921875 
L 28.859375 24.03125 
L 25.484375 24.703125 
Q 17.71875 26.21875 14.15625 29.8125 
Q 10.59375 33.40625 10.59375 39.59375 
Q 10.59375 47.46875 15.90625 51.734375 
Q 21.234375 56 31.109375 56 
Q 35.5 56 39.546875 55.1875 
Q 43.609375 54.390625 47.515625 52.78125 
z
" id="DejaVuSansMono-115"/>
       <path d="M 29.984375 70.21875 
L 29.984375 54.6875 
L 50.390625 54.6875 
L 50.390625 47.703125 
L 29.984375 47.703125 
L 29.984375 18.015625 
Q 29.984375 11.96875 32.28125 9.5625 
Q 34.578125 7.171875 40.28125 7.171875 
L 50.390625 7.171875 
L 50.390625 0 
L 39.40625 0 
Q 29.296875 0 25.140625 4.046875 
Q 21 8.109375 21 18.015625 
L 21 47.703125 
L 6.390625 47.703125 
L 6.390625 54.6875 
L 21 54.6875 
L 21 70.21875 
z
" id="DejaVuSansMono-116"/>
       <path d="M 23.875 51.90625 
L 36.1875 51.90625 
L 36.1875 37.109375 
L 23.875 37.109375 
z
M 23.875 14.890625 
L 36.1875 14.890625 
L 36.1875 0 
L 23.875 0 
z
" id="DejaVuSansMono-58"/>
      </defs>
      <use xlink:href="#DejaVuSansMono-34"/>
      <use x="60.205078" xlink:href="#DejaVuSansMono-84"/>
      <use x="120.410156" xlink:href="#DejaVuSansMono-97"/>
      <use x="180.615234" xlink:href="#DejaVuSansMono-108"/>
      <use x="240.820312" xlink:href="#DejaVuSansMono-108"/>
      <use x="301.025391" xlink:href="#DejaVuSansMono-101"/>
      <use x="361.230469" xlink:href="#DejaVuSansMono-115"/>
      <use x="421.435547" xlink:href="#DejaVuSansMono-116"/>
      <use x="481.640625" xlink:href="#DejaVuSansMono-34"/>
      <use x="541.845703" xlink:href="#DejaVuSansMono-58"/>
     </g>
     <!-- y_0    = 210964383 -->
     <g transform="translate(352.681405 34.737)scale(0.06 -0.06)">
      <defs>
       <path d="M 4.296875 25.59375 
L 55.90625 25.59375 
L 55.90625 17.1875 
L 4.296875 17.1875 
z
M 4.296875 45.40625 
L 55.90625 45.40625 
L 55.90625 37.109375 
L 4.296875 37.109375 
z
" id="DejaVuSansMono-61"/>
      </defs>
      <use xlink:href="#DejaVuSansMono-121"/>
      <use x="60.205078" xlink:href="#DejaVuSansMono-95"/>
      <use x="120.410156" xlink:href="#DejaVuSansMono-48"/>
      <use x="180.615234" xlink:href="#DejaVuSansMono-32"/>
      <use x="240.820312" xlink:href="#DejaVuSansMono-32"/>
      <use x="301.025391" xlink:href="#DejaVuSansMono-32"/>
      <use x="361.230469" xlink:href="#DejaVuSansMono-32"/>
      <use x="421.435547" xlink:href="#DejaVuSansMono-61"/>
      <use x="481.640625" xlink:href="#DejaVuSansMono-32"/>
      <use x="541.845703" xlink:href="#DejaVuSansMono-50"/>
      <use x="602.050781" xlink:href="#DejaVuSansMono-49"/>
      <use x="662.255859" xlink:href="#DejaVuSansMono-48"/>
      <use x="722.460938" xlink:href="#DejaVuSansMono-57"/>
      <use x="782.666016" xlink:href="#DejaVuSansMono-54"/>
      <use x="842.871094" xlink:href="#DejaVuSansMono-52"/>
      <use x="903.076172" xlink:href="#DejaVuSansMono-51"/>
      <use x="963.28125" xlink:href="#DejaVuSansMono-56"/>
      <use x="1023.486328" xlink:href="#DejaVuSansMono-51"/>
     </g>
     <!-- y_max  = 6404797161121264 -->
     <g transform="translate(352.681405 41.660812)scale(0.06 -0.06)">
      <defs>
       <path d="M 54.59375 54.6875 
L 35.015625 28.515625 
L 56.5 0 
L 46.09375 0 
L 30.078125 21.921875 
L 14.109375 0 
L 3.71875 0 
L 25.203125 28.515625 
L 5.609375 54.6875 
L 15.578125 54.6875 
L 30.078125 34.90625 
L 44.484375 54.6875 
z
" id="DejaVuSansMono-120"/>
      </defs>
      <use xlink:href="#DejaVuSansMono-121"/>
      <use x="60.205078" xlink:href="#DejaVuSansMono-95"/>
      <use x="120.410156" xlink:href="#DejaVuSansMono-109"/>
      <use x="180.615234" xlink:href="#DejaVuSansMono-97"/>
      <use x="240.820312" xlink:href="#DejaVuSansMono-120"/>
      <use x="301.025391" xlink:href="#DejaVuSansMono-32"/>
      <use x="361.230469" xlink:href="#DejaVuSansMono-32"/>
      <use x="421.435547" xlink:href="#DejaVuSansMono-61"/>
      <use x="481.640625" xlink:href="#DejaVuSansMono-32"/>
      <use x="541.845703" xlink:href="#DejaVuSansMono-54"/>
      <use x="602.050781" xlink:href="#DejaVuSansMono-52"/>
      <use x="662.255859" xlink:href="#DejaVuSansMono-48"/>
      <use x="722.460938" xlink:href="#DejaVuSansMono-52"/>
      <use x="782.666016" xlink:href="#DejaVuSansMono-55"/>
      <use x="842.871094" xlink:href="#DejaVuSansMono-57"/>
      <use x="903.076172" xlink:href="#DejaVuSansMono-55"/>
      <use x="963.28125" xlink:href="#DejaVuSansMono-49"/>
      <use x="1023.486328" xlink:href="#DejaVuSansMono-54"/>
      <use x="1083.691406" xlink:href="#DejaVuSansMono-49"/>
      <use x="1143.896484" xlink:href="#DejaVuSansMono-49"/>
      <use x="1204.101562" xlink:href="#DejaVuSansMono-50"/>
      <use x="1264.306641" xlink:href="#DejaVuSansMono-49"/>
      <use x="1324.511719" xlink:href="#DejaVuSansMono-50"/>
      <use x="1384.716797" xlink:href="#DejaVuSansMono-54"/>
      <use x="1444.921875" xlink:href="#DejaVuSansMono-52"/>
     </g>
     <!-- x_max  = 476 -->
     <g transform="translate(352.681405 48.584625)scale(0.06 -0.06)">
      <use xlink:href="#DejaVuSansMono-120"/>
      <use x="60.205078" xlink:href="#DejaVuSansMono-95"/>
      <use x="120.410156" xlink:href="#DejaVuSansMono-109"/>
      <use x="180.615234" xlink:href="#DejaVuSansMono-97"/>
      <use x="240.820312" xlink:href="#DejaVuSansMono-120"/>
      <use x="301.025391" xlink:href="#DejaVuSansMono-32"/>
      <use x="361.230469" xlink:href="#DejaVuSansMono-32"/>
      <use x="421.435547" xlink:href="#DejaVuSansMono-61"/>
      <use x="481.640625" xlink:href="#DejaVuSansMono-32"/>
      <use x="541.845703" xlink:href="#DejaVuSansMono-52"/>
      <use x="602.050781" xlink:href="#DejaVuSansMono-55"/>
      <use x="662.255859" xlink:href="#DejaVuSansMono-54"/>
     </g>
    </g>
    <g id="line2d_19">
     <path d="M 335.881405 66.499875 
L 347.881405 66.499875 
" style="fill:none;stroke:#ff7f0e;stroke-linecap:square;stroke-width:0.666667;"/>
    </g>
    <g id="line2d_20"/>
    <g id="text_19">
     <!-- "Widest":  -->
     <g transform="translate(352.681405 57.59025)scale(0.06 -0.06)">
      <defs>
       <path d="M 0 72.90625 
L 9.625 72.90625 
L 16.609375 13.71875 
L 24.90625 52.875 
L 35.203125 52.875 
L 43.609375 13.625 
L 50.59375 72.90625 
L 60.203125 72.90625 
L 49.3125 0 
L 39.984375 0 
L 30.078125 43.3125 
L 20.21875 0 
L 10.890625 0 
z
" id="DejaVuSansMono-87"/>
       <path d="M 12.5 54.6875 
L 35.5 54.6875 
L 35.5 6.984375 
L 53.328125 6.984375 
L 53.328125 0 
L 8.6875 0 
L 8.6875 6.984375 
L 26.515625 6.984375 
L 26.515625 47.703125 
L 12.5 47.703125 
z
M 26.515625 75.984375 
L 35.5 75.984375 
L 35.5 64.59375 
L 26.515625 64.59375 
z
" id="DejaVuSansMono-105"/>
       <path d="M 41.890625 47.703125 
L 41.890625 75.984375 
L 50.875 75.984375 
L 50.875 0 
L 41.890625 0 
L 41.890625 6.890625 
Q 39.65625 2.828125 35.90625 0.703125 
Q 32.171875 -1.421875 27.296875 -1.421875 
Q 17.390625 -1.421875 11.6875 6.265625 
Q 6 13.96875 6 27.484375 
Q 6 40.828125 11.71875 48.40625 
Q 17.4375 56 27.296875 56 
Q 32.234375 56 35.984375 53.875 
Q 39.75 51.765625 41.890625 47.703125 
z
M 15.484375 27.296875 
Q 15.484375 16.84375 18.796875 11.515625 
Q 22.125 6.203125 28.609375 6.203125 
Q 35.109375 6.203125 38.5 11.5625 
Q 41.890625 16.9375 41.890625 27.296875 
Q 41.890625 37.703125 38.5 43.046875 
Q 35.109375 48.390625 28.609375 48.390625 
Q 22.125 48.390625 18.796875 43.0625 
Q 15.484375 37.75 15.484375 27.296875 
z
" id="DejaVuSansMono-100"/>
      </defs>
      <use xlink:href="#DejaVuSansMono-34"/>
      <use x="60.205078" xlink:href="#DejaVuSansMono-87"/>
      <use x="120.410156" xlink:href="#DejaVuSansMono-105"/>
      <use x="180.615234" xlink:href="#DejaVuSansMono-100"/>
      <use x="240.820312" xlink:href="#DejaVuSansMono-101"/>
      <use x="301.025391" xlink:href="#DejaVuSansMono-115"/>
      <use x="361.230469" xlink:href="#DejaVuSansMono-116"/>
      <use x="421.435547" xlink:href="#DejaVuSansMono-34"/>
      <use x="481.640625" xlink:href="#DejaVuSansMono-58"/>
      <use x="541.845703" xlink:href="#DejaVuSansMono-32"/>
     </g>
     <!-- y_0    = 226588897 -->
     <g transform="translate(352.681405 64.347187)scale(0.06 -0.06)">
      <use xlink:href="#DejaVuSansMono-121"/>
      <use x="60.205078" xlink:href="#DejaVuSansMono-95"/>
      <use x="120.410156" xlink:href="#DejaVuSansMono-48"/>
      <use x="180.615234" xlink:href="#DejaVuSansMono-32"/>
      <use x="240.820312" xlink:href="#DejaVuSansMono-32"/>
      <use x="301.025391" xlink:href="#DejaVuSansMono-32"/>
      <use x="361.230469" xlink:href="#DejaVuSansMono-32"/>
      <use x="421.435547" xlink:href="#DejaVuSansMono-61"/>
      <use x="481.640625" xlink:href="#DejaVuSansMono-32"/>
      <use x="541.845703" xlink:href="#DejaVuSansMono-50"/>
      <use x="602.050781" xlink:href="#DejaVuSansMono-50"/>
      <use x="662.255859" xlink:href="#DejaVuSansMono-54"/>
      <use x="722.460938" xlink:href="#DejaVuSansMono-53"/>
      <use x="782.666016" xlink:href="#DejaVuSansMono-56"/>
      <use x="842.871094" xlink:href="#DejaVuSansMono-56"/>
      <use x="903.076172" xlink:href="#DejaVuSansMono-56"/>
      <use x="963.28125" xlink:href="#DejaVuSansMono-57"/>
      <use x="1023.486328" xlink:href="#DejaVuSansMono-55"/>
     </g>
     <!-- y_max  = 966616035460 -->
     <g transform="translate(352.681405 71.271)scale(0.06 -0.06)">
      <use xlink:href="#DejaVuSansMono-121"/>
      <use x="60.205078" xlink:href="#DejaVuSansMono-95"/>
      <use x="120.410156" xlink:href="#DejaVuSansMono-109"/>
      <use x="180.615234" xlink:href="#DejaVuSansMono-97"/>
      <use x="240.820312" xlink:href="#DejaVuSansMono-120"/>
      <use x="301.025391" xlink:href="#DejaVuSansMono-32"/>
      <use x="361.230469" xlink:href="#DejaVuSansMono-32"/>
      <use x="421.435547" xlink:href="#DejaVuSansMono-61"/>
      <use x="481.640625" xlink:href="#DejaVuSansMono-32"/>
      <use x="541.845703" xlink:href="#DejaVuSansMono-57"/>
      <use x="602.050781" xlink:href="#DejaVuSansMono-54"/>
      <use x="662.255859" xlink:href="#DejaVuSansMono-54"/>
      <use x="722.460938" xlink:href="#DejaVuSansMono-54"/>
      <use x="782.666016" xlink:href="#DejaVuSansMono-49"/>
      <use x="842.871094" xlink:href="#DejaVuSansMono-54"/>
      <use x="903.076172" xlink:href="#DejaVuSansMono-48"/>
      <use x="963.28125" xlink:href="#DejaVuSansMono-51"/>
      <use x="1023.486328" xlink:href="#DejaVuSansMono-53"/>
      <use x="1083.691406" xlink:href="#DejaVuSansMono-52"/>
      <use x="1143.896484" xlink:href="#DejaVuSansMono-54"/>
      <use x="1204.101562" xlink:href="#DejaVuSansMono-48"/>
     </g>
     <!-- x_max  = 957 -->
     <g transform="translate(352.681405 78.194812)scale(0.06 -0.06)">
      <use xlink:href="#DejaVuSansMono-120"/>
      <use x="60.205078" xlink:href="#DejaVuSansMono-95"/>
      <use x="120.410156" xlink:href="#DejaVuSansMono-109"/>
      <use x="180.615234" xlink:href="#DejaVuSansMono-97"/>
      <use x="240.820312" xlink:href="#DejaVuSansMono-120"/>
      <use x="301.025391" xlink:href="#DejaVuSansMono-32"/>
      <use x="361.230469" xlink:href="#DejaVuSansMono-32"/>
      <use x="421.435547" xlink:href="#DejaVuSansMono-61"/>
      <use x="481.640625" xlink:href="#DejaVuSansMono-32"/>
      <use x="541.845703" xlink:href="#DejaVuSansMono-57"/>
      <use x="602.050781" xlink:href="#DejaVuSansMono-53"/>
      <use x="662.255859" xlink:href="#DejaVuSansMono-55"/>
     </g>
    </g>
   </g>
  </g>
 </g>
 <defs>
  <clipPath id="p341fa04cc0">
   <rect height="298.453375" width="412.527343" x="35.85875" y="17.989125"/>
  </clipPath>
 </defs>
</svg>
