<?xml version="1.0" encoding="utf-8" standalone="no"?>
<!DOCTYPE svg PUBLIC "-//W3C//DTD SVG 1.1//EN"
  "http://www.w3.org/Graphics/SVG/1.1/DTD/svg11.dtd">
<!-- Created with matplotlib (https://matplotlib.org/) -->
<svg height="345.6pt" version="1.1" viewBox="0 0 460.8 345.6" width="460.8pt" xmlns="http://www.w3.org/2000/svg" xmlns:xlink="http://www.w3.org/1999/xlink">
 <metadata>
  <rdf:RDF xmlns:cc="http://creativecommons.org/ns#" xmlns:dc="http://purl.org/dc/elements/1.1/" xmlns:rdf="http://www.w3.org/1999/02/22-rdf-syntax-ns#">
   <cc:Work>
    <dc:type rdf:resource="http://purl.org/dc/dcmitype/StillImage"/>
    <dc:date>2022-03-17T10:01:00.186570</dc:date>
    <dc:format>image/svg+xml</dc:format>
    <dc:creator>
     <cc:Agent>
      <dc:title>Matplotlib v3.3.2, https://matplotlib.org/</dc:title>
     </cc:Agent>
    </dc:creator>
   </cc:Work>
  </rdf:RDF>
 </metadata>
 <defs>
  <style type="text/css">*{stroke-linecap:butt;stroke-linejoin:round;}</style>
 </defs>
 <g id="figure_1">
  <g id="patch_1">
   <path d="M 0 345.6 
L 460.8 345.6 
L 460.8 0 
L 0 0 
z
" style="fill:#ffffff;"/>
  </g>
  <g id="axes_1">
   <g id="patch_2">
    <path d="M 35.85875 316.4425 
L 447.317058 316.4425 
L 447.317058 17.989125 
L 35.85875 17.989125 
z
" style="fill:#ffffff;"/>
   </g>
   <g id="matplotlib.axis_1">
    <g id="xtick_1">
     <g id="line2d_1">
      <defs>
       <path d="M 0 0 
L 0 3.5 
" id="m0154efb3bd" style="stroke:#000000;stroke-width:0.8;"/>
      </defs>
      <g>
       <use style="stroke:#000000;stroke-width:0.8;" x="54.5614" xlink:href="#m0154efb3bd" y="316.4425"/>
      </g>
     </g>
     <g id="text_1">
      <!-- 0 -->
      <g transform="translate(52.755307 328.033437)scale(0.06 -0.06)">
       <defs>
        <path d="M 23.578125 36.625 
Q 23.578125 39.3125 25.453125 41.265625 
Q 27.34375 43.21875 29.984375 43.21875 
Q 32.71875 43.21875 34.671875 41.265625 
Q 36.625 39.3125 36.625 36.625 
Q 36.625 33.890625 34.6875 31.984375 
Q 32.765625 30.078125 29.984375 30.078125 
Q 27.25 30.078125 25.40625 31.9375 
Q 23.578125 33.796875 23.578125 36.625 
z
M 30.078125 66.40625 
Q 23.1875 66.40625 19.796875 58.984375 
Q 16.40625 51.5625 16.40625 36.375 
Q 16.40625 21.234375 19.796875 13.8125 
Q 23.1875 6.390625 30.078125 6.390625 
Q 37.015625 6.390625 40.40625 13.8125 
Q 43.796875 21.234375 43.796875 36.375 
Q 43.796875 51.5625 40.40625 58.984375 
Q 37.015625 66.40625 30.078125 66.40625 
z
M 30.078125 74.21875 
Q 41.75 74.21875 47.734375 64.640625 
Q 53.71875 55.078125 53.71875 36.375 
Q 53.71875 17.71875 47.734375 8.140625 
Q 41.75 -1.421875 30.078125 -1.421875 
Q 18.40625 -1.421875 12.453125 8.140625 
Q 6.5 17.71875 6.5 36.375 
Q 6.5 55.078125 12.453125 64.640625 
Q 18.40625 74.21875 30.078125 74.21875 
z
" id="DejaVuSansMono-48"/>
       </defs>
       <use xlink:href="#DejaVuSansMono-48"/>
      </g>
     </g>
    </g>
    <g id="xtick_2">
     <g id="line2d_2">
      <g>
       <use style="stroke:#000000;stroke-width:0.8;" x="133.061507" xlink:href="#m0154efb3bd" y="316.4425"/>
      </g>
     </g>
     <g id="text_2">
      <!-- 200 -->
      <g transform="translate(127.643226 328.033437)scale(0.06 -0.06)">
       <defs>
        <path d="M 18.21875 8.296875 
L 51.703125 8.296875 
L 51.703125 0 
L 7.421875 0 
L 7.421875 8.296875 
Q 16.546875 17.921875 23.375 25.296875 
Q 30.21875 32.671875 32.8125 35.6875 
Q 37.703125 41.65625 39.40625 45.34375 
Q 41.109375 49.03125 41.109375 52.875 
Q 41.109375 58.984375 37.515625 62.453125 
Q 33.9375 65.921875 27.6875 65.921875 
Q 23.25 65.921875 18.359375 64.3125 
Q 13.484375 62.703125 8.015625 59.421875 
L 8.015625 69.390625 
Q 13.03125 71.78125 17.890625 73 
Q 22.75 74.21875 27.484375 74.21875 
Q 38.1875 74.21875 44.703125 68.53125 
Q 51.21875 62.84375 51.21875 53.609375 
Q 51.21875 48.921875 49.046875 44.234375 
Q 46.875 39.546875 42 33.890625 
Q 39.265625 30.71875 34.0625 25.09375 
Q 28.859375 19.484375 18.21875 8.296875 
z
" id="DejaVuSansMono-50"/>
       </defs>
       <use xlink:href="#DejaVuSansMono-50"/>
       <use x="60.205078" xlink:href="#DejaVuSansMono-48"/>
       <use x="120.410156" xlink:href="#DejaVuSansMono-48"/>
      </g>
     </g>
    </g>
    <g id="xtick_3">
     <g id="line2d_3">
      <g>
       <use style="stroke:#000000;stroke-width:0.8;" x="211.561613" xlink:href="#m0154efb3bd" y="316.4425"/>
      </g>
     </g>
     <g id="text_3">
      <!-- 400 -->
      <g transform="translate(206.143332 328.033437)scale(0.06 -0.06)">
       <defs>
        <path d="M 35.890625 63.921875 
L 12.890625 25.390625 
L 35.890625 25.390625 
z
M 34.28125 72.90625 
L 45.703125 72.90625 
L 45.703125 25.390625 
L 55.421875 25.390625 
L 55.421875 17.390625 
L 45.703125 17.390625 
L 45.703125 0 
L 35.890625 0 
L 35.890625 17.390625 
L 4.984375 17.390625 
L 4.984375 26.703125 
z
" id="DejaVuSansMono-52"/>
       </defs>
       <use xlink:href="#DejaVuSansMono-52"/>
       <use x="60.205078" xlink:href="#DejaVuSansMono-48"/>
       <use x="120.410156" xlink:href="#DejaVuSansMono-48"/>
      </g>
     </g>
    </g>
    <g id="xtick_4">
     <g id="line2d_4">
      <g>
       <use style="stroke:#000000;stroke-width:0.8;" x="290.06172" xlink:href="#m0154efb3bd" y="316.4425"/>
      </g>
     </g>
     <g id="text_4">
      <!-- 600 -->
      <g transform="translate(284.643438 328.033437)scale(0.06 -0.06)">
       <defs>
        <path d="M 48.390625 71.296875 
L 48.390625 62.203125 
Q 45.3125 64.015625 41.84375 64.96875 
Q 38.375 65.921875 34.625 65.921875 
Q 25.25 65.921875 20.40625 58.859375 
Q 15.578125 51.8125 15.578125 38.09375 
Q 17.921875 42.96875 22.0625 45.578125 
Q 26.21875 48.1875 31.59375 48.1875 
Q 42.140625 48.1875 47.921875 41.71875 
Q 53.71875 35.25 53.71875 23.390625 
Q 53.71875 11.578125 47.75 5.078125 
Q 41.796875 -1.421875 31 -1.421875 
Q 18.3125 -1.421875 12.40625 7.6875 
Q 6.5 16.796875 6.5 36.375 
Q 6.5 54.828125 13.59375 64.515625 
Q 20.703125 74.21875 34.1875 74.21875 
Q 37.796875 74.21875 41.40625 73.453125 
Q 45.015625 72.703125 48.390625 71.296875 
z
M 30.8125 40.484375 
Q 24.515625 40.484375 20.890625 35.9375 
Q 17.28125 31.390625 17.28125 23.390625 
Q 17.28125 15.375 20.890625 10.828125 
Q 24.515625 6.296875 30.8125 6.296875 
Q 37.359375 6.296875 40.671875 10.609375 
Q 44 14.9375 44 23.390625 
Q 44 31.890625 40.671875 36.1875 
Q 37.359375 40.484375 30.8125 40.484375 
z
" id="DejaVuSansMono-54"/>
       </defs>
       <use xlink:href="#DejaVuSansMono-54"/>
       <use x="60.205078" xlink:href="#DejaVuSansMono-48"/>
       <use x="120.410156" xlink:href="#DejaVuSansMono-48"/>
      </g>
     </g>
    </g>
    <g id="xtick_5">
     <g id="line2d_5">
      <g>
       <use style="stroke:#000000;stroke-width:0.8;" x="368.561826" xlink:href="#m0154efb3bd" y="316.4425"/>
      </g>
     </g>
     <g id="text_5">
      <!-- 800 -->
      <g transform="translate(363.143545 328.033437)scale(0.06 -0.06)">
       <defs>
        <path d="M 30.078125 34.625 
Q 23.484375 34.625 19.890625 30.9375 
Q 16.3125 27.25 16.3125 20.515625 
Q 16.3125 13.765625 19.9375 10.03125 
Q 23.578125 6.296875 30.078125 6.296875 
Q 36.71875 6.296875 40.296875 9.984375 
Q 43.890625 13.671875 43.890625 20.515625 
Q 43.890625 27.203125 40.25 30.90625 
Q 36.625 34.625 30.078125 34.625 
z
M 21.484375 38.71875 
Q 15.1875 40.328125 11.640625 44.71875 
Q 8.109375 49.125 8.109375 55.328125 
Q 8.109375 64.015625 14.015625 69.109375 
Q 19.921875 74.21875 30.078125 74.21875 
Q 40.28125 74.21875 46.1875 69.109375 
Q 52.09375 64.015625 52.09375 55.328125 
Q 52.09375 49.125 48.546875 44.71875 
Q 45.015625 40.328125 38.71875 38.71875 
Q 46.046875 37.109375 49.921875 32.21875 
Q 53.8125 27.34375 53.8125 19.578125 
Q 53.8125 9.71875 47.515625 4.140625 
Q 41.21875 -1.421875 30.078125 -1.421875 
Q 18.953125 -1.421875 12.671875 4.125 
Q 6.390625 9.671875 6.390625 19.484375 
Q 6.390625 27.296875 10.265625 32.203125 
Q 14.15625 37.109375 21.484375 38.71875 
z
M 17.921875 54.390625 
Q 17.921875 48.53125 21.046875 45.453125 
Q 24.171875 42.390625 30.078125 42.390625 
Q 36.03125 42.390625 39.15625 45.453125 
Q 42.28125 48.53125 42.28125 54.390625 
Q 42.28125 60.359375 39.171875 63.484375 
Q 36.078125 66.609375 30.078125 66.609375 
Q 24.171875 66.609375 21.046875 63.453125 
Q 17.921875 60.296875 17.921875 54.390625 
z
" id="DejaVuSansMono-56"/>
       </defs>
       <use xlink:href="#DejaVuSansMono-56"/>
       <use x="60.205078" xlink:href="#DejaVuSansMono-48"/>
       <use x="120.410156" xlink:href="#DejaVuSansMono-48"/>
      </g>
     </g>
    </g>
    <g id="xtick_6">
     <g id="line2d_6">
      <g>
       <use style="stroke:#000000;stroke-width:0.8;" x="447.061932" xlink:href="#m0154efb3bd" y="316.4425"/>
      </g>
     </g>
     <g id="text_6">
      <!-- 1000 -->
      <g transform="translate(439.837557 328.033437)scale(0.06 -0.06)">
       <defs>
        <path d="M 13.1875 8.296875 
L 28.515625 8.296875 
L 28.515625 64.015625 
L 12.015625 60.296875 
L 12.015625 69.28125 
L 28.421875 72.90625 
L 38.28125 72.90625 
L 38.28125 8.296875 
L 53.421875 8.296875 
L 53.421875 0 
L 13.1875 0 
z
" id="DejaVuSansMono-49"/>
       </defs>
       <use xlink:href="#DejaVuSansMono-49"/>
       <use x="60.205078" xlink:href="#DejaVuSansMono-48"/>
       <use x="120.410156" xlink:href="#DejaVuSansMono-48"/>
       <use x="180.615234" xlink:href="#DejaVuSansMono-48"/>
      </g>
     </g>
    </g>
    <g id="text_7">
     <!-- n -->
     <g transform="translate(239.78181 337.872187)scale(0.06 -0.06)">
      <defs>
       <path d="M 51.3125 33.890625 
L 51.3125 0 
L 42.28125 0 
L 42.28125 33.890625 
Q 42.28125 41.265625 39.6875 44.71875 
Q 37.109375 48.1875 31.59375 48.1875 
Q 25.296875 48.1875 21.890625 43.71875 
Q 18.5 39.265625 18.5 30.90625 
L 18.5 0 
L 9.515625 0 
L 9.515625 54.6875 
L 18.5 54.6875 
L 18.5 46.484375 
Q 20.90625 51.171875 25 53.578125 
Q 29.109375 56 34.71875 56 
Q 43.0625 56 47.1875 50.5 
Q 51.3125 45.015625 51.3125 33.890625 
z
" id="DejaVuSansMono-110"/>
      </defs>
      <use xlink:href="#DejaVuSansMono-110"/>
     </g>
    </g>
   </g>
   <g id="matplotlib.axis_2">
    <g id="ytick_1">
     <g id="line2d_7">
      <defs>
       <path d="M 0 0 
L -3.5 0 
" id="md84c41c5c7" style="stroke:#000000;stroke-width:0.8;"/>
      </defs>
      <g>
       <use style="stroke:#000000;stroke-width:0.8;" x="35.85875" xlink:href="#md84c41c5c7" y="285.711274"/>
      </g>
     </g>
     <g id="text_8">
      <!-- $\mathdefault{10^{1}}$ -->
      <g transform="translate(18.83875 288.006743)scale(0.06 -0.06)">
       <use transform="translate(0 0.684375)" xlink:href="#DejaVuSansMono-49"/>
       <use transform="translate(60.205078 0.684375)" xlink:href="#DejaVuSansMono-48"/>
       <use transform="translate(121.367188 38.965625)scale(0.7)" xlink:href="#DejaVuSansMono-49"/>
      </g>
     </g>
    </g>
    <g id="ytick_2">
     <g id="line2d_8">
      <g>
       <use style="stroke:#000000;stroke-width:0.8;" x="35.85875" xlink:href="#md84c41c5c7" y="251.380947"/>
      </g>
     </g>
     <g id="text_9">
      <!-- $\mathdefault{10^{3}}$ -->
      <g transform="translate(18.83875 253.676416)scale(0.06 -0.06)">
       <defs>
        <path d="M 37.890625 39.015625 
Q 45.0625 37.109375 48.875 32.25 
Q 52.6875 27.390625 52.6875 20.125 
Q 52.6875 10.0625 45.921875 4.3125 
Q 39.15625 -1.421875 27.203125 -1.421875 
Q 22.171875 -1.421875 16.9375 -0.484375 
Q 11.71875 0.4375 6.6875 2.203125 
L 6.6875 12.015625 
Q 11.671875 9.421875 16.5 8.15625 
Q 21.34375 6.890625 26.125 6.890625 
Q 34.234375 6.890625 38.578125 10.546875 
Q 42.921875 14.203125 42.921875 21.09375 
Q 42.921875 27.4375 38.578125 31.171875 
Q 34.234375 34.90625 26.8125 34.90625 
L 19.28125 34.90625 
L 19.28125 43.015625 
L 26.8125 43.015625 
Q 33.59375 43.015625 37.40625 45.984375 
Q 41.21875 48.96875 41.21875 54.296875 
Q 41.21875 59.90625 37.671875 62.90625 
Q 34.125 65.921875 27.59375 65.921875 
Q 23.25 65.921875 18.609375 64.9375 
Q 13.96875 63.96875 8.890625 62.015625 
L 8.890625 71.09375 
Q 14.796875 72.65625 19.40625 73.4375 
Q 24.03125 74.21875 27.59375 74.21875 
Q 38.234375 74.21875 44.609375 68.875 
Q 50.984375 63.53125 50.984375 54.6875 
Q 50.984375 48.6875 47.625 44.671875 
Q 44.28125 40.671875 37.890625 39.015625 
z
" id="DejaVuSansMono-51"/>
       </defs>
       <use transform="translate(0 0.765625)" xlink:href="#DejaVuSansMono-49"/>
       <use transform="translate(60.205078 0.765625)" xlink:href="#DejaVuSansMono-48"/>
       <use transform="translate(121.367188 39.046875)scale(0.7)" xlink:href="#DejaVuSansMono-51"/>
      </g>
     </g>
    </g>
    <g id="ytick_3">
     <g id="line2d_9">
      <g>
       <use style="stroke:#000000;stroke-width:0.8;" x="35.85875" xlink:href="#md84c41c5c7" y="217.05062"/>
      </g>
     </g>
     <g id="text_10">
      <!-- $\mathdefault{10^{5}}$ -->
      <g transform="translate(18.83875 219.346089)scale(0.06 -0.06)">
       <defs>
        <path d="M 10.109375 72.90625 
L 47.015625 72.90625 
L 47.015625 64.59375 
L 19.09375 64.59375 
L 19.09375 46.6875 
Q 21.1875 47.46875 23.3125 47.828125 
Q 25.4375 48.1875 27.59375 48.1875 
Q 38.921875 48.1875 45.5625 41.5 
Q 52.203125 34.8125 52.203125 23.390625 
Q 52.203125 11.859375 45.234375 5.21875 
Q 38.28125 -1.421875 26.21875 -1.421875 
Q 20.40625 -1.421875 15.59375 -0.640625 
Q 10.796875 0.140625 6.984375 1.703125 
L 6.984375 11.71875 
Q 11.46875 9.28125 16.015625 8.078125 
Q 20.5625 6.890625 25.296875 6.890625 
Q 33.453125 6.890625 37.859375 11.1875 
Q 42.28125 15.484375 42.28125 23.390625 
Q 42.28125 31.203125 37.71875 35.546875 
Q 33.15625 39.890625 25 39.890625 
Q 21.046875 39.890625 17.28125 38.984375 
Q 13.53125 38.09375 10.109375 36.28125 
z
" id="DejaVuSansMono-53"/>
       </defs>
       <use transform="translate(0 0.684375)" xlink:href="#DejaVuSansMono-49"/>
       <use transform="translate(60.205078 0.684375)" xlink:href="#DejaVuSansMono-48"/>
       <use transform="translate(121.367188 38.965625)scale(0.7)" xlink:href="#DejaVuSansMono-53"/>
      </g>
     </g>
    </g>
    <g id="ytick_4">
     <g id="line2d_10">
      <g>
       <use style="stroke:#000000;stroke-width:0.8;" x="35.85875" xlink:href="#md84c41c5c7" y="182.720293"/>
      </g>
     </g>
     <g id="text_11">
      <!-- $\mathdefault{10^{7}}$ -->
      <g transform="translate(18.83875 185.015761)scale(0.06 -0.06)">
       <defs>
        <path d="M 6.78125 72.90625 
L 52.6875 72.90625 
L 52.6875 68.703125 
L 26.609375 0 
L 16.3125 0 
L 41.703125 64.59375 
L 6.78125 64.59375 
z
" id="DejaVuSansMono-55"/>
       </defs>
       <use transform="translate(0 0.684375)" xlink:href="#DejaVuSansMono-49"/>
       <use transform="translate(60.205078 0.684375)" xlink:href="#DejaVuSansMono-48"/>
       <use transform="translate(121.367188 38.965625)scale(0.7)" xlink:href="#DejaVuSansMono-55"/>
      </g>
     </g>
    </g>
    <g id="ytick_5">
     <g id="line2d_11">
      <g>
       <use style="stroke:#000000;stroke-width:0.8;" x="35.85875" xlink:href="#md84c41c5c7" y="148.389966"/>
      </g>
     </g>
     <g id="text_12">
      <!-- $\mathdefault{10^{9}}$ -->
      <g transform="translate(18.83875 150.685434)scale(0.06 -0.06)">
       <defs>
        <path d="M 29.109375 32.328125 
Q 35.40625 32.328125 38.984375 36.859375 
Q 42.578125 41.40625 42.578125 49.421875 
Q 42.578125 57.421875 38.984375 61.953125 
Q 35.40625 66.5 29.109375 66.5 
Q 22.5625 66.5 19.234375 62.171875 
Q 15.921875 57.859375 15.921875 49.421875 
Q 15.921875 40.921875 19.21875 36.625 
Q 22.515625 32.328125 29.109375 32.328125 
z
M 11.53125 1.515625 
L 11.53125 10.59375 
Q 14.59375 8.796875 18.0625 7.84375 
Q 21.53125 6.890625 25.296875 6.890625 
Q 34.671875 6.890625 39.46875 13.9375 
Q 44.28125 21 44.28125 34.71875 
Q 42 29.828125 37.84375 27.21875 
Q 33.6875 24.609375 28.328125 24.609375 
Q 17.78125 24.609375 11.984375 31.09375 
Q 6.203125 37.59375 6.203125 49.515625 
Q 6.203125 61.28125 12.125 67.75 
Q 18.0625 74.21875 28.90625 74.21875 
Q 41.609375 74.21875 47.515625 65.078125 
Q 53.421875 55.953125 53.421875 36.375 
Q 53.421875 17.96875 46.3125 8.265625 
Q 39.203125 -1.421875 25.6875 -1.421875 
Q 22.125 -1.421875 18.5 -0.65625 
Q 14.890625 0.09375 11.53125 1.515625 
z
" id="DejaVuSansMono-57"/>
       </defs>
       <use transform="translate(0 0.765625)" xlink:href="#DejaVuSansMono-49"/>
       <use transform="translate(60.205078 0.765625)" xlink:href="#DejaVuSansMono-48"/>
       <use transform="translate(121.367188 39.046875)scale(0.7)" xlink:href="#DejaVuSansMono-57"/>
      </g>
     </g>
    </g>
    <g id="ytick_6">
     <g id="line2d_12">
      <g>
       <use style="stroke:#000000;stroke-width:0.8;" x="35.85875" xlink:href="#md84c41c5c7" y="114.059638"/>
      </g>
     </g>
     <g id="text_13">
      <!-- $\mathdefault{10^{11}}$ -->
      <g transform="translate(16.31875 116.355107)scale(0.06 -0.06)">
       <use transform="translate(0 0.684375)" xlink:href="#DejaVuSansMono-49"/>
       <use transform="translate(60.205078 0.684375)" xlink:href="#DejaVuSansMono-48"/>
       <use transform="translate(121.367188 38.965625)scale(0.7)" xlink:href="#DejaVuSansMono-49"/>
       <use transform="translate(163.510742 38.965625)scale(0.7)" xlink:href="#DejaVuSansMono-49"/>
      </g>
     </g>
    </g>
    <g id="ytick_7">
     <g id="line2d_13">
      <g>
       <use style="stroke:#000000;stroke-width:0.8;" x="35.85875" xlink:href="#md84c41c5c7" y="79.729311"/>
      </g>
     </g>
     <g id="text_14">
      <!-- $\mathdefault{10^{13}}$ -->
      <g transform="translate(16.31875 82.02478)scale(0.06 -0.06)">
       <use transform="translate(0 0.765625)" xlink:href="#DejaVuSansMono-49"/>
       <use transform="translate(60.205078 0.765625)" xlink:href="#DejaVuSansMono-48"/>
       <use transform="translate(121.367188 39.046875)scale(0.7)" xlink:href="#DejaVuSansMono-49"/>
       <use transform="translate(163.510742 39.046875)scale(0.7)" xlink:href="#DejaVuSansMono-51"/>
      </g>
     </g>
    </g>
    <g id="ytick_8">
     <g id="line2d_14">
      <g>
       <use style="stroke:#000000;stroke-width:0.8;" x="35.85875" xlink:href="#md84c41c5c7" y="45.398984"/>
      </g>
     </g>
     <g id="text_15">
      <!-- $\mathdefault{10^{15}}$ -->
      <g transform="translate(16.31875 47.694453)scale(0.06 -0.06)">
       <use transform="translate(0 0.684375)" xlink:href="#DejaVuSansMono-49"/>
       <use transform="translate(60.205078 0.684375)" xlink:href="#DejaVuSansMono-48"/>
       <use transform="translate(121.367188 38.965625)scale(0.7)" xlink:href="#DejaVuSansMono-49"/>
       <use transform="translate(163.510742 38.965625)scale(0.7)" xlink:href="#DejaVuSansMono-53"/>
      </g>
     </g>
    </g>
    <g id="text_16">
     <!-- y_n -->
     <g transform="translate(10.904063 172.634094)rotate(-90)scale(0.06 -0.06)">
      <defs>
       <path d="M 41.890625 17.578125 
Q 39.65625 11.859375 36.1875 2.546875 
Q 31.34375 -10.359375 29.6875 -13.1875 
Q 27.4375 -17 24.0625 -18.890625 
Q 20.703125 -20.796875 16.21875 -20.796875 
L 8.984375 -20.796875 
L 8.984375 -13.28125 
L 14.3125 -13.28125 
Q 18.265625 -13.28125 20.5 -10.984375 
Q 22.75 -8.6875 26.21875 0.875 
L 5.078125 54.6875 
L 14.59375 54.6875 
L 30.8125 11.921875 
L 46.78125 54.6875 
L 56.296875 54.6875 
z
" id="DejaVuSansMono-121"/>
       <path d="M 60.203125 -19.671875 
L 60.203125 -23.578125 
L 0 -23.578125 
L 0 -19.671875 
z
" id="DejaVuSansMono-95"/>
      </defs>
      <use xlink:href="#DejaVuSansMono-121"/>
      <use x="60.205078" xlink:href="#DejaVuSansMono-95"/>
      <use x="120.410156" xlink:href="#DejaVuSansMono-110"/>
     </g>
    </g>
   </g>
   <g id="line2d_15">
    <path clip-path="url(#p40b34bea11)" d="M 54.5614 159.990026 
L 54.953901 151.800162 
L 55.346401 156.967391 
L 55.738902 148.777527 
L 56.131402 153.944756 
L 56.523903 145.754891 
L 56.916404 150.92212 
L 57.308904 142.732256 
L 57.701405 147.899485 
L 58.093905 139.709621 
L 58.878906 150.044079 
L 59.271407 141.854215 
L 59.663907 147.021444 
L 60.056408 138.831579 
L 61.233909 154.333267 
L 61.62641 146.143402 
L 62.01891 151.310631 
L 62.411411 143.120767 
L 62.803912 148.287996 
L 63.196412 140.098132 
L 63.588913 145.265361 
L 63.981413 137.075496 
L 64.373914 142.242726 
L 64.766414 134.052861 
L 65.551415 144.387319 
L 65.943916 136.197455 
L 66.336416 141.364684 
L 66.728917 133.17482 
L 67.513918 143.509278 
L 67.906418 135.319414 
L 68.298919 140.486643 
L 68.69142 132.296778 
L 69.08392 137.464008 
L 69.476421 129.274143 
L 69.868921 134.441372 
L 70.261422 126.251508 
L 70.653922 131.418737 
L 71.046423 123.228873 
L 72.223924 138.73056 
L 72.616425 130.540696 
L 73.401426 140.875154 
L 73.793926 132.685289 
L 74.186427 137.852519 
L 74.578927 129.662654 
L 74.971428 134.829883 
L 75.363929 126.640019 
L 76.14893 136.974477 
L 76.54143 128.784613 
L 76.933931 133.951842 
L 77.326431 125.761977 
L 77.718932 130.929207 
L 78.111432 122.739342 
L 78.503933 127.906571 
L 78.896433 119.716707 
L 79.681434 130.051165 
L 80.073935 121.861301 
L 80.466435 127.02853 
L 80.858936 118.838666 
L 81.251437 124.005895 
L 81.643937 115.81603 
L 82.036438 120.983259 
L 82.428938 112.793395 
L 82.821439 117.960624 
L 83.213939 109.77076 
L 84.391441 125.272447 
L 84.783941 117.082583 
L 85.176442 122.249812 
L 85.568942 114.059947 
L 85.961443 119.227177 
L 86.353943 111.037312 
L 86.746444 116.204541 
L 87.138945 108.014677 
L 87.531445 113.181906 
L 87.923946 104.992042 
L 88.708947 115.3265 
L 89.101447 107.136636 
L 89.493948 112.303865 
L 89.886448 104.114 
L 90.671449 114.448458 
L 91.06395 106.258594 
L 91.45645 111.425823 
L 91.848951 103.235959 
L 92.241451 108.403188 
L 92.633952 100.213324 
L 93.811454 115.715011 
L 94.203954 107.525147 
L 94.596455 112.692376 
L 94.988955 104.502511 
L 96.166457 120.004199 
L 96.558957 111.814334 
L 96.951458 116.981563 
L 97.343958 108.791699 
L 97.736459 113.958928 
L 98.128959 105.769064 
L 98.52146 110.936293 
L 98.91396 102.746428 
L 99.698962 113.080887 
L 100.091462 104.891022 
L 100.483963 110.058251 
L 100.876463 101.868387 
L 102.053965 117.370074 
L 102.446465 109.18021 
L 102.838966 114.347439 
L 103.231466 106.157575 
L 103.623967 111.324804 
L 104.016467 103.134939 
L 104.408968 108.302169 
L 104.801468 100.112304 
L 105.193969 105.279533 
L 105.58647 97.089669 
L 105.97897 102.256898 
L 106.371471 94.067034 
L 106.763971 99.234263 
L 107.156472 91.044398 
L 107.941473 101.378857 
L 108.333973 93.188992 
L 109.118974 103.52345 
L 109.511475 95.333586 
L 109.903975 100.500815 
L 110.296476 92.310951 
L 110.688976 97.47818 
L 111.081477 89.288316 
L 112.258979 104.790003 
L 112.651479 96.600139 
L 113.04398 101.767368 
L 113.43648 93.577503 
L 113.828981 98.744732 
L 114.221481 90.554868 
L 114.613982 95.722097 
L 115.006482 87.532233 
L 115.398983 92.699462 
L 115.791483 84.509597 
L 116.183984 89.676827 
L 116.576484 81.486962 
L 116.968985 86.654191 
L 117.361485 78.464327 
L 117.753986 83.631556 
L 118.146487 75.441692 
L 118.538987 80.608921 
L 118.931488 72.419056 
L 119.323988 77.586286 
L 119.716489 69.396421 
L 120.108989 74.56365 
L 120.50149 66.373786 
L 120.89399 71.541015 
L 121.286491 63.351151 
L 121.678991 68.51838 
L 122.071492 60.328515 
L 123.248993 75.830203 
L 123.641494 67.640338 
L 124.033995 72.807567 
L 124.426495 64.617703 
L 124.818996 69.784932 
L 125.211496 61.595068 
L 125.603997 66.762297 
L 125.996497 58.572433 
L 126.388998 63.739662 
L 126.781498 55.549797 
L 127.173999 60.717026 
L 127.566499 52.527162 
L 127.959 57.694391 
L 128.3515 49.504527 
L 128.744001 54.671756 
L 129.136501 46.481892 
L 129.529002 51.649121 
L 129.921503 43.459256 
L 130.706504 53.793714 
L 131.099004 45.60385 
L 131.884005 55.938308 
L 132.276506 47.748444 
L 132.669006 52.915673 
L 133.061507 44.725809 
L 133.846508 55.060267 
L 134.239008 46.870403 
L 134.631509 52.037632 
L 135.024009 43.847767 
L 135.41651 49.014996 
L 135.80901 40.825132 
L 136.201511 45.992361 
L 136.594012 37.802497 
L 137.379013 48.136955 
L 137.771513 39.947091 
L 138.164014 45.11432 
L 138.556514 36.924455 
L 139.341515 47.258914 
L 139.734016 39.069049 
L 140.126516 44.236278 
L 140.519017 36.046414 
L 141.696518 51.548101 
L 142.089019 43.358237 
L 143.266521 58.859924 
L 143.659021 50.67006 
L 144.444022 61.004518 
L 144.836523 52.814654 
L 145.621524 63.149112 
L 146.014024 54.959248 
L 146.406525 60.126477 
L 146.799025 51.936612 
L 147.584026 62.271071 
L 147.976527 54.081206 
L 148.369028 59.248435 
L 148.761528 51.058571 
L 149.154029 56.2258 
L 149.546529 48.035936 
L 149.93903 53.203165 
L 150.33153 45.0133 
L 150.724031 50.180529 
L 151.116531 41.990665 
L 151.509032 47.157894 
L 151.901532 38.96803 
L 153.079034 54.469717 
L 153.471534 46.279853 
L 154.256536 56.614311 
L 154.649036 48.424447 
L 155.041537 53.591676 
L 155.434037 45.401811 
L 155.826538 50.56904 
L 156.219038 42.379176 
L 156.611539 47.546405 
L 157.004039 39.356541 
L 157.78904 49.690999 
L 158.181541 41.501135 
L 158.966542 51.835593 
L 159.359042 43.645729 
L 159.751543 48.812958 
L 160.144043 40.623093 
L 160.536544 45.790322 
L 160.929045 37.600458 
L 161.321545 42.767687 
L 161.714046 34.577823 
L 162.106546 39.745052 
L 162.499047 31.555187 
L 164.069049 52.224104 
L 164.461549 44.03424 
L 164.85405 49.201469 
L 165.24655 41.011604 
L 165.639051 46.178833 
L 166.031551 37.988969 
L 166.424052 43.156198 
L 166.816553 34.966334 
L 167.209053 40.133563 
L 167.601554 31.943699 
L 169.171556 52.612615 
L 169.564056 44.422751 
L 170.349057 54.757209 
L 170.741558 46.567344 
L 171.134058 51.734574 
L 171.526559 43.544709 
L 171.919059 48.711938 
L 172.31156 40.522074 
L 173.881562 61.19099 
L 174.274063 53.001126 
L 174.666563 58.168355 
L 175.059064 49.978491 
L 176.236565 65.480178 
L 176.629066 57.290314 
L 177.021566 62.457543 
L 177.414067 54.267678 
L 178.199068 64.602137 
L 178.591568 56.412272 
L 179.76907 71.91396 
L 180.161571 63.724095 
L 180.554071 68.891324 
L 180.946572 60.70146 
L 182.516574 81.370376 
L 182.909074 73.180512 
L 186.049079 114.518345 
L 186.441579 106.328481 
L 187.619081 121.830168 
L 188.011581 113.640303 
L 188.404082 118.807533 
L 188.796582 110.617668 
L 189.974084 126.119356 
L 190.366584 117.929491 
L 190.759085 123.09672 
L 191.151586 114.906856 
L 192.721588 135.575772 
L 193.114088 127.385908 
L 193.506589 132.553137 
L 193.899089 124.363273 
L 194.29159 129.530502 
L 194.68409 121.340637 
L 195.469091 131.675096 
L 195.861592 123.485231 
L 196.254092 128.65246 
L 196.646593 120.462596 
L 197.039094 125.629825 
L 197.431594 117.439961 
L 198.609096 132.941648 
L 199.001596 124.751784 
L 199.394097 129.919013 
L 199.786597 121.729148 
L 200.571598 132.063607 
L 200.964099 123.873742 
L 201.356599 129.040971 
L 201.7491 120.851107 
L 203.319102 141.520023 
L 203.711603 133.330159 
L 205.674105 159.166305 
L 206.066606 150.97644 
L 207.636608 171.645357 
L 208.029108 163.455492 
L 209.599111 184.124409 
L 209.991611 175.934544 
L 211.169113 191.436231 
L 211.561613 183.246366 
L 211.954114 188.413595 
L 212.346614 180.22373 
L 214.309117 206.059876 
L 214.701617 197.870006 
L 215.094118 203.037235 
L 215.486619 194.847367 
L 216.27162 205.181825 
L 216.66412 196.991956 
L 219.019123 227.99533 
L 219.411624 219.805358 
L 219.804124 224.972587 
L 220.196625 216.782651 
L 220.981626 227.117109 
L 221.374126 218.927149 
L 221.766627 224.094378 
L 222.159128 215.90445 
L 222.944129 226.238908 
L 223.336629 218.048958 
L 223.72913 223.216187 
L 224.12163 215.026266 
L 226.869134 251.19687 
L 227.261634 243.004582 
L 228.046636 253.33904 
L 228.439136 245.145945 
L 229.224137 255.480403 
L 229.616638 247.286233 
L 230.401639 257.620692 
L 230.794139 249.425091 
L 231.57914 259.759549 
L 231.971641 251.562042 
L 233.541643 272.230959 
L 233.934144 264.000469 
L 235.111645 279.502156 
L 235.504146 271.205028 
L 235.896646 276.372257 
L 236.289147 268.111731 
L 236.681647 273.27896 
L 237.074148 265.042358 
L 239.03665 290.878503 
L 239.429151 282.207521 
L 240.999153 302.876437 
L 240.999153 302.876437 
" style="fill:none;stroke:#1f77b4;stroke-linecap:square;stroke-width:0.666667;"/>
   </g>
   <g id="line2d_16">
    <path clip-path="url(#p40b34bea11)" d="M 54.5614 161.601994 
L 54.953901 153.412129 
L 55.738902 163.746588 
L 56.131402 155.556723 
L 56.523903 160.723952 
L 56.916404 152.534088 
L 57.308904 157.701317 
L 57.701405 149.511453 
L 58.093905 154.678682 
L 58.486406 146.488817 
L 58.878906 151.656047 
L 59.271407 143.466182 
L 59.663907 148.633411 
L 60.056408 140.443547 
L 60.448908 145.610776 
L 60.841409 137.420912 
L 61.233909 142.588141 
L 61.62641 134.398276 
L 62.01891 139.565506 
L 62.411411 131.375641 
L 62.803912 136.54287 
L 63.196412 128.353006 
L 64.373914 143.854693 
L 64.766414 135.664829 
L 65.158915 140.832058 
L 65.551415 132.642194 
L 65.943916 137.809423 
L 66.336416 129.619558 
L 66.728917 134.786787 
L 67.121417 126.596923 
L 67.513918 131.764152 
L 67.906418 123.574288 
L 68.298919 128.741517 
L 68.69142 120.551653 
L 69.476421 130.886111 
L 69.868921 122.696246 
L 70.261422 127.863475 
L 70.653922 119.673611 
L 71.046423 124.84084 
L 71.438923 116.650976 
L 71.831424 121.818205 
L 72.223924 113.628341 
L 72.616425 118.79557 
L 73.008925 110.605705 
L 73.401426 115.772934 
L 73.793926 107.58307 
L 74.186427 112.750299 
L 74.578927 104.560435 
L 74.971428 109.727664 
L 75.363929 101.5378 
L 77.326431 127.373945 
L 77.718932 119.184081 
L 78.111432 124.35131 
L 78.503933 116.161445 
L 78.896433 121.328675 
L 79.288934 113.13881 
L 79.681434 118.306039 
L 80.073935 110.116175 
L 80.466435 115.283404 
L 80.858936 107.09354 
L 81.251437 112.260769 
L 81.643937 104.070904 
L 82.428938 114.405363 
L 82.821439 106.215498 
L 83.213939 111.382727 
L 83.60644 103.192863 
L 83.99894 108.360092 
L 84.391441 100.170228 
L 84.783941 105.337457 
L 85.176442 97.147592 
L 85.961443 107.482051 
L 86.353943 99.292186 
L 87.138945 109.626645 
L 87.531445 101.43678 
L 88.316446 111.771238 
L 88.708947 103.581374 
L 89.101447 108.748603 
L 89.493948 100.558739 
L 90.671449 116.060426 
L 91.06395 107.870562 
L 91.45645 113.037791 
L 91.848951 104.847926 
L 92.241451 110.015156 
L 92.633952 101.825291 
L 94.203954 122.494208 
L 94.596455 114.304343 
L 95.381456 124.638801 
L 95.773956 116.448937 
L 96.166457 121.616166 
L 96.558957 113.426302 
L 97.343958 123.76076 
L 97.736459 115.570896 
L 98.128959 120.738125 
L 98.52146 112.54826 
L 98.91396 117.71549 
L 99.306461 109.525625 
L 99.698962 114.692854 
L 100.091462 106.50299 
L 100.876463 116.837448 
L 101.268964 108.647584 
L 102.053965 118.982042 
L 102.446465 110.792178 
L 102.838966 115.959407 
L 103.231466 107.769542 
L 104.016467 118.104001 
L 104.408968 109.914136 
L 104.801468 115.081365 
L 105.193969 106.891501 
L 105.58647 112.05873 
L 105.97897 103.868866 
L 106.763971 114.203324 
L 107.156472 106.01346 
L 107.548972 111.180689 
L 107.941473 102.990824 
L 108.726474 113.325282 
L 109.118974 105.135418 
L 110.296476 120.637105 
L 110.688976 112.447241 
L 111.473978 122.781699 
L 111.866478 114.591835 
L 112.258979 119.759064 
L 112.651479 111.5692 
L 113.43648 121.903658 
L 113.828981 113.713793 
L 114.221481 118.881023 
L 114.613982 110.691158 
L 115.006482 115.858387 
L 115.398983 107.668523 
L 116.183984 118.002981 
L 116.576484 109.813117 
L 116.968985 114.980346 
L 117.361485 106.790482 
L 118.146487 117.12494 
L 118.538987 108.935075 
L 119.716489 124.436763 
L 120.108989 116.246898 
L 121.678991 136.915815 
L 122.071492 128.72595 
L 122.856493 139.060409 
L 123.248993 130.870544 
L 123.641494 136.037773 
L 124.033995 127.847909 
L 124.426495 133.015138 
L 124.818996 124.825274 
L 125.603997 135.159732 
L 125.996497 126.969868 
L 126.388998 132.137097 
L 126.781498 123.947232 
L 127.173999 129.114461 
L 127.566499 120.924597 
L 127.959 126.091826 
L 128.3515 117.901962 
L 129.136501 128.23642 
L 129.529002 120.046556 
L 130.314003 130.381014 
L 130.706504 122.19115 
L 131.099004 127.358379 
L 131.491505 119.168514 
L 131.884005 124.335743 
L 132.276506 116.145879 
L 132.669006 121.313108 
L 133.061507 113.123244 
L 133.846508 123.457702 
L 134.239008 115.267838 
L 135.024009 125.602296 
L 135.41651 117.412431 
L 135.80901 122.579661 
L 136.201511 114.389796 
L 136.594012 119.557025 
L 136.986512 111.367161 
L 137.379013 116.53439 
L 137.771513 108.344526 
L 138.556514 118.678984 
L 138.949015 110.489119 
L 139.734016 120.823578 
L 140.126516 112.633713 
L 140.911517 122.968172 
L 141.304018 114.778307 
L 141.696518 119.945536 
L 142.089019 111.755672 
L 142.48152 116.922901 
L 142.87402 108.733037 
L 144.051522 124.234724 
L 144.444022 116.04486 
L 146.014024 136.713776 
L 146.406525 128.523912 
L 146.799025 133.691141 
L 147.191526 125.501276 
L 147.584026 130.668506 
L 147.976527 122.478641 
L 148.761528 132.813099 
L 149.154029 124.623235 
L 149.93903 134.957693 
L 150.33153 126.767829 
L 150.724031 131.935058 
L 151.116531 123.745194 
L 151.509032 128.912423 
L 151.901532 120.722558 
L 152.294033 125.889787 
L 152.686533 117.699923 
L 153.079034 122.867152 
L 153.471534 114.677288 
L 153.864035 119.844517 
L 154.256536 111.654653 
L 155.826538 132.323569 
L 156.219038 124.133705 
L 156.611539 129.300934 
L 157.004039 121.111069 
L 158.181541 136.612757 
L 158.574041 128.422892 
L 159.359042 138.757351 
L 159.751543 130.567486 
L 160.144043 135.734715 
L 160.536544 127.544851 
L 160.929045 132.71208 
L 161.321545 124.522216 
L 161.714046 129.689445 
L 162.106546 121.49958 
L 162.499047 126.666809 
L 162.891547 118.476945 
L 164.85405 144.313091 
L 165.24655 136.123226 
L 165.639051 141.290455 
L 166.031551 133.100591 
L 166.424052 138.26782 
L 166.816553 130.077956 
L 167.209053 135.245185 
L 167.601554 127.05532 
L 167.994054 132.22255 
L 168.386555 124.032685 
L 168.779055 129.199914 
L 169.171556 121.01005 
L 169.956557 131.344508 
L 170.349057 123.154644 
L 171.134058 133.489102 
L 171.526559 125.299238 
L 172.31156 135.633696 
L 172.704061 127.443832 
L 173.489062 137.77829 
L 173.881562 129.588425 
L 174.666563 139.922884 
L 175.059064 131.733019 
L 175.451564 136.900248 
L 175.844065 128.710384 
L 176.236565 133.877613 
L 176.629066 125.687749 
L 177.021566 130.854978 
L 177.414067 122.665113 
L 177.806567 127.832343 
L 178.199068 119.642478 
L 178.984069 129.976936 
L 179.37657 121.787072 
L 179.76907 126.954301 
L 180.161571 118.764437 
L 180.554071 123.931666 
L 180.946572 115.741801 
L 181.339072 120.909031 
L 181.731573 112.719166 
L 182.124073 117.886395 
L 182.516574 109.696531 
L 183.301575 120.030989 
L 183.694075 111.841125 
L 184.086576 117.008354 
L 184.479076 108.81849 
L 184.871577 113.985719 
L 185.264078 105.795854 
L 186.049079 116.130312 
L 186.441579 107.940448 
L 186.83408 113.107677 
L 187.22658 104.917813 
L 188.011581 115.252271 
L 188.404082 107.062407 
L 188.796582 112.229636 
L 189.189083 104.039771 
L 189.974084 114.37423 
L 190.366584 106.184365 
L 191.151586 116.518824 
L 191.544086 108.328959 
L 192.329087 118.663417 
L 192.721588 110.473553 
L 193.114088 115.640782 
L 193.506589 107.450918 
L 193.899089 112.618147 
L 194.29159 104.428282 
L 195.076591 114.762741 
L 195.469091 106.572876 
L 195.861592 111.740105 
L 196.254092 103.550241 
L 197.039094 113.884699 
L 197.431594 105.694835 
L 197.824095 110.862064 
L 198.216595 102.6722 
L 198.609096 107.839429 
L 199.001596 99.649564 
L 199.786597 109.984023 
L 200.179098 101.794158 
L 201.7491 122.463075 
L 202.1416 114.27321 
L 202.926601 124.607669 
L 203.319102 116.417804 
L 203.711603 121.585033 
L 204.104103 113.395169 
L 204.889104 123.729627 
L 205.281605 115.539763 
L 205.674105 120.706992 
L 206.066606 112.517127 
L 206.459106 117.684357 
L 206.851607 109.494492 
L 207.636608 119.82895 
L 208.029108 111.639086 
L 208.421609 116.806315 
L 208.814109 108.616451 
L 209.599111 118.950909 
L 209.991611 110.761045 
L 210.384112 115.928274 
L 210.776612 107.738409 
L 211.561613 118.072868 
L 211.954114 109.883003 
L 213.131615 125.384691 
L 213.524116 117.194826 
L 214.309117 127.529284 
L 214.701617 119.33942 
L 215.094118 124.506649 
L 215.486619 116.316785 
L 215.879119 121.484014 
L 216.27162 113.29415 
L 216.66412 118.461379 
L 217.056621 110.271514 
L 218.626623 130.940431 
L 219.019123 122.750566 
L 219.804124 133.085025 
L 220.196625 124.89516 
L 220.589125 130.062389 
L 220.981626 121.872525 
L 221.374126 127.039754 
L 221.766627 118.84989 
L 222.159128 124.017119 
L 222.551628 115.827254 
L 224.12163 136.496171 
L 224.514131 128.306306 
L 224.906631 133.473536 
L 225.299132 125.283671 
L 225.691632 130.4509 
L 226.084133 122.261036 
L 226.476633 127.428265 
L 226.869134 119.238401 
L 227.261634 124.40563 
L 227.654135 116.215765 
L 228.439136 126.550224 
L 228.831637 118.360359 
L 230.009138 133.862047 
L 230.401639 125.672182 
L 231.18664 136.00664 
L 231.57914 127.816776 
L 231.971641 132.984005 
L 232.364141 124.794141 
L 232.756642 129.96137 
L 233.149142 121.771506 
L 234.326644 137.273193 
L 234.719145 129.083328 
L 235.504146 139.417787 
L 235.896646 131.227922 
L 237.074148 146.72961 
L 237.466648 138.539745 
L 237.859149 143.706974 
L 238.251649 135.51711 
L 240.214152 161.353256 
L 240.606653 153.163391 
L 241.391654 163.497849 
L 241.784154 155.307985 
L 242.176655 160.475214 
L 242.569155 152.28535 
L 242.961656 157.452579 
L 243.354156 149.262714 
L 243.746657 154.429944 
L 244.139157 146.240079 
L 244.531658 151.407308 
L 244.924158 143.217444 
L 245.709159 153.551902 
L 246.10166 145.362038 
L 246.494161 150.529267 
L 246.886661 142.339403 
L 247.279162 147.506632 
L 247.671662 139.316767 
L 248.064163 144.483996 
L 248.456663 136.294132 
L 248.849164 141.461361 
L 249.241664 133.271497 
L 250.026665 143.605955 
L 250.419166 135.416091 
L 251.204167 145.750549 
L 251.596667 137.560684 
L 251.989168 142.727914 
L 252.381669 134.538049 
L 253.16667 144.872507 
L 253.55917 136.682643 
L 254.344171 147.017101 
L 254.736672 138.827237 
L 255.521673 149.161695 
L 255.914173 140.971831 
L 256.699174 151.306289 
L 257.091675 143.116425 
L 258.269177 158.618112 
L 258.661677 150.428247 
L 259.054178 155.595477 
L 259.446678 147.405612 
L 259.839179 152.572841 
L 260.231679 144.382977 
L 261.01668 154.717435 
L 261.409181 146.527571 
L 262.586682 162.029258 
L 262.979183 153.839394 
L 263.371683 159.006623 
L 263.764184 150.816758 
L 264.156684 155.983988 
L 264.549185 147.794123 
L 264.941686 152.961352 
L 265.334186 144.771488 
L 265.726687 149.938717 
L 266.119187 141.748853 
L 266.904188 152.083311 
L 267.296689 143.893446 
L 268.866691 164.562363 
L 269.259191 156.372499 
L 269.651692 161.539728 
L 270.044192 153.349863 
L 270.436693 158.517092 
L 270.829194 150.327228 
L 271.614195 160.661686 
L 272.006695 152.471822 
L 272.399196 157.639051 
L 272.791696 149.449187 
L 273.184197 154.616416 
L 273.576697 146.426551 
L 273.969198 151.59378 
L 274.361698 143.403916 
L 275.146699 153.738374 
L 275.5392 145.54851 
L 275.9317 150.715739 
L 276.324201 142.525875 
L 276.716702 147.693104 
L 277.109202 139.503239 
L 277.894203 149.837698 
L 278.286704 141.647833 
L 279.856706 162.31675 
L 280.249206 154.126885 
L 280.641707 159.294114 
L 281.034207 151.10425 
L 281.426708 156.271479 
L 281.819208 148.081615 
L 282.211709 153.248844 
L 282.60421 145.058979 
L 282.99671 150.226209 
L 283.389211 142.036344 
L 284.174212 152.370802 
L 284.566712 144.180938 
L 284.959213 149.348167 
L 285.351713 141.158303 
L 285.744214 146.325532 
L 286.136714 138.135667 
L 286.921715 148.470126 
L 287.314216 140.280261 
L 287.706716 145.44749 
L 288.099217 137.257626 
L 289.276719 152.759313 
L 289.669219 144.569449 
L 290.45422 154.903907 
L 290.846721 146.714043 
L 292.416723 167.382959 
L 292.809223 159.193095 
L 293.201724 164.360324 
L 293.594224 156.17046 
L 294.379225 166.504918 
L 294.771726 158.315053 
L 295.164227 163.482283 
L 295.556727 155.292418 
L 296.734229 170.794105 
L 297.126729 162.604241 
L 297.91173 172.938699 
L 298.304231 164.748835 
L 299.089232 175.083293 
L 299.481732 166.893429 
L 300.659234 182.395116 
L 301.051735 174.205251 
L 301.444235 179.37248 
L 301.836736 171.182616 
L 302.229236 176.349845 
L 302.621737 168.159981 
L 303.014237 173.32721 
L 303.406738 165.137345 
L 303.799238 170.304574 
L 304.191739 162.11471 
L 304.97674 172.449168 
L 305.36924 164.259304 
L 306.154241 174.593762 
L 306.546742 166.403897 
L 306.939242 171.571127 
L 307.331743 163.381262 
L 307.724244 168.548491 
L 308.116744 160.358627 
L 308.509245 165.525856 
L 308.901745 157.335992 
L 309.294246 162.503221 
L 309.686746 154.313356 
L 310.471747 164.647814 
L 310.864248 156.45795 
L 311.649249 166.792408 
L 312.041749 158.602544 
L 312.43425 163.769773 
L 312.82675 155.579909 
L 313.219251 160.747138 
L 313.611752 152.557273 
L 314.004252 157.724502 
L 314.396753 149.534638 
L 314.789253 154.701867 
L 315.181754 146.512003 
L 315.966755 156.846461 
L 316.359255 148.656597 
L 316.751756 153.823826 
L 317.144256 145.633961 
L 317.536757 150.80119 
L 317.929257 142.611326 
L 318.714258 152.945784 
L 319.106759 144.75592 
L 319.49926 149.923149 
L 319.89176 141.733285 
L 321.069262 157.234972 
L 321.461762 149.045108 
L 321.854263 154.212337 
L 322.246763 146.022472 
L 326.95677 208.029222 
L 327.34927 199.83935 
L 328.134271 210.173808 
L 328.526772 201.983934 
L 328.919272 207.151163 
L 329.311773 198.961292 
L 329.704273 204.128521 
L 330.096774 195.938652 
L 330.489274 201.105881 
L 330.881775 192.916014 
L 331.274275 198.083243 
L 331.666776 189.893377 
L 332.451777 200.227835 
L 332.844278 192.037968 
L 333.236778 197.205197 
L 333.629279 189.015331 
L 334.021779 194.18256 
L 334.41428 185.992695 
L 335.199281 196.327153 
L 335.591781 188.137287 
L 335.984282 193.304516 
L 336.376782 185.114651 
L 336.769283 190.28188 
L 337.161783 182.092015 
L 337.946785 192.426473 
L 338.339285 184.236608 
L 338.731786 189.403837 
L 339.124286 181.213972 
L 339.516787 186.381201 
L 339.909287 178.191336 
L 341.479289 198.860253 
L 341.87179 190.670386 
L 343.441792 211.339303 
L 343.834293 203.149427 
L 344.226793 208.316656 
L 344.619294 200.126784 
L 345.011794 205.294013 
L 345.404295 197.104143 
L 346.189296 207.438602 
L 346.581796 199.24873 
L 346.974297 204.415959 
L 347.366797 196.226091 
L 347.759298 201.39332 
L 348.151798 193.203452 
L 348.544299 198.370681 
L 348.936799 190.180815 
L 349.7218 200.515273 
L 350.114301 192.325406 
L 350.899302 202.659864 
L 351.291803 194.469996 
L 351.684303 199.637225 
L 352.076804 191.447359 
L 352.469304 196.614588 
L 352.861805 188.424722 
L 354.431807 209.093638 
L 354.824307 200.903765 
L 357.571811 237.074369 
L 357.964312 228.88414 
L 358.356812 234.051369 
L 358.749313 225.861262 
L 359.141813 231.028491 
L 359.534314 222.838464 
L 359.926814 228.005694 
L 360.319315 219.815721 
L 360.711815 224.98295 
L 361.104316 216.793014 
L 361.889317 227.127472 
L 362.281818 218.937512 
L 362.674318 224.104741 
L 363.066819 215.914812 
L 363.459319 221.082042 
L 363.85182 212.892134 
L 365.814322 238.72828 
L 366.206823 230.53796 
L 366.599323 235.70519 
L 366.991824 227.515022 
L 368.169325 243.016709 
L 368.561826 234.826036 
L 368.954327 239.993265 
L 369.346827 231.802861 
L 369.739328 236.97009 
L 370.131828 228.779866 
L 370.524329 233.947095 
L 370.916829 225.756991 
L 371.30933 230.92422 
L 371.70183 222.734196 
L 372.094331 227.901425 
L 372.486831 219.711454 
L 372.879332 224.878684 
L 373.271832 216.688748 
L 373.664333 221.855977 
L 374.056833 213.666066 
L 374.449334 218.833295 
L 374.841835 210.643399 
L 375.234335 215.810628 
L 375.626836 207.620742 
L 376.411837 217.955201 
L 376.804337 209.765308 
L 377.981839 225.266996 
L 378.374339 217.077056 
L 378.76684 222.244285 
L 379.15934 214.054371 
L 379.551841 219.2216 
L 379.944341 211.031703 
L 380.336842 216.198932 
L 380.729343 208.009045 
L 381.121843 213.176274 
L 381.514344 204.986395 
L 381.906844 210.153624 
L 382.299345 201.96375 
L 383.084346 212.298208 
L 383.476846 204.108331 
L 383.869347 209.27556 
L 384.261847 201.085687 
L 384.654348 206.252916 
L 385.046848 198.063046 
L 386.22435 213.564733 
L 386.616851 205.374853 
L 387.401852 215.709311 
L 387.794352 207.519426 
L 388.579353 217.853884 
L 388.971854 209.663992 
L 389.756855 219.998451 
L 390.149355 211.808549 
L 390.541856 216.975778 
L 390.934356 208.785889 
L 391.719357 219.120348 
L 392.111858 210.93045 
L 393.28936 226.432138 
L 393.68186 218.242186 
L 394.466861 228.576644 
L 394.859362 220.386663 
L 395.251862 225.553892 
L 395.644363 217.36395 
L 396.429364 227.698408 
L 396.821864 219.50844 
L 397.214365 224.675669 
L 397.606865 216.485736 
L 399.569368 242.321882 
L 399.961869 234.13128 
L 400.354369 239.298509 
L 400.74687 231.108153 
L 401.531871 241.442612 
L 401.924371 233.252092 
L 402.709372 243.58655 
L 403.101873 235.395813 
L 404.279374 250.8975 
L 404.671875 242.705307 
L 405.064376 247.872536 
L 405.456876 239.68112 
L 406.241877 250.015578 
L 406.634378 241.823645 
L 407.419379 252.158103 
L 407.811879 243.965481 
L 409.381881 264.634398 
L 409.774382 256.429844 
L 410.559383 266.764303 
L 410.951883 258.554898 
L 411.344384 263.722127 
L 411.736885 255.519264 
L 412.129385 260.686493 
L 412.521886 252.487975 
L 412.914386 257.655204 
L 413.306887 249.459577 
L 413.699387 254.626806 
L 414.091888 246.433102 
L 414.484388 251.600331 
L 414.876889 243.407908 
L 415.269389 248.575137 
L 415.66189 240.383567 
L 416.446891 250.718025 
L 416.839391 242.525888 
L 418.409394 263.194804 
L 418.801894 254.992828 
L 419.979396 270.494516 
L 420.371896 262.272449 
L 421.549398 277.774137 
L 421.941898 269.499074 
L 423.1194 285.000762 
L 423.511901 276.588351 
L 423.904401 281.755581 
L 424.296902 273.420959 
L 425.081903 283.755418 
L 425.474403 275.376816 
L 426.651905 290.878503 
L 427.044405 282.207521 
L 428.614407 302.876437 
L 428.614407 302.876437 
" style="fill:none;stroke:#ff7f0e;stroke-linecap:square;stroke-width:0.666667;"/>
   </g>
   <g id="patch_3">
    <path d="M 35.85875 316.4425 
L 35.85875 17.989125 
" style="fill:none;stroke:#000000;stroke-linecap:square;stroke-linejoin:miter;stroke-width:0.8;"/>
   </g>
   <g id="patch_4">
    <path d="M 447.317058 316.4425 
L 447.317058 17.989125 
" style="fill:none;stroke:#000000;stroke-linecap:square;stroke-linejoin:miter;stroke-width:0.8;"/>
   </g>
   <g id="patch_5">
    <path d="M 35.85875 316.4425 
L 447.317058 316.4425 
" style="fill:none;stroke:#000000;stroke-linecap:square;stroke-linejoin:miter;stroke-width:0.8;"/>
   </g>
   <g id="patch_6">
    <path d="M 35.85875 17.989125 
L 447.317058 17.989125 
" style="fill:none;stroke:#000000;stroke-linecap:square;stroke-linejoin:miter;stroke-width:0.8;"/>
   </g>
   <g id="text_17">
    <!-- "3y+1" problem -->
    <g transform="translate(211.245529 11.989125)scale(0.072 -0.072)">
     <defs>
      <path d="M 43.703125 72.90625 
L 43.703125 45.796875 
L 35.203125 45.796875 
L 35.203125 72.90625 
z
M 25 72.90625 
L 25 45.796875 
L 16.5 45.796875 
L 16.5 72.90625 
z
" id="DejaVuSansMono-34"/>
      <path d="M 34.1875 57.171875 
L 34.1875 35.5 
L 55.90625 35.5 
L 55.90625 27.203125 
L 34.1875 27.203125 
L 34.1875 5.515625 
L 25.984375 5.515625 
L 25.984375 27.203125 
L 4.296875 27.203125 
L 4.296875 35.5 
L 25.984375 35.5 
L 25.984375 57.171875 
z
" id="DejaVuSansMono-43"/>
      <path id="DejaVuSansMono-32"/>
      <path d="M 18.3125 6.890625 
L 18.3125 -20.796875 
L 9.28125 -20.796875 
L 9.28125 54.6875 
L 18.3125 54.6875 
L 18.3125 47.703125 
Q 20.5625 51.765625 24.296875 53.875 
Q 28.03125 56 32.90625 56 
Q 42.828125 56 48.46875 48.328125 
Q 54.109375 40.671875 54.109375 27.09375 
Q 54.109375 13.765625 48.4375 6.171875 
Q 42.78125 -1.421875 32.90625 -1.421875 
Q 27.9375 -1.421875 24.1875 0.703125 
Q 20.453125 2.828125 18.3125 6.890625 
z
M 44.671875 27.296875 
Q 44.671875 37.75 41.375 43.0625 
Q 38.09375 48.390625 31.59375 48.390625 
Q 25.046875 48.390625 21.671875 43.046875 
Q 18.3125 37.703125 18.3125 27.296875 
Q 18.3125 16.9375 21.671875 11.5625 
Q 25.046875 6.203125 31.59375 6.203125 
Q 38.09375 6.203125 41.375 11.515625 
Q 44.671875 16.84375 44.671875 27.296875 
z
" id="DejaVuSansMono-112"/>
      <path d="M 56.390625 43.40625 
Q 53.515625 45.65625 50.53125 46.671875 
Q 47.5625 47.703125 44 47.703125 
Q 35.59375 47.703125 31.140625 42.421875 
Q 26.703125 37.15625 26.703125 27.203125 
L 26.703125 0 
L 17.671875 0 
L 17.671875 54.6875 
L 26.703125 54.6875 
L 26.703125 44 
Q 28.953125 49.8125 33.609375 52.90625 
Q 38.28125 56 44.671875 56 
Q 48 56 50.875 55.171875 
Q 53.765625 54.34375 56.390625 52.59375 
z
" id="DejaVuSansMono-114"/>
      <path d="M 30.078125 48.390625 
Q 23.25 48.390625 19.734375 43.0625 
Q 16.21875 37.75 16.21875 27.296875 
Q 16.21875 16.890625 19.734375 11.546875 
Q 23.25 6.203125 30.078125 6.203125 
Q 36.96875 6.203125 40.484375 11.546875 
Q 44 16.890625 44 27.296875 
Q 44 37.75 40.484375 43.0625 
Q 36.96875 48.390625 30.078125 48.390625 
z
M 30.078125 56 
Q 41.453125 56 47.484375 48.625 
Q 53.515625 41.265625 53.515625 27.296875 
Q 53.515625 13.28125 47.5 5.921875 
Q 41.5 -1.421875 30.078125 -1.421875 
Q 18.703125 -1.421875 12.6875 5.921875 
Q 6.6875 13.28125 6.6875 27.296875 
Q 6.6875 41.265625 12.6875 48.625 
Q 18.703125 56 30.078125 56 
z
" id="DejaVuSansMono-111"/>
      <path d="M 44.828125 27.296875 
Q 44.828125 37.75 41.5 43.0625 
Q 38.1875 48.390625 31.6875 48.390625 
Q 25.140625 48.390625 21.765625 43.046875 
Q 18.40625 37.703125 18.40625 27.296875 
Q 18.40625 16.9375 21.765625 11.5625 
Q 25.140625 6.203125 31.6875 6.203125 
Q 38.1875 6.203125 41.5 11.515625 
Q 44.828125 16.84375 44.828125 27.296875 
z
M 18.40625 47.703125 
Q 20.5625 51.703125 24.34375 53.84375 
Q 28.125 56 33.109375 56 
Q 42.96875 56 48.625 48.40625 
Q 54.296875 40.828125 54.296875 27.484375 
Q 54.296875 13.96875 48.609375 6.265625 
Q 42.921875 -1.421875 33.015625 -1.421875 
Q 28.125 -1.421875 24.390625 0.703125 
Q 20.65625 2.828125 18.40625 6.890625 
L 18.40625 0 
L 9.421875 0 
L 9.421875 75.984375 
L 18.40625 75.984375 
z
" id="DejaVuSansMono-98"/>
      <path d="M 31.203125 19.828125 
Q 31.203125 13.765625 33.421875 10.6875 
Q 35.640625 7.625 39.984375 7.625 
L 50.484375 7.625 
L 50.484375 0 
L 39.109375 0 
Q 31.0625 0 26.640625 5.171875 
Q 22.21875 10.359375 22.21875 19.828125 
L 22.21875 69.484375 
L 7.8125 69.484375 
L 7.8125 76.515625 
L 31.203125 76.515625 
z
" id="DejaVuSansMono-108"/>
      <path d="M 54.296875 29.59375 
L 54.296875 25.203125 
L 15.375 25.203125 
L 15.375 24.90625 
Q 15.375 15.96875 20.03125 11.078125 
Q 24.703125 6.203125 33.203125 6.203125 
Q 37.5 6.203125 42.1875 7.5625 
Q 46.875 8.9375 52.203125 11.71875 
L 52.203125 2.78125 
Q 47.078125 0.6875 42.3125 -0.359375 
Q 37.546875 -1.421875 33.109375 -1.421875 
Q 20.359375 -1.421875 13.171875 6.21875 
Q 6 13.875 6 27.296875 
Q 6 40.375 13.03125 48.1875 
Q 20.0625 56 31.78125 56 
Q 42.234375 56 48.265625 48.921875 
Q 54.296875 41.84375 54.296875 29.59375 
z
M 45.3125 32.234375 
Q 45.125 40.140625 41.578125 44.265625 
Q 38.03125 48.390625 31.390625 48.390625 
Q 24.90625 48.390625 20.703125 44.09375 
Q 16.5 39.796875 15.71875 32.171875 
z
" id="DejaVuSansMono-101"/>
      <path d="M 33.015625 49.125 
Q 34.671875 52.640625 37.234375 54.3125 
Q 39.796875 56 43.40625 56 
Q 50 56 52.703125 50.890625 
Q 55.421875 45.796875 55.421875 31.6875 
L 55.421875 0 
L 47.21875 0 
L 47.21875 31.296875 
Q 47.21875 42.875 45.921875 45.671875 
Q 44.625 48.484375 41.21875 48.484375 
Q 37.3125 48.484375 35.859375 45.484375 
Q 34.421875 42.484375 34.421875 31.296875 
L 34.421875 0 
L 26.21875 0 
L 26.21875 31.296875 
Q 26.21875 43.015625 24.828125 45.75 
Q 23.4375 48.484375 19.828125 48.484375 
Q 16.265625 48.484375 14.875 45.484375 
Q 13.484375 42.484375 13.484375 31.296875 
L 13.484375 0 
L 5.328125 0 
L 5.328125 54.6875 
L 13.484375 54.6875 
L 13.484375 50 
Q 15.09375 52.9375 17.5 54.46875 
Q 19.921875 56 23 56 
Q 26.703125 56 29.171875 54.296875 
Q 31.640625 52.59375 33.015625 49.125 
z
" id="DejaVuSansMono-109"/>
     </defs>
     <use xlink:href="#DejaVuSansMono-34"/>
     <use x="60.205078" xlink:href="#DejaVuSansMono-51"/>
     <use x="120.410156" xlink:href="#DejaVuSansMono-121"/>
     <use x="180.615234" xlink:href="#DejaVuSansMono-43"/>
     <use x="240.820312" xlink:href="#DejaVuSansMono-49"/>
     <use x="301.025391" xlink:href="#DejaVuSansMono-34"/>
     <use x="361.230469" xlink:href="#DejaVuSansMono-32"/>
     <use x="421.435547" xlink:href="#DejaVuSansMono-112"/>
     <use x="481.640625" xlink:href="#DejaVuSansMono-114"/>
     <use x="541.845703" xlink:href="#DejaVuSansMono-111"/>
     <use x="602.050781" xlink:href="#DejaVuSansMono-98"/>
     <use x="662.255859" xlink:href="#DejaVuSansMono-108"/>
     <use x="722.460938" xlink:href="#DejaVuSansMono-101"/>
     <use x="782.666016" xlink:href="#DejaVuSansMono-109"/>
    </g>
   </g>
   <g id="legend_1">
    <g id="patch_7">
     <path d="M 333.61237 82.0095 
L 443.117058 82.0095 
Q 444.317058 82.0095 444.317058 80.8095 
L 444.317058 22.189125 
Q 444.317058 20.989125 443.117058 20.989125 
L 333.61237 20.989125 
Q 332.41237 20.989125 332.41237 22.189125 
L 332.41237 80.8095 
Q 332.41237 82.0095 333.61237 82.0095 
z
" style="fill:#ffffff;opacity:0.8;stroke:#cccccc;stroke-linejoin:miter;"/>
    </g>
    <g id="line2d_17">
     <path d="M 334.81237 36.889687 
L 346.81237 36.889687 
" style="fill:none;stroke:#1f77b4;stroke-linecap:square;stroke-width:0.666667;"/>
    </g>
    <g id="line2d_18"/>
    <g id="text_18">
     <!-- "Tallest": -->
     <g transform="translate(351.61237 27.980062)scale(0.06 -0.06)">
      <defs>
       <path d="M 2.296875 72.90625 
L 57.90625 72.90625 
L 57.90625 64.59375 
L 35.109375 64.59375 
L 35.109375 0 
L 25.203125 0 
L 25.203125 64.59375 
L 2.296875 64.59375 
z
" id="DejaVuSansMono-84"/>
       <path d="M 34.28125 27.484375 
L 31.296875 27.484375 
Q 23.4375 27.484375 19.453125 24.71875 
Q 15.484375 21.96875 15.484375 16.5 
Q 15.484375 11.578125 18.453125 8.84375 
Q 21.4375 6.109375 26.703125 6.109375 
Q 34.125 6.109375 38.375 11.25 
Q 42.625 16.40625 42.671875 25.484375 
L 42.671875 27.484375 
z
M 51.703125 31.203125 
L 51.703125 0 
L 42.671875 0 
L 42.671875 8.109375 
Q 39.796875 3.21875 35.421875 0.890625 
Q 31.0625 -1.421875 24.8125 -1.421875 
Q 16.453125 -1.421875 11.46875 3.296875 
Q 6.5 8.015625 6.5 15.921875 
Q 6.5 25.046875 12.625 29.78125 
Q 18.75 34.515625 30.609375 34.515625 
L 42.671875 34.515625 
L 42.671875 35.9375 
Q 42.625 42.484375 39.34375 45.4375 
Q 36.078125 48.390625 28.90625 48.390625 
Q 24.3125 48.390625 19.625 47.0625 
Q 14.9375 45.75 10.5 43.21875 
L 10.5 52.203125 
Q 15.484375 54.109375 20.046875 55.046875 
Q 24.609375 56 28.90625 56 
Q 35.6875 56 40.5 54 
Q 45.3125 52 48.296875 48 
Q 50.140625 45.5625 50.921875 41.96875 
Q 51.703125 38.375 51.703125 31.203125 
z
" id="DejaVuSansMono-97"/>
       <path d="M 47.515625 52.78125 
L 47.515625 44 
Q 43.65625 46.234375 39.75 47.359375 
Q 35.84375 48.484375 31.78125 48.484375 
Q 25.6875 48.484375 22.671875 46.5 
Q 19.671875 44.53125 19.671875 40.484375 
Q 19.671875 36.8125 21.921875 35 
Q 24.171875 33.203125 33.109375 31.5 
L 36.71875 30.8125 
Q 43.40625 29.546875 46.84375 25.734375 
Q 50.296875 21.921875 50.296875 15.828125 
Q 50.296875 7.71875 44.53125 3.140625 
Q 38.765625 -1.421875 28.515625 -1.421875 
Q 24.46875 -1.421875 20.015625 -0.5625 
Q 15.578125 0.296875 10.40625 2 
L 10.40625 11.28125 
Q 15.4375 8.6875 20.015625 7.390625 
Q 24.609375 6.109375 28.71875 6.109375 
Q 34.671875 6.109375 37.9375 8.515625 
Q 41.21875 10.9375 41.21875 15.28125 
Q 41.21875 21.53125 29.25 23.921875 
L 28.859375 24.03125 
L 25.484375 24.703125 
Q 17.71875 26.21875 14.15625 29.8125 
Q 10.59375 33.40625 10.59375 39.59375 
Q 10.59375 47.46875 15.90625 51.734375 
Q 21.234375 56 31.109375 56 
Q 35.5 56 39.546875 55.1875 
Q 43.609375 54.390625 47.515625 52.78125 
z
" id="DejaVuSansMono-115"/>
       <path d="M 29.984375 70.21875 
L 29.984375 54.6875 
L 50.390625 54.6875 
L 50.390625 47.703125 
L 29.984375 47.703125 
L 29.984375 18.015625 
Q 29.984375 11.96875 32.28125 9.5625 
Q 34.578125 7.171875 40.28125 7.171875 
L 50.390625 7.171875 
L 50.390625 0 
L 39.40625 0 
Q 29.296875 0 25.140625 4.046875 
Q 21 8.109375 21 18.015625 
L 21 47.703125 
L 6.390625 47.703125 
L 6.390625 54.6875 
L 21 54.6875 
L 21 70.21875 
z
" id="DejaVuSansMono-116"/>
       <path d="M 23.875 51.90625 
L 36.1875 51.90625 
L 36.1875 37.109375 
L 23.875 37.109375 
z
M 23.875 14.890625 
L 36.1875 14.890625 
L 36.1875 0 
L 23.875 0 
z
" id="DejaVuSansMono-58"/>
      </defs>
      <use xlink:href="#DejaVuSansMono-34"/>
      <use x="60.205078" xlink:href="#DejaVuSansMono-84"/>
      <use x="120.410156" xlink:href="#DejaVuSansMono-97"/>
      <use x="180.615234" xlink:href="#DejaVuSansMono-108"/>
      <use x="240.820312" xlink:href="#DejaVuSansMono-108"/>
      <use x="301.025391" xlink:href="#DejaVuSansMono-101"/>
      <use x="361.230469" xlink:href="#DejaVuSansMono-115"/>
      <use x="421.435547" xlink:href="#DejaVuSansMono-116"/>
      <use x="481.640625" xlink:href="#DejaVuSansMono-34"/>
      <use x="541.845703" xlink:href="#DejaVuSansMono-58"/>
     </g>
     <!-- y_0    = 210964383 -->
     <g transform="translate(351.61237 34.737)scale(0.06 -0.06)">
      <defs>
       <path d="M 4.296875 25.59375 
L 55.90625 25.59375 
L 55.90625 17.1875 
L 4.296875 17.1875 
z
M 4.296875 45.40625 
L 55.90625 45.40625 
L 55.90625 37.109375 
L 4.296875 37.109375 
z
" id="DejaVuSansMono-61"/>
      </defs>
      <use xlink:href="#DejaVuSansMono-121"/>
      <use x="60.205078" xlink:href="#DejaVuSansMono-95"/>
      <use x="120.410156" xlink:href="#DejaVuSansMono-48"/>
      <use x="180.615234" xlink:href="#DejaVuSansMono-32"/>
      <use x="240.820312" xlink:href="#DejaVuSansMono-32"/>
      <use x="301.025391" xlink:href="#DejaVuSansMono-32"/>
      <use x="361.230469" xlink:href="#DejaVuSansMono-32"/>
      <use x="421.435547" xlink:href="#DejaVuSansMono-61"/>
      <use x="481.640625" xlink:href="#DejaVuSansMono-32"/>
      <use x="541.845703" xlink:href="#DejaVuSansMono-50"/>
      <use x="602.050781" xlink:href="#DejaVuSansMono-49"/>
      <use x="662.255859" xlink:href="#DejaVuSansMono-48"/>
      <use x="722.460938" xlink:href="#DejaVuSansMono-57"/>
      <use x="782.666016" xlink:href="#DejaVuSansMono-54"/>
      <use x="842.871094" xlink:href="#DejaVuSansMono-52"/>
      <use x="903.076172" xlink:href="#DejaVuSansMono-51"/>
      <use x="963.28125" xlink:href="#DejaVuSansMono-56"/>
      <use x="1023.486328" xlink:href="#DejaVuSansMono-51"/>
     </g>
     <!-- y_max  = 6404797161121264 -->
     <g transform="translate(351.61237 41.660812)scale(0.06 -0.06)">
      <defs>
       <path d="M 54.59375 54.6875 
L 35.015625 28.515625 
L 56.5 0 
L 46.09375 0 
L 30.078125 21.921875 
L 14.109375 0 
L 3.71875 0 
L 25.203125 28.515625 
L 5.609375 54.6875 
L 15.578125 54.6875 
L 30.078125 34.90625 
L 44.484375 54.6875 
z
" id="DejaVuSansMono-120"/>
      </defs>
      <use xlink:href="#DejaVuSansMono-121"/>
      <use x="60.205078" xlink:href="#DejaVuSansMono-95"/>
      <use x="120.410156" xlink:href="#DejaVuSansMono-109"/>
      <use x="180.615234" xlink:href="#DejaVuSansMono-97"/>
      <use x="240.820312" xlink:href="#DejaVuSansMono-120"/>
      <use x="301.025391" xlink:href="#DejaVuSansMono-32"/>
      <use x="361.230469" xlink:href="#DejaVuSansMono-32"/>
      <use x="421.435547" xlink:href="#DejaVuSansMono-61"/>
      <use x="481.640625" xlink:href="#DejaVuSansMono-32"/>
      <use x="541.845703" xlink:href="#DejaVuSansMono-54"/>
      <use x="602.050781" xlink:href="#DejaVuSansMono-52"/>
      <use x="662.255859" xlink:href="#DejaVuSansMono-48"/>
      <use x="722.460938" xlink:href="#DejaVuSansMono-52"/>
      <use x="782.666016" xlink:href="#DejaVuSansMono-55"/>
      <use x="842.871094" xlink:href="#DejaVuSansMono-57"/>
      <use x="903.076172" xlink:href="#DejaVuSansMono-55"/>
      <use x="963.28125" xlink:href="#DejaVuSansMono-49"/>
      <use x="1023.486328" xlink:href="#DejaVuSansMono-54"/>
      <use x="1083.691406" xlink:href="#DejaVuSansMono-49"/>
      <use x="1143.896484" xlink:href="#DejaVuSansMono-49"/>
      <use x="1204.101562" xlink:href="#DejaVuSansMono-50"/>
      <use x="1264.306641" xlink:href="#DejaVuSansMono-49"/>
      <use x="1324.511719" xlink:href="#DejaVuSansMono-50"/>
      <use x="1384.716797" xlink:href="#DejaVuSansMono-54"/>
      <use x="1444.921875" xlink:href="#DejaVuSansMono-52"/>
     </g>
     <!-- x_max  = 476 -->
     <g transform="translate(351.61237 48.584625)scale(0.06 -0.06)">
      <use xlink:href="#DejaVuSansMono-120"/>
      <use x="60.205078" xlink:href="#DejaVuSansMono-95"/>
      <use x="120.410156" xlink:href="#DejaVuSansMono-109"/>
      <use x="180.615234" xlink:href="#DejaVuSansMono-97"/>
      <use x="240.820312" xlink:href="#DejaVuSansMono-120"/>
      <use x="301.025391" xlink:href="#DejaVuSansMono-32"/>
      <use x="361.230469" xlink:href="#DejaVuSansMono-32"/>
      <use x="421.435547" xlink:href="#DejaVuSansMono-61"/>
      <use x="481.640625" xlink:href="#DejaVuSansMono-32"/>
      <use x="541.845703" xlink:href="#DejaVuSansMono-52"/>
      <use x="602.050781" xlink:href="#DejaVuSansMono-55"/>
      <use x="662.255859" xlink:href="#DejaVuSansMono-54"/>
     </g>
    </g>
    <g id="line2d_19">
     <path d="M 334.81237 66.499875 
L 346.81237 66.499875 
" style="fill:none;stroke:#ff7f0e;stroke-linecap:square;stroke-width:0.666667;"/>
    </g>
    <g id="line2d_20"/>
    <g id="text_19">
     <!-- "Widest":  -->
     <g transform="translate(351.61237 57.59025)scale(0.06 -0.06)">
      <defs>
       <path d="M 0 72.90625 
L 9.625 72.90625 
L 16.609375 13.71875 
L 24.90625 52.875 
L 35.203125 52.875 
L 43.609375 13.625 
L 50.59375 72.90625 
L 60.203125 72.90625 
L 49.3125 0 
L 39.984375 0 
L 30.078125 43.3125 
L 20.21875 0 
L 10.890625 0 
z
" id="DejaVuSansMono-87"/>
       <path d="M 12.5 54.6875 
L 35.5 54.6875 
L 35.5 6.984375 
L 53.328125 6.984375 
L 53.328125 0 
L 8.6875 0 
L 8.6875 6.984375 
L 26.515625 6.984375 
L 26.515625 47.703125 
L 12.5 47.703125 
z
M 26.515625 75.984375 
L 35.5 75.984375 
L 35.5 64.59375 
L 26.515625 64.59375 
z
" id="DejaVuSansMono-105"/>
       <path d="M 41.890625 47.703125 
L 41.890625 75.984375 
L 50.875 75.984375 
L 50.875 0 
L 41.890625 0 
L 41.890625 6.890625 
Q 39.65625 2.828125 35.90625 0.703125 
Q 32.171875 -1.421875 27.296875 -1.421875 
Q 17.390625 -1.421875 11.6875 6.265625 
Q 6 13.96875 6 27.484375 
Q 6 40.828125 11.71875 48.40625 
Q 17.4375 56 27.296875 56 
Q 32.234375 56 35.984375 53.875 
Q 39.75 51.765625 41.890625 47.703125 
z
M 15.484375 27.296875 
Q 15.484375 16.84375 18.796875 11.515625 
Q 22.125 6.203125 28.609375 6.203125 
Q 35.109375 6.203125 38.5 11.5625 
Q 41.890625 16.9375 41.890625 27.296875 
Q 41.890625 37.703125 38.5 43.046875 
Q 35.109375 48.390625 28.609375 48.390625 
Q 22.125 48.390625 18.796875 43.0625 
Q 15.484375 37.75 15.484375 27.296875 
z
" id="DejaVuSansMono-100"/>
      </defs>
      <use xlink:href="#DejaVuSansMono-34"/>
      <use x="60.205078" xlink:href="#DejaVuSansMono-87"/>
      <use x="120.410156" xlink:href="#DejaVuSansMono-105"/>
      <use x="180.615234" xlink:href="#DejaVuSansMono-100"/>
      <use x="240.820312" xlink:href="#DejaVuSansMono-101"/>
      <use x="301.025391" xlink:href="#DejaVuSansMono-115"/>
      <use x="361.230469" xlink:href="#DejaVuSansMono-116"/>
      <use x="421.435547" xlink:href="#DejaVuSansMono-34"/>
      <use x="481.640625" xlink:href="#DejaVuSansMono-58"/>
      <use x="541.845703" xlink:href="#DejaVuSansMono-32"/>
     </g>
     <!-- y_0    = 169941673 -->
     <g transform="translate(351.61237 64.347187)scale(0.06 -0.06)">
      <use xlink:href="#DejaVuSansMono-121"/>
      <use x="60.205078" xlink:href="#DejaVuSansMono-95"/>
      <use x="120.410156" xlink:href="#DejaVuSansMono-48"/>
      <use x="180.615234" xlink:href="#DejaVuSansMono-32"/>
      <use x="240.820312" xlink:href="#DejaVuSansMono-32"/>
      <use x="301.025391" xlink:href="#DejaVuSansMono-32"/>
      <use x="361.230469" xlink:href="#DejaVuSansMono-32"/>
      <use x="421.435547" xlink:href="#DejaVuSansMono-61"/>
      <use x="481.640625" xlink:href="#DejaVuSansMono-32"/>
      <use x="541.845703" xlink:href="#DejaVuSansMono-49"/>
      <use x="602.050781" xlink:href="#DejaVuSansMono-54"/>
      <use x="662.255859" xlink:href="#DejaVuSansMono-57"/>
      <use x="722.460938" xlink:href="#DejaVuSansMono-57"/>
      <use x="782.666016" xlink:href="#DejaVuSansMono-52"/>
      <use x="842.871094" xlink:href="#DejaVuSansMono-49"/>
      <use x="903.076172" xlink:href="#DejaVuSansMono-54"/>
      <use x="963.28125" xlink:href="#DejaVuSansMono-55"/>
      <use x="1023.486328" xlink:href="#DejaVuSansMono-51"/>
     </g>
     <!-- y_max  = 966616035460 -->
     <g transform="translate(351.61237 71.271)scale(0.06 -0.06)">
      <use xlink:href="#DejaVuSansMono-121"/>
      <use x="60.205078" xlink:href="#DejaVuSansMono-95"/>
      <use x="120.410156" xlink:href="#DejaVuSansMono-109"/>
      <use x="180.615234" xlink:href="#DejaVuSansMono-97"/>
      <use x="240.820312" xlink:href="#DejaVuSansMono-120"/>
      <use x="301.025391" xlink:href="#DejaVuSansMono-32"/>
      <use x="361.230469" xlink:href="#DejaVuSansMono-32"/>
      <use x="421.435547" xlink:href="#DejaVuSansMono-61"/>
      <use x="481.640625" xlink:href="#DejaVuSansMono-32"/>
      <use x="541.845703" xlink:href="#DejaVuSansMono-57"/>
      <use x="602.050781" xlink:href="#DejaVuSansMono-54"/>
      <use x="662.255859" xlink:href="#DejaVuSansMono-54"/>
      <use x="722.460938" xlink:href="#DejaVuSansMono-54"/>
      <use x="782.666016" xlink:href="#DejaVuSansMono-49"/>
      <use x="842.871094" xlink:href="#DejaVuSansMono-54"/>
      <use x="903.076172" xlink:href="#DejaVuSansMono-48"/>
      <use x="963.28125" xlink:href="#DejaVuSansMono-51"/>
      <use x="1023.486328" xlink:href="#DejaVuSansMono-53"/>
      <use x="1083.691406" xlink:href="#DejaVuSansMono-52"/>
      <use x="1143.896484" xlink:href="#DejaVuSansMono-54"/>
      <use x="1204.101562" xlink:href="#DejaVuSansMono-48"/>
     </g>
     <!-- x_max  = 954 -->
     <g transform="translate(351.61237 78.194812)scale(0.06 -0.06)">
      <use xlink:href="#DejaVuSansMono-120"/>
      <use x="60.205078" xlink:href="#DejaVuSansMono-95"/>
      <use x="120.410156" xlink:href="#DejaVuSansMono-109"/>
      <use x="180.615234" xlink:href="#DejaVuSansMono-97"/>
      <use x="240.820312" xlink:href="#DejaVuSansMono-120"/>
      <use x="301.025391" xlink:href="#DejaVuSansMono-32"/>
      <use x="361.230469" xlink:href="#DejaVuSansMono-32"/>
      <use x="421.435547" xlink:href="#DejaVuSansMono-61"/>
      <use x="481.640625" xlink:href="#DejaVuSansMono-32"/>
      <use x="541.845703" xlink:href="#DejaVuSansMono-57"/>
      <use x="602.050781" xlink:href="#DejaVuSansMono-53"/>
      <use x="662.255859" xlink:href="#DejaVuSansMono-52"/>
     </g>
    </g>
   </g>
  </g>
 </g>
 <defs>
  <clipPath id="p40b34bea11">
   <rect height="298.453375" width="411.458308" x="35.85875" y="17.989125"/>
  </clipPath>
 </defs>
</svg>
