<?xml version="1.0" encoding="utf-8" standalone="no"?>
<!DOCTYPE svg PUBLIC "-//W3C//DTD SVG 1.1//EN"
  "http://www.w3.org/Graphics/SVG/1.1/DTD/svg11.dtd">
<!-- Created with matplotlib (https://matplotlib.org/) -->
<svg height="345.6pt" version="1.1" viewBox="0 0 460.8 345.6" width="460.8pt" xmlns="http://www.w3.org/2000/svg" xmlns:xlink="http://www.w3.org/1999/xlink">
 <metadata>
  <rdf:RDF xmlns:cc="http://creativecommons.org/ns#" xmlns:dc="http://purl.org/dc/elements/1.1/" xmlns:rdf="http://www.w3.org/1999/02/22-rdf-syntax-ns#">
   <cc:Work>
    <dc:type rdf:resource="http://purl.org/dc/dcmitype/StillImage"/>
    <dc:date>2022-03-17T16:55:27.335131</dc:date>
    <dc:format>image/svg+xml</dc:format>
    <dc:creator>
     <cc:Agent>
      <dc:title>Matplotlib v3.3.2, https://matplotlib.org/</dc:title>
     </cc:Agent>
    </dc:creator>
   </cc:Work>
  </rdf:RDF>
 </metadata>
 <defs>
  <style type="text/css">*{stroke-linecap:butt;stroke-linejoin:round;}</style>
 </defs>
 <g id="figure_1">
  <g id="patch_1">
   <path d="M 0 345.6 
L 460.8 345.6 
L 460.8 0 
L 0 0 
z
" style="fill:#ffffff;"/>
  </g>
  <g id="axes_1">
   <g id="patch_2">
    <path d="M 35.85875 316.4425 
L 451.553317 316.4425 
L 451.553317 17.989125 
L 35.85875 17.989125 
z
" style="fill:#ffffff;"/>
   </g>
   <g id="matplotlib.axis_1">
    <g id="xtick_1">
     <g id="line2d_1">
      <defs>
       <path d="M 0 0 
L 0 3.5 
" id="m733593f749" style="stroke:#000000;stroke-width:0.8;"/>
      </defs>
      <g>
       <use style="stroke:#000000;stroke-width:0.8;" x="54.753958" xlink:href="#m733593f749" y="316.4425"/>
      </g>
     </g>
     <g id="text_1">
      <!-- 0 -->
      <g transform="translate(52.947864 328.033437)scale(0.06 -0.06)">
       <defs>
        <path d="M 23.578125 36.625 
Q 23.578125 39.3125 25.453125 41.265625 
Q 27.34375 43.21875 29.984375 43.21875 
Q 32.71875 43.21875 34.671875 41.265625 
Q 36.625 39.3125 36.625 36.625 
Q 36.625 33.890625 34.6875 31.984375 
Q 32.765625 30.078125 29.984375 30.078125 
Q 27.25 30.078125 25.40625 31.9375 
Q 23.578125 33.796875 23.578125 36.625 
z
M 30.078125 66.40625 
Q 23.1875 66.40625 19.796875 58.984375 
Q 16.40625 51.5625 16.40625 36.375 
Q 16.40625 21.234375 19.796875 13.8125 
Q 23.1875 6.390625 30.078125 6.390625 
Q 37.015625 6.390625 40.40625 13.8125 
Q 43.796875 21.234375 43.796875 36.375 
Q 43.796875 51.5625 40.40625 58.984375 
Q 37.015625 66.40625 30.078125 66.40625 
z
M 30.078125 74.21875 
Q 41.75 74.21875 47.734375 64.640625 
Q 53.71875 55.078125 53.71875 36.375 
Q 53.71875 17.71875 47.734375 8.140625 
Q 41.75 -1.421875 30.078125 -1.421875 
Q 18.40625 -1.421875 12.453125 8.140625 
Q 6.5 17.71875 6.5 36.375 
Q 6.5 55.078125 12.453125 64.640625 
Q 18.40625 74.21875 30.078125 74.21875 
z
" id="DejaVuSansMono-48"/>
       </defs>
       <use xlink:href="#DejaVuSansMono-48"/>
      </g>
     </g>
    </g>
    <g id="xtick_2">
     <g id="line2d_2">
      <g>
       <use style="stroke:#000000;stroke-width:0.8;" x="133.076062" xlink:href="#m733593f749" y="316.4425"/>
      </g>
     </g>
     <g id="text_2">
      <!-- 200 -->
      <g transform="translate(127.65778 328.033437)scale(0.06 -0.06)">
       <defs>
        <path d="M 18.21875 8.296875 
L 51.703125 8.296875 
L 51.703125 0 
L 7.421875 0 
L 7.421875 8.296875 
Q 16.546875 17.921875 23.375 25.296875 
Q 30.21875 32.671875 32.8125 35.6875 
Q 37.703125 41.65625 39.40625 45.34375 
Q 41.109375 49.03125 41.109375 52.875 
Q 41.109375 58.984375 37.515625 62.453125 
Q 33.9375 65.921875 27.6875 65.921875 
Q 23.25 65.921875 18.359375 64.3125 
Q 13.484375 62.703125 8.015625 59.421875 
L 8.015625 69.390625 
Q 13.03125 71.78125 17.890625 73 
Q 22.75 74.21875 27.484375 74.21875 
Q 38.1875 74.21875 44.703125 68.53125 
Q 51.21875 62.84375 51.21875 53.609375 
Q 51.21875 48.921875 49.046875 44.234375 
Q 46.875 39.546875 42 33.890625 
Q 39.265625 30.71875 34.0625 25.09375 
Q 28.859375 19.484375 18.21875 8.296875 
z
" id="DejaVuSansMono-50"/>
       </defs>
       <use xlink:href="#DejaVuSansMono-50"/>
       <use x="60.205078" xlink:href="#DejaVuSansMono-48"/>
       <use x="120.410156" xlink:href="#DejaVuSansMono-48"/>
      </g>
     </g>
    </g>
    <g id="xtick_3">
     <g id="line2d_3">
      <g>
       <use style="stroke:#000000;stroke-width:0.8;" x="211.398166" xlink:href="#m733593f749" y="316.4425"/>
      </g>
     </g>
     <g id="text_3">
      <!-- 400 -->
      <g transform="translate(205.979884 328.033437)scale(0.06 -0.06)">
       <defs>
        <path d="M 35.890625 63.921875 
L 12.890625 25.390625 
L 35.890625 25.390625 
z
M 34.28125 72.90625 
L 45.703125 72.90625 
L 45.703125 25.390625 
L 55.421875 25.390625 
L 55.421875 17.390625 
L 45.703125 17.390625 
L 45.703125 0 
L 35.890625 0 
L 35.890625 17.390625 
L 4.984375 17.390625 
L 4.984375 26.703125 
z
" id="DejaVuSansMono-52"/>
       </defs>
       <use xlink:href="#DejaVuSansMono-52"/>
       <use x="60.205078" xlink:href="#DejaVuSansMono-48"/>
       <use x="120.410156" xlink:href="#DejaVuSansMono-48"/>
      </g>
     </g>
    </g>
    <g id="xtick_4">
     <g id="line2d_4">
      <g>
       <use style="stroke:#000000;stroke-width:0.8;" x="289.72027" xlink:href="#m733593f749" y="316.4425"/>
      </g>
     </g>
     <g id="text_4">
      <!-- 600 -->
      <g transform="translate(284.301988 328.033437)scale(0.06 -0.06)">
       <defs>
        <path d="M 48.390625 71.296875 
L 48.390625 62.203125 
Q 45.3125 64.015625 41.84375 64.96875 
Q 38.375 65.921875 34.625 65.921875 
Q 25.25 65.921875 20.40625 58.859375 
Q 15.578125 51.8125 15.578125 38.09375 
Q 17.921875 42.96875 22.0625 45.578125 
Q 26.21875 48.1875 31.59375 48.1875 
Q 42.140625 48.1875 47.921875 41.71875 
Q 53.71875 35.25 53.71875 23.390625 
Q 53.71875 11.578125 47.75 5.078125 
Q 41.796875 -1.421875 31 -1.421875 
Q 18.3125 -1.421875 12.40625 7.6875 
Q 6.5 16.796875 6.5 36.375 
Q 6.5 54.828125 13.59375 64.515625 
Q 20.703125 74.21875 34.1875 74.21875 
Q 37.796875 74.21875 41.40625 73.453125 
Q 45.015625 72.703125 48.390625 71.296875 
z
M 30.8125 40.484375 
Q 24.515625 40.484375 20.890625 35.9375 
Q 17.28125 31.390625 17.28125 23.390625 
Q 17.28125 15.375 20.890625 10.828125 
Q 24.515625 6.296875 30.8125 6.296875 
Q 37.359375 6.296875 40.671875 10.609375 
Q 44 14.9375 44 23.390625 
Q 44 31.890625 40.671875 36.1875 
Q 37.359375 40.484375 30.8125 40.484375 
z
" id="DejaVuSansMono-54"/>
       </defs>
       <use xlink:href="#DejaVuSansMono-54"/>
       <use x="60.205078" xlink:href="#DejaVuSansMono-48"/>
       <use x="120.410156" xlink:href="#DejaVuSansMono-48"/>
      </g>
     </g>
    </g>
    <g id="xtick_5">
     <g id="line2d_5">
      <g>
       <use style="stroke:#000000;stroke-width:0.8;" x="368.042374" xlink:href="#m733593f749" y="316.4425"/>
      </g>
     </g>
     <g id="text_5">
      <!-- 800 -->
      <g transform="translate(362.624092 328.033437)scale(0.06 -0.06)">
       <defs>
        <path d="M 30.078125 34.625 
Q 23.484375 34.625 19.890625 30.9375 
Q 16.3125 27.25 16.3125 20.515625 
Q 16.3125 13.765625 19.9375 10.03125 
Q 23.578125 6.296875 30.078125 6.296875 
Q 36.71875 6.296875 40.296875 9.984375 
Q 43.890625 13.671875 43.890625 20.515625 
Q 43.890625 27.203125 40.25 30.90625 
Q 36.625 34.625 30.078125 34.625 
z
M 21.484375 38.71875 
Q 15.1875 40.328125 11.640625 44.71875 
Q 8.109375 49.125 8.109375 55.328125 
Q 8.109375 64.015625 14.015625 69.109375 
Q 19.921875 74.21875 30.078125 74.21875 
Q 40.28125 74.21875 46.1875 69.109375 
Q 52.09375 64.015625 52.09375 55.328125 
Q 52.09375 49.125 48.546875 44.71875 
Q 45.015625 40.328125 38.71875 38.71875 
Q 46.046875 37.109375 49.921875 32.21875 
Q 53.8125 27.34375 53.8125 19.578125 
Q 53.8125 9.71875 47.515625 4.140625 
Q 41.21875 -1.421875 30.078125 -1.421875 
Q 18.953125 -1.421875 12.671875 4.125 
Q 6.390625 9.671875 6.390625 19.484375 
Q 6.390625 27.296875 10.265625 32.203125 
Q 14.15625 37.109375 21.484375 38.71875 
z
M 17.921875 54.390625 
Q 17.921875 48.53125 21.046875 45.453125 
Q 24.171875 42.390625 30.078125 42.390625 
Q 36.03125 42.390625 39.15625 45.453125 
Q 42.28125 48.53125 42.28125 54.390625 
Q 42.28125 60.359375 39.171875 63.484375 
Q 36.078125 66.609375 30.078125 66.609375 
Q 24.171875 66.609375 21.046875 63.453125 
Q 17.921875 60.296875 17.921875 54.390625 
z
" id="DejaVuSansMono-56"/>
       </defs>
       <use xlink:href="#DejaVuSansMono-56"/>
       <use x="60.205078" xlink:href="#DejaVuSansMono-48"/>
       <use x="120.410156" xlink:href="#DejaVuSansMono-48"/>
      </g>
     </g>
    </g>
    <g id="xtick_6">
     <g id="line2d_6">
      <g>
       <use style="stroke:#000000;stroke-width:0.8;" x="446.364478" xlink:href="#m733593f749" y="316.4425"/>
      </g>
     </g>
     <g id="text_6">
      <!-- 1000 -->
      <g transform="translate(439.140103 328.033437)scale(0.06 -0.06)">
       <defs>
        <path d="M 13.1875 8.296875 
L 28.515625 8.296875 
L 28.515625 64.015625 
L 12.015625 60.296875 
L 12.015625 69.28125 
L 28.421875 72.90625 
L 38.28125 72.90625 
L 38.28125 8.296875 
L 53.421875 8.296875 
L 53.421875 0 
L 13.1875 0 
z
" id="DejaVuSansMono-49"/>
       </defs>
       <use xlink:href="#DejaVuSansMono-49"/>
       <use x="60.205078" xlink:href="#DejaVuSansMono-48"/>
       <use x="120.410156" xlink:href="#DejaVuSansMono-48"/>
       <use x="180.615234" xlink:href="#DejaVuSansMono-48"/>
      </g>
     </g>
    </g>
    <g id="text_7">
     <!-- n -->
     <g transform="translate(241.89994 337.872187)scale(0.06 -0.06)">
      <defs>
       <path d="M 51.3125 33.890625 
L 51.3125 0 
L 42.28125 0 
L 42.28125 33.890625 
Q 42.28125 41.265625 39.6875 44.71875 
Q 37.109375 48.1875 31.59375 48.1875 
Q 25.296875 48.1875 21.890625 43.71875 
Q 18.5 39.265625 18.5 30.90625 
L 18.5 0 
L 9.515625 0 
L 9.515625 54.6875 
L 18.5 54.6875 
L 18.5 46.484375 
Q 20.90625 51.171875 25 53.578125 
Q 29.109375 56 34.71875 56 
Q 43.0625 56 47.1875 50.5 
Q 51.3125 45.015625 51.3125 33.890625 
z
" id="DejaVuSansMono-110"/>
      </defs>
      <use xlink:href="#DejaVuSansMono-110"/>
     </g>
    </g>
   </g>
   <g id="matplotlib.axis_2">
    <g id="ytick_1">
     <g id="line2d_7">
      <defs>
       <path d="M 0 0 
L -3.5 0 
" id="m8b2ff3d6f1" style="stroke:#000000;stroke-width:0.8;"/>
      </defs>
      <g>
       <use style="stroke:#000000;stroke-width:0.8;" x="35.85875" xlink:href="#m8b2ff3d6f1" y="272.979639"/>
      </g>
     </g>
     <g id="text_8">
      <!-- $\mathdefault{10^{2}}$ -->
      <g transform="translate(18.83875 275.275108)scale(0.06 -0.06)">
       <use transform="translate(0 0.765625)" xlink:href="#DejaVuSansMono-49"/>
       <use transform="translate(60.205078 0.765625)" xlink:href="#DejaVuSansMono-48"/>
       <use transform="translate(121.367188 39.046875)scale(0.7)" xlink:href="#DejaVuSansMono-50"/>
      </g>
     </g>
    </g>
    <g id="ytick_2">
     <g id="line2d_8">
      <g>
       <use style="stroke:#000000;stroke-width:0.8;" x="35.85875" xlink:href="#m8b2ff3d6f1" y="228.134441"/>
      </g>
     </g>
     <g id="text_9">
      <!-- $\mathdefault{10^{5}}$ -->
      <g transform="translate(18.83875 230.42991)scale(0.06 -0.06)">
       <defs>
        <path d="M 10.109375 72.90625 
L 47.015625 72.90625 
L 47.015625 64.59375 
L 19.09375 64.59375 
L 19.09375 46.6875 
Q 21.1875 47.46875 23.3125 47.828125 
Q 25.4375 48.1875 27.59375 48.1875 
Q 38.921875 48.1875 45.5625 41.5 
Q 52.203125 34.8125 52.203125 23.390625 
Q 52.203125 11.859375 45.234375 5.21875 
Q 38.28125 -1.421875 26.21875 -1.421875 
Q 20.40625 -1.421875 15.59375 -0.640625 
Q 10.796875 0.140625 6.984375 1.703125 
L 6.984375 11.71875 
Q 11.46875 9.28125 16.015625 8.078125 
Q 20.5625 6.890625 25.296875 6.890625 
Q 33.453125 6.890625 37.859375 11.1875 
Q 42.28125 15.484375 42.28125 23.390625 
Q 42.28125 31.203125 37.71875 35.546875 
Q 33.15625 39.890625 25 39.890625 
Q 21.046875 39.890625 17.28125 38.984375 
Q 13.53125 38.09375 10.109375 36.28125 
z
" id="DejaVuSansMono-53"/>
       </defs>
       <use transform="translate(0 0.684375)" xlink:href="#DejaVuSansMono-49"/>
       <use transform="translate(60.205078 0.684375)" xlink:href="#DejaVuSansMono-48"/>
       <use transform="translate(121.367188 38.965625)scale(0.7)" xlink:href="#DejaVuSansMono-53"/>
      </g>
     </g>
    </g>
    <g id="ytick_3">
     <g id="line2d_9">
      <g>
       <use style="stroke:#000000;stroke-width:0.8;" x="35.85875" xlink:href="#m8b2ff3d6f1" y="183.289243"/>
      </g>
     </g>
     <g id="text_10">
      <!-- $\mathdefault{10^{8}}$ -->
      <g transform="translate(18.83875 185.584712)scale(0.06 -0.06)">
       <use transform="translate(0 0.765625)" xlink:href="#DejaVuSansMono-49"/>
       <use transform="translate(60.205078 0.765625)" xlink:href="#DejaVuSansMono-48"/>
       <use transform="translate(121.367188 39.046875)scale(0.7)" xlink:href="#DejaVuSansMono-56"/>
      </g>
     </g>
    </g>
    <g id="ytick_4">
     <g id="line2d_10">
      <g>
       <use style="stroke:#000000;stroke-width:0.8;" x="35.85875" xlink:href="#m8b2ff3d6f1" y="138.444046"/>
      </g>
     </g>
     <g id="text_11">
      <!-- $\mathdefault{10^{11}}$ -->
      <g transform="translate(16.31875 140.739514)scale(0.06 -0.06)">
       <use transform="translate(0 0.684375)" xlink:href="#DejaVuSansMono-49"/>
       <use transform="translate(60.205078 0.684375)" xlink:href="#DejaVuSansMono-48"/>
       <use transform="translate(121.367188 38.965625)scale(0.7)" xlink:href="#DejaVuSansMono-49"/>
       <use transform="translate(163.510742 38.965625)scale(0.7)" xlink:href="#DejaVuSansMono-49"/>
      </g>
     </g>
    </g>
    <g id="ytick_5">
     <g id="line2d_11">
      <g>
       <use style="stroke:#000000;stroke-width:0.8;" x="35.85875" xlink:href="#m8b2ff3d6f1" y="93.598848"/>
      </g>
     </g>
     <g id="text_12">
      <!-- $\mathdefault{10^{14}}$ -->
      <g transform="translate(16.31875 95.894317)scale(0.06 -0.06)">
       <use transform="translate(0 0.684375)" xlink:href="#DejaVuSansMono-49"/>
       <use transform="translate(60.205078 0.684375)" xlink:href="#DejaVuSansMono-48"/>
       <use transform="translate(121.367188 38.965625)scale(0.7)" xlink:href="#DejaVuSansMono-49"/>
       <use transform="translate(163.510742 38.965625)scale(0.7)" xlink:href="#DejaVuSansMono-52"/>
      </g>
     </g>
    </g>
    <g id="ytick_6">
     <g id="line2d_12">
      <g>
       <use style="stroke:#000000;stroke-width:0.8;" x="35.85875" xlink:href="#m8b2ff3d6f1" y="48.75365"/>
      </g>
     </g>
     <g id="text_13">
      <!-- $\mathdefault{10^{17}}$ -->
      <g transform="translate(16.31875 51.049119)scale(0.06 -0.06)">
       <defs>
        <path d="M 6.78125 72.90625 
L 52.6875 72.90625 
L 52.6875 68.703125 
L 26.609375 0 
L 16.3125 0 
L 41.703125 64.59375 
L 6.78125 64.59375 
z
" id="DejaVuSansMono-55"/>
       </defs>
       <use transform="translate(0 0.684375)" xlink:href="#DejaVuSansMono-49"/>
       <use transform="translate(60.205078 0.684375)" xlink:href="#DejaVuSansMono-48"/>
       <use transform="translate(121.367188 38.965625)scale(0.7)" xlink:href="#DejaVuSansMono-49"/>
       <use transform="translate(163.510742 38.965625)scale(0.7)" xlink:href="#DejaVuSansMono-55"/>
      </g>
     </g>
    </g>
    <g id="text_14">
     <!-- y_n -->
     <g transform="translate(10.904063 172.634094)rotate(-90)scale(0.06 -0.06)">
      <defs>
       <path d="M 41.890625 17.578125 
Q 39.65625 11.859375 36.1875 2.546875 
Q 31.34375 -10.359375 29.6875 -13.1875 
Q 27.4375 -17 24.0625 -18.890625 
Q 20.703125 -20.796875 16.21875 -20.796875 
L 8.984375 -20.796875 
L 8.984375 -13.28125 
L 14.3125 -13.28125 
Q 18.265625 -13.28125 20.5 -10.984375 
Q 22.75 -8.6875 26.21875 0.875 
L 5.078125 54.6875 
L 14.59375 54.6875 
L 30.8125 11.921875 
L 46.78125 54.6875 
L 56.296875 54.6875 
z
" id="DejaVuSansMono-121"/>
       <path d="M 60.203125 -19.671875 
L 60.203125 -23.578125 
L 0 -23.578125 
L 0 -19.671875 
z
" id="DejaVuSansMono-95"/>
      </defs>
      <use xlink:href="#DejaVuSansMono-121"/>
      <use x="60.205078" xlink:href="#DejaVuSansMono-95"/>
      <use x="120.410156" xlink:href="#DejaVuSansMono-110"/>
     </g>
    </g>
   </g>
   <g id="line2d_13">
    <path clip-path="url(#p4aac15e105)" d="M 54.753958 175.742021 
L 55.145568 168.609822 
L 55.537179 173.109738 
L 55.928789 165.977539 
L 56.3204 170.477456 
L 56.71201 163.345257 
L 57.103621 167.845173 
L 57.495231 160.712974 
L 57.886842 165.212891 
L 58.278452 158.080692 
L 59.061673 167.080525 
L 59.453284 159.948326 
L 59.844894 164.448242 
L 60.236505 157.316043 
L 61.019726 166.315877 
L 61.411336 159.183678 
L 61.802947 163.683594 
L 62.194557 156.551395 
L 62.586168 161.051312 
L 62.977779 153.919113 
L 63.369389 158.419029 
L 63.761 151.28683 
L 64.15261 155.786747 
L 64.544221 148.654548 
L 64.935831 153.154464 
L 65.327442 146.022265 
L 65.719052 150.522182 
L 66.110663 143.389983 
L 66.502273 147.889899 
L 66.893884 140.7577 
L 67.677105 149.757534 
L 68.068715 142.625335 
L 68.851936 151.625168 
L 69.243547 144.492969 
L 70.026768 153.492802 
L 70.418378 146.360603 
L 71.201599 155.360436 
L 71.59321 148.228237 
L 71.98482 152.728153 
L 72.376431 145.595954 
L 72.768042 150.095871 
L 73.159652 142.963672 
L 73.551263 147.463589 
L 73.942873 140.33139 
L 74.334484 144.831306 
L 74.726094 137.699107 
L 75.117705 142.199024 
L 75.509315 135.066825 
L 75.900926 139.566741 
L 76.292536 132.434542 
L 76.684147 136.934459 
L 77.075757 129.80226 
L 77.858978 138.802093 
L 78.250589 131.669894 
L 78.642199 136.16981 
L 79.03381 129.037611 
L 79.42542 133.537528 
L 79.817031 126.405329 
L 80.600252 135.405162 
L 80.991862 128.272963 
L 81.383473 132.77288 
L 81.775083 125.640681 
L 82.166694 130.140597 
L 82.558305 123.008398 
L 83.341526 132.008231 
L 83.733136 124.876032 
L 84.516357 133.875865 
L 84.907968 126.743666 
L 85.299578 131.243583 
L 85.691189 124.111384 
L 86.082799 128.611301 
L 86.47441 121.479102 
L 86.86602 125.979018 
L 87.257631 118.846819 
L 87.649241 123.346736 
L 88.040852 116.214537 
L 88.432462 120.714453 
L 88.824073 113.582254 
L 89.215683 118.082171 
L 89.607294 110.949972 
L 90.390515 119.949805 
L 90.782125 112.817606 
L 91.173736 117.317522 
L 91.565346 110.185323 
L 91.956957 114.68524 
L 92.348568 107.553041 
L 92.740178 112.052958 
L 93.131789 104.920759 
L 93.523399 109.420675 
L 93.91501 102.288476 
L 94.30662 106.788393 
L 94.698231 99.656194 
L 95.089841 104.15611 
L 95.481452 97.023911 
L 95.873062 101.523828 
L 96.264673 94.391629 
L 96.656283 98.891545 
L 97.047894 91.759346 
L 97.439504 96.259263 
L 97.831115 89.127064 
L 98.222725 93.62698 
L 98.614336 86.494781 
L 99.005946 90.994698 
L 99.397557 83.862499 
L 99.789167 88.362416 
L 100.180778 81.230217 
L 100.572388 85.730133 
L 100.963999 78.597934 
L 101.355609 83.097851 
L 101.74722 75.965652 
L 102.138831 80.465568 
L 102.530441 73.333369 
L 102.922052 77.833286 
L 103.313662 70.701087 
L 103.705273 75.201003 
L 104.096883 68.068804 
L 104.488494 72.568721 
L 104.880104 65.436522 
L 105.271715 69.936438 
L 105.663325 62.804239 
L 106.054936 67.304156 
L 106.446546 60.171957 
L 107.229767 69.17179 
L 107.621378 62.039591 
L 108.012988 66.539508 
L 108.404599 59.407309 
L 108.796209 63.907225 
L 109.18782 56.775026 
L 109.57943 61.274943 
L 109.971041 54.142744 
L 110.754262 63.142577 
L 111.145872 56.010378 
L 111.537483 60.510294 
L 111.929094 53.378095 
L 112.320704 57.878012 
L 112.712315 50.745813 
L 113.495536 59.745646 
L 113.887146 52.613447 
L 114.278757 57.113364 
L 114.670367 49.981165 
L 115.061978 54.481081 
L 115.453588 47.348882 
L 115.845199 51.848799 
L 116.236809 44.7166 
L 116.62842 49.216516 
L 117.02003 42.084317 
L 117.411641 46.584234 
L 117.803251 39.452035 
L 118.194862 43.951951 
L 118.586472 36.819752 
L 118.978083 41.319669 
L 119.369693 34.18747 
L 119.761304 38.687387 
L 120.152914 31.555187 
L 121.719357 49.554854 
L 122.110967 42.422655 
L 124.06902 64.922238 
L 124.46063 57.790039 
L 124.852241 62.289955 
L 125.243851 55.157756 
L 125.635462 59.657673 
L 126.027072 52.525474 
L 126.418683 57.02539 
L 126.810293 49.893191 
L 127.593514 58.893024 
L 127.985125 51.760825 
L 129.159956 65.260575 
L 129.551567 58.128376 
L 131.50962 80.627959 
L 131.90123 73.49576 
L 133.076062 86.99551 
L 133.467672 79.863311 
L 133.859283 84.363227 
L 134.250893 77.231028 
L 135.034114 86.230861 
L 135.425725 79.098662 
L 135.817335 83.598579 
L 136.208946 76.46638 
L 136.992167 85.466213 
L 137.383777 78.334014 
L 137.775388 82.83393 
L 138.166998 75.701731 
L 138.950219 84.701565 
L 139.34183 77.569366 
L 139.73344 82.069282 
L 140.125051 74.937083 
L 142.083104 97.436666 
L 142.474714 90.304467 
L 142.866325 94.804383 
L 143.257935 87.672184 
L 143.649546 92.172101 
L 144.041156 85.039902 
L 144.432767 89.539819 
L 144.824377 82.40762 
L 145.215988 86.907536 
L 145.607598 79.775337 
L 145.999209 84.275254 
L 146.390819 77.143055 
L 146.78243 81.642971 
L 147.17404 74.510772 
L 147.957261 83.510605 
L 148.348872 76.378406 
L 148.740482 80.878323 
L 149.132093 73.746124 
L 149.523703 78.24604 
L 149.915314 71.113841 
L 150.306924 75.613758 
L 150.698535 68.481559 
L 152.264977 86.481225 
L 152.656588 79.349026 
L 153.439809 88.348859 
L 153.831419 81.21666 
L 154.22303 85.716577 
L 154.61464 78.584378 
L 155.006251 83.084294 
L 155.397861 75.952095 
L 155.789472 80.452012 
L 156.181082 73.319813 
L 156.964303 82.319646 
L 157.355914 75.187447 
L 157.747524 79.687364 
L 158.139135 72.555165 
L 158.530745 77.055081 
L 158.922356 69.922882 
L 159.313966 74.422799 
L 159.705577 67.2906 
L 160.097187 71.790516 
L 160.488798 64.658317 
L 160.880408 69.158234 
L 161.272019 62.026035 
L 161.66363 66.525951 
L 162.05524 59.393752 
L 162.446851 63.893669 
L 162.838461 56.76147 
L 163.621682 65.761303 
L 164.013293 58.629104 
L 164.796514 67.628937 
L 165.188124 60.496738 
L 165.579735 64.996655 
L 165.971345 57.864456 
L 167.537787 75.864122 
L 167.929398 68.731923 
L 168.321008 73.23184 
L 168.712619 66.099641 
L 169.104229 70.599557 
L 169.49584 63.467358 
L 170.670671 76.967108 
L 171.062282 69.834909 
L 171.453893 74.334825 
L 171.845503 67.202626 
L 172.237114 71.702543 
L 172.628724 64.570344 
L 173.803556 78.070094 
L 174.195166 70.937895 
L 174.978387 79.937728 
L 175.369998 72.805529 
L 175.761608 77.305445 
L 176.153219 70.173246 
L 176.544829 74.673163 
L 176.93644 67.540964 
L 177.32805 72.04088 
L 177.719661 64.908681 
L 178.111271 69.408598 
L 178.502882 62.276399 
L 178.894492 66.776316 
L 179.286103 59.644117 
L 180.460934 73.143866 
L 180.852545 66.011667 
L 183.593819 97.511083 
L 183.985429 90.378884 
L 184.37704 94.878801 
L 184.76865 87.746602 
L 185.551871 96.746435 
L 185.943482 89.614236 
L 186.335092 94.114152 
L 186.726703 86.981953 
L 187.118313 91.48187 
L 187.509924 84.349671 
L 189.076366 102.349337 
L 189.467976 95.217138 
L 190.251197 104.216971 
L 190.642808 97.084772 
L 192.600861 119.584355 
L 192.992471 112.452156 
L 194.167303 125.951906 
L 194.558913 118.819707 
L 195.733745 132.319456 
L 196.125355 125.187257 
L 196.516966 129.687174 
L 196.908576 122.554975 
L 197.300187 127.054892 
L 197.691797 119.922693 
L 200.433071 151.422108 
L 200.824682 144.289909 
L 201.607903 153.289743 
L 201.999513 146.157544 
L 202.782734 155.157377 
L 203.174345 148.025178 
L 203.565955 152.525094 
L 203.957566 145.392895 
L 204.349176 149.892812 
L 204.740787 142.760613 
L 205.524008 151.760446 
L 205.915618 144.628247 
L 206.698839 153.62808 
L 207.09045 146.495881 
L 207.48206 150.995798 
L 207.873671 143.863599 
L 208.265281 148.363515 
L 208.656892 141.231316 
L 210.614945 163.730899 
L 211.006555 156.5987 
L 211.789776 165.598533 
L 212.181387 158.466334 
L 212.572997 162.966251 
L 212.964608 155.834052 
L 213.356218 160.333968 
L 213.747829 153.201769 
L 214.139439 157.701686 
L 214.53105 150.569487 
L 214.92266 155.069403 
L 215.314271 147.937204 
L 216.489102 161.436954 
L 216.880713 154.304755 
L 217.272323 158.804672 
L 217.663934 151.672473 
L 218.838765 165.172222 
L 219.230376 158.040023 
L 220.405208 171.539773 
L 220.796818 164.407574 
L 223.538092 195.90699 
L 223.929702 188.774791 
L 224.712923 197.774624 
L 225.104534 190.642425 
L 225.496144 195.142341 
L 225.887755 188.010142 
L 226.279365 192.510059 
L 226.670976 185.377859 
L 227.062586 189.877776 
L 227.454197 182.745577 
L 227.845807 187.245494 
L 228.237418 180.113294 
L 228.629028 184.613211 
L 229.020639 177.481012 
L 230.978692 199.980595 
L 231.370302 192.848396 
L 232.153523 201.848229 
L 232.545134 194.716029 
L 232.936744 199.215946 
L 233.328355 192.083747 
L 234.111576 201.08358 
L 234.503186 193.95138 
L 234.894797 198.451297 
L 235.286407 191.319098 
L 236.461239 204.818847 
L 236.852849 197.686648 
L 237.24446 202.186564 
L 237.63607 195.054365 
L 238.810902 208.554115 
L 239.202512 201.421915 
L 240.377344 214.921664 
L 240.768955 207.789462 
L 241.160565 212.289379 
L 241.552176 205.157178 
L 241.943786 209.657095 
L 242.335397 202.524894 
L 242.727007 207.024811 
L 243.118618 199.892611 
L 243.510228 204.392528 
L 243.901839 197.260328 
L 245.07667 210.760078 
L 245.468281 203.627877 
L 245.859891 208.127794 
L 246.251502 200.995594 
L 246.643112 205.49551 
L 247.034723 198.363311 
L 248.992775 220.862894 
L 249.384386 213.730687 
L 250.559218 227.230437 
L 250.950828 220.098219 
L 252.12566 233.597969 
L 252.51727 226.46572 
L 252.908881 230.965636 
L 253.300491 223.833404 
L 253.692102 228.33332 
L 254.083712 221.201099 
L 254.475323 225.701016 
L 254.866933 218.568802 
L 255.258544 223.068718 
L 255.650154 215.936509 
L 257.216596 233.936176 
L 257.608207 226.803924 
L 257.999817 231.30384 
L 258.391428 224.171606 
L 259.56626 237.671356 
L 259.95787 230.539063 
L 260.349481 235.038979 
L 260.741091 227.906718 
L 261.132702 232.406634 
L 261.524312 225.274393 
L 262.307533 234.274227 
L 262.699144 227.141972 
L 263.090754 231.641888 
L 263.482365 224.509652 
L 263.873975 229.009569 
L 264.265586 221.877345 
L 265.440417 235.377095 
L 265.832028 228.24483 
L 266.223638 232.744746 
L 266.615249 225.612503 
L 268.181691 243.612169 
L 268.573301 236.479736 
L 269.356523 245.479569 
L 269.748133 238.347057 
L 270.531354 247.34689 
L 270.922965 240.214274 
L 271.706186 249.214107 
L 272.097796 242.081351 
L 272.881017 251.081184 
L 273.272628 243.948244 
L 274.83907 261.94791 
L 275.23068 254.811756 
L 275.622291 259.311672 
L 276.013901 252.176838 
L 277.971954 274.676421 
L 278.363564 267.516179 
L 279.538396 281.015928 
L 279.930007 273.809534 
L 281.104838 287.309284 
L 281.496449 279.983279 
L 281.888059 284.483196 
L 282.27967 277.224934 
L 283.062891 286.224768 
L 283.454501 278.928205 
L 284.629333 292.427955 
L 285.020943 284.876771 
L 286.587385 302.876437 
L 286.587385 302.876437 
" style="fill:none;stroke:#1f77b4;stroke-linecap:square;stroke-width:0.666667;"/>
   </g>
   <g id="line2d_14">
    <path clip-path="url(#p4aac15e105)" d="M 54.753958 172.376092 
L 55.145568 176.876009 
L 55.537179 169.74381 
L 55.928789 174.243726 
L 56.3204 167.111527 
L 57.103621 176.111361 
L 57.495231 168.979161 
L 58.278452 177.978995 
L 58.670063 170.846796 
L 59.453284 179.846629 
L 59.844894 172.71443 
L 60.628115 181.714263 
L 61.019726 174.582064 
L 61.411336 179.08198 
L 61.802947 171.949781 
L 62.194557 176.449698 
L 62.586168 169.317499 
L 62.977779 173.817415 
L 63.369389 166.685216 
L 63.761 171.185133 
L 64.15261 164.052934 
L 64.544221 168.552851 
L 64.935831 161.420652 
L 65.327442 165.920568 
L 65.719052 158.788369 
L 66.110663 163.288286 
L 66.502273 156.156087 
L 66.893884 160.656003 
L 67.285494 153.523804 
L 67.677105 158.023721 
L 68.068715 150.891522 
L 69.243547 164.391271 
L 69.635157 157.259072 
L 70.026768 161.758989 
L 70.418378 154.62679 
L 70.809989 159.126707 
L 71.201599 151.994508 
L 71.59321 156.494424 
L 71.98482 149.362225 
L 72.376431 153.862142 
L 72.768042 146.729943 
L 73.159652 151.229859 
L 73.551263 144.09766 
L 74.334484 153.097493 
L 74.726094 145.965294 
L 75.117705 150.465211 
L 75.509315 143.333012 
L 75.900926 147.832928 
L 76.292536 140.700729 
L 76.684147 145.200646 
L 77.075757 138.068447 
L 77.467368 142.568364 
L 77.858978 135.436165 
L 78.250589 139.936081 
L 78.642199 132.803882 
L 79.03381 137.303799 
L 79.42542 130.1716 
L 79.817031 134.671516 
L 80.208641 127.539317 
L 82.166694 150.0389 
L 82.558305 142.906701 
L 82.949915 147.406618 
L 83.341526 140.274419 
L 83.733136 144.774335 
L 84.124747 137.642136 
L 84.516357 142.142053 
L 84.907968 135.009854 
L 85.299578 139.50977 
L 85.691189 132.377571 
L 86.082799 136.877488 
L 86.47441 129.745289 
L 87.257631 138.745122 
L 87.649241 131.612923 
L 88.040852 136.112839 
L 88.432462 128.98064 
L 88.824073 133.480557 
L 89.215683 126.348358 
L 89.607294 130.848275 
L 89.998904 123.716076 
L 90.782125 132.715909 
L 91.173736 125.58371 
L 91.956957 134.583543 
L 92.348568 127.451344 
L 93.131789 136.451177 
L 93.523399 129.318978 
L 93.91501 133.818894 
L 94.30662 126.686695 
L 95.481452 140.186445 
L 95.873062 133.054246 
L 96.264673 137.554163 
L 96.656283 130.421964 
L 97.047894 134.92188 
L 97.439504 127.789681 
L 99.005946 145.789348 
L 99.397557 138.657148 
L 100.180778 147.656982 
L 100.572388 140.524783 
L 100.963999 145.024699 
L 101.355609 137.8925 
L 102.138831 146.892333 
L 102.530441 139.760134 
L 102.922052 144.260051 
L 103.313662 137.127852 
L 103.705273 141.627768 
L 104.096883 134.495569 
L 104.488494 138.995486 
L 104.880104 131.863287 
L 105.663325 140.86312 
L 106.054936 133.730921 
L 106.838157 142.730754 
L 107.229767 135.598555 
L 107.621378 140.098472 
L 108.012988 132.966273 
L 108.796209 141.966106 
L 109.18782 134.833907 
L 109.57943 139.333823 
L 109.971041 132.201624 
L 110.362651 136.701541 
L 110.754262 129.569342 
L 111.537483 138.569175 
L 111.929094 131.436976 
L 112.320704 135.936893 
L 112.712315 128.804694 
L 113.495536 137.804527 
L 113.887146 130.672328 
L 115.061978 144.172077 
L 115.453588 137.039878 
L 116.236809 146.039712 
L 116.62842 138.907513 
L 117.02003 143.407429 
L 117.411641 136.27523 
L 118.194862 145.275063 
L 118.586472 138.142864 
L 118.978083 142.642781 
L 119.369693 135.510582 
L 119.761304 140.010498 
L 120.152914 132.878299 
L 120.936135 141.878132 
L 121.327746 134.745933 
L 121.719357 139.24585 
L 122.110967 132.113651 
L 122.894188 141.113484 
L 123.285799 133.981285 
L 124.46063 147.481035 
L 124.852241 140.348836 
L 126.418683 158.348502 
L 126.810293 151.216303 
L 127.593514 160.216136 
L 127.985125 153.083937 
L 128.376735 157.583854 
L 128.768346 150.451655 
L 129.159956 154.951571 
L 129.551567 147.819372 
L 130.334788 156.819205 
L 130.726398 149.687006 
L 131.118009 154.186923 
L 131.50962 147.054724 
L 131.90123 151.55464 
L 132.292841 144.422441 
L 132.684451 148.922358 
L 133.076062 141.790159 
L 133.859283 150.789992 
L 134.250893 143.657793 
L 135.034114 152.657626 
L 135.425725 145.525427 
L 135.817335 150.025344 
L 136.208946 142.893145 
L 136.600556 147.393061 
L 136.992167 140.260862 
L 137.383777 144.760779 
L 137.775388 137.62858 
L 138.558609 146.628413 
L 138.950219 139.496214 
L 139.73344 148.496047 
L 140.125051 141.363848 
L 140.516661 145.863765 
L 140.908272 138.731566 
L 141.299883 143.231482 
L 141.691493 136.099283 
L 142.083104 140.5992 
L 142.474714 133.467001 
L 143.257935 142.466834 
L 143.649546 135.334635 
L 144.432767 144.334468 
L 144.824377 137.202269 
L 145.607598 146.202102 
L 145.999209 139.069903 
L 146.390819 143.56982 
L 146.78243 136.437621 
L 147.17404 140.937537 
L 147.565651 133.805338 
L 148.740482 147.305088 
L 149.132093 140.172889 
L 150.698535 158.172555 
L 151.090146 151.040356 
L 151.481756 155.540273 
L 151.873367 148.408074 
L 152.264977 152.90799 
L 152.656588 145.775791 
L 153.439809 154.775624 
L 153.831419 147.643425 
L 154.61464 156.643259 
L 155.006251 149.51106 
L 155.397861 154.010976 
L 155.789472 146.878777 
L 156.181082 151.378694 
L 156.572693 144.246495 
L 156.964303 148.746411 
L 157.355914 141.614212 
L 157.747524 146.114129 
L 158.139135 138.98193 
L 158.530745 143.481846 
L 158.922356 136.349647 
L 160.488798 154.349314 
L 160.880408 147.217115 
L 161.272019 151.717031 
L 161.66363 144.584832 
L 162.838461 158.084582 
L 163.230072 150.952383 
L 164.013293 159.952216 
L 164.404903 152.820017 
L 164.796514 157.319933 
L 165.188124 150.187734 
L 165.579735 154.687651 
L 165.971345 147.555452 
L 166.362956 152.055369 
L 166.754566 144.92317 
L 167.146177 149.423086 
L 167.537787 142.290887 
L 169.49584 164.79047 
L 169.88745 157.658271 
L 170.279061 162.158188 
L 170.670671 155.025989 
L 171.062282 159.525905 
L 171.453893 152.393706 
L 171.845503 156.893623 
L 172.237114 149.761424 
L 172.628724 154.26134 
L 173.020335 147.129141 
L 173.411945 151.629058 
L 173.803556 144.496859 
L 174.586777 153.496692 
L 174.978387 146.364493 
L 175.761608 155.364326 
L 176.153219 148.232127 
L 176.93644 157.23196 
L 177.32805 150.099761 
L 178.111271 159.099594 
L 178.502882 151.967395 
L 179.286103 160.967228 
L 179.677713 153.835029 
L 180.069324 158.334946 
L 180.460934 151.202747 
L 180.852545 155.702663 
L 181.244156 148.570464 
L 181.635766 153.070381 
L 182.027377 145.938182 
L 182.418987 150.438099 
L 182.810598 143.3059 
L 183.593819 152.305733 
L 183.985429 145.173534 
L 184.37704 149.67345 
L 184.76865 142.541251 
L 185.160261 147.041168 
L 185.551871 139.908969 
L 185.943482 144.408885 
L 186.335092 137.276686 
L 186.726703 141.776603 
L 187.118313 134.644404 
L 187.901534 143.644237 
L 188.293145 136.512038 
L 188.684755 141.011955 
L 189.076366 133.879756 
L 189.467976 138.379672 
L 189.859587 131.247473 
L 190.642808 140.247306 
L 191.034419 133.115107 
L 191.426029 137.615024 
L 191.81764 130.482825 
L 192.600861 139.482658 
L 192.992471 132.350459 
L 193.384082 136.850375 
L 193.775692 129.718176 
L 194.558913 138.71801 
L 194.950524 131.585811 
L 195.733745 140.585644 
L 196.125355 133.453445 
L 196.908576 142.453278 
L 197.300187 135.321079 
L 197.691797 139.820995 
L 198.083408 132.688796 
L 198.475018 137.188713 
L 198.866629 130.056514 
L 199.64985 139.056347 
L 200.04146 131.924148 
L 200.433071 136.424065 
L 200.824682 129.291866 
L 201.607903 138.291699 
L 201.999513 131.1595 
L 202.391124 135.659416 
L 202.782734 128.527217 
L 203.174345 133.027134 
L 203.565955 125.894935 
L 204.349176 134.894768 
L 204.740787 127.762569 
L 206.307229 145.762235 
L 206.698839 138.630036 
L 207.48206 147.629869 
L 207.873671 140.49767 
L 208.265281 144.997587 
L 208.656892 137.865388 
L 209.440113 146.865221 
L 209.831723 139.733022 
L 210.223334 144.232938 
L 210.614945 137.100739 
L 211.006555 141.600656 
L 211.398166 134.468457 
L 212.181387 143.46829 
L 212.572997 136.336091 
L 212.964608 140.836008 
L 213.356218 133.703809 
L 214.139439 142.703642 
L 214.53105 135.571443 
L 214.92266 140.071359 
L 215.314271 132.93916 
L 216.097492 141.938994 
L 216.489102 134.806794 
L 217.663934 148.306544 
L 218.055544 141.174345 
L 218.838765 150.174178 
L 219.230376 143.041979 
L 219.621986 147.541896 
L 220.013597 140.409697 
L 220.405208 144.909613 
L 220.796818 137.777414 
L 221.188429 142.277331 
L 221.580039 135.145132 
L 223.146481 153.144798 
L 223.538092 146.012599 
L 224.321313 155.012432 
L 224.712923 147.880233 
L 225.104534 152.38015 
L 225.496144 145.247951 
L 225.887755 149.747867 
L 226.279365 142.615668 
L 226.670976 147.115585 
L 227.062586 139.983386 
L 228.629028 157.983052 
L 229.020639 150.850853 
L 229.412249 155.35077 
L 229.80386 148.218571 
L 230.195471 152.718487 
L 230.587081 145.586288 
L 230.978692 150.086205 
L 231.370302 142.954006 
L 231.761913 147.453922 
L 232.153523 140.321723 
L 232.936744 149.321557 
L 233.328355 142.189358 
L 234.503186 155.689107 
L 234.894797 148.556908 
L 235.678018 157.556741 
L 236.069628 150.424542 
L 236.461239 154.924459 
L 236.852849 147.79226 
L 237.24446 152.292176 
L 237.63607 145.159977 
L 238.810902 158.659727 
L 239.202512 151.527528 
L 239.985734 160.527361 
L 240.377344 153.395162 
L 241.552176 166.894912 
L 241.943786 159.762713 
L 242.335397 164.26263 
L 242.727007 157.13043 
L 244.68506 179.630013 
L 245.07667 172.497814 
L 245.859891 181.497647 
L 246.251502 174.365448 
L 246.643112 178.865365 
L 247.034723 171.733166 
L 247.426333 176.233082 
L 247.817944 169.100883 
L 248.209554 173.6008 
L 248.601165 166.468601 
L 248.992775 170.968518 
L 249.384386 163.836319 
L 250.167607 172.836152 
L 250.559218 165.703953 
L 250.950828 170.203869 
L 251.342439 163.07167 
L 251.734049 167.571587 
L 252.12566 160.439388 
L 252.51727 164.939304 
L 252.908881 157.807105 
L 253.300491 162.307022 
L 253.692102 155.174823 
L 254.475323 164.174656 
L 254.866933 157.042457 
L 255.650154 166.04229 
L 256.041765 158.910091 
L 256.433375 163.410008 
L 256.824986 156.277809 
L 257.608207 165.277642 
L 257.999817 158.145443 
L 258.783038 167.145276 
L 259.174649 160.013077 
L 259.95787 169.01291 
L 260.349481 161.880711 
L 261.132702 170.880544 
L 261.524312 163.748345 
L 262.699144 177.248095 
L 263.090754 170.115896 
L 263.482365 174.615812 
L 263.873975 167.483613 
L 264.265586 171.98353 
L 264.657196 164.851331 
L 265.440417 173.851164 
L 265.832028 166.718965 
L 267.006859 180.218715 
L 267.39847 173.086516 
L 267.79008 177.586432 
L 268.181691 170.454233 
L 268.573301 174.95415 
L 268.964912 167.821951 
L 269.356523 172.321867 
L 269.748133 165.189668 
L 270.139744 169.689585 
L 270.531354 162.557386 
L 271.314575 171.557219 
L 271.706186 164.42502 
L 273.272628 182.424686 
L 273.664238 175.292487 
L 274.055849 179.792404 
L 274.447459 172.660205 
L 274.83907 177.160121 
L 275.23068 170.027922 
L 276.013901 179.027755 
L 276.405512 171.895556 
L 276.797122 176.395473 
L 277.188733 169.263274 
L 277.580343 173.763191 
L 277.971954 166.630992 
L 278.363564 171.130908 
L 278.755175 163.998709 
L 279.538396 172.998542 
L 279.930007 165.866343 
L 280.321617 170.36626 
L 280.713228 163.234061 
L 281.104838 167.733977 
L 281.496449 160.601778 
L 282.27967 169.601611 
L 282.67128 162.469412 
L 284.237722 180.469079 
L 284.629333 173.33688 
L 285.020943 177.836796 
L 285.412554 170.704597 
L 285.804164 175.204514 
L 286.195775 168.072315 
L 286.587385 172.572231 
L 286.978996 165.440032 
L 287.370606 169.939949 
L 287.762217 162.80775 
L 288.545438 171.807583 
L 288.937049 164.675384 
L 289.328659 169.175301 
L 289.72027 162.043101 
L 290.11188 166.543018 
L 290.503491 159.410819 
L 291.286712 168.410652 
L 291.678322 161.278453 
L 292.069933 165.77837 
L 292.461543 158.646171 
L 293.636375 172.14592 
L 294.027985 165.013721 
L 294.811206 174.013555 
L 295.202817 166.881355 
L 296.769259 184.881022 
L 297.160869 177.748823 
L 297.55248 182.248739 
L 297.94409 175.11654 
L 298.727312 184.116373 
L 299.118922 176.984174 
L 299.510533 181.484091 
L 299.902143 174.351892 
L 301.076975 187.851642 
L 301.468585 180.719443 
L 302.251806 189.719276 
L 302.643417 182.587077 
L 303.426638 191.58691 
L 303.818248 184.454711 
L 304.99308 197.95446 
L 305.38469 190.822261 
L 305.776301 195.322178 
L 306.167911 188.189979 
L 306.559522 192.689895 
L 306.951132 185.557696 
L 307.342743 190.057613 
L 307.734353 182.925413 
L 308.125964 187.42533 
L 308.517575 180.293131 
L 309.300796 189.292964 
L 309.692406 182.160765 
L 310.475627 191.160598 
L 310.867238 184.028399 
L 311.258848 188.528316 
L 311.650459 181.396117 
L 312.042069 185.896033 
L 312.43368 178.763834 
L 312.82529 183.263751 
L 313.216901 176.131552 
L 313.608511 180.631468 
L 314.000122 173.499269 
L 314.783343 182.499102 
L 315.174953 175.366903 
L 315.958174 184.366736 
L 316.349785 177.234537 
L 316.741395 181.734454 
L 317.133006 174.602255 
L 317.524616 179.102171 
L 317.916227 171.969972 
L 318.307838 176.469889 
L 318.699448 169.33769 
L 319.091059 173.837607 
L 319.482669 166.705408 
L 320.26589 175.705241 
L 320.657501 168.573042 
L 321.049111 173.072958 
L 321.440722 165.940759 
L 321.832332 170.440676 
L 322.223943 163.308477 
L 323.007164 172.30831 
L 323.398774 165.176111 
L 323.790385 169.676027 
L 324.181995 162.543828 
L 325.356827 176.043578 
L 325.748437 168.911379 
L 326.140048 173.411296 
L 326.531658 166.279097 
L 331.230985 220.278095 
L 331.622595 213.14589 
L 332.405816 222.145723 
L 332.797427 215.013515 
L 333.189037 219.513432 
L 333.580648 212.381227 
L 333.972258 216.881144 
L 334.363869 209.748941 
L 334.755479 214.248858 
L 335.14709 207.116656 
L 335.5387 211.616573 
L 335.930311 204.484372 
L 336.713532 213.484205 
L 337.105142 206.352004 
L 337.496753 210.85192 
L 337.888364 203.71972 
L 338.279974 208.219636 
L 338.671585 201.087436 
L 339.454806 210.087269 
L 339.846416 202.955069 
L 340.238027 207.454986 
L 340.629637 200.322786 
L 341.021248 204.822702 
L 341.412858 197.690503 
L 342.196079 206.690336 
L 342.58769 199.558136 
L 342.9793 204.058053 
L 343.370911 196.925853 
L 343.762521 201.42577 
L 344.154132 194.29357 
L 345.720574 212.293237 
L 346.112184 205.161036 
L 347.678627 223.160702 
L 348.070237 216.028493 
L 348.461848 220.528409 
L 348.853458 213.396204 
L 349.245069 217.89612 
L 349.636679 210.763917 
L 350.4199 219.76375 
L 350.811511 212.631545 
L 351.203121 217.131461 
L 351.594732 209.999258 
L 351.986342 214.499175 
L 352.377953 207.366973 
L 352.769563 211.86689 
L 353.161174 204.734689 
L 353.944395 213.734522 
L 354.336005 206.602321 
L 355.119226 215.602154 
L 355.510837 208.469952 
L 355.902447 212.969868 
L 356.294058 205.837667 
L 356.685668 210.337584 
L 357.077279 203.205384 
L 358.643721 221.20505 
L 359.035332 214.072843 
L 361.776605 245.572259 
L 362.168216 238.439743 
L 362.559826 242.939659 
L 362.951437 235.807249 
L 363.343047 240.307165 
L 363.734658 233.174825 
L 364.126268 237.674742 
L 364.517879 230.542449 
L 364.909489 235.042365 
L 365.3011 227.910103 
L 366.084321 236.909937 
L 366.475931 229.777654 
L 366.867542 234.27757 
L 367.259153 227.145316 
L 367.650763 231.645232 
L 368.042374 224.512996 
L 370.000426 247.012579 
L 370.392037 239.879983 
L 370.783647 244.3799 
L 371.175258 237.247437 
L 372.350089 250.747186 
L 372.7417 243.614283 
L 373.13331 248.114199 
L 373.524921 240.981531 
L 373.916531 245.481447 
L 374.308142 238.348935 
L 374.699752 242.848852 
L 375.091363 235.716444 
L 375.482973 240.216361 
L 375.874584 233.084022 
L 376.266194 237.583939 
L 376.657805 230.451647 
L 377.049416 234.951564 
L 377.441026 227.819303 
L 377.832637 232.319219 
L 378.224247 225.186979 
L 378.615858 229.686896 
L 379.007468 222.554669 
L 379.399079 227.054586 
L 379.790689 219.922368 
L 380.57391 228.922202 
L 380.965521 221.789978 
L 382.140352 235.289728 
L 382.531963 228.157464 
L 382.923573 232.65738 
L 383.315184 225.525138 
L 383.706794 230.025054 
L 384.098405 222.892826 
L 384.490015 227.392743 
L 384.881626 220.260525 
L 385.273236 224.760441 
L 385.664847 217.628229 
L 386.056457 222.128146 
L 386.448068 214.995938 
L 387.231289 223.995771 
L 387.6229 216.863561 
L 388.01451 221.363478 
L 388.406121 214.231271 
L 388.797731 218.731187 
L 389.189342 211.598983 
L 390.364173 225.098733 
L 390.755784 217.966521 
L 391.539005 226.966354 
L 391.930615 219.834137 
L 392.713836 228.83397 
L 393.105447 221.701747 
L 393.888668 230.70158 
L 394.280278 223.569349 
L 394.671889 228.069265 
L 395.063499 220.937045 
L 395.84672 229.936878 
L 396.238331 222.80465 
L 397.413163 236.3044 
L 397.804773 229.172125 
L 398.587994 238.171958 
L 398.979605 231.039657 
L 399.371215 235.539574 
L 399.762826 228.407307 
L 400.546047 237.40714 
L 400.937657 230.274851 
L 401.329268 234.774768 
L 401.720878 227.642508 
L 403.678931 250.142091 
L 404.070541 243.00925 
L 404.462152 247.509167 
L 404.853762 240.37654 
L 405.636983 249.376373 
L 406.028594 242.243604 
L 406.811815 251.243437 
L 407.203426 244.110477 
L 408.378257 257.610227 
L 408.769868 250.476 
L 409.161478 254.975916 
L 409.553089 247.842366 
L 410.33631 256.842199 
L 410.72792 249.708198 
L 411.511141 258.708032 
L 411.902752 251.573431 
L 413.469194 269.573098 
L 413.860804 262.428106 
L 414.644025 271.42794 
L 415.035636 264.278723 
L 415.427246 268.77864 
L 415.818857 261.635121 
L 416.210468 266.135038 
L 416.602078 258.995303 
L 416.993689 263.495219 
L 417.385299 256.358001 
L 417.77691 260.857918 
L 418.16852 253.722375 
L 418.560131 258.222292 
L 418.951741 251.087865 
L 419.343352 255.587781 
L 419.734962 248.454097 
L 420.518183 257.45393 
L 420.909794 250.319752 
L 422.476236 268.319418 
L 422.867846 261.176671 
L 424.042678 274.676421 
L 424.434288 267.516179 
L 425.60912 281.015928 
L 426.000731 273.809534 
L 427.175562 287.309284 
L 427.567173 279.983279 
L 427.958783 284.483196 
L 428.350394 277.224934 
L 429.133615 286.224768 
L 429.525225 278.928205 
L 430.700057 292.427955 
L 431.091667 284.876771 
L 432.658109 302.876437 
L 432.658109 302.876437 
" style="fill:none;stroke:#ff7f0e;stroke-linecap:square;stroke-width:0.666667;"/>
   </g>
   <g id="patch_3">
    <path d="M 35.85875 316.4425 
L 35.85875 17.989125 
" style="fill:none;stroke:#000000;stroke-linecap:square;stroke-linejoin:miter;stroke-width:0.8;"/>
   </g>
   <g id="patch_4">
    <path d="M 451.553317 316.4425 
L 451.553317 17.989125 
" style="fill:none;stroke:#000000;stroke-linecap:square;stroke-linejoin:miter;stroke-width:0.8;"/>
   </g>
   <g id="patch_5">
    <path d="M 35.85875 316.4425 
L 451.553317 316.4425 
" style="fill:none;stroke:#000000;stroke-linecap:square;stroke-linejoin:miter;stroke-width:0.8;"/>
   </g>
   <g id="patch_6">
    <path d="M 35.85875 17.989125 
L 451.553317 17.989125 
" style="fill:none;stroke:#000000;stroke-linecap:square;stroke-linejoin:miter;stroke-width:0.8;"/>
   </g>
   <g id="text_15">
    <!-- "3y+1" problem -->
    <g transform="translate(213.363658 11.989125)scale(0.072 -0.072)">
     <defs>
      <path d="M 43.703125 72.90625 
L 43.703125 45.796875 
L 35.203125 45.796875 
L 35.203125 72.90625 
z
M 25 72.90625 
L 25 45.796875 
L 16.5 45.796875 
L 16.5 72.90625 
z
" id="DejaVuSansMono-34"/>
      <path d="M 37.890625 39.015625 
Q 45.0625 37.109375 48.875 32.25 
Q 52.6875 27.390625 52.6875 20.125 
Q 52.6875 10.0625 45.921875 4.3125 
Q 39.15625 -1.421875 27.203125 -1.421875 
Q 22.171875 -1.421875 16.9375 -0.484375 
Q 11.71875 0.4375 6.6875 2.203125 
L 6.6875 12.015625 
Q 11.671875 9.421875 16.5 8.15625 
Q 21.34375 6.890625 26.125 6.890625 
Q 34.234375 6.890625 38.578125 10.546875 
Q 42.921875 14.203125 42.921875 21.09375 
Q 42.921875 27.4375 38.578125 31.171875 
Q 34.234375 34.90625 26.8125 34.90625 
L 19.28125 34.90625 
L 19.28125 43.015625 
L 26.8125 43.015625 
Q 33.59375 43.015625 37.40625 45.984375 
Q 41.21875 48.96875 41.21875 54.296875 
Q 41.21875 59.90625 37.671875 62.90625 
Q 34.125 65.921875 27.59375 65.921875 
Q 23.25 65.921875 18.609375 64.9375 
Q 13.96875 63.96875 8.890625 62.015625 
L 8.890625 71.09375 
Q 14.796875 72.65625 19.40625 73.4375 
Q 24.03125 74.21875 27.59375 74.21875 
Q 38.234375 74.21875 44.609375 68.875 
Q 50.984375 63.53125 50.984375 54.6875 
Q 50.984375 48.6875 47.625 44.671875 
Q 44.28125 40.671875 37.890625 39.015625 
z
" id="DejaVuSansMono-51"/>
      <path d="M 34.1875 57.171875 
L 34.1875 35.5 
L 55.90625 35.5 
L 55.90625 27.203125 
L 34.1875 27.203125 
L 34.1875 5.515625 
L 25.984375 5.515625 
L 25.984375 27.203125 
L 4.296875 27.203125 
L 4.296875 35.5 
L 25.984375 35.5 
L 25.984375 57.171875 
z
" id="DejaVuSansMono-43"/>
      <path id="DejaVuSansMono-32"/>
      <path d="M 18.3125 6.890625 
L 18.3125 -20.796875 
L 9.28125 -20.796875 
L 9.28125 54.6875 
L 18.3125 54.6875 
L 18.3125 47.703125 
Q 20.5625 51.765625 24.296875 53.875 
Q 28.03125 56 32.90625 56 
Q 42.828125 56 48.46875 48.328125 
Q 54.109375 40.671875 54.109375 27.09375 
Q 54.109375 13.765625 48.4375 6.171875 
Q 42.78125 -1.421875 32.90625 -1.421875 
Q 27.9375 -1.421875 24.1875 0.703125 
Q 20.453125 2.828125 18.3125 6.890625 
z
M 44.671875 27.296875 
Q 44.671875 37.75 41.375 43.0625 
Q 38.09375 48.390625 31.59375 48.390625 
Q 25.046875 48.390625 21.671875 43.046875 
Q 18.3125 37.703125 18.3125 27.296875 
Q 18.3125 16.9375 21.671875 11.5625 
Q 25.046875 6.203125 31.59375 6.203125 
Q 38.09375 6.203125 41.375 11.515625 
Q 44.671875 16.84375 44.671875 27.296875 
z
" id="DejaVuSansMono-112"/>
      <path d="M 56.390625 43.40625 
Q 53.515625 45.65625 50.53125 46.671875 
Q 47.5625 47.703125 44 47.703125 
Q 35.59375 47.703125 31.140625 42.421875 
Q 26.703125 37.15625 26.703125 27.203125 
L 26.703125 0 
L 17.671875 0 
L 17.671875 54.6875 
L 26.703125 54.6875 
L 26.703125 44 
Q 28.953125 49.8125 33.609375 52.90625 
Q 38.28125 56 44.671875 56 
Q 48 56 50.875 55.171875 
Q 53.765625 54.34375 56.390625 52.59375 
z
" id="DejaVuSansMono-114"/>
      <path d="M 30.078125 48.390625 
Q 23.25 48.390625 19.734375 43.0625 
Q 16.21875 37.75 16.21875 27.296875 
Q 16.21875 16.890625 19.734375 11.546875 
Q 23.25 6.203125 30.078125 6.203125 
Q 36.96875 6.203125 40.484375 11.546875 
Q 44 16.890625 44 27.296875 
Q 44 37.75 40.484375 43.0625 
Q 36.96875 48.390625 30.078125 48.390625 
z
M 30.078125 56 
Q 41.453125 56 47.484375 48.625 
Q 53.515625 41.265625 53.515625 27.296875 
Q 53.515625 13.28125 47.5 5.921875 
Q 41.5 -1.421875 30.078125 -1.421875 
Q 18.703125 -1.421875 12.6875 5.921875 
Q 6.6875 13.28125 6.6875 27.296875 
Q 6.6875 41.265625 12.6875 48.625 
Q 18.703125 56 30.078125 56 
z
" id="DejaVuSansMono-111"/>
      <path d="M 44.828125 27.296875 
Q 44.828125 37.75 41.5 43.0625 
Q 38.1875 48.390625 31.6875 48.390625 
Q 25.140625 48.390625 21.765625 43.046875 
Q 18.40625 37.703125 18.40625 27.296875 
Q 18.40625 16.9375 21.765625 11.5625 
Q 25.140625 6.203125 31.6875 6.203125 
Q 38.1875 6.203125 41.5 11.515625 
Q 44.828125 16.84375 44.828125 27.296875 
z
M 18.40625 47.703125 
Q 20.5625 51.703125 24.34375 53.84375 
Q 28.125 56 33.109375 56 
Q 42.96875 56 48.625 48.40625 
Q 54.296875 40.828125 54.296875 27.484375 
Q 54.296875 13.96875 48.609375 6.265625 
Q 42.921875 -1.421875 33.015625 -1.421875 
Q 28.125 -1.421875 24.390625 0.703125 
Q 20.65625 2.828125 18.40625 6.890625 
L 18.40625 0 
L 9.421875 0 
L 9.421875 75.984375 
L 18.40625 75.984375 
z
" id="DejaVuSansMono-98"/>
      <path d="M 31.203125 19.828125 
Q 31.203125 13.765625 33.421875 10.6875 
Q 35.640625 7.625 39.984375 7.625 
L 50.484375 7.625 
L 50.484375 0 
L 39.109375 0 
Q 31.0625 0 26.640625 5.171875 
Q 22.21875 10.359375 22.21875 19.828125 
L 22.21875 69.484375 
L 7.8125 69.484375 
L 7.8125 76.515625 
L 31.203125 76.515625 
z
" id="DejaVuSansMono-108"/>
      <path d="M 54.296875 29.59375 
L 54.296875 25.203125 
L 15.375 25.203125 
L 15.375 24.90625 
Q 15.375 15.96875 20.03125 11.078125 
Q 24.703125 6.203125 33.203125 6.203125 
Q 37.5 6.203125 42.1875 7.5625 
Q 46.875 8.9375 52.203125 11.71875 
L 52.203125 2.78125 
Q 47.078125 0.6875 42.3125 -0.359375 
Q 37.546875 -1.421875 33.109375 -1.421875 
Q 20.359375 -1.421875 13.171875 6.21875 
Q 6 13.875 6 27.296875 
Q 6 40.375 13.03125 48.1875 
Q 20.0625 56 31.78125 56 
Q 42.234375 56 48.265625 48.921875 
Q 54.296875 41.84375 54.296875 29.59375 
z
M 45.3125 32.234375 
Q 45.125 40.140625 41.578125 44.265625 
Q 38.03125 48.390625 31.390625 48.390625 
Q 24.90625 48.390625 20.703125 44.09375 
Q 16.5 39.796875 15.71875 32.171875 
z
" id="DejaVuSansMono-101"/>
      <path d="M 33.015625 49.125 
Q 34.671875 52.640625 37.234375 54.3125 
Q 39.796875 56 43.40625 56 
Q 50 56 52.703125 50.890625 
Q 55.421875 45.796875 55.421875 31.6875 
L 55.421875 0 
L 47.21875 0 
L 47.21875 31.296875 
Q 47.21875 42.875 45.921875 45.671875 
Q 44.625 48.484375 41.21875 48.484375 
Q 37.3125 48.484375 35.859375 45.484375 
Q 34.421875 42.484375 34.421875 31.296875 
L 34.421875 0 
L 26.21875 0 
L 26.21875 31.296875 
Q 26.21875 43.015625 24.828125 45.75 
Q 23.4375 48.484375 19.828125 48.484375 
Q 16.265625 48.484375 14.875 45.484375 
Q 13.484375 42.484375 13.484375 31.296875 
L 13.484375 0 
L 5.328125 0 
L 5.328125 54.6875 
L 13.484375 54.6875 
L 13.484375 50 
Q 15.09375 52.9375 17.5 54.46875 
Q 19.921875 56 23 56 
Q 26.703125 56 29.171875 54.296875 
Q 31.640625 52.59375 33.015625 49.125 
z
" id="DejaVuSansMono-109"/>
     </defs>
     <use xlink:href="#DejaVuSansMono-34"/>
     <use x="60.205078" xlink:href="#DejaVuSansMono-51"/>
     <use x="120.410156" xlink:href="#DejaVuSansMono-121"/>
     <use x="180.615234" xlink:href="#DejaVuSansMono-43"/>
     <use x="240.820312" xlink:href="#DejaVuSansMono-49"/>
     <use x="301.025391" xlink:href="#DejaVuSansMono-34"/>
     <use x="361.230469" xlink:href="#DejaVuSansMono-32"/>
     <use x="421.435547" xlink:href="#DejaVuSansMono-112"/>
     <use x="481.640625" xlink:href="#DejaVuSansMono-114"/>
     <use x="541.845703" xlink:href="#DejaVuSansMono-111"/>
     <use x="602.050781" xlink:href="#DejaVuSansMono-98"/>
     <use x="662.255859" xlink:href="#DejaVuSansMono-108"/>
     <use x="722.460938" xlink:href="#DejaVuSansMono-101"/>
     <use x="782.666016" xlink:href="#DejaVuSansMono-109"/>
    </g>
   </g>
   <g id="legend_1">
    <g id="patch_7">
     <path d="M 327.012067 82.0095 
L 447.353317 82.0095 
Q 448.553317 82.0095 448.553317 80.8095 
L 448.553317 22.189125 
Q 448.553317 20.989125 447.353317 20.989125 
L 327.012067 20.989125 
Q 325.812067 20.989125 325.812067 22.189125 
L 325.812067 80.8095 
Q 325.812067 82.0095 327.012067 82.0095 
z
" style="fill:#ffffff;opacity:0.8;stroke:#cccccc;stroke-linejoin:miter;"/>
    </g>
    <g id="line2d_15">
     <path d="M 328.212067 36.889687 
L 340.212067 36.889687 
" style="fill:none;stroke:#1f77b4;stroke-linecap:square;stroke-width:0.666667;"/>
    </g>
    <g id="line2d_16"/>
    <g id="text_16">
     <!-- "Tallest": -->
     <g transform="translate(345.012067 27.980062)scale(0.06 -0.06)">
      <defs>
       <path d="M 2.296875 72.90625 
L 57.90625 72.90625 
L 57.90625 64.59375 
L 35.109375 64.59375 
L 35.109375 0 
L 25.203125 0 
L 25.203125 64.59375 
L 2.296875 64.59375 
z
" id="DejaVuSansMono-84"/>
       <path d="M 34.28125 27.484375 
L 31.296875 27.484375 
Q 23.4375 27.484375 19.453125 24.71875 
Q 15.484375 21.96875 15.484375 16.5 
Q 15.484375 11.578125 18.453125 8.84375 
Q 21.4375 6.109375 26.703125 6.109375 
Q 34.125 6.109375 38.375 11.25 
Q 42.625 16.40625 42.671875 25.484375 
L 42.671875 27.484375 
z
M 51.703125 31.203125 
L 51.703125 0 
L 42.671875 0 
L 42.671875 8.109375 
Q 39.796875 3.21875 35.421875 0.890625 
Q 31.0625 -1.421875 24.8125 -1.421875 
Q 16.453125 -1.421875 11.46875 3.296875 
Q 6.5 8.015625 6.5 15.921875 
Q 6.5 25.046875 12.625 29.78125 
Q 18.75 34.515625 30.609375 34.515625 
L 42.671875 34.515625 
L 42.671875 35.9375 
Q 42.625 42.484375 39.34375 45.4375 
Q 36.078125 48.390625 28.90625 48.390625 
Q 24.3125 48.390625 19.625 47.0625 
Q 14.9375 45.75 10.5 43.21875 
L 10.5 52.203125 
Q 15.484375 54.109375 20.046875 55.046875 
Q 24.609375 56 28.90625 56 
Q 35.6875 56 40.5 54 
Q 45.3125 52 48.296875 48 
Q 50.140625 45.5625 50.921875 41.96875 
Q 51.703125 38.375 51.703125 31.203125 
z
" id="DejaVuSansMono-97"/>
       <path d="M 47.515625 52.78125 
L 47.515625 44 
Q 43.65625 46.234375 39.75 47.359375 
Q 35.84375 48.484375 31.78125 48.484375 
Q 25.6875 48.484375 22.671875 46.5 
Q 19.671875 44.53125 19.671875 40.484375 
Q 19.671875 36.8125 21.921875 35 
Q 24.171875 33.203125 33.109375 31.5 
L 36.71875 30.8125 
Q 43.40625 29.546875 46.84375 25.734375 
Q 50.296875 21.921875 50.296875 15.828125 
Q 50.296875 7.71875 44.53125 3.140625 
Q 38.765625 -1.421875 28.515625 -1.421875 
Q 24.46875 -1.421875 20.015625 -0.5625 
Q 15.578125 0.296875 10.40625 2 
L 10.40625 11.28125 
Q 15.4375 8.6875 20.015625 7.390625 
Q 24.609375 6.109375 28.71875 6.109375 
Q 34.671875 6.109375 37.9375 8.515625 
Q 41.21875 10.9375 41.21875 15.28125 
Q 41.21875 21.53125 29.25 23.921875 
L 28.859375 24.03125 
L 25.484375 24.703125 
Q 17.71875 26.21875 14.15625 29.8125 
Q 10.59375 33.40625 10.59375 39.59375 
Q 10.59375 47.46875 15.90625 51.734375 
Q 21.234375 56 31.109375 56 
Q 35.5 56 39.546875 55.1875 
Q 43.609375 54.390625 47.515625 52.78125 
z
" id="DejaVuSansMono-115"/>
       <path d="M 29.984375 70.21875 
L 29.984375 54.6875 
L 50.390625 54.6875 
L 50.390625 47.703125 
L 29.984375 47.703125 
L 29.984375 18.015625 
Q 29.984375 11.96875 32.28125 9.5625 
Q 34.578125 7.171875 40.28125 7.171875 
L 50.390625 7.171875 
L 50.390625 0 
L 39.40625 0 
Q 29.296875 0 25.140625 4.046875 
Q 21 8.109375 21 18.015625 
L 21 47.703125 
L 6.390625 47.703125 
L 6.390625 54.6875 
L 21 54.6875 
L 21 70.21875 
z
" id="DejaVuSansMono-116"/>
       <path d="M 23.875 51.90625 
L 36.1875 51.90625 
L 36.1875 37.109375 
L 23.875 37.109375 
z
M 23.875 14.890625 
L 36.1875 14.890625 
L 36.1875 0 
L 23.875 0 
z
" id="DejaVuSansMono-58"/>
      </defs>
      <use xlink:href="#DejaVuSansMono-34"/>
      <use x="60.205078" xlink:href="#DejaVuSansMono-84"/>
      <use x="120.410156" xlink:href="#DejaVuSansMono-97"/>
      <use x="180.615234" xlink:href="#DejaVuSansMono-108"/>
      <use x="240.820312" xlink:href="#DejaVuSansMono-108"/>
      <use x="301.025391" xlink:href="#DejaVuSansMono-101"/>
      <use x="361.230469" xlink:href="#DejaVuSansMono-115"/>
      <use x="421.435547" xlink:href="#DejaVuSansMono-116"/>
      <use x="481.640625" xlink:href="#DejaVuSansMono-34"/>
      <use x="541.845703" xlink:href="#DejaVuSansMono-58"/>
     </g>
     <!-- y_0    = 319804831 -->
     <g transform="translate(345.012067 34.737)scale(0.06 -0.06)">
      <defs>
       <path d="M 4.296875 25.59375 
L 55.90625 25.59375 
L 55.90625 17.1875 
L 4.296875 17.1875 
z
M 4.296875 45.40625 
L 55.90625 45.40625 
L 55.90625 37.109375 
L 4.296875 37.109375 
z
" id="DejaVuSansMono-61"/>
       <path d="M 29.109375 32.328125 
Q 35.40625 32.328125 38.984375 36.859375 
Q 42.578125 41.40625 42.578125 49.421875 
Q 42.578125 57.421875 38.984375 61.953125 
Q 35.40625 66.5 29.109375 66.5 
Q 22.5625 66.5 19.234375 62.171875 
Q 15.921875 57.859375 15.921875 49.421875 
Q 15.921875 40.921875 19.21875 36.625 
Q 22.515625 32.328125 29.109375 32.328125 
z
M 11.53125 1.515625 
L 11.53125 10.59375 
Q 14.59375 8.796875 18.0625 7.84375 
Q 21.53125 6.890625 25.296875 6.890625 
Q 34.671875 6.890625 39.46875 13.9375 
Q 44.28125 21 44.28125 34.71875 
Q 42 29.828125 37.84375 27.21875 
Q 33.6875 24.609375 28.328125 24.609375 
Q 17.78125 24.609375 11.984375 31.09375 
Q 6.203125 37.59375 6.203125 49.515625 
Q 6.203125 61.28125 12.125 67.75 
Q 18.0625 74.21875 28.90625 74.21875 
Q 41.609375 74.21875 47.515625 65.078125 
Q 53.421875 55.953125 53.421875 36.375 
Q 53.421875 17.96875 46.3125 8.265625 
Q 39.203125 -1.421875 25.6875 -1.421875 
Q 22.125 -1.421875 18.5 -0.65625 
Q 14.890625 0.09375 11.53125 1.515625 
z
" id="DejaVuSansMono-57"/>
      </defs>
      <use xlink:href="#DejaVuSansMono-121"/>
      <use x="60.205078" xlink:href="#DejaVuSansMono-95"/>
      <use x="120.410156" xlink:href="#DejaVuSansMono-48"/>
      <use x="180.615234" xlink:href="#DejaVuSansMono-32"/>
      <use x="240.820312" xlink:href="#DejaVuSansMono-32"/>
      <use x="301.025391" xlink:href="#DejaVuSansMono-32"/>
      <use x="361.230469" xlink:href="#DejaVuSansMono-32"/>
      <use x="421.435547" xlink:href="#DejaVuSansMono-61"/>
      <use x="481.640625" xlink:href="#DejaVuSansMono-32"/>
      <use x="541.845703" xlink:href="#DejaVuSansMono-51"/>
      <use x="602.050781" xlink:href="#DejaVuSansMono-49"/>
      <use x="662.255859" xlink:href="#DejaVuSansMono-57"/>
      <use x="722.460938" xlink:href="#DejaVuSansMono-56"/>
      <use x="782.666016" xlink:href="#DejaVuSansMono-48"/>
      <use x="842.871094" xlink:href="#DejaVuSansMono-52"/>
      <use x="903.076172" xlink:href="#DejaVuSansMono-56"/>
      <use x="963.28125" xlink:href="#DejaVuSansMono-51"/>
      <use x="1023.486328" xlink:href="#DejaVuSansMono-49"/>
     </g>
     <!-- y_max  = 1414236446719942480 -->
     <g transform="translate(345.012067 41.660812)scale(0.06 -0.06)">
      <defs>
       <path d="M 54.59375 54.6875 
L 35.015625 28.515625 
L 56.5 0 
L 46.09375 0 
L 30.078125 21.921875 
L 14.109375 0 
L 3.71875 0 
L 25.203125 28.515625 
L 5.609375 54.6875 
L 15.578125 54.6875 
L 30.078125 34.90625 
L 44.484375 54.6875 
z
" id="DejaVuSansMono-120"/>
      </defs>
      <use xlink:href="#DejaVuSansMono-121"/>
      <use x="60.205078" xlink:href="#DejaVuSansMono-95"/>
      <use x="120.410156" xlink:href="#DejaVuSansMono-109"/>
      <use x="180.615234" xlink:href="#DejaVuSansMono-97"/>
      <use x="240.820312" xlink:href="#DejaVuSansMono-120"/>
      <use x="301.025391" xlink:href="#DejaVuSansMono-32"/>
      <use x="361.230469" xlink:href="#DejaVuSansMono-32"/>
      <use x="421.435547" xlink:href="#DejaVuSansMono-61"/>
      <use x="481.640625" xlink:href="#DejaVuSansMono-32"/>
      <use x="541.845703" xlink:href="#DejaVuSansMono-49"/>
      <use x="602.050781" xlink:href="#DejaVuSansMono-52"/>
      <use x="662.255859" xlink:href="#DejaVuSansMono-49"/>
      <use x="722.460938" xlink:href="#DejaVuSansMono-52"/>
      <use x="782.666016" xlink:href="#DejaVuSansMono-50"/>
      <use x="842.871094" xlink:href="#DejaVuSansMono-51"/>
      <use x="903.076172" xlink:href="#DejaVuSansMono-54"/>
      <use x="963.28125" xlink:href="#DejaVuSansMono-52"/>
      <use x="1023.486328" xlink:href="#DejaVuSansMono-52"/>
      <use x="1083.691406" xlink:href="#DejaVuSansMono-54"/>
      <use x="1143.896484" xlink:href="#DejaVuSansMono-55"/>
      <use x="1204.101562" xlink:href="#DejaVuSansMono-49"/>
      <use x="1264.306641" xlink:href="#DejaVuSansMono-57"/>
      <use x="1324.511719" xlink:href="#DejaVuSansMono-57"/>
      <use x="1384.716797" xlink:href="#DejaVuSansMono-52"/>
      <use x="1444.921875" xlink:href="#DejaVuSansMono-50"/>
      <use x="1505.126953" xlink:href="#DejaVuSansMono-52"/>
      <use x="1565.332031" xlink:href="#DejaVuSansMono-56"/>
      <use x="1625.537109" xlink:href="#DejaVuSansMono-48"/>
     </g>
     <!-- x_max  = 593 -->
     <g transform="translate(345.012067 48.584625)scale(0.06 -0.06)">
      <use xlink:href="#DejaVuSansMono-120"/>
      <use x="60.205078" xlink:href="#DejaVuSansMono-95"/>
      <use x="120.410156" xlink:href="#DejaVuSansMono-109"/>
      <use x="180.615234" xlink:href="#DejaVuSansMono-97"/>
      <use x="240.820312" xlink:href="#DejaVuSansMono-120"/>
      <use x="301.025391" xlink:href="#DejaVuSansMono-32"/>
      <use x="361.230469" xlink:href="#DejaVuSansMono-32"/>
      <use x="421.435547" xlink:href="#DejaVuSansMono-61"/>
      <use x="481.640625" xlink:href="#DejaVuSansMono-32"/>
      <use x="541.845703" xlink:href="#DejaVuSansMono-53"/>
      <use x="602.050781" xlink:href="#DejaVuSansMono-57"/>
      <use x="662.255859" xlink:href="#DejaVuSansMono-51"/>
     </g>
    </g>
    <g id="line2d_17">
     <path d="M 328.212067 66.499875 
L 340.212067 66.499875 
" style="fill:none;stroke:#ff7f0e;stroke-linecap:square;stroke-width:0.666667;"/>
    </g>
    <g id="line2d_18"/>
    <g id="text_17">
     <!-- "Widest":  -->
     <g transform="translate(345.012067 57.59025)scale(0.06 -0.06)">
      <defs>
       <path d="M 0 72.90625 
L 9.625 72.90625 
L 16.609375 13.71875 
L 24.90625 52.875 
L 35.203125 52.875 
L 43.609375 13.625 
L 50.59375 72.90625 
L 60.203125 72.90625 
L 49.3125 0 
L 39.984375 0 
L 30.078125 43.3125 
L 20.21875 0 
L 10.890625 0 
z
" id="DejaVuSansMono-87"/>
       <path d="M 12.5 54.6875 
L 35.5 54.6875 
L 35.5 6.984375 
L 53.328125 6.984375 
L 53.328125 0 
L 8.6875 0 
L 8.6875 6.984375 
L 26.515625 6.984375 
L 26.515625 47.703125 
L 12.5 47.703125 
z
M 26.515625 75.984375 
L 35.5 75.984375 
L 35.5 64.59375 
L 26.515625 64.59375 
z
" id="DejaVuSansMono-105"/>
       <path d="M 41.890625 47.703125 
L 41.890625 75.984375 
L 50.875 75.984375 
L 50.875 0 
L 41.890625 0 
L 41.890625 6.890625 
Q 39.65625 2.828125 35.90625 0.703125 
Q 32.171875 -1.421875 27.296875 -1.421875 
Q 17.390625 -1.421875 11.6875 6.265625 
Q 6 13.96875 6 27.484375 
Q 6 40.828125 11.71875 48.40625 
Q 17.4375 56 27.296875 56 
Q 32.234375 56 35.984375 53.875 
Q 39.75 51.765625 41.890625 47.703125 
z
M 15.484375 27.296875 
Q 15.484375 16.84375 18.796875 11.515625 
Q 22.125 6.203125 28.609375 6.203125 
Q 35.109375 6.203125 38.5 11.5625 
Q 41.890625 16.9375 41.890625 27.296875 
Q 41.890625 37.703125 38.5 43.046875 
Q 35.109375 48.390625 28.609375 48.390625 
Q 22.125 48.390625 18.796875 43.0625 
Q 15.484375 37.75 15.484375 27.296875 
z
" id="DejaVuSansMono-100"/>
      </defs>
      <use xlink:href="#DejaVuSansMono-34"/>
      <use x="60.205078" xlink:href="#DejaVuSansMono-87"/>
      <use x="120.410156" xlink:href="#DejaVuSansMono-105"/>
      <use x="180.615234" xlink:href="#DejaVuSansMono-100"/>
      <use x="240.820312" xlink:href="#DejaVuSansMono-101"/>
      <use x="301.025391" xlink:href="#DejaVuSansMono-115"/>
      <use x="361.230469" xlink:href="#DejaVuSansMono-116"/>
      <use x="421.435547" xlink:href="#DejaVuSansMono-34"/>
      <use x="481.640625" xlink:href="#DejaVuSansMono-58"/>
      <use x="541.845703" xlink:href="#DejaVuSansMono-32"/>
     </g>
     <!-- y_0    = 537099606 -->
     <g transform="translate(345.012067 64.347187)scale(0.06 -0.06)">
      <use xlink:href="#DejaVuSansMono-121"/>
      <use x="60.205078" xlink:href="#DejaVuSansMono-95"/>
      <use x="120.410156" xlink:href="#DejaVuSansMono-48"/>
      <use x="180.615234" xlink:href="#DejaVuSansMono-32"/>
      <use x="240.820312" xlink:href="#DejaVuSansMono-32"/>
      <use x="301.025391" xlink:href="#DejaVuSansMono-32"/>
      <use x="361.230469" xlink:href="#DejaVuSansMono-32"/>
      <use x="421.435547" xlink:href="#DejaVuSansMono-61"/>
      <use x="481.640625" xlink:href="#DejaVuSansMono-32"/>
      <use x="541.845703" xlink:href="#DejaVuSansMono-53"/>
      <use x="602.050781" xlink:href="#DejaVuSansMono-51"/>
      <use x="662.255859" xlink:href="#DejaVuSansMono-55"/>
      <use x="722.460938" xlink:href="#DejaVuSansMono-48"/>
      <use x="782.666016" xlink:href="#DejaVuSansMono-57"/>
      <use x="842.871094" xlink:href="#DejaVuSansMono-57"/>
      <use x="903.076172" xlink:href="#DejaVuSansMono-54"/>
      <use x="963.28125" xlink:href="#DejaVuSansMono-48"/>
      <use x="1023.486328" xlink:href="#DejaVuSansMono-54"/>
     </g>
     <!-- y_max  = 966616035460 -->
     <g transform="translate(345.012067 71.271)scale(0.06 -0.06)">
      <use xlink:href="#DejaVuSansMono-121"/>
      <use x="60.205078" xlink:href="#DejaVuSansMono-95"/>
      <use x="120.410156" xlink:href="#DejaVuSansMono-109"/>
      <use x="180.615234" xlink:href="#DejaVuSansMono-97"/>
      <use x="240.820312" xlink:href="#DejaVuSansMono-120"/>
      <use x="301.025391" xlink:href="#DejaVuSansMono-32"/>
      <use x="361.230469" xlink:href="#DejaVuSansMono-32"/>
      <use x="421.435547" xlink:href="#DejaVuSansMono-61"/>
      <use x="481.640625" xlink:href="#DejaVuSansMono-32"/>
      <use x="541.845703" xlink:href="#DejaVuSansMono-57"/>
      <use x="602.050781" xlink:href="#DejaVuSansMono-54"/>
      <use x="662.255859" xlink:href="#DejaVuSansMono-54"/>
      <use x="722.460938" xlink:href="#DejaVuSansMono-54"/>
      <use x="782.666016" xlink:href="#DejaVuSansMono-49"/>
      <use x="842.871094" xlink:href="#DejaVuSansMono-54"/>
      <use x="903.076172" xlink:href="#DejaVuSansMono-48"/>
      <use x="963.28125" xlink:href="#DejaVuSansMono-51"/>
      <use x="1023.486328" xlink:href="#DejaVuSansMono-53"/>
      <use x="1083.691406" xlink:href="#DejaVuSansMono-52"/>
      <use x="1143.896484" xlink:href="#DejaVuSansMono-54"/>
      <use x="1204.101562" xlink:href="#DejaVuSansMono-48"/>
     </g>
     <!-- x_max  = 966 -->
     <g transform="translate(345.012067 78.194812)scale(0.06 -0.06)">
      <use xlink:href="#DejaVuSansMono-120"/>
      <use x="60.205078" xlink:href="#DejaVuSansMono-95"/>
      <use x="120.410156" xlink:href="#DejaVuSansMono-109"/>
      <use x="180.615234" xlink:href="#DejaVuSansMono-97"/>
      <use x="240.820312" xlink:href="#DejaVuSansMono-120"/>
      <use x="301.025391" xlink:href="#DejaVuSansMono-32"/>
      <use x="361.230469" xlink:href="#DejaVuSansMono-32"/>
      <use x="421.435547" xlink:href="#DejaVuSansMono-61"/>
      <use x="481.640625" xlink:href="#DejaVuSansMono-32"/>
      <use x="541.845703" xlink:href="#DejaVuSansMono-57"/>
      <use x="602.050781" xlink:href="#DejaVuSansMono-54"/>
      <use x="662.255859" xlink:href="#DejaVuSansMono-54"/>
     </g>
    </g>
   </g>
  </g>
 </g>
 <defs>
  <clipPath id="p4aac15e105">
   <rect height="298.453375" width="415.694567" x="35.85875" y="17.989125"/>
  </clipPath>
 </defs>
</svg>
