<?xml version="1.0" encoding="utf-8" standalone="no"?>
<!DOCTYPE svg PUBLIC "-//W3C//DTD SVG 1.1//EN"
  "http://www.w3.org/Graphics/SVG/1.1/DTD/svg11.dtd">
<!-- Created with matplotlib (https://matplotlib.org/) -->
<svg height="345.6pt" version="1.1" viewBox="0 0 460.8 345.6" width="460.8pt" xmlns="http://www.w3.org/2000/svg" xmlns:xlink="http://www.w3.org/1999/xlink">
 <metadata>
  <rdf:RDF xmlns:cc="http://creativecommons.org/ns#" xmlns:dc="http://purl.org/dc/elements/1.1/" xmlns:rdf="http://www.w3.org/1999/02/22-rdf-syntax-ns#">
   <cc:Work>
    <dc:type rdf:resource="http://purl.org/dc/dcmitype/StillImage"/>
    <dc:date>2022-03-17T00:28:54.319892</dc:date>
    <dc:format>image/svg+xml</dc:format>
    <dc:creator>
     <cc:Agent>
      <dc:title>Matplotlib v3.3.2, https://matplotlib.org/</dc:title>
     </cc:Agent>
    </dc:creator>
   </cc:Work>
  </rdf:RDF>
 </metadata>
 <defs>
  <style type="text/css">*{stroke-linecap:butt;stroke-linejoin:round;}</style>
 </defs>
 <g id="figure_1">
  <g id="patch_1">
   <path d="M 0 345.6 
L 460.8 345.6 
L 460.8 0 
L 0 0 
z
" style="fill:#ffffff;"/>
  </g>
  <g id="axes_1">
   <g id="patch_2">
    <path d="M 35.85875 316.4425 
L 454.32 316.4425 
L 454.32 17.989125 
L 35.85875 17.989125 
z
" style="fill:#ffffff;"/>
   </g>
   <g id="matplotlib.axis_1">
    <g id="xtick_1">
     <g id="line2d_1">
      <defs>
       <path d="M 0 0 
L 0 3.5 
" id="m406e6c09ab" style="stroke:#000000;stroke-width:0.8;"/>
      </defs>
      <g>
       <use style="stroke:#000000;stroke-width:0.8;" x="54.879716" xlink:href="#m406e6c09ab" y="316.4425"/>
      </g>
     </g>
     <g id="text_1">
      <!-- 0 -->
      <g transform="translate(53.073622 328.033437)scale(0.06 -0.06)">
       <defs>
        <path d="M 23.578125 36.625 
Q 23.578125 39.3125 25.453125 41.265625 
Q 27.34375 43.21875 29.984375 43.21875 
Q 32.71875 43.21875 34.671875 41.265625 
Q 36.625 39.3125 36.625 36.625 
Q 36.625 33.890625 34.6875 31.984375 
Q 32.765625 30.078125 29.984375 30.078125 
Q 27.25 30.078125 25.40625 31.9375 
Q 23.578125 33.796875 23.578125 36.625 
z
M 30.078125 66.40625 
Q 23.1875 66.40625 19.796875 58.984375 
Q 16.40625 51.5625 16.40625 36.375 
Q 16.40625 21.234375 19.796875 13.8125 
Q 23.1875 6.390625 30.078125 6.390625 
Q 37.015625 6.390625 40.40625 13.8125 
Q 43.796875 21.234375 43.796875 36.375 
Q 43.796875 51.5625 40.40625 58.984375 
Q 37.015625 66.40625 30.078125 66.40625 
z
M 30.078125 74.21875 
Q 41.75 74.21875 47.734375 64.640625 
Q 53.71875 55.078125 53.71875 36.375 
Q 53.71875 17.71875 47.734375 8.140625 
Q 41.75 -1.421875 30.078125 -1.421875 
Q 18.40625 -1.421875 12.453125 8.140625 
Q 6.5 17.71875 6.5 36.375 
Q 6.5 55.078125 12.453125 64.640625 
Q 18.40625 74.21875 30.078125 74.21875 
z
" id="DejaVuSansMono-48"/>
       </defs>
       <use xlink:href="#DejaVuSansMono-48"/>
      </g>
     </g>
    </g>
    <g id="xtick_2">
     <g id="line2d_2">
      <g>
       <use style="stroke:#000000;stroke-width:0.8;" x="118.708461" xlink:href="#m406e6c09ab" y="316.4425"/>
      </g>
     </g>
     <g id="text_2">
      <!-- 100 -->
      <g transform="translate(113.290179 328.033437)scale(0.06 -0.06)">
       <defs>
        <path d="M 13.1875 8.296875 
L 28.515625 8.296875 
L 28.515625 64.015625 
L 12.015625 60.296875 
L 12.015625 69.28125 
L 28.421875 72.90625 
L 38.28125 72.90625 
L 38.28125 8.296875 
L 53.421875 8.296875 
L 53.421875 0 
L 13.1875 0 
z
" id="DejaVuSansMono-49"/>
       </defs>
       <use xlink:href="#DejaVuSansMono-49"/>
       <use x="60.205078" xlink:href="#DejaVuSansMono-48"/>
       <use x="120.410156" xlink:href="#DejaVuSansMono-48"/>
      </g>
     </g>
    </g>
    <g id="xtick_3">
     <g id="line2d_3">
      <g>
       <use style="stroke:#000000;stroke-width:0.8;" x="182.537205" xlink:href="#m406e6c09ab" y="316.4425"/>
      </g>
     </g>
     <g id="text_3">
      <!-- 200 -->
      <g transform="translate(177.118924 328.033437)scale(0.06 -0.06)">
       <defs>
        <path d="M 18.21875 8.296875 
L 51.703125 8.296875 
L 51.703125 0 
L 7.421875 0 
L 7.421875 8.296875 
Q 16.546875 17.921875 23.375 25.296875 
Q 30.21875 32.671875 32.8125 35.6875 
Q 37.703125 41.65625 39.40625 45.34375 
Q 41.109375 49.03125 41.109375 52.875 
Q 41.109375 58.984375 37.515625 62.453125 
Q 33.9375 65.921875 27.6875 65.921875 
Q 23.25 65.921875 18.359375 64.3125 
Q 13.484375 62.703125 8.015625 59.421875 
L 8.015625 69.390625 
Q 13.03125 71.78125 17.890625 73 
Q 22.75 74.21875 27.484375 74.21875 
Q 38.1875 74.21875 44.703125 68.53125 
Q 51.21875 62.84375 51.21875 53.609375 
Q 51.21875 48.921875 49.046875 44.234375 
Q 46.875 39.546875 42 33.890625 
Q 39.265625 30.71875 34.0625 25.09375 
Q 28.859375 19.484375 18.21875 8.296875 
z
" id="DejaVuSansMono-50"/>
       </defs>
       <use xlink:href="#DejaVuSansMono-50"/>
       <use x="60.205078" xlink:href="#DejaVuSansMono-48"/>
       <use x="120.410156" xlink:href="#DejaVuSansMono-48"/>
      </g>
     </g>
    </g>
    <g id="xtick_4">
     <g id="line2d_4">
      <g>
       <use style="stroke:#000000;stroke-width:0.8;" x="246.36595" xlink:href="#m406e6c09ab" y="316.4425"/>
      </g>
     </g>
     <g id="text_4">
      <!-- 300 -->
      <g transform="translate(240.947669 328.033437)scale(0.06 -0.06)">
       <defs>
        <path d="M 37.890625 39.015625 
Q 45.0625 37.109375 48.875 32.25 
Q 52.6875 27.390625 52.6875 20.125 
Q 52.6875 10.0625 45.921875 4.3125 
Q 39.15625 -1.421875 27.203125 -1.421875 
Q 22.171875 -1.421875 16.9375 -0.484375 
Q 11.71875 0.4375 6.6875 2.203125 
L 6.6875 12.015625 
Q 11.671875 9.421875 16.5 8.15625 
Q 21.34375 6.890625 26.125 6.890625 
Q 34.234375 6.890625 38.578125 10.546875 
Q 42.921875 14.203125 42.921875 21.09375 
Q 42.921875 27.4375 38.578125 31.171875 
Q 34.234375 34.90625 26.8125 34.90625 
L 19.28125 34.90625 
L 19.28125 43.015625 
L 26.8125 43.015625 
Q 33.59375 43.015625 37.40625 45.984375 
Q 41.21875 48.96875 41.21875 54.296875 
Q 41.21875 59.90625 37.671875 62.90625 
Q 34.125 65.921875 27.59375 65.921875 
Q 23.25 65.921875 18.609375 64.9375 
Q 13.96875 63.96875 8.890625 62.015625 
L 8.890625 71.09375 
Q 14.796875 72.65625 19.40625 73.4375 
Q 24.03125 74.21875 27.59375 74.21875 
Q 38.234375 74.21875 44.609375 68.875 
Q 50.984375 63.53125 50.984375 54.6875 
Q 50.984375 48.6875 47.625 44.671875 
Q 44.28125 40.671875 37.890625 39.015625 
z
" id="DejaVuSansMono-51"/>
       </defs>
       <use xlink:href="#DejaVuSansMono-51"/>
       <use x="60.205078" xlink:href="#DejaVuSansMono-48"/>
       <use x="120.410156" xlink:href="#DejaVuSansMono-48"/>
      </g>
     </g>
    </g>
    <g id="xtick_5">
     <g id="line2d_5">
      <g>
       <use style="stroke:#000000;stroke-width:0.8;" x="310.194695" xlink:href="#m406e6c09ab" y="316.4425"/>
      </g>
     </g>
     <g id="text_5">
      <!-- 400 -->
      <g transform="translate(304.776413 328.033437)scale(0.06 -0.06)">
       <defs>
        <path d="M 35.890625 63.921875 
L 12.890625 25.390625 
L 35.890625 25.390625 
z
M 34.28125 72.90625 
L 45.703125 72.90625 
L 45.703125 25.390625 
L 55.421875 25.390625 
L 55.421875 17.390625 
L 45.703125 17.390625 
L 45.703125 0 
L 35.890625 0 
L 35.890625 17.390625 
L 4.984375 17.390625 
L 4.984375 26.703125 
z
" id="DejaVuSansMono-52"/>
       </defs>
       <use xlink:href="#DejaVuSansMono-52"/>
       <use x="60.205078" xlink:href="#DejaVuSansMono-48"/>
       <use x="120.410156" xlink:href="#DejaVuSansMono-48"/>
      </g>
     </g>
    </g>
    <g id="xtick_6">
     <g id="line2d_6">
      <g>
       <use style="stroke:#000000;stroke-width:0.8;" x="374.023439" xlink:href="#m406e6c09ab" y="316.4425"/>
      </g>
     </g>
     <g id="text_6">
      <!-- 500 -->
      <g transform="translate(368.605158 328.033437)scale(0.06 -0.06)">
       <defs>
        <path d="M 10.109375 72.90625 
L 47.015625 72.90625 
L 47.015625 64.59375 
L 19.09375 64.59375 
L 19.09375 46.6875 
Q 21.1875 47.46875 23.3125 47.828125 
Q 25.4375 48.1875 27.59375 48.1875 
Q 38.921875 48.1875 45.5625 41.5 
Q 52.203125 34.8125 52.203125 23.390625 
Q 52.203125 11.859375 45.234375 5.21875 
Q 38.28125 -1.421875 26.21875 -1.421875 
Q 20.40625 -1.421875 15.59375 -0.640625 
Q 10.796875 0.140625 6.984375 1.703125 
L 6.984375 11.71875 
Q 11.46875 9.28125 16.015625 8.078125 
Q 20.5625 6.890625 25.296875 6.890625 
Q 33.453125 6.890625 37.859375 11.1875 
Q 42.28125 15.484375 42.28125 23.390625 
Q 42.28125 31.203125 37.71875 35.546875 
Q 33.15625 39.890625 25 39.890625 
Q 21.046875 39.890625 17.28125 38.984375 
Q 13.53125 38.09375 10.109375 36.28125 
z
" id="DejaVuSansMono-53"/>
       </defs>
       <use xlink:href="#DejaVuSansMono-53"/>
       <use x="60.205078" xlink:href="#DejaVuSansMono-48"/>
       <use x="120.410156" xlink:href="#DejaVuSansMono-48"/>
      </g>
     </g>
    </g>
    <g id="xtick_7">
     <g id="line2d_7">
      <g>
       <use style="stroke:#000000;stroke-width:0.8;" x="437.852184" xlink:href="#m406e6c09ab" y="316.4425"/>
      </g>
     </g>
     <g id="text_7">
      <!-- 600 -->
      <g transform="translate(432.433903 328.033437)scale(0.06 -0.06)">
       <defs>
        <path d="M 48.390625 71.296875 
L 48.390625 62.203125 
Q 45.3125 64.015625 41.84375 64.96875 
Q 38.375 65.921875 34.625 65.921875 
Q 25.25 65.921875 20.40625 58.859375 
Q 15.578125 51.8125 15.578125 38.09375 
Q 17.921875 42.96875 22.0625 45.578125 
Q 26.21875 48.1875 31.59375 48.1875 
Q 42.140625 48.1875 47.921875 41.71875 
Q 53.71875 35.25 53.71875 23.390625 
Q 53.71875 11.578125 47.75 5.078125 
Q 41.796875 -1.421875 31 -1.421875 
Q 18.3125 -1.421875 12.40625 7.6875 
Q 6.5 16.796875 6.5 36.375 
Q 6.5 54.828125 13.59375 64.515625 
Q 20.703125 74.21875 34.1875 74.21875 
Q 37.796875 74.21875 41.40625 73.453125 
Q 45.015625 72.703125 48.390625 71.296875 
z
M 30.8125 40.484375 
Q 24.515625 40.484375 20.890625 35.9375 
Q 17.28125 31.390625 17.28125 23.390625 
Q 17.28125 15.375 20.890625 10.828125 
Q 24.515625 6.296875 30.8125 6.296875 
Q 37.359375 6.296875 40.671875 10.609375 
Q 44 14.9375 44 23.390625 
Q 44 31.890625 40.671875 36.1875 
Q 37.359375 40.484375 30.8125 40.484375 
z
" id="DejaVuSansMono-54"/>
       </defs>
       <use xlink:href="#DejaVuSansMono-54"/>
       <use x="60.205078" xlink:href="#DejaVuSansMono-48"/>
       <use x="120.410156" xlink:href="#DejaVuSansMono-48"/>
      </g>
     </g>
    </g>
    <g id="text_8">
     <!-- n -->
     <g transform="translate(243.283281 337.872187)scale(0.06 -0.06)">
      <defs>
       <path d="M 51.3125 33.890625 
L 51.3125 0 
L 42.28125 0 
L 42.28125 33.890625 
Q 42.28125 41.265625 39.6875 44.71875 
Q 37.109375 48.1875 31.59375 48.1875 
Q 25.296875 48.1875 21.890625 43.71875 
Q 18.5 39.265625 18.5 30.90625 
L 18.5 0 
L 9.515625 0 
L 9.515625 54.6875 
L 18.5 54.6875 
L 18.5 46.484375 
Q 20.90625 51.171875 25 53.578125 
Q 29.109375 56 34.71875 56 
Q 43.0625 56 47.1875 50.5 
Q 51.3125 45.015625 51.3125 33.890625 
z
" id="DejaVuSansMono-110"/>
      </defs>
      <use xlink:href="#DejaVuSansMono-110"/>
     </g>
    </g>
   </g>
   <g id="matplotlib.axis_2">
    <g id="ytick_1">
     <g id="line2d_8">
      <defs>
       <path d="M 0 0 
L -3.5 0 
" id="m699bc412ca" style="stroke:#000000;stroke-width:0.8;"/>
      </defs>
      <g>
       <use style="stroke:#000000;stroke-width:0.8;" x="35.85875" xlink:href="#m699bc412ca" y="279.871982"/>
      </g>
     </g>
     <g id="text_9">
      <!-- $\mathdefault{10^{1}}$ -->
      <g transform="translate(18.83875 282.167451)scale(0.06 -0.06)">
       <use transform="translate(0 0.684375)" xlink:href="#DejaVuSansMono-49"/>
       <use transform="translate(60.205078 0.684375)" xlink:href="#DejaVuSansMono-48"/>
       <use transform="translate(121.367188 38.965625)scale(0.7)" xlink:href="#DejaVuSansMono-49"/>
      </g>
     </g>
    </g>
    <g id="ytick_2">
     <g id="line2d_9">
      <g>
       <use style="stroke:#000000;stroke-width:0.8;" x="35.85875" xlink:href="#m699bc412ca" y="233.863071"/>
      </g>
     </g>
     <g id="text_10">
      <!-- $\mathdefault{10^{3}}$ -->
      <g transform="translate(18.83875 236.15854)scale(0.06 -0.06)">
       <use transform="translate(0 0.765625)" xlink:href="#DejaVuSansMono-49"/>
       <use transform="translate(60.205078 0.765625)" xlink:href="#DejaVuSansMono-48"/>
       <use transform="translate(121.367188 39.046875)scale(0.7)" xlink:href="#DejaVuSansMono-51"/>
      </g>
     </g>
    </g>
    <g id="ytick_3">
     <g id="line2d_10">
      <g>
       <use style="stroke:#000000;stroke-width:0.8;" x="35.85875" xlink:href="#m699bc412ca" y="187.85416"/>
      </g>
     </g>
     <g id="text_11">
      <!-- $\mathdefault{10^{5}}$ -->
      <g transform="translate(18.83875 190.149629)scale(0.06 -0.06)">
       <use transform="translate(0 0.684375)" xlink:href="#DejaVuSansMono-49"/>
       <use transform="translate(60.205078 0.684375)" xlink:href="#DejaVuSansMono-48"/>
       <use transform="translate(121.367188 38.965625)scale(0.7)" xlink:href="#DejaVuSansMono-53"/>
      </g>
     </g>
    </g>
    <g id="ytick_4">
     <g id="line2d_11">
      <g>
       <use style="stroke:#000000;stroke-width:0.8;" x="35.85875" xlink:href="#m699bc412ca" y="141.845249"/>
      </g>
     </g>
     <g id="text_12">
      <!-- $\mathdefault{10^{7}}$ -->
      <g transform="translate(18.83875 144.140718)scale(0.06 -0.06)">
       <defs>
        <path d="M 6.78125 72.90625 
L 52.6875 72.90625 
L 52.6875 68.703125 
L 26.609375 0 
L 16.3125 0 
L 41.703125 64.59375 
L 6.78125 64.59375 
z
" id="DejaVuSansMono-55"/>
       </defs>
       <use transform="translate(0 0.684375)" xlink:href="#DejaVuSansMono-49"/>
       <use transform="translate(60.205078 0.684375)" xlink:href="#DejaVuSansMono-48"/>
       <use transform="translate(121.367188 38.965625)scale(0.7)" xlink:href="#DejaVuSansMono-55"/>
      </g>
     </g>
    </g>
    <g id="ytick_5">
     <g id="line2d_12">
      <g>
       <use style="stroke:#000000;stroke-width:0.8;" x="35.85875" xlink:href="#m699bc412ca" y="95.836338"/>
      </g>
     </g>
     <g id="text_13">
      <!-- $\mathdefault{10^{9}}$ -->
      <g transform="translate(18.83875 98.131807)scale(0.06 -0.06)">
       <defs>
        <path d="M 29.109375 32.328125 
Q 35.40625 32.328125 38.984375 36.859375 
Q 42.578125 41.40625 42.578125 49.421875 
Q 42.578125 57.421875 38.984375 61.953125 
Q 35.40625 66.5 29.109375 66.5 
Q 22.5625 66.5 19.234375 62.171875 
Q 15.921875 57.859375 15.921875 49.421875 
Q 15.921875 40.921875 19.21875 36.625 
Q 22.515625 32.328125 29.109375 32.328125 
z
M 11.53125 1.515625 
L 11.53125 10.59375 
Q 14.59375 8.796875 18.0625 7.84375 
Q 21.53125 6.890625 25.296875 6.890625 
Q 34.671875 6.890625 39.46875 13.9375 
Q 44.28125 21 44.28125 34.71875 
Q 42 29.828125 37.84375 27.21875 
Q 33.6875 24.609375 28.328125 24.609375 
Q 17.78125 24.609375 11.984375 31.09375 
Q 6.203125 37.59375 6.203125 49.515625 
Q 6.203125 61.28125 12.125 67.75 
Q 18.0625 74.21875 28.90625 74.21875 
Q 41.609375 74.21875 47.515625 65.078125 
Q 53.421875 55.953125 53.421875 36.375 
Q 53.421875 17.96875 46.3125 8.265625 
Q 39.203125 -1.421875 25.6875 -1.421875 
Q 22.125 -1.421875 18.5 -0.65625 
Q 14.890625 0.09375 11.53125 1.515625 
z
" id="DejaVuSansMono-57"/>
       </defs>
       <use transform="translate(0 0.765625)" xlink:href="#DejaVuSansMono-49"/>
       <use transform="translate(60.205078 0.765625)" xlink:href="#DejaVuSansMono-48"/>
       <use transform="translate(121.367188 39.046875)scale(0.7)" xlink:href="#DejaVuSansMono-57"/>
      </g>
     </g>
    </g>
    <g id="ytick_6">
     <g id="line2d_13">
      <g>
       <use style="stroke:#000000;stroke-width:0.8;" x="35.85875" xlink:href="#m699bc412ca" y="49.827427"/>
      </g>
     </g>
     <g id="text_14">
      <!-- $\mathdefault{10^{11}}$ -->
      <g transform="translate(16.31875 52.122896)scale(0.06 -0.06)">
       <use transform="translate(0 0.684375)" xlink:href="#DejaVuSansMono-49"/>
       <use transform="translate(60.205078 0.684375)" xlink:href="#DejaVuSansMono-48"/>
       <use transform="translate(121.367188 38.965625)scale(0.7)" xlink:href="#DejaVuSansMono-49"/>
       <use transform="translate(163.510742 38.965625)scale(0.7)" xlink:href="#DejaVuSansMono-49"/>
      </g>
     </g>
    </g>
    <g id="text_15">
     <!-- y_n -->
     <g transform="translate(10.904063 172.634094)rotate(-90)scale(0.06 -0.06)">
      <defs>
       <path d="M 41.890625 17.578125 
Q 39.65625 11.859375 36.1875 2.546875 
Q 31.34375 -10.359375 29.6875 -13.1875 
Q 27.4375 -17 24.0625 -18.890625 
Q 20.703125 -20.796875 16.21875 -20.796875 
L 8.984375 -20.796875 
L 8.984375 -13.28125 
L 14.3125 -13.28125 
Q 18.265625 -13.28125 20.5 -10.984375 
Q 22.75 -8.6875 26.21875 0.875 
L 5.078125 54.6875 
L 14.59375 54.6875 
L 30.8125 11.921875 
L 46.78125 54.6875 
L 56.296875 54.6875 
z
" id="DejaVuSansMono-121"/>
       <path d="M 60.203125 -19.671875 
L 60.203125 -23.578125 
L 0 -23.578125 
L 0 -19.671875 
z
" id="DejaVuSansMono-95"/>
      </defs>
      <use xlink:href="#DejaVuSansMono-121"/>
      <use x="60.205078" xlink:href="#DejaVuSansMono-95"/>
      <use x="120.410156" xlink:href="#DejaVuSansMono-110"/>
     </g>
    </g>
   </g>
   <g id="line2d_14">
    <path clip-path="url(#p98dfaef22a)" d="M 54.879716 153.737758 
L 55.518003 142.761842 
L 56.156291 149.686873 
L 56.794578 138.710958 
L 57.432866 145.635989 
L 58.071153 134.660074 
L 59.347728 148.510136 
L 59.986015 137.534221 
L 60.624303 144.459252 
L 61.26259 133.483337 
L 61.900878 140.408368 
L 62.539165 129.432453 
L 63.177453 136.357484 
L 63.81574 125.381569 
L 64.454028 132.3066 
L 65.092315 121.330686 
L 65.730603 128.255717 
L 66.36889 117.279802 
L 67.007177 124.204833 
L 67.645465 113.228918 
L 68.92204 127.078981 
L 69.560327 116.103066 
L 70.198615 123.028097 
L 70.836902 112.052182 
L 71.47519 118.977214 
L 72.113477 108.001299 
L 72.751764 114.92633 
L 73.390052 103.950415 
L 74.028339 110.875446 
L 74.666627 99.899532 
L 75.943202 113.749594 
L 76.581489 102.773679 
L 77.219777 109.69871 
L 77.858064 98.722796 
L 78.496351 105.647827 
L 79.134639 94.671912 
L 79.772926 101.596943 
L 80.411214 90.621029 
L 81.049501 97.54606 
L 81.687789 86.570145 
L 82.326076 93.495176 
L 82.964364 82.519262 
L 83.602651 89.444293 
L 84.240938 78.468378 
L 84.879226 85.393409 
L 85.517513 74.417495 
L 86.155801 81.342526 
L 86.794088 70.366611 
L 87.432376 77.291642 
L 88.070663 66.315728 
L 88.708951 73.240759 
L 89.347238 62.264844 
L 89.985525 69.189875 
L 90.623813 58.21396 
L 91.2621 65.138992 
L 91.900388 54.163077 
L 92.538675 61.088108 
L 93.176963 50.112193 
L 93.81525 57.037225 
L 94.453538 46.06131 
L 95.091825 52.986341 
L 95.730112 42.010426 
L 96.3684 48.935458 
L 97.006687 37.959543 
L 97.644975 44.884574 
L 98.283262 33.908659 
L 99.559837 47.758722 
L 100.198125 36.782807 
L 101.4747 50.632869 
L 102.112987 39.656955 
L 102.751274 46.581986 
L 103.389562 35.606071 
L 104.027849 42.531102 
L 104.666137 31.555187 
L 105.942712 45.40525 
L 106.580999 34.429335 
L 108.495861 55.204428 
L 109.134149 44.228514 
L 111.049011 65.003607 
L 111.687299 54.027693 
L 114.878736 88.652848 
L 115.517023 77.676934 
L 116.155311 84.601965 
L 116.793598 73.62605 
L 117.431886 80.551081 
L 118.070173 69.575166 
L 118.708461 76.500198 
L 119.346748 65.524283 
L 120.623323 79.374345 
L 121.26161 68.398431 
L 121.899898 75.323462 
L 122.538185 64.347547 
L 123.176473 71.272578 
L 123.81476 60.296664 
L 125.091335 74.146726 
L 125.729622 63.170811 
L 127.006197 77.020873 
L 127.644485 66.044959 
L 128.92106 79.895021 
L 129.559347 68.919106 
L 131.47421 89.6942 
L 132.112497 78.718285 
L 133.389072 92.568347 
L 134.027359 81.592433 
L 135.303934 95.442495 
L 135.942222 84.46658 
L 137.857084 105.241674 
L 138.495371 94.265759 
L 139.771946 108.115821 
L 140.410234 97.139907 
L 141.686809 110.989969 
L 142.325096 100.014054 
L 142.963384 106.939085 
L 143.601671 95.963171 
L 144.878246 109.813233 
L 145.516533 98.837318 
L 146.154821 105.762349 
L 146.793108 94.786435 
L 150.622833 136.336621 
L 151.26112 125.360707 
L 153.175983 146.1358 
L 153.81427 135.159885 
L 154.452558 142.084916 
L 155.090845 131.109001 
L 158.92057 172.659188 
L 159.558857 161.683266 
L 160.197145 168.608297 
L 160.835432 157.632377 
L 161.473719 164.557408 
L 162.112007 153.581491 
L 163.388582 167.431553 
L 164.026869 156.455634 
L 164.665157 163.380665 
L 165.303444 152.404747 
L 166.580019 166.25481 
L 167.218307 155.278891 
L 168.494881 169.128953 
L 169.133169 158.153034 
L 170.409744 172.003096 
L 171.048031 161.027175 
L 172.962894 181.802268 
L 173.601181 170.826335 
L 174.239468 177.751366 
L 174.877756 166.775439 
L 175.516043 173.700471 
L 176.154331 162.724548 
L 176.792618 169.649579 
L 177.430906 158.673659 
L 178.069193 165.59869 
L 178.707481 154.622772 
L 180.622343 175.397865 
L 181.26063 164.421941 
L 181.898918 171.346972 
L 182.537205 160.371051 
L 183.81378 174.221113 
L 184.452068 163.24519 
L 186.36693 184.020284 
L 187.005217 173.044346 
L 188.281792 186.894408 
L 188.92008 175.918464 
L 189.558367 182.843495 
L 190.196655 171.86756 
L 192.749804 199.567684 
L 193.388092 188.591662 
L 194.664667 202.441724 
L 195.302954 191.465666 
L 198.494391 226.090822 
L 199.132679 215.113378 
L 200.409254 228.96344 
L 201.047541 217.985486 
L 202.324116 231.835548 
L 202.962404 220.856916 
L 204.238978 234.706978 
L 204.877266 223.72744 
L 205.515553 230.652471 
L 206.153841 219.674142 
L 206.792128 226.599173 
L 207.430416 215.621649 
L 211.26014 257.171836 
L 211.898428 246.161648 
L 213.175003 260.01171 
L 213.81329 248.990279 
L 215.089865 262.840342 
L 215.728152 251.80406 
L 216.36644 258.729091 
L 217.004727 247.713133 
L 217.643015 254.638165 
L 218.281302 243.635643 
L 220.196165 264.410737 
L 220.834452 253.364216 
L 221.472739 260.289247 
L 222.111027 249.266538 
L 222.749314 256.191569 
L 223.387602 245.184579 
L 224.025889 252.10961 
L 224.664177 241.113032 
L 225.940752 254.963094 
L 226.579039 243.959695 
L 227.855614 257.809757 
L 228.493901 246.797313 
L 229.132189 253.722344 
L 229.770476 242.722151 
L 231.047051 256.572213 
L 231.685339 245.564018 
L 232.323626 252.48905 
L 232.961914 241.491673 
L 233.600201 248.416704 
L 234.238488 237.426506 
L 235.515063 251.276569 
L 236.153351 240.281642 
L 236.791638 247.206673 
L 237.429926 236.218104 
L 238.068213 243.143135 
L 238.706501 232.158793 
L 239.344788 239.083824 
L 239.983075 228.102295 
L 241.25965 241.952358 
L 241.897938 230.968962 
L 243.8128 251.744055 
L 244.451088 240.748219 
L 245.089375 247.67325 
L 245.727662 236.684077 
L 246.36595 243.609108 
L 247.004237 232.624363 
L 248.280812 246.474426 
L 248.9191 235.48675 
L 249.557387 242.411781 
L 250.195675 231.428034 
L 251.472249 245.278096 
L 252.110537 234.291747 
L 252.748824 241.216779 
L 253.387112 230.233914 
L 254.025399 237.158945 
L 254.663687 226.1784 
L 255.301974 233.103431 
L 255.940262 222.12443 
L 256.578549 229.049461 
L 257.216836 218.07149 
L 257.855124 224.996521 
L 258.493411 214.019235 
L 260.408274 234.794329 
L 261.046561 223.814759 
L 261.684849 230.73979 
L 262.323136 219.76144 
L 262.961424 226.686471 
L 263.599711 215.708933 
L 264.237998 222.633964 
L 264.876286 211.656967 
L 267.429436 239.357092 
L 268.067723 228.375407 
L 269.344298 242.225469 
L 269.982585 231.241866 
L 271.25916 245.091929 
L 271.897448 234.105772 
L 274.450598 261.805897 
L 275.088885 250.775537 
L 277.003747 271.55063 
L 277.642035 260.430962 
L 278.280322 267.355993 
L 278.91861 256.285379 
L 279.556897 263.21041 
L 280.195185 252.171858 
L 283.386622 286.797013 
L 284.024909 275.176313 
L 286.578059 302.876437 
L 286.578059 302.876437 
" style="fill:none;stroke:#1f77b4;stroke-linecap:square;stroke-width:0.666667;"/>
   </g>
   <g id="line2d_15">
    <path clip-path="url(#p98dfaef22a)" d="M 54.879716 151.691367 
L 55.518003 140.715451 
L 56.156291 147.640482 
L 56.794578 136.664567 
L 57.432866 143.589598 
L 58.071153 132.613683 
L 59.347728 146.463745 
L 59.986015 135.48783 
L 61.26259 149.337892 
L 61.900878 138.361977 
L 63.177453 152.212039 
L 63.81574 141.236124 
L 64.454028 148.161155 
L 65.092315 137.185239 
L 65.730603 144.110271 
L 66.36889 133.134356 
L 67.645465 146.984418 
L 68.283752 136.008503 
L 68.92204 142.933534 
L 69.560327 131.957619 
L 70.198615 138.88265 
L 70.836902 127.906735 
L 71.47519 134.831766 
L 72.113477 123.855851 
L 72.751764 130.780882 
L 73.390052 119.804968 
L 74.028339 126.729999 
L 74.666627 115.754084 
L 75.304914 122.679115 
L 75.943202 111.7032 
L 76.581489 118.628232 
L 77.219777 107.652317 
L 77.858064 114.577348 
L 78.496351 103.601433 
L 79.772926 117.451496 
L 80.411214 106.475581 
L 81.049501 113.400612 
L 81.687789 102.424697 
L 82.964364 116.27476 
L 83.602651 105.298845 
L 84.240938 112.223876 
L 84.879226 101.247961 
L 85.517513 108.172992 
L 86.155801 97.197078 
L 86.794088 104.122109 
L 87.432376 93.146194 
L 88.070663 100.071225 
L 88.708951 89.095311 
L 89.347238 96.020342 
L 89.985525 85.044427 
L 90.623813 91.969458 
L 91.2621 80.993544 
L 91.900388 87.918575 
L 92.538675 76.94266 
L 93.176963 83.867691 
L 93.81525 72.891777 
L 94.453538 79.816808 
L 95.091825 68.840893 
L 95.730112 75.765924 
L 96.3684 64.79001 
L 98.283262 85.565103 
L 98.92155 74.589188 
L 99.559837 81.514219 
L 100.198125 70.538305 
L 102.751274 98.238429 
L 103.389562 87.262515 
L 104.027849 94.187546 
L 104.666137 83.211631 
L 105.304424 90.136662 
L 105.942712 79.160748 
L 107.219287 93.01081 
L 107.857574 82.034895 
L 108.495861 88.959926 
L 109.134149 77.984012 
L 109.772436 84.909043 
L 110.410724 73.933128 
L 111.049011 80.858159 
L 111.687299 69.882245 
L 112.963874 83.732307 
L 113.602161 72.756392 
L 114.240448 79.681423 
L 114.878736 68.705509 
L 115.517023 75.63054 
L 116.155311 64.654625 
L 116.793598 71.579656 
L 117.431886 60.603742 
L 118.070173 67.528773 
L 118.708461 56.552858 
L 119.985035 70.40292 
L 120.623323 59.427006 
L 121.26161 66.352037 
L 121.899898 55.376122 
L 122.538185 62.301153 
L 123.176473 51.325239 
L 123.81476 58.25027 
L 124.453048 47.274355 
L 125.091335 54.199386 
L 125.729622 43.223472 
L 126.36791 50.148503 
L 127.006197 39.172588 
L 128.92106 59.947681 
L 129.559347 48.971767 
L 130.197635 55.896798 
L 130.835922 44.920883 
L 132.112497 58.770946 
L 132.750784 47.795031 
L 133.389072 54.720062 
L 134.027359 43.744147 
L 135.303934 57.59421 
L 135.942222 46.618295 
L 137.218797 60.468357 
L 137.857084 49.492443 
L 138.495371 56.417474 
L 139.133659 45.441559 
L 140.410234 59.291621 
L 141.048521 48.315707 
L 141.686809 55.240738 
L 142.325096 44.264823 
L 142.963384 51.189854 
L 143.601671 40.21394 
L 144.878246 54.064002 
L 145.516533 43.088087 
L 146.154821 50.013118 
L 146.793108 39.037204 
L 151.26112 87.512422 
L 151.899408 76.536507 
L 154.452558 104.236631 
L 155.090845 93.260717 
L 155.729132 100.185748 
L 156.36742 89.209833 
L 157.643995 103.059895 
L 158.282282 92.083981 
L 158.92057 99.009012 
L 159.558857 88.033097 
L 160.197145 94.958128 
L 160.835432 83.982214 
L 162.750294 104.757307 
L 163.388582 93.781392 
L 164.026869 100.706424 
L 164.665157 89.730509 
L 165.303444 96.65554 
L 165.941732 85.679625 
L 166.580019 92.604657 
L 167.218307 81.628742 
L 169.133169 102.403835 
L 169.771456 91.427921 
L 173.601181 132.978107 
L 174.239468 122.002193 
L 174.877756 128.927224 
L 175.516043 117.951309 
L 176.154331 124.87634 
L 176.792618 113.900425 
L 177.430906 120.825457 
L 178.069193 109.849542 
L 179.345768 123.699604 
L 179.984055 112.723689 
L 180.622343 119.64872 
L 181.26063 108.672806 
L 182.537205 122.522868 
L 183.175493 111.546953 
L 183.81378 118.471984 
L 184.452068 107.49607 
L 185.090355 114.421101 
L 185.728642 103.445186 
L 187.005217 117.295248 
L 187.643505 106.319334 
L 188.281792 113.244365 
L 188.92008 102.26845 
L 190.196655 116.118513 
L 190.834942 105.142598 
L 193.388092 132.842722 
L 194.026379 121.866808 
L 194.664667 128.791839 
L 195.302954 117.815924 
L 195.941242 124.740955 
L 196.579529 113.76504 
L 197.856104 127.615103 
L 198.494391 116.639188 
L 200.409254 137.414281 
L 201.047541 126.438366 
L 201.685829 133.363398 
L 202.324116 122.387483 
L 204.238978 143.162576 
L 204.877266 132.186661 
L 205.515553 139.111692 
L 206.153841 128.135777 
L 206.792128 135.060808 
L 207.430416 124.084894 
L 208.706991 137.934956 
L 209.345278 126.959041 
L 211.26014 147.734134 
L 211.898428 136.758219 
L 212.536715 143.68325 
L 213.175003 132.707335 
L 213.81329 139.632366 
L 214.451578 128.656451 
L 215.089865 135.581483 
L 215.728152 124.605568 
L 216.36644 131.530599 
L 217.004727 120.554684 
L 218.281302 134.404746 
L 218.91959 123.428831 
L 219.557877 130.353863 
L 220.196165 119.377948 
L 221.472739 133.22801 
L 222.111027 122.252095 
L 223.387602 136.102158 
L 224.025889 125.126243 
L 225.302464 138.976305 
L 225.940752 128.00039 
L 226.579039 134.925421 
L 227.217326 123.949506 
L 227.855614 130.874538 
L 228.493901 119.898623 
L 230.408764 140.673716 
L 231.047051 129.697801 
L 231.685339 136.622832 
L 232.323626 125.646917 
L 232.961914 132.571949 
L 233.600201 121.596034 
L 234.238488 128.521065 
L 234.876776 117.54515 
L 236.153351 131.395212 
L 236.791638 120.419298 
L 237.429926 127.344329 
L 238.068213 116.368414 
L 239.344788 130.218476 
L 239.983075 119.242562 
L 241.25965 133.092624 
L 241.897938 122.116709 
L 243.174513 135.966771 
L 243.8128 124.990856 
L 245.089375 138.840919 
L 245.727662 127.865004 
L 247.004237 141.715066 
L 247.642525 130.739151 
L 252.110537 179.214369 
L 252.748824 168.23844 
L 254.025399 182.088503 
L 254.663687 171.112569 
L 255.301974 178.0376 
L 255.940262 167.061673 
L 256.578549 173.986704 
L 257.216836 163.010781 
L 258.493411 176.860844 
L 259.131699 165.884918 
L 259.769986 172.809949 
L 260.408274 161.834027 
L 261.684849 175.684089 
L 262.323136 164.708165 
L 263.599711 178.558227 
L 264.237998 167.582299 
L 264.876286 174.50733 
L 265.514573 163.531407 
L 266.152861 170.456438 
L 266.791148 159.480518 
L 267.429436 166.405549 
L 268.067723 155.42963 
L 268.706011 162.354661 
L 269.344298 151.378744 
L 269.982585 158.303775 
L 270.620873 147.327859 
L 271.25916 154.25289 
L 271.897448 143.276974 
L 273.174023 157.127036 
L 273.81231 146.15112 
L 274.450598 153.076151 
L 275.088885 142.100236 
L 275.727172 149.025267 
L 276.36546 138.049351 
L 277.003747 144.974382 
L 277.642035 133.998467 
L 279.556897 154.773561 
L 280.195185 143.797645 
L 280.833472 150.722676 
L 281.471759 139.746761 
L 282.748334 153.596823 
L 283.386622 142.620907 
L 284.024909 149.545938 
L 284.663197 138.570023 
L 285.939772 152.420085 
L 286.578059 141.444169 
L 287.854634 155.294232 
L 288.492921 144.318316 
L 291.046071 172.01844 
L 291.684359 161.042519 
L 292.322646 167.96755 
L 292.960933 156.991631 
L 293.599221 163.916662 
L 294.237508 152.940744 
L 294.875796 159.865775 
L 295.514083 148.889859 
L 298.705521 183.515014 
L 299.343808 172.539078 
L 299.982095 179.464109 
L 300.620383 168.48818 
L 301.25867 175.413211 
L 301.896958 164.437287 
L 305.088395 199.062443 
L 305.726682 188.086426 
L 306.36497 195.011457 
L 307.003257 184.035474 
L 307.641545 190.960505 
L 308.279832 179.984545 
L 310.194695 200.759638 
L 310.832982 189.783603 
L 311.471269 196.708634 
L 312.109557 185.732638 
L 312.747844 192.657669 
L 313.386132 181.681701 
L 315.939282 209.381825 
L 316.577569 198.405624 
L 317.854144 212.255686 
L 318.492431 201.279388 
L 319.130719 208.204419 
L 319.769006 197.228249 
L 320.407294 204.15328 
L 321.045581 193.177196 
L 322.960443 213.952289 
L 323.598731 202.97592 
L 324.875306 216.825983 
L 325.513593 205.849463 
L 326.151881 212.774494 
L 326.790168 201.798176 
L 327.428456 208.723207 
L 328.066743 197.747023 
L 328.705031 204.672055 
L 329.343318 193.695961 
L 329.981605 200.620992 
L 330.619893 189.644958 
L 331.25818 196.569989 
L 331.896468 185.593994 
L 332.534755 192.519026 
L 333.173043 181.543058 
L 335.726192 209.243182 
L 336.36448 198.266984 
L 337.002767 205.192015 
L 337.641055 194.215912 
L 338.91763 208.065974 
L 339.555917 197.089808 
L 340.832492 210.93987 
L 341.470779 199.96362 
L 342.109067 206.888651 
L 342.747354 195.912512 
L 343.385642 202.837543 
L 344.023929 191.861479 
L 344.662217 198.786511 
L 345.300504 187.810496 
L 345.938792 194.735528 
L 346.577079 183.759547 
L 347.215366 190.684578 
L 347.853654 179.708619 
L 349.130229 193.558681 
L 349.768516 182.582708 
L 351.045091 196.43277 
L 351.683379 185.456777 
L 354.236528 213.156901 
L 354.874816 202.180567 
L 356.151391 216.03063 
L 356.789678 205.054156 
L 357.427966 211.979187 
L 358.066253 201.0029 
L 358.70454 207.927931 
L 359.342828 196.951768 
L 360.619403 210.80183 
L 361.25769 199.825585 
L 362.534265 213.675647 
L 363.172553 202.699291 
L 363.81084 209.624322 
L 364.449128 198.648113 
L 365.087415 205.573144 
L 365.725702 194.597033 
L 367.640565 215.372126 
L 368.278852 204.395689 
L 370.193715 225.170782 
L 370.832002 214.193472 
L 371.470289 221.118503 
L 372.108577 210.141659 
L 374.023439 230.916752 
L 374.661727 219.938358 
L 375.300014 226.863389 
L 375.938302 215.885822 
L 376.576589 222.810853 
L 377.214876 211.833837 
L 377.853164 218.758868 
L 378.491451 207.782219 
L 379.129739 214.70725 
L 379.768026 203.730846 
L 380.406314 210.655877 
L 381.044601 199.679636 
L 382.959463 220.45473 
L 383.597751 209.477945 
L 384.236038 216.402976 
L 384.874326 205.426481 
L 386.789188 226.201575 
L 387.427476 215.224113 
L 388.70405 229.074176 
L 389.342338 218.096199 
L 389.980625 225.02123 
L 390.618913 214.043941 
L 391.2572 220.968972 
L 391.895488 209.992142 
L 392.533775 216.917173 
L 393.172063 205.940647 
L 395.086925 226.715741 
L 395.725212 215.738198 
L 397.640075 236.513291 
L 398.278362 225.533035 
L 398.91665 232.458067 
L 399.554937 221.479259 
L 400.193225 228.40429 
L 400.831512 217.426447 
L 401.469799 224.351478 
L 402.108087 213.374279 
L 402.746374 220.29931 
L 403.384662 209.322538 
L 404.022949 216.247569 
L 404.661237 205.271084 
L 405.299524 212.196115 
L 405.937812 201.219819 
L 406.576099 208.144851 
L 407.214386 197.168682 
L 408.490961 211.018744 
L 409.129249 200.042491 
L 410.405824 213.892554 
L 411.044111 202.916188 
L 415.512123 251.391406 
L 416.150411 240.39626 
L 418.065273 261.171353 
L 418.70356 250.144335 
L 419.980135 263.994397 
L 420.618423 252.950749 
L 421.894998 266.800811 
L 422.533285 255.735293 
L 425.086435 283.435417 
L 425.724722 271.994735 
L 426.36301 278.919766 
L 427.001297 267.645599 
L 427.639585 274.57063 
L 428.277872 263.400715 
L 429.554447 277.250777 
L 430.192735 266.02192 
L 432.107597 286.797013 
L 432.745884 275.176313 
L 435.299034 302.876437 
L 435.299034 302.876437 
" style="fill:none;stroke:#ff7f0e;stroke-linecap:square;stroke-width:0.666667;"/>
   </g>
   <g id="patch_3">
    <path d="M 35.85875 316.4425 
L 35.85875 17.989125 
" style="fill:none;stroke:#000000;stroke-linecap:square;stroke-linejoin:miter;stroke-width:0.8;"/>
   </g>
   <g id="patch_4">
    <path d="M 454.32 316.4425 
L 454.32 17.989125 
" style="fill:none;stroke:#000000;stroke-linecap:square;stroke-linejoin:miter;stroke-width:0.8;"/>
   </g>
   <g id="patch_5">
    <path d="M 35.85875 316.4425 
L 454.32 316.4425 
" style="fill:none;stroke:#000000;stroke-linecap:square;stroke-linejoin:miter;stroke-width:0.8;"/>
   </g>
   <g id="patch_6">
    <path d="M 35.85875 17.989125 
L 454.32 17.989125 
" style="fill:none;stroke:#000000;stroke-linecap:square;stroke-linejoin:miter;stroke-width:0.8;"/>
   </g>
   <g id="text_16">
    <!-- "3y+1" problem -->
    <g transform="translate(214.747 11.989125)scale(0.072 -0.072)">
     <defs>
      <path d="M 43.703125 72.90625 
L 43.703125 45.796875 
L 35.203125 45.796875 
L 35.203125 72.90625 
z
M 25 72.90625 
L 25 45.796875 
L 16.5 45.796875 
L 16.5 72.90625 
z
" id="DejaVuSansMono-34"/>
      <path d="M 34.1875 57.171875 
L 34.1875 35.5 
L 55.90625 35.5 
L 55.90625 27.203125 
L 34.1875 27.203125 
L 34.1875 5.515625 
L 25.984375 5.515625 
L 25.984375 27.203125 
L 4.296875 27.203125 
L 4.296875 35.5 
L 25.984375 35.5 
L 25.984375 57.171875 
z
" id="DejaVuSansMono-43"/>
      <path id="DejaVuSansMono-32"/>
      <path d="M 18.3125 6.890625 
L 18.3125 -20.796875 
L 9.28125 -20.796875 
L 9.28125 54.6875 
L 18.3125 54.6875 
L 18.3125 47.703125 
Q 20.5625 51.765625 24.296875 53.875 
Q 28.03125 56 32.90625 56 
Q 42.828125 56 48.46875 48.328125 
Q 54.109375 40.671875 54.109375 27.09375 
Q 54.109375 13.765625 48.4375 6.171875 
Q 42.78125 -1.421875 32.90625 -1.421875 
Q 27.9375 -1.421875 24.1875 0.703125 
Q 20.453125 2.828125 18.3125 6.890625 
z
M 44.671875 27.296875 
Q 44.671875 37.75 41.375 43.0625 
Q 38.09375 48.390625 31.59375 48.390625 
Q 25.046875 48.390625 21.671875 43.046875 
Q 18.3125 37.703125 18.3125 27.296875 
Q 18.3125 16.9375 21.671875 11.5625 
Q 25.046875 6.203125 31.59375 6.203125 
Q 38.09375 6.203125 41.375 11.515625 
Q 44.671875 16.84375 44.671875 27.296875 
z
" id="DejaVuSansMono-112"/>
      <path d="M 56.390625 43.40625 
Q 53.515625 45.65625 50.53125 46.671875 
Q 47.5625 47.703125 44 47.703125 
Q 35.59375 47.703125 31.140625 42.421875 
Q 26.703125 37.15625 26.703125 27.203125 
L 26.703125 0 
L 17.671875 0 
L 17.671875 54.6875 
L 26.703125 54.6875 
L 26.703125 44 
Q 28.953125 49.8125 33.609375 52.90625 
Q 38.28125 56 44.671875 56 
Q 48 56 50.875 55.171875 
Q 53.765625 54.34375 56.390625 52.59375 
z
" id="DejaVuSansMono-114"/>
      <path d="M 30.078125 48.390625 
Q 23.25 48.390625 19.734375 43.0625 
Q 16.21875 37.75 16.21875 27.296875 
Q 16.21875 16.890625 19.734375 11.546875 
Q 23.25 6.203125 30.078125 6.203125 
Q 36.96875 6.203125 40.484375 11.546875 
Q 44 16.890625 44 27.296875 
Q 44 37.75 40.484375 43.0625 
Q 36.96875 48.390625 30.078125 48.390625 
z
M 30.078125 56 
Q 41.453125 56 47.484375 48.625 
Q 53.515625 41.265625 53.515625 27.296875 
Q 53.515625 13.28125 47.5 5.921875 
Q 41.5 -1.421875 30.078125 -1.421875 
Q 18.703125 -1.421875 12.6875 5.921875 
Q 6.6875 13.28125 6.6875 27.296875 
Q 6.6875 41.265625 12.6875 48.625 
Q 18.703125 56 30.078125 56 
z
" id="DejaVuSansMono-111"/>
      <path d="M 44.828125 27.296875 
Q 44.828125 37.75 41.5 43.0625 
Q 38.1875 48.390625 31.6875 48.390625 
Q 25.140625 48.390625 21.765625 43.046875 
Q 18.40625 37.703125 18.40625 27.296875 
Q 18.40625 16.9375 21.765625 11.5625 
Q 25.140625 6.203125 31.6875 6.203125 
Q 38.1875 6.203125 41.5 11.515625 
Q 44.828125 16.84375 44.828125 27.296875 
z
M 18.40625 47.703125 
Q 20.5625 51.703125 24.34375 53.84375 
Q 28.125 56 33.109375 56 
Q 42.96875 56 48.625 48.40625 
Q 54.296875 40.828125 54.296875 27.484375 
Q 54.296875 13.96875 48.609375 6.265625 
Q 42.921875 -1.421875 33.015625 -1.421875 
Q 28.125 -1.421875 24.390625 0.703125 
Q 20.65625 2.828125 18.40625 6.890625 
L 18.40625 0 
L 9.421875 0 
L 9.421875 75.984375 
L 18.40625 75.984375 
z
" id="DejaVuSansMono-98"/>
      <path d="M 31.203125 19.828125 
Q 31.203125 13.765625 33.421875 10.6875 
Q 35.640625 7.625 39.984375 7.625 
L 50.484375 7.625 
L 50.484375 0 
L 39.109375 0 
Q 31.0625 0 26.640625 5.171875 
Q 22.21875 10.359375 22.21875 19.828125 
L 22.21875 69.484375 
L 7.8125 69.484375 
L 7.8125 76.515625 
L 31.203125 76.515625 
z
" id="DejaVuSansMono-108"/>
      <path d="M 54.296875 29.59375 
L 54.296875 25.203125 
L 15.375 25.203125 
L 15.375 24.90625 
Q 15.375 15.96875 20.03125 11.078125 
Q 24.703125 6.203125 33.203125 6.203125 
Q 37.5 6.203125 42.1875 7.5625 
Q 46.875 8.9375 52.203125 11.71875 
L 52.203125 2.78125 
Q 47.078125 0.6875 42.3125 -0.359375 
Q 37.546875 -1.421875 33.109375 -1.421875 
Q 20.359375 -1.421875 13.171875 6.21875 
Q 6 13.875 6 27.296875 
Q 6 40.375 13.03125 48.1875 
Q 20.0625 56 31.78125 56 
Q 42.234375 56 48.265625 48.921875 
Q 54.296875 41.84375 54.296875 29.59375 
z
M 45.3125 32.234375 
Q 45.125 40.140625 41.578125 44.265625 
Q 38.03125 48.390625 31.390625 48.390625 
Q 24.90625 48.390625 20.703125 44.09375 
Q 16.5 39.796875 15.71875 32.171875 
z
" id="DejaVuSansMono-101"/>
      <path d="M 33.015625 49.125 
Q 34.671875 52.640625 37.234375 54.3125 
Q 39.796875 56 43.40625 56 
Q 50 56 52.703125 50.890625 
Q 55.421875 45.796875 55.421875 31.6875 
L 55.421875 0 
L 47.21875 0 
L 47.21875 31.296875 
Q 47.21875 42.875 45.921875 45.671875 
Q 44.625 48.484375 41.21875 48.484375 
Q 37.3125 48.484375 35.859375 45.484375 
Q 34.421875 42.484375 34.421875 31.296875 
L 34.421875 0 
L 26.21875 0 
L 26.21875 31.296875 
Q 26.21875 43.015625 24.828125 45.75 
Q 23.4375 48.484375 19.828125 48.484375 
Q 16.265625 48.484375 14.875 45.484375 
Q 13.484375 42.484375 13.484375 31.296875 
L 13.484375 0 
L 5.328125 0 
L 5.328125 54.6875 
L 13.484375 54.6875 
L 13.484375 50 
Q 15.09375 52.9375 17.5 54.46875 
Q 19.921875 56 23 56 
Q 26.703125 56 29.171875 54.296875 
Q 31.640625 52.59375 33.015625 49.125 
z
" id="DejaVuSansMono-109"/>
     </defs>
     <use xlink:href="#DejaVuSansMono-34"/>
     <use x="60.205078" xlink:href="#DejaVuSansMono-51"/>
     <use x="120.410156" xlink:href="#DejaVuSansMono-121"/>
     <use x="180.615234" xlink:href="#DejaVuSansMono-43"/>
     <use x="240.820312" xlink:href="#DejaVuSansMono-49"/>
     <use x="301.025391" xlink:href="#DejaVuSansMono-34"/>
     <use x="361.230469" xlink:href="#DejaVuSansMono-32"/>
     <use x="421.435547" xlink:href="#DejaVuSansMono-112"/>
     <use x="481.640625" xlink:href="#DejaVuSansMono-114"/>
     <use x="541.845703" xlink:href="#DejaVuSansMono-111"/>
     <use x="602.050781" xlink:href="#DejaVuSansMono-98"/>
     <use x="662.255859" xlink:href="#DejaVuSansMono-108"/>
     <use x="722.460938" xlink:href="#DejaVuSansMono-101"/>
     <use x="782.666016" xlink:href="#DejaVuSansMono-109"/>
    </g>
   </g>
   <g id="legend_1">
    <g id="patch_7">
     <path d="M 355.064062 82.0095 
L 450.12 82.0095 
Q 451.32 82.0095 451.32 80.8095 
L 451.32 22.189125 
Q 451.32 20.989125 450.12 20.989125 
L 355.064062 20.989125 
Q 353.864062 20.989125 353.864062 22.189125 
L 353.864062 80.8095 
Q 353.864062 82.0095 355.064062 82.0095 
z
" style="fill:#ffffff;opacity:0.8;stroke:#cccccc;stroke-linejoin:miter;"/>
    </g>
    <g id="line2d_16">
     <path d="M 356.264062 36.889687 
L 368.264062 36.889687 
" style="fill:none;stroke:#1f77b4;stroke-linecap:square;stroke-width:0.666667;"/>
    </g>
    <g id="line2d_17"/>
    <g id="text_17">
     <!-- "Tallest": -->
     <g transform="translate(373.064062 27.980062)scale(0.06 -0.06)">
      <defs>
       <path d="M 2.296875 72.90625 
L 57.90625 72.90625 
L 57.90625 64.59375 
L 35.109375 64.59375 
L 35.109375 0 
L 25.203125 0 
L 25.203125 64.59375 
L 2.296875 64.59375 
z
" id="DejaVuSansMono-84"/>
       <path d="M 34.28125 27.484375 
L 31.296875 27.484375 
Q 23.4375 27.484375 19.453125 24.71875 
Q 15.484375 21.96875 15.484375 16.5 
Q 15.484375 11.578125 18.453125 8.84375 
Q 21.4375 6.109375 26.703125 6.109375 
Q 34.125 6.109375 38.375 11.25 
Q 42.625 16.40625 42.671875 25.484375 
L 42.671875 27.484375 
z
M 51.703125 31.203125 
L 51.703125 0 
L 42.671875 0 
L 42.671875 8.109375 
Q 39.796875 3.21875 35.421875 0.890625 
Q 31.0625 -1.421875 24.8125 -1.421875 
Q 16.453125 -1.421875 11.46875 3.296875 
Q 6.5 8.015625 6.5 15.921875 
Q 6.5 25.046875 12.625 29.78125 
Q 18.75 34.515625 30.609375 34.515625 
L 42.671875 34.515625 
L 42.671875 35.9375 
Q 42.625 42.484375 39.34375 45.4375 
Q 36.078125 48.390625 28.90625 48.390625 
Q 24.3125 48.390625 19.625 47.0625 
Q 14.9375 45.75 10.5 43.21875 
L 10.5 52.203125 
Q 15.484375 54.109375 20.046875 55.046875 
Q 24.609375 56 28.90625 56 
Q 35.6875 56 40.5 54 
Q 45.3125 52 48.296875 48 
Q 50.140625 45.5625 50.921875 41.96875 
Q 51.703125 38.375 51.703125 31.203125 
z
" id="DejaVuSansMono-97"/>
       <path d="M 47.515625 52.78125 
L 47.515625 44 
Q 43.65625 46.234375 39.75 47.359375 
Q 35.84375 48.484375 31.78125 48.484375 
Q 25.6875 48.484375 22.671875 46.5 
Q 19.671875 44.53125 19.671875 40.484375 
Q 19.671875 36.8125 21.921875 35 
Q 24.171875 33.203125 33.109375 31.5 
L 36.71875 30.8125 
Q 43.40625 29.546875 46.84375 25.734375 
Q 50.296875 21.921875 50.296875 15.828125 
Q 50.296875 7.71875 44.53125 3.140625 
Q 38.765625 -1.421875 28.515625 -1.421875 
Q 24.46875 -1.421875 20.015625 -0.5625 
Q 15.578125 0.296875 10.40625 2 
L 10.40625 11.28125 
Q 15.4375 8.6875 20.015625 7.390625 
Q 24.609375 6.109375 28.71875 6.109375 
Q 34.671875 6.109375 37.9375 8.515625 
Q 41.21875 10.9375 41.21875 15.28125 
Q 41.21875 21.53125 29.25 23.921875 
L 28.859375 24.03125 
L 25.484375 24.703125 
Q 17.71875 26.21875 14.15625 29.8125 
Q 10.59375 33.40625 10.59375 39.59375 
Q 10.59375 47.46875 15.90625 51.734375 
Q 21.234375 56 31.109375 56 
Q 35.5 56 39.546875 55.1875 
Q 43.609375 54.390625 47.515625 52.78125 
z
" id="DejaVuSansMono-115"/>
       <path d="M 29.984375 70.21875 
L 29.984375 54.6875 
L 50.390625 54.6875 
L 50.390625 47.703125 
L 29.984375 47.703125 
L 29.984375 18.015625 
Q 29.984375 11.96875 32.28125 9.5625 
Q 34.578125 7.171875 40.28125 7.171875 
L 50.390625 7.171875 
L 50.390625 0 
L 39.40625 0 
Q 29.296875 0 25.140625 4.046875 
Q 21 8.109375 21 18.015625 
L 21 47.703125 
L 6.390625 47.703125 
L 6.390625 54.6875 
L 21 54.6875 
L 21 70.21875 
z
" id="DejaVuSansMono-116"/>
       <path d="M 23.875 51.90625 
L 36.1875 51.90625 
L 36.1875 37.109375 
L 23.875 37.109375 
z
M 23.875 14.890625 
L 36.1875 14.890625 
L 36.1875 0 
L 23.875 0 
z
" id="DejaVuSansMono-58"/>
      </defs>
      <use xlink:href="#DejaVuSansMono-34"/>
      <use x="60.205078" xlink:href="#DejaVuSansMono-84"/>
      <use x="120.410156" xlink:href="#DejaVuSansMono-97"/>
      <use x="180.615234" xlink:href="#DejaVuSansMono-108"/>
      <use x="240.820312" xlink:href="#DejaVuSansMono-108"/>
      <use x="301.025391" xlink:href="#DejaVuSansMono-101"/>
      <use x="361.230469" xlink:href="#DejaVuSansMono-115"/>
      <use x="421.435547" xlink:href="#DejaVuSansMono-116"/>
      <use x="481.640625" xlink:href="#DejaVuSansMono-34"/>
      <use x="541.845703" xlink:href="#DejaVuSansMono-58"/>
     </g>
     <!-- y_0    = 3041127 -->
     <g transform="translate(373.064062 34.737)scale(0.06 -0.06)">
      <defs>
       <path d="M 4.296875 25.59375 
L 55.90625 25.59375 
L 55.90625 17.1875 
L 4.296875 17.1875 
z
M 4.296875 45.40625 
L 55.90625 45.40625 
L 55.90625 37.109375 
L 4.296875 37.109375 
z
" id="DejaVuSansMono-61"/>
      </defs>
      <use xlink:href="#DejaVuSansMono-121"/>
      <use x="60.205078" xlink:href="#DejaVuSansMono-95"/>
      <use x="120.410156" xlink:href="#DejaVuSansMono-48"/>
      <use x="180.615234" xlink:href="#DejaVuSansMono-32"/>
      <use x="240.820312" xlink:href="#DejaVuSansMono-32"/>
      <use x="301.025391" xlink:href="#DejaVuSansMono-32"/>
      <use x="361.230469" xlink:href="#DejaVuSansMono-32"/>
      <use x="421.435547" xlink:href="#DejaVuSansMono-61"/>
      <use x="481.640625" xlink:href="#DejaVuSansMono-32"/>
      <use x="541.845703" xlink:href="#DejaVuSansMono-51"/>
      <use x="602.050781" xlink:href="#DejaVuSansMono-48"/>
      <use x="662.255859" xlink:href="#DejaVuSansMono-52"/>
      <use x="722.460938" xlink:href="#DejaVuSansMono-49"/>
      <use x="782.666016" xlink:href="#DejaVuSansMono-49"/>
      <use x="842.871094" xlink:href="#DejaVuSansMono-50"/>
      <use x="903.076172" xlink:href="#DejaVuSansMono-55"/>
     </g>
     <!-- y_max  = 622717901620 -->
     <g transform="translate(373.064062 41.660812)scale(0.06 -0.06)">
      <defs>
       <path d="M 54.59375 54.6875 
L 35.015625 28.515625 
L 56.5 0 
L 46.09375 0 
L 30.078125 21.921875 
L 14.109375 0 
L 3.71875 0 
L 25.203125 28.515625 
L 5.609375 54.6875 
L 15.578125 54.6875 
L 30.078125 34.90625 
L 44.484375 54.6875 
z
" id="DejaVuSansMono-120"/>
      </defs>
      <use xlink:href="#DejaVuSansMono-121"/>
      <use x="60.205078" xlink:href="#DejaVuSansMono-95"/>
      <use x="120.410156" xlink:href="#DejaVuSansMono-109"/>
      <use x="180.615234" xlink:href="#DejaVuSansMono-97"/>
      <use x="240.820312" xlink:href="#DejaVuSansMono-120"/>
      <use x="301.025391" xlink:href="#DejaVuSansMono-32"/>
      <use x="361.230469" xlink:href="#DejaVuSansMono-32"/>
      <use x="421.435547" xlink:href="#DejaVuSansMono-61"/>
      <use x="481.640625" xlink:href="#DejaVuSansMono-32"/>
      <use x="541.845703" xlink:href="#DejaVuSansMono-54"/>
      <use x="602.050781" xlink:href="#DejaVuSansMono-50"/>
      <use x="662.255859" xlink:href="#DejaVuSansMono-50"/>
      <use x="722.460938" xlink:href="#DejaVuSansMono-55"/>
      <use x="782.666016" xlink:href="#DejaVuSansMono-49"/>
      <use x="842.871094" xlink:href="#DejaVuSansMono-55"/>
      <use x="903.076172" xlink:href="#DejaVuSansMono-57"/>
      <use x="963.28125" xlink:href="#DejaVuSansMono-48"/>
      <use x="1023.486328" xlink:href="#DejaVuSansMono-49"/>
      <use x="1083.691406" xlink:href="#DejaVuSansMono-54"/>
      <use x="1143.896484" xlink:href="#DejaVuSansMono-50"/>
      <use x="1204.101562" xlink:href="#DejaVuSansMono-48"/>
     </g>
     <!-- x_max  = 364 -->
     <g transform="translate(373.064062 48.584625)scale(0.06 -0.06)">
      <use xlink:href="#DejaVuSansMono-120"/>
      <use x="60.205078" xlink:href="#DejaVuSansMono-95"/>
      <use x="120.410156" xlink:href="#DejaVuSansMono-109"/>
      <use x="180.615234" xlink:href="#DejaVuSansMono-97"/>
      <use x="240.820312" xlink:href="#DejaVuSansMono-120"/>
      <use x="301.025391" xlink:href="#DejaVuSansMono-32"/>
      <use x="361.230469" xlink:href="#DejaVuSansMono-32"/>
      <use x="421.435547" xlink:href="#DejaVuSansMono-61"/>
      <use x="481.640625" xlink:href="#DejaVuSansMono-32"/>
      <use x="541.845703" xlink:href="#DejaVuSansMono-51"/>
      <use x="602.050781" xlink:href="#DejaVuSansMono-54"/>
      <use x="662.255859" xlink:href="#DejaVuSansMono-52"/>
     </g>
    </g>
    <g id="line2d_18">
     <path d="M 356.264062 66.499875 
L 368.264062 66.499875 
" style="fill:none;stroke:#ff7f0e;stroke-linecap:square;stroke-width:0.666667;"/>
    </g>
    <g id="line2d_19"/>
    <g id="text_18">
     <!-- "Widest":  -->
     <g transform="translate(373.064062 57.59025)scale(0.06 -0.06)">
      <defs>
       <path d="M 0 72.90625 
L 9.625 72.90625 
L 16.609375 13.71875 
L 24.90625 52.875 
L 35.203125 52.875 
L 43.609375 13.625 
L 50.59375 72.90625 
L 60.203125 72.90625 
L 49.3125 0 
L 39.984375 0 
L 30.078125 43.3125 
L 20.21875 0 
L 10.890625 0 
z
" id="DejaVuSansMono-87"/>
       <path d="M 12.5 54.6875 
L 35.5 54.6875 
L 35.5 6.984375 
L 53.328125 6.984375 
L 53.328125 0 
L 8.6875 0 
L 8.6875 6.984375 
L 26.515625 6.984375 
L 26.515625 47.703125 
L 12.5 47.703125 
z
M 26.515625 75.984375 
L 35.5 75.984375 
L 35.5 64.59375 
L 26.515625 64.59375 
z
" id="DejaVuSansMono-105"/>
       <path d="M 41.890625 47.703125 
L 41.890625 75.984375 
L 50.875 75.984375 
L 50.875 0 
L 41.890625 0 
L 41.890625 6.890625 
Q 39.65625 2.828125 35.90625 0.703125 
Q 32.171875 -1.421875 27.296875 -1.421875 
Q 17.390625 -1.421875 11.6875 6.265625 
Q 6 13.96875 6 27.484375 
Q 6 40.828125 11.71875 48.40625 
Q 17.4375 56 27.296875 56 
Q 32.234375 56 35.984375 53.875 
Q 39.75 51.765625 41.890625 47.703125 
z
M 15.484375 27.296875 
Q 15.484375 16.84375 18.796875 11.515625 
Q 22.125 6.203125 28.609375 6.203125 
Q 35.109375 6.203125 38.5 11.5625 
Q 41.890625 16.9375 41.890625 27.296875 
Q 41.890625 37.703125 38.5 43.046875 
Q 35.109375 48.390625 28.609375 48.390625 
Q 22.125 48.390625 18.796875 43.0625 
Q 15.484375 37.75 15.484375 27.296875 
z
" id="DejaVuSansMono-100"/>
      </defs>
      <use xlink:href="#DejaVuSansMono-34"/>
      <use x="60.205078" xlink:href="#DejaVuSansMono-87"/>
      <use x="120.410156" xlink:href="#DejaVuSansMono-105"/>
      <use x="180.615234" xlink:href="#DejaVuSansMono-100"/>
      <use x="240.820312" xlink:href="#DejaVuSansMono-101"/>
      <use x="301.025391" xlink:href="#DejaVuSansMono-115"/>
      <use x="361.230469" xlink:href="#DejaVuSansMono-116"/>
      <use x="421.435547" xlink:href="#DejaVuSansMono-34"/>
      <use x="481.640625" xlink:href="#DejaVuSansMono-58"/>
      <use x="541.845703" xlink:href="#DejaVuSansMono-32"/>
     </g>
     <!-- y_0    = 3732423 -->
     <g transform="translate(373.064062 64.347187)scale(0.06 -0.06)">
      <use xlink:href="#DejaVuSansMono-121"/>
      <use x="60.205078" xlink:href="#DejaVuSansMono-95"/>
      <use x="120.410156" xlink:href="#DejaVuSansMono-48"/>
      <use x="180.615234" xlink:href="#DejaVuSansMono-32"/>
      <use x="240.820312" xlink:href="#DejaVuSansMono-32"/>
      <use x="301.025391" xlink:href="#DejaVuSansMono-32"/>
      <use x="361.230469" xlink:href="#DejaVuSansMono-32"/>
      <use x="421.435547" xlink:href="#DejaVuSansMono-61"/>
      <use x="481.640625" xlink:href="#DejaVuSansMono-32"/>
      <use x="541.845703" xlink:href="#DejaVuSansMono-51"/>
      <use x="602.050781" xlink:href="#DejaVuSansMono-55"/>
      <use x="662.255859" xlink:href="#DejaVuSansMono-51"/>
      <use x="722.460938" xlink:href="#DejaVuSansMono-50"/>
      <use x="782.666016" xlink:href="#DejaVuSansMono-52"/>
      <use x="842.871094" xlink:href="#DejaVuSansMono-50"/>
      <use x="903.076172" xlink:href="#DejaVuSansMono-51"/>
     </g>
     <!-- y_max  = 294475592320 -->
     <g transform="translate(373.064062 71.271)scale(0.06 -0.06)">
      <use xlink:href="#DejaVuSansMono-121"/>
      <use x="60.205078" xlink:href="#DejaVuSansMono-95"/>
      <use x="120.410156" xlink:href="#DejaVuSansMono-109"/>
      <use x="180.615234" xlink:href="#DejaVuSansMono-97"/>
      <use x="240.820312" xlink:href="#DejaVuSansMono-120"/>
      <use x="301.025391" xlink:href="#DejaVuSansMono-32"/>
      <use x="361.230469" xlink:href="#DejaVuSansMono-32"/>
      <use x="421.435547" xlink:href="#DejaVuSansMono-61"/>
      <use x="481.640625" xlink:href="#DejaVuSansMono-32"/>
      <use x="541.845703" xlink:href="#DejaVuSansMono-50"/>
      <use x="602.050781" xlink:href="#DejaVuSansMono-57"/>
      <use x="662.255859" xlink:href="#DejaVuSansMono-52"/>
      <use x="722.460938" xlink:href="#DejaVuSansMono-52"/>
      <use x="782.666016" xlink:href="#DejaVuSansMono-55"/>
      <use x="842.871094" xlink:href="#DejaVuSansMono-53"/>
      <use x="903.076172" xlink:href="#DejaVuSansMono-53"/>
      <use x="963.28125" xlink:href="#DejaVuSansMono-57"/>
      <use x="1023.486328" xlink:href="#DejaVuSansMono-50"/>
      <use x="1083.691406" xlink:href="#DejaVuSansMono-51"/>
      <use x="1143.896484" xlink:href="#DejaVuSansMono-50"/>
      <use x="1204.101562" xlink:href="#DejaVuSansMono-48"/>
     </g>
     <!-- x_max  = 597 -->
     <g transform="translate(373.064062 78.194812)scale(0.06 -0.06)">
      <use xlink:href="#DejaVuSansMono-120"/>
      <use x="60.205078" xlink:href="#DejaVuSansMono-95"/>
      <use x="120.410156" xlink:href="#DejaVuSansMono-109"/>
      <use x="180.615234" xlink:href="#DejaVuSansMono-97"/>
      <use x="240.820312" xlink:href="#DejaVuSansMono-120"/>
      <use x="301.025391" xlink:href="#DejaVuSansMono-32"/>
      <use x="361.230469" xlink:href="#DejaVuSansMono-32"/>
      <use x="421.435547" xlink:href="#DejaVuSansMono-61"/>
      <use x="481.640625" xlink:href="#DejaVuSansMono-32"/>
      <use x="541.845703" xlink:href="#DejaVuSansMono-53"/>
      <use x="602.050781" xlink:href="#DejaVuSansMono-57"/>
      <use x="662.255859" xlink:href="#DejaVuSansMono-55"/>
     </g>
    </g>
   </g>
  </g>
 </g>
 <defs>
  <clipPath id="p98dfaef22a">
   <rect height="298.453375" width="418.46125" x="35.85875" y="17.989125"/>
  </clipPath>
 </defs>
</svg>
