<?xml version="1.0" encoding="utf-8" standalone="no"?>
<!DOCTYPE svg PUBLIC "-//W3C//DTD SVG 1.1//EN"
  "http://www.w3.org/Graphics/SVG/1.1/DTD/svg11.dtd">
<!-- Created with matplotlib (https://matplotlib.org/) -->
<svg height="345.6pt" version="1.1" viewBox="0 0 460.8 345.6" width="460.8pt" xmlns="http://www.w3.org/2000/svg" xmlns:xlink="http://www.w3.org/1999/xlink">
 <metadata>
  <rdf:RDF xmlns:cc="http://creativecommons.org/ns#" xmlns:dc="http://purl.org/dc/elements/1.1/" xmlns:rdf="http://www.w3.org/1999/02/22-rdf-syntax-ns#">
   <cc:Work>
    <dc:type rdf:resource="http://purl.org/dc/dcmitype/StillImage"/>
    <dc:date>2022-03-17T00:26:59.665539</dc:date>
    <dc:format>image/svg+xml</dc:format>
    <dc:creator>
     <cc:Agent>
      <dc:title>Matplotlib v3.3.2, https://matplotlib.org/</dc:title>
     </cc:Agent>
    </dc:creator>
   </cc:Work>
  </rdf:RDF>
 </metadata>
 <defs>
  <style type="text/css">*{stroke-linecap:butt;stroke-linejoin:round;}</style>
 </defs>
 <g id="figure_1">
  <g id="patch_1">
   <path d="M 0 345.6 
L 460.8 345.6 
L 460.8 0 
L 0 0 
z
" style="fill:#ffffff;"/>
  </g>
  <g id="axes_1">
   <g id="patch_2">
    <path d="M 35.85875 316.4425 
L 454.32 316.4425 
L 454.32 17.989125 
L 35.85875 17.989125 
z
" style="fill:#ffffff;"/>
   </g>
   <g id="matplotlib.axis_1">
    <g id="xtick_1">
     <g id="line2d_1">
      <defs>
       <path d="M 0 0 
L 0 3.5 
" id="mfdd42a1604" style="stroke:#000000;stroke-width:0.8;"/>
      </defs>
      <g>
       <use style="stroke:#000000;stroke-width:0.8;" x="54.879716" xlink:href="#mfdd42a1604" y="316.4425"/>
      </g>
     </g>
     <g id="text_1">
      <!-- 0 -->
      <g transform="translate(53.073622 328.033437)scale(0.06 -0.06)">
       <defs>
        <path d="M 23.578125 36.625 
Q 23.578125 39.3125 25.453125 41.265625 
Q 27.34375 43.21875 29.984375 43.21875 
Q 32.71875 43.21875 34.671875 41.265625 
Q 36.625 39.3125 36.625 36.625 
Q 36.625 33.890625 34.6875 31.984375 
Q 32.765625 30.078125 29.984375 30.078125 
Q 27.25 30.078125 25.40625 31.9375 
Q 23.578125 33.796875 23.578125 36.625 
z
M 30.078125 66.40625 
Q 23.1875 66.40625 19.796875 58.984375 
Q 16.40625 51.5625 16.40625 36.375 
Q 16.40625 21.234375 19.796875 13.8125 
Q 23.1875 6.390625 30.078125 6.390625 
Q 37.015625 6.390625 40.40625 13.8125 
Q 43.796875 21.234375 43.796875 36.375 
Q 43.796875 51.5625 40.40625 58.984375 
Q 37.015625 66.40625 30.078125 66.40625 
z
M 30.078125 74.21875 
Q 41.75 74.21875 47.734375 64.640625 
Q 53.71875 55.078125 53.71875 36.375 
Q 53.71875 17.71875 47.734375 8.140625 
Q 41.75 -1.421875 30.078125 -1.421875 
Q 18.40625 -1.421875 12.453125 8.140625 
Q 6.5 17.71875 6.5 36.375 
Q 6.5 55.078125 12.453125 64.640625 
Q 18.40625 74.21875 30.078125 74.21875 
z
" id="DejaVuSansMono-48"/>
       </defs>
       <use xlink:href="#DejaVuSansMono-48"/>
      </g>
     </g>
    </g>
    <g id="xtick_2">
     <g id="line2d_2">
      <g>
       <use style="stroke:#000000;stroke-width:0.8;" x="123.300457" xlink:href="#mfdd42a1604" y="316.4425"/>
      </g>
     </g>
     <g id="text_2">
      <!-- 100 -->
      <g transform="translate(117.882175 328.033437)scale(0.06 -0.06)">
       <defs>
        <path d="M 13.1875 8.296875 
L 28.515625 8.296875 
L 28.515625 64.015625 
L 12.015625 60.296875 
L 12.015625 69.28125 
L 28.421875 72.90625 
L 38.28125 72.90625 
L 38.28125 8.296875 
L 53.421875 8.296875 
L 53.421875 0 
L 13.1875 0 
z
" id="DejaVuSansMono-49"/>
       </defs>
       <use xlink:href="#DejaVuSansMono-49"/>
       <use x="60.205078" xlink:href="#DejaVuSansMono-48"/>
       <use x="120.410156" xlink:href="#DejaVuSansMono-48"/>
      </g>
     </g>
    </g>
    <g id="xtick_3">
     <g id="line2d_3">
      <g>
       <use style="stroke:#000000;stroke-width:0.8;" x="191.721197" xlink:href="#mfdd42a1604" y="316.4425"/>
      </g>
     </g>
     <g id="text_3">
      <!-- 200 -->
      <g transform="translate(186.302916 328.033437)scale(0.06 -0.06)">
       <defs>
        <path d="M 18.21875 8.296875 
L 51.703125 8.296875 
L 51.703125 0 
L 7.421875 0 
L 7.421875 8.296875 
Q 16.546875 17.921875 23.375 25.296875 
Q 30.21875 32.671875 32.8125 35.6875 
Q 37.703125 41.65625 39.40625 45.34375 
Q 41.109375 49.03125 41.109375 52.875 
Q 41.109375 58.984375 37.515625 62.453125 
Q 33.9375 65.921875 27.6875 65.921875 
Q 23.25 65.921875 18.359375 64.3125 
Q 13.484375 62.703125 8.015625 59.421875 
L 8.015625 69.390625 
Q 13.03125 71.78125 17.890625 73 
Q 22.75 74.21875 27.484375 74.21875 
Q 38.1875 74.21875 44.703125 68.53125 
Q 51.21875 62.84375 51.21875 53.609375 
Q 51.21875 48.921875 49.046875 44.234375 
Q 46.875 39.546875 42 33.890625 
Q 39.265625 30.71875 34.0625 25.09375 
Q 28.859375 19.484375 18.21875 8.296875 
z
" id="DejaVuSansMono-50"/>
       </defs>
       <use xlink:href="#DejaVuSansMono-50"/>
       <use x="60.205078" xlink:href="#DejaVuSansMono-48"/>
       <use x="120.410156" xlink:href="#DejaVuSansMono-48"/>
      </g>
     </g>
    </g>
    <g id="xtick_4">
     <g id="line2d_4">
      <g>
       <use style="stroke:#000000;stroke-width:0.8;" x="260.141938" xlink:href="#mfdd42a1604" y="316.4425"/>
      </g>
     </g>
     <g id="text_4">
      <!-- 300 -->
      <g transform="translate(254.723657 328.033437)scale(0.06 -0.06)">
       <defs>
        <path d="M 37.890625 39.015625 
Q 45.0625 37.109375 48.875 32.25 
Q 52.6875 27.390625 52.6875 20.125 
Q 52.6875 10.0625 45.921875 4.3125 
Q 39.15625 -1.421875 27.203125 -1.421875 
Q 22.171875 -1.421875 16.9375 -0.484375 
Q 11.71875 0.4375 6.6875 2.203125 
L 6.6875 12.015625 
Q 11.671875 9.421875 16.5 8.15625 
Q 21.34375 6.890625 26.125 6.890625 
Q 34.234375 6.890625 38.578125 10.546875 
Q 42.921875 14.203125 42.921875 21.09375 
Q 42.921875 27.4375 38.578125 31.171875 
Q 34.234375 34.90625 26.8125 34.90625 
L 19.28125 34.90625 
L 19.28125 43.015625 
L 26.8125 43.015625 
Q 33.59375 43.015625 37.40625 45.984375 
Q 41.21875 48.96875 41.21875 54.296875 
Q 41.21875 59.90625 37.671875 62.90625 
Q 34.125 65.921875 27.59375 65.921875 
Q 23.25 65.921875 18.609375 64.9375 
Q 13.96875 63.96875 8.890625 62.015625 
L 8.890625 71.09375 
Q 14.796875 72.65625 19.40625 73.4375 
Q 24.03125 74.21875 27.59375 74.21875 
Q 38.234375 74.21875 44.609375 68.875 
Q 50.984375 63.53125 50.984375 54.6875 
Q 50.984375 48.6875 47.625 44.671875 
Q 44.28125 40.671875 37.890625 39.015625 
z
" id="DejaVuSansMono-51"/>
       </defs>
       <use xlink:href="#DejaVuSansMono-51"/>
       <use x="60.205078" xlink:href="#DejaVuSansMono-48"/>
       <use x="120.410156" xlink:href="#DejaVuSansMono-48"/>
      </g>
     </g>
    </g>
    <g id="xtick_5">
     <g id="line2d_5">
      <g>
       <use style="stroke:#000000;stroke-width:0.8;" x="328.562679" xlink:href="#mfdd42a1604" y="316.4425"/>
      </g>
     </g>
     <g id="text_5">
      <!-- 400 -->
      <g transform="translate(323.144397 328.033437)scale(0.06 -0.06)">
       <defs>
        <path d="M 35.890625 63.921875 
L 12.890625 25.390625 
L 35.890625 25.390625 
z
M 34.28125 72.90625 
L 45.703125 72.90625 
L 45.703125 25.390625 
L 55.421875 25.390625 
L 55.421875 17.390625 
L 45.703125 17.390625 
L 45.703125 0 
L 35.890625 0 
L 35.890625 17.390625 
L 4.984375 17.390625 
L 4.984375 26.703125 
z
" id="DejaVuSansMono-52"/>
       </defs>
       <use xlink:href="#DejaVuSansMono-52"/>
       <use x="60.205078" xlink:href="#DejaVuSansMono-48"/>
       <use x="120.410156" xlink:href="#DejaVuSansMono-48"/>
      </g>
     </g>
    </g>
    <g id="xtick_6">
     <g id="line2d_6">
      <g>
       <use style="stroke:#000000;stroke-width:0.8;" x="396.983419" xlink:href="#mfdd42a1604" y="316.4425"/>
      </g>
     </g>
     <g id="text_6">
      <!-- 500 -->
      <g transform="translate(391.565138 328.033437)scale(0.06 -0.06)">
       <defs>
        <path d="M 10.109375 72.90625 
L 47.015625 72.90625 
L 47.015625 64.59375 
L 19.09375 64.59375 
L 19.09375 46.6875 
Q 21.1875 47.46875 23.3125 47.828125 
Q 25.4375 48.1875 27.59375 48.1875 
Q 38.921875 48.1875 45.5625 41.5 
Q 52.203125 34.8125 52.203125 23.390625 
Q 52.203125 11.859375 45.234375 5.21875 
Q 38.28125 -1.421875 26.21875 -1.421875 
Q 20.40625 -1.421875 15.59375 -0.640625 
Q 10.796875 0.140625 6.984375 1.703125 
L 6.984375 11.71875 
Q 11.46875 9.28125 16.015625 8.078125 
Q 20.5625 6.890625 25.296875 6.890625 
Q 33.453125 6.890625 37.859375 11.1875 
Q 42.28125 15.484375 42.28125 23.390625 
Q 42.28125 31.203125 37.71875 35.546875 
Q 33.15625 39.890625 25 39.890625 
Q 21.046875 39.890625 17.28125 38.984375 
Q 13.53125 38.09375 10.109375 36.28125 
z
" id="DejaVuSansMono-53"/>
       </defs>
       <use xlink:href="#DejaVuSansMono-53"/>
       <use x="60.205078" xlink:href="#DejaVuSansMono-48"/>
       <use x="120.410156" xlink:href="#DejaVuSansMono-48"/>
      </g>
     </g>
    </g>
    <g id="text_7">
     <!-- n -->
     <g transform="translate(243.283281 337.872187)scale(0.06 -0.06)">
      <defs>
       <path d="M 51.3125 33.890625 
L 51.3125 0 
L 42.28125 0 
L 42.28125 33.890625 
Q 42.28125 41.265625 39.6875 44.71875 
Q 37.109375 48.1875 31.59375 48.1875 
Q 25.296875 48.1875 21.890625 43.71875 
Q 18.5 39.265625 18.5 30.90625 
L 18.5 0 
L 9.515625 0 
L 9.515625 54.6875 
L 18.5 54.6875 
L 18.5 46.484375 
Q 20.90625 51.171875 25 53.578125 
Q 29.109375 56 34.71875 56 
Q 43.0625 56 47.1875 50.5 
Q 51.3125 45.015625 51.3125 33.890625 
z
" id="DejaVuSansMono-110"/>
      </defs>
      <use xlink:href="#DejaVuSansMono-110"/>
     </g>
    </g>
   </g>
   <g id="matplotlib.axis_2">
    <g id="ytick_1">
     <g id="line2d_7">
      <defs>
       <path d="M 0 0 
L -3.5 0 
" id="mf199f561ea" style="stroke:#000000;stroke-width:0.8;"/>
      </defs>
      <g>
       <use style="stroke:#000000;stroke-width:0.8;" x="35.85875" xlink:href="#mf199f561ea" y="278.641941"/>
      </g>
     </g>
     <g id="text_8">
      <!-- $\mathdefault{10^{1}}$ -->
      <g transform="translate(18.83875 280.93741)scale(0.06 -0.06)">
       <use transform="translate(0 0.684375)" xlink:href="#DejaVuSansMono-49"/>
       <use transform="translate(60.205078 0.684375)" xlink:href="#DejaVuSansMono-48"/>
       <use transform="translate(121.367188 38.965625)scale(0.7)" xlink:href="#DejaVuSansMono-49"/>
      </g>
     </g>
    </g>
    <g id="ytick_2">
     <g id="line2d_8">
      <g>
       <use style="stroke:#000000;stroke-width:0.8;" x="35.85875" xlink:href="#mf199f561ea" y="230.172948"/>
      </g>
     </g>
     <g id="text_9">
      <!-- $\mathdefault{10^{3}}$ -->
      <g transform="translate(18.83875 232.468417)scale(0.06 -0.06)">
       <use transform="translate(0 0.765625)" xlink:href="#DejaVuSansMono-49"/>
       <use transform="translate(60.205078 0.765625)" xlink:href="#DejaVuSansMono-48"/>
       <use transform="translate(121.367188 39.046875)scale(0.7)" xlink:href="#DejaVuSansMono-51"/>
      </g>
     </g>
    </g>
    <g id="ytick_3">
     <g id="line2d_9">
      <g>
       <use style="stroke:#000000;stroke-width:0.8;" x="35.85875" xlink:href="#mf199f561ea" y="181.703955"/>
      </g>
     </g>
     <g id="text_10">
      <!-- $\mathdefault{10^{5}}$ -->
      <g transform="translate(18.83875 183.999424)scale(0.06 -0.06)">
       <use transform="translate(0 0.684375)" xlink:href="#DejaVuSansMono-49"/>
       <use transform="translate(60.205078 0.684375)" xlink:href="#DejaVuSansMono-48"/>
       <use transform="translate(121.367188 38.965625)scale(0.7)" xlink:href="#DejaVuSansMono-53"/>
      </g>
     </g>
    </g>
    <g id="ytick_4">
     <g id="line2d_10">
      <g>
       <use style="stroke:#000000;stroke-width:0.8;" x="35.85875" xlink:href="#mf199f561ea" y="133.234962"/>
      </g>
     </g>
     <g id="text_11">
      <!-- $\mathdefault{10^{7}}$ -->
      <g transform="translate(18.83875 135.53043)scale(0.06 -0.06)">
       <defs>
        <path d="M 6.78125 72.90625 
L 52.6875 72.90625 
L 52.6875 68.703125 
L 26.609375 0 
L 16.3125 0 
L 41.703125 64.59375 
L 6.78125 64.59375 
z
" id="DejaVuSansMono-55"/>
       </defs>
       <use transform="translate(0 0.684375)" xlink:href="#DejaVuSansMono-49"/>
       <use transform="translate(60.205078 0.684375)" xlink:href="#DejaVuSansMono-48"/>
       <use transform="translate(121.367188 38.965625)scale(0.7)" xlink:href="#DejaVuSansMono-55"/>
      </g>
     </g>
    </g>
    <g id="ytick_5">
     <g id="line2d_11">
      <g>
       <use style="stroke:#000000;stroke-width:0.8;" x="35.85875" xlink:href="#mf199f561ea" y="84.765969"/>
      </g>
     </g>
     <g id="text_12">
      <!-- $\mathdefault{10^{9}}$ -->
      <g transform="translate(18.83875 87.061437)scale(0.06 -0.06)">
       <defs>
        <path d="M 29.109375 32.328125 
Q 35.40625 32.328125 38.984375 36.859375 
Q 42.578125 41.40625 42.578125 49.421875 
Q 42.578125 57.421875 38.984375 61.953125 
Q 35.40625 66.5 29.109375 66.5 
Q 22.5625 66.5 19.234375 62.171875 
Q 15.921875 57.859375 15.921875 49.421875 
Q 15.921875 40.921875 19.21875 36.625 
Q 22.515625 32.328125 29.109375 32.328125 
z
M 11.53125 1.515625 
L 11.53125 10.59375 
Q 14.59375 8.796875 18.0625 7.84375 
Q 21.53125 6.890625 25.296875 6.890625 
Q 34.671875 6.890625 39.46875 13.9375 
Q 44.28125 21 44.28125 34.71875 
Q 42 29.828125 37.84375 27.21875 
Q 33.6875 24.609375 28.328125 24.609375 
Q 17.78125 24.609375 11.984375 31.09375 
Q 6.203125 37.59375 6.203125 49.515625 
Q 6.203125 61.28125 12.125 67.75 
Q 18.0625 74.21875 28.90625 74.21875 
Q 41.609375 74.21875 47.515625 65.078125 
Q 53.421875 55.953125 53.421875 36.375 
Q 53.421875 17.96875 46.3125 8.265625 
Q 39.203125 -1.421875 25.6875 -1.421875 
Q 22.125 -1.421875 18.5 -0.65625 
Q 14.890625 0.09375 11.53125 1.515625 
z
" id="DejaVuSansMono-57"/>
       </defs>
       <use transform="translate(0 0.765625)" xlink:href="#DejaVuSansMono-49"/>
       <use transform="translate(60.205078 0.765625)" xlink:href="#DejaVuSansMono-48"/>
       <use transform="translate(121.367188 39.046875)scale(0.7)" xlink:href="#DejaVuSansMono-57"/>
      </g>
     </g>
    </g>
    <g id="ytick_6">
     <g id="line2d_12">
      <g>
       <use style="stroke:#000000;stroke-width:0.8;" x="35.85875" xlink:href="#mf199f561ea" y="36.296976"/>
      </g>
     </g>
     <g id="text_13">
      <!-- $\mathdefault{10^{11}}$ -->
      <g transform="translate(16.31875 38.592444)scale(0.06 -0.06)">
       <use transform="translate(0 0.684375)" xlink:href="#DejaVuSansMono-49"/>
       <use transform="translate(60.205078 0.684375)" xlink:href="#DejaVuSansMono-48"/>
       <use transform="translate(121.367188 38.965625)scale(0.7)" xlink:href="#DejaVuSansMono-49"/>
       <use transform="translate(163.510742 38.965625)scale(0.7)" xlink:href="#DejaVuSansMono-49"/>
      </g>
     </g>
    </g>
    <g id="text_14">
     <!-- y_n -->
     <g transform="translate(10.904063 172.634094)rotate(-90)scale(0.06 -0.06)">
      <defs>
       <path d="M 41.890625 17.578125 
Q 39.65625 11.859375 36.1875 2.546875 
Q 31.34375 -10.359375 29.6875 -13.1875 
Q 27.4375 -17 24.0625 -18.890625 
Q 20.703125 -20.796875 16.21875 -20.796875 
L 8.984375 -20.796875 
L 8.984375 -13.28125 
L 14.3125 -13.28125 
Q 18.265625 -13.28125 20.5 -10.984375 
Q 22.75 -8.6875 26.21875 0.875 
L 5.078125 54.6875 
L 14.59375 54.6875 
L 30.8125 11.921875 
L 46.78125 54.6875 
L 56.296875 54.6875 
z
" id="DejaVuSansMono-121"/>
       <path d="M 60.203125 -19.671875 
L 60.203125 -23.578125 
L 0 -23.578125 
L 0 -19.671875 
z
" id="DejaVuSansMono-95"/>
      </defs>
      <use xlink:href="#DejaVuSansMono-121"/>
      <use x="60.205078" xlink:href="#DejaVuSansMono-95"/>
      <use x="120.410156" xlink:href="#DejaVuSansMono-110"/>
     </g>
    </g>
   </g>
   <g id="line2d_13">
    <path clip-path="url(#p1a24834fdf)" d="M 54.879716 150.232941 
L 55.563923 138.670146 
L 56.248131 145.965456 
L 56.932338 134.402661 
L 58.300753 148.993282 
L 58.98496 137.430487 
L 59.669168 144.725798 
L 60.353375 133.163003 
L 61.72179 147.753624 
L 62.405997 136.190829 
L 63.090205 143.48614 
L 63.774412 131.923345 
L 64.45862 139.218656 
L 65.142827 127.655862 
L 65.827034 134.951172 
L 66.511242 123.388378 
L 67.195449 130.683689 
L 67.879657 119.120895 
L 69.248071 133.711516 
L 69.932279 122.148722 
L 70.616486 129.444032 
L 71.300694 117.881239 
L 71.984901 125.176549 
L 72.669108 113.613755 
L 73.353316 120.909066 
L 74.037523 109.346272 
L 74.721731 116.641583 
L 75.405938 105.078789 
L 76.090146 112.3741 
L 76.774353 100.811306 
L 78.826975 122.697237 
L 79.511183 111.134444 
L 80.19539 118.429754 
L 80.879597 106.866961 
L 83.616427 136.048202 
L 84.300634 124.485408 
L 84.984842 131.780719 
L 85.669049 120.217925 
L 87.721671 142.103856 
L 88.405879 130.541062 
L 89.090086 137.836372 
L 89.774294 126.273579 
L 90.458501 133.568889 
L 91.142708 122.006095 
L 91.826916 129.301406 
L 92.511123 117.738612 
L 93.879538 132.329233 
L 94.563746 120.766439 
L 95.247953 128.061749 
L 95.93216 116.498956 
L 96.616368 123.794266 
L 97.300575 112.231473 
L 97.984783 119.526783 
L 98.66899 107.963989 
L 100.037405 122.55461 
L 100.721612 110.991817 
L 101.40582 118.287127 
L 102.090027 106.724334 
L 102.774234 114.019644 
L 103.458442 102.456851 
L 104.142649 109.752161 
L 104.826857 98.189368 
L 105.511064 105.484678 
L 106.195271 93.921885 
L 106.879479 101.217195 
L 107.563686 89.654401 
L 108.932101 104.245022 
L 109.616308 92.682229 
L 110.984723 107.27285 
L 111.668931 95.710056 
L 112.353138 103.005367 
L 113.037345 91.442573 
L 113.721553 98.737884 
L 114.40576 87.17509 
L 115.774175 101.765711 
L 116.458383 90.202917 
L 117.14259 97.498228 
L 117.826797 85.935434 
L 118.511005 93.230745 
L 119.195212 81.667951 
L 120.563627 96.258572 
L 121.247834 84.695779 
L 121.932042 91.991089 
L 122.616249 80.428296 
L 123.300457 87.723606 
L 123.984664 76.160813 
L 126.721494 105.342054 
L 127.405701 93.779261 
L 128.089908 101.074571 
L 128.774116 89.511778 
L 129.458323 96.807088 
L 130.142531 85.244295 
L 130.826738 92.539605 
L 131.510945 80.976812 
L 132.195153 88.272122 
L 132.87936 76.709329 
L 133.563568 84.004639 
L 134.247775 72.441846 
L 134.931983 79.737156 
L 135.61619 68.174363 
L 136.300397 75.469673 
L 136.984605 63.90688 
L 137.668812 71.20219 
L 138.35302 59.639397 
L 139.037227 66.934707 
L 139.721434 55.371914 
L 140.405642 62.667224 
L 141.089849 51.104431 
L 141.774057 58.399741 
L 142.458264 46.836948 
L 143.142471 54.132258 
L 143.826679 42.569465 
L 145.195094 57.160086 
L 145.879301 45.597292 
L 147.247716 60.187913 
L 147.931923 48.62512 
L 148.616131 55.92043 
L 149.300338 44.357637 
L 149.984545 51.652947 
L 150.668753 40.090154 
L 151.35296 47.385464 
L 152.037168 35.822671 
L 152.721375 43.117981 
L 153.405582 31.555187 
L 156.142412 60.736429 
L 156.82662 49.173636 
L 157.510827 56.468946 
L 158.195034 44.906153 
L 158.879242 52.201463 
L 159.563449 40.63867 
L 160.247657 47.93398 
L 160.931864 36.371187 
L 161.616071 43.666497 
L 162.300279 32.103704 
L 165.037108 61.284945 
L 165.721316 49.722152 
L 167.773938 71.608083 
L 168.458145 60.04529 
L 169.142353 67.3406 
L 169.82656 55.777807 
L 171.194975 70.368427 
L 171.879182 58.805634 
L 172.56339 66.100944 
L 173.247597 54.538151 
L 174.616012 69.128772 
L 175.30022 57.565978 
L 175.984427 64.861289 
L 176.668634 53.298495 
L 178.037049 67.889116 
L 178.721257 56.326323 
L 180.773879 78.212254 
L 181.458086 66.64946 
L 183.510708 88.535392 
L 184.194916 76.972598 
L 184.879123 84.267909 
L 185.563331 72.705115 
L 188.30016 101.886357 
L 188.984368 90.323563 
L 191.03699 112.209494 
L 191.721197 100.646701 
L 192.405405 107.942011 
L 193.089612 96.379218 
L 193.773819 103.674528 
L 194.458027 92.111735 
L 195.826442 106.702356 
L 196.510649 95.139562 
L 198.563271 117.025494 
L 199.247479 105.4627 
L 201.984308 134.643942 
L 202.668516 123.081148 
L 206.77376 166.85301 
L 207.457968 155.290208 
L 208.826382 169.880829 
L 209.51059 158.318024 
L 210.879005 172.908645 
L 211.563212 161.345836 
L 212.247419 168.641147 
L 212.931627 157.078343 
L 214.300042 171.668964 
L 214.984249 160.106157 
L 216.352664 174.696778 
L 217.036871 163.133966 
L 217.721079 170.429277 
L 218.405286 158.866471 
L 219.089494 166.161782 
L 219.773701 154.59898 
L 221.142116 169.189601 
L 221.826323 157.626797 
L 222.510531 164.922107 
L 223.194738 153.359307 
L 225.931568 182.540548 
L 226.615775 170.977717 
L 227.299982 178.273027 
L 227.98419 166.710209 
L 228.668397 174.005519 
L 229.352605 162.442709 
L 230.721019 177.03333 
L 231.405227 165.470514 
L 232.773642 180.061134 
L 233.457849 168.498311 
L 235.510471 190.384242 
L 236.194679 178.821369 
L 236.878886 186.116679 
L 237.563094 174.553832 
L 238.931508 189.144453 
L 239.615716 177.581589 
L 240.299923 184.876899 
L 240.984131 173.314058 
L 244.405168 209.79061 
L 245.089375 198.227311 
L 245.773582 205.522621 
L 246.45779 193.959491 
L 247.141997 201.254801 
L 247.826205 189.691783 
L 251.247242 226.168335 
L 251.931449 214.603144 
L 252.615656 221.898454 
L 253.299864 210.334062 
L 253.984071 217.629373 
L 254.668279 206.065514 
L 256.720901 227.951445 
L 257.405108 216.385812 
L 258.089316 223.681122 
L 258.773523 212.116435 
L 260.826145 234.002367 
L 261.510353 222.434526 
L 262.19456 229.729837 
L 262.878768 218.16368 
L 263.562975 225.458991 
L 264.247182 213.893956 
L 266.299805 235.779887 
L 266.984012 224.211119 
L 267.668219 231.506429 
L 268.352427 219.939654 
L 269.720842 234.530275 
L 270.405049 222.962175 
L 274.510293 266.734038 
L 275.194501 255.058677 
L 275.878708 262.353988 
L 276.562916 250.716813 
L 277.247123 258.012123 
L 277.931331 246.400033 
L 278.615538 253.695343 
L 279.299745 242.099813 
L 279.983953 249.395123 
L 280.66816 237.810562 
L 282.036575 252.401183 
L 282.720782 240.809435 
L 284.089197 255.400056 
L 284.773405 243.79878 
L 285.457612 251.09409 
L 286.141819 239.50572 
L 287.510234 254.096341 
L 288.194442 242.499541 
L 288.878649 249.794852 
L 289.562856 238.209448 
L 290.247064 245.504759 
L 290.931271 233.926919 
L 292.299686 248.51754 
L 292.983893 236.934718 
L 293.668101 244.230028 
L 294.352308 232.653904 
L 295.036516 239.949214 
L 295.720723 228.377543 
L 296.404931 235.672853 
L 297.089138 224.104145 
L 298.457553 238.694766 
L 299.14176 227.124092 
L 301.194382 249.010023 
L 301.87859 237.426243 
L 302.562797 244.721553 
L 303.247005 233.144792 
L 303.931212 240.440102 
L 304.615419 228.868007 
L 305.983834 243.458628 
L 306.668042 231.883445 
L 307.352249 239.178755 
L 308.036456 227.60771 
L 309.404871 242.198331 
L 310.089079 230.624545 
L 310.773286 237.919856 
L 311.457493 226.349741 
L 312.141701 233.645051 
L 312.825908 222.077379 
L 313.510116 229.37269 
L 314.194323 217.806645 
L 314.87853 225.101956 
L 315.562738 213.536996 
L 316.246945 220.832306 
L 316.931153 209.268068 
L 318.983775 231.154 
L 319.667982 219.587356 
L 320.35219 226.882666 
L 321.036397 215.317307 
L 321.720605 222.612617 
L 322.404812 211.048113 
L 323.089019 218.343424 
L 323.773227 206.77949 
L 326.510056 235.960732 
L 327.194264 224.39186 
L 328.562679 238.982481 
L 329.246886 227.411588 
L 330.615301 242.002209 
L 331.299508 230.428626 
L 334.036338 259.609868 
L 334.720545 247.989718 
L 336.773168 269.875649 
L 337.457375 258.161415 
L 338.141582 265.456726 
L 338.82579 253.79417 
L 339.509997 261.08948 
L 340.194205 249.460699 
L 343.615242 285.937251 
L 344.299449 273.695196 
L 347.036279 302.876437 
L 347.036279 302.876437 
" style="fill:none;stroke:#1f77b4;stroke-linecap:square;stroke-width:0.666667;"/>
   </g>
   <g id="line2d_14">
    <path clip-path="url(#p1a24834fdf)" d="M 54.879716 151.740034 
L 55.563923 140.177238 
L 56.248131 147.472549 
L 56.932338 135.909754 
L 57.616546 143.205064 
L 58.300753 131.64227 
L 58.98496 138.93758 
L 59.669168 127.374786 
L 60.353375 134.670097 
L 61.037583 123.107303 
L 61.72179 130.402613 
L 62.405997 118.83982 
L 63.090205 126.13513 
L 63.774412 114.572336 
L 65.142827 129.162957 
L 65.827034 117.600164 
L 67.195449 132.190784 
L 67.879657 120.627991 
L 68.563864 127.923301 
L 69.248071 116.360507 
L 69.932279 123.655818 
L 70.616486 112.093024 
L 71.984901 126.683645 
L 72.669108 115.120851 
L 73.353316 122.416162 
L 74.037523 110.853368 
L 75.405938 125.443989 
L 76.090146 113.881196 
L 76.774353 121.176506 
L 77.45856 109.613712 
L 78.142768 116.909023 
L 78.826975 105.346229 
L 79.511183 112.64154 
L 80.19539 101.078746 
L 80.879597 108.374057 
L 81.563805 96.811263 
L 82.248012 104.106574 
L 82.93222 92.54378 
L 85.669049 121.725022 
L 86.353257 110.162228 
L 88.405879 132.048159 
L 89.090086 120.485366 
L 89.774294 127.780676 
L 90.458501 116.217883 
L 91.142708 123.513193 
L 91.826916 111.950399 
L 92.511123 119.24571 
L 93.195331 107.682916 
L 94.563746 122.273537 
L 95.247953 110.710744 
L 96.616368 125.301364 
L 97.300575 113.738571 
L 98.66899 128.329192 
L 99.353197 116.766398 
L 100.037405 124.061708 
L 100.721612 112.498915 
L 101.40582 119.794225 
L 102.090027 108.231432 
L 103.458442 122.822052 
L 104.142649 111.259259 
L 104.826857 118.554569 
L 105.511064 106.991776 
L 107.563686 128.877707 
L 108.247894 117.314913 
L 109.616308 131.905534 
L 110.300516 120.34274 
L 110.984723 127.638051 
L 111.668931 116.075257 
L 112.353138 123.370568 
L 113.037345 111.807774 
L 113.721553 119.103084 
L 114.40576 107.540291 
L 115.089968 114.835601 
L 115.774175 103.272808 
L 116.458383 110.568118 
L 117.14259 99.005325 
L 118.511005 113.595946 
L 119.195212 102.033152 
L 119.87942 109.328463 
L 120.563627 97.765669 
L 121.247834 105.060979 
L 121.932042 93.498186 
L 123.984664 115.384117 
L 124.668871 103.821324 
L 125.353079 111.116634 
L 126.037286 99.553841 
L 126.721494 106.849151 
L 127.405701 95.286358 
L 128.089908 102.581668 
L 128.774116 91.018875 
L 129.458323 98.314185 
L 130.142531 86.751392 
L 131.510945 101.342012 
L 132.195153 89.779219 
L 132.87936 97.074529 
L 133.563568 85.511736 
L 134.247775 92.807046 
L 134.931983 81.244253 
L 135.61619 88.539563 
L 136.300397 76.97677 
L 136.984605 84.27208 
L 137.668812 72.709287 
L 138.35302 80.004597 
L 139.037227 68.441804 
L 139.721434 75.737114 
L 140.405642 64.174321 
L 141.089849 71.469631 
L 141.774057 59.906838 
L 142.458264 67.202148 
L 143.142471 55.639355 
L 143.826679 62.934665 
L 144.510886 51.371872 
L 148.616131 95.143734 
L 149.300338 83.580941 
L 150.668753 98.171562 
L 151.35296 86.608768 
L 152.037168 93.904079 
L 152.721375 82.341285 
L 153.405582 89.636596 
L 154.08979 78.073802 
L 154.773997 85.369113 
L 155.458205 73.806319 
L 157.510827 95.69225 
L 158.195034 84.129457 
L 159.563449 98.720078 
L 160.247657 87.157284 
L 160.931864 94.452595 
L 161.616071 82.889801 
L 162.300279 90.185112 
L 162.984486 78.622318 
L 163.668694 85.917629 
L 164.352901 74.354835 
L 165.721316 88.945456 
L 166.405523 77.382663 
L 167.773938 91.973283 
L 168.458145 80.41049 
L 169.142353 87.7058 
L 169.82656 76.143007 
L 171.879182 98.028938 
L 172.56339 86.466145 
L 173.931805 101.056765 
L 174.616012 89.493972 
L 175.30022 96.789282 
L 175.984427 85.226489 
L 176.668634 92.521799 
L 177.352842 80.959006 
L 178.037049 88.254316 
L 178.721257 76.691523 
L 179.405464 83.986833 
L 180.089671 72.42404 
L 180.773879 79.71935 
L 181.458086 68.156557 
L 182.142294 75.451867 
L 182.826501 63.889074 
L 184.194916 78.479695 
L 184.879123 66.916901 
L 186.247538 81.507522 
L 186.931745 69.944729 
L 187.615953 77.240039 
L 188.30016 65.677246 
L 188.984368 72.972556 
L 189.668575 61.409763 
L 190.352782 68.705073 
L 191.03699 57.14228 
L 191.721197 64.43759 
L 192.405405 52.874797 
L 193.089612 60.170107 
L 193.773819 48.607314 
L 194.458027 55.902624 
L 195.142234 44.339831 
L 196.510649 58.930451 
L 197.194857 47.367658 
L 198.563271 61.958279 
L 199.247479 50.395485 
L 201.984308 79.576727 
L 202.668516 68.013934 
L 209.51059 140.967037 
L 210.194797 129.404243 
L 210.879005 136.699554 
L 211.563212 125.13676 
L 213.615834 147.022691 
L 214.300042 135.459896 
L 214.984249 142.755207 
L 215.668457 131.192412 
L 216.352664 138.487723 
L 217.036871 126.924929 
L 217.721079 134.220239 
L 218.405286 122.657445 
L 219.089494 129.952756 
L 219.773701 118.389962 
L 220.457908 125.685273 
L 221.142116 114.122479 
L 222.510531 128.7131 
L 223.194738 117.150306 
L 223.878945 124.445617 
L 224.563153 112.882823 
L 225.931568 127.473444 
L 226.615775 115.91065 
L 227.98419 130.501271 
L 228.668397 118.938477 
L 230.721019 140.824408 
L 231.405227 129.261614 
L 232.773642 143.852235 
L 233.457849 132.289441 
L 234.142056 139.584751 
L 234.826264 128.021957 
L 236.194679 142.612578 
L 236.878886 131.049784 
L 237.563094 138.345094 
L 238.247301 126.7823 
L 240.299923 148.668231 
L 240.984131 137.105436 
L 241.668338 144.400747 
L 242.352545 132.837952 
L 243.036753 140.133263 
L 243.72096 128.570469 
L 244.405168 135.865779 
L 245.089375 124.302985 
L 245.773582 131.598296 
L 246.45779 120.035502 
L 247.141997 127.330812 
L 247.826205 115.768019 
L 251.247242 152.244571 
L 251.931449 140.681775 
L 252.615656 147.977085 
L 253.299864 136.414291 
L 253.984071 143.709601 
L 254.668279 132.146807 
L 255.352486 139.442117 
L 256.036694 127.879323 
L 256.720901 135.174633 
L 257.405108 123.61184 
L 260.826145 160.088392 
L 261.510353 148.525594 
L 262.19456 155.820904 
L 262.878768 144.258108 
L 263.562975 151.553418 
L 264.247182 139.990623 
L 264.93139 147.285933 
L 265.615597 135.723138 
L 266.299805 143.018449 
L 266.984012 131.455654 
L 267.668219 138.750965 
L 268.352427 127.188171 
L 269.720842 141.778792 
L 270.405049 130.215997 
L 271.089256 137.511308 
L 271.773464 125.948514 
L 272.457671 133.243824 
L 273.141879 121.68103 
L 273.826086 128.976341 
L 274.510293 117.413547 
L 275.194501 124.708858 
L 275.878708 113.146064 
L 276.562916 120.441374 
L 277.247123 108.878581 
L 277.931331 116.173891 
L 278.615538 104.611098 
L 279.983953 119.201719 
L 280.66816 107.638925 
L 281.352368 114.934236 
L 282.036575 103.371442 
L 283.40499 117.962063 
L 284.089197 106.399269 
L 284.773405 113.69458 
L 285.457612 102.131786 
L 286.141819 109.427097 
L 286.826027 97.864303 
L 287.510234 105.159614 
L 288.194442 93.59682 
L 289.562856 108.187441 
L 290.247064 96.624648 
L 290.931271 103.919958 
L 291.615479 92.357165 
L 292.983893 106.947785 
L 293.668101 95.384992 
L 295.036516 109.975613 
L 295.720723 98.412819 
L 296.404931 105.70813 
L 297.089138 94.145336 
L 297.773345 101.440647 
L 298.457553 89.877853 
L 299.14176 97.173164 
L 299.825968 85.61037 
L 305.983834 151.268164 
L 306.668042 139.705368 
L 310.089079 176.18192 
L 310.773286 164.619106 
L 312.825908 186.505037 
L 313.510116 174.942189 
L 314.194323 182.237499 
L 314.87853 170.674669 
L 316.246945 185.265289 
L 316.931153 173.702447 
L 318.983775 195.588378 
L 319.667982 184.025453 
L 320.35219 191.320764 
L 321.036397 179.757883 
L 321.720605 187.053193 
L 322.404812 175.490342 
L 323.089019 182.785652 
L 323.773227 171.22282 
L 325.141642 185.81344 
L 325.825849 174.250595 
L 326.510056 181.545906 
L 327.194264 169.983078 
L 328.562679 184.573698 
L 329.246886 173.010859 
L 329.931093 180.306169 
L 330.615301 168.743345 
L 331.299508 176.038656 
L 331.983716 164.475842 
L 333.35213 179.066462 
L 334.036338 167.503642 
L 334.720545 174.798952 
L 335.404753 163.236141 
L 336.08896 170.531451 
L 336.773168 158.968645 
L 337.457375 166.263956 
L 338.141582 154.701154 
L 338.82579 161.996465 
L 339.509997 150.433666 
L 341.562619 172.319597 
L 342.246827 160.756789 
L 342.931034 168.0521 
L 343.615242 156.489297 
L 344.299449 163.784607 
L 344.983656 152.221807 
L 346.352071 166.812428 
L 347.036279 155.249626 
L 348.404693 169.840247 
L 349.088901 158.277442 
L 351.141523 180.163373 
L 351.82573 168.60055 
L 352.509938 175.89586 
L 353.194145 164.333046 
L 355.246767 186.218978 
L 355.930975 174.65613 
L 357.983597 196.542061 
L 358.667805 184.979124 
L 359.352012 192.274435 
L 360.036219 180.711546 
L 364.141464 224.483408 
L 364.825671 212.918571 
L 368.246708 249.395123 
L 368.930916 237.810562 
L 370.29933 252.401183 
L 370.983538 240.809435 
L 372.351953 255.400056 
L 373.03616 243.79878 
L 373.720367 251.09409 
L 374.404575 239.50572 
L 375.77299 254.096341 
L 376.457197 242.499541 
L 377.141405 249.794852 
L 377.825612 238.209448 
L 378.509819 245.504759 
L 379.194027 233.926919 
L 380.562442 248.51754 
L 381.246649 236.934718 
L 381.930856 244.230028 
L 382.615064 232.653904 
L 383.299271 239.949214 
L 383.983479 228.377543 
L 384.667686 235.672853 
L 385.351893 224.104145 
L 386.720308 238.694766 
L 387.404516 227.124092 
L 389.457138 249.010023 
L 390.141345 237.426243 
L 390.825553 244.721553 
L 391.50976 233.144792 
L 392.193967 240.440102 
L 392.878175 228.868007 
L 394.24659 243.458628 
L 394.930797 231.883445 
L 395.615004 239.178755 
L 396.299212 227.60771 
L 397.667627 242.198331 
L 398.351834 230.624545 
L 399.036042 237.919856 
L 399.720249 226.349741 
L 400.404456 233.645051 
L 401.088664 222.077379 
L 401.772871 229.37269 
L 402.457079 217.806645 
L 403.141286 225.101956 
L 403.825493 213.536996 
L 404.509701 220.832306 
L 405.193908 209.268068 
L 407.24653 231.154 
L 407.930738 219.587356 
L 408.614945 226.882666 
L 409.299153 215.317307 
L 409.98336 222.612617 
L 410.667567 211.048113 
L 411.351775 218.343424 
L 412.035982 206.77949 
L 414.772812 235.960732 
L 415.457019 224.39186 
L 416.825434 238.982481 
L 417.509642 227.411588 
L 418.878056 242.002209 
L 419.562264 230.428626 
L 422.299093 259.609868 
L 422.983301 247.989718 
L 425.035923 269.875649 
L 425.72013 258.161415 
L 426.404338 265.456726 
L 427.088545 253.79417 
L 427.772753 261.08948 
L 428.45696 249.460699 
L 431.877997 285.937251 
L 432.562204 273.695196 
L 435.299034 302.876437 
L 435.299034 302.876437 
" style="fill:none;stroke:#ff7f0e;stroke-linecap:square;stroke-width:0.666667;"/>
   </g>
   <g id="patch_3">
    <path d="M 35.85875 316.4425 
L 35.85875 17.989125 
" style="fill:none;stroke:#000000;stroke-linecap:square;stroke-linejoin:miter;stroke-width:0.8;"/>
   </g>
   <g id="patch_4">
    <path d="M 454.32 316.4425 
L 454.32 17.989125 
" style="fill:none;stroke:#000000;stroke-linecap:square;stroke-linejoin:miter;stroke-width:0.8;"/>
   </g>
   <g id="patch_5">
    <path d="M 35.85875 316.4425 
L 454.32 316.4425 
" style="fill:none;stroke:#000000;stroke-linecap:square;stroke-linejoin:miter;stroke-width:0.8;"/>
   </g>
   <g id="patch_6">
    <path d="M 35.85875 17.989125 
L 454.32 17.989125 
" style="fill:none;stroke:#000000;stroke-linecap:square;stroke-linejoin:miter;stroke-width:0.8;"/>
   </g>
   <g id="text_15">
    <!-- "3y+1" problem -->
    <g transform="translate(214.747 11.989125)scale(0.072 -0.072)">
     <defs>
      <path d="M 43.703125 72.90625 
L 43.703125 45.796875 
L 35.203125 45.796875 
L 35.203125 72.90625 
z
M 25 72.90625 
L 25 45.796875 
L 16.5 45.796875 
L 16.5 72.90625 
z
" id="DejaVuSansMono-34"/>
      <path d="M 34.1875 57.171875 
L 34.1875 35.5 
L 55.90625 35.5 
L 55.90625 27.203125 
L 34.1875 27.203125 
L 34.1875 5.515625 
L 25.984375 5.515625 
L 25.984375 27.203125 
L 4.296875 27.203125 
L 4.296875 35.5 
L 25.984375 35.5 
L 25.984375 57.171875 
z
" id="DejaVuSansMono-43"/>
      <path id="DejaVuSansMono-32"/>
      <path d="M 18.3125 6.890625 
L 18.3125 -20.796875 
L 9.28125 -20.796875 
L 9.28125 54.6875 
L 18.3125 54.6875 
L 18.3125 47.703125 
Q 20.5625 51.765625 24.296875 53.875 
Q 28.03125 56 32.90625 56 
Q 42.828125 56 48.46875 48.328125 
Q 54.109375 40.671875 54.109375 27.09375 
Q 54.109375 13.765625 48.4375 6.171875 
Q 42.78125 -1.421875 32.90625 -1.421875 
Q 27.9375 -1.421875 24.1875 0.703125 
Q 20.453125 2.828125 18.3125 6.890625 
z
M 44.671875 27.296875 
Q 44.671875 37.75 41.375 43.0625 
Q 38.09375 48.390625 31.59375 48.390625 
Q 25.046875 48.390625 21.671875 43.046875 
Q 18.3125 37.703125 18.3125 27.296875 
Q 18.3125 16.9375 21.671875 11.5625 
Q 25.046875 6.203125 31.59375 6.203125 
Q 38.09375 6.203125 41.375 11.515625 
Q 44.671875 16.84375 44.671875 27.296875 
z
" id="DejaVuSansMono-112"/>
      <path d="M 56.390625 43.40625 
Q 53.515625 45.65625 50.53125 46.671875 
Q 47.5625 47.703125 44 47.703125 
Q 35.59375 47.703125 31.140625 42.421875 
Q 26.703125 37.15625 26.703125 27.203125 
L 26.703125 0 
L 17.671875 0 
L 17.671875 54.6875 
L 26.703125 54.6875 
L 26.703125 44 
Q 28.953125 49.8125 33.609375 52.90625 
Q 38.28125 56 44.671875 56 
Q 48 56 50.875 55.171875 
Q 53.765625 54.34375 56.390625 52.59375 
z
" id="DejaVuSansMono-114"/>
      <path d="M 30.078125 48.390625 
Q 23.25 48.390625 19.734375 43.0625 
Q 16.21875 37.75 16.21875 27.296875 
Q 16.21875 16.890625 19.734375 11.546875 
Q 23.25 6.203125 30.078125 6.203125 
Q 36.96875 6.203125 40.484375 11.546875 
Q 44 16.890625 44 27.296875 
Q 44 37.75 40.484375 43.0625 
Q 36.96875 48.390625 30.078125 48.390625 
z
M 30.078125 56 
Q 41.453125 56 47.484375 48.625 
Q 53.515625 41.265625 53.515625 27.296875 
Q 53.515625 13.28125 47.5 5.921875 
Q 41.5 -1.421875 30.078125 -1.421875 
Q 18.703125 -1.421875 12.6875 5.921875 
Q 6.6875 13.28125 6.6875 27.296875 
Q 6.6875 41.265625 12.6875 48.625 
Q 18.703125 56 30.078125 56 
z
" id="DejaVuSansMono-111"/>
      <path d="M 44.828125 27.296875 
Q 44.828125 37.75 41.5 43.0625 
Q 38.1875 48.390625 31.6875 48.390625 
Q 25.140625 48.390625 21.765625 43.046875 
Q 18.40625 37.703125 18.40625 27.296875 
Q 18.40625 16.9375 21.765625 11.5625 
Q 25.140625 6.203125 31.6875 6.203125 
Q 38.1875 6.203125 41.5 11.515625 
Q 44.828125 16.84375 44.828125 27.296875 
z
M 18.40625 47.703125 
Q 20.5625 51.703125 24.34375 53.84375 
Q 28.125 56 33.109375 56 
Q 42.96875 56 48.625 48.40625 
Q 54.296875 40.828125 54.296875 27.484375 
Q 54.296875 13.96875 48.609375 6.265625 
Q 42.921875 -1.421875 33.015625 -1.421875 
Q 28.125 -1.421875 24.390625 0.703125 
Q 20.65625 2.828125 18.40625 6.890625 
L 18.40625 0 
L 9.421875 0 
L 9.421875 75.984375 
L 18.40625 75.984375 
z
" id="DejaVuSansMono-98"/>
      <path d="M 31.203125 19.828125 
Q 31.203125 13.765625 33.421875 10.6875 
Q 35.640625 7.625 39.984375 7.625 
L 50.484375 7.625 
L 50.484375 0 
L 39.109375 0 
Q 31.0625 0 26.640625 5.171875 
Q 22.21875 10.359375 22.21875 19.828125 
L 22.21875 69.484375 
L 7.8125 69.484375 
L 7.8125 76.515625 
L 31.203125 76.515625 
z
" id="DejaVuSansMono-108"/>
      <path d="M 54.296875 29.59375 
L 54.296875 25.203125 
L 15.375 25.203125 
L 15.375 24.90625 
Q 15.375 15.96875 20.03125 11.078125 
Q 24.703125 6.203125 33.203125 6.203125 
Q 37.5 6.203125 42.1875 7.5625 
Q 46.875 8.9375 52.203125 11.71875 
L 52.203125 2.78125 
Q 47.078125 0.6875 42.3125 -0.359375 
Q 37.546875 -1.421875 33.109375 -1.421875 
Q 20.359375 -1.421875 13.171875 6.21875 
Q 6 13.875 6 27.296875 
Q 6 40.375 13.03125 48.1875 
Q 20.0625 56 31.78125 56 
Q 42.234375 56 48.265625 48.921875 
Q 54.296875 41.84375 54.296875 29.59375 
z
M 45.3125 32.234375 
Q 45.125 40.140625 41.578125 44.265625 
Q 38.03125 48.390625 31.390625 48.390625 
Q 24.90625 48.390625 20.703125 44.09375 
Q 16.5 39.796875 15.71875 32.171875 
z
" id="DejaVuSansMono-101"/>
      <path d="M 33.015625 49.125 
Q 34.671875 52.640625 37.234375 54.3125 
Q 39.796875 56 43.40625 56 
Q 50 56 52.703125 50.890625 
Q 55.421875 45.796875 55.421875 31.6875 
L 55.421875 0 
L 47.21875 0 
L 47.21875 31.296875 
Q 47.21875 42.875 45.921875 45.671875 
Q 44.625 48.484375 41.21875 48.484375 
Q 37.3125 48.484375 35.859375 45.484375 
Q 34.421875 42.484375 34.421875 31.296875 
L 34.421875 0 
L 26.21875 0 
L 26.21875 31.296875 
Q 26.21875 43.015625 24.828125 45.75 
Q 23.4375 48.484375 19.828125 48.484375 
Q 16.265625 48.484375 14.875 45.484375 
Q 13.484375 42.484375 13.484375 31.296875 
L 13.484375 0 
L 5.328125 0 
L 5.328125 54.6875 
L 13.484375 54.6875 
L 13.484375 50 
Q 15.09375 52.9375 17.5 54.46875 
Q 19.921875 56 23 56 
Q 26.703125 56 29.171875 54.296875 
Q 31.640625 52.59375 33.015625 49.125 
z
" id="DejaVuSansMono-109"/>
     </defs>
     <use xlink:href="#DejaVuSansMono-34"/>
     <use x="60.205078" xlink:href="#DejaVuSansMono-51"/>
     <use x="120.410156" xlink:href="#DejaVuSansMono-121"/>
     <use x="180.615234" xlink:href="#DejaVuSansMono-43"/>
     <use x="240.820312" xlink:href="#DejaVuSansMono-49"/>
     <use x="301.025391" xlink:href="#DejaVuSansMono-34"/>
     <use x="361.230469" xlink:href="#DejaVuSansMono-32"/>
     <use x="421.435547" xlink:href="#DejaVuSansMono-112"/>
     <use x="481.640625" xlink:href="#DejaVuSansMono-114"/>
     <use x="541.845703" xlink:href="#DejaVuSansMono-111"/>
     <use x="602.050781" xlink:href="#DejaVuSansMono-98"/>
     <use x="662.255859" xlink:href="#DejaVuSansMono-108"/>
     <use x="722.460938" xlink:href="#DejaVuSansMono-101"/>
     <use x="782.666016" xlink:href="#DejaVuSansMono-109"/>
    </g>
   </g>
   <g id="legend_1">
    <g id="patch_7">
     <path d="M 355.064062 82.0095 
L 450.12 82.0095 
Q 451.32 82.0095 451.32 80.8095 
L 451.32 22.189125 
Q 451.32 20.989125 450.12 20.989125 
L 355.064062 20.989125 
Q 353.864062 20.989125 353.864062 22.189125 
L 353.864062 80.8095 
Q 353.864062 82.0095 355.064062 82.0095 
z
" style="fill:#ffffff;opacity:0.8;stroke:#cccccc;stroke-linejoin:miter;"/>
    </g>
    <g id="line2d_15">
     <path d="M 356.264062 36.889687 
L 368.264062 36.889687 
" style="fill:none;stroke:#1f77b4;stroke-linecap:square;stroke-width:0.666667;"/>
    </g>
    <g id="line2d_16"/>
    <g id="text_16">
     <!-- "Tallest": -->
     <g transform="translate(373.064062 27.980062)scale(0.06 -0.06)">
      <defs>
       <path d="M 2.296875 72.90625 
L 57.90625 72.90625 
L 57.90625 64.59375 
L 35.109375 64.59375 
L 35.109375 0 
L 25.203125 0 
L 25.203125 64.59375 
L 2.296875 64.59375 
z
" id="DejaVuSansMono-84"/>
       <path d="M 34.28125 27.484375 
L 31.296875 27.484375 
Q 23.4375 27.484375 19.453125 24.71875 
Q 15.484375 21.96875 15.484375 16.5 
Q 15.484375 11.578125 18.453125 8.84375 
Q 21.4375 6.109375 26.703125 6.109375 
Q 34.125 6.109375 38.375 11.25 
Q 42.625 16.40625 42.671875 25.484375 
L 42.671875 27.484375 
z
M 51.703125 31.203125 
L 51.703125 0 
L 42.671875 0 
L 42.671875 8.109375 
Q 39.796875 3.21875 35.421875 0.890625 
Q 31.0625 -1.421875 24.8125 -1.421875 
Q 16.453125 -1.421875 11.46875 3.296875 
Q 6.5 8.015625 6.5 15.921875 
Q 6.5 25.046875 12.625 29.78125 
Q 18.75 34.515625 30.609375 34.515625 
L 42.671875 34.515625 
L 42.671875 35.9375 
Q 42.625 42.484375 39.34375 45.4375 
Q 36.078125 48.390625 28.90625 48.390625 
Q 24.3125 48.390625 19.625 47.0625 
Q 14.9375 45.75 10.5 43.21875 
L 10.5 52.203125 
Q 15.484375 54.109375 20.046875 55.046875 
Q 24.609375 56 28.90625 56 
Q 35.6875 56 40.5 54 
Q 45.3125 52 48.296875 48 
Q 50.140625 45.5625 50.921875 41.96875 
Q 51.703125 38.375 51.703125 31.203125 
z
" id="DejaVuSansMono-97"/>
       <path d="M 47.515625 52.78125 
L 47.515625 44 
Q 43.65625 46.234375 39.75 47.359375 
Q 35.84375 48.484375 31.78125 48.484375 
Q 25.6875 48.484375 22.671875 46.5 
Q 19.671875 44.53125 19.671875 40.484375 
Q 19.671875 36.8125 21.921875 35 
Q 24.171875 33.203125 33.109375 31.5 
L 36.71875 30.8125 
Q 43.40625 29.546875 46.84375 25.734375 
Q 50.296875 21.921875 50.296875 15.828125 
Q 50.296875 7.71875 44.53125 3.140625 
Q 38.765625 -1.421875 28.515625 -1.421875 
Q 24.46875 -1.421875 20.015625 -0.5625 
Q 15.578125 0.296875 10.40625 2 
L 10.40625 11.28125 
Q 15.4375 8.6875 20.015625 7.390625 
Q 24.609375 6.109375 28.71875 6.109375 
Q 34.671875 6.109375 37.9375 8.515625 
Q 41.21875 10.9375 41.21875 15.28125 
Q 41.21875 21.53125 29.25 23.921875 
L 28.859375 24.03125 
L 25.484375 24.703125 
Q 17.71875 26.21875 14.15625 29.8125 
Q 10.59375 33.40625 10.59375 39.59375 
Q 10.59375 47.46875 15.90625 51.734375 
Q 21.234375 56 31.109375 56 
Q 35.5 56 39.546875 55.1875 
Q 43.609375 54.390625 47.515625 52.78125 
z
" id="DejaVuSansMono-115"/>
       <path d="M 29.984375 70.21875 
L 29.984375 54.6875 
L 50.390625 54.6875 
L 50.390625 47.703125 
L 29.984375 47.703125 
L 29.984375 18.015625 
Q 29.984375 11.96875 32.28125 9.5625 
Q 34.578125 7.171875 40.28125 7.171875 
L 50.390625 7.171875 
L 50.390625 0 
L 39.40625 0 
Q 29.296875 0 25.140625 4.046875 
Q 21 8.109375 21 18.015625 
L 21 47.703125 
L 6.390625 47.703125 
L 6.390625 54.6875 
L 21 54.6875 
L 21 70.21875 
z
" id="DejaVuSansMono-116"/>
       <path d="M 23.875 51.90625 
L 36.1875 51.90625 
L 36.1875 37.109375 
L 23.875 37.109375 
z
M 23.875 14.890625 
L 36.1875 14.890625 
L 36.1875 0 
L 23.875 0 
z
" id="DejaVuSansMono-58"/>
      </defs>
      <use xlink:href="#DejaVuSansMono-34"/>
      <use x="60.205078" xlink:href="#DejaVuSansMono-84"/>
      <use x="120.410156" xlink:href="#DejaVuSansMono-97"/>
      <use x="180.615234" xlink:href="#DejaVuSansMono-108"/>
      <use x="240.820312" xlink:href="#DejaVuSansMono-108"/>
      <use x="301.025391" xlink:href="#DejaVuSansMono-101"/>
      <use x="361.230469" xlink:href="#DejaVuSansMono-115"/>
      <use x="421.435547" xlink:href="#DejaVuSansMono-116"/>
      <use x="481.640625" xlink:href="#DejaVuSansMono-34"/>
      <use x="541.845703" xlink:href="#DejaVuSansMono-58"/>
     </g>
     <!-- y_0    = 1988859 -->
     <g transform="translate(373.064062 34.737)scale(0.06 -0.06)">
      <defs>
       <path d="M 4.296875 25.59375 
L 55.90625 25.59375 
L 55.90625 17.1875 
L 4.296875 17.1875 
z
M 4.296875 45.40625 
L 55.90625 45.40625 
L 55.90625 37.109375 
L 4.296875 37.109375 
z
" id="DejaVuSansMono-61"/>
       <path d="M 30.078125 34.625 
Q 23.484375 34.625 19.890625 30.9375 
Q 16.3125 27.25 16.3125 20.515625 
Q 16.3125 13.765625 19.9375 10.03125 
Q 23.578125 6.296875 30.078125 6.296875 
Q 36.71875 6.296875 40.296875 9.984375 
Q 43.890625 13.671875 43.890625 20.515625 
Q 43.890625 27.203125 40.25 30.90625 
Q 36.625 34.625 30.078125 34.625 
z
M 21.484375 38.71875 
Q 15.1875 40.328125 11.640625 44.71875 
Q 8.109375 49.125 8.109375 55.328125 
Q 8.109375 64.015625 14.015625 69.109375 
Q 19.921875 74.21875 30.078125 74.21875 
Q 40.28125 74.21875 46.1875 69.109375 
Q 52.09375 64.015625 52.09375 55.328125 
Q 52.09375 49.125 48.546875 44.71875 
Q 45.015625 40.328125 38.71875 38.71875 
Q 46.046875 37.109375 49.921875 32.21875 
Q 53.8125 27.34375 53.8125 19.578125 
Q 53.8125 9.71875 47.515625 4.140625 
Q 41.21875 -1.421875 30.078125 -1.421875 
Q 18.953125 -1.421875 12.671875 4.125 
Q 6.390625 9.671875 6.390625 19.484375 
Q 6.390625 27.296875 10.265625 32.203125 
Q 14.15625 37.109375 21.484375 38.71875 
z
M 17.921875 54.390625 
Q 17.921875 48.53125 21.046875 45.453125 
Q 24.171875 42.390625 30.078125 42.390625 
Q 36.03125 42.390625 39.15625 45.453125 
Q 42.28125 48.53125 42.28125 54.390625 
Q 42.28125 60.359375 39.171875 63.484375 
Q 36.078125 66.609375 30.078125 66.609375 
Q 24.171875 66.609375 21.046875 63.453125 
Q 17.921875 60.296875 17.921875 54.390625 
z
" id="DejaVuSansMono-56"/>
      </defs>
      <use xlink:href="#DejaVuSansMono-121"/>
      <use x="60.205078" xlink:href="#DejaVuSansMono-95"/>
      <use x="120.410156" xlink:href="#DejaVuSansMono-48"/>
      <use x="180.615234" xlink:href="#DejaVuSansMono-32"/>
      <use x="240.820312" xlink:href="#DejaVuSansMono-32"/>
      <use x="301.025391" xlink:href="#DejaVuSansMono-32"/>
      <use x="361.230469" xlink:href="#DejaVuSansMono-32"/>
      <use x="421.435547" xlink:href="#DejaVuSansMono-61"/>
      <use x="481.640625" xlink:href="#DejaVuSansMono-32"/>
      <use x="541.845703" xlink:href="#DejaVuSansMono-49"/>
      <use x="602.050781" xlink:href="#DejaVuSansMono-57"/>
      <use x="662.255859" xlink:href="#DejaVuSansMono-56"/>
      <use x="722.460938" xlink:href="#DejaVuSansMono-56"/>
      <use x="782.666016" xlink:href="#DejaVuSansMono-56"/>
      <use x="842.871094" xlink:href="#DejaVuSansMono-53"/>
      <use x="903.076172" xlink:href="#DejaVuSansMono-57"/>
     </g>
     <!-- y_max  = 156914378224 -->
     <g transform="translate(373.064062 41.660812)scale(0.06 -0.06)">
      <defs>
       <path d="M 54.59375 54.6875 
L 35.015625 28.515625 
L 56.5 0 
L 46.09375 0 
L 30.078125 21.921875 
L 14.109375 0 
L 3.71875 0 
L 25.203125 28.515625 
L 5.609375 54.6875 
L 15.578125 54.6875 
L 30.078125 34.90625 
L 44.484375 54.6875 
z
" id="DejaVuSansMono-120"/>
       <path d="M 48.390625 71.296875 
L 48.390625 62.203125 
Q 45.3125 64.015625 41.84375 64.96875 
Q 38.375 65.921875 34.625 65.921875 
Q 25.25 65.921875 20.40625 58.859375 
Q 15.578125 51.8125 15.578125 38.09375 
Q 17.921875 42.96875 22.0625 45.578125 
Q 26.21875 48.1875 31.59375 48.1875 
Q 42.140625 48.1875 47.921875 41.71875 
Q 53.71875 35.25 53.71875 23.390625 
Q 53.71875 11.578125 47.75 5.078125 
Q 41.796875 -1.421875 31 -1.421875 
Q 18.3125 -1.421875 12.40625 7.6875 
Q 6.5 16.796875 6.5 36.375 
Q 6.5 54.828125 13.59375 64.515625 
Q 20.703125 74.21875 34.1875 74.21875 
Q 37.796875 74.21875 41.40625 73.453125 
Q 45.015625 72.703125 48.390625 71.296875 
z
M 30.8125 40.484375 
Q 24.515625 40.484375 20.890625 35.9375 
Q 17.28125 31.390625 17.28125 23.390625 
Q 17.28125 15.375 20.890625 10.828125 
Q 24.515625 6.296875 30.8125 6.296875 
Q 37.359375 6.296875 40.671875 10.609375 
Q 44 14.9375 44 23.390625 
Q 44 31.890625 40.671875 36.1875 
Q 37.359375 40.484375 30.8125 40.484375 
z
" id="DejaVuSansMono-54"/>
      </defs>
      <use xlink:href="#DejaVuSansMono-121"/>
      <use x="60.205078" xlink:href="#DejaVuSansMono-95"/>
      <use x="120.410156" xlink:href="#DejaVuSansMono-109"/>
      <use x="180.615234" xlink:href="#DejaVuSansMono-97"/>
      <use x="240.820312" xlink:href="#DejaVuSansMono-120"/>
      <use x="301.025391" xlink:href="#DejaVuSansMono-32"/>
      <use x="361.230469" xlink:href="#DejaVuSansMono-32"/>
      <use x="421.435547" xlink:href="#DejaVuSansMono-61"/>
      <use x="481.640625" xlink:href="#DejaVuSansMono-32"/>
      <use x="541.845703" xlink:href="#DejaVuSansMono-49"/>
      <use x="602.050781" xlink:href="#DejaVuSansMono-53"/>
      <use x="662.255859" xlink:href="#DejaVuSansMono-54"/>
      <use x="722.460938" xlink:href="#DejaVuSansMono-57"/>
      <use x="782.666016" xlink:href="#DejaVuSansMono-49"/>
      <use x="842.871094" xlink:href="#DejaVuSansMono-52"/>
      <use x="903.076172" xlink:href="#DejaVuSansMono-51"/>
      <use x="963.28125" xlink:href="#DejaVuSansMono-55"/>
      <use x="1023.486328" xlink:href="#DejaVuSansMono-56"/>
      <use x="1083.691406" xlink:href="#DejaVuSansMono-50"/>
      <use x="1143.896484" xlink:href="#DejaVuSansMono-50"/>
      <use x="1204.101562" xlink:href="#DejaVuSansMono-52"/>
     </g>
     <!-- x_max  = 428 -->
     <g transform="translate(373.064062 48.584625)scale(0.06 -0.06)">
      <use xlink:href="#DejaVuSansMono-120"/>
      <use x="60.205078" xlink:href="#DejaVuSansMono-95"/>
      <use x="120.410156" xlink:href="#DejaVuSansMono-109"/>
      <use x="180.615234" xlink:href="#DejaVuSansMono-97"/>
      <use x="240.820312" xlink:href="#DejaVuSansMono-120"/>
      <use x="301.025391" xlink:href="#DejaVuSansMono-32"/>
      <use x="361.230469" xlink:href="#DejaVuSansMono-32"/>
      <use x="421.435547" xlink:href="#DejaVuSansMono-61"/>
      <use x="481.640625" xlink:href="#DejaVuSansMono-32"/>
      <use x="541.845703" xlink:href="#DejaVuSansMono-52"/>
      <use x="602.050781" xlink:href="#DejaVuSansMono-50"/>
      <use x="662.255859" xlink:href="#DejaVuSansMono-56"/>
     </g>
    </g>
    <g id="line2d_17">
     <path d="M 356.264062 66.499875 
L 368.264062 66.499875 
" style="fill:none;stroke:#ff7f0e;stroke-linecap:square;stroke-width:0.666667;"/>
    </g>
    <g id="line2d_18"/>
    <g id="text_17">
     <!-- "Widest":  -->
     <g transform="translate(373.064062 57.59025)scale(0.06 -0.06)">
      <defs>
       <path d="M 0 72.90625 
L 9.625 72.90625 
L 16.609375 13.71875 
L 24.90625 52.875 
L 35.203125 52.875 
L 43.609375 13.625 
L 50.59375 72.90625 
L 60.203125 72.90625 
L 49.3125 0 
L 39.984375 0 
L 30.078125 43.3125 
L 20.21875 0 
L 10.890625 0 
z
" id="DejaVuSansMono-87"/>
       <path d="M 12.5 54.6875 
L 35.5 54.6875 
L 35.5 6.984375 
L 53.328125 6.984375 
L 53.328125 0 
L 8.6875 0 
L 8.6875 6.984375 
L 26.515625 6.984375 
L 26.515625 47.703125 
L 12.5 47.703125 
z
M 26.515625 75.984375 
L 35.5 75.984375 
L 35.5 64.59375 
L 26.515625 64.59375 
z
" id="DejaVuSansMono-105"/>
       <path d="M 41.890625 47.703125 
L 41.890625 75.984375 
L 50.875 75.984375 
L 50.875 0 
L 41.890625 0 
L 41.890625 6.890625 
Q 39.65625 2.828125 35.90625 0.703125 
Q 32.171875 -1.421875 27.296875 -1.421875 
Q 17.390625 -1.421875 11.6875 6.265625 
Q 6 13.96875 6 27.484375 
Q 6 40.828125 11.71875 48.40625 
Q 17.4375 56 27.296875 56 
Q 32.234375 56 35.984375 53.875 
Q 39.75 51.765625 41.890625 47.703125 
z
M 15.484375 27.296875 
Q 15.484375 16.84375 18.796875 11.515625 
Q 22.125 6.203125 28.609375 6.203125 
Q 35.109375 6.203125 38.5 11.5625 
Q 41.890625 16.9375 41.890625 27.296875 
Q 41.890625 37.703125 38.5 43.046875 
Q 35.109375 48.390625 28.609375 48.390625 
Q 22.125 48.390625 18.796875 43.0625 
Q 15.484375 37.75 15.484375 27.296875 
z
" id="DejaVuSansMono-100"/>
      </defs>
      <use xlink:href="#DejaVuSansMono-34"/>
      <use x="60.205078" xlink:href="#DejaVuSansMono-87"/>
      <use x="120.410156" xlink:href="#DejaVuSansMono-105"/>
      <use x="180.615234" xlink:href="#DejaVuSansMono-100"/>
      <use x="240.820312" xlink:href="#DejaVuSansMono-101"/>
      <use x="301.025391" xlink:href="#DejaVuSansMono-115"/>
      <use x="361.230469" xlink:href="#DejaVuSansMono-116"/>
      <use x="421.435547" xlink:href="#DejaVuSansMono-34"/>
      <use x="481.640625" xlink:href="#DejaVuSansMono-58"/>
      <use x="541.845703" xlink:href="#DejaVuSansMono-32"/>
     </g>
     <!-- y_0    = 1723519 -->
     <g transform="translate(373.064062 64.347187)scale(0.06 -0.06)">
      <use xlink:href="#DejaVuSansMono-121"/>
      <use x="60.205078" xlink:href="#DejaVuSansMono-95"/>
      <use x="120.410156" xlink:href="#DejaVuSansMono-48"/>
      <use x="180.615234" xlink:href="#DejaVuSansMono-32"/>
      <use x="240.820312" xlink:href="#DejaVuSansMono-32"/>
      <use x="301.025391" xlink:href="#DejaVuSansMono-32"/>
      <use x="361.230469" xlink:href="#DejaVuSansMono-32"/>
      <use x="421.435547" xlink:href="#DejaVuSansMono-61"/>
      <use x="481.640625" xlink:href="#DejaVuSansMono-32"/>
      <use x="541.845703" xlink:href="#DejaVuSansMono-49"/>
      <use x="602.050781" xlink:href="#DejaVuSansMono-55"/>
      <use x="662.255859" xlink:href="#DejaVuSansMono-50"/>
      <use x="722.460938" xlink:href="#DejaVuSansMono-51"/>
      <use x="782.666016" xlink:href="#DejaVuSansMono-53"/>
      <use x="842.871094" xlink:href="#DejaVuSansMono-49"/>
      <use x="903.076172" xlink:href="#DejaVuSansMono-57"/>
     </g>
     <!-- y_max  = 46571871940 -->
     <g transform="translate(373.064062 71.271)scale(0.06 -0.06)">
      <use xlink:href="#DejaVuSansMono-121"/>
      <use x="60.205078" xlink:href="#DejaVuSansMono-95"/>
      <use x="120.410156" xlink:href="#DejaVuSansMono-109"/>
      <use x="180.615234" xlink:href="#DejaVuSansMono-97"/>
      <use x="240.820312" xlink:href="#DejaVuSansMono-120"/>
      <use x="301.025391" xlink:href="#DejaVuSansMono-32"/>
      <use x="361.230469" xlink:href="#DejaVuSansMono-32"/>
      <use x="421.435547" xlink:href="#DejaVuSansMono-61"/>
      <use x="481.640625" xlink:href="#DejaVuSansMono-32"/>
      <use x="541.845703" xlink:href="#DejaVuSansMono-52"/>
      <use x="602.050781" xlink:href="#DejaVuSansMono-54"/>
      <use x="662.255859" xlink:href="#DejaVuSansMono-53"/>
      <use x="722.460938" xlink:href="#DejaVuSansMono-55"/>
      <use x="782.666016" xlink:href="#DejaVuSansMono-49"/>
      <use x="842.871094" xlink:href="#DejaVuSansMono-56"/>
      <use x="903.076172" xlink:href="#DejaVuSansMono-55"/>
      <use x="963.28125" xlink:href="#DejaVuSansMono-49"/>
      <use x="1023.486328" xlink:href="#DejaVuSansMono-57"/>
      <use x="1083.691406" xlink:href="#DejaVuSansMono-52"/>
      <use x="1143.896484" xlink:href="#DejaVuSansMono-48"/>
     </g>
     <!-- x_max  = 557 -->
     <g transform="translate(373.064062 78.194812)scale(0.06 -0.06)">
      <use xlink:href="#DejaVuSansMono-120"/>
      <use x="60.205078" xlink:href="#DejaVuSansMono-95"/>
      <use x="120.410156" xlink:href="#DejaVuSansMono-109"/>
      <use x="180.615234" xlink:href="#DejaVuSansMono-97"/>
      <use x="240.820312" xlink:href="#DejaVuSansMono-120"/>
      <use x="301.025391" xlink:href="#DejaVuSansMono-32"/>
      <use x="361.230469" xlink:href="#DejaVuSansMono-32"/>
      <use x="421.435547" xlink:href="#DejaVuSansMono-61"/>
      <use x="481.640625" xlink:href="#DejaVuSansMono-32"/>
      <use x="541.845703" xlink:href="#DejaVuSansMono-53"/>
      <use x="602.050781" xlink:href="#DejaVuSansMono-53"/>
      <use x="662.255859" xlink:href="#DejaVuSansMono-55"/>
     </g>
    </g>
   </g>
  </g>
 </g>
 <defs>
  <clipPath id="p1a24834fdf">
   <rect height="298.453375" width="418.46125" x="35.85875" y="17.989125"/>
  </clipPath>
 </defs>
</svg>
