<?xml version="1.0" encoding="utf-8" standalone="no"?>
<!DOCTYPE svg PUBLIC "-//W3C//DTD SVG 1.1//EN"
  "http://www.w3.org/Graphics/SVG/1.1/DTD/svg11.dtd">
<!-- Created with matplotlib (https://matplotlib.org/) -->
<svg height="345.6pt" version="1.1" viewBox="0 0 460.8 345.6" width="460.8pt" xmlns="http://www.w3.org/2000/svg" xmlns:xlink="http://www.w3.org/1999/xlink">
 <metadata>
  <rdf:RDF xmlns:cc="http://creativecommons.org/ns#" xmlns:dc="http://purl.org/dc/elements/1.1/" xmlns:rdf="http://www.w3.org/1999/02/22-rdf-syntax-ns#">
   <cc:Work>
    <dc:type rdf:resource="http://purl.org/dc/dcmitype/StillImage"/>
    <dc:date>2022-03-17T00:33:51.296520</dc:date>
    <dc:format>image/svg+xml</dc:format>
    <dc:creator>
     <cc:Agent>
      <dc:title>Matplotlib v3.3.2, https://matplotlib.org/</dc:title>
     </cc:Agent>
    </dc:creator>
   </cc:Work>
  </rdf:RDF>
 </metadata>
 <defs>
  <style type="text/css">*{stroke-linecap:butt;stroke-linejoin:round;}</style>
 </defs>
 <g id="figure_1">
  <g id="patch_1">
   <path d="M 0 345.6 
L 460.8 345.6 
L 460.8 0 
L 0 0 
z
" style="fill:#ffffff;"/>
  </g>
  <g id="axes_1">
   <g id="patch_2">
    <path d="M 35.85875 316.4425 
L 454.32 316.4425 
L 454.32 17.989125 
L 35.85875 17.989125 
z
" style="fill:#ffffff;"/>
   </g>
   <g id="matplotlib.axis_1">
    <g id="xtick_1">
     <g id="line2d_1">
      <defs>
       <path d="M 0 0 
L 0 3.5 
" id="m8dfe043227" style="stroke:#000000;stroke-width:0.8;"/>
      </defs>
      <g>
       <use style="stroke:#000000;stroke-width:0.8;" x="54.879716" xlink:href="#m8dfe043227" y="316.4425"/>
      </g>
     </g>
     <g id="text_1">
      <!-- 0 -->
      <g transform="translate(53.073622 328.033437)scale(0.06 -0.06)">
       <defs>
        <path d="M 23.578125 36.625 
Q 23.578125 39.3125 25.453125 41.265625 
Q 27.34375 43.21875 29.984375 43.21875 
Q 32.71875 43.21875 34.671875 41.265625 
Q 36.625 39.3125 36.625 36.625 
Q 36.625 33.890625 34.6875 31.984375 
Q 32.765625 30.078125 29.984375 30.078125 
Q 27.25 30.078125 25.40625 31.9375 
Q 23.578125 33.796875 23.578125 36.625 
z
M 30.078125 66.40625 
Q 23.1875 66.40625 19.796875 58.984375 
Q 16.40625 51.5625 16.40625 36.375 
Q 16.40625 21.234375 19.796875 13.8125 
Q 23.1875 6.390625 30.078125 6.390625 
Q 37.015625 6.390625 40.40625 13.8125 
Q 43.796875 21.234375 43.796875 36.375 
Q 43.796875 51.5625 40.40625 58.984375 
Q 37.015625 66.40625 30.078125 66.40625 
z
M 30.078125 74.21875 
Q 41.75 74.21875 47.734375 64.640625 
Q 53.71875 55.078125 53.71875 36.375 
Q 53.71875 17.71875 47.734375 8.140625 
Q 41.75 -1.421875 30.078125 -1.421875 
Q 18.40625 -1.421875 12.453125 8.140625 
Q 6.5 17.71875 6.5 36.375 
Q 6.5 55.078125 12.453125 64.640625 
Q 18.40625 74.21875 30.078125 74.21875 
z
" id="DejaVuSansMono-48"/>
       </defs>
       <use xlink:href="#DejaVuSansMono-48"/>
      </g>
     </g>
    </g>
    <g id="xtick_2">
     <g id="line2d_2">
      <g>
       <use style="stroke:#000000;stroke-width:0.8;" x="110.415383" xlink:href="#m8dfe043227" y="316.4425"/>
      </g>
     </g>
     <g id="text_2">
      <!-- 100 -->
      <g transform="translate(104.997102 328.033437)scale(0.06 -0.06)">
       <defs>
        <path d="M 13.1875 8.296875 
L 28.515625 8.296875 
L 28.515625 64.015625 
L 12.015625 60.296875 
L 12.015625 69.28125 
L 28.421875 72.90625 
L 38.28125 72.90625 
L 38.28125 8.296875 
L 53.421875 8.296875 
L 53.421875 0 
L 13.1875 0 
z
" id="DejaVuSansMono-49"/>
       </defs>
       <use xlink:href="#DejaVuSansMono-49"/>
       <use x="60.205078" xlink:href="#DejaVuSansMono-48"/>
       <use x="120.410156" xlink:href="#DejaVuSansMono-48"/>
      </g>
     </g>
    </g>
    <g id="xtick_3">
     <g id="line2d_3">
      <g>
       <use style="stroke:#000000;stroke-width:0.8;" x="165.95105" xlink:href="#m8dfe043227" y="316.4425"/>
      </g>
     </g>
     <g id="text_3">
      <!-- 200 -->
      <g transform="translate(160.532768 328.033437)scale(0.06 -0.06)">
       <defs>
        <path d="M 18.21875 8.296875 
L 51.703125 8.296875 
L 51.703125 0 
L 7.421875 0 
L 7.421875 8.296875 
Q 16.546875 17.921875 23.375 25.296875 
Q 30.21875 32.671875 32.8125 35.6875 
Q 37.703125 41.65625 39.40625 45.34375 
Q 41.109375 49.03125 41.109375 52.875 
Q 41.109375 58.984375 37.515625 62.453125 
Q 33.9375 65.921875 27.6875 65.921875 
Q 23.25 65.921875 18.359375 64.3125 
Q 13.484375 62.703125 8.015625 59.421875 
L 8.015625 69.390625 
Q 13.03125 71.78125 17.890625 73 
Q 22.75 74.21875 27.484375 74.21875 
Q 38.1875 74.21875 44.703125 68.53125 
Q 51.21875 62.84375 51.21875 53.609375 
Q 51.21875 48.921875 49.046875 44.234375 
Q 46.875 39.546875 42 33.890625 
Q 39.265625 30.71875 34.0625 25.09375 
Q 28.859375 19.484375 18.21875 8.296875 
z
" id="DejaVuSansMono-50"/>
       </defs>
       <use xlink:href="#DejaVuSansMono-50"/>
       <use x="60.205078" xlink:href="#DejaVuSansMono-48"/>
       <use x="120.410156" xlink:href="#DejaVuSansMono-48"/>
      </g>
     </g>
    </g>
    <g id="xtick_4">
     <g id="line2d_4">
      <g>
       <use style="stroke:#000000;stroke-width:0.8;" x="221.486717" xlink:href="#m8dfe043227" y="316.4425"/>
      </g>
     </g>
     <g id="text_4">
      <!-- 300 -->
      <g transform="translate(216.068435 328.033437)scale(0.06 -0.06)">
       <defs>
        <path d="M 37.890625 39.015625 
Q 45.0625 37.109375 48.875 32.25 
Q 52.6875 27.390625 52.6875 20.125 
Q 52.6875 10.0625 45.921875 4.3125 
Q 39.15625 -1.421875 27.203125 -1.421875 
Q 22.171875 -1.421875 16.9375 -0.484375 
Q 11.71875 0.4375 6.6875 2.203125 
L 6.6875 12.015625 
Q 11.671875 9.421875 16.5 8.15625 
Q 21.34375 6.890625 26.125 6.890625 
Q 34.234375 6.890625 38.578125 10.546875 
Q 42.921875 14.203125 42.921875 21.09375 
Q 42.921875 27.4375 38.578125 31.171875 
Q 34.234375 34.90625 26.8125 34.90625 
L 19.28125 34.90625 
L 19.28125 43.015625 
L 26.8125 43.015625 
Q 33.59375 43.015625 37.40625 45.984375 
Q 41.21875 48.96875 41.21875 54.296875 
Q 41.21875 59.90625 37.671875 62.90625 
Q 34.125 65.921875 27.59375 65.921875 
Q 23.25 65.921875 18.609375 64.9375 
Q 13.96875 63.96875 8.890625 62.015625 
L 8.890625 71.09375 
Q 14.796875 72.65625 19.40625 73.4375 
Q 24.03125 74.21875 27.59375 74.21875 
Q 38.234375 74.21875 44.609375 68.875 
Q 50.984375 63.53125 50.984375 54.6875 
Q 50.984375 48.6875 47.625 44.671875 
Q 44.28125 40.671875 37.890625 39.015625 
z
" id="DejaVuSansMono-51"/>
       </defs>
       <use xlink:href="#DejaVuSansMono-51"/>
       <use x="60.205078" xlink:href="#DejaVuSansMono-48"/>
       <use x="120.410156" xlink:href="#DejaVuSansMono-48"/>
      </g>
     </g>
    </g>
    <g id="xtick_5">
     <g id="line2d_5">
      <g>
       <use style="stroke:#000000;stroke-width:0.8;" x="277.022383" xlink:href="#m8dfe043227" y="316.4425"/>
      </g>
     </g>
     <g id="text_5">
      <!-- 400 -->
      <g transform="translate(271.604102 328.033437)scale(0.06 -0.06)">
       <defs>
        <path d="M 35.890625 63.921875 
L 12.890625 25.390625 
L 35.890625 25.390625 
z
M 34.28125 72.90625 
L 45.703125 72.90625 
L 45.703125 25.390625 
L 55.421875 25.390625 
L 55.421875 17.390625 
L 45.703125 17.390625 
L 45.703125 0 
L 35.890625 0 
L 35.890625 17.390625 
L 4.984375 17.390625 
L 4.984375 26.703125 
z
" id="DejaVuSansMono-52"/>
       </defs>
       <use xlink:href="#DejaVuSansMono-52"/>
       <use x="60.205078" xlink:href="#DejaVuSansMono-48"/>
       <use x="120.410156" xlink:href="#DejaVuSansMono-48"/>
      </g>
     </g>
    </g>
    <g id="xtick_6">
     <g id="line2d_6">
      <g>
       <use style="stroke:#000000;stroke-width:0.8;" x="332.55805" xlink:href="#m8dfe043227" y="316.4425"/>
      </g>
     </g>
     <g id="text_6">
      <!-- 500 -->
      <g transform="translate(327.139769 328.033437)scale(0.06 -0.06)">
       <defs>
        <path d="M 10.109375 72.90625 
L 47.015625 72.90625 
L 47.015625 64.59375 
L 19.09375 64.59375 
L 19.09375 46.6875 
Q 21.1875 47.46875 23.3125 47.828125 
Q 25.4375 48.1875 27.59375 48.1875 
Q 38.921875 48.1875 45.5625 41.5 
Q 52.203125 34.8125 52.203125 23.390625 
Q 52.203125 11.859375 45.234375 5.21875 
Q 38.28125 -1.421875 26.21875 -1.421875 
Q 20.40625 -1.421875 15.59375 -0.640625 
Q 10.796875 0.140625 6.984375 1.703125 
L 6.984375 11.71875 
Q 11.46875 9.28125 16.015625 8.078125 
Q 20.5625 6.890625 25.296875 6.890625 
Q 33.453125 6.890625 37.859375 11.1875 
Q 42.28125 15.484375 42.28125 23.390625 
Q 42.28125 31.203125 37.71875 35.546875 
Q 33.15625 39.890625 25 39.890625 
Q 21.046875 39.890625 17.28125 38.984375 
Q 13.53125 38.09375 10.109375 36.28125 
z
" id="DejaVuSansMono-53"/>
       </defs>
       <use xlink:href="#DejaVuSansMono-53"/>
       <use x="60.205078" xlink:href="#DejaVuSansMono-48"/>
       <use x="120.410156" xlink:href="#DejaVuSansMono-48"/>
      </g>
     </g>
    </g>
    <g id="xtick_7">
     <g id="line2d_7">
      <g>
       <use style="stroke:#000000;stroke-width:0.8;" x="388.093717" xlink:href="#m8dfe043227" y="316.4425"/>
      </g>
     </g>
     <g id="text_7">
      <!-- 600 -->
      <g transform="translate(382.675436 328.033437)scale(0.06 -0.06)">
       <defs>
        <path d="M 48.390625 71.296875 
L 48.390625 62.203125 
Q 45.3125 64.015625 41.84375 64.96875 
Q 38.375 65.921875 34.625 65.921875 
Q 25.25 65.921875 20.40625 58.859375 
Q 15.578125 51.8125 15.578125 38.09375 
Q 17.921875 42.96875 22.0625 45.578125 
Q 26.21875 48.1875 31.59375 48.1875 
Q 42.140625 48.1875 47.921875 41.71875 
Q 53.71875 35.25 53.71875 23.390625 
Q 53.71875 11.578125 47.75 5.078125 
Q 41.796875 -1.421875 31 -1.421875 
Q 18.3125 -1.421875 12.40625 7.6875 
Q 6.5 16.796875 6.5 36.375 
Q 6.5 54.828125 13.59375 64.515625 
Q 20.703125 74.21875 34.1875 74.21875 
Q 37.796875 74.21875 41.40625 73.453125 
Q 45.015625 72.703125 48.390625 71.296875 
z
M 30.8125 40.484375 
Q 24.515625 40.484375 20.890625 35.9375 
Q 17.28125 31.390625 17.28125 23.390625 
Q 17.28125 15.375 20.890625 10.828125 
Q 24.515625 6.296875 30.8125 6.296875 
Q 37.359375 6.296875 40.671875 10.609375 
Q 44 14.9375 44 23.390625 
Q 44 31.890625 40.671875 36.1875 
Q 37.359375 40.484375 30.8125 40.484375 
z
" id="DejaVuSansMono-54"/>
       </defs>
       <use xlink:href="#DejaVuSansMono-54"/>
       <use x="60.205078" xlink:href="#DejaVuSansMono-48"/>
       <use x="120.410156" xlink:href="#DejaVuSansMono-48"/>
      </g>
     </g>
    </g>
    <g id="xtick_8">
     <g id="line2d_8">
      <g>
       <use style="stroke:#000000;stroke-width:0.8;" x="443.629384" xlink:href="#m8dfe043227" y="316.4425"/>
      </g>
     </g>
     <g id="text_8">
      <!-- 700 -->
      <g transform="translate(438.211103 328.033437)scale(0.06 -0.06)">
       <defs>
        <path d="M 6.78125 72.90625 
L 52.6875 72.90625 
L 52.6875 68.703125 
L 26.609375 0 
L 16.3125 0 
L 41.703125 64.59375 
L 6.78125 64.59375 
z
" id="DejaVuSansMono-55"/>
       </defs>
       <use xlink:href="#DejaVuSansMono-55"/>
       <use x="60.205078" xlink:href="#DejaVuSansMono-48"/>
       <use x="120.410156" xlink:href="#DejaVuSansMono-48"/>
      </g>
     </g>
    </g>
    <g id="text_9">
     <!-- n -->
     <g transform="translate(243.283281 337.872187)scale(0.06 -0.06)">
      <defs>
       <path d="M 51.3125 33.890625 
L 51.3125 0 
L 42.28125 0 
L 42.28125 33.890625 
Q 42.28125 41.265625 39.6875 44.71875 
Q 37.109375 48.1875 31.59375 48.1875 
Q 25.296875 48.1875 21.890625 43.71875 
Q 18.5 39.265625 18.5 30.90625 
L 18.5 0 
L 9.515625 0 
L 9.515625 54.6875 
L 18.5 54.6875 
L 18.5 46.484375 
Q 20.90625 51.171875 25 53.578125 
Q 29.109375 56 34.71875 56 
Q 43.0625 56 47.1875 50.5 
Q 51.3125 45.015625 51.3125 33.890625 
z
" id="DejaVuSansMono-110"/>
      </defs>
      <use xlink:href="#DejaVuSansMono-110"/>
     </g>
    </g>
   </g>
   <g id="matplotlib.axis_2">
    <g id="ytick_1">
     <g id="line2d_9">
      <defs>
       <path d="M 0 0 
L -3.5 0 
" id="ma4d57cca59" style="stroke:#000000;stroke-width:0.8;"/>
      </defs>
      <g>
       <use style="stroke:#000000;stroke-width:0.8;" x="35.85875" xlink:href="#ma4d57cca59" y="283.187834"/>
      </g>
     </g>
     <g id="text_10">
      <!-- $\mathdefault{10^{1}}$ -->
      <g transform="translate(18.83875 285.483302)scale(0.06 -0.06)">
       <use transform="translate(0 0.684375)" xlink:href="#DejaVuSansMono-49"/>
       <use transform="translate(60.205078 0.684375)" xlink:href="#DejaVuSansMono-48"/>
       <use transform="translate(121.367188 38.965625)scale(0.7)" xlink:href="#DejaVuSansMono-49"/>
      </g>
     </g>
    </g>
    <g id="ytick_2">
     <g id="line2d_10">
      <g>
       <use style="stroke:#000000;stroke-width:0.8;" x="35.85875" xlink:href="#ma4d57cca59" y="243.810626"/>
      </g>
     </g>
     <g id="text_11">
      <!-- $\mathdefault{10^{3}}$ -->
      <g transform="translate(18.83875 246.106094)scale(0.06 -0.06)">
       <use transform="translate(0 0.765625)" xlink:href="#DejaVuSansMono-49"/>
       <use transform="translate(60.205078 0.765625)" xlink:href="#DejaVuSansMono-48"/>
       <use transform="translate(121.367188 39.046875)scale(0.7)" xlink:href="#DejaVuSansMono-51"/>
      </g>
     </g>
    </g>
    <g id="ytick_3">
     <g id="line2d_11">
      <g>
       <use style="stroke:#000000;stroke-width:0.8;" x="35.85875" xlink:href="#ma4d57cca59" y="204.433418"/>
      </g>
     </g>
     <g id="text_12">
      <!-- $\mathdefault{10^{5}}$ -->
      <g transform="translate(18.83875 206.728887)scale(0.06 -0.06)">
       <use transform="translate(0 0.684375)" xlink:href="#DejaVuSansMono-49"/>
       <use transform="translate(60.205078 0.684375)" xlink:href="#DejaVuSansMono-48"/>
       <use transform="translate(121.367188 38.965625)scale(0.7)" xlink:href="#DejaVuSansMono-53"/>
      </g>
     </g>
    </g>
    <g id="ytick_4">
     <g id="line2d_12">
      <g>
       <use style="stroke:#000000;stroke-width:0.8;" x="35.85875" xlink:href="#ma4d57cca59" y="165.05621"/>
      </g>
     </g>
     <g id="text_13">
      <!-- $\mathdefault{10^{7}}$ -->
      <g transform="translate(18.83875 167.351679)scale(0.06 -0.06)">
       <use transform="translate(0 0.684375)" xlink:href="#DejaVuSansMono-49"/>
       <use transform="translate(60.205078 0.684375)" xlink:href="#DejaVuSansMono-48"/>
       <use transform="translate(121.367188 38.965625)scale(0.7)" xlink:href="#DejaVuSansMono-55"/>
      </g>
     </g>
    </g>
    <g id="ytick_5">
     <g id="line2d_13">
      <g>
       <use style="stroke:#000000;stroke-width:0.8;" x="35.85875" xlink:href="#ma4d57cca59" y="125.679002"/>
      </g>
     </g>
     <g id="text_14">
      <!-- $\mathdefault{10^{9}}$ -->
      <g transform="translate(18.83875 127.974471)scale(0.06 -0.06)">
       <defs>
        <path d="M 29.109375 32.328125 
Q 35.40625 32.328125 38.984375 36.859375 
Q 42.578125 41.40625 42.578125 49.421875 
Q 42.578125 57.421875 38.984375 61.953125 
Q 35.40625 66.5 29.109375 66.5 
Q 22.5625 66.5 19.234375 62.171875 
Q 15.921875 57.859375 15.921875 49.421875 
Q 15.921875 40.921875 19.21875 36.625 
Q 22.515625 32.328125 29.109375 32.328125 
z
M 11.53125 1.515625 
L 11.53125 10.59375 
Q 14.59375 8.796875 18.0625 7.84375 
Q 21.53125 6.890625 25.296875 6.890625 
Q 34.671875 6.890625 39.46875 13.9375 
Q 44.28125 21 44.28125 34.71875 
Q 42 29.828125 37.84375 27.21875 
Q 33.6875 24.609375 28.328125 24.609375 
Q 17.78125 24.609375 11.984375 31.09375 
Q 6.203125 37.59375 6.203125 49.515625 
Q 6.203125 61.28125 12.125 67.75 
Q 18.0625 74.21875 28.90625 74.21875 
Q 41.609375 74.21875 47.515625 65.078125 
Q 53.421875 55.953125 53.421875 36.375 
Q 53.421875 17.96875 46.3125 8.265625 
Q 39.203125 -1.421875 25.6875 -1.421875 
Q 22.125 -1.421875 18.5 -0.65625 
Q 14.890625 0.09375 11.53125 1.515625 
z
" id="DejaVuSansMono-57"/>
       </defs>
       <use transform="translate(0 0.765625)" xlink:href="#DejaVuSansMono-49"/>
       <use transform="translate(60.205078 0.765625)" xlink:href="#DejaVuSansMono-48"/>
       <use transform="translate(121.367188 39.046875)scale(0.7)" xlink:href="#DejaVuSansMono-57"/>
      </g>
     </g>
    </g>
    <g id="ytick_6">
     <g id="line2d_14">
      <g>
       <use style="stroke:#000000;stroke-width:0.8;" x="35.85875" xlink:href="#ma4d57cca59" y="86.301794"/>
      </g>
     </g>
     <g id="text_15">
      <!-- $\mathdefault{10^{11}}$ -->
      <g transform="translate(16.31875 88.597263)scale(0.06 -0.06)">
       <use transform="translate(0 0.684375)" xlink:href="#DejaVuSansMono-49"/>
       <use transform="translate(60.205078 0.684375)" xlink:href="#DejaVuSansMono-48"/>
       <use transform="translate(121.367188 38.965625)scale(0.7)" xlink:href="#DejaVuSansMono-49"/>
       <use transform="translate(163.510742 38.965625)scale(0.7)" xlink:href="#DejaVuSansMono-49"/>
      </g>
     </g>
    </g>
    <g id="ytick_7">
     <g id="line2d_15">
      <g>
       <use style="stroke:#000000;stroke-width:0.8;" x="35.85875" xlink:href="#ma4d57cca59" y="46.924586"/>
      </g>
     </g>
     <g id="text_16">
      <!-- $\mathdefault{10^{13}}$ -->
      <g transform="translate(16.31875 49.220055)scale(0.06 -0.06)">
       <use transform="translate(0 0.765625)" xlink:href="#DejaVuSansMono-49"/>
       <use transform="translate(60.205078 0.765625)" xlink:href="#DejaVuSansMono-48"/>
       <use transform="translate(121.367188 39.046875)scale(0.7)" xlink:href="#DejaVuSansMono-49"/>
       <use transform="translate(163.510742 39.046875)scale(0.7)" xlink:href="#DejaVuSansMono-51"/>
      </g>
     </g>
    </g>
    <g id="text_17">
     <!-- y_n -->
     <g transform="translate(10.904063 172.634094)rotate(-90)scale(0.06 -0.06)">
      <defs>
       <path d="M 41.890625 17.578125 
Q 39.65625 11.859375 36.1875 2.546875 
Q 31.34375 -10.359375 29.6875 -13.1875 
Q 27.4375 -17 24.0625 -18.890625 
Q 20.703125 -20.796875 16.21875 -20.796875 
L 8.984375 -20.796875 
L 8.984375 -13.28125 
L 14.3125 -13.28125 
Q 18.265625 -13.28125 20.5 -10.984375 
Q 22.75 -8.6875 26.21875 0.875 
L 5.078125 54.6875 
L 14.59375 54.6875 
L 30.8125 11.921875 
L 46.78125 54.6875 
L 56.296875 54.6875 
z
" id="DejaVuSansMono-121"/>
       <path d="M 60.203125 -19.671875 
L 60.203125 -23.578125 
L 0 -23.578125 
L 0 -19.671875 
z
" id="DejaVuSansMono-95"/>
      </defs>
      <use xlink:href="#DejaVuSansMono-121"/>
      <use x="60.205078" xlink:href="#DejaVuSansMono-95"/>
      <use x="120.410156" xlink:href="#DejaVuSansMono-110"/>
     </g>
    </g>
   </g>
   <g id="line2d_16">
    <path clip-path="url(#p81acf1ae91)" d="M 54.879716 168.568199 
L 55.435073 159.174348 
L 55.990429 165.101208 
L 56.545786 155.707356 
L 57.656499 167.561077 
L 58.211856 158.167225 
L 58.767213 164.094085 
L 59.322569 154.700234 
L 60.433283 166.553954 
L 60.988639 157.160103 
L 61.543996 163.086963 
L 62.099353 153.693111 
L 62.654709 159.619972 
L 63.210066 150.22612 
L 63.765423 156.152981 
L 64.320779 146.759129 
L 64.876136 152.685989 
L 65.431493 143.292138 
L 65.986849 149.218998 
L 66.542206 139.825147 
L 67.097563 145.752007 
L 67.652919 136.358156 
L 68.208276 142.285016 
L 68.763633 132.891165 
L 69.318989 138.818025 
L 69.874346 129.424174 
L 70.985059 141.277894 
L 71.540416 131.884043 
L 73.206486 149.664624 
L 73.761843 140.270773 
L 74.317199 146.197633 
L 74.872556 136.803781 
L 75.427913 142.730642 
L 75.983269 133.33679 
L 76.538626 139.263651 
L 77.093983 129.869799 
L 77.649339 135.79666 
L 78.204696 126.402808 
L 78.760053 132.329669 
L 79.315409 122.935817 
L 80.426123 134.789538 
L 80.981479 125.395686 
L 81.536836 131.322547 
L 82.092193 121.928695 
L 82.647549 127.855556 
L 83.202906 118.461704 
L 83.758263 124.388565 
L 84.313619 114.994713 
L 84.868976 120.921574 
L 85.424333 111.527722 
L 85.979689 117.454583 
L 86.535046 108.060731 
L 87.090403 113.987591 
L 87.645759 104.59374 
L 88.201116 110.5206 
L 88.756473 101.126749 
L 90.422543 118.90733 
L 90.977899 109.513479 
L 91.533256 115.440339 
L 92.088613 106.046488 
L 92.643969 111.973348 
L 93.199326 102.579497 
L 93.754683 108.506357 
L 94.310039 99.112506 
L 95.420753 110.966226 
L 95.976109 101.572375 
L 97.086823 113.426096 
L 97.642179 104.032244 
L 98.197536 109.959104 
L 98.752893 100.565253 
L 99.863606 112.418974 
L 100.418963 103.025122 
L 101.529676 114.878843 
L 102.085033 105.484992 
L 103.195746 117.338712 
L 103.751103 107.944861 
L 104.306459 113.871721 
L 104.861816 104.47787 
L 105.417173 110.40473 
L 105.972529 101.010879 
L 106.527886 106.937739 
L 107.083243 97.543888 
L 108.749313 115.324469 
L 109.304669 105.930617 
L 110.415383 117.784338 
L 110.970739 108.390487 
L 111.526096 114.317347 
L 112.081453 104.923496 
L 113.192166 116.777216 
L 113.747523 107.383365 
L 114.302879 113.310225 
L 114.858236 103.916374 
L 115.413593 109.843234 
L 115.968949 100.449383 
L 116.524306 106.376243 
L 117.079663 96.982392 
L 117.635019 102.909252 
L 118.190376 93.515401 
L 118.745733 99.442261 
L 119.301089 90.04841 
L 119.856446 95.97527 
L 120.411803 86.581419 
L 121.522516 98.435139 
L 122.077873 89.041288 
L 122.63323 94.968148 
L 123.188586 85.574297 
L 123.743943 91.501157 
L 124.2993 82.107306 
L 124.854656 88.034166 
L 125.410013 78.640315 
L 125.96537 84.567175 
L 126.520726 75.173324 
L 127.076083 81.100184 
L 127.63144 71.706333 
L 128.186796 77.633193 
L 128.742153 68.239342 
L 129.29751 74.166202 
L 129.852866 64.772351 
L 130.408223 70.699211 
L 130.96358 61.305359 
L 131.518936 67.23222 
L 132.074293 57.838368 
L 132.62965 63.765229 
L 133.185006 54.371377 
L 133.740363 60.298238 
L 134.29572 50.904386 
L 134.851076 56.831247 
L 135.406433 47.437395 
L 136.517146 59.291116 
L 137.072503 49.897265 
L 137.62786 55.824125 
L 138.183216 46.430273 
L 138.738573 52.357134 
L 139.29393 42.963282 
L 139.849286 48.890143 
L 140.404643 39.496291 
L 140.96 45.423152 
L 141.515356 36.0293 
L 142.62607 47.883021 
L 143.181426 38.48917 
L 143.736783 44.41603 
L 144.29214 35.022179 
L 144.847496 40.949039 
L 145.402853 31.555187 
L 147.62428 55.262629 
L 148.179636 45.868778 
L 149.845706 63.649359 
L 150.401063 54.255507 
L 152.62249 77.962949 
L 153.177846 68.569097 
L 154.28856 80.422818 
L 154.843916 71.028967 
L 157.6207 100.663268 
L 158.176056 91.269417 
L 158.731413 97.196277 
L 159.28677 87.802426 
L 159.842126 93.729286 
L 160.397483 84.335435 
L 160.95284 90.262295 
L 161.508196 80.868444 
L 162.063553 86.795304 
L 162.61891 77.401453 
L 163.174266 83.328313 
L 163.729623 73.934462 
L 164.840336 85.788182 
L 165.395693 76.394331 
L 167.061763 94.174912 
L 167.61712 84.781061 
L 168.727833 96.634781 
L 169.28319 87.24093 
L 171.504616 110.948371 
L 172.059973 101.55452 
L 174.836756 131.188822 
L 175.392113 121.79497 
L 176.502826 133.648691 
L 177.058183 124.25484 
L 177.61354 130.1817 
L 178.168896 120.787849 
L 179.27961 132.641569 
L 179.834966 123.247718 
L 180.390323 129.174578 
L 180.94568 119.780727 
L 182.056393 131.634447 
L 182.61175 122.240596 
L 183.722463 134.094317 
L 184.27782 124.700465 
L 184.833176 130.627326 
L 185.388533 121.233474 
L 185.94389 127.160335 
L 186.499246 117.766483 
L 187.60996 129.620204 
L 188.165316 120.226353 
L 188.720673 126.153213 
L 189.27603 116.759361 
L 189.831386 122.686222 
L 190.386743 113.29237 
L 191.497456 125.146091 
L 192.052813 115.75224 
L 192.60817 121.6791 
L 193.163526 112.285249 
L 193.718883 118.212109 
L 194.27424 108.818258 
L 195.94031 126.598839 
L 196.495666 117.204987 
L 197.051023 123.131848 
L 197.60638 113.737996 
L 199.27245 131.518577 
L 199.827806 122.124726 
L 201.493876 139.905307 
L 202.049233 130.511455 
L 202.60459 136.438316 
L 203.159946 127.044464 
L 204.27066 138.898185 
L 204.826017 129.504334 
L 205.381373 135.431194 
L 205.93673 126.037343 
L 207.6028 143.817924 
L 208.158157 134.424072 
L 208.713513 140.350933 
L 209.26887 130.957081 
L 209.824227 136.883942 
L 210.379583 127.49009 
L 212.045653 145.270671 
L 212.60101 135.87682 
L 213.156367 141.80368 
L 213.711723 132.409829 
L 214.26708 138.336689 
L 214.822437 128.942838 
L 215.93315 140.796558 
L 216.488507 131.402707 
L 218.709933 155.110148 
L 219.26529 145.716297 
L 220.376003 157.570018 
L 220.93136 148.176166 
L 222.59743 165.956747 
L 223.152787 156.562895 
L 223.708143 162.489756 
L 224.2635 153.095904 
L 224.818857 159.022764 
L 225.374213 149.628913 
L 225.92957 155.555773 
L 226.484927 146.161922 
L 227.040283 152.088782 
L 227.59564 142.694931 
L 228.150997 148.621791 
L 228.706353 139.22794 
L 229.817067 151.08166 
L 230.372423 141.687809 
L 230.92778 147.614669 
L 231.483137 138.220818 
L 232.038493 144.147678 
L 232.59385 134.753827 
L 233.149207 140.680687 
L 233.704563 131.286836 
L 234.25992 137.213696 
L 234.815277 127.819844 
L 237.036703 151.527286 
L 237.59206 142.133434 
L 238.702773 153.987155 
L 239.25813 144.593304 
L 239.813487 150.520164 
L 240.368843 141.126313 
L 241.479557 152.980033 
L 242.034913 143.586182 
L 243.145627 155.439902 
L 243.700983 146.046051 
L 244.811697 157.899772 
L 245.367053 148.50592 
L 245.92241 154.432781 
L 246.477767 145.038929 
L 247.033123 150.965789 
L 247.58848 141.571938 
L 249.25455 159.352519 
L 249.809907 149.958667 
L 250.365263 155.885528 
L 250.92062 146.491676 
L 251.475977 152.418537 
L 252.031333 143.024685 
L 254.25276 166.732127 
L 254.808117 157.338275 
L 257.029543 181.045716 
L 257.5849 171.651863 
L 258.140257 177.578723 
L 258.695613 168.184871 
L 259.806327 180.038591 
L 260.361683 170.644738 
L 260.91704 176.571599 
L 261.472397 167.177746 
L 262.027753 173.104607 
L 262.58311 163.710754 
L 263.138467 169.637615 
L 263.693823 160.243763 
L 264.804537 172.097484 
L 265.359893 162.703632 
L 266.470607 174.557352 
L 267.025963 165.1635 
L 268.136677 177.017221 
L 268.692033 167.623368 
L 269.24739 173.550228 
L 269.802747 164.156376 
L 270.91346 176.010097 
L 271.468817 166.616245 
L 272.024173 172.543105 
L 272.57953 163.149253 
L 273.134887 169.076113 
L 273.690243 159.682261 
L 275.91167 183.389703 
L 276.467027 173.995849 
L 277.57774 185.84957 
L 278.133097 176.455715 
L 279.799167 194.236296 
L 280.354523 184.842436 
L 282.020593 202.623017 
L 282.57595 193.229143 
L 284.24202 211.009724 
L 284.797377 201.615811 
L 285.352733 207.542671 
L 285.90809 198.148779 
L 286.463447 204.075639 
L 287.018804 194.68176 
L 288.129517 206.535481 
L 288.684874 197.141593 
L 290.350944 214.922174 
L 290.9063 205.528226 
L 291.461657 211.455086 
L 292.017014 202.06117 
L 292.57237 207.98803 
L 293.127727 198.594136 
L 293.683084 204.520996 
L 294.23844 195.127116 
L 296.459867 218.834557 
L 297.015224 209.440552 
L 297.57058 215.367412 
L 298.125937 205.973459 
L 298.681294 211.900319 
L 299.23665 202.506399 
L 299.792007 208.43326 
L 300.347364 199.039363 
L 300.90272 204.966223 
L 301.458077 195.572341 
L 302.013434 201.499202 
L 302.56879 192.10533 
L 303.124147 198.03219 
L 303.679504 188.638326 
L 304.790217 200.492046 
L 305.345574 191.098177 
L 307.011644 208.878758 
L 307.567 199.484859 
L 308.122357 205.411719 
L 308.677714 196.017836 
L 310.89914 219.725277 
L 311.454497 210.331255 
L 312.009854 216.258116 
L 312.56521 206.864151 
L 314.23128 224.644732 
L 314.786637 215.250577 
L 315.341994 221.177438 
L 315.89735 211.783384 
L 316.452707 217.710245 
L 317.008064 208.316258 
L 317.56342 214.243119 
L 318.118777 204.849178 
L 318.674134 210.776038 
L 319.22949 201.382127 
L 319.784847 207.308987 
L 320.340204 197.915096 
L 321.450917 209.768817 
L 322.006274 200.374912 
L 323.672344 218.155493 
L 324.2277 208.7615 
L 325.89377 226.542081 
L 326.449127 217.147851 
L 327.004484 223.074711 
L 327.55984 213.680608 
L 328.115197 219.607468 
L 328.670554 210.213449 
L 329.22591 216.140309 
L 329.781267 206.746346 
L 330.89198 218.600066 
L 331.447337 209.206065 
L 332.002694 215.132926 
L 332.55805 205.738975 
L 334.779477 229.446416 
L 335.334834 220.052034 
L 338.111617 249.686335 
L 338.666974 240.286819 
L 339.22233 246.21368 
L 339.777687 236.816054 
L 340.333044 242.742914 
L 340.8884 233.346548 
L 342.55447 251.127129 
L 343.109827 241.726574 
L 344.22054 253.580294 
L 344.775897 244.177513 
L 345.331254 250.104373 
L 345.88661 240.704573 
L 346.441967 246.631434 
L 346.997324 237.233619 
L 347.55268 243.16048 
L 348.108037 233.763987 
L 348.663394 239.690847 
L 349.21875 230.295236 
L 349.774107 236.222096 
L 350.329464 226.827071 
L 351.995534 244.607652 
L 352.55089 235.210673 
L 353.106247 241.137533 
L 353.661604 231.741597 
L 354.21696 237.668457 
L 354.772317 228.273216 
L 355.327674 234.200077 
L 355.88303 224.805299 
L 358.104457 248.51274 
L 358.659814 239.113951 
L 359.770527 250.967671 
L 360.325884 241.56724 
L 361.436597 253.420961 
L 361.991954 244.018344 
L 364.21338 267.725785 
L 364.768737 258.285336 
L 366.434807 276.065917 
L 366.990164 266.549033 
L 367.54552 272.475893 
L 368.100877 263.000992 
L 368.656234 268.927853 
L 369.21159 259.480392 
L 371.988374 289.114694 
L 372.543731 279.168996 
L 374.765157 302.876437 
L 374.765157 302.876437 
" style="fill:none;stroke:#1f77b4;stroke-linecap:square;stroke-width:0.666667;"/>
   </g>
   <g id="line2d_17">
    <path clip-path="url(#p81acf1ae91)" d="M 54.879716 166.546525 
L 55.435073 157.152673 
L 55.990429 163.079533 
L 56.545786 153.685682 
L 57.101143 159.612542 
L 57.656499 150.218691 
L 58.211856 156.145551 
L 58.767213 146.751699 
L 59.322569 152.67856 
L 59.877926 143.284708 
L 60.433283 149.211569 
L 60.988639 139.817717 
L 61.543996 145.744578 
L 62.099353 136.350726 
L 63.210066 148.204447 
L 63.765423 138.810595 
L 64.320779 144.737456 
L 64.876136 135.343604 
L 65.431493 141.270465 
L 65.986849 131.876613 
L 66.542206 137.803474 
L 67.097563 128.409622 
L 67.652919 134.336483 
L 68.208276 124.942631 
L 68.763633 130.869491 
L 69.318989 121.47564 
L 70.985059 139.256221 
L 71.540416 129.86237 
L 72.095773 135.78923 
L 72.651129 126.395379 
L 73.761843 138.249099 
L 74.317199 128.855248 
L 74.872556 134.782108 
L 75.427913 125.388257 
L 77.093983 143.168838 
L 77.649339 133.774986 
L 78.204696 139.701847 
L 78.760053 130.307995 
L 79.315409 136.234856 
L 79.870766 126.841004 
L 80.426123 132.767865 
L 80.981479 123.374013 
L 81.536836 129.300874 
L 82.092193 119.907022 
L 83.202906 131.760743 
L 83.758263 122.366892 
L 84.313619 128.293752 
L 84.868976 118.8999 
L 85.979689 130.753621 
L 86.535046 121.35977 
L 87.645759 133.21349 
L 88.201116 123.819639 
L 88.756473 129.746499 
L 89.311829 120.352648 
L 89.867186 126.279508 
L 90.422543 116.885657 
L 90.977899 122.812517 
L 91.533256 113.418666 
L 92.088613 119.345526 
L 92.643969 109.951675 
L 93.754683 121.805396 
L 94.310039 112.411544 
L 95.420753 124.265265 
L 95.976109 114.871413 
L 96.531466 120.798274 
L 97.086823 111.404422 
L 98.197536 123.258143 
L 98.752893 113.864292 
L 99.308249 119.791152 
L 99.863606 110.397301 
L 100.418963 116.324161 
L 100.974319 106.93031 
L 101.529676 112.85717 
L 102.085033 103.463318 
L 102.640389 109.390179 
L 103.195746 99.996327 
L 104.306459 111.850048 
L 104.861816 102.456197 
L 105.417173 108.383057 
L 105.972529 98.989206 
L 107.083243 110.842926 
L 107.638599 101.449075 
L 108.749313 113.302796 
L 109.304669 103.908944 
L 109.860026 109.835805 
L 110.415383 100.441953 
L 112.636809 124.149395 
L 113.192166 114.755543 
L 114.858236 132.536124 
L 115.413593 123.142273 
L 115.968949 129.069133 
L 116.524306 119.675282 
L 118.190376 137.455863 
L 118.745733 128.062011 
L 119.856446 139.915732 
L 120.411803 130.521881 
L 120.96716 136.448741 
L 121.522516 127.05489 
L 122.077873 132.98175 
L 122.63323 123.587899 
L 123.188586 129.514759 
L 123.743943 120.120908 
L 124.2993 126.047768 
L 124.854656 116.653917 
L 125.96537 128.507637 
L 126.520726 119.113786 
L 128.186796 136.894367 
L 128.742153 127.500515 
L 129.29751 133.427376 
L 129.852866 124.033524 
L 130.408223 129.960385 
L 130.96358 120.566533 
L 131.518936 126.493394 
L 132.074293 117.099542 
L 132.62965 123.026403 
L 133.185006 113.632551 
L 133.740363 119.559412 
L 134.29572 110.16556 
L 134.851076 116.092421 
L 135.406433 106.698569 
L 135.96179 112.625429 
L 136.517146 103.231578 
L 137.62786 115.085299 
L 138.183216 105.691447 
L 139.29393 117.545168 
L 139.849286 108.151317 
L 140.96 120.005037 
L 141.515356 110.611186 
L 142.070713 116.538046 
L 142.62607 107.144195 
L 143.736783 118.997916 
L 144.29214 109.604064 
L 145.95821 127.384645 
L 146.513566 117.990794 
L 147.068923 123.917654 
L 147.62428 114.523803 
L 148.179636 120.450663 
L 148.734993 111.056812 
L 149.29035 116.983672 
L 149.845706 107.589821 
L 150.401063 113.516681 
L 150.95642 104.12283 
L 151.511776 110.04969 
L 152.067133 100.655839 
L 153.177846 112.509559 
L 153.733203 103.115708 
L 154.28856 109.042568 
L 154.843916 99.648717 
L 155.399273 105.575577 
L 155.95463 96.181726 
L 156.509986 102.108586 
L 157.065343 92.714735 
L 157.6207 98.641595 
L 158.176056 89.247744 
L 158.731413 95.174604 
L 159.28677 85.780753 
L 159.842126 91.707613 
L 160.397483 82.313761 
L 163.174266 111.948063 
L 163.729623 102.554212 
L 164.28498 108.481072 
L 164.840336 99.087221 
L 165.395693 105.014081 
L 165.95105 95.62023 
L 166.506406 101.54709 
L 167.061763 92.153239 
L 169.28319 115.86068 
L 169.838546 106.466829 
L 170.393903 112.393689 
L 170.94926 102.999838 
L 173.170686 126.707279 
L 173.726043 117.313428 
L 174.836756 129.167148 
L 175.392113 119.773297 
L 176.502826 131.627018 
L 177.058183 122.233166 
L 177.61354 128.160027 
L 178.168896 118.766175 
L 179.834966 136.546756 
L 180.390323 127.152905 
L 182.61175 150.860346 
L 183.167106 141.466495 
L 184.27782 153.320216 
L 184.833176 143.926364 
L 185.94389 155.780085 
L 186.499246 146.386233 
L 187.054603 152.313094 
L 187.60996 142.919242 
L 188.720673 154.772963 
L 189.27603 145.379111 
L 189.831386 151.305972 
L 190.386743 141.91212 
L 190.9421 147.838981 
L 191.497456 138.445129 
L 192.052813 144.37199 
L 192.60817 134.978138 
L 193.163526 140.904998 
L 193.718883 131.511147 
L 194.27424 137.438007 
L 194.829596 128.044156 
L 196.495666 145.824737 
L 197.051023 136.430886 
L 197.60638 142.357746 
L 198.161736 132.963894 
L 198.717093 138.890755 
L 199.27245 129.496903 
L 199.827806 135.423764 
L 200.383163 126.029912 
L 200.93852 131.956773 
L 201.493876 122.562921 
L 202.049233 128.489782 
L 202.60459 119.09593 
L 203.159946 125.022791 
L 203.715303 115.628939 
L 204.27066 121.5558 
L 204.826017 112.161948 
L 205.381373 118.088808 
L 205.93673 108.694957 
L 207.047443 120.548678 
L 207.6028 111.154826 
L 209.824227 134.862268 
L 210.379583 125.468416 
L 213.156367 155.102718 
L 213.711723 145.708867 
L 215.377793 163.489448 
L 215.93315 154.095596 
L 216.488507 160.022456 
L 217.043863 150.628605 
L 217.59922 156.555465 
L 218.154577 147.161614 
L 218.709933 153.088474 
L 219.26529 143.694623 
L 219.820647 149.621483 
L 220.376003 140.227631 
L 220.93136 146.154492 
L 221.486717 136.76064 
L 222.59743 148.614361 
L 223.152787 139.22051 
L 223.708143 145.14737 
L 224.2635 135.753519 
L 224.818857 141.680379 
L 225.374213 132.286527 
L 225.92957 138.213388 
L 226.484927 128.819536 
L 227.040283 134.746397 
L 227.59564 125.352545 
L 228.150997 131.279406 
L 228.706353 121.885554 
L 230.372423 139.666135 
L 230.92778 130.272284 
L 232.038493 142.126005 
L 232.59385 132.732153 
L 233.149207 138.659014 
L 233.704563 129.265162 
L 234.25992 135.192023 
L 234.815277 125.798171 
L 237.036703 149.505613 
L 237.59206 140.111761 
L 239.25813 157.892342 
L 239.813487 148.498491 
L 240.9242 160.352211 
L 241.479557 150.95836 
L 242.59027 162.81208 
L 243.145627 153.418229 
L 243.700983 159.345089 
L 244.25634 149.951238 
L 245.367053 161.804958 
L 245.92241 152.411107 
L 247.033123 164.264827 
L 247.58848 154.870976 
L 248.699193 166.724696 
L 249.25455 157.330845 
L 249.809907 163.257705 
L 250.365263 153.863853 
L 250.92062 159.790714 
L 251.475977 150.396862 
L 252.031333 156.323723 
L 252.58669 146.929871 
L 254.25276 164.710452 
L 254.808117 155.3166 
L 255.363473 161.243461 
L 255.91883 151.849609 
L 257.029543 163.70333 
L 257.5849 154.309478 
L 258.695613 166.163199 
L 259.25097 156.769347 
L 259.806327 162.696208 
L 260.361683 153.302356 
L 261.472397 165.156077 
L 262.027753 155.762225 
L 263.693823 173.542806 
L 264.24918 164.148954 
L 265.359893 176.002675 
L 265.91525 166.608822 
L 266.470607 172.535683 
L 267.025963 163.14183 
L 269.24739 186.849272 
L 269.802747 177.455417 
L 270.358103 183.382277 
L 270.91346 173.988423 
L 271.468817 179.915284 
L 272.024173 170.521431 
L 273.134887 182.375151 
L 273.690243 172.981298 
L 275.356313 190.761879 
L 275.91167 181.368022 
L 277.022383 193.221742 
L 277.57774 183.827883 
L 278.688453 195.681604 
L 279.24381 186.287742 
L 279.799167 192.214603 
L 280.354523 182.820744 
L 281.465237 194.674465 
L 282.020593 185.280605 
L 282.57595 191.207465 
L 283.131307 181.813608 
L 283.686663 187.740468 
L 284.24202 178.346612 
L 284.797377 184.273473 
L 285.352733 174.879619 
L 285.90809 180.806479 
L 286.463447 171.412626 
L 287.018804 177.339486 
L 287.57416 167.945634 
L 288.129517 173.872494 
L 288.684874 164.478642 
L 289.24023 170.405502 
L 289.795587 161.01165 
L 290.9063 172.865371 
L 291.461657 163.471519 
L 292.017014 169.398379 
L 292.57237 160.004527 
L 294.23844 177.785108 
L 294.793797 168.391256 
L 295.349154 174.318116 
L 295.90451 164.924264 
L 297.015224 176.777984 
L 297.57058 167.384132 
L 299.23665 185.164713 
L 299.792007 175.770859 
L 300.347364 181.697719 
L 300.90272 172.303865 
L 301.458077 178.230726 
L 302.013434 168.836873 
L 302.56879 174.763733 
L 303.124147 165.369881 
L 307.011644 206.857904 
L 307.567 197.464014 
L 308.122357 203.390875 
L 308.677714 193.996998 
L 309.23307 199.923858 
L 309.788427 190.52999 
L 310.343784 196.456851 
L 310.89914 187.062988 
L 312.009854 198.916709 
L 312.56521 189.522842 
L 313.675924 201.376563 
L 314.23128 191.982692 
L 314.786637 197.909552 
L 315.341994 188.515687 
L 315.89735 194.442548 
L 316.452707 185.048687 
L 317.008064 190.975548 
L 317.56342 181.58169 
L 318.118777 187.508551 
L 318.674134 178.114695 
L 319.22949 184.041556 
L 319.784847 174.647702 
L 320.340204 180.574562 
L 320.89556 171.180709 
L 322.006274 183.03443 
L 322.56163 173.640576 
L 323.116987 179.567436 
L 323.672344 170.173583 
L 324.2277 176.100444 
L 324.783057 166.706591 
L 325.338414 172.633452 
L 325.89377 163.239599 
L 326.449127 169.16646 
L 327.004484 159.772608 
L 327.55984 165.699468 
L 328.115197 156.305617 
L 329.781267 174.086198 
L 330.336624 164.692345 
L 331.447337 176.546066 
L 332.002694 167.152214 
L 333.113407 179.005934 
L 333.668764 169.612081 
L 334.22412 175.538942 
L 334.779477 166.145089 
L 335.334834 172.07195 
L 335.89019 162.678098 
L 336.445547 168.604958 
L 337.000904 159.211106 
L 337.55626 165.137967 
L 338.111617 155.744115 
L 339.22233 167.597836 
L 339.777687 158.203984 
L 340.333044 164.130844 
L 340.8884 154.736993 
L 341.443757 160.663853 
L 341.999114 151.270001 
L 344.775897 180.904303 
L 345.331254 171.51045 
L 346.441967 183.364171 
L 346.997324 173.970317 
L 348.108037 185.824037 
L 348.663394 176.430183 
L 349.774107 188.283904 
L 350.329464 178.890048 
L 351.995534 196.670629 
L 352.55089 187.276766 
L 354.21696 205.057347 
L 354.772317 195.663465 
L 355.327674 201.590325 
L 355.88303 192.196453 
L 358.659814 221.830755 
L 359.21517 212.436686 
L 360.325884 224.290407 
L 360.88124 214.896264 
L 362.54731 232.676846 
L 363.102667 223.282219 
L 364.768737 241.0628 
L 365.324094 231.666882 
L 365.87945 237.593742 
L 366.434807 228.198514 
L 369.766947 263.759676 
L 370.322304 254.336491 
L 371.433017 266.190212 
L 371.988374 256.757405 
L 373.099087 268.611126 
L 373.654444 259.165609 
L 374.209801 265.092469 
L 374.765157 255.664346 
L 375.320514 261.591207 
L 375.875871 252.174584 
L 377.541941 269.955165 
L 378.097297 260.500885 
L 378.652654 266.427745 
L 379.208011 256.993844 
L 379.763367 262.920704 
L 380.318724 253.500256 
L 380.874081 259.427117 
L 381.429437 250.015581 
L 382.540151 261.869301 
L 383.095507 252.451927 
L 384.206221 264.305647 
L 384.761577 254.880532 
L 385.316934 260.807393 
L 385.872291 251.392762 
L 386.983004 263.246483 
L 387.538361 253.825004 
L 388.093717 259.751864 
L 388.649074 250.339644 
L 389.204431 256.266504 
L 389.759787 246.860429 
L 390.870501 258.71415 
L 391.425857 249.304027 
L 391.981214 255.230887 
L 392.536571 245.826205 
L 393.091927 251.753066 
L 393.647284 242.352002 
L 394.202641 248.278862 
L 394.757997 238.880205 
L 395.868711 250.733926 
L 396.424067 241.333672 
L 398.090137 259.114253 
L 398.645494 249.703352 
L 399.200851 255.630212 
L 399.756207 246.225013 
L 400.311564 252.151873 
L 400.866921 242.750465 
L 401.977634 254.604185 
L 402.532991 245.200268 
L 403.088347 251.127129 
L 403.643704 241.726574 
L 404.754417 253.580294 
L 405.309774 244.177513 
L 405.865131 250.104373 
L 406.420487 240.704573 
L 406.975844 246.631434 
L 407.531201 237.233619 
L 408.086557 243.16048 
L 408.641914 233.763987 
L 409.197271 239.690847 
L 409.752627 230.295236 
L 410.307984 236.222096 
L 410.863341 226.827071 
L 412.529411 244.607652 
L 413.084767 235.210673 
L 413.640124 241.137533 
L 414.195481 231.741597 
L 414.750837 237.668457 
L 415.306194 228.273216 
L 415.861551 234.200077 
L 416.416907 224.805299 
L 418.638334 248.51274 
L 419.193691 239.113951 
L 420.304404 250.967671 
L 420.859761 241.56724 
L 421.970474 253.420961 
L 422.525831 244.018344 
L 424.747257 267.725785 
L 425.302614 258.285336 
L 426.968684 276.065917 
L 427.524041 266.549033 
L 428.079397 272.475893 
L 428.634754 263.000992 
L 429.190111 268.927853 
L 429.745467 259.480392 
L 432.522251 289.114694 
L 433.077607 279.168996 
L 435.299034 302.876437 
L 435.299034 302.876437 
" style="fill:none;stroke:#ff7f0e;stroke-linecap:square;stroke-width:0.666667;"/>
   </g>
   <g id="patch_3">
    <path d="M 35.85875 316.4425 
L 35.85875 17.989125 
" style="fill:none;stroke:#000000;stroke-linecap:square;stroke-linejoin:miter;stroke-width:0.8;"/>
   </g>
   <g id="patch_4">
    <path d="M 454.32 316.4425 
L 454.32 17.989125 
" style="fill:none;stroke:#000000;stroke-linecap:square;stroke-linejoin:miter;stroke-width:0.8;"/>
   </g>
   <g id="patch_5">
    <path d="M 35.85875 316.4425 
L 454.32 316.4425 
" style="fill:none;stroke:#000000;stroke-linecap:square;stroke-linejoin:miter;stroke-width:0.8;"/>
   </g>
   <g id="patch_6">
    <path d="M 35.85875 17.989125 
L 454.32 17.989125 
" style="fill:none;stroke:#000000;stroke-linecap:square;stroke-linejoin:miter;stroke-width:0.8;"/>
   </g>
   <g id="text_18">
    <!-- "3y+1" problem -->
    <g transform="translate(214.747 11.989125)scale(0.072 -0.072)">
     <defs>
      <path d="M 43.703125 72.90625 
L 43.703125 45.796875 
L 35.203125 45.796875 
L 35.203125 72.90625 
z
M 25 72.90625 
L 25 45.796875 
L 16.5 45.796875 
L 16.5 72.90625 
z
" id="DejaVuSansMono-34"/>
      <path d="M 34.1875 57.171875 
L 34.1875 35.5 
L 55.90625 35.5 
L 55.90625 27.203125 
L 34.1875 27.203125 
L 34.1875 5.515625 
L 25.984375 5.515625 
L 25.984375 27.203125 
L 4.296875 27.203125 
L 4.296875 35.5 
L 25.984375 35.5 
L 25.984375 57.171875 
z
" id="DejaVuSansMono-43"/>
      <path id="DejaVuSansMono-32"/>
      <path d="M 18.3125 6.890625 
L 18.3125 -20.796875 
L 9.28125 -20.796875 
L 9.28125 54.6875 
L 18.3125 54.6875 
L 18.3125 47.703125 
Q 20.5625 51.765625 24.296875 53.875 
Q 28.03125 56 32.90625 56 
Q 42.828125 56 48.46875 48.328125 
Q 54.109375 40.671875 54.109375 27.09375 
Q 54.109375 13.765625 48.4375 6.171875 
Q 42.78125 -1.421875 32.90625 -1.421875 
Q 27.9375 -1.421875 24.1875 0.703125 
Q 20.453125 2.828125 18.3125 6.890625 
z
M 44.671875 27.296875 
Q 44.671875 37.75 41.375 43.0625 
Q 38.09375 48.390625 31.59375 48.390625 
Q 25.046875 48.390625 21.671875 43.046875 
Q 18.3125 37.703125 18.3125 27.296875 
Q 18.3125 16.9375 21.671875 11.5625 
Q 25.046875 6.203125 31.59375 6.203125 
Q 38.09375 6.203125 41.375 11.515625 
Q 44.671875 16.84375 44.671875 27.296875 
z
" id="DejaVuSansMono-112"/>
      <path d="M 56.390625 43.40625 
Q 53.515625 45.65625 50.53125 46.671875 
Q 47.5625 47.703125 44 47.703125 
Q 35.59375 47.703125 31.140625 42.421875 
Q 26.703125 37.15625 26.703125 27.203125 
L 26.703125 0 
L 17.671875 0 
L 17.671875 54.6875 
L 26.703125 54.6875 
L 26.703125 44 
Q 28.953125 49.8125 33.609375 52.90625 
Q 38.28125 56 44.671875 56 
Q 48 56 50.875 55.171875 
Q 53.765625 54.34375 56.390625 52.59375 
z
" id="DejaVuSansMono-114"/>
      <path d="M 30.078125 48.390625 
Q 23.25 48.390625 19.734375 43.0625 
Q 16.21875 37.75 16.21875 27.296875 
Q 16.21875 16.890625 19.734375 11.546875 
Q 23.25 6.203125 30.078125 6.203125 
Q 36.96875 6.203125 40.484375 11.546875 
Q 44 16.890625 44 27.296875 
Q 44 37.75 40.484375 43.0625 
Q 36.96875 48.390625 30.078125 48.390625 
z
M 30.078125 56 
Q 41.453125 56 47.484375 48.625 
Q 53.515625 41.265625 53.515625 27.296875 
Q 53.515625 13.28125 47.5 5.921875 
Q 41.5 -1.421875 30.078125 -1.421875 
Q 18.703125 -1.421875 12.6875 5.921875 
Q 6.6875 13.28125 6.6875 27.296875 
Q 6.6875 41.265625 12.6875 48.625 
Q 18.703125 56 30.078125 56 
z
" id="DejaVuSansMono-111"/>
      <path d="M 44.828125 27.296875 
Q 44.828125 37.75 41.5 43.0625 
Q 38.1875 48.390625 31.6875 48.390625 
Q 25.140625 48.390625 21.765625 43.046875 
Q 18.40625 37.703125 18.40625 27.296875 
Q 18.40625 16.9375 21.765625 11.5625 
Q 25.140625 6.203125 31.6875 6.203125 
Q 38.1875 6.203125 41.5 11.515625 
Q 44.828125 16.84375 44.828125 27.296875 
z
M 18.40625 47.703125 
Q 20.5625 51.703125 24.34375 53.84375 
Q 28.125 56 33.109375 56 
Q 42.96875 56 48.625 48.40625 
Q 54.296875 40.828125 54.296875 27.484375 
Q 54.296875 13.96875 48.609375 6.265625 
Q 42.921875 -1.421875 33.015625 -1.421875 
Q 28.125 -1.421875 24.390625 0.703125 
Q 20.65625 2.828125 18.40625 6.890625 
L 18.40625 0 
L 9.421875 0 
L 9.421875 75.984375 
L 18.40625 75.984375 
z
" id="DejaVuSansMono-98"/>
      <path d="M 31.203125 19.828125 
Q 31.203125 13.765625 33.421875 10.6875 
Q 35.640625 7.625 39.984375 7.625 
L 50.484375 7.625 
L 50.484375 0 
L 39.109375 0 
Q 31.0625 0 26.640625 5.171875 
Q 22.21875 10.359375 22.21875 19.828125 
L 22.21875 69.484375 
L 7.8125 69.484375 
L 7.8125 76.515625 
L 31.203125 76.515625 
z
" id="DejaVuSansMono-108"/>
      <path d="M 54.296875 29.59375 
L 54.296875 25.203125 
L 15.375 25.203125 
L 15.375 24.90625 
Q 15.375 15.96875 20.03125 11.078125 
Q 24.703125 6.203125 33.203125 6.203125 
Q 37.5 6.203125 42.1875 7.5625 
Q 46.875 8.9375 52.203125 11.71875 
L 52.203125 2.78125 
Q 47.078125 0.6875 42.3125 -0.359375 
Q 37.546875 -1.421875 33.109375 -1.421875 
Q 20.359375 -1.421875 13.171875 6.21875 
Q 6 13.875 6 27.296875 
Q 6 40.375 13.03125 48.1875 
Q 20.0625 56 31.78125 56 
Q 42.234375 56 48.265625 48.921875 
Q 54.296875 41.84375 54.296875 29.59375 
z
M 45.3125 32.234375 
Q 45.125 40.140625 41.578125 44.265625 
Q 38.03125 48.390625 31.390625 48.390625 
Q 24.90625 48.390625 20.703125 44.09375 
Q 16.5 39.796875 15.71875 32.171875 
z
" id="DejaVuSansMono-101"/>
      <path d="M 33.015625 49.125 
Q 34.671875 52.640625 37.234375 54.3125 
Q 39.796875 56 43.40625 56 
Q 50 56 52.703125 50.890625 
Q 55.421875 45.796875 55.421875 31.6875 
L 55.421875 0 
L 47.21875 0 
L 47.21875 31.296875 
Q 47.21875 42.875 45.921875 45.671875 
Q 44.625 48.484375 41.21875 48.484375 
Q 37.3125 48.484375 35.859375 45.484375 
Q 34.421875 42.484375 34.421875 31.296875 
L 34.421875 0 
L 26.21875 0 
L 26.21875 31.296875 
Q 26.21875 43.015625 24.828125 45.75 
Q 23.4375 48.484375 19.828125 48.484375 
Q 16.265625 48.484375 14.875 45.484375 
Q 13.484375 42.484375 13.484375 31.296875 
L 13.484375 0 
L 5.328125 0 
L 5.328125 54.6875 
L 13.484375 54.6875 
L 13.484375 50 
Q 15.09375 52.9375 17.5 54.46875 
Q 19.921875 56 23 56 
Q 26.703125 56 29.171875 54.296875 
Q 31.640625 52.59375 33.015625 49.125 
z
" id="DejaVuSansMono-109"/>
     </defs>
     <use xlink:href="#DejaVuSansMono-34"/>
     <use x="60.205078" xlink:href="#DejaVuSansMono-51"/>
     <use x="120.410156" xlink:href="#DejaVuSansMono-121"/>
     <use x="180.615234" xlink:href="#DejaVuSansMono-43"/>
     <use x="240.820312" xlink:href="#DejaVuSansMono-49"/>
     <use x="301.025391" xlink:href="#DejaVuSansMono-34"/>
     <use x="361.230469" xlink:href="#DejaVuSansMono-32"/>
     <use x="421.435547" xlink:href="#DejaVuSansMono-112"/>
     <use x="481.640625" xlink:href="#DejaVuSansMono-114"/>
     <use x="541.845703" xlink:href="#DejaVuSansMono-111"/>
     <use x="602.050781" xlink:href="#DejaVuSansMono-98"/>
     <use x="662.255859" xlink:href="#DejaVuSansMono-108"/>
     <use x="722.460938" xlink:href="#DejaVuSansMono-101"/>
     <use x="782.666016" xlink:href="#DejaVuSansMono-109"/>
    </g>
   </g>
   <g id="legend_1">
    <g id="patch_7">
     <path d="M 347.839688 82.0095 
L 450.12 82.0095 
Q 451.32 82.0095 451.32 80.8095 
L 451.32 22.189125 
Q 451.32 20.989125 450.12 20.989125 
L 347.839688 20.989125 
Q 346.639688 20.989125 346.639688 22.189125 
L 346.639688 80.8095 
Q 346.639688 82.0095 347.839688 82.0095 
z
" style="fill:#ffffff;opacity:0.8;stroke:#cccccc;stroke-linejoin:miter;"/>
    </g>
    <g id="line2d_18">
     <path d="M 349.039688 36.889687 
L 361.039688 36.889687 
" style="fill:none;stroke:#1f77b4;stroke-linecap:square;stroke-width:0.666667;"/>
    </g>
    <g id="line2d_19"/>
    <g id="text_19">
     <!-- "Tallest": -->
     <g transform="translate(365.839688 27.980062)scale(0.06 -0.06)">
      <defs>
       <path d="M 2.296875 72.90625 
L 57.90625 72.90625 
L 57.90625 64.59375 
L 35.109375 64.59375 
L 35.109375 0 
L 25.203125 0 
L 25.203125 64.59375 
L 2.296875 64.59375 
z
" id="DejaVuSansMono-84"/>
       <path d="M 34.28125 27.484375 
L 31.296875 27.484375 
Q 23.4375 27.484375 19.453125 24.71875 
Q 15.484375 21.96875 15.484375 16.5 
Q 15.484375 11.578125 18.453125 8.84375 
Q 21.4375 6.109375 26.703125 6.109375 
Q 34.125 6.109375 38.375 11.25 
Q 42.625 16.40625 42.671875 25.484375 
L 42.671875 27.484375 
z
M 51.703125 31.203125 
L 51.703125 0 
L 42.671875 0 
L 42.671875 8.109375 
Q 39.796875 3.21875 35.421875 0.890625 
Q 31.0625 -1.421875 24.8125 -1.421875 
Q 16.453125 -1.421875 11.46875 3.296875 
Q 6.5 8.015625 6.5 15.921875 
Q 6.5 25.046875 12.625 29.78125 
Q 18.75 34.515625 30.609375 34.515625 
L 42.671875 34.515625 
L 42.671875 35.9375 
Q 42.625 42.484375 39.34375 45.4375 
Q 36.078125 48.390625 28.90625 48.390625 
Q 24.3125 48.390625 19.625 47.0625 
Q 14.9375 45.75 10.5 43.21875 
L 10.5 52.203125 
Q 15.484375 54.109375 20.046875 55.046875 
Q 24.609375 56 28.90625 56 
Q 35.6875 56 40.5 54 
Q 45.3125 52 48.296875 48 
Q 50.140625 45.5625 50.921875 41.96875 
Q 51.703125 38.375 51.703125 31.203125 
z
" id="DejaVuSansMono-97"/>
       <path d="M 47.515625 52.78125 
L 47.515625 44 
Q 43.65625 46.234375 39.75 47.359375 
Q 35.84375 48.484375 31.78125 48.484375 
Q 25.6875 48.484375 22.671875 46.5 
Q 19.671875 44.53125 19.671875 40.484375 
Q 19.671875 36.8125 21.921875 35 
Q 24.171875 33.203125 33.109375 31.5 
L 36.71875 30.8125 
Q 43.40625 29.546875 46.84375 25.734375 
Q 50.296875 21.921875 50.296875 15.828125 
Q 50.296875 7.71875 44.53125 3.140625 
Q 38.765625 -1.421875 28.515625 -1.421875 
Q 24.46875 -1.421875 20.015625 -0.5625 
Q 15.578125 0.296875 10.40625 2 
L 10.40625 11.28125 
Q 15.4375 8.6875 20.015625 7.390625 
Q 24.609375 6.109375 28.71875 6.109375 
Q 34.671875 6.109375 37.9375 8.515625 
Q 41.21875 10.9375 41.21875 15.28125 
Q 41.21875 21.53125 29.25 23.921875 
L 28.859375 24.03125 
L 25.484375 24.703125 
Q 17.71875 26.21875 14.15625 29.8125 
Q 10.59375 33.40625 10.59375 39.59375 
Q 10.59375 47.46875 15.90625 51.734375 
Q 21.234375 56 31.109375 56 
Q 35.5 56 39.546875 55.1875 
Q 43.609375 54.390625 47.515625 52.78125 
z
" id="DejaVuSansMono-115"/>
       <path d="M 29.984375 70.21875 
L 29.984375 54.6875 
L 50.390625 54.6875 
L 50.390625 47.703125 
L 29.984375 47.703125 
L 29.984375 18.015625 
Q 29.984375 11.96875 32.28125 9.5625 
Q 34.578125 7.171875 40.28125 7.171875 
L 50.390625 7.171875 
L 50.390625 0 
L 39.40625 0 
Q 29.296875 0 25.140625 4.046875 
Q 21 8.109375 21 18.015625 
L 21 47.703125 
L 6.390625 47.703125 
L 6.390625 54.6875 
L 21 54.6875 
L 21 70.21875 
z
" id="DejaVuSansMono-116"/>
       <path d="M 23.875 51.90625 
L 36.1875 51.90625 
L 36.1875 37.109375 
L 23.875 37.109375 
z
M 23.875 14.890625 
L 36.1875 14.890625 
L 36.1875 0 
L 23.875 0 
z
" id="DejaVuSansMono-58"/>
      </defs>
      <use xlink:href="#DejaVuSansMono-34"/>
      <use x="60.205078" xlink:href="#DejaVuSansMono-84"/>
      <use x="120.410156" xlink:href="#DejaVuSansMono-97"/>
      <use x="180.615234" xlink:href="#DejaVuSansMono-108"/>
      <use x="240.820312" xlink:href="#DejaVuSansMono-108"/>
      <use x="301.025391" xlink:href="#DejaVuSansMono-101"/>
      <use x="361.230469" xlink:href="#DejaVuSansMono-115"/>
      <use x="421.435547" xlink:href="#DejaVuSansMono-116"/>
      <use x="481.640625" xlink:href="#DejaVuSansMono-34"/>
      <use x="541.845703" xlink:href="#DejaVuSansMono-58"/>
     </g>
     <!-- y_0    = 6631675 -->
     <g transform="translate(365.839688 34.737)scale(0.06 -0.06)">
      <defs>
       <path d="M 4.296875 25.59375 
L 55.90625 25.59375 
L 55.90625 17.1875 
L 4.296875 17.1875 
z
M 4.296875 45.40625 
L 55.90625 45.40625 
L 55.90625 37.109375 
L 4.296875 37.109375 
z
" id="DejaVuSansMono-61"/>
      </defs>
      <use xlink:href="#DejaVuSansMono-121"/>
      <use x="60.205078" xlink:href="#DejaVuSansMono-95"/>
      <use x="120.410156" xlink:href="#DejaVuSansMono-48"/>
      <use x="180.615234" xlink:href="#DejaVuSansMono-32"/>
      <use x="240.820312" xlink:href="#DejaVuSansMono-32"/>
      <use x="301.025391" xlink:href="#DejaVuSansMono-32"/>
      <use x="361.230469" xlink:href="#DejaVuSansMono-32"/>
      <use x="421.435547" xlink:href="#DejaVuSansMono-61"/>
      <use x="481.640625" xlink:href="#DejaVuSansMono-32"/>
      <use x="541.845703" xlink:href="#DejaVuSansMono-54"/>
      <use x="602.050781" xlink:href="#DejaVuSansMono-54"/>
      <use x="662.255859" xlink:href="#DejaVuSansMono-51"/>
      <use x="722.460938" xlink:href="#DejaVuSansMono-49"/>
      <use x="782.666016" xlink:href="#DejaVuSansMono-54"/>
      <use x="842.871094" xlink:href="#DejaVuSansMono-55"/>
      <use x="903.076172" xlink:href="#DejaVuSansMono-53"/>
     </g>
     <!-- y_max  = 60342610919632 -->
     <g transform="translate(365.839688 41.660812)scale(0.06 -0.06)">
      <defs>
       <path d="M 54.59375 54.6875 
L 35.015625 28.515625 
L 56.5 0 
L 46.09375 0 
L 30.078125 21.921875 
L 14.109375 0 
L 3.71875 0 
L 25.203125 28.515625 
L 5.609375 54.6875 
L 15.578125 54.6875 
L 30.078125 34.90625 
L 44.484375 54.6875 
z
" id="DejaVuSansMono-120"/>
      </defs>
      <use xlink:href="#DejaVuSansMono-121"/>
      <use x="60.205078" xlink:href="#DejaVuSansMono-95"/>
      <use x="120.410156" xlink:href="#DejaVuSansMono-109"/>
      <use x="180.615234" xlink:href="#DejaVuSansMono-97"/>
      <use x="240.820312" xlink:href="#DejaVuSansMono-120"/>
      <use x="301.025391" xlink:href="#DejaVuSansMono-32"/>
      <use x="361.230469" xlink:href="#DejaVuSansMono-32"/>
      <use x="421.435547" xlink:href="#DejaVuSansMono-61"/>
      <use x="481.640625" xlink:href="#DejaVuSansMono-32"/>
      <use x="541.845703" xlink:href="#DejaVuSansMono-54"/>
      <use x="602.050781" xlink:href="#DejaVuSansMono-48"/>
      <use x="662.255859" xlink:href="#DejaVuSansMono-51"/>
      <use x="722.460938" xlink:href="#DejaVuSansMono-52"/>
      <use x="782.666016" xlink:href="#DejaVuSansMono-50"/>
      <use x="842.871094" xlink:href="#DejaVuSansMono-54"/>
      <use x="903.076172" xlink:href="#DejaVuSansMono-49"/>
      <use x="963.28125" xlink:href="#DejaVuSansMono-48"/>
      <use x="1023.486328" xlink:href="#DejaVuSansMono-57"/>
      <use x="1083.691406" xlink:href="#DejaVuSansMono-49"/>
      <use x="1143.896484" xlink:href="#DejaVuSansMono-57"/>
      <use x="1204.101562" xlink:href="#DejaVuSansMono-54"/>
      <use x="1264.306641" xlink:href="#DejaVuSansMono-51"/>
      <use x="1324.511719" xlink:href="#DejaVuSansMono-50"/>
     </g>
     <!-- x_max  = 577 -->
     <g transform="translate(365.839688 48.584625)scale(0.06 -0.06)">
      <use xlink:href="#DejaVuSansMono-120"/>
      <use x="60.205078" xlink:href="#DejaVuSansMono-95"/>
      <use x="120.410156" xlink:href="#DejaVuSansMono-109"/>
      <use x="180.615234" xlink:href="#DejaVuSansMono-97"/>
      <use x="240.820312" xlink:href="#DejaVuSansMono-120"/>
      <use x="301.025391" xlink:href="#DejaVuSansMono-32"/>
      <use x="361.230469" xlink:href="#DejaVuSansMono-32"/>
      <use x="421.435547" xlink:href="#DejaVuSansMono-61"/>
      <use x="481.640625" xlink:href="#DejaVuSansMono-32"/>
      <use x="541.845703" xlink:href="#DejaVuSansMono-53"/>
      <use x="602.050781" xlink:href="#DejaVuSansMono-55"/>
      <use x="662.255859" xlink:href="#DejaVuSansMono-55"/>
     </g>
    </g>
    <g id="line2d_20">
     <path d="M 349.039688 66.499875 
L 361.039688 66.499875 
" style="fill:none;stroke:#ff7f0e;stroke-linecap:square;stroke-width:0.666667;"/>
    </g>
    <g id="line2d_21"/>
    <g id="text_20">
     <!-- "Widest":  -->
     <g transform="translate(365.839688 57.59025)scale(0.06 -0.06)">
      <defs>
       <path d="M 0 72.90625 
L 9.625 72.90625 
L 16.609375 13.71875 
L 24.90625 52.875 
L 35.203125 52.875 
L 43.609375 13.625 
L 50.59375 72.90625 
L 60.203125 72.90625 
L 49.3125 0 
L 39.984375 0 
L 30.078125 43.3125 
L 20.21875 0 
L 10.890625 0 
z
" id="DejaVuSansMono-87"/>
       <path d="M 12.5 54.6875 
L 35.5 54.6875 
L 35.5 6.984375 
L 53.328125 6.984375 
L 53.328125 0 
L 8.6875 0 
L 8.6875 6.984375 
L 26.515625 6.984375 
L 26.515625 47.703125 
L 12.5 47.703125 
z
M 26.515625 75.984375 
L 35.5 75.984375 
L 35.5 64.59375 
L 26.515625 64.59375 
z
" id="DejaVuSansMono-105"/>
       <path d="M 41.890625 47.703125 
L 41.890625 75.984375 
L 50.875 75.984375 
L 50.875 0 
L 41.890625 0 
L 41.890625 6.890625 
Q 39.65625 2.828125 35.90625 0.703125 
Q 32.171875 -1.421875 27.296875 -1.421875 
Q 17.390625 -1.421875 11.6875 6.265625 
Q 6 13.96875 6 27.484375 
Q 6 40.828125 11.71875 48.40625 
Q 17.4375 56 27.296875 56 
Q 32.234375 56 35.984375 53.875 
Q 39.75 51.765625 41.890625 47.703125 
z
M 15.484375 27.296875 
Q 15.484375 16.84375 18.796875 11.515625 
Q 22.125 6.203125 28.609375 6.203125 
Q 35.109375 6.203125 38.5 11.5625 
Q 41.890625 16.9375 41.890625 27.296875 
Q 41.890625 37.703125 38.5 43.046875 
Q 35.109375 48.390625 28.609375 48.390625 
Q 22.125 48.390625 18.796875 43.0625 
Q 15.484375 37.75 15.484375 27.296875 
z
" id="DejaVuSansMono-100"/>
      </defs>
      <use xlink:href="#DejaVuSansMono-34"/>
      <use x="60.205078" xlink:href="#DejaVuSansMono-87"/>
      <use x="120.410156" xlink:href="#DejaVuSansMono-105"/>
      <use x="180.615234" xlink:href="#DejaVuSansMono-100"/>
      <use x="240.820312" xlink:href="#DejaVuSansMono-101"/>
      <use x="301.025391" xlink:href="#DejaVuSansMono-115"/>
      <use x="361.230469" xlink:href="#DejaVuSansMono-116"/>
      <use x="421.435547" xlink:href="#DejaVuSansMono-34"/>
      <use x="481.640625" xlink:href="#DejaVuSansMono-58"/>
      <use x="541.845703" xlink:href="#DejaVuSansMono-32"/>
     </g>
     <!-- y_0    = 8400511 -->
     <g transform="translate(365.839688 64.347187)scale(0.06 -0.06)">
      <defs>
       <path d="M 30.078125 34.625 
Q 23.484375 34.625 19.890625 30.9375 
Q 16.3125 27.25 16.3125 20.515625 
Q 16.3125 13.765625 19.9375 10.03125 
Q 23.578125 6.296875 30.078125 6.296875 
Q 36.71875 6.296875 40.296875 9.984375 
Q 43.890625 13.671875 43.890625 20.515625 
Q 43.890625 27.203125 40.25 30.90625 
Q 36.625 34.625 30.078125 34.625 
z
M 21.484375 38.71875 
Q 15.1875 40.328125 11.640625 44.71875 
Q 8.109375 49.125 8.109375 55.328125 
Q 8.109375 64.015625 14.015625 69.109375 
Q 19.921875 74.21875 30.078125 74.21875 
Q 40.28125 74.21875 46.1875 69.109375 
Q 52.09375 64.015625 52.09375 55.328125 
Q 52.09375 49.125 48.546875 44.71875 
Q 45.015625 40.328125 38.71875 38.71875 
Q 46.046875 37.109375 49.921875 32.21875 
Q 53.8125 27.34375 53.8125 19.578125 
Q 53.8125 9.71875 47.515625 4.140625 
Q 41.21875 -1.421875 30.078125 -1.421875 
Q 18.953125 -1.421875 12.671875 4.125 
Q 6.390625 9.671875 6.390625 19.484375 
Q 6.390625 27.296875 10.265625 32.203125 
Q 14.15625 37.109375 21.484375 38.71875 
z
M 17.921875 54.390625 
Q 17.921875 48.53125 21.046875 45.453125 
Q 24.171875 42.390625 30.078125 42.390625 
Q 36.03125 42.390625 39.15625 45.453125 
Q 42.28125 48.53125 42.28125 54.390625 
Q 42.28125 60.359375 39.171875 63.484375 
Q 36.078125 66.609375 30.078125 66.609375 
Q 24.171875 66.609375 21.046875 63.453125 
Q 17.921875 60.296875 17.921875 54.390625 
z
" id="DejaVuSansMono-56"/>
      </defs>
      <use xlink:href="#DejaVuSansMono-121"/>
      <use x="60.205078" xlink:href="#DejaVuSansMono-95"/>
      <use x="120.410156" xlink:href="#DejaVuSansMono-48"/>
      <use x="180.615234" xlink:href="#DejaVuSansMono-32"/>
      <use x="240.820312" xlink:href="#DejaVuSansMono-32"/>
      <use x="301.025391" xlink:href="#DejaVuSansMono-32"/>
      <use x="361.230469" xlink:href="#DejaVuSansMono-32"/>
      <use x="421.435547" xlink:href="#DejaVuSansMono-61"/>
      <use x="481.640625" xlink:href="#DejaVuSansMono-32"/>
      <use x="541.845703" xlink:href="#DejaVuSansMono-56"/>
      <use x="602.050781" xlink:href="#DejaVuSansMono-52"/>
      <use x="662.255859" xlink:href="#DejaVuSansMono-48"/>
      <use x="722.460938" xlink:href="#DejaVuSansMono-48"/>
      <use x="782.666016" xlink:href="#DejaVuSansMono-53"/>
      <use x="842.871094" xlink:href="#DejaVuSansMono-49"/>
      <use x="903.076172" xlink:href="#DejaVuSansMono-49"/>
     </g>
     <!-- y_max  = 159424614880 -->
     <g transform="translate(365.839688 71.271)scale(0.06 -0.06)">
      <use xlink:href="#DejaVuSansMono-121"/>
      <use x="60.205078" xlink:href="#DejaVuSansMono-95"/>
      <use x="120.410156" xlink:href="#DejaVuSansMono-109"/>
      <use x="180.615234" xlink:href="#DejaVuSansMono-97"/>
      <use x="240.820312" xlink:href="#DejaVuSansMono-120"/>
      <use x="301.025391" xlink:href="#DejaVuSansMono-32"/>
      <use x="361.230469" xlink:href="#DejaVuSansMono-32"/>
      <use x="421.435547" xlink:href="#DejaVuSansMono-61"/>
      <use x="481.640625" xlink:href="#DejaVuSansMono-32"/>
      <use x="541.845703" xlink:href="#DejaVuSansMono-49"/>
      <use x="602.050781" xlink:href="#DejaVuSansMono-53"/>
      <use x="662.255859" xlink:href="#DejaVuSansMono-57"/>
      <use x="722.460938" xlink:href="#DejaVuSansMono-52"/>
      <use x="782.666016" xlink:href="#DejaVuSansMono-50"/>
      <use x="842.871094" xlink:href="#DejaVuSansMono-52"/>
      <use x="903.076172" xlink:href="#DejaVuSansMono-54"/>
      <use x="963.28125" xlink:href="#DejaVuSansMono-49"/>
      <use x="1023.486328" xlink:href="#DejaVuSansMono-52"/>
      <use x="1083.691406" xlink:href="#DejaVuSansMono-56"/>
      <use x="1143.896484" xlink:href="#DejaVuSansMono-56"/>
      <use x="1204.101562" xlink:href="#DejaVuSansMono-48"/>
     </g>
     <!-- x_max  = 686 -->
     <g transform="translate(365.839688 78.194812)scale(0.06 -0.06)">
      <use xlink:href="#DejaVuSansMono-120"/>
      <use x="60.205078" xlink:href="#DejaVuSansMono-95"/>
      <use x="120.410156" xlink:href="#DejaVuSansMono-109"/>
      <use x="180.615234" xlink:href="#DejaVuSansMono-97"/>
      <use x="240.820312" xlink:href="#DejaVuSansMono-120"/>
      <use x="301.025391" xlink:href="#DejaVuSansMono-32"/>
      <use x="361.230469" xlink:href="#DejaVuSansMono-32"/>
      <use x="421.435547" xlink:href="#DejaVuSansMono-61"/>
      <use x="481.640625" xlink:href="#DejaVuSansMono-32"/>
      <use x="541.845703" xlink:href="#DejaVuSansMono-54"/>
      <use x="602.050781" xlink:href="#DejaVuSansMono-56"/>
      <use x="662.255859" xlink:href="#DejaVuSansMono-54"/>
     </g>
    </g>
   </g>
  </g>
 </g>
 <defs>
  <clipPath id="p81acf1ae91">
   <rect height="298.453375" width="418.46125" x="35.85875" y="17.989125"/>
  </clipPath>
 </defs>
</svg>
