<?xml version="1.0" encoding="utf-8" standalone="no"?>
<!DOCTYPE svg PUBLIC "-//W3C//DTD SVG 1.1//EN"
  "http://www.w3.org/Graphics/SVG/1.1/DTD/svg11.dtd">
<!-- Created with matplotlib (https://matplotlib.org/) -->
<svg height="345.6pt" version="1.1" viewBox="0 0 460.8 345.6" width="460.8pt" xmlns="http://www.w3.org/2000/svg" xmlns:xlink="http://www.w3.org/1999/xlink">
 <metadata>
  <rdf:RDF xmlns:cc="http://creativecommons.org/ns#" xmlns:dc="http://purl.org/dc/elements/1.1/" xmlns:rdf="http://www.w3.org/1999/02/22-rdf-syntax-ns#">
   <cc:Work>
    <dc:type rdf:resource="http://purl.org/dc/dcmitype/StillImage"/>
    <dc:date>2022-03-17T00:24:49.908624</dc:date>
    <dc:format>image/svg+xml</dc:format>
    <dc:creator>
     <cc:Agent>
      <dc:title>Matplotlib v3.3.2, https://matplotlib.org/</dc:title>
     </cc:Agent>
    </dc:creator>
   </cc:Work>
  </rdf:RDF>
 </metadata>
 <defs>
  <style type="text/css">*{stroke-linecap:butt;stroke-linejoin:round;}</style>
 </defs>
 <g id="figure_1">
  <g id="patch_1">
   <path d="M 0 345.6 
L 460.8 345.6 
L 460.8 0 
L 0 0 
z
" style="fill:#ffffff;"/>
  </g>
  <g id="axes_1">
   <g id="patch_2">
    <path d="M 33.33875 316.4425 
L 454.32 316.4425 
L 454.32 17.989125 
L 33.33875 17.989125 
z
" style="fill:#ffffff;"/>
   </g>
   <g id="matplotlib.axis_1">
    <g id="xtick_1">
     <g id="line2d_1">
      <defs>
       <path d="M 0 0 
L 0 3.5 
" id="m84ef784f42" style="stroke:#000000;stroke-width:0.8;"/>
      </defs>
      <g>
       <use style="stroke:#000000;stroke-width:0.8;" x="52.474261" xlink:href="#m84ef784f42" y="316.4425"/>
      </g>
     </g>
     <g id="text_1">
      <!-- 0 -->
      <g transform="translate(50.668168 328.033437)scale(0.06 -0.06)">
       <defs>
        <path d="M 23.578125 36.625 
Q 23.578125 39.3125 25.453125 41.265625 
Q 27.34375 43.21875 29.984375 43.21875 
Q 32.71875 43.21875 34.671875 41.265625 
Q 36.625 39.3125 36.625 36.625 
Q 36.625 33.890625 34.6875 31.984375 
Q 32.765625 30.078125 29.984375 30.078125 
Q 27.25 30.078125 25.40625 31.9375 
Q 23.578125 33.796875 23.578125 36.625 
z
M 30.078125 66.40625 
Q 23.1875 66.40625 19.796875 58.984375 
Q 16.40625 51.5625 16.40625 36.375 
Q 16.40625 21.234375 19.796875 13.8125 
Q 23.1875 6.390625 30.078125 6.390625 
Q 37.015625 6.390625 40.40625 13.8125 
Q 43.796875 21.234375 43.796875 36.375 
Q 43.796875 51.5625 40.40625 58.984375 
Q 37.015625 66.40625 30.078125 66.40625 
z
M 30.078125 74.21875 
Q 41.75 74.21875 47.734375 64.640625 
Q 53.71875 55.078125 53.71875 36.375 
Q 53.71875 17.71875 47.734375 8.140625 
Q 41.75 -1.421875 30.078125 -1.421875 
Q 18.40625 -1.421875 12.453125 8.140625 
Q 6.5 17.71875 6.5 36.375 
Q 6.5 55.078125 12.453125 64.640625 
Q 18.40625 74.21875 30.078125 74.21875 
z
" id="DejaVuSansMono-48"/>
       </defs>
       <use xlink:href="#DejaVuSansMono-48"/>
      </g>
     </g>
    </g>
    <g id="xtick_2">
     <g id="line2d_2">
      <g>
       <use style="stroke:#000000;stroke-width:0.8;" x="114.804917" xlink:href="#m84ef784f42" y="316.4425"/>
      </g>
     </g>
     <g id="text_2">
      <!-- 50 -->
      <g transform="translate(111.19273 328.033437)scale(0.06 -0.06)">
       <defs>
        <path d="M 10.109375 72.90625 
L 47.015625 72.90625 
L 47.015625 64.59375 
L 19.09375 64.59375 
L 19.09375 46.6875 
Q 21.1875 47.46875 23.3125 47.828125 
Q 25.4375 48.1875 27.59375 48.1875 
Q 38.921875 48.1875 45.5625 41.5 
Q 52.203125 34.8125 52.203125 23.390625 
Q 52.203125 11.859375 45.234375 5.21875 
Q 38.28125 -1.421875 26.21875 -1.421875 
Q 20.40625 -1.421875 15.59375 -0.640625 
Q 10.796875 0.140625 6.984375 1.703125 
L 6.984375 11.71875 
Q 11.46875 9.28125 16.015625 8.078125 
Q 20.5625 6.890625 25.296875 6.890625 
Q 33.453125 6.890625 37.859375 11.1875 
Q 42.28125 15.484375 42.28125 23.390625 
Q 42.28125 31.203125 37.71875 35.546875 
Q 33.15625 39.890625 25 39.890625 
Q 21.046875 39.890625 17.28125 38.984375 
Q 13.53125 38.09375 10.109375 36.28125 
z
" id="DejaVuSansMono-53"/>
       </defs>
       <use xlink:href="#DejaVuSansMono-53"/>
       <use x="60.205078" xlink:href="#DejaVuSansMono-48"/>
      </g>
     </g>
    </g>
    <g id="xtick_3">
     <g id="line2d_3">
      <g>
       <use style="stroke:#000000;stroke-width:0.8;" x="177.135573" xlink:href="#m84ef784f42" y="316.4425"/>
      </g>
     </g>
     <g id="text_3">
      <!-- 100 -->
      <g transform="translate(171.717292 328.033437)scale(0.06 -0.06)">
       <defs>
        <path d="M 13.1875 8.296875 
L 28.515625 8.296875 
L 28.515625 64.015625 
L 12.015625 60.296875 
L 12.015625 69.28125 
L 28.421875 72.90625 
L 38.28125 72.90625 
L 38.28125 8.296875 
L 53.421875 8.296875 
L 53.421875 0 
L 13.1875 0 
z
" id="DejaVuSansMono-49"/>
       </defs>
       <use xlink:href="#DejaVuSansMono-49"/>
       <use x="60.205078" xlink:href="#DejaVuSansMono-48"/>
       <use x="120.410156" xlink:href="#DejaVuSansMono-48"/>
      </g>
     </g>
    </g>
    <g id="xtick_4">
     <g id="line2d_4">
      <g>
       <use style="stroke:#000000;stroke-width:0.8;" x="239.466229" xlink:href="#m84ef784f42" y="316.4425"/>
      </g>
     </g>
     <g id="text_4">
      <!-- 150 -->
      <g transform="translate(234.047948 328.033437)scale(0.06 -0.06)">
       <use xlink:href="#DejaVuSansMono-49"/>
       <use x="60.205078" xlink:href="#DejaVuSansMono-53"/>
       <use x="120.410156" xlink:href="#DejaVuSansMono-48"/>
      </g>
     </g>
    </g>
    <g id="xtick_5">
     <g id="line2d_5">
      <g>
       <use style="stroke:#000000;stroke-width:0.8;" x="301.796885" xlink:href="#m84ef784f42" y="316.4425"/>
      </g>
     </g>
     <g id="text_5">
      <!-- 200 -->
      <g transform="translate(296.378604 328.033437)scale(0.06 -0.06)">
       <defs>
        <path d="M 18.21875 8.296875 
L 51.703125 8.296875 
L 51.703125 0 
L 7.421875 0 
L 7.421875 8.296875 
Q 16.546875 17.921875 23.375 25.296875 
Q 30.21875 32.671875 32.8125 35.6875 
Q 37.703125 41.65625 39.40625 45.34375 
Q 41.109375 49.03125 41.109375 52.875 
Q 41.109375 58.984375 37.515625 62.453125 
Q 33.9375 65.921875 27.6875 65.921875 
Q 23.25 65.921875 18.359375 64.3125 
Q 13.484375 62.703125 8.015625 59.421875 
L 8.015625 69.390625 
Q 13.03125 71.78125 17.890625 73 
Q 22.75 74.21875 27.484375 74.21875 
Q 38.1875 74.21875 44.703125 68.53125 
Q 51.21875 62.84375 51.21875 53.609375 
Q 51.21875 48.921875 49.046875 44.234375 
Q 46.875 39.546875 42 33.890625 
Q 39.265625 30.71875 34.0625 25.09375 
Q 28.859375 19.484375 18.21875 8.296875 
z
" id="DejaVuSansMono-50"/>
       </defs>
       <use xlink:href="#DejaVuSansMono-50"/>
       <use x="60.205078" xlink:href="#DejaVuSansMono-48"/>
       <use x="120.410156" xlink:href="#DejaVuSansMono-48"/>
      </g>
     </g>
    </g>
    <g id="xtick_6">
     <g id="line2d_6">
      <g>
       <use style="stroke:#000000;stroke-width:0.8;" x="364.127541" xlink:href="#m84ef784f42" y="316.4425"/>
      </g>
     </g>
     <g id="text_6">
      <!-- 250 -->
      <g transform="translate(358.70926 328.033437)scale(0.06 -0.06)">
       <use xlink:href="#DejaVuSansMono-50"/>
       <use x="60.205078" xlink:href="#DejaVuSansMono-53"/>
       <use x="120.410156" xlink:href="#DejaVuSansMono-48"/>
      </g>
     </g>
    </g>
    <g id="xtick_7">
     <g id="line2d_7">
      <g>
       <use style="stroke:#000000;stroke-width:0.8;" x="426.458197" xlink:href="#m84ef784f42" y="316.4425"/>
      </g>
     </g>
     <g id="text_7">
      <!-- 300 -->
      <g transform="translate(421.039916 328.033437)scale(0.06 -0.06)">
       <defs>
        <path d="M 37.890625 39.015625 
Q 45.0625 37.109375 48.875 32.25 
Q 52.6875 27.390625 52.6875 20.125 
Q 52.6875 10.0625 45.921875 4.3125 
Q 39.15625 -1.421875 27.203125 -1.421875 
Q 22.171875 -1.421875 16.9375 -0.484375 
Q 11.71875 0.4375 6.6875 2.203125 
L 6.6875 12.015625 
Q 11.671875 9.421875 16.5 8.15625 
Q 21.34375 6.890625 26.125 6.890625 
Q 34.234375 6.890625 38.578125 10.546875 
Q 42.921875 14.203125 42.921875 21.09375 
Q 42.921875 27.4375 38.578125 31.171875 
Q 34.234375 34.90625 26.8125 34.90625 
L 19.28125 34.90625 
L 19.28125 43.015625 
L 26.8125 43.015625 
Q 33.59375 43.015625 37.40625 45.984375 
Q 41.21875 48.96875 41.21875 54.296875 
Q 41.21875 59.90625 37.671875 62.90625 
Q 34.125 65.921875 27.59375 65.921875 
Q 23.25 65.921875 18.609375 64.9375 
Q 13.96875 63.96875 8.890625 62.015625 
L 8.890625 71.09375 
Q 14.796875 72.65625 19.40625 73.4375 
Q 24.03125 74.21875 27.59375 74.21875 
Q 38.234375 74.21875 44.609375 68.875 
Q 50.984375 63.53125 50.984375 54.6875 
Q 50.984375 48.6875 47.625 44.671875 
Q 44.28125 40.671875 37.890625 39.015625 
z
" id="DejaVuSansMono-51"/>
       </defs>
       <use xlink:href="#DejaVuSansMono-51"/>
       <use x="60.205078" xlink:href="#DejaVuSansMono-48"/>
       <use x="120.410156" xlink:href="#DejaVuSansMono-48"/>
      </g>
     </g>
    </g>
    <g id="text_8">
     <!-- n -->
     <g transform="translate(242.023281 337.872187)scale(0.06 -0.06)">
      <defs>
       <path d="M 51.3125 33.890625 
L 51.3125 0 
L 42.28125 0 
L 42.28125 33.890625 
Q 42.28125 41.265625 39.6875 44.71875 
Q 37.109375 48.1875 31.59375 48.1875 
Q 25.296875 48.1875 21.890625 43.71875 
Q 18.5 39.265625 18.5 30.90625 
L 18.5 0 
L 9.515625 0 
L 9.515625 54.6875 
L 18.5 54.6875 
L 18.5 46.484375 
Q 20.90625 51.171875 25 53.578125 
Q 29.109375 56 34.71875 56 
Q 43.0625 56 47.1875 50.5 
Q 51.3125 45.015625 51.3125 33.890625 
z
" id="DejaVuSansMono-110"/>
      </defs>
      <use xlink:href="#DejaVuSansMono-110"/>
     </g>
    </g>
   </g>
   <g id="matplotlib.axis_2">
    <g id="ytick_1">
     <g id="line2d_8">
      <defs>
       <path d="M 0 0 
L -3.5 0 
" id="m14044b4211" style="stroke:#000000;stroke-width:0.8;"/>
      </defs>
      <g>
       <use style="stroke:#000000;stroke-width:0.8;" x="33.33875" xlink:href="#m14044b4211" y="269.074392"/>
      </g>
     </g>
     <g id="text_9">
      <!-- $\mathdefault{10^{1}}$ -->
      <g transform="translate(16.31875 271.369861)scale(0.06 -0.06)">
       <use transform="translate(0 0.684375)" xlink:href="#DejaVuSansMono-49"/>
       <use transform="translate(60.205078 0.684375)" xlink:href="#DejaVuSansMono-48"/>
       <use transform="translate(121.367188 38.965625)scale(0.7)" xlink:href="#DejaVuSansMono-49"/>
      </g>
     </g>
    </g>
    <g id="ytick_2">
     <g id="line2d_9">
      <g>
       <use style="stroke:#000000;stroke-width:0.8;" x="33.33875" xlink:href="#m14044b4211" y="201.470302"/>
      </g>
     </g>
     <g id="text_10">
      <!-- $\mathdefault{10^{3}}$ -->
      <g transform="translate(16.31875 203.765771)scale(0.06 -0.06)">
       <use transform="translate(0 0.765625)" xlink:href="#DejaVuSansMono-49"/>
       <use transform="translate(60.205078 0.765625)" xlink:href="#DejaVuSansMono-48"/>
       <use transform="translate(121.367188 39.046875)scale(0.7)" xlink:href="#DejaVuSansMono-51"/>
      </g>
     </g>
    </g>
    <g id="ytick_3">
     <g id="line2d_10">
      <g>
       <use style="stroke:#000000;stroke-width:0.8;" x="33.33875" xlink:href="#m14044b4211" y="133.866212"/>
      </g>
     </g>
     <g id="text_11">
      <!-- $\mathdefault{10^{5}}$ -->
      <g transform="translate(16.31875 136.161681)scale(0.06 -0.06)">
       <use transform="translate(0 0.684375)" xlink:href="#DejaVuSansMono-49"/>
       <use transform="translate(60.205078 0.684375)" xlink:href="#DejaVuSansMono-48"/>
       <use transform="translate(121.367188 38.965625)scale(0.7)" xlink:href="#DejaVuSansMono-53"/>
      </g>
     </g>
    </g>
    <g id="ytick_4">
     <g id="line2d_11">
      <g>
       <use style="stroke:#000000;stroke-width:0.8;" x="33.33875" xlink:href="#m14044b4211" y="66.262122"/>
      </g>
     </g>
     <g id="text_12">
      <!-- $\mathdefault{10^{7}}$ -->
      <g transform="translate(16.31875 68.55759)scale(0.06 -0.06)">
       <defs>
        <path d="M 6.78125 72.90625 
L 52.6875 72.90625 
L 52.6875 68.703125 
L 26.609375 0 
L 16.3125 0 
L 41.703125 64.59375 
L 6.78125 64.59375 
z
" id="DejaVuSansMono-55"/>
       </defs>
       <use transform="translate(0 0.684375)" xlink:href="#DejaVuSansMono-49"/>
       <use transform="translate(60.205078 0.684375)" xlink:href="#DejaVuSansMono-48"/>
       <use transform="translate(121.367188 38.965625)scale(0.7)" xlink:href="#DejaVuSansMono-55"/>
      </g>
     </g>
    </g>
    <g id="text_13">
     <!-- y_n -->
     <g transform="translate(10.904062 172.634094)rotate(-90)scale(0.06 -0.06)">
      <defs>
       <path d="M 41.890625 17.578125 
Q 39.65625 11.859375 36.1875 2.546875 
Q 31.34375 -10.359375 29.6875 -13.1875 
Q 27.4375 -17 24.0625 -18.890625 
Q 20.703125 -20.796875 16.21875 -20.796875 
L 8.984375 -20.796875 
L 8.984375 -13.28125 
L 14.3125 -13.28125 
Q 18.265625 -13.28125 20.5 -10.984375 
Q 22.75 -8.6875 26.21875 0.875 
L 5.078125 54.6875 
L 14.59375 54.6875 
L 30.8125 11.921875 
L 46.78125 54.6875 
L 56.296875 54.6875 
z
" id="DejaVuSansMono-121"/>
       <path d="M 60.203125 -19.671875 
L 60.203125 -23.578125 
L 0 -23.578125 
L 0 -19.671875 
z
" id="DejaVuSansMono-95"/>
      </defs>
      <use xlink:href="#DejaVuSansMono-121"/>
      <use x="60.205078" xlink:href="#DejaVuSansMono-95"/>
      <use x="120.410156" xlink:href="#DejaVuSansMono-110"/>
     </g>
    </g>
   </g>
   <g id="line2d_12">
    <path clip-path="url(#pba123533d6)" d="M 52.474261 153.293701 
L 53.720874 137.165843 
L 54.967488 147.341272 
L 56.214101 131.213476 
L 57.460714 141.388905 
L 58.707327 125.261149 
L 59.95394 135.436579 
L 61.200553 119.30885 
L 62.447166 129.48428 
L 63.693779 113.356569 
L 64.940393 123.531999 
L 66.187006 107.4043 
L 67.433619 117.57973 
L 68.680232 101.45204 
L 69.926845 111.627469 
L 71.173458 95.499784 
L 72.420071 105.675214 
L 73.666684 89.547532 
L 74.913297 99.722962 
L 76.159911 83.595283 
L 77.406524 93.770712 
L 78.653137 77.643035 
L 81.146363 97.993894 
L 82.392976 81.866215 
L 83.639589 92.041645 
L 84.886202 75.913968 
L 86.132816 86.089397 
L 87.379429 69.961721 
L 88.626042 80.137151 
L 89.872655 64.009475 
L 91.119268 74.184905 
L 92.365881 58.05723 
L 96.10572 88.583518 
L 97.352334 72.455842 
L 98.598947 82.631271 
L 99.84556 66.503596 
L 101.092173 76.679025 
L 102.338786 60.55135 
L 103.585399 70.72678 
L 104.832012 54.599105 
L 107.325239 74.949964 
L 108.571852 58.822289 
L 109.818465 68.997718 
L 111.065078 52.870043 
L 112.311691 63.045473 
L 113.558304 46.917798 
L 114.804917 57.093228 
L 116.05153 40.965553 
L 118.544757 61.316412 
L 119.79137 45.188738 
L 122.284596 65.539597 
L 123.531209 49.411922 
L 124.777822 59.587352 
L 126.024435 43.459677 
L 127.271048 53.635107 
L 128.517662 37.507432 
L 129.764275 47.682862 
L 131.010888 31.555187 
L 133.504114 51.906046 
L 134.750727 35.778372 
L 137.243953 56.129231 
L 138.490567 40.001557 
L 140.983793 60.352416 
L 142.230406 44.224741 
L 148.463471 95.101889 
L 149.710085 78.974211 
L 154.696537 119.675929 
L 155.94315 103.548236 
L 159.68299 134.074525 
L 160.929603 117.946801 
L 162.176216 128.12223 
L 163.422829 111.994523 
L 164.669442 122.169953 
L 165.916055 106.042256 
L 167.162668 116.217686 
L 168.409281 100.089997 
L 169.655894 110.265426 
L 170.902508 94.137742 
L 173.395734 114.488601 
L 174.642347 98.360914 
L 179.628799 139.062632 
L 180.875413 122.934888 
L 184.615252 153.461177 
L 185.861865 137.333317 
L 188.355091 157.684176 
L 189.601704 141.556254 
L 193.341544 172.082542 
L 194.588157 155.954207 
L 195.83477 166.129636 
L 197.081383 150.001522 
L 199.574609 170.352381 
L 200.821222 154.224119 
L 203.314449 174.574978 
L 204.561062 158.44652 
L 205.807675 168.62195 
L 207.054288 152.493754 
L 208.300901 162.669183 
L 209.547514 146.541161 
L 212.04074 166.89202 
L 213.287354 150.763882 
L 214.533967 160.939311 
L 215.78058 144.811327 
L 217.027193 154.986757 
L 218.273806 138.858876 
L 219.520419 149.034306 
L 220.767032 132.906494 
L 223.260259 153.257353 
L 224.506872 137.129496 
L 227.000098 157.480355 
L 228.246711 141.352436 
L 230.739937 161.703295 
L 231.98655 145.575295 
L 236.973003 186.277013 
L 238.219616 170.147601 
L 239.466229 180.32303 
L 240.712842 164.194197 
L 241.959455 174.369627 
L 243.206068 158.24118 
L 244.452682 168.41661 
L 245.699295 152.288421 
L 246.945908 162.46385 
L 248.192521 146.335833 
L 249.439134 156.511262 
L 250.685747 140.383359 
L 251.93236 150.558789 
L 253.178973 134.430962 
L 254.425587 144.606391 
L 255.6722 128.478615 
L 258.165426 148.829474 
L 259.412039 132.701665 
L 265.645105 183.578812 
L 266.891718 167.449692 
L 268.138331 177.625121 
L 269.384944 161.496483 
L 270.631557 171.671912 
L 271.87817 155.543595 
L 275.61801 186.069884 
L 276.864623 169.940496 
L 278.111236 180.115925 
L 279.357849 163.987109 
L 280.604462 174.162538 
L 281.851075 158.034102 
L 284.344301 178.384961 
L 285.590914 162.256272 
L 286.837528 172.431701 
L 288.084141 156.30335 
L 291.82398 186.829639 
L 293.070593 170.70016 
L 294.317206 180.875589 
L 295.563819 164.746712 
L 296.810433 174.922141 
L 298.057046 158.793665 
L 306.783337 230.021671 
L 308.029951 213.859818 
L 309.276564 224.035247 
L 310.523177 207.884831 
L 311.76979 218.060261 
L 313.016403 201.917445 
L 314.263016 212.092874 
L 315.509629 195.955114 
L 320.496082 236.656832 
L 321.742695 220.475483 
L 322.989308 230.650912 
L 324.235921 214.487564 
L 326.729147 234.838423 
L 327.97576 218.663317 
L 329.222374 228.838747 
L 330.468987 212.679536 
L 331.7156 222.854966 
L 332.962213 206.706305 
L 335.455439 227.057164 
L 336.702052 210.901555 
L 337.948665 221.076984 
L 339.195279 204.930716 
L 340.441892 215.106145 
L 341.688505 198.966088 
L 342.935118 209.141518 
L 344.181731 193.005594 
L 346.674957 213.356453 
L 347.92157 197.217787 
L 351.66141 227.744075 
L 352.908023 211.587129 
L 354.154636 221.762558 
L 355.401249 205.615401 
L 356.647862 215.790831 
L 357.894475 199.650183 
L 360.387702 220.001042 
L 361.634315 203.856087 
L 362.880928 214.031516 
L 364.127541 197.892333 
L 366.620767 218.243192 
L 367.86738 202.100186 
L 369.113993 212.275616 
L 370.360606 196.137729 
L 371.60722 206.313159 
L 372.853833 190.17868 
L 374.100446 200.35411 
L 375.347059 184.221901 
L 376.593672 194.397331 
L 377.840285 178.266634 
L 379.086898 188.442064 
L 380.333511 172.312375 
L 384.073351 202.838664 
L 385.319964 186.705619 
L 386.566577 196.881049 
L 387.81319 180.749795 
L 389.059803 190.925225 
L 390.306416 174.795165 
L 391.55303 184.970594 
L 392.799643 168.84133 
L 397.786095 209.543048 
L 399.032708 193.406896 
L 401.525934 213.757755 
L 402.772548 197.618784 
L 405.265774 217.969643 
L 406.512387 201.82692 
L 411.498839 242.528638 
L 412.745453 226.320963 
L 416.485292 256.847252 
L 417.731905 240.50835 
L 418.978518 250.68378 
L 420.225131 234.416957 
L 421.471744 244.592387 
L 422.718357 228.372674 
L 428.951423 279.249822 
L 430.198036 262.17472 
L 435.184489 302.876437 
L 435.184489 302.876437 
" style="fill:none;stroke:#1f77b4;stroke-linecap:square;stroke-width:0.666667;"/>
   </g>
   <g id="line2d_13">
    <path clip-path="url(#pba123533d6)" d="M 52.474261 153.293701 
L 53.720874 137.165843 
L 54.967488 147.341272 
L 56.214101 131.213476 
L 57.460714 141.388905 
L 58.707327 125.261149 
L 59.95394 135.436579 
L 61.200553 119.30885 
L 62.447166 129.48428 
L 63.693779 113.356569 
L 64.940393 123.531999 
L 66.187006 107.4043 
L 67.433619 117.57973 
L 68.680232 101.45204 
L 69.926845 111.627469 
L 71.173458 95.499784 
L 72.420071 105.675214 
L 73.666684 89.547532 
L 74.913297 99.722962 
L 76.159911 83.595283 
L 77.406524 93.770712 
L 78.653137 77.643035 
L 81.146363 97.993894 
L 82.392976 81.866215 
L 83.639589 92.041645 
L 84.886202 75.913968 
L 86.132816 86.089397 
L 87.379429 69.961721 
L 88.626042 80.137151 
L 89.872655 64.009475 
L 91.119268 74.184905 
L 92.365881 58.05723 
L 96.10572 88.583518 
L 97.352334 72.455842 
L 98.598947 82.631271 
L 99.84556 66.503596 
L 101.092173 76.679025 
L 102.338786 60.55135 
L 103.585399 70.72678 
L 104.832012 54.599105 
L 107.325239 74.949964 
L 108.571852 58.822289 
L 109.818465 68.997718 
L 111.065078 52.870043 
L 112.311691 63.045473 
L 113.558304 46.917798 
L 114.804917 57.093228 
L 116.05153 40.965553 
L 118.544757 61.316412 
L 119.79137 45.188738 
L 122.284596 65.539597 
L 123.531209 49.411922 
L 124.777822 59.587352 
L 126.024435 43.459677 
L 127.271048 53.635107 
L 128.517662 37.507432 
L 129.764275 47.682862 
L 131.010888 31.555187 
L 133.504114 51.906046 
L 134.750727 35.778372 
L 137.243953 56.129231 
L 138.490567 40.001557 
L 140.983793 60.352416 
L 142.230406 44.224741 
L 148.463471 95.101889 
L 149.710085 78.974211 
L 154.696537 119.675929 
L 155.94315 103.548236 
L 159.68299 134.074525 
L 160.929603 117.946801 
L 162.176216 128.12223 
L 163.422829 111.994523 
L 164.669442 122.169953 
L 165.916055 106.042256 
L 167.162668 116.217686 
L 168.409281 100.089997 
L 169.655894 110.265426 
L 170.902508 94.137742 
L 173.395734 114.488601 
L 174.642347 98.360914 
L 179.628799 139.062632 
L 180.875413 122.934888 
L 184.615252 153.461177 
L 185.861865 137.333317 
L 188.355091 157.684176 
L 189.601704 141.556254 
L 193.341544 172.082542 
L 194.588157 155.954207 
L 195.83477 166.129636 
L 197.081383 150.001522 
L 199.574609 170.352381 
L 200.821222 154.224119 
L 203.314449 174.574978 
L 204.561062 158.44652 
L 205.807675 168.62195 
L 207.054288 152.493754 
L 208.300901 162.669183 
L 209.547514 146.541161 
L 212.04074 166.89202 
L 213.287354 150.763882 
L 214.533967 160.939311 
L 215.78058 144.811327 
L 217.027193 154.986757 
L 218.273806 138.858876 
L 219.520419 149.034306 
L 220.767032 132.906494 
L 223.260259 153.257353 
L 224.506872 137.129496 
L 227.000098 157.480355 
L 228.246711 141.352436 
L 230.739937 161.703295 
L 231.98655 145.575295 
L 236.973003 186.277013 
L 238.219616 170.147601 
L 239.466229 180.32303 
L 240.712842 164.194197 
L 241.959455 174.369627 
L 243.206068 158.24118 
L 244.452682 168.41661 
L 245.699295 152.288421 
L 246.945908 162.46385 
L 248.192521 146.335833 
L 249.439134 156.511262 
L 250.685747 140.383359 
L 251.93236 150.558789 
L 253.178973 134.430962 
L 254.425587 144.606391 
L 255.6722 128.478615 
L 258.165426 148.829474 
L 259.412039 132.701665 
L 265.645105 183.578812 
L 266.891718 167.449692 
L 268.138331 177.625121 
L 269.384944 161.496483 
L 270.631557 171.671912 
L 271.87817 155.543595 
L 275.61801 186.069884 
L 276.864623 169.940496 
L 278.111236 180.115925 
L 279.357849 163.987109 
L 280.604462 174.162538 
L 281.851075 158.034102 
L 284.344301 178.384961 
L 285.590914 162.256272 
L 286.837528 172.431701 
L 288.084141 156.30335 
L 291.82398 186.829639 
L 293.070593 170.70016 
L 294.317206 180.875589 
L 295.563819 164.746712 
L 296.810433 174.922141 
L 298.057046 158.793665 
L 306.783337 230.021671 
L 308.029951 213.859818 
L 309.276564 224.035247 
L 310.523177 207.884831 
L 311.76979 218.060261 
L 313.016403 201.917445 
L 314.263016 212.092874 
L 315.509629 195.955114 
L 320.496082 236.656832 
L 321.742695 220.475483 
L 322.989308 230.650912 
L 324.235921 214.487564 
L 326.729147 234.838423 
L 327.97576 218.663317 
L 329.222374 228.838747 
L 330.468987 212.679536 
L 331.7156 222.854966 
L 332.962213 206.706305 
L 335.455439 227.057164 
L 336.702052 210.901555 
L 337.948665 221.076984 
L 339.195279 204.930716 
L 340.441892 215.106145 
L 341.688505 198.966088 
L 342.935118 209.141518 
L 344.181731 193.005594 
L 346.674957 213.356453 
L 347.92157 197.217787 
L 351.66141 227.744075 
L 352.908023 211.587129 
L 354.154636 221.762558 
L 355.401249 205.615401 
L 356.647862 215.790831 
L 357.894475 199.650183 
L 360.387702 220.001042 
L 361.634315 203.856087 
L 362.880928 214.031516 
L 364.127541 197.892333 
L 366.620767 218.243192 
L 367.86738 202.100186 
L 369.113993 212.275616 
L 370.360606 196.137729 
L 371.60722 206.313159 
L 372.853833 190.17868 
L 374.100446 200.35411 
L 375.347059 184.221901 
L 376.593672 194.397331 
L 377.840285 178.266634 
L 379.086898 188.442064 
L 380.333511 172.312375 
L 384.073351 202.838664 
L 385.319964 186.705619 
L 386.566577 196.881049 
L 387.81319 180.749795 
L 389.059803 190.925225 
L 390.306416 174.795165 
L 391.55303 184.970594 
L 392.799643 168.84133 
L 397.786095 209.543048 
L 399.032708 193.406896 
L 401.525934 213.757755 
L 402.772548 197.618784 
L 405.265774 217.969643 
L 406.512387 201.82692 
L 411.498839 242.528638 
L 412.745453 226.320963 
L 416.485292 256.847252 
L 417.731905 240.50835 
L 418.978518 250.68378 
L 420.225131 234.416957 
L 421.471744 244.592387 
L 422.718357 228.372674 
L 428.951423 279.249822 
L 430.198036 262.17472 
L 435.184489 302.876437 
L 435.184489 302.876437 
" style="fill:none;stroke:#ff7f0e;stroke-linecap:square;stroke-width:0.666667;"/>
   </g>
   <g id="patch_3">
    <path d="M 33.33875 316.4425 
L 33.33875 17.989125 
" style="fill:none;stroke:#000000;stroke-linecap:square;stroke-linejoin:miter;stroke-width:0.8;"/>
   </g>
   <g id="patch_4">
    <path d="M 454.32 316.4425 
L 454.32 17.989125 
" style="fill:none;stroke:#000000;stroke-linecap:square;stroke-linejoin:miter;stroke-width:0.8;"/>
   </g>
   <g id="patch_5">
    <path d="M 33.33875 316.4425 
L 454.32 316.4425 
" style="fill:none;stroke:#000000;stroke-linecap:square;stroke-linejoin:miter;stroke-width:0.8;"/>
   </g>
   <g id="patch_6">
    <path d="M 33.33875 17.989125 
L 454.32 17.989125 
" style="fill:none;stroke:#000000;stroke-linecap:square;stroke-linejoin:miter;stroke-width:0.8;"/>
   </g>
   <g id="text_14">
    <!-- "3y+1" problem -->
    <g transform="translate(213.487 11.989125)scale(0.072 -0.072)">
     <defs>
      <path d="M 43.703125 72.90625 
L 43.703125 45.796875 
L 35.203125 45.796875 
L 35.203125 72.90625 
z
M 25 72.90625 
L 25 45.796875 
L 16.5 45.796875 
L 16.5 72.90625 
z
" id="DejaVuSansMono-34"/>
      <path d="M 34.1875 57.171875 
L 34.1875 35.5 
L 55.90625 35.5 
L 55.90625 27.203125 
L 34.1875 27.203125 
L 34.1875 5.515625 
L 25.984375 5.515625 
L 25.984375 27.203125 
L 4.296875 27.203125 
L 4.296875 35.5 
L 25.984375 35.5 
L 25.984375 57.171875 
z
" id="DejaVuSansMono-43"/>
      <path id="DejaVuSansMono-32"/>
      <path d="M 18.3125 6.890625 
L 18.3125 -20.796875 
L 9.28125 -20.796875 
L 9.28125 54.6875 
L 18.3125 54.6875 
L 18.3125 47.703125 
Q 20.5625 51.765625 24.296875 53.875 
Q 28.03125 56 32.90625 56 
Q 42.828125 56 48.46875 48.328125 
Q 54.109375 40.671875 54.109375 27.09375 
Q 54.109375 13.765625 48.4375 6.171875 
Q 42.78125 -1.421875 32.90625 -1.421875 
Q 27.9375 -1.421875 24.1875 0.703125 
Q 20.453125 2.828125 18.3125 6.890625 
z
M 44.671875 27.296875 
Q 44.671875 37.75 41.375 43.0625 
Q 38.09375 48.390625 31.59375 48.390625 
Q 25.046875 48.390625 21.671875 43.046875 
Q 18.3125 37.703125 18.3125 27.296875 
Q 18.3125 16.9375 21.671875 11.5625 
Q 25.046875 6.203125 31.59375 6.203125 
Q 38.09375 6.203125 41.375 11.515625 
Q 44.671875 16.84375 44.671875 27.296875 
z
" id="DejaVuSansMono-112"/>
      <path d="M 56.390625 43.40625 
Q 53.515625 45.65625 50.53125 46.671875 
Q 47.5625 47.703125 44 47.703125 
Q 35.59375 47.703125 31.140625 42.421875 
Q 26.703125 37.15625 26.703125 27.203125 
L 26.703125 0 
L 17.671875 0 
L 17.671875 54.6875 
L 26.703125 54.6875 
L 26.703125 44 
Q 28.953125 49.8125 33.609375 52.90625 
Q 38.28125 56 44.671875 56 
Q 48 56 50.875 55.171875 
Q 53.765625 54.34375 56.390625 52.59375 
z
" id="DejaVuSansMono-114"/>
      <path d="M 30.078125 48.390625 
Q 23.25 48.390625 19.734375 43.0625 
Q 16.21875 37.75 16.21875 27.296875 
Q 16.21875 16.890625 19.734375 11.546875 
Q 23.25 6.203125 30.078125 6.203125 
Q 36.96875 6.203125 40.484375 11.546875 
Q 44 16.890625 44 27.296875 
Q 44 37.75 40.484375 43.0625 
Q 36.96875 48.390625 30.078125 48.390625 
z
M 30.078125 56 
Q 41.453125 56 47.484375 48.625 
Q 53.515625 41.265625 53.515625 27.296875 
Q 53.515625 13.28125 47.5 5.921875 
Q 41.5 -1.421875 30.078125 -1.421875 
Q 18.703125 -1.421875 12.6875 5.921875 
Q 6.6875 13.28125 6.6875 27.296875 
Q 6.6875 41.265625 12.6875 48.625 
Q 18.703125 56 30.078125 56 
z
" id="DejaVuSansMono-111"/>
      <path d="M 44.828125 27.296875 
Q 44.828125 37.75 41.5 43.0625 
Q 38.1875 48.390625 31.6875 48.390625 
Q 25.140625 48.390625 21.765625 43.046875 
Q 18.40625 37.703125 18.40625 27.296875 
Q 18.40625 16.9375 21.765625 11.5625 
Q 25.140625 6.203125 31.6875 6.203125 
Q 38.1875 6.203125 41.5 11.515625 
Q 44.828125 16.84375 44.828125 27.296875 
z
M 18.40625 47.703125 
Q 20.5625 51.703125 24.34375 53.84375 
Q 28.125 56 33.109375 56 
Q 42.96875 56 48.625 48.40625 
Q 54.296875 40.828125 54.296875 27.484375 
Q 54.296875 13.96875 48.609375 6.265625 
Q 42.921875 -1.421875 33.015625 -1.421875 
Q 28.125 -1.421875 24.390625 0.703125 
Q 20.65625 2.828125 18.40625 6.890625 
L 18.40625 0 
L 9.421875 0 
L 9.421875 75.984375 
L 18.40625 75.984375 
z
" id="DejaVuSansMono-98"/>
      <path d="M 31.203125 19.828125 
Q 31.203125 13.765625 33.421875 10.6875 
Q 35.640625 7.625 39.984375 7.625 
L 50.484375 7.625 
L 50.484375 0 
L 39.109375 0 
Q 31.0625 0 26.640625 5.171875 
Q 22.21875 10.359375 22.21875 19.828125 
L 22.21875 69.484375 
L 7.8125 69.484375 
L 7.8125 76.515625 
L 31.203125 76.515625 
z
" id="DejaVuSansMono-108"/>
      <path d="M 54.296875 29.59375 
L 54.296875 25.203125 
L 15.375 25.203125 
L 15.375 24.90625 
Q 15.375 15.96875 20.03125 11.078125 
Q 24.703125 6.203125 33.203125 6.203125 
Q 37.5 6.203125 42.1875 7.5625 
Q 46.875 8.9375 52.203125 11.71875 
L 52.203125 2.78125 
Q 47.078125 0.6875 42.3125 -0.359375 
Q 37.546875 -1.421875 33.109375 -1.421875 
Q 20.359375 -1.421875 13.171875 6.21875 
Q 6 13.875 6 27.296875 
Q 6 40.375 13.03125 48.1875 
Q 20.0625 56 31.78125 56 
Q 42.234375 56 48.265625 48.921875 
Q 54.296875 41.84375 54.296875 29.59375 
z
M 45.3125 32.234375 
Q 45.125 40.140625 41.578125 44.265625 
Q 38.03125 48.390625 31.390625 48.390625 
Q 24.90625 48.390625 20.703125 44.09375 
Q 16.5 39.796875 15.71875 32.171875 
z
" id="DejaVuSansMono-101"/>
      <path d="M 33.015625 49.125 
Q 34.671875 52.640625 37.234375 54.3125 
Q 39.796875 56 43.40625 56 
Q 50 56 52.703125 50.890625 
Q 55.421875 45.796875 55.421875 31.6875 
L 55.421875 0 
L 47.21875 0 
L 47.21875 31.296875 
Q 47.21875 42.875 45.921875 45.671875 
Q 44.625 48.484375 41.21875 48.484375 
Q 37.3125 48.484375 35.859375 45.484375 
Q 34.421875 42.484375 34.421875 31.296875 
L 34.421875 0 
L 26.21875 0 
L 26.21875 31.296875 
Q 26.21875 43.015625 24.828125 45.75 
Q 23.4375 48.484375 19.828125 48.484375 
Q 16.265625 48.484375 14.875 45.484375 
Q 13.484375 42.484375 13.484375 31.296875 
L 13.484375 0 
L 5.328125 0 
L 5.328125 54.6875 
L 13.484375 54.6875 
L 13.484375 50 
Q 15.09375 52.9375 17.5 54.46875 
Q 19.921875 56 23 56 
Q 26.703125 56 29.171875 54.296875 
Q 31.640625 52.59375 33.015625 49.125 
z
" id="DejaVuSansMono-109"/>
     </defs>
     <use xlink:href="#DejaVuSansMono-34"/>
     <use x="60.205078" xlink:href="#DejaVuSansMono-51"/>
     <use x="120.410156" xlink:href="#DejaVuSansMono-121"/>
     <use x="180.615234" xlink:href="#DejaVuSansMono-43"/>
     <use x="240.820312" xlink:href="#DejaVuSansMono-49"/>
     <use x="301.025391" xlink:href="#DejaVuSansMono-34"/>
     <use x="361.230469" xlink:href="#DejaVuSansMono-32"/>
     <use x="421.435547" xlink:href="#DejaVuSansMono-112"/>
     <use x="481.640625" xlink:href="#DejaVuSansMono-114"/>
     <use x="541.845703" xlink:href="#DejaVuSansMono-111"/>
     <use x="602.050781" xlink:href="#DejaVuSansMono-98"/>
     <use x="662.255859" xlink:href="#DejaVuSansMono-108"/>
     <use x="722.460938" xlink:href="#DejaVuSansMono-101"/>
     <use x="782.666016" xlink:href="#DejaVuSansMono-109"/>
    </g>
   </g>
   <g id="legend_1">
    <g id="patch_7">
     <path d="M 365.900625 82.0095 
L 450.12 82.0095 
Q 451.32 82.0095 451.32 80.8095 
L 451.32 22.189125 
Q 451.32 20.989125 450.12 20.989125 
L 365.900625 20.989125 
Q 364.700625 20.989125 364.700625 22.189125 
L 364.700625 80.8095 
Q 364.700625 82.0095 365.900625 82.0095 
z
" style="fill:#ffffff;opacity:0.8;stroke:#cccccc;stroke-linejoin:miter;"/>
    </g>
    <g id="line2d_14">
     <path d="M 367.100625 36.889687 
L 379.100625 36.889687 
" style="fill:none;stroke:#1f77b4;stroke-linecap:square;stroke-width:0.666667;"/>
    </g>
    <g id="line2d_15"/>
    <g id="text_15">
     <!-- "Tallest": -->
     <g transform="translate(383.900625 27.980062)scale(0.06 -0.06)">
      <defs>
       <path d="M 2.296875 72.90625 
L 57.90625 72.90625 
L 57.90625 64.59375 
L 35.109375 64.59375 
L 35.109375 0 
L 25.203125 0 
L 25.203125 64.59375 
L 2.296875 64.59375 
z
" id="DejaVuSansMono-84"/>
       <path d="M 34.28125 27.484375 
L 31.296875 27.484375 
Q 23.4375 27.484375 19.453125 24.71875 
Q 15.484375 21.96875 15.484375 16.5 
Q 15.484375 11.578125 18.453125 8.84375 
Q 21.4375 6.109375 26.703125 6.109375 
Q 34.125 6.109375 38.375 11.25 
Q 42.625 16.40625 42.671875 25.484375 
L 42.671875 27.484375 
z
M 51.703125 31.203125 
L 51.703125 0 
L 42.671875 0 
L 42.671875 8.109375 
Q 39.796875 3.21875 35.421875 0.890625 
Q 31.0625 -1.421875 24.8125 -1.421875 
Q 16.453125 -1.421875 11.46875 3.296875 
Q 6.5 8.015625 6.5 15.921875 
Q 6.5 25.046875 12.625 29.78125 
Q 18.75 34.515625 30.609375 34.515625 
L 42.671875 34.515625 
L 42.671875 35.9375 
Q 42.625 42.484375 39.34375 45.4375 
Q 36.078125 48.390625 28.90625 48.390625 
Q 24.3125 48.390625 19.625 47.0625 
Q 14.9375 45.75 10.5 43.21875 
L 10.5 52.203125 
Q 15.484375 54.109375 20.046875 55.046875 
Q 24.609375 56 28.90625 56 
Q 35.6875 56 40.5 54 
Q 45.3125 52 48.296875 48 
Q 50.140625 45.5625 50.921875 41.96875 
Q 51.703125 38.375 51.703125 31.203125 
z
" id="DejaVuSansMono-97"/>
       <path d="M 47.515625 52.78125 
L 47.515625 44 
Q 43.65625 46.234375 39.75 47.359375 
Q 35.84375 48.484375 31.78125 48.484375 
Q 25.6875 48.484375 22.671875 46.5 
Q 19.671875 44.53125 19.671875 40.484375 
Q 19.671875 36.8125 21.921875 35 
Q 24.171875 33.203125 33.109375 31.5 
L 36.71875 30.8125 
Q 43.40625 29.546875 46.84375 25.734375 
Q 50.296875 21.921875 50.296875 15.828125 
Q 50.296875 7.71875 44.53125 3.140625 
Q 38.765625 -1.421875 28.515625 -1.421875 
Q 24.46875 -1.421875 20.015625 -0.5625 
Q 15.578125 0.296875 10.40625 2 
L 10.40625 11.28125 
Q 15.4375 8.6875 20.015625 7.390625 
Q 24.609375 6.109375 28.71875 6.109375 
Q 34.671875 6.109375 37.9375 8.515625 
Q 41.21875 10.9375 41.21875 15.28125 
Q 41.21875 21.53125 29.25 23.921875 
L 28.859375 24.03125 
L 25.484375 24.703125 
Q 17.71875 26.21875 14.15625 29.8125 
Q 10.59375 33.40625 10.59375 39.59375 
Q 10.59375 47.46875 15.90625 51.734375 
Q 21.234375 56 31.109375 56 
Q 35.5 56 39.546875 55.1875 
Q 43.609375 54.390625 47.515625 52.78125 
z
" id="DejaVuSansMono-115"/>
       <path d="M 29.984375 70.21875 
L 29.984375 54.6875 
L 50.390625 54.6875 
L 50.390625 47.703125 
L 29.984375 47.703125 
L 29.984375 18.015625 
Q 29.984375 11.96875 32.28125 9.5625 
Q 34.578125 7.171875 40.28125 7.171875 
L 50.390625 7.171875 
L 50.390625 0 
L 39.40625 0 
Q 29.296875 0 25.140625 4.046875 
Q 21 8.109375 21 18.015625 
L 21 47.703125 
L 6.390625 47.703125 
L 6.390625 54.6875 
L 21 54.6875 
L 21 70.21875 
z
" id="DejaVuSansMono-116"/>
       <path d="M 23.875 51.90625 
L 36.1875 51.90625 
L 36.1875 37.109375 
L 23.875 37.109375 
z
M 23.875 14.890625 
L 36.1875 14.890625 
L 36.1875 0 
L 23.875 0 
z
" id="DejaVuSansMono-58"/>
      </defs>
      <use xlink:href="#DejaVuSansMono-34"/>
      <use x="60.205078" xlink:href="#DejaVuSansMono-84"/>
      <use x="120.410156" xlink:href="#DejaVuSansMono-97"/>
      <use x="180.615234" xlink:href="#DejaVuSansMono-108"/>
      <use x="240.820312" xlink:href="#DejaVuSansMono-108"/>
      <use x="301.025391" xlink:href="#DejaVuSansMono-101"/>
      <use x="361.230469" xlink:href="#DejaVuSansMono-115"/>
      <use x="421.435547" xlink:href="#DejaVuSansMono-116"/>
      <use x="481.640625" xlink:href="#DejaVuSansMono-34"/>
      <use x="541.845703" xlink:href="#DejaVuSansMono-58"/>
     </g>
     <!-- y_0    = 26623 -->
     <g transform="translate(383.900625 34.737)scale(0.06 -0.06)">
      <defs>
       <path d="M 4.296875 25.59375 
L 55.90625 25.59375 
L 55.90625 17.1875 
L 4.296875 17.1875 
z
M 4.296875 45.40625 
L 55.90625 45.40625 
L 55.90625 37.109375 
L 4.296875 37.109375 
z
" id="DejaVuSansMono-61"/>
       <path d="M 48.390625 71.296875 
L 48.390625 62.203125 
Q 45.3125 64.015625 41.84375 64.96875 
Q 38.375 65.921875 34.625 65.921875 
Q 25.25 65.921875 20.40625 58.859375 
Q 15.578125 51.8125 15.578125 38.09375 
Q 17.921875 42.96875 22.0625 45.578125 
Q 26.21875 48.1875 31.59375 48.1875 
Q 42.140625 48.1875 47.921875 41.71875 
Q 53.71875 35.25 53.71875 23.390625 
Q 53.71875 11.578125 47.75 5.078125 
Q 41.796875 -1.421875 31 -1.421875 
Q 18.3125 -1.421875 12.40625 7.6875 
Q 6.5 16.796875 6.5 36.375 
Q 6.5 54.828125 13.59375 64.515625 
Q 20.703125 74.21875 34.1875 74.21875 
Q 37.796875 74.21875 41.40625 73.453125 
Q 45.015625 72.703125 48.390625 71.296875 
z
M 30.8125 40.484375 
Q 24.515625 40.484375 20.890625 35.9375 
Q 17.28125 31.390625 17.28125 23.390625 
Q 17.28125 15.375 20.890625 10.828125 
Q 24.515625 6.296875 30.8125 6.296875 
Q 37.359375 6.296875 40.671875 10.609375 
Q 44 14.9375 44 23.390625 
Q 44 31.890625 40.671875 36.1875 
Q 37.359375 40.484375 30.8125 40.484375 
z
" id="DejaVuSansMono-54"/>
      </defs>
      <use xlink:href="#DejaVuSansMono-121"/>
      <use x="60.205078" xlink:href="#DejaVuSansMono-95"/>
      <use x="120.410156" xlink:href="#DejaVuSansMono-48"/>
      <use x="180.615234" xlink:href="#DejaVuSansMono-32"/>
      <use x="240.820312" xlink:href="#DejaVuSansMono-32"/>
      <use x="301.025391" xlink:href="#DejaVuSansMono-32"/>
      <use x="361.230469" xlink:href="#DejaVuSansMono-32"/>
      <use x="421.435547" xlink:href="#DejaVuSansMono-61"/>
      <use x="481.640625" xlink:href="#DejaVuSansMono-32"/>
      <use x="541.845703" xlink:href="#DejaVuSansMono-50"/>
      <use x="602.050781" xlink:href="#DejaVuSansMono-54"/>
      <use x="662.255859" xlink:href="#DejaVuSansMono-54"/>
      <use x="722.460938" xlink:href="#DejaVuSansMono-50"/>
      <use x="782.666016" xlink:href="#DejaVuSansMono-51"/>
     </g>
     <!-- y_max  = 106358020 -->
     <g transform="translate(383.900625 41.660812)scale(0.06 -0.06)">
      <defs>
       <path d="M 54.59375 54.6875 
L 35.015625 28.515625 
L 56.5 0 
L 46.09375 0 
L 30.078125 21.921875 
L 14.109375 0 
L 3.71875 0 
L 25.203125 28.515625 
L 5.609375 54.6875 
L 15.578125 54.6875 
L 30.078125 34.90625 
L 44.484375 54.6875 
z
" id="DejaVuSansMono-120"/>
       <path d="M 30.078125 34.625 
Q 23.484375 34.625 19.890625 30.9375 
Q 16.3125 27.25 16.3125 20.515625 
Q 16.3125 13.765625 19.9375 10.03125 
Q 23.578125 6.296875 30.078125 6.296875 
Q 36.71875 6.296875 40.296875 9.984375 
Q 43.890625 13.671875 43.890625 20.515625 
Q 43.890625 27.203125 40.25 30.90625 
Q 36.625 34.625 30.078125 34.625 
z
M 21.484375 38.71875 
Q 15.1875 40.328125 11.640625 44.71875 
Q 8.109375 49.125 8.109375 55.328125 
Q 8.109375 64.015625 14.015625 69.109375 
Q 19.921875 74.21875 30.078125 74.21875 
Q 40.28125 74.21875 46.1875 69.109375 
Q 52.09375 64.015625 52.09375 55.328125 
Q 52.09375 49.125 48.546875 44.71875 
Q 45.015625 40.328125 38.71875 38.71875 
Q 46.046875 37.109375 49.921875 32.21875 
Q 53.8125 27.34375 53.8125 19.578125 
Q 53.8125 9.71875 47.515625 4.140625 
Q 41.21875 -1.421875 30.078125 -1.421875 
Q 18.953125 -1.421875 12.671875 4.125 
Q 6.390625 9.671875 6.390625 19.484375 
Q 6.390625 27.296875 10.265625 32.203125 
Q 14.15625 37.109375 21.484375 38.71875 
z
M 17.921875 54.390625 
Q 17.921875 48.53125 21.046875 45.453125 
Q 24.171875 42.390625 30.078125 42.390625 
Q 36.03125 42.390625 39.15625 45.453125 
Q 42.28125 48.53125 42.28125 54.390625 
Q 42.28125 60.359375 39.171875 63.484375 
Q 36.078125 66.609375 30.078125 66.609375 
Q 24.171875 66.609375 21.046875 63.453125 
Q 17.921875 60.296875 17.921875 54.390625 
z
" id="DejaVuSansMono-56"/>
      </defs>
      <use xlink:href="#DejaVuSansMono-121"/>
      <use x="60.205078" xlink:href="#DejaVuSansMono-95"/>
      <use x="120.410156" xlink:href="#DejaVuSansMono-109"/>
      <use x="180.615234" xlink:href="#DejaVuSansMono-97"/>
      <use x="240.820312" xlink:href="#DejaVuSansMono-120"/>
      <use x="301.025391" xlink:href="#DejaVuSansMono-32"/>
      <use x="361.230469" xlink:href="#DejaVuSansMono-32"/>
      <use x="421.435547" xlink:href="#DejaVuSansMono-61"/>
      <use x="481.640625" xlink:href="#DejaVuSansMono-32"/>
      <use x="541.845703" xlink:href="#DejaVuSansMono-49"/>
      <use x="602.050781" xlink:href="#DejaVuSansMono-48"/>
      <use x="662.255859" xlink:href="#DejaVuSansMono-54"/>
      <use x="722.460938" xlink:href="#DejaVuSansMono-51"/>
      <use x="782.666016" xlink:href="#DejaVuSansMono-53"/>
      <use x="842.871094" xlink:href="#DejaVuSansMono-56"/>
      <use x="903.076172" xlink:href="#DejaVuSansMono-48"/>
      <use x="963.28125" xlink:href="#DejaVuSansMono-50"/>
      <use x="1023.486328" xlink:href="#DejaVuSansMono-48"/>
     </g>
     <!-- x_max  = 308 -->
     <g transform="translate(383.900625 48.584625)scale(0.06 -0.06)">
      <use xlink:href="#DejaVuSansMono-120"/>
      <use x="60.205078" xlink:href="#DejaVuSansMono-95"/>
      <use x="120.410156" xlink:href="#DejaVuSansMono-109"/>
      <use x="180.615234" xlink:href="#DejaVuSansMono-97"/>
      <use x="240.820312" xlink:href="#DejaVuSansMono-120"/>
      <use x="301.025391" xlink:href="#DejaVuSansMono-32"/>
      <use x="361.230469" xlink:href="#DejaVuSansMono-32"/>
      <use x="421.435547" xlink:href="#DejaVuSansMono-61"/>
      <use x="481.640625" xlink:href="#DejaVuSansMono-32"/>
      <use x="541.845703" xlink:href="#DejaVuSansMono-51"/>
      <use x="602.050781" xlink:href="#DejaVuSansMono-48"/>
      <use x="662.255859" xlink:href="#DejaVuSansMono-56"/>
     </g>
    </g>
    <g id="line2d_16">
     <path d="M 367.100625 66.499875 
L 379.100625 66.499875 
" style="fill:none;stroke:#ff7f0e;stroke-linecap:square;stroke-width:0.666667;"/>
    </g>
    <g id="line2d_17"/>
    <g id="text_16">
     <!-- "Widest":  -->
     <g transform="translate(383.900625 57.59025)scale(0.06 -0.06)">
      <defs>
       <path d="M 0 72.90625 
L 9.625 72.90625 
L 16.609375 13.71875 
L 24.90625 52.875 
L 35.203125 52.875 
L 43.609375 13.625 
L 50.59375 72.90625 
L 60.203125 72.90625 
L 49.3125 0 
L 39.984375 0 
L 30.078125 43.3125 
L 20.21875 0 
L 10.890625 0 
z
" id="DejaVuSansMono-87"/>
       <path d="M 12.5 54.6875 
L 35.5 54.6875 
L 35.5 6.984375 
L 53.328125 6.984375 
L 53.328125 0 
L 8.6875 0 
L 8.6875 6.984375 
L 26.515625 6.984375 
L 26.515625 47.703125 
L 12.5 47.703125 
z
M 26.515625 75.984375 
L 35.5 75.984375 
L 35.5 64.59375 
L 26.515625 64.59375 
z
" id="DejaVuSansMono-105"/>
       <path d="M 41.890625 47.703125 
L 41.890625 75.984375 
L 50.875 75.984375 
L 50.875 0 
L 41.890625 0 
L 41.890625 6.890625 
Q 39.65625 2.828125 35.90625 0.703125 
Q 32.171875 -1.421875 27.296875 -1.421875 
Q 17.390625 -1.421875 11.6875 6.265625 
Q 6 13.96875 6 27.484375 
Q 6 40.828125 11.71875 48.40625 
Q 17.4375 56 27.296875 56 
Q 32.234375 56 35.984375 53.875 
Q 39.75 51.765625 41.890625 47.703125 
z
M 15.484375 27.296875 
Q 15.484375 16.84375 18.796875 11.515625 
Q 22.125 6.203125 28.609375 6.203125 
Q 35.109375 6.203125 38.5 11.5625 
Q 41.890625 16.9375 41.890625 27.296875 
Q 41.890625 37.703125 38.5 43.046875 
Q 35.109375 48.390625 28.609375 48.390625 
Q 22.125 48.390625 18.796875 43.0625 
Q 15.484375 37.75 15.484375 27.296875 
z
" id="DejaVuSansMono-100"/>
      </defs>
      <use xlink:href="#DejaVuSansMono-34"/>
      <use x="60.205078" xlink:href="#DejaVuSansMono-87"/>
      <use x="120.410156" xlink:href="#DejaVuSansMono-105"/>
      <use x="180.615234" xlink:href="#DejaVuSansMono-100"/>
      <use x="240.820312" xlink:href="#DejaVuSansMono-101"/>
      <use x="301.025391" xlink:href="#DejaVuSansMono-115"/>
      <use x="361.230469" xlink:href="#DejaVuSansMono-116"/>
      <use x="421.435547" xlink:href="#DejaVuSansMono-34"/>
      <use x="481.640625" xlink:href="#DejaVuSansMono-58"/>
      <use x="541.845703" xlink:href="#DejaVuSansMono-32"/>
     </g>
     <!-- y_0    = 26623 -->
     <g transform="translate(383.900625 64.347187)scale(0.06 -0.06)">
      <use xlink:href="#DejaVuSansMono-121"/>
      <use x="60.205078" xlink:href="#DejaVuSansMono-95"/>
      <use x="120.410156" xlink:href="#DejaVuSansMono-48"/>
      <use x="180.615234" xlink:href="#DejaVuSansMono-32"/>
      <use x="240.820312" xlink:href="#DejaVuSansMono-32"/>
      <use x="301.025391" xlink:href="#DejaVuSansMono-32"/>
      <use x="361.230469" xlink:href="#DejaVuSansMono-32"/>
      <use x="421.435547" xlink:href="#DejaVuSansMono-61"/>
      <use x="481.640625" xlink:href="#DejaVuSansMono-32"/>
      <use x="541.845703" xlink:href="#DejaVuSansMono-50"/>
      <use x="602.050781" xlink:href="#DejaVuSansMono-54"/>
      <use x="662.255859" xlink:href="#DejaVuSansMono-54"/>
      <use x="722.460938" xlink:href="#DejaVuSansMono-50"/>
      <use x="782.666016" xlink:href="#DejaVuSansMono-51"/>
     </g>
     <!-- y_max  = 106358020 -->
     <g transform="translate(383.900625 71.271)scale(0.06 -0.06)">
      <use xlink:href="#DejaVuSansMono-121"/>
      <use x="60.205078" xlink:href="#DejaVuSansMono-95"/>
      <use x="120.410156" xlink:href="#DejaVuSansMono-109"/>
      <use x="180.615234" xlink:href="#DejaVuSansMono-97"/>
      <use x="240.820312" xlink:href="#DejaVuSansMono-120"/>
      <use x="301.025391" xlink:href="#DejaVuSansMono-32"/>
      <use x="361.230469" xlink:href="#DejaVuSansMono-32"/>
      <use x="421.435547" xlink:href="#DejaVuSansMono-61"/>
      <use x="481.640625" xlink:href="#DejaVuSansMono-32"/>
      <use x="541.845703" xlink:href="#DejaVuSansMono-49"/>
      <use x="602.050781" xlink:href="#DejaVuSansMono-48"/>
      <use x="662.255859" xlink:href="#DejaVuSansMono-54"/>
      <use x="722.460938" xlink:href="#DejaVuSansMono-51"/>
      <use x="782.666016" xlink:href="#DejaVuSansMono-53"/>
      <use x="842.871094" xlink:href="#DejaVuSansMono-56"/>
      <use x="903.076172" xlink:href="#DejaVuSansMono-48"/>
      <use x="963.28125" xlink:href="#DejaVuSansMono-50"/>
      <use x="1023.486328" xlink:href="#DejaVuSansMono-48"/>
     </g>
     <!-- x_max  = 308 -->
     <g transform="translate(383.900625 78.194812)scale(0.06 -0.06)">
      <use xlink:href="#DejaVuSansMono-120"/>
      <use x="60.205078" xlink:href="#DejaVuSansMono-95"/>
      <use x="120.410156" xlink:href="#DejaVuSansMono-109"/>
      <use x="180.615234" xlink:href="#DejaVuSansMono-97"/>
      <use x="240.820312" xlink:href="#DejaVuSansMono-120"/>
      <use x="301.025391" xlink:href="#DejaVuSansMono-32"/>
      <use x="361.230469" xlink:href="#DejaVuSansMono-32"/>
      <use x="421.435547" xlink:href="#DejaVuSansMono-61"/>
      <use x="481.640625" xlink:href="#DejaVuSansMono-32"/>
      <use x="541.845703" xlink:href="#DejaVuSansMono-51"/>
      <use x="602.050781" xlink:href="#DejaVuSansMono-48"/>
      <use x="662.255859" xlink:href="#DejaVuSansMono-56"/>
     </g>
    </g>
   </g>
  </g>
 </g>
 <defs>
  <clipPath id="pba123533d6">
   <rect height="298.453375" width="420.98125" x="33.33875" y="17.989125"/>
  </clipPath>
 </defs>
</svg>
