<?xml version="1.0" encoding="utf-8" standalone="no"?>
<!DOCTYPE svg PUBLIC "-//W3C//DTD SVG 1.1//EN"
  "http://www.w3.org/Graphics/SVG/1.1/DTD/svg11.dtd">
<!-- Created with matplotlib (https://matplotlib.org/) -->
<svg height="345.6pt" version="1.1" viewBox="0 0 460.8 345.6" width="460.8pt" xmlns="http://www.w3.org/2000/svg" xmlns:xlink="http://www.w3.org/1999/xlink">
 <metadata>
  <rdf:RDF xmlns:cc="http://creativecommons.org/ns#" xmlns:dc="http://purl.org/dc/elements/1.1/" xmlns:rdf="http://www.w3.org/1999/02/22-rdf-syntax-ns#">
   <cc:Work>
    <dc:type rdf:resource="http://purl.org/dc/dcmitype/StillImage"/>
    <dc:date>2022-03-17T00:30:53.133493</dc:date>
    <dc:format>image/svg+xml</dc:format>
    <dc:creator>
     <cc:Agent>
      <dc:title>Matplotlib v3.3.2, https://matplotlib.org/</dc:title>
     </cc:Agent>
    </dc:creator>
   </cc:Work>
  </rdf:RDF>
 </metadata>
 <defs>
  <style type="text/css">*{stroke-linecap:butt;stroke-linejoin:round;}</style>
 </defs>
 <g id="figure_1">
  <g id="patch_1">
   <path d="M 0 345.6 
L 460.8 345.6 
L 460.8 0 
L 0 0 
z
" style="fill:#ffffff;"/>
  </g>
  <g id="axes_1">
   <g id="patch_2">
    <path d="M 35.85875 316.4425 
L 454.32 316.4425 
L 454.32 17.989125 
L 35.85875 17.989125 
z
" style="fill:#ffffff;"/>
   </g>
   <g id="matplotlib.axis_1">
    <g id="xtick_1">
     <g id="line2d_1">
      <defs>
       <path d="M 0 0 
L 0 3.5 
" id="mccce2764f0" style="stroke:#000000;stroke-width:0.8;"/>
      </defs>
      <g>
       <use style="stroke:#000000;stroke-width:0.8;" x="54.879716" xlink:href="#mccce2764f0" y="316.4425"/>
      </g>
     </g>
     <g id="text_1">
      <!-- 0 -->
      <g transform="translate(53.073622 328.033437)scale(0.06 -0.06)">
       <defs>
        <path d="M 23.578125 36.625 
Q 23.578125 39.3125 25.453125 41.265625 
Q 27.34375 43.21875 29.984375 43.21875 
Q 32.71875 43.21875 34.671875 41.265625 
Q 36.625 39.3125 36.625 36.625 
Q 36.625 33.890625 34.6875 31.984375 
Q 32.765625 30.078125 29.984375 30.078125 
Q 27.25 30.078125 25.40625 31.9375 
Q 23.578125 33.796875 23.578125 36.625 
z
M 30.078125 66.40625 
Q 23.1875 66.40625 19.796875 58.984375 
Q 16.40625 51.5625 16.40625 36.375 
Q 16.40625 21.234375 19.796875 13.8125 
Q 23.1875 6.390625 30.078125 6.390625 
Q 37.015625 6.390625 40.40625 13.8125 
Q 43.796875 21.234375 43.796875 36.375 
Q 43.796875 51.5625 40.40625 58.984375 
Q 37.015625 66.40625 30.078125 66.40625 
z
M 30.078125 74.21875 
Q 41.75 74.21875 47.734375 64.640625 
Q 53.71875 55.078125 53.71875 36.375 
Q 53.71875 17.71875 47.734375 8.140625 
Q 41.75 -1.421875 30.078125 -1.421875 
Q 18.40625 -1.421875 12.453125 8.140625 
Q 6.5 17.71875 6.5 36.375 
Q 6.5 55.078125 12.453125 64.640625 
Q 18.40625 74.21875 30.078125 74.21875 
z
" id="DejaVuSansMono-48"/>
       </defs>
       <use xlink:href="#DejaVuSansMono-48"/>
      </g>
     </g>
    </g>
    <g id="xtick_2">
     <g id="line2d_2">
      <g>
       <use style="stroke:#000000;stroke-width:0.8;" x="117.039735" xlink:href="#mccce2764f0" y="316.4425"/>
      </g>
     </g>
     <g id="text_2">
      <!-- 100 -->
      <g transform="translate(111.621454 328.033437)scale(0.06 -0.06)">
       <defs>
        <path d="M 13.1875 8.296875 
L 28.515625 8.296875 
L 28.515625 64.015625 
L 12.015625 60.296875 
L 12.015625 69.28125 
L 28.421875 72.90625 
L 38.28125 72.90625 
L 38.28125 8.296875 
L 53.421875 8.296875 
L 53.421875 0 
L 13.1875 0 
z
" id="DejaVuSansMono-49"/>
       </defs>
       <use xlink:href="#DejaVuSansMono-49"/>
       <use x="60.205078" xlink:href="#DejaVuSansMono-48"/>
       <use x="120.410156" xlink:href="#DejaVuSansMono-48"/>
      </g>
     </g>
    </g>
    <g id="xtick_3">
     <g id="line2d_3">
      <g>
       <use style="stroke:#000000;stroke-width:0.8;" x="179.199755" xlink:href="#mccce2764f0" y="316.4425"/>
      </g>
     </g>
     <g id="text_3">
      <!-- 200 -->
      <g transform="translate(173.781473 328.033437)scale(0.06 -0.06)">
       <defs>
        <path d="M 18.21875 8.296875 
L 51.703125 8.296875 
L 51.703125 0 
L 7.421875 0 
L 7.421875 8.296875 
Q 16.546875 17.921875 23.375 25.296875 
Q 30.21875 32.671875 32.8125 35.6875 
Q 37.703125 41.65625 39.40625 45.34375 
Q 41.109375 49.03125 41.109375 52.875 
Q 41.109375 58.984375 37.515625 62.453125 
Q 33.9375 65.921875 27.6875 65.921875 
Q 23.25 65.921875 18.359375 64.3125 
Q 13.484375 62.703125 8.015625 59.421875 
L 8.015625 69.390625 
Q 13.03125 71.78125 17.890625 73 
Q 22.75 74.21875 27.484375 74.21875 
Q 38.1875 74.21875 44.703125 68.53125 
Q 51.21875 62.84375 51.21875 53.609375 
Q 51.21875 48.921875 49.046875 44.234375 
Q 46.875 39.546875 42 33.890625 
Q 39.265625 30.71875 34.0625 25.09375 
Q 28.859375 19.484375 18.21875 8.296875 
z
" id="DejaVuSansMono-50"/>
       </defs>
       <use xlink:href="#DejaVuSansMono-50"/>
       <use x="60.205078" xlink:href="#DejaVuSansMono-48"/>
       <use x="120.410156" xlink:href="#DejaVuSansMono-48"/>
      </g>
     </g>
    </g>
    <g id="xtick_4">
     <g id="line2d_4">
      <g>
       <use style="stroke:#000000;stroke-width:0.8;" x="241.359774" xlink:href="#mccce2764f0" y="316.4425"/>
      </g>
     </g>
     <g id="text_4">
      <!-- 300 -->
      <g transform="translate(235.941493 328.033437)scale(0.06 -0.06)">
       <defs>
        <path d="M 37.890625 39.015625 
Q 45.0625 37.109375 48.875 32.25 
Q 52.6875 27.390625 52.6875 20.125 
Q 52.6875 10.0625 45.921875 4.3125 
Q 39.15625 -1.421875 27.203125 -1.421875 
Q 22.171875 -1.421875 16.9375 -0.484375 
Q 11.71875 0.4375 6.6875 2.203125 
L 6.6875 12.015625 
Q 11.671875 9.421875 16.5 8.15625 
Q 21.34375 6.890625 26.125 6.890625 
Q 34.234375 6.890625 38.578125 10.546875 
Q 42.921875 14.203125 42.921875 21.09375 
Q 42.921875 27.4375 38.578125 31.171875 
Q 34.234375 34.90625 26.8125 34.90625 
L 19.28125 34.90625 
L 19.28125 43.015625 
L 26.8125 43.015625 
Q 33.59375 43.015625 37.40625 45.984375 
Q 41.21875 48.96875 41.21875 54.296875 
Q 41.21875 59.90625 37.671875 62.90625 
Q 34.125 65.921875 27.59375 65.921875 
Q 23.25 65.921875 18.609375 64.9375 
Q 13.96875 63.96875 8.890625 62.015625 
L 8.890625 71.09375 
Q 14.796875 72.65625 19.40625 73.4375 
Q 24.03125 74.21875 27.59375 74.21875 
Q 38.234375 74.21875 44.609375 68.875 
Q 50.984375 63.53125 50.984375 54.6875 
Q 50.984375 48.6875 47.625 44.671875 
Q 44.28125 40.671875 37.890625 39.015625 
z
" id="DejaVuSansMono-51"/>
       </defs>
       <use xlink:href="#DejaVuSansMono-51"/>
       <use x="60.205078" xlink:href="#DejaVuSansMono-48"/>
       <use x="120.410156" xlink:href="#DejaVuSansMono-48"/>
      </g>
     </g>
    </g>
    <g id="xtick_5">
     <g id="line2d_5">
      <g>
       <use style="stroke:#000000;stroke-width:0.8;" x="303.519793" xlink:href="#mccce2764f0" y="316.4425"/>
      </g>
     </g>
     <g id="text_5">
      <!-- 400 -->
      <g transform="translate(298.101512 328.033437)scale(0.06 -0.06)">
       <defs>
        <path d="M 35.890625 63.921875 
L 12.890625 25.390625 
L 35.890625 25.390625 
z
M 34.28125 72.90625 
L 45.703125 72.90625 
L 45.703125 25.390625 
L 55.421875 25.390625 
L 55.421875 17.390625 
L 45.703125 17.390625 
L 45.703125 0 
L 35.890625 0 
L 35.890625 17.390625 
L 4.984375 17.390625 
L 4.984375 26.703125 
z
" id="DejaVuSansMono-52"/>
       </defs>
       <use xlink:href="#DejaVuSansMono-52"/>
       <use x="60.205078" xlink:href="#DejaVuSansMono-48"/>
       <use x="120.410156" xlink:href="#DejaVuSansMono-48"/>
      </g>
     </g>
    </g>
    <g id="xtick_6">
     <g id="line2d_6">
      <g>
       <use style="stroke:#000000;stroke-width:0.8;" x="365.679812" xlink:href="#mccce2764f0" y="316.4425"/>
      </g>
     </g>
     <g id="text_6">
      <!-- 500 -->
      <g transform="translate(360.261531 328.033437)scale(0.06 -0.06)">
       <defs>
        <path d="M 10.109375 72.90625 
L 47.015625 72.90625 
L 47.015625 64.59375 
L 19.09375 64.59375 
L 19.09375 46.6875 
Q 21.1875 47.46875 23.3125 47.828125 
Q 25.4375 48.1875 27.59375 48.1875 
Q 38.921875 48.1875 45.5625 41.5 
Q 52.203125 34.8125 52.203125 23.390625 
Q 52.203125 11.859375 45.234375 5.21875 
Q 38.28125 -1.421875 26.21875 -1.421875 
Q 20.40625 -1.421875 15.59375 -0.640625 
Q 10.796875 0.140625 6.984375 1.703125 
L 6.984375 11.71875 
Q 11.46875 9.28125 16.015625 8.078125 
Q 20.5625 6.890625 25.296875 6.890625 
Q 33.453125 6.890625 37.859375 11.1875 
Q 42.28125 15.484375 42.28125 23.390625 
Q 42.28125 31.203125 37.71875 35.546875 
Q 33.15625 39.890625 25 39.890625 
Q 21.046875 39.890625 17.28125 38.984375 
Q 13.53125 38.09375 10.109375 36.28125 
z
" id="DejaVuSansMono-53"/>
       </defs>
       <use xlink:href="#DejaVuSansMono-53"/>
       <use x="60.205078" xlink:href="#DejaVuSansMono-48"/>
       <use x="120.410156" xlink:href="#DejaVuSansMono-48"/>
      </g>
     </g>
    </g>
    <g id="xtick_7">
     <g id="line2d_7">
      <g>
       <use style="stroke:#000000;stroke-width:0.8;" x="427.839832" xlink:href="#mccce2764f0" y="316.4425"/>
      </g>
     </g>
     <g id="text_7">
      <!-- 600 -->
      <g transform="translate(422.421551 328.033437)scale(0.06 -0.06)">
       <defs>
        <path d="M 48.390625 71.296875 
L 48.390625 62.203125 
Q 45.3125 64.015625 41.84375 64.96875 
Q 38.375 65.921875 34.625 65.921875 
Q 25.25 65.921875 20.40625 58.859375 
Q 15.578125 51.8125 15.578125 38.09375 
Q 17.921875 42.96875 22.0625 45.578125 
Q 26.21875 48.1875 31.59375 48.1875 
Q 42.140625 48.1875 47.921875 41.71875 
Q 53.71875 35.25 53.71875 23.390625 
Q 53.71875 11.578125 47.75 5.078125 
Q 41.796875 -1.421875 31 -1.421875 
Q 18.3125 -1.421875 12.40625 7.6875 
Q 6.5 16.796875 6.5 36.375 
Q 6.5 54.828125 13.59375 64.515625 
Q 20.703125 74.21875 34.1875 74.21875 
Q 37.796875 74.21875 41.40625 73.453125 
Q 45.015625 72.703125 48.390625 71.296875 
z
M 30.8125 40.484375 
Q 24.515625 40.484375 20.890625 35.9375 
Q 17.28125 31.390625 17.28125 23.390625 
Q 17.28125 15.375 20.890625 10.828125 
Q 24.515625 6.296875 30.8125 6.296875 
Q 37.359375 6.296875 40.671875 10.609375 
Q 44 14.9375 44 23.390625 
Q 44 31.890625 40.671875 36.1875 
Q 37.359375 40.484375 30.8125 40.484375 
z
" id="DejaVuSansMono-54"/>
       </defs>
       <use xlink:href="#DejaVuSansMono-54"/>
       <use x="60.205078" xlink:href="#DejaVuSansMono-48"/>
       <use x="120.410156" xlink:href="#DejaVuSansMono-48"/>
      </g>
     </g>
    </g>
    <g id="text_8">
     <!-- n -->
     <g transform="translate(243.283281 337.872187)scale(0.06 -0.06)">
      <defs>
       <path d="M 51.3125 33.890625 
L 51.3125 0 
L 42.28125 0 
L 42.28125 33.890625 
Q 42.28125 41.265625 39.6875 44.71875 
Q 37.109375 48.1875 31.59375 48.1875 
Q 25.296875 48.1875 21.890625 43.71875 
Q 18.5 39.265625 18.5 30.90625 
L 18.5 0 
L 9.515625 0 
L 9.515625 54.6875 
L 18.5 54.6875 
L 18.5 46.484375 
Q 20.90625 51.171875 25 53.578125 
Q 29.109375 56 34.71875 56 
Q 43.0625 56 47.1875 50.5 
Q 51.3125 45.015625 51.3125 33.890625 
z
" id="DejaVuSansMono-110"/>
      </defs>
      <use xlink:href="#DejaVuSansMono-110"/>
     </g>
    </g>
   </g>
   <g id="matplotlib.axis_2">
    <g id="ytick_1">
     <g id="line2d_8">
      <defs>
       <path d="M 0 0 
L -3.5 0 
" id="m2a7d43db81" style="stroke:#000000;stroke-width:0.8;"/>
      </defs>
      <g>
       <use style="stroke:#000000;stroke-width:0.8;" x="35.85875" xlink:href="#m2a7d43db81" y="280.490528"/>
      </g>
     </g>
     <g id="text_9">
      <!-- $\mathdefault{10^{1}}$ -->
      <g transform="translate(18.83875 282.785996)scale(0.06 -0.06)">
       <use transform="translate(0 0.684375)" xlink:href="#DejaVuSansMono-49"/>
       <use transform="translate(60.205078 0.684375)" xlink:href="#DejaVuSansMono-48"/>
       <use transform="translate(121.367188 38.965625)scale(0.7)" xlink:href="#DejaVuSansMono-49"/>
      </g>
     </g>
    </g>
    <g id="ytick_2">
     <g id="line2d_9">
      <g>
       <use style="stroke:#000000;stroke-width:0.8;" x="35.85875" xlink:href="#m2a7d43db81" y="235.718708"/>
      </g>
     </g>
     <g id="text_10">
      <!-- $\mathdefault{10^{3}}$ -->
      <g transform="translate(18.83875 238.014177)scale(0.06 -0.06)">
       <use transform="translate(0 0.765625)" xlink:href="#DejaVuSansMono-49"/>
       <use transform="translate(60.205078 0.765625)" xlink:href="#DejaVuSansMono-48"/>
       <use transform="translate(121.367188 39.046875)scale(0.7)" xlink:href="#DejaVuSansMono-51"/>
      </g>
     </g>
    </g>
    <g id="ytick_3">
     <g id="line2d_10">
      <g>
       <use style="stroke:#000000;stroke-width:0.8;" x="35.85875" xlink:href="#m2a7d43db81" y="190.946888"/>
      </g>
     </g>
     <g id="text_11">
      <!-- $\mathdefault{10^{5}}$ -->
      <g transform="translate(18.83875 193.242357)scale(0.06 -0.06)">
       <use transform="translate(0 0.684375)" xlink:href="#DejaVuSansMono-49"/>
       <use transform="translate(60.205078 0.684375)" xlink:href="#DejaVuSansMono-48"/>
       <use transform="translate(121.367188 38.965625)scale(0.7)" xlink:href="#DejaVuSansMono-53"/>
      </g>
     </g>
    </g>
    <g id="ytick_4">
     <g id="line2d_11">
      <g>
       <use style="stroke:#000000;stroke-width:0.8;" x="35.85875" xlink:href="#m2a7d43db81" y="146.175069"/>
      </g>
     </g>
     <g id="text_12">
      <!-- $\mathdefault{10^{7}}$ -->
      <g transform="translate(18.83875 148.470537)scale(0.06 -0.06)">
       <defs>
        <path d="M 6.78125 72.90625 
L 52.6875 72.90625 
L 52.6875 68.703125 
L 26.609375 0 
L 16.3125 0 
L 41.703125 64.59375 
L 6.78125 64.59375 
z
" id="DejaVuSansMono-55"/>
       </defs>
       <use transform="translate(0 0.684375)" xlink:href="#DejaVuSansMono-49"/>
       <use transform="translate(60.205078 0.684375)" xlink:href="#DejaVuSansMono-48"/>
       <use transform="translate(121.367188 38.965625)scale(0.7)" xlink:href="#DejaVuSansMono-55"/>
      </g>
     </g>
    </g>
    <g id="ytick_5">
     <g id="line2d_12">
      <g>
       <use style="stroke:#000000;stroke-width:0.8;" x="35.85875" xlink:href="#m2a7d43db81" y="101.403249"/>
      </g>
     </g>
     <g id="text_13">
      <!-- $\mathdefault{10^{9}}$ -->
      <g transform="translate(18.83875 103.698718)scale(0.06 -0.06)">
       <defs>
        <path d="M 29.109375 32.328125 
Q 35.40625 32.328125 38.984375 36.859375 
Q 42.578125 41.40625 42.578125 49.421875 
Q 42.578125 57.421875 38.984375 61.953125 
Q 35.40625 66.5 29.109375 66.5 
Q 22.5625 66.5 19.234375 62.171875 
Q 15.921875 57.859375 15.921875 49.421875 
Q 15.921875 40.921875 19.21875 36.625 
Q 22.515625 32.328125 29.109375 32.328125 
z
M 11.53125 1.515625 
L 11.53125 10.59375 
Q 14.59375 8.796875 18.0625 7.84375 
Q 21.53125 6.890625 25.296875 6.890625 
Q 34.671875 6.890625 39.46875 13.9375 
Q 44.28125 21 44.28125 34.71875 
Q 42 29.828125 37.84375 27.21875 
Q 33.6875 24.609375 28.328125 24.609375 
Q 17.78125 24.609375 11.984375 31.09375 
Q 6.203125 37.59375 6.203125 49.515625 
Q 6.203125 61.28125 12.125 67.75 
Q 18.0625 74.21875 28.90625 74.21875 
Q 41.609375 74.21875 47.515625 65.078125 
Q 53.421875 55.953125 53.421875 36.375 
Q 53.421875 17.96875 46.3125 8.265625 
Q 39.203125 -1.421875 25.6875 -1.421875 
Q 22.125 -1.421875 18.5 -0.65625 
Q 14.890625 0.09375 11.53125 1.515625 
z
" id="DejaVuSansMono-57"/>
       </defs>
       <use transform="translate(0 0.765625)" xlink:href="#DejaVuSansMono-49"/>
       <use transform="translate(60.205078 0.765625)" xlink:href="#DejaVuSansMono-48"/>
       <use transform="translate(121.367188 39.046875)scale(0.7)" xlink:href="#DejaVuSansMono-57"/>
      </g>
     </g>
    </g>
    <g id="ytick_6">
     <g id="line2d_13">
      <g>
       <use style="stroke:#000000;stroke-width:0.8;" x="35.85875" xlink:href="#m2a7d43db81" y="56.631429"/>
      </g>
     </g>
     <g id="text_14">
      <!-- $\mathdefault{10^{11}}$ -->
      <g transform="translate(16.31875 58.926898)scale(0.06 -0.06)">
       <use transform="translate(0 0.684375)" xlink:href="#DejaVuSansMono-49"/>
       <use transform="translate(60.205078 0.684375)" xlink:href="#DejaVuSansMono-48"/>
       <use transform="translate(121.367188 38.965625)scale(0.7)" xlink:href="#DejaVuSansMono-49"/>
       <use transform="translate(163.510742 38.965625)scale(0.7)" xlink:href="#DejaVuSansMono-49"/>
      </g>
     </g>
    </g>
    <g id="text_15">
     <!-- y_n -->
     <g transform="translate(10.904063 172.634094)rotate(-90)scale(0.06 -0.06)">
      <defs>
       <path d="M 41.890625 17.578125 
Q 39.65625 11.859375 36.1875 2.546875 
Q 31.34375 -10.359375 29.6875 -13.1875 
Q 27.4375 -17 24.0625 -18.890625 
Q 20.703125 -20.796875 16.21875 -20.796875 
L 8.984375 -20.796875 
L 8.984375 -13.28125 
L 14.3125 -13.28125 
Q 18.265625 -13.28125 20.5 -10.984375 
Q 22.75 -8.6875 26.21875 0.875 
L 5.078125 54.6875 
L 14.59375 54.6875 
L 30.8125 11.921875 
L 46.78125 54.6875 
L 56.296875 54.6875 
z
" id="DejaVuSansMono-121"/>
       <path d="M 60.203125 -19.671875 
L 60.203125 -23.578125 
L 0 -23.578125 
L 0 -19.671875 
z
" id="DejaVuSansMono-95"/>
      </defs>
      <use xlink:href="#DejaVuSansMono-121"/>
      <use x="60.205078" xlink:href="#DejaVuSansMono-95"/>
      <use x="120.410156" xlink:href="#DejaVuSansMono-110"/>
     </g>
    </g>
   </g>
   <g id="line2d_14">
    <path clip-path="url(#p9d3a1d3690)" d="M 54.879716 153.644602 
L 55.501316 142.963808 
L 56.122916 149.702639 
L 56.744516 139.021845 
L 57.987717 152.499506 
L 58.609317 141.818712 
L 59.230917 148.557542 
L 59.852517 137.876748 
L 60.474118 144.615578 
L 61.095718 133.934785 
L 61.717318 140.673615 
L 62.338918 129.992821 
L 62.960518 136.731652 
L 63.582119 126.050858 
L 64.203719 132.789689 
L 64.825319 122.108895 
L 66.068519 135.586556 
L 66.69012 124.905762 
L 67.31172 131.644593 
L 67.93332 120.963799 
L 68.55492 127.70263 
L 69.17652 117.021836 
L 69.798121 123.760666 
L 70.419721 113.079873 
L 71.662921 126.557534 
L 72.284521 115.87674 
L 72.906122 122.615571 
L 73.527722 111.934777 
L 74.770922 125.412438 
L 75.392522 114.731644 
L 76.014122 121.470475 
L 76.635723 110.789681 
L 77.257323 117.528512 
L 77.878923 106.847718 
L 78.500523 113.586549 
L 79.122123 102.905755 
L 80.365324 116.383416 
L 80.986924 105.702623 
L 82.230124 119.180283 
L 82.851725 108.49949 
L 84.094925 121.977151 
L 84.716525 111.296357 
L 85.338125 118.035187 
L 85.959726 107.354394 
L 86.581326 114.093224 
L 87.202926 103.412431 
L 87.824526 110.151261 
L 88.446126 99.470468 
L 89.067727 106.209298 
L 89.689327 95.528505 
L 90.932527 109.006166 
L 91.554127 98.325372 
L 92.175727 105.064202 
L 92.797328 94.383409 
L 93.418928 101.122239 
L 94.040528 90.441446 
L 94.662128 97.180276 
L 95.283728 86.499483 
L 95.905329 93.238313 
L 96.526929 82.55752 
L 99.01333 109.512841 
L 99.63493 98.832048 
L 100.25653 105.570878 
L 100.87813 94.890085 
L 102.121331 108.367746 
L 102.742931 97.686952 
L 104.607731 117.903443 
L 105.229332 107.22265 
L 106.472532 120.70031 
L 107.094132 110.019517 
L 108.337333 123.497178 
L 108.958933 112.816384 
L 109.580533 119.555215 
L 110.202133 108.874421 
L 110.823733 115.613252 
L 111.445333 104.932458 
L 112.066934 111.671289 
L 112.688534 100.990495 
L 113.310134 107.729325 
L 113.931734 97.048532 
L 114.553334 103.787362 
L 115.174935 93.106569 
L 115.796535 99.845399 
L 116.418135 89.164606 
L 117.661335 102.642267 
L 118.282936 91.961473 
L 118.904536 98.700304 
L 119.526136 88.01951 
L 120.147736 94.758341 
L 120.769336 84.077547 
L 122.012537 97.555208 
L 122.634137 86.874414 
L 123.255737 93.613245 
L 123.877337 82.932451 
L 125.120538 96.410112 
L 125.742138 85.729319 
L 126.985338 99.206979 
L 127.606939 88.526186 
L 128.228539 95.265016 
L 128.850139 84.584223 
L 129.471739 91.323053 
L 130.093339 80.64226 
L 130.714939 87.38109 
L 131.33654 76.700297 
L 131.95814 83.439127 
L 132.57974 72.758334 
L 133.82294 86.235994 
L 134.444541 75.555201 
L 135.066141 82.294031 
L 135.687741 71.613238 
L 136.309341 78.352068 
L 136.930941 67.671275 
L 137.552542 74.410105 
L 138.174142 63.729312 
L 139.417342 77.206973 
L 140.038942 66.526179 
L 141.282143 80.00384 
L 141.903743 69.323046 
L 142.525343 76.061877 
L 143.146943 65.381083 
L 143.768544 72.119914 
L 144.390144 61.43912 
L 145.011744 68.177951 
L 145.633344 57.497157 
L 146.876544 70.974818 
L 147.498145 60.294025 
L 148.741345 73.771685 
L 149.362945 63.090892 
L 149.984545 69.829722 
L 150.606146 59.148929 
L 151.227746 65.887759 
L 151.849346 55.206966 
L 152.470946 61.945796 
L 153.092546 51.265003 
L 153.714147 58.003833 
L 154.335747 47.32304 
L 154.957347 54.06187 
L 155.578947 43.381077 
L 156.200547 50.119907 
L 156.822148 39.439114 
L 157.443748 46.177944 
L 158.065348 35.497151 
L 158.686948 42.235981 
L 159.308548 31.555187 
L 160.551749 45.032848 
L 161.173349 34.352055 
L 163.65975 61.307376 
L 164.28135 50.626583 
L 164.90295 57.365413 
L 165.52455 46.68462 
L 166.14615 53.42345 
L 166.767751 42.742657 
L 168.010951 56.220317 
L 168.632551 45.539524 
L 169.254151 52.278354 
L 169.875752 41.597561 
L 170.497352 48.336391 
L 171.118952 37.655598 
L 171.740552 44.394428 
L 172.362152 33.713635 
L 173.605353 47.191296 
L 174.226953 36.510502 
L 175.470153 49.988163 
L 176.091754 39.307369 
L 176.713354 46.0462 
L 177.334954 35.365406 
L 178.578154 48.843067 
L 179.199755 38.162274 
L 181.064555 58.378765 
L 181.686155 47.697971 
L 182.307755 54.436802 
L 182.929356 43.756008 
L 186.658957 84.18899 
L 187.280557 73.508197 
L 187.902157 80.247027 
L 188.523757 69.566234 
L 191.631758 103.260386 
L 192.253359 92.579592 
L 194.739759 119.534914 
L 195.36136 108.85412 
L 195.98296 115.59295 
L 196.60456 104.912157 
L 200.955761 152.08397 
L 201.577361 141.403176 
L 202.198962 148.142006 
L 202.820562 137.461212 
L 203.442162 144.200042 
L 204.063762 133.519249 
L 205.306963 146.996909 
L 205.928563 136.316116 
L 207.171763 149.793776 
L 207.793363 139.112983 
L 209.036564 152.590643 
L 209.658164 141.909849 
L 210.279764 148.64868 
L 210.901364 137.967886 
L 212.766165 158.184377 
L 213.387765 147.503582 
L 214.009365 154.242413 
L 214.630966 143.561618 
L 217.117366 170.51694 
L 217.738967 159.836142 
L 218.360567 166.574973 
L 218.982167 155.894177 
L 219.603767 162.633007 
L 220.225367 151.952212 
L 220.846967 158.691042 
L 221.468568 148.010248 
L 222.090168 154.749078 
L 222.711768 144.068284 
L 225.198169 171.023605 
L 225.819769 160.342808 
L 227.062969 173.820468 
L 227.68457 163.139669 
L 228.30617 169.8785 
L 228.92777 159.197703 
L 229.54937 165.936533 
L 230.17097 155.255737 
L 230.792571 161.994568 
L 231.414171 151.313772 
L 232.035771 158.052603 
L 232.657371 147.371808 
L 233.900572 160.849469 
L 234.522172 150.168674 
L 235.765372 163.646335 
L 236.386972 152.965539 
L 238.251773 173.182031 
L 238.873373 162.501232 
L 240.116573 175.978893 
L 240.738174 165.298092 
L 241.359774 172.036923 
L 241.981374 161.356125 
L 243.224574 174.833785 
L 243.846175 164.152986 
L 244.467775 170.891816 
L 245.089375 160.211019 
L 245.710975 166.949849 
L 246.332575 156.269053 
L 247.575776 169.746713 
L 248.197376 159.065916 
L 250.062177 179.282407 
L 250.683777 168.601604 
L 251.305377 175.340435 
L 251.926977 164.659635 
L 252.548577 171.398465 
L 253.170178 160.717667 
L 254.413378 174.195328 
L 255.034978 163.514529 
L 255.656578 170.253359 
L 256.278178 159.572562 
L 257.521379 173.050223 
L 258.142979 162.369424 
L 258.764579 169.108254 
L 259.386179 158.427458 
L 260.00778 165.166288 
L 260.62938 154.485492 
L 261.25098 161.224323 
L 261.87258 150.543528 
L 262.49418 157.282358 
L 263.115781 146.601564 
L 264.358981 160.079224 
L 264.980581 149.39843 
L 265.602181 156.13726 
L 266.223782 145.456466 
L 267.466982 158.934126 
L 268.088582 148.253332 
L 268.710182 154.992162 
L 269.331783 144.311368 
L 270.574983 157.789028 
L 271.196583 147.108234 
L 273.682984 174.063555 
L 274.304584 163.382756 
L 274.926184 170.121587 
L 275.547784 159.440789 
L 276.169385 166.17962 
L 276.790985 155.498824 
L 278.655785 175.715315 
L 279.277386 165.034515 
L 280.520586 178.512175 
L 281.142186 167.831373 
L 281.763786 174.570203 
L 282.385387 163.889404 
L 283.006987 170.628234 
L 283.628587 159.947437 
L 284.250187 166.686267 
L 284.871787 156.005471 
L 287.358188 182.960793 
L 287.979788 172.279985 
L 289.222989 185.757646 
L 289.844589 175.076833 
L 292.33099 202.032155 
L 292.95259 191.35126 
L 293.57419 198.09009 
L 294.19579 187.409229 
L 294.81739 194.14806 
L 295.438991 183.467221 
L 296.682191 196.944882 
L 297.303791 186.264028 
L 297.925391 193.002859 
L 298.546992 182.322025 
L 299.168592 189.060856 
L 299.790192 178.380036 
L 301.033392 191.857696 
L 301.654993 181.176867 
L 302.898193 194.654528 
L 303.519793 183.973687 
L 306.006194 210.929008 
L 306.627794 200.247962 
L 309.114195 227.203283 
L 309.735795 216.52114 
L 310.978995 229.998801 
L 311.600596 219.316208 
L 312.843796 232.793869 
L 313.465396 222.110677 
L 314.086996 228.849508 
L 314.708597 218.167116 
L 315.330197 224.905946 
L 315.951797 214.224087 
L 317.194997 227.701748 
L 317.816598 217.019534 
L 319.059798 230.497194 
L 319.681398 219.814507 
L 320.302998 226.553337 
L 320.924599 215.871282 
L 321.546199 222.610112 
L 322.167799 211.928477 
L 322.789399 218.667307 
L 323.410999 207.985953 
L 324.6542 221.463614 
L 325.2758 210.782072 
L 327.1406 230.998564 
L 327.762201 220.315776 
L 329.005401 233.793437 
L 329.627001 223.109985 
L 330.248601 229.848816 
L 330.870202 219.166251 
L 333.356602 246.121572 
L 333.978203 235.431335 
L 334.599803 242.170165 
L 335.221403 231.483081 
L 335.843003 238.221912 
L 336.464603 227.536927 
L 338.951004 254.492248 
L 339.572604 243.789131 
L 340.815805 257.266792 
L 341.437405 246.556312 
L 343.302206 266.772803 
L 343.923806 256.013288 
L 345.167006 269.490949 
L 345.788606 258.706175 
L 346.410206 265.445006 
L 347.031807 254.695505 
L 347.653407 261.434335 
L 348.275007 250.708005 
L 348.896607 257.446835 
L 349.518207 246.735802 
L 350.139808 253.474632 
L 350.761408 242.773731 
L 352.004608 256.251392 
L 352.626208 245.543853 
L 353.869409 259.021513 
L 354.491009 248.305173 
L 355.112609 255.044004 
L 355.734209 244.339584 
L 356.97741 257.817245 
L 357.59901 247.105039 
L 358.22061 253.84387 
L 358.84221 243.142191 
L 359.463811 249.881021 
L 360.085411 239.186329 
L 361.328611 252.66399 
L 361.950211 241.964696 
L 362.571811 248.703526 
L 363.193412 238.010419 
L 363.815012 244.749249 
L 364.436612 234.060255 
L 365.058212 240.799085 
L 365.679812 230.112828 
L 366.923013 243.590489 
L 367.544613 232.902416 
L 369.409414 253.118907 
L 370.031014 242.418728 
L 370.652614 249.157558 
L 371.274214 238.463862 
L 371.895814 245.202692 
L 372.517415 234.513307 
L 373.760615 247.990967 
L 374.382215 237.29873 
L 375.003815 244.03756 
L 375.625416 233.349144 
L 376.868616 246.826805 
L 377.490216 236.135858 
L 378.111816 242.874688 
L 378.733417 232.187132 
L 379.355017 238.925962 
L 379.976617 228.240663 
L 380.598217 234.979493 
L 381.219817 224.295697 
L 381.841417 231.034527 
L 382.463018 220.351732 
L 383.084618 227.090562 
L 383.706218 216.408435 
L 385.571019 236.624926 
L 386.192619 225.940576 
L 386.814219 232.679406 
L 387.435819 221.996242 
L 388.057419 228.735073 
L 388.67902 218.052699 
L 389.30062 224.79153 
L 389.92222 214.109683 
L 392.408621 241.065005 
L 393.030221 230.378596 
L 394.273421 243.856257 
L 394.895022 233.167982 
L 396.138222 246.645643 
L 396.759822 235.954883 
L 399.246223 262.910205 
L 399.867823 252.17643 
L 401.732624 272.392921 
L 402.354224 261.572239 
L 402.975824 268.311069 
L 403.597424 257.538123 
L 404.219024 264.276953 
L 404.840625 253.535206 
L 407.948626 287.229358 
L 408.570226 275.921116 
L 411.056627 302.876437 
L 411.056627 302.876437 
" style="fill:none;stroke:#1f77b4;stroke-linecap:square;stroke-width:0.666667;"/>
   </g>
   <g id="line2d_15">
    <path clip-path="url(#p9d3a1d3690)" d="M 54.879716 151.726552 
L 55.501316 141.045758 
L 56.122916 147.784588 
L 56.744516 137.103794 
L 57.987717 150.581455 
L 58.609317 139.900661 
L 59.230917 146.639491 
L 59.852517 135.958698 
L 60.474118 142.697528 
L 61.095718 132.016734 
L 62.338918 145.494395 
L 62.960518 134.813601 
L 63.582119 141.552432 
L 64.203719 130.871638 
L 64.825319 137.610469 
L 65.446919 126.929675 
L 66.69012 140.407336 
L 67.31172 129.726542 
L 67.93332 136.465372 
L 68.55492 125.784579 
L 69.17652 132.523409 
L 69.798121 121.842616 
L 70.419721 128.581446 
L 71.041321 117.900653 
L 71.662921 124.639483 
L 72.284521 113.95869 
L 72.906122 120.69752 
L 73.527722 110.016727 
L 74.149322 116.755557 
L 74.770922 106.074764 
L 76.014122 119.552424 
L 76.635723 108.871631 
L 77.257323 115.610461 
L 77.878923 104.929668 
L 79.743724 125.146159 
L 80.365324 114.465365 
L 80.986924 121.204196 
L 81.608524 110.523402 
L 82.851725 124.001063 
L 83.473325 113.32027 
L 84.094925 120.0591 
L 84.716525 109.378306 
L 85.959726 122.855967 
L 86.581326 112.175174 
L 87.202926 118.914004 
L 87.824526 108.233211 
L 89.067727 121.710871 
L 89.689327 111.030078 
L 90.310927 117.768908 
L 90.932527 107.088115 
L 91.554127 113.826945 
L 92.175727 103.146152 
L 93.418928 116.623812 
L 94.040528 105.943019 
L 94.662128 112.681849 
L 95.283728 102.001056 
L 96.526929 115.478717 
L 97.148529 104.797923 
L 99.01333 125.014414 
L 99.63493 114.333621 
L 100.87813 127.811282 
L 101.49973 117.130488 
L 102.121331 123.869318 
L 102.742931 113.188525 
L 104.607731 133.405016 
L 105.229332 122.724223 
L 105.850932 129.463053 
L 106.472532 118.782259 
L 107.094132 125.52109 
L 107.715732 114.840296 
L 108.337333 121.579127 
L 108.958933 110.898333 
L 111.445333 137.853655 
L 112.066934 127.172861 
L 113.931734 147.389352 
L 114.553334 136.708558 
L 115.174935 143.447389 
L 115.796535 132.766595 
L 116.418135 139.505425 
L 117.039735 128.824632 
L 117.661335 135.563462 
L 118.282936 124.882669 
L 118.904536 131.621499 
L 119.526136 120.940706 
L 120.147736 127.679536 
L 120.769336 116.998743 
L 121.390937 123.737573 
L 122.012537 113.056779 
L 122.634137 119.79561 
L 123.255737 109.114816 
L 123.877337 115.853647 
L 124.498938 105.172853 
L 125.120538 111.911684 
L 125.742138 101.23089 
L 126.985338 114.708551 
L 127.606939 104.027758 
L 128.850139 117.505418 
L 129.471739 106.824625 
L 132.57974 140.518777 
L 133.20134 129.837983 
L 133.82294 136.576813 
L 134.444541 125.89602 
L 135.687741 139.37368 
L 136.309341 128.692887 
L 136.930941 135.431717 
L 137.552542 124.750924 
L 139.417342 144.967415 
L 140.038942 134.286621 
L 140.660543 141.025451 
L 141.282143 130.344658 
L 141.903743 137.083488 
L 142.525343 126.402695 
L 143.146943 133.141525 
L 143.768544 122.460732 
L 144.390144 129.199562 
L 145.011744 118.518768 
L 145.633344 125.257599 
L 146.254944 114.576805 
L 146.876544 121.315636 
L 147.498145 110.634842 
L 148.119745 117.373673 
L 148.741345 106.692879 
L 150.606146 126.90937 
L 151.227746 116.228577 
L 152.470946 129.706238 
L 153.092546 119.025444 
L 153.714147 125.764274 
L 154.335747 115.083481 
L 155.578947 128.561142 
L 156.200547 117.880348 
L 157.443748 131.358009 
L 158.065348 120.677215 
L 158.686948 127.416046 
L 159.308548 116.735252 
L 159.930149 123.474083 
L 160.551749 112.793289 
L 162.416549 133.00978 
L 163.03815 122.328987 
L 163.65975 129.067817 
L 164.28135 118.387024 
L 166.14615 138.603515 
L 166.767751 127.922721 
L 168.010951 141.400382 
L 168.632551 130.719588 
L 170.497352 150.936079 
L 171.118952 140.255285 
L 172.362152 153.732946 
L 172.983753 143.052152 
L 174.226953 156.529813 
L 174.848553 145.849018 
L 175.470153 152.587849 
L 176.091754 141.907055 
L 177.334954 155.384715 
L 177.956554 144.703921 
L 179.199755 158.181582 
L 179.821355 147.500787 
L 180.442955 154.239618 
L 181.064555 143.558824 
L 181.686155 150.297654 
L 182.307755 139.61686 
L 183.550956 153.094521 
L 184.172556 142.413727 
L 186.037357 162.630218 
L 186.658957 151.949422 
L 187.280557 158.688253 
L 187.902157 148.007458 
L 188.523757 154.746289 
L 189.145358 144.065494 
L 190.388558 157.543155 
L 191.010158 146.862361 
L 191.631758 153.601191 
L 192.253359 142.920397 
L 192.874959 149.659227 
L 193.496559 138.978433 
L 194.118159 145.717264 
L 194.739759 135.03647 
L 195.36136 141.7753 
L 195.98296 131.094507 
L 197.22616 144.572167 
L 197.84776 133.891374 
L 199.090961 147.369035 
L 199.712561 136.688241 
L 200.334161 143.427071 
L 200.955761 132.746277 
L 201.577361 139.485108 
L 202.198962 128.804314 
L 202.820562 135.543145 
L 203.442162 124.862351 
L 204.063762 131.601181 
L 204.685362 120.920388 
L 205.928563 134.398049 
L 206.550163 123.717255 
L 207.793363 137.194916 
L 208.414964 126.514122 
L 209.036564 133.252953 
L 209.658164 122.572159 
L 210.279764 129.31099 
L 210.901364 118.630196 
L 211.522965 125.369026 
L 212.144565 114.688233 
L 213.387765 128.165894 
L 214.009365 117.4851 
L 215.252566 130.962761 
L 215.874166 120.281967 
L 217.117366 133.759628 
L 217.738967 123.078835 
L 218.360567 129.817665 
L 218.982167 119.136872 
L 219.603767 125.875702 
L 220.225367 115.194908 
L 221.468568 128.672569 
L 222.090168 117.991776 
L 222.711768 124.730606 
L 223.333368 114.049813 
L 223.954968 120.788643 
L 224.576569 110.10785 
L 226.441369 130.324341 
L 227.062969 119.643547 
L 228.92777 139.860038 
L 229.54937 129.179245 
L 230.17097 135.918075 
L 230.792571 125.237281 
L 232.657371 145.453772 
L 233.278971 134.772979 
L 233.900572 141.511809 
L 234.522172 130.831016 
L 236.386972 151.047507 
L 237.008572 140.366713 
L 237.630173 147.105543 
L 238.251773 136.424749 
L 238.873373 143.16358 
L 239.494973 132.482786 
L 241.981374 159.438107 
L 242.602974 148.757313 
L 243.224574 155.496143 
L 243.846175 144.815349 
L 245.089375 158.293009 
L 245.710975 147.612215 
L 246.332575 154.351045 
L 246.954176 143.670251 
L 247.575776 150.409081 
L 248.197376 139.728288 
L 248.818976 146.467118 
L 249.440576 135.786324 
L 251.926977 162.741646 
L 252.548577 152.06085 
L 253.791778 165.538511 
L 254.413378 154.857715 
L 255.034978 161.596546 
L 255.656578 150.915751 
L 256.899779 164.393411 
L 257.521379 153.712616 
L 258.142979 160.451446 
L 258.764579 149.770651 
L 259.386179 156.509482 
L 260.00778 145.828687 
L 260.62938 152.567518 
L 261.25098 141.886724 
L 262.49418 155.364384 
L 263.115781 144.68359 
L 263.737381 151.422421 
L 264.358981 140.741627 
L 264.980581 147.480457 
L 265.602181 136.799663 
L 266.223782 143.538494 
L 266.845382 132.8577 
L 267.466982 139.59653 
L 268.088582 128.915737 
L 268.710182 135.654567 
L 269.331783 124.973773 
L 270.574983 138.451434 
L 271.196583 127.770641 
L 271.818183 134.509471 
L 272.439783 123.828677 
L 273.682984 137.306338 
L 274.304584 126.625545 
L 275.547784 140.103205 
L 276.169385 129.422412 
L 276.790985 136.161242 
L 277.412585 125.480449 
L 279.277386 145.69694 
L 279.898986 135.016146 
L 280.520586 141.754976 
L 281.142186 131.074183 
L 282.385387 144.551843 
L 283.006987 133.87105 
L 283.628587 140.60988 
L 284.250187 129.929086 
L 284.871787 136.667917 
L 285.493388 125.987123 
L 286.114988 132.725954 
L 286.736588 122.04516 
L 289.222989 149.000482 
L 289.844589 138.319688 
L 290.466189 145.058518 
L 291.087789 134.377724 
L 292.33099 147.855385 
L 292.95259 137.174591 
L 293.57419 143.913422 
L 294.19579 133.232628 
L 295.438991 146.710289 
L 296.060591 136.029495 
L 296.682191 142.768325 
L 297.303791 132.087532 
L 297.925391 138.826362 
L 298.546992 128.145568 
L 299.790192 141.623229 
L 300.411792 130.942436 
L 301.033392 137.681266 
L 301.654993 127.000472 
L 304.762994 160.694624 
L 305.384594 150.013829 
L 306.627794 163.49149 
L 307.249394 152.810695 
L 309.735795 179.766016 
L 310.357395 169.085212 
L 310.978995 175.824043 
L 311.600596 165.143242 
L 312.843796 178.620903 
L 313.465396 167.940101 
L 314.086996 174.678931 
L 314.708597 163.998131 
L 316.573397 184.214623 
L 317.194997 173.533813 
L 318.438198 187.011474 
L 319.059798 176.330659 
L 319.681398 183.069489 
L 320.302998 172.388681 
L 321.546199 185.866342 
L 322.167799 175.185529 
L 324.0326 195.40202 
L 324.6542 184.721176 
L 325.2758 191.460006 
L 325.8974 180.779178 
L 326.519 187.518009 
L 327.1406 176.837193 
L 328.383801 190.314853 
L 329.005401 179.634029 
L 330.870202 199.850521 
L 331.491802 189.169646 
L 332.113402 195.908476 
L 332.735002 185.227629 
L 334.599803 205.44412 
L 335.221403 194.763183 
L 335.843003 201.502013 
L 336.464603 190.821124 
L 337.086204 197.559954 
L 337.707804 186.879097 
L 338.329404 193.617927 
L 338.951004 182.937091 
L 340.194205 196.414752 
L 340.815805 185.733901 
L 341.437405 192.472732 
L 342.059005 181.7919 
L 342.680605 188.530731 
L 343.302206 177.849912 
L 347.653407 225.021725 
L 348.275007 214.339853 
L 350.139808 234.556344 
L 350.761408 223.872675 
L 351.383008 230.611506 
L 352.004608 219.928796 
L 352.626208 226.667626 
L 353.247809 215.985556 
L 354.491009 229.463216 
L 355.112609 218.78072 
L 355.734209 225.519551 
L 356.35581 214.837622 
L 356.97741 221.576453 
L 357.59901 210.894903 
L 358.22061 217.633733 
L 358.84221 206.952435 
L 360.085411 220.430096 
L 360.707011 209.74863 
L 361.328611 216.48746 
L 361.950211 205.806219 
L 363.815012 226.02271 
L 364.436612 215.340721 
L 365.058212 222.079551 
L 365.679812 211.397961 
L 366.301413 218.136791 
L 366.923013 207.455467 
L 371.274214 254.627279 
L 371.895814 243.92385 
L 372.517415 250.66268 
L 373.139015 239.966826 
L 373.760615 246.705656 
L 374.382215 236.014835 
L 375.003815 242.753665 
L 375.625416 232.066192 
L 378.111816 259.021513 
L 378.733417 248.305173 
L 379.355017 255.044004 
L 379.976617 244.339584 
L 381.219817 257.817245 
L 381.841417 247.105039 
L 382.463018 253.84387 
L 383.084618 243.142191 
L 383.706218 249.881021 
L 384.327818 239.186329 
L 385.571019 252.66399 
L 386.192619 241.964696 
L 386.814219 248.703526 
L 387.435819 238.010419 
L 388.057419 244.749249 
L 388.67902 234.060255 
L 389.30062 240.799085 
L 389.92222 230.112828 
L 391.16542 243.590489 
L 391.787021 232.902416 
L 393.651821 253.118907 
L 394.273421 242.418728 
L 394.895022 249.157558 
L 395.516622 238.463862 
L 396.138222 245.202692 
L 396.759822 234.513307 
L 398.003023 247.990967 
L 398.624623 237.29873 
L 399.246223 244.03756 
L 399.867823 233.349144 
L 401.111023 246.826805 
L 401.732624 236.135858 
L 402.354224 242.874688 
L 402.975824 232.187132 
L 403.597424 238.925962 
L 404.219024 228.240663 
L 404.840625 234.979493 
L 405.462225 224.295697 
L 406.083825 231.034527 
L 406.705425 220.351732 
L 407.327025 227.090562 
L 407.948626 216.408435 
L 409.813426 236.624926 
L 410.435026 225.940576 
L 411.056627 232.679406 
L 411.678227 221.996242 
L 412.299827 228.735073 
L 412.921427 218.052699 
L 413.543027 224.79153 
L 414.164628 214.109683 
L 416.651028 241.065005 
L 417.272628 230.378596 
L 418.515829 243.856257 
L 419.137429 233.167982 
L 420.380629 246.645643 
L 421.00223 235.954883 
L 423.48863 262.910205 
L 424.110231 252.17643 
L 425.975031 272.392921 
L 426.596631 261.572239 
L 427.218232 268.311069 
L 427.839832 257.538123 
L 428.461432 264.276953 
L 429.083032 253.535206 
L 432.191033 287.229358 
L 432.812633 275.921116 
L 435.299034 302.876437 
L 435.299034 302.876437 
" style="fill:none;stroke:#ff7f0e;stroke-linecap:square;stroke-width:0.666667;"/>
   </g>
   <g id="patch_3">
    <path d="M 35.85875 316.4425 
L 35.85875 17.989125 
" style="fill:none;stroke:#000000;stroke-linecap:square;stroke-linejoin:miter;stroke-width:0.8;"/>
   </g>
   <g id="patch_4">
    <path d="M 454.32 316.4425 
L 454.32 17.989125 
" style="fill:none;stroke:#000000;stroke-linecap:square;stroke-linejoin:miter;stroke-width:0.8;"/>
   </g>
   <g id="patch_5">
    <path d="M 35.85875 316.4425 
L 454.32 316.4425 
" style="fill:none;stroke:#000000;stroke-linecap:square;stroke-linejoin:miter;stroke-width:0.8;"/>
   </g>
   <g id="patch_6">
    <path d="M 35.85875 17.989125 
L 454.32 17.989125 
" style="fill:none;stroke:#000000;stroke-linecap:square;stroke-linejoin:miter;stroke-width:0.8;"/>
   </g>
   <g id="text_16">
    <!-- "3y+1" problem -->
    <g transform="translate(214.747 11.989125)scale(0.072 -0.072)">
     <defs>
      <path d="M 43.703125 72.90625 
L 43.703125 45.796875 
L 35.203125 45.796875 
L 35.203125 72.90625 
z
M 25 72.90625 
L 25 45.796875 
L 16.5 45.796875 
L 16.5 72.90625 
z
" id="DejaVuSansMono-34"/>
      <path d="M 34.1875 57.171875 
L 34.1875 35.5 
L 55.90625 35.5 
L 55.90625 27.203125 
L 34.1875 27.203125 
L 34.1875 5.515625 
L 25.984375 5.515625 
L 25.984375 27.203125 
L 4.296875 27.203125 
L 4.296875 35.5 
L 25.984375 35.5 
L 25.984375 57.171875 
z
" id="DejaVuSansMono-43"/>
      <path id="DejaVuSansMono-32"/>
      <path d="M 18.3125 6.890625 
L 18.3125 -20.796875 
L 9.28125 -20.796875 
L 9.28125 54.6875 
L 18.3125 54.6875 
L 18.3125 47.703125 
Q 20.5625 51.765625 24.296875 53.875 
Q 28.03125 56 32.90625 56 
Q 42.828125 56 48.46875 48.328125 
Q 54.109375 40.671875 54.109375 27.09375 
Q 54.109375 13.765625 48.4375 6.171875 
Q 42.78125 -1.421875 32.90625 -1.421875 
Q 27.9375 -1.421875 24.1875 0.703125 
Q 20.453125 2.828125 18.3125 6.890625 
z
M 44.671875 27.296875 
Q 44.671875 37.75 41.375 43.0625 
Q 38.09375 48.390625 31.59375 48.390625 
Q 25.046875 48.390625 21.671875 43.046875 
Q 18.3125 37.703125 18.3125 27.296875 
Q 18.3125 16.9375 21.671875 11.5625 
Q 25.046875 6.203125 31.59375 6.203125 
Q 38.09375 6.203125 41.375 11.515625 
Q 44.671875 16.84375 44.671875 27.296875 
z
" id="DejaVuSansMono-112"/>
      <path d="M 56.390625 43.40625 
Q 53.515625 45.65625 50.53125 46.671875 
Q 47.5625 47.703125 44 47.703125 
Q 35.59375 47.703125 31.140625 42.421875 
Q 26.703125 37.15625 26.703125 27.203125 
L 26.703125 0 
L 17.671875 0 
L 17.671875 54.6875 
L 26.703125 54.6875 
L 26.703125 44 
Q 28.953125 49.8125 33.609375 52.90625 
Q 38.28125 56 44.671875 56 
Q 48 56 50.875 55.171875 
Q 53.765625 54.34375 56.390625 52.59375 
z
" id="DejaVuSansMono-114"/>
      <path d="M 30.078125 48.390625 
Q 23.25 48.390625 19.734375 43.0625 
Q 16.21875 37.75 16.21875 27.296875 
Q 16.21875 16.890625 19.734375 11.546875 
Q 23.25 6.203125 30.078125 6.203125 
Q 36.96875 6.203125 40.484375 11.546875 
Q 44 16.890625 44 27.296875 
Q 44 37.75 40.484375 43.0625 
Q 36.96875 48.390625 30.078125 48.390625 
z
M 30.078125 56 
Q 41.453125 56 47.484375 48.625 
Q 53.515625 41.265625 53.515625 27.296875 
Q 53.515625 13.28125 47.5 5.921875 
Q 41.5 -1.421875 30.078125 -1.421875 
Q 18.703125 -1.421875 12.6875 5.921875 
Q 6.6875 13.28125 6.6875 27.296875 
Q 6.6875 41.265625 12.6875 48.625 
Q 18.703125 56 30.078125 56 
z
" id="DejaVuSansMono-111"/>
      <path d="M 44.828125 27.296875 
Q 44.828125 37.75 41.5 43.0625 
Q 38.1875 48.390625 31.6875 48.390625 
Q 25.140625 48.390625 21.765625 43.046875 
Q 18.40625 37.703125 18.40625 27.296875 
Q 18.40625 16.9375 21.765625 11.5625 
Q 25.140625 6.203125 31.6875 6.203125 
Q 38.1875 6.203125 41.5 11.515625 
Q 44.828125 16.84375 44.828125 27.296875 
z
M 18.40625 47.703125 
Q 20.5625 51.703125 24.34375 53.84375 
Q 28.125 56 33.109375 56 
Q 42.96875 56 48.625 48.40625 
Q 54.296875 40.828125 54.296875 27.484375 
Q 54.296875 13.96875 48.609375 6.265625 
Q 42.921875 -1.421875 33.015625 -1.421875 
Q 28.125 -1.421875 24.390625 0.703125 
Q 20.65625 2.828125 18.40625 6.890625 
L 18.40625 0 
L 9.421875 0 
L 9.421875 75.984375 
L 18.40625 75.984375 
z
" id="DejaVuSansMono-98"/>
      <path d="M 31.203125 19.828125 
Q 31.203125 13.765625 33.421875 10.6875 
Q 35.640625 7.625 39.984375 7.625 
L 50.484375 7.625 
L 50.484375 0 
L 39.109375 0 
Q 31.0625 0 26.640625 5.171875 
Q 22.21875 10.359375 22.21875 19.828125 
L 22.21875 69.484375 
L 7.8125 69.484375 
L 7.8125 76.515625 
L 31.203125 76.515625 
z
" id="DejaVuSansMono-108"/>
      <path d="M 54.296875 29.59375 
L 54.296875 25.203125 
L 15.375 25.203125 
L 15.375 24.90625 
Q 15.375 15.96875 20.03125 11.078125 
Q 24.703125 6.203125 33.203125 6.203125 
Q 37.5 6.203125 42.1875 7.5625 
Q 46.875 8.9375 52.203125 11.71875 
L 52.203125 2.78125 
Q 47.078125 0.6875 42.3125 -0.359375 
Q 37.546875 -1.421875 33.109375 -1.421875 
Q 20.359375 -1.421875 13.171875 6.21875 
Q 6 13.875 6 27.296875 
Q 6 40.375 13.03125 48.1875 
Q 20.0625 56 31.78125 56 
Q 42.234375 56 48.265625 48.921875 
Q 54.296875 41.84375 54.296875 29.59375 
z
M 45.3125 32.234375 
Q 45.125 40.140625 41.578125 44.265625 
Q 38.03125 48.390625 31.390625 48.390625 
Q 24.90625 48.390625 20.703125 44.09375 
Q 16.5 39.796875 15.71875 32.171875 
z
" id="DejaVuSansMono-101"/>
      <path d="M 33.015625 49.125 
Q 34.671875 52.640625 37.234375 54.3125 
Q 39.796875 56 43.40625 56 
Q 50 56 52.703125 50.890625 
Q 55.421875 45.796875 55.421875 31.6875 
L 55.421875 0 
L 47.21875 0 
L 47.21875 31.296875 
Q 47.21875 42.875 45.921875 45.671875 
Q 44.625 48.484375 41.21875 48.484375 
Q 37.3125 48.484375 35.859375 45.484375 
Q 34.421875 42.484375 34.421875 31.296875 
L 34.421875 0 
L 26.21875 0 
L 26.21875 31.296875 
Q 26.21875 43.015625 24.828125 45.75 
Q 23.4375 48.484375 19.828125 48.484375 
Q 16.265625 48.484375 14.875 45.484375 
Q 13.484375 42.484375 13.484375 31.296875 
L 13.484375 0 
L 5.328125 0 
L 5.328125 54.6875 
L 13.484375 54.6875 
L 13.484375 50 
Q 15.09375 52.9375 17.5 54.46875 
Q 19.921875 56 23 56 
Q 26.703125 56 29.171875 54.296875 
Q 31.640625 52.59375 33.015625 49.125 
z
" id="DejaVuSansMono-109"/>
     </defs>
     <use xlink:href="#DejaVuSansMono-34"/>
     <use x="60.205078" xlink:href="#DejaVuSansMono-51"/>
     <use x="120.410156" xlink:href="#DejaVuSansMono-121"/>
     <use x="180.615234" xlink:href="#DejaVuSansMono-43"/>
     <use x="240.820312" xlink:href="#DejaVuSansMono-49"/>
     <use x="301.025391" xlink:href="#DejaVuSansMono-34"/>
     <use x="361.230469" xlink:href="#DejaVuSansMono-32"/>
     <use x="421.435547" xlink:href="#DejaVuSansMono-112"/>
     <use x="481.640625" xlink:href="#DejaVuSansMono-114"/>
     <use x="541.845703" xlink:href="#DejaVuSansMono-111"/>
     <use x="602.050781" xlink:href="#DejaVuSansMono-98"/>
     <use x="662.255859" xlink:href="#DejaVuSansMono-108"/>
     <use x="722.460938" xlink:href="#DejaVuSansMono-101"/>
     <use x="782.666016" xlink:href="#DejaVuSansMono-109"/>
    </g>
   </g>
   <g id="legend_1">
    <g id="patch_7">
     <path d="M 351.451875 82.0095 
L 450.12 82.0095 
Q 451.32 82.0095 451.32 80.8095 
L 451.32 22.189125 
Q 451.32 20.989125 450.12 20.989125 
L 351.451875 20.989125 
Q 350.251875 20.989125 350.251875 22.189125 
L 350.251875 80.8095 
Q 350.251875 82.0095 351.451875 82.0095 
z
" style="fill:#ffffff;opacity:0.8;stroke:#cccccc;stroke-linejoin:miter;"/>
    </g>
    <g id="line2d_16">
     <path d="M 352.651875 36.889687 
L 364.651875 36.889687 
" style="fill:none;stroke:#1f77b4;stroke-linecap:square;stroke-width:0.666667;"/>
    </g>
    <g id="line2d_17"/>
    <g id="text_17">
     <!-- "Tallest": -->
     <g transform="translate(369.451875 27.980062)scale(0.06 -0.06)">
      <defs>
       <path d="M 2.296875 72.90625 
L 57.90625 72.90625 
L 57.90625 64.59375 
L 35.109375 64.59375 
L 35.109375 0 
L 25.203125 0 
L 25.203125 64.59375 
L 2.296875 64.59375 
z
" id="DejaVuSansMono-84"/>
       <path d="M 34.28125 27.484375 
L 31.296875 27.484375 
Q 23.4375 27.484375 19.453125 24.71875 
Q 15.484375 21.96875 15.484375 16.5 
Q 15.484375 11.578125 18.453125 8.84375 
Q 21.4375 6.109375 26.703125 6.109375 
Q 34.125 6.109375 38.375 11.25 
Q 42.625 16.40625 42.671875 25.484375 
L 42.671875 27.484375 
z
M 51.703125 31.203125 
L 51.703125 0 
L 42.671875 0 
L 42.671875 8.109375 
Q 39.796875 3.21875 35.421875 0.890625 
Q 31.0625 -1.421875 24.8125 -1.421875 
Q 16.453125 -1.421875 11.46875 3.296875 
Q 6.5 8.015625 6.5 15.921875 
Q 6.5 25.046875 12.625 29.78125 
Q 18.75 34.515625 30.609375 34.515625 
L 42.671875 34.515625 
L 42.671875 35.9375 
Q 42.625 42.484375 39.34375 45.4375 
Q 36.078125 48.390625 28.90625 48.390625 
Q 24.3125 48.390625 19.625 47.0625 
Q 14.9375 45.75 10.5 43.21875 
L 10.5 52.203125 
Q 15.484375 54.109375 20.046875 55.046875 
Q 24.609375 56 28.90625 56 
Q 35.6875 56 40.5 54 
Q 45.3125 52 48.296875 48 
Q 50.140625 45.5625 50.921875 41.96875 
Q 51.703125 38.375 51.703125 31.203125 
z
" id="DejaVuSansMono-97"/>
       <path d="M 47.515625 52.78125 
L 47.515625 44 
Q 43.65625 46.234375 39.75 47.359375 
Q 35.84375 48.484375 31.78125 48.484375 
Q 25.6875 48.484375 22.671875 46.5 
Q 19.671875 44.53125 19.671875 40.484375 
Q 19.671875 36.8125 21.921875 35 
Q 24.171875 33.203125 33.109375 31.5 
L 36.71875 30.8125 
Q 43.40625 29.546875 46.84375 25.734375 
Q 50.296875 21.921875 50.296875 15.828125 
Q 50.296875 7.71875 44.53125 3.140625 
Q 38.765625 -1.421875 28.515625 -1.421875 
Q 24.46875 -1.421875 20.015625 -0.5625 
Q 15.578125 0.296875 10.40625 2 
L 10.40625 11.28125 
Q 15.4375 8.6875 20.015625 7.390625 
Q 24.609375 6.109375 28.71875 6.109375 
Q 34.671875 6.109375 37.9375 8.515625 
Q 41.21875 10.9375 41.21875 15.28125 
Q 41.21875 21.53125 29.25 23.921875 
L 28.859375 24.03125 
L 25.484375 24.703125 
Q 17.71875 26.21875 14.15625 29.8125 
Q 10.59375 33.40625 10.59375 39.59375 
Q 10.59375 47.46875 15.90625 51.734375 
Q 21.234375 56 31.109375 56 
Q 35.5 56 39.546875 55.1875 
Q 43.609375 54.390625 47.515625 52.78125 
z
" id="DejaVuSansMono-115"/>
       <path d="M 29.984375 70.21875 
L 29.984375 54.6875 
L 50.390625 54.6875 
L 50.390625 47.703125 
L 29.984375 47.703125 
L 29.984375 18.015625 
Q 29.984375 11.96875 32.28125 9.5625 
Q 34.578125 7.171875 40.28125 7.171875 
L 50.390625 7.171875 
L 50.390625 0 
L 39.40625 0 
Q 29.296875 0 25.140625 4.046875 
Q 21 8.109375 21 18.015625 
L 21 47.703125 
L 6.390625 47.703125 
L 6.390625 54.6875 
L 21 54.6875 
L 21 70.21875 
z
" id="DejaVuSansMono-116"/>
       <path d="M 23.875 51.90625 
L 36.1875 51.90625 
L 36.1875 37.109375 
L 23.875 37.109375 
z
M 23.875 14.890625 
L 36.1875 14.890625 
L 36.1875 0 
L 23.875 0 
z
" id="DejaVuSansMono-58"/>
      </defs>
      <use xlink:href="#DejaVuSansMono-34"/>
      <use x="60.205078" xlink:href="#DejaVuSansMono-84"/>
      <use x="120.410156" xlink:href="#DejaVuSansMono-97"/>
      <use x="180.615234" xlink:href="#DejaVuSansMono-108"/>
      <use x="240.820312" xlink:href="#DejaVuSansMono-108"/>
      <use x="301.025391" xlink:href="#DejaVuSansMono-101"/>
      <use x="361.230469" xlink:href="#DejaVuSansMono-115"/>
      <use x="421.435547" xlink:href="#DejaVuSansMono-116"/>
      <use x="481.640625" xlink:href="#DejaVuSansMono-34"/>
      <use x="541.845703" xlink:href="#DejaVuSansMono-58"/>
     </g>
     <!-- y_0    = 4637979 -->
     <g transform="translate(369.451875 34.737)scale(0.06 -0.06)">
      <defs>
       <path d="M 4.296875 25.59375 
L 55.90625 25.59375 
L 55.90625 17.1875 
L 4.296875 17.1875 
z
M 4.296875 45.40625 
L 55.90625 45.40625 
L 55.90625 37.109375 
L 4.296875 37.109375 
z
" id="DejaVuSansMono-61"/>
      </defs>
      <use xlink:href="#DejaVuSansMono-121"/>
      <use x="60.205078" xlink:href="#DejaVuSansMono-95"/>
      <use x="120.410156" xlink:href="#DejaVuSansMono-48"/>
      <use x="180.615234" xlink:href="#DejaVuSansMono-32"/>
      <use x="240.820312" xlink:href="#DejaVuSansMono-32"/>
      <use x="301.025391" xlink:href="#DejaVuSansMono-32"/>
      <use x="361.230469" xlink:href="#DejaVuSansMono-32"/>
      <use x="421.435547" xlink:href="#DejaVuSansMono-61"/>
      <use x="481.640625" xlink:href="#DejaVuSansMono-32"/>
      <use x="541.845703" xlink:href="#DejaVuSansMono-52"/>
      <use x="602.050781" xlink:href="#DejaVuSansMono-54"/>
      <use x="662.255859" xlink:href="#DejaVuSansMono-51"/>
      <use x="722.460938" xlink:href="#DejaVuSansMono-55"/>
      <use x="782.666016" xlink:href="#DejaVuSansMono-57"/>
      <use x="842.871094" xlink:href="#DejaVuSansMono-55"/>
      <use x="903.076172" xlink:href="#DejaVuSansMono-57"/>
     </g>
     <!-- y_max  = 1318802294932 -->
     <g transform="translate(369.451875 41.660812)scale(0.06 -0.06)">
      <defs>
       <path d="M 54.59375 54.6875 
L 35.015625 28.515625 
L 56.5 0 
L 46.09375 0 
L 30.078125 21.921875 
L 14.109375 0 
L 3.71875 0 
L 25.203125 28.515625 
L 5.609375 54.6875 
L 15.578125 54.6875 
L 30.078125 34.90625 
L 44.484375 54.6875 
z
" id="DejaVuSansMono-120"/>
       <path d="M 30.078125 34.625 
Q 23.484375 34.625 19.890625 30.9375 
Q 16.3125 27.25 16.3125 20.515625 
Q 16.3125 13.765625 19.9375 10.03125 
Q 23.578125 6.296875 30.078125 6.296875 
Q 36.71875 6.296875 40.296875 9.984375 
Q 43.890625 13.671875 43.890625 20.515625 
Q 43.890625 27.203125 40.25 30.90625 
Q 36.625 34.625 30.078125 34.625 
z
M 21.484375 38.71875 
Q 15.1875 40.328125 11.640625 44.71875 
Q 8.109375 49.125 8.109375 55.328125 
Q 8.109375 64.015625 14.015625 69.109375 
Q 19.921875 74.21875 30.078125 74.21875 
Q 40.28125 74.21875 46.1875 69.109375 
Q 52.09375 64.015625 52.09375 55.328125 
Q 52.09375 49.125 48.546875 44.71875 
Q 45.015625 40.328125 38.71875 38.71875 
Q 46.046875 37.109375 49.921875 32.21875 
Q 53.8125 27.34375 53.8125 19.578125 
Q 53.8125 9.71875 47.515625 4.140625 
Q 41.21875 -1.421875 30.078125 -1.421875 
Q 18.953125 -1.421875 12.671875 4.125 
Q 6.390625 9.671875 6.390625 19.484375 
Q 6.390625 27.296875 10.265625 32.203125 
Q 14.15625 37.109375 21.484375 38.71875 
z
M 17.921875 54.390625 
Q 17.921875 48.53125 21.046875 45.453125 
Q 24.171875 42.390625 30.078125 42.390625 
Q 36.03125 42.390625 39.15625 45.453125 
Q 42.28125 48.53125 42.28125 54.390625 
Q 42.28125 60.359375 39.171875 63.484375 
Q 36.078125 66.609375 30.078125 66.609375 
Q 24.171875 66.609375 21.046875 63.453125 
Q 17.921875 60.296875 17.921875 54.390625 
z
" id="DejaVuSansMono-56"/>
      </defs>
      <use xlink:href="#DejaVuSansMono-121"/>
      <use x="60.205078" xlink:href="#DejaVuSansMono-95"/>
      <use x="120.410156" xlink:href="#DejaVuSansMono-109"/>
      <use x="180.615234" xlink:href="#DejaVuSansMono-97"/>
      <use x="240.820312" xlink:href="#DejaVuSansMono-120"/>
      <use x="301.025391" xlink:href="#DejaVuSansMono-32"/>
      <use x="361.230469" xlink:href="#DejaVuSansMono-32"/>
      <use x="421.435547" xlink:href="#DejaVuSansMono-61"/>
      <use x="481.640625" xlink:href="#DejaVuSansMono-32"/>
      <use x="541.845703" xlink:href="#DejaVuSansMono-49"/>
      <use x="602.050781" xlink:href="#DejaVuSansMono-51"/>
      <use x="662.255859" xlink:href="#DejaVuSansMono-49"/>
      <use x="722.460938" xlink:href="#DejaVuSansMono-56"/>
      <use x="782.666016" xlink:href="#DejaVuSansMono-56"/>
      <use x="842.871094" xlink:href="#DejaVuSansMono-48"/>
      <use x="903.076172" xlink:href="#DejaVuSansMono-50"/>
      <use x="963.28125" xlink:href="#DejaVuSansMono-50"/>
      <use x="1023.486328" xlink:href="#DejaVuSansMono-57"/>
      <use x="1083.691406" xlink:href="#DejaVuSansMono-52"/>
      <use x="1143.896484" xlink:href="#DejaVuSansMono-57"/>
      <use x="1204.101562" xlink:href="#DejaVuSansMono-51"/>
      <use x="1264.306641" xlink:href="#DejaVuSansMono-50"/>
     </g>
     <!-- x_max  = 574 -->
     <g transform="translate(369.451875 48.584625)scale(0.06 -0.06)">
      <use xlink:href="#DejaVuSansMono-120"/>
      <use x="60.205078" xlink:href="#DejaVuSansMono-95"/>
      <use x="120.410156" xlink:href="#DejaVuSansMono-109"/>
      <use x="180.615234" xlink:href="#DejaVuSansMono-97"/>
      <use x="240.820312" xlink:href="#DejaVuSansMono-120"/>
      <use x="301.025391" xlink:href="#DejaVuSansMono-32"/>
      <use x="361.230469" xlink:href="#DejaVuSansMono-32"/>
      <use x="421.435547" xlink:href="#DejaVuSansMono-61"/>
      <use x="481.640625" xlink:href="#DejaVuSansMono-32"/>
      <use x="541.845703" xlink:href="#DejaVuSansMono-53"/>
      <use x="602.050781" xlink:href="#DejaVuSansMono-55"/>
      <use x="662.255859" xlink:href="#DejaVuSansMono-52"/>
     </g>
    </g>
    <g id="line2d_18">
     <path d="M 352.651875 66.499875 
L 364.651875 66.499875 
" style="fill:none;stroke:#ff7f0e;stroke-linecap:square;stroke-width:0.666667;"/>
    </g>
    <g id="line2d_19"/>
    <g id="text_18">
     <!-- "Widest":  -->
     <g transform="translate(369.451875 57.59025)scale(0.06 -0.06)">
      <defs>
       <path d="M 0 72.90625 
L 9.625 72.90625 
L 16.609375 13.71875 
L 24.90625 52.875 
L 35.203125 52.875 
L 43.609375 13.625 
L 50.59375 72.90625 
L 60.203125 72.90625 
L 49.3125 0 
L 39.984375 0 
L 30.078125 43.3125 
L 20.21875 0 
L 10.890625 0 
z
" id="DejaVuSansMono-87"/>
       <path d="M 12.5 54.6875 
L 35.5 54.6875 
L 35.5 6.984375 
L 53.328125 6.984375 
L 53.328125 0 
L 8.6875 0 
L 8.6875 6.984375 
L 26.515625 6.984375 
L 26.515625 47.703125 
L 12.5 47.703125 
z
M 26.515625 75.984375 
L 35.5 75.984375 
L 35.5 64.59375 
L 26.515625 64.59375 
z
" id="DejaVuSansMono-105"/>
       <path d="M 41.890625 47.703125 
L 41.890625 75.984375 
L 50.875 75.984375 
L 50.875 0 
L 41.890625 0 
L 41.890625 6.890625 
Q 39.65625 2.828125 35.90625 0.703125 
Q 32.171875 -1.421875 27.296875 -1.421875 
Q 17.390625 -1.421875 11.6875 6.265625 
Q 6 13.96875 6 27.484375 
Q 6 40.828125 11.71875 48.40625 
Q 17.4375 56 27.296875 56 
Q 32.234375 56 35.984375 53.875 
Q 39.75 51.765625 41.890625 47.703125 
z
M 15.484375 27.296875 
Q 15.484375 16.84375 18.796875 11.515625 
Q 22.125 6.203125 28.609375 6.203125 
Q 35.109375 6.203125 38.5 11.5625 
Q 41.890625 16.9375 41.890625 27.296875 
Q 41.890625 37.703125 38.5 43.046875 
Q 35.109375 48.390625 28.609375 48.390625 
Q 22.125 48.390625 18.796875 43.0625 
Q 15.484375 37.75 15.484375 27.296875 
z
" id="DejaVuSansMono-100"/>
      </defs>
      <use xlink:href="#DejaVuSansMono-34"/>
      <use x="60.205078" xlink:href="#DejaVuSansMono-87"/>
      <use x="120.410156" xlink:href="#DejaVuSansMono-105"/>
      <use x="180.615234" xlink:href="#DejaVuSansMono-100"/>
      <use x="240.820312" xlink:href="#DejaVuSansMono-101"/>
      <use x="301.025391" xlink:href="#DejaVuSansMono-115"/>
      <use x="361.230469" xlink:href="#DejaVuSansMono-116"/>
      <use x="421.435547" xlink:href="#DejaVuSansMono-34"/>
      <use x="481.640625" xlink:href="#DejaVuSansMono-58"/>
      <use x="541.845703" xlink:href="#DejaVuSansMono-32"/>
     </g>
     <!-- y_0    = 5649499 -->
     <g transform="translate(369.451875 64.347187)scale(0.06 -0.06)">
      <use xlink:href="#DejaVuSansMono-121"/>
      <use x="60.205078" xlink:href="#DejaVuSansMono-95"/>
      <use x="120.410156" xlink:href="#DejaVuSansMono-48"/>
      <use x="180.615234" xlink:href="#DejaVuSansMono-32"/>
      <use x="240.820312" xlink:href="#DejaVuSansMono-32"/>
      <use x="301.025391" xlink:href="#DejaVuSansMono-32"/>
      <use x="361.230469" xlink:href="#DejaVuSansMono-32"/>
      <use x="421.435547" xlink:href="#DejaVuSansMono-61"/>
      <use x="481.640625" xlink:href="#DejaVuSansMono-32"/>
      <use x="541.845703" xlink:href="#DejaVuSansMono-53"/>
      <use x="602.050781" xlink:href="#DejaVuSansMono-54"/>
      <use x="662.255859" xlink:href="#DejaVuSansMono-52"/>
      <use x="722.460938" xlink:href="#DejaVuSansMono-57"/>
      <use x="782.666016" xlink:href="#DejaVuSansMono-52"/>
      <use x="842.871094" xlink:href="#DejaVuSansMono-57"/>
      <use x="903.076172" xlink:href="#DejaVuSansMono-57"/>
     </g>
     <!-- y_max  = 1017886660 -->
     <g transform="translate(369.451875 71.271)scale(0.06 -0.06)">
      <use xlink:href="#DejaVuSansMono-121"/>
      <use x="60.205078" xlink:href="#DejaVuSansMono-95"/>
      <use x="120.410156" xlink:href="#DejaVuSansMono-109"/>
      <use x="180.615234" xlink:href="#DejaVuSansMono-97"/>
      <use x="240.820312" xlink:href="#DejaVuSansMono-120"/>
      <use x="301.025391" xlink:href="#DejaVuSansMono-32"/>
      <use x="361.230469" xlink:href="#DejaVuSansMono-32"/>
      <use x="421.435547" xlink:href="#DejaVuSansMono-61"/>
      <use x="481.640625" xlink:href="#DejaVuSansMono-32"/>
      <use x="541.845703" xlink:href="#DejaVuSansMono-49"/>
      <use x="602.050781" xlink:href="#DejaVuSansMono-48"/>
      <use x="662.255859" xlink:href="#DejaVuSansMono-49"/>
      <use x="722.460938" xlink:href="#DejaVuSansMono-55"/>
      <use x="782.666016" xlink:href="#DejaVuSansMono-56"/>
      <use x="842.871094" xlink:href="#DejaVuSansMono-56"/>
      <use x="903.076172" xlink:href="#DejaVuSansMono-54"/>
      <use x="963.28125" xlink:href="#DejaVuSansMono-54"/>
      <use x="1023.486328" xlink:href="#DejaVuSansMono-54"/>
      <use x="1083.691406" xlink:href="#DejaVuSansMono-48"/>
     </g>
     <!-- x_max  = 613 -->
     <g transform="translate(369.451875 78.194812)scale(0.06 -0.06)">
      <use xlink:href="#DejaVuSansMono-120"/>
      <use x="60.205078" xlink:href="#DejaVuSansMono-95"/>
      <use x="120.410156" xlink:href="#DejaVuSansMono-109"/>
      <use x="180.615234" xlink:href="#DejaVuSansMono-97"/>
      <use x="240.820312" xlink:href="#DejaVuSansMono-120"/>
      <use x="301.025391" xlink:href="#DejaVuSansMono-32"/>
      <use x="361.230469" xlink:href="#DejaVuSansMono-32"/>
      <use x="421.435547" xlink:href="#DejaVuSansMono-61"/>
      <use x="481.640625" xlink:href="#DejaVuSansMono-32"/>
      <use x="541.845703" xlink:href="#DejaVuSansMono-54"/>
      <use x="602.050781" xlink:href="#DejaVuSansMono-49"/>
      <use x="662.255859" xlink:href="#DejaVuSansMono-51"/>
     </g>
    </g>
   </g>
  </g>
 </g>
 <defs>
  <clipPath id="p9d3a1d3690">
   <rect height="298.453375" width="418.46125" x="35.85875" y="17.989125"/>
  </clipPath>
 </defs>
</svg>
