<?xml version="1.0" encoding="utf-8" standalone="no"?>
<!DOCTYPE svg PUBLIC "-//W3C//DTD SVG 1.1//EN"
  "http://www.w3.org/Graphics/SVG/1.1/DTD/svg11.dtd">
<!-- Created with matplotlib (https://matplotlib.org/) -->
<svg height="345.6pt" version="1.1" viewBox="0 0 460.8 345.6" width="460.8pt" xmlns="http://www.w3.org/2000/svg" xmlns:xlink="http://www.w3.org/1999/xlink">
 <metadata>
  <rdf:RDF xmlns:cc="http://creativecommons.org/ns#" xmlns:dc="http://purl.org/dc/elements/1.1/" xmlns:rdf="http://www.w3.org/1999/02/22-rdf-syntax-ns#">
   <cc:Work>
    <dc:type rdf:resource="http://purl.org/dc/dcmitype/StillImage"/>
    <dc:date>2022-03-17T01:03:59.196296</dc:date>
    <dc:format>image/svg+xml</dc:format>
    <dc:creator>
     <cc:Agent>
      <dc:title>Matplotlib v3.3.2, https://matplotlib.org/</dc:title>
     </cc:Agent>
    </dc:creator>
   </cc:Work>
  </rdf:RDF>
 </metadata>
 <defs>
  <style type="text/css">*{stroke-linecap:butt;stroke-linejoin:round;}</style>
 </defs>
 <g id="figure_1">
  <g id="patch_1">
   <path d="M 0 345.6 
L 460.8 345.6 
L 460.8 0 
L 0 0 
z
" style="fill:#ffffff;"/>
  </g>
  <g id="axes_1">
   <g id="patch_2">
    <path d="M 35.85875 316.4425 
L 454.32 316.4425 
L 454.32 17.989125 
L 35.85875 17.989125 
z
" style="fill:#ffffff;"/>
   </g>
   <g id="matplotlib.axis_1">
    <g id="xtick_1">
     <g id="line2d_1">
      <defs>
       <path d="M 0 0 
L 0 3.5 
" id="m008033bd8b" style="stroke:#000000;stroke-width:0.8;"/>
      </defs>
      <g>
       <use style="stroke:#000000;stroke-width:0.8;" x="54.879716" xlink:href="#m008033bd8b" y="316.4425"/>
      </g>
     </g>
     <g id="text_1">
      <!-- 0 -->
      <g transform="translate(53.073622 328.033437)scale(0.06 -0.06)">
       <defs>
        <path d="M 23.578125 36.625 
Q 23.578125 39.3125 25.453125 41.265625 
Q 27.34375 43.21875 29.984375 43.21875 
Q 32.71875 43.21875 34.671875 41.265625 
Q 36.625 39.3125 36.625 36.625 
Q 36.625 33.890625 34.6875 31.984375 
Q 32.765625 30.078125 29.984375 30.078125 
Q 27.25 30.078125 25.40625 31.9375 
Q 23.578125 33.796875 23.578125 36.625 
z
M 30.078125 66.40625 
Q 23.1875 66.40625 19.796875 58.984375 
Q 16.40625 51.5625 16.40625 36.375 
Q 16.40625 21.234375 19.796875 13.8125 
Q 23.1875 6.390625 30.078125 6.390625 
Q 37.015625 6.390625 40.40625 13.8125 
Q 43.796875 21.234375 43.796875 36.375 
Q 43.796875 51.5625 40.40625 58.984375 
Q 37.015625 66.40625 30.078125 66.40625 
z
M 30.078125 74.21875 
Q 41.75 74.21875 47.734375 64.640625 
Q 53.71875 55.078125 53.71875 36.375 
Q 53.71875 17.71875 47.734375 8.140625 
Q 41.75 -1.421875 30.078125 -1.421875 
Q 18.40625 -1.421875 12.453125 8.140625 
Q 6.5 17.71875 6.5 36.375 
Q 6.5 55.078125 12.453125 64.640625 
Q 18.40625 74.21875 30.078125 74.21875 
z
" id="DejaVuSansMono-48"/>
       </defs>
       <use xlink:href="#DejaVuSansMono-48"/>
      </g>
     </g>
    </g>
    <g id="xtick_2">
     <g id="line2d_2">
      <g>
       <use style="stroke:#000000;stroke-width:0.8;" x="106.011345" xlink:href="#m008033bd8b" y="316.4425"/>
      </g>
     </g>
     <g id="text_2">
      <!-- 100 -->
      <g transform="translate(100.593063 328.033437)scale(0.06 -0.06)">
       <defs>
        <path d="M 13.1875 8.296875 
L 28.515625 8.296875 
L 28.515625 64.015625 
L 12.015625 60.296875 
L 12.015625 69.28125 
L 28.421875 72.90625 
L 38.28125 72.90625 
L 38.28125 8.296875 
L 53.421875 8.296875 
L 53.421875 0 
L 13.1875 0 
z
" id="DejaVuSansMono-49"/>
       </defs>
       <use xlink:href="#DejaVuSansMono-49"/>
       <use x="60.205078" xlink:href="#DejaVuSansMono-48"/>
       <use x="120.410156" xlink:href="#DejaVuSansMono-48"/>
      </g>
     </g>
    </g>
    <g id="xtick_3">
     <g id="line2d_3">
      <g>
       <use style="stroke:#000000;stroke-width:0.8;" x="157.142973" xlink:href="#m008033bd8b" y="316.4425"/>
      </g>
     </g>
     <g id="text_3">
      <!-- 200 -->
      <g transform="translate(151.724692 328.033437)scale(0.06 -0.06)">
       <defs>
        <path d="M 18.21875 8.296875 
L 51.703125 8.296875 
L 51.703125 0 
L 7.421875 0 
L 7.421875 8.296875 
Q 16.546875 17.921875 23.375 25.296875 
Q 30.21875 32.671875 32.8125 35.6875 
Q 37.703125 41.65625 39.40625 45.34375 
Q 41.109375 49.03125 41.109375 52.875 
Q 41.109375 58.984375 37.515625 62.453125 
Q 33.9375 65.921875 27.6875 65.921875 
Q 23.25 65.921875 18.359375 64.3125 
Q 13.484375 62.703125 8.015625 59.421875 
L 8.015625 69.390625 
Q 13.03125 71.78125 17.890625 73 
Q 22.75 74.21875 27.484375 74.21875 
Q 38.1875 74.21875 44.703125 68.53125 
Q 51.21875 62.84375 51.21875 53.609375 
Q 51.21875 48.921875 49.046875 44.234375 
Q 46.875 39.546875 42 33.890625 
Q 39.265625 30.71875 34.0625 25.09375 
Q 28.859375 19.484375 18.21875 8.296875 
z
" id="DejaVuSansMono-50"/>
       </defs>
       <use xlink:href="#DejaVuSansMono-50"/>
       <use x="60.205078" xlink:href="#DejaVuSansMono-48"/>
       <use x="120.410156" xlink:href="#DejaVuSansMono-48"/>
      </g>
     </g>
    </g>
    <g id="xtick_4">
     <g id="line2d_4">
      <g>
       <use style="stroke:#000000;stroke-width:0.8;" x="208.274602" xlink:href="#m008033bd8b" y="316.4425"/>
      </g>
     </g>
     <g id="text_4">
      <!-- 300 -->
      <g transform="translate(202.856321 328.033437)scale(0.06 -0.06)">
       <defs>
        <path d="M 37.890625 39.015625 
Q 45.0625 37.109375 48.875 32.25 
Q 52.6875 27.390625 52.6875 20.125 
Q 52.6875 10.0625 45.921875 4.3125 
Q 39.15625 -1.421875 27.203125 -1.421875 
Q 22.171875 -1.421875 16.9375 -0.484375 
Q 11.71875 0.4375 6.6875 2.203125 
L 6.6875 12.015625 
Q 11.671875 9.421875 16.5 8.15625 
Q 21.34375 6.890625 26.125 6.890625 
Q 34.234375 6.890625 38.578125 10.546875 
Q 42.921875 14.203125 42.921875 21.09375 
Q 42.921875 27.4375 38.578125 31.171875 
Q 34.234375 34.90625 26.8125 34.90625 
L 19.28125 34.90625 
L 19.28125 43.015625 
L 26.8125 43.015625 
Q 33.59375 43.015625 37.40625 45.984375 
Q 41.21875 48.96875 41.21875 54.296875 
Q 41.21875 59.90625 37.671875 62.90625 
Q 34.125 65.921875 27.59375 65.921875 
Q 23.25 65.921875 18.609375 64.9375 
Q 13.96875 63.96875 8.890625 62.015625 
L 8.890625 71.09375 
Q 14.796875 72.65625 19.40625 73.4375 
Q 24.03125 74.21875 27.59375 74.21875 
Q 38.234375 74.21875 44.609375 68.875 
Q 50.984375 63.53125 50.984375 54.6875 
Q 50.984375 48.6875 47.625 44.671875 
Q 44.28125 40.671875 37.890625 39.015625 
z
" id="DejaVuSansMono-51"/>
       </defs>
       <use xlink:href="#DejaVuSansMono-51"/>
       <use x="60.205078" xlink:href="#DejaVuSansMono-48"/>
       <use x="120.410156" xlink:href="#DejaVuSansMono-48"/>
      </g>
     </g>
    </g>
    <g id="xtick_5">
     <g id="line2d_5">
      <g>
       <use style="stroke:#000000;stroke-width:0.8;" x="259.406231" xlink:href="#m008033bd8b" y="316.4425"/>
      </g>
     </g>
     <g id="text_5">
      <!-- 400 -->
      <g transform="translate(253.98795 328.033437)scale(0.06 -0.06)">
       <defs>
        <path d="M 35.890625 63.921875 
L 12.890625 25.390625 
L 35.890625 25.390625 
z
M 34.28125 72.90625 
L 45.703125 72.90625 
L 45.703125 25.390625 
L 55.421875 25.390625 
L 55.421875 17.390625 
L 45.703125 17.390625 
L 45.703125 0 
L 35.890625 0 
L 35.890625 17.390625 
L 4.984375 17.390625 
L 4.984375 26.703125 
z
" id="DejaVuSansMono-52"/>
       </defs>
       <use xlink:href="#DejaVuSansMono-52"/>
       <use x="60.205078" xlink:href="#DejaVuSansMono-48"/>
       <use x="120.410156" xlink:href="#DejaVuSansMono-48"/>
      </g>
     </g>
    </g>
    <g id="xtick_6">
     <g id="line2d_6">
      <g>
       <use style="stroke:#000000;stroke-width:0.8;" x="310.53786" xlink:href="#m008033bd8b" y="316.4425"/>
      </g>
     </g>
     <g id="text_6">
      <!-- 500 -->
      <g transform="translate(305.119579 328.033437)scale(0.06 -0.06)">
       <defs>
        <path d="M 10.109375 72.90625 
L 47.015625 72.90625 
L 47.015625 64.59375 
L 19.09375 64.59375 
L 19.09375 46.6875 
Q 21.1875 47.46875 23.3125 47.828125 
Q 25.4375 48.1875 27.59375 48.1875 
Q 38.921875 48.1875 45.5625 41.5 
Q 52.203125 34.8125 52.203125 23.390625 
Q 52.203125 11.859375 45.234375 5.21875 
Q 38.28125 -1.421875 26.21875 -1.421875 
Q 20.40625 -1.421875 15.59375 -0.640625 
Q 10.796875 0.140625 6.984375 1.703125 
L 6.984375 11.71875 
Q 11.46875 9.28125 16.015625 8.078125 
Q 20.5625 6.890625 25.296875 6.890625 
Q 33.453125 6.890625 37.859375 11.1875 
Q 42.28125 15.484375 42.28125 23.390625 
Q 42.28125 31.203125 37.71875 35.546875 
Q 33.15625 39.890625 25 39.890625 
Q 21.046875 39.890625 17.28125 38.984375 
Q 13.53125 38.09375 10.109375 36.28125 
z
" id="DejaVuSansMono-53"/>
       </defs>
       <use xlink:href="#DejaVuSansMono-53"/>
       <use x="60.205078" xlink:href="#DejaVuSansMono-48"/>
       <use x="120.410156" xlink:href="#DejaVuSansMono-48"/>
      </g>
     </g>
    </g>
    <g id="xtick_7">
     <g id="line2d_7">
      <g>
       <use style="stroke:#000000;stroke-width:0.8;" x="361.669489" xlink:href="#m008033bd8b" y="316.4425"/>
      </g>
     </g>
     <g id="text_7">
      <!-- 600 -->
      <g transform="translate(356.251207 328.033437)scale(0.06 -0.06)">
       <defs>
        <path d="M 48.390625 71.296875 
L 48.390625 62.203125 
Q 45.3125 64.015625 41.84375 64.96875 
Q 38.375 65.921875 34.625 65.921875 
Q 25.25 65.921875 20.40625 58.859375 
Q 15.578125 51.8125 15.578125 38.09375 
Q 17.921875 42.96875 22.0625 45.578125 
Q 26.21875 48.1875 31.59375 48.1875 
Q 42.140625 48.1875 47.921875 41.71875 
Q 53.71875 35.25 53.71875 23.390625 
Q 53.71875 11.578125 47.75 5.078125 
Q 41.796875 -1.421875 31 -1.421875 
Q 18.3125 -1.421875 12.40625 7.6875 
Q 6.5 16.796875 6.5 36.375 
Q 6.5 54.828125 13.59375 64.515625 
Q 20.703125 74.21875 34.1875 74.21875 
Q 37.796875 74.21875 41.40625 73.453125 
Q 45.015625 72.703125 48.390625 71.296875 
z
M 30.8125 40.484375 
Q 24.515625 40.484375 20.890625 35.9375 
Q 17.28125 31.390625 17.28125 23.390625 
Q 17.28125 15.375 20.890625 10.828125 
Q 24.515625 6.296875 30.8125 6.296875 
Q 37.359375 6.296875 40.671875 10.609375 
Q 44 14.9375 44 23.390625 
Q 44 31.890625 40.671875 36.1875 
Q 37.359375 40.484375 30.8125 40.484375 
z
" id="DejaVuSansMono-54"/>
       </defs>
       <use xlink:href="#DejaVuSansMono-54"/>
       <use x="60.205078" xlink:href="#DejaVuSansMono-48"/>
       <use x="120.410156" xlink:href="#DejaVuSansMono-48"/>
      </g>
     </g>
    </g>
    <g id="xtick_8">
     <g id="line2d_8">
      <g>
       <use style="stroke:#000000;stroke-width:0.8;" x="412.801117" xlink:href="#m008033bd8b" y="316.4425"/>
      </g>
     </g>
     <g id="text_8">
      <!-- 700 -->
      <g transform="translate(407.382836 328.033437)scale(0.06 -0.06)">
       <defs>
        <path d="M 6.78125 72.90625 
L 52.6875 72.90625 
L 52.6875 68.703125 
L 26.609375 0 
L 16.3125 0 
L 41.703125 64.59375 
L 6.78125 64.59375 
z
" id="DejaVuSansMono-55"/>
       </defs>
       <use xlink:href="#DejaVuSansMono-55"/>
       <use x="60.205078" xlink:href="#DejaVuSansMono-48"/>
       <use x="120.410156" xlink:href="#DejaVuSansMono-48"/>
      </g>
     </g>
    </g>
    <g id="text_9">
     <!-- n -->
     <g transform="translate(243.283281 337.872187)scale(0.06 -0.06)">
      <defs>
       <path d="M 51.3125 33.890625 
L 51.3125 0 
L 42.28125 0 
L 42.28125 33.890625 
Q 42.28125 41.265625 39.6875 44.71875 
Q 37.109375 48.1875 31.59375 48.1875 
Q 25.296875 48.1875 21.890625 43.71875 
Q 18.5 39.265625 18.5 30.90625 
L 18.5 0 
L 9.515625 0 
L 9.515625 54.6875 
L 18.5 54.6875 
L 18.5 46.484375 
Q 20.90625 51.171875 25 53.578125 
Q 29.109375 56 34.71875 56 
Q 43.0625 56 47.1875 50.5 
Q 51.3125 45.015625 51.3125 33.890625 
z
" id="DejaVuSansMono-110"/>
      </defs>
      <use xlink:href="#DejaVuSansMono-110"/>
     </g>
    </g>
   </g>
   <g id="matplotlib.axis_2">
    <g id="ytick_1">
     <g id="line2d_9">
      <defs>
       <path d="M 0 0 
L -3.5 0 
" id="m8d621a84a5" style="stroke:#000000;stroke-width:0.8;"/>
      </defs>
      <g>
       <use style="stroke:#000000;stroke-width:0.8;" x="35.85875" xlink:href="#m8d621a84a5" y="284.389482"/>
      </g>
     </g>
     <g id="text_10">
      <!-- $\mathdefault{10^{1}}$ -->
      <g transform="translate(18.83875 286.684951)scale(0.06 -0.06)">
       <use transform="translate(0 0.684375)" xlink:href="#DejaVuSansMono-49"/>
       <use transform="translate(60.205078 0.684375)" xlink:href="#DejaVuSansMono-48"/>
       <use transform="translate(121.367188 38.965625)scale(0.7)" xlink:href="#DejaVuSansMono-49"/>
      </g>
     </g>
    </g>
    <g id="ytick_2">
     <g id="line2d_10">
      <g>
       <use style="stroke:#000000;stroke-width:0.8;" x="35.85875" xlink:href="#m8d621a84a5" y="247.415572"/>
      </g>
     </g>
     <g id="text_11">
      <!-- $\mathdefault{10^{3}}$ -->
      <g transform="translate(18.83875 249.711041)scale(0.06 -0.06)">
       <use transform="translate(0 0.765625)" xlink:href="#DejaVuSansMono-49"/>
       <use transform="translate(60.205078 0.765625)" xlink:href="#DejaVuSansMono-48"/>
       <use transform="translate(121.367188 39.046875)scale(0.7)" xlink:href="#DejaVuSansMono-51"/>
      </g>
     </g>
    </g>
    <g id="ytick_3">
     <g id="line2d_11">
      <g>
       <use style="stroke:#000000;stroke-width:0.8;" x="35.85875" xlink:href="#m8d621a84a5" y="210.441662"/>
      </g>
     </g>
     <g id="text_12">
      <!-- $\mathdefault{10^{5}}$ -->
      <g transform="translate(18.83875 212.737131)scale(0.06 -0.06)">
       <use transform="translate(0 0.684375)" xlink:href="#DejaVuSansMono-49"/>
       <use transform="translate(60.205078 0.684375)" xlink:href="#DejaVuSansMono-48"/>
       <use transform="translate(121.367188 38.965625)scale(0.7)" xlink:href="#DejaVuSansMono-53"/>
      </g>
     </g>
    </g>
    <g id="ytick_4">
     <g id="line2d_12">
      <g>
       <use style="stroke:#000000;stroke-width:0.8;" x="35.85875" xlink:href="#m8d621a84a5" y="173.467752"/>
      </g>
     </g>
     <g id="text_13">
      <!-- $\mathdefault{10^{7}}$ -->
      <g transform="translate(18.83875 175.76322)scale(0.06 -0.06)">
       <use transform="translate(0 0.684375)" xlink:href="#DejaVuSansMono-49"/>
       <use transform="translate(60.205078 0.684375)" xlink:href="#DejaVuSansMono-48"/>
       <use transform="translate(121.367188 38.965625)scale(0.7)" xlink:href="#DejaVuSansMono-55"/>
      </g>
     </g>
    </g>
    <g id="ytick_5">
     <g id="line2d_13">
      <g>
       <use style="stroke:#000000;stroke-width:0.8;" x="35.85875" xlink:href="#m8d621a84a5" y="136.493841"/>
      </g>
     </g>
     <g id="text_14">
      <!-- $\mathdefault{10^{9}}$ -->
      <g transform="translate(18.83875 138.78931)scale(0.06 -0.06)">
       <defs>
        <path d="M 29.109375 32.328125 
Q 35.40625 32.328125 38.984375 36.859375 
Q 42.578125 41.40625 42.578125 49.421875 
Q 42.578125 57.421875 38.984375 61.953125 
Q 35.40625 66.5 29.109375 66.5 
Q 22.5625 66.5 19.234375 62.171875 
Q 15.921875 57.859375 15.921875 49.421875 
Q 15.921875 40.921875 19.21875 36.625 
Q 22.515625 32.328125 29.109375 32.328125 
z
M 11.53125 1.515625 
L 11.53125 10.59375 
Q 14.59375 8.796875 18.0625 7.84375 
Q 21.53125 6.890625 25.296875 6.890625 
Q 34.671875 6.890625 39.46875 13.9375 
Q 44.28125 21 44.28125 34.71875 
Q 42 29.828125 37.84375 27.21875 
Q 33.6875 24.609375 28.328125 24.609375 
Q 17.78125 24.609375 11.984375 31.09375 
Q 6.203125 37.59375 6.203125 49.515625 
Q 6.203125 61.28125 12.125 67.75 
Q 18.0625 74.21875 28.90625 74.21875 
Q 41.609375 74.21875 47.515625 65.078125 
Q 53.421875 55.953125 53.421875 36.375 
Q 53.421875 17.96875 46.3125 8.265625 
Q 39.203125 -1.421875 25.6875 -1.421875 
Q 22.125 -1.421875 18.5 -0.65625 
Q 14.890625 0.09375 11.53125 1.515625 
z
" id="DejaVuSansMono-57"/>
       </defs>
       <use transform="translate(0 0.765625)" xlink:href="#DejaVuSansMono-49"/>
       <use transform="translate(60.205078 0.765625)" xlink:href="#DejaVuSansMono-48"/>
       <use transform="translate(121.367188 39.046875)scale(0.7)" xlink:href="#DejaVuSansMono-57"/>
      </g>
     </g>
    </g>
    <g id="ytick_6">
     <g id="line2d_14">
      <g>
       <use style="stroke:#000000;stroke-width:0.8;" x="35.85875" xlink:href="#m8d621a84a5" y="99.519931"/>
      </g>
     </g>
     <g id="text_15">
      <!-- $\mathdefault{10^{11}}$ -->
      <g transform="translate(16.31875 101.8154)scale(0.06 -0.06)">
       <use transform="translate(0 0.684375)" xlink:href="#DejaVuSansMono-49"/>
       <use transform="translate(60.205078 0.684375)" xlink:href="#DejaVuSansMono-48"/>
       <use transform="translate(121.367188 38.965625)scale(0.7)" xlink:href="#DejaVuSansMono-49"/>
       <use transform="translate(163.510742 38.965625)scale(0.7)" xlink:href="#DejaVuSansMono-49"/>
      </g>
     </g>
    </g>
    <g id="ytick_7">
     <g id="line2d_15">
      <g>
       <use style="stroke:#000000;stroke-width:0.8;" x="35.85875" xlink:href="#m8d621a84a5" y="62.546021"/>
      </g>
     </g>
     <g id="text_16">
      <!-- $\mathdefault{10^{13}}$ -->
      <g transform="translate(16.31875 64.84149)scale(0.06 -0.06)">
       <use transform="translate(0 0.765625)" xlink:href="#DejaVuSansMono-49"/>
       <use transform="translate(60.205078 0.765625)" xlink:href="#DejaVuSansMono-48"/>
       <use transform="translate(121.367188 39.046875)scale(0.7)" xlink:href="#DejaVuSansMono-49"/>
       <use transform="translate(163.510742 39.046875)scale(0.7)" xlink:href="#DejaVuSansMono-51"/>
      </g>
     </g>
    </g>
    <g id="ytick_8">
     <g id="line2d_16">
      <g>
       <use style="stroke:#000000;stroke-width:0.8;" x="35.85875" xlink:href="#m8d621a84a5" y="25.572111"/>
      </g>
     </g>
     <g id="text_17">
      <!-- $\mathdefault{10^{15}}$ -->
      <g transform="translate(16.31875 27.867579)scale(0.06 -0.06)">
       <use transform="translate(0 0.684375)" xlink:href="#DejaVuSansMono-49"/>
       <use transform="translate(60.205078 0.684375)" xlink:href="#DejaVuSansMono-48"/>
       <use transform="translate(121.367188 38.965625)scale(0.7)" xlink:href="#DejaVuSansMono-49"/>
       <use transform="translate(163.510742 38.965625)scale(0.7)" xlink:href="#DejaVuSansMono-53"/>
      </g>
     </g>
    </g>
    <g id="text_18">
     <!-- y_n -->
     <g transform="translate(10.904063 172.634094)rotate(-90)scale(0.06 -0.06)">
      <defs>
       <path d="M 41.890625 17.578125 
Q 39.65625 11.859375 36.1875 2.546875 
Q 31.34375 -10.359375 29.6875 -13.1875 
Q 27.4375 -17 24.0625 -18.890625 
Q 20.703125 -20.796875 16.21875 -20.796875 
L 8.984375 -20.796875 
L 8.984375 -13.28125 
L 14.3125 -13.28125 
Q 18.265625 -13.28125 20.5 -10.984375 
Q 22.75 -8.6875 26.21875 0.875 
L 5.078125 54.6875 
L 14.59375 54.6875 
L 30.8125 11.921875 
L 46.78125 54.6875 
L 56.296875 54.6875 
z
" id="DejaVuSansMono-121"/>
       <path d="M 60.203125 -19.671875 
L 60.203125 -23.578125 
L 0 -23.578125 
L 0 -19.671875 
z
" id="DejaVuSansMono-95"/>
      </defs>
      <use xlink:href="#DejaVuSansMono-121"/>
      <use x="60.205078" xlink:href="#DejaVuSansMono-95"/>
      <use x="120.410156" xlink:href="#DejaVuSansMono-110"/>
     </g>
    </g>
   </g>
   <g id="line2d_17">
    <path clip-path="url(#pc8c0e4095e)" d="M 54.879716 162.624457 
L 55.391032 153.803938 
L 55.902348 159.369066 
L 56.413665 150.548547 
L 56.924981 156.113675 
L 57.436297 147.293155 
L 57.947614 152.858283 
L 58.45893 144.037764 
L 58.970246 149.602892 
L 59.481562 140.782373 
L 59.992879 146.347501 
L 60.504195 137.526982 
L 61.015511 143.09211 
L 61.526828 134.271591 
L 62.038144 139.836719 
L 62.54946 131.016199 
L 63.060777 136.581327 
L 63.572093 127.760808 
L 64.083409 133.325936 
L 64.594725 124.505417 
L 65.617358 135.635673 
L 66.128674 126.815154 
L 67.151307 137.94541 
L 67.662623 129.124891 
L 68.173939 134.690019 
L 68.685256 125.869499 
L 69.707888 136.999755 
L 70.219205 128.179236 
L 70.730521 133.744364 
L 71.241837 124.923845 
L 72.26447 136.054101 
L 72.775786 127.233582 
L 73.798419 138.363838 
L 74.309735 129.543319 
L 74.821051 135.108447 
L 75.332367 126.287927 
L 75.843684 131.853055 
L 76.355 123.032536 
L 76.866316 128.597664 
L 77.377633 119.777145 
L 77.888949 125.342273 
L 78.400265 116.521754 
L 78.911581 122.086882 
L 79.422898 113.266363 
L 79.934214 118.831491 
L 80.44553 110.010971 
L 81.979479 126.706355 
L 82.490795 117.885836 
L 84.024744 134.58122 
L 84.536061 125.760701 
L 85.558693 136.890957 
L 86.070009 128.070438 
L 86.581326 133.635566 
L 87.092642 124.815047 
L 88.115275 135.945303 
L 88.626591 127.124783 
L 89.137907 132.689911 
L 89.649223 123.869392 
L 90.16054 129.43452 
L 90.671856 120.614001 
L 91.694489 131.744257 
L 92.205805 122.923738 
L 93.739754 139.619122 
L 94.25107 130.798603 
L 94.762386 136.363731 
L 95.273703 127.543211 
L 96.296335 138.673468 
L 96.807652 129.852948 
L 97.318968 135.418076 
L 97.830284 126.597557 
L 98.3416 132.162685 
L 98.852917 123.342166 
L 99.875549 134.472422 
L 100.386866 125.651903 
L 100.898182 131.217031 
L 101.409498 122.396511 
L 101.920814 127.96164 
L 102.432131 119.14112 
L 102.943447 124.706248 
L 103.454763 115.885729 
L 103.96608 121.450857 
L 104.477396 112.630338 
L 104.988712 118.195466 
L 105.500028 109.374947 
L 106.011345 114.940075 
L 106.522661 106.119555 
L 107.033977 111.684683 
L 107.545294 102.864164 
L 108.05661 108.429292 
L 108.567926 99.608773 
L 109.590559 110.739029 
L 110.101875 101.91851 
L 110.613191 107.483638 
L 111.124508 98.663119 
L 111.635824 104.228247 
L 112.14714 95.407727 
L 112.658456 100.972855 
L 113.169773 92.152336 
L 113.681089 97.717464 
L 114.192405 88.896945 
L 114.703722 94.462073 
L 115.215038 85.641554 
L 116.23767 96.77181 
L 116.748987 87.951291 
L 117.260303 93.516419 
L 117.771619 84.695899 
L 118.282936 90.261027 
L 118.794252 81.440508 
L 119.305568 87.005636 
L 119.816884 78.185117 
L 120.839517 89.315373 
L 121.350833 80.494854 
L 121.86215 86.059982 
L 122.373466 77.239463 
L 122.884782 82.804591 
L 123.396098 73.984071 
L 123.907415 79.549199 
L 124.418731 70.72868 
L 124.930047 76.293808 
L 125.441364 67.473289 
L 125.95268 73.038417 
L 126.463996 64.217898 
L 127.486629 75.348154 
L 127.997945 66.527635 
L 128.509261 72.092763 
L 129.020578 63.272243 
L 129.531894 68.837371 
L 130.04321 60.016852 
L 131.065843 71.147108 
L 131.577159 62.326589 
L 132.088475 67.891717 
L 132.599792 59.071198 
L 133.111108 64.636326 
L 133.622424 55.815807 
L 134.645057 66.946063 
L 135.156373 58.125543 
L 135.667689 63.690672 
L 136.179006 54.870152 
L 136.690322 60.43528 
L 137.201638 51.614761 
L 137.712955 57.179889 
L 138.224271 48.35937 
L 138.735587 53.924498 
L 139.246903 45.103979 
L 139.75822 50.669107 
L 140.269536 41.848587 
L 140.780852 47.413715 
L 141.292169 38.593196 
L 142.826117 55.28858 
L 143.337434 46.468061 
L 143.84875 52.033189 
L 144.360066 43.21267 
L 144.871383 48.777798 
L 145.382699 39.957279 
L 145.894015 45.522407 
L 146.405331 36.701887 
L 147.93928 53.397272 
L 148.450597 44.576752 
L 148.961913 50.14188 
L 149.473229 41.321361 
L 149.984545 46.886489 
L 150.495862 38.06597 
L 151.007178 43.631098 
L 151.518494 34.810579 
L 152.029811 40.375707 
L 152.541127 31.555187 
L 153.563759 42.685444 
L 154.075076 33.864924 
L 156.120341 56.125436 
L 156.631657 47.304917 
L 158.165606 64.000301 
L 158.676922 55.179782 
L 161.233504 83.005422 
L 161.74482 74.184903 
L 162.256136 79.750031 
L 162.767453 70.929512 
L 164.301402 87.624896 
L 164.812718 78.804377 
L 166.346667 95.499761 
L 166.857983 86.679241 
L 168.391932 103.374625 
L 168.903248 94.554106 
L 170.437197 111.24949 
L 170.948513 102.428971 
L 171.971146 113.559227 
L 172.482462 104.738708 
L 172.993778 110.303836 
L 173.505095 101.483317 
L 174.016411 107.048445 
L 174.527727 98.227925 
L 175.55036 109.358182 
L 176.061676 100.537662 
L 176.572992 106.10279 
L 177.084309 97.282271 
L 177.595625 102.847399 
L 178.106941 94.02688 
L 179.64089 110.722264 
L 180.152206 101.901745 
L 181.174839 113.032001 
L 181.686155 104.211482 
L 182.708788 115.341738 
L 183.220104 106.521218 
L 183.73142 112.086346 
L 184.242737 103.265827 
L 185.265369 114.396083 
L 185.776686 105.575564 
L 187.310634 122.270948 
L 187.821951 113.450429 
L 188.333267 119.015557 
L 188.844583 110.195038 
L 189.3559 115.760166 
L 189.867216 106.939646 
L 191.912481 129.200158 
L 192.423797 120.379639 
L 193.957746 137.075023 
L 194.469062 128.254504 
L 195.491695 139.38476 
L 196.003011 130.564241 
L 197.025644 141.694497 
L 197.53696 132.873978 
L 199.070909 149.569362 
L 199.582225 140.748843 
L 201.116174 157.444227 
L 201.627491 148.623707 
L 202.650123 159.753963 
L 203.161439 150.933444 
L 203.672756 156.498572 
L 204.184072 147.678053 
L 207.25197 181.068821 
L 207.763286 172.248301 
L 208.274602 177.813429 
L 208.785919 168.992909 
L 209.297235 174.558037 
L 209.808551 165.737518 
L 213.899081 210.258542 
L 214.410398 201.437997 
L 214.921714 207.003125 
L 215.43303 198.182588 
L 217.989612 226.008228 
L 218.500928 217.187523 
L 219.012244 222.752651 
L 219.523561 213.932008 
L 221.057509 230.627392 
L 221.568826 221.806542 
L 223.102775 238.501926 
L 223.614091 229.680525 
L 224.125407 235.245653 
L 224.636723 226.424546 
L 225.659356 237.554802 
L 226.170672 228.733499 
L 226.681989 234.298627 
L 227.193305 225.477586 
L 227.704621 231.042714 
L 228.215937 222.221846 
L 230.261203 244.482358 
L 230.772519 235.659982 
L 231.795152 246.790238 
L 232.306468 237.967243 
L 233.3291 249.097499 
L 233.840417 240.273681 
L 234.351733 245.838809 
L 234.863049 237.016091 
L 235.885682 248.146347 
L 236.396998 239.322897 
L 237.419631 250.453153 
L 237.930947 241.628728 
L 239.464896 258.324112 
L 239.976212 249.493186 
L 240.998845 260.623442 
L 241.510161 251.789068 
L 242.532794 262.919324 
L 243.04411 254.080369 
L 244.066742 265.210625 
L 244.578059 256.365591 
L 246.112008 273.060975 
L 246.623324 264.175445 
L 247.645956 275.305701 
L 248.157273 266.399311 
L 248.668589 271.964439 
L 249.179905 263.087179 
L 249.691222 268.652307 
L 250.202538 259.794183 
L 250.713854 265.359311 
L 251.22517 256.513819 
L 251.736487 262.078947 
L 252.247803 253.241822 
L 253.270436 264.372078 
L 253.781752 255.529471 
L 254.804384 266.659727 
L 255.315701 257.809852 
L 255.827017 263.37498 
L 256.338333 254.53495 
L 257.360966 265.665206 
L 257.872282 256.818746 
L 258.383598 262.383874 
L 258.894915 253.546107 
L 259.406231 259.111235 
L 259.917547 250.279238 
L 260.94018 261.409494 
L 261.451496 252.573696 
L 261.962812 258.138824 
L 262.474129 249.308135 
L 262.985445 254.873264 
L 263.496761 246.045972 
L 264.008078 251.6111 
L 264.519394 242.786069 
L 265.542027 253.916325 
L 266.053343 245.089794 
L 267.587292 261.785178 
L 268.098608 252.948649 
L 268.609924 258.513777 
L 269.121241 249.682603 
L 269.632557 255.247731 
L 270.143873 246.420116 
L 271.166506 257.550372 
L 271.677822 248.720401 
L 272.189138 254.285529 
L 272.700455 245.458715 
L 273.723087 256.588971 
L 274.234403 247.760067 
L 274.74572 253.325195 
L 275.257036 244.499091 
L 275.768352 250.064219 
L 276.279669 241.239978 
L 276.790985 246.805106 
L 277.302301 237.982107 
L 277.813617 243.547235 
L 278.324934 234.725063 
L 278.83625 240.290191 
L 279.347566 231.46857 
L 280.881515 248.163954 
L 281.392831 239.340498 
L 281.904148 244.905626 
L 282.415464 236.083149 
L 282.92678 241.648277 
L 283.438097 232.826453 
L 283.949413 238.391581 
L 284.460729 229.570192 
L 286.505994 251.830704 
L 287.017311 243.005548 
L 288.039943 254.135804 
L 288.551259 245.309106 
L 289.573892 256.439363 
L 290.085208 247.610613 
L 292.130473 269.871125 
L 292.64179 261.006852 
L 294.175739 277.702236 
L 294.687055 268.766193 
L 295.198371 274.331321 
L 295.709687 265.434699 
L 296.221004 270.999827 
L 296.73232 262.12897 
L 299.288902 289.95461 
L 299.800218 280.615925 
L 301.845483 302.876437 
L 301.845483 302.876437 
" style="fill:none;stroke:#1f77b4;stroke-linecap:square;stroke-width:0.666667;"/>
   </g>
   <g id="line2d_18">
    <path clip-path="url(#pc8c0e4095e)" d="M 54.879716 163.008795 
L 55.391032 154.188276 
L 55.902348 159.753404 
L 56.413665 150.932885 
L 56.924981 156.498013 
L 57.436297 147.677494 
L 57.947614 153.242622 
L 58.45893 144.422102 
L 59.481562 155.552358 
L 59.992879 146.731839 
L 60.504195 152.296967 
L 61.015511 143.476448 
L 61.526828 149.041576 
L 62.038144 140.221057 
L 62.54946 145.786185 
L 63.060777 136.965666 
L 63.572093 142.530794 
L 64.083409 133.710274 
L 64.594725 139.275402 
L 65.106042 130.454883 
L 65.617358 136.020011 
L 66.128674 127.199492 
L 67.662623 143.894876 
L 68.173939 135.074357 
L 69.196572 146.204613 
L 69.707888 137.384094 
L 70.219205 142.949222 
L 70.730521 134.128702 
L 71.241837 139.69383 
L 71.753153 130.873311 
L 72.775786 142.003567 
L 73.287102 133.183048 
L 73.798419 138.748176 
L 74.309735 129.927657 
L 75.332367 141.057913 
L 75.843684 132.237394 
L 77.377633 148.932778 
L 77.888949 140.112258 
L 78.911581 151.242514 
L 79.422898 142.421995 
L 80.956847 159.117379 
L 81.468163 150.29686 
L 83.513428 172.557372 
L 84.024744 163.736853 
L 85.047377 174.867109 
L 85.558693 166.046589 
L 86.070009 171.611717 
L 86.581326 162.791198 
L 87.092642 168.356326 
L 87.603958 159.535806 
L 88.115275 165.100934 
L 88.626591 156.280415 
L 89.137907 161.845543 
L 89.649223 153.025024 
L 90.16054 158.590152 
L 90.671856 149.769633 
L 91.183172 155.334761 
L 91.694489 146.514241 
L 92.717121 157.644497 
L 93.228437 148.823978 
L 93.739754 154.389106 
L 94.25107 145.568587 
L 94.762386 151.133715 
L 95.273703 142.313196 
L 95.785019 147.878324 
L 96.296335 139.057804 
L 96.807652 144.622932 
L 97.318968 135.802413 
L 97.830284 141.367541 
L 98.3416 132.547022 
L 99.875549 149.242406 
L 100.386866 140.421887 
L 100.898182 145.987015 
L 101.409498 137.166496 
L 102.432131 148.296752 
L 102.943447 139.476232 
L 103.454763 145.04136 
L 103.96608 136.220841 
L 105.500028 152.916225 
L 106.011345 144.095706 
L 106.522661 149.660834 
L 107.033977 140.840315 
L 107.545294 146.405443 
L 108.05661 137.584924 
L 108.567926 143.150052 
L 109.079242 134.329532 
L 109.590559 139.89466 
L 110.101875 131.074141 
L 111.124508 142.204397 
L 111.635824 133.383878 
L 112.14714 138.949006 
L 112.658456 130.128487 
L 113.681089 141.258743 
L 114.192405 132.438224 
L 115.215038 143.56848 
L 115.726354 134.74796 
L 116.23767 140.313088 
L 116.748987 131.492569 
L 117.260303 137.057697 
L 117.771619 128.237178 
L 118.282936 133.802306 
L 118.794252 124.981787 
L 119.305568 130.546915 
L 119.816884 121.726396 
L 120.839517 132.856652 
L 121.350833 124.036132 
L 122.373466 135.166388 
L 122.884782 126.345869 
L 123.396098 131.910997 
L 123.907415 123.090478 
L 124.930047 134.220734 
L 125.441364 125.400215 
L 125.95268 130.965343 
L 126.463996 122.144824 
L 126.975312 127.709952 
L 127.486629 118.889432 
L 127.997945 124.45456 
L 128.509261 115.634041 
L 129.020578 121.199169 
L 129.531894 112.37865 
L 130.554527 123.508906 
L 131.065843 114.688387 
L 131.577159 120.253515 
L 132.088475 111.432996 
L 133.111108 122.563252 
L 133.622424 113.742732 
L 134.645057 124.872988 
L 135.156373 116.052469 
L 135.667689 121.617597 
L 136.179006 112.797078 
L 138.224271 135.05759 
L 138.735587 126.237071 
L 140.269536 142.932455 
L 140.780852 134.111936 
L 141.292169 139.677064 
L 141.803485 130.856544 
L 143.337434 147.551929 
L 143.84875 138.731409 
L 144.871383 149.861665 
L 145.382699 141.041146 
L 145.894015 146.606274 
L 146.405331 137.785755 
L 146.916648 143.350883 
L 147.427964 134.530364 
L 147.93928 140.095492 
L 148.450597 131.274972 
L 148.961913 136.840101 
L 149.473229 128.019581 
L 150.495862 139.149837 
L 151.007178 130.329318 
L 152.541127 147.024702 
L 153.052443 138.204183 
L 153.563759 143.769311 
L 154.075076 134.948792 
L 154.586392 140.51392 
L 155.097708 131.693401 
L 155.609025 137.258529 
L 156.120341 128.438009 
L 156.631657 134.003137 
L 157.142973 125.182618 
L 157.65429 130.747746 
L 158.165606 121.927227 
L 158.676922 127.492355 
L 159.188239 118.671836 
L 159.699555 124.236964 
L 160.210871 115.416444 
L 161.233504 126.546701 
L 161.74482 117.726181 
L 162.767453 128.856437 
L 163.278769 120.035918 
L 164.301402 131.166174 
L 164.812718 122.345655 
L 165.324034 127.910783 
L 165.83535 119.090264 
L 166.857983 130.22052 
L 167.369299 121.400001 
L 168.903248 138.095385 
L 169.414564 129.274865 
L 169.925881 134.839993 
L 170.437197 126.019474 
L 170.948513 131.584602 
L 171.45983 122.764083 
L 171.971146 128.329211 
L 172.482462 119.508692 
L 172.993778 125.07382 
L 173.505095 116.253301 
L 174.016411 121.818429 
L 174.527727 112.997909 
L 175.55036 124.128165 
L 176.061676 115.307646 
L 176.572992 120.872774 
L 177.084309 112.052255 
L 177.595625 117.617383 
L 178.106941 108.796864 
L 178.618258 114.361992 
L 179.129574 105.541473 
L 179.64089 111.106601 
L 180.152206 102.286081 
L 180.663523 107.851209 
L 181.174839 99.03069 
L 181.686155 104.595818 
L 182.197472 95.775299 
L 184.754053 123.600939 
L 185.265369 114.78042 
L 185.776686 120.345548 
L 186.288002 111.525029 
L 186.799318 117.090157 
L 187.310634 108.269637 
L 187.821951 113.834765 
L 188.333267 105.014246 
L 190.378532 127.274758 
L 190.889848 118.454239 
L 191.401165 124.019367 
L 191.912481 115.198848 
L 193.957746 137.45936 
L 194.469062 128.638841 
L 195.491695 139.769097 
L 196.003011 130.948578 
L 197.025644 142.078834 
L 197.53696 133.258314 
L 198.048277 138.823442 
L 198.559593 130.002923 
L 200.093542 146.698307 
L 200.604858 137.877788 
L 202.650123 160.1383 
L 203.161439 151.317781 
L 204.184072 162.448037 
L 204.695388 153.627518 
L 205.718021 164.757774 
L 206.229337 155.937254 
L 206.740653 161.502382 
L 207.25197 152.681863 
L 208.274602 163.812119 
L 208.785919 154.9916 
L 209.297235 160.556728 
L 209.808551 151.736208 
L 210.319867 157.301336 
L 210.831184 148.480817 
L 211.3425 154.045945 
L 211.853816 145.225426 
L 212.365133 150.790554 
L 212.876449 141.970035 
L 213.387765 147.535163 
L 213.899081 138.714644 
L 215.43303 155.410028 
L 215.944347 146.589508 
L 216.455663 152.154636 
L 216.966979 143.334117 
L 217.478295 148.899245 
L 217.989612 140.078726 
L 218.500928 145.643854 
L 219.012244 136.823335 
L 219.523561 142.388463 
L 220.034877 133.567943 
L 220.546193 139.133072 
L 221.057509 130.312552 
L 221.568826 135.87768 
L 222.080142 127.057161 
L 222.591458 132.622289 
L 223.102775 123.80177 
L 223.614091 129.366898 
L 224.125407 120.546379 
L 225.14804 131.676635 
L 225.659356 122.856115 
L 227.704621 145.116628 
L 228.215937 136.296108 
L 230.772519 164.121748 
L 231.283835 155.301229 
L 232.817784 171.996613 
L 233.3291 163.176094 
L 233.840417 168.741222 
L 234.351733 159.920702 
L 234.863049 165.48583 
L 235.374366 156.665311 
L 235.885682 162.230439 
L 236.396998 153.40992 
L 236.908314 158.975048 
L 237.419631 150.154529 
L 237.930947 155.719657 
L 238.442263 146.899137 
L 239.464896 158.029393 
L 239.976212 149.208874 
L 240.487528 154.774002 
L 240.998845 145.953483 
L 241.510161 151.518611 
L 242.021477 142.698092 
L 242.532794 148.26322 
L 243.04411 139.4427 
L 243.555426 145.007828 
L 244.066742 136.187309 
L 244.578059 141.752437 
L 245.089375 132.931918 
L 246.623324 149.627302 
L 247.13464 140.806783 
L 248.157273 151.937039 
L 248.668589 143.11652 
L 249.179905 148.681648 
L 249.691222 139.861128 
L 250.202538 145.426256 
L 250.713854 136.605737 
L 252.759119 158.866249 
L 253.270436 150.04573 
L 254.804384 166.741114 
L 255.315701 157.920595 
L 256.338333 169.050851 
L 256.84965 160.230331 
L 257.872282 171.360587 
L 258.383598 162.540068 
L 258.894915 168.105196 
L 259.406231 159.284677 
L 260.428864 170.414933 
L 260.94018 161.594413 
L 261.962812 172.724669 
L 262.474129 163.90415 
L 263.496761 175.034406 
L 264.008078 166.213886 
L 264.519394 171.779014 
L 265.03071 162.958495 
L 265.542027 168.523623 
L 266.053343 159.703104 
L 266.564659 165.268232 
L 267.075975 156.447712 
L 268.609924 173.143096 
L 269.121241 164.322577 
L 269.632557 169.887705 
L 270.143873 161.067186 
L 271.166506 172.197442 
L 271.677822 163.376922 
L 272.700455 174.507178 
L 273.211771 165.686659 
L 273.723087 171.251787 
L 274.234403 162.431267 
L 275.257036 173.561523 
L 275.768352 164.741004 
L 277.302301 181.436388 
L 277.813617 172.615868 
L 278.83625 183.746124 
L 279.347566 174.925604 
L 279.858883 180.490732 
L 280.370199 171.670212 
L 282.415464 193.930724 
L 282.92678 185.110201 
L 283.438097 190.675329 
L 283.949413 181.854808 
L 284.460729 187.419936 
L 284.972045 178.599415 
L 285.994678 189.729671 
L 286.505994 180.90915 
L 288.039943 197.604534 
L 288.551259 188.784009 
L 289.573892 199.914265 
L 290.085208 191.093739 
L 291.107841 202.223995 
L 291.619157 193.403466 
L 292.130473 198.968594 
L 292.64179 190.148069 
L 293.664422 201.278325 
L 294.175739 192.457797 
L 294.687055 198.022925 
L 295.198371 189.2024 
L 295.709687 194.767528 
L 296.221004 185.947005 
L 296.73232 191.512133 
L 297.243636 182.691611 
L 297.754953 188.256739 
L 298.266269 179.436218 
L 298.777585 185.001346 
L 299.288902 176.180826 
L 299.800218 181.745954 
L 300.311534 172.925434 
L 300.82285 178.490562 
L 301.334167 169.670042 
L 302.356799 180.800298 
L 302.868116 171.979778 
L 303.379432 177.544906 
L 303.890748 168.724387 
L 305.424697 185.419771 
L 305.936013 176.59925 
L 306.44733 182.164378 
L 306.958646 173.343858 
L 307.981278 184.474114 
L 308.492595 175.653594 
L 310.026544 192.348978 
L 310.53786 183.528456 
L 311.049176 189.093584 
L 311.560492 180.273063 
L 312.071809 185.838191 
L 312.583125 177.017671 
L 313.094441 182.582799 
L 313.605758 173.762279 
L 317.184972 212.718175 
L 317.696288 203.89762 
L 318.207604 209.462748 
L 318.71892 200.642205 
L 319.230237 206.207333 
L 319.741553 197.386798 
L 320.252869 202.951926 
L 320.764186 194.131396 
L 321.786818 205.261652 
L 322.298134 196.441119 
L 323.320767 207.571375 
L 323.832083 198.750837 
L 324.3434 204.315965 
L 324.854716 195.495434 
L 325.366032 201.060562 
L 325.877348 192.240034 
L 326.388665 197.805162 
L 326.899981 188.984637 
L 327.411297 194.549765 
L 327.922614 185.729242 
L 328.43393 191.29437 
L 328.945246 182.473849 
L 329.456562 188.038977 
L 329.967879 179.218456 
L 330.990511 190.348712 
L 331.501828 181.528191 
L 332.013144 187.093319 
L 332.52446 178.272798 
L 333.035777 183.837926 
L 333.547093 175.017406 
L 334.058409 180.582534 
L 334.569725 171.762014 
L 335.081042 177.327142 
L 335.592358 168.506622 
L 336.103674 174.07175 
L 336.614991 165.251231 
L 338.148939 181.946615 
L 338.660256 173.126095 
L 339.682888 184.256351 
L 340.194205 175.435831 
L 341.216837 186.566087 
L 341.728153 177.745566 
L 342.23947 183.310694 
L 342.750786 174.490174 
L 343.262102 180.055302 
L 343.773419 171.234782 
L 344.284735 176.79991 
L 344.796051 167.979391 
L 345.307367 173.544519 
L 345.818684 164.723999 
L 346.841316 175.854255 
L 347.352633 167.033735 
L 347.863949 172.598864 
L 348.375265 163.778344 
L 348.886581 169.343472 
L 349.397898 160.522953 
L 351.954479 188.348593 
L 352.465795 179.528072 
L 353.488428 190.658328 
L 353.999744 181.837806 
L 355.022377 192.968062 
L 355.533693 184.14754 
L 356.556326 195.277796 
L 357.067642 186.457273 
L 358.601591 203.152657 
L 359.112907 194.332127 
L 360.646856 211.027511 
L 361.158172 202.206963 
L 361.669489 207.772091 
L 362.180805 198.951553 
L 364.737386 226.777193 
L 365.248703 217.956469 
L 366.271335 229.086725 
L 366.782652 220.265933 
L 368.3166 236.961317 
L 368.827917 228.14007 
L 370.361866 244.835454 
L 370.873182 236.012994 
L 371.384498 241.578122 
L 371.895814 232.756309 
L 374.963712 266.147078 
L 375.475028 257.299015 
L 376.497661 268.429271 
L 377.008977 259.572175 
L 378.03161 270.702431 
L 378.542926 261.833399 
L 379.054242 267.398527 
L 379.565559 258.545828 
L 380.076875 264.110956 
L 380.588191 255.269055 
L 382.12214 271.964439 
L 382.633456 263.087179 
L 383.144773 268.652307 
L 383.656089 259.794183 
L 384.167405 265.359311 
L 384.678722 256.513819 
L 385.190038 262.078947 
L 385.701354 253.241822 
L 386.723987 264.372078 
L 387.235303 255.529471 
L 388.257936 266.659727 
L 388.769252 257.809852 
L 389.280568 263.37498 
L 389.791884 254.53495 
L 390.814517 265.665206 
L 391.325833 256.818746 
L 391.83715 262.383874 
L 392.348466 253.546107 
L 392.859782 259.111235 
L 393.371098 250.279238 
L 394.393731 261.409494 
L 394.905047 252.573696 
L 395.416364 258.138824 
L 395.92768 249.308135 
L 396.438996 254.873264 
L 396.950312 246.045972 
L 397.461629 251.6111 
L 397.972945 242.786069 
L 398.995578 253.916325 
L 399.506894 245.089794 
L 401.040843 261.785178 
L 401.552159 252.948649 
L 402.063475 258.513777 
L 402.574792 249.682603 
L 403.086108 255.247731 
L 403.597424 246.420116 
L 404.620057 257.550372 
L 405.131373 248.720401 
L 405.642689 254.285529 
L 406.154006 245.458715 
L 407.176638 256.588971 
L 407.687955 247.760067 
L 408.199271 253.325195 
L 408.710587 244.499091 
L 409.221903 250.064219 
L 409.73322 241.239978 
L 410.244536 246.805106 
L 410.755852 237.982107 
L 411.267169 243.547235 
L 411.778485 234.725063 
L 412.289801 240.290191 
L 412.801117 231.46857 
L 414.335066 248.163954 
L 414.846383 239.340498 
L 415.357699 244.905626 
L 415.869015 236.083149 
L 416.380331 241.648277 
L 416.891648 232.826453 
L 417.402964 238.391581 
L 417.91428 229.570192 
L 419.959545 251.830704 
L 420.470862 243.005548 
L 421.493494 254.135804 
L 422.004811 245.309106 
L 423.027443 256.439363 
L 423.538759 247.610613 
L 425.584025 269.871125 
L 426.095341 261.006852 
L 427.62929 277.702236 
L 428.140606 268.766193 
L 428.651922 274.331321 
L 429.163239 265.434699 
L 429.674555 270.999827 
L 430.185871 262.12897 
L 432.742453 289.95461 
L 433.253769 280.615925 
L 435.299034 302.876437 
L 435.299034 302.876437 
" style="fill:none;stroke:#ff7f0e;stroke-linecap:square;stroke-width:0.666667;"/>
   </g>
   <g id="patch_3">
    <path d="M 35.85875 316.4425 
L 35.85875 17.989125 
" style="fill:none;stroke:#000000;stroke-linecap:square;stroke-linejoin:miter;stroke-width:0.8;"/>
   </g>
   <g id="patch_4">
    <path d="M 454.32 316.4425 
L 454.32 17.989125 
" style="fill:none;stroke:#000000;stroke-linecap:square;stroke-linejoin:miter;stroke-width:0.8;"/>
   </g>
   <g id="patch_5">
    <path d="M 35.85875 316.4425 
L 454.32 316.4425 
" style="fill:none;stroke:#000000;stroke-linecap:square;stroke-linejoin:miter;stroke-width:0.8;"/>
   </g>
   <g id="patch_6">
    <path d="M 35.85875 17.989125 
L 454.32 17.989125 
" style="fill:none;stroke:#000000;stroke-linecap:square;stroke-linejoin:miter;stroke-width:0.8;"/>
   </g>
   <g id="text_19">
    <!-- "3y+1" problem -->
    <g transform="translate(214.747 11.989125)scale(0.072 -0.072)">
     <defs>
      <path d="M 43.703125 72.90625 
L 43.703125 45.796875 
L 35.203125 45.796875 
L 35.203125 72.90625 
z
M 25 72.90625 
L 25 45.796875 
L 16.5 45.796875 
L 16.5 72.90625 
z
" id="DejaVuSansMono-34"/>
      <path d="M 34.1875 57.171875 
L 34.1875 35.5 
L 55.90625 35.5 
L 55.90625 27.203125 
L 34.1875 27.203125 
L 34.1875 5.515625 
L 25.984375 5.515625 
L 25.984375 27.203125 
L 4.296875 27.203125 
L 4.296875 35.5 
L 25.984375 35.5 
L 25.984375 57.171875 
z
" id="DejaVuSansMono-43"/>
      <path id="DejaVuSansMono-32"/>
      <path d="M 18.3125 6.890625 
L 18.3125 -20.796875 
L 9.28125 -20.796875 
L 9.28125 54.6875 
L 18.3125 54.6875 
L 18.3125 47.703125 
Q 20.5625 51.765625 24.296875 53.875 
Q 28.03125 56 32.90625 56 
Q 42.828125 56 48.46875 48.328125 
Q 54.109375 40.671875 54.109375 27.09375 
Q 54.109375 13.765625 48.4375 6.171875 
Q 42.78125 -1.421875 32.90625 -1.421875 
Q 27.9375 -1.421875 24.1875 0.703125 
Q 20.453125 2.828125 18.3125 6.890625 
z
M 44.671875 27.296875 
Q 44.671875 37.75 41.375 43.0625 
Q 38.09375 48.390625 31.59375 48.390625 
Q 25.046875 48.390625 21.671875 43.046875 
Q 18.3125 37.703125 18.3125 27.296875 
Q 18.3125 16.9375 21.671875 11.5625 
Q 25.046875 6.203125 31.59375 6.203125 
Q 38.09375 6.203125 41.375 11.515625 
Q 44.671875 16.84375 44.671875 27.296875 
z
" id="DejaVuSansMono-112"/>
      <path d="M 56.390625 43.40625 
Q 53.515625 45.65625 50.53125 46.671875 
Q 47.5625 47.703125 44 47.703125 
Q 35.59375 47.703125 31.140625 42.421875 
Q 26.703125 37.15625 26.703125 27.203125 
L 26.703125 0 
L 17.671875 0 
L 17.671875 54.6875 
L 26.703125 54.6875 
L 26.703125 44 
Q 28.953125 49.8125 33.609375 52.90625 
Q 38.28125 56 44.671875 56 
Q 48 56 50.875 55.171875 
Q 53.765625 54.34375 56.390625 52.59375 
z
" id="DejaVuSansMono-114"/>
      <path d="M 30.078125 48.390625 
Q 23.25 48.390625 19.734375 43.0625 
Q 16.21875 37.75 16.21875 27.296875 
Q 16.21875 16.890625 19.734375 11.546875 
Q 23.25 6.203125 30.078125 6.203125 
Q 36.96875 6.203125 40.484375 11.546875 
Q 44 16.890625 44 27.296875 
Q 44 37.75 40.484375 43.0625 
Q 36.96875 48.390625 30.078125 48.390625 
z
M 30.078125 56 
Q 41.453125 56 47.484375 48.625 
Q 53.515625 41.265625 53.515625 27.296875 
Q 53.515625 13.28125 47.5 5.921875 
Q 41.5 -1.421875 30.078125 -1.421875 
Q 18.703125 -1.421875 12.6875 5.921875 
Q 6.6875 13.28125 6.6875 27.296875 
Q 6.6875 41.265625 12.6875 48.625 
Q 18.703125 56 30.078125 56 
z
" id="DejaVuSansMono-111"/>
      <path d="M 44.828125 27.296875 
Q 44.828125 37.75 41.5 43.0625 
Q 38.1875 48.390625 31.6875 48.390625 
Q 25.140625 48.390625 21.765625 43.046875 
Q 18.40625 37.703125 18.40625 27.296875 
Q 18.40625 16.9375 21.765625 11.5625 
Q 25.140625 6.203125 31.6875 6.203125 
Q 38.1875 6.203125 41.5 11.515625 
Q 44.828125 16.84375 44.828125 27.296875 
z
M 18.40625 47.703125 
Q 20.5625 51.703125 24.34375 53.84375 
Q 28.125 56 33.109375 56 
Q 42.96875 56 48.625 48.40625 
Q 54.296875 40.828125 54.296875 27.484375 
Q 54.296875 13.96875 48.609375 6.265625 
Q 42.921875 -1.421875 33.015625 -1.421875 
Q 28.125 -1.421875 24.390625 0.703125 
Q 20.65625 2.828125 18.40625 6.890625 
L 18.40625 0 
L 9.421875 0 
L 9.421875 75.984375 
L 18.40625 75.984375 
z
" id="DejaVuSansMono-98"/>
      <path d="M 31.203125 19.828125 
Q 31.203125 13.765625 33.421875 10.6875 
Q 35.640625 7.625 39.984375 7.625 
L 50.484375 7.625 
L 50.484375 0 
L 39.109375 0 
Q 31.0625 0 26.640625 5.171875 
Q 22.21875 10.359375 22.21875 19.828125 
L 22.21875 69.484375 
L 7.8125 69.484375 
L 7.8125 76.515625 
L 31.203125 76.515625 
z
" id="DejaVuSansMono-108"/>
      <path d="M 54.296875 29.59375 
L 54.296875 25.203125 
L 15.375 25.203125 
L 15.375 24.90625 
Q 15.375 15.96875 20.03125 11.078125 
Q 24.703125 6.203125 33.203125 6.203125 
Q 37.5 6.203125 42.1875 7.5625 
Q 46.875 8.9375 52.203125 11.71875 
L 52.203125 2.78125 
Q 47.078125 0.6875 42.3125 -0.359375 
Q 37.546875 -1.421875 33.109375 -1.421875 
Q 20.359375 -1.421875 13.171875 6.21875 
Q 6 13.875 6 27.296875 
Q 6 40.375 13.03125 48.1875 
Q 20.0625 56 31.78125 56 
Q 42.234375 56 48.265625 48.921875 
Q 54.296875 41.84375 54.296875 29.59375 
z
M 45.3125 32.234375 
Q 45.125 40.140625 41.578125 44.265625 
Q 38.03125 48.390625 31.390625 48.390625 
Q 24.90625 48.390625 20.703125 44.09375 
Q 16.5 39.796875 15.71875 32.171875 
z
" id="DejaVuSansMono-101"/>
      <path d="M 33.015625 49.125 
Q 34.671875 52.640625 37.234375 54.3125 
Q 39.796875 56 43.40625 56 
Q 50 56 52.703125 50.890625 
Q 55.421875 45.796875 55.421875 31.6875 
L 55.421875 0 
L 47.21875 0 
L 47.21875 31.296875 
Q 47.21875 42.875 45.921875 45.671875 
Q 44.625 48.484375 41.21875 48.484375 
Q 37.3125 48.484375 35.859375 45.484375 
Q 34.421875 42.484375 34.421875 31.296875 
L 34.421875 0 
L 26.21875 0 
L 26.21875 31.296875 
Q 26.21875 43.015625 24.828125 45.75 
Q 23.4375 48.484375 19.828125 48.484375 
Q 16.265625 48.484375 14.875 45.484375 
Q 13.484375 42.484375 13.484375 31.296875 
L 13.484375 0 
L 5.328125 0 
L 5.328125 54.6875 
L 13.484375 54.6875 
L 13.484375 50 
Q 15.09375 52.9375 17.5 54.46875 
Q 19.921875 56 23 56 
Q 26.703125 56 29.171875 54.296875 
Q 31.640625 52.59375 33.015625 49.125 
z
" id="DejaVuSansMono-109"/>
     </defs>
     <use xlink:href="#DejaVuSansMono-34"/>
     <use x="60.205078" xlink:href="#DejaVuSansMono-51"/>
     <use x="120.410156" xlink:href="#DejaVuSansMono-121"/>
     <use x="180.615234" xlink:href="#DejaVuSansMono-43"/>
     <use x="240.820312" xlink:href="#DejaVuSansMono-49"/>
     <use x="301.025391" xlink:href="#DejaVuSansMono-34"/>
     <use x="361.230469" xlink:href="#DejaVuSansMono-32"/>
     <use x="421.435547" xlink:href="#DejaVuSansMono-112"/>
     <use x="481.640625" xlink:href="#DejaVuSansMono-114"/>
     <use x="541.845703" xlink:href="#DejaVuSansMono-111"/>
     <use x="602.050781" xlink:href="#DejaVuSansMono-98"/>
     <use x="662.255859" xlink:href="#DejaVuSansMono-108"/>
     <use x="722.460938" xlink:href="#DejaVuSansMono-101"/>
     <use x="782.666016" xlink:href="#DejaVuSansMono-109"/>
    </g>
   </g>
   <g id="legend_1">
    <g id="patch_7">
     <path d="M 344.2275 82.0095 
L 450.12 82.0095 
Q 451.32 82.0095 451.32 80.8095 
L 451.32 22.189125 
Q 451.32 20.989125 450.12 20.989125 
L 344.2275 20.989125 
Q 343.0275 20.989125 343.0275 22.189125 
L 343.0275 80.8095 
Q 343.0275 82.0095 344.2275 82.0095 
z
" style="fill:#ffffff;opacity:0.8;stroke:#cccccc;stroke-linejoin:miter;"/>
    </g>
    <g id="line2d_19">
     <path d="M 345.4275 36.889687 
L 357.4275 36.889687 
" style="fill:none;stroke:#1f77b4;stroke-linecap:square;stroke-width:0.666667;"/>
    </g>
    <g id="line2d_20"/>
    <g id="text_20">
     <!-- "Tallest": -->
     <g transform="translate(362.2275 27.980062)scale(0.06 -0.06)">
      <defs>
       <path d="M 2.296875 72.90625 
L 57.90625 72.90625 
L 57.90625 64.59375 
L 35.109375 64.59375 
L 35.109375 0 
L 25.203125 0 
L 25.203125 64.59375 
L 2.296875 64.59375 
z
" id="DejaVuSansMono-84"/>
       <path d="M 34.28125 27.484375 
L 31.296875 27.484375 
Q 23.4375 27.484375 19.453125 24.71875 
Q 15.484375 21.96875 15.484375 16.5 
Q 15.484375 11.578125 18.453125 8.84375 
Q 21.4375 6.109375 26.703125 6.109375 
Q 34.125 6.109375 38.375 11.25 
Q 42.625 16.40625 42.671875 25.484375 
L 42.671875 27.484375 
z
M 51.703125 31.203125 
L 51.703125 0 
L 42.671875 0 
L 42.671875 8.109375 
Q 39.796875 3.21875 35.421875 0.890625 
Q 31.0625 -1.421875 24.8125 -1.421875 
Q 16.453125 -1.421875 11.46875 3.296875 
Q 6.5 8.015625 6.5 15.921875 
Q 6.5 25.046875 12.625 29.78125 
Q 18.75 34.515625 30.609375 34.515625 
L 42.671875 34.515625 
L 42.671875 35.9375 
Q 42.625 42.484375 39.34375 45.4375 
Q 36.078125 48.390625 28.90625 48.390625 
Q 24.3125 48.390625 19.625 47.0625 
Q 14.9375 45.75 10.5 43.21875 
L 10.5 52.203125 
Q 15.484375 54.109375 20.046875 55.046875 
Q 24.609375 56 28.90625 56 
Q 35.6875 56 40.5 54 
Q 45.3125 52 48.296875 48 
Q 50.140625 45.5625 50.921875 41.96875 
Q 51.703125 38.375 51.703125 31.203125 
z
" id="DejaVuSansMono-97"/>
       <path d="M 47.515625 52.78125 
L 47.515625 44 
Q 43.65625 46.234375 39.75 47.359375 
Q 35.84375 48.484375 31.78125 48.484375 
Q 25.6875 48.484375 22.671875 46.5 
Q 19.671875 44.53125 19.671875 40.484375 
Q 19.671875 36.8125 21.921875 35 
Q 24.171875 33.203125 33.109375 31.5 
L 36.71875 30.8125 
Q 43.40625 29.546875 46.84375 25.734375 
Q 50.296875 21.921875 50.296875 15.828125 
Q 50.296875 7.71875 44.53125 3.140625 
Q 38.765625 -1.421875 28.515625 -1.421875 
Q 24.46875 -1.421875 20.015625 -0.5625 
Q 15.578125 0.296875 10.40625 2 
L 10.40625 11.28125 
Q 15.4375 8.6875 20.015625 7.390625 
Q 24.609375 6.109375 28.71875 6.109375 
Q 34.671875 6.109375 37.9375 8.515625 
Q 41.21875 10.9375 41.21875 15.28125 
Q 41.21875 21.53125 29.25 23.921875 
L 28.859375 24.03125 
L 25.484375 24.703125 
Q 17.71875 26.21875 14.15625 29.8125 
Q 10.59375 33.40625 10.59375 39.59375 
Q 10.59375 47.46875 15.90625 51.734375 
Q 21.234375 56 31.109375 56 
Q 35.5 56 39.546875 55.1875 
Q 43.609375 54.390625 47.515625 52.78125 
z
" id="DejaVuSansMono-115"/>
       <path d="M 29.984375 70.21875 
L 29.984375 54.6875 
L 50.390625 54.6875 
L 50.390625 47.703125 
L 29.984375 47.703125 
L 29.984375 18.015625 
Q 29.984375 11.96875 32.28125 9.5625 
Q 34.578125 7.171875 40.28125 7.171875 
L 50.390625 7.171875 
L 50.390625 0 
L 39.40625 0 
Q 29.296875 0 25.140625 4.046875 
Q 21 8.109375 21 18.015625 
L 21 47.703125 
L 6.390625 47.703125 
L 6.390625 54.6875 
L 21 54.6875 
L 21 70.21875 
z
" id="DejaVuSansMono-116"/>
       <path d="M 23.875 51.90625 
L 36.1875 51.90625 
L 36.1875 37.109375 
L 23.875 37.109375 
z
M 23.875 14.890625 
L 36.1875 14.890625 
L 36.1875 0 
L 23.875 0 
z
" id="DejaVuSansMono-58"/>
      </defs>
      <use xlink:href="#DejaVuSansMono-34"/>
      <use x="60.205078" xlink:href="#DejaVuSansMono-84"/>
      <use x="120.410156" xlink:href="#DejaVuSansMono-97"/>
      <use x="180.615234" xlink:href="#DejaVuSansMono-108"/>
      <use x="240.820312" xlink:href="#DejaVuSansMono-108"/>
      <use x="301.025391" xlink:href="#DejaVuSansMono-101"/>
      <use x="361.230469" xlink:href="#DejaVuSansMono-115"/>
      <use x="421.435547" xlink:href="#DejaVuSansMono-116"/>
      <use x="481.640625" xlink:href="#DejaVuSansMono-34"/>
      <use x="541.845703" xlink:href="#DejaVuSansMono-58"/>
     </g>
     <!-- y_0    = 38595583 -->
     <g transform="translate(362.2275 34.737)scale(0.06 -0.06)">
      <defs>
       <path d="M 4.296875 25.59375 
L 55.90625 25.59375 
L 55.90625 17.1875 
L 4.296875 17.1875 
z
M 4.296875 45.40625 
L 55.90625 45.40625 
L 55.90625 37.109375 
L 4.296875 37.109375 
z
" id="DejaVuSansMono-61"/>
       <path d="M 30.078125 34.625 
Q 23.484375 34.625 19.890625 30.9375 
Q 16.3125 27.25 16.3125 20.515625 
Q 16.3125 13.765625 19.9375 10.03125 
Q 23.578125 6.296875 30.078125 6.296875 
Q 36.71875 6.296875 40.296875 9.984375 
Q 43.890625 13.671875 43.890625 20.515625 
Q 43.890625 27.203125 40.25 30.90625 
Q 36.625 34.625 30.078125 34.625 
z
M 21.484375 38.71875 
Q 15.1875 40.328125 11.640625 44.71875 
Q 8.109375 49.125 8.109375 55.328125 
Q 8.109375 64.015625 14.015625 69.109375 
Q 19.921875 74.21875 30.078125 74.21875 
Q 40.28125 74.21875 46.1875 69.109375 
Q 52.09375 64.015625 52.09375 55.328125 
Q 52.09375 49.125 48.546875 44.71875 
Q 45.015625 40.328125 38.71875 38.71875 
Q 46.046875 37.109375 49.921875 32.21875 
Q 53.8125 27.34375 53.8125 19.578125 
Q 53.8125 9.71875 47.515625 4.140625 
Q 41.21875 -1.421875 30.078125 -1.421875 
Q 18.953125 -1.421875 12.671875 4.125 
Q 6.390625 9.671875 6.390625 19.484375 
Q 6.390625 27.296875 10.265625 32.203125 
Q 14.15625 37.109375 21.484375 38.71875 
z
M 17.921875 54.390625 
Q 17.921875 48.53125 21.046875 45.453125 
Q 24.171875 42.390625 30.078125 42.390625 
Q 36.03125 42.390625 39.15625 45.453125 
Q 42.28125 48.53125 42.28125 54.390625 
Q 42.28125 60.359375 39.171875 63.484375 
Q 36.078125 66.609375 30.078125 66.609375 
Q 24.171875 66.609375 21.046875 63.453125 
Q 17.921875 60.296875 17.921875 54.390625 
z
" id="DejaVuSansMono-56"/>
      </defs>
      <use xlink:href="#DejaVuSansMono-121"/>
      <use x="60.205078" xlink:href="#DejaVuSansMono-95"/>
      <use x="120.410156" xlink:href="#DejaVuSansMono-48"/>
      <use x="180.615234" xlink:href="#DejaVuSansMono-32"/>
      <use x="240.820312" xlink:href="#DejaVuSansMono-32"/>
      <use x="301.025391" xlink:href="#DejaVuSansMono-32"/>
      <use x="361.230469" xlink:href="#DejaVuSansMono-32"/>
      <use x="421.435547" xlink:href="#DejaVuSansMono-61"/>
      <use x="481.640625" xlink:href="#DejaVuSansMono-32"/>
      <use x="541.845703" xlink:href="#DejaVuSansMono-51"/>
      <use x="602.050781" xlink:href="#DejaVuSansMono-56"/>
      <use x="662.255859" xlink:href="#DejaVuSansMono-53"/>
      <use x="722.460938" xlink:href="#DejaVuSansMono-57"/>
      <use x="782.666016" xlink:href="#DejaVuSansMono-53"/>
      <use x="842.871094" xlink:href="#DejaVuSansMono-53"/>
      <use x="903.076172" xlink:href="#DejaVuSansMono-56"/>
      <use x="963.28125" xlink:href="#DejaVuSansMono-51"/>
     </g>
     <!-- y_max  = 474637698851092 -->
     <g transform="translate(362.2275 41.660812)scale(0.06 -0.06)">
      <defs>
       <path d="M 54.59375 54.6875 
L 35.015625 28.515625 
L 56.5 0 
L 46.09375 0 
L 30.078125 21.921875 
L 14.109375 0 
L 3.71875 0 
L 25.203125 28.515625 
L 5.609375 54.6875 
L 15.578125 54.6875 
L 30.078125 34.90625 
L 44.484375 54.6875 
z
" id="DejaVuSansMono-120"/>
      </defs>
      <use xlink:href="#DejaVuSansMono-121"/>
      <use x="60.205078" xlink:href="#DejaVuSansMono-95"/>
      <use x="120.410156" xlink:href="#DejaVuSansMono-109"/>
      <use x="180.615234" xlink:href="#DejaVuSansMono-97"/>
      <use x="240.820312" xlink:href="#DejaVuSansMono-120"/>
      <use x="301.025391" xlink:href="#DejaVuSansMono-32"/>
      <use x="361.230469" xlink:href="#DejaVuSansMono-32"/>
      <use x="421.435547" xlink:href="#DejaVuSansMono-61"/>
      <use x="481.640625" xlink:href="#DejaVuSansMono-32"/>
      <use x="541.845703" xlink:href="#DejaVuSansMono-52"/>
      <use x="602.050781" xlink:href="#DejaVuSansMono-55"/>
      <use x="662.255859" xlink:href="#DejaVuSansMono-52"/>
      <use x="722.460938" xlink:href="#DejaVuSansMono-54"/>
      <use x="782.666016" xlink:href="#DejaVuSansMono-51"/>
      <use x="842.871094" xlink:href="#DejaVuSansMono-55"/>
      <use x="903.076172" xlink:href="#DejaVuSansMono-54"/>
      <use x="963.28125" xlink:href="#DejaVuSansMono-57"/>
      <use x="1023.486328" xlink:href="#DejaVuSansMono-56"/>
      <use x="1083.691406" xlink:href="#DejaVuSansMono-56"/>
      <use x="1143.896484" xlink:href="#DejaVuSansMono-53"/>
      <use x="1204.101562" xlink:href="#DejaVuSansMono-49"/>
      <use x="1264.306641" xlink:href="#DejaVuSansMono-48"/>
      <use x="1324.511719" xlink:href="#DejaVuSansMono-57"/>
      <use x="1384.716797" xlink:href="#DejaVuSansMono-50"/>
     </g>
     <!-- x_max  = 484 -->
     <g transform="translate(362.2275 48.584625)scale(0.06 -0.06)">
      <use xlink:href="#DejaVuSansMono-120"/>
      <use x="60.205078" xlink:href="#DejaVuSansMono-95"/>
      <use x="120.410156" xlink:href="#DejaVuSansMono-109"/>
      <use x="180.615234" xlink:href="#DejaVuSansMono-97"/>
      <use x="240.820312" xlink:href="#DejaVuSansMono-120"/>
      <use x="301.025391" xlink:href="#DejaVuSansMono-32"/>
      <use x="361.230469" xlink:href="#DejaVuSansMono-32"/>
      <use x="421.435547" xlink:href="#DejaVuSansMono-61"/>
      <use x="481.640625" xlink:href="#DejaVuSansMono-32"/>
      <use x="541.845703" xlink:href="#DejaVuSansMono-52"/>
      <use x="602.050781" xlink:href="#DejaVuSansMono-56"/>
      <use x="662.255859" xlink:href="#DejaVuSansMono-52"/>
     </g>
    </g>
    <g id="line2d_21">
     <path d="M 345.4275 66.499875 
L 357.4275 66.499875 
" style="fill:none;stroke:#ff7f0e;stroke-linecap:square;stroke-width:0.666667;"/>
    </g>
    <g id="line2d_22"/>
    <g id="text_21">
     <!-- "Widest":  -->
     <g transform="translate(362.2275 57.59025)scale(0.06 -0.06)">
      <defs>
       <path d="M 0 72.90625 
L 9.625 72.90625 
L 16.609375 13.71875 
L 24.90625 52.875 
L 35.203125 52.875 
L 43.609375 13.625 
L 50.59375 72.90625 
L 60.203125 72.90625 
L 49.3125 0 
L 39.984375 0 
L 30.078125 43.3125 
L 20.21875 0 
L 10.890625 0 
z
" id="DejaVuSansMono-87"/>
       <path d="M 12.5 54.6875 
L 35.5 54.6875 
L 35.5 6.984375 
L 53.328125 6.984375 
L 53.328125 0 
L 8.6875 0 
L 8.6875 6.984375 
L 26.515625 6.984375 
L 26.515625 47.703125 
L 12.5 47.703125 
z
M 26.515625 75.984375 
L 35.5 75.984375 
L 35.5 64.59375 
L 26.515625 64.59375 
z
" id="DejaVuSansMono-105"/>
       <path d="M 41.890625 47.703125 
L 41.890625 75.984375 
L 50.875 75.984375 
L 50.875 0 
L 41.890625 0 
L 41.890625 6.890625 
Q 39.65625 2.828125 35.90625 0.703125 
Q 32.171875 -1.421875 27.296875 -1.421875 
Q 17.390625 -1.421875 11.6875 6.265625 
Q 6 13.96875 6 27.484375 
Q 6 40.828125 11.71875 48.40625 
Q 17.4375 56 27.296875 56 
Q 32.234375 56 35.984375 53.875 
Q 39.75 51.765625 41.890625 47.703125 
z
M 15.484375 27.296875 
Q 15.484375 16.84375 18.796875 11.515625 
Q 22.125 6.203125 28.609375 6.203125 
Q 35.109375 6.203125 38.5 11.5625 
Q 41.890625 16.9375 41.890625 27.296875 
Q 41.890625 37.703125 38.5 43.046875 
Q 35.109375 48.390625 28.609375 48.390625 
Q 22.125 48.390625 18.796875 43.0625 
Q 15.484375 37.75 15.484375 27.296875 
z
" id="DejaVuSansMono-100"/>
      </defs>
      <use xlink:href="#DejaVuSansMono-34"/>
      <use x="60.205078" xlink:href="#DejaVuSansMono-87"/>
      <use x="120.410156" xlink:href="#DejaVuSansMono-105"/>
      <use x="180.615234" xlink:href="#DejaVuSansMono-100"/>
      <use x="240.820312" xlink:href="#DejaVuSansMono-101"/>
      <use x="301.025391" xlink:href="#DejaVuSansMono-115"/>
      <use x="361.230469" xlink:href="#DejaVuSansMono-116"/>
      <use x="421.435547" xlink:href="#DejaVuSansMono-34"/>
      <use x="481.640625" xlink:href="#DejaVuSansMono-58"/>
      <use x="541.845703" xlink:href="#DejaVuSansMono-32"/>
     </g>
     <!-- y_0    = 36791535 -->
     <g transform="translate(362.2275 64.347187)scale(0.06 -0.06)">
      <use xlink:href="#DejaVuSansMono-121"/>
      <use x="60.205078" xlink:href="#DejaVuSansMono-95"/>
      <use x="120.410156" xlink:href="#DejaVuSansMono-48"/>
      <use x="180.615234" xlink:href="#DejaVuSansMono-32"/>
      <use x="240.820312" xlink:href="#DejaVuSansMono-32"/>
      <use x="301.025391" xlink:href="#DejaVuSansMono-32"/>
      <use x="361.230469" xlink:href="#DejaVuSansMono-32"/>
      <use x="421.435547" xlink:href="#DejaVuSansMono-61"/>
      <use x="481.640625" xlink:href="#DejaVuSansMono-32"/>
      <use x="541.845703" xlink:href="#DejaVuSansMono-51"/>
      <use x="602.050781" xlink:href="#DejaVuSansMono-54"/>
      <use x="662.255859" xlink:href="#DejaVuSansMono-55"/>
      <use x="722.460938" xlink:href="#DejaVuSansMono-57"/>
      <use x="782.666016" xlink:href="#DejaVuSansMono-49"/>
      <use x="842.871094" xlink:href="#DejaVuSansMono-53"/>
      <use x="903.076172" xlink:href="#DejaVuSansMono-51"/>
      <use x="963.28125" xlink:href="#DejaVuSansMono-53"/>
     </g>
     <!-- y_max  = 159424614880 -->
     <g transform="translate(362.2275 71.271)scale(0.06 -0.06)">
      <use xlink:href="#DejaVuSansMono-121"/>
      <use x="60.205078" xlink:href="#DejaVuSansMono-95"/>
      <use x="120.410156" xlink:href="#DejaVuSansMono-109"/>
      <use x="180.615234" xlink:href="#DejaVuSansMono-97"/>
      <use x="240.820312" xlink:href="#DejaVuSansMono-120"/>
      <use x="301.025391" xlink:href="#DejaVuSansMono-32"/>
      <use x="361.230469" xlink:href="#DejaVuSansMono-32"/>
      <use x="421.435547" xlink:href="#DejaVuSansMono-61"/>
      <use x="481.640625" xlink:href="#DejaVuSansMono-32"/>
      <use x="541.845703" xlink:href="#DejaVuSansMono-49"/>
      <use x="602.050781" xlink:href="#DejaVuSansMono-53"/>
      <use x="662.255859" xlink:href="#DejaVuSansMono-57"/>
      <use x="722.460938" xlink:href="#DejaVuSansMono-52"/>
      <use x="782.666016" xlink:href="#DejaVuSansMono-50"/>
      <use x="842.871094" xlink:href="#DejaVuSansMono-52"/>
      <use x="903.076172" xlink:href="#DejaVuSansMono-54"/>
      <use x="963.28125" xlink:href="#DejaVuSansMono-49"/>
      <use x="1023.486328" xlink:href="#DejaVuSansMono-52"/>
      <use x="1083.691406" xlink:href="#DejaVuSansMono-56"/>
      <use x="1143.896484" xlink:href="#DejaVuSansMono-56"/>
      <use x="1204.101562" xlink:href="#DejaVuSansMono-48"/>
     </g>
     <!-- x_max  = 745 -->
     <g transform="translate(362.2275 78.194812)scale(0.06 -0.06)">
      <use xlink:href="#DejaVuSansMono-120"/>
      <use x="60.205078" xlink:href="#DejaVuSansMono-95"/>
      <use x="120.410156" xlink:href="#DejaVuSansMono-109"/>
      <use x="180.615234" xlink:href="#DejaVuSansMono-97"/>
      <use x="240.820312" xlink:href="#DejaVuSansMono-120"/>
      <use x="301.025391" xlink:href="#DejaVuSansMono-32"/>
      <use x="361.230469" xlink:href="#DejaVuSansMono-32"/>
      <use x="421.435547" xlink:href="#DejaVuSansMono-61"/>
      <use x="481.640625" xlink:href="#DejaVuSansMono-32"/>
      <use x="541.845703" xlink:href="#DejaVuSansMono-55"/>
      <use x="602.050781" xlink:href="#DejaVuSansMono-52"/>
      <use x="662.255859" xlink:href="#DejaVuSansMono-53"/>
     </g>
    </g>
   </g>
  </g>
 </g>
 <defs>
  <clipPath id="pc8c0e4095e">
   <rect height="298.453375" width="418.46125" x="35.85875" y="17.989125"/>
  </clipPath>
 </defs>
</svg>
