<?xml version="1.0" encoding="utf-8" standalone="no"?>
<!DOCTYPE svg PUBLIC "-//W3C//DTD SVG 1.1//EN"
  "http://www.w3.org/Graphics/SVG/1.1/DTD/svg11.dtd">
<!-- Created with matplotlib (https://matplotlib.org/) -->
<svg height="345.6pt" version="1.1" viewBox="0 0 460.8 345.6" width="460.8pt" xmlns="http://www.w3.org/2000/svg" xmlns:xlink="http://www.w3.org/1999/xlink">
 <metadata>
  <rdf:RDF xmlns:cc="http://creativecommons.org/ns#" xmlns:dc="http://purl.org/dc/elements/1.1/" xmlns:rdf="http://www.w3.org/1999/02/22-rdf-syntax-ns#">
   <cc:Work>
    <dc:type rdf:resource="http://purl.org/dc/dcmitype/StillImage"/>
    <dc:date>2022-03-17T00:27:25.072618</dc:date>
    <dc:format>image/svg+xml</dc:format>
    <dc:creator>
     <cc:Agent>
      <dc:title>Matplotlib v3.3.2, https://matplotlib.org/</dc:title>
     </cc:Agent>
    </dc:creator>
   </cc:Work>
  </rdf:RDF>
 </metadata>
 <defs>
  <style type="text/css">*{stroke-linecap:butt;stroke-linejoin:round;}</style>
 </defs>
 <g id="figure_1">
  <g id="patch_1">
   <path d="M 0 345.6 
L 460.8 345.6 
L 460.8 0 
L 0 0 
z
" style="fill:#ffffff;"/>
  </g>
  <g id="axes_1">
   <g id="patch_2">
    <path d="M 35.85875 316.4425 
L 454.32 316.4425 
L 454.32 17.989125 
L 35.85875 17.989125 
z
" style="fill:#ffffff;"/>
   </g>
   <g id="matplotlib.axis_1">
    <g id="xtick_1">
     <g id="line2d_1">
      <defs>
       <path d="M 0 0 
L 0 3.5 
" id="m8baf08319e" style="stroke:#000000;stroke-width:0.8;"/>
      </defs>
      <g>
       <use style="stroke:#000000;stroke-width:0.8;" x="54.879716" xlink:href="#m8baf08319e" y="316.4425"/>
      </g>
     </g>
     <g id="text_1">
      <!-- 0 -->
      <g transform="translate(53.073622 328.033437)scale(0.06 -0.06)">
       <defs>
        <path d="M 23.578125 36.625 
Q 23.578125 39.3125 25.453125 41.265625 
Q 27.34375 43.21875 29.984375 43.21875 
Q 32.71875 43.21875 34.671875 41.265625 
Q 36.625 39.3125 36.625 36.625 
Q 36.625 33.890625 34.6875 31.984375 
Q 32.765625 30.078125 29.984375 30.078125 
Q 27.25 30.078125 25.40625 31.9375 
Q 23.578125 33.796875 23.578125 36.625 
z
M 30.078125 66.40625 
Q 23.1875 66.40625 19.796875 58.984375 
Q 16.40625 51.5625 16.40625 36.375 
Q 16.40625 21.234375 19.796875 13.8125 
Q 23.1875 6.390625 30.078125 6.390625 
Q 37.015625 6.390625 40.40625 13.8125 
Q 43.796875 21.234375 43.796875 36.375 
Q 43.796875 51.5625 40.40625 58.984375 
Q 37.015625 66.40625 30.078125 66.40625 
z
M 30.078125 74.21875 
Q 41.75 74.21875 47.734375 64.640625 
Q 53.71875 55.078125 53.71875 36.375 
Q 53.71875 17.71875 47.734375 8.140625 
Q 41.75 -1.421875 30.078125 -1.421875 
Q 18.40625 -1.421875 12.453125 8.140625 
Q 6.5 17.71875 6.5 36.375 
Q 6.5 55.078125 12.453125 64.640625 
Q 18.40625 74.21875 30.078125 74.21875 
z
" id="DejaVuSansMono-48"/>
       </defs>
       <use xlink:href="#DejaVuSansMono-48"/>
      </g>
     </g>
    </g>
    <g id="xtick_2">
     <g id="line2d_2">
      <g>
       <use style="stroke:#000000;stroke-width:0.8;" x="122.933261" xlink:href="#m8baf08319e" y="316.4425"/>
      </g>
     </g>
     <g id="text_2">
      <!-- 100 -->
      <g transform="translate(117.51498 328.033437)scale(0.06 -0.06)">
       <defs>
        <path d="M 13.1875 8.296875 
L 28.515625 8.296875 
L 28.515625 64.015625 
L 12.015625 60.296875 
L 12.015625 69.28125 
L 28.421875 72.90625 
L 38.28125 72.90625 
L 38.28125 8.296875 
L 53.421875 8.296875 
L 53.421875 0 
L 13.1875 0 
z
" id="DejaVuSansMono-49"/>
       </defs>
       <use xlink:href="#DejaVuSansMono-49"/>
       <use x="60.205078" xlink:href="#DejaVuSansMono-48"/>
       <use x="120.410156" xlink:href="#DejaVuSansMono-48"/>
      </g>
     </g>
    </g>
    <g id="xtick_3">
     <g id="line2d_3">
      <g>
       <use style="stroke:#000000;stroke-width:0.8;" x="190.986806" xlink:href="#m8baf08319e" y="316.4425"/>
      </g>
     </g>
     <g id="text_3">
      <!-- 200 -->
      <g transform="translate(185.568525 328.033437)scale(0.06 -0.06)">
       <defs>
        <path d="M 18.21875 8.296875 
L 51.703125 8.296875 
L 51.703125 0 
L 7.421875 0 
L 7.421875 8.296875 
Q 16.546875 17.921875 23.375 25.296875 
Q 30.21875 32.671875 32.8125 35.6875 
Q 37.703125 41.65625 39.40625 45.34375 
Q 41.109375 49.03125 41.109375 52.875 
Q 41.109375 58.984375 37.515625 62.453125 
Q 33.9375 65.921875 27.6875 65.921875 
Q 23.25 65.921875 18.359375 64.3125 
Q 13.484375 62.703125 8.015625 59.421875 
L 8.015625 69.390625 
Q 13.03125 71.78125 17.890625 73 
Q 22.75 74.21875 27.484375 74.21875 
Q 38.1875 74.21875 44.703125 68.53125 
Q 51.21875 62.84375 51.21875 53.609375 
Q 51.21875 48.921875 49.046875 44.234375 
Q 46.875 39.546875 42 33.890625 
Q 39.265625 30.71875 34.0625 25.09375 
Q 28.859375 19.484375 18.21875 8.296875 
z
" id="DejaVuSansMono-50"/>
       </defs>
       <use xlink:href="#DejaVuSansMono-50"/>
       <use x="60.205078" xlink:href="#DejaVuSansMono-48"/>
       <use x="120.410156" xlink:href="#DejaVuSansMono-48"/>
      </g>
     </g>
    </g>
    <g id="xtick_4">
     <g id="line2d_4">
      <g>
       <use style="stroke:#000000;stroke-width:0.8;" x="259.040352" xlink:href="#m8baf08319e" y="316.4425"/>
      </g>
     </g>
     <g id="text_4">
      <!-- 300 -->
      <g transform="translate(253.622071 328.033437)scale(0.06 -0.06)">
       <defs>
        <path d="M 37.890625 39.015625 
Q 45.0625 37.109375 48.875 32.25 
Q 52.6875 27.390625 52.6875 20.125 
Q 52.6875 10.0625 45.921875 4.3125 
Q 39.15625 -1.421875 27.203125 -1.421875 
Q 22.171875 -1.421875 16.9375 -0.484375 
Q 11.71875 0.4375 6.6875 2.203125 
L 6.6875 12.015625 
Q 11.671875 9.421875 16.5 8.15625 
Q 21.34375 6.890625 26.125 6.890625 
Q 34.234375 6.890625 38.578125 10.546875 
Q 42.921875 14.203125 42.921875 21.09375 
Q 42.921875 27.4375 38.578125 31.171875 
Q 34.234375 34.90625 26.8125 34.90625 
L 19.28125 34.90625 
L 19.28125 43.015625 
L 26.8125 43.015625 
Q 33.59375 43.015625 37.40625 45.984375 
Q 41.21875 48.96875 41.21875 54.296875 
Q 41.21875 59.90625 37.671875 62.90625 
Q 34.125 65.921875 27.59375 65.921875 
Q 23.25 65.921875 18.609375 64.9375 
Q 13.96875 63.96875 8.890625 62.015625 
L 8.890625 71.09375 
Q 14.796875 72.65625 19.40625 73.4375 
Q 24.03125 74.21875 27.59375 74.21875 
Q 38.234375 74.21875 44.609375 68.875 
Q 50.984375 63.53125 50.984375 54.6875 
Q 50.984375 48.6875 47.625 44.671875 
Q 44.28125 40.671875 37.890625 39.015625 
z
" id="DejaVuSansMono-51"/>
       </defs>
       <use xlink:href="#DejaVuSansMono-51"/>
       <use x="60.205078" xlink:href="#DejaVuSansMono-48"/>
       <use x="120.410156" xlink:href="#DejaVuSansMono-48"/>
      </g>
     </g>
    </g>
    <g id="xtick_5">
     <g id="line2d_5">
      <g>
       <use style="stroke:#000000;stroke-width:0.8;" x="327.093897" xlink:href="#m8baf08319e" y="316.4425"/>
      </g>
     </g>
     <g id="text_5">
      <!-- 400 -->
      <g transform="translate(321.675616 328.033437)scale(0.06 -0.06)">
       <defs>
        <path d="M 35.890625 63.921875 
L 12.890625 25.390625 
L 35.890625 25.390625 
z
M 34.28125 72.90625 
L 45.703125 72.90625 
L 45.703125 25.390625 
L 55.421875 25.390625 
L 55.421875 17.390625 
L 45.703125 17.390625 
L 45.703125 0 
L 35.890625 0 
L 35.890625 17.390625 
L 4.984375 17.390625 
L 4.984375 26.703125 
z
" id="DejaVuSansMono-52"/>
       </defs>
       <use xlink:href="#DejaVuSansMono-52"/>
       <use x="60.205078" xlink:href="#DejaVuSansMono-48"/>
       <use x="120.410156" xlink:href="#DejaVuSansMono-48"/>
      </g>
     </g>
    </g>
    <g id="xtick_6">
     <g id="line2d_6">
      <g>
       <use style="stroke:#000000;stroke-width:0.8;" x="395.147442" xlink:href="#m8baf08319e" y="316.4425"/>
      </g>
     </g>
     <g id="text_6">
      <!-- 500 -->
      <g transform="translate(389.729161 328.033437)scale(0.06 -0.06)">
       <defs>
        <path d="M 10.109375 72.90625 
L 47.015625 72.90625 
L 47.015625 64.59375 
L 19.09375 64.59375 
L 19.09375 46.6875 
Q 21.1875 47.46875 23.3125 47.828125 
Q 25.4375 48.1875 27.59375 48.1875 
Q 38.921875 48.1875 45.5625 41.5 
Q 52.203125 34.8125 52.203125 23.390625 
Q 52.203125 11.859375 45.234375 5.21875 
Q 38.28125 -1.421875 26.21875 -1.421875 
Q 20.40625 -1.421875 15.59375 -0.640625 
Q 10.796875 0.140625 6.984375 1.703125 
L 6.984375 11.71875 
Q 11.46875 9.28125 16.015625 8.078125 
Q 20.5625 6.890625 25.296875 6.890625 
Q 33.453125 6.890625 37.859375 11.1875 
Q 42.28125 15.484375 42.28125 23.390625 
Q 42.28125 31.203125 37.71875 35.546875 
Q 33.15625 39.890625 25 39.890625 
Q 21.046875 39.890625 17.28125 38.984375 
Q 13.53125 38.09375 10.109375 36.28125 
z
" id="DejaVuSansMono-53"/>
       </defs>
       <use xlink:href="#DejaVuSansMono-53"/>
       <use x="60.205078" xlink:href="#DejaVuSansMono-48"/>
       <use x="120.410156" xlink:href="#DejaVuSansMono-48"/>
      </g>
     </g>
    </g>
    <g id="text_7">
     <!-- n -->
     <g transform="translate(243.283281 337.872187)scale(0.06 -0.06)">
      <defs>
       <path d="M 51.3125 33.890625 
L 51.3125 0 
L 42.28125 0 
L 42.28125 33.890625 
Q 42.28125 41.265625 39.6875 44.71875 
Q 37.109375 48.1875 31.59375 48.1875 
Q 25.296875 48.1875 21.890625 43.71875 
Q 18.5 39.265625 18.5 30.90625 
L 18.5 0 
L 9.515625 0 
L 9.515625 54.6875 
L 18.5 54.6875 
L 18.5 46.484375 
Q 20.90625 51.171875 25 53.578125 
Q 29.109375 56 34.71875 56 
Q 43.0625 56 47.1875 50.5 
Q 51.3125 45.015625 51.3125 33.890625 
z
" id="DejaVuSansMono-110"/>
      </defs>
      <use xlink:href="#DejaVuSansMono-110"/>
     </g>
    </g>
   </g>
   <g id="matplotlib.axis_2">
    <g id="ytick_1">
     <g id="line2d_7">
      <defs>
       <path d="M 0 0 
L -3.5 0 
" id="m75a3170362" style="stroke:#000000;stroke-width:0.8;"/>
      </defs>
      <g>
       <use style="stroke:#000000;stroke-width:0.8;" x="35.85875" xlink:href="#m75a3170362" y="278.641941"/>
      </g>
     </g>
     <g id="text_8">
      <!-- $\mathdefault{10^{1}}$ -->
      <g transform="translate(18.83875 280.93741)scale(0.06 -0.06)">
       <use transform="translate(0 0.684375)" xlink:href="#DejaVuSansMono-49"/>
       <use transform="translate(60.205078 0.684375)" xlink:href="#DejaVuSansMono-48"/>
       <use transform="translate(121.367188 38.965625)scale(0.7)" xlink:href="#DejaVuSansMono-49"/>
      </g>
     </g>
    </g>
    <g id="ytick_2">
     <g id="line2d_8">
      <g>
       <use style="stroke:#000000;stroke-width:0.8;" x="35.85875" xlink:href="#m75a3170362" y="230.172948"/>
      </g>
     </g>
     <g id="text_9">
      <!-- $\mathdefault{10^{3}}$ -->
      <g transform="translate(18.83875 232.468417)scale(0.06 -0.06)">
       <use transform="translate(0 0.765625)" xlink:href="#DejaVuSansMono-49"/>
       <use transform="translate(60.205078 0.765625)" xlink:href="#DejaVuSansMono-48"/>
       <use transform="translate(121.367188 39.046875)scale(0.7)" xlink:href="#DejaVuSansMono-51"/>
      </g>
     </g>
    </g>
    <g id="ytick_3">
     <g id="line2d_9">
      <g>
       <use style="stroke:#000000;stroke-width:0.8;" x="35.85875" xlink:href="#m75a3170362" y="181.703955"/>
      </g>
     </g>
     <g id="text_10">
      <!-- $\mathdefault{10^{5}}$ -->
      <g transform="translate(18.83875 183.999424)scale(0.06 -0.06)">
       <use transform="translate(0 0.684375)" xlink:href="#DejaVuSansMono-49"/>
       <use transform="translate(60.205078 0.684375)" xlink:href="#DejaVuSansMono-48"/>
       <use transform="translate(121.367188 38.965625)scale(0.7)" xlink:href="#DejaVuSansMono-53"/>
      </g>
     </g>
    </g>
    <g id="ytick_4">
     <g id="line2d_10">
      <g>
       <use style="stroke:#000000;stroke-width:0.8;" x="35.85875" xlink:href="#m75a3170362" y="133.234962"/>
      </g>
     </g>
     <g id="text_11">
      <!-- $\mathdefault{10^{7}}$ -->
      <g transform="translate(18.83875 135.53043)scale(0.06 -0.06)">
       <defs>
        <path d="M 6.78125 72.90625 
L 52.6875 72.90625 
L 52.6875 68.703125 
L 26.609375 0 
L 16.3125 0 
L 41.703125 64.59375 
L 6.78125 64.59375 
z
" id="DejaVuSansMono-55"/>
       </defs>
       <use transform="translate(0 0.684375)" xlink:href="#DejaVuSansMono-49"/>
       <use transform="translate(60.205078 0.684375)" xlink:href="#DejaVuSansMono-48"/>
       <use transform="translate(121.367188 38.965625)scale(0.7)" xlink:href="#DejaVuSansMono-55"/>
      </g>
     </g>
    </g>
    <g id="ytick_5">
     <g id="line2d_11">
      <g>
       <use style="stroke:#000000;stroke-width:0.8;" x="35.85875" xlink:href="#m75a3170362" y="84.765969"/>
      </g>
     </g>
     <g id="text_12">
      <!-- $\mathdefault{10^{9}}$ -->
      <g transform="translate(18.83875 87.061437)scale(0.06 -0.06)">
       <defs>
        <path d="M 29.109375 32.328125 
Q 35.40625 32.328125 38.984375 36.859375 
Q 42.578125 41.40625 42.578125 49.421875 
Q 42.578125 57.421875 38.984375 61.953125 
Q 35.40625 66.5 29.109375 66.5 
Q 22.5625 66.5 19.234375 62.171875 
Q 15.921875 57.859375 15.921875 49.421875 
Q 15.921875 40.921875 19.21875 36.625 
Q 22.515625 32.328125 29.109375 32.328125 
z
M 11.53125 1.515625 
L 11.53125 10.59375 
Q 14.59375 8.796875 18.0625 7.84375 
Q 21.53125 6.890625 25.296875 6.890625 
Q 34.671875 6.890625 39.46875 13.9375 
Q 44.28125 21 44.28125 34.71875 
Q 42 29.828125 37.84375 27.21875 
Q 33.6875 24.609375 28.328125 24.609375 
Q 17.78125 24.609375 11.984375 31.09375 
Q 6.203125 37.59375 6.203125 49.515625 
Q 6.203125 61.28125 12.125 67.75 
Q 18.0625 74.21875 28.90625 74.21875 
Q 41.609375 74.21875 47.515625 65.078125 
Q 53.421875 55.953125 53.421875 36.375 
Q 53.421875 17.96875 46.3125 8.265625 
Q 39.203125 -1.421875 25.6875 -1.421875 
Q 22.125 -1.421875 18.5 -0.65625 
Q 14.890625 0.09375 11.53125 1.515625 
z
" id="DejaVuSansMono-57"/>
       </defs>
       <use transform="translate(0 0.765625)" xlink:href="#DejaVuSansMono-49"/>
       <use transform="translate(60.205078 0.765625)" xlink:href="#DejaVuSansMono-48"/>
       <use transform="translate(121.367188 39.046875)scale(0.7)" xlink:href="#DejaVuSansMono-57"/>
      </g>
     </g>
    </g>
    <g id="ytick_6">
     <g id="line2d_12">
      <g>
       <use style="stroke:#000000;stroke-width:0.8;" x="35.85875" xlink:href="#m75a3170362" y="36.296976"/>
      </g>
     </g>
     <g id="text_13">
      <!-- $\mathdefault{10^{11}}$ -->
      <g transform="translate(16.31875 38.592444)scale(0.06 -0.06)">
       <use transform="translate(0 0.684375)" xlink:href="#DejaVuSansMono-49"/>
       <use transform="translate(60.205078 0.684375)" xlink:href="#DejaVuSansMono-48"/>
       <use transform="translate(121.367188 38.965625)scale(0.7)" xlink:href="#DejaVuSansMono-49"/>
       <use transform="translate(163.510742 38.965625)scale(0.7)" xlink:href="#DejaVuSansMono-49"/>
      </g>
     </g>
    </g>
    <g id="text_14">
     <!-- y_n -->
     <g transform="translate(10.904063 172.634094)rotate(-90)scale(0.06 -0.06)">
      <defs>
       <path d="M 41.890625 17.578125 
Q 39.65625 11.859375 36.1875 2.546875 
Q 31.34375 -10.359375 29.6875 -13.1875 
Q 27.4375 -17 24.0625 -18.890625 
Q 20.703125 -20.796875 16.21875 -20.796875 
L 8.984375 -20.796875 
L 8.984375 -13.28125 
L 14.3125 -13.28125 
Q 18.265625 -13.28125 20.5 -10.984375 
Q 22.75 -8.6875 26.21875 0.875 
L 5.078125 54.6875 
L 14.59375 54.6875 
L 30.8125 11.921875 
L 46.78125 54.6875 
L 56.296875 54.6875 
z
" id="DejaVuSansMono-121"/>
       <path d="M 60.203125 -19.671875 
L 60.203125 -23.578125 
L 0 -23.578125 
L 0 -19.671875 
z
" id="DejaVuSansMono-95"/>
      </defs>
      <use xlink:href="#DejaVuSansMono-121"/>
      <use x="60.205078" xlink:href="#DejaVuSansMono-95"/>
      <use x="120.410156" xlink:href="#DejaVuSansMono-110"/>
     </g>
    </g>
   </g>
   <g id="line2d_13">
    <path clip-path="url(#p74cc7cbd2d)" d="M 54.879716 150.232941 
L 55.560251 138.670146 
L 56.240787 145.965456 
L 56.921322 134.402661 
L 58.282393 148.993282 
L 58.962929 137.430487 
L 59.643464 144.725798 
L 60.324 133.163003 
L 61.68507 147.753624 
L 62.365606 136.190829 
L 63.046141 143.48614 
L 63.726677 131.923345 
L 64.407212 139.218656 
L 65.087748 127.655862 
L 65.768283 134.951172 
L 66.448819 123.388378 
L 67.129354 130.683689 
L 67.80989 119.120895 
L 69.17096 133.711516 
L 69.851496 122.148722 
L 70.532031 129.444032 
L 71.212567 117.881239 
L 71.893102 125.176549 
L 72.573638 113.613755 
L 73.254173 120.909066 
L 73.934709 109.346272 
L 74.615244 116.641583 
L 75.295779 105.078789 
L 75.976315 112.3741 
L 76.65685 100.811306 
L 78.698457 122.697237 
L 79.378992 111.134444 
L 80.059528 118.429754 
L 80.740063 106.866961 
L 83.462205 136.048202 
L 84.14274 124.485408 
L 84.823276 131.780719 
L 85.503811 120.217925 
L 87.545418 142.103856 
L 88.225953 130.541062 
L 88.906489 137.836372 
L 89.587024 126.273579 
L 90.267559 133.568889 
L 90.948095 122.006095 
L 91.62863 129.301406 
L 92.309166 117.738612 
L 93.670237 132.329233 
L 94.350772 120.766439 
L 95.031308 128.061749 
L 95.711843 116.498956 
L 96.392379 123.794266 
L 97.072914 112.231473 
L 97.753449 119.526783 
L 98.433985 107.963989 
L 99.795056 122.55461 
L 100.475591 110.991817 
L 101.156127 118.287127 
L 101.836662 106.724334 
L 102.517198 114.019644 
L 103.197733 102.456851 
L 103.878269 109.752161 
L 104.558804 98.189368 
L 105.239339 105.484678 
L 105.919875 93.921885 
L 106.60041 101.217195 
L 107.280946 89.654401 
L 108.642017 104.245022 
L 109.322552 92.682229 
L 110.683623 107.27285 
L 111.364159 95.710056 
L 112.044694 103.005367 
L 112.725229 91.442573 
L 113.405765 98.737884 
L 114.0863 87.17509 
L 115.447371 101.765711 
L 116.127907 90.202917 
L 116.808442 97.498228 
L 117.488978 85.935434 
L 118.169513 93.230745 
L 118.850048 81.667951 
L 120.211119 96.258572 
L 120.891655 84.695779 
L 121.57219 91.991089 
L 122.252726 80.428296 
L 122.933261 87.723606 
L 123.613797 76.160813 
L 126.335938 105.342054 
L 127.016474 93.779261 
L 127.697009 101.074571 
L 128.377545 89.511778 
L 129.05808 96.807088 
L 129.738616 85.244295 
L 130.419151 92.539605 
L 131.099687 80.976812 
L 131.780222 88.272122 
L 132.460758 76.709329 
L 133.141293 84.004639 
L 133.821828 72.441846 
L 134.502364 79.737156 
L 135.182899 68.174363 
L 135.863435 75.469673 
L 136.54397 63.90688 
L 137.224506 71.20219 
L 137.905041 59.639397 
L 138.585577 66.934707 
L 139.266112 55.371914 
L 139.946648 62.667224 
L 140.627183 51.104431 
L 141.307718 58.399741 
L 141.988254 46.836948 
L 142.668789 54.132258 
L 143.349325 42.569465 
L 144.710396 57.160086 
L 145.390931 45.597292 
L 146.752002 60.187913 
L 147.432538 48.62512 
L 148.113073 55.92043 
L 148.793608 44.357637 
L 149.474144 51.652947 
L 150.154679 40.090154 
L 150.835215 47.385464 
L 151.51575 35.822671 
L 152.196286 43.117981 
L 152.876821 31.555187 
L 155.598963 60.736429 
L 156.279498 49.173636 
L 156.960034 56.468946 
L 157.640569 44.906153 
L 158.321105 52.201463 
L 159.00164 40.63867 
L 159.682176 47.93398 
L 160.362711 36.371187 
L 161.043247 43.666497 
L 161.723782 32.103704 
L 164.445924 61.284945 
L 165.126459 49.722152 
L 167.168066 71.608083 
L 167.848601 60.04529 
L 168.529137 67.3406 
L 169.209672 55.777807 
L 170.570743 70.368427 
L 171.251278 58.805634 
L 171.931814 66.100944 
L 172.612349 54.538151 
L 173.97342 69.128772 
L 174.653956 57.565978 
L 175.334491 64.861289 
L 176.015027 53.298495 
L 177.376097 67.889116 
L 178.056633 56.326323 
L 180.098239 78.212254 
L 180.778775 66.64946 
L 182.820381 88.535392 
L 183.500917 76.972598 
L 184.181452 84.267909 
L 184.861987 72.705115 
L 187.584129 101.886357 
L 188.264665 90.323563 
L 190.306271 112.209494 
L 190.986806 100.646701 
L 191.667342 107.942011 
L 192.347877 96.379218 
L 193.028413 103.674528 
L 193.708948 92.111735 
L 195.070019 106.702356 
L 195.750555 95.139562 
L 197.792161 117.025494 
L 198.472696 105.4627 
L 201.194838 134.643942 
L 201.875374 123.081148 
L 205.958586 166.85301 
L 206.639122 155.290208 
L 208.000193 169.880829 
L 208.680728 158.318024 
L 210.041799 172.908645 
L 210.722335 161.345836 
L 211.40287 168.641147 
L 212.083406 157.078343 
L 213.444476 171.668964 
L 214.125012 160.106157 
L 215.486083 174.696778 
L 216.166618 163.133966 
L 216.847154 170.429277 
L 217.527689 158.866471 
L 218.208225 166.161782 
L 218.88876 154.59898 
L 220.249831 169.189601 
L 220.930366 157.626797 
L 221.610902 164.922107 
L 222.291437 153.359307 
L 225.013579 182.540548 
L 225.694115 170.977717 
L 226.37465 178.273027 
L 227.055185 166.710209 
L 227.735721 174.005519 
L 228.416256 162.442709 
L 229.777327 177.03333 
L 230.457863 165.470514 
L 231.818934 180.061134 
L 232.499469 168.498311 
L 234.541075 190.384242 
L 235.221611 178.821369 
L 235.902146 186.116679 
L 236.582682 174.553832 
L 237.943753 189.144453 
L 238.624288 177.581589 
L 239.304824 184.876899 
L 239.985359 173.314058 
L 243.388036 209.79061 
L 244.068572 198.227311 
L 244.749107 205.522621 
L 245.429643 193.959491 
L 246.110178 201.254801 
L 246.790714 189.691783 
L 250.193391 226.168335 
L 250.873926 214.603144 
L 251.554462 221.898454 
L 252.234997 210.334062 
L 252.915533 217.629373 
L 253.596068 206.065514 
L 255.637675 227.951445 
L 256.31821 216.385812 
L 256.998745 223.681122 
L 257.679281 212.116435 
L 259.720887 234.002367 
L 260.401423 222.434526 
L 261.081958 229.729837 
L 261.762494 218.16368 
L 262.443029 225.458991 
L 263.123565 213.893956 
L 265.165171 235.779887 
L 265.845706 224.211119 
L 266.526242 231.506429 
L 267.206777 219.939654 
L 268.567848 234.530275 
L 269.248384 222.962175 
L 273.331596 266.734038 
L 274.012132 255.058677 
L 274.692667 262.353988 
L 275.373203 250.716813 
L 276.053738 258.012123 
L 276.734274 246.400033 
L 277.414809 253.695343 
L 278.095344 242.099813 
L 278.77588 249.395123 
L 279.456415 237.810562 
L 280.817486 252.401183 
L 281.498022 240.809435 
L 282.859093 255.400056 
L 283.539628 243.79878 
L 284.220164 251.09409 
L 284.900699 239.50572 
L 286.26177 254.096341 
L 286.942305 242.499541 
L 287.622841 249.794852 
L 288.303376 238.209448 
L 288.983912 245.504759 
L 289.664447 233.926919 
L 291.025518 248.51754 
L 291.706054 236.934718 
L 292.386589 244.230028 
L 293.067124 232.653904 
L 293.74766 239.949214 
L 294.428195 228.377543 
L 295.108731 235.672853 
L 295.789266 224.104145 
L 297.150337 238.694766 
L 297.830873 227.124092 
L 299.872479 249.010023 
L 300.553014 237.426243 
L 301.23355 244.721553 
L 301.914085 233.144792 
L 302.594621 240.440102 
L 303.275156 228.868007 
L 304.636227 243.458628 
L 305.316763 231.883445 
L 305.997298 239.178755 
L 306.677833 227.60771 
L 308.038904 242.198331 
L 308.71944 230.624545 
L 309.399975 237.919856 
L 310.080511 226.349741 
L 310.761046 233.645051 
L 311.441582 222.077379 
L 312.122117 229.37269 
L 312.802653 217.806645 
L 313.483188 225.101956 
L 314.163723 213.536996 
L 314.844259 220.832306 
L 315.524794 209.268068 
L 317.566401 231.154 
L 318.246936 219.587356 
L 318.927472 226.882666 
L 319.608007 215.317307 
L 320.288543 222.612617 
L 320.969078 211.048113 
L 321.649613 218.343424 
L 322.330149 206.77949 
L 325.052291 235.960732 
L 325.732826 224.39186 
L 327.093897 238.982481 
L 327.774433 227.411588 
L 329.135503 242.002209 
L 329.816039 230.428626 
L 332.538181 259.609868 
L 333.218716 247.989718 
L 335.260323 269.875649 
L 335.940858 258.161415 
L 336.621393 265.456726 
L 337.301929 253.79417 
L 337.982464 261.08948 
L 338.663 249.460699 
L 342.065677 285.937251 
L 342.746212 273.695196 
L 345.468354 302.876437 
L 345.468354 302.876437 
" style="fill:none;stroke:#1f77b4;stroke-linecap:square;stroke-width:0.666667;"/>
   </g>
   <g id="line2d_14">
    <path clip-path="url(#p74cc7cbd2d)" d="M 54.879716 148.712208 
L 55.560251 137.149413 
L 56.921322 151.740034 
L 57.601858 140.177238 
L 58.282393 147.472549 
L 58.962929 135.909754 
L 59.643464 143.205064 
L 60.324 131.64227 
L 61.004535 138.93758 
L 61.68507 127.374786 
L 62.365606 134.670097 
L 63.046141 123.107303 
L 63.726677 130.402613 
L 64.407212 118.83982 
L 65.087748 126.13513 
L 65.768283 114.572336 
L 67.129354 129.162957 
L 67.80989 117.600164 
L 69.17096 132.190784 
L 69.851496 120.627991 
L 70.532031 127.923301 
L 71.212567 116.360507 
L 71.893102 123.655818 
L 72.573638 112.093024 
L 73.934709 126.683645 
L 74.615244 115.120851 
L 75.295779 122.416162 
L 75.976315 110.853368 
L 77.337386 125.443989 
L 78.017921 113.881196 
L 78.698457 121.176506 
L 79.378992 109.613712 
L 80.059528 116.909023 
L 80.740063 105.346229 
L 81.420599 112.64154 
L 82.101134 101.078746 
L 82.781669 108.374057 
L 83.462205 96.811263 
L 84.14274 104.106574 
L 84.823276 92.54378 
L 87.545418 121.725022 
L 88.225953 110.162228 
L 90.267559 132.048159 
L 90.948095 120.485366 
L 91.62863 127.780676 
L 92.309166 116.217883 
L 92.989701 123.513193 
L 93.670237 111.950399 
L 94.350772 119.24571 
L 95.031308 107.682916 
L 96.392379 122.273537 
L 97.072914 110.710744 
L 98.433985 125.301364 
L 99.11452 113.738571 
L 100.475591 128.329192 
L 101.156127 116.766398 
L 101.836662 124.061708 
L 102.517198 112.498915 
L 103.197733 119.794225 
L 103.878269 108.231432 
L 105.239339 122.822052 
L 105.919875 111.259259 
L 106.60041 118.554569 
L 107.280946 106.991776 
L 109.322552 128.877707 
L 110.003088 117.314913 
L 111.364159 131.905534 
L 112.044694 120.34274 
L 112.725229 127.638051 
L 113.405765 116.075257 
L 114.0863 123.370568 
L 114.766836 111.807774 
L 115.447371 119.103084 
L 116.127907 107.540291 
L 116.808442 114.835601 
L 117.488978 103.272808 
L 118.169513 110.568118 
L 118.850048 99.005325 
L 120.211119 113.595946 
L 120.891655 102.033152 
L 121.57219 109.328463 
L 122.252726 97.765669 
L 122.933261 105.060979 
L 123.613797 93.498186 
L 125.655403 115.384117 
L 126.335938 103.821324 
L 127.016474 111.116634 
L 127.697009 99.553841 
L 128.377545 106.849151 
L 129.05808 95.286358 
L 129.738616 102.581668 
L 130.419151 91.018875 
L 131.099687 98.314185 
L 131.780222 86.751392 
L 133.141293 101.342012 
L 133.821828 89.779219 
L 134.502364 97.074529 
L 135.182899 85.511736 
L 135.863435 92.807046 
L 136.54397 81.244253 
L 137.224506 88.539563 
L 137.905041 76.97677 
L 138.585577 84.27208 
L 139.266112 72.709287 
L 139.946648 80.004597 
L 140.627183 68.441804 
L 141.307718 75.737114 
L 141.988254 64.174321 
L 142.668789 71.469631 
L 143.349325 59.906838 
L 144.02986 67.202148 
L 144.710396 55.639355 
L 145.390931 62.934665 
L 146.071467 51.371872 
L 150.154679 95.143734 
L 150.835215 83.580941 
L 152.196286 98.171562 
L 152.876821 86.608768 
L 153.557357 93.904079 
L 154.237892 82.341285 
L 154.918427 89.636596 
L 155.598963 78.073802 
L 156.279498 85.369113 
L 156.960034 73.806319 
L 159.00164 95.69225 
L 159.682176 84.129457 
L 161.043247 98.720078 
L 161.723782 87.157284 
L 162.404317 94.452595 
L 163.084853 82.889801 
L 163.765388 90.185112 
L 164.445924 78.622318 
L 165.126459 85.917629 
L 165.806995 74.354835 
L 167.168066 88.945456 
L 167.848601 77.382663 
L 169.209672 91.973283 
L 169.890207 80.41049 
L 170.570743 87.7058 
L 171.251278 76.143007 
L 173.292885 98.028938 
L 173.97342 86.466145 
L 175.334491 101.056765 
L 176.015027 89.493972 
L 176.695562 96.789282 
L 177.376097 85.226489 
L 178.056633 92.521799 
L 178.737168 80.959006 
L 179.417704 88.254316 
L 180.098239 76.691523 
L 180.778775 83.986833 
L 181.45931 72.42404 
L 182.139846 79.71935 
L 182.820381 68.156557 
L 183.500917 75.451867 
L 184.181452 63.889074 
L 185.542523 78.479695 
L 186.223058 66.916901 
L 187.584129 81.507522 
L 188.264665 69.944729 
L 188.9452 77.240039 
L 189.625736 65.677246 
L 190.306271 72.972556 
L 190.986806 61.409763 
L 191.667342 68.705073 
L 192.347877 57.14228 
L 193.028413 64.43759 
L 193.708948 52.874797 
L 194.389484 60.170107 
L 195.070019 48.607314 
L 195.750555 55.902624 
L 196.43109 44.339831 
L 197.792161 58.930451 
L 198.472696 47.367658 
L 199.833767 61.958279 
L 200.514303 50.395485 
L 203.236445 79.576727 
L 203.91698 68.013934 
L 210.722335 140.967037 
L 211.40287 129.404243 
L 212.083406 136.699554 
L 212.763941 125.13676 
L 214.805547 147.022691 
L 215.486083 135.459896 
L 216.166618 142.755207 
L 216.847154 131.192412 
L 217.527689 138.487723 
L 218.208225 126.924929 
L 218.88876 134.220239 
L 219.569296 122.657445 
L 220.249831 129.952756 
L 220.930366 118.389962 
L 221.610902 125.685273 
L 222.291437 114.122479 
L 223.652508 128.7131 
L 224.333044 117.150306 
L 225.013579 124.445617 
L 225.694115 112.882823 
L 227.055185 127.473444 
L 227.735721 115.91065 
L 229.096792 130.501271 
L 229.777327 118.938477 
L 231.818934 140.824408 
L 232.499469 129.261614 
L 233.86054 143.852235 
L 234.541075 132.289441 
L 235.221611 139.584751 
L 235.902146 128.021957 
L 237.263217 142.612578 
L 237.943753 131.049784 
L 238.624288 138.345094 
L 239.304824 126.7823 
L 241.34643 148.668231 
L 242.026965 137.105436 
L 242.707501 144.400747 
L 243.388036 132.837952 
L 244.068572 140.133263 
L 244.749107 128.570469 
L 245.429643 135.865779 
L 246.110178 124.302985 
L 246.790714 131.598296 
L 247.471249 120.035502 
L 248.151785 127.330812 
L 248.83232 115.768019 
L 252.234997 152.244571 
L 252.915533 140.681775 
L 253.596068 147.977085 
L 254.276604 136.414291 
L 254.957139 143.709601 
L 255.637675 132.146807 
L 256.31821 139.442117 
L 256.998745 127.879323 
L 257.679281 135.174633 
L 258.359816 123.61184 
L 261.762494 160.088392 
L 262.443029 148.525594 
L 263.123565 155.820904 
L 263.8041 144.258108 
L 264.484635 151.553418 
L 265.165171 139.990623 
L 265.845706 147.285933 
L 266.526242 135.723138 
L 267.206777 143.018449 
L 267.887313 131.455654 
L 268.567848 138.750965 
L 269.248384 127.188171 
L 270.609454 141.778792 
L 271.28999 130.215997 
L 271.970525 137.511308 
L 272.651061 125.948514 
L 273.331596 133.243824 
L 274.012132 121.68103 
L 274.692667 128.976341 
L 275.373203 117.413547 
L 276.053738 124.708858 
L 276.734274 113.146064 
L 277.414809 120.441374 
L 278.095344 108.878581 
L 278.77588 116.173891 
L 279.456415 104.611098 
L 280.817486 119.201719 
L 281.498022 107.638925 
L 282.178557 114.934236 
L 282.859093 103.371442 
L 284.220164 117.962063 
L 284.900699 106.399269 
L 285.581234 113.69458 
L 286.26177 102.131786 
L 286.942305 109.427097 
L 287.622841 97.864303 
L 288.303376 105.159614 
L 288.983912 93.59682 
L 290.344983 108.187441 
L 291.025518 96.624648 
L 291.706054 103.919958 
L 292.386589 92.357165 
L 293.74766 106.947785 
L 294.428195 95.384992 
L 295.789266 109.975613 
L 296.469802 98.412819 
L 297.150337 105.70813 
L 297.830873 94.145336 
L 298.511408 101.440647 
L 299.191944 89.877853 
L 299.872479 97.173164 
L 300.553014 85.61037 
L 306.677833 151.268164 
L 307.358369 139.705368 
L 310.761046 176.18192 
L 311.441582 164.619106 
L 313.483188 186.505037 
L 314.163723 174.942189 
L 314.844259 182.237499 
L 315.524794 170.674669 
L 316.885865 185.265289 
L 317.566401 173.702447 
L 319.608007 195.588378 
L 320.288543 184.025453 
L 320.969078 191.320764 
L 321.649613 179.757883 
L 322.330149 187.053193 
L 323.010684 175.490342 
L 323.69122 182.785652 
L 324.371755 171.22282 
L 325.732826 185.81344 
L 326.413362 174.250595 
L 327.093897 181.545906 
L 327.774433 169.983078 
L 329.135503 184.573698 
L 329.816039 173.010859 
L 330.496574 180.306169 
L 331.17711 168.743345 
L 331.857645 176.038656 
L 332.538181 164.475842 
L 333.899252 179.066462 
L 334.579787 167.503642 
L 335.260323 174.798952 
L 335.940858 163.236141 
L 336.621393 170.531451 
L 337.301929 158.968645 
L 337.982464 166.263956 
L 338.663 154.701154 
L 339.343535 161.996465 
L 340.024071 150.433666 
L 342.065677 172.319597 
L 342.746212 160.756789 
L 343.426748 168.0521 
L 344.107283 156.489297 
L 344.787819 163.784607 
L 345.468354 152.221807 
L 346.829425 166.812428 
L 347.509961 155.249626 
L 348.871032 169.840247 
L 349.551567 158.277442 
L 351.593173 180.163373 
L 352.273709 168.60055 
L 352.954244 175.89586 
L 353.63478 164.333046 
L 355.676386 186.218978 
L 356.356922 174.65613 
L 358.398528 196.542061 
L 359.079063 184.979124 
L 359.759599 192.274435 
L 360.440134 180.711546 
L 364.523347 224.483408 
L 365.203882 212.918571 
L 368.60656 249.395123 
L 369.287095 237.810562 
L 370.648166 252.401183 
L 371.328702 240.809435 
L 372.689772 255.400056 
L 373.370308 243.79878 
L 374.050843 251.09409 
L 374.731379 239.50572 
L 376.09245 254.096341 
L 376.772985 242.499541 
L 377.453521 249.794852 
L 378.134056 238.209448 
L 378.814591 245.504759 
L 379.495127 233.926919 
L 380.856198 248.51754 
L 381.536733 236.934718 
L 382.217269 244.230028 
L 382.897804 232.653904 
L 383.57834 239.949214 
L 384.258875 228.377543 
L 384.939411 235.672853 
L 385.619946 224.104145 
L 386.981017 238.694766 
L 387.661552 227.124092 
L 389.703159 249.010023 
L 390.383694 237.426243 
L 391.06423 244.721553 
L 391.744765 233.144792 
L 392.425301 240.440102 
L 393.105836 228.868007 
L 394.466907 243.458628 
L 395.147442 231.883445 
L 395.827978 239.178755 
L 396.508513 227.60771 
L 397.869584 242.198331 
L 398.55012 230.624545 
L 399.230655 237.919856 
L 399.911191 226.349741 
L 400.591726 233.645051 
L 401.272261 222.077379 
L 401.952797 229.37269 
L 402.633332 217.806645 
L 403.313868 225.101956 
L 403.994403 213.536996 
L 404.674939 220.832306 
L 405.355474 209.268068 
L 407.397081 231.154 
L 408.077616 219.587356 
L 408.758151 226.882666 
L 409.438687 215.317307 
L 410.119222 222.612617 
L 410.799758 211.048113 
L 411.480293 218.343424 
L 412.160829 206.77949 
L 414.882971 235.960732 
L 415.563506 224.39186 
L 416.924577 238.982481 
L 417.605112 227.411588 
L 418.966183 242.002209 
L 419.646719 230.428626 
L 422.36886 259.609868 
L 423.049396 247.989718 
L 425.091002 269.875649 
L 425.771538 258.161415 
L 426.452073 265.456726 
L 427.132609 253.79417 
L 427.813144 261.08948 
L 428.49368 249.460699 
L 431.896357 285.937251 
L 432.576892 273.695196 
L 435.299034 302.876437 
L 435.299034 302.876437 
" style="fill:none;stroke:#ff7f0e;stroke-linecap:square;stroke-width:0.666667;"/>
   </g>
   <g id="patch_3">
    <path d="M 35.85875 316.4425 
L 35.85875 17.989125 
" style="fill:none;stroke:#000000;stroke-linecap:square;stroke-linejoin:miter;stroke-width:0.8;"/>
   </g>
   <g id="patch_4">
    <path d="M 454.32 316.4425 
L 454.32 17.989125 
" style="fill:none;stroke:#000000;stroke-linecap:square;stroke-linejoin:miter;stroke-width:0.8;"/>
   </g>
   <g id="patch_5">
    <path d="M 35.85875 316.4425 
L 454.32 316.4425 
" style="fill:none;stroke:#000000;stroke-linecap:square;stroke-linejoin:miter;stroke-width:0.8;"/>
   </g>
   <g id="patch_6">
    <path d="M 35.85875 17.989125 
L 454.32 17.989125 
" style="fill:none;stroke:#000000;stroke-linecap:square;stroke-linejoin:miter;stroke-width:0.8;"/>
   </g>
   <g id="text_15">
    <!-- "3y+1" problem -->
    <g transform="translate(214.747 11.989125)scale(0.072 -0.072)">
     <defs>
      <path d="M 43.703125 72.90625 
L 43.703125 45.796875 
L 35.203125 45.796875 
L 35.203125 72.90625 
z
M 25 72.90625 
L 25 45.796875 
L 16.5 45.796875 
L 16.5 72.90625 
z
" id="DejaVuSansMono-34"/>
      <path d="M 34.1875 57.171875 
L 34.1875 35.5 
L 55.90625 35.5 
L 55.90625 27.203125 
L 34.1875 27.203125 
L 34.1875 5.515625 
L 25.984375 5.515625 
L 25.984375 27.203125 
L 4.296875 27.203125 
L 4.296875 35.5 
L 25.984375 35.5 
L 25.984375 57.171875 
z
" id="DejaVuSansMono-43"/>
      <path id="DejaVuSansMono-32"/>
      <path d="M 18.3125 6.890625 
L 18.3125 -20.796875 
L 9.28125 -20.796875 
L 9.28125 54.6875 
L 18.3125 54.6875 
L 18.3125 47.703125 
Q 20.5625 51.765625 24.296875 53.875 
Q 28.03125 56 32.90625 56 
Q 42.828125 56 48.46875 48.328125 
Q 54.109375 40.671875 54.109375 27.09375 
Q 54.109375 13.765625 48.4375 6.171875 
Q 42.78125 -1.421875 32.90625 -1.421875 
Q 27.9375 -1.421875 24.1875 0.703125 
Q 20.453125 2.828125 18.3125 6.890625 
z
M 44.671875 27.296875 
Q 44.671875 37.75 41.375 43.0625 
Q 38.09375 48.390625 31.59375 48.390625 
Q 25.046875 48.390625 21.671875 43.046875 
Q 18.3125 37.703125 18.3125 27.296875 
Q 18.3125 16.9375 21.671875 11.5625 
Q 25.046875 6.203125 31.59375 6.203125 
Q 38.09375 6.203125 41.375 11.515625 
Q 44.671875 16.84375 44.671875 27.296875 
z
" id="DejaVuSansMono-112"/>
      <path d="M 56.390625 43.40625 
Q 53.515625 45.65625 50.53125 46.671875 
Q 47.5625 47.703125 44 47.703125 
Q 35.59375 47.703125 31.140625 42.421875 
Q 26.703125 37.15625 26.703125 27.203125 
L 26.703125 0 
L 17.671875 0 
L 17.671875 54.6875 
L 26.703125 54.6875 
L 26.703125 44 
Q 28.953125 49.8125 33.609375 52.90625 
Q 38.28125 56 44.671875 56 
Q 48 56 50.875 55.171875 
Q 53.765625 54.34375 56.390625 52.59375 
z
" id="DejaVuSansMono-114"/>
      <path d="M 30.078125 48.390625 
Q 23.25 48.390625 19.734375 43.0625 
Q 16.21875 37.75 16.21875 27.296875 
Q 16.21875 16.890625 19.734375 11.546875 
Q 23.25 6.203125 30.078125 6.203125 
Q 36.96875 6.203125 40.484375 11.546875 
Q 44 16.890625 44 27.296875 
Q 44 37.75 40.484375 43.0625 
Q 36.96875 48.390625 30.078125 48.390625 
z
M 30.078125 56 
Q 41.453125 56 47.484375 48.625 
Q 53.515625 41.265625 53.515625 27.296875 
Q 53.515625 13.28125 47.5 5.921875 
Q 41.5 -1.421875 30.078125 -1.421875 
Q 18.703125 -1.421875 12.6875 5.921875 
Q 6.6875 13.28125 6.6875 27.296875 
Q 6.6875 41.265625 12.6875 48.625 
Q 18.703125 56 30.078125 56 
z
" id="DejaVuSansMono-111"/>
      <path d="M 44.828125 27.296875 
Q 44.828125 37.75 41.5 43.0625 
Q 38.1875 48.390625 31.6875 48.390625 
Q 25.140625 48.390625 21.765625 43.046875 
Q 18.40625 37.703125 18.40625 27.296875 
Q 18.40625 16.9375 21.765625 11.5625 
Q 25.140625 6.203125 31.6875 6.203125 
Q 38.1875 6.203125 41.5 11.515625 
Q 44.828125 16.84375 44.828125 27.296875 
z
M 18.40625 47.703125 
Q 20.5625 51.703125 24.34375 53.84375 
Q 28.125 56 33.109375 56 
Q 42.96875 56 48.625 48.40625 
Q 54.296875 40.828125 54.296875 27.484375 
Q 54.296875 13.96875 48.609375 6.265625 
Q 42.921875 -1.421875 33.015625 -1.421875 
Q 28.125 -1.421875 24.390625 0.703125 
Q 20.65625 2.828125 18.40625 6.890625 
L 18.40625 0 
L 9.421875 0 
L 9.421875 75.984375 
L 18.40625 75.984375 
z
" id="DejaVuSansMono-98"/>
      <path d="M 31.203125 19.828125 
Q 31.203125 13.765625 33.421875 10.6875 
Q 35.640625 7.625 39.984375 7.625 
L 50.484375 7.625 
L 50.484375 0 
L 39.109375 0 
Q 31.0625 0 26.640625 5.171875 
Q 22.21875 10.359375 22.21875 19.828125 
L 22.21875 69.484375 
L 7.8125 69.484375 
L 7.8125 76.515625 
L 31.203125 76.515625 
z
" id="DejaVuSansMono-108"/>
      <path d="M 54.296875 29.59375 
L 54.296875 25.203125 
L 15.375 25.203125 
L 15.375 24.90625 
Q 15.375 15.96875 20.03125 11.078125 
Q 24.703125 6.203125 33.203125 6.203125 
Q 37.5 6.203125 42.1875 7.5625 
Q 46.875 8.9375 52.203125 11.71875 
L 52.203125 2.78125 
Q 47.078125 0.6875 42.3125 -0.359375 
Q 37.546875 -1.421875 33.109375 -1.421875 
Q 20.359375 -1.421875 13.171875 6.21875 
Q 6 13.875 6 27.296875 
Q 6 40.375 13.03125 48.1875 
Q 20.0625 56 31.78125 56 
Q 42.234375 56 48.265625 48.921875 
Q 54.296875 41.84375 54.296875 29.59375 
z
M 45.3125 32.234375 
Q 45.125 40.140625 41.578125 44.265625 
Q 38.03125 48.390625 31.390625 48.390625 
Q 24.90625 48.390625 20.703125 44.09375 
Q 16.5 39.796875 15.71875 32.171875 
z
" id="DejaVuSansMono-101"/>
      <path d="M 33.015625 49.125 
Q 34.671875 52.640625 37.234375 54.3125 
Q 39.796875 56 43.40625 56 
Q 50 56 52.703125 50.890625 
Q 55.421875 45.796875 55.421875 31.6875 
L 55.421875 0 
L 47.21875 0 
L 47.21875 31.296875 
Q 47.21875 42.875 45.921875 45.671875 
Q 44.625 48.484375 41.21875 48.484375 
Q 37.3125 48.484375 35.859375 45.484375 
Q 34.421875 42.484375 34.421875 31.296875 
L 34.421875 0 
L 26.21875 0 
L 26.21875 31.296875 
Q 26.21875 43.015625 24.828125 45.75 
Q 23.4375 48.484375 19.828125 48.484375 
Q 16.265625 48.484375 14.875 45.484375 
Q 13.484375 42.484375 13.484375 31.296875 
L 13.484375 0 
L 5.328125 0 
L 5.328125 54.6875 
L 13.484375 54.6875 
L 13.484375 50 
Q 15.09375 52.9375 17.5 54.46875 
Q 19.921875 56 23 56 
Q 26.703125 56 29.171875 54.296875 
Q 31.640625 52.59375 33.015625 49.125 
z
" id="DejaVuSansMono-109"/>
     </defs>
     <use xlink:href="#DejaVuSansMono-34"/>
     <use x="60.205078" xlink:href="#DejaVuSansMono-51"/>
     <use x="120.410156" xlink:href="#DejaVuSansMono-121"/>
     <use x="180.615234" xlink:href="#DejaVuSansMono-43"/>
     <use x="240.820312" xlink:href="#DejaVuSansMono-49"/>
     <use x="301.025391" xlink:href="#DejaVuSansMono-34"/>
     <use x="361.230469" xlink:href="#DejaVuSansMono-32"/>
     <use x="421.435547" xlink:href="#DejaVuSansMono-112"/>
     <use x="481.640625" xlink:href="#DejaVuSansMono-114"/>
     <use x="541.845703" xlink:href="#DejaVuSansMono-111"/>
     <use x="602.050781" xlink:href="#DejaVuSansMono-98"/>
     <use x="662.255859" xlink:href="#DejaVuSansMono-108"/>
     <use x="722.460938" xlink:href="#DejaVuSansMono-101"/>
     <use x="782.666016" xlink:href="#DejaVuSansMono-109"/>
    </g>
   </g>
   <g id="legend_1">
    <g id="patch_7">
     <path d="M 355.064062 82.0095 
L 450.12 82.0095 
Q 451.32 82.0095 451.32 80.8095 
L 451.32 22.189125 
Q 451.32 20.989125 450.12 20.989125 
L 355.064062 20.989125 
Q 353.864062 20.989125 353.864062 22.189125 
L 353.864062 80.8095 
Q 353.864062 82.0095 355.064062 82.0095 
z
" style="fill:#ffffff;opacity:0.8;stroke:#cccccc;stroke-linejoin:miter;"/>
    </g>
    <g id="line2d_15">
     <path d="M 356.264062 36.889687 
L 368.264062 36.889687 
" style="fill:none;stroke:#1f77b4;stroke-linecap:square;stroke-width:0.666667;"/>
    </g>
    <g id="line2d_16"/>
    <g id="text_16">
     <!-- "Tallest": -->
     <g transform="translate(373.064062 27.980062)scale(0.06 -0.06)">
      <defs>
       <path d="M 2.296875 72.90625 
L 57.90625 72.90625 
L 57.90625 64.59375 
L 35.109375 64.59375 
L 35.109375 0 
L 25.203125 0 
L 25.203125 64.59375 
L 2.296875 64.59375 
z
" id="DejaVuSansMono-84"/>
       <path d="M 34.28125 27.484375 
L 31.296875 27.484375 
Q 23.4375 27.484375 19.453125 24.71875 
Q 15.484375 21.96875 15.484375 16.5 
Q 15.484375 11.578125 18.453125 8.84375 
Q 21.4375 6.109375 26.703125 6.109375 
Q 34.125 6.109375 38.375 11.25 
Q 42.625 16.40625 42.671875 25.484375 
L 42.671875 27.484375 
z
M 51.703125 31.203125 
L 51.703125 0 
L 42.671875 0 
L 42.671875 8.109375 
Q 39.796875 3.21875 35.421875 0.890625 
Q 31.0625 -1.421875 24.8125 -1.421875 
Q 16.453125 -1.421875 11.46875 3.296875 
Q 6.5 8.015625 6.5 15.921875 
Q 6.5 25.046875 12.625 29.78125 
Q 18.75 34.515625 30.609375 34.515625 
L 42.671875 34.515625 
L 42.671875 35.9375 
Q 42.625 42.484375 39.34375 45.4375 
Q 36.078125 48.390625 28.90625 48.390625 
Q 24.3125 48.390625 19.625 47.0625 
Q 14.9375 45.75 10.5 43.21875 
L 10.5 52.203125 
Q 15.484375 54.109375 20.046875 55.046875 
Q 24.609375 56 28.90625 56 
Q 35.6875 56 40.5 54 
Q 45.3125 52 48.296875 48 
Q 50.140625 45.5625 50.921875 41.96875 
Q 51.703125 38.375 51.703125 31.203125 
z
" id="DejaVuSansMono-97"/>
       <path d="M 47.515625 52.78125 
L 47.515625 44 
Q 43.65625 46.234375 39.75 47.359375 
Q 35.84375 48.484375 31.78125 48.484375 
Q 25.6875 48.484375 22.671875 46.5 
Q 19.671875 44.53125 19.671875 40.484375 
Q 19.671875 36.8125 21.921875 35 
Q 24.171875 33.203125 33.109375 31.5 
L 36.71875 30.8125 
Q 43.40625 29.546875 46.84375 25.734375 
Q 50.296875 21.921875 50.296875 15.828125 
Q 50.296875 7.71875 44.53125 3.140625 
Q 38.765625 -1.421875 28.515625 -1.421875 
Q 24.46875 -1.421875 20.015625 -0.5625 
Q 15.578125 0.296875 10.40625 2 
L 10.40625 11.28125 
Q 15.4375 8.6875 20.015625 7.390625 
Q 24.609375 6.109375 28.71875 6.109375 
Q 34.671875 6.109375 37.9375 8.515625 
Q 41.21875 10.9375 41.21875 15.28125 
Q 41.21875 21.53125 29.25 23.921875 
L 28.859375 24.03125 
L 25.484375 24.703125 
Q 17.71875 26.21875 14.15625 29.8125 
Q 10.59375 33.40625 10.59375 39.59375 
Q 10.59375 47.46875 15.90625 51.734375 
Q 21.234375 56 31.109375 56 
Q 35.5 56 39.546875 55.1875 
Q 43.609375 54.390625 47.515625 52.78125 
z
" id="DejaVuSansMono-115"/>
       <path d="M 29.984375 70.21875 
L 29.984375 54.6875 
L 50.390625 54.6875 
L 50.390625 47.703125 
L 29.984375 47.703125 
L 29.984375 18.015625 
Q 29.984375 11.96875 32.28125 9.5625 
Q 34.578125 7.171875 40.28125 7.171875 
L 50.390625 7.171875 
L 50.390625 0 
L 39.40625 0 
Q 29.296875 0 25.140625 4.046875 
Q 21 8.109375 21 18.015625 
L 21 47.703125 
L 6.390625 47.703125 
L 6.390625 54.6875 
L 21 54.6875 
L 21 70.21875 
z
" id="DejaVuSansMono-116"/>
       <path d="M 23.875 51.90625 
L 36.1875 51.90625 
L 36.1875 37.109375 
L 23.875 37.109375 
z
M 23.875 14.890625 
L 36.1875 14.890625 
L 36.1875 0 
L 23.875 0 
z
" id="DejaVuSansMono-58"/>
      </defs>
      <use xlink:href="#DejaVuSansMono-34"/>
      <use x="60.205078" xlink:href="#DejaVuSansMono-84"/>
      <use x="120.410156" xlink:href="#DejaVuSansMono-97"/>
      <use x="180.615234" xlink:href="#DejaVuSansMono-108"/>
      <use x="240.820312" xlink:href="#DejaVuSansMono-108"/>
      <use x="301.025391" xlink:href="#DejaVuSansMono-101"/>
      <use x="361.230469" xlink:href="#DejaVuSansMono-115"/>
      <use x="421.435547" xlink:href="#DejaVuSansMono-116"/>
      <use x="481.640625" xlink:href="#DejaVuSansMono-34"/>
      <use x="541.845703" xlink:href="#DejaVuSansMono-58"/>
     </g>
     <!-- y_0    = 1988859 -->
     <g transform="translate(373.064062 34.737)scale(0.06 -0.06)">
      <defs>
       <path d="M 4.296875 25.59375 
L 55.90625 25.59375 
L 55.90625 17.1875 
L 4.296875 17.1875 
z
M 4.296875 45.40625 
L 55.90625 45.40625 
L 55.90625 37.109375 
L 4.296875 37.109375 
z
" id="DejaVuSansMono-61"/>
       <path d="M 30.078125 34.625 
Q 23.484375 34.625 19.890625 30.9375 
Q 16.3125 27.25 16.3125 20.515625 
Q 16.3125 13.765625 19.9375 10.03125 
Q 23.578125 6.296875 30.078125 6.296875 
Q 36.71875 6.296875 40.296875 9.984375 
Q 43.890625 13.671875 43.890625 20.515625 
Q 43.890625 27.203125 40.25 30.90625 
Q 36.625 34.625 30.078125 34.625 
z
M 21.484375 38.71875 
Q 15.1875 40.328125 11.640625 44.71875 
Q 8.109375 49.125 8.109375 55.328125 
Q 8.109375 64.015625 14.015625 69.109375 
Q 19.921875 74.21875 30.078125 74.21875 
Q 40.28125 74.21875 46.1875 69.109375 
Q 52.09375 64.015625 52.09375 55.328125 
Q 52.09375 49.125 48.546875 44.71875 
Q 45.015625 40.328125 38.71875 38.71875 
Q 46.046875 37.109375 49.921875 32.21875 
Q 53.8125 27.34375 53.8125 19.578125 
Q 53.8125 9.71875 47.515625 4.140625 
Q 41.21875 -1.421875 30.078125 -1.421875 
Q 18.953125 -1.421875 12.671875 4.125 
Q 6.390625 9.671875 6.390625 19.484375 
Q 6.390625 27.296875 10.265625 32.203125 
Q 14.15625 37.109375 21.484375 38.71875 
z
M 17.921875 54.390625 
Q 17.921875 48.53125 21.046875 45.453125 
Q 24.171875 42.390625 30.078125 42.390625 
Q 36.03125 42.390625 39.15625 45.453125 
Q 42.28125 48.53125 42.28125 54.390625 
Q 42.28125 60.359375 39.171875 63.484375 
Q 36.078125 66.609375 30.078125 66.609375 
Q 24.171875 66.609375 21.046875 63.453125 
Q 17.921875 60.296875 17.921875 54.390625 
z
" id="DejaVuSansMono-56"/>
      </defs>
      <use xlink:href="#DejaVuSansMono-121"/>
      <use x="60.205078" xlink:href="#DejaVuSansMono-95"/>
      <use x="120.410156" xlink:href="#DejaVuSansMono-48"/>
      <use x="180.615234" xlink:href="#DejaVuSansMono-32"/>
      <use x="240.820312" xlink:href="#DejaVuSansMono-32"/>
      <use x="301.025391" xlink:href="#DejaVuSansMono-32"/>
      <use x="361.230469" xlink:href="#DejaVuSansMono-32"/>
      <use x="421.435547" xlink:href="#DejaVuSansMono-61"/>
      <use x="481.640625" xlink:href="#DejaVuSansMono-32"/>
      <use x="541.845703" xlink:href="#DejaVuSansMono-49"/>
      <use x="602.050781" xlink:href="#DejaVuSansMono-57"/>
      <use x="662.255859" xlink:href="#DejaVuSansMono-56"/>
      <use x="722.460938" xlink:href="#DejaVuSansMono-56"/>
      <use x="782.666016" xlink:href="#DejaVuSansMono-56"/>
      <use x="842.871094" xlink:href="#DejaVuSansMono-53"/>
      <use x="903.076172" xlink:href="#DejaVuSansMono-57"/>
     </g>
     <!-- y_max  = 156914378224 -->
     <g transform="translate(373.064062 41.660812)scale(0.06 -0.06)">
      <defs>
       <path d="M 54.59375 54.6875 
L 35.015625 28.515625 
L 56.5 0 
L 46.09375 0 
L 30.078125 21.921875 
L 14.109375 0 
L 3.71875 0 
L 25.203125 28.515625 
L 5.609375 54.6875 
L 15.578125 54.6875 
L 30.078125 34.90625 
L 44.484375 54.6875 
z
" id="DejaVuSansMono-120"/>
       <path d="M 48.390625 71.296875 
L 48.390625 62.203125 
Q 45.3125 64.015625 41.84375 64.96875 
Q 38.375 65.921875 34.625 65.921875 
Q 25.25 65.921875 20.40625 58.859375 
Q 15.578125 51.8125 15.578125 38.09375 
Q 17.921875 42.96875 22.0625 45.578125 
Q 26.21875 48.1875 31.59375 48.1875 
Q 42.140625 48.1875 47.921875 41.71875 
Q 53.71875 35.25 53.71875 23.390625 
Q 53.71875 11.578125 47.75 5.078125 
Q 41.796875 -1.421875 31 -1.421875 
Q 18.3125 -1.421875 12.40625 7.6875 
Q 6.5 16.796875 6.5 36.375 
Q 6.5 54.828125 13.59375 64.515625 
Q 20.703125 74.21875 34.1875 74.21875 
Q 37.796875 74.21875 41.40625 73.453125 
Q 45.015625 72.703125 48.390625 71.296875 
z
M 30.8125 40.484375 
Q 24.515625 40.484375 20.890625 35.9375 
Q 17.28125 31.390625 17.28125 23.390625 
Q 17.28125 15.375 20.890625 10.828125 
Q 24.515625 6.296875 30.8125 6.296875 
Q 37.359375 6.296875 40.671875 10.609375 
Q 44 14.9375 44 23.390625 
Q 44 31.890625 40.671875 36.1875 
Q 37.359375 40.484375 30.8125 40.484375 
z
" id="DejaVuSansMono-54"/>
      </defs>
      <use xlink:href="#DejaVuSansMono-121"/>
      <use x="60.205078" xlink:href="#DejaVuSansMono-95"/>
      <use x="120.410156" xlink:href="#DejaVuSansMono-109"/>
      <use x="180.615234" xlink:href="#DejaVuSansMono-97"/>
      <use x="240.820312" xlink:href="#DejaVuSansMono-120"/>
      <use x="301.025391" xlink:href="#DejaVuSansMono-32"/>
      <use x="361.230469" xlink:href="#DejaVuSansMono-32"/>
      <use x="421.435547" xlink:href="#DejaVuSansMono-61"/>
      <use x="481.640625" xlink:href="#DejaVuSansMono-32"/>
      <use x="541.845703" xlink:href="#DejaVuSansMono-49"/>
      <use x="602.050781" xlink:href="#DejaVuSansMono-53"/>
      <use x="662.255859" xlink:href="#DejaVuSansMono-54"/>
      <use x="722.460938" xlink:href="#DejaVuSansMono-57"/>
      <use x="782.666016" xlink:href="#DejaVuSansMono-49"/>
      <use x="842.871094" xlink:href="#DejaVuSansMono-52"/>
      <use x="903.076172" xlink:href="#DejaVuSansMono-51"/>
      <use x="963.28125" xlink:href="#DejaVuSansMono-55"/>
      <use x="1023.486328" xlink:href="#DejaVuSansMono-56"/>
      <use x="1083.691406" xlink:href="#DejaVuSansMono-50"/>
      <use x="1143.896484" xlink:href="#DejaVuSansMono-50"/>
      <use x="1204.101562" xlink:href="#DejaVuSansMono-52"/>
     </g>
     <!-- x_max  = 428 -->
     <g transform="translate(373.064062 48.584625)scale(0.06 -0.06)">
      <use xlink:href="#DejaVuSansMono-120"/>
      <use x="60.205078" xlink:href="#DejaVuSansMono-95"/>
      <use x="120.410156" xlink:href="#DejaVuSansMono-109"/>
      <use x="180.615234" xlink:href="#DejaVuSansMono-97"/>
      <use x="240.820312" xlink:href="#DejaVuSansMono-120"/>
      <use x="301.025391" xlink:href="#DejaVuSansMono-32"/>
      <use x="361.230469" xlink:href="#DejaVuSansMono-32"/>
      <use x="421.435547" xlink:href="#DejaVuSansMono-61"/>
      <use x="481.640625" xlink:href="#DejaVuSansMono-32"/>
      <use x="541.845703" xlink:href="#DejaVuSansMono-52"/>
      <use x="602.050781" xlink:href="#DejaVuSansMono-50"/>
      <use x="662.255859" xlink:href="#DejaVuSansMono-56"/>
     </g>
    </g>
    <g id="line2d_17">
     <path d="M 356.264062 66.499875 
L 368.264062 66.499875 
" style="fill:none;stroke:#ff7f0e;stroke-linecap:square;stroke-width:0.666667;"/>
    </g>
    <g id="line2d_18"/>
    <g id="text_17">
     <!-- "Widest":  -->
     <g transform="translate(373.064062 57.59025)scale(0.06 -0.06)">
      <defs>
       <path d="M 0 72.90625 
L 9.625 72.90625 
L 16.609375 13.71875 
L 24.90625 52.875 
L 35.203125 52.875 
L 43.609375 13.625 
L 50.59375 72.90625 
L 60.203125 72.90625 
L 49.3125 0 
L 39.984375 0 
L 30.078125 43.3125 
L 20.21875 0 
L 10.890625 0 
z
" id="DejaVuSansMono-87"/>
       <path d="M 12.5 54.6875 
L 35.5 54.6875 
L 35.5 6.984375 
L 53.328125 6.984375 
L 53.328125 0 
L 8.6875 0 
L 8.6875 6.984375 
L 26.515625 6.984375 
L 26.515625 47.703125 
L 12.5 47.703125 
z
M 26.515625 75.984375 
L 35.5 75.984375 
L 35.5 64.59375 
L 26.515625 64.59375 
z
" id="DejaVuSansMono-105"/>
       <path d="M 41.890625 47.703125 
L 41.890625 75.984375 
L 50.875 75.984375 
L 50.875 0 
L 41.890625 0 
L 41.890625 6.890625 
Q 39.65625 2.828125 35.90625 0.703125 
Q 32.171875 -1.421875 27.296875 -1.421875 
Q 17.390625 -1.421875 11.6875 6.265625 
Q 6 13.96875 6 27.484375 
Q 6 40.828125 11.71875 48.40625 
Q 17.4375 56 27.296875 56 
Q 32.234375 56 35.984375 53.875 
Q 39.75 51.765625 41.890625 47.703125 
z
M 15.484375 27.296875 
Q 15.484375 16.84375 18.796875 11.515625 
Q 22.125 6.203125 28.609375 6.203125 
Q 35.109375 6.203125 38.5 11.5625 
Q 41.890625 16.9375 41.890625 27.296875 
Q 41.890625 37.703125 38.5 43.046875 
Q 35.109375 48.390625 28.609375 48.390625 
Q 22.125 48.390625 18.796875 43.0625 
Q 15.484375 37.75 15.484375 27.296875 
z
" id="DejaVuSansMono-100"/>
      </defs>
      <use xlink:href="#DejaVuSansMono-34"/>
      <use x="60.205078" xlink:href="#DejaVuSansMono-87"/>
      <use x="120.410156" xlink:href="#DejaVuSansMono-105"/>
      <use x="180.615234" xlink:href="#DejaVuSansMono-100"/>
      <use x="240.820312" xlink:href="#DejaVuSansMono-101"/>
      <use x="301.025391" xlink:href="#DejaVuSansMono-115"/>
      <use x="361.230469" xlink:href="#DejaVuSansMono-116"/>
      <use x="421.435547" xlink:href="#DejaVuSansMono-34"/>
      <use x="481.640625" xlink:href="#DejaVuSansMono-58"/>
      <use x="541.845703" xlink:href="#DejaVuSansMono-32"/>
     </g>
     <!-- y_0    = 2298025 -->
     <g transform="translate(373.064062 64.347187)scale(0.06 -0.06)">
      <use xlink:href="#DejaVuSansMono-121"/>
      <use x="60.205078" xlink:href="#DejaVuSansMono-95"/>
      <use x="120.410156" xlink:href="#DejaVuSansMono-48"/>
      <use x="180.615234" xlink:href="#DejaVuSansMono-32"/>
      <use x="240.820312" xlink:href="#DejaVuSansMono-32"/>
      <use x="301.025391" xlink:href="#DejaVuSansMono-32"/>
      <use x="361.230469" xlink:href="#DejaVuSansMono-32"/>
      <use x="421.435547" xlink:href="#DejaVuSansMono-61"/>
      <use x="481.640625" xlink:href="#DejaVuSansMono-32"/>
      <use x="541.845703" xlink:href="#DejaVuSansMono-50"/>
      <use x="602.050781" xlink:href="#DejaVuSansMono-50"/>
      <use x="662.255859" xlink:href="#DejaVuSansMono-57"/>
      <use x="722.460938" xlink:href="#DejaVuSansMono-56"/>
      <use x="782.666016" xlink:href="#DejaVuSansMono-48"/>
      <use x="842.871094" xlink:href="#DejaVuSansMono-50"/>
      <use x="903.076172" xlink:href="#DejaVuSansMono-53"/>
     </g>
     <!-- y_max  = 46571871940 -->
     <g transform="translate(373.064062 71.271)scale(0.06 -0.06)">
      <use xlink:href="#DejaVuSansMono-121"/>
      <use x="60.205078" xlink:href="#DejaVuSansMono-95"/>
      <use x="120.410156" xlink:href="#DejaVuSansMono-109"/>
      <use x="180.615234" xlink:href="#DejaVuSansMono-97"/>
      <use x="240.820312" xlink:href="#DejaVuSansMono-120"/>
      <use x="301.025391" xlink:href="#DejaVuSansMono-32"/>
      <use x="361.230469" xlink:href="#DejaVuSansMono-32"/>
      <use x="421.435547" xlink:href="#DejaVuSansMono-61"/>
      <use x="481.640625" xlink:href="#DejaVuSansMono-32"/>
      <use x="541.845703" xlink:href="#DejaVuSansMono-52"/>
      <use x="602.050781" xlink:href="#DejaVuSansMono-54"/>
      <use x="662.255859" xlink:href="#DejaVuSansMono-53"/>
      <use x="722.460938" xlink:href="#DejaVuSansMono-55"/>
      <use x="782.666016" xlink:href="#DejaVuSansMono-49"/>
      <use x="842.871094" xlink:href="#DejaVuSansMono-56"/>
      <use x="903.076172" xlink:href="#DejaVuSansMono-55"/>
      <use x="963.28125" xlink:href="#DejaVuSansMono-49"/>
      <use x="1023.486328" xlink:href="#DejaVuSansMono-57"/>
      <use x="1083.691406" xlink:href="#DejaVuSansMono-52"/>
      <use x="1143.896484" xlink:href="#DejaVuSansMono-48"/>
     </g>
     <!-- x_max  = 560 -->
     <g transform="translate(373.064062 78.194812)scale(0.06 -0.06)">
      <use xlink:href="#DejaVuSansMono-120"/>
      <use x="60.205078" xlink:href="#DejaVuSansMono-95"/>
      <use x="120.410156" xlink:href="#DejaVuSansMono-109"/>
      <use x="180.615234" xlink:href="#DejaVuSansMono-97"/>
      <use x="240.820312" xlink:href="#DejaVuSansMono-120"/>
      <use x="301.025391" xlink:href="#DejaVuSansMono-32"/>
      <use x="361.230469" xlink:href="#DejaVuSansMono-32"/>
      <use x="421.435547" xlink:href="#DejaVuSansMono-61"/>
      <use x="481.640625" xlink:href="#DejaVuSansMono-32"/>
      <use x="541.845703" xlink:href="#DejaVuSansMono-53"/>
      <use x="602.050781" xlink:href="#DejaVuSansMono-54"/>
      <use x="662.255859" xlink:href="#DejaVuSansMono-48"/>
     </g>
    </g>
   </g>
  </g>
 </g>
 <defs>
  <clipPath id="p74cc7cbd2d">
   <rect height="298.453375" width="418.46125" x="35.85875" y="17.989125"/>
  </clipPath>
 </defs>
</svg>
