<?xml version="1.0" encoding="utf-8" standalone="no"?>
<!DOCTYPE svg PUBLIC "-//W3C//DTD SVG 1.1//EN"
  "http://www.w3.org/Graphics/SVG/1.1/DTD/svg11.dtd">
<!-- Created with matplotlib (https://matplotlib.org/) -->
<svg height="345.6pt" version="1.1" viewBox="0 0 460.8 345.6" width="460.8pt" xmlns="http://www.w3.org/2000/svg" xmlns:xlink="http://www.w3.org/1999/xlink">
 <metadata>
  <rdf:RDF xmlns:cc="http://creativecommons.org/ns#" xmlns:dc="http://purl.org/dc/elements/1.1/" xmlns:rdf="http://www.w3.org/1999/02/22-rdf-syntax-ns#">
   <cc:Work>
    <dc:type rdf:resource="http://purl.org/dc/dcmitype/StillImage"/>
    <dc:date>2022-03-17T00:44:44.000097</dc:date>
    <dc:format>image/svg+xml</dc:format>
    <dc:creator>
     <cc:Agent>
      <dc:title>Matplotlib v3.3.2, https://matplotlib.org/</dc:title>
     </cc:Agent>
    </dc:creator>
   </cc:Work>
  </rdf:RDF>
 </metadata>
 <defs>
  <style type="text/css">*{stroke-linecap:butt;stroke-linejoin:round;}</style>
 </defs>
 <g id="figure_1">
  <g id="patch_1">
   <path d="M 0 345.6 
L 460.8 345.6 
L 460.8 0 
L 0 0 
z
" style="fill:#ffffff;"/>
  </g>
  <g id="axes_1">
   <g id="patch_2">
    <path d="M 35.85875 316.4425 
L 454.32 316.4425 
L 454.32 17.989125 
L 35.85875 17.989125 
z
" style="fill:#ffffff;"/>
   </g>
   <g id="matplotlib.axis_1">
    <g id="xtick_1">
     <g id="line2d_1">
      <defs>
       <path d="M 0 0 
L 0 3.5 
" id="mfada8e29a2" style="stroke:#000000;stroke-width:0.8;"/>
      </defs>
      <g>
       <use style="stroke:#000000;stroke-width:0.8;" x="54.879716" xlink:href="#mfada8e29a2" y="316.4425"/>
      </g>
     </g>
     <g id="text_1">
      <!-- 0 -->
      <g transform="translate(53.073622 328.033437)scale(0.06 -0.06)">
       <defs>
        <path d="M 23.578125 36.625 
Q 23.578125 39.3125 25.453125 41.265625 
Q 27.34375 43.21875 29.984375 43.21875 
Q 32.71875 43.21875 34.671875 41.265625 
Q 36.625 39.3125 36.625 36.625 
Q 36.625 33.890625 34.6875 31.984375 
Q 32.765625 30.078125 29.984375 30.078125 
Q 27.25 30.078125 25.40625 31.9375 
Q 23.578125 33.796875 23.578125 36.625 
z
M 30.078125 66.40625 
Q 23.1875 66.40625 19.796875 58.984375 
Q 16.40625 51.5625 16.40625 36.375 
Q 16.40625 21.234375 19.796875 13.8125 
Q 23.1875 6.390625 30.078125 6.390625 
Q 37.015625 6.390625 40.40625 13.8125 
Q 43.796875 21.234375 43.796875 36.375 
Q 43.796875 51.5625 40.40625 58.984375 
Q 37.015625 66.40625 30.078125 66.40625 
z
M 30.078125 74.21875 
Q 41.75 74.21875 47.734375 64.640625 
Q 53.71875 55.078125 53.71875 36.375 
Q 53.71875 17.71875 47.734375 8.140625 
Q 41.75 -1.421875 30.078125 -1.421875 
Q 18.40625 -1.421875 12.453125 8.140625 
Q 6.5 17.71875 6.5 36.375 
Q 6.5 55.078125 12.453125 64.640625 
Q 18.40625 74.21875 30.078125 74.21875 
z
" id="DejaVuSansMono-48"/>
       </defs>
       <use xlink:href="#DejaVuSansMono-48"/>
      </g>
     </g>
    </g>
    <g id="xtick_2">
     <g id="line2d_2">
      <g>
       <use style="stroke:#000000;stroke-width:0.8;" x="108.916551" xlink:href="#mfada8e29a2" y="316.4425"/>
      </g>
     </g>
     <g id="text_2">
      <!-- 100 -->
      <g transform="translate(103.49827 328.033437)scale(0.06 -0.06)">
       <defs>
        <path d="M 13.1875 8.296875 
L 28.515625 8.296875 
L 28.515625 64.015625 
L 12.015625 60.296875 
L 12.015625 69.28125 
L 28.421875 72.90625 
L 38.28125 72.90625 
L 38.28125 8.296875 
L 53.421875 8.296875 
L 53.421875 0 
L 13.1875 0 
z
" id="DejaVuSansMono-49"/>
       </defs>
       <use xlink:href="#DejaVuSansMono-49"/>
       <use x="60.205078" xlink:href="#DejaVuSansMono-48"/>
       <use x="120.410156" xlink:href="#DejaVuSansMono-48"/>
      </g>
     </g>
    </g>
    <g id="xtick_3">
     <g id="line2d_3">
      <g>
       <use style="stroke:#000000;stroke-width:0.8;" x="162.953386" xlink:href="#mfada8e29a2" y="316.4425"/>
      </g>
     </g>
     <g id="text_3">
      <!-- 200 -->
      <g transform="translate(157.535105 328.033437)scale(0.06 -0.06)">
       <defs>
        <path d="M 18.21875 8.296875 
L 51.703125 8.296875 
L 51.703125 0 
L 7.421875 0 
L 7.421875 8.296875 
Q 16.546875 17.921875 23.375 25.296875 
Q 30.21875 32.671875 32.8125 35.6875 
Q 37.703125 41.65625 39.40625 45.34375 
Q 41.109375 49.03125 41.109375 52.875 
Q 41.109375 58.984375 37.515625 62.453125 
Q 33.9375 65.921875 27.6875 65.921875 
Q 23.25 65.921875 18.359375 64.3125 
Q 13.484375 62.703125 8.015625 59.421875 
L 8.015625 69.390625 
Q 13.03125 71.78125 17.890625 73 
Q 22.75 74.21875 27.484375 74.21875 
Q 38.1875 74.21875 44.703125 68.53125 
Q 51.21875 62.84375 51.21875 53.609375 
Q 51.21875 48.921875 49.046875 44.234375 
Q 46.875 39.546875 42 33.890625 
Q 39.265625 30.71875 34.0625 25.09375 
Q 28.859375 19.484375 18.21875 8.296875 
z
" id="DejaVuSansMono-50"/>
       </defs>
       <use xlink:href="#DejaVuSansMono-50"/>
       <use x="60.205078" xlink:href="#DejaVuSansMono-48"/>
       <use x="120.410156" xlink:href="#DejaVuSansMono-48"/>
      </g>
     </g>
    </g>
    <g id="xtick_4">
     <g id="line2d_4">
      <g>
       <use style="stroke:#000000;stroke-width:0.8;" x="216.990221" xlink:href="#mfada8e29a2" y="316.4425"/>
      </g>
     </g>
     <g id="text_4">
      <!-- 300 -->
      <g transform="translate(211.57194 328.033437)scale(0.06 -0.06)">
       <defs>
        <path d="M 37.890625 39.015625 
Q 45.0625 37.109375 48.875 32.25 
Q 52.6875 27.390625 52.6875 20.125 
Q 52.6875 10.0625 45.921875 4.3125 
Q 39.15625 -1.421875 27.203125 -1.421875 
Q 22.171875 -1.421875 16.9375 -0.484375 
Q 11.71875 0.4375 6.6875 2.203125 
L 6.6875 12.015625 
Q 11.671875 9.421875 16.5 8.15625 
Q 21.34375 6.890625 26.125 6.890625 
Q 34.234375 6.890625 38.578125 10.546875 
Q 42.921875 14.203125 42.921875 21.09375 
Q 42.921875 27.4375 38.578125 31.171875 
Q 34.234375 34.90625 26.8125 34.90625 
L 19.28125 34.90625 
L 19.28125 43.015625 
L 26.8125 43.015625 
Q 33.59375 43.015625 37.40625 45.984375 
Q 41.21875 48.96875 41.21875 54.296875 
Q 41.21875 59.90625 37.671875 62.90625 
Q 34.125 65.921875 27.59375 65.921875 
Q 23.25 65.921875 18.609375 64.9375 
Q 13.96875 63.96875 8.890625 62.015625 
L 8.890625 71.09375 
Q 14.796875 72.65625 19.40625 73.4375 
Q 24.03125 74.21875 27.59375 74.21875 
Q 38.234375 74.21875 44.609375 68.875 
Q 50.984375 63.53125 50.984375 54.6875 
Q 50.984375 48.6875 47.625 44.671875 
Q 44.28125 40.671875 37.890625 39.015625 
z
" id="DejaVuSansMono-51"/>
       </defs>
       <use xlink:href="#DejaVuSansMono-51"/>
       <use x="60.205078" xlink:href="#DejaVuSansMono-48"/>
       <use x="120.410156" xlink:href="#DejaVuSansMono-48"/>
      </g>
     </g>
    </g>
    <g id="xtick_5">
     <g id="line2d_5">
      <g>
       <use style="stroke:#000000;stroke-width:0.8;" x="271.027056" xlink:href="#mfada8e29a2" y="316.4425"/>
      </g>
     </g>
     <g id="text_5">
      <!-- 400 -->
      <g transform="translate(265.608775 328.033437)scale(0.06 -0.06)">
       <defs>
        <path d="M 35.890625 63.921875 
L 12.890625 25.390625 
L 35.890625 25.390625 
z
M 34.28125 72.90625 
L 45.703125 72.90625 
L 45.703125 25.390625 
L 55.421875 25.390625 
L 55.421875 17.390625 
L 45.703125 17.390625 
L 45.703125 0 
L 35.890625 0 
L 35.890625 17.390625 
L 4.984375 17.390625 
L 4.984375 26.703125 
z
" id="DejaVuSansMono-52"/>
       </defs>
       <use xlink:href="#DejaVuSansMono-52"/>
       <use x="60.205078" xlink:href="#DejaVuSansMono-48"/>
       <use x="120.410156" xlink:href="#DejaVuSansMono-48"/>
      </g>
     </g>
    </g>
    <g id="xtick_6">
     <g id="line2d_6">
      <g>
       <use style="stroke:#000000;stroke-width:0.8;" x="325.063891" xlink:href="#mfada8e29a2" y="316.4425"/>
      </g>
     </g>
     <g id="text_6">
      <!-- 500 -->
      <g transform="translate(319.64561 328.033437)scale(0.06 -0.06)">
       <defs>
        <path d="M 10.109375 72.90625 
L 47.015625 72.90625 
L 47.015625 64.59375 
L 19.09375 64.59375 
L 19.09375 46.6875 
Q 21.1875 47.46875 23.3125 47.828125 
Q 25.4375 48.1875 27.59375 48.1875 
Q 38.921875 48.1875 45.5625 41.5 
Q 52.203125 34.8125 52.203125 23.390625 
Q 52.203125 11.859375 45.234375 5.21875 
Q 38.28125 -1.421875 26.21875 -1.421875 
Q 20.40625 -1.421875 15.59375 -0.640625 
Q 10.796875 0.140625 6.984375 1.703125 
L 6.984375 11.71875 
Q 11.46875 9.28125 16.015625 8.078125 
Q 20.5625 6.890625 25.296875 6.890625 
Q 33.453125 6.890625 37.859375 11.1875 
Q 42.28125 15.484375 42.28125 23.390625 
Q 42.28125 31.203125 37.71875 35.546875 
Q 33.15625 39.890625 25 39.890625 
Q 21.046875 39.890625 17.28125 38.984375 
Q 13.53125 38.09375 10.109375 36.28125 
z
" id="DejaVuSansMono-53"/>
       </defs>
       <use xlink:href="#DejaVuSansMono-53"/>
       <use x="60.205078" xlink:href="#DejaVuSansMono-48"/>
       <use x="120.410156" xlink:href="#DejaVuSansMono-48"/>
      </g>
     </g>
    </g>
    <g id="xtick_7">
     <g id="line2d_7">
      <g>
       <use style="stroke:#000000;stroke-width:0.8;" x="379.100726" xlink:href="#mfada8e29a2" y="316.4425"/>
      </g>
     </g>
     <g id="text_7">
      <!-- 600 -->
      <g transform="translate(373.682444 328.033437)scale(0.06 -0.06)">
       <defs>
        <path d="M 48.390625 71.296875 
L 48.390625 62.203125 
Q 45.3125 64.015625 41.84375 64.96875 
Q 38.375 65.921875 34.625 65.921875 
Q 25.25 65.921875 20.40625 58.859375 
Q 15.578125 51.8125 15.578125 38.09375 
Q 17.921875 42.96875 22.0625 45.578125 
Q 26.21875 48.1875 31.59375 48.1875 
Q 42.140625 48.1875 47.921875 41.71875 
Q 53.71875 35.25 53.71875 23.390625 
Q 53.71875 11.578125 47.75 5.078125 
Q 41.796875 -1.421875 31 -1.421875 
Q 18.3125 -1.421875 12.40625 7.6875 
Q 6.5 16.796875 6.5 36.375 
Q 6.5 54.828125 13.59375 64.515625 
Q 20.703125 74.21875 34.1875 74.21875 
Q 37.796875 74.21875 41.40625 73.453125 
Q 45.015625 72.703125 48.390625 71.296875 
z
M 30.8125 40.484375 
Q 24.515625 40.484375 20.890625 35.9375 
Q 17.28125 31.390625 17.28125 23.390625 
Q 17.28125 15.375 20.890625 10.828125 
Q 24.515625 6.296875 30.8125 6.296875 
Q 37.359375 6.296875 40.671875 10.609375 
Q 44 14.9375 44 23.390625 
Q 44 31.890625 40.671875 36.1875 
Q 37.359375 40.484375 30.8125 40.484375 
z
" id="DejaVuSansMono-54"/>
       </defs>
       <use xlink:href="#DejaVuSansMono-54"/>
       <use x="60.205078" xlink:href="#DejaVuSansMono-48"/>
       <use x="120.410156" xlink:href="#DejaVuSansMono-48"/>
      </g>
     </g>
    </g>
    <g id="xtick_8">
     <g id="line2d_8">
      <g>
       <use style="stroke:#000000;stroke-width:0.8;" x="433.137561" xlink:href="#mfada8e29a2" y="316.4425"/>
      </g>
     </g>
     <g id="text_8">
      <!-- 700 -->
      <g transform="translate(427.719279 328.033437)scale(0.06 -0.06)">
       <defs>
        <path d="M 6.78125 72.90625 
L 52.6875 72.90625 
L 52.6875 68.703125 
L 26.609375 0 
L 16.3125 0 
L 41.703125 64.59375 
L 6.78125 64.59375 
z
" id="DejaVuSansMono-55"/>
       </defs>
       <use xlink:href="#DejaVuSansMono-55"/>
       <use x="60.205078" xlink:href="#DejaVuSansMono-48"/>
       <use x="120.410156" xlink:href="#DejaVuSansMono-48"/>
      </g>
     </g>
    </g>
    <g id="text_9">
     <!-- n -->
     <g transform="translate(243.283281 337.872187)scale(0.06 -0.06)">
      <defs>
       <path d="M 51.3125 33.890625 
L 51.3125 0 
L 42.28125 0 
L 42.28125 33.890625 
Q 42.28125 41.265625 39.6875 44.71875 
Q 37.109375 48.1875 31.59375 48.1875 
Q 25.296875 48.1875 21.890625 43.71875 
Q 18.5 39.265625 18.5 30.90625 
L 18.5 0 
L 9.515625 0 
L 9.515625 54.6875 
L 18.5 54.6875 
L 18.5 46.484375 
Q 20.90625 51.171875 25 53.578125 
Q 29.109375 56 34.71875 56 
Q 43.0625 56 47.1875 50.5 
Q 51.3125 45.015625 51.3125 33.890625 
z
" id="DejaVuSansMono-110"/>
      </defs>
      <use xlink:href="#DejaVuSansMono-110"/>
     </g>
    </g>
   </g>
   <g id="matplotlib.axis_2">
    <g id="ytick_1">
     <g id="line2d_9">
      <defs>
       <path d="M 0 0 
L -3.5 0 
" id="m5499c45c35" style="stroke:#000000;stroke-width:0.8;"/>
      </defs>
      <g>
       <use style="stroke:#000000;stroke-width:0.8;" x="35.85875" xlink:href="#m5499c45c35" y="284.146728"/>
      </g>
     </g>
     <g id="text_10">
      <!-- $\mathdefault{10^{1}}$ -->
      <g transform="translate(18.83875 286.442196)scale(0.06 -0.06)">
       <use transform="translate(0 0.684375)" xlink:href="#DejaVuSansMono-49"/>
       <use transform="translate(60.205078 0.684375)" xlink:href="#DejaVuSansMono-48"/>
       <use transform="translate(121.367188 38.965625)scale(0.7)" xlink:href="#DejaVuSansMono-49"/>
      </g>
     </g>
    </g>
    <g id="ytick_2">
     <g id="line2d_10">
      <g>
       <use style="stroke:#000000;stroke-width:0.8;" x="35.85875" xlink:href="#m5499c45c35" y="246.687308"/>
      </g>
     </g>
     <g id="text_11">
      <!-- $\mathdefault{10^{3}}$ -->
      <g transform="translate(18.83875 248.982776)scale(0.06 -0.06)">
       <use transform="translate(0 0.765625)" xlink:href="#DejaVuSansMono-49"/>
       <use transform="translate(60.205078 0.765625)" xlink:href="#DejaVuSansMono-48"/>
       <use transform="translate(121.367188 39.046875)scale(0.7)" xlink:href="#DejaVuSansMono-51"/>
      </g>
     </g>
    </g>
    <g id="ytick_3">
     <g id="line2d_11">
      <g>
       <use style="stroke:#000000;stroke-width:0.8;" x="35.85875" xlink:href="#m5499c45c35" y="209.227888"/>
      </g>
     </g>
     <g id="text_12">
      <!-- $\mathdefault{10^{5}}$ -->
      <g transform="translate(18.83875 211.523356)scale(0.06 -0.06)">
       <use transform="translate(0 0.684375)" xlink:href="#DejaVuSansMono-49"/>
       <use transform="translate(60.205078 0.684375)" xlink:href="#DejaVuSansMono-48"/>
       <use transform="translate(121.367188 38.965625)scale(0.7)" xlink:href="#DejaVuSansMono-53"/>
      </g>
     </g>
    </g>
    <g id="ytick_4">
     <g id="line2d_12">
      <g>
       <use style="stroke:#000000;stroke-width:0.8;" x="35.85875" xlink:href="#m5499c45c35" y="171.768468"/>
      </g>
     </g>
     <g id="text_13">
      <!-- $\mathdefault{10^{7}}$ -->
      <g transform="translate(18.83875 174.063937)scale(0.06 -0.06)">
       <use transform="translate(0 0.684375)" xlink:href="#DejaVuSansMono-49"/>
       <use transform="translate(60.205078 0.684375)" xlink:href="#DejaVuSansMono-48"/>
       <use transform="translate(121.367188 38.965625)scale(0.7)" xlink:href="#DejaVuSansMono-55"/>
      </g>
     </g>
    </g>
    <g id="ytick_5">
     <g id="line2d_13">
      <g>
       <use style="stroke:#000000;stroke-width:0.8;" x="35.85875" xlink:href="#m5499c45c35" y="134.309048"/>
      </g>
     </g>
     <g id="text_14">
      <!-- $\mathdefault{10^{9}}$ -->
      <g transform="translate(18.83875 136.604517)scale(0.06 -0.06)">
       <defs>
        <path d="M 29.109375 32.328125 
Q 35.40625 32.328125 38.984375 36.859375 
Q 42.578125 41.40625 42.578125 49.421875 
Q 42.578125 57.421875 38.984375 61.953125 
Q 35.40625 66.5 29.109375 66.5 
Q 22.5625 66.5 19.234375 62.171875 
Q 15.921875 57.859375 15.921875 49.421875 
Q 15.921875 40.921875 19.21875 36.625 
Q 22.515625 32.328125 29.109375 32.328125 
z
M 11.53125 1.515625 
L 11.53125 10.59375 
Q 14.59375 8.796875 18.0625 7.84375 
Q 21.53125 6.890625 25.296875 6.890625 
Q 34.671875 6.890625 39.46875 13.9375 
Q 44.28125 21 44.28125 34.71875 
Q 42 29.828125 37.84375 27.21875 
Q 33.6875 24.609375 28.328125 24.609375 
Q 17.78125 24.609375 11.984375 31.09375 
Q 6.203125 37.59375 6.203125 49.515625 
Q 6.203125 61.28125 12.125 67.75 
Q 18.0625 74.21875 28.90625 74.21875 
Q 41.609375 74.21875 47.515625 65.078125 
Q 53.421875 55.953125 53.421875 36.375 
Q 53.421875 17.96875 46.3125 8.265625 
Q 39.203125 -1.421875 25.6875 -1.421875 
Q 22.125 -1.421875 18.5 -0.65625 
Q 14.890625 0.09375 11.53125 1.515625 
z
" id="DejaVuSansMono-57"/>
       </defs>
       <use transform="translate(0 0.765625)" xlink:href="#DejaVuSansMono-49"/>
       <use transform="translate(60.205078 0.765625)" xlink:href="#DejaVuSansMono-48"/>
       <use transform="translate(121.367188 39.046875)scale(0.7)" xlink:href="#DejaVuSansMono-57"/>
      </g>
     </g>
    </g>
    <g id="ytick_6">
     <g id="line2d_14">
      <g>
       <use style="stroke:#000000;stroke-width:0.8;" x="35.85875" xlink:href="#m5499c45c35" y="96.849628"/>
      </g>
     </g>
     <g id="text_15">
      <!-- $\mathdefault{10^{11}}$ -->
      <g transform="translate(16.31875 99.145097)scale(0.06 -0.06)">
       <use transform="translate(0 0.684375)" xlink:href="#DejaVuSansMono-49"/>
       <use transform="translate(60.205078 0.684375)" xlink:href="#DejaVuSansMono-48"/>
       <use transform="translate(121.367188 38.965625)scale(0.7)" xlink:href="#DejaVuSansMono-49"/>
       <use transform="translate(163.510742 38.965625)scale(0.7)" xlink:href="#DejaVuSansMono-49"/>
      </g>
     </g>
    </g>
    <g id="ytick_7">
     <g id="line2d_15">
      <g>
       <use style="stroke:#000000;stroke-width:0.8;" x="35.85875" xlink:href="#m5499c45c35" y="59.390208"/>
      </g>
     </g>
     <g id="text_16">
      <!-- $\mathdefault{10^{13}}$ -->
      <g transform="translate(16.31875 61.685677)scale(0.06 -0.06)">
       <use transform="translate(0 0.765625)" xlink:href="#DejaVuSansMono-49"/>
       <use transform="translate(60.205078 0.765625)" xlink:href="#DejaVuSansMono-48"/>
       <use transform="translate(121.367188 39.046875)scale(0.7)" xlink:href="#DejaVuSansMono-49"/>
       <use transform="translate(163.510742 39.046875)scale(0.7)" xlink:href="#DejaVuSansMono-51"/>
      </g>
     </g>
    </g>
    <g id="ytick_8">
     <g id="line2d_16">
      <g>
       <use style="stroke:#000000;stroke-width:0.8;" x="35.85875" xlink:href="#m5499c45c35" y="21.930788"/>
      </g>
     </g>
     <g id="text_17">
      <!-- $\mathdefault{10^{15}}$ -->
      <g transform="translate(16.31875 24.226257)scale(0.06 -0.06)">
       <use transform="translate(0 0.684375)" xlink:href="#DejaVuSansMono-49"/>
       <use transform="translate(60.205078 0.684375)" xlink:href="#DejaVuSansMono-48"/>
       <use transform="translate(121.367188 38.965625)scale(0.7)" xlink:href="#DejaVuSansMono-49"/>
       <use transform="translate(163.510742 38.965625)scale(0.7)" xlink:href="#DejaVuSansMono-53"/>
      </g>
     </g>
    </g>
    <g id="text_18">
     <!-- y_n -->
     <g transform="translate(10.904063 172.634094)rotate(-90)scale(0.06 -0.06)">
      <defs>
       <path d="M 41.890625 17.578125 
Q 39.65625 11.859375 36.1875 2.546875 
Q 31.34375 -10.359375 29.6875 -13.1875 
Q 27.4375 -17 24.0625 -18.890625 
Q 20.703125 -20.796875 16.21875 -20.796875 
L 8.984375 -20.796875 
L 8.984375 -13.28125 
L 14.3125 -13.28125 
Q 18.265625 -13.28125 20.5 -10.984375 
Q 22.75 -8.6875 26.21875 0.875 
L 5.078125 54.6875 
L 14.59375 54.6875 
L 30.8125 11.921875 
L 46.78125 54.6875 
L 56.296875 54.6875 
z
" id="DejaVuSansMono-121"/>
       <path d="M 60.203125 -19.671875 
L 60.203125 -23.578125 
L 0 -23.578125 
L 0 -19.671875 
z
" id="DejaVuSansMono-95"/>
      </defs>
      <use xlink:href="#DejaVuSansMono-121"/>
      <use x="60.205078" xlink:href="#DejaVuSansMono-95"/>
      <use x="120.410156" xlink:href="#DejaVuSansMono-110"/>
     </g>
    </g>
   </g>
   <g id="line2d_17">
    <path clip-path="url(#p7763fc61dc)" d="M 54.879716 166.278676 
L 55.420084 157.342333 
L 55.960453 162.980538 
L 56.500821 154.044195 
L 57.041189 159.682399 
L 57.581558 150.746057 
L 58.121926 156.384261 
L 58.662294 147.447918 
L 59.202663 153.086123 
L 59.743031 144.14978 
L 60.283399 149.787985 
L 60.823768 140.851642 
L 61.364136 146.489846 
L 61.904504 137.553504 
L 62.985241 148.829913 
L 63.52561 139.89357 
L 65.146715 156.808183 
L 65.687083 147.871841 
L 66.227451 153.510045 
L 66.76782 144.573702 
L 67.308188 150.211907 
L 67.848556 141.275564 
L 68.388925 146.913769 
L 68.929293 137.977426 
L 70.01003 149.253835 
L 70.550398 140.317492 
L 71.631135 151.593901 
L 72.171503 142.657559 
L 73.25224 153.933968 
L 73.792608 144.997625 
L 74.332976 150.635829 
L 74.873345 141.699487 
L 75.413713 147.337691 
L 75.954082 138.401348 
L 76.49445 144.039553 
L 77.034818 135.10321 
L 77.575187 140.741415 
L 78.115555 131.805072 
L 78.655923 137.443276 
L 79.196292 128.506934 
L 79.73666 134.145138 
L 80.277028 125.208795 
L 80.817397 130.847 
L 81.357765 121.910657 
L 81.898133 127.548862 
L 82.438502 118.612519 
L 82.97887 124.250724 
L 83.519238 115.314381 
L 84.599975 126.59079 
L 85.140343 117.654447 
L 85.680712 123.292652 
L 86.22108 114.356309 
L 86.761449 119.994513 
L 87.301817 111.058171 
L 88.382554 122.33458 
L 88.922922 113.398237 
L 89.46329 119.036442 
L 90.003659 110.100099 
L 90.544027 115.738303 
L 91.084395 106.801961 
L 93.245869 129.354779 
L 93.786237 120.418436 
L 94.326605 126.05664 
L 94.866974 117.120298 
L 95.407342 122.758502 
L 95.94771 113.822159 
L 96.488079 119.460364 
L 97.028447 110.524021 
L 98.109184 121.80043 
L 98.649552 112.864088 
L 99.189921 118.502292 
L 99.730289 109.565949 
L 100.811026 120.842358 
L 101.351394 111.906016 
L 101.891762 117.54422 
L 102.432131 108.607877 
L 102.972499 114.246082 
L 103.512867 105.309739 
L 104.593604 116.586148 
L 105.133972 107.649806 
L 107.295446 130.202624 
L 107.835814 121.266281 
L 108.376183 126.904485 
L 108.916551 117.968143 
L 109.456919 123.606347 
L 109.997288 114.670004 
L 111.078024 125.946413 
L 111.618393 117.010071 
L 112.699129 128.28648 
L 113.239498 119.350137 
L 113.779866 124.988342 
L 114.320234 116.051999 
L 115.400971 127.328408 
L 115.941339 118.392065 
L 117.022076 129.668474 
L 117.562444 120.732131 
L 118.102813 126.370336 
L 118.643181 117.433993 
L 119.18355 123.072198 
L 119.723918 114.135855 
L 121.345023 131.050469 
L 121.885391 122.114126 
L 122.42576 127.75233 
L 122.966128 118.815988 
L 124.587233 135.730601 
L 125.127601 126.794258 
L 126.208338 138.070667 
L 126.748706 129.134325 
L 127.829443 140.410734 
L 128.369811 131.474391 
L 129.450548 142.7508 
L 129.990917 133.814457 
L 130.531285 139.452662 
L 131.071653 130.516319 
L 131.612022 136.154524 
L 132.15239 127.218181 
L 133.233127 138.49459 
L 133.773495 129.558247 
L 134.313863 135.196452 
L 134.854232 126.260109 
L 135.3946 131.898313 
L 135.934968 122.961971 
L 136.475337 128.600175 
L 137.015705 119.663833 
L 137.556073 125.302037 
L 138.096442 116.365694 
L 138.63681 122.003899 
L 139.177178 113.067556 
L 139.717547 118.705761 
L 140.257915 109.769418 
L 140.798284 115.407622 
L 141.338652 106.47128 
L 142.959757 123.385893 
L 143.500125 114.449551 
L 144.580862 125.72596 
L 145.12123 116.789617 
L 146.742335 133.70423 
L 147.282704 124.767888 
L 147.823072 130.406092 
L 148.36344 121.469749 
L 148.903809 127.107954 
L 149.444177 118.171611 
L 149.984545 123.809816 
L 150.524914 114.873473 
L 151.065282 120.511677 
L 151.605651 111.575335 
L 152.146019 117.213539 
L 152.686387 108.277197 
L 154.307492 125.19181 
L 154.847861 116.255467 
L 155.388229 121.893672 
L 155.928597 112.957329 
L 156.468966 118.595534 
L 157.009334 109.659191 
L 158.090071 120.9356 
L 158.630439 111.999257 
L 159.170807 117.637462 
L 159.711176 108.701119 
L 160.251544 114.339324 
L 160.791912 105.402981 
L 161.332281 111.041185 
L 161.872649 102.104843 
L 162.953386 113.381252 
L 163.493754 104.444909 
L 164.574491 115.721318 
L 165.114859 106.784975 
L 165.655228 112.42318 
L 166.195596 103.486837 
L 166.735964 109.125042 
L 167.276333 100.188699 
L 168.357069 111.465108 
L 168.897438 102.528765 
L 169.437806 108.16697 
L 169.978174 99.230627 
L 171.058911 110.507036 
L 171.599279 101.570693 
L 172.139648 107.208898 
L 172.680016 98.272555 
L 173.220384 103.910759 
L 173.760753 94.974417 
L 174.301121 100.612621 
L 174.84149 91.676279 
L 175.381858 97.314483 
L 175.922226 88.37814 
L 176.462595 94.016345 
L 177.002963 85.080002 
L 177.543331 90.718207 
L 178.0837 81.781864 
L 178.624068 87.420068 
L 179.164436 78.483726 
L 180.245173 89.760135 
L 180.785541 80.823792 
L 181.866278 92.100201 
L 182.406646 83.163858 
L 182.947015 88.802063 
L 183.487383 79.86572 
L 184.027751 85.503925 
L 184.56812 76.567582 
L 185.648857 87.843991 
L 186.189225 78.907648 
L 186.729593 84.545853 
L 187.269962 75.60951 
L 187.81033 81.247715 
L 188.350698 72.311372 
L 190.512172 94.86419 
L 191.05254 85.927847 
L 191.592908 91.566052 
L 192.133277 82.629709 
L 192.673645 88.267913 
L 193.214013 79.331571 
L 193.754382 84.969775 
L 194.29475 76.033432 
L 194.835118 81.671637 
L 195.375487 72.735294 
L 195.915855 78.373499 
L 196.456224 69.437156 
L 197.53696 80.713565 
L 198.077329 71.777222 
L 198.617697 77.415427 
L 199.158065 68.479084 
L 199.698434 74.117289 
L 200.238802 65.180946 
L 200.77917 70.81915 
L 201.319539 61.882808 
L 201.859907 67.521012 
L 202.400275 58.58467 
L 204.561749 81.137488 
L 205.102117 72.201145 
L 205.642485 77.839349 
L 206.182854 68.903007 
L 207.803959 85.81762 
L 208.344327 76.881277 
L 208.884696 82.519482 
L 209.425064 73.583139 
L 210.505801 84.859548 
L 211.046169 75.923206 
L 211.586537 81.56141 
L 212.126906 72.625067 
L 212.667274 78.263272 
L 213.207642 69.326929 
L 214.288379 80.603338 
L 214.828747 71.666995 
L 215.369116 77.3052 
L 215.909484 68.368857 
L 216.449852 74.007062 
L 216.990221 65.070719 
L 217.530589 70.708924 
L 218.070958 61.772581 
L 218.611326 67.410785 
L 219.151694 58.474443 
L 219.692063 64.112647 
L 220.232431 55.176304 
L 220.772799 60.814509 
L 221.313168 51.878166 
L 222.393904 63.154575 
L 222.934273 54.218232 
L 224.015009 65.494641 
L 224.555378 56.558299 
L 225.636114 67.834708 
L 226.176483 58.898365 
L 226.716851 64.53657 
L 227.257219 55.600227 
L 227.797588 61.238431 
L 228.337956 52.302089 
L 229.418693 63.578498 
L 229.959061 54.642155 
L 230.49943 60.280359 
L 231.039798 51.344017 
L 231.580166 56.982221 
L 232.120535 48.045879 
L 232.660903 53.684083 
L 233.201271 44.74774 
L 233.74164 50.385945 
L 234.282008 41.449602 
L 234.822376 47.087807 
L 235.362745 38.151464 
L 235.903113 43.789668 
L 236.443481 34.853326 
L 236.98385 40.49153 
L 237.524218 31.555187 
L 239.145323 48.469801 
L 239.685692 39.533458 
L 241.847165 62.086276 
L 242.387533 53.149934 
L 242.927902 58.788138 
L 243.46827 49.851795 
L 244.008638 55.49 
L 244.549007 46.553657 
L 245.089375 52.191862 
L 245.629743 43.255519 
L 248.871953 77.084746 
L 249.412322 68.148403 
L 249.95269 73.786608 
L 250.493058 64.850265 
L 251.033427 70.48847 
L 251.573795 61.552127 
L 252.114164 67.190331 
L 252.654532 58.253989 
L 253.735269 69.530398 
L 254.275637 60.594055 
L 258.598584 105.699691 
L 259.138952 96.763348 
L 262.921531 136.23078 
L 263.461899 127.294437 
L 265.083004 144.209051 
L 265.623372 135.272708 
L 266.163741 140.910912 
L 266.704109 131.97457 
L 267.784846 143.250979 
L 268.325214 134.314636 
L 269.946319 151.22925 
L 270.486687 142.292907 
L 271.027056 147.931111 
L 271.567424 138.994769 
L 272.648161 150.271178 
L 273.188529 141.334835 
L 274.269266 152.611244 
L 274.809634 143.674901 
L 275.350003 149.313106 
L 275.890371 140.376763 
L 276.430739 146.014967 
L 276.971108 137.078625 
L 277.511476 142.716829 
L 278.051844 133.780487 
L 278.592213 139.418691 
L 279.132581 130.482348 
L 281.294054 153.035166 
L 281.834423 144.098824 
L 282.374791 149.737028 
L 282.915159 140.800685 
L 285.076633 163.353503 
L 285.617001 154.417161 
L 287.238106 171.331774 
L 287.778475 162.395431 
L 289.39958 179.310045 
L 289.939948 170.373701 
L 291.020685 181.65011 
L 291.561053 172.713767 
L 292.101421 178.351971 
L 292.64179 169.415628 
L 294.803263 191.968446 
L 295.343632 183.0321 
L 295.884 188.670304 
L 296.424368 179.733959 
L 298.045473 196.648573 
L 298.585842 187.712225 
L 299.12621 193.350429 
L 299.666578 184.414082 
L 300.206947 190.052287 
L 300.747315 181.115942 
L 301.287683 186.754146 
L 301.828052 177.817802 
L 302.908788 189.094211 
L 303.449157 180.157866 
L 303.989525 185.79607 
L 304.529893 176.859726 
L 305.070262 182.497931 
L 305.61063 173.561587 
L 306.691367 184.837996 
L 307.231735 175.901652 
L 307.772104 181.539856 
L 308.312472 172.603513 
L 311.014314 200.794535 
L 311.554682 191.858183 
L 312.09505 197.496387 
L 312.635419 188.560038 
L 313.716155 199.836447 
L 314.256524 190.900096 
L 314.796892 196.538301 
L 315.33726 187.601952 
L 315.877629 193.240157 
L 316.417997 184.30381 
L 316.958366 189.942015 
L 317.498734 181.005669 
L 319.119839 197.920283 
L 319.660207 188.983933 
L 320.740944 200.260342 
L 321.281312 191.323991 
L 322.362049 202.6004 
L 322.902417 193.664045 
L 323.983154 204.940454 
L 324.523522 196.004095 
L 325.063891 201.6423 
L 325.604259 192.705946 
L 326.144627 198.344151 
L 326.684996 189.407801 
L 328.306101 206.322415 
L 328.846469 197.386053 
L 329.386838 203.024257 
L 329.927206 194.087902 
L 331.548311 211.002516 
L 332.088679 202.066139 
L 332.629048 207.704344 
L 333.169416 198.767978 
L 333.709784 204.406183 
L 334.250153 195.469825 
L 334.790521 201.10803 
L 335.330889 192.171677 
L 338.032731 220.3627 
L 338.573099 211.42625 
L 339.113468 217.064455 
L 339.653836 208.128041 
L 340.194205 213.766246 
L 340.734573 204.829855 
L 341.274941 210.46806 
L 341.81531 201.531686 
L 342.355678 207.16989 
L 342.896046 198.233526 
L 346.138256 232.062753 
L 346.678625 223.125962 
L 349.920835 256.955189 
L 350.461203 248.009271 
L 351.001572 253.647475 
L 351.54194 244.704755 
L 352.622677 255.981164 
L 353.163045 247.036326 
L 353.703413 252.674531 
L 354.243782 243.732529 
L 354.78415 249.370734 
L 355.324518 240.430621 
L 355.864887 246.068826 
L 356.405255 237.12997 
L 356.945623 242.768175 
L 357.485992 233.830158 
L 358.02636 239.468362 
L 358.566728 230.530903 
L 360.187833 247.445517 
L 360.728202 238.506198 
L 361.26857 244.144403 
L 361.808939 235.206077 
L 362.349307 240.844281 
L 362.889675 231.906617 
L 363.430044 237.544821 
L 363.970412 228.607597 
L 366.131885 251.160415 
L 366.672254 242.219375 
L 367.75299 253.495784 
L 368.293359 244.553182 
L 369.374095 255.829591 
L 369.914464 246.884909 
L 372.075937 269.437728 
L 372.616306 260.457057 
L 374.237411 277.37167 
L 374.777779 268.318286 
L 375.318147 273.956491 
L 375.858516 264.943046 
L 376.398884 270.581251 
L 376.939252 261.59391 
L 379.641094 289.784932 
L 380.181462 280.323619 
L 382.342936 302.876437 
L 382.342936 302.876437 
" style="fill:none;stroke:#1f77b4;stroke-linecap:square;stroke-width:0.666667;"/>
   </g>
   <g id="line2d_18">
    <path clip-path="url(#p7763fc61dc)" d="M 54.879716 168.082146 
L 55.420084 159.145803 
L 55.960453 164.784008 
L 56.500821 155.847665 
L 57.041189 161.485869 
L 57.581558 152.549526 
L 58.662294 163.825935 
L 59.202663 154.889593 
L 60.283399 166.166002 
L 60.823768 157.229659 
L 61.904504 168.506068 
L 62.444873 159.569725 
L 63.52561 170.846134 
L 64.065978 161.909791 
L 65.146715 173.1862 
L 65.687083 164.249857 
L 66.227451 169.888061 
L 66.76782 160.951719 
L 67.308188 166.589923 
L 67.848556 157.65358 
L 68.388925 163.291785 
L 68.929293 154.355442 
L 69.469661 159.993646 
L 70.01003 151.057304 
L 70.550398 156.695508 
L 71.090766 147.759165 
L 71.631135 153.39737 
L 72.171503 144.461027 
L 73.25224 155.737436 
L 73.792608 146.801093 
L 74.332976 152.439298 
L 74.873345 143.502955 
L 75.413713 149.14116 
L 75.954082 140.204817 
L 76.49445 145.843021 
L 77.034818 136.906679 
L 77.575187 142.544883 
L 78.115555 133.60854 
L 78.655923 139.246745 
L 79.196292 130.310402 
L 80.817397 147.225016 
L 81.357765 138.288673 
L 81.898133 143.926878 
L 82.438502 134.990535 
L 83.519238 146.266944 
L 84.059607 137.330601 
L 84.599975 142.968806 
L 85.140343 134.032463 
L 86.761449 150.947076 
L 87.301817 142.010734 
L 87.842185 147.648938 
L 88.382554 138.712595 
L 88.922922 144.3508 
L 89.46329 135.414457 
L 90.003659 141.052662 
L 90.544027 132.116319 
L 91.084395 137.754524 
L 91.624764 128.818181 
L 92.7055 140.09459 
L 93.245869 131.158247 
L 93.786237 136.796452 
L 94.326605 127.860109 
L 95.407342 139.136518 
L 95.94771 130.200175 
L 97.028447 141.476584 
L 97.568816 132.540242 
L 98.109184 138.178446 
L 98.649552 129.242103 
L 99.189921 134.880308 
L 99.730289 125.943965 
L 100.270657 131.58217 
L 100.811026 122.645827 
L 101.351394 128.284031 
L 101.891762 119.347689 
L 102.972499 130.624098 
L 103.512867 121.687755 
L 104.593604 132.964164 
L 105.133972 124.027821 
L 105.674341 129.666026 
L 106.214709 120.729683 
L 107.295446 132.006092 
L 107.835814 123.069749 
L 108.376183 128.707954 
L 108.916551 119.771611 
L 109.456919 125.409816 
L 109.997288 116.473473 
L 110.537656 122.111677 
L 111.078024 113.175335 
L 111.618393 118.813539 
L 112.158761 109.877197 
L 113.239498 121.153606 
L 113.779866 112.217263 
L 114.320234 117.855467 
L 114.860603 108.919125 
L 115.941339 120.195534 
L 116.481708 111.259191 
L 117.562444 122.5356 
L 118.102813 113.599257 
L 118.643181 119.237462 
L 119.18355 110.301119 
L 121.345023 132.853937 
L 121.885391 123.917594 
L 123.506496 140.832208 
L 124.046865 131.895865 
L 124.587233 137.53407 
L 125.127601 128.597727 
L 126.748706 145.51234 
L 127.289075 136.575998 
L 128.369811 147.852407 
L 128.91018 138.916064 
L 129.450548 144.554268 
L 129.990917 135.617926 
L 130.531285 141.25613 
L 131.071653 132.319788 
L 131.612022 137.957992 
L 132.15239 129.021649 
L 132.692758 134.659854 
L 133.233127 125.723511 
L 134.313863 136.99992 
L 134.854232 128.063577 
L 136.475337 144.978191 
L 137.015705 136.041848 
L 137.556073 141.680053 
L 138.096442 132.74371 
L 138.63681 138.381914 
L 139.177178 129.445572 
L 139.717547 135.083776 
L 140.257915 126.147434 
L 140.798284 131.785638 
L 141.338652 122.849295 
L 141.87902 128.4875 
L 142.419389 119.551157 
L 142.959757 125.189362 
L 143.500125 116.253019 
L 144.040494 121.891223 
L 144.580862 112.954881 
L 145.661599 124.23129 
L 146.201967 115.294947 
L 147.282704 126.571356 
L 147.823072 117.635013 
L 148.903809 128.911422 
L 149.444177 119.97508 
L 149.984545 125.613284 
L 150.524914 116.676941 
L 151.605651 127.95335 
L 152.146019 119.017008 
L 153.767124 135.931621 
L 154.307492 126.995279 
L 154.847861 132.633483 
L 155.388229 123.69714 
L 155.928597 129.335345 
L 156.468966 120.399002 
L 157.009334 126.037207 
L 157.549702 117.100864 
L 158.090071 122.739068 
L 158.630439 113.802726 
L 159.170807 119.44093 
L 159.711176 110.504587 
L 160.791912 121.780996 
L 161.332281 112.844654 
L 161.872649 118.482858 
L 162.413017 109.546516 
L 162.953386 115.18472 
L 163.493754 106.248377 
L 164.034123 111.886582 
L 164.574491 102.950239 
L 165.114859 108.588444 
L 165.655228 99.652101 
L 166.195596 105.290305 
L 166.735964 96.353963 
L 167.276333 101.992167 
L 167.816701 93.055825 
L 170.518543 121.246847 
L 171.058911 112.310504 
L 171.599279 117.948709 
L 172.139648 109.012366 
L 172.680016 114.650571 
L 173.220384 105.714228 
L 173.760753 111.352432 
L 174.301121 102.41609 
L 176.462595 124.968908 
L 177.002963 116.032565 
L 177.543331 121.67077 
L 178.0837 112.734427 
L 180.245173 135.287245 
L 180.785541 126.350902 
L 181.866278 137.627311 
L 182.406646 128.690968 
L 183.487383 139.967377 
L 184.027751 131.031035 
L 184.56812 136.669239 
L 185.108488 127.732896 
L 186.729593 144.64751 
L 187.269962 135.711167 
L 189.431435 158.263985 
L 189.971803 149.327643 
L 191.05254 160.604052 
L 191.592908 151.667709 
L 192.673645 162.944118 
L 193.214013 154.007775 
L 193.754382 159.64598 
L 194.29475 150.709637 
L 195.375487 161.986046 
L 195.915855 153.049703 
L 196.456224 158.687907 
L 196.996592 149.751565 
L 197.53696 155.389769 
L 198.077329 146.453426 
L 198.617697 152.091631 
L 199.158065 143.155288 
L 199.698434 148.793493 
L 200.238802 139.85715 
L 200.77917 145.495354 
L 201.319539 136.559012 
L 202.940644 153.473625 
L 203.481012 144.537283 
L 204.02138 150.175487 
L 204.561749 141.239144 
L 205.102117 146.877349 
L 205.642485 137.941006 
L 206.182854 143.579211 
L 206.723222 134.642868 
L 207.263591 140.281072 
L 207.803959 131.34473 
L 208.344327 136.982934 
L 208.884696 128.046591 
L 209.425064 133.684796 
L 209.965432 124.748453 
L 210.505801 130.386658 
L 211.046169 121.450315 
L 211.586537 127.08852 
L 212.126906 118.152177 
L 213.207642 129.428586 
L 213.748011 120.492243 
L 215.909484 143.045061 
L 216.449852 134.108718 
L 219.151694 162.299741 
L 219.692063 153.363398 
L 221.313168 170.278012 
L 221.853536 161.341669 
L 222.393904 166.979873 
L 222.934273 158.04353 
L 223.474641 163.681735 
L 224.015009 154.745392 
L 224.555378 160.383597 
L 225.095746 151.447254 
L 225.636114 157.085458 
L 226.176483 148.149116 
L 226.716851 153.78732 
L 227.257219 144.850977 
L 228.337956 156.127386 
L 228.878325 147.191044 
L 229.418693 152.829248 
L 229.959061 143.892905 
L 230.49943 149.53111 
L 231.039798 140.594767 
L 231.580166 146.232972 
L 232.120535 137.296629 
L 232.660903 142.934833 
L 233.201271 133.998491 
L 233.74164 139.636695 
L 234.282008 130.700352 
L 235.903113 147.614966 
L 236.443481 138.678623 
L 237.524218 149.955032 
L 238.064586 141.01869 
L 238.604955 146.656894 
L 239.145323 137.720551 
L 239.685692 143.358756 
L 240.22606 134.422413 
L 242.387533 156.975231 
L 242.927902 148.038888 
L 244.549007 164.953502 
L 245.089375 156.017159 
L 246.170112 167.293568 
L 246.71048 158.357225 
L 247.791217 169.633634 
L 248.331585 160.697291 
L 248.871953 166.335496 
L 249.412322 157.399153 
L 250.493058 168.675562 
L 251.033427 159.739219 
L 252.114164 171.015628 
L 252.654532 162.079285 
L 253.735269 173.355694 
L 254.275637 164.419351 
L 254.816005 170.057556 
L 255.356374 161.121213 
L 255.896742 166.759417 
L 256.43711 157.823074 
L 256.977479 163.461279 
L 257.517847 154.524936 
L 259.138952 171.43955 
L 259.67932 162.503207 
L 260.219689 168.141411 
L 260.760057 159.205068 
L 261.840794 170.481477 
L 262.381162 161.545134 
L 263.461899 172.821543 
L 264.002267 163.8852 
L 264.542636 169.523405 
L 265.083004 160.587062 
L 266.163741 171.863471 
L 266.704109 162.927128 
L 268.325214 179.841741 
L 268.865582 170.905398 
L 269.946319 182.181807 
L 270.486687 173.245463 
L 271.027056 178.883668 
L 271.567424 169.947324 
L 273.728898 192.500142 
L 274.269266 183.563796 
L 274.809634 189.202001 
L 275.350003 180.265656 
L 275.890371 185.90386 
L 276.430739 176.967516 
L 277.511476 188.243925 
L 278.051844 179.30758 
L 279.672949 196.222194 
L 280.213318 187.285846 
L 281.294054 198.562255 
L 281.834423 189.625904 
L 282.915159 200.902314 
L 283.455528 191.965961 
L 283.995896 197.604166 
L 284.536265 188.667816 
L 285.617001 199.944225 
L 286.15737 191.007874 
L 286.697738 196.646078 
L 287.238106 187.70973 
L 287.778475 193.347935 
L 288.318843 184.411588 
L 288.859211 190.049792 
L 289.39958 181.113447 
L 289.939948 186.751652 
L 290.480316 177.815307 
L 291.020685 183.453512 
L 291.561053 174.517168 
L 292.101421 180.155372 
L 292.64179 171.219029 
L 293.182158 176.857233 
L 293.722526 167.92089 
L 294.803263 179.197299 
L 295.343632 170.260956 
L 295.884 175.89916 
L 296.424368 166.962817 
L 298.045473 183.877431 
L 298.585842 174.941087 
L 299.12621 180.579291 
L 299.666578 171.642948 
L 300.747315 182.919357 
L 301.287683 173.983013 
L 302.908788 190.897627 
L 303.449157 181.961281 
L 303.989525 187.599485 
L 304.529893 178.663141 
L 305.070262 184.301345 
L 305.61063 175.365001 
L 306.150999 181.003206 
L 306.691367 172.066862 
L 310.473945 211.534294 
L 311.014314 202.597915 
L 311.554682 208.23612 
L 312.09505 199.299753 
L 312.635419 204.937957 
L 313.175787 196.001599 
L 313.716155 201.639803 
L 314.256524 192.70345 
L 315.33726 203.979859 
L 315.877629 195.043502 
L 316.958366 206.319911 
L 317.498734 197.383549 
L 318.039102 203.021754 
L 318.579471 194.085398 
L 319.119839 199.723603 
L 319.660207 190.787252 
L 320.200576 196.425456 
L 320.740944 187.489108 
L 321.281312 193.127312 
L 321.821681 184.190966 
L 322.362049 189.829171 
L 322.902417 180.892825 
L 323.442786 186.53103 
L 323.983154 177.594685 
L 325.063891 188.871094 
L 325.604259 179.93475 
L 326.144627 185.572954 
L 326.684996 176.63661 
L 327.225364 182.274814 
L 327.765733 173.338471 
L 328.306101 178.976675 
L 328.846469 170.040332 
L 329.386838 175.678536 
L 329.927206 166.742193 
L 330.467574 172.380398 
L 331.007943 163.444055 
L 332.629048 180.358668 
L 333.169416 171.422325 
L 334.250153 182.698734 
L 334.790521 173.76239 
L 335.871258 185.038799 
L 336.411626 176.102455 
L 336.951994 181.740659 
L 337.492363 172.804316 
L 338.032731 178.44252 
L 338.573099 169.506177 
L 339.113468 175.144381 
L 339.653836 166.208038 
L 340.194205 171.846243 
L 340.734573 162.9099 
L 341.81531 174.186309 
L 342.355678 165.249966 
L 342.896046 170.88817 
L 343.436415 161.951827 
L 343.976783 167.590032 
L 344.517151 158.653689 
L 347.218993 186.844711 
L 347.759361 177.908367 
L 348.840098 189.184776 
L 349.380466 180.248431 
L 350.461203 191.52484 
L 351.001572 182.588494 
L 352.082308 193.864903 
L 352.622677 184.928556 
L 354.243782 201.84317 
L 354.78415 192.906816 
L 356.405255 209.82143 
L 356.945623 200.885058 
L 357.485992 206.523262 
L 358.02636 197.5869 
L 360.728202 225.777923 
L 361.26857 216.841373 
L 362.349307 228.117782 
L 362.889675 219.181162 
L 364.51078 236.095776 
L 365.051149 227.158696 
L 366.672254 244.073309 
L 367.212622 235.135001 
L 367.75299 240.773205 
L 368.293359 231.835552 
L 371.535569 265.664779 
L 372.075937 256.700532 
L 373.156674 267.976941 
L 373.697042 259.00354 
L 374.777779 270.279949 
L 375.318147 261.294457 
L 375.858516 266.932661 
L 376.398884 257.963717 
L 376.939252 263.601921 
L 377.479621 254.643916 
L 379.100726 271.55853 
L 379.641094 262.564701 
L 380.181462 268.202906 
L 380.721831 259.228463 
L 381.262199 264.866668 
L 381.802567 255.905024 
L 382.342936 261.543229 
L 382.883304 252.590063 
L 383.964041 263.866472 
L 384.504409 254.907751 
L 385.585146 266.18416 
L 386.125514 257.218077 
L 386.665883 262.856281 
L 387.206251 253.900171 
L 388.286988 265.17658 
L 388.827356 256.213956 
L 389.367724 261.85216 
L 389.908093 252.898343 
L 390.448461 258.536548 
L 390.988829 249.588576 
L 392.069566 260.864985 
L 392.609934 251.913164 
L 393.150303 257.551368 
L 393.690671 248.604723 
L 394.23104 254.242927 
L 394.771408 245.299723 
L 395.311776 250.937927 
L 395.852145 241.997014 
L 396.932881 253.273423 
L 397.47325 244.330989 
L 399.094355 261.245603 
L 399.634723 252.29304 
L 400.175091 257.931245 
L 400.71546 248.984107 
L 401.255828 254.622311 
L 401.796196 245.67878 
L 402.876933 256.955189 
L 403.417301 248.009271 
L 403.95767 253.647475 
L 404.498038 244.704755 
L 405.578775 255.981164 
L 406.119143 247.036326 
L 406.659512 252.674531 
L 407.19988 243.732529 
L 407.740248 249.370734 
L 408.280617 240.430621 
L 408.820985 246.068826 
L 409.361353 237.12997 
L 409.901722 242.768175 
L 410.44209 233.830158 
L 410.982458 239.468362 
L 411.522827 230.530903 
L 413.143932 247.445517 
L 413.6843 238.506198 
L 414.224668 244.144403 
L 414.765037 235.206077 
L 415.305405 240.844281 
L 415.845774 231.906617 
L 416.386142 237.544821 
L 416.92651 228.607597 
L 419.087984 251.160415 
L 419.628352 242.219375 
L 420.709089 253.495784 
L 421.249457 244.553182 
L 422.330194 255.829591 
L 422.870562 246.884909 
L 425.032035 269.437728 
L 425.572404 260.457057 
L 427.193509 277.37167 
L 427.733877 268.318286 
L 428.274246 273.956491 
L 428.814614 264.943046 
L 429.354982 270.581251 
L 429.895351 261.59391 
L 432.597192 289.784932 
L 433.137561 280.323619 
L 435.299034 302.876437 
L 435.299034 302.876437 
" style="fill:none;stroke:#ff7f0e;stroke-linecap:square;stroke-width:0.666667;"/>
   </g>
   <g id="patch_3">
    <path d="M 35.85875 316.4425 
L 35.85875 17.989125 
" style="fill:none;stroke:#000000;stroke-linecap:square;stroke-linejoin:miter;stroke-width:0.8;"/>
   </g>
   <g id="patch_4">
    <path d="M 454.32 316.4425 
L 454.32 17.989125 
" style="fill:none;stroke:#000000;stroke-linecap:square;stroke-linejoin:miter;stroke-width:0.8;"/>
   </g>
   <g id="patch_5">
    <path d="M 35.85875 316.4425 
L 454.32 316.4425 
" style="fill:none;stroke:#000000;stroke-linecap:square;stroke-linejoin:miter;stroke-width:0.8;"/>
   </g>
   <g id="patch_6">
    <path d="M 35.85875 17.989125 
L 454.32 17.989125 
" style="fill:none;stroke:#000000;stroke-linecap:square;stroke-linejoin:miter;stroke-width:0.8;"/>
   </g>
   <g id="text_19">
    <!-- "3y+1" problem -->
    <g transform="translate(214.747 11.989125)scale(0.072 -0.072)">
     <defs>
      <path d="M 43.703125 72.90625 
L 43.703125 45.796875 
L 35.203125 45.796875 
L 35.203125 72.90625 
z
M 25 72.90625 
L 25 45.796875 
L 16.5 45.796875 
L 16.5 72.90625 
z
" id="DejaVuSansMono-34"/>
      <path d="M 34.1875 57.171875 
L 34.1875 35.5 
L 55.90625 35.5 
L 55.90625 27.203125 
L 34.1875 27.203125 
L 34.1875 5.515625 
L 25.984375 5.515625 
L 25.984375 27.203125 
L 4.296875 27.203125 
L 4.296875 35.5 
L 25.984375 35.5 
L 25.984375 57.171875 
z
" id="DejaVuSansMono-43"/>
      <path id="DejaVuSansMono-32"/>
      <path d="M 18.3125 6.890625 
L 18.3125 -20.796875 
L 9.28125 -20.796875 
L 9.28125 54.6875 
L 18.3125 54.6875 
L 18.3125 47.703125 
Q 20.5625 51.765625 24.296875 53.875 
Q 28.03125 56 32.90625 56 
Q 42.828125 56 48.46875 48.328125 
Q 54.109375 40.671875 54.109375 27.09375 
Q 54.109375 13.765625 48.4375 6.171875 
Q 42.78125 -1.421875 32.90625 -1.421875 
Q 27.9375 -1.421875 24.1875 0.703125 
Q 20.453125 2.828125 18.3125 6.890625 
z
M 44.671875 27.296875 
Q 44.671875 37.75 41.375 43.0625 
Q 38.09375 48.390625 31.59375 48.390625 
Q 25.046875 48.390625 21.671875 43.046875 
Q 18.3125 37.703125 18.3125 27.296875 
Q 18.3125 16.9375 21.671875 11.5625 
Q 25.046875 6.203125 31.59375 6.203125 
Q 38.09375 6.203125 41.375 11.515625 
Q 44.671875 16.84375 44.671875 27.296875 
z
" id="DejaVuSansMono-112"/>
      <path d="M 56.390625 43.40625 
Q 53.515625 45.65625 50.53125 46.671875 
Q 47.5625 47.703125 44 47.703125 
Q 35.59375 47.703125 31.140625 42.421875 
Q 26.703125 37.15625 26.703125 27.203125 
L 26.703125 0 
L 17.671875 0 
L 17.671875 54.6875 
L 26.703125 54.6875 
L 26.703125 44 
Q 28.953125 49.8125 33.609375 52.90625 
Q 38.28125 56 44.671875 56 
Q 48 56 50.875 55.171875 
Q 53.765625 54.34375 56.390625 52.59375 
z
" id="DejaVuSansMono-114"/>
      <path d="M 30.078125 48.390625 
Q 23.25 48.390625 19.734375 43.0625 
Q 16.21875 37.75 16.21875 27.296875 
Q 16.21875 16.890625 19.734375 11.546875 
Q 23.25 6.203125 30.078125 6.203125 
Q 36.96875 6.203125 40.484375 11.546875 
Q 44 16.890625 44 27.296875 
Q 44 37.75 40.484375 43.0625 
Q 36.96875 48.390625 30.078125 48.390625 
z
M 30.078125 56 
Q 41.453125 56 47.484375 48.625 
Q 53.515625 41.265625 53.515625 27.296875 
Q 53.515625 13.28125 47.5 5.921875 
Q 41.5 -1.421875 30.078125 -1.421875 
Q 18.703125 -1.421875 12.6875 5.921875 
Q 6.6875 13.28125 6.6875 27.296875 
Q 6.6875 41.265625 12.6875 48.625 
Q 18.703125 56 30.078125 56 
z
" id="DejaVuSansMono-111"/>
      <path d="M 44.828125 27.296875 
Q 44.828125 37.75 41.5 43.0625 
Q 38.1875 48.390625 31.6875 48.390625 
Q 25.140625 48.390625 21.765625 43.046875 
Q 18.40625 37.703125 18.40625 27.296875 
Q 18.40625 16.9375 21.765625 11.5625 
Q 25.140625 6.203125 31.6875 6.203125 
Q 38.1875 6.203125 41.5 11.515625 
Q 44.828125 16.84375 44.828125 27.296875 
z
M 18.40625 47.703125 
Q 20.5625 51.703125 24.34375 53.84375 
Q 28.125 56 33.109375 56 
Q 42.96875 56 48.625 48.40625 
Q 54.296875 40.828125 54.296875 27.484375 
Q 54.296875 13.96875 48.609375 6.265625 
Q 42.921875 -1.421875 33.015625 -1.421875 
Q 28.125 -1.421875 24.390625 0.703125 
Q 20.65625 2.828125 18.40625 6.890625 
L 18.40625 0 
L 9.421875 0 
L 9.421875 75.984375 
L 18.40625 75.984375 
z
" id="DejaVuSansMono-98"/>
      <path d="M 31.203125 19.828125 
Q 31.203125 13.765625 33.421875 10.6875 
Q 35.640625 7.625 39.984375 7.625 
L 50.484375 7.625 
L 50.484375 0 
L 39.109375 0 
Q 31.0625 0 26.640625 5.171875 
Q 22.21875 10.359375 22.21875 19.828125 
L 22.21875 69.484375 
L 7.8125 69.484375 
L 7.8125 76.515625 
L 31.203125 76.515625 
z
" id="DejaVuSansMono-108"/>
      <path d="M 54.296875 29.59375 
L 54.296875 25.203125 
L 15.375 25.203125 
L 15.375 24.90625 
Q 15.375 15.96875 20.03125 11.078125 
Q 24.703125 6.203125 33.203125 6.203125 
Q 37.5 6.203125 42.1875 7.5625 
Q 46.875 8.9375 52.203125 11.71875 
L 52.203125 2.78125 
Q 47.078125 0.6875 42.3125 -0.359375 
Q 37.546875 -1.421875 33.109375 -1.421875 
Q 20.359375 -1.421875 13.171875 6.21875 
Q 6 13.875 6 27.296875 
Q 6 40.375 13.03125 48.1875 
Q 20.0625 56 31.78125 56 
Q 42.234375 56 48.265625 48.921875 
Q 54.296875 41.84375 54.296875 29.59375 
z
M 45.3125 32.234375 
Q 45.125 40.140625 41.578125 44.265625 
Q 38.03125 48.390625 31.390625 48.390625 
Q 24.90625 48.390625 20.703125 44.09375 
Q 16.5 39.796875 15.71875 32.171875 
z
" id="DejaVuSansMono-101"/>
      <path d="M 33.015625 49.125 
Q 34.671875 52.640625 37.234375 54.3125 
Q 39.796875 56 43.40625 56 
Q 50 56 52.703125 50.890625 
Q 55.421875 45.796875 55.421875 31.6875 
L 55.421875 0 
L 47.21875 0 
L 47.21875 31.296875 
Q 47.21875 42.875 45.921875 45.671875 
Q 44.625 48.484375 41.21875 48.484375 
Q 37.3125 48.484375 35.859375 45.484375 
Q 34.421875 42.484375 34.421875 31.296875 
L 34.421875 0 
L 26.21875 0 
L 26.21875 31.296875 
Q 26.21875 43.015625 24.828125 45.75 
Q 23.4375 48.484375 19.828125 48.484375 
Q 16.265625 48.484375 14.875 45.484375 
Q 13.484375 42.484375 13.484375 31.296875 
L 13.484375 0 
L 5.328125 0 
L 5.328125 54.6875 
L 13.484375 54.6875 
L 13.484375 50 
Q 15.09375 52.9375 17.5 54.46875 
Q 19.921875 56 23 56 
Q 26.703125 56 29.171875 54.296875 
Q 31.640625 52.59375 33.015625 49.125 
z
" id="DejaVuSansMono-109"/>
     </defs>
     <use xlink:href="#DejaVuSansMono-34"/>
     <use x="60.205078" xlink:href="#DejaVuSansMono-51"/>
     <use x="120.410156" xlink:href="#DejaVuSansMono-121"/>
     <use x="180.615234" xlink:href="#DejaVuSansMono-43"/>
     <use x="240.820312" xlink:href="#DejaVuSansMono-49"/>
     <use x="301.025391" xlink:href="#DejaVuSansMono-34"/>
     <use x="361.230469" xlink:href="#DejaVuSansMono-32"/>
     <use x="421.435547" xlink:href="#DejaVuSansMono-112"/>
     <use x="481.640625" xlink:href="#DejaVuSansMono-114"/>
     <use x="541.845703" xlink:href="#DejaVuSansMono-111"/>
     <use x="602.050781" xlink:href="#DejaVuSansMono-98"/>
     <use x="662.255859" xlink:href="#DejaVuSansMono-108"/>
     <use x="722.460938" xlink:href="#DejaVuSansMono-101"/>
     <use x="782.666016" xlink:href="#DejaVuSansMono-109"/>
    </g>
   </g>
   <g id="legend_1">
    <g id="patch_7">
     <path d="M 344.2275 82.0095 
L 450.12 82.0095 
Q 451.32 82.0095 451.32 80.8095 
L 451.32 22.189125 
Q 451.32 20.989125 450.12 20.989125 
L 344.2275 20.989125 
Q 343.0275 20.989125 343.0275 22.189125 
L 343.0275 80.8095 
Q 343.0275 82.0095 344.2275 82.0095 
z
" style="fill:#ffffff;opacity:0.8;stroke:#cccccc;stroke-linejoin:miter;"/>
    </g>
    <g id="line2d_19">
     <path d="M 345.4275 36.889687 
L 357.4275 36.889687 
" style="fill:none;stroke:#1f77b4;stroke-linecap:square;stroke-width:0.666667;"/>
    </g>
    <g id="line2d_20"/>
    <g id="text_20">
     <!-- "Tallest": -->
     <g transform="translate(362.2275 27.980062)scale(0.06 -0.06)">
      <defs>
       <path d="M 2.296875 72.90625 
L 57.90625 72.90625 
L 57.90625 64.59375 
L 35.109375 64.59375 
L 35.109375 0 
L 25.203125 0 
L 25.203125 64.59375 
L 2.296875 64.59375 
z
" id="DejaVuSansMono-84"/>
       <path d="M 34.28125 27.484375 
L 31.296875 27.484375 
Q 23.4375 27.484375 19.453125 24.71875 
Q 15.484375 21.96875 15.484375 16.5 
Q 15.484375 11.578125 18.453125 8.84375 
Q 21.4375 6.109375 26.703125 6.109375 
Q 34.125 6.109375 38.375 11.25 
Q 42.625 16.40625 42.671875 25.484375 
L 42.671875 27.484375 
z
M 51.703125 31.203125 
L 51.703125 0 
L 42.671875 0 
L 42.671875 8.109375 
Q 39.796875 3.21875 35.421875 0.890625 
Q 31.0625 -1.421875 24.8125 -1.421875 
Q 16.453125 -1.421875 11.46875 3.296875 
Q 6.5 8.015625 6.5 15.921875 
Q 6.5 25.046875 12.625 29.78125 
Q 18.75 34.515625 30.609375 34.515625 
L 42.671875 34.515625 
L 42.671875 35.9375 
Q 42.625 42.484375 39.34375 45.4375 
Q 36.078125 48.390625 28.90625 48.390625 
Q 24.3125 48.390625 19.625 47.0625 
Q 14.9375 45.75 10.5 43.21875 
L 10.5 52.203125 
Q 15.484375 54.109375 20.046875 55.046875 
Q 24.609375 56 28.90625 56 
Q 35.6875 56 40.5 54 
Q 45.3125 52 48.296875 48 
Q 50.140625 45.5625 50.921875 41.96875 
Q 51.703125 38.375 51.703125 31.203125 
z
" id="DejaVuSansMono-97"/>
       <path d="M 47.515625 52.78125 
L 47.515625 44 
Q 43.65625 46.234375 39.75 47.359375 
Q 35.84375 48.484375 31.78125 48.484375 
Q 25.6875 48.484375 22.671875 46.5 
Q 19.671875 44.53125 19.671875 40.484375 
Q 19.671875 36.8125 21.921875 35 
Q 24.171875 33.203125 33.109375 31.5 
L 36.71875 30.8125 
Q 43.40625 29.546875 46.84375 25.734375 
Q 50.296875 21.921875 50.296875 15.828125 
Q 50.296875 7.71875 44.53125 3.140625 
Q 38.765625 -1.421875 28.515625 -1.421875 
Q 24.46875 -1.421875 20.015625 -0.5625 
Q 15.578125 0.296875 10.40625 2 
L 10.40625 11.28125 
Q 15.4375 8.6875 20.015625 7.390625 
Q 24.609375 6.109375 28.71875 6.109375 
Q 34.671875 6.109375 37.9375 8.515625 
Q 41.21875 10.9375 41.21875 15.28125 
Q 41.21875 21.53125 29.25 23.921875 
L 28.859375 24.03125 
L 25.484375 24.703125 
Q 17.71875 26.21875 14.15625 29.8125 
Q 10.59375 33.40625 10.59375 39.59375 
Q 10.59375 47.46875 15.90625 51.734375 
Q 21.234375 56 31.109375 56 
Q 35.5 56 39.546875 55.1875 
Q 43.609375 54.390625 47.515625 52.78125 
z
" id="DejaVuSansMono-115"/>
       <path d="M 29.984375 70.21875 
L 29.984375 54.6875 
L 50.390625 54.6875 
L 50.390625 47.703125 
L 29.984375 47.703125 
L 29.984375 18.015625 
Q 29.984375 11.96875 32.28125 9.5625 
Q 34.578125 7.171875 40.28125 7.171875 
L 50.390625 7.171875 
L 50.390625 0 
L 39.40625 0 
Q 29.296875 0 25.140625 4.046875 
Q 21 8.109375 21 18.015625 
L 21 47.703125 
L 6.390625 47.703125 
L 6.390625 54.6875 
L 21 54.6875 
L 21 70.21875 
z
" id="DejaVuSansMono-116"/>
       <path d="M 23.875 51.90625 
L 36.1875 51.90625 
L 36.1875 37.109375 
L 23.875 37.109375 
z
M 23.875 14.890625 
L 36.1875 14.890625 
L 36.1875 0 
L 23.875 0 
z
" id="DejaVuSansMono-58"/>
      </defs>
      <use xlink:href="#DejaVuSansMono-34"/>
      <use x="60.205078" xlink:href="#DejaVuSansMono-84"/>
      <use x="120.410156" xlink:href="#DejaVuSansMono-97"/>
      <use x="180.615234" xlink:href="#DejaVuSansMono-108"/>
      <use x="240.820312" xlink:href="#DejaVuSansMono-108"/>
      <use x="301.025391" xlink:href="#DejaVuSansMono-101"/>
      <use x="361.230469" xlink:href="#DejaVuSansMono-115"/>
      <use x="421.435547" xlink:href="#DejaVuSansMono-116"/>
      <use x="481.640625" xlink:href="#DejaVuSansMono-34"/>
      <use x="541.845703" xlink:href="#DejaVuSansMono-58"/>
     </g>
     <!-- y_0    = 19638399 -->
     <g transform="translate(362.2275 34.737)scale(0.06 -0.06)">
      <defs>
       <path d="M 4.296875 25.59375 
L 55.90625 25.59375 
L 55.90625 17.1875 
L 4.296875 17.1875 
z
M 4.296875 45.40625 
L 55.90625 45.40625 
L 55.90625 37.109375 
L 4.296875 37.109375 
z
" id="DejaVuSansMono-61"/>
       <path d="M 30.078125 34.625 
Q 23.484375 34.625 19.890625 30.9375 
Q 16.3125 27.25 16.3125 20.515625 
Q 16.3125 13.765625 19.9375 10.03125 
Q 23.578125 6.296875 30.078125 6.296875 
Q 36.71875 6.296875 40.296875 9.984375 
Q 43.890625 13.671875 43.890625 20.515625 
Q 43.890625 27.203125 40.25 30.90625 
Q 36.625 34.625 30.078125 34.625 
z
M 21.484375 38.71875 
Q 15.1875 40.328125 11.640625 44.71875 
Q 8.109375 49.125 8.109375 55.328125 
Q 8.109375 64.015625 14.015625 69.109375 
Q 19.921875 74.21875 30.078125 74.21875 
Q 40.28125 74.21875 46.1875 69.109375 
Q 52.09375 64.015625 52.09375 55.328125 
Q 52.09375 49.125 48.546875 44.71875 
Q 45.015625 40.328125 38.71875 38.71875 
Q 46.046875 37.109375 49.921875 32.21875 
Q 53.8125 27.34375 53.8125 19.578125 
Q 53.8125 9.71875 47.515625 4.140625 
Q 41.21875 -1.421875 30.078125 -1.421875 
Q 18.953125 -1.421875 12.671875 4.125 
Q 6.390625 9.671875 6.390625 19.484375 
Q 6.390625 27.296875 10.265625 32.203125 
Q 14.15625 37.109375 21.484375 38.71875 
z
M 17.921875 54.390625 
Q 17.921875 48.53125 21.046875 45.453125 
Q 24.171875 42.390625 30.078125 42.390625 
Q 36.03125 42.390625 39.15625 45.453125 
Q 42.28125 48.53125 42.28125 54.390625 
Q 42.28125 60.359375 39.171875 63.484375 
Q 36.078125 66.609375 30.078125 66.609375 
Q 24.171875 66.609375 21.046875 63.453125 
Q 17.921875 60.296875 17.921875 54.390625 
z
" id="DejaVuSansMono-56"/>
      </defs>
      <use xlink:href="#DejaVuSansMono-121"/>
      <use x="60.205078" xlink:href="#DejaVuSansMono-95"/>
      <use x="120.410156" xlink:href="#DejaVuSansMono-48"/>
      <use x="180.615234" xlink:href="#DejaVuSansMono-32"/>
      <use x="240.820312" xlink:href="#DejaVuSansMono-32"/>
      <use x="301.025391" xlink:href="#DejaVuSansMono-32"/>
      <use x="361.230469" xlink:href="#DejaVuSansMono-32"/>
      <use x="421.435547" xlink:href="#DejaVuSansMono-61"/>
      <use x="481.640625" xlink:href="#DejaVuSansMono-32"/>
      <use x="541.845703" xlink:href="#DejaVuSansMono-49"/>
      <use x="602.050781" xlink:href="#DejaVuSansMono-57"/>
      <use x="662.255859" xlink:href="#DejaVuSansMono-54"/>
      <use x="722.460938" xlink:href="#DejaVuSansMono-51"/>
      <use x="782.666016" xlink:href="#DejaVuSansMono-56"/>
      <use x="842.871094" xlink:href="#DejaVuSansMono-51"/>
      <use x="903.076172" xlink:href="#DejaVuSansMono-57"/>
      <use x="963.28125" xlink:href="#DejaVuSansMono-57"/>
     </g>
     <!-- y_max  = 306296925203752 -->
     <g transform="translate(362.2275 41.660812)scale(0.06 -0.06)">
      <defs>
       <path d="M 54.59375 54.6875 
L 35.015625 28.515625 
L 56.5 0 
L 46.09375 0 
L 30.078125 21.921875 
L 14.109375 0 
L 3.71875 0 
L 25.203125 28.515625 
L 5.609375 54.6875 
L 15.578125 54.6875 
L 30.078125 34.90625 
L 44.484375 54.6875 
z
" id="DejaVuSansMono-120"/>
      </defs>
      <use xlink:href="#DejaVuSansMono-121"/>
      <use x="60.205078" xlink:href="#DejaVuSansMono-95"/>
      <use x="120.410156" xlink:href="#DejaVuSansMono-109"/>
      <use x="180.615234" xlink:href="#DejaVuSansMono-97"/>
      <use x="240.820312" xlink:href="#DejaVuSansMono-120"/>
      <use x="301.025391" xlink:href="#DejaVuSansMono-32"/>
      <use x="361.230469" xlink:href="#DejaVuSansMono-32"/>
      <use x="421.435547" xlink:href="#DejaVuSansMono-61"/>
      <use x="481.640625" xlink:href="#DejaVuSansMono-32"/>
      <use x="541.845703" xlink:href="#DejaVuSansMono-51"/>
      <use x="602.050781" xlink:href="#DejaVuSansMono-48"/>
      <use x="662.255859" xlink:href="#DejaVuSansMono-54"/>
      <use x="722.460938" xlink:href="#DejaVuSansMono-50"/>
      <use x="782.666016" xlink:href="#DejaVuSansMono-57"/>
      <use x="842.871094" xlink:href="#DejaVuSansMono-54"/>
      <use x="903.076172" xlink:href="#DejaVuSansMono-57"/>
      <use x="963.28125" xlink:href="#DejaVuSansMono-50"/>
      <use x="1023.486328" xlink:href="#DejaVuSansMono-53"/>
      <use x="1083.691406" xlink:href="#DejaVuSansMono-50"/>
      <use x="1143.896484" xlink:href="#DejaVuSansMono-48"/>
      <use x="1204.101562" xlink:href="#DejaVuSansMono-51"/>
      <use x="1264.306641" xlink:href="#DejaVuSansMono-55"/>
      <use x="1324.511719" xlink:href="#DejaVuSansMono-53"/>
      <use x="1384.716797" xlink:href="#DejaVuSansMono-50"/>
     </g>
     <!-- x_max  = 607 -->
     <g transform="translate(362.2275 48.584625)scale(0.06 -0.06)">
      <use xlink:href="#DejaVuSansMono-120"/>
      <use x="60.205078" xlink:href="#DejaVuSansMono-95"/>
      <use x="120.410156" xlink:href="#DejaVuSansMono-109"/>
      <use x="180.615234" xlink:href="#DejaVuSansMono-97"/>
      <use x="240.820312" xlink:href="#DejaVuSansMono-120"/>
      <use x="301.025391" xlink:href="#DejaVuSansMono-32"/>
      <use x="361.230469" xlink:href="#DejaVuSansMono-32"/>
      <use x="421.435547" xlink:href="#DejaVuSansMono-61"/>
      <use x="481.640625" xlink:href="#DejaVuSansMono-32"/>
      <use x="541.845703" xlink:href="#DejaVuSansMono-54"/>
      <use x="602.050781" xlink:href="#DejaVuSansMono-48"/>
      <use x="662.255859" xlink:href="#DejaVuSansMono-55"/>
     </g>
    </g>
    <g id="line2d_21">
     <path d="M 345.4275 66.499875 
L 357.4275 66.499875 
" style="fill:none;stroke:#ff7f0e;stroke-linecap:square;stroke-width:0.666667;"/>
    </g>
    <g id="line2d_22"/>
    <g id="text_21">
     <!-- "Widest":  -->
     <g transform="translate(362.2275 57.59025)scale(0.06 -0.06)">
      <defs>
       <path d="M 0 72.90625 
L 9.625 72.90625 
L 16.609375 13.71875 
L 24.90625 52.875 
L 35.203125 52.875 
L 43.609375 13.625 
L 50.59375 72.90625 
L 60.203125 72.90625 
L 49.3125 0 
L 39.984375 0 
L 30.078125 43.3125 
L 20.21875 0 
L 10.890625 0 
z
" id="DejaVuSansMono-87"/>
       <path d="M 12.5 54.6875 
L 35.5 54.6875 
L 35.5 6.984375 
L 53.328125 6.984375 
L 53.328125 0 
L 8.6875 0 
L 8.6875 6.984375 
L 26.515625 6.984375 
L 26.515625 47.703125 
L 12.5 47.703125 
z
M 26.515625 75.984375 
L 35.5 75.984375 
L 35.5 64.59375 
L 26.515625 64.59375 
z
" id="DejaVuSansMono-105"/>
       <path d="M 41.890625 47.703125 
L 41.890625 75.984375 
L 50.875 75.984375 
L 50.875 0 
L 41.890625 0 
L 41.890625 6.890625 
Q 39.65625 2.828125 35.90625 0.703125 
Q 32.171875 -1.421875 27.296875 -1.421875 
Q 17.390625 -1.421875 11.6875 6.265625 
Q 6 13.96875 6 27.484375 
Q 6 40.828125 11.71875 48.40625 
Q 17.4375 56 27.296875 56 
Q 32.234375 56 35.984375 53.875 
Q 39.75 51.765625 41.890625 47.703125 
z
M 15.484375 27.296875 
Q 15.484375 16.84375 18.796875 11.515625 
Q 22.125 6.203125 28.609375 6.203125 
Q 35.109375 6.203125 38.5 11.5625 
Q 41.890625 16.9375 41.890625 27.296875 
Q 41.890625 37.703125 38.5 43.046875 
Q 35.109375 48.390625 28.609375 48.390625 
Q 22.125 48.390625 18.796875 43.0625 
Q 15.484375 37.75 15.484375 27.296875 
z
" id="DejaVuSansMono-100"/>
      </defs>
      <use xlink:href="#DejaVuSansMono-34"/>
      <use x="60.205078" xlink:href="#DejaVuSansMono-87"/>
      <use x="120.410156" xlink:href="#DejaVuSansMono-105"/>
      <use x="180.615234" xlink:href="#DejaVuSansMono-100"/>
      <use x="240.820312" xlink:href="#DejaVuSansMono-101"/>
      <use x="301.025391" xlink:href="#DejaVuSansMono-115"/>
      <use x="361.230469" xlink:href="#DejaVuSansMono-116"/>
      <use x="421.435547" xlink:href="#DejaVuSansMono-34"/>
      <use x="481.640625" xlink:href="#DejaVuSansMono-58"/>
      <use x="541.845703" xlink:href="#DejaVuSansMono-32"/>
     </g>
     <!-- y_0    = 15733191 -->
     <g transform="translate(362.2275 64.347187)scale(0.06 -0.06)">
      <use xlink:href="#DejaVuSansMono-121"/>
      <use x="60.205078" xlink:href="#DejaVuSansMono-95"/>
      <use x="120.410156" xlink:href="#DejaVuSansMono-48"/>
      <use x="180.615234" xlink:href="#DejaVuSansMono-32"/>
      <use x="240.820312" xlink:href="#DejaVuSansMono-32"/>
      <use x="301.025391" xlink:href="#DejaVuSansMono-32"/>
      <use x="361.230469" xlink:href="#DejaVuSansMono-32"/>
      <use x="421.435547" xlink:href="#DejaVuSansMono-61"/>
      <use x="481.640625" xlink:href="#DejaVuSansMono-32"/>
      <use x="541.845703" xlink:href="#DejaVuSansMono-49"/>
      <use x="602.050781" xlink:href="#DejaVuSansMono-53"/>
      <use x="662.255859" xlink:href="#DejaVuSansMono-55"/>
      <use x="722.460938" xlink:href="#DejaVuSansMono-51"/>
      <use x="782.666016" xlink:href="#DejaVuSansMono-51"/>
      <use x="842.871094" xlink:href="#DejaVuSansMono-49"/>
      <use x="903.076172" xlink:href="#DejaVuSansMono-57"/>
      <use x="963.28125" xlink:href="#DejaVuSansMono-49"/>
     </g>
     <!-- y_max  = 159424614880 -->
     <g transform="translate(362.2275 71.271)scale(0.06 -0.06)">
      <use xlink:href="#DejaVuSansMono-121"/>
      <use x="60.205078" xlink:href="#DejaVuSansMono-95"/>
      <use x="120.410156" xlink:href="#DejaVuSansMono-109"/>
      <use x="180.615234" xlink:href="#DejaVuSansMono-97"/>
      <use x="240.820312" xlink:href="#DejaVuSansMono-120"/>
      <use x="301.025391" xlink:href="#DejaVuSansMono-32"/>
      <use x="361.230469" xlink:href="#DejaVuSansMono-32"/>
      <use x="421.435547" xlink:href="#DejaVuSansMono-61"/>
      <use x="481.640625" xlink:href="#DejaVuSansMono-32"/>
      <use x="541.845703" xlink:href="#DejaVuSansMono-49"/>
      <use x="602.050781" xlink:href="#DejaVuSansMono-53"/>
      <use x="662.255859" xlink:href="#DejaVuSansMono-57"/>
      <use x="722.460938" xlink:href="#DejaVuSansMono-52"/>
      <use x="782.666016" xlink:href="#DejaVuSansMono-50"/>
      <use x="842.871094" xlink:href="#DejaVuSansMono-52"/>
      <use x="903.076172" xlink:href="#DejaVuSansMono-54"/>
      <use x="963.28125" xlink:href="#DejaVuSansMono-49"/>
      <use x="1023.486328" xlink:href="#DejaVuSansMono-52"/>
      <use x="1083.691406" xlink:href="#DejaVuSansMono-56"/>
      <use x="1143.896484" xlink:href="#DejaVuSansMono-56"/>
      <use x="1204.101562" xlink:href="#DejaVuSansMono-48"/>
     </g>
     <!-- x_max  = 705 -->
     <g transform="translate(362.2275 78.194812)scale(0.06 -0.06)">
      <use xlink:href="#DejaVuSansMono-120"/>
      <use x="60.205078" xlink:href="#DejaVuSansMono-95"/>
      <use x="120.410156" xlink:href="#DejaVuSansMono-109"/>
      <use x="180.615234" xlink:href="#DejaVuSansMono-97"/>
      <use x="240.820312" xlink:href="#DejaVuSansMono-120"/>
      <use x="301.025391" xlink:href="#DejaVuSansMono-32"/>
      <use x="361.230469" xlink:href="#DejaVuSansMono-32"/>
      <use x="421.435547" xlink:href="#DejaVuSansMono-61"/>
      <use x="481.640625" xlink:href="#DejaVuSansMono-32"/>
      <use x="541.845703" xlink:href="#DejaVuSansMono-55"/>
      <use x="602.050781" xlink:href="#DejaVuSansMono-48"/>
      <use x="662.255859" xlink:href="#DejaVuSansMono-53"/>
     </g>
    </g>
   </g>
  </g>
 </g>
 <defs>
  <clipPath id="p7763fc61dc">
   <rect height="298.453375" width="418.46125" x="35.85875" y="17.989125"/>
  </clipPath>
 </defs>
</svg>
