<?xml version="1.0" encoding="utf-8" standalone="no"?>
<!DOCTYPE svg PUBLIC "-//W3C//DTD SVG 1.1//EN"
  "http://www.w3.org/Graphics/SVG/1.1/DTD/svg11.dtd">
<!-- Created with matplotlib (https://matplotlib.org/) -->
<svg height="345.6pt" version="1.1" viewBox="0 0 460.8 345.6" width="460.8pt" xmlns="http://www.w3.org/2000/svg" xmlns:xlink="http://www.w3.org/1999/xlink">
 <metadata>
  <rdf:RDF xmlns:cc="http://creativecommons.org/ns#" xmlns:dc="http://purl.org/dc/elements/1.1/" xmlns:rdf="http://www.w3.org/1999/02/22-rdf-syntax-ns#">
   <cc:Work>
    <dc:type rdf:resource="http://purl.org/dc/dcmitype/StillImage"/>
    <dc:date>2022-03-17T00:26:25.741611</dc:date>
    <dc:format>image/svg+xml</dc:format>
    <dc:creator>
     <cc:Agent>
      <dc:title>Matplotlib v3.3.2, https://matplotlib.org/</dc:title>
     </cc:Agent>
    </dc:creator>
   </cc:Work>
  </rdf:RDF>
 </metadata>
 <defs>
  <style type="text/css">*{stroke-linecap:butt;stroke-linejoin:round;}</style>
 </defs>
 <g id="figure_1">
  <g id="patch_1">
   <path d="M 0 345.6 
L 460.8 345.6 
L 460.8 0 
L 0 0 
z
" style="fill:#ffffff;"/>
  </g>
  <g id="axes_1">
   <g id="patch_2">
    <path d="M 35.85875 316.4425 
L 454.32 316.4425 
L 454.32 17.989125 
L 35.85875 17.989125 
z
" style="fill:#ffffff;"/>
   </g>
   <g id="matplotlib.axis_1">
    <g id="xtick_1">
     <g id="line2d_1">
      <defs>
       <path d="M 0 0 
L 0 3.5 
" id="md1ca8bb582" style="stroke:#000000;stroke-width:0.8;"/>
      </defs>
      <g>
       <use style="stroke:#000000;stroke-width:0.8;" x="54.879716" xlink:href="#md1ca8bb582" y="316.4425"/>
      </g>
     </g>
     <g id="text_1">
      <!-- 0 -->
      <g transform="translate(53.073622 328.033437)scale(0.06 -0.06)">
       <defs>
        <path d="M 23.578125 36.625 
Q 23.578125 39.3125 25.453125 41.265625 
Q 27.34375 43.21875 29.984375 43.21875 
Q 32.71875 43.21875 34.671875 41.265625 
Q 36.625 39.3125 36.625 36.625 
Q 36.625 33.890625 34.6875 31.984375 
Q 32.765625 30.078125 29.984375 30.078125 
Q 27.25 30.078125 25.40625 31.9375 
Q 23.578125 33.796875 23.578125 36.625 
z
M 30.078125 66.40625 
Q 23.1875 66.40625 19.796875 58.984375 
Q 16.40625 51.5625 16.40625 36.375 
Q 16.40625 21.234375 19.796875 13.8125 
Q 23.1875 6.390625 30.078125 6.390625 
Q 37.015625 6.390625 40.40625 13.8125 
Q 43.796875 21.234375 43.796875 36.375 
Q 43.796875 51.5625 40.40625 58.984375 
Q 37.015625 66.40625 30.078125 66.40625 
z
M 30.078125 74.21875 
Q 41.75 74.21875 47.734375 64.640625 
Q 53.71875 55.078125 53.71875 36.375 
Q 53.71875 17.71875 47.734375 8.140625 
Q 41.75 -1.421875 30.078125 -1.421875 
Q 18.40625 -1.421875 12.453125 8.140625 
Q 6.5 17.71875 6.5 36.375 
Q 6.5 55.078125 12.453125 64.640625 
Q 18.40625 74.21875 30.078125 74.21875 
z
" id="DejaVuSansMono-48"/>
       </defs>
       <use xlink:href="#DejaVuSansMono-48"/>
      </g>
     </g>
    </g>
    <g id="xtick_2">
     <g id="line2d_2">
      <g>
       <use style="stroke:#000000;stroke-width:0.8;" x="126.656946" xlink:href="#md1ca8bb582" y="316.4425"/>
      </g>
     </g>
     <g id="text_2">
      <!-- 100 -->
      <g transform="translate(121.238665 328.033437)scale(0.06 -0.06)">
       <defs>
        <path d="M 13.1875 8.296875 
L 28.515625 8.296875 
L 28.515625 64.015625 
L 12.015625 60.296875 
L 12.015625 69.28125 
L 28.421875 72.90625 
L 38.28125 72.90625 
L 38.28125 8.296875 
L 53.421875 8.296875 
L 53.421875 0 
L 13.1875 0 
z
" id="DejaVuSansMono-49"/>
       </defs>
       <use xlink:href="#DejaVuSansMono-49"/>
       <use x="60.205078" xlink:href="#DejaVuSansMono-48"/>
       <use x="120.410156" xlink:href="#DejaVuSansMono-48"/>
      </g>
     </g>
    </g>
    <g id="xtick_3">
     <g id="line2d_3">
      <g>
       <use style="stroke:#000000;stroke-width:0.8;" x="198.434176" xlink:href="#md1ca8bb582" y="316.4425"/>
      </g>
     </g>
     <g id="text_3">
      <!-- 200 -->
      <g transform="translate(193.015894 328.033437)scale(0.06 -0.06)">
       <defs>
        <path d="M 18.21875 8.296875 
L 51.703125 8.296875 
L 51.703125 0 
L 7.421875 0 
L 7.421875 8.296875 
Q 16.546875 17.921875 23.375 25.296875 
Q 30.21875 32.671875 32.8125 35.6875 
Q 37.703125 41.65625 39.40625 45.34375 
Q 41.109375 49.03125 41.109375 52.875 
Q 41.109375 58.984375 37.515625 62.453125 
Q 33.9375 65.921875 27.6875 65.921875 
Q 23.25 65.921875 18.359375 64.3125 
Q 13.484375 62.703125 8.015625 59.421875 
L 8.015625 69.390625 
Q 13.03125 71.78125 17.890625 73 
Q 22.75 74.21875 27.484375 74.21875 
Q 38.1875 74.21875 44.703125 68.53125 
Q 51.21875 62.84375 51.21875 53.609375 
Q 51.21875 48.921875 49.046875 44.234375 
Q 46.875 39.546875 42 33.890625 
Q 39.265625 30.71875 34.0625 25.09375 
Q 28.859375 19.484375 18.21875 8.296875 
z
" id="DejaVuSansMono-50"/>
       </defs>
       <use xlink:href="#DejaVuSansMono-50"/>
       <use x="60.205078" xlink:href="#DejaVuSansMono-48"/>
       <use x="120.410156" xlink:href="#DejaVuSansMono-48"/>
      </g>
     </g>
    </g>
    <g id="xtick_4">
     <g id="line2d_4">
      <g>
       <use style="stroke:#000000;stroke-width:0.8;" x="270.211405" xlink:href="#md1ca8bb582" y="316.4425"/>
      </g>
     </g>
     <g id="text_4">
      <!-- 300 -->
      <g transform="translate(264.793124 328.033437)scale(0.06 -0.06)">
       <defs>
        <path d="M 37.890625 39.015625 
Q 45.0625 37.109375 48.875 32.25 
Q 52.6875 27.390625 52.6875 20.125 
Q 52.6875 10.0625 45.921875 4.3125 
Q 39.15625 -1.421875 27.203125 -1.421875 
Q 22.171875 -1.421875 16.9375 -0.484375 
Q 11.71875 0.4375 6.6875 2.203125 
L 6.6875 12.015625 
Q 11.671875 9.421875 16.5 8.15625 
Q 21.34375 6.890625 26.125 6.890625 
Q 34.234375 6.890625 38.578125 10.546875 
Q 42.921875 14.203125 42.921875 21.09375 
Q 42.921875 27.4375 38.578125 31.171875 
Q 34.234375 34.90625 26.8125 34.90625 
L 19.28125 34.90625 
L 19.28125 43.015625 
L 26.8125 43.015625 
Q 33.59375 43.015625 37.40625 45.984375 
Q 41.21875 48.96875 41.21875 54.296875 
Q 41.21875 59.90625 37.671875 62.90625 
Q 34.125 65.921875 27.59375 65.921875 
Q 23.25 65.921875 18.609375 64.9375 
Q 13.96875 63.96875 8.890625 62.015625 
L 8.890625 71.09375 
Q 14.796875 72.65625 19.40625 73.4375 
Q 24.03125 74.21875 27.59375 74.21875 
Q 38.234375 74.21875 44.609375 68.875 
Q 50.984375 63.53125 50.984375 54.6875 
Q 50.984375 48.6875 47.625 44.671875 
Q 44.28125 40.671875 37.890625 39.015625 
z
" id="DejaVuSansMono-51"/>
       </defs>
       <use xlink:href="#DejaVuSansMono-51"/>
       <use x="60.205078" xlink:href="#DejaVuSansMono-48"/>
       <use x="120.410156" xlink:href="#DejaVuSansMono-48"/>
      </g>
     </g>
    </g>
    <g id="xtick_5">
     <g id="line2d_5">
      <g>
       <use style="stroke:#000000;stroke-width:0.8;" x="341.988635" xlink:href="#md1ca8bb582" y="316.4425"/>
      </g>
     </g>
     <g id="text_5">
      <!-- 400 -->
      <g transform="translate(336.570354 328.033437)scale(0.06 -0.06)">
       <defs>
        <path d="M 35.890625 63.921875 
L 12.890625 25.390625 
L 35.890625 25.390625 
z
M 34.28125 72.90625 
L 45.703125 72.90625 
L 45.703125 25.390625 
L 55.421875 25.390625 
L 55.421875 17.390625 
L 45.703125 17.390625 
L 45.703125 0 
L 35.890625 0 
L 35.890625 17.390625 
L 4.984375 17.390625 
L 4.984375 26.703125 
z
" id="DejaVuSansMono-52"/>
       </defs>
       <use xlink:href="#DejaVuSansMono-52"/>
       <use x="60.205078" xlink:href="#DejaVuSansMono-48"/>
       <use x="120.410156" xlink:href="#DejaVuSansMono-48"/>
      </g>
     </g>
    </g>
    <g id="xtick_6">
     <g id="line2d_6">
      <g>
       <use style="stroke:#000000;stroke-width:0.8;" x="413.765865" xlink:href="#md1ca8bb582" y="316.4425"/>
      </g>
     </g>
     <g id="text_6">
      <!-- 500 -->
      <g transform="translate(408.347584 328.033437)scale(0.06 -0.06)">
       <defs>
        <path d="M 10.109375 72.90625 
L 47.015625 72.90625 
L 47.015625 64.59375 
L 19.09375 64.59375 
L 19.09375 46.6875 
Q 21.1875 47.46875 23.3125 47.828125 
Q 25.4375 48.1875 27.59375 48.1875 
Q 38.921875 48.1875 45.5625 41.5 
Q 52.203125 34.8125 52.203125 23.390625 
Q 52.203125 11.859375 45.234375 5.21875 
Q 38.28125 -1.421875 26.21875 -1.421875 
Q 20.40625 -1.421875 15.59375 -0.640625 
Q 10.796875 0.140625 6.984375 1.703125 
L 6.984375 11.71875 
Q 11.46875 9.28125 16.015625 8.078125 
Q 20.5625 6.890625 25.296875 6.890625 
Q 33.453125 6.890625 37.859375 11.1875 
Q 42.28125 15.484375 42.28125 23.390625 
Q 42.28125 31.203125 37.71875 35.546875 
Q 33.15625 39.890625 25 39.890625 
Q 21.046875 39.890625 17.28125 38.984375 
Q 13.53125 38.09375 10.109375 36.28125 
z
" id="DejaVuSansMono-53"/>
       </defs>
       <use xlink:href="#DejaVuSansMono-53"/>
       <use x="60.205078" xlink:href="#DejaVuSansMono-48"/>
       <use x="120.410156" xlink:href="#DejaVuSansMono-48"/>
      </g>
     </g>
    </g>
    <g id="text_7">
     <!-- n -->
     <g transform="translate(243.283281 337.872187)scale(0.06 -0.06)">
      <defs>
       <path d="M 51.3125 33.890625 
L 51.3125 0 
L 42.28125 0 
L 42.28125 33.890625 
Q 42.28125 41.265625 39.6875 44.71875 
Q 37.109375 48.1875 31.59375 48.1875 
Q 25.296875 48.1875 21.890625 43.71875 
Q 18.5 39.265625 18.5 30.90625 
L 18.5 0 
L 9.515625 0 
L 9.515625 54.6875 
L 18.5 54.6875 
L 18.5 46.484375 
Q 20.90625 51.171875 25 53.578125 
Q 29.109375 56 34.71875 56 
Q 43.0625 56 47.1875 50.5 
Q 51.3125 45.015625 51.3125 33.890625 
z
" id="DejaVuSansMono-110"/>
      </defs>
      <use xlink:href="#DejaVuSansMono-110"/>
     </g>
    </g>
   </g>
   <g id="matplotlib.axis_2">
    <g id="ytick_1">
     <g id="line2d_7">
      <defs>
       <path d="M 0 0 
L -3.5 0 
" id="m9f74908985" style="stroke:#000000;stroke-width:0.8;"/>
      </defs>
      <g>
       <use style="stroke:#000000;stroke-width:0.8;" x="35.85875" xlink:href="#m9f74908985" y="278.609691"/>
      </g>
     </g>
     <g id="text_8">
      <!-- $\mathdefault{10^{1}}$ -->
      <g transform="translate(18.83875 280.90516)scale(0.06 -0.06)">
       <use transform="translate(0 0.684375)" xlink:href="#DejaVuSansMono-49"/>
       <use transform="translate(60.205078 0.684375)" xlink:href="#DejaVuSansMono-48"/>
       <use transform="translate(121.367188 38.965625)scale(0.7)" xlink:href="#DejaVuSansMono-49"/>
      </g>
     </g>
    </g>
    <g id="ytick_2">
     <g id="line2d_8">
      <g>
       <use style="stroke:#000000;stroke-width:0.8;" x="35.85875" xlink:href="#m9f74908985" y="230.076198"/>
      </g>
     </g>
     <g id="text_9">
      <!-- $\mathdefault{10^{3}}$ -->
      <g transform="translate(18.83875 232.371666)scale(0.06 -0.06)">
       <use transform="translate(0 0.765625)" xlink:href="#DejaVuSansMono-49"/>
       <use transform="translate(60.205078 0.765625)" xlink:href="#DejaVuSansMono-48"/>
       <use transform="translate(121.367188 39.046875)scale(0.7)" xlink:href="#DejaVuSansMono-51"/>
      </g>
     </g>
    </g>
    <g id="ytick_3">
     <g id="line2d_9">
      <g>
       <use style="stroke:#000000;stroke-width:0.8;" x="35.85875" xlink:href="#m9f74908985" y="181.542705"/>
      </g>
     </g>
     <g id="text_10">
      <!-- $\mathdefault{10^{5}}$ -->
      <g transform="translate(18.83875 183.838173)scale(0.06 -0.06)">
       <use transform="translate(0 0.684375)" xlink:href="#DejaVuSansMono-49"/>
       <use transform="translate(60.205078 0.684375)" xlink:href="#DejaVuSansMono-48"/>
       <use transform="translate(121.367188 38.965625)scale(0.7)" xlink:href="#DejaVuSansMono-53"/>
      </g>
     </g>
    </g>
    <g id="ytick_4">
     <g id="line2d_10">
      <g>
       <use style="stroke:#000000;stroke-width:0.8;" x="35.85875" xlink:href="#m9f74908985" y="133.009211"/>
      </g>
     </g>
     <g id="text_11">
      <!-- $\mathdefault{10^{7}}$ -->
      <g transform="translate(18.83875 135.30468)scale(0.06 -0.06)">
       <defs>
        <path d="M 6.78125 72.90625 
L 52.6875 72.90625 
L 52.6875 68.703125 
L 26.609375 0 
L 16.3125 0 
L 41.703125 64.59375 
L 6.78125 64.59375 
z
" id="DejaVuSansMono-55"/>
       </defs>
       <use transform="translate(0 0.684375)" xlink:href="#DejaVuSansMono-49"/>
       <use transform="translate(60.205078 0.684375)" xlink:href="#DejaVuSansMono-48"/>
       <use transform="translate(121.367188 38.965625)scale(0.7)" xlink:href="#DejaVuSansMono-55"/>
      </g>
     </g>
    </g>
    <g id="ytick_5">
     <g id="line2d_11">
      <g>
       <use style="stroke:#000000;stroke-width:0.8;" x="35.85875" xlink:href="#m9f74908985" y="84.475718"/>
      </g>
     </g>
     <g id="text_12">
      <!-- $\mathdefault{10^{9}}$ -->
      <g transform="translate(18.83875 86.771187)scale(0.06 -0.06)">
       <defs>
        <path d="M 29.109375 32.328125 
Q 35.40625 32.328125 38.984375 36.859375 
Q 42.578125 41.40625 42.578125 49.421875 
Q 42.578125 57.421875 38.984375 61.953125 
Q 35.40625 66.5 29.109375 66.5 
Q 22.5625 66.5 19.234375 62.171875 
Q 15.921875 57.859375 15.921875 49.421875 
Q 15.921875 40.921875 19.21875 36.625 
Q 22.515625 32.328125 29.109375 32.328125 
z
M 11.53125 1.515625 
L 11.53125 10.59375 
Q 14.59375 8.796875 18.0625 7.84375 
Q 21.53125 6.890625 25.296875 6.890625 
Q 34.671875 6.890625 39.46875 13.9375 
Q 44.28125 21 44.28125 34.71875 
Q 42 29.828125 37.84375 27.21875 
Q 33.6875 24.609375 28.328125 24.609375 
Q 17.78125 24.609375 11.984375 31.09375 
Q 6.203125 37.59375 6.203125 49.515625 
Q 6.203125 61.28125 12.125 67.75 
Q 18.0625 74.21875 28.90625 74.21875 
Q 41.609375 74.21875 47.515625 65.078125 
Q 53.421875 55.953125 53.421875 36.375 
Q 53.421875 17.96875 46.3125 8.265625 
Q 39.203125 -1.421875 25.6875 -1.421875 
Q 22.125 -1.421875 18.5 -0.65625 
Q 14.890625 0.09375 11.53125 1.515625 
z
" id="DejaVuSansMono-57"/>
       </defs>
       <use transform="translate(0 0.765625)" xlink:href="#DejaVuSansMono-49"/>
       <use transform="translate(60.205078 0.765625)" xlink:href="#DejaVuSansMono-48"/>
       <use transform="translate(121.367188 39.046875)scale(0.7)" xlink:href="#DejaVuSansMono-57"/>
      </g>
     </g>
    </g>
    <g id="ytick_6">
     <g id="line2d_12">
      <g>
       <use style="stroke:#000000;stroke-width:0.8;" x="35.85875" xlink:href="#m9f74908985" y="35.942225"/>
      </g>
     </g>
     <g id="text_13">
      <!-- $\mathdefault{10^{11}}$ -->
      <g transform="translate(16.31875 38.237694)scale(0.06 -0.06)">
       <use transform="translate(0 0.684375)" xlink:href="#DejaVuSansMono-49"/>
       <use transform="translate(60.205078 0.684375)" xlink:href="#DejaVuSansMono-48"/>
       <use transform="translate(121.367188 38.965625)scale(0.7)" xlink:href="#DejaVuSansMono-49"/>
       <use transform="translate(163.510742 38.965625)scale(0.7)" xlink:href="#DejaVuSansMono-49"/>
      </g>
     </g>
    </g>
    <g id="text_14">
     <!-- y_n -->
     <g transform="translate(10.904063 172.634094)rotate(-90)scale(0.06 -0.06)">
      <defs>
       <path d="M 41.890625 17.578125 
Q 39.65625 11.859375 36.1875 2.546875 
Q 31.34375 -10.359375 29.6875 -13.1875 
Q 27.4375 -17 24.0625 -18.890625 
Q 20.703125 -20.796875 16.21875 -20.796875 
L 8.984375 -20.796875 
L 8.984375 -13.28125 
L 14.3125 -13.28125 
Q 18.265625 -13.28125 20.5 -10.984375 
Q 22.75 -8.6875 26.21875 0.875 
L 5.078125 54.6875 
L 14.59375 54.6875 
L 30.8125 11.921875 
L 46.78125 54.6875 
L 56.296875 54.6875 
z
" id="DejaVuSansMono-121"/>
       <path d="M 60.203125 -19.671875 
L 60.203125 -23.578125 
L 0 -23.578125 
L 0 -19.671875 
z
" id="DejaVuSansMono-95"/>
      </defs>
      <use xlink:href="#DejaVuSansMono-121"/>
      <use x="60.205078" xlink:href="#DejaVuSansMono-95"/>
      <use x="120.410156" xlink:href="#DejaVuSansMono-110"/>
     </g>
    </g>
   </g>
   <g id="line2d_13">
    <path clip-path="url(#p1dd484d475)" d="M 54.879716 153.422723 
L 55.597488 141.84454 
L 56.315261 149.149559 
L 57.033033 137.571377 
L 57.750805 144.876395 
L 58.468577 133.298213 
L 59.18635 140.603232 
L 59.904122 129.025051 
L 60.621894 136.330069 
L 61.339667 124.751888 
L 62.057439 132.056907 
L 62.775211 120.478726 
L 63.492983 127.783745 
L 64.210756 116.205564 
L 65.6463 130.815601 
L 66.364073 119.23742 
L 67.081845 126.542439 
L 67.799617 114.964258 
L 68.51739 122.269277 
L 69.235162 110.691096 
L 69.952934 117.996115 
L 70.670706 106.417934 
L 72.106251 121.027971 
L 72.824023 109.449791 
L 74.259568 124.059828 
L 74.97734 112.481647 
L 76.412885 127.091684 
L 77.130657 115.513503 
L 77.848429 122.818522 
L 78.566202 111.240341 
L 80.719519 133.155397 
L 81.437291 121.577216 
L 82.155063 128.882235 
L 82.872836 117.304054 
L 83.590608 124.609073 
L 84.30838 113.030892 
L 85.743925 127.640929 
L 86.461697 116.062748 
L 87.179469 123.367767 
L 87.897242 111.789586 
L 88.615014 119.094605 
L 89.332786 107.516424 
L 90.050559 114.821443 
L 90.768331 103.243262 
L 92.203875 117.8533 
L 92.921648 106.275119 
L 93.63942 113.580137 
L 94.357192 102.001957 
L 95.074965 109.306975 
L 95.792737 97.728795 
L 97.228282 112.338832 
L 97.946054 100.760651 
L 98.663826 108.06567 
L 99.381598 96.487489 
L 100.099371 103.792508 
L 100.817143 92.214327 
L 101.534915 99.519346 
L 102.252688 87.941165 
L 103.688232 102.551203 
L 104.406005 90.973022 
L 105.123777 98.278041 
L 105.841549 86.69986 
L 106.559321 94.004879 
L 107.277094 82.426698 
L 107.994866 89.731717 
L 108.712638 78.153536 
L 109.430411 85.458555 
L 110.148183 73.880374 
L 111.583727 88.490412 
L 112.3015 76.912231 
L 113.737044 91.522268 
L 114.454817 79.944088 
L 115.172589 87.249106 
L 115.890361 75.670926 
L 116.608134 82.975944 
L 117.325906 71.397764 
L 118.043678 78.702782 
L 118.76145 67.124602 
L 120.196995 81.734639 
L 120.914767 70.156458 
L 121.63254 77.461477 
L 122.350312 65.883296 
L 123.068084 73.188315 
L 123.785857 61.610134 
L 125.221401 76.220172 
L 125.939173 64.641991 
L 126.656946 71.94701 
L 127.374718 60.368829 
L 128.09249 67.673848 
L 128.810263 56.095667 
L 129.528035 63.400686 
L 130.245807 51.822505 
L 130.96358 59.127524 
L 131.681352 47.549343 
L 132.399124 54.854362 
L 133.116896 43.276181 
L 134.552441 57.886219 
L 135.270213 46.308038 
L 135.987986 53.613057 
L 136.705758 42.034876 
L 139.576847 71.25495 
L 140.294619 59.67677 
L 141.730164 74.286807 
L 142.447936 62.708627 
L 143.165709 70.013645 
L 143.883481 58.435465 
L 144.601253 65.740483 
L 145.319026 54.162303 
L 146.036798 61.467321 
L 146.75457 49.889141 
L 147.472342 57.194159 
L 148.190115 45.615979 
L 149.625659 60.226016 
L 150.343432 48.647835 
L 151.061204 55.952854 
L 151.778976 44.374673 
L 152.496748 51.679692 
L 153.214521 40.101511 
L 153.932293 47.40653 
L 154.650065 35.828349 
L 155.367838 43.133368 
L 156.08561 31.555187 
L 157.521155 46.165225 
L 158.238927 34.587044 
L 159.674471 49.197081 
L 160.392244 37.618901 
L 161.110016 44.923919 
L 161.827788 33.345739 
L 163.263333 47.955776 
L 163.981105 36.377596 
L 165.41665 50.987633 
L 166.134422 39.409452 
L 168.287739 61.324508 
L 169.005511 49.746327 
L 169.723284 57.051346 
L 170.441056 45.473166 
L 171.158828 52.778184 
L 171.876601 41.200004 
L 172.594373 48.505022 
L 173.312145 36.926842 
L 178.336551 88.061972 
L 179.054324 76.483791 
L 181.20764 98.398847 
L 181.925413 86.820667 
L 183.360957 101.430704 
L 184.07873 89.852523 
L 184.796502 97.157542 
L 185.514274 85.579361 
L 186.232047 92.88438 
L 186.949819 81.306199 
L 189.103136 103.221255 
L 189.820908 91.643075 
L 191.256453 106.253112 
L 191.974225 94.674931 
L 192.691997 101.97995 
L 193.40977 90.401769 
L 194.127542 97.706788 
L 194.845314 86.128607 
L 196.280859 100.738645 
L 196.998631 89.160464 
L 197.716403 96.465483 
L 198.434176 84.887302 
L 200.587492 106.802358 
L 201.305265 95.224177 
L 203.458582 117.139233 
L 204.176354 105.561052 
L 204.894126 112.866071 
L 205.611899 101.28789 
L 207.047443 115.897928 
L 207.765215 104.319747 
L 208.482988 111.624766 
L 209.20076 100.046585 
L 209.918532 107.351604 
L 210.636305 95.773423 
L 212.071849 110.38346 
L 212.789622 98.80528 
L 213.507394 106.110298 
L 214.225166 94.532118 
L 214.942938 101.837136 
L 215.660711 90.258956 
L 218.5318 119.47903 
L 219.249572 107.900849 
L 222.838434 144.425943 
L 223.556206 132.847761 
L 224.273978 140.15278 
L 224.991751 128.574598 
L 225.709523 135.879617 
L 226.427295 124.301436 
L 229.298384 153.52151 
L 230.016157 141.943327 
L 230.733929 149.248346 
L 231.451701 137.670164 
L 232.169474 144.975182 
L 232.887246 133.397001 
L 235.040563 155.312056 
L 235.758335 143.733873 
L 237.19388 158.34391 
L 237.911652 146.765726 
L 238.629424 154.070744 
L 239.347197 142.492561 
L 240.064969 149.79758 
L 240.782741 138.219398 
L 241.500514 145.524416 
L 242.218286 133.946234 
L 244.371603 155.86129 
L 245.089375 144.283107 
L 245.807147 151.588125 
L 246.52492 140.009943 
L 247.960464 154.61998 
L 248.678236 143.041797 
L 250.113781 157.651834 
L 250.831553 146.07365 
L 251.549326 153.378668 
L 252.267098 141.800485 
L 256.573732 185.630597 
L 257.291504 174.052365 
L 258.727049 188.662402 
L 259.444821 177.084152 
L 260.162593 184.389171 
L 260.880366 172.810944 
L 261.598138 180.115963 
L 262.31591 168.537752 
L 263.751455 183.147789 
L 264.469227 171.569567 
L 265.904772 186.179605 
L 266.622544 174.601369 
L 270.929178 218.431481 
L 271.64695 206.852137 
L 272.364722 214.157156 
L 273.082495 202.578199 
L 274.518039 217.188237 
L 275.235812 205.609022 
L 278.106901 234.829096 
L 278.824673 223.245402 
L 280.97799 245.160458 
L 281.695762 233.567589 
L 282.413535 240.872608 
L 283.131307 229.284647 
L 283.849079 236.589665 
L 284.566851 225.004969 
L 285.284624 232.309988 
L 286.002396 220.727466 
L 287.437941 235.337503 
L 288.155713 223.753536 
L 288.873485 231.058555 
L 289.591258 219.476519 
L 290.30903 226.781538 
L 291.026802 215.200787 
L 291.744574 222.505806 
L 292.462347 210.925913 
L 293.180119 218.230931 
L 293.897891 206.651609 
L 296.76898 235.871684 
L 297.486753 224.287417 
L 298.922297 238.897454 
L 299.64007 227.311163 
L 301.075614 241.921201 
L 301.793387 230.332216 
L 304.664476 259.552291 
L 305.382248 247.916677 
L 307.535565 269.831733 
L 308.253337 258.101911 
L 308.97111 265.40693 
L 309.688882 253.728853 
L 310.406654 261.033872 
L 311.124426 249.389616 
L 314.713288 285.91471 
L 315.43106 273.656363 
L 318.302149 302.876437 
L 318.302149 302.876437 
" style="fill:none;stroke:#1f77b4;stroke-linecap:square;stroke-width:0.666667;"/>
   </g>
   <g id="line2d_14">
    <path clip-path="url(#p1dd484d475)" d="M 54.879716 152.993294 
L 55.597488 141.415111 
L 57.033033 156.025148 
L 57.750805 144.446965 
L 58.468577 151.751983 
L 59.18635 140.173801 
L 59.904122 147.478819 
L 60.621894 135.900637 
L 61.339667 143.205656 
L 62.057439 131.627475 
L 62.775211 138.932493 
L 63.492983 127.354312 
L 64.210756 134.659331 
L 64.928528 123.08115 
L 65.6463 130.386168 
L 66.364073 118.807987 
L 67.799617 133.418025 
L 68.51739 121.839844 
L 69.235162 129.144862 
L 69.952934 117.566681 
L 70.670706 124.8717 
L 71.388479 113.293519 
L 72.106251 120.598538 
L 72.824023 109.020357 
L 73.541796 116.325376 
L 74.259568 104.747195 
L 74.97734 112.052214 
L 75.695113 100.474033 
L 78.566202 129.694108 
L 79.283974 118.115927 
L 80.001746 125.420945 
L 80.719519 113.842765 
L 81.437291 121.147783 
L 82.155063 109.569603 
L 82.872836 116.874621 
L 83.590608 105.296441 
L 84.30838 112.601459 
L 85.026152 101.023279 
L 86.461697 115.633316 
L 87.179469 104.055135 
L 88.615014 118.665172 
L 89.332786 107.086992 
L 90.768331 121.697029 
L 91.486103 110.118848 
L 92.203875 117.423867 
L 92.921648 105.845686 
L 93.63942 113.150705 
L 94.357192 101.572524 
L 95.074965 108.877543 
L 95.792737 97.299362 
L 96.510509 104.604381 
L 97.228282 93.0262 
L 97.946054 100.331219 
L 98.663826 88.753038 
L 100.099371 103.363076 
L 100.817143 91.784895 
L 102.252688 106.394932 
L 102.97046 94.816752 
L 103.688232 102.12177 
L 104.406005 90.54359 
L 107.994866 127.068683 
L 108.712638 115.490502 
L 109.430411 122.795521 
L 110.148183 111.21734 
L 110.865955 118.522358 
L 111.583727 106.944178 
L 113.737044 128.859234 
L 114.454817 117.281053 
L 116.608134 139.196109 
L 117.325906 127.617927 
L 118.043678 134.922946 
L 118.76145 123.344765 
L 120.914767 145.259821 
L 121.63254 133.681639 
L 122.350312 140.986658 
L 123.068084 129.408477 
L 123.785857 136.713495 
L 124.503629 125.135314 
L 125.221401 132.440333 
L 125.939173 120.862152 
L 126.656946 128.16717 
L 127.374718 116.58899 
L 128.09249 123.894008 
L 128.810263 112.315827 
L 129.528035 119.620846 
L 130.245807 108.042665 
L 130.96358 115.347684 
L 131.681352 103.769503 
L 132.399124 111.074522 
L 133.116896 99.496341 
L 133.834669 106.80136 
L 134.552441 95.223179 
L 135.270213 102.528198 
L 135.987986 90.950017 
L 138.141303 112.865073 
L 138.859075 101.286893 
L 139.576847 108.591911 
L 140.294619 97.013731 
L 141.730164 111.623768 
L 142.447936 100.045587 
L 144.601253 121.960643 
L 145.319026 110.382462 
L 146.036798 117.687481 
L 146.75457 106.1093 
L 147.472342 113.414319 
L 148.190115 101.836138 
L 148.907887 109.141157 
L 149.625659 97.562976 
L 150.343432 104.867995 
L 151.061204 93.289814 
L 151.778976 100.594833 
L 152.496748 89.016652 
L 153.214521 96.321671 
L 153.932293 84.74349 
L 154.650065 92.048509 
L 155.367838 80.470328 
L 156.08561 87.775347 
L 156.803382 76.197166 
L 157.521155 83.502185 
L 158.238927 71.924005 
L 160.392244 93.83906 
L 161.110016 82.26088 
L 161.827788 89.565898 
L 162.545561 77.987718 
L 163.263333 85.292736 
L 163.981105 73.714556 
L 165.41665 88.324593 
L 166.134422 76.746413 
L 166.852194 84.051431 
L 167.569967 72.473251 
L 169.005511 87.083288 
L 169.723284 75.505107 
L 171.876601 97.420163 
L 172.594373 85.841982 
L 174.029917 100.45202 
L 174.74769 88.873839 
L 175.465462 96.178858 
L 176.183234 84.600677 
L 176.901007 91.905696 
L 177.618779 80.327515 
L 178.336551 87.632534 
L 179.054324 76.054353 
L 179.772096 83.359372 
L 180.489868 71.781191 
L 182.643185 93.696247 
L 183.360957 82.118067 
L 184.07873 89.423085 
L 184.796502 77.844905 
L 187.667591 107.064979 
L 188.385363 95.486798 
L 189.820908 110.096836 
L 190.53868 98.518655 
L 191.256453 105.823674 
L 191.974225 94.245493 
L 192.691997 101.550512 
L 193.40977 89.972331 
L 194.127542 97.27735 
L 194.845314 85.699169 
L 195.563086 93.004188 
L 196.280859 81.426007 
L 196.998631 88.731026 
L 197.716403 77.152845 
L 198.434176 84.457864 
L 199.151948 72.879683 
L 199.86972 80.184702 
L 200.587492 68.606521 
L 202.740809 90.521577 
L 203.458582 78.943397 
L 204.176354 86.248415 
L 204.894126 74.670235 
L 205.611899 81.975253 
L 206.329671 70.397073 
L 207.047443 77.702091 
L 207.765215 66.123911 
L 208.482988 73.428929 
L 209.20076 61.850749 
L 209.918532 69.155767 
L 210.636305 57.577587 
L 212.789622 79.492643 
L 213.507394 67.914462 
L 215.660711 89.829518 
L 216.378483 78.251337 
L 217.096255 85.556356 
L 217.814028 73.978175 
L 218.5318 81.283194 
L 219.249572 69.705013 
L 219.967345 77.010032 
L 220.685117 65.431851 
L 222.120661 80.041889 
L 222.838434 68.463708 
L 223.556206 75.768727 
L 224.273978 64.190546 
L 224.991751 71.495565 
L 225.709523 59.917384 
L 226.427295 67.222403 
L 227.145068 55.644222 
L 230.016157 84.864297 
L 230.733929 73.286116 
L 231.451701 80.591135 
L 232.169474 69.012954 
L 232.887246 76.317973 
L 233.605018 64.739792 
L 234.322791 72.044811 
L 235.040563 60.46663 
L 236.476107 75.076667 
L 237.19388 63.498487 
L 238.629424 78.108524 
L 239.347197 66.530344 
L 240.064969 73.835362 
L 240.782741 62.257182 
L 241.500514 69.5622 
L 242.218286 57.98402 
L 242.936058 65.289038 
L 243.65383 53.710858 
L 245.089375 68.320895 
L 245.807147 56.742714 
L 247.242692 71.352752 
L 247.960464 59.774571 
L 249.396009 74.384608 
L 250.113781 62.806428 
L 250.831553 70.111446 
L 251.549326 58.533266 
L 252.267098 65.838284 
L 252.98487 54.260104 
L 253.702643 61.565122 
L 254.420415 49.986942 
L 255.138187 57.29196 
L 255.855959 45.71378 
L 257.291504 60.323817 
L 258.009276 48.745636 
L 258.727049 56.050655 
L 259.444821 44.472474 
L 260.162593 51.777493 
L 260.880366 40.199312 
L 263.033682 62.114368 
L 263.751455 50.536188 
L 264.469227 57.841206 
L 265.186999 46.263026 
L 265.904772 53.568044 
L 266.622544 41.989864 
L 267.340316 49.294882 
L 268.058089 37.716702 
L 269.493633 52.326739 
L 270.211405 40.748559 
L 271.64695 55.358596 
L 272.364722 43.780415 
L 274.518039 65.695471 
L 275.235812 54.11729 
L 275.953584 61.422309 
L 276.671356 49.844129 
L 277.389128 57.149147 
L 278.106901 45.570967 
L 278.824673 52.875985 
L 279.542445 41.297805 
L 280.260218 48.602823 
L 280.97799 37.024643 
L 285.284624 80.854754 
L 286.002396 69.276574 
L 286.720168 76.581592 
L 287.437941 65.003412 
L 288.155713 72.30843 
L 288.873485 60.73025 
L 291.026802 82.645306 
L 291.744574 71.067125 
L 293.180119 85.677162 
L 293.897891 74.098982 
L 296.051208 96.014038 
L 296.76898 84.435857 
L 297.486753 91.740876 
L 298.204525 80.162695 
L 298.922297 87.467714 
L 299.64007 75.889533 
L 300.357842 83.194552 
L 301.075614 71.616371 
L 301.793387 78.92139 
L 302.511159 67.343209 
L 303.228931 74.648228 
L 303.946703 63.070047 
L 304.664476 70.375066 
L 305.382248 58.796885 
L 308.97111 95.321978 
L 309.688882 83.743798 
L 313.277743 120.268891 
L 313.995516 108.69071 
L 321.173239 181.740896 
L 321.891011 170.16268 
L 323.326556 184.772717 
L 324.044328 173.194489 
L 324.7621 180.499508 
L 325.479872 168.921295 
L 328.350962 198.14137 
L 329.068734 186.563019 
L 331.222051 208.478075 
L 331.939823 196.899442 
L 332.657595 204.204461 
L 333.375368 192.625979 
L 335.528685 214.541034 
L 336.246457 202.962049 
L 336.964229 210.267068 
L 337.682002 198.688351 
L 338.399774 205.99337 
L 339.117546 194.414832 
L 339.835318 201.71985 
L 340.553091 190.141432 
L 344.859724 233.971543 
L 345.577497 222.38828 
L 346.295269 229.693299 
L 347.013041 218.111731 
L 349.166358 240.026787 
L 349.884131 228.439579 
L 352.75522 257.659654 
L 353.472992 246.03346 
L 354.908537 260.643497 
L 355.626309 249.001637 
L 356.344081 256.306656 
L 357.061854 244.686235 
L 357.779626 251.991254 
L 358.497398 240.385007 
L 360.650715 262.300063 
L 361.368487 250.647402 
L 362.08626 257.95242 
L 362.804032 246.324877 
L 363.521804 253.629896 
L 364.239577 242.018935 
L 364.957349 249.323953 
L 365.675121 237.723975 
L 367.110666 252.334013 
L 367.828438 240.726839 
L 369.263983 255.336876 
L 369.981755 243.720162 
L 370.699527 251.025181 
L 371.4173 239.421389 
L 372.852844 254.031427 
L 373.570616 242.419195 
L 374.288389 249.724213 
L 375.006161 238.123393 
L 375.723933 245.428411 
L 376.441706 233.835164 
L 377.87725 248.445202 
L 378.595023 236.846966 
L 379.312795 244.151985 
L 380.030567 232.560455 
L 380.748339 239.865474 
L 381.466112 228.278403 
L 382.183884 235.583422 
L 382.901656 223.999319 
L 384.337201 238.609356 
L 385.054973 227.023284 
L 387.20829 248.93834 
L 387.926062 237.339145 
L 388.643835 244.644163 
L 389.361607 233.051996 
L 390.079379 240.357015 
L 390.797152 228.76952 
L 392.232696 243.379557 
L 392.950468 231.788971 
L 393.668241 239.093989 
L 394.386013 227.507546 
L 395.821558 242.117583 
L 396.53933 230.528396 
L 397.257102 237.833415 
L 397.974875 226.247903 
L 398.692647 233.552921 
L 399.410419 221.969856 
L 400.128191 229.274875 
L 400.845964 217.693439 
L 401.563736 224.998457 
L 402.281508 213.418107 
L 402.999281 220.723126 
L 403.717053 209.143499 
L 405.87037 231.058555 
L 406.588142 219.476519 
L 407.305914 226.781538 
L 408.023687 215.200787 
L 408.741459 222.505806 
L 409.459231 210.925913 
L 410.177004 218.230931 
L 410.894776 206.651609 
L 413.765865 235.871684 
L 414.483637 224.287417 
L 415.919182 238.897454 
L 416.636954 227.311163 
L 418.072499 241.921201 
L 418.790271 230.332216 
L 421.66136 259.552291 
L 422.379133 247.916677 
L 424.53245 269.831733 
L 425.250222 258.101911 
L 425.967994 265.40693 
L 426.685767 253.728853 
L 427.403539 261.033872 
L 428.121311 249.389616 
L 431.710173 285.91471 
L 432.427945 273.656363 
L 435.299034 302.876437 
L 435.299034 302.876437 
" style="fill:none;stroke:#ff7f0e;stroke-linecap:square;stroke-width:0.666667;"/>
   </g>
   <g id="patch_3">
    <path d="M 35.85875 316.4425 
L 35.85875 17.989125 
" style="fill:none;stroke:#000000;stroke-linecap:square;stroke-linejoin:miter;stroke-width:0.8;"/>
   </g>
   <g id="patch_4">
    <path d="M 454.32 316.4425 
L 454.32 17.989125 
" style="fill:none;stroke:#000000;stroke-linecap:square;stroke-linejoin:miter;stroke-width:0.8;"/>
   </g>
   <g id="patch_5">
    <path d="M 35.85875 316.4425 
L 454.32 316.4425 
" style="fill:none;stroke:#000000;stroke-linecap:square;stroke-linejoin:miter;stroke-width:0.8;"/>
   </g>
   <g id="patch_6">
    <path d="M 35.85875 17.989125 
L 454.32 17.989125 
" style="fill:none;stroke:#000000;stroke-linecap:square;stroke-linejoin:miter;stroke-width:0.8;"/>
   </g>
   <g id="text_15">
    <!-- "3y+1" problem -->
    <g transform="translate(214.747 11.989125)scale(0.072 -0.072)">
     <defs>
      <path d="M 43.703125 72.90625 
L 43.703125 45.796875 
L 35.203125 45.796875 
L 35.203125 72.90625 
z
M 25 72.90625 
L 25 45.796875 
L 16.5 45.796875 
L 16.5 72.90625 
z
" id="DejaVuSansMono-34"/>
      <path d="M 34.1875 57.171875 
L 34.1875 35.5 
L 55.90625 35.5 
L 55.90625 27.203125 
L 34.1875 27.203125 
L 34.1875 5.515625 
L 25.984375 5.515625 
L 25.984375 27.203125 
L 4.296875 27.203125 
L 4.296875 35.5 
L 25.984375 35.5 
L 25.984375 57.171875 
z
" id="DejaVuSansMono-43"/>
      <path id="DejaVuSansMono-32"/>
      <path d="M 18.3125 6.890625 
L 18.3125 -20.796875 
L 9.28125 -20.796875 
L 9.28125 54.6875 
L 18.3125 54.6875 
L 18.3125 47.703125 
Q 20.5625 51.765625 24.296875 53.875 
Q 28.03125 56 32.90625 56 
Q 42.828125 56 48.46875 48.328125 
Q 54.109375 40.671875 54.109375 27.09375 
Q 54.109375 13.765625 48.4375 6.171875 
Q 42.78125 -1.421875 32.90625 -1.421875 
Q 27.9375 -1.421875 24.1875 0.703125 
Q 20.453125 2.828125 18.3125 6.890625 
z
M 44.671875 27.296875 
Q 44.671875 37.75 41.375 43.0625 
Q 38.09375 48.390625 31.59375 48.390625 
Q 25.046875 48.390625 21.671875 43.046875 
Q 18.3125 37.703125 18.3125 27.296875 
Q 18.3125 16.9375 21.671875 11.5625 
Q 25.046875 6.203125 31.59375 6.203125 
Q 38.09375 6.203125 41.375 11.515625 
Q 44.671875 16.84375 44.671875 27.296875 
z
" id="DejaVuSansMono-112"/>
      <path d="M 56.390625 43.40625 
Q 53.515625 45.65625 50.53125 46.671875 
Q 47.5625 47.703125 44 47.703125 
Q 35.59375 47.703125 31.140625 42.421875 
Q 26.703125 37.15625 26.703125 27.203125 
L 26.703125 0 
L 17.671875 0 
L 17.671875 54.6875 
L 26.703125 54.6875 
L 26.703125 44 
Q 28.953125 49.8125 33.609375 52.90625 
Q 38.28125 56 44.671875 56 
Q 48 56 50.875 55.171875 
Q 53.765625 54.34375 56.390625 52.59375 
z
" id="DejaVuSansMono-114"/>
      <path d="M 30.078125 48.390625 
Q 23.25 48.390625 19.734375 43.0625 
Q 16.21875 37.75 16.21875 27.296875 
Q 16.21875 16.890625 19.734375 11.546875 
Q 23.25 6.203125 30.078125 6.203125 
Q 36.96875 6.203125 40.484375 11.546875 
Q 44 16.890625 44 27.296875 
Q 44 37.75 40.484375 43.0625 
Q 36.96875 48.390625 30.078125 48.390625 
z
M 30.078125 56 
Q 41.453125 56 47.484375 48.625 
Q 53.515625 41.265625 53.515625 27.296875 
Q 53.515625 13.28125 47.5 5.921875 
Q 41.5 -1.421875 30.078125 -1.421875 
Q 18.703125 -1.421875 12.6875 5.921875 
Q 6.6875 13.28125 6.6875 27.296875 
Q 6.6875 41.265625 12.6875 48.625 
Q 18.703125 56 30.078125 56 
z
" id="DejaVuSansMono-111"/>
      <path d="M 44.828125 27.296875 
Q 44.828125 37.75 41.5 43.0625 
Q 38.1875 48.390625 31.6875 48.390625 
Q 25.140625 48.390625 21.765625 43.046875 
Q 18.40625 37.703125 18.40625 27.296875 
Q 18.40625 16.9375 21.765625 11.5625 
Q 25.140625 6.203125 31.6875 6.203125 
Q 38.1875 6.203125 41.5 11.515625 
Q 44.828125 16.84375 44.828125 27.296875 
z
M 18.40625 47.703125 
Q 20.5625 51.703125 24.34375 53.84375 
Q 28.125 56 33.109375 56 
Q 42.96875 56 48.625 48.40625 
Q 54.296875 40.828125 54.296875 27.484375 
Q 54.296875 13.96875 48.609375 6.265625 
Q 42.921875 -1.421875 33.015625 -1.421875 
Q 28.125 -1.421875 24.390625 0.703125 
Q 20.65625 2.828125 18.40625 6.890625 
L 18.40625 0 
L 9.421875 0 
L 9.421875 75.984375 
L 18.40625 75.984375 
z
" id="DejaVuSansMono-98"/>
      <path d="M 31.203125 19.828125 
Q 31.203125 13.765625 33.421875 10.6875 
Q 35.640625 7.625 39.984375 7.625 
L 50.484375 7.625 
L 50.484375 0 
L 39.109375 0 
Q 31.0625 0 26.640625 5.171875 
Q 22.21875 10.359375 22.21875 19.828125 
L 22.21875 69.484375 
L 7.8125 69.484375 
L 7.8125 76.515625 
L 31.203125 76.515625 
z
" id="DejaVuSansMono-108"/>
      <path d="M 54.296875 29.59375 
L 54.296875 25.203125 
L 15.375 25.203125 
L 15.375 24.90625 
Q 15.375 15.96875 20.03125 11.078125 
Q 24.703125 6.203125 33.203125 6.203125 
Q 37.5 6.203125 42.1875 7.5625 
Q 46.875 8.9375 52.203125 11.71875 
L 52.203125 2.78125 
Q 47.078125 0.6875 42.3125 -0.359375 
Q 37.546875 -1.421875 33.109375 -1.421875 
Q 20.359375 -1.421875 13.171875 6.21875 
Q 6 13.875 6 27.296875 
Q 6 40.375 13.03125 48.1875 
Q 20.0625 56 31.78125 56 
Q 42.234375 56 48.265625 48.921875 
Q 54.296875 41.84375 54.296875 29.59375 
z
M 45.3125 32.234375 
Q 45.125 40.140625 41.578125 44.265625 
Q 38.03125 48.390625 31.390625 48.390625 
Q 24.90625 48.390625 20.703125 44.09375 
Q 16.5 39.796875 15.71875 32.171875 
z
" id="DejaVuSansMono-101"/>
      <path d="M 33.015625 49.125 
Q 34.671875 52.640625 37.234375 54.3125 
Q 39.796875 56 43.40625 56 
Q 50 56 52.703125 50.890625 
Q 55.421875 45.796875 55.421875 31.6875 
L 55.421875 0 
L 47.21875 0 
L 47.21875 31.296875 
Q 47.21875 42.875 45.921875 45.671875 
Q 44.625 48.484375 41.21875 48.484375 
Q 37.3125 48.484375 35.859375 45.484375 
Q 34.421875 42.484375 34.421875 31.296875 
L 34.421875 0 
L 26.21875 0 
L 26.21875 31.296875 
Q 26.21875 43.015625 24.828125 45.75 
Q 23.4375 48.484375 19.828125 48.484375 
Q 16.265625 48.484375 14.875 45.484375 
Q 13.484375 42.484375 13.484375 31.296875 
L 13.484375 0 
L 5.328125 0 
L 5.328125 54.6875 
L 13.484375 54.6875 
L 13.484375 50 
Q 15.09375 52.9375 17.5 54.46875 
Q 19.921875 56 23 56 
Q 26.703125 56 29.171875 54.296875 
Q 31.640625 52.59375 33.015625 49.125 
z
" id="DejaVuSansMono-109"/>
     </defs>
     <use xlink:href="#DejaVuSansMono-34"/>
     <use x="60.205078" xlink:href="#DejaVuSansMono-51"/>
     <use x="120.410156" xlink:href="#DejaVuSansMono-121"/>
     <use x="180.615234" xlink:href="#DejaVuSansMono-43"/>
     <use x="240.820312" xlink:href="#DejaVuSansMono-49"/>
     <use x="301.025391" xlink:href="#DejaVuSansMono-34"/>
     <use x="361.230469" xlink:href="#DejaVuSansMono-32"/>
     <use x="421.435547" xlink:href="#DejaVuSansMono-112"/>
     <use x="481.640625" xlink:href="#DejaVuSansMono-114"/>
     <use x="541.845703" xlink:href="#DejaVuSansMono-111"/>
     <use x="602.050781" xlink:href="#DejaVuSansMono-98"/>
     <use x="662.255859" xlink:href="#DejaVuSansMono-108"/>
     <use x="722.460938" xlink:href="#DejaVuSansMono-101"/>
     <use x="782.666016" xlink:href="#DejaVuSansMono-109"/>
    </g>
   </g>
   <g id="legend_1">
    <g id="patch_7">
     <path d="M 355.064062 82.0095 
L 450.12 82.0095 
Q 451.32 82.0095 451.32 80.8095 
L 451.32 22.189125 
Q 451.32 20.989125 450.12 20.989125 
L 355.064062 20.989125 
Q 353.864062 20.989125 353.864062 22.189125 
L 353.864062 80.8095 
Q 353.864062 82.0095 355.064062 82.0095 
z
" style="fill:#ffffff;opacity:0.8;stroke:#cccccc;stroke-linejoin:miter;"/>
    </g>
    <g id="line2d_15">
     <path d="M 356.264062 36.889687 
L 368.264062 36.889687 
" style="fill:none;stroke:#1f77b4;stroke-linecap:square;stroke-width:0.666667;"/>
    </g>
    <g id="line2d_16"/>
    <g id="text_16">
     <!-- "Tallest": -->
     <g transform="translate(373.064062 27.980062)scale(0.06 -0.06)">
      <defs>
       <path d="M 2.296875 72.90625 
L 57.90625 72.90625 
L 57.90625 64.59375 
L 35.109375 64.59375 
L 35.109375 0 
L 25.203125 0 
L 25.203125 64.59375 
L 2.296875 64.59375 
z
" id="DejaVuSansMono-84"/>
       <path d="M 34.28125 27.484375 
L 31.296875 27.484375 
Q 23.4375 27.484375 19.453125 24.71875 
Q 15.484375 21.96875 15.484375 16.5 
Q 15.484375 11.578125 18.453125 8.84375 
Q 21.4375 6.109375 26.703125 6.109375 
Q 34.125 6.109375 38.375 11.25 
Q 42.625 16.40625 42.671875 25.484375 
L 42.671875 27.484375 
z
M 51.703125 31.203125 
L 51.703125 0 
L 42.671875 0 
L 42.671875 8.109375 
Q 39.796875 3.21875 35.421875 0.890625 
Q 31.0625 -1.421875 24.8125 -1.421875 
Q 16.453125 -1.421875 11.46875 3.296875 
Q 6.5 8.015625 6.5 15.921875 
Q 6.5 25.046875 12.625 29.78125 
Q 18.75 34.515625 30.609375 34.515625 
L 42.671875 34.515625 
L 42.671875 35.9375 
Q 42.625 42.484375 39.34375 45.4375 
Q 36.078125 48.390625 28.90625 48.390625 
Q 24.3125 48.390625 19.625 47.0625 
Q 14.9375 45.75 10.5 43.21875 
L 10.5 52.203125 
Q 15.484375 54.109375 20.046875 55.046875 
Q 24.609375 56 28.90625 56 
Q 35.6875 56 40.5 54 
Q 45.3125 52 48.296875 48 
Q 50.140625 45.5625 50.921875 41.96875 
Q 51.703125 38.375 51.703125 31.203125 
z
" id="DejaVuSansMono-97"/>
       <path d="M 47.515625 52.78125 
L 47.515625 44 
Q 43.65625 46.234375 39.75 47.359375 
Q 35.84375 48.484375 31.78125 48.484375 
Q 25.6875 48.484375 22.671875 46.5 
Q 19.671875 44.53125 19.671875 40.484375 
Q 19.671875 36.8125 21.921875 35 
Q 24.171875 33.203125 33.109375 31.5 
L 36.71875 30.8125 
Q 43.40625 29.546875 46.84375 25.734375 
Q 50.296875 21.921875 50.296875 15.828125 
Q 50.296875 7.71875 44.53125 3.140625 
Q 38.765625 -1.421875 28.515625 -1.421875 
Q 24.46875 -1.421875 20.015625 -0.5625 
Q 15.578125 0.296875 10.40625 2 
L 10.40625 11.28125 
Q 15.4375 8.6875 20.015625 7.390625 
Q 24.609375 6.109375 28.71875 6.109375 
Q 34.671875 6.109375 37.9375 8.515625 
Q 41.21875 10.9375 41.21875 15.28125 
Q 41.21875 21.53125 29.25 23.921875 
L 28.859375 24.03125 
L 25.484375 24.703125 
Q 17.71875 26.21875 14.15625 29.8125 
Q 10.59375 33.40625 10.59375 39.59375 
Q 10.59375 47.46875 15.90625 51.734375 
Q 21.234375 56 31.109375 56 
Q 35.5 56 39.546875 55.1875 
Q 43.609375 54.390625 47.515625 52.78125 
z
" id="DejaVuSansMono-115"/>
       <path d="M 29.984375 70.21875 
L 29.984375 54.6875 
L 50.390625 54.6875 
L 50.390625 47.703125 
L 29.984375 47.703125 
L 29.984375 18.015625 
Q 29.984375 11.96875 32.28125 9.5625 
Q 34.578125 7.171875 40.28125 7.171875 
L 50.390625 7.171875 
L 50.390625 0 
L 39.40625 0 
Q 29.296875 0 25.140625 4.046875 
Q 21 8.109375 21 18.015625 
L 21 47.703125 
L 6.390625 47.703125 
L 6.390625 54.6875 
L 21 54.6875 
L 21 70.21875 
z
" id="DejaVuSansMono-116"/>
       <path d="M 23.875 51.90625 
L 36.1875 51.90625 
L 36.1875 37.109375 
L 23.875 37.109375 
z
M 23.875 14.890625 
L 36.1875 14.890625 
L 36.1875 0 
L 23.875 0 
z
" id="DejaVuSansMono-58"/>
      </defs>
      <use xlink:href="#DejaVuSansMono-34"/>
      <use x="60.205078" xlink:href="#DejaVuSansMono-84"/>
      <use x="120.410156" xlink:href="#DejaVuSansMono-97"/>
      <use x="180.615234" xlink:href="#DejaVuSansMono-108"/>
      <use x="240.820312" xlink:href="#DejaVuSansMono-108"/>
      <use x="301.025391" xlink:href="#DejaVuSansMono-101"/>
      <use x="361.230469" xlink:href="#DejaVuSansMono-115"/>
      <use x="421.435547" xlink:href="#DejaVuSansMono-116"/>
      <use x="481.640625" xlink:href="#DejaVuSansMono-34"/>
      <use x="541.845703" xlink:href="#DejaVuSansMono-58"/>
     </g>
     <!-- y_0    = 1441407 -->
     <g transform="translate(373.064062 34.737)scale(0.06 -0.06)">
      <defs>
       <path d="M 4.296875 25.59375 
L 55.90625 25.59375 
L 55.90625 17.1875 
L 4.296875 17.1875 
z
M 4.296875 45.40625 
L 55.90625 45.40625 
L 55.90625 37.109375 
L 4.296875 37.109375 
z
" id="DejaVuSansMono-61"/>
      </defs>
      <use xlink:href="#DejaVuSansMono-121"/>
      <use x="60.205078" xlink:href="#DejaVuSansMono-95"/>
      <use x="120.410156" xlink:href="#DejaVuSansMono-48"/>
      <use x="180.615234" xlink:href="#DejaVuSansMono-32"/>
      <use x="240.820312" xlink:href="#DejaVuSansMono-32"/>
      <use x="301.025391" xlink:href="#DejaVuSansMono-32"/>
      <use x="361.230469" xlink:href="#DejaVuSansMono-32"/>
      <use x="421.435547" xlink:href="#DejaVuSansMono-61"/>
      <use x="481.640625" xlink:href="#DejaVuSansMono-32"/>
      <use x="541.845703" xlink:href="#DejaVuSansMono-49"/>
      <use x="602.050781" xlink:href="#DejaVuSansMono-52"/>
      <use x="662.255859" xlink:href="#DejaVuSansMono-52"/>
      <use x="722.460938" xlink:href="#DejaVuSansMono-49"/>
      <use x="782.666016" xlink:href="#DejaVuSansMono-52"/>
      <use x="842.871094" xlink:href="#DejaVuSansMono-48"/>
      <use x="903.076172" xlink:href="#DejaVuSansMono-55"/>
     </g>
     <!-- y_max  = 151629574372 -->
     <g transform="translate(373.064062 41.660812)scale(0.06 -0.06)">
      <defs>
       <path d="M 54.59375 54.6875 
L 35.015625 28.515625 
L 56.5 0 
L 46.09375 0 
L 30.078125 21.921875 
L 14.109375 0 
L 3.71875 0 
L 25.203125 28.515625 
L 5.609375 54.6875 
L 15.578125 54.6875 
L 30.078125 34.90625 
L 44.484375 54.6875 
z
" id="DejaVuSansMono-120"/>
       <path d="M 48.390625 71.296875 
L 48.390625 62.203125 
Q 45.3125 64.015625 41.84375 64.96875 
Q 38.375 65.921875 34.625 65.921875 
Q 25.25 65.921875 20.40625 58.859375 
Q 15.578125 51.8125 15.578125 38.09375 
Q 17.921875 42.96875 22.0625 45.578125 
Q 26.21875 48.1875 31.59375 48.1875 
Q 42.140625 48.1875 47.921875 41.71875 
Q 53.71875 35.25 53.71875 23.390625 
Q 53.71875 11.578125 47.75 5.078125 
Q 41.796875 -1.421875 31 -1.421875 
Q 18.3125 -1.421875 12.40625 7.6875 
Q 6.5 16.796875 6.5 36.375 
Q 6.5 54.828125 13.59375 64.515625 
Q 20.703125 74.21875 34.1875 74.21875 
Q 37.796875 74.21875 41.40625 73.453125 
Q 45.015625 72.703125 48.390625 71.296875 
z
M 30.8125 40.484375 
Q 24.515625 40.484375 20.890625 35.9375 
Q 17.28125 31.390625 17.28125 23.390625 
Q 17.28125 15.375 20.890625 10.828125 
Q 24.515625 6.296875 30.8125 6.296875 
Q 37.359375 6.296875 40.671875 10.609375 
Q 44 14.9375 44 23.390625 
Q 44 31.890625 40.671875 36.1875 
Q 37.359375 40.484375 30.8125 40.484375 
z
" id="DejaVuSansMono-54"/>
      </defs>
      <use xlink:href="#DejaVuSansMono-121"/>
      <use x="60.205078" xlink:href="#DejaVuSansMono-95"/>
      <use x="120.410156" xlink:href="#DejaVuSansMono-109"/>
      <use x="180.615234" xlink:href="#DejaVuSansMono-97"/>
      <use x="240.820312" xlink:href="#DejaVuSansMono-120"/>
      <use x="301.025391" xlink:href="#DejaVuSansMono-32"/>
      <use x="361.230469" xlink:href="#DejaVuSansMono-32"/>
      <use x="421.435547" xlink:href="#DejaVuSansMono-61"/>
      <use x="481.640625" xlink:href="#DejaVuSansMono-32"/>
      <use x="541.845703" xlink:href="#DejaVuSansMono-49"/>
      <use x="602.050781" xlink:href="#DejaVuSansMono-53"/>
      <use x="662.255859" xlink:href="#DejaVuSansMono-49"/>
      <use x="722.460938" xlink:href="#DejaVuSansMono-54"/>
      <use x="782.666016" xlink:href="#DejaVuSansMono-50"/>
      <use x="842.871094" xlink:href="#DejaVuSansMono-57"/>
      <use x="903.076172" xlink:href="#DejaVuSansMono-53"/>
      <use x="963.28125" xlink:href="#DejaVuSansMono-55"/>
      <use x="1023.486328" xlink:href="#DejaVuSansMono-52"/>
      <use x="1083.691406" xlink:href="#DejaVuSansMono-51"/>
      <use x="1143.896484" xlink:href="#DejaVuSansMono-55"/>
      <use x="1204.101562" xlink:href="#DejaVuSansMono-50"/>
     </g>
     <!-- x_max  = 368 -->
     <g transform="translate(373.064062 48.584625)scale(0.06 -0.06)">
      <defs>
       <path d="M 30.078125 34.625 
Q 23.484375 34.625 19.890625 30.9375 
Q 16.3125 27.25 16.3125 20.515625 
Q 16.3125 13.765625 19.9375 10.03125 
Q 23.578125 6.296875 30.078125 6.296875 
Q 36.71875 6.296875 40.296875 9.984375 
Q 43.890625 13.671875 43.890625 20.515625 
Q 43.890625 27.203125 40.25 30.90625 
Q 36.625 34.625 30.078125 34.625 
z
M 21.484375 38.71875 
Q 15.1875 40.328125 11.640625 44.71875 
Q 8.109375 49.125 8.109375 55.328125 
Q 8.109375 64.015625 14.015625 69.109375 
Q 19.921875 74.21875 30.078125 74.21875 
Q 40.28125 74.21875 46.1875 69.109375 
Q 52.09375 64.015625 52.09375 55.328125 
Q 52.09375 49.125 48.546875 44.71875 
Q 45.015625 40.328125 38.71875 38.71875 
Q 46.046875 37.109375 49.921875 32.21875 
Q 53.8125 27.34375 53.8125 19.578125 
Q 53.8125 9.71875 47.515625 4.140625 
Q 41.21875 -1.421875 30.078125 -1.421875 
Q 18.953125 -1.421875 12.671875 4.125 
Q 6.390625 9.671875 6.390625 19.484375 
Q 6.390625 27.296875 10.265625 32.203125 
Q 14.15625 37.109375 21.484375 38.71875 
z
M 17.921875 54.390625 
Q 17.921875 48.53125 21.046875 45.453125 
Q 24.171875 42.390625 30.078125 42.390625 
Q 36.03125 42.390625 39.15625 45.453125 
Q 42.28125 48.53125 42.28125 54.390625 
Q 42.28125 60.359375 39.171875 63.484375 
Q 36.078125 66.609375 30.078125 66.609375 
Q 24.171875 66.609375 21.046875 63.453125 
Q 17.921875 60.296875 17.921875 54.390625 
z
" id="DejaVuSansMono-56"/>
      </defs>
      <use xlink:href="#DejaVuSansMono-120"/>
      <use x="60.205078" xlink:href="#DejaVuSansMono-95"/>
      <use x="120.410156" xlink:href="#DejaVuSansMono-109"/>
      <use x="180.615234" xlink:href="#DejaVuSansMono-97"/>
      <use x="240.820312" xlink:href="#DejaVuSansMono-120"/>
      <use x="301.025391" xlink:href="#DejaVuSansMono-32"/>
      <use x="361.230469" xlink:href="#DejaVuSansMono-32"/>
      <use x="421.435547" xlink:href="#DejaVuSansMono-61"/>
      <use x="481.640625" xlink:href="#DejaVuSansMono-32"/>
      <use x="541.845703" xlink:href="#DejaVuSansMono-51"/>
      <use x="602.050781" xlink:href="#DejaVuSansMono-54"/>
      <use x="662.255859" xlink:href="#DejaVuSansMono-56"/>
     </g>
    </g>
    <g id="line2d_17">
     <path d="M 356.264062 66.499875 
L 368.264062 66.499875 
" style="fill:none;stroke:#ff7f0e;stroke-linecap:square;stroke-width:0.666667;"/>
    </g>
    <g id="line2d_18"/>
    <g id="text_17">
     <!-- "Widest":  -->
     <g transform="translate(373.064062 57.59025)scale(0.06 -0.06)">
      <defs>
       <path d="M 0 72.90625 
L 9.625 72.90625 
L 16.609375 13.71875 
L 24.90625 52.875 
L 35.203125 52.875 
L 43.609375 13.625 
L 50.59375 72.90625 
L 60.203125 72.90625 
L 49.3125 0 
L 39.984375 0 
L 30.078125 43.3125 
L 20.21875 0 
L 10.890625 0 
z
" id="DejaVuSansMono-87"/>
       <path d="M 12.5 54.6875 
L 35.5 54.6875 
L 35.5 6.984375 
L 53.328125 6.984375 
L 53.328125 0 
L 8.6875 0 
L 8.6875 6.984375 
L 26.515625 6.984375 
L 26.515625 47.703125 
L 12.5 47.703125 
z
M 26.515625 75.984375 
L 35.5 75.984375 
L 35.5 64.59375 
L 26.515625 64.59375 
z
" id="DejaVuSansMono-105"/>
       <path d="M 41.890625 47.703125 
L 41.890625 75.984375 
L 50.875 75.984375 
L 50.875 0 
L 41.890625 0 
L 41.890625 6.890625 
Q 39.65625 2.828125 35.90625 0.703125 
Q 32.171875 -1.421875 27.296875 -1.421875 
Q 17.390625 -1.421875 11.6875 6.265625 
Q 6 13.96875 6 27.484375 
Q 6 40.828125 11.71875 48.40625 
Q 17.4375 56 27.296875 56 
Q 32.234375 56 35.984375 53.875 
Q 39.75 51.765625 41.890625 47.703125 
z
M 15.484375 27.296875 
Q 15.484375 16.84375 18.796875 11.515625 
Q 22.125 6.203125 28.609375 6.203125 
Q 35.109375 6.203125 38.5 11.5625 
Q 41.890625 16.9375 41.890625 27.296875 
Q 41.890625 37.703125 38.5 43.046875 
Q 35.109375 48.390625 28.609375 48.390625 
Q 22.125 48.390625 18.796875 43.0625 
Q 15.484375 37.75 15.484375 27.296875 
z
" id="DejaVuSansMono-100"/>
      </defs>
      <use xlink:href="#DejaVuSansMono-34"/>
      <use x="60.205078" xlink:href="#DejaVuSansMono-87"/>
      <use x="120.410156" xlink:href="#DejaVuSansMono-105"/>
      <use x="180.615234" xlink:href="#DejaVuSansMono-100"/>
      <use x="240.820312" xlink:href="#DejaVuSansMono-101"/>
      <use x="301.025391" xlink:href="#DejaVuSansMono-115"/>
      <use x="361.230469" xlink:href="#DejaVuSansMono-116"/>
      <use x="421.435547" xlink:href="#DejaVuSansMono-34"/>
      <use x="481.640625" xlink:href="#DejaVuSansMono-58"/>
      <use x="541.845703" xlink:href="#DejaVuSansMono-32"/>
     </g>
     <!-- y_0    = 1501353 -->
     <g transform="translate(373.064062 64.347187)scale(0.06 -0.06)">
      <use xlink:href="#DejaVuSansMono-121"/>
      <use x="60.205078" xlink:href="#DejaVuSansMono-95"/>
      <use x="120.410156" xlink:href="#DejaVuSansMono-48"/>
      <use x="180.615234" xlink:href="#DejaVuSansMono-32"/>
      <use x="240.820312" xlink:href="#DejaVuSansMono-32"/>
      <use x="301.025391" xlink:href="#DejaVuSansMono-32"/>
      <use x="361.230469" xlink:href="#DejaVuSansMono-32"/>
      <use x="421.435547" xlink:href="#DejaVuSansMono-61"/>
      <use x="481.640625" xlink:href="#DejaVuSansMono-32"/>
      <use x="541.845703" xlink:href="#DejaVuSansMono-49"/>
      <use x="602.050781" xlink:href="#DejaVuSansMono-53"/>
      <use x="662.255859" xlink:href="#DejaVuSansMono-48"/>
      <use x="722.460938" xlink:href="#DejaVuSansMono-49"/>
      <use x="782.666016" xlink:href="#DejaVuSansMono-51"/>
      <use x="842.871094" xlink:href="#DejaVuSansMono-53"/>
      <use x="903.076172" xlink:href="#DejaVuSansMono-51"/>
     </g>
     <!-- y_max  = 90239155648 -->
     <g transform="translate(373.064062 71.271)scale(0.06 -0.06)">
      <use xlink:href="#DejaVuSansMono-121"/>
      <use x="60.205078" xlink:href="#DejaVuSansMono-95"/>
      <use x="120.410156" xlink:href="#DejaVuSansMono-109"/>
      <use x="180.615234" xlink:href="#DejaVuSansMono-97"/>
      <use x="240.820312" xlink:href="#DejaVuSansMono-120"/>
      <use x="301.025391" xlink:href="#DejaVuSansMono-32"/>
      <use x="361.230469" xlink:href="#DejaVuSansMono-32"/>
      <use x="421.435547" xlink:href="#DejaVuSansMono-61"/>
      <use x="481.640625" xlink:href="#DejaVuSansMono-32"/>
      <use x="541.845703" xlink:href="#DejaVuSansMono-57"/>
      <use x="602.050781" xlink:href="#DejaVuSansMono-48"/>
      <use x="662.255859" xlink:href="#DejaVuSansMono-50"/>
      <use x="722.460938" xlink:href="#DejaVuSansMono-51"/>
      <use x="782.666016" xlink:href="#DejaVuSansMono-57"/>
      <use x="842.871094" xlink:href="#DejaVuSansMono-49"/>
      <use x="903.076172" xlink:href="#DejaVuSansMono-53"/>
      <use x="963.28125" xlink:href="#DejaVuSansMono-53"/>
      <use x="1023.486328" xlink:href="#DejaVuSansMono-54"/>
      <use x="1083.691406" xlink:href="#DejaVuSansMono-52"/>
      <use x="1143.896484" xlink:href="#DejaVuSansMono-56"/>
     </g>
     <!-- x_max  = 531 -->
     <g transform="translate(373.064062 78.194812)scale(0.06 -0.06)">
      <use xlink:href="#DejaVuSansMono-120"/>
      <use x="60.205078" xlink:href="#DejaVuSansMono-95"/>
      <use x="120.410156" xlink:href="#DejaVuSansMono-109"/>
      <use x="180.615234" xlink:href="#DejaVuSansMono-97"/>
      <use x="240.820312" xlink:href="#DejaVuSansMono-120"/>
      <use x="301.025391" xlink:href="#DejaVuSansMono-32"/>
      <use x="361.230469" xlink:href="#DejaVuSansMono-32"/>
      <use x="421.435547" xlink:href="#DejaVuSansMono-61"/>
      <use x="481.640625" xlink:href="#DejaVuSansMono-32"/>
      <use x="541.845703" xlink:href="#DejaVuSansMono-53"/>
      <use x="602.050781" xlink:href="#DejaVuSansMono-51"/>
      <use x="662.255859" xlink:href="#DejaVuSansMono-49"/>
     </g>
    </g>
   </g>
  </g>
 </g>
 <defs>
  <clipPath id="p1dd484d475">
   <rect height="298.453375" width="418.46125" x="35.85875" y="17.989125"/>
  </clipPath>
 </defs>
</svg>
