<?xml version="1.0" encoding="utf-8" standalone="no"?>
<!DOCTYPE svg PUBLIC "-//W3C//DTD SVG 1.1//EN"
  "http://www.w3.org/Graphics/SVG/1.1/DTD/svg11.dtd">
<!-- Created with matplotlib (https://matplotlib.org/) -->
<svg height="345.6pt" version="1.1" viewBox="0 0 460.8 345.6" width="460.8pt" xmlns="http://www.w3.org/2000/svg" xmlns:xlink="http://www.w3.org/1999/xlink">
 <metadata>
  <rdf:RDF xmlns:cc="http://creativecommons.org/ns#" xmlns:dc="http://purl.org/dc/elements/1.1/" xmlns:rdf="http://www.w3.org/1999/02/22-rdf-syntax-ns#">
   <cc:Work>
    <dc:type rdf:resource="http://purl.org/dc/dcmitype/StillImage"/>
    <dc:date>2022-03-17T00:41:47.763651</dc:date>
    <dc:format>image/svg+xml</dc:format>
    <dc:creator>
     <cc:Agent>
      <dc:title>Matplotlib v3.3.2, https://matplotlib.org/</dc:title>
     </cc:Agent>
    </dc:creator>
   </cc:Work>
  </rdf:RDF>
 </metadata>
 <defs>
  <style type="text/css">*{stroke-linecap:butt;stroke-linejoin:round;}</style>
 </defs>
 <g id="figure_1">
  <g id="patch_1">
   <path d="M 0 345.6 
L 460.8 345.6 
L 460.8 0 
L 0 0 
z
" style="fill:#ffffff;"/>
  </g>
  <g id="axes_1">
   <g id="patch_2">
    <path d="M 35.85875 316.4425 
L 454.32 316.4425 
L 454.32 17.989125 
L 35.85875 17.989125 
z
" style="fill:#ffffff;"/>
   </g>
   <g id="matplotlib.axis_1">
    <g id="xtick_1">
     <g id="line2d_1">
      <defs>
       <path d="M 0 0 
L 0 3.5 
" id="m5a8836cdc7" style="stroke:#000000;stroke-width:0.8;"/>
      </defs>
      <g>
       <use style="stroke:#000000;stroke-width:0.8;" x="54.879716" xlink:href="#m5a8836cdc7" y="316.4425"/>
      </g>
     </g>
     <g id="text_1">
      <!-- 0 -->
      <g transform="translate(53.073622 328.033437)scale(0.06 -0.06)">
       <defs>
        <path d="M 23.578125 36.625 
Q 23.578125 39.3125 25.453125 41.265625 
Q 27.34375 43.21875 29.984375 43.21875 
Q 32.71875 43.21875 34.671875 41.265625 
Q 36.625 39.3125 36.625 36.625 
Q 36.625 33.890625 34.6875 31.984375 
Q 32.765625 30.078125 29.984375 30.078125 
Q 27.25 30.078125 25.40625 31.9375 
Q 23.578125 33.796875 23.578125 36.625 
z
M 30.078125 66.40625 
Q 23.1875 66.40625 19.796875 58.984375 
Q 16.40625 51.5625 16.40625 36.375 
Q 16.40625 21.234375 19.796875 13.8125 
Q 23.1875 6.390625 30.078125 6.390625 
Q 37.015625 6.390625 40.40625 13.8125 
Q 43.796875 21.234375 43.796875 36.375 
Q 43.796875 51.5625 40.40625 58.984375 
Q 37.015625 66.40625 30.078125 66.40625 
z
M 30.078125 74.21875 
Q 41.75 74.21875 47.734375 64.640625 
Q 53.71875 55.078125 53.71875 36.375 
Q 53.71875 17.71875 47.734375 8.140625 
Q 41.75 -1.421875 30.078125 -1.421875 
Q 18.40625 -1.421875 12.453125 8.140625 
Q 6.5 17.71875 6.5 36.375 
Q 6.5 55.078125 12.453125 64.640625 
Q 18.40625 74.21875 30.078125 74.21875 
z
" id="DejaVuSansMono-48"/>
       </defs>
       <use xlink:href="#DejaVuSansMono-48"/>
      </g>
     </g>
    </g>
    <g id="xtick_2">
     <g id="line2d_2">
      <g>
       <use style="stroke:#000000;stroke-width:0.8;" x="108.916551" xlink:href="#m5a8836cdc7" y="316.4425"/>
      </g>
     </g>
     <g id="text_2">
      <!-- 100 -->
      <g transform="translate(103.49827 328.033437)scale(0.06 -0.06)">
       <defs>
        <path d="M 13.1875 8.296875 
L 28.515625 8.296875 
L 28.515625 64.015625 
L 12.015625 60.296875 
L 12.015625 69.28125 
L 28.421875 72.90625 
L 38.28125 72.90625 
L 38.28125 8.296875 
L 53.421875 8.296875 
L 53.421875 0 
L 13.1875 0 
z
" id="DejaVuSansMono-49"/>
       </defs>
       <use xlink:href="#DejaVuSansMono-49"/>
       <use x="60.205078" xlink:href="#DejaVuSansMono-48"/>
       <use x="120.410156" xlink:href="#DejaVuSansMono-48"/>
      </g>
     </g>
    </g>
    <g id="xtick_3">
     <g id="line2d_3">
      <g>
       <use style="stroke:#000000;stroke-width:0.8;" x="162.953386" xlink:href="#m5a8836cdc7" y="316.4425"/>
      </g>
     </g>
     <g id="text_3">
      <!-- 200 -->
      <g transform="translate(157.535105 328.033437)scale(0.06 -0.06)">
       <defs>
        <path d="M 18.21875 8.296875 
L 51.703125 8.296875 
L 51.703125 0 
L 7.421875 0 
L 7.421875 8.296875 
Q 16.546875 17.921875 23.375 25.296875 
Q 30.21875 32.671875 32.8125 35.6875 
Q 37.703125 41.65625 39.40625 45.34375 
Q 41.109375 49.03125 41.109375 52.875 
Q 41.109375 58.984375 37.515625 62.453125 
Q 33.9375 65.921875 27.6875 65.921875 
Q 23.25 65.921875 18.359375 64.3125 
Q 13.484375 62.703125 8.015625 59.421875 
L 8.015625 69.390625 
Q 13.03125 71.78125 17.890625 73 
Q 22.75 74.21875 27.484375 74.21875 
Q 38.1875 74.21875 44.703125 68.53125 
Q 51.21875 62.84375 51.21875 53.609375 
Q 51.21875 48.921875 49.046875 44.234375 
Q 46.875 39.546875 42 33.890625 
Q 39.265625 30.71875 34.0625 25.09375 
Q 28.859375 19.484375 18.21875 8.296875 
z
" id="DejaVuSansMono-50"/>
       </defs>
       <use xlink:href="#DejaVuSansMono-50"/>
       <use x="60.205078" xlink:href="#DejaVuSansMono-48"/>
       <use x="120.410156" xlink:href="#DejaVuSansMono-48"/>
      </g>
     </g>
    </g>
    <g id="xtick_4">
     <g id="line2d_4">
      <g>
       <use style="stroke:#000000;stroke-width:0.8;" x="216.990221" xlink:href="#m5a8836cdc7" y="316.4425"/>
      </g>
     </g>
     <g id="text_4">
      <!-- 300 -->
      <g transform="translate(211.57194 328.033437)scale(0.06 -0.06)">
       <defs>
        <path d="M 37.890625 39.015625 
Q 45.0625 37.109375 48.875 32.25 
Q 52.6875 27.390625 52.6875 20.125 
Q 52.6875 10.0625 45.921875 4.3125 
Q 39.15625 -1.421875 27.203125 -1.421875 
Q 22.171875 -1.421875 16.9375 -0.484375 
Q 11.71875 0.4375 6.6875 2.203125 
L 6.6875 12.015625 
Q 11.671875 9.421875 16.5 8.15625 
Q 21.34375 6.890625 26.125 6.890625 
Q 34.234375 6.890625 38.578125 10.546875 
Q 42.921875 14.203125 42.921875 21.09375 
Q 42.921875 27.4375 38.578125 31.171875 
Q 34.234375 34.90625 26.8125 34.90625 
L 19.28125 34.90625 
L 19.28125 43.015625 
L 26.8125 43.015625 
Q 33.59375 43.015625 37.40625 45.984375 
Q 41.21875 48.96875 41.21875 54.296875 
Q 41.21875 59.90625 37.671875 62.90625 
Q 34.125 65.921875 27.59375 65.921875 
Q 23.25 65.921875 18.609375 64.9375 
Q 13.96875 63.96875 8.890625 62.015625 
L 8.890625 71.09375 
Q 14.796875 72.65625 19.40625 73.4375 
Q 24.03125 74.21875 27.59375 74.21875 
Q 38.234375 74.21875 44.609375 68.875 
Q 50.984375 63.53125 50.984375 54.6875 
Q 50.984375 48.6875 47.625 44.671875 
Q 44.28125 40.671875 37.890625 39.015625 
z
" id="DejaVuSansMono-51"/>
       </defs>
       <use xlink:href="#DejaVuSansMono-51"/>
       <use x="60.205078" xlink:href="#DejaVuSansMono-48"/>
       <use x="120.410156" xlink:href="#DejaVuSansMono-48"/>
      </g>
     </g>
    </g>
    <g id="xtick_5">
     <g id="line2d_5">
      <g>
       <use style="stroke:#000000;stroke-width:0.8;" x="271.027056" xlink:href="#m5a8836cdc7" y="316.4425"/>
      </g>
     </g>
     <g id="text_5">
      <!-- 400 -->
      <g transform="translate(265.608775 328.033437)scale(0.06 -0.06)">
       <defs>
        <path d="M 35.890625 63.921875 
L 12.890625 25.390625 
L 35.890625 25.390625 
z
M 34.28125 72.90625 
L 45.703125 72.90625 
L 45.703125 25.390625 
L 55.421875 25.390625 
L 55.421875 17.390625 
L 45.703125 17.390625 
L 45.703125 0 
L 35.890625 0 
L 35.890625 17.390625 
L 4.984375 17.390625 
L 4.984375 26.703125 
z
" id="DejaVuSansMono-52"/>
       </defs>
       <use xlink:href="#DejaVuSansMono-52"/>
       <use x="60.205078" xlink:href="#DejaVuSansMono-48"/>
       <use x="120.410156" xlink:href="#DejaVuSansMono-48"/>
      </g>
     </g>
    </g>
    <g id="xtick_6">
     <g id="line2d_6">
      <g>
       <use style="stroke:#000000;stroke-width:0.8;" x="325.063891" xlink:href="#m5a8836cdc7" y="316.4425"/>
      </g>
     </g>
     <g id="text_6">
      <!-- 500 -->
      <g transform="translate(319.64561 328.033437)scale(0.06 -0.06)">
       <defs>
        <path d="M 10.109375 72.90625 
L 47.015625 72.90625 
L 47.015625 64.59375 
L 19.09375 64.59375 
L 19.09375 46.6875 
Q 21.1875 47.46875 23.3125 47.828125 
Q 25.4375 48.1875 27.59375 48.1875 
Q 38.921875 48.1875 45.5625 41.5 
Q 52.203125 34.8125 52.203125 23.390625 
Q 52.203125 11.859375 45.234375 5.21875 
Q 38.28125 -1.421875 26.21875 -1.421875 
Q 20.40625 -1.421875 15.59375 -0.640625 
Q 10.796875 0.140625 6.984375 1.703125 
L 6.984375 11.71875 
Q 11.46875 9.28125 16.015625 8.078125 
Q 20.5625 6.890625 25.296875 6.890625 
Q 33.453125 6.890625 37.859375 11.1875 
Q 42.28125 15.484375 42.28125 23.390625 
Q 42.28125 31.203125 37.71875 35.546875 
Q 33.15625 39.890625 25 39.890625 
Q 21.046875 39.890625 17.28125 38.984375 
Q 13.53125 38.09375 10.109375 36.28125 
z
" id="DejaVuSansMono-53"/>
       </defs>
       <use xlink:href="#DejaVuSansMono-53"/>
       <use x="60.205078" xlink:href="#DejaVuSansMono-48"/>
       <use x="120.410156" xlink:href="#DejaVuSansMono-48"/>
      </g>
     </g>
    </g>
    <g id="xtick_7">
     <g id="line2d_7">
      <g>
       <use style="stroke:#000000;stroke-width:0.8;" x="379.100726" xlink:href="#m5a8836cdc7" y="316.4425"/>
      </g>
     </g>
     <g id="text_7">
      <!-- 600 -->
      <g transform="translate(373.682444 328.033437)scale(0.06 -0.06)">
       <defs>
        <path d="M 48.390625 71.296875 
L 48.390625 62.203125 
Q 45.3125 64.015625 41.84375 64.96875 
Q 38.375 65.921875 34.625 65.921875 
Q 25.25 65.921875 20.40625 58.859375 
Q 15.578125 51.8125 15.578125 38.09375 
Q 17.921875 42.96875 22.0625 45.578125 
Q 26.21875 48.1875 31.59375 48.1875 
Q 42.140625 48.1875 47.921875 41.71875 
Q 53.71875 35.25 53.71875 23.390625 
Q 53.71875 11.578125 47.75 5.078125 
Q 41.796875 -1.421875 31 -1.421875 
Q 18.3125 -1.421875 12.40625 7.6875 
Q 6.5 16.796875 6.5 36.375 
Q 6.5 54.828125 13.59375 64.515625 
Q 20.703125 74.21875 34.1875 74.21875 
Q 37.796875 74.21875 41.40625 73.453125 
Q 45.015625 72.703125 48.390625 71.296875 
z
M 30.8125 40.484375 
Q 24.515625 40.484375 20.890625 35.9375 
Q 17.28125 31.390625 17.28125 23.390625 
Q 17.28125 15.375 20.890625 10.828125 
Q 24.515625 6.296875 30.8125 6.296875 
Q 37.359375 6.296875 40.671875 10.609375 
Q 44 14.9375 44 23.390625 
Q 44 31.890625 40.671875 36.1875 
Q 37.359375 40.484375 30.8125 40.484375 
z
" id="DejaVuSansMono-54"/>
       </defs>
       <use xlink:href="#DejaVuSansMono-54"/>
       <use x="60.205078" xlink:href="#DejaVuSansMono-48"/>
       <use x="120.410156" xlink:href="#DejaVuSansMono-48"/>
      </g>
     </g>
    </g>
    <g id="xtick_8">
     <g id="line2d_8">
      <g>
       <use style="stroke:#000000;stroke-width:0.8;" x="433.137561" xlink:href="#m5a8836cdc7" y="316.4425"/>
      </g>
     </g>
     <g id="text_8">
      <!-- 700 -->
      <g transform="translate(427.719279 328.033437)scale(0.06 -0.06)">
       <defs>
        <path d="M 6.78125 72.90625 
L 52.6875 72.90625 
L 52.6875 68.703125 
L 26.609375 0 
L 16.3125 0 
L 41.703125 64.59375 
L 6.78125 64.59375 
z
" id="DejaVuSansMono-55"/>
       </defs>
       <use xlink:href="#DejaVuSansMono-55"/>
       <use x="60.205078" xlink:href="#DejaVuSansMono-48"/>
       <use x="120.410156" xlink:href="#DejaVuSansMono-48"/>
      </g>
     </g>
    </g>
    <g id="text_9">
     <!-- n -->
     <g transform="translate(243.283281 337.872187)scale(0.06 -0.06)">
      <defs>
       <path d="M 51.3125 33.890625 
L 51.3125 0 
L 42.28125 0 
L 42.28125 33.890625 
Q 42.28125 41.265625 39.6875 44.71875 
Q 37.109375 48.1875 31.59375 48.1875 
Q 25.296875 48.1875 21.890625 43.71875 
Q 18.5 39.265625 18.5 30.90625 
L 18.5 0 
L 9.515625 0 
L 9.515625 54.6875 
L 18.5 54.6875 
L 18.5 46.484375 
Q 20.90625 51.171875 25 53.578125 
Q 29.109375 56 34.71875 56 
Q 43.0625 56 47.1875 50.5 
Q 51.3125 45.015625 51.3125 33.890625 
z
" id="DejaVuSansMono-110"/>
      </defs>
      <use xlink:href="#DejaVuSansMono-110"/>
     </g>
    </g>
   </g>
   <g id="matplotlib.axis_2">
    <g id="ytick_1">
     <g id="line2d_9">
      <defs>
       <path d="M 0 0 
L -3.5 0 
" id="ma0b240dcab" style="stroke:#000000;stroke-width:0.8;"/>
      </defs>
      <g>
       <use style="stroke:#000000;stroke-width:0.8;" x="35.85875" xlink:href="#ma0b240dcab" y="283.187834"/>
      </g>
     </g>
     <g id="text_10">
      <!-- $\mathdefault{10^{1}}$ -->
      <g transform="translate(18.83875 285.483302)scale(0.06 -0.06)">
       <use transform="translate(0 0.684375)" xlink:href="#DejaVuSansMono-49"/>
       <use transform="translate(60.205078 0.684375)" xlink:href="#DejaVuSansMono-48"/>
       <use transform="translate(121.367188 38.965625)scale(0.7)" xlink:href="#DejaVuSansMono-49"/>
      </g>
     </g>
    </g>
    <g id="ytick_2">
     <g id="line2d_10">
      <g>
       <use style="stroke:#000000;stroke-width:0.8;" x="35.85875" xlink:href="#ma0b240dcab" y="243.810626"/>
      </g>
     </g>
     <g id="text_11">
      <!-- $\mathdefault{10^{3}}$ -->
      <g transform="translate(18.83875 246.106094)scale(0.06 -0.06)">
       <use transform="translate(0 0.765625)" xlink:href="#DejaVuSansMono-49"/>
       <use transform="translate(60.205078 0.765625)" xlink:href="#DejaVuSansMono-48"/>
       <use transform="translate(121.367188 39.046875)scale(0.7)" xlink:href="#DejaVuSansMono-51"/>
      </g>
     </g>
    </g>
    <g id="ytick_3">
     <g id="line2d_11">
      <g>
       <use style="stroke:#000000;stroke-width:0.8;" x="35.85875" xlink:href="#ma0b240dcab" y="204.433418"/>
      </g>
     </g>
     <g id="text_12">
      <!-- $\mathdefault{10^{5}}$ -->
      <g transform="translate(18.83875 206.728887)scale(0.06 -0.06)">
       <use transform="translate(0 0.684375)" xlink:href="#DejaVuSansMono-49"/>
       <use transform="translate(60.205078 0.684375)" xlink:href="#DejaVuSansMono-48"/>
       <use transform="translate(121.367188 38.965625)scale(0.7)" xlink:href="#DejaVuSansMono-53"/>
      </g>
     </g>
    </g>
    <g id="ytick_4">
     <g id="line2d_12">
      <g>
       <use style="stroke:#000000;stroke-width:0.8;" x="35.85875" xlink:href="#ma0b240dcab" y="165.05621"/>
      </g>
     </g>
     <g id="text_13">
      <!-- $\mathdefault{10^{7}}$ -->
      <g transform="translate(18.83875 167.351679)scale(0.06 -0.06)">
       <use transform="translate(0 0.684375)" xlink:href="#DejaVuSansMono-49"/>
       <use transform="translate(60.205078 0.684375)" xlink:href="#DejaVuSansMono-48"/>
       <use transform="translate(121.367188 38.965625)scale(0.7)" xlink:href="#DejaVuSansMono-55"/>
      </g>
     </g>
    </g>
    <g id="ytick_5">
     <g id="line2d_13">
      <g>
       <use style="stroke:#000000;stroke-width:0.8;" x="35.85875" xlink:href="#ma0b240dcab" y="125.679002"/>
      </g>
     </g>
     <g id="text_14">
      <!-- $\mathdefault{10^{9}}$ -->
      <g transform="translate(18.83875 127.974471)scale(0.06 -0.06)">
       <defs>
        <path d="M 29.109375 32.328125 
Q 35.40625 32.328125 38.984375 36.859375 
Q 42.578125 41.40625 42.578125 49.421875 
Q 42.578125 57.421875 38.984375 61.953125 
Q 35.40625 66.5 29.109375 66.5 
Q 22.5625 66.5 19.234375 62.171875 
Q 15.921875 57.859375 15.921875 49.421875 
Q 15.921875 40.921875 19.21875 36.625 
Q 22.515625 32.328125 29.109375 32.328125 
z
M 11.53125 1.515625 
L 11.53125 10.59375 
Q 14.59375 8.796875 18.0625 7.84375 
Q 21.53125 6.890625 25.296875 6.890625 
Q 34.671875 6.890625 39.46875 13.9375 
Q 44.28125 21 44.28125 34.71875 
Q 42 29.828125 37.84375 27.21875 
Q 33.6875 24.609375 28.328125 24.609375 
Q 17.78125 24.609375 11.984375 31.09375 
Q 6.203125 37.59375 6.203125 49.515625 
Q 6.203125 61.28125 12.125 67.75 
Q 18.0625 74.21875 28.90625 74.21875 
Q 41.609375 74.21875 47.515625 65.078125 
Q 53.421875 55.953125 53.421875 36.375 
Q 53.421875 17.96875 46.3125 8.265625 
Q 39.203125 -1.421875 25.6875 -1.421875 
Q 22.125 -1.421875 18.5 -0.65625 
Q 14.890625 0.09375 11.53125 1.515625 
z
" id="DejaVuSansMono-57"/>
       </defs>
       <use transform="translate(0 0.765625)" xlink:href="#DejaVuSansMono-49"/>
       <use transform="translate(60.205078 0.765625)" xlink:href="#DejaVuSansMono-48"/>
       <use transform="translate(121.367188 39.046875)scale(0.7)" xlink:href="#DejaVuSansMono-57"/>
      </g>
     </g>
    </g>
    <g id="ytick_6">
     <g id="line2d_14">
      <g>
       <use style="stroke:#000000;stroke-width:0.8;" x="35.85875" xlink:href="#ma0b240dcab" y="86.301794"/>
      </g>
     </g>
     <g id="text_15">
      <!-- $\mathdefault{10^{11}}$ -->
      <g transform="translate(16.31875 88.597263)scale(0.06 -0.06)">
       <use transform="translate(0 0.684375)" xlink:href="#DejaVuSansMono-49"/>
       <use transform="translate(60.205078 0.684375)" xlink:href="#DejaVuSansMono-48"/>
       <use transform="translate(121.367188 38.965625)scale(0.7)" xlink:href="#DejaVuSansMono-49"/>
       <use transform="translate(163.510742 38.965625)scale(0.7)" xlink:href="#DejaVuSansMono-49"/>
      </g>
     </g>
    </g>
    <g id="ytick_7">
     <g id="line2d_15">
      <g>
       <use style="stroke:#000000;stroke-width:0.8;" x="35.85875" xlink:href="#ma0b240dcab" y="46.924586"/>
      </g>
     </g>
     <g id="text_16">
      <!-- $\mathdefault{10^{13}}$ -->
      <g transform="translate(16.31875 49.220055)scale(0.06 -0.06)">
       <use transform="translate(0 0.765625)" xlink:href="#DejaVuSansMono-49"/>
       <use transform="translate(60.205078 0.765625)" xlink:href="#DejaVuSansMono-48"/>
       <use transform="translate(121.367188 39.046875)scale(0.7)" xlink:href="#DejaVuSansMono-49"/>
       <use transform="translate(163.510742 39.046875)scale(0.7)" xlink:href="#DejaVuSansMono-51"/>
      </g>
     </g>
    </g>
    <g id="text_17">
     <!-- y_n -->
     <g transform="translate(10.904063 172.634094)rotate(-90)scale(0.06 -0.06)">
      <defs>
       <path d="M 41.890625 17.578125 
Q 39.65625 11.859375 36.1875 2.546875 
Q 31.34375 -10.359375 29.6875 -13.1875 
Q 27.4375 -17 24.0625 -18.890625 
Q 20.703125 -20.796875 16.21875 -20.796875 
L 8.984375 -20.796875 
L 8.984375 -13.28125 
L 14.3125 -13.28125 
Q 18.265625 -13.28125 20.5 -10.984375 
Q 22.75 -8.6875 26.21875 0.875 
L 5.078125 54.6875 
L 14.59375 54.6875 
L 30.8125 11.921875 
L 46.78125 54.6875 
L 56.296875 54.6875 
z
" id="DejaVuSansMono-121"/>
       <path d="M 60.203125 -19.671875 
L 60.203125 -23.578125 
L 0 -23.578125 
L 0 -19.671875 
z
" id="DejaVuSansMono-95"/>
      </defs>
      <use xlink:href="#DejaVuSansMono-121"/>
      <use x="60.205078" xlink:href="#DejaVuSansMono-95"/>
      <use x="120.410156" xlink:href="#DejaVuSansMono-110"/>
     </g>
    </g>
   </g>
   <g id="line2d_16">
    <path clip-path="url(#pf93a95867d)" d="M 54.879716 168.568199 
L 55.420084 159.174348 
L 55.960453 165.101208 
L 56.500821 155.707356 
L 57.581558 167.561077 
L 58.121926 158.167225 
L 58.662294 164.094085 
L 59.202663 154.700234 
L 60.283399 166.553954 
L 60.823768 157.160103 
L 61.364136 163.086963 
L 61.904504 153.693111 
L 62.444873 159.619972 
L 62.985241 150.22612 
L 63.52561 156.152981 
L 64.065978 146.759129 
L 64.606346 152.685989 
L 65.146715 143.292138 
L 65.687083 149.218998 
L 66.227451 139.825147 
L 66.76782 145.752007 
L 67.308188 136.358156 
L 67.848556 142.285016 
L 68.388925 132.891165 
L 68.929293 138.818025 
L 69.469661 129.424174 
L 70.550398 141.277894 
L 71.090766 131.884043 
L 72.711871 149.664624 
L 73.25224 140.270773 
L 73.792608 146.197633 
L 74.332976 136.803781 
L 74.873345 142.730642 
L 75.413713 133.33679 
L 75.954082 139.263651 
L 76.49445 129.869799 
L 77.034818 135.79666 
L 77.575187 126.402808 
L 78.115555 132.329669 
L 78.655923 122.935817 
L 79.73666 134.789538 
L 80.277028 125.395686 
L 80.817397 131.322547 
L 81.357765 121.928695 
L 81.898133 127.855556 
L 82.438502 118.461704 
L 82.97887 124.388565 
L 83.519238 114.994713 
L 84.059607 120.921574 
L 84.599975 111.527722 
L 85.140343 117.454583 
L 85.680712 108.060731 
L 86.22108 113.987591 
L 86.761449 104.59374 
L 87.301817 110.5206 
L 87.842185 101.126749 
L 89.46329 118.90733 
L 90.003659 109.513479 
L 90.544027 115.440339 
L 91.084395 106.046488 
L 91.624764 111.973348 
L 92.165132 102.579497 
L 92.7055 108.506357 
L 93.245869 99.112506 
L 94.326605 110.966226 
L 94.866974 101.572375 
L 95.94771 113.426096 
L 96.488079 104.032244 
L 97.028447 109.959104 
L 97.568816 100.565253 
L 98.649552 112.418974 
L 99.189921 103.025122 
L 100.270657 114.878843 
L 100.811026 105.484992 
L 101.891762 117.338712 
L 102.432131 107.944861 
L 102.972499 113.871721 
L 103.512867 104.47787 
L 104.053236 110.40473 
L 104.593604 101.010879 
L 105.133972 106.937739 
L 105.674341 97.543888 
L 107.295446 115.324469 
L 107.835814 105.930617 
L 108.916551 117.784338 
L 109.456919 108.390487 
L 109.997288 114.317347 
L 110.537656 104.923496 
L 111.618393 116.777216 
L 112.158761 107.383365 
L 112.699129 113.310225 
L 113.239498 103.916374 
L 113.779866 109.843234 
L 114.320234 100.449383 
L 114.860603 106.376243 
L 115.400971 96.982392 
L 115.941339 102.909252 
L 116.481708 93.515401 
L 117.022076 99.442261 
L 117.562444 90.04841 
L 118.102813 95.97527 
L 118.643181 86.581419 
L 119.723918 98.435139 
L 120.264286 89.041288 
L 120.804655 94.968148 
L 121.345023 85.574297 
L 121.885391 91.501157 
L 122.42576 82.107306 
L 122.966128 88.034166 
L 123.506496 78.640315 
L 124.046865 84.567175 
L 124.587233 75.173324 
L 125.127601 81.100184 
L 125.66797 71.706333 
L 126.208338 77.633193 
L 126.748706 68.239342 
L 127.289075 74.166202 
L 127.829443 64.772351 
L 128.369811 70.699211 
L 128.91018 61.305359 
L 129.450548 67.23222 
L 129.990917 57.838368 
L 130.531285 63.765229 
L 131.071653 54.371377 
L 131.612022 60.298238 
L 132.15239 50.904386 
L 132.692758 56.831247 
L 133.233127 47.437395 
L 134.313863 59.291116 
L 134.854232 49.897265 
L 135.3946 55.824125 
L 135.934968 46.430273 
L 136.475337 52.357134 
L 137.015705 42.963282 
L 137.556073 48.890143 
L 138.096442 39.496291 
L 138.63681 45.423152 
L 139.177178 36.0293 
L 140.257915 47.883021 
L 140.798284 38.48917 
L 141.338652 44.41603 
L 141.87902 35.022179 
L 142.419389 40.949039 
L 142.959757 31.555187 
L 145.12123 55.262629 
L 145.661599 45.868778 
L 147.282704 63.649359 
L 147.823072 54.255507 
L 149.984545 77.962949 
L 150.524914 68.569097 
L 151.605651 80.422818 
L 152.146019 71.028967 
L 154.847861 100.663268 
L 155.388229 91.269417 
L 155.928597 97.196277 
L 156.468966 87.802426 
L 157.009334 93.729286 
L 157.549702 84.335435 
L 158.090071 90.262295 
L 158.630439 80.868444 
L 159.170807 86.795304 
L 159.711176 77.401453 
L 160.251544 83.328313 
L 160.791912 73.934462 
L 161.872649 85.788182 
L 162.413017 76.394331 
L 164.034123 94.174912 
L 164.574491 84.781061 
L 165.655228 96.634781 
L 166.195596 87.24093 
L 168.357069 110.948371 
L 168.897438 101.55452 
L 171.599279 131.188822 
L 172.139648 121.79497 
L 173.220384 133.648691 
L 173.760753 124.25484 
L 174.301121 130.1817 
L 174.84149 120.787849 
L 175.922226 132.641569 
L 176.462595 123.247718 
L 177.002963 129.174578 
L 177.543331 119.780727 
L 178.624068 131.634447 
L 179.164436 122.240596 
L 180.245173 134.094317 
L 180.785541 124.700465 
L 181.32591 130.627326 
L 181.866278 121.233474 
L 182.406646 127.160335 
L 182.947015 117.766483 
L 184.027751 129.620204 
L 184.56812 120.226353 
L 185.108488 126.153213 
L 185.648857 116.759361 
L 186.189225 122.686222 
L 186.729593 113.29237 
L 187.81033 125.146091 
L 188.350698 115.75224 
L 188.891067 121.6791 
L 189.431435 112.285249 
L 189.971803 118.212109 
L 190.512172 108.818258 
L 192.133277 126.598839 
L 192.673645 117.204987 
L 193.214013 123.131848 
L 193.754382 113.737996 
L 195.375487 131.518577 
L 195.915855 122.124726 
L 197.53696 139.905307 
L 198.077329 130.511455 
L 198.617697 136.438316 
L 199.158065 127.044464 
L 200.238802 138.898185 
L 200.77917 129.504334 
L 201.319539 135.431194 
L 201.859907 126.037343 
L 203.481012 143.817924 
L 204.02138 134.424072 
L 204.561749 140.350933 
L 205.102117 130.957081 
L 205.642485 136.883942 
L 206.182854 127.49009 
L 207.803959 145.270671 
L 208.344327 135.87682 
L 208.884696 141.80368 
L 209.425064 132.409829 
L 209.965432 138.336689 
L 210.505801 128.942838 
L 211.586537 140.796558 
L 212.126906 131.402707 
L 214.288379 155.110148 
L 214.828747 145.716297 
L 215.909484 157.570018 
L 216.449852 148.176166 
L 218.070958 165.956747 
L 218.611326 156.562895 
L 219.151694 162.489756 
L 219.692063 153.095904 
L 220.232431 159.022764 
L 220.772799 149.628913 
L 221.313168 155.555773 
L 221.853536 146.161922 
L 222.393904 152.088782 
L 222.934273 142.694931 
L 223.474641 148.621791 
L 224.015009 139.22794 
L 225.095746 151.08166 
L 225.636114 141.687809 
L 226.176483 147.614669 
L 226.716851 138.220818 
L 227.257219 144.147678 
L 227.797588 134.753827 
L 228.337956 140.680687 
L 228.878325 131.286836 
L 229.418693 137.213696 
L 229.959061 127.819844 
L 232.120535 151.527286 
L 232.660903 142.133434 
L 233.74164 153.987155 
L 234.282008 144.593304 
L 234.822376 150.520164 
L 235.362745 141.126313 
L 236.443481 152.980033 
L 236.98385 143.586182 
L 238.064586 155.439902 
L 238.604955 146.046051 
L 239.685692 157.899772 
L 240.22606 148.50592 
L 240.766428 154.432781 
L 241.306797 145.038929 
L 241.847165 150.965789 
L 242.387533 141.571938 
L 244.008638 159.352519 
L 244.549007 149.958667 
L 245.089375 155.885528 
L 245.629743 146.491676 
L 246.170112 152.418537 
L 246.71048 143.024685 
L 248.871953 166.732127 
L 249.412322 157.338275 
L 251.573795 181.045716 
L 252.114164 171.651863 
L 252.654532 177.578723 
L 253.1949 168.184871 
L 254.275637 180.038591 
L 254.816005 170.644738 
L 255.356374 176.571599 
L 255.896742 167.177746 
L 256.43711 173.104607 
L 256.977479 163.710754 
L 257.517847 169.637615 
L 258.058215 160.243763 
L 259.138952 172.097484 
L 259.67932 162.703632 
L 260.760057 174.557352 
L 261.300425 165.1635 
L 262.381162 177.017221 
L 262.921531 167.623368 
L 263.461899 173.550228 
L 264.002267 164.156376 
L 265.083004 176.010097 
L 265.623372 166.616245 
L 266.163741 172.543105 
L 266.704109 163.149253 
L 267.244477 169.076113 
L 267.784846 159.682261 
L 269.946319 183.389703 
L 270.486687 173.995849 
L 271.567424 185.84957 
L 272.107792 176.455715 
L 273.728898 194.236296 
L 274.269266 184.842436 
L 275.890371 202.623017 
L 276.430739 193.229143 
L 278.051844 211.009724 
L 278.592213 201.615811 
L 279.132581 207.542671 
L 279.672949 198.148779 
L 280.213318 204.075639 
L 280.753686 194.68176 
L 281.834423 206.535481 
L 282.374791 197.141593 
L 283.995896 214.922174 
L 284.536265 205.528226 
L 285.076633 211.455086 
L 285.617001 202.06117 
L 286.15737 207.98803 
L 286.697738 198.594136 
L 287.238106 204.520996 
L 287.778475 195.127116 
L 289.939948 218.834557 
L 290.480316 209.440552 
L 291.020685 215.367412 
L 291.561053 205.973459 
L 292.101421 211.900319 
L 292.64179 202.506399 
L 293.182158 208.43326 
L 293.722526 199.039363 
L 294.262895 204.966223 
L 294.803263 195.572341 
L 295.343632 201.499202 
L 295.884 192.10533 
L 296.424368 198.03219 
L 296.964737 188.638326 
L 298.045473 200.492046 
L 298.585842 191.098177 
L 300.206947 208.878758 
L 300.747315 199.484859 
L 301.287683 205.411719 
L 301.828052 196.017836 
L 303.989525 219.725277 
L 304.529893 210.331255 
L 305.070262 216.258116 
L 305.61063 206.864151 
L 307.231735 224.644732 
L 307.772104 215.250577 
L 308.312472 221.177438 
L 308.85284 211.783384 
L 309.393209 217.710245 
L 309.933577 208.316258 
L 310.473945 214.243119 
L 311.014314 204.849178 
L 311.554682 210.776038 
L 312.09505 201.382127 
L 312.635419 207.308987 
L 313.175787 197.915096 
L 314.256524 209.768817 
L 314.796892 200.374912 
L 316.417997 218.155493 
L 316.958366 208.7615 
L 318.579471 226.542081 
L 319.119839 217.147851 
L 319.660207 223.074711 
L 320.200576 213.680608 
L 320.740944 219.607468 
L 321.281312 210.213449 
L 321.821681 216.140309 
L 322.362049 206.746346 
L 323.442786 218.600066 
L 323.983154 209.206065 
L 324.523522 215.132926 
L 325.063891 205.738975 
L 327.225364 229.446416 
L 327.765733 220.052034 
L 330.467574 249.686335 
L 331.007943 240.286819 
L 331.548311 246.21368 
L 332.088679 236.816054 
L 332.629048 242.742914 
L 333.169416 233.346548 
L 334.790521 251.127129 
L 335.330889 241.726574 
L 336.411626 253.580294 
L 336.951994 244.177513 
L 337.492363 250.104373 
L 338.032731 240.704573 
L 338.573099 246.631434 
L 339.113468 237.233619 
L 339.653836 243.16048 
L 340.194205 233.763987 
L 340.734573 239.690847 
L 341.274941 230.295236 
L 341.81531 236.222096 
L 342.355678 226.827071 
L 343.976783 244.607652 
L 344.517151 235.210673 
L 345.05752 241.137533 
L 345.597888 231.741597 
L 346.138256 237.668457 
L 346.678625 228.273216 
L 347.218993 234.200077 
L 347.759361 224.805299 
L 349.920835 248.51274 
L 350.461203 239.113951 
L 351.54194 250.967671 
L 352.082308 241.56724 
L 353.163045 253.420961 
L 353.703413 244.018344 
L 355.864887 267.725785 
L 356.405255 258.285336 
L 358.02636 276.065917 
L 358.566728 266.549033 
L 359.107097 272.475893 
L 359.647465 263.000992 
L 360.187833 268.927853 
L 360.728202 259.480392 
L 363.430044 289.114694 
L 363.970412 279.168996 
L 366.131885 302.876437 
L 366.131885 302.876437 
" style="fill:none;stroke:#1f77b4;stroke-linecap:square;stroke-width:0.666667;"/>
   </g>
   <g id="line2d_17">
    <path clip-path="url(#pf93a95867d)" d="M 54.879716 161.181162 
L 55.420084 151.78731 
L 55.960453 157.71417 
L 56.500821 148.320319 
L 57.041189 154.247179 
L 57.581558 144.853328 
L 58.662294 156.707048 
L 59.202663 147.313197 
L 60.283399 159.166918 
L 60.823768 149.773066 
L 61.904504 161.626787 
L 62.444873 152.232935 
L 63.52561 164.086656 
L 64.065978 154.692804 
L 65.146715 166.546525 
L 65.687083 157.152673 
L 66.227451 163.079533 
L 66.76782 153.685682 
L 67.308188 159.612542 
L 67.848556 150.218691 
L 68.388925 156.145551 
L 68.929293 146.751699 
L 69.469661 152.67856 
L 70.01003 143.284708 
L 70.550398 149.211569 
L 71.090766 139.817717 
L 71.631135 145.744578 
L 72.171503 136.350726 
L 73.25224 148.204447 
L 73.792608 138.810595 
L 74.332976 144.737456 
L 74.873345 135.343604 
L 75.413713 141.270465 
L 75.954082 131.876613 
L 76.49445 137.803474 
L 77.034818 128.409622 
L 77.575187 134.336483 
L 78.115555 124.942631 
L 78.655923 130.869491 
L 79.196292 121.47564 
L 80.817397 139.256221 
L 81.357765 129.86237 
L 81.898133 135.78923 
L 82.438502 126.395379 
L 83.519238 138.249099 
L 84.059607 128.855248 
L 84.599975 134.782108 
L 85.140343 125.388257 
L 86.761449 143.168838 
L 87.301817 133.774986 
L 87.842185 139.701847 
L 88.382554 130.307995 
L 88.922922 136.234856 
L 89.46329 126.841004 
L 90.003659 132.767865 
L 90.544027 123.374013 
L 91.084395 129.300874 
L 91.624764 119.907022 
L 92.7055 131.760743 
L 93.245869 122.366892 
L 93.786237 128.293752 
L 94.326605 118.8999 
L 95.407342 130.753621 
L 95.94771 121.35977 
L 97.028447 133.21349 
L 97.568816 123.819639 
L 98.109184 129.746499 
L 98.649552 120.352648 
L 99.189921 126.279508 
L 99.730289 116.885657 
L 100.270657 122.812517 
L 100.811026 113.418666 
L 101.351394 119.345526 
L 101.891762 109.951675 
L 102.972499 121.805396 
L 103.512867 112.411544 
L 104.593604 124.265265 
L 105.133972 114.871413 
L 105.674341 120.798274 
L 106.214709 111.404422 
L 107.295446 123.258143 
L 107.835814 113.864292 
L 108.376183 119.791152 
L 108.916551 110.397301 
L 109.456919 116.324161 
L 109.997288 106.93031 
L 110.537656 112.85717 
L 111.078024 103.463318 
L 111.618393 109.390179 
L 112.158761 99.996327 
L 113.239498 111.850048 
L 113.779866 102.456197 
L 114.320234 108.383057 
L 114.860603 98.989206 
L 115.941339 110.842926 
L 116.481708 101.449075 
L 117.562444 113.302796 
L 118.102813 103.908944 
L 118.643181 109.835805 
L 119.18355 100.441953 
L 121.345023 124.149395 
L 121.885391 114.755543 
L 123.506496 132.536124 
L 124.046865 123.142273 
L 124.587233 129.069133 
L 125.127601 119.675282 
L 126.748706 137.455863 
L 127.289075 128.062011 
L 128.369811 139.915732 
L 128.91018 130.521881 
L 129.450548 136.448741 
L 129.990917 127.05489 
L 130.531285 132.98175 
L 131.071653 123.587899 
L 131.612022 129.514759 
L 132.15239 120.120908 
L 132.692758 126.047768 
L 133.233127 116.653917 
L 134.313863 128.507637 
L 134.854232 119.113786 
L 136.475337 136.894367 
L 137.015705 127.500515 
L 137.556073 133.427376 
L 138.096442 124.033524 
L 138.63681 129.960385 
L 139.177178 120.566533 
L 139.717547 126.493394 
L 140.257915 117.099542 
L 140.798284 123.026403 
L 141.338652 113.632551 
L 141.87902 119.559412 
L 142.419389 110.16556 
L 142.959757 116.092421 
L 143.500125 106.698569 
L 144.040494 112.625429 
L 144.580862 103.231578 
L 145.661599 115.085299 
L 146.201967 105.691447 
L 147.282704 117.545168 
L 147.823072 108.151317 
L 148.903809 120.005037 
L 149.444177 110.611186 
L 149.984545 116.538046 
L 150.524914 107.144195 
L 151.605651 118.997916 
L 152.146019 109.604064 
L 153.767124 127.384645 
L 154.307492 117.990794 
L 154.847861 123.917654 
L 155.388229 114.523803 
L 155.928597 120.450663 
L 156.468966 111.056812 
L 157.009334 116.983672 
L 157.549702 107.589821 
L 158.090071 113.516681 
L 158.630439 104.12283 
L 159.170807 110.04969 
L 159.711176 100.655839 
L 160.791912 112.509559 
L 161.332281 103.115708 
L 161.872649 109.042568 
L 162.413017 99.648717 
L 162.953386 105.575577 
L 163.493754 96.181726 
L 164.034123 102.108586 
L 164.574491 92.714735 
L 165.114859 98.641595 
L 165.655228 89.247744 
L 166.195596 95.174604 
L 166.735964 85.780753 
L 167.276333 91.707613 
L 167.816701 82.313761 
L 170.518543 111.948063 
L 171.058911 102.554212 
L 171.599279 108.481072 
L 172.139648 99.087221 
L 172.680016 105.014081 
L 173.220384 95.62023 
L 173.760753 101.54709 
L 174.301121 92.153239 
L 176.462595 115.86068 
L 177.002963 106.466829 
L 177.543331 112.393689 
L 178.0837 102.999838 
L 180.245173 126.707279 
L 180.785541 117.313428 
L 181.866278 129.167148 
L 182.406646 119.773297 
L 183.487383 131.627018 
L 184.027751 122.233166 
L 184.56812 128.160027 
L 185.108488 118.766175 
L 186.729593 136.546756 
L 187.269962 127.152905 
L 189.431435 150.860346 
L 189.971803 141.466495 
L 191.05254 153.320216 
L 191.592908 143.926364 
L 192.673645 155.780085 
L 193.214013 146.386233 
L 193.754382 152.313094 
L 194.29475 142.919242 
L 195.375487 154.772963 
L 195.915855 145.379111 
L 196.456224 151.305972 
L 196.996592 141.91212 
L 197.53696 147.838981 
L 198.077329 138.445129 
L 198.617697 144.37199 
L 199.158065 134.978138 
L 199.698434 140.904998 
L 200.238802 131.511147 
L 200.77917 137.438007 
L 201.319539 128.044156 
L 202.940644 145.824737 
L 203.481012 136.430886 
L 204.02138 142.357746 
L 204.561749 132.963894 
L 205.102117 138.890755 
L 205.642485 129.496903 
L 206.182854 135.423764 
L 206.723222 126.029912 
L 207.263591 131.956773 
L 207.803959 122.562921 
L 208.344327 128.489782 
L 208.884696 119.09593 
L 209.425064 125.022791 
L 209.965432 115.628939 
L 210.505801 121.5558 
L 211.046169 112.161948 
L 211.586537 118.088808 
L 212.126906 108.694957 
L 213.207642 120.548678 
L 213.748011 111.154826 
L 215.909484 134.862268 
L 216.449852 125.468416 
L 219.151694 155.102718 
L 219.692063 145.708867 
L 221.313168 163.489448 
L 221.853536 154.095596 
L 222.393904 160.022456 
L 222.934273 150.628605 
L 223.474641 156.555465 
L 224.015009 147.161614 
L 224.555378 153.088474 
L 225.095746 143.694623 
L 225.636114 149.621483 
L 226.176483 140.227631 
L 226.716851 146.154492 
L 227.257219 136.76064 
L 228.337956 148.614361 
L 228.878325 139.22051 
L 229.418693 145.14737 
L 229.959061 135.753519 
L 230.49943 141.680379 
L 231.039798 132.286527 
L 231.580166 138.213388 
L 232.120535 128.819536 
L 232.660903 134.746397 
L 233.201271 125.352545 
L 233.74164 131.279406 
L 234.282008 121.885554 
L 235.903113 139.666135 
L 236.443481 130.272284 
L 237.524218 142.126005 
L 238.064586 132.732153 
L 238.604955 138.659014 
L 239.145323 129.265162 
L 239.685692 135.192023 
L 240.22606 125.798171 
L 242.387533 149.505613 
L 242.927902 140.111761 
L 244.549007 157.892342 
L 245.089375 148.498491 
L 246.170112 160.352211 
L 246.71048 150.95836 
L 247.791217 162.81208 
L 248.331585 153.418229 
L 248.871953 159.345089 
L 249.412322 149.951238 
L 250.493058 161.804958 
L 251.033427 152.411107 
L 252.114164 164.264827 
L 252.654532 154.870976 
L 253.735269 166.724696 
L 254.275637 157.330845 
L 254.816005 163.257705 
L 255.356374 153.863853 
L 255.896742 159.790714 
L 256.43711 150.396862 
L 256.977479 156.323723 
L 257.517847 146.929871 
L 259.138952 164.710452 
L 259.67932 155.3166 
L 260.219689 161.243461 
L 260.760057 151.849609 
L 261.840794 163.70333 
L 262.381162 154.309478 
L 263.461899 166.163199 
L 264.002267 156.769347 
L 264.542636 162.696208 
L 265.083004 153.302356 
L 266.163741 165.156077 
L 266.704109 155.762225 
L 268.325214 173.542806 
L 268.865582 164.148954 
L 269.946319 176.002675 
L 270.486687 166.608822 
L 271.027056 172.535683 
L 271.567424 163.14183 
L 273.728898 186.849272 
L 274.269266 177.455417 
L 274.809634 183.382277 
L 275.350003 173.988423 
L 275.890371 179.915284 
L 276.430739 170.521431 
L 277.511476 182.375151 
L 278.051844 172.981298 
L 279.672949 190.761879 
L 280.213318 181.368022 
L 281.294054 193.221742 
L 281.834423 183.827883 
L 282.915159 195.681604 
L 283.455528 186.287742 
L 283.995896 192.214603 
L 284.536265 182.820744 
L 285.617001 194.674465 
L 286.15737 185.280605 
L 286.697738 191.207465 
L 287.238106 181.813608 
L 287.778475 187.740468 
L 288.318843 178.346612 
L 288.859211 184.273473 
L 289.39958 174.879619 
L 289.939948 180.806479 
L 290.480316 171.412626 
L 291.020685 177.339486 
L 291.561053 167.945634 
L 292.101421 173.872494 
L 292.64179 164.478642 
L 293.182158 170.405502 
L 293.722526 161.01165 
L 294.803263 172.865371 
L 295.343632 163.471519 
L 295.884 169.398379 
L 296.424368 160.004527 
L 298.045473 177.785108 
L 298.585842 168.391256 
L 299.12621 174.318116 
L 299.666578 164.924264 
L 300.747315 176.777984 
L 301.287683 167.384132 
L 302.908788 185.164713 
L 303.449157 175.770859 
L 303.989525 181.697719 
L 304.529893 172.303865 
L 305.070262 178.230726 
L 305.61063 168.836873 
L 306.150999 174.763733 
L 306.691367 165.369881 
L 310.473945 206.857904 
L 311.014314 197.464014 
L 311.554682 203.390875 
L 312.09505 193.996998 
L 312.635419 199.923858 
L 313.175787 190.52999 
L 313.716155 196.456851 
L 314.256524 187.062988 
L 315.33726 198.916709 
L 315.877629 189.522842 
L 316.958366 201.376563 
L 317.498734 191.982692 
L 318.039102 197.909552 
L 318.579471 188.515687 
L 319.119839 194.442548 
L 319.660207 185.048687 
L 320.200576 190.975548 
L 320.740944 181.58169 
L 321.281312 187.508551 
L 321.821681 178.114695 
L 322.362049 184.041556 
L 322.902417 174.647702 
L 323.442786 180.574562 
L 323.983154 171.180709 
L 325.063891 183.03443 
L 325.604259 173.640576 
L 326.144627 179.567436 
L 326.684996 170.173583 
L 327.225364 176.100444 
L 327.765733 166.706591 
L 328.306101 172.633452 
L 328.846469 163.239599 
L 329.386838 169.16646 
L 329.927206 159.772608 
L 330.467574 165.699468 
L 331.007943 156.305617 
L 332.629048 174.086198 
L 333.169416 164.692345 
L 334.250153 176.546066 
L 334.790521 167.152214 
L 335.871258 179.005934 
L 336.411626 169.612081 
L 336.951994 175.538942 
L 337.492363 166.145089 
L 338.032731 172.07195 
L 338.573099 162.678098 
L 339.113468 168.604958 
L 339.653836 159.211106 
L 340.194205 165.137967 
L 340.734573 155.744115 
L 341.81531 167.597836 
L 342.355678 158.203984 
L 342.896046 164.130844 
L 343.436415 154.736993 
L 343.976783 160.663853 
L 344.517151 151.270001 
L 347.218993 180.904303 
L 347.759361 171.51045 
L 348.840098 183.364171 
L 349.380466 173.970317 
L 350.461203 185.824037 
L 351.001572 176.430183 
L 352.082308 188.283904 
L 352.622677 178.890048 
L 354.243782 196.670629 
L 354.78415 187.276766 
L 356.405255 205.057347 
L 356.945623 195.663465 
L 357.485992 201.590325 
L 358.02636 192.196453 
L 360.728202 221.830755 
L 361.26857 212.436686 
L 362.349307 224.290407 
L 362.889675 214.896264 
L 364.51078 232.676846 
L 365.051149 223.282219 
L 366.672254 241.0628 
L 367.212622 231.666882 
L 367.75299 237.593742 
L 368.293359 228.198514 
L 371.535569 263.759676 
L 372.075937 254.336491 
L 373.156674 266.190212 
L 373.697042 256.757405 
L 374.777779 268.611126 
L 375.318147 259.165609 
L 375.858516 265.092469 
L 376.398884 255.664346 
L 376.939252 261.591207 
L 377.479621 252.174584 
L 379.100726 269.955165 
L 379.641094 260.500885 
L 380.181462 266.427745 
L 380.721831 256.993844 
L 381.262199 262.920704 
L 381.802567 253.500256 
L 382.342936 259.427117 
L 382.883304 250.015581 
L 383.964041 261.869301 
L 384.504409 252.451927 
L 385.585146 264.305647 
L 386.125514 254.880532 
L 386.665883 260.807393 
L 387.206251 251.392762 
L 388.286988 263.246483 
L 388.827356 253.825004 
L 389.367724 259.751864 
L 389.908093 250.339644 
L 390.448461 256.266504 
L 390.988829 246.860429 
L 392.069566 258.71415 
L 392.609934 249.304027 
L 393.150303 255.230887 
L 393.690671 245.826205 
L 394.23104 251.753066 
L 394.771408 242.352002 
L 395.311776 248.278862 
L 395.852145 238.880205 
L 396.932881 250.733926 
L 397.47325 241.333672 
L 399.094355 259.114253 
L 399.634723 249.703352 
L 400.175091 255.630212 
L 400.71546 246.225013 
L 401.255828 252.151873 
L 401.796196 242.750465 
L 402.876933 254.604185 
L 403.417301 245.200268 
L 403.95767 251.127129 
L 404.498038 241.726574 
L 405.578775 253.580294 
L 406.119143 244.177513 
L 406.659512 250.104373 
L 407.19988 240.704573 
L 407.740248 246.631434 
L 408.280617 237.233619 
L 408.820985 243.16048 
L 409.361353 233.763987 
L 409.901722 239.690847 
L 410.44209 230.295236 
L 410.982458 236.222096 
L 411.522827 226.827071 
L 413.143932 244.607652 
L 413.6843 235.210673 
L 414.224668 241.137533 
L 414.765037 231.741597 
L 415.305405 237.668457 
L 415.845774 228.273216 
L 416.386142 234.200077 
L 416.92651 224.805299 
L 419.087984 248.51274 
L 419.628352 239.113951 
L 420.709089 250.967671 
L 421.249457 241.56724 
L 422.330194 253.420961 
L 422.870562 244.018344 
L 425.032035 267.725785 
L 425.572404 258.285336 
L 427.193509 276.065917 
L 427.733877 266.549033 
L 428.274246 272.475893 
L 428.814614 263.000992 
L 429.354982 268.927853 
L 429.895351 259.480392 
L 432.597192 289.114694 
L 433.137561 279.168996 
L 435.299034 302.876437 
L 435.299034 302.876437 
" style="fill:none;stroke:#ff7f0e;stroke-linecap:square;stroke-width:0.666667;"/>
   </g>
   <g id="patch_3">
    <path d="M 35.85875 316.4425 
L 35.85875 17.989125 
" style="fill:none;stroke:#000000;stroke-linecap:square;stroke-linejoin:miter;stroke-width:0.8;"/>
   </g>
   <g id="patch_4">
    <path d="M 454.32 316.4425 
L 454.32 17.989125 
" style="fill:none;stroke:#000000;stroke-linecap:square;stroke-linejoin:miter;stroke-width:0.8;"/>
   </g>
   <g id="patch_5">
    <path d="M 35.85875 316.4425 
L 454.32 316.4425 
" style="fill:none;stroke:#000000;stroke-linecap:square;stroke-linejoin:miter;stroke-width:0.8;"/>
   </g>
   <g id="patch_6">
    <path d="M 35.85875 17.989125 
L 454.32 17.989125 
" style="fill:none;stroke:#000000;stroke-linecap:square;stroke-linejoin:miter;stroke-width:0.8;"/>
   </g>
   <g id="text_18">
    <!-- "3y+1" problem -->
    <g transform="translate(214.747 11.989125)scale(0.072 -0.072)">
     <defs>
      <path d="M 43.703125 72.90625 
L 43.703125 45.796875 
L 35.203125 45.796875 
L 35.203125 72.90625 
z
M 25 72.90625 
L 25 45.796875 
L 16.5 45.796875 
L 16.5 72.90625 
z
" id="DejaVuSansMono-34"/>
      <path d="M 34.1875 57.171875 
L 34.1875 35.5 
L 55.90625 35.5 
L 55.90625 27.203125 
L 34.1875 27.203125 
L 34.1875 5.515625 
L 25.984375 5.515625 
L 25.984375 27.203125 
L 4.296875 27.203125 
L 4.296875 35.5 
L 25.984375 35.5 
L 25.984375 57.171875 
z
" id="DejaVuSansMono-43"/>
      <path id="DejaVuSansMono-32"/>
      <path d="M 18.3125 6.890625 
L 18.3125 -20.796875 
L 9.28125 -20.796875 
L 9.28125 54.6875 
L 18.3125 54.6875 
L 18.3125 47.703125 
Q 20.5625 51.765625 24.296875 53.875 
Q 28.03125 56 32.90625 56 
Q 42.828125 56 48.46875 48.328125 
Q 54.109375 40.671875 54.109375 27.09375 
Q 54.109375 13.765625 48.4375 6.171875 
Q 42.78125 -1.421875 32.90625 -1.421875 
Q 27.9375 -1.421875 24.1875 0.703125 
Q 20.453125 2.828125 18.3125 6.890625 
z
M 44.671875 27.296875 
Q 44.671875 37.75 41.375 43.0625 
Q 38.09375 48.390625 31.59375 48.390625 
Q 25.046875 48.390625 21.671875 43.046875 
Q 18.3125 37.703125 18.3125 27.296875 
Q 18.3125 16.9375 21.671875 11.5625 
Q 25.046875 6.203125 31.59375 6.203125 
Q 38.09375 6.203125 41.375 11.515625 
Q 44.671875 16.84375 44.671875 27.296875 
z
" id="DejaVuSansMono-112"/>
      <path d="M 56.390625 43.40625 
Q 53.515625 45.65625 50.53125 46.671875 
Q 47.5625 47.703125 44 47.703125 
Q 35.59375 47.703125 31.140625 42.421875 
Q 26.703125 37.15625 26.703125 27.203125 
L 26.703125 0 
L 17.671875 0 
L 17.671875 54.6875 
L 26.703125 54.6875 
L 26.703125 44 
Q 28.953125 49.8125 33.609375 52.90625 
Q 38.28125 56 44.671875 56 
Q 48 56 50.875 55.171875 
Q 53.765625 54.34375 56.390625 52.59375 
z
" id="DejaVuSansMono-114"/>
      <path d="M 30.078125 48.390625 
Q 23.25 48.390625 19.734375 43.0625 
Q 16.21875 37.75 16.21875 27.296875 
Q 16.21875 16.890625 19.734375 11.546875 
Q 23.25 6.203125 30.078125 6.203125 
Q 36.96875 6.203125 40.484375 11.546875 
Q 44 16.890625 44 27.296875 
Q 44 37.75 40.484375 43.0625 
Q 36.96875 48.390625 30.078125 48.390625 
z
M 30.078125 56 
Q 41.453125 56 47.484375 48.625 
Q 53.515625 41.265625 53.515625 27.296875 
Q 53.515625 13.28125 47.5 5.921875 
Q 41.5 -1.421875 30.078125 -1.421875 
Q 18.703125 -1.421875 12.6875 5.921875 
Q 6.6875 13.28125 6.6875 27.296875 
Q 6.6875 41.265625 12.6875 48.625 
Q 18.703125 56 30.078125 56 
z
" id="DejaVuSansMono-111"/>
      <path d="M 44.828125 27.296875 
Q 44.828125 37.75 41.5 43.0625 
Q 38.1875 48.390625 31.6875 48.390625 
Q 25.140625 48.390625 21.765625 43.046875 
Q 18.40625 37.703125 18.40625 27.296875 
Q 18.40625 16.9375 21.765625 11.5625 
Q 25.140625 6.203125 31.6875 6.203125 
Q 38.1875 6.203125 41.5 11.515625 
Q 44.828125 16.84375 44.828125 27.296875 
z
M 18.40625 47.703125 
Q 20.5625 51.703125 24.34375 53.84375 
Q 28.125 56 33.109375 56 
Q 42.96875 56 48.625 48.40625 
Q 54.296875 40.828125 54.296875 27.484375 
Q 54.296875 13.96875 48.609375 6.265625 
Q 42.921875 -1.421875 33.015625 -1.421875 
Q 28.125 -1.421875 24.390625 0.703125 
Q 20.65625 2.828125 18.40625 6.890625 
L 18.40625 0 
L 9.421875 0 
L 9.421875 75.984375 
L 18.40625 75.984375 
z
" id="DejaVuSansMono-98"/>
      <path d="M 31.203125 19.828125 
Q 31.203125 13.765625 33.421875 10.6875 
Q 35.640625 7.625 39.984375 7.625 
L 50.484375 7.625 
L 50.484375 0 
L 39.109375 0 
Q 31.0625 0 26.640625 5.171875 
Q 22.21875 10.359375 22.21875 19.828125 
L 22.21875 69.484375 
L 7.8125 69.484375 
L 7.8125 76.515625 
L 31.203125 76.515625 
z
" id="DejaVuSansMono-108"/>
      <path d="M 54.296875 29.59375 
L 54.296875 25.203125 
L 15.375 25.203125 
L 15.375 24.90625 
Q 15.375 15.96875 20.03125 11.078125 
Q 24.703125 6.203125 33.203125 6.203125 
Q 37.5 6.203125 42.1875 7.5625 
Q 46.875 8.9375 52.203125 11.71875 
L 52.203125 2.78125 
Q 47.078125 0.6875 42.3125 -0.359375 
Q 37.546875 -1.421875 33.109375 -1.421875 
Q 20.359375 -1.421875 13.171875 6.21875 
Q 6 13.875 6 27.296875 
Q 6 40.375 13.03125 48.1875 
Q 20.0625 56 31.78125 56 
Q 42.234375 56 48.265625 48.921875 
Q 54.296875 41.84375 54.296875 29.59375 
z
M 45.3125 32.234375 
Q 45.125 40.140625 41.578125 44.265625 
Q 38.03125 48.390625 31.390625 48.390625 
Q 24.90625 48.390625 20.703125 44.09375 
Q 16.5 39.796875 15.71875 32.171875 
z
" id="DejaVuSansMono-101"/>
      <path d="M 33.015625 49.125 
Q 34.671875 52.640625 37.234375 54.3125 
Q 39.796875 56 43.40625 56 
Q 50 56 52.703125 50.890625 
Q 55.421875 45.796875 55.421875 31.6875 
L 55.421875 0 
L 47.21875 0 
L 47.21875 31.296875 
Q 47.21875 42.875 45.921875 45.671875 
Q 44.625 48.484375 41.21875 48.484375 
Q 37.3125 48.484375 35.859375 45.484375 
Q 34.421875 42.484375 34.421875 31.296875 
L 34.421875 0 
L 26.21875 0 
L 26.21875 31.296875 
Q 26.21875 43.015625 24.828125 45.75 
Q 23.4375 48.484375 19.828125 48.484375 
Q 16.265625 48.484375 14.875 45.484375 
Q 13.484375 42.484375 13.484375 31.296875 
L 13.484375 0 
L 5.328125 0 
L 5.328125 54.6875 
L 13.484375 54.6875 
L 13.484375 50 
Q 15.09375 52.9375 17.5 54.46875 
Q 19.921875 56 23 56 
Q 26.703125 56 29.171875 54.296875 
Q 31.640625 52.59375 33.015625 49.125 
z
" id="DejaVuSansMono-109"/>
     </defs>
     <use xlink:href="#DejaVuSansMono-34"/>
     <use x="60.205078" xlink:href="#DejaVuSansMono-51"/>
     <use x="120.410156" xlink:href="#DejaVuSansMono-121"/>
     <use x="180.615234" xlink:href="#DejaVuSansMono-43"/>
     <use x="240.820312" xlink:href="#DejaVuSansMono-49"/>
     <use x="301.025391" xlink:href="#DejaVuSansMono-34"/>
     <use x="361.230469" xlink:href="#DejaVuSansMono-32"/>
     <use x="421.435547" xlink:href="#DejaVuSansMono-112"/>
     <use x="481.640625" xlink:href="#DejaVuSansMono-114"/>
     <use x="541.845703" xlink:href="#DejaVuSansMono-111"/>
     <use x="602.050781" xlink:href="#DejaVuSansMono-98"/>
     <use x="662.255859" xlink:href="#DejaVuSansMono-108"/>
     <use x="722.460938" xlink:href="#DejaVuSansMono-101"/>
     <use x="782.666016" xlink:href="#DejaVuSansMono-109"/>
    </g>
   </g>
   <g id="legend_1">
    <g id="patch_7">
     <path d="M 347.839688 82.0095 
L 450.12 82.0095 
Q 451.32 82.0095 451.32 80.8095 
L 451.32 22.189125 
Q 451.32 20.989125 450.12 20.989125 
L 347.839688 20.989125 
Q 346.639688 20.989125 346.639688 22.189125 
L 346.639688 80.8095 
Q 346.639688 82.0095 347.839688 82.0095 
z
" style="fill:#ffffff;opacity:0.8;stroke:#cccccc;stroke-linejoin:miter;"/>
    </g>
    <g id="line2d_18">
     <path d="M 349.039688 36.889687 
L 361.039688 36.889687 
" style="fill:none;stroke:#1f77b4;stroke-linecap:square;stroke-width:0.666667;"/>
    </g>
    <g id="line2d_19"/>
    <g id="text_19">
     <!-- "Tallest": -->
     <g transform="translate(365.839688 27.980062)scale(0.06 -0.06)">
      <defs>
       <path d="M 2.296875 72.90625 
L 57.90625 72.90625 
L 57.90625 64.59375 
L 35.109375 64.59375 
L 35.109375 0 
L 25.203125 0 
L 25.203125 64.59375 
L 2.296875 64.59375 
z
" id="DejaVuSansMono-84"/>
       <path d="M 34.28125 27.484375 
L 31.296875 27.484375 
Q 23.4375 27.484375 19.453125 24.71875 
Q 15.484375 21.96875 15.484375 16.5 
Q 15.484375 11.578125 18.453125 8.84375 
Q 21.4375 6.109375 26.703125 6.109375 
Q 34.125 6.109375 38.375 11.25 
Q 42.625 16.40625 42.671875 25.484375 
L 42.671875 27.484375 
z
M 51.703125 31.203125 
L 51.703125 0 
L 42.671875 0 
L 42.671875 8.109375 
Q 39.796875 3.21875 35.421875 0.890625 
Q 31.0625 -1.421875 24.8125 -1.421875 
Q 16.453125 -1.421875 11.46875 3.296875 
Q 6.5 8.015625 6.5 15.921875 
Q 6.5 25.046875 12.625 29.78125 
Q 18.75 34.515625 30.609375 34.515625 
L 42.671875 34.515625 
L 42.671875 35.9375 
Q 42.625 42.484375 39.34375 45.4375 
Q 36.078125 48.390625 28.90625 48.390625 
Q 24.3125 48.390625 19.625 47.0625 
Q 14.9375 45.75 10.5 43.21875 
L 10.5 52.203125 
Q 15.484375 54.109375 20.046875 55.046875 
Q 24.609375 56 28.90625 56 
Q 35.6875 56 40.5 54 
Q 45.3125 52 48.296875 48 
Q 50.140625 45.5625 50.921875 41.96875 
Q 51.703125 38.375 51.703125 31.203125 
z
" id="DejaVuSansMono-97"/>
       <path d="M 47.515625 52.78125 
L 47.515625 44 
Q 43.65625 46.234375 39.75 47.359375 
Q 35.84375 48.484375 31.78125 48.484375 
Q 25.6875 48.484375 22.671875 46.5 
Q 19.671875 44.53125 19.671875 40.484375 
Q 19.671875 36.8125 21.921875 35 
Q 24.171875 33.203125 33.109375 31.5 
L 36.71875 30.8125 
Q 43.40625 29.546875 46.84375 25.734375 
Q 50.296875 21.921875 50.296875 15.828125 
Q 50.296875 7.71875 44.53125 3.140625 
Q 38.765625 -1.421875 28.515625 -1.421875 
Q 24.46875 -1.421875 20.015625 -0.5625 
Q 15.578125 0.296875 10.40625 2 
L 10.40625 11.28125 
Q 15.4375 8.6875 20.015625 7.390625 
Q 24.609375 6.109375 28.71875 6.109375 
Q 34.671875 6.109375 37.9375 8.515625 
Q 41.21875 10.9375 41.21875 15.28125 
Q 41.21875 21.53125 29.25 23.921875 
L 28.859375 24.03125 
L 25.484375 24.703125 
Q 17.71875 26.21875 14.15625 29.8125 
Q 10.59375 33.40625 10.59375 39.59375 
Q 10.59375 47.46875 15.90625 51.734375 
Q 21.234375 56 31.109375 56 
Q 35.5 56 39.546875 55.1875 
Q 43.609375 54.390625 47.515625 52.78125 
z
" id="DejaVuSansMono-115"/>
       <path d="M 29.984375 70.21875 
L 29.984375 54.6875 
L 50.390625 54.6875 
L 50.390625 47.703125 
L 29.984375 47.703125 
L 29.984375 18.015625 
Q 29.984375 11.96875 32.28125 9.5625 
Q 34.578125 7.171875 40.28125 7.171875 
L 50.390625 7.171875 
L 50.390625 0 
L 39.40625 0 
Q 29.296875 0 25.140625 4.046875 
Q 21 8.109375 21 18.015625 
L 21 47.703125 
L 6.390625 47.703125 
L 6.390625 54.6875 
L 21 54.6875 
L 21 70.21875 
z
" id="DejaVuSansMono-116"/>
       <path d="M 23.875 51.90625 
L 36.1875 51.90625 
L 36.1875 37.109375 
L 23.875 37.109375 
z
M 23.875 14.890625 
L 36.1875 14.890625 
L 36.1875 0 
L 23.875 0 
z
" id="DejaVuSansMono-58"/>
      </defs>
      <use xlink:href="#DejaVuSansMono-34"/>
      <use x="60.205078" xlink:href="#DejaVuSansMono-84"/>
      <use x="120.410156" xlink:href="#DejaVuSansMono-97"/>
      <use x="180.615234" xlink:href="#DejaVuSansMono-108"/>
      <use x="240.820312" xlink:href="#DejaVuSansMono-108"/>
      <use x="301.025391" xlink:href="#DejaVuSansMono-101"/>
      <use x="361.230469" xlink:href="#DejaVuSansMono-115"/>
      <use x="421.435547" xlink:href="#DejaVuSansMono-116"/>
      <use x="481.640625" xlink:href="#DejaVuSansMono-34"/>
      <use x="541.845703" xlink:href="#DejaVuSansMono-58"/>
     </g>
     <!-- y_0    = 6631675 -->
     <g transform="translate(365.839688 34.737)scale(0.06 -0.06)">
      <defs>
       <path d="M 4.296875 25.59375 
L 55.90625 25.59375 
L 55.90625 17.1875 
L 4.296875 17.1875 
z
M 4.296875 45.40625 
L 55.90625 45.40625 
L 55.90625 37.109375 
L 4.296875 37.109375 
z
" id="DejaVuSansMono-61"/>
      </defs>
      <use xlink:href="#DejaVuSansMono-121"/>
      <use x="60.205078" xlink:href="#DejaVuSansMono-95"/>
      <use x="120.410156" xlink:href="#DejaVuSansMono-48"/>
      <use x="180.615234" xlink:href="#DejaVuSansMono-32"/>
      <use x="240.820312" xlink:href="#DejaVuSansMono-32"/>
      <use x="301.025391" xlink:href="#DejaVuSansMono-32"/>
      <use x="361.230469" xlink:href="#DejaVuSansMono-32"/>
      <use x="421.435547" xlink:href="#DejaVuSansMono-61"/>
      <use x="481.640625" xlink:href="#DejaVuSansMono-32"/>
      <use x="541.845703" xlink:href="#DejaVuSansMono-54"/>
      <use x="602.050781" xlink:href="#DejaVuSansMono-54"/>
      <use x="662.255859" xlink:href="#DejaVuSansMono-51"/>
      <use x="722.460938" xlink:href="#DejaVuSansMono-49"/>
      <use x="782.666016" xlink:href="#DejaVuSansMono-54"/>
      <use x="842.871094" xlink:href="#DejaVuSansMono-55"/>
      <use x="903.076172" xlink:href="#DejaVuSansMono-53"/>
     </g>
     <!-- y_max  = 60342610919632 -->
     <g transform="translate(365.839688 41.660812)scale(0.06 -0.06)">
      <defs>
       <path d="M 54.59375 54.6875 
L 35.015625 28.515625 
L 56.5 0 
L 46.09375 0 
L 30.078125 21.921875 
L 14.109375 0 
L 3.71875 0 
L 25.203125 28.515625 
L 5.609375 54.6875 
L 15.578125 54.6875 
L 30.078125 34.90625 
L 44.484375 54.6875 
z
" id="DejaVuSansMono-120"/>
      </defs>
      <use xlink:href="#DejaVuSansMono-121"/>
      <use x="60.205078" xlink:href="#DejaVuSansMono-95"/>
      <use x="120.410156" xlink:href="#DejaVuSansMono-109"/>
      <use x="180.615234" xlink:href="#DejaVuSansMono-97"/>
      <use x="240.820312" xlink:href="#DejaVuSansMono-120"/>
      <use x="301.025391" xlink:href="#DejaVuSansMono-32"/>
      <use x="361.230469" xlink:href="#DejaVuSansMono-32"/>
      <use x="421.435547" xlink:href="#DejaVuSansMono-61"/>
      <use x="481.640625" xlink:href="#DejaVuSansMono-32"/>
      <use x="541.845703" xlink:href="#DejaVuSansMono-54"/>
      <use x="602.050781" xlink:href="#DejaVuSansMono-48"/>
      <use x="662.255859" xlink:href="#DejaVuSansMono-51"/>
      <use x="722.460938" xlink:href="#DejaVuSansMono-52"/>
      <use x="782.666016" xlink:href="#DejaVuSansMono-50"/>
      <use x="842.871094" xlink:href="#DejaVuSansMono-54"/>
      <use x="903.076172" xlink:href="#DejaVuSansMono-49"/>
      <use x="963.28125" xlink:href="#DejaVuSansMono-48"/>
      <use x="1023.486328" xlink:href="#DejaVuSansMono-57"/>
      <use x="1083.691406" xlink:href="#DejaVuSansMono-49"/>
      <use x="1143.896484" xlink:href="#DejaVuSansMono-57"/>
      <use x="1204.101562" xlink:href="#DejaVuSansMono-54"/>
      <use x="1264.306641" xlink:href="#DejaVuSansMono-51"/>
      <use x="1324.511719" xlink:href="#DejaVuSansMono-50"/>
     </g>
     <!-- x_max  = 577 -->
     <g transform="translate(365.839688 48.584625)scale(0.06 -0.06)">
      <use xlink:href="#DejaVuSansMono-120"/>
      <use x="60.205078" xlink:href="#DejaVuSansMono-95"/>
      <use x="120.410156" xlink:href="#DejaVuSansMono-109"/>
      <use x="180.615234" xlink:href="#DejaVuSansMono-97"/>
      <use x="240.820312" xlink:href="#DejaVuSansMono-120"/>
      <use x="301.025391" xlink:href="#DejaVuSansMono-32"/>
      <use x="361.230469" xlink:href="#DejaVuSansMono-32"/>
      <use x="421.435547" xlink:href="#DejaVuSansMono-61"/>
      <use x="481.640625" xlink:href="#DejaVuSansMono-32"/>
      <use x="541.845703" xlink:href="#DejaVuSansMono-53"/>
      <use x="602.050781" xlink:href="#DejaVuSansMono-55"/>
      <use x="662.255859" xlink:href="#DejaVuSansMono-55"/>
     </g>
    </g>
    <g id="line2d_20">
     <path d="M 349.039688 66.499875 
L 361.039688 66.499875 
" style="fill:none;stroke:#ff7f0e;stroke-linecap:square;stroke-width:0.666667;"/>
    </g>
    <g id="line2d_21"/>
    <g id="text_20">
     <!-- "Widest":  -->
     <g transform="translate(365.839688 57.59025)scale(0.06 -0.06)">
      <defs>
       <path d="M 0 72.90625 
L 9.625 72.90625 
L 16.609375 13.71875 
L 24.90625 52.875 
L 35.203125 52.875 
L 43.609375 13.625 
L 50.59375 72.90625 
L 60.203125 72.90625 
L 49.3125 0 
L 39.984375 0 
L 30.078125 43.3125 
L 20.21875 0 
L 10.890625 0 
z
" id="DejaVuSansMono-87"/>
       <path d="M 12.5 54.6875 
L 35.5 54.6875 
L 35.5 6.984375 
L 53.328125 6.984375 
L 53.328125 0 
L 8.6875 0 
L 8.6875 6.984375 
L 26.515625 6.984375 
L 26.515625 47.703125 
L 12.5 47.703125 
z
M 26.515625 75.984375 
L 35.5 75.984375 
L 35.5 64.59375 
L 26.515625 64.59375 
z
" id="DejaVuSansMono-105"/>
       <path d="M 41.890625 47.703125 
L 41.890625 75.984375 
L 50.875 75.984375 
L 50.875 0 
L 41.890625 0 
L 41.890625 6.890625 
Q 39.65625 2.828125 35.90625 0.703125 
Q 32.171875 -1.421875 27.296875 -1.421875 
Q 17.390625 -1.421875 11.6875 6.265625 
Q 6 13.96875 6 27.484375 
Q 6 40.828125 11.71875 48.40625 
Q 17.4375 56 27.296875 56 
Q 32.234375 56 35.984375 53.875 
Q 39.75 51.765625 41.890625 47.703125 
z
M 15.484375 27.296875 
Q 15.484375 16.84375 18.796875 11.515625 
Q 22.125 6.203125 28.609375 6.203125 
Q 35.109375 6.203125 38.5 11.5625 
Q 41.890625 16.9375 41.890625 27.296875 
Q 41.890625 37.703125 38.5 43.046875 
Q 35.109375 48.390625 28.609375 48.390625 
Q 22.125 48.390625 18.796875 43.0625 
Q 15.484375 37.75 15.484375 27.296875 
z
" id="DejaVuSansMono-100"/>
      </defs>
      <use xlink:href="#DejaVuSansMono-34"/>
      <use x="60.205078" xlink:href="#DejaVuSansMono-87"/>
      <use x="120.410156" xlink:href="#DejaVuSansMono-105"/>
      <use x="180.615234" xlink:href="#DejaVuSansMono-100"/>
      <use x="240.820312" xlink:href="#DejaVuSansMono-101"/>
      <use x="301.025391" xlink:href="#DejaVuSansMono-115"/>
      <use x="361.230469" xlink:href="#DejaVuSansMono-116"/>
      <use x="421.435547" xlink:href="#DejaVuSansMono-34"/>
      <use x="481.640625" xlink:href="#DejaVuSansMono-58"/>
      <use x="541.845703" xlink:href="#DejaVuSansMono-32"/>
     </g>
     <!-- y_0    = 15733191 -->
     <g transform="translate(365.839688 64.347187)scale(0.06 -0.06)">
      <use xlink:href="#DejaVuSansMono-121"/>
      <use x="60.205078" xlink:href="#DejaVuSansMono-95"/>
      <use x="120.410156" xlink:href="#DejaVuSansMono-48"/>
      <use x="180.615234" xlink:href="#DejaVuSansMono-32"/>
      <use x="240.820312" xlink:href="#DejaVuSansMono-32"/>
      <use x="301.025391" xlink:href="#DejaVuSansMono-32"/>
      <use x="361.230469" xlink:href="#DejaVuSansMono-32"/>
      <use x="421.435547" xlink:href="#DejaVuSansMono-61"/>
      <use x="481.640625" xlink:href="#DejaVuSansMono-32"/>
      <use x="541.845703" xlink:href="#DejaVuSansMono-49"/>
      <use x="602.050781" xlink:href="#DejaVuSansMono-53"/>
      <use x="662.255859" xlink:href="#DejaVuSansMono-55"/>
      <use x="722.460938" xlink:href="#DejaVuSansMono-51"/>
      <use x="782.666016" xlink:href="#DejaVuSansMono-51"/>
      <use x="842.871094" xlink:href="#DejaVuSansMono-49"/>
      <use x="903.076172" xlink:href="#DejaVuSansMono-57"/>
      <use x="963.28125" xlink:href="#DejaVuSansMono-49"/>
     </g>
     <!-- y_max  = 159424614880 -->
     <g transform="translate(365.839688 71.271)scale(0.06 -0.06)">
      <defs>
       <path d="M 30.078125 34.625 
Q 23.484375 34.625 19.890625 30.9375 
Q 16.3125 27.25 16.3125 20.515625 
Q 16.3125 13.765625 19.9375 10.03125 
Q 23.578125 6.296875 30.078125 6.296875 
Q 36.71875 6.296875 40.296875 9.984375 
Q 43.890625 13.671875 43.890625 20.515625 
Q 43.890625 27.203125 40.25 30.90625 
Q 36.625 34.625 30.078125 34.625 
z
M 21.484375 38.71875 
Q 15.1875 40.328125 11.640625 44.71875 
Q 8.109375 49.125 8.109375 55.328125 
Q 8.109375 64.015625 14.015625 69.109375 
Q 19.921875 74.21875 30.078125 74.21875 
Q 40.28125 74.21875 46.1875 69.109375 
Q 52.09375 64.015625 52.09375 55.328125 
Q 52.09375 49.125 48.546875 44.71875 
Q 45.015625 40.328125 38.71875 38.71875 
Q 46.046875 37.109375 49.921875 32.21875 
Q 53.8125 27.34375 53.8125 19.578125 
Q 53.8125 9.71875 47.515625 4.140625 
Q 41.21875 -1.421875 30.078125 -1.421875 
Q 18.953125 -1.421875 12.671875 4.125 
Q 6.390625 9.671875 6.390625 19.484375 
Q 6.390625 27.296875 10.265625 32.203125 
Q 14.15625 37.109375 21.484375 38.71875 
z
M 17.921875 54.390625 
Q 17.921875 48.53125 21.046875 45.453125 
Q 24.171875 42.390625 30.078125 42.390625 
Q 36.03125 42.390625 39.15625 45.453125 
Q 42.28125 48.53125 42.28125 54.390625 
Q 42.28125 60.359375 39.171875 63.484375 
Q 36.078125 66.609375 30.078125 66.609375 
Q 24.171875 66.609375 21.046875 63.453125 
Q 17.921875 60.296875 17.921875 54.390625 
z
" id="DejaVuSansMono-56"/>
      </defs>
      <use xlink:href="#DejaVuSansMono-121"/>
      <use x="60.205078" xlink:href="#DejaVuSansMono-95"/>
      <use x="120.410156" xlink:href="#DejaVuSansMono-109"/>
      <use x="180.615234" xlink:href="#DejaVuSansMono-97"/>
      <use x="240.820312" xlink:href="#DejaVuSansMono-120"/>
      <use x="301.025391" xlink:href="#DejaVuSansMono-32"/>
      <use x="361.230469" xlink:href="#DejaVuSansMono-32"/>
      <use x="421.435547" xlink:href="#DejaVuSansMono-61"/>
      <use x="481.640625" xlink:href="#DejaVuSansMono-32"/>
      <use x="541.845703" xlink:href="#DejaVuSansMono-49"/>
      <use x="602.050781" xlink:href="#DejaVuSansMono-53"/>
      <use x="662.255859" xlink:href="#DejaVuSansMono-57"/>
      <use x="722.460938" xlink:href="#DejaVuSansMono-52"/>
      <use x="782.666016" xlink:href="#DejaVuSansMono-50"/>
      <use x="842.871094" xlink:href="#DejaVuSansMono-52"/>
      <use x="903.076172" xlink:href="#DejaVuSansMono-54"/>
      <use x="963.28125" xlink:href="#DejaVuSansMono-49"/>
      <use x="1023.486328" xlink:href="#DejaVuSansMono-52"/>
      <use x="1083.691406" xlink:href="#DejaVuSansMono-56"/>
      <use x="1143.896484" xlink:href="#DejaVuSansMono-56"/>
      <use x="1204.101562" xlink:href="#DejaVuSansMono-48"/>
     </g>
     <!-- x_max  = 705 -->
     <g transform="translate(365.839688 78.194812)scale(0.06 -0.06)">
      <use xlink:href="#DejaVuSansMono-120"/>
      <use x="60.205078" xlink:href="#DejaVuSansMono-95"/>
      <use x="120.410156" xlink:href="#DejaVuSansMono-109"/>
      <use x="180.615234" xlink:href="#DejaVuSansMono-97"/>
      <use x="240.820312" xlink:href="#DejaVuSansMono-120"/>
      <use x="301.025391" xlink:href="#DejaVuSansMono-32"/>
      <use x="361.230469" xlink:href="#DejaVuSansMono-32"/>
      <use x="421.435547" xlink:href="#DejaVuSansMono-61"/>
      <use x="481.640625" xlink:href="#DejaVuSansMono-32"/>
      <use x="541.845703" xlink:href="#DejaVuSansMono-55"/>
      <use x="602.050781" xlink:href="#DejaVuSansMono-48"/>
      <use x="662.255859" xlink:href="#DejaVuSansMono-53"/>
     </g>
    </g>
   </g>
  </g>
 </g>
 <defs>
  <clipPath id="pf93a95867d">
   <rect height="298.453375" width="418.46125" x="35.85875" y="17.989125"/>
  </clipPath>
 </defs>
</svg>
