<?xml version="1.0" encoding="utf-8" standalone="no"?>
<!DOCTYPE svg PUBLIC "-//W3C//DTD SVG 1.1//EN"
  "http://www.w3.org/Graphics/SVG/1.1/DTD/svg11.dtd">
<!-- Created with matplotlib (https://matplotlib.org/) -->
<svg height="345.6pt" version="1.1" viewBox="0 0 460.8 345.6" width="460.8pt" xmlns="http://www.w3.org/2000/svg" xmlns:xlink="http://www.w3.org/1999/xlink">
 <metadata>
  <rdf:RDF xmlns:cc="http://creativecommons.org/ns#" xmlns:dc="http://purl.org/dc/elements/1.1/" xmlns:rdf="http://www.w3.org/1999/02/22-rdf-syntax-ns#">
   <cc:Work>
    <dc:type rdf:resource="http://purl.org/dc/dcmitype/StillImage"/>
    <dc:date>2022-03-17T01:32:50.091820</dc:date>
    <dc:format>image/svg+xml</dc:format>
    <dc:creator>
     <cc:Agent>
      <dc:title>Matplotlib v3.3.2, https://matplotlib.org/</dc:title>
     </cc:Agent>
    </dc:creator>
   </cc:Work>
  </rdf:RDF>
 </metadata>
 <defs>
  <style type="text/css">*{stroke-linecap:butt;stroke-linejoin:round;}</style>
 </defs>
 <g id="figure_1">
  <g id="patch_1">
   <path d="M 0 345.6 
L 460.8 345.6 
L 460.8 0 
L 0 0 
z
" style="fill:#ffffff;"/>
  </g>
  <g id="axes_1">
   <g id="patch_2">
    <path d="M 35.85875 316.4425 
L 454.32 316.4425 
L 454.32 17.989125 
L 35.85875 17.989125 
z
" style="fill:#ffffff;"/>
   </g>
   <g id="matplotlib.axis_1">
    <g id="xtick_1">
     <g id="line2d_1">
      <defs>
       <path d="M 0 0 
L 0 3.5 
" id="mfae2f74b01" style="stroke:#000000;stroke-width:0.8;"/>
      </defs>
      <g>
       <use style="stroke:#000000;stroke-width:0.8;" x="54.879716" xlink:href="#mfae2f74b01" y="316.4425"/>
      </g>
     </g>
     <g id="text_1">
      <!-- 0 -->
      <g transform="translate(53.073622 328.033437)scale(0.06 -0.06)">
       <defs>
        <path d="M 23.578125 36.625 
Q 23.578125 39.3125 25.453125 41.265625 
Q 27.34375 43.21875 29.984375 43.21875 
Q 32.71875 43.21875 34.671875 41.265625 
Q 36.625 39.3125 36.625 36.625 
Q 36.625 33.890625 34.6875 31.984375 
Q 32.765625 30.078125 29.984375 30.078125 
Q 27.25 30.078125 25.40625 31.9375 
Q 23.578125 33.796875 23.578125 36.625 
z
M 30.078125 66.40625 
Q 23.1875 66.40625 19.796875 58.984375 
Q 16.40625 51.5625 16.40625 36.375 
Q 16.40625 21.234375 19.796875 13.8125 
Q 23.1875 6.390625 30.078125 6.390625 
Q 37.015625 6.390625 40.40625 13.8125 
Q 43.796875 21.234375 43.796875 36.375 
Q 43.796875 51.5625 40.40625 58.984375 
Q 37.015625 66.40625 30.078125 66.40625 
z
M 30.078125 74.21875 
Q 41.75 74.21875 47.734375 64.640625 
Q 53.71875 55.078125 53.71875 36.375 
Q 53.71875 17.71875 47.734375 8.140625 
Q 41.75 -1.421875 30.078125 -1.421875 
Q 18.40625 -1.421875 12.453125 8.140625 
Q 6.5 17.71875 6.5 36.375 
Q 6.5 55.078125 12.453125 64.640625 
Q 18.40625 74.21875 30.078125 74.21875 
z
" id="DejaVuSansMono-48"/>
       </defs>
       <use xlink:href="#DejaVuSansMono-48"/>
      </g>
     </g>
    </g>
    <g id="xtick_2">
     <g id="line2d_2">
      <g>
       <use style="stroke:#000000;stroke-width:0.8;" x="135.052386" xlink:href="#mfae2f74b01" y="316.4425"/>
      </g>
     </g>
     <g id="text_2">
      <!-- 200 -->
      <g transform="translate(129.634104 328.033437)scale(0.06 -0.06)">
       <defs>
        <path d="M 18.21875 8.296875 
L 51.703125 8.296875 
L 51.703125 0 
L 7.421875 0 
L 7.421875 8.296875 
Q 16.546875 17.921875 23.375 25.296875 
Q 30.21875 32.671875 32.8125 35.6875 
Q 37.703125 41.65625 39.40625 45.34375 
Q 41.109375 49.03125 41.109375 52.875 
Q 41.109375 58.984375 37.515625 62.453125 
Q 33.9375 65.921875 27.6875 65.921875 
Q 23.25 65.921875 18.359375 64.3125 
Q 13.484375 62.703125 8.015625 59.421875 
L 8.015625 69.390625 
Q 13.03125 71.78125 17.890625 73 
Q 22.75 74.21875 27.484375 74.21875 
Q 38.1875 74.21875 44.703125 68.53125 
Q 51.21875 62.84375 51.21875 53.609375 
Q 51.21875 48.921875 49.046875 44.234375 
Q 46.875 39.546875 42 33.890625 
Q 39.265625 30.71875 34.0625 25.09375 
Q 28.859375 19.484375 18.21875 8.296875 
z
" id="DejaVuSansMono-50"/>
       </defs>
       <use xlink:href="#DejaVuSansMono-50"/>
       <use x="60.205078" xlink:href="#DejaVuSansMono-48"/>
       <use x="120.410156" xlink:href="#DejaVuSansMono-48"/>
      </g>
     </g>
    </g>
    <g id="xtick_3">
     <g id="line2d_3">
      <g>
       <use style="stroke:#000000;stroke-width:0.8;" x="215.225056" xlink:href="#mfae2f74b01" y="316.4425"/>
      </g>
     </g>
     <g id="text_3">
      <!-- 400 -->
      <g transform="translate(209.806774 328.033437)scale(0.06 -0.06)">
       <defs>
        <path d="M 35.890625 63.921875 
L 12.890625 25.390625 
L 35.890625 25.390625 
z
M 34.28125 72.90625 
L 45.703125 72.90625 
L 45.703125 25.390625 
L 55.421875 25.390625 
L 55.421875 17.390625 
L 45.703125 17.390625 
L 45.703125 0 
L 35.890625 0 
L 35.890625 17.390625 
L 4.984375 17.390625 
L 4.984375 26.703125 
z
" id="DejaVuSansMono-52"/>
       </defs>
       <use xlink:href="#DejaVuSansMono-52"/>
       <use x="60.205078" xlink:href="#DejaVuSansMono-48"/>
       <use x="120.410156" xlink:href="#DejaVuSansMono-48"/>
      </g>
     </g>
    </g>
    <g id="xtick_4">
     <g id="line2d_4">
      <g>
       <use style="stroke:#000000;stroke-width:0.8;" x="295.397725" xlink:href="#mfae2f74b01" y="316.4425"/>
      </g>
     </g>
     <g id="text_4">
      <!-- 600 -->
      <g transform="translate(289.979444 328.033437)scale(0.06 -0.06)">
       <defs>
        <path d="M 48.390625 71.296875 
L 48.390625 62.203125 
Q 45.3125 64.015625 41.84375 64.96875 
Q 38.375 65.921875 34.625 65.921875 
Q 25.25 65.921875 20.40625 58.859375 
Q 15.578125 51.8125 15.578125 38.09375 
Q 17.921875 42.96875 22.0625 45.578125 
Q 26.21875 48.1875 31.59375 48.1875 
Q 42.140625 48.1875 47.921875 41.71875 
Q 53.71875 35.25 53.71875 23.390625 
Q 53.71875 11.578125 47.75 5.078125 
Q 41.796875 -1.421875 31 -1.421875 
Q 18.3125 -1.421875 12.40625 7.6875 
Q 6.5 16.796875 6.5 36.375 
Q 6.5 54.828125 13.59375 64.515625 
Q 20.703125 74.21875 34.1875 74.21875 
Q 37.796875 74.21875 41.40625 73.453125 
Q 45.015625 72.703125 48.390625 71.296875 
z
M 30.8125 40.484375 
Q 24.515625 40.484375 20.890625 35.9375 
Q 17.28125 31.390625 17.28125 23.390625 
Q 17.28125 15.375 20.890625 10.828125 
Q 24.515625 6.296875 30.8125 6.296875 
Q 37.359375 6.296875 40.671875 10.609375 
Q 44 14.9375 44 23.390625 
Q 44 31.890625 40.671875 36.1875 
Q 37.359375 40.484375 30.8125 40.484375 
z
" id="DejaVuSansMono-54"/>
       </defs>
       <use xlink:href="#DejaVuSansMono-54"/>
       <use x="60.205078" xlink:href="#DejaVuSansMono-48"/>
       <use x="120.410156" xlink:href="#DejaVuSansMono-48"/>
      </g>
     </g>
    </g>
    <g id="xtick_5">
     <g id="line2d_5">
      <g>
       <use style="stroke:#000000;stroke-width:0.8;" x="375.570395" xlink:href="#mfae2f74b01" y="316.4425"/>
      </g>
     </g>
     <g id="text_5">
      <!-- 800 -->
      <g transform="translate(370.152114 328.033437)scale(0.06 -0.06)">
       <defs>
        <path d="M 30.078125 34.625 
Q 23.484375 34.625 19.890625 30.9375 
Q 16.3125 27.25 16.3125 20.515625 
Q 16.3125 13.765625 19.9375 10.03125 
Q 23.578125 6.296875 30.078125 6.296875 
Q 36.71875 6.296875 40.296875 9.984375 
Q 43.890625 13.671875 43.890625 20.515625 
Q 43.890625 27.203125 40.25 30.90625 
Q 36.625 34.625 30.078125 34.625 
z
M 21.484375 38.71875 
Q 15.1875 40.328125 11.640625 44.71875 
Q 8.109375 49.125 8.109375 55.328125 
Q 8.109375 64.015625 14.015625 69.109375 
Q 19.921875 74.21875 30.078125 74.21875 
Q 40.28125 74.21875 46.1875 69.109375 
Q 52.09375 64.015625 52.09375 55.328125 
Q 52.09375 49.125 48.546875 44.71875 
Q 45.015625 40.328125 38.71875 38.71875 
Q 46.046875 37.109375 49.921875 32.21875 
Q 53.8125 27.34375 53.8125 19.578125 
Q 53.8125 9.71875 47.515625 4.140625 
Q 41.21875 -1.421875 30.078125 -1.421875 
Q 18.953125 -1.421875 12.671875 4.125 
Q 6.390625 9.671875 6.390625 19.484375 
Q 6.390625 27.296875 10.265625 32.203125 
Q 14.15625 37.109375 21.484375 38.71875 
z
M 17.921875 54.390625 
Q 17.921875 48.53125 21.046875 45.453125 
Q 24.171875 42.390625 30.078125 42.390625 
Q 36.03125 42.390625 39.15625 45.453125 
Q 42.28125 48.53125 42.28125 54.390625 
Q 42.28125 60.359375 39.171875 63.484375 
Q 36.078125 66.609375 30.078125 66.609375 
Q 24.171875 66.609375 21.046875 63.453125 
Q 17.921875 60.296875 17.921875 54.390625 
z
" id="DejaVuSansMono-56"/>
       </defs>
       <use xlink:href="#DejaVuSansMono-56"/>
       <use x="60.205078" xlink:href="#DejaVuSansMono-48"/>
       <use x="120.410156" xlink:href="#DejaVuSansMono-48"/>
      </g>
     </g>
    </g>
    <g id="text_6">
     <!-- n -->
     <g transform="translate(243.283281 337.872187)scale(0.06 -0.06)">
      <defs>
       <path d="M 51.3125 33.890625 
L 51.3125 0 
L 42.28125 0 
L 42.28125 33.890625 
Q 42.28125 41.265625 39.6875 44.71875 
Q 37.109375 48.1875 31.59375 48.1875 
Q 25.296875 48.1875 21.890625 43.71875 
Q 18.5 39.265625 18.5 30.90625 
L 18.5 0 
L 9.515625 0 
L 9.515625 54.6875 
L 18.5 54.6875 
L 18.5 46.484375 
Q 20.90625 51.171875 25 53.578125 
Q 29.109375 56 34.71875 56 
Q 43.0625 56 47.1875 50.5 
Q 51.3125 45.015625 51.3125 33.890625 
z
" id="DejaVuSansMono-110"/>
      </defs>
      <use xlink:href="#DejaVuSansMono-110"/>
     </g>
    </g>
   </g>
   <g id="matplotlib.axis_2">
    <g id="ytick_1">
     <g id="line2d_6">
      <defs>
       <path d="M 0 0 
L -3.5 0 
" id="ma2cc334722" style="stroke:#000000;stroke-width:0.8;"/>
      </defs>
      <g>
       <use style="stroke:#000000;stroke-width:0.8;" x="35.85875" xlink:href="#ma2cc334722" y="284.389482"/>
      </g>
     </g>
     <g id="text_7">
      <!-- $\mathdefault{10^{1}}$ -->
      <g transform="translate(18.83875 286.684951)scale(0.06 -0.06)">
       <defs>
        <path d="M 13.1875 8.296875 
L 28.515625 8.296875 
L 28.515625 64.015625 
L 12.015625 60.296875 
L 12.015625 69.28125 
L 28.421875 72.90625 
L 38.28125 72.90625 
L 38.28125 8.296875 
L 53.421875 8.296875 
L 53.421875 0 
L 13.1875 0 
z
" id="DejaVuSansMono-49"/>
       </defs>
       <use transform="translate(0 0.684375)" xlink:href="#DejaVuSansMono-49"/>
       <use transform="translate(60.205078 0.684375)" xlink:href="#DejaVuSansMono-48"/>
       <use transform="translate(121.367188 38.965625)scale(0.7)" xlink:href="#DejaVuSansMono-49"/>
      </g>
     </g>
    </g>
    <g id="ytick_2">
     <g id="line2d_7">
      <g>
       <use style="stroke:#000000;stroke-width:0.8;" x="35.85875" xlink:href="#ma2cc334722" y="247.415572"/>
      </g>
     </g>
     <g id="text_8">
      <!-- $\mathdefault{10^{3}}$ -->
      <g transform="translate(18.83875 249.711041)scale(0.06 -0.06)">
       <defs>
        <path d="M 37.890625 39.015625 
Q 45.0625 37.109375 48.875 32.25 
Q 52.6875 27.390625 52.6875 20.125 
Q 52.6875 10.0625 45.921875 4.3125 
Q 39.15625 -1.421875 27.203125 -1.421875 
Q 22.171875 -1.421875 16.9375 -0.484375 
Q 11.71875 0.4375 6.6875 2.203125 
L 6.6875 12.015625 
Q 11.671875 9.421875 16.5 8.15625 
Q 21.34375 6.890625 26.125 6.890625 
Q 34.234375 6.890625 38.578125 10.546875 
Q 42.921875 14.203125 42.921875 21.09375 
Q 42.921875 27.4375 38.578125 31.171875 
Q 34.234375 34.90625 26.8125 34.90625 
L 19.28125 34.90625 
L 19.28125 43.015625 
L 26.8125 43.015625 
Q 33.59375 43.015625 37.40625 45.984375 
Q 41.21875 48.96875 41.21875 54.296875 
Q 41.21875 59.90625 37.671875 62.90625 
Q 34.125 65.921875 27.59375 65.921875 
Q 23.25 65.921875 18.609375 64.9375 
Q 13.96875 63.96875 8.890625 62.015625 
L 8.890625 71.09375 
Q 14.796875 72.65625 19.40625 73.4375 
Q 24.03125 74.21875 27.59375 74.21875 
Q 38.234375 74.21875 44.609375 68.875 
Q 50.984375 63.53125 50.984375 54.6875 
Q 50.984375 48.6875 47.625 44.671875 
Q 44.28125 40.671875 37.890625 39.015625 
z
" id="DejaVuSansMono-51"/>
       </defs>
       <use transform="translate(0 0.765625)" xlink:href="#DejaVuSansMono-49"/>
       <use transform="translate(60.205078 0.765625)" xlink:href="#DejaVuSansMono-48"/>
       <use transform="translate(121.367188 39.046875)scale(0.7)" xlink:href="#DejaVuSansMono-51"/>
      </g>
     </g>
    </g>
    <g id="ytick_3">
     <g id="line2d_8">
      <g>
       <use style="stroke:#000000;stroke-width:0.8;" x="35.85875" xlink:href="#ma2cc334722" y="210.441662"/>
      </g>
     </g>
     <g id="text_9">
      <!-- $\mathdefault{10^{5}}$ -->
      <g transform="translate(18.83875 212.737131)scale(0.06 -0.06)">
       <defs>
        <path d="M 10.109375 72.90625 
L 47.015625 72.90625 
L 47.015625 64.59375 
L 19.09375 64.59375 
L 19.09375 46.6875 
Q 21.1875 47.46875 23.3125 47.828125 
Q 25.4375 48.1875 27.59375 48.1875 
Q 38.921875 48.1875 45.5625 41.5 
Q 52.203125 34.8125 52.203125 23.390625 
Q 52.203125 11.859375 45.234375 5.21875 
Q 38.28125 -1.421875 26.21875 -1.421875 
Q 20.40625 -1.421875 15.59375 -0.640625 
Q 10.796875 0.140625 6.984375 1.703125 
L 6.984375 11.71875 
Q 11.46875 9.28125 16.015625 8.078125 
Q 20.5625 6.890625 25.296875 6.890625 
Q 33.453125 6.890625 37.859375 11.1875 
Q 42.28125 15.484375 42.28125 23.390625 
Q 42.28125 31.203125 37.71875 35.546875 
Q 33.15625 39.890625 25 39.890625 
Q 21.046875 39.890625 17.28125 38.984375 
Q 13.53125 38.09375 10.109375 36.28125 
z
" id="DejaVuSansMono-53"/>
       </defs>
       <use transform="translate(0 0.684375)" xlink:href="#DejaVuSansMono-49"/>
       <use transform="translate(60.205078 0.684375)" xlink:href="#DejaVuSansMono-48"/>
       <use transform="translate(121.367188 38.965625)scale(0.7)" xlink:href="#DejaVuSansMono-53"/>
      </g>
     </g>
    </g>
    <g id="ytick_4">
     <g id="line2d_9">
      <g>
       <use style="stroke:#000000;stroke-width:0.8;" x="35.85875" xlink:href="#ma2cc334722" y="173.467752"/>
      </g>
     </g>
     <g id="text_10">
      <!-- $\mathdefault{10^{7}}$ -->
      <g transform="translate(18.83875 175.76322)scale(0.06 -0.06)">
       <defs>
        <path d="M 6.78125 72.90625 
L 52.6875 72.90625 
L 52.6875 68.703125 
L 26.609375 0 
L 16.3125 0 
L 41.703125 64.59375 
L 6.78125 64.59375 
z
" id="DejaVuSansMono-55"/>
       </defs>
       <use transform="translate(0 0.684375)" xlink:href="#DejaVuSansMono-49"/>
       <use transform="translate(60.205078 0.684375)" xlink:href="#DejaVuSansMono-48"/>
       <use transform="translate(121.367188 38.965625)scale(0.7)" xlink:href="#DejaVuSansMono-55"/>
      </g>
     </g>
    </g>
    <g id="ytick_5">
     <g id="line2d_10">
      <g>
       <use style="stroke:#000000;stroke-width:0.8;" x="35.85875" xlink:href="#ma2cc334722" y="136.493841"/>
      </g>
     </g>
     <g id="text_11">
      <!-- $\mathdefault{10^{9}}$ -->
      <g transform="translate(18.83875 138.78931)scale(0.06 -0.06)">
       <defs>
        <path d="M 29.109375 32.328125 
Q 35.40625 32.328125 38.984375 36.859375 
Q 42.578125 41.40625 42.578125 49.421875 
Q 42.578125 57.421875 38.984375 61.953125 
Q 35.40625 66.5 29.109375 66.5 
Q 22.5625 66.5 19.234375 62.171875 
Q 15.921875 57.859375 15.921875 49.421875 
Q 15.921875 40.921875 19.21875 36.625 
Q 22.515625 32.328125 29.109375 32.328125 
z
M 11.53125 1.515625 
L 11.53125 10.59375 
Q 14.59375 8.796875 18.0625 7.84375 
Q 21.53125 6.890625 25.296875 6.890625 
Q 34.671875 6.890625 39.46875 13.9375 
Q 44.28125 21 44.28125 34.71875 
Q 42 29.828125 37.84375 27.21875 
Q 33.6875 24.609375 28.328125 24.609375 
Q 17.78125 24.609375 11.984375 31.09375 
Q 6.203125 37.59375 6.203125 49.515625 
Q 6.203125 61.28125 12.125 67.75 
Q 18.0625 74.21875 28.90625 74.21875 
Q 41.609375 74.21875 47.515625 65.078125 
Q 53.421875 55.953125 53.421875 36.375 
Q 53.421875 17.96875 46.3125 8.265625 
Q 39.203125 -1.421875 25.6875 -1.421875 
Q 22.125 -1.421875 18.5 -0.65625 
Q 14.890625 0.09375 11.53125 1.515625 
z
" id="DejaVuSansMono-57"/>
       </defs>
       <use transform="translate(0 0.765625)" xlink:href="#DejaVuSansMono-49"/>
       <use transform="translate(60.205078 0.765625)" xlink:href="#DejaVuSansMono-48"/>
       <use transform="translate(121.367188 39.046875)scale(0.7)" xlink:href="#DejaVuSansMono-57"/>
      </g>
     </g>
    </g>
    <g id="ytick_6">
     <g id="line2d_11">
      <g>
       <use style="stroke:#000000;stroke-width:0.8;" x="35.85875" xlink:href="#ma2cc334722" y="99.519931"/>
      </g>
     </g>
     <g id="text_12">
      <!-- $\mathdefault{10^{11}}$ -->
      <g transform="translate(16.31875 101.8154)scale(0.06 -0.06)">
       <use transform="translate(0 0.684375)" xlink:href="#DejaVuSansMono-49"/>
       <use transform="translate(60.205078 0.684375)" xlink:href="#DejaVuSansMono-48"/>
       <use transform="translate(121.367188 38.965625)scale(0.7)" xlink:href="#DejaVuSansMono-49"/>
       <use transform="translate(163.510742 38.965625)scale(0.7)" xlink:href="#DejaVuSansMono-49"/>
      </g>
     </g>
    </g>
    <g id="ytick_7">
     <g id="line2d_12">
      <g>
       <use style="stroke:#000000;stroke-width:0.8;" x="35.85875" xlink:href="#ma2cc334722" y="62.546021"/>
      </g>
     </g>
     <g id="text_13">
      <!-- $\mathdefault{10^{13}}$ -->
      <g transform="translate(16.31875 64.84149)scale(0.06 -0.06)">
       <use transform="translate(0 0.765625)" xlink:href="#DejaVuSansMono-49"/>
       <use transform="translate(60.205078 0.765625)" xlink:href="#DejaVuSansMono-48"/>
       <use transform="translate(121.367188 39.046875)scale(0.7)" xlink:href="#DejaVuSansMono-49"/>
       <use transform="translate(163.510742 39.046875)scale(0.7)" xlink:href="#DejaVuSansMono-51"/>
      </g>
     </g>
    </g>
    <g id="ytick_8">
     <g id="line2d_13">
      <g>
       <use style="stroke:#000000;stroke-width:0.8;" x="35.85875" xlink:href="#ma2cc334722" y="25.572111"/>
      </g>
     </g>
     <g id="text_14">
      <!-- $\mathdefault{10^{15}}$ -->
      <g transform="translate(16.31875 27.867579)scale(0.06 -0.06)">
       <use transform="translate(0 0.684375)" xlink:href="#DejaVuSansMono-49"/>
       <use transform="translate(60.205078 0.684375)" xlink:href="#DejaVuSansMono-48"/>
       <use transform="translate(121.367188 38.965625)scale(0.7)" xlink:href="#DejaVuSansMono-49"/>
       <use transform="translate(163.510742 38.965625)scale(0.7)" xlink:href="#DejaVuSansMono-53"/>
      </g>
     </g>
    </g>
    <g id="text_15">
     <!-- y_n -->
     <g transform="translate(10.904063 172.634094)rotate(-90)scale(0.06 -0.06)">
      <defs>
       <path d="M 41.890625 17.578125 
Q 39.65625 11.859375 36.1875 2.546875 
Q 31.34375 -10.359375 29.6875 -13.1875 
Q 27.4375 -17 24.0625 -18.890625 
Q 20.703125 -20.796875 16.21875 -20.796875 
L 8.984375 -20.796875 
L 8.984375 -13.28125 
L 14.3125 -13.28125 
Q 18.265625 -13.28125 20.5 -10.984375 
Q 22.75 -8.6875 26.21875 0.875 
L 5.078125 54.6875 
L 14.59375 54.6875 
L 30.8125 11.921875 
L 46.78125 54.6875 
L 56.296875 54.6875 
z
" id="DejaVuSansMono-121"/>
       <path d="M 60.203125 -19.671875 
L 60.203125 -23.578125 
L 0 -23.578125 
L 0 -19.671875 
z
" id="DejaVuSansMono-95"/>
      </defs>
      <use xlink:href="#DejaVuSansMono-121"/>
      <use x="60.205078" xlink:href="#DejaVuSansMono-95"/>
      <use x="120.410156" xlink:href="#DejaVuSansMono-110"/>
     </g>
    </g>
   </g>
   <g id="line2d_14">
    <path clip-path="url(#p5e0193bb26)" d="M 54.879716 162.624457 
L 55.280579 153.803938 
L 55.681443 159.369066 
L 56.082306 150.548547 
L 56.483169 156.113675 
L 56.884033 147.293155 
L 57.284896 152.858283 
L 57.685759 144.037764 
L 58.086623 149.602892 
L 58.487486 140.782373 
L 58.888349 146.347501 
L 59.289213 137.526982 
L 59.690076 143.09211 
L 60.090939 134.271591 
L 60.491803 139.836719 
L 60.892666 131.016199 
L 61.293529 136.581327 
L 61.694393 127.760808 
L 62.095256 133.325936 
L 62.49612 124.505417 
L 63.297846 135.635673 
L 63.69871 126.815154 
L 64.500436 137.94541 
L 64.9013 129.124891 
L 65.302163 134.690019 
L 65.703026 125.869499 
L 66.504753 136.999755 
L 66.905616 128.179236 
L 67.30648 133.744364 
L 67.707343 124.923845 
L 68.50907 136.054101 
L 68.909933 127.233582 
L 69.71166 138.363838 
L 70.112523 129.543319 
L 70.513387 135.108447 
L 70.91425 126.287927 
L 71.315113 131.853055 
L 71.715977 123.032536 
L 72.11684 128.597664 
L 72.517703 119.777145 
L 72.918567 125.342273 
L 73.31943 116.521754 
L 73.720293 122.086882 
L 74.121157 113.266363 
L 74.52202 118.831491 
L 74.922883 110.010971 
L 76.125473 126.706355 
L 76.526337 117.885836 
L 77.728927 134.58122 
L 78.12979 125.760701 
L 78.931517 136.890957 
L 79.33238 128.070438 
L 79.733244 133.635566 
L 80.134107 124.815047 
L 80.935834 135.945303 
L 81.336697 127.124783 
L 81.73756 132.689911 
L 82.138424 123.869392 
L 82.539287 129.43452 
L 82.94015 120.614001 
L 83.741877 131.744257 
L 84.14274 122.923738 
L 85.34533 139.619122 
L 85.746194 130.798603 
L 86.147057 136.363731 
L 86.54792 127.543211 
L 87.349647 138.673468 
L 87.750511 129.852948 
L 88.151374 135.418076 
L 88.552237 126.597557 
L 88.953101 132.162685 
L 89.353964 123.342166 
L 90.155691 134.472422 
L 90.556554 125.651903 
L 90.957417 131.217031 
L 91.358281 122.396511 
L 91.759144 127.96164 
L 92.160007 119.14112 
L 92.560871 124.706248 
L 92.961734 115.885729 
L 93.362597 121.450857 
L 93.763461 112.630338 
L 94.164324 118.195466 
L 94.565187 109.374947 
L 94.966051 114.940075 
L 95.366914 106.119555 
L 95.767778 111.684683 
L 96.168641 102.864164 
L 96.569504 108.429292 
L 96.970368 99.608773 
L 97.772094 110.739029 
L 98.172958 101.91851 
L 98.573821 107.483638 
L 98.974684 98.663119 
L 99.375548 104.228247 
L 99.776411 95.407727 
L 100.177274 100.972855 
L 100.578138 92.152336 
L 100.979001 97.717464 
L 101.379864 88.896945 
L 101.780728 94.462073 
L 102.181591 85.641554 
L 102.983318 96.77181 
L 103.384181 87.951291 
L 103.785044 93.516419 
L 104.185908 84.695899 
L 104.586771 90.261027 
L 104.987635 81.440508 
L 105.388498 87.005636 
L 105.789361 78.185117 
L 106.591088 89.315373 
L 106.991951 80.494854 
L 107.392815 86.059982 
L 107.793678 77.239463 
L 108.194541 82.804591 
L 108.595405 73.984071 
L 108.996268 79.549199 
L 109.397131 70.72868 
L 109.797995 76.293808 
L 110.198858 67.473289 
L 110.599721 73.038417 
L 111.000585 64.217898 
L 111.802311 75.348154 
L 112.203175 66.527635 
L 112.604038 72.092763 
L 113.004902 63.272243 
L 113.405765 68.837371 
L 113.806628 60.016852 
L 114.608355 71.147108 
L 115.009218 62.326589 
L 115.410082 67.891717 
L 115.810945 59.071198 
L 116.211808 64.636326 
L 116.612672 55.815807 
L 117.414398 66.946063 
L 117.815262 58.125543 
L 118.216125 63.690672 
L 118.616988 54.870152 
L 119.017852 60.43528 
L 119.418715 51.614761 
L 119.819578 57.179889 
L 120.220442 48.35937 
L 120.621305 53.924498 
L 121.022168 45.103979 
L 121.423032 50.669107 
L 121.823895 41.848587 
L 122.224759 47.413715 
L 122.625622 38.593196 
L 123.828212 55.28858 
L 124.229075 46.468061 
L 124.629939 52.033189 
L 125.030802 43.21267 
L 125.431665 48.777798 
L 125.832529 39.957279 
L 126.233392 45.522407 
L 126.634255 36.701887 
L 127.836845 53.397272 
L 128.237709 44.576752 
L 128.638572 50.14188 
L 129.039435 41.321361 
L 129.440299 46.886489 
L 129.841162 38.06597 
L 130.242026 43.631098 
L 130.642889 34.810579 
L 131.043752 40.375707 
L 131.444616 31.555187 
L 132.246342 42.685444 
L 132.647206 33.864924 
L 134.250659 56.125436 
L 134.651522 47.304917 
L 135.854112 64.000301 
L 136.254976 55.179782 
L 138.259292 83.005422 
L 138.660156 74.184903 
L 139.061019 79.750031 
L 139.461883 70.929512 
L 140.664473 87.624896 
L 141.065336 78.804377 
L 142.267926 95.499761 
L 142.668789 86.679241 
L 143.871379 103.374625 
L 144.272243 94.554106 
L 145.474833 111.24949 
L 145.875696 102.428971 
L 146.677423 113.559227 
L 147.078286 104.738708 
L 147.47915 110.303836 
L 147.880013 101.483317 
L 148.280876 107.048445 
L 148.68174 98.227925 
L 149.483466 109.358182 
L 149.88433 100.537662 
L 150.285193 106.10279 
L 150.686056 97.282271 
L 151.08692 102.847399 
L 151.487783 94.02688 
L 152.690373 110.722264 
L 153.091236 101.901745 
L 153.892963 113.032001 
L 154.293826 104.211482 
L 155.095553 115.341738 
L 155.496417 106.521218 
L 155.89728 112.086346 
L 156.298143 103.265827 
L 157.09987 114.396083 
L 157.500733 105.575564 
L 158.703323 122.270948 
L 159.104187 113.450429 
L 159.50505 119.015557 
L 159.905913 110.195038 
L 160.306777 115.760166 
L 160.70764 106.939646 
L 162.311093 129.200158 
L 162.711957 120.379639 
L 163.914547 137.075023 
L 164.31541 128.254504 
L 165.117137 139.38476 
L 165.518 130.564241 
L 166.319727 141.694497 
L 166.72059 132.873978 
L 167.92318 149.569362 
L 168.324044 140.748843 
L 169.526634 157.444227 
L 169.927497 148.623707 
L 170.729224 159.753963 
L 171.130087 150.933444 
L 171.53095 156.498572 
L 171.931814 147.678053 
L 174.336994 181.068821 
L 174.737857 172.248301 
L 175.138721 177.813429 
L 175.539584 168.992909 
L 175.940447 174.558037 
L 176.341311 165.737518 
L 179.548217 210.258542 
L 179.949081 201.437997 
L 180.349944 207.003125 
L 180.750807 198.182588 
L 182.755124 226.008228 
L 183.155988 217.187523 
L 183.556851 222.752651 
L 183.957714 213.932008 
L 185.160304 230.627392 
L 185.561168 221.806542 
L 186.763758 238.501926 
L 187.164621 229.680525 
L 187.565484 235.245653 
L 187.966348 226.424546 
L 188.768074 237.554802 
L 189.168938 228.733499 
L 189.569801 234.298627 
L 189.970665 225.477586 
L 190.371528 231.042714 
L 190.772391 222.221846 
L 192.375845 244.482358 
L 192.776708 235.659982 
L 193.578435 246.790238 
L 193.979298 237.967243 
L 194.781025 249.097499 
L 195.181888 240.273681 
L 195.582751 245.838809 
L 195.983615 237.016091 
L 196.785341 248.146347 
L 197.186205 239.322897 
L 197.987931 250.453153 
L 198.388795 241.628728 
L 199.591385 258.324112 
L 199.992248 249.493186 
L 200.793975 260.623442 
L 201.194838 251.789068 
L 201.996565 262.919324 
L 202.397428 254.080369 
L 203.199155 265.210625 
L 203.600018 256.365591 
L 204.802608 273.060975 
L 205.203472 264.175445 
L 206.005198 275.305701 
L 206.406062 266.399311 
L 206.806925 271.964439 
L 207.207789 263.087179 
L 207.608652 268.652307 
L 208.009515 259.794183 
L 208.410379 265.359311 
L 208.811242 256.513819 
L 209.212105 262.078947 
L 209.612969 253.241822 
L 210.414695 264.372078 
L 210.815559 255.529471 
L 211.617285 266.659727 
L 212.018149 257.809852 
L 212.419012 263.37498 
L 212.819875 254.53495 
L 213.621602 265.665206 
L 214.022465 256.818746 
L 214.423329 262.383874 
L 214.824192 253.546107 
L 215.225056 259.111235 
L 215.625919 250.279238 
L 216.427646 261.409494 
L 216.828509 252.573696 
L 217.229372 258.138824 
L 217.630236 249.308135 
L 218.031099 254.873264 
L 218.431962 246.045972 
L 218.832826 251.6111 
L 219.233689 242.786069 
L 220.035416 253.916325 
L 220.436279 245.089794 
L 221.638869 261.785178 
L 222.039732 252.948649 
L 222.440596 258.513777 
L 222.841459 249.682603 
L 223.242322 255.247731 
L 223.643186 246.420116 
L 224.444913 257.550372 
L 224.845776 248.720401 
L 225.246639 254.285529 
L 225.647503 245.458715 
L 226.449229 256.588971 
L 226.850093 247.760067 
L 227.250956 253.325195 
L 227.651819 244.499091 
L 228.052683 250.064219 
L 228.453546 241.239978 
L 228.854409 246.805106 
L 229.255273 237.982107 
L 229.656136 243.547235 
L 230.056999 234.725063 
L 230.457863 240.290191 
L 230.858726 231.46857 
L 232.061316 248.163954 
L 232.46218 239.340498 
L 232.863043 244.905626 
L 233.263906 236.083149 
L 233.66477 241.648277 
L 234.065633 232.826453 
L 234.466496 238.391581 
L 234.86736 229.570192 
L 236.470813 251.830704 
L 236.871676 243.005548 
L 237.673403 254.135804 
L 238.074266 245.309106 
L 238.875993 256.439363 
L 239.276856 247.610613 
L 240.88031 269.871125 
L 241.281173 261.006852 
L 242.483763 277.702236 
L 242.884627 268.766193 
L 243.28549 274.331321 
L 243.686353 265.434699 
L 244.087217 270.999827 
L 244.48808 262.12897 
L 246.492397 289.95461 
L 246.89326 280.615925 
L 248.496713 302.876437 
L 248.496713 302.876437 
" style="fill:none;stroke:#1f77b4;stroke-linecap:square;stroke-width:0.666667;"/>
   </g>
   <g id="line2d_15">
    <path clip-path="url(#p5e0193bb26)" d="M 54.879716 158.598118 
L 55.280579 149.777598 
L 55.681443 155.342726 
L 56.082306 146.522207 
L 56.483169 152.087335 
L 56.884033 143.266816 
L 57.284896 148.831944 
L 57.685759 140.011425 
L 58.086623 145.576553 
L 58.487486 136.756033 
L 58.888349 142.321162 
L 59.289213 133.500642 
L 59.690076 139.06577 
L 60.090939 130.245251 
L 60.491803 135.810379 
L 60.892666 126.98986 
L 61.293529 132.554988 
L 61.694393 123.734469 
L 62.49612 134.864725 
L 62.896983 126.044205 
L 63.297846 131.609333 
L 63.69871 122.788814 
L 64.099573 128.353942 
L 64.500436 119.533423 
L 64.9013 125.098551 
L 65.302163 116.278032 
L 65.703026 121.84316 
L 66.10389 113.022641 
L 66.504753 118.587769 
L 66.905616 109.767249 
L 67.30648 115.332377 
L 67.707343 106.511858 
L 68.50907 117.642114 
L 68.909933 108.821595 
L 69.310796 114.386723 
L 69.71166 105.566204 
L 70.112523 111.131332 
L 70.513387 102.310813 
L 70.91425 107.875941 
L 71.315113 99.055421 
L 71.715977 104.620549 
L 72.11684 95.80003 
L 72.517703 101.365158 
L 72.918567 92.544639 
L 73.31943 98.109767 
L 73.720293 89.289248 
L 74.121157 94.854376 
L 74.52202 86.033857 
L 76.526337 113.859497 
L 76.9272 105.038977 
L 77.328063 110.604106 
L 77.728927 101.783586 
L 78.12979 107.348714 
L 78.530653 98.528195 
L 78.931517 104.093323 
L 79.33238 95.272804 
L 79.733244 100.837932 
L 80.134107 92.017413 
L 80.53497 97.582541 
L 80.935834 88.762021 
L 81.73756 99.892278 
L 82.138424 91.071758 
L 82.539287 96.636886 
L 82.94015 87.816367 
L 83.341014 93.381495 
L 83.741877 84.560976 
L 84.14274 90.126104 
L 84.543604 81.305585 
L 85.34533 92.435841 
L 85.746194 83.615321 
L 86.54792 94.745578 
L 86.948784 85.925058 
L 87.750511 97.055314 
L 88.151374 88.234795 
L 88.552237 93.799923 
L 88.953101 84.979404 
L 90.155691 101.674788 
L 90.556554 92.854269 
L 90.957417 98.419397 
L 91.358281 89.598878 
L 91.759144 95.164006 
L 92.160007 86.343486 
L 93.763461 108.603998 
L 94.164324 99.783479 
L 94.966051 110.913735 
L 95.366914 102.093216 
L 95.767778 107.658344 
L 96.168641 98.837825 
L 96.970368 109.968081 
L 97.371231 101.147562 
L 97.772094 106.71269 
L 98.172958 97.89217 
L 98.573821 103.457298 
L 98.974684 94.636779 
L 99.375548 100.201907 
L 99.776411 91.381388 
L 100.578138 102.511644 
L 100.979001 93.691125 
L 101.780728 104.821381 
L 102.181591 96.000862 
L 102.582454 101.56599 
L 102.983318 92.74547 
L 103.785044 103.875727 
L 104.185908 95.055207 
L 104.586771 100.620335 
L 104.987635 91.799816 
L 105.388498 97.364944 
L 105.789361 88.544425 
L 106.591088 99.674681 
L 106.991951 90.854162 
L 107.392815 96.41929 
L 107.793678 87.59877 
L 108.595405 98.729027 
L 108.996268 89.908507 
L 110.198858 106.603891 
L 110.599721 97.783372 
L 111.401448 108.913628 
L 111.802311 100.093109 
L 112.203175 105.658237 
L 112.604038 96.837718 
L 113.405765 107.967974 
L 113.806628 99.147455 
L 114.207492 104.712583 
L 114.608355 95.892063 
L 115.009218 101.457191 
L 115.410082 92.636672 
L 116.211808 103.766928 
L 116.612672 94.946409 
L 117.013535 100.511537 
L 117.414398 91.691018 
L 118.216125 102.821274 
L 118.616988 94.000755 
L 119.819578 110.696139 
L 120.220442 101.875619 
L 121.823895 124.136132 
L 122.224759 115.315612 
L 123.026485 126.445868 
L 123.427349 117.625349 
L 123.828212 123.190477 
L 124.229075 114.369958 
L 124.629939 119.935086 
L 125.030802 111.114567 
L 125.832529 122.244823 
L 126.233392 113.424304 
L 126.634255 118.989432 
L 127.035119 110.168912 
L 127.435982 115.73404 
L 127.836845 106.913521 
L 128.237709 112.478649 
L 128.638572 103.65813 
L 129.440299 114.788386 
L 129.841162 105.967867 
L 130.642889 117.098123 
L 131.043752 108.277604 
L 131.444616 113.842732 
L 131.845479 105.022212 
L 132.246342 110.58734 
L 132.647206 101.766821 
L 133.048069 107.331949 
L 133.448932 98.51143 
L 134.250659 109.641686 
L 134.651522 100.821167 
L 135.453249 111.951423 
L 135.854112 103.130904 
L 136.254976 108.696032 
L 136.655839 99.875512 
L 137.056702 105.44064 
L 137.457566 96.620121 
L 137.858429 102.185249 
L 138.259292 93.36473 
L 139.061019 104.494986 
L 139.461883 95.674467 
L 140.263609 106.804723 
L 140.664473 97.984204 
L 141.466199 109.11446 
L 141.867063 100.29394 
L 142.267926 105.859068 
L 142.668789 97.038549 
L 143.069653 102.603677 
L 143.470516 93.783158 
L 144.673106 110.478542 
L 145.073969 101.658023 
L 146.677423 123.918535 
L 147.078286 115.098016 
L 147.47915 120.663144 
L 147.880013 111.842624 
L 148.280876 117.407753 
L 148.68174 108.587233 
L 149.483466 119.717489 
L 149.88433 110.89697 
L 150.686056 122.027226 
L 151.08692 113.206707 
L 151.487783 118.771835 
L 151.888646 109.951316 
L 152.28951 115.516444 
L 152.690373 106.695924 
L 153.091236 112.261053 
L 153.4921 103.440533 
L 153.892963 109.005661 
L 154.293826 100.185142 
L 154.69469 105.75027 
L 155.095553 96.929751 
L 156.699007 119.190263 
L 157.09987 110.369744 
L 157.500733 115.934872 
L 157.901597 107.114353 
L 159.104187 123.809737 
L 159.50505 114.989217 
L 160.306777 126.119473 
L 160.70764 117.298954 
L 161.108503 122.864082 
L 161.509367 114.043563 
L 161.91023 119.608691 
L 162.311093 110.788172 
L 162.711957 116.3533 
L 163.11282 107.532781 
L 163.513683 113.097909 
L 163.914547 104.277389 
L 165.918864 132.103029 
L 166.319727 123.28251 
L 166.72059 128.847638 
L 167.121454 120.027119 
L 167.522317 125.592247 
L 167.92318 116.771728 
L 168.324044 122.336856 
L 168.724907 113.516337 
L 169.12577 119.081465 
L 169.526634 110.260945 
L 169.927497 115.826073 
L 170.32836 107.005554 
L 171.130087 118.13581 
L 171.53095 109.315291 
L 172.332677 120.445547 
L 172.733541 111.625028 
L 173.535267 122.755284 
L 173.936131 113.934765 
L 174.737857 125.065021 
L 175.138721 116.244502 
L 175.940447 127.374758 
L 176.341311 118.554238 
L 176.742174 124.119366 
L 177.143037 115.298847 
L 177.543901 120.863975 
L 177.944764 112.043456 
L 178.345627 117.608584 
L 178.746491 108.788065 
L 179.147354 114.353193 
L 179.548217 105.532673 
L 180.349944 116.66293 
L 180.750807 107.84241 
L 181.151671 113.407538 
L 181.552534 104.587019 
L 181.953398 110.152147 
L 182.354261 101.331628 
L 182.755124 106.896756 
L 183.155988 98.076237 
L 183.556851 103.641365 
L 183.957714 94.820845 
L 184.759441 105.951102 
L 185.160304 97.130582 
L 185.561168 102.69571 
L 185.962031 93.875191 
L 186.362894 99.440319 
L 186.763758 90.6198 
L 187.565484 101.750056 
L 187.966348 92.929537 
L 188.367211 98.494665 
L 188.768074 89.674146 
L 189.569801 100.804402 
L 189.970665 91.983882 
L 190.371528 97.54901 
L 190.772391 88.728491 
L 191.574118 99.858747 
L 191.974981 91.038228 
L 192.776708 102.168484 
L 193.177571 93.347965 
L 193.979298 104.478221 
L 194.380161 95.657702 
L 194.781025 101.22283 
L 195.181888 92.40231 
L 195.582751 97.967438 
L 195.983615 89.146919 
L 196.785341 100.277175 
L 197.186205 91.456656 
L 197.587068 97.021784 
L 197.987931 88.201265 
L 198.789658 99.331521 
L 199.190522 90.511002 
L 199.591385 96.07613 
L 199.992248 87.25561 
L 200.393112 92.820738 
L 200.793975 84.000219 
L 201.595702 95.130475 
L 201.996565 86.309956 
L 203.600018 108.570468 
L 204.000882 99.749949 
L 204.802608 110.880205 
L 205.203472 102.059686 
L 205.604335 107.624814 
L 206.005198 98.804294 
L 206.806925 109.934551 
L 207.207789 101.114031 
L 207.608652 106.679159 
L 208.009515 97.85864 
L 208.410379 103.423768 
L 208.811242 94.603249 
L 209.612969 105.733505 
L 210.013832 96.912986 
L 210.414695 102.478114 
L 210.815559 93.657595 
L 211.617285 104.787851 
L 212.018149 95.967331 
L 212.419012 101.532459 
L 212.819875 92.71194 
L 213.621602 103.842196 
L 214.022465 95.021677 
L 215.225056 111.717061 
L 215.625919 102.896542 
L 216.427646 114.026798 
L 216.828509 105.206279 
L 217.229372 110.771407 
L 217.630236 101.950887 
L 218.031099 107.516015 
L 218.431962 98.695496 
L 218.832826 104.260624 
L 219.233689 95.440105 
L 220.837142 117.700617 
L 221.238006 108.880098 
L 222.039732 120.010354 
L 222.440596 111.189835 
L 222.841459 116.754963 
L 223.242322 107.934443 
L 223.643186 113.499571 
L 224.044049 104.679052 
L 224.444913 110.24418 
L 224.845776 101.423661 
L 226.449229 123.684173 
L 226.850093 114.863654 
L 227.250956 120.428782 
L 227.651819 111.608263 
L 228.052683 117.173391 
L 228.453546 108.352871 
L 228.854409 113.918 
L 229.255273 105.09748 
L 229.656136 110.662608 
L 230.056999 101.842089 
L 230.858726 112.972345 
L 231.259589 104.151826 
L 232.46218 120.84721 
L 232.863043 112.026691 
L 233.66477 123.156947 
L 234.065633 114.336428 
L 234.466496 119.901556 
L 234.86736 111.081036 
L 235.268223 116.646164 
L 235.669086 107.825645 
L 236.871676 124.521029 
L 237.27254 115.70051 
L 238.074266 126.830766 
L 238.47513 118.010247 
L 239.67772 134.705631 
L 240.078583 125.885112 
L 240.479446 131.45024 
L 240.88031 122.62972 
L 242.884627 150.455361 
L 243.28549 141.634841 
L 244.087217 152.765097 
L 244.48808 143.944578 
L 244.888943 149.509706 
L 245.289807 140.689187 
L 245.69067 146.254315 
L 246.091533 137.433796 
L 246.492397 142.998924 
L 246.89326 134.178404 
L 247.294123 139.743532 
L 247.694987 130.923013 
L 248.496713 142.053269 
L 248.897577 133.23275 
L 249.29844 138.797878 
L 249.699304 129.977359 
L 250.100167 135.542487 
L 250.50103 126.721968 
L 250.901894 132.287096 
L 251.302757 123.466576 
L 251.70362 129.031704 
L 252.104484 120.211185 
L 252.90621 131.341441 
L 253.307074 122.520922 
L 254.1088 133.651178 
L 254.509664 124.830659 
L 254.910527 130.395787 
L 255.31139 121.575268 
L 256.113117 132.705524 
L 256.51398 123.885004 
L 257.315707 135.015261 
L 257.71657 126.194741 
L 258.518297 137.324997 
L 258.919161 128.504478 
L 259.720887 139.634734 
L 260.121751 130.814215 
L 261.324341 147.509599 
L 261.725204 138.68908 
L 262.126067 144.254208 
L 262.526931 135.433689 
L 262.927794 140.998817 
L 263.328657 132.178297 
L 264.130384 143.308553 
L 264.531247 134.488034 
L 265.733837 151.183418 
L 266.134701 142.362899 
L 266.535564 147.928027 
L 266.936428 139.107508 
L 267.337291 144.672636 
L 267.738154 135.852117 
L 268.139018 141.417245 
L 268.539881 132.596725 
L 268.940744 138.161853 
L 269.341608 129.341334 
L 270.143334 140.47159 
L 270.544198 131.651071 
L 272.147651 153.911583 
L 272.548514 145.091064 
L 272.949378 150.656192 
L 273.350241 141.835673 
L 273.751104 147.400801 
L 274.151968 138.580281 
L 274.953694 149.710537 
L 275.354558 140.890018 
L 275.755421 146.455146 
L 276.156285 137.634627 
L 276.557148 143.199755 
L 276.958011 134.379236 
L 277.358875 139.944364 
L 277.759738 131.123845 
L 278.561465 142.254101 
L 278.962328 133.433581 
L 279.363191 138.998709 
L 279.764055 130.17819 
L 280.164918 135.743318 
L 280.565781 126.922799 
L 281.367508 138.053055 
L 281.768371 129.232536 
L 283.371825 151.493048 
L 283.772688 142.672529 
L 284.173552 148.237657 
L 284.574415 139.417137 
L 284.975278 144.982265 
L 285.376142 136.161746 
L 285.777005 141.726874 
L 286.177868 132.906355 
L 286.578732 138.471483 
L 286.979595 129.650964 
L 287.781322 140.78122 
L 288.182185 131.960701 
L 288.583048 137.525829 
L 288.983912 128.705309 
L 289.384775 134.270437 
L 289.785638 125.449918 
L 290.587365 136.580174 
L 290.988228 127.759655 
L 291.389092 133.324783 
L 291.789955 124.504264 
L 292.992545 141.199648 
L 293.393409 132.379129 
L 294.195135 143.509385 
L 294.595999 134.688865 
L 296.199452 156.949377 
L 296.600315 148.128858 
L 297.001179 153.693986 
L 297.402042 144.873467 
L 298.203769 156.003723 
L 298.604632 147.183204 
L 299.005495 152.748332 
L 299.406359 143.927813 
L 300.608949 160.623197 
L 301.009812 151.802677 
L 301.811539 162.932933 
L 302.212402 154.112414 
L 303.014129 165.24267 
L 303.414992 156.422151 
L 304.617582 173.117535 
L 305.018446 164.297015 
L 305.419309 169.862143 
L 305.820172 161.041624 
L 306.221036 166.606752 
L 306.621899 157.786233 
L 307.022762 163.351361 
L 307.423626 154.530841 
L 307.824489 160.095969 
L 308.225352 151.27545 
L 309.027079 162.405706 
L 309.427943 153.585187 
L 310.229669 164.715443 
L 310.630533 155.894924 
L 311.031396 161.460052 
L 311.432259 152.639532 
L 311.833123 158.20466 
L 312.233986 149.384141 
L 312.634849 154.949269 
L 313.035713 146.12875 
L 313.436576 151.693878 
L 313.837439 142.873359 
L 314.639166 154.003615 
L 315.040029 145.183095 
L 315.841756 156.313351 
L 316.242619 147.492832 
L 316.643483 153.05796 
L 317.044346 144.237441 
L 317.445209 149.802569 
L 317.846073 140.98205 
L 318.246936 146.547178 
L 318.6478 137.726659 
L 319.048663 143.291787 
L 319.449526 134.471267 
L 320.251253 145.601523 
L 320.652116 136.781004 
L 321.05298 142.346132 
L 321.453843 133.525613 
L 321.854706 139.090741 
L 322.25557 130.270222 
L 323.057296 141.400478 
L 323.45816 132.579959 
L 323.859023 138.145087 
L 324.259886 129.324567 
L 325.462476 146.019951 
L 325.86334 137.199432 
L 326.264203 142.76456 
L 326.665067 133.944041 
L 331.475427 200.725577 
L 331.87629 191.90505 
L 332.678017 203.035306 
L 333.07888 194.214776 
L 333.479743 199.779904 
L 333.880607 190.959378 
L 334.28147 196.524506 
L 334.682333 187.703982 
L 335.083197 193.26911 
L 335.48406 184.448588 
L 335.884924 190.013716 
L 336.285787 181.193194 
L 337.087514 192.32345 
L 337.488377 183.502928 
L 337.88924 189.068056 
L 338.290104 180.247535 
L 338.690967 185.812663 
L 339.09183 176.992143 
L 339.893557 188.122399 
L 340.29442 179.301878 
L 340.695284 184.867006 
L 341.096147 176.046486 
L 341.49701 181.611614 
L 341.897874 172.791094 
L 342.6996 183.92135 
L 343.100464 175.10083 
L 343.501327 180.665958 
L 343.902191 171.845438 
L 344.303054 177.410566 
L 344.703917 168.590046 
L 346.307371 190.850558 
L 346.708234 182.030037 
L 348.311687 204.290549 
L 348.712551 195.470017 
L 349.113414 201.035145 
L 349.514277 192.214617 
L 349.915141 197.779746 
L 350.316004 188.959221 
L 351.117731 200.089477 
L 351.518594 191.26895 
L 351.919458 196.834078 
L 352.320321 188.013554 
L 352.721184 193.578682 
L 353.122048 184.75816 
L 353.522911 190.323288 
L 353.923774 181.502766 
L 354.725501 192.633022 
L 355.126364 183.8125 
L 355.928091 194.942756 
L 356.328954 186.122233 
L 356.729818 191.687361 
L 357.130681 182.866839 
L 357.531544 188.431967 
L 357.932408 179.611446 
L 359.535861 201.871958 
L 359.936724 193.05143 
L 362.742768 232.007326 
L 363.143631 223.186414 
L 363.544495 228.751542 
L 363.945358 219.930761 
L 364.346221 225.495889 
L 364.747085 216.675196 
L 365.147948 222.240324 
L 365.548811 213.419688 
L 365.949675 218.984816 
L 366.350538 210.164219 
L 367.152265 221.294475 
L 367.553128 212.473853 
L 367.953991 218.038981 
L 368.354855 209.218392 
L 368.755718 214.78352 
L 369.156582 205.962955 
L 371.160898 233.788595 
L 371.561762 224.967586 
L 371.962625 230.532714 
L 372.363488 221.711868 
L 373.566078 238.407252 
L 373.966942 229.585861 
L 374.367805 235.150989 
L 374.768668 226.329889 
L 375.169532 231.895017 
L 375.570395 223.074111 
L 375.971258 228.639239 
L 376.372122 219.818461 
L 376.772985 225.38359 
L 377.173848 216.562898 
L 377.574712 222.128026 
L 377.975575 213.307392 
L 378.376439 218.87252 
L 378.777302 210.051925 
L 379.178165 215.617053 
L 379.579029 206.796482 
L 379.979892 212.36161 
L 380.380755 203.541057 
L 380.781619 209.106185 
L 381.182482 200.285643 
L 381.984209 211.415899 
L 382.385072 202.59535 
L 383.587662 219.290734 
L 383.988525 210.470134 
L 384.389389 216.035262 
L 384.790252 207.214689 
L 385.191115 212.779817 
L 385.591979 203.959262 
L 385.992842 209.52439 
L 386.393706 200.703847 
L 386.794569 206.268975 
L 387.195432 197.44844 
L 387.596296 203.013568 
L 387.997159 194.193038 
L 388.798886 205.323294 
L 389.199749 196.502761 
L 389.600612 202.067889 
L 390.001476 193.24736 
L 390.402339 198.812488 
L 390.803202 189.991963 
L 392.005792 206.687347 
L 392.406656 197.866811 
L 393.208382 208.997067 
L 393.609246 200.176525 
L 394.410972 211.306781 
L 394.811836 202.486232 
L 395.613563 213.616488 
L 396.014426 204.795929 
L 396.415289 210.361057 
L 396.816153 201.540512 
L 397.617879 212.670768 
L 398.018743 203.850213 
L 399.221333 220.545597 
L 399.622196 211.724984 
L 400.423923 222.85524 
L 400.824786 214.034595 
L 401.225649 219.599723 
L 401.626513 210.77912 
L 402.428239 221.909376 
L 402.829103 213.088745 
L 403.229966 218.653873 
L 403.63083 209.83328 
L 405.635146 237.65892 
L 406.03601 228.837607 
L 406.436873 234.402735 
L 406.837736 225.581686 
L 407.639463 236.711942 
L 408.040326 227.890718 
L 408.842053 239.020974 
L 409.242916 230.199514 
L 410.445506 246.894898 
L 410.84637 238.071871 
L 411.247233 243.636999 
L 411.648097 234.814808 
L 412.449823 245.945064 
L 412.850687 237.122317 
L 413.652413 248.252573 
L 414.053277 239.429084 
L 415.65673 261.689596 
L 416.057593 252.853256 
L 416.85932 263.983513 
L 417.260183 255.141948 
L 417.661047 260.707076 
L 418.06191 251.872557 
L 418.462773 257.437685 
L 418.863637 248.607846 
L 419.2645 254.172974 
L 419.665363 245.346248 
L 420.066227 250.911376 
L 420.46709 242.086722 
L 420.867954 247.65185 
L 421.268817 238.828575 
L 421.66968 244.393703 
L 422.070544 235.571347 
L 422.87227 246.701603 
L 423.273134 237.878636 
L 424.876587 260.139148 
L 425.27745 251.305584 
L 426.48004 268.000968 
L 426.880904 259.145767 
L 428.083494 275.841151 
L 428.484357 266.928874 
L 429.686947 283.624258 
L 430.087811 274.564055 
L 430.488674 280.129184 
L 430.889537 271.152761 
L 431.691264 282.283017 
L 432.092127 273.259226 
L 433.294717 289.95461 
L 433.695581 280.615925 
L 435.299034 302.876437 
L 435.299034 302.876437 
" style="fill:none;stroke:#ff7f0e;stroke-linecap:square;stroke-width:0.666667;"/>
   </g>
   <g id="patch_3">
    <path d="M 35.85875 316.4425 
L 35.85875 17.989125 
" style="fill:none;stroke:#000000;stroke-linecap:square;stroke-linejoin:miter;stroke-width:0.8;"/>
   </g>
   <g id="patch_4">
    <path d="M 454.32 316.4425 
L 454.32 17.989125 
" style="fill:none;stroke:#000000;stroke-linecap:square;stroke-linejoin:miter;stroke-width:0.8;"/>
   </g>
   <g id="patch_5">
    <path d="M 35.85875 316.4425 
L 454.32 316.4425 
" style="fill:none;stroke:#000000;stroke-linecap:square;stroke-linejoin:miter;stroke-width:0.8;"/>
   </g>
   <g id="patch_6">
    <path d="M 35.85875 17.989125 
L 454.32 17.989125 
" style="fill:none;stroke:#000000;stroke-linecap:square;stroke-linejoin:miter;stroke-width:0.8;"/>
   </g>
   <g id="text_16">
    <!-- "3y+1" problem -->
    <g transform="translate(214.747 11.989125)scale(0.072 -0.072)">
     <defs>
      <path d="M 43.703125 72.90625 
L 43.703125 45.796875 
L 35.203125 45.796875 
L 35.203125 72.90625 
z
M 25 72.90625 
L 25 45.796875 
L 16.5 45.796875 
L 16.5 72.90625 
z
" id="DejaVuSansMono-34"/>
      <path d="M 34.1875 57.171875 
L 34.1875 35.5 
L 55.90625 35.5 
L 55.90625 27.203125 
L 34.1875 27.203125 
L 34.1875 5.515625 
L 25.984375 5.515625 
L 25.984375 27.203125 
L 4.296875 27.203125 
L 4.296875 35.5 
L 25.984375 35.5 
L 25.984375 57.171875 
z
" id="DejaVuSansMono-43"/>
      <path id="DejaVuSansMono-32"/>
      <path d="M 18.3125 6.890625 
L 18.3125 -20.796875 
L 9.28125 -20.796875 
L 9.28125 54.6875 
L 18.3125 54.6875 
L 18.3125 47.703125 
Q 20.5625 51.765625 24.296875 53.875 
Q 28.03125 56 32.90625 56 
Q 42.828125 56 48.46875 48.328125 
Q 54.109375 40.671875 54.109375 27.09375 
Q 54.109375 13.765625 48.4375 6.171875 
Q 42.78125 -1.421875 32.90625 -1.421875 
Q 27.9375 -1.421875 24.1875 0.703125 
Q 20.453125 2.828125 18.3125 6.890625 
z
M 44.671875 27.296875 
Q 44.671875 37.75 41.375 43.0625 
Q 38.09375 48.390625 31.59375 48.390625 
Q 25.046875 48.390625 21.671875 43.046875 
Q 18.3125 37.703125 18.3125 27.296875 
Q 18.3125 16.9375 21.671875 11.5625 
Q 25.046875 6.203125 31.59375 6.203125 
Q 38.09375 6.203125 41.375 11.515625 
Q 44.671875 16.84375 44.671875 27.296875 
z
" id="DejaVuSansMono-112"/>
      <path d="M 56.390625 43.40625 
Q 53.515625 45.65625 50.53125 46.671875 
Q 47.5625 47.703125 44 47.703125 
Q 35.59375 47.703125 31.140625 42.421875 
Q 26.703125 37.15625 26.703125 27.203125 
L 26.703125 0 
L 17.671875 0 
L 17.671875 54.6875 
L 26.703125 54.6875 
L 26.703125 44 
Q 28.953125 49.8125 33.609375 52.90625 
Q 38.28125 56 44.671875 56 
Q 48 56 50.875 55.171875 
Q 53.765625 54.34375 56.390625 52.59375 
z
" id="DejaVuSansMono-114"/>
      <path d="M 30.078125 48.390625 
Q 23.25 48.390625 19.734375 43.0625 
Q 16.21875 37.75 16.21875 27.296875 
Q 16.21875 16.890625 19.734375 11.546875 
Q 23.25 6.203125 30.078125 6.203125 
Q 36.96875 6.203125 40.484375 11.546875 
Q 44 16.890625 44 27.296875 
Q 44 37.75 40.484375 43.0625 
Q 36.96875 48.390625 30.078125 48.390625 
z
M 30.078125 56 
Q 41.453125 56 47.484375 48.625 
Q 53.515625 41.265625 53.515625 27.296875 
Q 53.515625 13.28125 47.5 5.921875 
Q 41.5 -1.421875 30.078125 -1.421875 
Q 18.703125 -1.421875 12.6875 5.921875 
Q 6.6875 13.28125 6.6875 27.296875 
Q 6.6875 41.265625 12.6875 48.625 
Q 18.703125 56 30.078125 56 
z
" id="DejaVuSansMono-111"/>
      <path d="M 44.828125 27.296875 
Q 44.828125 37.75 41.5 43.0625 
Q 38.1875 48.390625 31.6875 48.390625 
Q 25.140625 48.390625 21.765625 43.046875 
Q 18.40625 37.703125 18.40625 27.296875 
Q 18.40625 16.9375 21.765625 11.5625 
Q 25.140625 6.203125 31.6875 6.203125 
Q 38.1875 6.203125 41.5 11.515625 
Q 44.828125 16.84375 44.828125 27.296875 
z
M 18.40625 47.703125 
Q 20.5625 51.703125 24.34375 53.84375 
Q 28.125 56 33.109375 56 
Q 42.96875 56 48.625 48.40625 
Q 54.296875 40.828125 54.296875 27.484375 
Q 54.296875 13.96875 48.609375 6.265625 
Q 42.921875 -1.421875 33.015625 -1.421875 
Q 28.125 -1.421875 24.390625 0.703125 
Q 20.65625 2.828125 18.40625 6.890625 
L 18.40625 0 
L 9.421875 0 
L 9.421875 75.984375 
L 18.40625 75.984375 
z
" id="DejaVuSansMono-98"/>
      <path d="M 31.203125 19.828125 
Q 31.203125 13.765625 33.421875 10.6875 
Q 35.640625 7.625 39.984375 7.625 
L 50.484375 7.625 
L 50.484375 0 
L 39.109375 0 
Q 31.0625 0 26.640625 5.171875 
Q 22.21875 10.359375 22.21875 19.828125 
L 22.21875 69.484375 
L 7.8125 69.484375 
L 7.8125 76.515625 
L 31.203125 76.515625 
z
" id="DejaVuSansMono-108"/>
      <path d="M 54.296875 29.59375 
L 54.296875 25.203125 
L 15.375 25.203125 
L 15.375 24.90625 
Q 15.375 15.96875 20.03125 11.078125 
Q 24.703125 6.203125 33.203125 6.203125 
Q 37.5 6.203125 42.1875 7.5625 
Q 46.875 8.9375 52.203125 11.71875 
L 52.203125 2.78125 
Q 47.078125 0.6875 42.3125 -0.359375 
Q 37.546875 -1.421875 33.109375 -1.421875 
Q 20.359375 -1.421875 13.171875 6.21875 
Q 6 13.875 6 27.296875 
Q 6 40.375 13.03125 48.1875 
Q 20.0625 56 31.78125 56 
Q 42.234375 56 48.265625 48.921875 
Q 54.296875 41.84375 54.296875 29.59375 
z
M 45.3125 32.234375 
Q 45.125 40.140625 41.578125 44.265625 
Q 38.03125 48.390625 31.390625 48.390625 
Q 24.90625 48.390625 20.703125 44.09375 
Q 16.5 39.796875 15.71875 32.171875 
z
" id="DejaVuSansMono-101"/>
      <path d="M 33.015625 49.125 
Q 34.671875 52.640625 37.234375 54.3125 
Q 39.796875 56 43.40625 56 
Q 50 56 52.703125 50.890625 
Q 55.421875 45.796875 55.421875 31.6875 
L 55.421875 0 
L 47.21875 0 
L 47.21875 31.296875 
Q 47.21875 42.875 45.921875 45.671875 
Q 44.625 48.484375 41.21875 48.484375 
Q 37.3125 48.484375 35.859375 45.484375 
Q 34.421875 42.484375 34.421875 31.296875 
L 34.421875 0 
L 26.21875 0 
L 26.21875 31.296875 
Q 26.21875 43.015625 24.828125 45.75 
Q 23.4375 48.484375 19.828125 48.484375 
Q 16.265625 48.484375 14.875 45.484375 
Q 13.484375 42.484375 13.484375 31.296875 
L 13.484375 0 
L 5.328125 0 
L 5.328125 54.6875 
L 13.484375 54.6875 
L 13.484375 50 
Q 15.09375 52.9375 17.5 54.46875 
Q 19.921875 56 23 56 
Q 26.703125 56 29.171875 54.296875 
Q 31.640625 52.59375 33.015625 49.125 
z
" id="DejaVuSansMono-109"/>
     </defs>
     <use xlink:href="#DejaVuSansMono-34"/>
     <use x="60.205078" xlink:href="#DejaVuSansMono-51"/>
     <use x="120.410156" xlink:href="#DejaVuSansMono-121"/>
     <use x="180.615234" xlink:href="#DejaVuSansMono-43"/>
     <use x="240.820312" xlink:href="#DejaVuSansMono-49"/>
     <use x="301.025391" xlink:href="#DejaVuSansMono-34"/>
     <use x="361.230469" xlink:href="#DejaVuSansMono-32"/>
     <use x="421.435547" xlink:href="#DejaVuSansMono-112"/>
     <use x="481.640625" xlink:href="#DejaVuSansMono-114"/>
     <use x="541.845703" xlink:href="#DejaVuSansMono-111"/>
     <use x="602.050781" xlink:href="#DejaVuSansMono-98"/>
     <use x="662.255859" xlink:href="#DejaVuSansMono-108"/>
     <use x="722.460938" xlink:href="#DejaVuSansMono-101"/>
     <use x="782.666016" xlink:href="#DejaVuSansMono-109"/>
    </g>
   </g>
   <g id="legend_1">
    <g id="patch_7">
     <path d="M 344.2275 82.0095 
L 450.12 82.0095 
Q 451.32 82.0095 451.32 80.8095 
L 451.32 22.189125 
Q 451.32 20.989125 450.12 20.989125 
L 344.2275 20.989125 
Q 343.0275 20.989125 343.0275 22.189125 
L 343.0275 80.8095 
Q 343.0275 82.0095 344.2275 82.0095 
z
" style="fill:#ffffff;opacity:0.8;stroke:#cccccc;stroke-linejoin:miter;"/>
    </g>
    <g id="line2d_16">
     <path d="M 345.4275 36.889687 
L 357.4275 36.889687 
" style="fill:none;stroke:#1f77b4;stroke-linecap:square;stroke-width:0.666667;"/>
    </g>
    <g id="line2d_17"/>
    <g id="text_17">
     <!-- "Tallest": -->
     <g transform="translate(362.2275 27.980062)scale(0.06 -0.06)">
      <defs>
       <path d="M 2.296875 72.90625 
L 57.90625 72.90625 
L 57.90625 64.59375 
L 35.109375 64.59375 
L 35.109375 0 
L 25.203125 0 
L 25.203125 64.59375 
L 2.296875 64.59375 
z
" id="DejaVuSansMono-84"/>
       <path d="M 34.28125 27.484375 
L 31.296875 27.484375 
Q 23.4375 27.484375 19.453125 24.71875 
Q 15.484375 21.96875 15.484375 16.5 
Q 15.484375 11.578125 18.453125 8.84375 
Q 21.4375 6.109375 26.703125 6.109375 
Q 34.125 6.109375 38.375 11.25 
Q 42.625 16.40625 42.671875 25.484375 
L 42.671875 27.484375 
z
M 51.703125 31.203125 
L 51.703125 0 
L 42.671875 0 
L 42.671875 8.109375 
Q 39.796875 3.21875 35.421875 0.890625 
Q 31.0625 -1.421875 24.8125 -1.421875 
Q 16.453125 -1.421875 11.46875 3.296875 
Q 6.5 8.015625 6.5 15.921875 
Q 6.5 25.046875 12.625 29.78125 
Q 18.75 34.515625 30.609375 34.515625 
L 42.671875 34.515625 
L 42.671875 35.9375 
Q 42.625 42.484375 39.34375 45.4375 
Q 36.078125 48.390625 28.90625 48.390625 
Q 24.3125 48.390625 19.625 47.0625 
Q 14.9375 45.75 10.5 43.21875 
L 10.5 52.203125 
Q 15.484375 54.109375 20.046875 55.046875 
Q 24.609375 56 28.90625 56 
Q 35.6875 56 40.5 54 
Q 45.3125 52 48.296875 48 
Q 50.140625 45.5625 50.921875 41.96875 
Q 51.703125 38.375 51.703125 31.203125 
z
" id="DejaVuSansMono-97"/>
       <path d="M 47.515625 52.78125 
L 47.515625 44 
Q 43.65625 46.234375 39.75 47.359375 
Q 35.84375 48.484375 31.78125 48.484375 
Q 25.6875 48.484375 22.671875 46.5 
Q 19.671875 44.53125 19.671875 40.484375 
Q 19.671875 36.8125 21.921875 35 
Q 24.171875 33.203125 33.109375 31.5 
L 36.71875 30.8125 
Q 43.40625 29.546875 46.84375 25.734375 
Q 50.296875 21.921875 50.296875 15.828125 
Q 50.296875 7.71875 44.53125 3.140625 
Q 38.765625 -1.421875 28.515625 -1.421875 
Q 24.46875 -1.421875 20.015625 -0.5625 
Q 15.578125 0.296875 10.40625 2 
L 10.40625 11.28125 
Q 15.4375 8.6875 20.015625 7.390625 
Q 24.609375 6.109375 28.71875 6.109375 
Q 34.671875 6.109375 37.9375 8.515625 
Q 41.21875 10.9375 41.21875 15.28125 
Q 41.21875 21.53125 29.25 23.921875 
L 28.859375 24.03125 
L 25.484375 24.703125 
Q 17.71875 26.21875 14.15625 29.8125 
Q 10.59375 33.40625 10.59375 39.59375 
Q 10.59375 47.46875 15.90625 51.734375 
Q 21.234375 56 31.109375 56 
Q 35.5 56 39.546875 55.1875 
Q 43.609375 54.390625 47.515625 52.78125 
z
" id="DejaVuSansMono-115"/>
       <path d="M 29.984375 70.21875 
L 29.984375 54.6875 
L 50.390625 54.6875 
L 50.390625 47.703125 
L 29.984375 47.703125 
L 29.984375 18.015625 
Q 29.984375 11.96875 32.28125 9.5625 
Q 34.578125 7.171875 40.28125 7.171875 
L 50.390625 7.171875 
L 50.390625 0 
L 39.40625 0 
Q 29.296875 0 25.140625 4.046875 
Q 21 8.109375 21 18.015625 
L 21 47.703125 
L 6.390625 47.703125 
L 6.390625 54.6875 
L 21 54.6875 
L 21 70.21875 
z
" id="DejaVuSansMono-116"/>
       <path d="M 23.875 51.90625 
L 36.1875 51.90625 
L 36.1875 37.109375 
L 23.875 37.109375 
z
M 23.875 14.890625 
L 36.1875 14.890625 
L 36.1875 0 
L 23.875 0 
z
" id="DejaVuSansMono-58"/>
      </defs>
      <use xlink:href="#DejaVuSansMono-34"/>
      <use x="60.205078" xlink:href="#DejaVuSansMono-84"/>
      <use x="120.410156" xlink:href="#DejaVuSansMono-97"/>
      <use x="180.615234" xlink:href="#DejaVuSansMono-108"/>
      <use x="240.820312" xlink:href="#DejaVuSansMono-108"/>
      <use x="301.025391" xlink:href="#DejaVuSansMono-101"/>
      <use x="361.230469" xlink:href="#DejaVuSansMono-115"/>
      <use x="421.435547" xlink:href="#DejaVuSansMono-116"/>
      <use x="481.640625" xlink:href="#DejaVuSansMono-34"/>
      <use x="541.845703" xlink:href="#DejaVuSansMono-58"/>
     </g>
     <!-- y_0    = 38595583 -->
     <g transform="translate(362.2275 34.737)scale(0.06 -0.06)">
      <defs>
       <path d="M 4.296875 25.59375 
L 55.90625 25.59375 
L 55.90625 17.1875 
L 4.296875 17.1875 
z
M 4.296875 45.40625 
L 55.90625 45.40625 
L 55.90625 37.109375 
L 4.296875 37.109375 
z
" id="DejaVuSansMono-61"/>
      </defs>
      <use xlink:href="#DejaVuSansMono-121"/>
      <use x="60.205078" xlink:href="#DejaVuSansMono-95"/>
      <use x="120.410156" xlink:href="#DejaVuSansMono-48"/>
      <use x="180.615234" xlink:href="#DejaVuSansMono-32"/>
      <use x="240.820312" xlink:href="#DejaVuSansMono-32"/>
      <use x="301.025391" xlink:href="#DejaVuSansMono-32"/>
      <use x="361.230469" xlink:href="#DejaVuSansMono-32"/>
      <use x="421.435547" xlink:href="#DejaVuSansMono-61"/>
      <use x="481.640625" xlink:href="#DejaVuSansMono-32"/>
      <use x="541.845703" xlink:href="#DejaVuSansMono-51"/>
      <use x="602.050781" xlink:href="#DejaVuSansMono-56"/>
      <use x="662.255859" xlink:href="#DejaVuSansMono-53"/>
      <use x="722.460938" xlink:href="#DejaVuSansMono-57"/>
      <use x="782.666016" xlink:href="#DejaVuSansMono-53"/>
      <use x="842.871094" xlink:href="#DejaVuSansMono-53"/>
      <use x="903.076172" xlink:href="#DejaVuSansMono-56"/>
      <use x="963.28125" xlink:href="#DejaVuSansMono-51"/>
     </g>
     <!-- y_max  = 474637698851092 -->
     <g transform="translate(362.2275 41.660812)scale(0.06 -0.06)">
      <defs>
       <path d="M 54.59375 54.6875 
L 35.015625 28.515625 
L 56.5 0 
L 46.09375 0 
L 30.078125 21.921875 
L 14.109375 0 
L 3.71875 0 
L 25.203125 28.515625 
L 5.609375 54.6875 
L 15.578125 54.6875 
L 30.078125 34.90625 
L 44.484375 54.6875 
z
" id="DejaVuSansMono-120"/>
      </defs>
      <use xlink:href="#DejaVuSansMono-121"/>
      <use x="60.205078" xlink:href="#DejaVuSansMono-95"/>
      <use x="120.410156" xlink:href="#DejaVuSansMono-109"/>
      <use x="180.615234" xlink:href="#DejaVuSansMono-97"/>
      <use x="240.820312" xlink:href="#DejaVuSansMono-120"/>
      <use x="301.025391" xlink:href="#DejaVuSansMono-32"/>
      <use x="361.230469" xlink:href="#DejaVuSansMono-32"/>
      <use x="421.435547" xlink:href="#DejaVuSansMono-61"/>
      <use x="481.640625" xlink:href="#DejaVuSansMono-32"/>
      <use x="541.845703" xlink:href="#DejaVuSansMono-52"/>
      <use x="602.050781" xlink:href="#DejaVuSansMono-55"/>
      <use x="662.255859" xlink:href="#DejaVuSansMono-52"/>
      <use x="722.460938" xlink:href="#DejaVuSansMono-54"/>
      <use x="782.666016" xlink:href="#DejaVuSansMono-51"/>
      <use x="842.871094" xlink:href="#DejaVuSansMono-55"/>
      <use x="903.076172" xlink:href="#DejaVuSansMono-54"/>
      <use x="963.28125" xlink:href="#DejaVuSansMono-57"/>
      <use x="1023.486328" xlink:href="#DejaVuSansMono-56"/>
      <use x="1083.691406" xlink:href="#DejaVuSansMono-56"/>
      <use x="1143.896484" xlink:href="#DejaVuSansMono-53"/>
      <use x="1204.101562" xlink:href="#DejaVuSansMono-49"/>
      <use x="1264.306641" xlink:href="#DejaVuSansMono-48"/>
      <use x="1324.511719" xlink:href="#DejaVuSansMono-57"/>
      <use x="1384.716797" xlink:href="#DejaVuSansMono-50"/>
     </g>
     <!-- x_max  = 484 -->
     <g transform="translate(362.2275 48.584625)scale(0.06 -0.06)">
      <use xlink:href="#DejaVuSansMono-120"/>
      <use x="60.205078" xlink:href="#DejaVuSansMono-95"/>
      <use x="120.410156" xlink:href="#DejaVuSansMono-109"/>
      <use x="180.615234" xlink:href="#DejaVuSansMono-97"/>
      <use x="240.820312" xlink:href="#DejaVuSansMono-120"/>
      <use x="301.025391" xlink:href="#DejaVuSansMono-32"/>
      <use x="361.230469" xlink:href="#DejaVuSansMono-32"/>
      <use x="421.435547" xlink:href="#DejaVuSansMono-61"/>
      <use x="481.640625" xlink:href="#DejaVuSansMono-32"/>
      <use x="541.845703" xlink:href="#DejaVuSansMono-52"/>
      <use x="602.050781" xlink:href="#DejaVuSansMono-56"/>
      <use x="662.255859" xlink:href="#DejaVuSansMono-52"/>
     </g>
    </g>
    <g id="line2d_18">
     <path d="M 345.4275 66.499875 
L 357.4275 66.499875 
" style="fill:none;stroke:#ff7f0e;stroke-linecap:square;stroke-width:0.666667;"/>
    </g>
    <g id="line2d_19"/>
    <g id="text_18">
     <!-- "Widest":  -->
     <g transform="translate(362.2275 57.59025)scale(0.06 -0.06)">
      <defs>
       <path d="M 0 72.90625 
L 9.625 72.90625 
L 16.609375 13.71875 
L 24.90625 52.875 
L 35.203125 52.875 
L 43.609375 13.625 
L 50.59375 72.90625 
L 60.203125 72.90625 
L 49.3125 0 
L 39.984375 0 
L 30.078125 43.3125 
L 20.21875 0 
L 10.890625 0 
z
" id="DejaVuSansMono-87"/>
       <path d="M 12.5 54.6875 
L 35.5 54.6875 
L 35.5 6.984375 
L 53.328125 6.984375 
L 53.328125 0 
L 8.6875 0 
L 8.6875 6.984375 
L 26.515625 6.984375 
L 26.515625 47.703125 
L 12.5 47.703125 
z
M 26.515625 75.984375 
L 35.5 75.984375 
L 35.5 64.59375 
L 26.515625 64.59375 
z
" id="DejaVuSansMono-105"/>
       <path d="M 41.890625 47.703125 
L 41.890625 75.984375 
L 50.875 75.984375 
L 50.875 0 
L 41.890625 0 
L 41.890625 6.890625 
Q 39.65625 2.828125 35.90625 0.703125 
Q 32.171875 -1.421875 27.296875 -1.421875 
Q 17.390625 -1.421875 11.6875 6.265625 
Q 6 13.96875 6 27.484375 
Q 6 40.828125 11.71875 48.40625 
Q 17.4375 56 27.296875 56 
Q 32.234375 56 35.984375 53.875 
Q 39.75 51.765625 41.890625 47.703125 
z
M 15.484375 27.296875 
Q 15.484375 16.84375 18.796875 11.515625 
Q 22.125 6.203125 28.609375 6.203125 
Q 35.109375 6.203125 38.5 11.5625 
Q 41.890625 16.9375 41.890625 27.296875 
Q 41.890625 37.703125 38.5 43.046875 
Q 35.109375 48.390625 28.609375 48.390625 
Q 22.125 48.390625 18.796875 43.0625 
Q 15.484375 37.75 15.484375 27.296875 
z
" id="DejaVuSansMono-100"/>
      </defs>
      <use xlink:href="#DejaVuSansMono-34"/>
      <use x="60.205078" xlink:href="#DejaVuSansMono-87"/>
      <use x="120.410156" xlink:href="#DejaVuSansMono-105"/>
      <use x="180.615234" xlink:href="#DejaVuSansMono-100"/>
      <use x="240.820312" xlink:href="#DejaVuSansMono-101"/>
      <use x="301.025391" xlink:href="#DejaVuSansMono-115"/>
      <use x="361.230469" xlink:href="#DejaVuSansMono-116"/>
      <use x="421.435547" xlink:href="#DejaVuSansMono-34"/>
      <use x="481.640625" xlink:href="#DejaVuSansMono-58"/>
      <use x="541.845703" xlink:href="#DejaVuSansMono-32"/>
     </g>
     <!-- y_0    = 63728127 -->
     <g transform="translate(362.2275 64.347187)scale(0.06 -0.06)">
      <use xlink:href="#DejaVuSansMono-121"/>
      <use x="60.205078" xlink:href="#DejaVuSansMono-95"/>
      <use x="120.410156" xlink:href="#DejaVuSansMono-48"/>
      <use x="180.615234" xlink:href="#DejaVuSansMono-32"/>
      <use x="240.820312" xlink:href="#DejaVuSansMono-32"/>
      <use x="301.025391" xlink:href="#DejaVuSansMono-32"/>
      <use x="361.230469" xlink:href="#DejaVuSansMono-32"/>
      <use x="421.435547" xlink:href="#DejaVuSansMono-61"/>
      <use x="481.640625" xlink:href="#DejaVuSansMono-32"/>
      <use x="541.845703" xlink:href="#DejaVuSansMono-54"/>
      <use x="602.050781" xlink:href="#DejaVuSansMono-51"/>
      <use x="662.255859" xlink:href="#DejaVuSansMono-55"/>
      <use x="722.460938" xlink:href="#DejaVuSansMono-50"/>
      <use x="782.666016" xlink:href="#DejaVuSansMono-56"/>
      <use x="842.871094" xlink:href="#DejaVuSansMono-49"/>
      <use x="903.076172" xlink:href="#DejaVuSansMono-50"/>
      <use x="963.28125" xlink:href="#DejaVuSansMono-55"/>
     </g>
     <!-- y_max  = 966616035460 -->
     <g transform="translate(362.2275 71.271)scale(0.06 -0.06)">
      <use xlink:href="#DejaVuSansMono-121"/>
      <use x="60.205078" xlink:href="#DejaVuSansMono-95"/>
      <use x="120.410156" xlink:href="#DejaVuSansMono-109"/>
      <use x="180.615234" xlink:href="#DejaVuSansMono-97"/>
      <use x="240.820312" xlink:href="#DejaVuSansMono-120"/>
      <use x="301.025391" xlink:href="#DejaVuSansMono-32"/>
      <use x="361.230469" xlink:href="#DejaVuSansMono-32"/>
      <use x="421.435547" xlink:href="#DejaVuSansMono-61"/>
      <use x="481.640625" xlink:href="#DejaVuSansMono-32"/>
      <use x="541.845703" xlink:href="#DejaVuSansMono-57"/>
      <use x="602.050781" xlink:href="#DejaVuSansMono-54"/>
      <use x="662.255859" xlink:href="#DejaVuSansMono-54"/>
      <use x="722.460938" xlink:href="#DejaVuSansMono-54"/>
      <use x="782.666016" xlink:href="#DejaVuSansMono-49"/>
      <use x="842.871094" xlink:href="#DejaVuSansMono-54"/>
      <use x="903.076172" xlink:href="#DejaVuSansMono-48"/>
      <use x="963.28125" xlink:href="#DejaVuSansMono-51"/>
      <use x="1023.486328" xlink:href="#DejaVuSansMono-53"/>
      <use x="1083.691406" xlink:href="#DejaVuSansMono-52"/>
      <use x="1143.896484" xlink:href="#DejaVuSansMono-54"/>
      <use x="1204.101562" xlink:href="#DejaVuSansMono-48"/>
     </g>
     <!-- x_max  = 950 -->
     <g transform="translate(362.2275 78.194812)scale(0.06 -0.06)">
      <use xlink:href="#DejaVuSansMono-120"/>
      <use x="60.205078" xlink:href="#DejaVuSansMono-95"/>
      <use x="120.410156" xlink:href="#DejaVuSansMono-109"/>
      <use x="180.615234" xlink:href="#DejaVuSansMono-97"/>
      <use x="240.820312" xlink:href="#DejaVuSansMono-120"/>
      <use x="301.025391" xlink:href="#DejaVuSansMono-32"/>
      <use x="361.230469" xlink:href="#DejaVuSansMono-32"/>
      <use x="421.435547" xlink:href="#DejaVuSansMono-61"/>
      <use x="481.640625" xlink:href="#DejaVuSansMono-32"/>
      <use x="541.845703" xlink:href="#DejaVuSansMono-57"/>
      <use x="602.050781" xlink:href="#DejaVuSansMono-53"/>
      <use x="662.255859" xlink:href="#DejaVuSansMono-48"/>
     </g>
    </g>
   </g>
  </g>
 </g>
 <defs>
  <clipPath id="p5e0193bb26">
   <rect height="298.453375" width="418.46125" x="35.85875" y="17.989125"/>
  </clipPath>
 </defs>
</svg>
