<?xml version="1.0" encoding="utf-8" standalone="no"?>
<!DOCTYPE svg PUBLIC "-//W3C//DTD SVG 1.1//EN"
  "http://www.w3.org/Graphics/SVG/1.1/DTD/svg11.dtd">
<!-- Created with matplotlib (https://matplotlib.org/) -->
<svg height="345.6pt" version="1.1" viewBox="0 0 460.8 345.6" width="460.8pt" xmlns="http://www.w3.org/2000/svg" xmlns:xlink="http://www.w3.org/1999/xlink">
 <metadata>
  <rdf:RDF xmlns:cc="http://creativecommons.org/ns#" xmlns:dc="http://purl.org/dc/elements/1.1/" xmlns:rdf="http://www.w3.org/1999/02/22-rdf-syntax-ns#">
   <cc:Work>
    <dc:type rdf:resource="http://purl.org/dc/dcmitype/StillImage"/>
    <dc:date>2022-03-17T00:24:51.201277</dc:date>
    <dc:format>image/svg+xml</dc:format>
    <dc:creator>
     <cc:Agent>
      <dc:title>Matplotlib v3.3.2, https://matplotlib.org/</dc:title>
     </cc:Agent>
    </dc:creator>
   </cc:Work>
  </rdf:RDF>
 </metadata>
 <defs>
  <style type="text/css">*{stroke-linecap:butt;stroke-linejoin:round;}</style>
 </defs>
 <g id="figure_1">
  <g id="patch_1">
   <path d="M 0 345.6 
L 460.8 345.6 
L 460.8 0 
L 0 0 
z
" style="fill:#ffffff;"/>
  </g>
  <g id="axes_1">
   <g id="patch_2">
    <path d="M 33.33875 316.4425 
L 454.32 316.4425 
L 454.32 17.989125 
L 33.33875 17.989125 
z
" style="fill:#ffffff;"/>
   </g>
   <g id="matplotlib.axis_1">
    <g id="xtick_1">
     <g id="line2d_1">
      <defs>
       <path d="M 0 0 
L 0 3.5 
" id="mf784c5d0f3" style="stroke:#000000;stroke-width:0.8;"/>
      </defs>
      <g>
       <use style="stroke:#000000;stroke-width:0.8;" x="52.474261" xlink:href="#mf784c5d0f3" y="316.4425"/>
      </g>
     </g>
     <g id="text_1">
      <!-- 0 -->
      <g transform="translate(50.668168 328.033437)scale(0.06 -0.06)">
       <defs>
        <path d="M 23.578125 36.625 
Q 23.578125 39.3125 25.453125 41.265625 
Q 27.34375 43.21875 29.984375 43.21875 
Q 32.71875 43.21875 34.671875 41.265625 
Q 36.625 39.3125 36.625 36.625 
Q 36.625 33.890625 34.6875 31.984375 
Q 32.765625 30.078125 29.984375 30.078125 
Q 27.25 30.078125 25.40625 31.9375 
Q 23.578125 33.796875 23.578125 36.625 
z
M 30.078125 66.40625 
Q 23.1875 66.40625 19.796875 58.984375 
Q 16.40625 51.5625 16.40625 36.375 
Q 16.40625 21.234375 19.796875 13.8125 
Q 23.1875 6.390625 30.078125 6.390625 
Q 37.015625 6.390625 40.40625 13.8125 
Q 43.796875 21.234375 43.796875 36.375 
Q 43.796875 51.5625 40.40625 58.984375 
Q 37.015625 66.40625 30.078125 66.40625 
z
M 30.078125 74.21875 
Q 41.75 74.21875 47.734375 64.640625 
Q 53.71875 55.078125 53.71875 36.375 
Q 53.71875 17.71875 47.734375 8.140625 
Q 41.75 -1.421875 30.078125 -1.421875 
Q 18.40625 -1.421875 12.453125 8.140625 
Q 6.5 17.71875 6.5 36.375 
Q 6.5 55.078125 12.453125 64.640625 
Q 18.40625 74.21875 30.078125 74.21875 
z
" id="DejaVuSansMono-48"/>
       </defs>
       <use xlink:href="#DejaVuSansMono-48"/>
      </g>
     </g>
    </g>
    <g id="xtick_2">
     <g id="line2d_2">
      <g>
       <use style="stroke:#000000;stroke-width:0.8;" x="111.717331" xlink:href="#mf784c5d0f3" y="316.4425"/>
      </g>
     </g>
     <g id="text_2">
      <!-- 50 -->
      <g transform="translate(108.105143 328.033437)scale(0.06 -0.06)">
       <defs>
        <path d="M 10.109375 72.90625 
L 47.015625 72.90625 
L 47.015625 64.59375 
L 19.09375 64.59375 
L 19.09375 46.6875 
Q 21.1875 47.46875 23.3125 47.828125 
Q 25.4375 48.1875 27.59375 48.1875 
Q 38.921875 48.1875 45.5625 41.5 
Q 52.203125 34.8125 52.203125 23.390625 
Q 52.203125 11.859375 45.234375 5.21875 
Q 38.28125 -1.421875 26.21875 -1.421875 
Q 20.40625 -1.421875 15.59375 -0.640625 
Q 10.796875 0.140625 6.984375 1.703125 
L 6.984375 11.71875 
Q 11.46875 9.28125 16.015625 8.078125 
Q 20.5625 6.890625 25.296875 6.890625 
Q 33.453125 6.890625 37.859375 11.1875 
Q 42.28125 15.484375 42.28125 23.390625 
Q 42.28125 31.203125 37.71875 35.546875 
Q 33.15625 39.890625 25 39.890625 
Q 21.046875 39.890625 17.28125 38.984375 
Q 13.53125 38.09375 10.109375 36.28125 
z
" id="DejaVuSansMono-53"/>
       </defs>
       <use xlink:href="#DejaVuSansMono-53"/>
       <use x="60.205078" xlink:href="#DejaVuSansMono-48"/>
      </g>
     </g>
    </g>
    <g id="xtick_3">
     <g id="line2d_3">
      <g>
       <use style="stroke:#000000;stroke-width:0.8;" x="170.9604" xlink:href="#mf784c5d0f3" y="316.4425"/>
      </g>
     </g>
     <g id="text_3">
      <!-- 100 -->
      <g transform="translate(165.542119 328.033437)scale(0.06 -0.06)">
       <defs>
        <path d="M 13.1875 8.296875 
L 28.515625 8.296875 
L 28.515625 64.015625 
L 12.015625 60.296875 
L 12.015625 69.28125 
L 28.421875 72.90625 
L 38.28125 72.90625 
L 38.28125 8.296875 
L 53.421875 8.296875 
L 53.421875 0 
L 13.1875 0 
z
" id="DejaVuSansMono-49"/>
       </defs>
       <use xlink:href="#DejaVuSansMono-49"/>
       <use x="60.205078" xlink:href="#DejaVuSansMono-48"/>
       <use x="120.410156" xlink:href="#DejaVuSansMono-48"/>
      </g>
     </g>
    </g>
    <g id="xtick_4">
     <g id="line2d_4">
      <g>
       <use style="stroke:#000000;stroke-width:0.8;" x="230.203469" xlink:href="#mf784c5d0f3" y="316.4425"/>
      </g>
     </g>
     <g id="text_4">
      <!-- 150 -->
      <g transform="translate(224.785188 328.033437)scale(0.06 -0.06)">
       <use xlink:href="#DejaVuSansMono-49"/>
       <use x="60.205078" xlink:href="#DejaVuSansMono-53"/>
       <use x="120.410156" xlink:href="#DejaVuSansMono-48"/>
      </g>
     </g>
    </g>
    <g id="xtick_5">
     <g id="line2d_5">
      <g>
       <use style="stroke:#000000;stroke-width:0.8;" x="289.446538" xlink:href="#mf784c5d0f3" y="316.4425"/>
      </g>
     </g>
     <g id="text_5">
      <!-- 200 -->
      <g transform="translate(284.028257 328.033437)scale(0.06 -0.06)">
       <defs>
        <path d="M 18.21875 8.296875 
L 51.703125 8.296875 
L 51.703125 0 
L 7.421875 0 
L 7.421875 8.296875 
Q 16.546875 17.921875 23.375 25.296875 
Q 30.21875 32.671875 32.8125 35.6875 
Q 37.703125 41.65625 39.40625 45.34375 
Q 41.109375 49.03125 41.109375 52.875 
Q 41.109375 58.984375 37.515625 62.453125 
Q 33.9375 65.921875 27.6875 65.921875 
Q 23.25 65.921875 18.359375 64.3125 
Q 13.484375 62.703125 8.015625 59.421875 
L 8.015625 69.390625 
Q 13.03125 71.78125 17.890625 73 
Q 22.75 74.21875 27.484375 74.21875 
Q 38.1875 74.21875 44.703125 68.53125 
Q 51.21875 62.84375 51.21875 53.609375 
Q 51.21875 48.921875 49.046875 44.234375 
Q 46.875 39.546875 42 33.890625 
Q 39.265625 30.71875 34.0625 25.09375 
Q 28.859375 19.484375 18.21875 8.296875 
z
" id="DejaVuSansMono-50"/>
       </defs>
       <use xlink:href="#DejaVuSansMono-50"/>
       <use x="60.205078" xlink:href="#DejaVuSansMono-48"/>
       <use x="120.410156" xlink:href="#DejaVuSansMono-48"/>
      </g>
     </g>
    </g>
    <g id="xtick_6">
     <g id="line2d_6">
      <g>
       <use style="stroke:#000000;stroke-width:0.8;" x="348.689608" xlink:href="#mf784c5d0f3" y="316.4425"/>
      </g>
     </g>
     <g id="text_6">
      <!-- 250 -->
      <g transform="translate(343.271326 328.033437)scale(0.06 -0.06)">
       <use xlink:href="#DejaVuSansMono-50"/>
       <use x="60.205078" xlink:href="#DejaVuSansMono-53"/>
       <use x="120.410156" xlink:href="#DejaVuSansMono-48"/>
      </g>
     </g>
    </g>
    <g id="xtick_7">
     <g id="line2d_7">
      <g>
       <use style="stroke:#000000;stroke-width:0.8;" x="407.932677" xlink:href="#mf784c5d0f3" y="316.4425"/>
      </g>
     </g>
     <g id="text_7">
      <!-- 300 -->
      <g transform="translate(402.514396 328.033437)scale(0.06 -0.06)">
       <defs>
        <path d="M 37.890625 39.015625 
Q 45.0625 37.109375 48.875 32.25 
Q 52.6875 27.390625 52.6875 20.125 
Q 52.6875 10.0625 45.921875 4.3125 
Q 39.15625 -1.421875 27.203125 -1.421875 
Q 22.171875 -1.421875 16.9375 -0.484375 
Q 11.71875 0.4375 6.6875 2.203125 
L 6.6875 12.015625 
Q 11.671875 9.421875 16.5 8.15625 
Q 21.34375 6.890625 26.125 6.890625 
Q 34.234375 6.890625 38.578125 10.546875 
Q 42.921875 14.203125 42.921875 21.09375 
Q 42.921875 27.4375 38.578125 31.171875 
Q 34.234375 34.90625 26.8125 34.90625 
L 19.28125 34.90625 
L 19.28125 43.015625 
L 26.8125 43.015625 
Q 33.59375 43.015625 37.40625 45.984375 
Q 41.21875 48.96875 41.21875 54.296875 
Q 41.21875 59.90625 37.671875 62.90625 
Q 34.125 65.921875 27.59375 65.921875 
Q 23.25 65.921875 18.609375 64.9375 
Q 13.96875 63.96875 8.890625 62.015625 
L 8.890625 71.09375 
Q 14.796875 72.65625 19.40625 73.4375 
Q 24.03125 74.21875 27.59375 74.21875 
Q 38.234375 74.21875 44.609375 68.875 
Q 50.984375 63.53125 50.984375 54.6875 
Q 50.984375 48.6875 47.625 44.671875 
Q 44.28125 40.671875 37.890625 39.015625 
z
" id="DejaVuSansMono-51"/>
       </defs>
       <use xlink:href="#DejaVuSansMono-51"/>
       <use x="60.205078" xlink:href="#DejaVuSansMono-48"/>
       <use x="120.410156" xlink:href="#DejaVuSansMono-48"/>
      </g>
     </g>
    </g>
    <g id="text_8">
     <!-- n -->
     <g transform="translate(242.023281 337.872187)scale(0.06 -0.06)">
      <defs>
       <path d="M 51.3125 33.890625 
L 51.3125 0 
L 42.28125 0 
L 42.28125 33.890625 
Q 42.28125 41.265625 39.6875 44.71875 
Q 37.109375 48.1875 31.59375 48.1875 
Q 25.296875 48.1875 21.890625 43.71875 
Q 18.5 39.265625 18.5 30.90625 
L 18.5 0 
L 9.515625 0 
L 9.515625 54.6875 
L 18.5 54.6875 
L 18.5 46.484375 
Q 20.90625 51.171875 25 53.578125 
Q 29.109375 56 34.71875 56 
Q 43.0625 56 47.1875 50.5 
Q 51.3125 45.015625 51.3125 33.890625 
z
" id="DejaVuSansMono-110"/>
      </defs>
      <use xlink:href="#DejaVuSansMono-110"/>
     </g>
    </g>
   </g>
   <g id="matplotlib.axis_2">
    <g id="ytick_1">
     <g id="line2d_8">
      <defs>
       <path d="M 0 0 
L -3.5 0 
" id="m0fd30f8307" style="stroke:#000000;stroke-width:0.8;"/>
      </defs>
      <g>
       <use style="stroke:#000000;stroke-width:0.8;" x="33.33875" xlink:href="#m0fd30f8307" y="269.308838"/>
      </g>
     </g>
     <g id="text_9">
      <!-- $\mathdefault{10^{1}}$ -->
      <g transform="translate(16.31875 271.604307)scale(0.06 -0.06)">
       <use transform="translate(0 0.684375)" xlink:href="#DejaVuSansMono-49"/>
       <use transform="translate(60.205078 0.684375)" xlink:href="#DejaVuSansMono-48"/>
       <use transform="translate(121.367188 38.965625)scale(0.7)" xlink:href="#DejaVuSansMono-49"/>
      </g>
     </g>
    </g>
    <g id="ytick_2">
     <g id="line2d_9">
      <g>
       <use style="stroke:#000000;stroke-width:0.8;" x="33.33875" xlink:href="#m0fd30f8307" y="202.17364"/>
      </g>
     </g>
     <g id="text_10">
      <!-- $\mathdefault{10^{3}}$ -->
      <g transform="translate(16.31875 204.469108)scale(0.06 -0.06)">
       <use transform="translate(0 0.765625)" xlink:href="#DejaVuSansMono-49"/>
       <use transform="translate(60.205078 0.765625)" xlink:href="#DejaVuSansMono-48"/>
       <use transform="translate(121.367188 39.046875)scale(0.7)" xlink:href="#DejaVuSansMono-51"/>
      </g>
     </g>
    </g>
    <g id="ytick_3">
     <g id="line2d_10">
      <g>
       <use style="stroke:#000000;stroke-width:0.8;" x="33.33875" xlink:href="#m0fd30f8307" y="135.038441"/>
      </g>
     </g>
     <g id="text_11">
      <!-- $\mathdefault{10^{5}}$ -->
      <g transform="translate(16.31875 137.33391)scale(0.06 -0.06)">
       <use transform="translate(0 0.684375)" xlink:href="#DejaVuSansMono-49"/>
       <use transform="translate(60.205078 0.684375)" xlink:href="#DejaVuSansMono-48"/>
       <use transform="translate(121.367188 38.965625)scale(0.7)" xlink:href="#DejaVuSansMono-53"/>
      </g>
     </g>
    </g>
    <g id="ytick_4">
     <g id="line2d_11">
      <g>
       <use style="stroke:#000000;stroke-width:0.8;" x="33.33875" xlink:href="#m0fd30f8307" y="67.903243"/>
      </g>
     </g>
     <g id="text_12">
      <!-- $\mathdefault{10^{7}}$ -->
      <g transform="translate(16.31875 70.198711)scale(0.06 -0.06)">
       <defs>
        <path d="M 6.78125 72.90625 
L 52.6875 72.90625 
L 52.6875 68.703125 
L 26.609375 0 
L 16.3125 0 
L 41.703125 64.59375 
L 6.78125 64.59375 
z
" id="DejaVuSansMono-55"/>
       </defs>
       <use transform="translate(0 0.684375)" xlink:href="#DejaVuSansMono-49"/>
       <use transform="translate(60.205078 0.684375)" xlink:href="#DejaVuSansMono-48"/>
       <use transform="translate(121.367188 38.965625)scale(0.7)" xlink:href="#DejaVuSansMono-55"/>
      </g>
     </g>
    </g>
    <g id="text_13">
     <!-- y_n -->
     <g transform="translate(10.904062 172.634094)rotate(-90)scale(0.06 -0.06)">
      <defs>
       <path d="M 41.890625 17.578125 
Q 39.65625 11.859375 36.1875 2.546875 
Q 31.34375 -10.359375 29.6875 -13.1875 
Q 27.4375 -17 24.0625 -18.890625 
Q 20.703125 -20.796875 16.21875 -20.796875 
L 8.984375 -20.796875 
L 8.984375 -13.28125 
L 14.3125 -13.28125 
Q 18.265625 -13.28125 20.5 -10.984375 
Q 22.75 -8.6875 26.21875 0.875 
L 5.078125 54.6875 
L 14.59375 54.6875 
L 30.8125 11.921875 
L 46.78125 54.6875 
L 56.296875 54.6875 
z
" id="DejaVuSansMono-121"/>
       <path d="M 60.203125 -19.671875 
L 60.203125 -23.578125 
L 0 -23.578125 
L 0 -19.671875 
z
" id="DejaVuSansMono-95"/>
      </defs>
      <use xlink:href="#DejaVuSansMono-121"/>
      <use x="60.205078" xlink:href="#DejaVuSansMono-95"/>
      <use x="120.410156" xlink:href="#DejaVuSansMono-110"/>
     </g>
    </g>
   </g>
   <g id="line2d_12">
    <path clip-path="url(#pdcc6be4217)" d="M 52.474261 151.689971 
L 53.659123 135.674003 
L 54.843984 145.778857 
L 56.028846 129.762941 
L 57.213707 139.867795 
L 58.398568 123.851912 
L 60.768291 144.061621 
L 61.953152 128.045716 
L 63.138014 138.15057 
L 64.322875 122.134695 
L 66.692598 142.344403 
L 67.877459 126.328508 
L 69.062321 136.433362 
L 70.247182 120.417494 
L 71.432044 130.522348 
L 72.616905 114.506497 
L 74.986628 134.716206 
L 76.171489 118.700343 
L 77.35635 128.805197 
L 78.541212 112.789351 
L 80.910935 132.999059 
L 82.095796 116.983202 
L 83.280657 127.088056 
L 84.465519 111.072213 
L 85.65038 121.177067 
L 86.835242 105.161233 
L 89.204964 125.370942 
L 90.389826 109.355102 
L 92.759548 129.56481 
L 93.94441 113.548962 
L 95.129271 123.653816 
L 96.314133 107.637979 
L 97.498994 117.742833 
L 98.683855 101.727003 
L 99.868717 111.831857 
L 101.053578 95.816032 
L 102.23844 105.920886 
L 103.423301 89.905065 
L 105.793024 110.114773 
L 106.977885 94.098949 
L 108.162746 104.203804 
L 109.347608 88.187983 
L 110.532469 98.292837 
L 111.717331 82.277018 
L 112.902192 92.381872 
L 114.087053 76.366055 
L 115.271915 86.470909 
L 116.456776 70.455092 
L 117.641638 80.559946 
L 118.826499 64.54413 
L 120.01136 74.648984 
L 121.196222 58.633168 
L 122.381083 68.738023 
L 123.565944 52.722207 
L 125.935667 72.931916 
L 127.120529 56.9161 
L 128.30539 67.020954 
L 129.490251 51.005139 
L 130.675113 61.109993 
L 131.859974 45.094177 
L 134.229697 65.303886 
L 135.414558 49.288071 
L 136.59942 59.392925 
L 137.784281 43.377109 
L 138.969142 53.481964 
L 140.154004 37.466148 
L 141.338865 47.571003 
L 142.523727 31.555187 
L 150.817756 102.289167 
L 152.002618 86.273347 
L 156.742063 126.692764 
L 157.926925 110.676922 
L 160.296647 130.88663 
L 161.481509 114.870779 
L 172.145261 205.814467 
L 173.330123 189.792415 
L 174.514984 199.897269 
L 175.699845 183.877298 
L 178.069568 204.087007 
L 179.25443 188.065652 
L 182.809014 218.380214 
L 183.993875 202.349637 
L 186.363598 222.559345 
L 187.548459 206.523869 
L 188.733321 216.628724 
L 189.918182 200.599816 
L 191.103043 210.704671 
L 192.287905 194.680134 
L 195.842489 224.994697 
L 197.02735 208.955649 
L 199.397073 229.165358 
L 200.581934 213.118624 
L 204.136519 243.433187 
L 205.32138 227.335241 
L 206.506241 237.440095 
L 207.691103 221.369782 
L 210.060826 241.57949 
L 211.245687 225.491327 
L 212.430548 235.596181 
L 213.61541 219.532332 
L 218.354855 259.951749 
L 219.539717 243.682393 
L 220.724578 253.787248 
L 221.909439 237.604822 
L 225.464024 267.919385 
L 226.648885 251.468367 
L 227.833746 261.573221 
L 229.018608 245.274325 
L 231.38833 265.484033 
L 232.573192 249.09913 
L 236.127776 279.413692 
L 237.312637 262.45702 
L 242.052083 302.876437 
L 242.052083 302.876437 
" style="fill:none;stroke:#1f77b4;stroke-linecap:square;stroke-width:0.666667;"/>
   </g>
   <g id="line2d_13">
    <path clip-path="url(#pdcc6be4217)" d="M 52.474261 150.072683 
L 53.659123 134.056731 
L 54.843984 144.161586 
L 56.028846 128.14568 
L 57.213707 138.250534 
L 58.398568 122.234658 
L 60.768291 142.444367 
L 61.953152 126.428471 
L 64.322875 146.63818 
L 65.507737 130.622257 
L 66.692598 140.727111 
L 67.877459 124.711224 
L 69.062321 134.816078 
L 70.247182 118.800215 
L 72.616905 139.009924 
L 73.801766 122.994045 
L 76.171489 143.203754 
L 77.35635 127.187853 
L 78.541212 137.292708 
L 79.726073 121.276836 
L 82.095796 141.486544 
L 83.280657 125.470654 
L 84.465519 135.575508 
L 85.65038 119.559643 
L 86.835242 129.664497 
L 88.020103 113.648648 
L 89.204964 123.753502 
L 90.389826 107.737665 
L 91.574687 117.842519 
L 92.759548 101.826689 
L 93.94441 111.931543 
L 95.129271 95.915718 
L 96.314133 106.020573 
L 97.498994 90.004751 
L 98.683855 100.109605 
L 99.868717 84.093786 
L 102.23844 104.303494 
L 103.423301 88.287673 
L 106.977885 118.602236 
L 108.162746 102.586405 
L 110.532469 122.796114 
L 111.717331 106.780278 
L 112.902192 116.885132 
L 114.087053 100.869303 
L 115.271915 110.974157 
L 116.456776 94.958333 
L 117.641638 105.063187 
L 118.826499 89.047366 
L 120.01136 99.15222 
L 121.196222 83.136401 
L 123.565944 103.346109 
L 124.750806 87.330289 
L 125.935667 97.435143 
L 127.120529 81.419324 
L 128.30539 91.524178 
L 129.490251 75.508361 
L 130.675113 85.613215 
L 131.859974 69.597398 
L 133.044836 79.702253 
L 134.229697 63.686436 
L 135.414558 73.791291 
L 136.59942 57.775475 
L 138.969142 77.985183 
L 140.154004 61.969367 
L 142.523727 82.179076 
L 143.708588 66.16326 
L 144.893449 76.268114 
L 146.078311 60.252298 
L 148.448034 80.462006 
L 149.632895 64.44619 
L 150.817756 74.551044 
L 152.002618 58.535229 
L 154.37234 78.744937 
L 155.557202 62.729121 
L 157.926925 82.938829 
L 159.111786 66.923013 
L 160.296647 77.027867 
L 161.481509 61.012051 
L 165.036093 91.326614 
L 166.220954 75.310797 
L 168.590677 95.520505 
L 169.775538 79.504687 
L 172.145261 99.714395 
L 173.330123 83.698576 
L 174.514984 93.80343 
L 175.699845 77.787612 
L 178.069568 97.997321 
L 179.25443 81.981502 
L 181.624152 102.19121 
L 182.809014 86.17539 
L 183.993875 96.280244 
L 185.178736 80.264426 
L 187.548459 100.474135 
L 188.733321 84.458315 
L 191.103043 104.668023 
L 192.287905 88.652202 
L 193.472766 98.757057 
L 194.657628 82.741237 
L 195.842489 92.846092 
L 197.02735 76.830274 
L 198.212212 86.935128 
L 199.397073 70.919311 
L 200.581934 81.024166 
L 201.766796 65.008349 
L 202.951657 75.113204 
L 204.136519 59.097388 
L 205.32138 69.202242 
L 206.506241 53.186426 
L 207.691103 63.291281 
L 208.875964 47.275465 
L 215.985132 107.904591 
L 217.169994 91.888768 
L 218.354855 101.993622 
L 219.539717 85.977802 
L 220.724578 96.082656 
L 221.909439 80.066838 
L 223.094301 90.171692 
L 224.279162 74.155875 
L 226.648885 94.365584 
L 227.833746 78.349765 
L 229.018608 88.45462 
L 230.203469 72.438803 
L 232.573192 92.648511 
L 233.758053 76.632693 
L 234.942915 86.737548 
L 236.127776 70.721731 
L 237.312637 80.826585 
L 238.497499 64.810769 
L 239.68236 74.915623 
L 240.867222 58.899807 
L 245.606667 99.319224 
L 246.791528 83.303405 
L 247.97639 93.408259 
L 249.161251 77.392441 
L 250.346113 87.497296 
L 251.530974 71.481479 
L 252.715835 81.586333 
L 253.900697 65.570517 
L 255.085558 75.675371 
L 256.27042 59.659555 
L 257.455281 69.764409 
L 258.640142 53.748594 
L 259.825004 63.853448 
L 261.009865 47.837632 
L 264.564449 78.152195 
L 265.749311 62.136379 
L 270.488756 102.555796 
L 271.673618 86.539976 
L 272.858479 96.64483 
L 274.04334 80.629012 
L 275.228202 90.733866 
L 276.413063 74.718048 
L 282.33737 125.24232 
L 283.522231 109.22648 
L 285.891954 129.436188 
L 287.076816 113.42034 
L 289.446538 133.630049 
L 290.6314 117.61419 
L 291.816261 127.719044 
L 293.001122 111.703199 
L 294.185984 121.808054 
L 295.370845 105.792219 
L 296.555707 115.897073 
L 297.740568 99.881245 
L 298.925429 109.986099 
L 300.110291 93.970275 
L 301.295152 104.07513 
L 302.480014 88.059309 
L 308.40432 138.58358 
L 309.589182 122.567703 
L 313.143766 152.882266 
L 314.328627 136.866286 
L 317.883212 167.180848 
L 319.068073 151.164593 
L 320.252934 161.269447 
L 321.437796 145.253338 
L 324.99238 175.567901 
L 326.177241 159.551302 
L 327.362103 169.656157 
L 328.546964 153.639819 
L 330.916687 173.849528 
L 332.101548 157.833016 
L 333.28641 167.937871 
L 334.471271 151.921591 
L 339.210716 192.341008 
L 340.395578 176.322718 
L 341.580439 186.427572 
L 342.765301 170.410107 
L 345.135023 190.619816 
L 346.319885 174.601801 
L 348.689608 194.81151 
L 349.874469 178.792762 
L 352.244192 199.002471 
L 353.429053 182.982747 
L 354.613914 193.087601 
L 355.798776 177.069181 
L 358.168499 197.278889 
L 359.35336 181.259601 
L 360.538221 191.364455 
L 361.723083 175.346325 
L 362.907944 185.451179 
L 364.092806 169.433821 
L 367.64739 199.748384 
L 368.832251 183.728455 
L 372.386835 214.043018 
L 373.571697 198.016237 
L 374.756558 208.121092 
L 375.941419 192.097971 
L 378.311142 212.30768 
L 379.496004 196.28213 
L 380.680865 206.386984 
L 381.865726 190.364682 
L 385.42031 220.679245 
L 386.605172 204.646147 
L 388.974895 224.855855 
L 390.159756 208.817028 
L 391.344617 218.921882 
L 392.529479 202.890746 
L 396.084063 233.205309 
L 397.268924 217.148716 
L 398.453786 227.25357 
L 399.638647 211.210632 
L 400.823508 221.315487 
L 402.00837 205.281618 
L 405.562954 235.596181 
L 406.747815 219.532332 
L 411.487261 259.951749 
L 412.672122 243.682393 
L 413.856984 253.787248 
L 415.041845 237.604822 
L 418.596429 267.919385 
L 419.781291 251.468367 
L 420.966152 261.573221 
L 422.151013 245.274325 
L 424.520736 265.484033 
L 425.705598 249.09913 
L 429.260182 279.413692 
L 430.445043 262.45702 
L 435.184489 302.876437 
L 435.184489 302.876437 
" style="fill:none;stroke:#ff7f0e;stroke-linecap:square;stroke-width:0.666667;"/>
   </g>
   <g id="patch_3">
    <path d="M 33.33875 316.4425 
L 33.33875 17.989125 
" style="fill:none;stroke:#000000;stroke-linecap:square;stroke-linejoin:miter;stroke-width:0.8;"/>
   </g>
   <g id="patch_4">
    <path d="M 454.32 316.4425 
L 454.32 17.989125 
" style="fill:none;stroke:#000000;stroke-linecap:square;stroke-linejoin:miter;stroke-width:0.8;"/>
   </g>
   <g id="patch_5">
    <path d="M 33.33875 316.4425 
L 454.32 316.4425 
" style="fill:none;stroke:#000000;stroke-linecap:square;stroke-linejoin:miter;stroke-width:0.8;"/>
   </g>
   <g id="patch_6">
    <path d="M 33.33875 17.989125 
L 454.32 17.989125 
" style="fill:none;stroke:#000000;stroke-linecap:square;stroke-linejoin:miter;stroke-width:0.8;"/>
   </g>
   <g id="text_14">
    <!-- "3y+1" problem -->
    <g transform="translate(213.487 11.989125)scale(0.072 -0.072)">
     <defs>
      <path d="M 43.703125 72.90625 
L 43.703125 45.796875 
L 35.203125 45.796875 
L 35.203125 72.90625 
z
M 25 72.90625 
L 25 45.796875 
L 16.5 45.796875 
L 16.5 72.90625 
z
" id="DejaVuSansMono-34"/>
      <path d="M 34.1875 57.171875 
L 34.1875 35.5 
L 55.90625 35.5 
L 55.90625 27.203125 
L 34.1875 27.203125 
L 34.1875 5.515625 
L 25.984375 5.515625 
L 25.984375 27.203125 
L 4.296875 27.203125 
L 4.296875 35.5 
L 25.984375 35.5 
L 25.984375 57.171875 
z
" id="DejaVuSansMono-43"/>
      <path id="DejaVuSansMono-32"/>
      <path d="M 18.3125 6.890625 
L 18.3125 -20.796875 
L 9.28125 -20.796875 
L 9.28125 54.6875 
L 18.3125 54.6875 
L 18.3125 47.703125 
Q 20.5625 51.765625 24.296875 53.875 
Q 28.03125 56 32.90625 56 
Q 42.828125 56 48.46875 48.328125 
Q 54.109375 40.671875 54.109375 27.09375 
Q 54.109375 13.765625 48.4375 6.171875 
Q 42.78125 -1.421875 32.90625 -1.421875 
Q 27.9375 -1.421875 24.1875 0.703125 
Q 20.453125 2.828125 18.3125 6.890625 
z
M 44.671875 27.296875 
Q 44.671875 37.75 41.375 43.0625 
Q 38.09375 48.390625 31.59375 48.390625 
Q 25.046875 48.390625 21.671875 43.046875 
Q 18.3125 37.703125 18.3125 27.296875 
Q 18.3125 16.9375 21.671875 11.5625 
Q 25.046875 6.203125 31.59375 6.203125 
Q 38.09375 6.203125 41.375 11.515625 
Q 44.671875 16.84375 44.671875 27.296875 
z
" id="DejaVuSansMono-112"/>
      <path d="M 56.390625 43.40625 
Q 53.515625 45.65625 50.53125 46.671875 
Q 47.5625 47.703125 44 47.703125 
Q 35.59375 47.703125 31.140625 42.421875 
Q 26.703125 37.15625 26.703125 27.203125 
L 26.703125 0 
L 17.671875 0 
L 17.671875 54.6875 
L 26.703125 54.6875 
L 26.703125 44 
Q 28.953125 49.8125 33.609375 52.90625 
Q 38.28125 56 44.671875 56 
Q 48 56 50.875 55.171875 
Q 53.765625 54.34375 56.390625 52.59375 
z
" id="DejaVuSansMono-114"/>
      <path d="M 30.078125 48.390625 
Q 23.25 48.390625 19.734375 43.0625 
Q 16.21875 37.75 16.21875 27.296875 
Q 16.21875 16.890625 19.734375 11.546875 
Q 23.25 6.203125 30.078125 6.203125 
Q 36.96875 6.203125 40.484375 11.546875 
Q 44 16.890625 44 27.296875 
Q 44 37.75 40.484375 43.0625 
Q 36.96875 48.390625 30.078125 48.390625 
z
M 30.078125 56 
Q 41.453125 56 47.484375 48.625 
Q 53.515625 41.265625 53.515625 27.296875 
Q 53.515625 13.28125 47.5 5.921875 
Q 41.5 -1.421875 30.078125 -1.421875 
Q 18.703125 -1.421875 12.6875 5.921875 
Q 6.6875 13.28125 6.6875 27.296875 
Q 6.6875 41.265625 12.6875 48.625 
Q 18.703125 56 30.078125 56 
z
" id="DejaVuSansMono-111"/>
      <path d="M 44.828125 27.296875 
Q 44.828125 37.75 41.5 43.0625 
Q 38.1875 48.390625 31.6875 48.390625 
Q 25.140625 48.390625 21.765625 43.046875 
Q 18.40625 37.703125 18.40625 27.296875 
Q 18.40625 16.9375 21.765625 11.5625 
Q 25.140625 6.203125 31.6875 6.203125 
Q 38.1875 6.203125 41.5 11.515625 
Q 44.828125 16.84375 44.828125 27.296875 
z
M 18.40625 47.703125 
Q 20.5625 51.703125 24.34375 53.84375 
Q 28.125 56 33.109375 56 
Q 42.96875 56 48.625 48.40625 
Q 54.296875 40.828125 54.296875 27.484375 
Q 54.296875 13.96875 48.609375 6.265625 
Q 42.921875 -1.421875 33.015625 -1.421875 
Q 28.125 -1.421875 24.390625 0.703125 
Q 20.65625 2.828125 18.40625 6.890625 
L 18.40625 0 
L 9.421875 0 
L 9.421875 75.984375 
L 18.40625 75.984375 
z
" id="DejaVuSansMono-98"/>
      <path d="M 31.203125 19.828125 
Q 31.203125 13.765625 33.421875 10.6875 
Q 35.640625 7.625 39.984375 7.625 
L 50.484375 7.625 
L 50.484375 0 
L 39.109375 0 
Q 31.0625 0 26.640625 5.171875 
Q 22.21875 10.359375 22.21875 19.828125 
L 22.21875 69.484375 
L 7.8125 69.484375 
L 7.8125 76.515625 
L 31.203125 76.515625 
z
" id="DejaVuSansMono-108"/>
      <path d="M 54.296875 29.59375 
L 54.296875 25.203125 
L 15.375 25.203125 
L 15.375 24.90625 
Q 15.375 15.96875 20.03125 11.078125 
Q 24.703125 6.203125 33.203125 6.203125 
Q 37.5 6.203125 42.1875 7.5625 
Q 46.875 8.9375 52.203125 11.71875 
L 52.203125 2.78125 
Q 47.078125 0.6875 42.3125 -0.359375 
Q 37.546875 -1.421875 33.109375 -1.421875 
Q 20.359375 -1.421875 13.171875 6.21875 
Q 6 13.875 6 27.296875 
Q 6 40.375 13.03125 48.1875 
Q 20.0625 56 31.78125 56 
Q 42.234375 56 48.265625 48.921875 
Q 54.296875 41.84375 54.296875 29.59375 
z
M 45.3125 32.234375 
Q 45.125 40.140625 41.578125 44.265625 
Q 38.03125 48.390625 31.390625 48.390625 
Q 24.90625 48.390625 20.703125 44.09375 
Q 16.5 39.796875 15.71875 32.171875 
z
" id="DejaVuSansMono-101"/>
      <path d="M 33.015625 49.125 
Q 34.671875 52.640625 37.234375 54.3125 
Q 39.796875 56 43.40625 56 
Q 50 56 52.703125 50.890625 
Q 55.421875 45.796875 55.421875 31.6875 
L 55.421875 0 
L 47.21875 0 
L 47.21875 31.296875 
Q 47.21875 42.875 45.921875 45.671875 
Q 44.625 48.484375 41.21875 48.484375 
Q 37.3125 48.484375 35.859375 45.484375 
Q 34.421875 42.484375 34.421875 31.296875 
L 34.421875 0 
L 26.21875 0 
L 26.21875 31.296875 
Q 26.21875 43.015625 24.828125 45.75 
Q 23.4375 48.484375 19.828125 48.484375 
Q 16.265625 48.484375 14.875 45.484375 
Q 13.484375 42.484375 13.484375 31.296875 
L 13.484375 0 
L 5.328125 0 
L 5.328125 54.6875 
L 13.484375 54.6875 
L 13.484375 50 
Q 15.09375 52.9375 17.5 54.46875 
Q 19.921875 56 23 56 
Q 26.703125 56 29.171875 54.296875 
Q 31.640625 52.59375 33.015625 49.125 
z
" id="DejaVuSansMono-109"/>
     </defs>
     <use xlink:href="#DejaVuSansMono-34"/>
     <use x="60.205078" xlink:href="#DejaVuSansMono-51"/>
     <use x="120.410156" xlink:href="#DejaVuSansMono-121"/>
     <use x="180.615234" xlink:href="#DejaVuSansMono-43"/>
     <use x="240.820312" xlink:href="#DejaVuSansMono-49"/>
     <use x="301.025391" xlink:href="#DejaVuSansMono-34"/>
     <use x="361.230469" xlink:href="#DejaVuSansMono-32"/>
     <use x="421.435547" xlink:href="#DejaVuSansMono-112"/>
     <use x="481.640625" xlink:href="#DejaVuSansMono-114"/>
     <use x="541.845703" xlink:href="#DejaVuSansMono-111"/>
     <use x="602.050781" xlink:href="#DejaVuSansMono-98"/>
     <use x="662.255859" xlink:href="#DejaVuSansMono-108"/>
     <use x="722.460938" xlink:href="#DejaVuSansMono-101"/>
     <use x="782.666016" xlink:href="#DejaVuSansMono-109"/>
    </g>
   </g>
   <g id="legend_1">
    <g id="patch_7">
     <path d="M 365.900625 82.0095 
L 450.12 82.0095 
Q 451.32 82.0095 451.32 80.8095 
L 451.32 22.189125 
Q 451.32 20.989125 450.12 20.989125 
L 365.900625 20.989125 
Q 364.700625 20.989125 364.700625 22.189125 
L 364.700625 80.8095 
Q 364.700625 82.0095 365.900625 82.0095 
z
" style="fill:#ffffff;opacity:0.8;stroke:#cccccc;stroke-linejoin:miter;"/>
    </g>
    <g id="line2d_14">
     <path d="M 367.100625 36.889687 
L 379.100625 36.889687 
" style="fill:none;stroke:#1f77b4;stroke-linecap:square;stroke-width:0.666667;"/>
    </g>
    <g id="line2d_15"/>
    <g id="text_15">
     <!-- "Tallest": -->
     <g transform="translate(383.900625 27.980062)scale(0.06 -0.06)">
      <defs>
       <path d="M 2.296875 72.90625 
L 57.90625 72.90625 
L 57.90625 64.59375 
L 35.109375 64.59375 
L 35.109375 0 
L 25.203125 0 
L 25.203125 64.59375 
L 2.296875 64.59375 
z
" id="DejaVuSansMono-84"/>
       <path d="M 34.28125 27.484375 
L 31.296875 27.484375 
Q 23.4375 27.484375 19.453125 24.71875 
Q 15.484375 21.96875 15.484375 16.5 
Q 15.484375 11.578125 18.453125 8.84375 
Q 21.4375 6.109375 26.703125 6.109375 
Q 34.125 6.109375 38.375 11.25 
Q 42.625 16.40625 42.671875 25.484375 
L 42.671875 27.484375 
z
M 51.703125 31.203125 
L 51.703125 0 
L 42.671875 0 
L 42.671875 8.109375 
Q 39.796875 3.21875 35.421875 0.890625 
Q 31.0625 -1.421875 24.8125 -1.421875 
Q 16.453125 -1.421875 11.46875 3.296875 
Q 6.5 8.015625 6.5 15.921875 
Q 6.5 25.046875 12.625 29.78125 
Q 18.75 34.515625 30.609375 34.515625 
L 42.671875 34.515625 
L 42.671875 35.9375 
Q 42.625 42.484375 39.34375 45.4375 
Q 36.078125 48.390625 28.90625 48.390625 
Q 24.3125 48.390625 19.625 47.0625 
Q 14.9375 45.75 10.5 43.21875 
L 10.5 52.203125 
Q 15.484375 54.109375 20.046875 55.046875 
Q 24.609375 56 28.90625 56 
Q 35.6875 56 40.5 54 
Q 45.3125 52 48.296875 48 
Q 50.140625 45.5625 50.921875 41.96875 
Q 51.703125 38.375 51.703125 31.203125 
z
" id="DejaVuSansMono-97"/>
       <path d="M 47.515625 52.78125 
L 47.515625 44 
Q 43.65625 46.234375 39.75 47.359375 
Q 35.84375 48.484375 31.78125 48.484375 
Q 25.6875 48.484375 22.671875 46.5 
Q 19.671875 44.53125 19.671875 40.484375 
Q 19.671875 36.8125 21.921875 35 
Q 24.171875 33.203125 33.109375 31.5 
L 36.71875 30.8125 
Q 43.40625 29.546875 46.84375 25.734375 
Q 50.296875 21.921875 50.296875 15.828125 
Q 50.296875 7.71875 44.53125 3.140625 
Q 38.765625 -1.421875 28.515625 -1.421875 
Q 24.46875 -1.421875 20.015625 -0.5625 
Q 15.578125 0.296875 10.40625 2 
L 10.40625 11.28125 
Q 15.4375 8.6875 20.015625 7.390625 
Q 24.609375 6.109375 28.71875 6.109375 
Q 34.671875 6.109375 37.9375 8.515625 
Q 41.21875 10.9375 41.21875 15.28125 
Q 41.21875 21.53125 29.25 23.921875 
L 28.859375 24.03125 
L 25.484375 24.703125 
Q 17.71875 26.21875 14.15625 29.8125 
Q 10.59375 33.40625 10.59375 39.59375 
Q 10.59375 47.46875 15.90625 51.734375 
Q 21.234375 56 31.109375 56 
Q 35.5 56 39.546875 55.1875 
Q 43.609375 54.390625 47.515625 52.78125 
z
" id="DejaVuSansMono-115"/>
       <path d="M 29.984375 70.21875 
L 29.984375 54.6875 
L 50.390625 54.6875 
L 50.390625 47.703125 
L 29.984375 47.703125 
L 29.984375 18.015625 
Q 29.984375 11.96875 32.28125 9.5625 
Q 34.578125 7.171875 40.28125 7.171875 
L 50.390625 7.171875 
L 50.390625 0 
L 39.40625 0 
Q 29.296875 0 25.140625 4.046875 
Q 21 8.109375 21 18.015625 
L 21 47.703125 
L 6.390625 47.703125 
L 6.390625 54.6875 
L 21 54.6875 
L 21 70.21875 
z
" id="DejaVuSansMono-116"/>
       <path d="M 23.875 51.90625 
L 36.1875 51.90625 
L 36.1875 37.109375 
L 23.875 37.109375 
z
M 23.875 14.890625 
L 36.1875 14.890625 
L 36.1875 0 
L 23.875 0 
z
" id="DejaVuSansMono-58"/>
      </defs>
      <use xlink:href="#DejaVuSansMono-34"/>
      <use x="60.205078" xlink:href="#DejaVuSansMono-84"/>
      <use x="120.410156" xlink:href="#DejaVuSansMono-97"/>
      <use x="180.615234" xlink:href="#DejaVuSansMono-108"/>
      <use x="240.820312" xlink:href="#DejaVuSansMono-108"/>
      <use x="301.025391" xlink:href="#DejaVuSansMono-101"/>
      <use x="361.230469" xlink:href="#DejaVuSansMono-115"/>
      <use x="421.435547" xlink:href="#DejaVuSansMono-116"/>
      <use x="481.640625" xlink:href="#DejaVuSansMono-34"/>
      <use x="541.845703" xlink:href="#DejaVuSansMono-58"/>
     </g>
     <!-- y_0    = 31911 -->
     <g transform="translate(383.900625 34.737)scale(0.06 -0.06)">
      <defs>
       <path d="M 4.296875 25.59375 
L 55.90625 25.59375 
L 55.90625 17.1875 
L 4.296875 17.1875 
z
M 4.296875 45.40625 
L 55.90625 45.40625 
L 55.90625 37.109375 
L 4.296875 37.109375 
z
" id="DejaVuSansMono-61"/>
       <path d="M 29.109375 32.328125 
Q 35.40625 32.328125 38.984375 36.859375 
Q 42.578125 41.40625 42.578125 49.421875 
Q 42.578125 57.421875 38.984375 61.953125 
Q 35.40625 66.5 29.109375 66.5 
Q 22.5625 66.5 19.234375 62.171875 
Q 15.921875 57.859375 15.921875 49.421875 
Q 15.921875 40.921875 19.21875 36.625 
Q 22.515625 32.328125 29.109375 32.328125 
z
M 11.53125 1.515625 
L 11.53125 10.59375 
Q 14.59375 8.796875 18.0625 7.84375 
Q 21.53125 6.890625 25.296875 6.890625 
Q 34.671875 6.890625 39.46875 13.9375 
Q 44.28125 21 44.28125 34.71875 
Q 42 29.828125 37.84375 27.21875 
Q 33.6875 24.609375 28.328125 24.609375 
Q 17.78125 24.609375 11.984375 31.09375 
Q 6.203125 37.59375 6.203125 49.515625 
Q 6.203125 61.28125 12.125 67.75 
Q 18.0625 74.21875 28.90625 74.21875 
Q 41.609375 74.21875 47.515625 65.078125 
Q 53.421875 55.953125 53.421875 36.375 
Q 53.421875 17.96875 46.3125 8.265625 
Q 39.203125 -1.421875 25.6875 -1.421875 
Q 22.125 -1.421875 18.5 -0.65625 
Q 14.890625 0.09375 11.53125 1.515625 
z
" id="DejaVuSansMono-57"/>
      </defs>
      <use xlink:href="#DejaVuSansMono-121"/>
      <use x="60.205078" xlink:href="#DejaVuSansMono-95"/>
      <use x="120.410156" xlink:href="#DejaVuSansMono-48"/>
      <use x="180.615234" xlink:href="#DejaVuSansMono-32"/>
      <use x="240.820312" xlink:href="#DejaVuSansMono-32"/>
      <use x="301.025391" xlink:href="#DejaVuSansMono-32"/>
      <use x="361.230469" xlink:href="#DejaVuSansMono-32"/>
      <use x="421.435547" xlink:href="#DejaVuSansMono-61"/>
      <use x="481.640625" xlink:href="#DejaVuSansMono-32"/>
      <use x="541.845703" xlink:href="#DejaVuSansMono-51"/>
      <use x="602.050781" xlink:href="#DejaVuSansMono-49"/>
      <use x="662.255859" xlink:href="#DejaVuSansMono-57"/>
      <use x="722.460938" xlink:href="#DejaVuSansMono-49"/>
      <use x="782.666016" xlink:href="#DejaVuSansMono-49"/>
     </g>
     <!-- y_max  = 121012864 -->
     <g transform="translate(383.900625 41.660812)scale(0.06 -0.06)">
      <defs>
       <path d="M 54.59375 54.6875 
L 35.015625 28.515625 
L 56.5 0 
L 46.09375 0 
L 30.078125 21.921875 
L 14.109375 0 
L 3.71875 0 
L 25.203125 28.515625 
L 5.609375 54.6875 
L 15.578125 54.6875 
L 30.078125 34.90625 
L 44.484375 54.6875 
z
" id="DejaVuSansMono-120"/>
       <path d="M 30.078125 34.625 
Q 23.484375 34.625 19.890625 30.9375 
Q 16.3125 27.25 16.3125 20.515625 
Q 16.3125 13.765625 19.9375 10.03125 
Q 23.578125 6.296875 30.078125 6.296875 
Q 36.71875 6.296875 40.296875 9.984375 
Q 43.890625 13.671875 43.890625 20.515625 
Q 43.890625 27.203125 40.25 30.90625 
Q 36.625 34.625 30.078125 34.625 
z
M 21.484375 38.71875 
Q 15.1875 40.328125 11.640625 44.71875 
Q 8.109375 49.125 8.109375 55.328125 
Q 8.109375 64.015625 14.015625 69.109375 
Q 19.921875 74.21875 30.078125 74.21875 
Q 40.28125 74.21875 46.1875 69.109375 
Q 52.09375 64.015625 52.09375 55.328125 
Q 52.09375 49.125 48.546875 44.71875 
Q 45.015625 40.328125 38.71875 38.71875 
Q 46.046875 37.109375 49.921875 32.21875 
Q 53.8125 27.34375 53.8125 19.578125 
Q 53.8125 9.71875 47.515625 4.140625 
Q 41.21875 -1.421875 30.078125 -1.421875 
Q 18.953125 -1.421875 12.671875 4.125 
Q 6.390625 9.671875 6.390625 19.484375 
Q 6.390625 27.296875 10.265625 32.203125 
Q 14.15625 37.109375 21.484375 38.71875 
z
M 17.921875 54.390625 
Q 17.921875 48.53125 21.046875 45.453125 
Q 24.171875 42.390625 30.078125 42.390625 
Q 36.03125 42.390625 39.15625 45.453125 
Q 42.28125 48.53125 42.28125 54.390625 
Q 42.28125 60.359375 39.171875 63.484375 
Q 36.078125 66.609375 30.078125 66.609375 
Q 24.171875 66.609375 21.046875 63.453125 
Q 17.921875 60.296875 17.921875 54.390625 
z
" id="DejaVuSansMono-56"/>
       <path d="M 48.390625 71.296875 
L 48.390625 62.203125 
Q 45.3125 64.015625 41.84375 64.96875 
Q 38.375 65.921875 34.625 65.921875 
Q 25.25 65.921875 20.40625 58.859375 
Q 15.578125 51.8125 15.578125 38.09375 
Q 17.921875 42.96875 22.0625 45.578125 
Q 26.21875 48.1875 31.59375 48.1875 
Q 42.140625 48.1875 47.921875 41.71875 
Q 53.71875 35.25 53.71875 23.390625 
Q 53.71875 11.578125 47.75 5.078125 
Q 41.796875 -1.421875 31 -1.421875 
Q 18.3125 -1.421875 12.40625 7.6875 
Q 6.5 16.796875 6.5 36.375 
Q 6.5 54.828125 13.59375 64.515625 
Q 20.703125 74.21875 34.1875 74.21875 
Q 37.796875 74.21875 41.40625 73.453125 
Q 45.015625 72.703125 48.390625 71.296875 
z
M 30.8125 40.484375 
Q 24.515625 40.484375 20.890625 35.9375 
Q 17.28125 31.390625 17.28125 23.390625 
Q 17.28125 15.375 20.890625 10.828125 
Q 24.515625 6.296875 30.8125 6.296875 
Q 37.359375 6.296875 40.671875 10.609375 
Q 44 14.9375 44 23.390625 
Q 44 31.890625 40.671875 36.1875 
Q 37.359375 40.484375 30.8125 40.484375 
z
" id="DejaVuSansMono-54"/>
       <path d="M 35.890625 63.921875 
L 12.890625 25.390625 
L 35.890625 25.390625 
z
M 34.28125 72.90625 
L 45.703125 72.90625 
L 45.703125 25.390625 
L 55.421875 25.390625 
L 55.421875 17.390625 
L 45.703125 17.390625 
L 45.703125 0 
L 35.890625 0 
L 35.890625 17.390625 
L 4.984375 17.390625 
L 4.984375 26.703125 
z
" id="DejaVuSansMono-52"/>
      </defs>
      <use xlink:href="#DejaVuSansMono-121"/>
      <use x="60.205078" xlink:href="#DejaVuSansMono-95"/>
      <use x="120.410156" xlink:href="#DejaVuSansMono-109"/>
      <use x="180.615234" xlink:href="#DejaVuSansMono-97"/>
      <use x="240.820312" xlink:href="#DejaVuSansMono-120"/>
      <use x="301.025391" xlink:href="#DejaVuSansMono-32"/>
      <use x="361.230469" xlink:href="#DejaVuSansMono-32"/>
      <use x="421.435547" xlink:href="#DejaVuSansMono-61"/>
      <use x="481.640625" xlink:href="#DejaVuSansMono-32"/>
      <use x="541.845703" xlink:href="#DejaVuSansMono-49"/>
      <use x="602.050781" xlink:href="#DejaVuSansMono-50"/>
      <use x="662.255859" xlink:href="#DejaVuSansMono-49"/>
      <use x="722.460938" xlink:href="#DejaVuSansMono-48"/>
      <use x="782.666016" xlink:href="#DejaVuSansMono-49"/>
      <use x="842.871094" xlink:href="#DejaVuSansMono-50"/>
      <use x="903.076172" xlink:href="#DejaVuSansMono-56"/>
      <use x="963.28125" xlink:href="#DejaVuSansMono-54"/>
      <use x="1023.486328" xlink:href="#DejaVuSansMono-52"/>
     </g>
     <!-- x_max  = 161 -->
     <g transform="translate(383.900625 48.584625)scale(0.06 -0.06)">
      <use xlink:href="#DejaVuSansMono-120"/>
      <use x="60.205078" xlink:href="#DejaVuSansMono-95"/>
      <use x="120.410156" xlink:href="#DejaVuSansMono-109"/>
      <use x="180.615234" xlink:href="#DejaVuSansMono-97"/>
      <use x="240.820312" xlink:href="#DejaVuSansMono-120"/>
      <use x="301.025391" xlink:href="#DejaVuSansMono-32"/>
      <use x="361.230469" xlink:href="#DejaVuSansMono-32"/>
      <use x="421.435547" xlink:href="#DejaVuSansMono-61"/>
      <use x="481.640625" xlink:href="#DejaVuSansMono-32"/>
      <use x="541.845703" xlink:href="#DejaVuSansMono-49"/>
      <use x="602.050781" xlink:href="#DejaVuSansMono-54"/>
      <use x="662.255859" xlink:href="#DejaVuSansMono-49"/>
     </g>
    </g>
    <g id="line2d_16">
     <path d="M 367.100625 66.499875 
L 379.100625 66.499875 
" style="fill:none;stroke:#ff7f0e;stroke-linecap:square;stroke-width:0.666667;"/>
    </g>
    <g id="line2d_17"/>
    <g id="text_16">
     <!-- "Widest":  -->
     <g transform="translate(383.900625 57.59025)scale(0.06 -0.06)">
      <defs>
       <path d="M 0 72.90625 
L 9.625 72.90625 
L 16.609375 13.71875 
L 24.90625 52.875 
L 35.203125 52.875 
L 43.609375 13.625 
L 50.59375 72.90625 
L 60.203125 72.90625 
L 49.3125 0 
L 39.984375 0 
L 30.078125 43.3125 
L 20.21875 0 
L 10.890625 0 
z
" id="DejaVuSansMono-87"/>
       <path d="M 12.5 54.6875 
L 35.5 54.6875 
L 35.5 6.984375 
L 53.328125 6.984375 
L 53.328125 0 
L 8.6875 0 
L 8.6875 6.984375 
L 26.515625 6.984375 
L 26.515625 47.703125 
L 12.5 47.703125 
z
M 26.515625 75.984375 
L 35.5 75.984375 
L 35.5 64.59375 
L 26.515625 64.59375 
z
" id="DejaVuSansMono-105"/>
       <path d="M 41.890625 47.703125 
L 41.890625 75.984375 
L 50.875 75.984375 
L 50.875 0 
L 41.890625 0 
L 41.890625 6.890625 
Q 39.65625 2.828125 35.90625 0.703125 
Q 32.171875 -1.421875 27.296875 -1.421875 
Q 17.390625 -1.421875 11.6875 6.265625 
Q 6 13.96875 6 27.484375 
Q 6 40.828125 11.71875 48.40625 
Q 17.4375 56 27.296875 56 
Q 32.234375 56 35.984375 53.875 
Q 39.75 51.765625 41.890625 47.703125 
z
M 15.484375 27.296875 
Q 15.484375 16.84375 18.796875 11.515625 
Q 22.125 6.203125 28.609375 6.203125 
Q 35.109375 6.203125 38.5 11.5625 
Q 41.890625 16.9375 41.890625 27.296875 
Q 41.890625 37.703125 38.5 43.046875 
Q 35.109375 48.390625 28.609375 48.390625 
Q 22.125 48.390625 18.796875 43.0625 
Q 15.484375 37.75 15.484375 27.296875 
z
" id="DejaVuSansMono-100"/>
      </defs>
      <use xlink:href="#DejaVuSansMono-34"/>
      <use x="60.205078" xlink:href="#DejaVuSansMono-87"/>
      <use x="120.410156" xlink:href="#DejaVuSansMono-105"/>
      <use x="180.615234" xlink:href="#DejaVuSansMono-100"/>
      <use x="240.820312" xlink:href="#DejaVuSansMono-101"/>
      <use x="301.025391" xlink:href="#DejaVuSansMono-115"/>
      <use x="361.230469" xlink:href="#DejaVuSansMono-116"/>
      <use x="421.435547" xlink:href="#DejaVuSansMono-34"/>
      <use x="481.640625" xlink:href="#DejaVuSansMono-58"/>
      <use x="541.845703" xlink:href="#DejaVuSansMono-32"/>
     </g>
     <!-- y_0    = 35655 -->
     <g transform="translate(383.900625 64.347187)scale(0.06 -0.06)">
      <use xlink:href="#DejaVuSansMono-121"/>
      <use x="60.205078" xlink:href="#DejaVuSansMono-95"/>
      <use x="120.410156" xlink:href="#DejaVuSansMono-48"/>
      <use x="180.615234" xlink:href="#DejaVuSansMono-32"/>
      <use x="240.820312" xlink:href="#DejaVuSansMono-32"/>
      <use x="301.025391" xlink:href="#DejaVuSansMono-32"/>
      <use x="361.230469" xlink:href="#DejaVuSansMono-32"/>
      <use x="421.435547" xlink:href="#DejaVuSansMono-61"/>
      <use x="481.640625" xlink:href="#DejaVuSansMono-32"/>
      <use x="541.845703" xlink:href="#DejaVuSansMono-51"/>
      <use x="602.050781" xlink:href="#DejaVuSansMono-53"/>
      <use x="662.255859" xlink:href="#DejaVuSansMono-54"/>
      <use x="722.460938" xlink:href="#DejaVuSansMono-53"/>
      <use x="782.666016" xlink:href="#DejaVuSansMono-53"/>
     </g>
     <!-- y_max  = 41163712 -->
     <g transform="translate(383.900625 71.271)scale(0.06 -0.06)">
      <use xlink:href="#DejaVuSansMono-121"/>
      <use x="60.205078" xlink:href="#DejaVuSansMono-95"/>
      <use x="120.410156" xlink:href="#DejaVuSansMono-109"/>
      <use x="180.615234" xlink:href="#DejaVuSansMono-97"/>
      <use x="240.820312" xlink:href="#DejaVuSansMono-120"/>
      <use x="301.025391" xlink:href="#DejaVuSansMono-32"/>
      <use x="361.230469" xlink:href="#DejaVuSansMono-32"/>
      <use x="421.435547" xlink:href="#DejaVuSansMono-61"/>
      <use x="481.640625" xlink:href="#DejaVuSansMono-32"/>
      <use x="541.845703" xlink:href="#DejaVuSansMono-52"/>
      <use x="602.050781" xlink:href="#DejaVuSansMono-49"/>
      <use x="662.255859" xlink:href="#DejaVuSansMono-49"/>
      <use x="722.460938" xlink:href="#DejaVuSansMono-54"/>
      <use x="782.666016" xlink:href="#DejaVuSansMono-51"/>
      <use x="842.871094" xlink:href="#DejaVuSansMono-55"/>
      <use x="903.076172" xlink:href="#DejaVuSansMono-49"/>
      <use x="963.28125" xlink:href="#DejaVuSansMono-50"/>
     </g>
     <!-- x_max  = 324 -->
     <g transform="translate(383.900625 78.194812)scale(0.06 -0.06)">
      <use xlink:href="#DejaVuSansMono-120"/>
      <use x="60.205078" xlink:href="#DejaVuSansMono-95"/>
      <use x="120.410156" xlink:href="#DejaVuSansMono-109"/>
      <use x="180.615234" xlink:href="#DejaVuSansMono-97"/>
      <use x="240.820312" xlink:href="#DejaVuSansMono-120"/>
      <use x="301.025391" xlink:href="#DejaVuSansMono-32"/>
      <use x="361.230469" xlink:href="#DejaVuSansMono-32"/>
      <use x="421.435547" xlink:href="#DejaVuSansMono-61"/>
      <use x="481.640625" xlink:href="#DejaVuSansMono-32"/>
      <use x="541.845703" xlink:href="#DejaVuSansMono-51"/>
      <use x="602.050781" xlink:href="#DejaVuSansMono-50"/>
      <use x="662.255859" xlink:href="#DejaVuSansMono-52"/>
     </g>
    </g>
   </g>
  </g>
 </g>
 <defs>
  <clipPath id="pdcc6be4217">
   <rect height="298.453375" width="420.98125" x="33.33875" y="17.989125"/>
  </clipPath>
 </defs>
</svg>
