<?xml version="1.0" encoding="utf-8" standalone="no"?>
<!DOCTYPE svg PUBLIC "-//W3C//DTD SVG 1.1//EN"
  "http://www.w3.org/Graphics/SVG/1.1/DTD/svg11.dtd">
<!-- Created with matplotlib (https://matplotlib.org/) -->
<svg height="345.6pt" version="1.1" viewBox="0 0 460.8 345.6" width="460.8pt" xmlns="http://www.w3.org/2000/svg" xmlns:xlink="http://www.w3.org/1999/xlink">
 <metadata>
  <rdf:RDF xmlns:cc="http://creativecommons.org/ns#" xmlns:dc="http://purl.org/dc/elements/1.1/" xmlns:rdf="http://www.w3.org/1999/02/22-rdf-syntax-ns#">
   <cc:Work>
    <dc:type rdf:resource="http://purl.org/dc/dcmitype/StillImage"/>
    <dc:date>2022-03-17T00:27:48.557339</dc:date>
    <dc:format>image/svg+xml</dc:format>
    <dc:creator>
     <cc:Agent>
      <dc:title>Matplotlib v3.3.2, https://matplotlib.org/</dc:title>
     </cc:Agent>
    </dc:creator>
   </cc:Work>
  </rdf:RDF>
 </metadata>
 <defs>
  <style type="text/css">*{stroke-linecap:butt;stroke-linejoin:round;}</style>
 </defs>
 <g id="figure_1">
  <g id="patch_1">
   <path d="M 0 345.6 
L 460.8 345.6 
L 460.8 0 
L 0 0 
z
" style="fill:#ffffff;"/>
  </g>
  <g id="axes_1">
   <g id="patch_2">
    <path d="M 35.85875 316.4425 
L 454.32 316.4425 
L 454.32 17.989125 
L 35.85875 17.989125 
z
" style="fill:#ffffff;"/>
   </g>
   <g id="matplotlib.axis_1">
    <g id="xtick_1">
     <g id="line2d_1">
      <defs>
       <path d="M 0 0 
L 0 3.5 
" id="m29c9661b8d" style="stroke:#000000;stroke-width:0.8;"/>
      </defs>
      <g>
       <use style="stroke:#000000;stroke-width:0.8;" x="54.879716" xlink:href="#m29c9661b8d" y="316.4425"/>
      </g>
     </g>
     <g id="text_1">
      <!-- 0 -->
      <g transform="translate(53.073622 328.033437)scale(0.06 -0.06)">
       <defs>
        <path d="M 23.578125 36.625 
Q 23.578125 39.3125 25.453125 41.265625 
Q 27.34375 43.21875 29.984375 43.21875 
Q 32.71875 43.21875 34.671875 41.265625 
Q 36.625 39.3125 36.625 36.625 
Q 36.625 33.890625 34.6875 31.984375 
Q 32.765625 30.078125 29.984375 30.078125 
Q 27.25 30.078125 25.40625 31.9375 
Q 23.578125 33.796875 23.578125 36.625 
z
M 30.078125 66.40625 
Q 23.1875 66.40625 19.796875 58.984375 
Q 16.40625 51.5625 16.40625 36.375 
Q 16.40625 21.234375 19.796875 13.8125 
Q 23.1875 6.390625 30.078125 6.390625 
Q 37.015625 6.390625 40.40625 13.8125 
Q 43.796875 21.234375 43.796875 36.375 
Q 43.796875 51.5625 40.40625 58.984375 
Q 37.015625 66.40625 30.078125 66.40625 
z
M 30.078125 74.21875 
Q 41.75 74.21875 47.734375 64.640625 
Q 53.71875 55.078125 53.71875 36.375 
Q 53.71875 17.71875 47.734375 8.140625 
Q 41.75 -1.421875 30.078125 -1.421875 
Q 18.40625 -1.421875 12.453125 8.140625 
Q 6.5 17.71875 6.5 36.375 
Q 6.5 55.078125 12.453125 64.640625 
Q 18.40625 74.21875 30.078125 74.21875 
z
" id="DejaVuSansMono-48"/>
       </defs>
       <use xlink:href="#DejaVuSansMono-48"/>
      </g>
     </g>
    </g>
    <g id="xtick_2">
     <g id="line2d_2">
      <g>
       <use style="stroke:#000000;stroke-width:0.8;" x="122.933261" xlink:href="#m29c9661b8d" y="316.4425"/>
      </g>
     </g>
     <g id="text_2">
      <!-- 100 -->
      <g transform="translate(117.51498 328.033437)scale(0.06 -0.06)">
       <defs>
        <path d="M 13.1875 8.296875 
L 28.515625 8.296875 
L 28.515625 64.015625 
L 12.015625 60.296875 
L 12.015625 69.28125 
L 28.421875 72.90625 
L 38.28125 72.90625 
L 38.28125 8.296875 
L 53.421875 8.296875 
L 53.421875 0 
L 13.1875 0 
z
" id="DejaVuSansMono-49"/>
       </defs>
       <use xlink:href="#DejaVuSansMono-49"/>
       <use x="60.205078" xlink:href="#DejaVuSansMono-48"/>
       <use x="120.410156" xlink:href="#DejaVuSansMono-48"/>
      </g>
     </g>
    </g>
    <g id="xtick_3">
     <g id="line2d_3">
      <g>
       <use style="stroke:#000000;stroke-width:0.8;" x="190.986806" xlink:href="#m29c9661b8d" y="316.4425"/>
      </g>
     </g>
     <g id="text_3">
      <!-- 200 -->
      <g transform="translate(185.568525 328.033437)scale(0.06 -0.06)">
       <defs>
        <path d="M 18.21875 8.296875 
L 51.703125 8.296875 
L 51.703125 0 
L 7.421875 0 
L 7.421875 8.296875 
Q 16.546875 17.921875 23.375 25.296875 
Q 30.21875 32.671875 32.8125 35.6875 
Q 37.703125 41.65625 39.40625 45.34375 
Q 41.109375 49.03125 41.109375 52.875 
Q 41.109375 58.984375 37.515625 62.453125 
Q 33.9375 65.921875 27.6875 65.921875 
Q 23.25 65.921875 18.359375 64.3125 
Q 13.484375 62.703125 8.015625 59.421875 
L 8.015625 69.390625 
Q 13.03125 71.78125 17.890625 73 
Q 22.75 74.21875 27.484375 74.21875 
Q 38.1875 74.21875 44.703125 68.53125 
Q 51.21875 62.84375 51.21875 53.609375 
Q 51.21875 48.921875 49.046875 44.234375 
Q 46.875 39.546875 42 33.890625 
Q 39.265625 30.71875 34.0625 25.09375 
Q 28.859375 19.484375 18.21875 8.296875 
z
" id="DejaVuSansMono-50"/>
       </defs>
       <use xlink:href="#DejaVuSansMono-50"/>
       <use x="60.205078" xlink:href="#DejaVuSansMono-48"/>
       <use x="120.410156" xlink:href="#DejaVuSansMono-48"/>
      </g>
     </g>
    </g>
    <g id="xtick_4">
     <g id="line2d_4">
      <g>
       <use style="stroke:#000000;stroke-width:0.8;" x="259.040352" xlink:href="#m29c9661b8d" y="316.4425"/>
      </g>
     </g>
     <g id="text_4">
      <!-- 300 -->
      <g transform="translate(253.622071 328.033437)scale(0.06 -0.06)">
       <defs>
        <path d="M 37.890625 39.015625 
Q 45.0625 37.109375 48.875 32.25 
Q 52.6875 27.390625 52.6875 20.125 
Q 52.6875 10.0625 45.921875 4.3125 
Q 39.15625 -1.421875 27.203125 -1.421875 
Q 22.171875 -1.421875 16.9375 -0.484375 
Q 11.71875 0.4375 6.6875 2.203125 
L 6.6875 12.015625 
Q 11.671875 9.421875 16.5 8.15625 
Q 21.34375 6.890625 26.125 6.890625 
Q 34.234375 6.890625 38.578125 10.546875 
Q 42.921875 14.203125 42.921875 21.09375 
Q 42.921875 27.4375 38.578125 31.171875 
Q 34.234375 34.90625 26.8125 34.90625 
L 19.28125 34.90625 
L 19.28125 43.015625 
L 26.8125 43.015625 
Q 33.59375 43.015625 37.40625 45.984375 
Q 41.21875 48.96875 41.21875 54.296875 
Q 41.21875 59.90625 37.671875 62.90625 
Q 34.125 65.921875 27.59375 65.921875 
Q 23.25 65.921875 18.609375 64.9375 
Q 13.96875 63.96875 8.890625 62.015625 
L 8.890625 71.09375 
Q 14.796875 72.65625 19.40625 73.4375 
Q 24.03125 74.21875 27.59375 74.21875 
Q 38.234375 74.21875 44.609375 68.875 
Q 50.984375 63.53125 50.984375 54.6875 
Q 50.984375 48.6875 47.625 44.671875 
Q 44.28125 40.671875 37.890625 39.015625 
z
" id="DejaVuSansMono-51"/>
       </defs>
       <use xlink:href="#DejaVuSansMono-51"/>
       <use x="60.205078" xlink:href="#DejaVuSansMono-48"/>
       <use x="120.410156" xlink:href="#DejaVuSansMono-48"/>
      </g>
     </g>
    </g>
    <g id="xtick_5">
     <g id="line2d_5">
      <g>
       <use style="stroke:#000000;stroke-width:0.8;" x="327.093897" xlink:href="#m29c9661b8d" y="316.4425"/>
      </g>
     </g>
     <g id="text_5">
      <!-- 400 -->
      <g transform="translate(321.675616 328.033437)scale(0.06 -0.06)">
       <defs>
        <path d="M 35.890625 63.921875 
L 12.890625 25.390625 
L 35.890625 25.390625 
z
M 34.28125 72.90625 
L 45.703125 72.90625 
L 45.703125 25.390625 
L 55.421875 25.390625 
L 55.421875 17.390625 
L 45.703125 17.390625 
L 45.703125 0 
L 35.890625 0 
L 35.890625 17.390625 
L 4.984375 17.390625 
L 4.984375 26.703125 
z
" id="DejaVuSansMono-52"/>
       </defs>
       <use xlink:href="#DejaVuSansMono-52"/>
       <use x="60.205078" xlink:href="#DejaVuSansMono-48"/>
       <use x="120.410156" xlink:href="#DejaVuSansMono-48"/>
      </g>
     </g>
    </g>
    <g id="xtick_6">
     <g id="line2d_6">
      <g>
       <use style="stroke:#000000;stroke-width:0.8;" x="395.147442" xlink:href="#m29c9661b8d" y="316.4425"/>
      </g>
     </g>
     <g id="text_6">
      <!-- 500 -->
      <g transform="translate(389.729161 328.033437)scale(0.06 -0.06)">
       <defs>
        <path d="M 10.109375 72.90625 
L 47.015625 72.90625 
L 47.015625 64.59375 
L 19.09375 64.59375 
L 19.09375 46.6875 
Q 21.1875 47.46875 23.3125 47.828125 
Q 25.4375 48.1875 27.59375 48.1875 
Q 38.921875 48.1875 45.5625 41.5 
Q 52.203125 34.8125 52.203125 23.390625 
Q 52.203125 11.859375 45.234375 5.21875 
Q 38.28125 -1.421875 26.21875 -1.421875 
Q 20.40625 -1.421875 15.59375 -0.640625 
Q 10.796875 0.140625 6.984375 1.703125 
L 6.984375 11.71875 
Q 11.46875 9.28125 16.015625 8.078125 
Q 20.5625 6.890625 25.296875 6.890625 
Q 33.453125 6.890625 37.859375 11.1875 
Q 42.28125 15.484375 42.28125 23.390625 
Q 42.28125 31.203125 37.71875 35.546875 
Q 33.15625 39.890625 25 39.890625 
Q 21.046875 39.890625 17.28125 38.984375 
Q 13.53125 38.09375 10.109375 36.28125 
z
" id="DejaVuSansMono-53"/>
       </defs>
       <use xlink:href="#DejaVuSansMono-53"/>
       <use x="60.205078" xlink:href="#DejaVuSansMono-48"/>
       <use x="120.410156" xlink:href="#DejaVuSansMono-48"/>
      </g>
     </g>
    </g>
    <g id="text_7">
     <!-- n -->
     <g transform="translate(243.283281 337.872187)scale(0.06 -0.06)">
      <defs>
       <path d="M 51.3125 33.890625 
L 51.3125 0 
L 42.28125 0 
L 42.28125 33.890625 
Q 42.28125 41.265625 39.6875 44.71875 
Q 37.109375 48.1875 31.59375 48.1875 
Q 25.296875 48.1875 21.890625 43.71875 
Q 18.5 39.265625 18.5 30.90625 
L 18.5 0 
L 9.515625 0 
L 9.515625 54.6875 
L 18.5 54.6875 
L 18.5 46.484375 
Q 20.90625 51.171875 25 53.578125 
Q 29.109375 56 34.71875 56 
Q 43.0625 56 47.1875 50.5 
Q 51.3125 45.015625 51.3125 33.890625 
z
" id="DejaVuSansMono-110"/>
      </defs>
      <use xlink:href="#DejaVuSansMono-110"/>
     </g>
    </g>
   </g>
   <g id="matplotlib.axis_2">
    <g id="ytick_1">
     <g id="line2d_7">
      <defs>
       <path d="M 0 0 
L -3.5 0 
" id="m9b6ad68ada" style="stroke:#000000;stroke-width:0.8;"/>
      </defs>
      <g>
       <use style="stroke:#000000;stroke-width:0.8;" x="35.85875" xlink:href="#m9b6ad68ada" y="278.822716"/>
      </g>
     </g>
     <g id="text_8">
      <!-- $\mathdefault{10^{1}}$ -->
      <g transform="translate(18.83875 281.118185)scale(0.06 -0.06)">
       <use transform="translate(0 0.684375)" xlink:href="#DejaVuSansMono-49"/>
       <use transform="translate(60.205078 0.684375)" xlink:href="#DejaVuSansMono-48"/>
       <use transform="translate(121.367188 38.965625)scale(0.7)" xlink:href="#DejaVuSansMono-49"/>
      </g>
     </g>
    </g>
    <g id="ytick_2">
     <g id="line2d_8">
      <g>
       <use style="stroke:#000000;stroke-width:0.8;" x="35.85875" xlink:href="#m9b6ad68ada" y="230.715273"/>
      </g>
     </g>
     <g id="text_9">
      <!-- $\mathdefault{10^{3}}$ -->
      <g transform="translate(18.83875 233.010741)scale(0.06 -0.06)">
       <use transform="translate(0 0.765625)" xlink:href="#DejaVuSansMono-49"/>
       <use transform="translate(60.205078 0.765625)" xlink:href="#DejaVuSansMono-48"/>
       <use transform="translate(121.367188 39.046875)scale(0.7)" xlink:href="#DejaVuSansMono-51"/>
      </g>
     </g>
    </g>
    <g id="ytick_3">
     <g id="line2d_9">
      <g>
       <use style="stroke:#000000;stroke-width:0.8;" x="35.85875" xlink:href="#m9b6ad68ada" y="182.607829"/>
      </g>
     </g>
     <g id="text_10">
      <!-- $\mathdefault{10^{5}}$ -->
      <g transform="translate(18.83875 184.903298)scale(0.06 -0.06)">
       <use transform="translate(0 0.684375)" xlink:href="#DejaVuSansMono-49"/>
       <use transform="translate(60.205078 0.684375)" xlink:href="#DejaVuSansMono-48"/>
       <use transform="translate(121.367188 38.965625)scale(0.7)" xlink:href="#DejaVuSansMono-53"/>
      </g>
     </g>
    </g>
    <g id="ytick_4">
     <g id="line2d_10">
      <g>
       <use style="stroke:#000000;stroke-width:0.8;" x="35.85875" xlink:href="#m9b6ad68ada" y="134.500386"/>
      </g>
     </g>
     <g id="text_11">
      <!-- $\mathdefault{10^{7}}$ -->
      <g transform="translate(18.83875 136.795855)scale(0.06 -0.06)">
       <defs>
        <path d="M 6.78125 72.90625 
L 52.6875 72.90625 
L 52.6875 68.703125 
L 26.609375 0 
L 16.3125 0 
L 41.703125 64.59375 
L 6.78125 64.59375 
z
" id="DejaVuSansMono-55"/>
       </defs>
       <use transform="translate(0 0.684375)" xlink:href="#DejaVuSansMono-49"/>
       <use transform="translate(60.205078 0.684375)" xlink:href="#DejaVuSansMono-48"/>
       <use transform="translate(121.367188 38.965625)scale(0.7)" xlink:href="#DejaVuSansMono-55"/>
      </g>
     </g>
    </g>
    <g id="ytick_5">
     <g id="line2d_11">
      <g>
       <use style="stroke:#000000;stroke-width:0.8;" x="35.85875" xlink:href="#m9b6ad68ada" y="86.392943"/>
      </g>
     </g>
     <g id="text_12">
      <!-- $\mathdefault{10^{9}}$ -->
      <g transform="translate(18.83875 88.688412)scale(0.06 -0.06)">
       <defs>
        <path d="M 29.109375 32.328125 
Q 35.40625 32.328125 38.984375 36.859375 
Q 42.578125 41.40625 42.578125 49.421875 
Q 42.578125 57.421875 38.984375 61.953125 
Q 35.40625 66.5 29.109375 66.5 
Q 22.5625 66.5 19.234375 62.171875 
Q 15.921875 57.859375 15.921875 49.421875 
Q 15.921875 40.921875 19.21875 36.625 
Q 22.515625 32.328125 29.109375 32.328125 
z
M 11.53125 1.515625 
L 11.53125 10.59375 
Q 14.59375 8.796875 18.0625 7.84375 
Q 21.53125 6.890625 25.296875 6.890625 
Q 34.671875 6.890625 39.46875 13.9375 
Q 44.28125 21 44.28125 34.71875 
Q 42 29.828125 37.84375 27.21875 
Q 33.6875 24.609375 28.328125 24.609375 
Q 17.78125 24.609375 11.984375 31.09375 
Q 6.203125 37.59375 6.203125 49.515625 
Q 6.203125 61.28125 12.125 67.75 
Q 18.0625 74.21875 28.90625 74.21875 
Q 41.609375 74.21875 47.515625 65.078125 
Q 53.421875 55.953125 53.421875 36.375 
Q 53.421875 17.96875 46.3125 8.265625 
Q 39.203125 -1.421875 25.6875 -1.421875 
Q 22.125 -1.421875 18.5 -0.65625 
Q 14.890625 0.09375 11.53125 1.515625 
z
" id="DejaVuSansMono-57"/>
       </defs>
       <use transform="translate(0 0.765625)" xlink:href="#DejaVuSansMono-49"/>
       <use transform="translate(60.205078 0.765625)" xlink:href="#DejaVuSansMono-48"/>
       <use transform="translate(121.367188 39.046875)scale(0.7)" xlink:href="#DejaVuSansMono-57"/>
      </g>
     </g>
    </g>
    <g id="ytick_6">
     <g id="line2d_12">
      <g>
       <use style="stroke:#000000;stroke-width:0.8;" x="35.85875" xlink:href="#m9b6ad68ada" y="38.2855"/>
      </g>
     </g>
     <g id="text_13">
      <!-- $\mathdefault{10^{11}}$ -->
      <g transform="translate(16.31875 40.580969)scale(0.06 -0.06)">
       <use transform="translate(0 0.684375)" xlink:href="#DejaVuSansMono-49"/>
       <use transform="translate(60.205078 0.684375)" xlink:href="#DejaVuSansMono-48"/>
       <use transform="translate(121.367188 38.965625)scale(0.7)" xlink:href="#DejaVuSansMono-49"/>
       <use transform="translate(163.510742 38.965625)scale(0.7)" xlink:href="#DejaVuSansMono-49"/>
      </g>
     </g>
    </g>
    <g id="text_14">
     <!-- y_n -->
     <g transform="translate(10.904063 172.634094)rotate(-90)scale(0.06 -0.06)">
      <defs>
       <path d="M 41.890625 17.578125 
Q 39.65625 11.859375 36.1875 2.546875 
Q 31.34375 -10.359375 29.6875 -13.1875 
Q 27.4375 -17 24.0625 -18.890625 
Q 20.703125 -20.796875 16.21875 -20.796875 
L 8.984375 -20.796875 
L 8.984375 -13.28125 
L 14.3125 -13.28125 
Q 18.265625 -13.28125 20.5 -10.984375 
Q 22.75 -8.6875 26.21875 0.875 
L 5.078125 54.6875 
L 14.59375 54.6875 
L 30.8125 11.921875 
L 46.78125 54.6875 
L 56.296875 54.6875 
z
" id="DejaVuSansMono-121"/>
       <path d="M 60.203125 -19.671875 
L 60.203125 -23.578125 
L 0 -23.578125 
L 0 -19.671875 
z
" id="DejaVuSansMono-95"/>
      </defs>
      <use xlink:href="#DejaVuSansMono-121"/>
      <use x="60.205078" xlink:href="#DejaVuSansMono-95"/>
      <use x="120.410156" xlink:href="#DejaVuSansMono-110"/>
     </g>
    </g>
   </g>
   <g id="line2d_13">
    <path clip-path="url(#p64e23d1da6)" d="M 54.879716 148.400377 
L 55.560251 136.923834 
L 56.240787 144.164725 
L 56.921322 132.688183 
L 57.601858 139.929074 
L 58.282393 128.452532 
L 58.962929 135.693424 
L 59.643464 124.216882 
L 61.004535 138.698665 
L 61.68507 127.222123 
L 62.365606 134.463014 
L 63.046141 122.986472 
L 63.726677 130.227364 
L 64.407212 118.750822 
L 65.087748 125.991713 
L 65.768283 114.515171 
L 66.448819 121.756063 
L 67.129354 110.279521 
L 67.80989 117.520413 
L 68.490425 106.043871 
L 69.17096 113.284763 
L 69.851496 101.808221 
L 70.532031 109.049113 
L 71.212567 97.572571 
L 72.573638 112.054354 
L 73.254173 100.577812 
L 73.934709 107.818704 
L 74.615244 96.342162 
L 75.976315 110.823946 
L 76.65685 99.347404 
L 77.337386 106.588295 
L 78.017921 95.111754 
L 80.059528 116.834429 
L 80.740063 105.357887 
L 82.101134 119.83967 
L 82.781669 108.363128 
L 83.462205 115.60402 
L 84.14274 104.127478 
L 84.823276 111.36837 
L 85.503811 99.891828 
L 86.864882 114.373611 
L 87.545418 102.897069 
L 88.225953 110.137961 
L 88.906489 98.661419 
L 89.587024 105.902311 
L 90.267559 94.425769 
L 90.948095 101.666661 
L 91.62863 90.190119 
L 92.309166 97.431011 
L 92.989701 85.954469 
L 94.350772 100.436252 
L 95.031308 88.95971 
L 97.072914 110.682386 
L 97.753449 99.205844 
L 98.433985 106.446735 
L 99.11452 94.970194 
L 101.156127 116.692869 
L 101.836662 105.216327 
L 102.517198 112.457219 
L 103.197733 100.980677 
L 103.878269 108.221568 
L 104.558804 96.745027 
L 105.239339 103.985918 
L 105.919875 92.509376 
L 106.60041 99.750268 
L 107.280946 88.273726 
L 107.961481 95.514618 
L 108.642017 84.038076 
L 109.322552 91.278968 
L 110.003088 79.802426 
L 110.683623 87.043318 
L 111.364159 75.566776 
L 112.044694 82.807668 
L 112.725229 71.331126 
L 113.405765 78.572017 
L 114.0863 67.095476 
L 114.766836 74.336367 
L 115.447371 62.859825 
L 116.808442 77.341609 
L 117.488978 65.865067 
L 118.169513 73.105959 
L 118.850048 61.629417 
L 121.57219 90.592984 
L 122.252726 79.116442 
L 122.933261 86.357334 
L 123.613797 74.880792 
L 124.294332 82.121684 
L 124.974868 70.645142 
L 125.655403 77.886033 
L 126.335938 66.409492 
L 128.377545 88.132167 
L 129.05808 76.655625 
L 129.738616 83.896517 
L 130.419151 72.419975 
L 131.099687 79.660866 
L 131.780222 68.184325 
L 132.460758 75.425216 
L 133.141293 63.948674 
L 135.863435 92.912241 
L 136.54397 81.4357 
L 137.224506 88.676591 
L 137.905041 77.200049 
L 139.266112 91.681833 
L 139.946648 80.205291 
L 140.627183 87.446183 
L 141.307718 75.969641 
L 142.668789 90.451424 
L 143.349325 78.974882 
L 144.710396 93.456666 
L 145.390931 81.980124 
L 146.071467 89.221016 
L 146.752002 77.744474 
L 148.113073 92.226257 
L 148.793608 80.749715 
L 149.474144 87.990607 
L 150.154679 76.514065 
L 150.835215 83.754957 
L 151.51575 72.278415 
L 152.196286 79.519307 
L 152.876821 68.042765 
L 153.557357 75.283657 
L 154.237892 63.807115 
L 155.598963 78.288898 
L 156.279498 66.812357 
L 156.960034 74.053248 
L 157.640569 62.576706 
L 158.321105 69.817598 
L 159.00164 58.341056 
L 159.682176 65.581948 
L 160.362711 54.105406 
L 161.043247 61.346298 
L 161.723782 49.869756 
L 163.765388 71.592431 
L 164.445924 60.115889 
L 165.806995 74.597673 
L 166.48753 63.121131 
L 167.168066 70.362023 
L 167.848601 58.885481 
L 168.529137 66.126373 
L 169.209672 54.649831 
L 169.890207 61.890722 
L 170.570743 50.414181 
L 171.251278 57.655072 
L 171.931814 46.17853 
L 175.334491 82.382989 
L 176.015027 70.906447 
L 176.695562 78.147339 
L 177.376097 66.670797 
L 178.056633 73.911689 
L 178.737168 62.435147 
L 179.417704 69.676039 
L 180.098239 58.199497 
L 180.778775 65.440388 
L 181.45931 53.963847 
L 182.139846 61.204738 
L 182.820381 49.728197 
L 183.500917 56.969088 
L 184.181452 45.492546 
L 184.861987 52.733438 
L 185.542523 41.256896 
L 186.223058 48.497788 
L 186.903594 37.021246 
L 187.584129 44.262138 
L 188.264665 32.785596 
L 189.625736 47.267379 
L 190.306271 35.790838 
L 190.986806 43.031729 
L 191.667342 31.555187 
L 193.028413 46.036971 
L 193.708948 34.560429 
L 195.750555 56.283104 
L 196.43109 44.806562 
L 197.111626 52.047454 
L 197.792161 40.570912 
L 198.472696 47.811804 
L 199.153232 36.335262 
L 199.833767 43.576154 
L 200.514303 32.099612 
L 201.875374 46.581395 
L 202.555909 35.104854 
L 204.597516 56.827529 
L 205.278051 45.350987 
L 205.958586 52.591879 
L 206.639122 41.115337 
L 209.361264 70.078904 
L 210.041799 58.602362 
L 210.722335 65.843254 
L 211.40287 54.366712 
L 215.486083 97.812062 
L 216.166618 86.33552 
L 217.527689 100.817304 
L 218.208225 89.340762 
L 218.88876 96.581653 
L 219.569296 85.105112 
L 220.930366 99.586895 
L 221.610902 88.110353 
L 222.291437 95.351245 
L 222.971973 83.874703 
L 223.652508 91.115595 
L 224.333044 79.639053 
L 225.694115 94.120836 
L 226.37465 82.644294 
L 229.096792 111.607861 
L 229.777327 100.131319 
L 230.457863 107.372211 
L 231.138398 95.895669 
L 232.499469 110.377453 
L 233.180005 98.900911 
L 233.86054 106.141803 
L 234.541075 94.665261 
L 235.221611 101.906152 
L 235.902146 90.429611 
L 237.263217 104.911394 
L 237.943753 93.434852 
L 238.624288 100.675744 
L 239.304824 89.199202 
L 240.665895 103.680985 
L 241.34643 92.204444 
L 243.388036 113.927119 
L 244.068572 102.450577 
L 244.749107 109.691469 
L 245.429643 98.214927 
L 246.110178 105.455818 
L 246.790714 93.979276 
L 248.151785 108.46106 
L 248.83232 96.984518 
L 250.873926 118.707193 
L 251.554462 107.230651 
L 253.596068 128.953326 
L 254.276604 117.476784 
L 258.359816 160.922135 
L 259.040352 149.445588 
L 262.443029 185.650047 
L 263.123565 174.173459 
L 263.8041 181.41435 
L 264.484635 169.937777 
L 265.165171 177.178669 
L 265.845706 165.702107 
L 266.526242 172.942998 
L 267.206777 161.466443 
L 268.567848 175.948226 
L 269.248384 164.471666 
L 269.928919 171.712558 
L 270.609454 160.236003 
L 271.28999 167.476895 
L 271.970525 156.000345 
L 274.012132 177.72302 
L 274.692667 166.246457 
L 276.053738 180.72824 
L 276.734274 169.251669 
L 278.095344 183.733453 
L 278.77588 172.256872 
L 280.136951 186.738655 
L 280.817486 175.262062 
L 281.498022 182.502953 
L 282.178557 171.026377 
L 283.539628 185.508161 
L 284.220164 174.031573 
L 286.26177 195.754248 
L 286.942305 184.277584 
L 288.303376 198.759367 
L 288.983912 187.282662 
L 289.664447 194.523553 
L 290.344983 183.046903 
L 291.706054 197.528686 
L 292.386589 186.051999 
L 293.067124 193.292891 
L 293.74766 181.816252 
L 297.150337 218.020711 
L 297.830873 206.543136 
L 298.511408 213.784028 
L 299.191944 202.306797 
L 300.553014 216.788581 
L 301.23355 205.311121 
L 302.594621 219.792904 
L 303.275156 208.315138 
L 305.316763 230.037814 
L 305.997298 218.558009 
L 306.677833 225.7989 
L 307.358369 214.320184 
L 308.71944 228.801967 
L 309.399975 217.322527 
L 310.761046 231.80431 
L 311.441582 220.323904 
L 314.163723 249.287471 
L 314.844259 237.790345 
L 316.20533 252.272128 
L 316.885865 240.768204 
L 317.566401 248.009096 
L 318.246936 236.514339 
L 318.927472 243.755231 
L 319.608007 232.266563 
L 320.288543 239.507455 
L 320.969078 228.022837 
L 321.649613 235.263728 
L 322.330149 223.781806 
L 323.010684 231.022698 
L 323.69122 219.54257 
L 324.371755 226.783462 
L 325.052291 215.304531 
L 326.413362 229.786314 
L 327.093897 218.306587 
L 329.816039 247.270154 
L 330.496574 235.77664 
L 332.538181 257.499315 
L 333.218716 245.977648 
L 335.260323 267.700323 
L 335.940858 256.104393 
L 337.982464 277.827068 
L 338.663 266.03867 
L 339.343535 273.279562 
L 340.024071 261.600171 
L 341.385142 276.081954 
L 342.065677 264.340932 
L 344.107283 286.063608 
L 344.787819 273.912871 
L 347.509961 302.876437 
L 347.509961 302.876437 
" style="fill:none;stroke:#1f77b4;stroke-linecap:square;stroke-width:0.666667;"/>
   </g>
   <g id="line2d_14">
    <path clip-path="url(#p64e23d1da6)" d="M 54.879716 149.862181 
L 55.560251 138.385638 
L 56.921322 152.867421 
L 57.601858 141.390878 
L 58.282393 148.631769 
L 58.962929 137.155226 
L 59.643464 144.396118 
L 60.324 132.919575 
L 61.004535 140.160467 
L 61.68507 128.683924 
L 62.365606 135.924816 
L 63.046141 124.448274 
L 63.726677 131.689165 
L 64.407212 120.212623 
L 65.087748 127.453515 
L 65.768283 115.976973 
L 67.129354 130.458757 
L 67.80989 118.982214 
L 69.17096 133.463998 
L 69.851496 121.987456 
L 70.532031 129.228347 
L 71.212567 117.751805 
L 71.893102 124.992697 
L 72.573638 113.516155 
L 73.934709 127.997939 
L 74.615244 116.521397 
L 75.295779 123.762288 
L 75.976315 112.285746 
L 77.337386 126.76753 
L 78.017921 115.290988 
L 78.698457 122.531879 
L 79.378992 111.055337 
L 80.059528 118.296229 
L 80.740063 106.819687 
L 81.420599 114.060579 
L 82.101134 102.584037 
L 82.781669 109.824929 
L 83.462205 98.348387 
L 84.14274 105.589279 
L 84.823276 94.112737 
L 87.545418 123.076304 
L 88.225953 111.599762 
L 90.267559 133.322437 
L 90.948095 121.845895 
L 91.62863 129.086786 
L 92.309166 117.610244 
L 92.989701 124.851136 
L 93.670237 113.374594 
L 94.350772 120.615486 
L 95.031308 109.138944 
L 96.392379 123.620727 
L 97.072914 112.144185 
L 98.433985 126.625969 
L 99.11452 115.149427 
L 100.475591 129.63121 
L 101.156127 118.154668 
L 101.836662 125.39556 
L 102.517198 113.919018 
L 103.197733 121.15991 
L 103.878269 109.683368 
L 105.239339 124.165151 
L 105.919875 112.688609 
L 106.60041 119.929501 
L 107.280946 108.452959 
L 109.322552 130.175634 
L 110.003088 118.699092 
L 111.364159 133.180875 
L 112.044694 121.704333 
L 112.725229 128.945225 
L 113.405765 117.468683 
L 114.0863 124.709575 
L 114.766836 113.233033 
L 115.447371 120.473924 
L 116.127907 108.997382 
L 116.808442 116.238274 
L 117.488978 104.761732 
L 118.169513 112.002624 
L 118.850048 100.526082 
L 120.211119 115.007866 
L 120.891655 103.531324 
L 121.57219 110.772215 
L 122.252726 99.295673 
L 122.933261 106.536565 
L 123.613797 95.060023 
L 125.655403 116.782698 
L 126.335938 105.306157 
L 127.016474 112.547048 
L 127.697009 101.070506 
L 128.377545 108.311398 
L 129.05808 96.834856 
L 129.738616 104.075748 
L 130.419151 92.599206 
L 131.099687 99.840098 
L 131.780222 88.363556 
L 133.141293 102.845339 
L 133.821828 91.368798 
L 134.502364 98.609689 
L 135.182899 87.133147 
L 135.863435 94.374039 
L 136.54397 82.897497 
L 137.224506 90.138389 
L 137.905041 78.661847 
L 138.585577 85.902739 
L 139.266112 74.426197 
L 139.946648 81.667089 
L 140.627183 70.190547 
L 141.307718 77.431439 
L 141.988254 65.954897 
L 142.668789 73.195788 
L 143.349325 61.719247 
L 144.02986 68.960138 
L 144.710396 57.483597 
L 145.390931 64.724488 
L 146.071467 53.247946 
L 150.154679 96.693297 
L 150.835215 85.216755 
L 152.196286 99.698538 
L 152.876821 88.221996 
L 153.557357 95.462888 
L 154.237892 83.986346 
L 154.918427 91.227238 
L 155.598963 79.750696 
L 156.279498 86.991588 
L 156.960034 75.515046 
L 159.00164 97.237721 
L 159.682176 85.761179 
L 161.043247 100.242963 
L 161.723782 88.766421 
L 162.404317 96.007313 
L 163.084853 84.530771 
L 163.765388 91.771662 
L 164.445924 80.295121 
L 165.126459 87.536012 
L 165.806995 76.05947 
L 167.168066 90.541254 
L 167.848601 79.064712 
L 169.209672 93.546495 
L 169.890207 82.069954 
L 170.570743 89.310845 
L 171.251278 77.834304 
L 173.292885 99.556979 
L 173.97342 88.080437 
L 175.334491 102.56222 
L 176.015027 91.085678 
L 176.695562 98.32657 
L 177.376097 86.850028 
L 178.056633 94.09092 
L 178.737168 82.614378 
L 179.417704 89.85527 
L 180.098239 78.378728 
L 180.778775 85.61962 
L 181.45931 74.143078 
L 182.139846 81.38397 
L 182.820381 69.907428 
L 183.500917 77.148319 
L 184.181452 65.671778 
L 185.542523 80.153561 
L 186.223058 68.677019 
L 187.584129 83.158803 
L 188.264665 71.682261 
L 188.9452 78.923152 
L 189.625736 67.446611 
L 190.306271 74.687502 
L 190.986806 63.210961 
L 191.667342 70.451852 
L 192.347877 58.97531 
L 193.028413 66.216202 
L 193.708948 54.73966 
L 194.389484 61.980552 
L 195.070019 50.50401 
L 195.750555 57.744902 
L 196.43109 46.26836 
L 197.792161 60.750143 
L 198.472696 49.273602 
L 199.833767 63.755385 
L 200.514303 52.278843 
L 203.236445 81.24241 
L 203.91698 69.765868 
L 210.722335 142.174785 
L 211.40287 130.698243 
L 212.083406 137.939134 
L 212.763941 126.462592 
L 214.805547 148.185267 
L 215.486083 136.708724 
L 216.166618 143.949616 
L 216.847154 132.473073 
L 217.527689 139.713965 
L 218.208225 128.237423 
L 218.88876 135.478314 
L 219.569296 124.001772 
L 220.249831 131.242664 
L 220.930366 119.766122 
L 221.610902 127.007013 
L 222.291437 115.530471 
L 223.652508 130.012255 
L 224.333044 118.535713 
L 225.013579 125.776604 
L 225.694115 114.300062 
L 227.055185 128.781846 
L 227.735721 117.305304 
L 229.096792 131.787087 
L 229.777327 120.310545 
L 231.818934 142.03322 
L 232.499469 130.556678 
L 233.86054 145.038461 
L 234.541075 133.561918 
L 235.221611 140.80281 
L 235.902146 129.326268 
L 237.263217 143.808051 
L 237.943753 132.331508 
L 238.624288 139.5724 
L 239.304824 128.095858 
L 241.34643 149.818533 
L 242.026965 138.341989 
L 242.707501 145.582881 
L 243.388036 134.106338 
L 244.068572 141.34723 
L 244.749107 129.870688 
L 245.429643 137.111579 
L 246.110178 125.635037 
L 246.790714 132.875929 
L 247.471249 121.399387 
L 248.151785 128.640278 
L 248.83232 117.163736 
L 252.234997 153.368195 
L 252.915533 141.891651 
L 253.596068 149.132543 
L 254.276604 137.655999 
L 254.957139 144.896891 
L 255.637675 133.420348 
L 256.31821 140.66124 
L 256.998745 129.184697 
L 257.679281 136.425589 
L 258.359816 124.949047 
L 261.762494 161.153505 
L 262.443029 149.676959 
L 263.123565 156.917851 
L 263.8041 145.441306 
L 264.484635 152.682198 
L 265.165171 141.205654 
L 265.845706 148.446546 
L 266.526242 136.970003 
L 267.206777 144.210894 
L 267.887313 132.734351 
L 268.567848 139.975243 
L 269.248384 128.498701 
L 270.609454 142.980484 
L 271.28999 131.503942 
L 271.970525 138.744833 
L 272.651061 127.268291 
L 273.331596 134.509183 
L 274.012132 123.03264 
L 274.692667 130.273532 
L 275.373203 118.79699 
L 276.053738 126.037882 
L 276.734274 114.56134 
L 277.414809 121.802232 
L 278.095344 110.32569 
L 278.77588 117.566581 
L 279.456415 106.090039 
L 280.817486 120.571823 
L 281.498022 109.095281 
L 282.178557 116.336173 
L 282.859093 104.859631 
L 284.220164 119.341414 
L 284.900699 107.864872 
L 285.581234 115.105764 
L 286.26177 103.629222 
L 286.942305 110.870114 
L 287.622841 99.393572 
L 288.303376 106.634464 
L 288.983912 95.157922 
L 290.344983 109.639705 
L 291.025518 98.163163 
L 291.706054 105.404055 
L 292.386589 93.927513 
L 293.74766 108.409297 
L 294.428195 96.932755 
L 295.789266 111.414538 
L 296.469802 99.937996 
L 297.150337 107.178888 
L 297.830873 95.702346 
L 298.511408 102.943238 
L 299.191944 91.466696 
L 299.872479 98.707588 
L 300.553014 87.231046 
L 306.677833 152.399071 
L 307.358369 140.922527 
L 310.761046 177.126986 
L 311.441582 165.650424 
L 313.483188 187.373099 
L 314.163723 175.896502 
L 314.844259 183.137394 
L 315.524794 171.660815 
L 316.885865 186.142599 
L 317.566401 174.666008 
L 319.608007 196.388683 
L 320.288543 184.912011 
L 320.969078 192.152903 
L 321.649613 180.676274 
L 322.330149 187.917166 
L 323.010684 176.440566 
L 323.69122 183.681458 
L 324.371755 172.204877 
L 325.732826 186.686661 
L 326.413362 175.210067 
L 327.093897 182.450959 
L 327.774433 170.974383 
L 329.135503 185.456166 
L 329.816039 173.979579 
L 330.496574 181.220471 
L 331.17711 169.743898 
L 331.857645 176.98479 
L 332.538181 165.508228 
L 333.899252 179.990011 
L 334.579787 168.513442 
L 335.260323 175.754334 
L 335.940858 164.277774 
L 336.621393 171.518666 
L 337.301929 160.042112 
L 337.982464 167.283004 
L 338.663 155.806454 
L 339.343535 163.047346 
L 340.024071 151.570798 
L 342.065677 173.293473 
L 342.746212 161.816917 
L 343.426748 169.057809 
L 344.107283 157.581258 
L 344.787819 164.822149 
L 345.468354 153.345601 
L 346.829425 167.827385 
L 347.509961 156.350834 
L 348.871032 170.832618 
L 349.551567 159.356065 
L 351.593173 181.07874 
L 352.273709 169.602168 
L 352.954244 176.84306 
L 353.63478 165.366498 
L 355.676386 187.089173 
L 356.356922 175.612578 
L 358.398528 197.335253 
L 359.079063 185.858568 
L 359.759599 193.09946 
L 360.440134 181.622823 
L 364.523347 225.068173 
L 365.203882 213.589604 
L 368.60656 249.794062 
L 369.287095 238.295915 
L 370.648166 252.777698 
L 371.328702 241.272418 
L 372.689772 255.754201 
L 373.370308 244.239464 
L 374.050843 251.480356 
L 374.731379 239.978428 
L 376.09245 254.460211 
L 376.772985 242.949917 
L 377.453521 250.190809 
L 378.134056 238.691826 
L 378.814591 245.932717 
L 379.495127 234.441241 
L 380.856198 248.923025 
L 381.536733 237.426604 
L 382.217269 244.667496 
L 382.897804 233.177722 
L 383.57834 240.418614 
L 384.258875 228.93326 
L 384.939411 236.174152 
L 385.619946 224.69174 
L 386.981017 239.173523 
L 387.661552 227.689159 
L 389.703159 249.411834 
L 390.383694 237.914462 
L 391.06423 245.155354 
L 391.744765 233.664948 
L 392.425301 240.90584 
L 393.105836 229.420066 
L 394.466907 243.901849 
L 395.147442 232.41301 
L 395.827978 239.653902 
L 396.508513 228.16917 
L 397.869584 242.650953 
L 398.55012 231.163502 
L 399.230655 238.404393 
L 399.911191 226.920584 
L 400.591726 234.161476 
L 401.272261 222.680092 
L 401.952797 229.920984 
L 402.633332 218.441216 
L 403.313868 225.682107 
L 403.994403 214.203415 
L 404.674939 221.444307 
L 405.355474 209.966331 
L 407.397081 231.689006 
L 408.077616 220.208643 
L 408.758151 227.449535 
L 409.438687 215.970446 
L 410.119222 223.211338 
L 410.799758 211.733098 
L 411.480293 218.97399 
L 412.160829 207.496316 
L 414.882971 236.459883 
L 415.563506 224.977308 
L 416.924577 239.459092 
L 417.605112 227.974511 
L 418.966183 242.456294 
L 419.646719 230.969044 
L 422.36886 259.932611 
L 423.049396 248.39914 
L 425.091002 270.121815 
L 425.771538 258.494963 
L 426.452073 265.735855 
L 427.132609 254.160294 
L 427.813144 261.401186 
L 428.49368 249.859149 
L 431.896357 286.063608 
L 432.576892 273.912871 
L 435.299034 302.876437 
L 435.299034 302.876437 
" style="fill:none;stroke:#ff7f0e;stroke-linecap:square;stroke-width:0.666667;"/>
   </g>
   <g id="patch_3">
    <path d="M 35.85875 316.4425 
L 35.85875 17.989125 
" style="fill:none;stroke:#000000;stroke-linecap:square;stroke-linejoin:miter;stroke-width:0.8;"/>
   </g>
   <g id="patch_4">
    <path d="M 454.32 316.4425 
L 454.32 17.989125 
" style="fill:none;stroke:#000000;stroke-linecap:square;stroke-linejoin:miter;stroke-width:0.8;"/>
   </g>
   <g id="patch_5">
    <path d="M 35.85875 316.4425 
L 454.32 316.4425 
" style="fill:none;stroke:#000000;stroke-linecap:square;stroke-linejoin:miter;stroke-width:0.8;"/>
   </g>
   <g id="patch_6">
    <path d="M 35.85875 17.989125 
L 454.32 17.989125 
" style="fill:none;stroke:#000000;stroke-linecap:square;stroke-linejoin:miter;stroke-width:0.8;"/>
   </g>
   <g id="text_15">
    <!-- "3y+1" problem -->
    <g transform="translate(214.747 11.989125)scale(0.072 -0.072)">
     <defs>
      <path d="M 43.703125 72.90625 
L 43.703125 45.796875 
L 35.203125 45.796875 
L 35.203125 72.90625 
z
M 25 72.90625 
L 25 45.796875 
L 16.5 45.796875 
L 16.5 72.90625 
z
" id="DejaVuSansMono-34"/>
      <path d="M 34.1875 57.171875 
L 34.1875 35.5 
L 55.90625 35.5 
L 55.90625 27.203125 
L 34.1875 27.203125 
L 34.1875 5.515625 
L 25.984375 5.515625 
L 25.984375 27.203125 
L 4.296875 27.203125 
L 4.296875 35.5 
L 25.984375 35.5 
L 25.984375 57.171875 
z
" id="DejaVuSansMono-43"/>
      <path id="DejaVuSansMono-32"/>
      <path d="M 18.3125 6.890625 
L 18.3125 -20.796875 
L 9.28125 -20.796875 
L 9.28125 54.6875 
L 18.3125 54.6875 
L 18.3125 47.703125 
Q 20.5625 51.765625 24.296875 53.875 
Q 28.03125 56 32.90625 56 
Q 42.828125 56 48.46875 48.328125 
Q 54.109375 40.671875 54.109375 27.09375 
Q 54.109375 13.765625 48.4375 6.171875 
Q 42.78125 -1.421875 32.90625 -1.421875 
Q 27.9375 -1.421875 24.1875 0.703125 
Q 20.453125 2.828125 18.3125 6.890625 
z
M 44.671875 27.296875 
Q 44.671875 37.75 41.375 43.0625 
Q 38.09375 48.390625 31.59375 48.390625 
Q 25.046875 48.390625 21.671875 43.046875 
Q 18.3125 37.703125 18.3125 27.296875 
Q 18.3125 16.9375 21.671875 11.5625 
Q 25.046875 6.203125 31.59375 6.203125 
Q 38.09375 6.203125 41.375 11.515625 
Q 44.671875 16.84375 44.671875 27.296875 
z
" id="DejaVuSansMono-112"/>
      <path d="M 56.390625 43.40625 
Q 53.515625 45.65625 50.53125 46.671875 
Q 47.5625 47.703125 44 47.703125 
Q 35.59375 47.703125 31.140625 42.421875 
Q 26.703125 37.15625 26.703125 27.203125 
L 26.703125 0 
L 17.671875 0 
L 17.671875 54.6875 
L 26.703125 54.6875 
L 26.703125 44 
Q 28.953125 49.8125 33.609375 52.90625 
Q 38.28125 56 44.671875 56 
Q 48 56 50.875 55.171875 
Q 53.765625 54.34375 56.390625 52.59375 
z
" id="DejaVuSansMono-114"/>
      <path d="M 30.078125 48.390625 
Q 23.25 48.390625 19.734375 43.0625 
Q 16.21875 37.75 16.21875 27.296875 
Q 16.21875 16.890625 19.734375 11.546875 
Q 23.25 6.203125 30.078125 6.203125 
Q 36.96875 6.203125 40.484375 11.546875 
Q 44 16.890625 44 27.296875 
Q 44 37.75 40.484375 43.0625 
Q 36.96875 48.390625 30.078125 48.390625 
z
M 30.078125 56 
Q 41.453125 56 47.484375 48.625 
Q 53.515625 41.265625 53.515625 27.296875 
Q 53.515625 13.28125 47.5 5.921875 
Q 41.5 -1.421875 30.078125 -1.421875 
Q 18.703125 -1.421875 12.6875 5.921875 
Q 6.6875 13.28125 6.6875 27.296875 
Q 6.6875 41.265625 12.6875 48.625 
Q 18.703125 56 30.078125 56 
z
" id="DejaVuSansMono-111"/>
      <path d="M 44.828125 27.296875 
Q 44.828125 37.75 41.5 43.0625 
Q 38.1875 48.390625 31.6875 48.390625 
Q 25.140625 48.390625 21.765625 43.046875 
Q 18.40625 37.703125 18.40625 27.296875 
Q 18.40625 16.9375 21.765625 11.5625 
Q 25.140625 6.203125 31.6875 6.203125 
Q 38.1875 6.203125 41.5 11.515625 
Q 44.828125 16.84375 44.828125 27.296875 
z
M 18.40625 47.703125 
Q 20.5625 51.703125 24.34375 53.84375 
Q 28.125 56 33.109375 56 
Q 42.96875 56 48.625 48.40625 
Q 54.296875 40.828125 54.296875 27.484375 
Q 54.296875 13.96875 48.609375 6.265625 
Q 42.921875 -1.421875 33.015625 -1.421875 
Q 28.125 -1.421875 24.390625 0.703125 
Q 20.65625 2.828125 18.40625 6.890625 
L 18.40625 0 
L 9.421875 0 
L 9.421875 75.984375 
L 18.40625 75.984375 
z
" id="DejaVuSansMono-98"/>
      <path d="M 31.203125 19.828125 
Q 31.203125 13.765625 33.421875 10.6875 
Q 35.640625 7.625 39.984375 7.625 
L 50.484375 7.625 
L 50.484375 0 
L 39.109375 0 
Q 31.0625 0 26.640625 5.171875 
Q 22.21875 10.359375 22.21875 19.828125 
L 22.21875 69.484375 
L 7.8125 69.484375 
L 7.8125 76.515625 
L 31.203125 76.515625 
z
" id="DejaVuSansMono-108"/>
      <path d="M 54.296875 29.59375 
L 54.296875 25.203125 
L 15.375 25.203125 
L 15.375 24.90625 
Q 15.375 15.96875 20.03125 11.078125 
Q 24.703125 6.203125 33.203125 6.203125 
Q 37.5 6.203125 42.1875 7.5625 
Q 46.875 8.9375 52.203125 11.71875 
L 52.203125 2.78125 
Q 47.078125 0.6875 42.3125 -0.359375 
Q 37.546875 -1.421875 33.109375 -1.421875 
Q 20.359375 -1.421875 13.171875 6.21875 
Q 6 13.875 6 27.296875 
Q 6 40.375 13.03125 48.1875 
Q 20.0625 56 31.78125 56 
Q 42.234375 56 48.265625 48.921875 
Q 54.296875 41.84375 54.296875 29.59375 
z
M 45.3125 32.234375 
Q 45.125 40.140625 41.578125 44.265625 
Q 38.03125 48.390625 31.390625 48.390625 
Q 24.90625 48.390625 20.703125 44.09375 
Q 16.5 39.796875 15.71875 32.171875 
z
" id="DejaVuSansMono-101"/>
      <path d="M 33.015625 49.125 
Q 34.671875 52.640625 37.234375 54.3125 
Q 39.796875 56 43.40625 56 
Q 50 56 52.703125 50.890625 
Q 55.421875 45.796875 55.421875 31.6875 
L 55.421875 0 
L 47.21875 0 
L 47.21875 31.296875 
Q 47.21875 42.875 45.921875 45.671875 
Q 44.625 48.484375 41.21875 48.484375 
Q 37.3125 48.484375 35.859375 45.484375 
Q 34.421875 42.484375 34.421875 31.296875 
L 34.421875 0 
L 26.21875 0 
L 26.21875 31.296875 
Q 26.21875 43.015625 24.828125 45.75 
Q 23.4375 48.484375 19.828125 48.484375 
Q 16.265625 48.484375 14.875 45.484375 
Q 13.484375 42.484375 13.484375 31.296875 
L 13.484375 0 
L 5.328125 0 
L 5.328125 54.6875 
L 13.484375 54.6875 
L 13.484375 50 
Q 15.09375 52.9375 17.5 54.46875 
Q 19.921875 56 23 56 
Q 26.703125 56 29.171875 54.296875 
Q 31.640625 52.59375 33.015625 49.125 
z
" id="DejaVuSansMono-109"/>
     </defs>
     <use xlink:href="#DejaVuSansMono-34"/>
     <use x="60.205078" xlink:href="#DejaVuSansMono-51"/>
     <use x="120.410156" xlink:href="#DejaVuSansMono-121"/>
     <use x="180.615234" xlink:href="#DejaVuSansMono-43"/>
     <use x="240.820312" xlink:href="#DejaVuSansMono-49"/>
     <use x="301.025391" xlink:href="#DejaVuSansMono-34"/>
     <use x="361.230469" xlink:href="#DejaVuSansMono-32"/>
     <use x="421.435547" xlink:href="#DejaVuSansMono-112"/>
     <use x="481.640625" xlink:href="#DejaVuSansMono-114"/>
     <use x="541.845703" xlink:href="#DejaVuSansMono-111"/>
     <use x="602.050781" xlink:href="#DejaVuSansMono-98"/>
     <use x="662.255859" xlink:href="#DejaVuSansMono-108"/>
     <use x="722.460938" xlink:href="#DejaVuSansMono-101"/>
     <use x="782.666016" xlink:href="#DejaVuSansMono-109"/>
    </g>
   </g>
   <g id="legend_1">
    <g id="patch_7">
     <path d="M 355.064062 82.0095 
L 450.12 82.0095 
Q 451.32 82.0095 451.32 80.8095 
L 451.32 22.189125 
Q 451.32 20.989125 450.12 20.989125 
L 355.064062 20.989125 
Q 353.864062 20.989125 353.864062 22.189125 
L 353.864062 80.8095 
Q 353.864062 82.0095 355.064062 82.0095 
z
" style="fill:#ffffff;opacity:0.8;stroke:#cccccc;stroke-linejoin:miter;"/>
    </g>
    <g id="line2d_15">
     <path d="M 356.264062 36.889687 
L 368.264062 36.889687 
" style="fill:none;stroke:#1f77b4;stroke-linecap:square;stroke-width:0.666667;"/>
    </g>
    <g id="line2d_16"/>
    <g id="text_16">
     <!-- "Tallest": -->
     <g transform="translate(373.064062 27.980062)scale(0.06 -0.06)">
      <defs>
       <path d="M 2.296875 72.90625 
L 57.90625 72.90625 
L 57.90625 64.59375 
L 35.109375 64.59375 
L 35.109375 0 
L 25.203125 0 
L 25.203125 64.59375 
L 2.296875 64.59375 
z
" id="DejaVuSansMono-84"/>
       <path d="M 34.28125 27.484375 
L 31.296875 27.484375 
Q 23.4375 27.484375 19.453125 24.71875 
Q 15.484375 21.96875 15.484375 16.5 
Q 15.484375 11.578125 18.453125 8.84375 
Q 21.4375 6.109375 26.703125 6.109375 
Q 34.125 6.109375 38.375 11.25 
Q 42.625 16.40625 42.671875 25.484375 
L 42.671875 27.484375 
z
M 51.703125 31.203125 
L 51.703125 0 
L 42.671875 0 
L 42.671875 8.109375 
Q 39.796875 3.21875 35.421875 0.890625 
Q 31.0625 -1.421875 24.8125 -1.421875 
Q 16.453125 -1.421875 11.46875 3.296875 
Q 6.5 8.015625 6.5 15.921875 
Q 6.5 25.046875 12.625 29.78125 
Q 18.75 34.515625 30.609375 34.515625 
L 42.671875 34.515625 
L 42.671875 35.9375 
Q 42.625 42.484375 39.34375 45.4375 
Q 36.078125 48.390625 28.90625 48.390625 
Q 24.3125 48.390625 19.625 47.0625 
Q 14.9375 45.75 10.5 43.21875 
L 10.5 52.203125 
Q 15.484375 54.109375 20.046875 55.046875 
Q 24.609375 56 28.90625 56 
Q 35.6875 56 40.5 54 
Q 45.3125 52 48.296875 48 
Q 50.140625 45.5625 50.921875 41.96875 
Q 51.703125 38.375 51.703125 31.203125 
z
" id="DejaVuSansMono-97"/>
       <path d="M 47.515625 52.78125 
L 47.515625 44 
Q 43.65625 46.234375 39.75 47.359375 
Q 35.84375 48.484375 31.78125 48.484375 
Q 25.6875 48.484375 22.671875 46.5 
Q 19.671875 44.53125 19.671875 40.484375 
Q 19.671875 36.8125 21.921875 35 
Q 24.171875 33.203125 33.109375 31.5 
L 36.71875 30.8125 
Q 43.40625 29.546875 46.84375 25.734375 
Q 50.296875 21.921875 50.296875 15.828125 
Q 50.296875 7.71875 44.53125 3.140625 
Q 38.765625 -1.421875 28.515625 -1.421875 
Q 24.46875 -1.421875 20.015625 -0.5625 
Q 15.578125 0.296875 10.40625 2 
L 10.40625 11.28125 
Q 15.4375 8.6875 20.015625 7.390625 
Q 24.609375 6.109375 28.71875 6.109375 
Q 34.671875 6.109375 37.9375 8.515625 
Q 41.21875 10.9375 41.21875 15.28125 
Q 41.21875 21.53125 29.25 23.921875 
L 28.859375 24.03125 
L 25.484375 24.703125 
Q 17.71875 26.21875 14.15625 29.8125 
Q 10.59375 33.40625 10.59375 39.59375 
Q 10.59375 47.46875 15.90625 51.734375 
Q 21.234375 56 31.109375 56 
Q 35.5 56 39.546875 55.1875 
Q 43.609375 54.390625 47.515625 52.78125 
z
" id="DejaVuSansMono-115"/>
       <path d="M 29.984375 70.21875 
L 29.984375 54.6875 
L 50.390625 54.6875 
L 50.390625 47.703125 
L 29.984375 47.703125 
L 29.984375 18.015625 
Q 29.984375 11.96875 32.28125 9.5625 
Q 34.578125 7.171875 40.28125 7.171875 
L 50.390625 7.171875 
L 50.390625 0 
L 39.40625 0 
Q 29.296875 0 25.140625 4.046875 
Q 21 8.109375 21 18.015625 
L 21 47.703125 
L 6.390625 47.703125 
L 6.390625 54.6875 
L 21 54.6875 
L 21 70.21875 
z
" id="DejaVuSansMono-116"/>
       <path d="M 23.875 51.90625 
L 36.1875 51.90625 
L 36.1875 37.109375 
L 23.875 37.109375 
z
M 23.875 14.890625 
L 36.1875 14.890625 
L 36.1875 0 
L 23.875 0 
z
" id="DejaVuSansMono-58"/>
      </defs>
      <use xlink:href="#DejaVuSansMono-34"/>
      <use x="60.205078" xlink:href="#DejaVuSansMono-84"/>
      <use x="120.410156" xlink:href="#DejaVuSansMono-97"/>
      <use x="180.615234" xlink:href="#DejaVuSansMono-108"/>
      <use x="240.820312" xlink:href="#DejaVuSansMono-108"/>
      <use x="301.025391" xlink:href="#DejaVuSansMono-101"/>
      <use x="361.230469" xlink:href="#DejaVuSansMono-115"/>
      <use x="421.435547" xlink:href="#DejaVuSansMono-116"/>
      <use x="481.640625" xlink:href="#DejaVuSansMono-34"/>
      <use x="541.845703" xlink:href="#DejaVuSansMono-58"/>
     </g>
     <!-- y_0    = 2643183 -->
     <g transform="translate(373.064062 34.737)scale(0.06 -0.06)">
      <defs>
       <path d="M 4.296875 25.59375 
L 55.90625 25.59375 
L 55.90625 17.1875 
L 4.296875 17.1875 
z
M 4.296875 45.40625 
L 55.90625 45.40625 
L 55.90625 37.109375 
L 4.296875 37.109375 
z
" id="DejaVuSansMono-61"/>
       <path d="M 48.390625 71.296875 
L 48.390625 62.203125 
Q 45.3125 64.015625 41.84375 64.96875 
Q 38.375 65.921875 34.625 65.921875 
Q 25.25 65.921875 20.40625 58.859375 
Q 15.578125 51.8125 15.578125 38.09375 
Q 17.921875 42.96875 22.0625 45.578125 
Q 26.21875 48.1875 31.59375 48.1875 
Q 42.140625 48.1875 47.921875 41.71875 
Q 53.71875 35.25 53.71875 23.390625 
Q 53.71875 11.578125 47.75 5.078125 
Q 41.796875 -1.421875 31 -1.421875 
Q 18.3125 -1.421875 12.40625 7.6875 
Q 6.5 16.796875 6.5 36.375 
Q 6.5 54.828125 13.59375 64.515625 
Q 20.703125 74.21875 34.1875 74.21875 
Q 37.796875 74.21875 41.40625 73.453125 
Q 45.015625 72.703125 48.390625 71.296875 
z
M 30.8125 40.484375 
Q 24.515625 40.484375 20.890625 35.9375 
Q 17.28125 31.390625 17.28125 23.390625 
Q 17.28125 15.375 20.890625 10.828125 
Q 24.515625 6.296875 30.8125 6.296875 
Q 37.359375 6.296875 40.671875 10.609375 
Q 44 14.9375 44 23.390625 
Q 44 31.890625 40.671875 36.1875 
Q 37.359375 40.484375 30.8125 40.484375 
z
" id="DejaVuSansMono-54"/>
       <path d="M 30.078125 34.625 
Q 23.484375 34.625 19.890625 30.9375 
Q 16.3125 27.25 16.3125 20.515625 
Q 16.3125 13.765625 19.9375 10.03125 
Q 23.578125 6.296875 30.078125 6.296875 
Q 36.71875 6.296875 40.296875 9.984375 
Q 43.890625 13.671875 43.890625 20.515625 
Q 43.890625 27.203125 40.25 30.90625 
Q 36.625 34.625 30.078125 34.625 
z
M 21.484375 38.71875 
Q 15.1875 40.328125 11.640625 44.71875 
Q 8.109375 49.125 8.109375 55.328125 
Q 8.109375 64.015625 14.015625 69.109375 
Q 19.921875 74.21875 30.078125 74.21875 
Q 40.28125 74.21875 46.1875 69.109375 
Q 52.09375 64.015625 52.09375 55.328125 
Q 52.09375 49.125 48.546875 44.71875 
Q 45.015625 40.328125 38.71875 38.71875 
Q 46.046875 37.109375 49.921875 32.21875 
Q 53.8125 27.34375 53.8125 19.578125 
Q 53.8125 9.71875 47.515625 4.140625 
Q 41.21875 -1.421875 30.078125 -1.421875 
Q 18.953125 -1.421875 12.671875 4.125 
Q 6.390625 9.671875 6.390625 19.484375 
Q 6.390625 27.296875 10.265625 32.203125 
Q 14.15625 37.109375 21.484375 38.71875 
z
M 17.921875 54.390625 
Q 17.921875 48.53125 21.046875 45.453125 
Q 24.171875 42.390625 30.078125 42.390625 
Q 36.03125 42.390625 39.15625 45.453125 
Q 42.28125 48.53125 42.28125 54.390625 
Q 42.28125 60.359375 39.171875 63.484375 
Q 36.078125 66.609375 30.078125 66.609375 
Q 24.171875 66.609375 21.046875 63.453125 
Q 17.921875 60.296875 17.921875 54.390625 
z
" id="DejaVuSansMono-56"/>
      </defs>
      <use xlink:href="#DejaVuSansMono-121"/>
      <use x="60.205078" xlink:href="#DejaVuSansMono-95"/>
      <use x="120.410156" xlink:href="#DejaVuSansMono-48"/>
      <use x="180.615234" xlink:href="#DejaVuSansMono-32"/>
      <use x="240.820312" xlink:href="#DejaVuSansMono-32"/>
      <use x="301.025391" xlink:href="#DejaVuSansMono-32"/>
      <use x="361.230469" xlink:href="#DejaVuSansMono-32"/>
      <use x="421.435547" xlink:href="#DejaVuSansMono-61"/>
      <use x="481.640625" xlink:href="#DejaVuSansMono-32"/>
      <use x="541.845703" xlink:href="#DejaVuSansMono-50"/>
      <use x="602.050781" xlink:href="#DejaVuSansMono-54"/>
      <use x="662.255859" xlink:href="#DejaVuSansMono-52"/>
      <use x="722.460938" xlink:href="#DejaVuSansMono-51"/>
      <use x="782.666016" xlink:href="#DejaVuSansMono-49"/>
      <use x="842.871094" xlink:href="#DejaVuSansMono-56"/>
      <use x="903.076172" xlink:href="#DejaVuSansMono-51"/>
     </g>
     <!-- y_max  = 190459818484 -->
     <g transform="translate(373.064062 41.660812)scale(0.06 -0.06)">
      <defs>
       <path d="M 54.59375 54.6875 
L 35.015625 28.515625 
L 56.5 0 
L 46.09375 0 
L 30.078125 21.921875 
L 14.109375 0 
L 3.71875 0 
L 25.203125 28.515625 
L 5.609375 54.6875 
L 15.578125 54.6875 
L 30.078125 34.90625 
L 44.484375 54.6875 
z
" id="DejaVuSansMono-120"/>
      </defs>
      <use xlink:href="#DejaVuSansMono-121"/>
      <use x="60.205078" xlink:href="#DejaVuSansMono-95"/>
      <use x="120.410156" xlink:href="#DejaVuSansMono-109"/>
      <use x="180.615234" xlink:href="#DejaVuSansMono-97"/>
      <use x="240.820312" xlink:href="#DejaVuSansMono-120"/>
      <use x="301.025391" xlink:href="#DejaVuSansMono-32"/>
      <use x="361.230469" xlink:href="#DejaVuSansMono-32"/>
      <use x="421.435547" xlink:href="#DejaVuSansMono-61"/>
      <use x="481.640625" xlink:href="#DejaVuSansMono-32"/>
      <use x="541.845703" xlink:href="#DejaVuSansMono-49"/>
      <use x="602.050781" xlink:href="#DejaVuSansMono-57"/>
      <use x="662.255859" xlink:href="#DejaVuSansMono-48"/>
      <use x="722.460938" xlink:href="#DejaVuSansMono-52"/>
      <use x="782.666016" xlink:href="#DejaVuSansMono-53"/>
      <use x="842.871094" xlink:href="#DejaVuSansMono-57"/>
      <use x="903.076172" xlink:href="#DejaVuSansMono-56"/>
      <use x="963.28125" xlink:href="#DejaVuSansMono-49"/>
      <use x="1023.486328" xlink:href="#DejaVuSansMono-56"/>
      <use x="1083.691406" xlink:href="#DejaVuSansMono-52"/>
      <use x="1143.896484" xlink:href="#DejaVuSansMono-56"/>
      <use x="1204.101562" xlink:href="#DejaVuSansMono-52"/>
     </g>
     <!-- x_max  = 431 -->
     <g transform="translate(373.064062 48.584625)scale(0.06 -0.06)">
      <use xlink:href="#DejaVuSansMono-120"/>
      <use x="60.205078" xlink:href="#DejaVuSansMono-95"/>
      <use x="120.410156" xlink:href="#DejaVuSansMono-109"/>
      <use x="180.615234" xlink:href="#DejaVuSansMono-97"/>
      <use x="240.820312" xlink:href="#DejaVuSansMono-120"/>
      <use x="301.025391" xlink:href="#DejaVuSansMono-32"/>
      <use x="361.230469" xlink:href="#DejaVuSansMono-32"/>
      <use x="421.435547" xlink:href="#DejaVuSansMono-61"/>
      <use x="481.640625" xlink:href="#DejaVuSansMono-32"/>
      <use x="541.845703" xlink:href="#DejaVuSansMono-52"/>
      <use x="602.050781" xlink:href="#DejaVuSansMono-51"/>
      <use x="662.255859" xlink:href="#DejaVuSansMono-49"/>
     </g>
    </g>
    <g id="line2d_17">
     <path d="M 356.264062 66.499875 
L 368.264062 66.499875 
" style="fill:none;stroke:#ff7f0e;stroke-linecap:square;stroke-width:0.666667;"/>
    </g>
    <g id="line2d_18"/>
    <g id="text_17">
     <!-- "Widest":  -->
     <g transform="translate(373.064062 57.59025)scale(0.06 -0.06)">
      <defs>
       <path d="M 0 72.90625 
L 9.625 72.90625 
L 16.609375 13.71875 
L 24.90625 52.875 
L 35.203125 52.875 
L 43.609375 13.625 
L 50.59375 72.90625 
L 60.203125 72.90625 
L 49.3125 0 
L 39.984375 0 
L 30.078125 43.3125 
L 20.21875 0 
L 10.890625 0 
z
" id="DejaVuSansMono-87"/>
       <path d="M 12.5 54.6875 
L 35.5 54.6875 
L 35.5 6.984375 
L 53.328125 6.984375 
L 53.328125 0 
L 8.6875 0 
L 8.6875 6.984375 
L 26.515625 6.984375 
L 26.515625 47.703125 
L 12.5 47.703125 
z
M 26.515625 75.984375 
L 35.5 75.984375 
L 35.5 64.59375 
L 26.515625 64.59375 
z
" id="DejaVuSansMono-105"/>
       <path d="M 41.890625 47.703125 
L 41.890625 75.984375 
L 50.875 75.984375 
L 50.875 0 
L 41.890625 0 
L 41.890625 6.890625 
Q 39.65625 2.828125 35.90625 0.703125 
Q 32.171875 -1.421875 27.296875 -1.421875 
Q 17.390625 -1.421875 11.6875 6.265625 
Q 6 13.96875 6 27.484375 
Q 6 40.828125 11.71875 48.40625 
Q 17.4375 56 27.296875 56 
Q 32.234375 56 35.984375 53.875 
Q 39.75 51.765625 41.890625 47.703125 
z
M 15.484375 27.296875 
Q 15.484375 16.84375 18.796875 11.515625 
Q 22.125 6.203125 28.609375 6.203125 
Q 35.109375 6.203125 38.5 11.5625 
Q 41.890625 16.9375 41.890625 27.296875 
Q 41.890625 37.703125 38.5 43.046875 
Q 35.109375 48.390625 28.609375 48.390625 
Q 22.125 48.390625 18.796875 43.0625 
Q 15.484375 37.75 15.484375 27.296875 
z
" id="DejaVuSansMono-100"/>
      </defs>
      <use xlink:href="#DejaVuSansMono-34"/>
      <use x="60.205078" xlink:href="#DejaVuSansMono-87"/>
      <use x="120.410156" xlink:href="#DejaVuSansMono-105"/>
      <use x="180.615234" xlink:href="#DejaVuSansMono-100"/>
      <use x="240.820312" xlink:href="#DejaVuSansMono-101"/>
      <use x="301.025391" xlink:href="#DejaVuSansMono-115"/>
      <use x="361.230469" xlink:href="#DejaVuSansMono-116"/>
      <use x="421.435547" xlink:href="#DejaVuSansMono-34"/>
      <use x="481.640625" xlink:href="#DejaVuSansMono-58"/>
      <use x="541.845703" xlink:href="#DejaVuSansMono-32"/>
     </g>
     <!-- y_0    = 2298025 -->
     <g transform="translate(373.064062 64.347187)scale(0.06 -0.06)">
      <use xlink:href="#DejaVuSansMono-121"/>
      <use x="60.205078" xlink:href="#DejaVuSansMono-95"/>
      <use x="120.410156" xlink:href="#DejaVuSansMono-48"/>
      <use x="180.615234" xlink:href="#DejaVuSansMono-32"/>
      <use x="240.820312" xlink:href="#DejaVuSansMono-32"/>
      <use x="301.025391" xlink:href="#DejaVuSansMono-32"/>
      <use x="361.230469" xlink:href="#DejaVuSansMono-32"/>
      <use x="421.435547" xlink:href="#DejaVuSansMono-61"/>
      <use x="481.640625" xlink:href="#DejaVuSansMono-32"/>
      <use x="541.845703" xlink:href="#DejaVuSansMono-50"/>
      <use x="602.050781" xlink:href="#DejaVuSansMono-50"/>
      <use x="662.255859" xlink:href="#DejaVuSansMono-57"/>
      <use x="722.460938" xlink:href="#DejaVuSansMono-56"/>
      <use x="782.666016" xlink:href="#DejaVuSansMono-48"/>
      <use x="842.871094" xlink:href="#DejaVuSansMono-50"/>
      <use x="903.076172" xlink:href="#DejaVuSansMono-53"/>
     </g>
     <!-- y_max  = 46571871940 -->
     <g transform="translate(373.064062 71.271)scale(0.06 -0.06)">
      <use xlink:href="#DejaVuSansMono-121"/>
      <use x="60.205078" xlink:href="#DejaVuSansMono-95"/>
      <use x="120.410156" xlink:href="#DejaVuSansMono-109"/>
      <use x="180.615234" xlink:href="#DejaVuSansMono-97"/>
      <use x="240.820312" xlink:href="#DejaVuSansMono-120"/>
      <use x="301.025391" xlink:href="#DejaVuSansMono-32"/>
      <use x="361.230469" xlink:href="#DejaVuSansMono-32"/>
      <use x="421.435547" xlink:href="#DejaVuSansMono-61"/>
      <use x="481.640625" xlink:href="#DejaVuSansMono-32"/>
      <use x="541.845703" xlink:href="#DejaVuSansMono-52"/>
      <use x="602.050781" xlink:href="#DejaVuSansMono-54"/>
      <use x="662.255859" xlink:href="#DejaVuSansMono-53"/>
      <use x="722.460938" xlink:href="#DejaVuSansMono-55"/>
      <use x="782.666016" xlink:href="#DejaVuSansMono-49"/>
      <use x="842.871094" xlink:href="#DejaVuSansMono-56"/>
      <use x="903.076172" xlink:href="#DejaVuSansMono-55"/>
      <use x="963.28125" xlink:href="#DejaVuSansMono-49"/>
      <use x="1023.486328" xlink:href="#DejaVuSansMono-57"/>
      <use x="1083.691406" xlink:href="#DejaVuSansMono-52"/>
      <use x="1143.896484" xlink:href="#DejaVuSansMono-48"/>
     </g>
     <!-- x_max  = 560 -->
     <g transform="translate(373.064062 78.194812)scale(0.06 -0.06)">
      <use xlink:href="#DejaVuSansMono-120"/>
      <use x="60.205078" xlink:href="#DejaVuSansMono-95"/>
      <use x="120.410156" xlink:href="#DejaVuSansMono-109"/>
      <use x="180.615234" xlink:href="#DejaVuSansMono-97"/>
      <use x="240.820312" xlink:href="#DejaVuSansMono-120"/>
      <use x="301.025391" xlink:href="#DejaVuSansMono-32"/>
      <use x="361.230469" xlink:href="#DejaVuSansMono-32"/>
      <use x="421.435547" xlink:href="#DejaVuSansMono-61"/>
      <use x="481.640625" xlink:href="#DejaVuSansMono-32"/>
      <use x="541.845703" xlink:href="#DejaVuSansMono-53"/>
      <use x="602.050781" xlink:href="#DejaVuSansMono-54"/>
      <use x="662.255859" xlink:href="#DejaVuSansMono-48"/>
     </g>
    </g>
   </g>
  </g>
 </g>
 <defs>
  <clipPath id="p64e23d1da6">
   <rect height="298.453375" width="418.46125" x="35.85875" y="17.989125"/>
  </clipPath>
 </defs>
</svg>
