<?xml version="1.0" encoding="utf-8" standalone="no"?>
<!DOCTYPE svg PUBLIC "-//W3C//DTD SVG 1.1//EN"
  "http://www.w3.org/Graphics/SVG/1.1/DTD/svg11.dtd">
<!-- Created with matplotlib (https://matplotlib.org/) -->
<svg height="345.6pt" version="1.1" viewBox="0 0 460.8 345.6" width="460.8pt" xmlns="http://www.w3.org/2000/svg" xmlns:xlink="http://www.w3.org/1999/xlink">
 <metadata>
  <rdf:RDF xmlns:cc="http://creativecommons.org/ns#" xmlns:dc="http://purl.org/dc/elements/1.1/" xmlns:rdf="http://www.w3.org/1999/02/22-rdf-syntax-ns#">
   <cc:Work>
    <dc:type rdf:resource="http://purl.org/dc/dcmitype/StillImage"/>
    <dc:date>2022-03-17T00:28:14.007950</dc:date>
    <dc:format>image/svg+xml</dc:format>
    <dc:creator>
     <cc:Agent>
      <dc:title>Matplotlib v3.3.2, https://matplotlib.org/</dc:title>
     </cc:Agent>
    </dc:creator>
   </cc:Work>
  </rdf:RDF>
 </metadata>
 <defs>
  <style type="text/css">*{stroke-linecap:butt;stroke-linejoin:round;}</style>
 </defs>
 <g id="figure_1">
  <g id="patch_1">
   <path d="M 0 345.6 
L 460.8 345.6 
L 460.8 0 
L 0 0 
z
" style="fill:#ffffff;"/>
  </g>
  <g id="axes_1">
   <g id="patch_2">
    <path d="M 35.85875 316.4425 
L 454.32 316.4425 
L 454.32 17.989125 
L 35.85875 17.989125 
z
" style="fill:#ffffff;"/>
   </g>
   <g id="matplotlib.axis_1">
    <g id="xtick_1">
     <g id="line2d_1">
      <defs>
       <path d="M 0 0 
L 0 3.5 
" id="mbaae7bc94d" style="stroke:#000000;stroke-width:0.8;"/>
      </defs>
      <g>
       <use style="stroke:#000000;stroke-width:0.8;" x="54.879716" xlink:href="#mbaae7bc94d" y="316.4425"/>
      </g>
     </g>
     <g id="text_1">
      <!-- 0 -->
      <g transform="translate(53.073622 328.033437)scale(0.06 -0.06)">
       <defs>
        <path d="M 23.578125 36.625 
Q 23.578125 39.3125 25.453125 41.265625 
Q 27.34375 43.21875 29.984375 43.21875 
Q 32.71875 43.21875 34.671875 41.265625 
Q 36.625 39.3125 36.625 36.625 
Q 36.625 33.890625 34.6875 31.984375 
Q 32.765625 30.078125 29.984375 30.078125 
Q 27.25 30.078125 25.40625 31.9375 
Q 23.578125 33.796875 23.578125 36.625 
z
M 30.078125 66.40625 
Q 23.1875 66.40625 19.796875 58.984375 
Q 16.40625 51.5625 16.40625 36.375 
Q 16.40625 21.234375 19.796875 13.8125 
Q 23.1875 6.390625 30.078125 6.390625 
Q 37.015625 6.390625 40.40625 13.8125 
Q 43.796875 21.234375 43.796875 36.375 
Q 43.796875 51.5625 40.40625 58.984375 
Q 37.015625 66.40625 30.078125 66.40625 
z
M 30.078125 74.21875 
Q 41.75 74.21875 47.734375 64.640625 
Q 53.71875 55.078125 53.71875 36.375 
Q 53.71875 17.71875 47.734375 8.140625 
Q 41.75 -1.421875 30.078125 -1.421875 
Q 18.40625 -1.421875 12.453125 8.140625 
Q 6.5 17.71875 6.5 36.375 
Q 6.5 55.078125 12.453125 64.640625 
Q 18.40625 74.21875 30.078125 74.21875 
z
" id="DejaVuSansMono-48"/>
       </defs>
       <use xlink:href="#DejaVuSansMono-48"/>
      </g>
     </g>
    </g>
    <g id="xtick_2">
     <g id="line2d_2">
      <g>
       <use style="stroke:#000000;stroke-width:0.8;" x="122.569986" xlink:href="#mbaae7bc94d" y="316.4425"/>
      </g>
     </g>
     <g id="text_2">
      <!-- 100 -->
      <g transform="translate(117.151705 328.033437)scale(0.06 -0.06)">
       <defs>
        <path d="M 13.1875 8.296875 
L 28.515625 8.296875 
L 28.515625 64.015625 
L 12.015625 60.296875 
L 12.015625 69.28125 
L 28.421875 72.90625 
L 38.28125 72.90625 
L 38.28125 8.296875 
L 53.421875 8.296875 
L 53.421875 0 
L 13.1875 0 
z
" id="DejaVuSansMono-49"/>
       </defs>
       <use xlink:href="#DejaVuSansMono-49"/>
       <use x="60.205078" xlink:href="#DejaVuSansMono-48"/>
       <use x="120.410156" xlink:href="#DejaVuSansMono-48"/>
      </g>
     </g>
    </g>
    <g id="xtick_3">
     <g id="line2d_3">
      <g>
       <use style="stroke:#000000;stroke-width:0.8;" x="190.260256" xlink:href="#mbaae7bc94d" y="316.4425"/>
      </g>
     </g>
     <g id="text_3">
      <!-- 200 -->
      <g transform="translate(184.841975 328.033437)scale(0.06 -0.06)">
       <defs>
        <path d="M 18.21875 8.296875 
L 51.703125 8.296875 
L 51.703125 0 
L 7.421875 0 
L 7.421875 8.296875 
Q 16.546875 17.921875 23.375 25.296875 
Q 30.21875 32.671875 32.8125 35.6875 
Q 37.703125 41.65625 39.40625 45.34375 
Q 41.109375 49.03125 41.109375 52.875 
Q 41.109375 58.984375 37.515625 62.453125 
Q 33.9375 65.921875 27.6875 65.921875 
Q 23.25 65.921875 18.359375 64.3125 
Q 13.484375 62.703125 8.015625 59.421875 
L 8.015625 69.390625 
Q 13.03125 71.78125 17.890625 73 
Q 22.75 74.21875 27.484375 74.21875 
Q 38.1875 74.21875 44.703125 68.53125 
Q 51.21875 62.84375 51.21875 53.609375 
Q 51.21875 48.921875 49.046875 44.234375 
Q 46.875 39.546875 42 33.890625 
Q 39.265625 30.71875 34.0625 25.09375 
Q 28.859375 19.484375 18.21875 8.296875 
z
" id="DejaVuSansMono-50"/>
       </defs>
       <use xlink:href="#DejaVuSansMono-50"/>
       <use x="60.205078" xlink:href="#DejaVuSansMono-48"/>
       <use x="120.410156" xlink:href="#DejaVuSansMono-48"/>
      </g>
     </g>
    </g>
    <g id="xtick_4">
     <g id="line2d_4">
      <g>
       <use style="stroke:#000000;stroke-width:0.8;" x="257.950526" xlink:href="#mbaae7bc94d" y="316.4425"/>
      </g>
     </g>
     <g id="text_4">
      <!-- 300 -->
      <g transform="translate(252.532245 328.033437)scale(0.06 -0.06)">
       <defs>
        <path d="M 37.890625 39.015625 
Q 45.0625 37.109375 48.875 32.25 
Q 52.6875 27.390625 52.6875 20.125 
Q 52.6875 10.0625 45.921875 4.3125 
Q 39.15625 -1.421875 27.203125 -1.421875 
Q 22.171875 -1.421875 16.9375 -0.484375 
Q 11.71875 0.4375 6.6875 2.203125 
L 6.6875 12.015625 
Q 11.671875 9.421875 16.5 8.15625 
Q 21.34375 6.890625 26.125 6.890625 
Q 34.234375 6.890625 38.578125 10.546875 
Q 42.921875 14.203125 42.921875 21.09375 
Q 42.921875 27.4375 38.578125 31.171875 
Q 34.234375 34.90625 26.8125 34.90625 
L 19.28125 34.90625 
L 19.28125 43.015625 
L 26.8125 43.015625 
Q 33.59375 43.015625 37.40625 45.984375 
Q 41.21875 48.96875 41.21875 54.296875 
Q 41.21875 59.90625 37.671875 62.90625 
Q 34.125 65.921875 27.59375 65.921875 
Q 23.25 65.921875 18.609375 64.9375 
Q 13.96875 63.96875 8.890625 62.015625 
L 8.890625 71.09375 
Q 14.796875 72.65625 19.40625 73.4375 
Q 24.03125 74.21875 27.59375 74.21875 
Q 38.234375 74.21875 44.609375 68.875 
Q 50.984375 63.53125 50.984375 54.6875 
Q 50.984375 48.6875 47.625 44.671875 
Q 44.28125 40.671875 37.890625 39.015625 
z
" id="DejaVuSansMono-51"/>
       </defs>
       <use xlink:href="#DejaVuSansMono-51"/>
       <use x="60.205078" xlink:href="#DejaVuSansMono-48"/>
       <use x="120.410156" xlink:href="#DejaVuSansMono-48"/>
      </g>
     </g>
    </g>
    <g id="xtick_5">
     <g id="line2d_5">
      <g>
       <use style="stroke:#000000;stroke-width:0.8;" x="325.640796" xlink:href="#mbaae7bc94d" y="316.4425"/>
      </g>
     </g>
     <g id="text_5">
      <!-- 400 -->
      <g transform="translate(320.222515 328.033437)scale(0.06 -0.06)">
       <defs>
        <path d="M 35.890625 63.921875 
L 12.890625 25.390625 
L 35.890625 25.390625 
z
M 34.28125 72.90625 
L 45.703125 72.90625 
L 45.703125 25.390625 
L 55.421875 25.390625 
L 55.421875 17.390625 
L 45.703125 17.390625 
L 45.703125 0 
L 35.890625 0 
L 35.890625 17.390625 
L 4.984375 17.390625 
L 4.984375 26.703125 
z
" id="DejaVuSansMono-52"/>
       </defs>
       <use xlink:href="#DejaVuSansMono-52"/>
       <use x="60.205078" xlink:href="#DejaVuSansMono-48"/>
       <use x="120.410156" xlink:href="#DejaVuSansMono-48"/>
      </g>
     </g>
    </g>
    <g id="xtick_6">
     <g id="line2d_6">
      <g>
       <use style="stroke:#000000;stroke-width:0.8;" x="393.331067" xlink:href="#mbaae7bc94d" y="316.4425"/>
      </g>
     </g>
     <g id="text_6">
      <!-- 500 -->
      <g transform="translate(387.912785 328.033437)scale(0.06 -0.06)">
       <defs>
        <path d="M 10.109375 72.90625 
L 47.015625 72.90625 
L 47.015625 64.59375 
L 19.09375 64.59375 
L 19.09375 46.6875 
Q 21.1875 47.46875 23.3125 47.828125 
Q 25.4375 48.1875 27.59375 48.1875 
Q 38.921875 48.1875 45.5625 41.5 
Q 52.203125 34.8125 52.203125 23.390625 
Q 52.203125 11.859375 45.234375 5.21875 
Q 38.28125 -1.421875 26.21875 -1.421875 
Q 20.40625 -1.421875 15.59375 -0.640625 
Q 10.796875 0.140625 6.984375 1.703125 
L 6.984375 11.71875 
Q 11.46875 9.28125 16.015625 8.078125 
Q 20.5625 6.890625 25.296875 6.890625 
Q 33.453125 6.890625 37.859375 11.1875 
Q 42.28125 15.484375 42.28125 23.390625 
Q 42.28125 31.203125 37.71875 35.546875 
Q 33.15625 39.890625 25 39.890625 
Q 21.046875 39.890625 17.28125 38.984375 
Q 13.53125 38.09375 10.109375 36.28125 
z
" id="DejaVuSansMono-53"/>
       </defs>
       <use xlink:href="#DejaVuSansMono-53"/>
       <use x="60.205078" xlink:href="#DejaVuSansMono-48"/>
       <use x="120.410156" xlink:href="#DejaVuSansMono-48"/>
      </g>
     </g>
    </g>
    <g id="text_7">
     <!-- n -->
     <g transform="translate(243.283281 337.872187)scale(0.06 -0.06)">
      <defs>
       <path d="M 51.3125 33.890625 
L 51.3125 0 
L 42.28125 0 
L 42.28125 33.890625 
Q 42.28125 41.265625 39.6875 44.71875 
Q 37.109375 48.1875 31.59375 48.1875 
Q 25.296875 48.1875 21.890625 43.71875 
Q 18.5 39.265625 18.5 30.90625 
L 18.5 0 
L 9.515625 0 
L 9.515625 54.6875 
L 18.5 54.6875 
L 18.5 46.484375 
Q 20.90625 51.171875 25 53.578125 
Q 29.109375 56 34.71875 56 
Q 43.0625 56 47.1875 50.5 
Q 51.3125 45.015625 51.3125 33.890625 
z
" id="DejaVuSansMono-110"/>
      </defs>
      <use xlink:href="#DejaVuSansMono-110"/>
     </g>
    </g>
   </g>
   <g id="matplotlib.axis_2">
    <g id="ytick_1">
     <g id="line2d_7">
      <defs>
       <path d="M 0 0 
L -3.5 0 
" id="m43cfc53dab" style="stroke:#000000;stroke-width:0.8;"/>
      </defs>
      <g>
       <use style="stroke:#000000;stroke-width:0.8;" x="35.85875" xlink:href="#m43cfc53dab" y="279.871982"/>
      </g>
     </g>
     <g id="text_8">
      <!-- $\mathdefault{10^{1}}$ -->
      <g transform="translate(18.83875 282.167451)scale(0.06 -0.06)">
       <use transform="translate(0 0.684375)" xlink:href="#DejaVuSansMono-49"/>
       <use transform="translate(60.205078 0.684375)" xlink:href="#DejaVuSansMono-48"/>
       <use transform="translate(121.367188 38.965625)scale(0.7)" xlink:href="#DejaVuSansMono-49"/>
      </g>
     </g>
    </g>
    <g id="ytick_2">
     <g id="line2d_8">
      <g>
       <use style="stroke:#000000;stroke-width:0.8;" x="35.85875" xlink:href="#m43cfc53dab" y="233.863071"/>
      </g>
     </g>
     <g id="text_9">
      <!-- $\mathdefault{10^{3}}$ -->
      <g transform="translate(18.83875 236.15854)scale(0.06 -0.06)">
       <use transform="translate(0 0.765625)" xlink:href="#DejaVuSansMono-49"/>
       <use transform="translate(60.205078 0.765625)" xlink:href="#DejaVuSansMono-48"/>
       <use transform="translate(121.367188 39.046875)scale(0.7)" xlink:href="#DejaVuSansMono-51"/>
      </g>
     </g>
    </g>
    <g id="ytick_3">
     <g id="line2d_9">
      <g>
       <use style="stroke:#000000;stroke-width:0.8;" x="35.85875" xlink:href="#m43cfc53dab" y="187.85416"/>
      </g>
     </g>
     <g id="text_10">
      <!-- $\mathdefault{10^{5}}$ -->
      <g transform="translate(18.83875 190.149629)scale(0.06 -0.06)">
       <use transform="translate(0 0.684375)" xlink:href="#DejaVuSansMono-49"/>
       <use transform="translate(60.205078 0.684375)" xlink:href="#DejaVuSansMono-48"/>
       <use transform="translate(121.367188 38.965625)scale(0.7)" xlink:href="#DejaVuSansMono-53"/>
      </g>
     </g>
    </g>
    <g id="ytick_4">
     <g id="line2d_10">
      <g>
       <use style="stroke:#000000;stroke-width:0.8;" x="35.85875" xlink:href="#m43cfc53dab" y="141.845249"/>
      </g>
     </g>
     <g id="text_11">
      <!-- $\mathdefault{10^{7}}$ -->
      <g transform="translate(18.83875 144.140718)scale(0.06 -0.06)">
       <defs>
        <path d="M 6.78125 72.90625 
L 52.6875 72.90625 
L 52.6875 68.703125 
L 26.609375 0 
L 16.3125 0 
L 41.703125 64.59375 
L 6.78125 64.59375 
z
" id="DejaVuSansMono-55"/>
       </defs>
       <use transform="translate(0 0.684375)" xlink:href="#DejaVuSansMono-49"/>
       <use transform="translate(60.205078 0.684375)" xlink:href="#DejaVuSansMono-48"/>
       <use transform="translate(121.367188 38.965625)scale(0.7)" xlink:href="#DejaVuSansMono-55"/>
      </g>
     </g>
    </g>
    <g id="ytick_5">
     <g id="line2d_11">
      <g>
       <use style="stroke:#000000;stroke-width:0.8;" x="35.85875" xlink:href="#m43cfc53dab" y="95.836338"/>
      </g>
     </g>
     <g id="text_12">
      <!-- $\mathdefault{10^{9}}$ -->
      <g transform="translate(18.83875 98.131807)scale(0.06 -0.06)">
       <defs>
        <path d="M 29.109375 32.328125 
Q 35.40625 32.328125 38.984375 36.859375 
Q 42.578125 41.40625 42.578125 49.421875 
Q 42.578125 57.421875 38.984375 61.953125 
Q 35.40625 66.5 29.109375 66.5 
Q 22.5625 66.5 19.234375 62.171875 
Q 15.921875 57.859375 15.921875 49.421875 
Q 15.921875 40.921875 19.21875 36.625 
Q 22.515625 32.328125 29.109375 32.328125 
z
M 11.53125 1.515625 
L 11.53125 10.59375 
Q 14.59375 8.796875 18.0625 7.84375 
Q 21.53125 6.890625 25.296875 6.890625 
Q 34.671875 6.890625 39.46875 13.9375 
Q 44.28125 21 44.28125 34.71875 
Q 42 29.828125 37.84375 27.21875 
Q 33.6875 24.609375 28.328125 24.609375 
Q 17.78125 24.609375 11.984375 31.09375 
Q 6.203125 37.59375 6.203125 49.515625 
Q 6.203125 61.28125 12.125 67.75 
Q 18.0625 74.21875 28.90625 74.21875 
Q 41.609375 74.21875 47.515625 65.078125 
Q 53.421875 55.953125 53.421875 36.375 
Q 53.421875 17.96875 46.3125 8.265625 
Q 39.203125 -1.421875 25.6875 -1.421875 
Q 22.125 -1.421875 18.5 -0.65625 
Q 14.890625 0.09375 11.53125 1.515625 
z
" id="DejaVuSansMono-57"/>
       </defs>
       <use transform="translate(0 0.765625)" xlink:href="#DejaVuSansMono-49"/>
       <use transform="translate(60.205078 0.765625)" xlink:href="#DejaVuSansMono-48"/>
       <use transform="translate(121.367188 39.046875)scale(0.7)" xlink:href="#DejaVuSansMono-57"/>
      </g>
     </g>
    </g>
    <g id="ytick_6">
     <g id="line2d_12">
      <g>
       <use style="stroke:#000000;stroke-width:0.8;" x="35.85875" xlink:href="#m43cfc53dab" y="49.827427"/>
      </g>
     </g>
     <g id="text_13">
      <!-- $\mathdefault{10^{11}}$ -->
      <g transform="translate(16.31875 52.122896)scale(0.06 -0.06)">
       <use transform="translate(0 0.684375)" xlink:href="#DejaVuSansMono-49"/>
       <use transform="translate(60.205078 0.684375)" xlink:href="#DejaVuSansMono-48"/>
       <use transform="translate(121.367188 38.965625)scale(0.7)" xlink:href="#DejaVuSansMono-49"/>
       <use transform="translate(163.510742 38.965625)scale(0.7)" xlink:href="#DejaVuSansMono-49"/>
      </g>
     </g>
    </g>
    <g id="text_14">
     <!-- y_n -->
     <g transform="translate(10.904063 172.634094)rotate(-90)scale(0.06 -0.06)">
      <defs>
       <path d="M 41.890625 17.578125 
Q 39.65625 11.859375 36.1875 2.546875 
Q 31.34375 -10.359375 29.6875 -13.1875 
Q 27.4375 -17 24.0625 -18.890625 
Q 20.703125 -20.796875 16.21875 -20.796875 
L 8.984375 -20.796875 
L 8.984375 -13.28125 
L 14.3125 -13.28125 
Q 18.265625 -13.28125 20.5 -10.984375 
Q 22.75 -8.6875 26.21875 0.875 
L 5.078125 54.6875 
L 14.59375 54.6875 
L 30.8125 11.921875 
L 46.78125 54.6875 
L 56.296875 54.6875 
z
" id="DejaVuSansMono-121"/>
       <path d="M 60.203125 -19.671875 
L 60.203125 -23.578125 
L 0 -23.578125 
L 0 -19.671875 
z
" id="DejaVuSansMono-95"/>
      </defs>
      <use xlink:href="#DejaVuSansMono-121"/>
      <use x="60.205078" xlink:href="#DejaVuSansMono-95"/>
      <use x="120.410156" xlink:href="#DejaVuSansMono-110"/>
     </g>
    </g>
   </g>
   <g id="line2d_13">
    <path clip-path="url(#p3b58b1bfbe)" d="M 54.879716 153.737758 
L 55.556619 142.761842 
L 56.233521 149.686873 
L 56.910424 138.710958 
L 57.587327 145.635989 
L 58.264229 134.660074 
L 59.618035 148.510136 
L 60.294938 137.534221 
L 60.97184 144.459252 
L 61.648743 133.483337 
L 62.325646 140.408368 
L 63.002548 129.432453 
L 63.679451 136.357484 
L 64.356354 125.381569 
L 65.033256 132.3066 
L 65.710159 121.330686 
L 66.387062 128.255717 
L 67.063965 117.279802 
L 67.740867 124.204833 
L 68.41777 113.228918 
L 69.771575 127.078981 
L 70.448478 116.103066 
L 71.125381 123.028097 
L 71.802283 112.052182 
L 72.479186 118.977214 
L 73.156089 108.001299 
L 73.832992 114.92633 
L 74.509894 103.950415 
L 75.186797 110.875446 
L 75.8637 99.899532 
L 77.217505 113.749594 
L 77.894408 102.773679 
L 78.57131 109.69871 
L 79.248213 98.722796 
L 79.925116 105.647827 
L 80.602019 94.671912 
L 81.278921 101.596943 
L 81.955824 90.621029 
L 82.632727 97.54606 
L 83.309629 86.570145 
L 83.986532 93.495176 
L 84.663435 82.519262 
L 85.340337 89.444293 
L 86.01724 78.468378 
L 86.694143 85.393409 
L 87.371046 74.417495 
L 88.047948 81.342526 
L 88.724851 70.366611 
L 89.401754 77.291642 
L 90.078656 66.315728 
L 90.755559 73.240759 
L 91.432462 62.264844 
L 92.109364 69.189875 
L 92.786267 58.21396 
L 93.46317 65.138992 
L 94.140073 54.163077 
L 94.816975 61.088108 
L 95.493878 50.112193 
L 96.170781 57.037225 
L 96.847683 46.06131 
L 97.524586 52.986341 
L 98.201489 42.010426 
L 98.878391 48.935458 
L 99.555294 37.959543 
L 100.232197 44.884574 
L 100.9091 33.908659 
L 102.262905 47.758722 
L 102.939808 36.782807 
L 104.293613 50.632869 
L 104.970516 39.656955 
L 105.647419 46.581986 
L 106.324321 35.606071 
L 107.001224 42.531102 
L 107.678127 31.555187 
L 109.031932 45.40525 
L 109.708835 34.429335 
L 111.739543 55.204428 
L 112.416446 44.228514 
L 114.447154 65.003607 
L 115.124056 54.027693 
L 118.50857 88.652848 
L 119.185473 77.676934 
L 119.862375 84.601965 
L 120.539278 73.62605 
L 121.216181 80.551081 
L 121.893083 69.575166 
L 122.569986 76.500198 
L 123.246889 65.524283 
L 124.600694 79.374345 
L 125.277597 68.398431 
L 125.9545 75.323462 
L 126.631402 64.347547 
L 127.308305 71.272578 
L 127.985208 60.296664 
L 129.339013 74.146726 
L 130.015916 63.170811 
L 131.369721 77.020873 
L 132.046624 66.044959 
L 133.400429 79.895021 
L 134.077332 68.919106 
L 136.10804 89.6942 
L 136.784943 78.718285 
L 138.138748 92.568347 
L 138.815651 81.592433 
L 140.169456 95.442495 
L 140.846359 84.46658 
L 142.877067 105.241674 
L 143.55397 94.265759 
L 144.907775 108.115821 
L 145.584678 97.139907 
L 146.938483 110.989969 
L 147.615386 100.014054 
L 148.292289 106.939085 
L 148.969191 95.963171 
L 150.322997 109.813233 
L 150.9999 98.837318 
L 151.676802 105.762349 
L 152.353705 94.786435 
L 156.415121 136.336621 
L 157.092024 125.360707 
L 159.122732 146.1358 
L 159.799635 135.159885 
L 160.476537 142.084916 
L 161.15344 131.109001 
L 165.214856 172.659188 
L 165.891759 161.683266 
L 166.568662 168.608297 
L 167.245564 157.632377 
L 167.922467 164.557408 
L 168.59937 153.581491 
L 169.953175 167.431553 
L 170.630078 156.455634 
L 171.306981 163.380665 
L 171.983883 152.404747 
L 173.337689 166.25481 
L 174.014591 155.278891 
L 175.368397 169.128953 
L 176.045299 158.153034 
L 177.399105 172.003096 
L 178.076008 161.027175 
L 180.106716 181.802268 
L 180.783618 170.826335 
L 181.460521 177.751366 
L 182.137424 166.775439 
L 182.814326 173.700471 
L 183.491229 162.724548 
L 184.168132 169.649579 
L 184.845035 158.673659 
L 185.521937 165.59869 
L 186.19884 154.622772 
L 188.229548 175.397865 
L 188.906451 164.421941 
L 189.583353 171.346972 
L 190.260256 160.371051 
L 191.614062 174.221113 
L 192.290964 163.24519 
L 194.321672 184.020284 
L 194.998575 173.044346 
L 196.35238 186.894408 
L 197.029283 175.918464 
L 197.706186 182.843495 
L 198.383089 171.86756 
L 201.090699 199.567684 
L 201.767602 188.591662 
L 203.121408 202.441724 
L 203.79831 191.465666 
L 207.182824 226.090822 
L 207.859726 215.113378 
L 209.213532 228.96344 
L 209.890435 217.985486 
L 211.24424 231.835548 
L 211.921143 220.856916 
L 213.274948 234.706978 
L 213.951851 223.72744 
L 214.628753 230.652471 
L 215.305656 219.674142 
L 215.982559 226.599173 
L 216.659462 215.621649 
L 220.720878 257.171836 
L 221.39778 246.161648 
L 222.751586 260.01171 
L 223.428489 248.990279 
L 224.782294 262.840342 
L 225.459197 251.80406 
L 226.136099 258.729091 
L 226.813002 247.713133 
L 227.489905 254.638165 
L 228.166807 243.635643 
L 230.197516 264.410737 
L 230.874418 253.364216 
L 231.551321 260.289247 
L 232.228224 249.266538 
L 232.905126 256.191569 
L 233.582029 245.184579 
L 234.258932 252.10961 
L 234.935834 241.113032 
L 236.28964 254.963094 
L 236.966543 243.959695 
L 238.320348 257.809757 
L 238.997251 246.797313 
L 239.674153 253.722344 
L 240.351056 242.722151 
L 241.704861 256.572213 
L 242.381764 245.564018 
L 243.058667 252.48905 
L 243.73557 241.491673 
L 244.412472 248.416704 
L 245.089375 237.426506 
L 246.44318 251.276569 
L 247.120083 240.281642 
L 247.796986 247.206673 
L 248.473889 236.218104 
L 249.150791 243.143135 
L 249.827694 232.158793 
L 250.504597 239.083824 
L 251.181499 228.102295 
L 252.535305 241.952358 
L 253.212207 230.968962 
L 255.242916 251.744055 
L 255.919818 240.748219 
L 256.596721 247.67325 
L 257.273624 236.684077 
L 257.950526 243.609108 
L 258.627429 232.624363 
L 259.981234 246.474426 
L 260.658137 235.48675 
L 261.33504 242.411781 
L 262.011943 231.428034 
L 263.365748 245.278096 
L 264.042651 234.291747 
L 264.719553 241.216779 
L 265.396456 230.233914 
L 266.073359 237.158945 
L 266.750261 226.1784 
L 267.427164 233.103431 
L 268.104067 222.12443 
L 268.78097 229.049461 
L 269.457872 218.07149 
L 270.134775 224.996521 
L 270.811678 214.019235 
L 272.842386 234.794329 
L 273.519288 223.814759 
L 274.196191 230.73979 
L 274.873094 219.76144 
L 275.549997 226.686471 
L 276.226899 215.708933 
L 276.903802 222.633964 
L 277.580705 211.656967 
L 280.288315 239.357092 
L 280.965218 228.375407 
L 282.319024 242.225469 
L 282.995926 231.241866 
L 284.349732 245.091929 
L 285.026634 234.105772 
L 287.734245 261.805897 
L 288.411148 250.775537 
L 290.441856 271.55063 
L 291.118759 260.430962 
L 291.795661 267.355993 
L 292.472564 256.285379 
L 293.149467 263.21041 
L 293.82637 252.171858 
L 297.210883 286.797013 
L 297.887786 275.176313 
L 300.595397 302.876437 
L 300.595397 302.876437 
" style="fill:none;stroke:#1f77b4;stroke-linecap:square;stroke-width:0.666667;"/>
   </g>
   <g id="line2d_14">
    <path clip-path="url(#p3b58b1bfbe)" d="M 54.879716 153.662789 
L 55.556619 142.686873 
L 56.910424 156.536936 
L 57.587327 145.561019 
L 58.941132 159.411082 
L 59.618035 148.435165 
L 60.294938 155.360196 
L 60.97184 144.38428 
L 61.648743 151.309311 
L 62.325646 140.333396 
L 63.002548 147.258427 
L 63.679451 136.282512 
L 64.356354 143.207543 
L 65.033256 132.231628 
L 65.710159 139.156659 
L 66.387062 128.180744 
L 67.063965 135.105775 
L 67.740867 124.12986 
L 69.094673 137.979923 
L 69.771575 127.004008 
L 71.125381 140.85407 
L 71.802283 129.878155 
L 72.479186 136.803186 
L 73.156089 125.827271 
L 73.832992 132.752303 
L 74.509894 121.776388 
L 75.8637 135.62645 
L 76.540602 124.650535 
L 77.217505 131.575566 
L 77.894408 120.599652 
L 79.248213 134.449714 
L 79.925116 123.473799 
L 80.602019 130.39883 
L 81.278921 119.422915 
L 81.955824 126.347946 
L 82.632727 115.372032 
L 83.309629 122.297063 
L 83.986532 111.321148 
L 84.663435 118.246179 
L 85.340337 107.270265 
L 86.01724 114.195296 
L 86.694143 103.219381 
L 89.401754 130.919506 
L 90.078656 119.943591 
L 92.109364 140.718684 
L 92.786267 129.742769 
L 93.46317 136.6678 
L 94.140073 125.691885 
L 94.816975 132.616917 
L 95.493878 121.641002 
L 96.170781 128.566033 
L 96.847683 117.590118 
L 98.201489 131.44018 
L 98.878391 120.464266 
L 100.232197 134.314328 
L 100.9091 123.338413 
L 102.262905 137.188475 
L 102.939808 126.212561 
L 103.61671 133.137592 
L 104.293613 122.161677 
L 104.970516 129.086708 
L 105.647419 118.110793 
L 107.001224 131.960856 
L 107.678127 120.984941 
L 108.355029 127.909972 
L 109.031932 116.934057 
L 111.06264 137.709151 
L 111.739543 126.733236 
L 113.093348 140.583298 
L 113.770251 129.607383 
L 114.447154 136.532414 
L 115.124056 125.556499 
L 115.800959 132.48153 
L 116.477862 121.505616 
L 117.154764 128.430647 
L 117.831667 117.454732 
L 118.50857 124.379763 
L 119.185473 113.403848 
L 119.862375 120.328879 
L 120.539278 109.352965 
L 121.893083 123.203027 
L 122.569986 112.227112 
L 123.246889 119.152143 
L 123.923791 108.176229 
L 124.600694 115.10126 
L 125.277597 104.125345 
L 127.308305 124.900439 
L 127.985208 113.924524 
L 128.66211 120.849555 
L 129.339013 109.87364 
L 130.015916 116.798671 
L 130.692818 105.822757 
L 131.369721 112.747788 
L 132.046624 101.771873 
L 132.723527 108.696904 
L 133.400429 97.72099 
L 134.754235 111.571052 
L 135.431137 100.595137 
L 136.10804 107.520168 
L 136.784943 96.544254 
L 137.461845 103.469285 
L 138.138748 92.49337 
L 138.815651 99.418401 
L 139.492554 88.442487 
L 140.169456 95.367518 
L 140.846359 84.391603 
L 141.523262 91.316634 
L 142.200164 80.34072 
L 142.877067 87.265751 
L 143.55397 76.289836 
L 144.230872 83.214867 
L 144.907775 72.238953 
L 145.584678 79.163984 
L 146.261581 68.188069 
L 146.938483 75.1131 
L 147.615386 64.137186 
L 151.676802 105.687372 
L 152.353705 94.711458 
L 153.70751 108.56152 
L 154.384413 97.585605 
L 155.061316 104.510636 
L 155.738218 93.534722 
L 156.415121 100.459753 
L 157.092024 89.483838 
L 157.768927 96.408869 
L 158.445829 85.432955 
L 160.476537 106.208048 
L 161.15344 95.232133 
L 162.507245 109.082196 
L 163.184148 98.106281 
L 163.861051 105.031312 
L 164.537954 94.055397 
L 165.214856 100.980429 
L 165.891759 90.004514 
L 166.568662 96.929545 
L 167.245564 85.95363 
L 168.59937 99.803693 
L 169.276272 88.827778 
L 170.630078 102.67784 
L 171.306981 91.701926 
L 171.983883 98.626957 
L 172.660786 87.651042 
L 174.691494 108.426135 
L 175.368397 97.450221 
L 176.722202 111.300283 
L 177.399105 100.324368 
L 178.076008 107.249399 
L 178.75291 96.273485 
L 179.429813 103.198516 
L 180.106716 92.222601 
L 180.783618 99.147632 
L 181.460521 88.171718 
L 182.137424 95.096749 
L 182.814326 84.120834 
L 183.491229 91.045865 
L 184.168132 80.069951 
L 184.845035 86.994982 
L 185.521937 76.019067 
L 186.875743 89.869129 
L 187.552645 78.893215 
L 188.906451 92.743277 
L 189.583353 81.767362 
L 190.260256 88.692393 
L 190.937159 77.716479 
L 191.614062 84.64151 
L 192.290964 73.665595 
L 192.967867 80.590626 
L 193.64477 69.614712 
L 194.321672 76.539743 
L 194.998575 65.563828 
L 195.675478 72.488859 
L 196.35238 61.512945 
L 197.029283 68.437976 
L 197.706186 57.462061 
L 199.059991 71.312123 
L 199.736894 60.336209 
L 201.090699 74.186271 
L 201.767602 63.210356 
L 204.475213 90.910481 
L 205.152116 79.934566 
L 211.921143 149.184877 
L 212.598045 138.208962 
L 213.274948 145.133993 
L 213.951851 134.158078 
L 215.982559 154.933172 
L 216.659462 143.957256 
L 217.336364 150.882287 
L 218.013267 139.906371 
L 218.69017 146.831402 
L 219.367072 135.855487 
L 220.043975 142.780518 
L 220.720878 131.804603 
L 221.39778 138.729634 
L 222.074683 127.75372 
L 222.751586 134.678751 
L 223.428489 123.702836 
L 224.782294 137.552898 
L 225.459197 126.576983 
L 226.136099 133.502014 
L 226.813002 122.5261 
L 228.166807 136.376162 
L 228.84371 125.400247 
L 230.197516 139.250309 
L 230.874418 128.274394 
L 232.905126 149.049488 
L 233.582029 138.073572 
L 234.935834 151.923635 
L 235.612737 140.947719 
L 236.28964 147.87275 
L 236.966543 136.896835 
L 238.320348 150.746897 
L 238.997251 139.770982 
L 239.674153 146.696013 
L 240.351056 135.720098 
L 242.381764 156.495191 
L 243.058667 145.519275 
L 243.73557 152.444306 
L 244.412472 141.46839 
L 245.089375 148.393422 
L 245.766278 137.417506 
L 246.44318 144.342537 
L 247.120083 133.366622 
L 247.796986 140.291653 
L 248.473889 129.315739 
L 249.150791 136.24077 
L 249.827694 125.264855 
L 253.212207 159.89001 
L 253.88911 148.914094 
L 254.566013 155.839125 
L 255.242916 144.863209 
L 255.919818 151.78824 
L 256.596721 140.812324 
L 257.273624 147.737356 
L 257.950526 136.76144 
L 258.627429 143.686471 
L 259.304332 132.710556 
L 262.688845 167.335712 
L 263.365748 156.359793 
L 264.042651 163.284824 
L 264.719553 152.308907 
L 265.396456 159.233938 
L 266.073359 148.258021 
L 266.750261 155.183052 
L 267.427164 144.207137 
L 268.104067 151.132168 
L 268.78097 140.156252 
L 269.457872 147.081283 
L 270.134775 136.105368 
L 271.48858 149.95543 
L 272.165483 138.979515 
L 272.842386 145.904546 
L 273.519288 134.928631 
L 274.196191 141.853662 
L 274.873094 130.877747 
L 275.549997 137.802778 
L 276.226899 126.826863 
L 276.903802 133.751894 
L 277.580705 122.77598 
L 278.257607 129.701011 
L 278.93451 118.725096 
L 279.611413 125.650127 
L 280.288315 114.674212 
L 281.642121 128.524275 
L 282.319024 117.54836 
L 282.995926 124.473391 
L 283.672829 113.497476 
L 285.026634 127.347539 
L 285.703537 116.371624 
L 286.38044 123.296655 
L 287.057342 112.32074 
L 287.734245 119.245771 
L 288.411148 108.269857 
L 289.088051 115.194888 
L 289.764953 104.218973 
L 291.118759 118.069035 
L 291.795661 107.093121 
L 292.472564 114.018152 
L 293.149467 103.042237 
L 294.503272 116.892299 
L 295.180175 105.916385 
L 296.53398 119.766447 
L 297.210883 108.790532 
L 297.887786 115.715563 
L 298.564688 104.739649 
L 299.241591 111.66468 
L 299.918494 100.688765 
L 300.595397 107.613796 
L 301.272299 96.637882 
L 307.364424 158.963162 
L 308.041326 147.987245 
L 311.42584 182.612401 
L 312.102742 171.636467 
L 314.133451 192.41156 
L 314.810353 181.435593 
L 315.487256 188.360624 
L 316.164159 177.384674 
L 317.517964 191.234736 
L 318.194867 180.258775 
L 320.225575 201.033869 
L 320.902478 190.057829 
L 321.57938 196.98286 
L 322.256283 186.006863 
L 322.933186 192.931894 
L 323.610088 181.955924 
L 324.286991 188.880955 
L 324.963894 177.905003 
L 326.317699 191.755066 
L 326.994602 180.779102 
L 327.671505 187.704133 
L 328.348407 176.728185 
L 329.702213 190.578248 
L 330.379115 179.602289 
L 331.056018 186.52732 
L 331.732921 175.551377 
L 332.409823 182.476408 
L 333.086726 171.500474 
L 334.440532 185.350536 
L 335.117434 174.374595 
L 335.794337 181.299626 
L 336.47124 170.323695 
L 337.148142 177.248726 
L 337.825045 166.2728 
L 338.501948 173.197831 
L 339.17885 162.221908 
L 339.855753 169.146939 
L 340.532656 158.17102 
L 342.563364 178.946113 
L 343.240267 167.970185 
L 343.917169 174.895216 
L 344.594072 163.919292 
L 345.270975 170.844323 
L 345.947878 159.868403 
L 347.301683 173.718465 
L 347.978586 162.742542 
L 349.332391 176.592604 
L 350.009294 165.616679 
L 352.040002 186.391772 
L 352.716905 175.415829 
L 353.393807 182.34086 
L 354.07071 171.364926 
L 356.101418 192.140019 
L 356.778321 181.164054 
L 358.809029 201.939147 
L 359.485932 190.963096 
L 360.162834 197.888127 
L 360.839737 186.912122 
L 364.901153 228.462308 
L 365.578056 217.484454 
L 368.962569 252.10961 
L 369.639472 241.113032 
L 370.993277 254.963094 
L 371.67018 243.959695 
L 373.023986 257.809757 
L 373.700888 246.797313 
L 374.377791 253.722344 
L 375.054694 242.722151 
L 376.408499 256.572213 
L 377.085402 245.564018 
L 377.762304 252.48905 
L 378.439207 241.491673 
L 379.11611 248.416704 
L 379.793013 237.426506 
L 381.146818 251.276569 
L 381.823721 240.281642 
L 382.500623 247.206673 
L 383.177526 236.218104 
L 383.854429 243.143135 
L 384.531331 232.158793 
L 385.208234 239.083824 
L 385.885137 228.102295 
L 387.238942 241.952358 
L 387.915845 230.968962 
L 389.946553 251.744055 
L 390.623456 240.748219 
L 391.300359 247.67325 
L 391.977261 236.684077 
L 392.654164 243.609108 
L 393.331067 232.624363 
L 394.684872 246.474426 
L 395.361775 235.48675 
L 396.038677 242.411781 
L 396.71558 231.428034 
L 398.069386 245.278096 
L 398.746288 234.291747 
L 399.423191 241.216779 
L 400.100094 230.233914 
L 400.776996 237.158945 
L 401.453899 226.1784 
L 402.130802 233.103431 
L 402.807704 222.12443 
L 403.484607 229.049461 
L 404.16151 218.07149 
L 404.838413 224.996521 
L 405.515315 214.019235 
L 407.546023 234.794329 
L 408.222926 223.814759 
L 408.899829 230.73979 
L 409.576731 219.76144 
L 410.253634 226.686471 
L 410.930537 215.708933 
L 411.60744 222.633964 
L 412.284342 211.656967 
L 414.991953 239.357092 
L 415.668856 228.375407 
L 417.022661 242.225469 
L 417.699564 231.241866 
L 419.053369 245.091929 
L 419.730272 234.105772 
L 422.437883 261.805897 
L 423.114785 250.775537 
L 425.145494 271.55063 
L 425.822396 260.430962 
L 426.499299 267.355993 
L 427.176202 256.285379 
L 427.853104 263.21041 
L 428.530007 252.171858 
L 431.914521 286.797013 
L 432.591423 275.176313 
L 435.299034 302.876437 
L 435.299034 302.876437 
" style="fill:none;stroke:#ff7f0e;stroke-linecap:square;stroke-width:0.666667;"/>
   </g>
   <g id="patch_3">
    <path d="M 35.85875 316.4425 
L 35.85875 17.989125 
" style="fill:none;stroke:#000000;stroke-linecap:square;stroke-linejoin:miter;stroke-width:0.8;"/>
   </g>
   <g id="patch_4">
    <path d="M 454.32 316.4425 
L 454.32 17.989125 
" style="fill:none;stroke:#000000;stroke-linecap:square;stroke-linejoin:miter;stroke-width:0.8;"/>
   </g>
   <g id="patch_5">
    <path d="M 35.85875 316.4425 
L 454.32 316.4425 
" style="fill:none;stroke:#000000;stroke-linecap:square;stroke-linejoin:miter;stroke-width:0.8;"/>
   </g>
   <g id="patch_6">
    <path d="M 35.85875 17.989125 
L 454.32 17.989125 
" style="fill:none;stroke:#000000;stroke-linecap:square;stroke-linejoin:miter;stroke-width:0.8;"/>
   </g>
   <g id="text_15">
    <!-- "3y+1" problem -->
    <g transform="translate(214.747 11.989125)scale(0.072 -0.072)">
     <defs>
      <path d="M 43.703125 72.90625 
L 43.703125 45.796875 
L 35.203125 45.796875 
L 35.203125 72.90625 
z
M 25 72.90625 
L 25 45.796875 
L 16.5 45.796875 
L 16.5 72.90625 
z
" id="DejaVuSansMono-34"/>
      <path d="M 34.1875 57.171875 
L 34.1875 35.5 
L 55.90625 35.5 
L 55.90625 27.203125 
L 34.1875 27.203125 
L 34.1875 5.515625 
L 25.984375 5.515625 
L 25.984375 27.203125 
L 4.296875 27.203125 
L 4.296875 35.5 
L 25.984375 35.5 
L 25.984375 57.171875 
z
" id="DejaVuSansMono-43"/>
      <path id="DejaVuSansMono-32"/>
      <path d="M 18.3125 6.890625 
L 18.3125 -20.796875 
L 9.28125 -20.796875 
L 9.28125 54.6875 
L 18.3125 54.6875 
L 18.3125 47.703125 
Q 20.5625 51.765625 24.296875 53.875 
Q 28.03125 56 32.90625 56 
Q 42.828125 56 48.46875 48.328125 
Q 54.109375 40.671875 54.109375 27.09375 
Q 54.109375 13.765625 48.4375 6.171875 
Q 42.78125 -1.421875 32.90625 -1.421875 
Q 27.9375 -1.421875 24.1875 0.703125 
Q 20.453125 2.828125 18.3125 6.890625 
z
M 44.671875 27.296875 
Q 44.671875 37.75 41.375 43.0625 
Q 38.09375 48.390625 31.59375 48.390625 
Q 25.046875 48.390625 21.671875 43.046875 
Q 18.3125 37.703125 18.3125 27.296875 
Q 18.3125 16.9375 21.671875 11.5625 
Q 25.046875 6.203125 31.59375 6.203125 
Q 38.09375 6.203125 41.375 11.515625 
Q 44.671875 16.84375 44.671875 27.296875 
z
" id="DejaVuSansMono-112"/>
      <path d="M 56.390625 43.40625 
Q 53.515625 45.65625 50.53125 46.671875 
Q 47.5625 47.703125 44 47.703125 
Q 35.59375 47.703125 31.140625 42.421875 
Q 26.703125 37.15625 26.703125 27.203125 
L 26.703125 0 
L 17.671875 0 
L 17.671875 54.6875 
L 26.703125 54.6875 
L 26.703125 44 
Q 28.953125 49.8125 33.609375 52.90625 
Q 38.28125 56 44.671875 56 
Q 48 56 50.875 55.171875 
Q 53.765625 54.34375 56.390625 52.59375 
z
" id="DejaVuSansMono-114"/>
      <path d="M 30.078125 48.390625 
Q 23.25 48.390625 19.734375 43.0625 
Q 16.21875 37.75 16.21875 27.296875 
Q 16.21875 16.890625 19.734375 11.546875 
Q 23.25 6.203125 30.078125 6.203125 
Q 36.96875 6.203125 40.484375 11.546875 
Q 44 16.890625 44 27.296875 
Q 44 37.75 40.484375 43.0625 
Q 36.96875 48.390625 30.078125 48.390625 
z
M 30.078125 56 
Q 41.453125 56 47.484375 48.625 
Q 53.515625 41.265625 53.515625 27.296875 
Q 53.515625 13.28125 47.5 5.921875 
Q 41.5 -1.421875 30.078125 -1.421875 
Q 18.703125 -1.421875 12.6875 5.921875 
Q 6.6875 13.28125 6.6875 27.296875 
Q 6.6875 41.265625 12.6875 48.625 
Q 18.703125 56 30.078125 56 
z
" id="DejaVuSansMono-111"/>
      <path d="M 44.828125 27.296875 
Q 44.828125 37.75 41.5 43.0625 
Q 38.1875 48.390625 31.6875 48.390625 
Q 25.140625 48.390625 21.765625 43.046875 
Q 18.40625 37.703125 18.40625 27.296875 
Q 18.40625 16.9375 21.765625 11.5625 
Q 25.140625 6.203125 31.6875 6.203125 
Q 38.1875 6.203125 41.5 11.515625 
Q 44.828125 16.84375 44.828125 27.296875 
z
M 18.40625 47.703125 
Q 20.5625 51.703125 24.34375 53.84375 
Q 28.125 56 33.109375 56 
Q 42.96875 56 48.625 48.40625 
Q 54.296875 40.828125 54.296875 27.484375 
Q 54.296875 13.96875 48.609375 6.265625 
Q 42.921875 -1.421875 33.015625 -1.421875 
Q 28.125 -1.421875 24.390625 0.703125 
Q 20.65625 2.828125 18.40625 6.890625 
L 18.40625 0 
L 9.421875 0 
L 9.421875 75.984375 
L 18.40625 75.984375 
z
" id="DejaVuSansMono-98"/>
      <path d="M 31.203125 19.828125 
Q 31.203125 13.765625 33.421875 10.6875 
Q 35.640625 7.625 39.984375 7.625 
L 50.484375 7.625 
L 50.484375 0 
L 39.109375 0 
Q 31.0625 0 26.640625 5.171875 
Q 22.21875 10.359375 22.21875 19.828125 
L 22.21875 69.484375 
L 7.8125 69.484375 
L 7.8125 76.515625 
L 31.203125 76.515625 
z
" id="DejaVuSansMono-108"/>
      <path d="M 54.296875 29.59375 
L 54.296875 25.203125 
L 15.375 25.203125 
L 15.375 24.90625 
Q 15.375 15.96875 20.03125 11.078125 
Q 24.703125 6.203125 33.203125 6.203125 
Q 37.5 6.203125 42.1875 7.5625 
Q 46.875 8.9375 52.203125 11.71875 
L 52.203125 2.78125 
Q 47.078125 0.6875 42.3125 -0.359375 
Q 37.546875 -1.421875 33.109375 -1.421875 
Q 20.359375 -1.421875 13.171875 6.21875 
Q 6 13.875 6 27.296875 
Q 6 40.375 13.03125 48.1875 
Q 20.0625 56 31.78125 56 
Q 42.234375 56 48.265625 48.921875 
Q 54.296875 41.84375 54.296875 29.59375 
z
M 45.3125 32.234375 
Q 45.125 40.140625 41.578125 44.265625 
Q 38.03125 48.390625 31.390625 48.390625 
Q 24.90625 48.390625 20.703125 44.09375 
Q 16.5 39.796875 15.71875 32.171875 
z
" id="DejaVuSansMono-101"/>
      <path d="M 33.015625 49.125 
Q 34.671875 52.640625 37.234375 54.3125 
Q 39.796875 56 43.40625 56 
Q 50 56 52.703125 50.890625 
Q 55.421875 45.796875 55.421875 31.6875 
L 55.421875 0 
L 47.21875 0 
L 47.21875 31.296875 
Q 47.21875 42.875 45.921875 45.671875 
Q 44.625 48.484375 41.21875 48.484375 
Q 37.3125 48.484375 35.859375 45.484375 
Q 34.421875 42.484375 34.421875 31.296875 
L 34.421875 0 
L 26.21875 0 
L 26.21875 31.296875 
Q 26.21875 43.015625 24.828125 45.75 
Q 23.4375 48.484375 19.828125 48.484375 
Q 16.265625 48.484375 14.875 45.484375 
Q 13.484375 42.484375 13.484375 31.296875 
L 13.484375 0 
L 5.328125 0 
L 5.328125 54.6875 
L 13.484375 54.6875 
L 13.484375 50 
Q 15.09375 52.9375 17.5 54.46875 
Q 19.921875 56 23 56 
Q 26.703125 56 29.171875 54.296875 
Q 31.640625 52.59375 33.015625 49.125 
z
" id="DejaVuSansMono-109"/>
     </defs>
     <use xlink:href="#DejaVuSansMono-34"/>
     <use x="60.205078" xlink:href="#DejaVuSansMono-51"/>
     <use x="120.410156" xlink:href="#DejaVuSansMono-121"/>
     <use x="180.615234" xlink:href="#DejaVuSansMono-43"/>
     <use x="240.820312" xlink:href="#DejaVuSansMono-49"/>
     <use x="301.025391" xlink:href="#DejaVuSansMono-34"/>
     <use x="361.230469" xlink:href="#DejaVuSansMono-32"/>
     <use x="421.435547" xlink:href="#DejaVuSansMono-112"/>
     <use x="481.640625" xlink:href="#DejaVuSansMono-114"/>
     <use x="541.845703" xlink:href="#DejaVuSansMono-111"/>
     <use x="602.050781" xlink:href="#DejaVuSansMono-98"/>
     <use x="662.255859" xlink:href="#DejaVuSansMono-108"/>
     <use x="722.460938" xlink:href="#DejaVuSansMono-101"/>
     <use x="782.666016" xlink:href="#DejaVuSansMono-109"/>
    </g>
   </g>
   <g id="legend_1">
    <g id="patch_7">
     <path d="M 355.064062 82.0095 
L 450.12 82.0095 
Q 451.32 82.0095 451.32 80.8095 
L 451.32 22.189125 
Q 451.32 20.989125 450.12 20.989125 
L 355.064062 20.989125 
Q 353.864062 20.989125 353.864062 22.189125 
L 353.864062 80.8095 
Q 353.864062 82.0095 355.064062 82.0095 
z
" style="fill:#ffffff;opacity:0.8;stroke:#cccccc;stroke-linejoin:miter;"/>
    </g>
    <g id="line2d_15">
     <path d="M 356.264062 36.889687 
L 368.264062 36.889687 
" style="fill:none;stroke:#1f77b4;stroke-linecap:square;stroke-width:0.666667;"/>
    </g>
    <g id="line2d_16"/>
    <g id="text_16">
     <!-- "Tallest": -->
     <g transform="translate(373.064062 27.980062)scale(0.06 -0.06)">
      <defs>
       <path d="M 2.296875 72.90625 
L 57.90625 72.90625 
L 57.90625 64.59375 
L 35.109375 64.59375 
L 35.109375 0 
L 25.203125 0 
L 25.203125 64.59375 
L 2.296875 64.59375 
z
" id="DejaVuSansMono-84"/>
       <path d="M 34.28125 27.484375 
L 31.296875 27.484375 
Q 23.4375 27.484375 19.453125 24.71875 
Q 15.484375 21.96875 15.484375 16.5 
Q 15.484375 11.578125 18.453125 8.84375 
Q 21.4375 6.109375 26.703125 6.109375 
Q 34.125 6.109375 38.375 11.25 
Q 42.625 16.40625 42.671875 25.484375 
L 42.671875 27.484375 
z
M 51.703125 31.203125 
L 51.703125 0 
L 42.671875 0 
L 42.671875 8.109375 
Q 39.796875 3.21875 35.421875 0.890625 
Q 31.0625 -1.421875 24.8125 -1.421875 
Q 16.453125 -1.421875 11.46875 3.296875 
Q 6.5 8.015625 6.5 15.921875 
Q 6.5 25.046875 12.625 29.78125 
Q 18.75 34.515625 30.609375 34.515625 
L 42.671875 34.515625 
L 42.671875 35.9375 
Q 42.625 42.484375 39.34375 45.4375 
Q 36.078125 48.390625 28.90625 48.390625 
Q 24.3125 48.390625 19.625 47.0625 
Q 14.9375 45.75 10.5 43.21875 
L 10.5 52.203125 
Q 15.484375 54.109375 20.046875 55.046875 
Q 24.609375 56 28.90625 56 
Q 35.6875 56 40.5 54 
Q 45.3125 52 48.296875 48 
Q 50.140625 45.5625 50.921875 41.96875 
Q 51.703125 38.375 51.703125 31.203125 
z
" id="DejaVuSansMono-97"/>
       <path d="M 47.515625 52.78125 
L 47.515625 44 
Q 43.65625 46.234375 39.75 47.359375 
Q 35.84375 48.484375 31.78125 48.484375 
Q 25.6875 48.484375 22.671875 46.5 
Q 19.671875 44.53125 19.671875 40.484375 
Q 19.671875 36.8125 21.921875 35 
Q 24.171875 33.203125 33.109375 31.5 
L 36.71875 30.8125 
Q 43.40625 29.546875 46.84375 25.734375 
Q 50.296875 21.921875 50.296875 15.828125 
Q 50.296875 7.71875 44.53125 3.140625 
Q 38.765625 -1.421875 28.515625 -1.421875 
Q 24.46875 -1.421875 20.015625 -0.5625 
Q 15.578125 0.296875 10.40625 2 
L 10.40625 11.28125 
Q 15.4375 8.6875 20.015625 7.390625 
Q 24.609375 6.109375 28.71875 6.109375 
Q 34.671875 6.109375 37.9375 8.515625 
Q 41.21875 10.9375 41.21875 15.28125 
Q 41.21875 21.53125 29.25 23.921875 
L 28.859375 24.03125 
L 25.484375 24.703125 
Q 17.71875 26.21875 14.15625 29.8125 
Q 10.59375 33.40625 10.59375 39.59375 
Q 10.59375 47.46875 15.90625 51.734375 
Q 21.234375 56 31.109375 56 
Q 35.5 56 39.546875 55.1875 
Q 43.609375 54.390625 47.515625 52.78125 
z
" id="DejaVuSansMono-115"/>
       <path d="M 29.984375 70.21875 
L 29.984375 54.6875 
L 50.390625 54.6875 
L 50.390625 47.703125 
L 29.984375 47.703125 
L 29.984375 18.015625 
Q 29.984375 11.96875 32.28125 9.5625 
Q 34.578125 7.171875 40.28125 7.171875 
L 50.390625 7.171875 
L 50.390625 0 
L 39.40625 0 
Q 29.296875 0 25.140625 4.046875 
Q 21 8.109375 21 18.015625 
L 21 47.703125 
L 6.390625 47.703125 
L 6.390625 54.6875 
L 21 54.6875 
L 21 70.21875 
z
" id="DejaVuSansMono-116"/>
       <path d="M 23.875 51.90625 
L 36.1875 51.90625 
L 36.1875 37.109375 
L 23.875 37.109375 
z
M 23.875 14.890625 
L 36.1875 14.890625 
L 36.1875 0 
L 23.875 0 
z
" id="DejaVuSansMono-58"/>
      </defs>
      <use xlink:href="#DejaVuSansMono-34"/>
      <use x="60.205078" xlink:href="#DejaVuSansMono-84"/>
      <use x="120.410156" xlink:href="#DejaVuSansMono-97"/>
      <use x="180.615234" xlink:href="#DejaVuSansMono-108"/>
      <use x="240.820312" xlink:href="#DejaVuSansMono-108"/>
      <use x="301.025391" xlink:href="#DejaVuSansMono-101"/>
      <use x="361.230469" xlink:href="#DejaVuSansMono-115"/>
      <use x="421.435547" xlink:href="#DejaVuSansMono-116"/>
      <use x="481.640625" xlink:href="#DejaVuSansMono-34"/>
      <use x="541.845703" xlink:href="#DejaVuSansMono-58"/>
     </g>
     <!-- y_0    = 3041127 -->
     <g transform="translate(373.064062 34.737)scale(0.06 -0.06)">
      <defs>
       <path d="M 4.296875 25.59375 
L 55.90625 25.59375 
L 55.90625 17.1875 
L 4.296875 17.1875 
z
M 4.296875 45.40625 
L 55.90625 45.40625 
L 55.90625 37.109375 
L 4.296875 37.109375 
z
" id="DejaVuSansMono-61"/>
      </defs>
      <use xlink:href="#DejaVuSansMono-121"/>
      <use x="60.205078" xlink:href="#DejaVuSansMono-95"/>
      <use x="120.410156" xlink:href="#DejaVuSansMono-48"/>
      <use x="180.615234" xlink:href="#DejaVuSansMono-32"/>
      <use x="240.820312" xlink:href="#DejaVuSansMono-32"/>
      <use x="301.025391" xlink:href="#DejaVuSansMono-32"/>
      <use x="361.230469" xlink:href="#DejaVuSansMono-32"/>
      <use x="421.435547" xlink:href="#DejaVuSansMono-61"/>
      <use x="481.640625" xlink:href="#DejaVuSansMono-32"/>
      <use x="541.845703" xlink:href="#DejaVuSansMono-51"/>
      <use x="602.050781" xlink:href="#DejaVuSansMono-48"/>
      <use x="662.255859" xlink:href="#DejaVuSansMono-52"/>
      <use x="722.460938" xlink:href="#DejaVuSansMono-49"/>
      <use x="782.666016" xlink:href="#DejaVuSansMono-49"/>
      <use x="842.871094" xlink:href="#DejaVuSansMono-50"/>
      <use x="903.076172" xlink:href="#DejaVuSansMono-55"/>
     </g>
     <!-- y_max  = 622717901620 -->
     <g transform="translate(373.064062 41.660812)scale(0.06 -0.06)">
      <defs>
       <path d="M 54.59375 54.6875 
L 35.015625 28.515625 
L 56.5 0 
L 46.09375 0 
L 30.078125 21.921875 
L 14.109375 0 
L 3.71875 0 
L 25.203125 28.515625 
L 5.609375 54.6875 
L 15.578125 54.6875 
L 30.078125 34.90625 
L 44.484375 54.6875 
z
" id="DejaVuSansMono-120"/>
       <path d="M 48.390625 71.296875 
L 48.390625 62.203125 
Q 45.3125 64.015625 41.84375 64.96875 
Q 38.375 65.921875 34.625 65.921875 
Q 25.25 65.921875 20.40625 58.859375 
Q 15.578125 51.8125 15.578125 38.09375 
Q 17.921875 42.96875 22.0625 45.578125 
Q 26.21875 48.1875 31.59375 48.1875 
Q 42.140625 48.1875 47.921875 41.71875 
Q 53.71875 35.25 53.71875 23.390625 
Q 53.71875 11.578125 47.75 5.078125 
Q 41.796875 -1.421875 31 -1.421875 
Q 18.3125 -1.421875 12.40625 7.6875 
Q 6.5 16.796875 6.5 36.375 
Q 6.5 54.828125 13.59375 64.515625 
Q 20.703125 74.21875 34.1875 74.21875 
Q 37.796875 74.21875 41.40625 73.453125 
Q 45.015625 72.703125 48.390625 71.296875 
z
M 30.8125 40.484375 
Q 24.515625 40.484375 20.890625 35.9375 
Q 17.28125 31.390625 17.28125 23.390625 
Q 17.28125 15.375 20.890625 10.828125 
Q 24.515625 6.296875 30.8125 6.296875 
Q 37.359375 6.296875 40.671875 10.609375 
Q 44 14.9375 44 23.390625 
Q 44 31.890625 40.671875 36.1875 
Q 37.359375 40.484375 30.8125 40.484375 
z
" id="DejaVuSansMono-54"/>
      </defs>
      <use xlink:href="#DejaVuSansMono-121"/>
      <use x="60.205078" xlink:href="#DejaVuSansMono-95"/>
      <use x="120.410156" xlink:href="#DejaVuSansMono-109"/>
      <use x="180.615234" xlink:href="#DejaVuSansMono-97"/>
      <use x="240.820312" xlink:href="#DejaVuSansMono-120"/>
      <use x="301.025391" xlink:href="#DejaVuSansMono-32"/>
      <use x="361.230469" xlink:href="#DejaVuSansMono-32"/>
      <use x="421.435547" xlink:href="#DejaVuSansMono-61"/>
      <use x="481.640625" xlink:href="#DejaVuSansMono-32"/>
      <use x="541.845703" xlink:href="#DejaVuSansMono-54"/>
      <use x="602.050781" xlink:href="#DejaVuSansMono-50"/>
      <use x="662.255859" xlink:href="#DejaVuSansMono-50"/>
      <use x="722.460938" xlink:href="#DejaVuSansMono-55"/>
      <use x="782.666016" xlink:href="#DejaVuSansMono-49"/>
      <use x="842.871094" xlink:href="#DejaVuSansMono-55"/>
      <use x="903.076172" xlink:href="#DejaVuSansMono-57"/>
      <use x="963.28125" xlink:href="#DejaVuSansMono-48"/>
      <use x="1023.486328" xlink:href="#DejaVuSansMono-49"/>
      <use x="1083.691406" xlink:href="#DejaVuSansMono-54"/>
      <use x="1143.896484" xlink:href="#DejaVuSansMono-50"/>
      <use x="1204.101562" xlink:href="#DejaVuSansMono-48"/>
     </g>
     <!-- x_max  = 364 -->
     <g transform="translate(373.064062 48.584625)scale(0.06 -0.06)">
      <use xlink:href="#DejaVuSansMono-120"/>
      <use x="60.205078" xlink:href="#DejaVuSansMono-95"/>
      <use x="120.410156" xlink:href="#DejaVuSansMono-109"/>
      <use x="180.615234" xlink:href="#DejaVuSansMono-97"/>
      <use x="240.820312" xlink:href="#DejaVuSansMono-120"/>
      <use x="301.025391" xlink:href="#DejaVuSansMono-32"/>
      <use x="361.230469" xlink:href="#DejaVuSansMono-32"/>
      <use x="421.435547" xlink:href="#DejaVuSansMono-61"/>
      <use x="481.640625" xlink:href="#DejaVuSansMono-32"/>
      <use x="541.845703" xlink:href="#DejaVuSansMono-51"/>
      <use x="602.050781" xlink:href="#DejaVuSansMono-54"/>
      <use x="662.255859" xlink:href="#DejaVuSansMono-52"/>
     </g>
    </g>
    <g id="line2d_17">
     <path d="M 356.264062 66.499875 
L 368.264062 66.499875 
" style="fill:none;stroke:#ff7f0e;stroke-linecap:square;stroke-width:0.666667;"/>
    </g>
    <g id="line2d_18"/>
    <g id="text_17">
     <!-- "Widest":  -->
     <g transform="translate(373.064062 57.59025)scale(0.06 -0.06)">
      <defs>
       <path d="M 0 72.90625 
L 9.625 72.90625 
L 16.609375 13.71875 
L 24.90625 52.875 
L 35.203125 52.875 
L 43.609375 13.625 
L 50.59375 72.90625 
L 60.203125 72.90625 
L 49.3125 0 
L 39.984375 0 
L 30.078125 43.3125 
L 20.21875 0 
L 10.890625 0 
z
" id="DejaVuSansMono-87"/>
       <path d="M 12.5 54.6875 
L 35.5 54.6875 
L 35.5 6.984375 
L 53.328125 6.984375 
L 53.328125 0 
L 8.6875 0 
L 8.6875 6.984375 
L 26.515625 6.984375 
L 26.515625 47.703125 
L 12.5 47.703125 
z
M 26.515625 75.984375 
L 35.5 75.984375 
L 35.5 64.59375 
L 26.515625 64.59375 
z
" id="DejaVuSansMono-105"/>
       <path d="M 41.890625 47.703125 
L 41.890625 75.984375 
L 50.875 75.984375 
L 50.875 0 
L 41.890625 0 
L 41.890625 6.890625 
Q 39.65625 2.828125 35.90625 0.703125 
Q 32.171875 -1.421875 27.296875 -1.421875 
Q 17.390625 -1.421875 11.6875 6.265625 
Q 6 13.96875 6 27.484375 
Q 6 40.828125 11.71875 48.40625 
Q 17.4375 56 27.296875 56 
Q 32.234375 56 35.984375 53.875 
Q 39.75 51.765625 41.890625 47.703125 
z
M 15.484375 27.296875 
Q 15.484375 16.84375 18.796875 11.515625 
Q 22.125 6.203125 28.609375 6.203125 
Q 35.109375 6.203125 38.5 11.5625 
Q 41.890625 16.9375 41.890625 27.296875 
Q 41.890625 37.703125 38.5 43.046875 
Q 35.109375 48.390625 28.609375 48.390625 
Q 22.125 48.390625 18.796875 43.0625 
Q 15.484375 37.75 15.484375 27.296875 
z
" id="DejaVuSansMono-100"/>
      </defs>
      <use xlink:href="#DejaVuSansMono-34"/>
      <use x="60.205078" xlink:href="#DejaVuSansMono-87"/>
      <use x="120.410156" xlink:href="#DejaVuSansMono-105"/>
      <use x="180.615234" xlink:href="#DejaVuSansMono-100"/>
      <use x="240.820312" xlink:href="#DejaVuSansMono-101"/>
      <use x="301.025391" xlink:href="#DejaVuSansMono-115"/>
      <use x="361.230469" xlink:href="#DejaVuSansMono-116"/>
      <use x="421.435547" xlink:href="#DejaVuSansMono-34"/>
      <use x="481.640625" xlink:href="#DejaVuSansMono-58"/>
      <use x="541.845703" xlink:href="#DejaVuSansMono-32"/>
     </g>
     <!-- y_0    = 3064033 -->
     <g transform="translate(373.064062 64.347187)scale(0.06 -0.06)">
      <use xlink:href="#DejaVuSansMono-121"/>
      <use x="60.205078" xlink:href="#DejaVuSansMono-95"/>
      <use x="120.410156" xlink:href="#DejaVuSansMono-48"/>
      <use x="180.615234" xlink:href="#DejaVuSansMono-32"/>
      <use x="240.820312" xlink:href="#DejaVuSansMono-32"/>
      <use x="301.025391" xlink:href="#DejaVuSansMono-32"/>
      <use x="361.230469" xlink:href="#DejaVuSansMono-32"/>
      <use x="421.435547" xlink:href="#DejaVuSansMono-61"/>
      <use x="481.640625" xlink:href="#DejaVuSansMono-32"/>
      <use x="541.845703" xlink:href="#DejaVuSansMono-51"/>
      <use x="602.050781" xlink:href="#DejaVuSansMono-48"/>
      <use x="662.255859" xlink:href="#DejaVuSansMono-54"/>
      <use x="722.460938" xlink:href="#DejaVuSansMono-52"/>
      <use x="782.666016" xlink:href="#DejaVuSansMono-48"/>
      <use x="842.871094" xlink:href="#DejaVuSansMono-51"/>
      <use x="903.076172" xlink:href="#DejaVuSansMono-51"/>
     </g>
     <!-- y_max  = 46571871940 -->
     <g transform="translate(373.064062 71.271)scale(0.06 -0.06)">
      <defs>
       <path d="M 30.078125 34.625 
Q 23.484375 34.625 19.890625 30.9375 
Q 16.3125 27.25 16.3125 20.515625 
Q 16.3125 13.765625 19.9375 10.03125 
Q 23.578125 6.296875 30.078125 6.296875 
Q 36.71875 6.296875 40.296875 9.984375 
Q 43.890625 13.671875 43.890625 20.515625 
Q 43.890625 27.203125 40.25 30.90625 
Q 36.625 34.625 30.078125 34.625 
z
M 21.484375 38.71875 
Q 15.1875 40.328125 11.640625 44.71875 
Q 8.109375 49.125 8.109375 55.328125 
Q 8.109375 64.015625 14.015625 69.109375 
Q 19.921875 74.21875 30.078125 74.21875 
Q 40.28125 74.21875 46.1875 69.109375 
Q 52.09375 64.015625 52.09375 55.328125 
Q 52.09375 49.125 48.546875 44.71875 
Q 45.015625 40.328125 38.71875 38.71875 
Q 46.046875 37.109375 49.921875 32.21875 
Q 53.8125 27.34375 53.8125 19.578125 
Q 53.8125 9.71875 47.515625 4.140625 
Q 41.21875 -1.421875 30.078125 -1.421875 
Q 18.953125 -1.421875 12.671875 4.125 
Q 6.390625 9.671875 6.390625 19.484375 
Q 6.390625 27.296875 10.265625 32.203125 
Q 14.15625 37.109375 21.484375 38.71875 
z
M 17.921875 54.390625 
Q 17.921875 48.53125 21.046875 45.453125 
Q 24.171875 42.390625 30.078125 42.390625 
Q 36.03125 42.390625 39.15625 45.453125 
Q 42.28125 48.53125 42.28125 54.390625 
Q 42.28125 60.359375 39.171875 63.484375 
Q 36.078125 66.609375 30.078125 66.609375 
Q 24.171875 66.609375 21.046875 63.453125 
Q 17.921875 60.296875 17.921875 54.390625 
z
" id="DejaVuSansMono-56"/>
      </defs>
      <use xlink:href="#DejaVuSansMono-121"/>
      <use x="60.205078" xlink:href="#DejaVuSansMono-95"/>
      <use x="120.410156" xlink:href="#DejaVuSansMono-109"/>
      <use x="180.615234" xlink:href="#DejaVuSansMono-97"/>
      <use x="240.820312" xlink:href="#DejaVuSansMono-120"/>
      <use x="301.025391" xlink:href="#DejaVuSansMono-32"/>
      <use x="361.230469" xlink:href="#DejaVuSansMono-32"/>
      <use x="421.435547" xlink:href="#DejaVuSansMono-61"/>
      <use x="481.640625" xlink:href="#DejaVuSansMono-32"/>
      <use x="541.845703" xlink:href="#DejaVuSansMono-52"/>
      <use x="602.050781" xlink:href="#DejaVuSansMono-54"/>
      <use x="662.255859" xlink:href="#DejaVuSansMono-53"/>
      <use x="722.460938" xlink:href="#DejaVuSansMono-55"/>
      <use x="782.666016" xlink:href="#DejaVuSansMono-49"/>
      <use x="842.871094" xlink:href="#DejaVuSansMono-56"/>
      <use x="903.076172" xlink:href="#DejaVuSansMono-55"/>
      <use x="963.28125" xlink:href="#DejaVuSansMono-49"/>
      <use x="1023.486328" xlink:href="#DejaVuSansMono-57"/>
      <use x="1083.691406" xlink:href="#DejaVuSansMono-52"/>
      <use x="1143.896484" xlink:href="#DejaVuSansMono-48"/>
     </g>
     <!-- x_max  = 563 -->
     <g transform="translate(373.064062 78.194812)scale(0.06 -0.06)">
      <use xlink:href="#DejaVuSansMono-120"/>
      <use x="60.205078" xlink:href="#DejaVuSansMono-95"/>
      <use x="120.410156" xlink:href="#DejaVuSansMono-109"/>
      <use x="180.615234" xlink:href="#DejaVuSansMono-97"/>
      <use x="240.820312" xlink:href="#DejaVuSansMono-120"/>
      <use x="301.025391" xlink:href="#DejaVuSansMono-32"/>
      <use x="361.230469" xlink:href="#DejaVuSansMono-32"/>
      <use x="421.435547" xlink:href="#DejaVuSansMono-61"/>
      <use x="481.640625" xlink:href="#DejaVuSansMono-32"/>
      <use x="541.845703" xlink:href="#DejaVuSansMono-53"/>
      <use x="602.050781" xlink:href="#DejaVuSansMono-54"/>
      <use x="662.255859" xlink:href="#DejaVuSansMono-51"/>
     </g>
    </g>
   </g>
  </g>
 </g>
 <defs>
  <clipPath id="p3b58b1bfbe">
   <rect height="298.453375" width="418.46125" x="35.85875" y="17.989125"/>
  </clipPath>
 </defs>
</svg>
