<?xml version="1.0" encoding="utf-8" standalone="no"?>
<!DOCTYPE svg PUBLIC "-//W3C//DTD SVG 1.1//EN"
  "http://www.w3.org/Graphics/SVG/1.1/DTD/svg11.dtd">
<!-- Created with matplotlib (https://matplotlib.org/) -->
<svg height="345.6pt" version="1.1" viewBox="0 0 460.8 345.6" width="460.8pt" xmlns="http://www.w3.org/2000/svg" xmlns:xlink="http://www.w3.org/1999/xlink">
 <metadata>
  <rdf:RDF xmlns:cc="http://creativecommons.org/ns#" xmlns:dc="http://purl.org/dc/elements/1.1/" xmlns:rdf="http://www.w3.org/1999/02/22-rdf-syntax-ns#">
   <cc:Work>
    <dc:type rdf:resource="http://purl.org/dc/dcmitype/StillImage"/>
    <dc:date>2022-03-17T00:25:32.090592</dc:date>
    <dc:format>image/svg+xml</dc:format>
    <dc:creator>
     <cc:Agent>
      <dc:title>Matplotlib v3.3.2, https://matplotlib.org/</dc:title>
     </cc:Agent>
    </dc:creator>
   </cc:Work>
  </rdf:RDF>
 </metadata>
 <defs>
  <style type="text/css">*{stroke-linecap:butt;stroke-linejoin:round;}</style>
 </defs>
 <g id="figure_1">
  <g id="patch_1">
   <path d="M 0 345.6 
L 460.8 345.6 
L 460.8 0 
L 0 0 
z
" style="fill:#ffffff;"/>
  </g>
  <g id="axes_1">
   <g id="patch_2">
    <path d="M 33.33875 316.4425 
L 454.32 316.4425 
L 454.32 17.989125 
L 33.33875 17.989125 
z
" style="fill:#ffffff;"/>
   </g>
   <g id="matplotlib.axis_1">
    <g id="xtick_1">
     <g id="line2d_1">
      <defs>
       <path d="M 0 0 
L 0 3.5 
" id="m93d790a218" style="stroke:#000000;stroke-width:0.8;"/>
      </defs>
      <g>
       <use style="stroke:#000000;stroke-width:0.8;" x="52.474261" xlink:href="#m93d790a218" y="316.4425"/>
      </g>
     </g>
     <g id="text_1">
      <!-- 0 -->
      <g transform="translate(50.668168 328.033437)scale(0.06 -0.06)">
       <defs>
        <path d="M 23.578125 36.625 
Q 23.578125 39.3125 25.453125 41.265625 
Q 27.34375 43.21875 29.984375 43.21875 
Q 32.71875 43.21875 34.671875 41.265625 
Q 36.625 39.3125 36.625 36.625 
Q 36.625 33.890625 34.6875 31.984375 
Q 32.765625 30.078125 29.984375 30.078125 
Q 27.25 30.078125 25.40625 31.9375 
Q 23.578125 33.796875 23.578125 36.625 
z
M 30.078125 66.40625 
Q 23.1875 66.40625 19.796875 58.984375 
Q 16.40625 51.5625 16.40625 36.375 
Q 16.40625 21.234375 19.796875 13.8125 
Q 23.1875 6.390625 30.078125 6.390625 
Q 37.015625 6.390625 40.40625 13.8125 
Q 43.796875 21.234375 43.796875 36.375 
Q 43.796875 51.5625 40.40625 58.984375 
Q 37.015625 66.40625 30.078125 66.40625 
z
M 30.078125 74.21875 
Q 41.75 74.21875 47.734375 64.640625 
Q 53.71875 55.078125 53.71875 36.375 
Q 53.71875 17.71875 47.734375 8.140625 
Q 41.75 -1.421875 30.078125 -1.421875 
Q 18.40625 -1.421875 12.453125 8.140625 
Q 6.5 17.71875 6.5 36.375 
Q 6.5 55.078125 12.453125 64.640625 
Q 18.40625 74.21875 30.078125 74.21875 
z
" id="DejaVuSansMono-48"/>
       </defs>
       <use xlink:href="#DejaVuSansMono-48"/>
      </g>
     </g>
    </g>
    <g id="xtick_2">
     <g id="line2d_2">
      <g>
       <use style="stroke:#000000;stroke-width:0.8;" x="127.81092" xlink:href="#m93d790a218" y="316.4425"/>
      </g>
     </g>
     <g id="text_2">
      <!-- 100 -->
      <g transform="translate(122.392639 328.033437)scale(0.06 -0.06)">
       <defs>
        <path d="M 13.1875 8.296875 
L 28.515625 8.296875 
L 28.515625 64.015625 
L 12.015625 60.296875 
L 12.015625 69.28125 
L 28.421875 72.90625 
L 38.28125 72.90625 
L 38.28125 8.296875 
L 53.421875 8.296875 
L 53.421875 0 
L 13.1875 0 
z
" id="DejaVuSansMono-49"/>
       </defs>
       <use xlink:href="#DejaVuSansMono-49"/>
       <use x="60.205078" xlink:href="#DejaVuSansMono-48"/>
       <use x="120.410156" xlink:href="#DejaVuSansMono-48"/>
      </g>
     </g>
    </g>
    <g id="xtick_3">
     <g id="line2d_3">
      <g>
       <use style="stroke:#000000;stroke-width:0.8;" x="203.147579" xlink:href="#m93d790a218" y="316.4425"/>
      </g>
     </g>
     <g id="text_3">
      <!-- 200 -->
      <g transform="translate(197.729298 328.033437)scale(0.06 -0.06)">
       <defs>
        <path d="M 18.21875 8.296875 
L 51.703125 8.296875 
L 51.703125 0 
L 7.421875 0 
L 7.421875 8.296875 
Q 16.546875 17.921875 23.375 25.296875 
Q 30.21875 32.671875 32.8125 35.6875 
Q 37.703125 41.65625 39.40625 45.34375 
Q 41.109375 49.03125 41.109375 52.875 
Q 41.109375 58.984375 37.515625 62.453125 
Q 33.9375 65.921875 27.6875 65.921875 
Q 23.25 65.921875 18.359375 64.3125 
Q 13.484375 62.703125 8.015625 59.421875 
L 8.015625 69.390625 
Q 13.03125 71.78125 17.890625 73 
Q 22.75 74.21875 27.484375 74.21875 
Q 38.1875 74.21875 44.703125 68.53125 
Q 51.21875 62.84375 51.21875 53.609375 
Q 51.21875 48.921875 49.046875 44.234375 
Q 46.875 39.546875 42 33.890625 
Q 39.265625 30.71875 34.0625 25.09375 
Q 28.859375 19.484375 18.21875 8.296875 
z
" id="DejaVuSansMono-50"/>
       </defs>
       <use xlink:href="#DejaVuSansMono-50"/>
       <use x="60.205078" xlink:href="#DejaVuSansMono-48"/>
       <use x="120.410156" xlink:href="#DejaVuSansMono-48"/>
      </g>
     </g>
    </g>
    <g id="xtick_4">
     <g id="line2d_4">
      <g>
       <use style="stroke:#000000;stroke-width:0.8;" x="278.484238" xlink:href="#m93d790a218" y="316.4425"/>
      </g>
     </g>
     <g id="text_4">
      <!-- 300 -->
      <g transform="translate(273.065957 328.033437)scale(0.06 -0.06)">
       <defs>
        <path d="M 37.890625 39.015625 
Q 45.0625 37.109375 48.875 32.25 
Q 52.6875 27.390625 52.6875 20.125 
Q 52.6875 10.0625 45.921875 4.3125 
Q 39.15625 -1.421875 27.203125 -1.421875 
Q 22.171875 -1.421875 16.9375 -0.484375 
Q 11.71875 0.4375 6.6875 2.203125 
L 6.6875 12.015625 
Q 11.671875 9.421875 16.5 8.15625 
Q 21.34375 6.890625 26.125 6.890625 
Q 34.234375 6.890625 38.578125 10.546875 
Q 42.921875 14.203125 42.921875 21.09375 
Q 42.921875 27.4375 38.578125 31.171875 
Q 34.234375 34.90625 26.8125 34.90625 
L 19.28125 34.90625 
L 19.28125 43.015625 
L 26.8125 43.015625 
Q 33.59375 43.015625 37.40625 45.984375 
Q 41.21875 48.96875 41.21875 54.296875 
Q 41.21875 59.90625 37.671875 62.90625 
Q 34.125 65.921875 27.59375 65.921875 
Q 23.25 65.921875 18.609375 64.9375 
Q 13.96875 63.96875 8.890625 62.015625 
L 8.890625 71.09375 
Q 14.796875 72.65625 19.40625 73.4375 
Q 24.03125 74.21875 27.59375 74.21875 
Q 38.234375 74.21875 44.609375 68.875 
Q 50.984375 63.53125 50.984375 54.6875 
Q 50.984375 48.6875 47.625 44.671875 
Q 44.28125 40.671875 37.890625 39.015625 
z
" id="DejaVuSansMono-51"/>
       </defs>
       <use xlink:href="#DejaVuSansMono-51"/>
       <use x="60.205078" xlink:href="#DejaVuSansMono-48"/>
       <use x="120.410156" xlink:href="#DejaVuSansMono-48"/>
      </g>
     </g>
    </g>
    <g id="xtick_5">
     <g id="line2d_5">
      <g>
       <use style="stroke:#000000;stroke-width:0.8;" x="353.820897" xlink:href="#m93d790a218" y="316.4425"/>
      </g>
     </g>
     <g id="text_5">
      <!-- 400 -->
      <g transform="translate(348.402616 328.033437)scale(0.06 -0.06)">
       <defs>
        <path d="M 35.890625 63.921875 
L 12.890625 25.390625 
L 35.890625 25.390625 
z
M 34.28125 72.90625 
L 45.703125 72.90625 
L 45.703125 25.390625 
L 55.421875 25.390625 
L 55.421875 17.390625 
L 45.703125 17.390625 
L 45.703125 0 
L 35.890625 0 
L 35.890625 17.390625 
L 4.984375 17.390625 
L 4.984375 26.703125 
z
" id="DejaVuSansMono-52"/>
       </defs>
       <use xlink:href="#DejaVuSansMono-52"/>
       <use x="60.205078" xlink:href="#DejaVuSansMono-48"/>
       <use x="120.410156" xlink:href="#DejaVuSansMono-48"/>
      </g>
     </g>
    </g>
    <g id="xtick_6">
     <g id="line2d_6">
      <g>
       <use style="stroke:#000000;stroke-width:0.8;" x="429.157556" xlink:href="#m93d790a218" y="316.4425"/>
      </g>
     </g>
     <g id="text_6">
      <!-- 500 -->
      <g transform="translate(423.739275 328.033437)scale(0.06 -0.06)">
       <defs>
        <path d="M 10.109375 72.90625 
L 47.015625 72.90625 
L 47.015625 64.59375 
L 19.09375 64.59375 
L 19.09375 46.6875 
Q 21.1875 47.46875 23.3125 47.828125 
Q 25.4375 48.1875 27.59375 48.1875 
Q 38.921875 48.1875 45.5625 41.5 
Q 52.203125 34.8125 52.203125 23.390625 
Q 52.203125 11.859375 45.234375 5.21875 
Q 38.28125 -1.421875 26.21875 -1.421875 
Q 20.40625 -1.421875 15.59375 -0.640625 
Q 10.796875 0.140625 6.984375 1.703125 
L 6.984375 11.71875 
Q 11.46875 9.28125 16.015625 8.078125 
Q 20.5625 6.890625 25.296875 6.890625 
Q 33.453125 6.890625 37.859375 11.1875 
Q 42.28125 15.484375 42.28125 23.390625 
Q 42.28125 31.203125 37.71875 35.546875 
Q 33.15625 39.890625 25 39.890625 
Q 21.046875 39.890625 17.28125 38.984375 
Q 13.53125 38.09375 10.109375 36.28125 
z
" id="DejaVuSansMono-53"/>
       </defs>
       <use xlink:href="#DejaVuSansMono-53"/>
       <use x="60.205078" xlink:href="#DejaVuSansMono-48"/>
       <use x="120.410156" xlink:href="#DejaVuSansMono-48"/>
      </g>
     </g>
    </g>
    <g id="text_7">
     <!-- n -->
     <g transform="translate(242.023281 337.872187)scale(0.06 -0.06)">
      <defs>
       <path d="M 51.3125 33.890625 
L 51.3125 0 
L 42.28125 0 
L 42.28125 33.890625 
Q 42.28125 41.265625 39.6875 44.71875 
Q 37.109375 48.1875 31.59375 48.1875 
Q 25.296875 48.1875 21.890625 43.71875 
Q 18.5 39.265625 18.5 30.90625 
L 18.5 0 
L 9.515625 0 
L 9.515625 54.6875 
L 18.5 54.6875 
L 18.5 46.484375 
Q 20.90625 51.171875 25 53.578125 
Q 29.109375 56 34.71875 56 
Q 43.0625 56 47.1875 50.5 
Q 51.3125 45.015625 51.3125 33.890625 
z
" id="DejaVuSansMono-110"/>
      </defs>
      <use xlink:href="#DejaVuSansMono-110"/>
     </g>
    </g>
   </g>
   <g id="matplotlib.axis_2">
    <g id="ytick_1">
     <g id="line2d_7">
      <defs>
       <path d="M 0 0 
L -3.5 0 
" id="m077dec244d" style="stroke:#000000;stroke-width:0.8;"/>
      </defs>
      <g>
       <use style="stroke:#000000;stroke-width:0.8;" x="33.33875" xlink:href="#m077dec244d" y="276.767227"/>
      </g>
     </g>
     <g id="text_8">
      <!-- $\mathdefault{10^{1}}$ -->
      <g transform="translate(16.31875 279.062696)scale(0.06 -0.06)">
       <use transform="translate(0 0.684375)" xlink:href="#DejaVuSansMono-49"/>
       <use transform="translate(60.205078 0.684375)" xlink:href="#DejaVuSansMono-48"/>
       <use transform="translate(121.367188 38.965625)scale(0.7)" xlink:href="#DejaVuSansMono-49"/>
      </g>
     </g>
    </g>
    <g id="ytick_2">
     <g id="line2d_8">
      <g>
       <use style="stroke:#000000;stroke-width:0.8;" x="33.33875" xlink:href="#m077dec244d" y="224.548806"/>
      </g>
     </g>
     <g id="text_9">
      <!-- $\mathdefault{10^{3}}$ -->
      <g transform="translate(16.31875 226.844275)scale(0.06 -0.06)">
       <use transform="translate(0 0.765625)" xlink:href="#DejaVuSansMono-49"/>
       <use transform="translate(60.205078 0.765625)" xlink:href="#DejaVuSansMono-48"/>
       <use transform="translate(121.367188 39.046875)scale(0.7)" xlink:href="#DejaVuSansMono-51"/>
      </g>
     </g>
    </g>
    <g id="ytick_3">
     <g id="line2d_9">
      <g>
       <use style="stroke:#000000;stroke-width:0.8;" x="33.33875" xlink:href="#m077dec244d" y="172.330386"/>
      </g>
     </g>
     <g id="text_10">
      <!-- $\mathdefault{10^{5}}$ -->
      <g transform="translate(16.31875 174.625854)scale(0.06 -0.06)">
       <use transform="translate(0 0.684375)" xlink:href="#DejaVuSansMono-49"/>
       <use transform="translate(60.205078 0.684375)" xlink:href="#DejaVuSansMono-48"/>
       <use transform="translate(121.367188 38.965625)scale(0.7)" xlink:href="#DejaVuSansMono-53"/>
      </g>
     </g>
    </g>
    <g id="ytick_4">
     <g id="line2d_10">
      <g>
       <use style="stroke:#000000;stroke-width:0.8;" x="33.33875" xlink:href="#m077dec244d" y="120.111965"/>
      </g>
     </g>
     <g id="text_11">
      <!-- $\mathdefault{10^{7}}$ -->
      <g transform="translate(16.31875 122.407434)scale(0.06 -0.06)">
       <defs>
        <path d="M 6.78125 72.90625 
L 52.6875 72.90625 
L 52.6875 68.703125 
L 26.609375 0 
L 16.3125 0 
L 41.703125 64.59375 
L 6.78125 64.59375 
z
" id="DejaVuSansMono-55"/>
       </defs>
       <use transform="translate(0 0.684375)" xlink:href="#DejaVuSansMono-49"/>
       <use transform="translate(60.205078 0.684375)" xlink:href="#DejaVuSansMono-48"/>
       <use transform="translate(121.367188 38.965625)scale(0.7)" xlink:href="#DejaVuSansMono-55"/>
      </g>
     </g>
    </g>
    <g id="ytick_5">
     <g id="line2d_11">
      <g>
       <use style="stroke:#000000;stroke-width:0.8;" x="33.33875" xlink:href="#m077dec244d" y="67.893544"/>
      </g>
     </g>
     <g id="text_12">
      <!-- $\mathdefault{10^{9}}$ -->
      <g transform="translate(16.31875 70.189013)scale(0.06 -0.06)">
       <defs>
        <path d="M 29.109375 32.328125 
Q 35.40625 32.328125 38.984375 36.859375 
Q 42.578125 41.40625 42.578125 49.421875 
Q 42.578125 57.421875 38.984375 61.953125 
Q 35.40625 66.5 29.109375 66.5 
Q 22.5625 66.5 19.234375 62.171875 
Q 15.921875 57.859375 15.921875 49.421875 
Q 15.921875 40.921875 19.21875 36.625 
Q 22.515625 32.328125 29.109375 32.328125 
z
M 11.53125 1.515625 
L 11.53125 10.59375 
Q 14.59375 8.796875 18.0625 7.84375 
Q 21.53125 6.890625 25.296875 6.890625 
Q 34.671875 6.890625 39.46875 13.9375 
Q 44.28125 21 44.28125 34.71875 
Q 42 29.828125 37.84375 27.21875 
Q 33.6875 24.609375 28.328125 24.609375 
Q 17.78125 24.609375 11.984375 31.09375 
Q 6.203125 37.59375 6.203125 49.515625 
Q 6.203125 61.28125 12.125 67.75 
Q 18.0625 74.21875 28.90625 74.21875 
Q 41.609375 74.21875 47.515625 65.078125 
Q 53.421875 55.953125 53.421875 36.375 
Q 53.421875 17.96875 46.3125 8.265625 
Q 39.203125 -1.421875 25.6875 -1.421875 
Q 22.125 -1.421875 18.5 -0.65625 
Q 14.890625 0.09375 11.53125 1.515625 
z
" id="DejaVuSansMono-57"/>
       </defs>
       <use transform="translate(0 0.765625)" xlink:href="#DejaVuSansMono-49"/>
       <use transform="translate(60.205078 0.765625)" xlink:href="#DejaVuSansMono-48"/>
       <use transform="translate(121.367188 39.046875)scale(0.7)" xlink:href="#DejaVuSansMono-57"/>
      </g>
     </g>
    </g>
    <g id="text_13">
     <!-- y_n -->
     <g transform="translate(10.904062 172.634094)rotate(-90)scale(0.06 -0.06)">
      <defs>
       <path d="M 41.890625 17.578125 
Q 39.65625 11.859375 36.1875 2.546875 
Q 31.34375 -10.359375 29.6875 -13.1875 
Q 27.4375 -17 24.0625 -18.890625 
Q 20.703125 -20.796875 16.21875 -20.796875 
L 8.984375 -20.796875 
L 8.984375 -13.28125 
L 14.3125 -13.28125 
Q 18.265625 -13.28125 20.5 -10.984375 
Q 22.75 -8.6875 26.21875 0.875 
L 5.078125 54.6875 
L 14.59375 54.6875 
L 30.8125 11.921875 
L 46.78125 54.6875 
L 56.296875 54.6875 
z
" id="DejaVuSansMono-121"/>
       <path d="M 60.203125 -19.671875 
L 60.203125 -23.578125 
L 0 -23.578125 
L 0 -19.671875 
z
" id="DejaVuSansMono-95"/>
      </defs>
      <use xlink:href="#DejaVuSansMono-121"/>
      <use x="60.205078" xlink:href="#DejaVuSansMono-95"/>
      <use x="120.410156" xlink:href="#DejaVuSansMono-110"/>
     </g>
    </g>
   </g>
   <g id="line2d_12">
    <path clip-path="url(#p67924a16b6)" d="M 52.474261 161.056443 
L 53.227628 148.59917 
L 53.980995 156.458825 
L 54.734361 144.001557 
L 55.487728 151.861212 
L 56.241094 139.403947 
L 56.994461 147.263602 
L 57.747827 134.806339 
L 58.501194 142.665994 
L 59.254561 130.208732 
L 60.007927 138.068388 
L 60.761294 125.611127 
L 62.268027 141.330438 
L 63.021394 128.873176 
L 63.77476 136.732832 
L 64.528127 124.275571 
L 66.788227 147.854537 
L 67.541593 135.397274 
L 68.29496 143.256929 
L 69.048326 130.799667 
L 69.801693 138.659323 
L 70.55506 126.202061 
L 72.815159 149.781028 
L 73.568526 137.323763 
L 74.321892 145.183419 
L 75.075259 132.726156 
L 75.828626 140.585812 
L 76.581992 128.12855 
L 77.335359 135.988206 
L 78.088725 123.530945 
L 78.842092 131.3906 
L 79.595459 118.93334 
L 80.348825 126.792996 
L 81.102192 114.335736 
L 82.608925 130.055047 
L 83.362292 117.597787 
L 84.115658 125.457442 
L 84.869025 113.000182 
L 85.622391 120.859838 
L 86.375758 108.402578 
L 87.129124 116.262234 
L 87.882491 103.804974 
L 88.635858 111.66463 
L 89.389224 99.20737 
L 90.142591 107.067026 
L 90.895957 94.609766 
L 91.649324 102.469422 
L 92.402691 90.012163 
L 93.156057 97.871818 
L 93.909424 85.414559 
L 96.169524 108.993525 
L 96.92289 96.536266 
L 97.676257 104.395921 
L 98.429623 91.938662 
L 99.18299 99.798318 
L 99.936356 87.341058 
L 101.44309 103.060369 
L 102.196456 90.60311 
L 102.949823 98.462766 
L 103.703189 86.005506 
L 105.209923 101.724817 
L 105.963289 89.267558 
L 106.716656 97.127213 
L 107.470022 84.669954 
L 108.223389 92.52961 
L 108.976756 80.07235 
L 109.730122 87.932006 
L 110.483489 75.474747 
L 111.990222 91.194058 
L 112.743588 78.736798 
L 113.496955 86.596454 
L 114.250322 74.139195 
L 115.003688 81.99885 
L 115.757055 69.541591 
L 116.510421 77.401246 
L 117.263788 64.943987 
L 118.017155 72.803643 
L 118.770521 60.346383 
L 121.783988 91.785005 
L 122.537354 79.327746 
L 123.290721 87.187402 
L 124.044087 74.730142 
L 124.797454 82.589798 
L 125.550821 70.132539 
L 127.057554 85.85185 
L 127.81092 73.39459 
L 128.564287 81.254246 
L 129.317653 68.796987 
L 130.07102 76.656642 
L 130.824387 64.199383 
L 131.577753 72.059038 
L 132.33112 59.601779 
L 133.837853 75.32109 
L 134.59122 62.863831 
L 136.851319 86.442797 
L 137.604686 73.985538 
L 138.358053 81.845194 
L 139.111419 69.387934 
L 139.864786 77.24759 
L 140.618152 64.790331 
L 141.371519 72.649986 
L 142.124885 60.192727 
L 142.878252 68.052382 
L 143.631619 55.595123 
L 145.138352 71.314434 
L 145.891718 58.857175 
L 146.645085 66.71683 
L 147.398452 54.259571 
L 149.658551 77.838538 
L 150.411918 65.381278 
L 151.918651 81.100589 
L 152.672018 68.64333 
L 154.178751 84.362641 
L 154.932117 71.905382 
L 155.685484 79.765037 
L 156.438851 67.307778 
L 157.945584 83.027089 
L 158.69895 70.56983 
L 160.205684 86.289141 
L 160.95905 73.831882 
L 161.712417 81.691537 
L 162.465783 69.234278 
L 163.21915 77.093933 
L 163.972517 64.636674 
L 165.47925 80.355985 
L 166.232616 67.898726 
L 166.985983 75.758381 
L 167.739349 63.301122 
L 168.492716 71.160778 
L 169.246083 58.703518 
L 169.999449 66.563174 
L 170.752816 54.105915 
L 172.259549 69.825226 
L 173.012916 57.367967 
L 173.766282 65.227622 
L 174.519649 52.770363 
L 176.026382 68.489674 
L 176.779749 56.032415 
L 177.533115 63.89207 
L 178.286482 51.434811 
L 179.039848 59.294466 
L 179.793215 46.837207 
L 180.546582 54.696863 
L 181.299948 42.239603 
L 182.806681 57.958914 
L 183.560048 45.501655 
L 187.326881 84.799933 
L 188.080247 72.342673 
L 189.586981 88.061984 
L 190.340347 75.604725 
L 191.093714 83.464381 
L 191.84708 71.007121 
L 192.600447 78.866777 
L 193.353814 66.409518 
L 194.10718 74.269173 
L 194.860547 61.811914 
L 195.613913 69.671569 
L 196.36728 57.21431 
L 197.120646 65.073966 
L 197.874013 52.616706 
L 198.62738 60.476362 
L 199.380746 48.019103 
L 200.887479 63.738414 
L 201.640846 51.281154 
L 202.394213 59.14081 
L 203.147579 46.683551 
L 203.900946 54.543206 
L 204.654312 42.085947 
L 206.161046 57.805258 
L 206.914412 45.347999 
L 207.667779 53.207654 
L 208.421145 40.750395 
L 209.174512 48.61005 
L 209.927878 36.152791 
L 210.681245 44.012447 
L 211.434612 31.555187 
L 213.694711 55.134154 
L 214.448078 42.676895 
L 215.954811 58.396206 
L 216.708178 45.938946 
L 217.461544 53.798602 
L 218.214911 41.341343 
L 218.968278 49.200998 
L 219.721644 36.743739 
L 221.981744 60.322705 
L 222.735111 47.865446 
L 223.488477 55.725102 
L 224.241844 43.267843 
L 228.762043 90.425775 
L 229.51541 77.968516 
L 231.022143 93.687827 
L 231.77551 81.230568 
L 233.282243 96.949879 
L 234.035609 84.49262 
L 235.542343 100.211931 
L 236.295709 87.754671 
L 237.049076 95.614327 
L 237.802442 83.157068 
L 240.062542 106.736034 
L 240.815909 94.278775 
L 243.829375 125.717397 
L 244.582742 113.260137 
L 246.089475 128.979448 
L 246.842841 116.522188 
L 250.609674 155.820465 
L 251.363041 143.363197 
L 258.14334 214.100097 
L 258.896707 201.641333 
L 260.40344 217.360644 
L 261.156807 204.90138 
L 263.416906 228.480347 
L 264.170273 216.017743 
L 264.923639 223.877398 
L 265.677006 211.416577 
L 268.690472 242.855199 
L 269.443839 230.378962 
L 270.197206 238.238618 
L 270.950572 225.768724 
L 271.703939 233.62838 
L 272.457305 221.162706 
L 273.964039 236.882017 
L 274.717405 224.413547 
L 276.224138 240.132858 
L 276.977505 227.660669 
L 279.237605 251.239636 
L 279.990971 238.74266 
L 280.744338 246.602315 
L 281.497704 234.118656 
L 282.251071 241.978311 
L 283.004438 229.503485 
L 283.757804 237.363141 
L 284.511171 224.894186 
L 285.264537 232.753841 
L 286.017904 220.288792 
L 289.03137 251.727414 
L 289.784737 239.228695 
L 290.538104 247.088351 
L 291.29147 234.603536 
L 292.798203 250.322847 
L 293.55157 237.828951 
L 294.304936 245.688606 
L 295.058303 233.206988 
L 295.81167 241.066644 
L 296.565036 228.593174 
L 298.071769 244.312485 
L 298.825136 231.833648 
L 299.578503 239.693304 
L 300.331869 227.221682 
L 301.085236 235.081338 
L 301.838602 222.614514 
L 302.591969 230.474169 
L 303.345336 218.010538 
L 304.852069 233.729849 
L 305.605435 221.264099 
L 307.865535 244.843066 
L 308.618902 232.363196 
L 309.372268 240.222851 
L 310.125635 227.750544 
L 310.879001 235.610199 
L 311.632368 223.142919 
L 313.139101 238.86223 
L 313.892468 226.391622 
L 314.645834 234.251278 
L 315.399201 221.785129 
L 316.905934 237.50444 
L 317.659301 225.035338 
L 318.412667 232.894994 
L 319.166034 220.429846 
L 319.919401 228.289502 
L 320.672767 215.826987 
L 321.426134 223.686643 
L 322.1795 211.225881 
L 322.932867 219.085536 
L 323.686233 206.625943 
L 324.4396 214.485598 
L 325.192967 202.026783 
L 327.453066 225.60575 
L 328.206433 213.144342 
L 328.9598 221.003998 
L 329.713166 208.543974 
L 330.466533 216.403629 
L 331.219899 203.944527 
L 331.973266 211.804183 
L 332.726633 199.345695 
L 335.740099 230.784317 
L 336.493465 218.320509 
L 338.000199 234.03982 
L 338.753565 221.573835 
L 340.260298 237.293146 
L 341.013665 224.824263 
L 344.027131 256.262885 
L 344.780498 243.743833 
L 347.040598 267.322799 
L 347.793964 254.702385 
L 348.547331 262.56204 
L 349.300697 249.997301 
L 350.054064 257.856956 
L 350.807431 245.328605 
L 354.574264 284.626883 
L 355.32763 271.437816 
L 358.341097 302.876437 
L 358.341097 302.876437 
" style="fill:none;stroke:#1f77b4;stroke-linecap:square;stroke-width:0.666667;"/>
   </g>
   <g id="line2d_13">
    <path clip-path="url(#p67924a16b6)" d="M 52.474261 151.526465 
L 53.227628 139.0692 
L 53.980995 146.928855 
L 54.734361 134.471592 
L 56.241094 150.190903 
L 56.994461 137.733638 
L 57.747827 145.593294 
L 58.501194 133.136031 
L 59.254561 140.995686 
L 60.007927 128.538425 
L 60.761294 136.39808 
L 61.51466 123.940819 
L 63.021394 139.66013 
L 63.77476 127.202869 
L 64.528127 135.062525 
L 65.281493 122.605264 
L 66.788227 138.324575 
L 67.541593 125.867314 
L 68.29496 133.726969 
L 69.048326 121.269709 
L 69.801693 129.129364 
L 70.55506 116.672104 
L 71.308426 124.53176 
L 72.061793 112.0745 
L 72.815159 119.934155 
L 73.568526 107.476896 
L 74.321892 115.336551 
L 75.075259 102.879292 
L 75.828626 110.738947 
L 76.581992 98.281688 
L 77.335359 106.141344 
L 78.088725 93.684084 
L 78.842092 101.54374 
L 79.595459 89.08648 
L 81.855558 112.665447 
L 82.608925 100.208187 
L 83.362292 108.067843 
L 84.115658 95.610584 
L 87.129124 127.049206 
L 87.882491 114.591946 
L 88.635858 122.451601 
L 89.389224 109.994341 
L 90.142591 117.853997 
L 90.895957 105.396737 
L 91.649324 113.256393 
L 92.402691 100.799133 
L 93.156057 108.658789 
L 93.909424 96.20153 
L 94.66279 104.061185 
L 95.416157 91.603926 
L 96.169524 99.463581 
L 96.92289 87.006322 
L 98.429623 102.725633 
L 99.18299 90.268374 
L 99.936356 98.128029 
L 100.689723 85.67077 
L 102.196456 101.390081 
L 102.949823 88.932822 
L 103.703189 96.792477 
L 104.456556 84.335218 
L 105.209923 92.194873 
L 105.963289 79.737614 
L 106.716656 87.59727 
L 107.470022 75.14001 
L 111.236855 114.438288 
L 111.990222 101.981028 
L 113.496955 117.700339 
L 114.250322 105.24308 
L 115.003688 113.102735 
L 115.757055 100.645476 
L 116.510421 108.505131 
L 117.263788 96.047872 
L 118.017155 103.907527 
L 118.770521 91.450268 
L 119.523888 99.309924 
L 120.277254 86.852664 
L 121.030621 94.71232 
L 121.783988 82.255061 
L 122.537354 90.114716 
L 123.290721 77.657457 
L 124.044087 85.517112 
L 124.797454 73.059853 
L 125.550821 80.919509 
L 126.304187 68.462249 
L 127.057554 76.321905 
L 127.81092 63.864646 
L 128.564287 71.724301 
L 129.317653 59.267042 
L 130.07102 67.126697 
L 130.824387 54.669438 
L 131.577753 62.529094 
L 132.33112 50.071834 
L 133.084486 57.93149 
L 133.837853 45.474231 
L 135.344586 61.193542 
L 136.097953 48.736282 
L 138.358053 72.315249 
L 139.111419 59.85799 
L 140.618152 75.577301 
L 141.371519 63.120041 
L 142.124885 70.979697 
L 142.878252 58.522438 
L 145.138352 82.101404 
L 145.891718 69.644145 
L 146.645085 77.5038 
L 147.398452 65.046541 
L 148.151818 72.906197 
L 148.905185 60.448937 
L 149.658551 68.308593 
L 150.411918 55.851334 
L 151.165285 63.710989 
L 151.918651 51.25373 
L 154.932117 82.692352 
L 155.685484 70.235093 
L 156.438851 78.094748 
L 157.192217 65.637489 
L 158.69895 81.3568 
L 159.452317 68.899541 
L 160.205684 76.759196 
L 160.95905 64.301937 
L 163.972517 95.740559 
L 164.725883 83.2833 
L 166.985983 106.862266 
L 167.739349 94.405007 
L 168.492716 102.264662 
L 169.246083 89.807403 
L 169.999449 97.667058 
L 170.752816 85.209799 
L 171.506182 93.069455 
L 172.259549 80.612195 
L 173.766282 96.331506 
L 174.519649 83.874247 
L 176.026382 99.593558 
L 176.779749 87.136299 
L 177.533115 94.995954 
L 178.286482 82.538695 
L 179.039848 90.398351 
L 179.793215 77.941091 
L 180.546582 85.800747 
L 181.299948 73.343488 
L 182.053315 81.203143 
L 182.806681 68.745884 
L 183.560048 76.605539 
L 184.313414 64.14828 
L 185.066781 72.007936 
L 185.820148 59.550676 
L 186.573514 67.410332 
L 187.326881 54.953073 
L 191.093714 94.25135 
L 191.84708 81.794091 
L 193.353814 97.513402 
L 194.10718 85.056142 
L 194.860547 92.915798 
L 195.613913 80.458539 
L 197.120646 96.17785 
L 197.874013 83.72059 
L 199.380746 99.439901 
L 200.134113 86.982642 
L 201.640846 102.701953 
L 202.394213 90.244694 
L 203.147579 98.104349 
L 203.900946 85.64709 
L 205.407679 101.366401 
L 206.161046 88.909142 
L 206.914412 96.768797 
L 207.667779 84.311538 
L 209.174512 100.030849 
L 209.927878 87.57359 
L 210.681245 95.433245 
L 211.434612 82.975986 
L 213.694711 106.554952 
L 214.448078 94.097693 
L 215.954811 109.817004 
L 216.708178 97.359745 
L 219.721644 128.798367 
L 220.475011 116.341107 
L 221.981744 132.060417 
L 222.735111 119.603157 
L 224.241844 135.322468 
L 224.99521 122.865207 
L 225.748577 130.724863 
L 226.501943 118.267603 
L 227.25531 126.127258 
L 228.008677 113.669998 
L 228.762043 121.529654 
L 229.51541 109.072394 
L 231.77551 132.651361 
L 232.528876 120.1941 
L 233.282243 128.053756 
L 234.035609 115.596496 
L 235.542343 131.315807 
L 236.295709 118.858547 
L 237.049076 126.718202 
L 237.802442 114.260942 
L 238.555809 122.120598 
L 239.309175 109.663338 
L 241.569275 133.242304 
L 242.322642 120.785044 
L 243.076008 128.6447 
L 243.829375 116.18744 
L 245.336108 131.906751 
L 246.089475 119.44949 
L 247.596208 135.168801 
L 248.349575 122.711541 
L 249.102941 130.571196 
L 249.856308 118.113936 
L 251.363041 133.833247 
L 252.116407 121.375986 
L 253.623141 137.095297 
L 254.376507 124.638036 
L 256.636607 148.217003 
L 257.389974 135.759739 
L 258.14334 143.619395 
L 258.896707 131.162132 
L 259.650073 139.021788 
L 260.40344 126.564527 
L 261.156807 134.424182 
L 261.910173 121.966922 
L 264.170273 145.545888 
L 264.923639 133.088625 
L 265.677006 140.948281 
L 266.430373 128.491019 
L 268.690472 152.069986 
L 269.443839 139.61272 
L 270.950572 155.332031 
L 271.703939 142.874763 
L 272.457305 150.734419 
L 273.210672 138.277154 
L 275.470772 161.856121 
L 276.224138 149.398846 
L 276.977505 157.258502 
L 277.730872 144.801233 
L 279.237605 160.520544 
L 279.990971 148.063271 
L 280.744338 155.922927 
L 281.497704 143.465658 
L 282.251071 151.325314 
L 283.004438 138.868049 
L 286.017904 170.306671 
L 286.771271 157.84938 
L 287.524637 165.709035 
L 288.278004 153.251755 
L 290.538104 176.830722 
L 291.29147 164.373406 
L 292.798203 180.092717 
L 293.55157 167.635383 
L 294.304936 175.495038 
L 295.058303 163.037729 
L 295.81167 170.897385 
L 296.565036 158.440092 
L 297.318403 166.299748 
L 298.071769 153.842466 
L 298.825136 161.702122 
L 299.578503 149.244848 
L 300.331869 157.104503 
L 301.085236 144.647234 
L 301.838602 152.50689 
L 302.591969 140.049624 
L 303.345336 147.909279 
L 304.098702 135.452016 
L 306.358802 159.030982 
L 307.112168 146.573711 
L 308.618902 162.293022 
L 309.372268 149.835747 
L 310.125635 157.695403 
L 310.879001 145.238133 
L 312.385735 160.957444 
L 313.139101 148.500171 
L 314.645834 164.219482 
L 315.399201 151.762204 
L 316.905934 167.481515 
L 317.659301 155.024232 
L 319.166034 170.743543 
L 319.919401 158.28625 
L 322.1795 181.865217 
L 322.932867 169.40787 
L 325.192967 192.986837 
L 325.946333 180.529344 
L 326.6997 188.388999 
L 327.453066 175.931584 
L 328.206433 183.79124 
L 328.9598 171.333877 
L 329.713166 179.193532 
L 330.466533 166.736204 
L 331.973266 182.455515 
L 332.726633 169.998163 
L 334.233366 185.717474 
L 334.986732 173.260092 
L 338.753565 212.558369 
L 339.506932 200.099797 
L 340.260298 207.959453 
L 341.013665 195.501318 
L 341.767032 203.360974 
L 342.520398 190.903131 
L 343.273765 198.762787 
L 344.027131 186.305139 
L 344.780498 194.164794 
L 345.533865 181.707276 
L 346.287231 189.566931 
L 347.040598 177.109499 
L 349.300697 200.688466 
L 350.054064 188.230745 
L 351.560797 203.950056 
L 352.314164 191.492183 
L 353.06753 199.351838 
L 353.820897 186.894169 
L 354.574264 194.753825 
L 355.32763 182.296293 
L 356.834363 198.015604 
L 357.58773 185.55798 
L 359.84783 209.136947 
L 360.601196 196.678717 
L 364.368029 235.976994 
L 365.121396 223.509384 
L 367.381496 247.088351 
L 368.134862 234.603536 
L 369.641595 250.322847 
L 370.394962 237.828951 
L 371.148329 245.688606 
L 371.901695 233.206988 
L 372.655062 241.066644 
L 373.408428 228.593174 
L 374.915162 244.312485 
L 375.668528 231.833648 
L 376.421895 239.693304 
L 377.175261 227.221682 
L 377.928628 235.081338 
L 378.681994 222.614514 
L 379.435361 230.474169 
L 380.188728 218.010538 
L 381.695461 233.729849 
L 382.448827 221.264099 
L 384.708927 244.843066 
L 385.462294 232.363196 
L 386.21566 240.222851 
L 386.969027 227.750544 
L 387.722394 235.610199 
L 388.47576 223.142919 
L 389.982493 238.86223 
L 390.73586 226.391622 
L 391.489226 234.251278 
L 392.242593 221.785129 
L 393.749326 237.50444 
L 394.502693 225.035338 
L 395.256059 232.894994 
L 396.009426 220.429846 
L 396.762793 228.289502 
L 397.516159 215.826987 
L 398.269526 223.686643 
L 399.022892 211.225881 
L 399.776259 219.085536 
L 400.529626 206.625943 
L 401.282992 214.485598 
L 402.036359 202.026783 
L 404.296458 225.60575 
L 405.049825 213.144342 
L 405.803192 221.003998 
L 406.556558 208.543974 
L 407.309925 216.403629 
L 408.063291 203.944527 
L 408.816658 211.804183 
L 409.570025 199.345695 
L 412.583491 230.784317 
L 413.336858 218.320509 
L 414.843591 234.03982 
L 415.596957 221.573835 
L 417.10369 237.293146 
L 417.857057 224.824263 
L 420.870523 256.262885 
L 421.62389 243.743833 
L 423.88399 267.322799 
L 424.637356 254.702385 
L 425.390723 262.56204 
L 426.14409 249.997301 
L 426.897456 257.856956 
L 427.650823 245.328605 
L 431.417656 284.626883 
L 432.171022 271.437816 
L 435.184489 302.876437 
L 435.184489 302.876437 
" style="fill:none;stroke:#ff7f0e;stroke-linecap:square;stroke-width:0.666667;"/>
   </g>
   <g id="patch_3">
    <path d="M 33.33875 316.4425 
L 33.33875 17.989125 
" style="fill:none;stroke:#000000;stroke-linecap:square;stroke-linejoin:miter;stroke-width:0.8;"/>
   </g>
   <g id="patch_4">
    <path d="M 454.32 316.4425 
L 454.32 17.989125 
" style="fill:none;stroke:#000000;stroke-linecap:square;stroke-linejoin:miter;stroke-width:0.8;"/>
   </g>
   <g id="patch_5">
    <path d="M 33.33875 316.4425 
L 454.32 316.4425 
" style="fill:none;stroke:#000000;stroke-linecap:square;stroke-linejoin:miter;stroke-width:0.8;"/>
   </g>
   <g id="patch_6">
    <path d="M 33.33875 17.989125 
L 454.32 17.989125 
" style="fill:none;stroke:#000000;stroke-linecap:square;stroke-linejoin:miter;stroke-width:0.8;"/>
   </g>
   <g id="text_14">
    <!-- "3y+1" problem -->
    <g transform="translate(213.487 11.989125)scale(0.072 -0.072)">
     <defs>
      <path d="M 43.703125 72.90625 
L 43.703125 45.796875 
L 35.203125 45.796875 
L 35.203125 72.90625 
z
M 25 72.90625 
L 25 45.796875 
L 16.5 45.796875 
L 16.5 72.90625 
z
" id="DejaVuSansMono-34"/>
      <path d="M 34.1875 57.171875 
L 34.1875 35.5 
L 55.90625 35.5 
L 55.90625 27.203125 
L 34.1875 27.203125 
L 34.1875 5.515625 
L 25.984375 5.515625 
L 25.984375 27.203125 
L 4.296875 27.203125 
L 4.296875 35.5 
L 25.984375 35.5 
L 25.984375 57.171875 
z
" id="DejaVuSansMono-43"/>
      <path id="DejaVuSansMono-32"/>
      <path d="M 18.3125 6.890625 
L 18.3125 -20.796875 
L 9.28125 -20.796875 
L 9.28125 54.6875 
L 18.3125 54.6875 
L 18.3125 47.703125 
Q 20.5625 51.765625 24.296875 53.875 
Q 28.03125 56 32.90625 56 
Q 42.828125 56 48.46875 48.328125 
Q 54.109375 40.671875 54.109375 27.09375 
Q 54.109375 13.765625 48.4375 6.171875 
Q 42.78125 -1.421875 32.90625 -1.421875 
Q 27.9375 -1.421875 24.1875 0.703125 
Q 20.453125 2.828125 18.3125 6.890625 
z
M 44.671875 27.296875 
Q 44.671875 37.75 41.375 43.0625 
Q 38.09375 48.390625 31.59375 48.390625 
Q 25.046875 48.390625 21.671875 43.046875 
Q 18.3125 37.703125 18.3125 27.296875 
Q 18.3125 16.9375 21.671875 11.5625 
Q 25.046875 6.203125 31.59375 6.203125 
Q 38.09375 6.203125 41.375 11.515625 
Q 44.671875 16.84375 44.671875 27.296875 
z
" id="DejaVuSansMono-112"/>
      <path d="M 56.390625 43.40625 
Q 53.515625 45.65625 50.53125 46.671875 
Q 47.5625 47.703125 44 47.703125 
Q 35.59375 47.703125 31.140625 42.421875 
Q 26.703125 37.15625 26.703125 27.203125 
L 26.703125 0 
L 17.671875 0 
L 17.671875 54.6875 
L 26.703125 54.6875 
L 26.703125 44 
Q 28.953125 49.8125 33.609375 52.90625 
Q 38.28125 56 44.671875 56 
Q 48 56 50.875 55.171875 
Q 53.765625 54.34375 56.390625 52.59375 
z
" id="DejaVuSansMono-114"/>
      <path d="M 30.078125 48.390625 
Q 23.25 48.390625 19.734375 43.0625 
Q 16.21875 37.75 16.21875 27.296875 
Q 16.21875 16.890625 19.734375 11.546875 
Q 23.25 6.203125 30.078125 6.203125 
Q 36.96875 6.203125 40.484375 11.546875 
Q 44 16.890625 44 27.296875 
Q 44 37.75 40.484375 43.0625 
Q 36.96875 48.390625 30.078125 48.390625 
z
M 30.078125 56 
Q 41.453125 56 47.484375 48.625 
Q 53.515625 41.265625 53.515625 27.296875 
Q 53.515625 13.28125 47.5 5.921875 
Q 41.5 -1.421875 30.078125 -1.421875 
Q 18.703125 -1.421875 12.6875 5.921875 
Q 6.6875 13.28125 6.6875 27.296875 
Q 6.6875 41.265625 12.6875 48.625 
Q 18.703125 56 30.078125 56 
z
" id="DejaVuSansMono-111"/>
      <path d="M 44.828125 27.296875 
Q 44.828125 37.75 41.5 43.0625 
Q 38.1875 48.390625 31.6875 48.390625 
Q 25.140625 48.390625 21.765625 43.046875 
Q 18.40625 37.703125 18.40625 27.296875 
Q 18.40625 16.9375 21.765625 11.5625 
Q 25.140625 6.203125 31.6875 6.203125 
Q 38.1875 6.203125 41.5 11.515625 
Q 44.828125 16.84375 44.828125 27.296875 
z
M 18.40625 47.703125 
Q 20.5625 51.703125 24.34375 53.84375 
Q 28.125 56 33.109375 56 
Q 42.96875 56 48.625 48.40625 
Q 54.296875 40.828125 54.296875 27.484375 
Q 54.296875 13.96875 48.609375 6.265625 
Q 42.921875 -1.421875 33.015625 -1.421875 
Q 28.125 -1.421875 24.390625 0.703125 
Q 20.65625 2.828125 18.40625 6.890625 
L 18.40625 0 
L 9.421875 0 
L 9.421875 75.984375 
L 18.40625 75.984375 
z
" id="DejaVuSansMono-98"/>
      <path d="M 31.203125 19.828125 
Q 31.203125 13.765625 33.421875 10.6875 
Q 35.640625 7.625 39.984375 7.625 
L 50.484375 7.625 
L 50.484375 0 
L 39.109375 0 
Q 31.0625 0 26.640625 5.171875 
Q 22.21875 10.359375 22.21875 19.828125 
L 22.21875 69.484375 
L 7.8125 69.484375 
L 7.8125 76.515625 
L 31.203125 76.515625 
z
" id="DejaVuSansMono-108"/>
      <path d="M 54.296875 29.59375 
L 54.296875 25.203125 
L 15.375 25.203125 
L 15.375 24.90625 
Q 15.375 15.96875 20.03125 11.078125 
Q 24.703125 6.203125 33.203125 6.203125 
Q 37.5 6.203125 42.1875 7.5625 
Q 46.875 8.9375 52.203125 11.71875 
L 52.203125 2.78125 
Q 47.078125 0.6875 42.3125 -0.359375 
Q 37.546875 -1.421875 33.109375 -1.421875 
Q 20.359375 -1.421875 13.171875 6.21875 
Q 6 13.875 6 27.296875 
Q 6 40.375 13.03125 48.1875 
Q 20.0625 56 31.78125 56 
Q 42.234375 56 48.265625 48.921875 
Q 54.296875 41.84375 54.296875 29.59375 
z
M 45.3125 32.234375 
Q 45.125 40.140625 41.578125 44.265625 
Q 38.03125 48.390625 31.390625 48.390625 
Q 24.90625 48.390625 20.703125 44.09375 
Q 16.5 39.796875 15.71875 32.171875 
z
" id="DejaVuSansMono-101"/>
      <path d="M 33.015625 49.125 
Q 34.671875 52.640625 37.234375 54.3125 
Q 39.796875 56 43.40625 56 
Q 50 56 52.703125 50.890625 
Q 55.421875 45.796875 55.421875 31.6875 
L 55.421875 0 
L 47.21875 0 
L 47.21875 31.296875 
Q 47.21875 42.875 45.921875 45.671875 
Q 44.625 48.484375 41.21875 48.484375 
Q 37.3125 48.484375 35.859375 45.484375 
Q 34.421875 42.484375 34.421875 31.296875 
L 34.421875 0 
L 26.21875 0 
L 26.21875 31.296875 
Q 26.21875 43.015625 24.828125 45.75 
Q 23.4375 48.484375 19.828125 48.484375 
Q 16.265625 48.484375 14.875 45.484375 
Q 13.484375 42.484375 13.484375 31.296875 
L 13.484375 0 
L 5.328125 0 
L 5.328125 54.6875 
L 13.484375 54.6875 
L 13.484375 50 
Q 15.09375 52.9375 17.5 54.46875 
Q 19.921875 56 23 56 
Q 26.703125 56 29.171875 54.296875 
Q 31.640625 52.59375 33.015625 49.125 
z
" id="DejaVuSansMono-109"/>
     </defs>
     <use xlink:href="#DejaVuSansMono-34"/>
     <use x="60.205078" xlink:href="#DejaVuSansMono-51"/>
     <use x="120.410156" xlink:href="#DejaVuSansMono-121"/>
     <use x="180.615234" xlink:href="#DejaVuSansMono-43"/>
     <use x="240.820312" xlink:href="#DejaVuSansMono-49"/>
     <use x="301.025391" xlink:href="#DejaVuSansMono-34"/>
     <use x="361.230469" xlink:href="#DejaVuSansMono-32"/>
     <use x="421.435547" xlink:href="#DejaVuSansMono-112"/>
     <use x="481.640625" xlink:href="#DejaVuSansMono-114"/>
     <use x="541.845703" xlink:href="#DejaVuSansMono-111"/>
     <use x="602.050781" xlink:href="#DejaVuSansMono-98"/>
     <use x="662.255859" xlink:href="#DejaVuSansMono-108"/>
     <use x="722.460938" xlink:href="#DejaVuSansMono-101"/>
     <use x="782.666016" xlink:href="#DejaVuSansMono-109"/>
    </g>
   </g>
   <g id="legend_1">
    <g id="patch_7">
     <path d="M 358.67625 82.0095 
L 450.12 82.0095 
Q 451.32 82.0095 451.32 80.8095 
L 451.32 22.189125 
Q 451.32 20.989125 450.12 20.989125 
L 358.67625 20.989125 
Q 357.47625 20.989125 357.47625 22.189125 
L 357.47625 80.8095 
Q 357.47625 82.0095 358.67625 82.0095 
z
" style="fill:#ffffff;opacity:0.8;stroke:#cccccc;stroke-linejoin:miter;"/>
    </g>
    <g id="line2d_14">
     <path d="M 359.87625 36.889687 
L 371.87625 36.889687 
" style="fill:none;stroke:#1f77b4;stroke-linecap:square;stroke-width:0.666667;"/>
    </g>
    <g id="line2d_15"/>
    <g id="text_15">
     <!-- "Tallest": -->
     <g transform="translate(376.67625 27.980062)scale(0.06 -0.06)">
      <defs>
       <path d="M 2.296875 72.90625 
L 57.90625 72.90625 
L 57.90625 64.59375 
L 35.109375 64.59375 
L 35.109375 0 
L 25.203125 0 
L 25.203125 64.59375 
L 2.296875 64.59375 
z
" id="DejaVuSansMono-84"/>
       <path d="M 34.28125 27.484375 
L 31.296875 27.484375 
Q 23.4375 27.484375 19.453125 24.71875 
Q 15.484375 21.96875 15.484375 16.5 
Q 15.484375 11.578125 18.453125 8.84375 
Q 21.4375 6.109375 26.703125 6.109375 
Q 34.125 6.109375 38.375 11.25 
Q 42.625 16.40625 42.671875 25.484375 
L 42.671875 27.484375 
z
M 51.703125 31.203125 
L 51.703125 0 
L 42.671875 0 
L 42.671875 8.109375 
Q 39.796875 3.21875 35.421875 0.890625 
Q 31.0625 -1.421875 24.8125 -1.421875 
Q 16.453125 -1.421875 11.46875 3.296875 
Q 6.5 8.015625 6.5 15.921875 
Q 6.5 25.046875 12.625 29.78125 
Q 18.75 34.515625 30.609375 34.515625 
L 42.671875 34.515625 
L 42.671875 35.9375 
Q 42.625 42.484375 39.34375 45.4375 
Q 36.078125 48.390625 28.90625 48.390625 
Q 24.3125 48.390625 19.625 47.0625 
Q 14.9375 45.75 10.5 43.21875 
L 10.5 52.203125 
Q 15.484375 54.109375 20.046875 55.046875 
Q 24.609375 56 28.90625 56 
Q 35.6875 56 40.5 54 
Q 45.3125 52 48.296875 48 
Q 50.140625 45.5625 50.921875 41.96875 
Q 51.703125 38.375 51.703125 31.203125 
z
" id="DejaVuSansMono-97"/>
       <path d="M 47.515625 52.78125 
L 47.515625 44 
Q 43.65625 46.234375 39.75 47.359375 
Q 35.84375 48.484375 31.78125 48.484375 
Q 25.6875 48.484375 22.671875 46.5 
Q 19.671875 44.53125 19.671875 40.484375 
Q 19.671875 36.8125 21.921875 35 
Q 24.171875 33.203125 33.109375 31.5 
L 36.71875 30.8125 
Q 43.40625 29.546875 46.84375 25.734375 
Q 50.296875 21.921875 50.296875 15.828125 
Q 50.296875 7.71875 44.53125 3.140625 
Q 38.765625 -1.421875 28.515625 -1.421875 
Q 24.46875 -1.421875 20.015625 -0.5625 
Q 15.578125 0.296875 10.40625 2 
L 10.40625 11.28125 
Q 15.4375 8.6875 20.015625 7.390625 
Q 24.609375 6.109375 28.71875 6.109375 
Q 34.671875 6.109375 37.9375 8.515625 
Q 41.21875 10.9375 41.21875 15.28125 
Q 41.21875 21.53125 29.25 23.921875 
L 28.859375 24.03125 
L 25.484375 24.703125 
Q 17.71875 26.21875 14.15625 29.8125 
Q 10.59375 33.40625 10.59375 39.59375 
Q 10.59375 47.46875 15.90625 51.734375 
Q 21.234375 56 31.109375 56 
Q 35.5 56 39.546875 55.1875 
Q 43.609375 54.390625 47.515625 52.78125 
z
" id="DejaVuSansMono-115"/>
       <path d="M 29.984375 70.21875 
L 29.984375 54.6875 
L 50.390625 54.6875 
L 50.390625 47.703125 
L 29.984375 47.703125 
L 29.984375 18.015625 
Q 29.984375 11.96875 32.28125 9.5625 
Q 34.578125 7.171875 40.28125 7.171875 
L 50.390625 7.171875 
L 50.390625 0 
L 39.40625 0 
Q 29.296875 0 25.140625 4.046875 
Q 21 8.109375 21 18.015625 
L 21 47.703125 
L 6.390625 47.703125 
L 6.390625 54.6875 
L 21 54.6875 
L 21 70.21875 
z
" id="DejaVuSansMono-116"/>
       <path d="M 23.875 51.90625 
L 36.1875 51.90625 
L 36.1875 37.109375 
L 23.875 37.109375 
z
M 23.875 14.890625 
L 36.1875 14.890625 
L 36.1875 0 
L 23.875 0 
z
" id="DejaVuSansMono-58"/>
      </defs>
      <use xlink:href="#DejaVuSansMono-34"/>
      <use x="60.205078" xlink:href="#DejaVuSansMono-84"/>
      <use x="120.410156" xlink:href="#DejaVuSansMono-97"/>
      <use x="180.615234" xlink:href="#DejaVuSansMono-108"/>
      <use x="240.820312" xlink:href="#DejaVuSansMono-108"/>
      <use x="301.025391" xlink:href="#DejaVuSansMono-101"/>
      <use x="361.230469" xlink:href="#DejaVuSansMono-115"/>
      <use x="421.435547" xlink:href="#DejaVuSansMono-116"/>
      <use x="481.640625" xlink:href="#DejaVuSansMono-34"/>
      <use x="541.845703" xlink:href="#DejaVuSansMono-58"/>
     </g>
     <!-- y_0    = 270271 -->
     <g transform="translate(376.67625 34.737)scale(0.06 -0.06)">
      <defs>
       <path d="M 4.296875 25.59375 
L 55.90625 25.59375 
L 55.90625 17.1875 
L 4.296875 17.1875 
z
M 4.296875 45.40625 
L 55.90625 45.40625 
L 55.90625 37.109375 
L 4.296875 37.109375 
z
" id="DejaVuSansMono-61"/>
      </defs>
      <use xlink:href="#DejaVuSansMono-121"/>
      <use x="60.205078" xlink:href="#DejaVuSansMono-95"/>
      <use x="120.410156" xlink:href="#DejaVuSansMono-48"/>
      <use x="180.615234" xlink:href="#DejaVuSansMono-32"/>
      <use x="240.820312" xlink:href="#DejaVuSansMono-32"/>
      <use x="301.025391" xlink:href="#DejaVuSansMono-32"/>
      <use x="361.230469" xlink:href="#DejaVuSansMono-32"/>
      <use x="421.435547" xlink:href="#DejaVuSansMono-61"/>
      <use x="481.640625" xlink:href="#DejaVuSansMono-32"/>
      <use x="541.845703" xlink:href="#DejaVuSansMono-50"/>
      <use x="602.050781" xlink:href="#DejaVuSansMono-55"/>
      <use x="662.255859" xlink:href="#DejaVuSansMono-48"/>
      <use x="722.460938" xlink:href="#DejaVuSansMono-50"/>
      <use x="782.666016" xlink:href="#DejaVuSansMono-55"/>
      <use x="842.871094" xlink:href="#DejaVuSansMono-49"/>
     </g>
     <!-- y_max  = 24648077896 -->
     <g transform="translate(376.67625 41.660812)scale(0.06 -0.06)">
      <defs>
       <path d="M 54.59375 54.6875 
L 35.015625 28.515625 
L 56.5 0 
L 46.09375 0 
L 30.078125 21.921875 
L 14.109375 0 
L 3.71875 0 
L 25.203125 28.515625 
L 5.609375 54.6875 
L 15.578125 54.6875 
L 30.078125 34.90625 
L 44.484375 54.6875 
z
" id="DejaVuSansMono-120"/>
       <path d="M 48.390625 71.296875 
L 48.390625 62.203125 
Q 45.3125 64.015625 41.84375 64.96875 
Q 38.375 65.921875 34.625 65.921875 
Q 25.25 65.921875 20.40625 58.859375 
Q 15.578125 51.8125 15.578125 38.09375 
Q 17.921875 42.96875 22.0625 45.578125 
Q 26.21875 48.1875 31.59375 48.1875 
Q 42.140625 48.1875 47.921875 41.71875 
Q 53.71875 35.25 53.71875 23.390625 
Q 53.71875 11.578125 47.75 5.078125 
Q 41.796875 -1.421875 31 -1.421875 
Q 18.3125 -1.421875 12.40625 7.6875 
Q 6.5 16.796875 6.5 36.375 
Q 6.5 54.828125 13.59375 64.515625 
Q 20.703125 74.21875 34.1875 74.21875 
Q 37.796875 74.21875 41.40625 73.453125 
Q 45.015625 72.703125 48.390625 71.296875 
z
M 30.8125 40.484375 
Q 24.515625 40.484375 20.890625 35.9375 
Q 17.28125 31.390625 17.28125 23.390625 
Q 17.28125 15.375 20.890625 10.828125 
Q 24.515625 6.296875 30.8125 6.296875 
Q 37.359375 6.296875 40.671875 10.609375 
Q 44 14.9375 44 23.390625 
Q 44 31.890625 40.671875 36.1875 
Q 37.359375 40.484375 30.8125 40.484375 
z
" id="DejaVuSansMono-54"/>
       <path d="M 30.078125 34.625 
Q 23.484375 34.625 19.890625 30.9375 
Q 16.3125 27.25 16.3125 20.515625 
Q 16.3125 13.765625 19.9375 10.03125 
Q 23.578125 6.296875 30.078125 6.296875 
Q 36.71875 6.296875 40.296875 9.984375 
Q 43.890625 13.671875 43.890625 20.515625 
Q 43.890625 27.203125 40.25 30.90625 
Q 36.625 34.625 30.078125 34.625 
z
M 21.484375 38.71875 
Q 15.1875 40.328125 11.640625 44.71875 
Q 8.109375 49.125 8.109375 55.328125 
Q 8.109375 64.015625 14.015625 69.109375 
Q 19.921875 74.21875 30.078125 74.21875 
Q 40.28125 74.21875 46.1875 69.109375 
Q 52.09375 64.015625 52.09375 55.328125 
Q 52.09375 49.125 48.546875 44.71875 
Q 45.015625 40.328125 38.71875 38.71875 
Q 46.046875 37.109375 49.921875 32.21875 
Q 53.8125 27.34375 53.8125 19.578125 
Q 53.8125 9.71875 47.515625 4.140625 
Q 41.21875 -1.421875 30.078125 -1.421875 
Q 18.953125 -1.421875 12.671875 4.125 
Q 6.390625 9.671875 6.390625 19.484375 
Q 6.390625 27.296875 10.265625 32.203125 
Q 14.15625 37.109375 21.484375 38.71875 
z
M 17.921875 54.390625 
Q 17.921875 48.53125 21.046875 45.453125 
Q 24.171875 42.390625 30.078125 42.390625 
Q 36.03125 42.390625 39.15625 45.453125 
Q 42.28125 48.53125 42.28125 54.390625 
Q 42.28125 60.359375 39.171875 63.484375 
Q 36.078125 66.609375 30.078125 66.609375 
Q 24.171875 66.609375 21.046875 63.453125 
Q 17.921875 60.296875 17.921875 54.390625 
z
" id="DejaVuSansMono-56"/>
      </defs>
      <use xlink:href="#DejaVuSansMono-121"/>
      <use x="60.205078" xlink:href="#DejaVuSansMono-95"/>
      <use x="120.410156" xlink:href="#DejaVuSansMono-109"/>
      <use x="180.615234" xlink:href="#DejaVuSansMono-97"/>
      <use x="240.820312" xlink:href="#DejaVuSansMono-120"/>
      <use x="301.025391" xlink:href="#DejaVuSansMono-32"/>
      <use x="361.230469" xlink:href="#DejaVuSansMono-32"/>
      <use x="421.435547" xlink:href="#DejaVuSansMono-61"/>
      <use x="481.640625" xlink:href="#DejaVuSansMono-32"/>
      <use x="541.845703" xlink:href="#DejaVuSansMono-50"/>
      <use x="602.050781" xlink:href="#DejaVuSansMono-52"/>
      <use x="662.255859" xlink:href="#DejaVuSansMono-54"/>
      <use x="722.460938" xlink:href="#DejaVuSansMono-52"/>
      <use x="782.666016" xlink:href="#DejaVuSansMono-56"/>
      <use x="842.871094" xlink:href="#DejaVuSansMono-48"/>
      <use x="903.076172" xlink:href="#DejaVuSansMono-55"/>
      <use x="963.28125" xlink:href="#DejaVuSansMono-55"/>
      <use x="1023.486328" xlink:href="#DejaVuSansMono-56"/>
      <use x="1083.691406" xlink:href="#DejaVuSansMono-57"/>
      <use x="1143.896484" xlink:href="#DejaVuSansMono-54"/>
     </g>
     <!-- x_max  = 407 -->
     <g transform="translate(376.67625 48.584625)scale(0.06 -0.06)">
      <use xlink:href="#DejaVuSansMono-120"/>
      <use x="60.205078" xlink:href="#DejaVuSansMono-95"/>
      <use x="120.410156" xlink:href="#DejaVuSansMono-109"/>
      <use x="180.615234" xlink:href="#DejaVuSansMono-97"/>
      <use x="240.820312" xlink:href="#DejaVuSansMono-120"/>
      <use x="301.025391" xlink:href="#DejaVuSansMono-32"/>
      <use x="361.230469" xlink:href="#DejaVuSansMono-32"/>
      <use x="421.435547" xlink:href="#DejaVuSansMono-61"/>
      <use x="481.640625" xlink:href="#DejaVuSansMono-32"/>
      <use x="541.845703" xlink:href="#DejaVuSansMono-52"/>
      <use x="602.050781" xlink:href="#DejaVuSansMono-48"/>
      <use x="662.255859" xlink:href="#DejaVuSansMono-55"/>
     </g>
    </g>
    <g id="line2d_16">
     <path d="M 359.87625 66.499875 
L 371.87625 66.499875 
" style="fill:none;stroke:#ff7f0e;stroke-linecap:square;stroke-width:0.666667;"/>
    </g>
    <g id="line2d_17"/>
    <g id="text_16">
     <!-- "Widest":  -->
     <g transform="translate(376.67625 57.59025)scale(0.06 -0.06)">
      <defs>
       <path d="M 0 72.90625 
L 9.625 72.90625 
L 16.609375 13.71875 
L 24.90625 52.875 
L 35.203125 52.875 
L 43.609375 13.625 
L 50.59375 72.90625 
L 60.203125 72.90625 
L 49.3125 0 
L 39.984375 0 
L 30.078125 43.3125 
L 20.21875 0 
L 10.890625 0 
z
" id="DejaVuSansMono-87"/>
       <path d="M 12.5 54.6875 
L 35.5 54.6875 
L 35.5 6.984375 
L 53.328125 6.984375 
L 53.328125 0 
L 8.6875 0 
L 8.6875 6.984375 
L 26.515625 6.984375 
L 26.515625 47.703125 
L 12.5 47.703125 
z
M 26.515625 75.984375 
L 35.5 75.984375 
L 35.5 64.59375 
L 26.515625 64.59375 
z
" id="DejaVuSansMono-105"/>
       <path d="M 41.890625 47.703125 
L 41.890625 75.984375 
L 50.875 75.984375 
L 50.875 0 
L 41.890625 0 
L 41.890625 6.890625 
Q 39.65625 2.828125 35.90625 0.703125 
Q 32.171875 -1.421875 27.296875 -1.421875 
Q 17.390625 -1.421875 11.6875 6.265625 
Q 6 13.96875 6 27.484375 
Q 6 40.828125 11.71875 48.40625 
Q 17.4375 56 27.296875 56 
Q 32.234375 56 35.984375 53.875 
Q 39.75 51.765625 41.890625 47.703125 
z
M 15.484375 27.296875 
Q 15.484375 16.84375 18.796875 11.515625 
Q 22.125 6.203125 28.609375 6.203125 
Q 35.109375 6.203125 38.5 11.5625 
Q 41.890625 16.9375 41.890625 27.296875 
Q 41.890625 37.703125 38.5 43.046875 
Q 35.109375 48.390625 28.609375 48.390625 
Q 22.125 48.390625 18.796875 43.0625 
Q 15.484375 37.75 15.484375 27.296875 
z
" id="DejaVuSansMono-100"/>
      </defs>
      <use xlink:href="#DejaVuSansMono-34"/>
      <use x="60.205078" xlink:href="#DejaVuSansMono-87"/>
      <use x="120.410156" xlink:href="#DejaVuSansMono-105"/>
      <use x="180.615234" xlink:href="#DejaVuSansMono-100"/>
      <use x="240.820312" xlink:href="#DejaVuSansMono-101"/>
      <use x="301.025391" xlink:href="#DejaVuSansMono-115"/>
      <use x="361.230469" xlink:href="#DejaVuSansMono-116"/>
      <use x="421.435547" xlink:href="#DejaVuSansMono-34"/>
      <use x="481.640625" xlink:href="#DejaVuSansMono-58"/>
      <use x="541.845703" xlink:href="#DejaVuSansMono-32"/>
     </g>
     <!-- y_0    = 626331 -->
     <g transform="translate(376.67625 64.347187)scale(0.06 -0.06)">
      <use xlink:href="#DejaVuSansMono-121"/>
      <use x="60.205078" xlink:href="#DejaVuSansMono-95"/>
      <use x="120.410156" xlink:href="#DejaVuSansMono-48"/>
      <use x="180.615234" xlink:href="#DejaVuSansMono-32"/>
      <use x="240.820312" xlink:href="#DejaVuSansMono-32"/>
      <use x="301.025391" xlink:href="#DejaVuSansMono-32"/>
      <use x="361.230469" xlink:href="#DejaVuSansMono-32"/>
      <use x="421.435547" xlink:href="#DejaVuSansMono-61"/>
      <use x="481.640625" xlink:href="#DejaVuSansMono-32"/>
      <use x="541.845703" xlink:href="#DejaVuSansMono-54"/>
      <use x="602.050781" xlink:href="#DejaVuSansMono-50"/>
      <use x="662.255859" xlink:href="#DejaVuSansMono-54"/>
      <use x="722.460938" xlink:href="#DejaVuSansMono-51"/>
      <use x="782.666016" xlink:href="#DejaVuSansMono-51"/>
      <use x="842.871094" xlink:href="#DejaVuSansMono-49"/>
     </g>
     <!-- y_max  = 7222283188 -->
     <g transform="translate(376.67625 71.271)scale(0.06 -0.06)">
      <use xlink:href="#DejaVuSansMono-121"/>
      <use x="60.205078" xlink:href="#DejaVuSansMono-95"/>
      <use x="120.410156" xlink:href="#DejaVuSansMono-109"/>
      <use x="180.615234" xlink:href="#DejaVuSansMono-97"/>
      <use x="240.820312" xlink:href="#DejaVuSansMono-120"/>
      <use x="301.025391" xlink:href="#DejaVuSansMono-32"/>
      <use x="361.230469" xlink:href="#DejaVuSansMono-32"/>
      <use x="421.435547" xlink:href="#DejaVuSansMono-61"/>
      <use x="481.640625" xlink:href="#DejaVuSansMono-32"/>
      <use x="541.845703" xlink:href="#DejaVuSansMono-55"/>
      <use x="602.050781" xlink:href="#DejaVuSansMono-50"/>
      <use x="662.255859" xlink:href="#DejaVuSansMono-50"/>
      <use x="722.460938" xlink:href="#DejaVuSansMono-50"/>
      <use x="782.666016" xlink:href="#DejaVuSansMono-50"/>
      <use x="842.871094" xlink:href="#DejaVuSansMono-56"/>
      <use x="903.076172" xlink:href="#DejaVuSansMono-51"/>
      <use x="963.28125" xlink:href="#DejaVuSansMono-49"/>
      <use x="1023.486328" xlink:href="#DejaVuSansMono-56"/>
      <use x="1083.691406" xlink:href="#DejaVuSansMono-56"/>
     </g>
     <!-- x_max  = 509 -->
     <g transform="translate(376.67625 78.194812)scale(0.06 -0.06)">
      <use xlink:href="#DejaVuSansMono-120"/>
      <use x="60.205078" xlink:href="#DejaVuSansMono-95"/>
      <use x="120.410156" xlink:href="#DejaVuSansMono-109"/>
      <use x="180.615234" xlink:href="#DejaVuSansMono-97"/>
      <use x="240.820312" xlink:href="#DejaVuSansMono-120"/>
      <use x="301.025391" xlink:href="#DejaVuSansMono-32"/>
      <use x="361.230469" xlink:href="#DejaVuSansMono-32"/>
      <use x="421.435547" xlink:href="#DejaVuSansMono-61"/>
      <use x="481.640625" xlink:href="#DejaVuSansMono-32"/>
      <use x="541.845703" xlink:href="#DejaVuSansMono-53"/>
      <use x="602.050781" xlink:href="#DejaVuSansMono-48"/>
      <use x="662.255859" xlink:href="#DejaVuSansMono-57"/>
     </g>
    </g>
   </g>
  </g>
 </g>
 <defs>
  <clipPath id="p67924a16b6">
   <rect height="298.453375" width="420.98125" x="33.33875" y="17.989125"/>
  </clipPath>
 </defs>
</svg>
