<?xml version="1.0" encoding="utf-8" standalone="no"?>
<!DOCTYPE svg PUBLIC "-//W3C//DTD SVG 1.1//EN"
  "http://www.w3.org/Graphics/SVG/1.1/DTD/svg11.dtd">
<!-- Created with matplotlib (https://matplotlib.org/) -->
<svg height="345.6pt" version="1.1" viewBox="0 0 460.8 345.6" width="460.8pt" xmlns="http://www.w3.org/2000/svg" xmlns:xlink="http://www.w3.org/1999/xlink">
 <metadata>
  <rdf:RDF xmlns:cc="http://creativecommons.org/ns#" xmlns:dc="http://purl.org/dc/elements/1.1/" xmlns:rdf="http://www.w3.org/1999/02/22-rdf-syntax-ns#">
   <cc:Work>
    <dc:type rdf:resource="http://purl.org/dc/dcmitype/StillImage"/>
    <dc:date>2022-03-17T00:28:41.658718</dc:date>
    <dc:format>image/svg+xml</dc:format>
    <dc:creator>
     <cc:Agent>
      <dc:title>Matplotlib v3.3.2, https://matplotlib.org/</dc:title>
     </cc:Agent>
    </dc:creator>
   </cc:Work>
  </rdf:RDF>
 </metadata>
 <defs>
  <style type="text/css">*{stroke-linecap:butt;stroke-linejoin:round;}</style>
 </defs>
 <g id="figure_1">
  <g id="patch_1">
   <path d="M 0 345.6 
L 460.8 345.6 
L 460.8 0 
L 0 0 
z
" style="fill:#ffffff;"/>
  </g>
  <g id="axes_1">
   <g id="patch_2">
    <path d="M 35.85875 316.4425 
L 454.32 316.4425 
L 454.32 17.989125 
L 35.85875 17.989125 
z
" style="fill:#ffffff;"/>
   </g>
   <g id="matplotlib.axis_1">
    <g id="xtick_1">
     <g id="line2d_1">
      <defs>
       <path d="M 0 0 
L 0 3.5 
" id="m48ff77c716" style="stroke:#000000;stroke-width:0.8;"/>
      </defs>
      <g>
       <use style="stroke:#000000;stroke-width:0.8;" x="54.879716" xlink:href="#m48ff77c716" y="316.4425"/>
      </g>
     </g>
     <g id="text_1">
      <!-- 0 -->
      <g transform="translate(53.073622 328.033437)scale(0.06 -0.06)">
       <defs>
        <path d="M 23.578125 36.625 
Q 23.578125 39.3125 25.453125 41.265625 
Q 27.34375 43.21875 29.984375 43.21875 
Q 32.71875 43.21875 34.671875 41.265625 
Q 36.625 39.3125 36.625 36.625 
Q 36.625 33.890625 34.6875 31.984375 
Q 32.765625 30.078125 29.984375 30.078125 
Q 27.25 30.078125 25.40625 31.9375 
Q 23.578125 33.796875 23.578125 36.625 
z
M 30.078125 66.40625 
Q 23.1875 66.40625 19.796875 58.984375 
Q 16.40625 51.5625 16.40625 36.375 
Q 16.40625 21.234375 19.796875 13.8125 
Q 23.1875 6.390625 30.078125 6.390625 
Q 37.015625 6.390625 40.40625 13.8125 
Q 43.796875 21.234375 43.796875 36.375 
Q 43.796875 51.5625 40.40625 58.984375 
Q 37.015625 66.40625 30.078125 66.40625 
z
M 30.078125 74.21875 
Q 41.75 74.21875 47.734375 64.640625 
Q 53.71875 55.078125 53.71875 36.375 
Q 53.71875 17.71875 47.734375 8.140625 
Q 41.75 -1.421875 30.078125 -1.421875 
Q 18.40625 -1.421875 12.453125 8.140625 
Q 6.5 17.71875 6.5 36.375 
Q 6.5 55.078125 12.453125 64.640625 
Q 18.40625 74.21875 30.078125 74.21875 
z
" id="DejaVuSansMono-48"/>
       </defs>
       <use xlink:href="#DejaVuSansMono-48"/>
      </g>
     </g>
    </g>
    <g id="xtick_2">
     <g id="line2d_2">
      <g>
       <use style="stroke:#000000;stroke-width:0.8;" x="120.131743" xlink:href="#m48ff77c716" y="316.4425"/>
      </g>
     </g>
     <g id="text_2">
      <!-- 100 -->
      <g transform="translate(114.713462 328.033437)scale(0.06 -0.06)">
       <defs>
        <path d="M 13.1875 8.296875 
L 28.515625 8.296875 
L 28.515625 64.015625 
L 12.015625 60.296875 
L 12.015625 69.28125 
L 28.421875 72.90625 
L 38.28125 72.90625 
L 38.28125 8.296875 
L 53.421875 8.296875 
L 53.421875 0 
L 13.1875 0 
z
" id="DejaVuSansMono-49"/>
       </defs>
       <use xlink:href="#DejaVuSansMono-49"/>
       <use x="60.205078" xlink:href="#DejaVuSansMono-48"/>
       <use x="120.410156" xlink:href="#DejaVuSansMono-48"/>
      </g>
     </g>
    </g>
    <g id="xtick_3">
     <g id="line2d_3">
      <g>
       <use style="stroke:#000000;stroke-width:0.8;" x="185.38377" xlink:href="#m48ff77c716" y="316.4425"/>
      </g>
     </g>
     <g id="text_3">
      <!-- 200 -->
      <g transform="translate(179.965489 328.033437)scale(0.06 -0.06)">
       <defs>
        <path d="M 18.21875 8.296875 
L 51.703125 8.296875 
L 51.703125 0 
L 7.421875 0 
L 7.421875 8.296875 
Q 16.546875 17.921875 23.375 25.296875 
Q 30.21875 32.671875 32.8125 35.6875 
Q 37.703125 41.65625 39.40625 45.34375 
Q 41.109375 49.03125 41.109375 52.875 
Q 41.109375 58.984375 37.515625 62.453125 
Q 33.9375 65.921875 27.6875 65.921875 
Q 23.25 65.921875 18.359375 64.3125 
Q 13.484375 62.703125 8.015625 59.421875 
L 8.015625 69.390625 
Q 13.03125 71.78125 17.890625 73 
Q 22.75 74.21875 27.484375 74.21875 
Q 38.1875 74.21875 44.703125 68.53125 
Q 51.21875 62.84375 51.21875 53.609375 
Q 51.21875 48.921875 49.046875 44.234375 
Q 46.875 39.546875 42 33.890625 
Q 39.265625 30.71875 34.0625 25.09375 
Q 28.859375 19.484375 18.21875 8.296875 
z
" id="DejaVuSansMono-50"/>
       </defs>
       <use xlink:href="#DejaVuSansMono-50"/>
       <use x="60.205078" xlink:href="#DejaVuSansMono-48"/>
       <use x="120.410156" xlink:href="#DejaVuSansMono-48"/>
      </g>
     </g>
    </g>
    <g id="xtick_4">
     <g id="line2d_4">
      <g>
       <use style="stroke:#000000;stroke-width:0.8;" x="250.635797" xlink:href="#m48ff77c716" y="316.4425"/>
      </g>
     </g>
     <g id="text_4">
      <!-- 300 -->
      <g transform="translate(245.217516 328.033437)scale(0.06 -0.06)">
       <defs>
        <path d="M 37.890625 39.015625 
Q 45.0625 37.109375 48.875 32.25 
Q 52.6875 27.390625 52.6875 20.125 
Q 52.6875 10.0625 45.921875 4.3125 
Q 39.15625 -1.421875 27.203125 -1.421875 
Q 22.171875 -1.421875 16.9375 -0.484375 
Q 11.71875 0.4375 6.6875 2.203125 
L 6.6875 12.015625 
Q 11.671875 9.421875 16.5 8.15625 
Q 21.34375 6.890625 26.125 6.890625 
Q 34.234375 6.890625 38.578125 10.546875 
Q 42.921875 14.203125 42.921875 21.09375 
Q 42.921875 27.4375 38.578125 31.171875 
Q 34.234375 34.90625 26.8125 34.90625 
L 19.28125 34.90625 
L 19.28125 43.015625 
L 26.8125 43.015625 
Q 33.59375 43.015625 37.40625 45.984375 
Q 41.21875 48.96875 41.21875 54.296875 
Q 41.21875 59.90625 37.671875 62.90625 
Q 34.125 65.921875 27.59375 65.921875 
Q 23.25 65.921875 18.609375 64.9375 
Q 13.96875 63.96875 8.890625 62.015625 
L 8.890625 71.09375 
Q 14.796875 72.65625 19.40625 73.4375 
Q 24.03125 74.21875 27.59375 74.21875 
Q 38.234375 74.21875 44.609375 68.875 
Q 50.984375 63.53125 50.984375 54.6875 
Q 50.984375 48.6875 47.625 44.671875 
Q 44.28125 40.671875 37.890625 39.015625 
z
" id="DejaVuSansMono-51"/>
       </defs>
       <use xlink:href="#DejaVuSansMono-51"/>
       <use x="60.205078" xlink:href="#DejaVuSansMono-48"/>
       <use x="120.410156" xlink:href="#DejaVuSansMono-48"/>
      </g>
     </g>
    </g>
    <g id="xtick_5">
     <g id="line2d_5">
      <g>
       <use style="stroke:#000000;stroke-width:0.8;" x="315.887824" xlink:href="#m48ff77c716" y="316.4425"/>
      </g>
     </g>
     <g id="text_5">
      <!-- 400 -->
      <g transform="translate(310.469543 328.033437)scale(0.06 -0.06)">
       <defs>
        <path d="M 35.890625 63.921875 
L 12.890625 25.390625 
L 35.890625 25.390625 
z
M 34.28125 72.90625 
L 45.703125 72.90625 
L 45.703125 25.390625 
L 55.421875 25.390625 
L 55.421875 17.390625 
L 45.703125 17.390625 
L 45.703125 0 
L 35.890625 0 
L 35.890625 17.390625 
L 4.984375 17.390625 
L 4.984375 26.703125 
z
" id="DejaVuSansMono-52"/>
       </defs>
       <use xlink:href="#DejaVuSansMono-52"/>
       <use x="60.205078" xlink:href="#DejaVuSansMono-48"/>
       <use x="120.410156" xlink:href="#DejaVuSansMono-48"/>
      </g>
     </g>
    </g>
    <g id="xtick_6">
     <g id="line2d_6">
      <g>
       <use style="stroke:#000000;stroke-width:0.8;" x="381.139852" xlink:href="#m48ff77c716" y="316.4425"/>
      </g>
     </g>
     <g id="text_6">
      <!-- 500 -->
      <g transform="translate(375.72157 328.033437)scale(0.06 -0.06)">
       <defs>
        <path d="M 10.109375 72.90625 
L 47.015625 72.90625 
L 47.015625 64.59375 
L 19.09375 64.59375 
L 19.09375 46.6875 
Q 21.1875 47.46875 23.3125 47.828125 
Q 25.4375 48.1875 27.59375 48.1875 
Q 38.921875 48.1875 45.5625 41.5 
Q 52.203125 34.8125 52.203125 23.390625 
Q 52.203125 11.859375 45.234375 5.21875 
Q 38.28125 -1.421875 26.21875 -1.421875 
Q 20.40625 -1.421875 15.59375 -0.640625 
Q 10.796875 0.140625 6.984375 1.703125 
L 6.984375 11.71875 
Q 11.46875 9.28125 16.015625 8.078125 
Q 20.5625 6.890625 25.296875 6.890625 
Q 33.453125 6.890625 37.859375 11.1875 
Q 42.28125 15.484375 42.28125 23.390625 
Q 42.28125 31.203125 37.71875 35.546875 
Q 33.15625 39.890625 25 39.890625 
Q 21.046875 39.890625 17.28125 38.984375 
Q 13.53125 38.09375 10.109375 36.28125 
z
" id="DejaVuSansMono-53"/>
       </defs>
       <use xlink:href="#DejaVuSansMono-53"/>
       <use x="60.205078" xlink:href="#DejaVuSansMono-48"/>
       <use x="120.410156" xlink:href="#DejaVuSansMono-48"/>
      </g>
     </g>
    </g>
    <g id="xtick_7">
     <g id="line2d_7">
      <g>
       <use style="stroke:#000000;stroke-width:0.8;" x="446.391879" xlink:href="#m48ff77c716" y="316.4425"/>
      </g>
     </g>
     <g id="text_7">
      <!-- 600 -->
      <g transform="translate(440.973597 328.033437)scale(0.06 -0.06)">
       <defs>
        <path d="M 48.390625 71.296875 
L 48.390625 62.203125 
Q 45.3125 64.015625 41.84375 64.96875 
Q 38.375 65.921875 34.625 65.921875 
Q 25.25 65.921875 20.40625 58.859375 
Q 15.578125 51.8125 15.578125 38.09375 
Q 17.921875 42.96875 22.0625 45.578125 
Q 26.21875 48.1875 31.59375 48.1875 
Q 42.140625 48.1875 47.921875 41.71875 
Q 53.71875 35.25 53.71875 23.390625 
Q 53.71875 11.578125 47.75 5.078125 
Q 41.796875 -1.421875 31 -1.421875 
Q 18.3125 -1.421875 12.40625 7.6875 
Q 6.5 16.796875 6.5 36.375 
Q 6.5 54.828125 13.59375 64.515625 
Q 20.703125 74.21875 34.1875 74.21875 
Q 37.796875 74.21875 41.40625 73.453125 
Q 45.015625 72.703125 48.390625 71.296875 
z
M 30.8125 40.484375 
Q 24.515625 40.484375 20.890625 35.9375 
Q 17.28125 31.390625 17.28125 23.390625 
Q 17.28125 15.375 20.890625 10.828125 
Q 24.515625 6.296875 30.8125 6.296875 
Q 37.359375 6.296875 40.671875 10.609375 
Q 44 14.9375 44 23.390625 
Q 44 31.890625 40.671875 36.1875 
Q 37.359375 40.484375 30.8125 40.484375 
z
" id="DejaVuSansMono-54"/>
       </defs>
       <use xlink:href="#DejaVuSansMono-54"/>
       <use x="60.205078" xlink:href="#DejaVuSansMono-48"/>
       <use x="120.410156" xlink:href="#DejaVuSansMono-48"/>
      </g>
     </g>
    </g>
    <g id="text_8">
     <!-- n -->
     <g transform="translate(243.283281 337.872187)scale(0.06 -0.06)">
      <defs>
       <path d="M 51.3125 33.890625 
L 51.3125 0 
L 42.28125 0 
L 42.28125 33.890625 
Q 42.28125 41.265625 39.6875 44.71875 
Q 37.109375 48.1875 31.59375 48.1875 
Q 25.296875 48.1875 21.890625 43.71875 
Q 18.5 39.265625 18.5 30.90625 
L 18.5 0 
L 9.515625 0 
L 9.515625 54.6875 
L 18.5 54.6875 
L 18.5 46.484375 
Q 20.90625 51.171875 25 53.578125 
Q 29.109375 56 34.71875 56 
Q 43.0625 56 47.1875 50.5 
Q 51.3125 45.015625 51.3125 33.890625 
z
" id="DejaVuSansMono-110"/>
      </defs>
      <use xlink:href="#DejaVuSansMono-110"/>
     </g>
    </g>
   </g>
   <g id="matplotlib.axis_2">
    <g id="ytick_1">
     <g id="line2d_8">
      <defs>
       <path d="M 0 0 
L -3.5 0 
" id="m3d7390fd7c" style="stroke:#000000;stroke-width:0.8;"/>
      </defs>
      <g>
       <use style="stroke:#000000;stroke-width:0.8;" x="35.85875" xlink:href="#m3d7390fd7c" y="279.871982"/>
      </g>
     </g>
     <g id="text_9">
      <!-- $\mathdefault{10^{1}}$ -->
      <g transform="translate(18.83875 282.167451)scale(0.06 -0.06)">
       <use transform="translate(0 0.684375)" xlink:href="#DejaVuSansMono-49"/>
       <use transform="translate(60.205078 0.684375)" xlink:href="#DejaVuSansMono-48"/>
       <use transform="translate(121.367188 38.965625)scale(0.7)" xlink:href="#DejaVuSansMono-49"/>
      </g>
     </g>
    </g>
    <g id="ytick_2">
     <g id="line2d_9">
      <g>
       <use style="stroke:#000000;stroke-width:0.8;" x="35.85875" xlink:href="#m3d7390fd7c" y="233.863071"/>
      </g>
     </g>
     <g id="text_10">
      <!-- $\mathdefault{10^{3}}$ -->
      <g transform="translate(18.83875 236.15854)scale(0.06 -0.06)">
       <use transform="translate(0 0.765625)" xlink:href="#DejaVuSansMono-49"/>
       <use transform="translate(60.205078 0.765625)" xlink:href="#DejaVuSansMono-48"/>
       <use transform="translate(121.367188 39.046875)scale(0.7)" xlink:href="#DejaVuSansMono-51"/>
      </g>
     </g>
    </g>
    <g id="ytick_3">
     <g id="line2d_10">
      <g>
       <use style="stroke:#000000;stroke-width:0.8;" x="35.85875" xlink:href="#m3d7390fd7c" y="187.85416"/>
      </g>
     </g>
     <g id="text_11">
      <!-- $\mathdefault{10^{5}}$ -->
      <g transform="translate(18.83875 190.149629)scale(0.06 -0.06)">
       <use transform="translate(0 0.684375)" xlink:href="#DejaVuSansMono-49"/>
       <use transform="translate(60.205078 0.684375)" xlink:href="#DejaVuSansMono-48"/>
       <use transform="translate(121.367188 38.965625)scale(0.7)" xlink:href="#DejaVuSansMono-53"/>
      </g>
     </g>
    </g>
    <g id="ytick_4">
     <g id="line2d_11">
      <g>
       <use style="stroke:#000000;stroke-width:0.8;" x="35.85875" xlink:href="#m3d7390fd7c" y="141.845249"/>
      </g>
     </g>
     <g id="text_12">
      <!-- $\mathdefault{10^{7}}$ -->
      <g transform="translate(18.83875 144.140718)scale(0.06 -0.06)">
       <defs>
        <path d="M 6.78125 72.90625 
L 52.6875 72.90625 
L 52.6875 68.703125 
L 26.609375 0 
L 16.3125 0 
L 41.703125 64.59375 
L 6.78125 64.59375 
z
" id="DejaVuSansMono-55"/>
       </defs>
       <use transform="translate(0 0.684375)" xlink:href="#DejaVuSansMono-49"/>
       <use transform="translate(60.205078 0.684375)" xlink:href="#DejaVuSansMono-48"/>
       <use transform="translate(121.367188 38.965625)scale(0.7)" xlink:href="#DejaVuSansMono-55"/>
      </g>
     </g>
    </g>
    <g id="ytick_5">
     <g id="line2d_12">
      <g>
       <use style="stroke:#000000;stroke-width:0.8;" x="35.85875" xlink:href="#m3d7390fd7c" y="95.836338"/>
      </g>
     </g>
     <g id="text_13">
      <!-- $\mathdefault{10^{9}}$ -->
      <g transform="translate(18.83875 98.131807)scale(0.06 -0.06)">
       <defs>
        <path d="M 29.109375 32.328125 
Q 35.40625 32.328125 38.984375 36.859375 
Q 42.578125 41.40625 42.578125 49.421875 
Q 42.578125 57.421875 38.984375 61.953125 
Q 35.40625 66.5 29.109375 66.5 
Q 22.5625 66.5 19.234375 62.171875 
Q 15.921875 57.859375 15.921875 49.421875 
Q 15.921875 40.921875 19.21875 36.625 
Q 22.515625 32.328125 29.109375 32.328125 
z
M 11.53125 1.515625 
L 11.53125 10.59375 
Q 14.59375 8.796875 18.0625 7.84375 
Q 21.53125 6.890625 25.296875 6.890625 
Q 34.671875 6.890625 39.46875 13.9375 
Q 44.28125 21 44.28125 34.71875 
Q 42 29.828125 37.84375 27.21875 
Q 33.6875 24.609375 28.328125 24.609375 
Q 17.78125 24.609375 11.984375 31.09375 
Q 6.203125 37.59375 6.203125 49.515625 
Q 6.203125 61.28125 12.125 67.75 
Q 18.0625 74.21875 28.90625 74.21875 
Q 41.609375 74.21875 47.515625 65.078125 
Q 53.421875 55.953125 53.421875 36.375 
Q 53.421875 17.96875 46.3125 8.265625 
Q 39.203125 -1.421875 25.6875 -1.421875 
Q 22.125 -1.421875 18.5 -0.65625 
Q 14.890625 0.09375 11.53125 1.515625 
z
" id="DejaVuSansMono-57"/>
       </defs>
       <use transform="translate(0 0.765625)" xlink:href="#DejaVuSansMono-49"/>
       <use transform="translate(60.205078 0.765625)" xlink:href="#DejaVuSansMono-48"/>
       <use transform="translate(121.367188 39.046875)scale(0.7)" xlink:href="#DejaVuSansMono-57"/>
      </g>
     </g>
    </g>
    <g id="ytick_6">
     <g id="line2d_13">
      <g>
       <use style="stroke:#000000;stroke-width:0.8;" x="35.85875" xlink:href="#m3d7390fd7c" y="49.827427"/>
      </g>
     </g>
     <g id="text_14">
      <!-- $\mathdefault{10^{11}}$ -->
      <g transform="translate(16.31875 52.122896)scale(0.06 -0.06)">
       <use transform="translate(0 0.684375)" xlink:href="#DejaVuSansMono-49"/>
       <use transform="translate(60.205078 0.684375)" xlink:href="#DejaVuSansMono-48"/>
       <use transform="translate(121.367188 38.965625)scale(0.7)" xlink:href="#DejaVuSansMono-49"/>
       <use transform="translate(163.510742 38.965625)scale(0.7)" xlink:href="#DejaVuSansMono-49"/>
      </g>
     </g>
    </g>
    <g id="text_15">
     <!-- y_n -->
     <g transform="translate(10.904063 172.634094)rotate(-90)scale(0.06 -0.06)">
      <defs>
       <path d="M 41.890625 17.578125 
Q 39.65625 11.859375 36.1875 2.546875 
Q 31.34375 -10.359375 29.6875 -13.1875 
Q 27.4375 -17 24.0625 -18.890625 
Q 20.703125 -20.796875 16.21875 -20.796875 
L 8.984375 -20.796875 
L 8.984375 -13.28125 
L 14.3125 -13.28125 
Q 18.265625 -13.28125 20.5 -10.984375 
Q 22.75 -8.6875 26.21875 0.875 
L 5.078125 54.6875 
L 14.59375 54.6875 
L 30.8125 11.921875 
L 46.78125 54.6875 
L 56.296875 54.6875 
z
" id="DejaVuSansMono-121"/>
       <path d="M 60.203125 -19.671875 
L 60.203125 -23.578125 
L 0 -23.578125 
L 0 -19.671875 
z
" id="DejaVuSansMono-95"/>
      </defs>
      <use xlink:href="#DejaVuSansMono-121"/>
      <use x="60.205078" xlink:href="#DejaVuSansMono-95"/>
      <use x="120.410156" xlink:href="#DejaVuSansMono-110"/>
     </g>
    </g>
   </g>
   <g id="line2d_14">
    <path clip-path="url(#pfce65054e9)" d="M 54.879716 153.737758 
L 55.532236 142.761842 
L 56.184756 149.686873 
L 56.837277 138.710958 
L 57.489797 145.635989 
L 58.142317 134.660074 
L 59.447358 148.510136 
L 60.099878 137.534221 
L 60.752398 144.459252 
L 61.404919 133.483337 
L 62.057439 140.408368 
L 62.709959 129.432453 
L 63.362479 136.357484 
L 64.015 125.381569 
L 64.66752 132.3066 
L 65.32004 121.330686 
L 65.972561 128.255717 
L 66.625081 117.279802 
L 67.277601 124.204833 
L 67.930121 113.228918 
L 69.235162 127.078981 
L 69.887682 116.103066 
L 70.540202 123.028097 
L 71.192723 112.052182 
L 71.845243 118.977214 
L 72.497763 108.001299 
L 73.150284 114.92633 
L 73.802804 103.950415 
L 74.455324 110.875446 
L 75.107844 99.899532 
L 76.412885 113.749594 
L 77.065405 102.773679 
L 77.717925 109.69871 
L 78.370446 98.722796 
L 79.022966 105.647827 
L 79.675486 94.671912 
L 80.328006 101.596943 
L 80.980527 90.621029 
L 81.633047 97.54606 
L 82.285567 86.570145 
L 82.938088 93.495176 
L 83.590608 82.519262 
L 84.243128 89.444293 
L 84.895648 78.468378 
L 85.548169 85.393409 
L 86.200689 74.417495 
L 86.853209 81.342526 
L 87.505729 70.366611 
L 88.15825 77.291642 
L 88.81077 66.315728 
L 89.46329 73.240759 
L 90.115811 62.264844 
L 90.768331 69.189875 
L 91.420851 58.21396 
L 92.073371 65.138992 
L 92.725892 54.163077 
L 93.378412 61.088108 
L 94.030932 50.112193 
L 94.683452 57.037225 
L 95.335973 46.06131 
L 95.988493 52.986341 
L 96.641013 42.010426 
L 97.293534 48.935458 
L 97.946054 37.959543 
L 98.598574 44.884574 
L 99.251094 33.908659 
L 100.556135 47.758722 
L 101.208655 36.782807 
L 102.513696 50.632869 
L 103.166216 39.656955 
L 103.818736 46.581986 
L 104.471257 35.606071 
L 105.123777 42.531102 
L 105.776297 31.555187 
L 107.081338 45.40525 
L 107.733858 34.429335 
L 109.691419 55.204428 
L 110.343939 44.228514 
L 112.3015 65.003607 
L 112.95402 54.027693 
L 116.216621 88.652848 
L 116.869142 77.676934 
L 117.521662 84.601965 
L 118.174182 73.62605 
L 118.826702 80.551081 
L 119.479223 69.575166 
L 120.131743 76.500198 
L 120.784263 65.524283 
L 122.089304 79.374345 
L 122.741824 68.398431 
L 123.394344 75.323462 
L 124.046865 64.347547 
L 124.699385 71.272578 
L 125.351905 60.296664 
L 126.656946 74.146726 
L 127.309466 63.170811 
L 128.614507 77.020873 
L 129.267027 66.044959 
L 130.572067 79.895021 
L 131.224588 68.919106 
L 133.182148 89.6942 
L 133.834669 78.718285 
L 135.139709 92.568347 
L 135.79223 81.592433 
L 137.09727 95.442495 
L 137.74979 84.46658 
L 139.707351 105.241674 
L 140.359871 94.265759 
L 141.664912 108.115821 
L 142.317432 97.139907 
L 143.622473 110.989969 
L 144.274993 100.014054 
L 144.927513 106.939085 
L 145.580034 95.963171 
L 146.885074 109.813233 
L 147.537594 98.837318 
L 148.190115 105.762349 
L 148.842635 94.786435 
L 152.757757 136.336621 
L 153.410277 125.360707 
L 155.367838 146.1358 
L 156.020358 135.159885 
L 156.672878 142.084916 
L 157.325399 131.109001 
L 161.24052 172.659188 
L 161.89304 161.683266 
L 162.545561 168.608297 
L 163.198081 157.632377 
L 163.850601 164.557408 
L 164.503121 153.581491 
L 165.808162 167.431553 
L 166.460682 156.455634 
L 167.113203 163.380665 
L 167.765723 152.404747 
L 169.070763 166.25481 
L 169.723284 155.278891 
L 171.028324 169.128953 
L 171.680844 158.153034 
L 172.985885 172.003096 
L 173.638405 161.027175 
L 175.595966 181.802268 
L 176.248486 170.826335 
L 176.901007 177.751366 
L 177.553527 166.775439 
L 178.206047 173.700471 
L 178.858567 162.724548 
L 179.511088 169.649579 
L 180.163608 158.673659 
L 180.816128 165.59869 
L 181.468649 154.622772 
L 183.426209 175.397865 
L 184.07873 164.421941 
L 184.73125 171.346972 
L 185.38377 160.371051 
L 186.688811 174.221113 
L 187.341331 163.24519 
L 189.298892 184.020284 
L 189.951412 173.044346 
L 191.256453 186.894408 
L 191.908973 175.918464 
L 192.561493 182.843495 
L 193.214013 171.86756 
L 195.824095 199.567684 
L 196.476615 188.591662 
L 197.781655 202.441724 
L 198.434176 191.465666 
L 201.696777 226.090822 
L 202.349297 215.113378 
L 203.654338 228.96344 
L 204.306858 217.985486 
L 205.611899 231.835548 
L 206.264419 220.856916 
L 207.569459 234.706978 
L 208.22198 223.72744 
L 208.8745 230.652471 
L 209.52702 219.674142 
L 210.17954 226.599173 
L 210.832061 215.621649 
L 214.747182 257.171836 
L 215.399703 246.161648 
L 216.704743 260.01171 
L 217.357263 248.990279 
L 218.662304 262.840342 
L 219.314824 251.80406 
L 219.967345 258.729091 
L 220.619865 247.713133 
L 221.272385 254.638165 
L 221.924905 243.635643 
L 223.882466 264.410737 
L 224.534986 253.364216 
L 225.187507 260.289247 
L 225.840027 249.266538 
L 226.492547 256.191569 
L 227.145068 245.184579 
L 227.797588 252.10961 
L 228.450108 241.113032 
L 229.755149 254.963094 
L 230.407669 243.959695 
L 231.712709 257.809757 
L 232.36523 246.797313 
L 233.01775 253.722344 
L 233.67027 242.722151 
L 234.975311 256.572213 
L 235.627831 245.564018 
L 236.280351 252.48905 
L 236.932872 241.491673 
L 237.585392 248.416704 
L 238.237912 237.426506 
L 239.542953 251.276569 
L 240.195473 240.281642 
L 240.847993 247.206673 
L 241.500514 236.218104 
L 242.153034 243.143135 
L 242.805554 232.158793 
L 243.458074 239.083824 
L 244.110595 228.102295 
L 245.415635 241.952358 
L 246.068155 230.968962 
L 248.025716 251.744055 
L 248.678236 240.748219 
L 249.330757 247.67325 
L 249.983277 236.684077 
L 250.635797 243.609108 
L 251.288318 232.624363 
L 252.593358 246.474426 
L 253.245878 235.48675 
L 253.898399 242.411781 
L 254.550919 231.428034 
L 255.855959 245.278096 
L 256.50848 234.291747 
L 257.161 241.216779 
L 257.81352 230.233914 
L 258.466041 237.158945 
L 259.118561 226.1784 
L 259.771081 233.103431 
L 260.423601 222.12443 
L 261.076122 229.049461 
L 261.728642 218.07149 
L 262.381162 224.996521 
L 263.033682 214.019235 
L 264.991243 234.794329 
L 265.643764 223.814759 
L 266.296284 230.73979 
L 266.948804 219.76144 
L 267.601324 226.686471 
L 268.253845 215.708933 
L 268.906365 222.633964 
L 269.558885 211.656967 
L 272.168966 239.357092 
L 272.821487 228.375407 
L 274.126527 242.225469 
L 274.779047 231.241866 
L 276.084088 245.091929 
L 276.736608 234.105772 
L 279.346689 261.805897 
L 279.99921 250.775537 
L 281.95677 271.55063 
L 282.609291 260.430962 
L 283.261811 267.355993 
L 283.914331 256.285379 
L 284.566851 263.21041 
L 285.219372 252.171858 
L 288.481973 286.797013 
L 289.134493 275.176313 
L 291.744574 302.876437 
L 291.744574 302.876437 
" style="fill:none;stroke:#1f77b4;stroke-linecap:square;stroke-width:0.666667;"/>
   </g>
   <g id="line2d_15">
    <path clip-path="url(#pfce65054e9)" d="M 54.879716 152.212039 
L 55.532236 141.236124 
L 56.184756 148.161155 
L 56.837277 137.185239 
L 57.489797 144.110271 
L 58.142317 133.134356 
L 59.447358 146.984418 
L 60.099878 136.008503 
L 60.752398 142.933534 
L 61.404919 131.957619 
L 62.057439 138.88265 
L 62.709959 127.906735 
L 63.362479 134.831766 
L 64.015 123.855851 
L 64.66752 130.780882 
L 65.32004 119.804968 
L 65.972561 126.729999 
L 66.625081 115.754084 
L 67.277601 122.679115 
L 67.930121 111.7032 
L 68.582642 118.628232 
L 69.235162 107.652317 
L 69.887682 114.577348 
L 70.540202 103.601433 
L 71.845243 117.451496 
L 72.497763 106.475581 
L 73.150284 113.400612 
L 73.802804 102.424697 
L 75.107844 116.27476 
L 75.760365 105.298845 
L 76.412885 112.223876 
L 77.065405 101.247961 
L 77.717925 108.172992 
L 78.370446 97.197078 
L 79.022966 104.122109 
L 79.675486 93.146194 
L 80.328006 100.071225 
L 80.980527 89.095311 
L 81.633047 96.020342 
L 82.285567 85.044427 
L 82.938088 91.969458 
L 83.590608 80.993544 
L 84.243128 87.918575 
L 84.895648 76.94266 
L 85.548169 83.867691 
L 86.200689 72.891777 
L 86.853209 79.816808 
L 87.505729 68.840893 
L 88.15825 75.765924 
L 88.81077 64.79001 
L 90.768331 85.565103 
L 91.420851 74.589188 
L 92.073371 81.514219 
L 92.725892 70.538305 
L 95.335973 98.238429 
L 95.988493 87.262515 
L 96.641013 94.187546 
L 97.293534 83.211631 
L 97.946054 90.136662 
L 98.598574 79.160748 
L 99.903615 93.01081 
L 100.556135 82.034895 
L 101.208655 88.959926 
L 101.861175 77.984012 
L 102.513696 84.909043 
L 103.166216 73.933128 
L 103.818736 80.858159 
L 104.471257 69.882245 
L 105.776297 83.732307 
L 106.428817 72.756392 
L 107.081338 79.681423 
L 107.733858 68.705509 
L 108.386378 75.63054 
L 109.038898 64.654625 
L 109.691419 71.579656 
L 110.343939 60.603742 
L 110.996459 67.528773 
L 111.64898 56.552858 
L 112.95402 70.40292 
L 113.60654 59.427006 
L 114.259061 66.352037 
L 114.911581 55.376122 
L 115.564101 62.301153 
L 116.216621 51.325239 
L 116.869142 58.25027 
L 117.521662 47.274355 
L 118.174182 54.199386 
L 118.826702 43.223472 
L 119.479223 50.148503 
L 120.131743 39.172588 
L 122.089304 59.947681 
L 122.741824 48.971767 
L 123.394344 55.896798 
L 124.046865 44.920883 
L 125.351905 58.770946 
L 126.004425 47.795031 
L 126.656946 54.720062 
L 127.309466 43.744147 
L 128.614507 57.59421 
L 129.267027 46.618295 
L 130.572067 60.468357 
L 131.224588 49.492443 
L 131.877108 56.417474 
L 132.529628 45.441559 
L 133.834669 59.291621 
L 134.487189 48.315707 
L 135.139709 55.240738 
L 135.79223 44.264823 
L 136.44475 51.189854 
L 137.09727 40.21394 
L 138.402311 54.064002 
L 139.054831 43.088087 
L 139.707351 50.013118 
L 140.359871 39.037204 
L 144.927513 87.512422 
L 145.580034 76.536507 
L 148.190115 104.236631 
L 148.842635 93.260717 
L 149.495155 100.185748 
L 150.147676 89.209833 
L 151.452716 103.059895 
L 152.105236 92.083981 
L 152.757757 99.009012 
L 153.410277 88.033097 
L 154.062797 94.958128 
L 154.715317 83.982214 
L 156.672878 104.757307 
L 157.325399 93.781392 
L 157.977919 100.706424 
L 158.630439 89.730509 
L 159.282959 96.65554 
L 159.93548 85.679625 
L 160.588 92.604657 
L 161.24052 81.628742 
L 163.198081 102.403835 
L 163.850601 91.427921 
L 167.765723 132.978107 
L 168.418243 122.002193 
L 169.070763 128.927224 
L 169.723284 117.951309 
L 170.375804 124.87634 
L 171.028324 113.900425 
L 171.680844 120.825457 
L 172.333365 109.849542 
L 173.638405 123.699604 
L 174.290926 112.723689 
L 174.943446 119.64872 
L 175.595966 108.672806 
L 176.901007 122.522868 
L 177.553527 111.546953 
L 178.206047 118.471984 
L 178.858567 107.49607 
L 179.511088 114.421101 
L 180.163608 103.445186 
L 181.468649 117.295248 
L 182.121169 106.319334 
L 182.773689 113.244365 
L 183.426209 102.26845 
L 184.73125 116.118513 
L 185.38377 105.142598 
L 187.993851 132.842722 
L 188.646372 121.866808 
L 189.298892 128.791839 
L 189.951412 117.815924 
L 190.603932 124.740955 
L 191.256453 113.76504 
L 192.561493 127.615103 
L 193.214013 116.639188 
L 195.171574 137.414281 
L 195.824095 126.438366 
L 196.476615 133.363398 
L 197.129135 122.387483 
L 199.086696 143.162576 
L 199.739216 132.186661 
L 200.391736 139.111692 
L 201.044257 128.135777 
L 201.696777 135.060808 
L 202.349297 124.084894 
L 203.654338 137.934956 
L 204.306858 126.959041 
L 206.264419 147.734134 
L 206.916939 136.758219 
L 207.569459 143.68325 
L 208.22198 132.707335 
L 208.8745 139.632366 
L 209.52702 128.656451 
L 210.17954 135.581483 
L 210.832061 124.605568 
L 211.484581 131.530599 
L 212.137101 120.554684 
L 213.442142 134.404746 
L 214.094662 123.428831 
L 214.747182 130.353863 
L 215.399703 119.377948 
L 216.704743 133.22801 
L 217.357263 122.252095 
L 218.662304 136.102158 
L 219.314824 125.126243 
L 220.619865 138.976305 
L 221.272385 128.00039 
L 221.924905 134.925421 
L 222.577426 123.949506 
L 223.229946 130.874538 
L 223.882466 119.898623 
L 225.840027 140.673716 
L 226.492547 129.697801 
L 227.145068 136.622832 
L 227.797588 125.646917 
L 228.450108 132.571949 
L 229.102628 121.596034 
L 229.755149 128.521065 
L 230.407669 117.54515 
L 231.712709 131.395212 
L 232.36523 120.419298 
L 233.01775 127.344329 
L 233.67027 116.368414 
L 234.975311 130.218476 
L 235.627831 119.242562 
L 236.932872 133.092624 
L 237.585392 122.116709 
L 238.890432 135.966771 
L 239.542953 124.990856 
L 240.847993 138.840919 
L 241.500514 127.865004 
L 242.805554 141.715066 
L 243.458074 130.739151 
L 248.025716 179.214369 
L 248.678236 168.23844 
L 249.983277 182.088503 
L 250.635797 171.112569 
L 251.288318 178.0376 
L 251.940838 167.061673 
L 252.593358 173.986704 
L 253.245878 163.010781 
L 254.550919 176.860844 
L 255.203439 165.884918 
L 255.855959 172.809949 
L 256.50848 161.834027 
L 257.81352 175.684089 
L 258.466041 164.708165 
L 259.771081 178.558227 
L 260.423601 167.582299 
L 261.076122 174.50733 
L 261.728642 163.531407 
L 262.381162 170.456438 
L 263.033682 159.480518 
L 263.686203 166.405549 
L 264.338723 155.42963 
L 264.991243 162.354661 
L 265.643764 151.378744 
L 266.296284 158.303775 
L 266.948804 147.327859 
L 267.601324 154.25289 
L 268.253845 143.276974 
L 269.558885 157.127036 
L 270.211405 146.15112 
L 270.863926 153.076151 
L 271.516446 142.100236 
L 272.168966 149.025267 
L 272.821487 138.049351 
L 273.474007 144.974382 
L 274.126527 133.998467 
L 276.084088 154.773561 
L 276.736608 143.797645 
L 277.389128 150.722676 
L 278.041649 139.746761 
L 279.346689 153.596823 
L 279.99921 142.620907 
L 280.65173 149.545938 
L 281.30425 138.570023 
L 282.609291 152.420085 
L 283.261811 141.444169 
L 284.566851 155.294232 
L 285.219372 144.318316 
L 287.829453 172.01844 
L 288.481973 161.042519 
L 289.134493 167.96755 
L 289.787014 156.991631 
L 290.439534 163.916662 
L 291.092054 152.940744 
L 291.744574 159.865775 
L 292.397095 148.889859 
L 295.659696 183.515014 
L 296.312216 172.539078 
L 296.964737 179.464109 
L 297.617257 168.48818 
L 298.269777 175.413211 
L 298.922297 164.437287 
L 302.184899 199.062443 
L 302.837419 188.086426 
L 303.489939 195.011457 
L 304.14246 184.035474 
L 304.79498 190.960505 
L 305.4475 179.984545 
L 307.405061 200.759638 
L 308.057581 189.783603 
L 308.710101 196.708634 
L 309.362622 185.732638 
L 310.015142 192.657669 
L 310.667662 181.681701 
L 313.277743 209.381825 
L 313.930264 198.405624 
L 315.235304 212.255686 
L 315.887824 201.279388 
L 316.540345 208.204419 
L 317.192865 197.228249 
L 317.845385 204.15328 
L 318.497906 193.177196 
L 320.455466 213.952289 
L 321.107987 202.97592 
L 322.413027 216.825983 
L 323.065547 205.849463 
L 323.718068 212.774494 
L 324.370588 201.798176 
L 325.023108 208.723207 
L 325.675629 197.747023 
L 326.328149 204.672055 
L 326.980669 193.695961 
L 327.633189 200.620992 
L 328.28571 189.644958 
L 328.93823 196.569989 
L 329.59075 185.593994 
L 330.24327 192.519026 
L 330.895791 181.543058 
L 333.505872 209.243182 
L 334.158392 198.266984 
L 334.810912 205.192015 
L 335.463433 194.215912 
L 336.768473 208.065974 
L 337.420993 197.089808 
L 338.726034 210.93987 
L 339.378554 199.96362 
L 340.031074 206.888651 
L 340.683595 195.912512 
L 341.336115 202.837543 
L 341.988635 191.861479 
L 342.641156 198.786511 
L 343.293676 187.810496 
L 343.946196 194.735528 
L 344.598716 183.759547 
L 345.251237 190.684578 
L 345.903757 179.708619 
L 347.208797 193.558681 
L 347.861318 182.582708 
L 349.166358 196.43277 
L 349.818879 185.456777 
L 352.42896 213.156901 
L 353.08148 202.180567 
L 354.38652 216.03063 
L 355.039041 205.054156 
L 355.691561 211.979187 
L 356.344081 201.0029 
L 356.996602 207.927931 
L 357.649122 196.951768 
L 358.954162 210.80183 
L 359.606683 199.825585 
L 360.911723 213.675647 
L 361.564243 202.699291 
L 362.216764 209.624322 
L 362.869284 198.648113 
L 363.521804 205.573144 
L 364.174325 194.597033 
L 366.131885 215.372126 
L 366.784406 204.395689 
L 368.741966 225.170782 
L 369.394487 214.193472 
L 370.047007 221.118503 
L 370.699527 210.141659 
L 372.657088 230.916752 
L 373.309608 219.938358 
L 373.962129 226.863389 
L 374.614649 215.885822 
L 375.267169 222.810853 
L 375.919689 211.833837 
L 376.57221 218.758868 
L 377.22473 207.782219 
L 377.87725 214.70725 
L 378.52977 203.730846 
L 379.182291 210.655877 
L 379.834811 199.679636 
L 381.792372 220.45473 
L 382.444892 209.477945 
L 383.097412 216.402976 
L 383.749933 205.426481 
L 385.707493 226.201575 
L 386.360014 215.224113 
L 387.665054 229.074176 
L 388.317575 218.096199 
L 388.970095 225.02123 
L 389.622615 214.043941 
L 390.275135 220.968972 
L 390.927656 209.992142 
L 391.580176 216.917173 
L 392.232696 205.940647 
L 394.190257 226.715741 
L 394.842777 215.738198 
L 396.800338 236.513291 
L 397.452858 225.533035 
L 398.105379 232.458067 
L 398.757899 221.479259 
L 399.410419 228.40429 
L 400.062939 217.426447 
L 400.71546 224.351478 
L 401.36798 213.374279 
L 402.0205 220.29931 
L 402.673021 209.322538 
L 403.325541 216.247569 
L 403.978061 205.271084 
L 404.630581 212.196115 
L 405.283102 201.219819 
L 405.935622 208.144851 
L 406.588142 197.168682 
L 407.893183 211.018744 
L 408.545703 200.042491 
L 409.850744 213.892554 
L 410.503264 202.916188 
L 415.070906 251.391406 
L 415.723426 240.39626 
L 417.680987 261.171353 
L 418.333507 250.144335 
L 419.638548 263.994397 
L 420.291068 252.950749 
L 421.596108 266.800811 
L 422.248629 255.735293 
L 424.85871 283.435417 
L 425.51123 271.994735 
L 426.16375 278.919766 
L 426.816271 267.645599 
L 427.468791 274.57063 
L 428.121311 263.400715 
L 429.426352 277.250777 
L 430.078872 266.02192 
L 432.036433 286.797013 
L 432.688953 275.176313 
L 435.299034 302.876437 
L 435.299034 302.876437 
" style="fill:none;stroke:#ff7f0e;stroke-linecap:square;stroke-width:0.666667;"/>
   </g>
   <g id="patch_3">
    <path d="M 35.85875 316.4425 
L 35.85875 17.989125 
" style="fill:none;stroke:#000000;stroke-linecap:square;stroke-linejoin:miter;stroke-width:0.8;"/>
   </g>
   <g id="patch_4">
    <path d="M 454.32 316.4425 
L 454.32 17.989125 
" style="fill:none;stroke:#000000;stroke-linecap:square;stroke-linejoin:miter;stroke-width:0.8;"/>
   </g>
   <g id="patch_5">
    <path d="M 35.85875 316.4425 
L 454.32 316.4425 
" style="fill:none;stroke:#000000;stroke-linecap:square;stroke-linejoin:miter;stroke-width:0.8;"/>
   </g>
   <g id="patch_6">
    <path d="M 35.85875 17.989125 
L 454.32 17.989125 
" style="fill:none;stroke:#000000;stroke-linecap:square;stroke-linejoin:miter;stroke-width:0.8;"/>
   </g>
   <g id="text_16">
    <!-- "3y+1" problem -->
    <g transform="translate(214.747 11.989125)scale(0.072 -0.072)">
     <defs>
      <path d="M 43.703125 72.90625 
L 43.703125 45.796875 
L 35.203125 45.796875 
L 35.203125 72.90625 
z
M 25 72.90625 
L 25 45.796875 
L 16.5 45.796875 
L 16.5 72.90625 
z
" id="DejaVuSansMono-34"/>
      <path d="M 34.1875 57.171875 
L 34.1875 35.5 
L 55.90625 35.5 
L 55.90625 27.203125 
L 34.1875 27.203125 
L 34.1875 5.515625 
L 25.984375 5.515625 
L 25.984375 27.203125 
L 4.296875 27.203125 
L 4.296875 35.5 
L 25.984375 35.5 
L 25.984375 57.171875 
z
" id="DejaVuSansMono-43"/>
      <path id="DejaVuSansMono-32"/>
      <path d="M 18.3125 6.890625 
L 18.3125 -20.796875 
L 9.28125 -20.796875 
L 9.28125 54.6875 
L 18.3125 54.6875 
L 18.3125 47.703125 
Q 20.5625 51.765625 24.296875 53.875 
Q 28.03125 56 32.90625 56 
Q 42.828125 56 48.46875 48.328125 
Q 54.109375 40.671875 54.109375 27.09375 
Q 54.109375 13.765625 48.4375 6.171875 
Q 42.78125 -1.421875 32.90625 -1.421875 
Q 27.9375 -1.421875 24.1875 0.703125 
Q 20.453125 2.828125 18.3125 6.890625 
z
M 44.671875 27.296875 
Q 44.671875 37.75 41.375 43.0625 
Q 38.09375 48.390625 31.59375 48.390625 
Q 25.046875 48.390625 21.671875 43.046875 
Q 18.3125 37.703125 18.3125 27.296875 
Q 18.3125 16.9375 21.671875 11.5625 
Q 25.046875 6.203125 31.59375 6.203125 
Q 38.09375 6.203125 41.375 11.515625 
Q 44.671875 16.84375 44.671875 27.296875 
z
" id="DejaVuSansMono-112"/>
      <path d="M 56.390625 43.40625 
Q 53.515625 45.65625 50.53125 46.671875 
Q 47.5625 47.703125 44 47.703125 
Q 35.59375 47.703125 31.140625 42.421875 
Q 26.703125 37.15625 26.703125 27.203125 
L 26.703125 0 
L 17.671875 0 
L 17.671875 54.6875 
L 26.703125 54.6875 
L 26.703125 44 
Q 28.953125 49.8125 33.609375 52.90625 
Q 38.28125 56 44.671875 56 
Q 48 56 50.875 55.171875 
Q 53.765625 54.34375 56.390625 52.59375 
z
" id="DejaVuSansMono-114"/>
      <path d="M 30.078125 48.390625 
Q 23.25 48.390625 19.734375 43.0625 
Q 16.21875 37.75 16.21875 27.296875 
Q 16.21875 16.890625 19.734375 11.546875 
Q 23.25 6.203125 30.078125 6.203125 
Q 36.96875 6.203125 40.484375 11.546875 
Q 44 16.890625 44 27.296875 
Q 44 37.75 40.484375 43.0625 
Q 36.96875 48.390625 30.078125 48.390625 
z
M 30.078125 56 
Q 41.453125 56 47.484375 48.625 
Q 53.515625 41.265625 53.515625 27.296875 
Q 53.515625 13.28125 47.5 5.921875 
Q 41.5 -1.421875 30.078125 -1.421875 
Q 18.703125 -1.421875 12.6875 5.921875 
Q 6.6875 13.28125 6.6875 27.296875 
Q 6.6875 41.265625 12.6875 48.625 
Q 18.703125 56 30.078125 56 
z
" id="DejaVuSansMono-111"/>
      <path d="M 44.828125 27.296875 
Q 44.828125 37.75 41.5 43.0625 
Q 38.1875 48.390625 31.6875 48.390625 
Q 25.140625 48.390625 21.765625 43.046875 
Q 18.40625 37.703125 18.40625 27.296875 
Q 18.40625 16.9375 21.765625 11.5625 
Q 25.140625 6.203125 31.6875 6.203125 
Q 38.1875 6.203125 41.5 11.515625 
Q 44.828125 16.84375 44.828125 27.296875 
z
M 18.40625 47.703125 
Q 20.5625 51.703125 24.34375 53.84375 
Q 28.125 56 33.109375 56 
Q 42.96875 56 48.625 48.40625 
Q 54.296875 40.828125 54.296875 27.484375 
Q 54.296875 13.96875 48.609375 6.265625 
Q 42.921875 -1.421875 33.015625 -1.421875 
Q 28.125 -1.421875 24.390625 0.703125 
Q 20.65625 2.828125 18.40625 6.890625 
L 18.40625 0 
L 9.421875 0 
L 9.421875 75.984375 
L 18.40625 75.984375 
z
" id="DejaVuSansMono-98"/>
      <path d="M 31.203125 19.828125 
Q 31.203125 13.765625 33.421875 10.6875 
Q 35.640625 7.625 39.984375 7.625 
L 50.484375 7.625 
L 50.484375 0 
L 39.109375 0 
Q 31.0625 0 26.640625 5.171875 
Q 22.21875 10.359375 22.21875 19.828125 
L 22.21875 69.484375 
L 7.8125 69.484375 
L 7.8125 76.515625 
L 31.203125 76.515625 
z
" id="DejaVuSansMono-108"/>
      <path d="M 54.296875 29.59375 
L 54.296875 25.203125 
L 15.375 25.203125 
L 15.375 24.90625 
Q 15.375 15.96875 20.03125 11.078125 
Q 24.703125 6.203125 33.203125 6.203125 
Q 37.5 6.203125 42.1875 7.5625 
Q 46.875 8.9375 52.203125 11.71875 
L 52.203125 2.78125 
Q 47.078125 0.6875 42.3125 -0.359375 
Q 37.546875 -1.421875 33.109375 -1.421875 
Q 20.359375 -1.421875 13.171875 6.21875 
Q 6 13.875 6 27.296875 
Q 6 40.375 13.03125 48.1875 
Q 20.0625 56 31.78125 56 
Q 42.234375 56 48.265625 48.921875 
Q 54.296875 41.84375 54.296875 29.59375 
z
M 45.3125 32.234375 
Q 45.125 40.140625 41.578125 44.265625 
Q 38.03125 48.390625 31.390625 48.390625 
Q 24.90625 48.390625 20.703125 44.09375 
Q 16.5 39.796875 15.71875 32.171875 
z
" id="DejaVuSansMono-101"/>
      <path d="M 33.015625 49.125 
Q 34.671875 52.640625 37.234375 54.3125 
Q 39.796875 56 43.40625 56 
Q 50 56 52.703125 50.890625 
Q 55.421875 45.796875 55.421875 31.6875 
L 55.421875 0 
L 47.21875 0 
L 47.21875 31.296875 
Q 47.21875 42.875 45.921875 45.671875 
Q 44.625 48.484375 41.21875 48.484375 
Q 37.3125 48.484375 35.859375 45.484375 
Q 34.421875 42.484375 34.421875 31.296875 
L 34.421875 0 
L 26.21875 0 
L 26.21875 31.296875 
Q 26.21875 43.015625 24.828125 45.75 
Q 23.4375 48.484375 19.828125 48.484375 
Q 16.265625 48.484375 14.875 45.484375 
Q 13.484375 42.484375 13.484375 31.296875 
L 13.484375 0 
L 5.328125 0 
L 5.328125 54.6875 
L 13.484375 54.6875 
L 13.484375 50 
Q 15.09375 52.9375 17.5 54.46875 
Q 19.921875 56 23 56 
Q 26.703125 56 29.171875 54.296875 
Q 31.640625 52.59375 33.015625 49.125 
z
" id="DejaVuSansMono-109"/>
     </defs>
     <use xlink:href="#DejaVuSansMono-34"/>
     <use x="60.205078" xlink:href="#DejaVuSansMono-51"/>
     <use x="120.410156" xlink:href="#DejaVuSansMono-121"/>
     <use x="180.615234" xlink:href="#DejaVuSansMono-43"/>
     <use x="240.820312" xlink:href="#DejaVuSansMono-49"/>
     <use x="301.025391" xlink:href="#DejaVuSansMono-34"/>
     <use x="361.230469" xlink:href="#DejaVuSansMono-32"/>
     <use x="421.435547" xlink:href="#DejaVuSansMono-112"/>
     <use x="481.640625" xlink:href="#DejaVuSansMono-114"/>
     <use x="541.845703" xlink:href="#DejaVuSansMono-111"/>
     <use x="602.050781" xlink:href="#DejaVuSansMono-98"/>
     <use x="662.255859" xlink:href="#DejaVuSansMono-108"/>
     <use x="722.460938" xlink:href="#DejaVuSansMono-101"/>
     <use x="782.666016" xlink:href="#DejaVuSansMono-109"/>
    </g>
   </g>
   <g id="legend_1">
    <g id="patch_7">
     <path d="M 355.064062 82.0095 
L 450.12 82.0095 
Q 451.32 82.0095 451.32 80.8095 
L 451.32 22.189125 
Q 451.32 20.989125 450.12 20.989125 
L 355.064062 20.989125 
Q 353.864062 20.989125 353.864062 22.189125 
L 353.864062 80.8095 
Q 353.864062 82.0095 355.064062 82.0095 
z
" style="fill:#ffffff;opacity:0.8;stroke:#cccccc;stroke-linejoin:miter;"/>
    </g>
    <g id="line2d_16">
     <path d="M 356.264062 36.889687 
L 368.264062 36.889687 
" style="fill:none;stroke:#1f77b4;stroke-linecap:square;stroke-width:0.666667;"/>
    </g>
    <g id="line2d_17"/>
    <g id="text_17">
     <!-- "Tallest": -->
     <g transform="translate(373.064062 27.980062)scale(0.06 -0.06)">
      <defs>
       <path d="M 2.296875 72.90625 
L 57.90625 72.90625 
L 57.90625 64.59375 
L 35.109375 64.59375 
L 35.109375 0 
L 25.203125 0 
L 25.203125 64.59375 
L 2.296875 64.59375 
z
" id="DejaVuSansMono-84"/>
       <path d="M 34.28125 27.484375 
L 31.296875 27.484375 
Q 23.4375 27.484375 19.453125 24.71875 
Q 15.484375 21.96875 15.484375 16.5 
Q 15.484375 11.578125 18.453125 8.84375 
Q 21.4375 6.109375 26.703125 6.109375 
Q 34.125 6.109375 38.375 11.25 
Q 42.625 16.40625 42.671875 25.484375 
L 42.671875 27.484375 
z
M 51.703125 31.203125 
L 51.703125 0 
L 42.671875 0 
L 42.671875 8.109375 
Q 39.796875 3.21875 35.421875 0.890625 
Q 31.0625 -1.421875 24.8125 -1.421875 
Q 16.453125 -1.421875 11.46875 3.296875 
Q 6.5 8.015625 6.5 15.921875 
Q 6.5 25.046875 12.625 29.78125 
Q 18.75 34.515625 30.609375 34.515625 
L 42.671875 34.515625 
L 42.671875 35.9375 
Q 42.625 42.484375 39.34375 45.4375 
Q 36.078125 48.390625 28.90625 48.390625 
Q 24.3125 48.390625 19.625 47.0625 
Q 14.9375 45.75 10.5 43.21875 
L 10.5 52.203125 
Q 15.484375 54.109375 20.046875 55.046875 
Q 24.609375 56 28.90625 56 
Q 35.6875 56 40.5 54 
Q 45.3125 52 48.296875 48 
Q 50.140625 45.5625 50.921875 41.96875 
Q 51.703125 38.375 51.703125 31.203125 
z
" id="DejaVuSansMono-97"/>
       <path d="M 47.515625 52.78125 
L 47.515625 44 
Q 43.65625 46.234375 39.75 47.359375 
Q 35.84375 48.484375 31.78125 48.484375 
Q 25.6875 48.484375 22.671875 46.5 
Q 19.671875 44.53125 19.671875 40.484375 
Q 19.671875 36.8125 21.921875 35 
Q 24.171875 33.203125 33.109375 31.5 
L 36.71875 30.8125 
Q 43.40625 29.546875 46.84375 25.734375 
Q 50.296875 21.921875 50.296875 15.828125 
Q 50.296875 7.71875 44.53125 3.140625 
Q 38.765625 -1.421875 28.515625 -1.421875 
Q 24.46875 -1.421875 20.015625 -0.5625 
Q 15.578125 0.296875 10.40625 2 
L 10.40625 11.28125 
Q 15.4375 8.6875 20.015625 7.390625 
Q 24.609375 6.109375 28.71875 6.109375 
Q 34.671875 6.109375 37.9375 8.515625 
Q 41.21875 10.9375 41.21875 15.28125 
Q 41.21875 21.53125 29.25 23.921875 
L 28.859375 24.03125 
L 25.484375 24.703125 
Q 17.71875 26.21875 14.15625 29.8125 
Q 10.59375 33.40625 10.59375 39.59375 
Q 10.59375 47.46875 15.90625 51.734375 
Q 21.234375 56 31.109375 56 
Q 35.5 56 39.546875 55.1875 
Q 43.609375 54.390625 47.515625 52.78125 
z
" id="DejaVuSansMono-115"/>
       <path d="M 29.984375 70.21875 
L 29.984375 54.6875 
L 50.390625 54.6875 
L 50.390625 47.703125 
L 29.984375 47.703125 
L 29.984375 18.015625 
Q 29.984375 11.96875 32.28125 9.5625 
Q 34.578125 7.171875 40.28125 7.171875 
L 50.390625 7.171875 
L 50.390625 0 
L 39.40625 0 
Q 29.296875 0 25.140625 4.046875 
Q 21 8.109375 21 18.015625 
L 21 47.703125 
L 6.390625 47.703125 
L 6.390625 54.6875 
L 21 54.6875 
L 21 70.21875 
z
" id="DejaVuSansMono-116"/>
       <path d="M 23.875 51.90625 
L 36.1875 51.90625 
L 36.1875 37.109375 
L 23.875 37.109375 
z
M 23.875 14.890625 
L 36.1875 14.890625 
L 36.1875 0 
L 23.875 0 
z
" id="DejaVuSansMono-58"/>
      </defs>
      <use xlink:href="#DejaVuSansMono-34"/>
      <use x="60.205078" xlink:href="#DejaVuSansMono-84"/>
      <use x="120.410156" xlink:href="#DejaVuSansMono-97"/>
      <use x="180.615234" xlink:href="#DejaVuSansMono-108"/>
      <use x="240.820312" xlink:href="#DejaVuSansMono-108"/>
      <use x="301.025391" xlink:href="#DejaVuSansMono-101"/>
      <use x="361.230469" xlink:href="#DejaVuSansMono-115"/>
      <use x="421.435547" xlink:href="#DejaVuSansMono-116"/>
      <use x="481.640625" xlink:href="#DejaVuSansMono-34"/>
      <use x="541.845703" xlink:href="#DejaVuSansMono-58"/>
     </g>
     <!-- y_0    = 3041127 -->
     <g transform="translate(373.064062 34.737)scale(0.06 -0.06)">
      <defs>
       <path d="M 4.296875 25.59375 
L 55.90625 25.59375 
L 55.90625 17.1875 
L 4.296875 17.1875 
z
M 4.296875 45.40625 
L 55.90625 45.40625 
L 55.90625 37.109375 
L 4.296875 37.109375 
z
" id="DejaVuSansMono-61"/>
      </defs>
      <use xlink:href="#DejaVuSansMono-121"/>
      <use x="60.205078" xlink:href="#DejaVuSansMono-95"/>
      <use x="120.410156" xlink:href="#DejaVuSansMono-48"/>
      <use x="180.615234" xlink:href="#DejaVuSansMono-32"/>
      <use x="240.820312" xlink:href="#DejaVuSansMono-32"/>
      <use x="301.025391" xlink:href="#DejaVuSansMono-32"/>
      <use x="361.230469" xlink:href="#DejaVuSansMono-32"/>
      <use x="421.435547" xlink:href="#DejaVuSansMono-61"/>
      <use x="481.640625" xlink:href="#DejaVuSansMono-32"/>
      <use x="541.845703" xlink:href="#DejaVuSansMono-51"/>
      <use x="602.050781" xlink:href="#DejaVuSansMono-48"/>
      <use x="662.255859" xlink:href="#DejaVuSansMono-52"/>
      <use x="722.460938" xlink:href="#DejaVuSansMono-49"/>
      <use x="782.666016" xlink:href="#DejaVuSansMono-49"/>
      <use x="842.871094" xlink:href="#DejaVuSansMono-50"/>
      <use x="903.076172" xlink:href="#DejaVuSansMono-55"/>
     </g>
     <!-- y_max  = 622717901620 -->
     <g transform="translate(373.064062 41.660812)scale(0.06 -0.06)">
      <defs>
       <path d="M 54.59375 54.6875 
L 35.015625 28.515625 
L 56.5 0 
L 46.09375 0 
L 30.078125 21.921875 
L 14.109375 0 
L 3.71875 0 
L 25.203125 28.515625 
L 5.609375 54.6875 
L 15.578125 54.6875 
L 30.078125 34.90625 
L 44.484375 54.6875 
z
" id="DejaVuSansMono-120"/>
      </defs>
      <use xlink:href="#DejaVuSansMono-121"/>
      <use x="60.205078" xlink:href="#DejaVuSansMono-95"/>
      <use x="120.410156" xlink:href="#DejaVuSansMono-109"/>
      <use x="180.615234" xlink:href="#DejaVuSansMono-97"/>
      <use x="240.820312" xlink:href="#DejaVuSansMono-120"/>
      <use x="301.025391" xlink:href="#DejaVuSansMono-32"/>
      <use x="361.230469" xlink:href="#DejaVuSansMono-32"/>
      <use x="421.435547" xlink:href="#DejaVuSansMono-61"/>
      <use x="481.640625" xlink:href="#DejaVuSansMono-32"/>
      <use x="541.845703" xlink:href="#DejaVuSansMono-54"/>
      <use x="602.050781" xlink:href="#DejaVuSansMono-50"/>
      <use x="662.255859" xlink:href="#DejaVuSansMono-50"/>
      <use x="722.460938" xlink:href="#DejaVuSansMono-55"/>
      <use x="782.666016" xlink:href="#DejaVuSansMono-49"/>
      <use x="842.871094" xlink:href="#DejaVuSansMono-55"/>
      <use x="903.076172" xlink:href="#DejaVuSansMono-57"/>
      <use x="963.28125" xlink:href="#DejaVuSansMono-48"/>
      <use x="1023.486328" xlink:href="#DejaVuSansMono-49"/>
      <use x="1083.691406" xlink:href="#DejaVuSansMono-54"/>
      <use x="1143.896484" xlink:href="#DejaVuSansMono-50"/>
      <use x="1204.101562" xlink:href="#DejaVuSansMono-48"/>
     </g>
     <!-- x_max  = 364 -->
     <g transform="translate(373.064062 48.584625)scale(0.06 -0.06)">
      <use xlink:href="#DejaVuSansMono-120"/>
      <use x="60.205078" xlink:href="#DejaVuSansMono-95"/>
      <use x="120.410156" xlink:href="#DejaVuSansMono-109"/>
      <use x="180.615234" xlink:href="#DejaVuSansMono-97"/>
      <use x="240.820312" xlink:href="#DejaVuSansMono-120"/>
      <use x="301.025391" xlink:href="#DejaVuSansMono-32"/>
      <use x="361.230469" xlink:href="#DejaVuSansMono-32"/>
      <use x="421.435547" xlink:href="#DejaVuSansMono-61"/>
      <use x="481.640625" xlink:href="#DejaVuSansMono-32"/>
      <use x="541.845703" xlink:href="#DejaVuSansMono-51"/>
      <use x="602.050781" xlink:href="#DejaVuSansMono-54"/>
      <use x="662.255859" xlink:href="#DejaVuSansMono-52"/>
     </g>
    </g>
    <g id="line2d_18">
     <path d="M 356.264062 66.499875 
L 368.264062 66.499875 
" style="fill:none;stroke:#ff7f0e;stroke-linecap:square;stroke-width:0.666667;"/>
    </g>
    <g id="line2d_19"/>
    <g id="text_18">
     <!-- "Widest":  -->
     <g transform="translate(373.064062 57.59025)scale(0.06 -0.06)">
      <defs>
       <path d="M 0 72.90625 
L 9.625 72.90625 
L 16.609375 13.71875 
L 24.90625 52.875 
L 35.203125 52.875 
L 43.609375 13.625 
L 50.59375 72.90625 
L 60.203125 72.90625 
L 49.3125 0 
L 39.984375 0 
L 30.078125 43.3125 
L 20.21875 0 
L 10.890625 0 
z
" id="DejaVuSansMono-87"/>
       <path d="M 12.5 54.6875 
L 35.5 54.6875 
L 35.5 6.984375 
L 53.328125 6.984375 
L 53.328125 0 
L 8.6875 0 
L 8.6875 6.984375 
L 26.515625 6.984375 
L 26.515625 47.703125 
L 12.5 47.703125 
z
M 26.515625 75.984375 
L 35.5 75.984375 
L 35.5 64.59375 
L 26.515625 64.59375 
z
" id="DejaVuSansMono-105"/>
       <path d="M 41.890625 47.703125 
L 41.890625 75.984375 
L 50.875 75.984375 
L 50.875 0 
L 41.890625 0 
L 41.890625 6.890625 
Q 39.65625 2.828125 35.90625 0.703125 
Q 32.171875 -1.421875 27.296875 -1.421875 
Q 17.390625 -1.421875 11.6875 6.265625 
Q 6 13.96875 6 27.484375 
Q 6 40.828125 11.71875 48.40625 
Q 17.4375 56 27.296875 56 
Q 32.234375 56 35.984375 53.875 
Q 39.75 51.765625 41.890625 47.703125 
z
M 15.484375 27.296875 
Q 15.484375 16.84375 18.796875 11.515625 
Q 22.125 6.203125 28.609375 6.203125 
Q 35.109375 6.203125 38.5 11.5625 
Q 41.890625 16.9375 41.890625 27.296875 
Q 41.890625 37.703125 38.5 43.046875 
Q 35.109375 48.390625 28.609375 48.390625 
Q 22.125 48.390625 18.796875 43.0625 
Q 15.484375 37.75 15.484375 27.296875 
z
" id="DejaVuSansMono-100"/>
      </defs>
      <use xlink:href="#DejaVuSansMono-34"/>
      <use x="60.205078" xlink:href="#DejaVuSansMono-87"/>
      <use x="120.410156" xlink:href="#DejaVuSansMono-105"/>
      <use x="180.615234" xlink:href="#DejaVuSansMono-100"/>
      <use x="240.820312" xlink:href="#DejaVuSansMono-101"/>
      <use x="301.025391" xlink:href="#DejaVuSansMono-115"/>
      <use x="361.230469" xlink:href="#DejaVuSansMono-116"/>
      <use x="421.435547" xlink:href="#DejaVuSansMono-34"/>
      <use x="481.640625" xlink:href="#DejaVuSansMono-58"/>
      <use x="541.845703" xlink:href="#DejaVuSansMono-32"/>
     </g>
     <!-- y_0    = 3542887 -->
     <g transform="translate(373.064062 64.347187)scale(0.06 -0.06)">
      <defs>
       <path d="M 30.078125 34.625 
Q 23.484375 34.625 19.890625 30.9375 
Q 16.3125 27.25 16.3125 20.515625 
Q 16.3125 13.765625 19.9375 10.03125 
Q 23.578125 6.296875 30.078125 6.296875 
Q 36.71875 6.296875 40.296875 9.984375 
Q 43.890625 13.671875 43.890625 20.515625 
Q 43.890625 27.203125 40.25 30.90625 
Q 36.625 34.625 30.078125 34.625 
z
M 21.484375 38.71875 
Q 15.1875 40.328125 11.640625 44.71875 
Q 8.109375 49.125 8.109375 55.328125 
Q 8.109375 64.015625 14.015625 69.109375 
Q 19.921875 74.21875 30.078125 74.21875 
Q 40.28125 74.21875 46.1875 69.109375 
Q 52.09375 64.015625 52.09375 55.328125 
Q 52.09375 49.125 48.546875 44.71875 
Q 45.015625 40.328125 38.71875 38.71875 
Q 46.046875 37.109375 49.921875 32.21875 
Q 53.8125 27.34375 53.8125 19.578125 
Q 53.8125 9.71875 47.515625 4.140625 
Q 41.21875 -1.421875 30.078125 -1.421875 
Q 18.953125 -1.421875 12.671875 4.125 
Q 6.390625 9.671875 6.390625 19.484375 
Q 6.390625 27.296875 10.265625 32.203125 
Q 14.15625 37.109375 21.484375 38.71875 
z
M 17.921875 54.390625 
Q 17.921875 48.53125 21.046875 45.453125 
Q 24.171875 42.390625 30.078125 42.390625 
Q 36.03125 42.390625 39.15625 45.453125 
Q 42.28125 48.53125 42.28125 54.390625 
Q 42.28125 60.359375 39.171875 63.484375 
Q 36.078125 66.609375 30.078125 66.609375 
Q 24.171875 66.609375 21.046875 63.453125 
Q 17.921875 60.296875 17.921875 54.390625 
z
" id="DejaVuSansMono-56"/>
      </defs>
      <use xlink:href="#DejaVuSansMono-121"/>
      <use x="60.205078" xlink:href="#DejaVuSansMono-95"/>
      <use x="120.410156" xlink:href="#DejaVuSansMono-48"/>
      <use x="180.615234" xlink:href="#DejaVuSansMono-32"/>
      <use x="240.820312" xlink:href="#DejaVuSansMono-32"/>
      <use x="301.025391" xlink:href="#DejaVuSansMono-32"/>
      <use x="361.230469" xlink:href="#DejaVuSansMono-32"/>
      <use x="421.435547" xlink:href="#DejaVuSansMono-61"/>
      <use x="481.640625" xlink:href="#DejaVuSansMono-32"/>
      <use x="541.845703" xlink:href="#DejaVuSansMono-51"/>
      <use x="602.050781" xlink:href="#DejaVuSansMono-53"/>
      <use x="662.255859" xlink:href="#DejaVuSansMono-52"/>
      <use x="722.460938" xlink:href="#DejaVuSansMono-50"/>
      <use x="782.666016" xlink:href="#DejaVuSansMono-56"/>
      <use x="842.871094" xlink:href="#DejaVuSansMono-56"/>
      <use x="903.076172" xlink:href="#DejaVuSansMono-55"/>
     </g>
     <!-- y_max  = 294475592320 -->
     <g transform="translate(373.064062 71.271)scale(0.06 -0.06)">
      <use xlink:href="#DejaVuSansMono-121"/>
      <use x="60.205078" xlink:href="#DejaVuSansMono-95"/>
      <use x="120.410156" xlink:href="#DejaVuSansMono-109"/>
      <use x="180.615234" xlink:href="#DejaVuSansMono-97"/>
      <use x="240.820312" xlink:href="#DejaVuSansMono-120"/>
      <use x="301.025391" xlink:href="#DejaVuSansMono-32"/>
      <use x="361.230469" xlink:href="#DejaVuSansMono-32"/>
      <use x="421.435547" xlink:href="#DejaVuSansMono-61"/>
      <use x="481.640625" xlink:href="#DejaVuSansMono-32"/>
      <use x="541.845703" xlink:href="#DejaVuSansMono-50"/>
      <use x="602.050781" xlink:href="#DejaVuSansMono-57"/>
      <use x="662.255859" xlink:href="#DejaVuSansMono-52"/>
      <use x="722.460938" xlink:href="#DejaVuSansMono-52"/>
      <use x="782.666016" xlink:href="#DejaVuSansMono-55"/>
      <use x="842.871094" xlink:href="#DejaVuSansMono-53"/>
      <use x="903.076172" xlink:href="#DejaVuSansMono-53"/>
      <use x="963.28125" xlink:href="#DejaVuSansMono-57"/>
      <use x="1023.486328" xlink:href="#DejaVuSansMono-50"/>
      <use x="1083.691406" xlink:href="#DejaVuSansMono-51"/>
      <use x="1143.896484" xlink:href="#DejaVuSansMono-50"/>
      <use x="1204.101562" xlink:href="#DejaVuSansMono-48"/>
     </g>
     <!-- x_max  = 584 -->
     <g transform="translate(373.064062 78.194812)scale(0.06 -0.06)">
      <use xlink:href="#DejaVuSansMono-120"/>
      <use x="60.205078" xlink:href="#DejaVuSansMono-95"/>
      <use x="120.410156" xlink:href="#DejaVuSansMono-109"/>
      <use x="180.615234" xlink:href="#DejaVuSansMono-97"/>
      <use x="240.820312" xlink:href="#DejaVuSansMono-120"/>
      <use x="301.025391" xlink:href="#DejaVuSansMono-32"/>
      <use x="361.230469" xlink:href="#DejaVuSansMono-32"/>
      <use x="421.435547" xlink:href="#DejaVuSansMono-61"/>
      <use x="481.640625" xlink:href="#DejaVuSansMono-32"/>
      <use x="541.845703" xlink:href="#DejaVuSansMono-53"/>
      <use x="602.050781" xlink:href="#DejaVuSansMono-56"/>
      <use x="662.255859" xlink:href="#DejaVuSansMono-52"/>
     </g>
    </g>
   </g>
  </g>
 </g>
 <defs>
  <clipPath id="pfce65054e9">
   <rect height="298.453375" width="418.46125" x="35.85875" y="17.989125"/>
  </clipPath>
 </defs>
</svg>
