<?xml version="1.0" encoding="utf-8" standalone="no"?>
<!DOCTYPE svg PUBLIC "-//W3C//DTD SVG 1.1//EN"
  "http://www.w3.org/Graphics/SVG/1.1/DTD/svg11.dtd">
<!-- Created with matplotlib (https://matplotlib.org/) -->
<svg height="345.6pt" version="1.1" viewBox="0 0 460.8 345.6" width="460.8pt" xmlns="http://www.w3.org/2000/svg" xmlns:xlink="http://www.w3.org/1999/xlink">
 <metadata>
  <rdf:RDF xmlns:cc="http://creativecommons.org/ns#" xmlns:dc="http://purl.org/dc/elements/1.1/" xmlns:rdf="http://www.w3.org/1999/02/22-rdf-syntax-ns#">
   <cc:Work>
    <dc:type rdf:resource="http://purl.org/dc/dcmitype/StillImage"/>
    <dc:date>2022-03-17T08:43:36.470082</dc:date>
    <dc:format>image/svg+xml</dc:format>
    <dc:creator>
     <cc:Agent>
      <dc:title>Matplotlib v3.3.2, https://matplotlib.org/</dc:title>
     </cc:Agent>
    </dc:creator>
   </cc:Work>
  </rdf:RDF>
 </metadata>
 <defs>
  <style type="text/css">*{stroke-linecap:butt;stroke-linejoin:round;}</style>
 </defs>
 <g id="figure_1">
  <g id="patch_1">
   <path d="M 0 345.6 
L 460.8 345.6 
L 460.8 0 
L 0 0 
z
" style="fill:#ffffff;"/>
  </g>
  <g id="axes_1">
   <g id="patch_2">
    <path d="M 35.85875 316.4425 
L 454.32 316.4425 
L 454.32 17.989125 
L 35.85875 17.989125 
z
" style="fill:#ffffff;"/>
   </g>
   <g id="matplotlib.axis_1">
    <g id="xtick_1">
     <g id="line2d_1">
      <defs>
       <path d="M 0 0 
L 0 3.5 
" id="m580410c1c4" style="stroke:#000000;stroke-width:0.8;"/>
      </defs>
      <g>
       <use style="stroke:#000000;stroke-width:0.8;" x="54.879716" xlink:href="#m580410c1c4" y="316.4425"/>
      </g>
     </g>
     <g id="text_1">
      <!-- 0 -->
      <g transform="translate(53.073622 328.033437)scale(0.06 -0.06)">
       <defs>
        <path d="M 23.578125 36.625 
Q 23.578125 39.3125 25.453125 41.265625 
Q 27.34375 43.21875 29.984375 43.21875 
Q 32.71875 43.21875 34.671875 41.265625 
Q 36.625 39.3125 36.625 36.625 
Q 36.625 33.890625 34.6875 31.984375 
Q 32.765625 30.078125 29.984375 30.078125 
Q 27.25 30.078125 25.40625 31.9375 
Q 23.578125 33.796875 23.578125 36.625 
z
M 30.078125 66.40625 
Q 23.1875 66.40625 19.796875 58.984375 
Q 16.40625 51.5625 16.40625 36.375 
Q 16.40625 21.234375 19.796875 13.8125 
Q 23.1875 6.390625 30.078125 6.390625 
Q 37.015625 6.390625 40.40625 13.8125 
Q 43.796875 21.234375 43.796875 36.375 
Q 43.796875 51.5625 40.40625 58.984375 
Q 37.015625 66.40625 30.078125 66.40625 
z
M 30.078125 74.21875 
Q 41.75 74.21875 47.734375 64.640625 
Q 53.71875 55.078125 53.71875 36.375 
Q 53.71875 17.71875 47.734375 8.140625 
Q 41.75 -1.421875 30.078125 -1.421875 
Q 18.40625 -1.421875 12.453125 8.140625 
Q 6.5 17.71875 6.5 36.375 
Q 6.5 55.078125 12.453125 64.640625 
Q 18.40625 74.21875 30.078125 74.21875 
z
" id="DejaVuSansMono-48"/>
       </defs>
       <use xlink:href="#DejaVuSansMono-48"/>
      </g>
     </g>
    </g>
    <g id="xtick_2">
     <g id="line2d_2">
      <g>
       <use style="stroke:#000000;stroke-width:0.8;" x="134.967993" xlink:href="#m580410c1c4" y="316.4425"/>
      </g>
     </g>
     <g id="text_2">
      <!-- 200 -->
      <g transform="translate(129.549712 328.033437)scale(0.06 -0.06)">
       <defs>
        <path d="M 18.21875 8.296875 
L 51.703125 8.296875 
L 51.703125 0 
L 7.421875 0 
L 7.421875 8.296875 
Q 16.546875 17.921875 23.375 25.296875 
Q 30.21875 32.671875 32.8125 35.6875 
Q 37.703125 41.65625 39.40625 45.34375 
Q 41.109375 49.03125 41.109375 52.875 
Q 41.109375 58.984375 37.515625 62.453125 
Q 33.9375 65.921875 27.6875 65.921875 
Q 23.25 65.921875 18.359375 64.3125 
Q 13.484375 62.703125 8.015625 59.421875 
L 8.015625 69.390625 
Q 13.03125 71.78125 17.890625 73 
Q 22.75 74.21875 27.484375 74.21875 
Q 38.1875 74.21875 44.703125 68.53125 
Q 51.21875 62.84375 51.21875 53.609375 
Q 51.21875 48.921875 49.046875 44.234375 
Q 46.875 39.546875 42 33.890625 
Q 39.265625 30.71875 34.0625 25.09375 
Q 28.859375 19.484375 18.21875 8.296875 
z
" id="DejaVuSansMono-50"/>
       </defs>
       <use xlink:href="#DejaVuSansMono-50"/>
       <use x="60.205078" xlink:href="#DejaVuSansMono-48"/>
       <use x="120.410156" xlink:href="#DejaVuSansMono-48"/>
      </g>
     </g>
    </g>
    <g id="xtick_3">
     <g id="line2d_3">
      <g>
       <use style="stroke:#000000;stroke-width:0.8;" x="215.056271" xlink:href="#m580410c1c4" y="316.4425"/>
      </g>
     </g>
     <g id="text_3">
      <!-- 400 -->
      <g transform="translate(209.63799 328.033437)scale(0.06 -0.06)">
       <defs>
        <path d="M 35.890625 63.921875 
L 12.890625 25.390625 
L 35.890625 25.390625 
z
M 34.28125 72.90625 
L 45.703125 72.90625 
L 45.703125 25.390625 
L 55.421875 25.390625 
L 55.421875 17.390625 
L 45.703125 17.390625 
L 45.703125 0 
L 35.890625 0 
L 35.890625 17.390625 
L 4.984375 17.390625 
L 4.984375 26.703125 
z
" id="DejaVuSansMono-52"/>
       </defs>
       <use xlink:href="#DejaVuSansMono-52"/>
       <use x="60.205078" xlink:href="#DejaVuSansMono-48"/>
       <use x="120.410156" xlink:href="#DejaVuSansMono-48"/>
      </g>
     </g>
    </g>
    <g id="xtick_4">
     <g id="line2d_4">
      <g>
       <use style="stroke:#000000;stroke-width:0.8;" x="295.144548" xlink:href="#m580410c1c4" y="316.4425"/>
      </g>
     </g>
     <g id="text_4">
      <!-- 600 -->
      <g transform="translate(289.726267 328.033437)scale(0.06 -0.06)">
       <defs>
        <path d="M 48.390625 71.296875 
L 48.390625 62.203125 
Q 45.3125 64.015625 41.84375 64.96875 
Q 38.375 65.921875 34.625 65.921875 
Q 25.25 65.921875 20.40625 58.859375 
Q 15.578125 51.8125 15.578125 38.09375 
Q 17.921875 42.96875 22.0625 45.578125 
Q 26.21875 48.1875 31.59375 48.1875 
Q 42.140625 48.1875 47.921875 41.71875 
Q 53.71875 35.25 53.71875 23.390625 
Q 53.71875 11.578125 47.75 5.078125 
Q 41.796875 -1.421875 31 -1.421875 
Q 18.3125 -1.421875 12.40625 7.6875 
Q 6.5 16.796875 6.5 36.375 
Q 6.5 54.828125 13.59375 64.515625 
Q 20.703125 74.21875 34.1875 74.21875 
Q 37.796875 74.21875 41.40625 73.453125 
Q 45.015625 72.703125 48.390625 71.296875 
z
M 30.8125 40.484375 
Q 24.515625 40.484375 20.890625 35.9375 
Q 17.28125 31.390625 17.28125 23.390625 
Q 17.28125 15.375 20.890625 10.828125 
Q 24.515625 6.296875 30.8125 6.296875 
Q 37.359375 6.296875 40.671875 10.609375 
Q 44 14.9375 44 23.390625 
Q 44 31.890625 40.671875 36.1875 
Q 37.359375 40.484375 30.8125 40.484375 
z
" id="DejaVuSansMono-54"/>
       </defs>
       <use xlink:href="#DejaVuSansMono-54"/>
       <use x="60.205078" xlink:href="#DejaVuSansMono-48"/>
       <use x="120.410156" xlink:href="#DejaVuSansMono-48"/>
      </g>
     </g>
    </g>
    <g id="xtick_5">
     <g id="line2d_5">
      <g>
       <use style="stroke:#000000;stroke-width:0.8;" x="375.232826" xlink:href="#m580410c1c4" y="316.4425"/>
      </g>
     </g>
     <g id="text_5">
      <!-- 800 -->
      <g transform="translate(369.814545 328.033437)scale(0.06 -0.06)">
       <defs>
        <path d="M 30.078125 34.625 
Q 23.484375 34.625 19.890625 30.9375 
Q 16.3125 27.25 16.3125 20.515625 
Q 16.3125 13.765625 19.9375 10.03125 
Q 23.578125 6.296875 30.078125 6.296875 
Q 36.71875 6.296875 40.296875 9.984375 
Q 43.890625 13.671875 43.890625 20.515625 
Q 43.890625 27.203125 40.25 30.90625 
Q 36.625 34.625 30.078125 34.625 
z
M 21.484375 38.71875 
Q 15.1875 40.328125 11.640625 44.71875 
Q 8.109375 49.125 8.109375 55.328125 
Q 8.109375 64.015625 14.015625 69.109375 
Q 19.921875 74.21875 30.078125 74.21875 
Q 40.28125 74.21875 46.1875 69.109375 
Q 52.09375 64.015625 52.09375 55.328125 
Q 52.09375 49.125 48.546875 44.71875 
Q 45.015625 40.328125 38.71875 38.71875 
Q 46.046875 37.109375 49.921875 32.21875 
Q 53.8125 27.34375 53.8125 19.578125 
Q 53.8125 9.71875 47.515625 4.140625 
Q 41.21875 -1.421875 30.078125 -1.421875 
Q 18.953125 -1.421875 12.671875 4.125 
Q 6.390625 9.671875 6.390625 19.484375 
Q 6.390625 27.296875 10.265625 32.203125 
Q 14.15625 37.109375 21.484375 38.71875 
z
M 17.921875 54.390625 
Q 17.921875 48.53125 21.046875 45.453125 
Q 24.171875 42.390625 30.078125 42.390625 
Q 36.03125 42.390625 39.15625 45.453125 
Q 42.28125 48.53125 42.28125 54.390625 
Q 42.28125 60.359375 39.171875 63.484375 
Q 36.078125 66.609375 30.078125 66.609375 
Q 24.171875 66.609375 21.046875 63.453125 
Q 17.921875 60.296875 17.921875 54.390625 
z
" id="DejaVuSansMono-56"/>
       </defs>
       <use xlink:href="#DejaVuSansMono-56"/>
       <use x="60.205078" xlink:href="#DejaVuSansMono-48"/>
       <use x="120.410156" xlink:href="#DejaVuSansMono-48"/>
      </g>
     </g>
    </g>
    <g id="text_6">
     <!-- n -->
     <g transform="translate(243.283281 337.872187)scale(0.06 -0.06)">
      <defs>
       <path d="M 51.3125 33.890625 
L 51.3125 0 
L 42.28125 0 
L 42.28125 33.890625 
Q 42.28125 41.265625 39.6875 44.71875 
Q 37.109375 48.1875 31.59375 48.1875 
Q 25.296875 48.1875 21.890625 43.71875 
Q 18.5 39.265625 18.5 30.90625 
L 18.5 0 
L 9.515625 0 
L 9.515625 54.6875 
L 18.5 54.6875 
L 18.5 46.484375 
Q 20.90625 51.171875 25 53.578125 
Q 29.109375 56 34.71875 56 
Q 43.0625 56 47.1875 50.5 
Q 51.3125 45.015625 51.3125 33.890625 
z
" id="DejaVuSansMono-110"/>
      </defs>
      <use xlink:href="#DejaVuSansMono-110"/>
     </g>
    </g>
   </g>
   <g id="matplotlib.axis_2">
    <g id="ytick_1">
     <g id="line2d_6">
      <defs>
       <path d="M 0 0 
L -3.5 0 
" id="m9506eb46ca" style="stroke:#000000;stroke-width:0.8;"/>
      </defs>
      <g>
       <use style="stroke:#000000;stroke-width:0.8;" x="35.85875" xlink:href="#m9506eb46ca" y="285.389436"/>
      </g>
     </g>
     <g id="text_7">
      <!-- $\mathdefault{10^{1}}$ -->
      <g transform="translate(18.83875 287.684905)scale(0.06 -0.06)">
       <defs>
        <path d="M 13.1875 8.296875 
L 28.515625 8.296875 
L 28.515625 64.015625 
L 12.015625 60.296875 
L 12.015625 69.28125 
L 28.421875 72.90625 
L 38.28125 72.90625 
L 38.28125 8.296875 
L 53.421875 8.296875 
L 53.421875 0 
L 13.1875 0 
z
" id="DejaVuSansMono-49"/>
       </defs>
       <use transform="translate(0 0.684375)" xlink:href="#DejaVuSansMono-49"/>
       <use transform="translate(60.205078 0.684375)" xlink:href="#DejaVuSansMono-48"/>
       <use transform="translate(121.367188 38.965625)scale(0.7)" xlink:href="#DejaVuSansMono-49"/>
      </g>
     </g>
    </g>
    <g id="ytick_2">
     <g id="line2d_7">
      <g>
       <use style="stroke:#000000;stroke-width:0.8;" x="35.85875" xlink:href="#m9506eb46ca" y="250.415433"/>
      </g>
     </g>
     <g id="text_8">
      <!-- $\mathdefault{10^{3}}$ -->
      <g transform="translate(18.83875 252.710902)scale(0.06 -0.06)">
       <defs>
        <path d="M 37.890625 39.015625 
Q 45.0625 37.109375 48.875 32.25 
Q 52.6875 27.390625 52.6875 20.125 
Q 52.6875 10.0625 45.921875 4.3125 
Q 39.15625 -1.421875 27.203125 -1.421875 
Q 22.171875 -1.421875 16.9375 -0.484375 
Q 11.71875 0.4375 6.6875 2.203125 
L 6.6875 12.015625 
Q 11.671875 9.421875 16.5 8.15625 
Q 21.34375 6.890625 26.125 6.890625 
Q 34.234375 6.890625 38.578125 10.546875 
Q 42.921875 14.203125 42.921875 21.09375 
Q 42.921875 27.4375 38.578125 31.171875 
Q 34.234375 34.90625 26.8125 34.90625 
L 19.28125 34.90625 
L 19.28125 43.015625 
L 26.8125 43.015625 
Q 33.59375 43.015625 37.40625 45.984375 
Q 41.21875 48.96875 41.21875 54.296875 
Q 41.21875 59.90625 37.671875 62.90625 
Q 34.125 65.921875 27.59375 65.921875 
Q 23.25 65.921875 18.609375 64.9375 
Q 13.96875 63.96875 8.890625 62.015625 
L 8.890625 71.09375 
Q 14.796875 72.65625 19.40625 73.4375 
Q 24.03125 74.21875 27.59375 74.21875 
Q 38.234375 74.21875 44.609375 68.875 
Q 50.984375 63.53125 50.984375 54.6875 
Q 50.984375 48.6875 47.625 44.671875 
Q 44.28125 40.671875 37.890625 39.015625 
z
" id="DejaVuSansMono-51"/>
       </defs>
       <use transform="translate(0 0.765625)" xlink:href="#DejaVuSansMono-49"/>
       <use transform="translate(60.205078 0.765625)" xlink:href="#DejaVuSansMono-48"/>
       <use transform="translate(121.367188 39.046875)scale(0.7)" xlink:href="#DejaVuSansMono-51"/>
      </g>
     </g>
    </g>
    <g id="ytick_3">
     <g id="line2d_8">
      <g>
       <use style="stroke:#000000;stroke-width:0.8;" x="35.85875" xlink:href="#m9506eb46ca" y="215.44143"/>
      </g>
     </g>
     <g id="text_9">
      <!-- $\mathdefault{10^{5}}$ -->
      <g transform="translate(18.83875 217.736898)scale(0.06 -0.06)">
       <defs>
        <path d="M 10.109375 72.90625 
L 47.015625 72.90625 
L 47.015625 64.59375 
L 19.09375 64.59375 
L 19.09375 46.6875 
Q 21.1875 47.46875 23.3125 47.828125 
Q 25.4375 48.1875 27.59375 48.1875 
Q 38.921875 48.1875 45.5625 41.5 
Q 52.203125 34.8125 52.203125 23.390625 
Q 52.203125 11.859375 45.234375 5.21875 
Q 38.28125 -1.421875 26.21875 -1.421875 
Q 20.40625 -1.421875 15.59375 -0.640625 
Q 10.796875 0.140625 6.984375 1.703125 
L 6.984375 11.71875 
Q 11.46875 9.28125 16.015625 8.078125 
Q 20.5625 6.890625 25.296875 6.890625 
Q 33.453125 6.890625 37.859375 11.1875 
Q 42.28125 15.484375 42.28125 23.390625 
Q 42.28125 31.203125 37.71875 35.546875 
Q 33.15625 39.890625 25 39.890625 
Q 21.046875 39.890625 17.28125 38.984375 
Q 13.53125 38.09375 10.109375 36.28125 
z
" id="DejaVuSansMono-53"/>
       </defs>
       <use transform="translate(0 0.684375)" xlink:href="#DejaVuSansMono-49"/>
       <use transform="translate(60.205078 0.684375)" xlink:href="#DejaVuSansMono-48"/>
       <use transform="translate(121.367188 38.965625)scale(0.7)" xlink:href="#DejaVuSansMono-53"/>
      </g>
     </g>
    </g>
    <g id="ytick_4">
     <g id="line2d_9">
      <g>
       <use style="stroke:#000000;stroke-width:0.8;" x="35.85875" xlink:href="#m9506eb46ca" y="180.467427"/>
      </g>
     </g>
     <g id="text_10">
      <!-- $\mathdefault{10^{7}}$ -->
      <g transform="translate(18.83875 182.762895)scale(0.06 -0.06)">
       <defs>
        <path d="M 6.78125 72.90625 
L 52.6875 72.90625 
L 52.6875 68.703125 
L 26.609375 0 
L 16.3125 0 
L 41.703125 64.59375 
L 6.78125 64.59375 
z
" id="DejaVuSansMono-55"/>
       </defs>
       <use transform="translate(0 0.684375)" xlink:href="#DejaVuSansMono-49"/>
       <use transform="translate(60.205078 0.684375)" xlink:href="#DejaVuSansMono-48"/>
       <use transform="translate(121.367188 38.965625)scale(0.7)" xlink:href="#DejaVuSansMono-55"/>
      </g>
     </g>
    </g>
    <g id="ytick_5">
     <g id="line2d_10">
      <g>
       <use style="stroke:#000000;stroke-width:0.8;" x="35.85875" xlink:href="#m9506eb46ca" y="145.493423"/>
      </g>
     </g>
     <g id="text_11">
      <!-- $\mathdefault{10^{9}}$ -->
      <g transform="translate(18.83875 147.788892)scale(0.06 -0.06)">
       <defs>
        <path d="M 29.109375 32.328125 
Q 35.40625 32.328125 38.984375 36.859375 
Q 42.578125 41.40625 42.578125 49.421875 
Q 42.578125 57.421875 38.984375 61.953125 
Q 35.40625 66.5 29.109375 66.5 
Q 22.5625 66.5 19.234375 62.171875 
Q 15.921875 57.859375 15.921875 49.421875 
Q 15.921875 40.921875 19.21875 36.625 
Q 22.515625 32.328125 29.109375 32.328125 
z
M 11.53125 1.515625 
L 11.53125 10.59375 
Q 14.59375 8.796875 18.0625 7.84375 
Q 21.53125 6.890625 25.296875 6.890625 
Q 34.671875 6.890625 39.46875 13.9375 
Q 44.28125 21 44.28125 34.71875 
Q 42 29.828125 37.84375 27.21875 
Q 33.6875 24.609375 28.328125 24.609375 
Q 17.78125 24.609375 11.984375 31.09375 
Q 6.203125 37.59375 6.203125 49.515625 
Q 6.203125 61.28125 12.125 67.75 
Q 18.0625 74.21875 28.90625 74.21875 
Q 41.609375 74.21875 47.515625 65.078125 
Q 53.421875 55.953125 53.421875 36.375 
Q 53.421875 17.96875 46.3125 8.265625 
Q 39.203125 -1.421875 25.6875 -1.421875 
Q 22.125 -1.421875 18.5 -0.65625 
Q 14.890625 0.09375 11.53125 1.515625 
z
" id="DejaVuSansMono-57"/>
       </defs>
       <use transform="translate(0 0.765625)" xlink:href="#DejaVuSansMono-49"/>
       <use transform="translate(60.205078 0.765625)" xlink:href="#DejaVuSansMono-48"/>
       <use transform="translate(121.367188 39.046875)scale(0.7)" xlink:href="#DejaVuSansMono-57"/>
      </g>
     </g>
    </g>
    <g id="ytick_6">
     <g id="line2d_11">
      <g>
       <use style="stroke:#000000;stroke-width:0.8;" x="35.85875" xlink:href="#m9506eb46ca" y="110.51942"/>
      </g>
     </g>
     <g id="text_12">
      <!-- $\mathdefault{10^{11}}$ -->
      <g transform="translate(16.31875 112.814889)scale(0.06 -0.06)">
       <use transform="translate(0 0.684375)" xlink:href="#DejaVuSansMono-49"/>
       <use transform="translate(60.205078 0.684375)" xlink:href="#DejaVuSansMono-48"/>
       <use transform="translate(121.367188 38.965625)scale(0.7)" xlink:href="#DejaVuSansMono-49"/>
       <use transform="translate(163.510742 38.965625)scale(0.7)" xlink:href="#DejaVuSansMono-49"/>
      </g>
     </g>
    </g>
    <g id="ytick_7">
     <g id="line2d_12">
      <g>
       <use style="stroke:#000000;stroke-width:0.8;" x="35.85875" xlink:href="#m9506eb46ca" y="75.545417"/>
      </g>
     </g>
     <g id="text_13">
      <!-- $\mathdefault{10^{13}}$ -->
      <g transform="translate(16.31875 77.840886)scale(0.06 -0.06)">
       <use transform="translate(0 0.765625)" xlink:href="#DejaVuSansMono-49"/>
       <use transform="translate(60.205078 0.765625)" xlink:href="#DejaVuSansMono-48"/>
       <use transform="translate(121.367188 39.046875)scale(0.7)" xlink:href="#DejaVuSansMono-49"/>
       <use transform="translate(163.510742 39.046875)scale(0.7)" xlink:href="#DejaVuSansMono-51"/>
      </g>
     </g>
    </g>
    <g id="ytick_8">
     <g id="line2d_13">
      <g>
       <use style="stroke:#000000;stroke-width:0.8;" x="35.85875" xlink:href="#m9506eb46ca" y="40.571414"/>
      </g>
     </g>
     <g id="text_14">
      <!-- $\mathdefault{10^{15}}$ -->
      <g transform="translate(16.31875 42.866883)scale(0.06 -0.06)">
       <use transform="translate(0 0.684375)" xlink:href="#DejaVuSansMono-49"/>
       <use transform="translate(60.205078 0.684375)" xlink:href="#DejaVuSansMono-48"/>
       <use transform="translate(121.367188 38.965625)scale(0.7)" xlink:href="#DejaVuSansMono-49"/>
       <use transform="translate(163.510742 38.965625)scale(0.7)" xlink:href="#DejaVuSansMono-53"/>
      </g>
     </g>
    </g>
    <g id="text_15">
     <!-- y_n -->
     <g transform="translate(10.904063 172.634094)rotate(-90)scale(0.06 -0.06)">
      <defs>
       <path d="M 41.890625 17.578125 
Q 39.65625 11.859375 36.1875 2.546875 
Q 31.34375 -10.359375 29.6875 -13.1875 
Q 27.4375 -17 24.0625 -18.890625 
Q 20.703125 -20.796875 16.21875 -20.796875 
L 8.984375 -20.796875 
L 8.984375 -13.28125 
L 14.3125 -13.28125 
Q 18.265625 -13.28125 20.5 -10.984375 
Q 22.75 -8.6875 26.21875 0.875 
L 5.078125 54.6875 
L 14.59375 54.6875 
L 30.8125 11.921875 
L 46.78125 54.6875 
L 56.296875 54.6875 
z
" id="DejaVuSansMono-121"/>
       <path d="M 60.203125 -19.671875 
L 60.203125 -23.578125 
L 0 -23.578125 
L 0 -19.671875 
z
" id="DejaVuSansMono-95"/>
      </defs>
      <use xlink:href="#DejaVuSansMono-121"/>
      <use x="60.205078" xlink:href="#DejaVuSansMono-95"/>
      <use x="120.410156" xlink:href="#DejaVuSansMono-110"/>
     </g>
    </g>
   </g>
   <g id="line2d_14">
    <path clip-path="url(#p0b322197ba)" d="M 54.879716 161.590664 
L 55.280157 153.247244 
L 55.680599 158.511356 
L 56.08104 150.167936 
L 56.481481 155.432048 
L 56.881923 147.088628 
L 57.282364 152.35274 
L 57.682806 144.00932 
L 58.083247 149.273432 
L 58.483688 140.930012 
L 58.88413 146.194124 
L 59.284571 137.850704 
L 59.685013 143.114816 
L 60.085454 134.771396 
L 60.485895 140.035508 
L 60.886337 131.692087 
L 61.286778 136.956199 
L 61.687219 128.612779 
L 62.488102 139.141003 
L 62.888544 130.797583 
L 63.288985 136.061695 
L 63.689426 127.718275 
L 64.089868 132.982387 
L 64.490309 124.638967 
L 65.291192 135.167191 
L 65.691633 126.823771 
L 66.092075 132.087883 
L 66.492516 123.744463 
L 66.892958 129.008575 
L 67.293399 120.665155 
L 67.69384 125.929267 
L 68.094282 117.585846 
L 68.895164 128.11407 
L 69.295606 119.77065 
L 69.696047 125.034762 
L 70.096489 116.691342 
L 70.49693 121.955454 
L 70.897371 113.612034 
L 71.297813 118.876146 
L 71.698254 110.532726 
L 72.499137 121.06095 
L 72.899578 112.71753 
L 73.30002 117.981642 
L 73.700461 109.638222 
L 74.100903 114.902334 
L 74.501344 106.558914 
L 74.901785 111.823026 
L 75.302227 103.479605 
L 75.702668 108.743717 
L 76.103109 100.400297 
L 76.903992 110.928521 
L 77.304434 102.585101 
L 77.704875 107.849213 
L 78.105316 99.505793 
L 78.505758 104.769905 
L 78.906199 96.426485 
L 79.306641 101.690597 
L 79.707082 93.347177 
L 80.107523 98.611289 
L 80.507965 90.267869 
L 80.908406 95.531981 
L 81.308847 87.188561 
L 81.709289 92.452673 
L 82.10973 84.109252 
L 82.510172 89.373364 
L 82.910613 81.029944 
L 83.311054 86.294056 
L 83.711496 77.950636 
L 84.111937 83.214748 
L 84.512379 74.871328 
L 85.313261 85.399552 
L 85.713703 77.056132 
L 86.114144 82.320244 
L 86.514586 73.976824 
L 87.315468 84.505048 
L 87.71591 76.161628 
L 88.116351 81.42574 
L 88.516792 73.08232 
L 88.917234 78.346432 
L 89.317675 70.003011 
L 90.118558 80.531236 
L 90.518999 72.187815 
L 90.919441 77.451927 
L 91.319882 69.108507 
L 91.720324 74.372619 
L 92.120765 66.029199 
L 92.521206 71.293311 
L 92.921648 62.949891 
L 93.322089 68.214003 
L 93.722531 59.870583 
L 94.523413 70.398807 
L 94.923855 62.055387 
L 95.324296 67.319499 
L 95.724737 58.976079 
L 96.125179 64.240191 
L 96.52562 55.896771 
L 96.926062 61.160883 
L 97.326503 52.817462 
L 97.726944 58.081574 
L 98.127386 49.738154 
L 98.527827 55.002266 
L 98.928269 46.658846 
L 99.32871 51.922958 
L 99.729151 43.579538 
L 100.530034 54.107762 
L 100.930475 45.764342 
L 101.330917 51.028454 
L 101.731358 42.685034 
L 102.932682 58.47737 
L 103.333124 50.13395 
L 103.733565 55.398062 
L 104.134007 47.054642 
L 104.934889 57.582866 
L 105.335331 49.239445 
L 105.735772 54.503557 
L 106.136214 46.160137 
L 106.536655 51.424249 
L 106.937096 43.080829 
L 107.337538 48.344941 
L 107.737979 40.001521 
L 108.13842 45.265633 
L 108.538862 36.922213 
L 108.939303 42.186325 
L 109.339745 33.842905 
L 110.541069 49.635241 
L 110.94151 41.291821 
L 111.341952 46.555933 
L 111.742393 38.212513 
L 112.142834 43.476625 
L 112.543276 35.133204 
L 112.943717 40.397316 
L 113.344158 32.053896 
L 114.545483 47.846232 
L 114.945924 39.502812 
L 115.346365 44.766924 
L 115.746807 36.423504 
L 116.54769 46.951728 
L 116.948131 38.608308 
L 117.749014 49.136532 
L 118.149455 40.793112 
L 118.549897 46.057224 
L 118.950338 37.713804 
L 119.350779 42.977916 
L 119.751221 34.634496 
L 120.151662 39.898608 
L 120.552103 31.555187 
L 121.352986 42.083412 
L 121.753428 33.739991 
L 122.954752 49.532327 
L 123.355193 41.188907 
L 124.556517 56.981243 
L 124.956959 48.637823 
L 125.3574 53.901935 
L 125.757842 45.558515 
L 126.558724 56.086739 
L 126.959166 47.743319 
L 127.760048 58.271543 
L 128.16049 49.928123 
L 128.961373 60.456347 
L 129.361814 52.112927 
L 130.162697 62.641151 
L 130.563138 54.297731 
L 131.364021 64.825955 
L 131.764462 56.482534 
L 132.164904 61.746646 
L 132.565345 53.403226 
L 133.366228 63.93145 
L 133.766669 55.58803 
L 134.967993 71.380366 
L 135.368435 63.036946 
L 135.768876 68.301058 
L 136.169318 59.957638 
L 136.569759 65.22175 
L 136.9702 56.87833 
L 139.77329 93.727114 
L 140.173731 85.383694 
L 140.574173 90.647806 
L 140.974614 82.304386 
L 142.976821 108.624946 
L 143.377263 100.281526 
L 144.578587 116.073862 
L 144.979028 107.730441 
L 145.379469 112.994553 
L 145.779911 104.651133 
L 146.981235 120.443469 
L 147.381676 112.100049 
L 147.782118 117.364161 
L 148.182559 109.020741 
L 150.184766 135.341301 
L 150.585208 126.997881 
L 150.985649 132.261993 
L 151.38609 123.918573 
L 151.786532 129.182685 
L 152.186973 120.839265 
L 153.388297 136.631601 
L 153.788739 128.288181 
L 154.18918 133.552293 
L 154.589621 125.208873 
L 154.990063 130.472985 
L 155.390504 122.129564 
L 156.191387 132.657788 
L 156.591828 124.314368 
L 156.99227 129.57848 
L 157.392711 121.23506 
L 157.793153 126.499172 
L 158.193594 118.155752 
L 158.594035 123.419864 
L 158.994477 115.076444 
L 159.394918 120.340556 
L 159.795359 111.997136 
L 160.195801 117.261248 
L 160.596242 108.917828 
L 160.996684 114.18194 
L 161.397125 105.83852 
L 161.797566 111.102632 
L 162.198008 102.759211 
L 162.598449 108.023323 
L 162.998891 99.679903 
L 163.399332 104.944015 
L 163.799773 96.600595 
L 164.200215 101.864707 
L 164.600656 93.521287 
L 165.001097 98.785399 
L 165.401539 90.441979 
L 166.202422 100.970203 
L 166.602863 92.626783 
L 167.804187 108.419119 
L 168.204629 100.075699 
L 169.005511 110.603923 
L 169.405953 102.260503 
L 170.607277 118.052839 
L 171.007718 109.709418 
L 171.40816 114.97353 
L 171.808601 106.63011 
L 173.009925 122.422446 
L 173.410367 114.079026 
L 174.211249 124.60725 
L 174.611691 116.26383 
L 175.813015 132.056166 
L 176.213456 123.712746 
L 177.815222 144.769194 
L 178.215663 136.425774 
L 178.616105 141.689886 
L 179.016546 133.346466 
L 179.817429 143.87469 
L 180.21787 135.53127 
L 180.618312 140.795382 
L 181.018753 132.451962 
L 182.220077 148.244298 
L 182.620519 139.900877 
L 183.02096 145.164989 
L 183.421401 136.821569 
L 184.222284 147.349793 
L 184.622725 139.006373 
L 186.224491 160.062821 
L 186.624932 151.719401 
L 187.425815 162.247625 
L 187.826257 153.904205 
L 190.228905 185.488877 
L 190.629346 177.145456 
L 192.231112 198.201904 
L 192.631553 189.858482 
L 193.031995 195.122594 
L 193.432436 186.779172 
L 195.034202 207.83562 
L 195.434643 199.49219 
L 196.235526 210.020414 
L 196.635967 201.676982 
L 197.036408 206.941094 
L 197.43685 198.597665 
L 197.837291 203.861777 
L 198.237733 195.518352 
L 198.638174 200.782464 
L 199.038615 192.43904 
L 200.640381 213.495488 
L 201.040822 205.152048 
L 203.043029 231.472608 
L 203.443471 223.128979 
L 204.244353 233.657203 
L 204.644795 225.313504 
L 205.846119 241.10584 
L 206.24656 232.761677 
L 206.647002 238.025789 
L 207.047443 229.681874 
L 207.447885 234.945986 
L 207.848326 226.602236 
L 208.248767 231.866348 
L 208.649209 223.522707 
L 209.850533 239.315043 
L 210.250974 230.971036 
L 211.051857 241.49926 
L 211.452298 233.155058 
L 211.85274 238.41917 
L 212.253181 230.075228 
L 214.255388 256.395788 
L 214.65583 248.046806 
L 215.056271 253.310918 
L 215.456712 244.963793 
L 215.857154 250.227905 
L 216.257595 241.882015 
L 217.058478 252.410239 
L 217.458919 244.063528 
L 218.259802 254.591752 
L 218.660243 246.243946 
L 219.461126 256.77217 
L 219.861568 248.422905 
L 220.66245 258.951129 
L 221.062892 250.599924 
L 222.664657 271.656372 
L 223.065099 263.271565 
L 224.266423 279.063901 
L 224.666864 270.611205 
L 225.067306 275.875317 
L 225.467747 267.459911 
L 225.868188 272.724023 
L 226.26863 264.332988 
L 228.270837 290.653548 
L 228.671278 281.819989 
L 230.273044 302.876437 
L 230.273044 302.876437 
" style="fill:none;stroke:#1f77b4;stroke-linecap:square;stroke-width:0.666667;"/>
   </g>
   <g id="line2d_15">
    <path clip-path="url(#p0b322197ba)" d="M 54.879716 161.137974 
L 55.280157 166.402086 
L 55.680599 158.058666 
L 56.08104 163.322778 
L 56.481481 154.979358 
L 56.881923 160.24347 
L 57.282364 151.90005 
L 57.682806 157.164162 
L 58.083247 148.820742 
L 58.483688 154.084854 
L 58.88413 145.741434 
L 59.284571 151.005546 
L 59.685013 142.662126 
L 60.085454 147.926238 
L 60.485895 139.582817 
L 60.886337 144.846929 
L 61.286778 136.503509 
L 61.687219 141.767621 
L 62.087661 133.424201 
L 62.888544 143.952425 
L 63.288985 135.609005 
L 63.689426 140.873117 
L 64.089868 132.529697 
L 64.490309 137.793809 
L 64.890751 129.450389 
L 65.291192 134.714501 
L 65.691633 126.371081 
L 66.092075 131.635193 
L 66.492516 123.291773 
L 66.892958 128.555885 
L 67.293399 120.212464 
L 67.69384 125.476576 
L 68.094282 117.133156 
L 68.895164 127.66138 
L 69.295606 119.31796 
L 69.696047 124.582072 
L 70.096489 116.238652 
L 70.49693 121.502764 
L 70.897371 113.159344 
L 71.297813 118.423456 
L 71.698254 110.080036 
L 72.098696 115.344148 
L 72.499137 107.000728 
L 72.899578 112.26484 
L 73.30002 103.92142 
L 73.700461 109.185532 
L 74.100903 100.842111 
L 74.501344 106.106223 
L 74.901785 97.762803 
L 76.903992 124.083363 
L 77.304434 115.739943 
L 77.704875 121.004055 
L 78.105316 112.660635 
L 78.505758 117.924747 
L 78.906199 109.581327 
L 79.306641 114.845439 
L 79.707082 106.502019 
L 80.107523 111.766131 
L 80.507965 103.422711 
L 80.908406 108.686823 
L 81.308847 100.343403 
L 82.10973 110.871627 
L 82.510172 102.528206 
L 82.910613 107.792318 
L 83.311054 99.448898 
L 83.711496 104.71301 
L 84.111937 96.36959 
L 84.512379 101.633702 
L 84.91282 93.290282 
L 85.713703 103.818506 
L 86.114144 95.475086 
L 86.915027 106.00331 
L 87.315468 97.65989 
L 88.116351 108.188114 
L 88.516792 99.844694 
L 88.917234 105.108806 
L 89.317675 96.765386 
L 90.518999 112.557722 
L 90.919441 104.214301 
L 91.319882 109.478414 
L 91.720324 101.134993 
L 92.120765 106.399105 
L 92.521206 98.055685 
L 94.122972 119.112133 
L 94.523413 110.768713 
L 95.324296 121.296937 
L 95.724737 112.953517 
L 96.125179 118.217629 
L 96.52562 109.874209 
L 97.326503 120.402433 
L 97.726944 112.059013 
L 98.127386 117.323125 
L 98.527827 108.979705 
L 98.928269 114.243817 
L 99.32871 105.900397 
L 99.729151 111.164509 
L 100.129593 102.821088 
L 100.930475 113.349312 
L 101.330917 105.005892 
L 102.1318 115.534116 
L 102.532241 107.190696 
L 102.932682 112.454808 
L 103.333124 104.111388 
L 104.134007 114.639612 
L 104.534448 106.296192 
L 104.934889 111.560304 
L 105.335331 103.216884 
L 105.735772 108.480996 
L 106.136214 100.137576 
L 106.937096 110.6658 
L 107.337538 102.32238 
L 107.737979 107.586492 
L 108.13842 99.243071 
L 108.939303 109.771295 
L 109.339745 101.427875 
L 110.541069 117.220211 
L 110.94151 108.876791 
L 111.742393 119.405015 
L 112.142834 111.061595 
L 112.543276 116.325707 
L 112.943717 107.982287 
L 113.7446 118.510511 
L 114.145041 110.167091 
L 114.545483 115.431203 
L 114.945924 107.087783 
L 115.346365 112.351895 
L 115.746807 104.008475 
L 116.54769 114.536699 
L 116.948131 106.193279 
L 117.348572 111.457391 
L 117.749014 103.11397 
L 118.549897 113.642194 
L 118.950338 105.298774 
L 120.151662 121.09111 
L 120.552103 112.74769 
L 122.153869 133.804138 
L 122.55431 125.460718 
L 123.355193 135.988942 
L 123.755635 127.645522 
L 124.156076 132.909634 
L 124.556517 124.566214 
L 124.956959 129.830326 
L 125.3574 121.486906 
L 126.158283 132.01513 
L 126.558724 123.67171 
L 126.959166 128.935822 
L 127.359607 120.592401 
L 127.760048 125.856513 
L 128.16049 117.513093 
L 128.560931 122.777205 
L 128.961373 114.433785 
L 129.762255 124.962009 
L 130.162697 116.618589 
L 130.96358 127.146813 
L 131.364021 118.803393 
L 131.764462 124.067505 
L 132.164904 115.724085 
L 132.565345 120.988197 
L 132.965786 112.644777 
L 133.366228 117.908889 
L 133.766669 109.565469 
L 134.567552 120.093693 
L 134.967993 111.750272 
L 135.768876 122.278496 
L 136.169318 113.935076 
L 136.569759 119.199188 
L 136.9702 110.855768 
L 137.370642 116.11988 
L 137.771083 107.77646 
L 138.171525 113.040572 
L 138.571966 104.697152 
L 139.372849 115.225376 
L 139.77329 106.881956 
L 140.574173 117.41018 
L 140.974614 109.06676 
L 141.775497 119.594984 
L 142.175938 111.251564 
L 142.57638 116.515676 
L 142.976821 108.172256 
L 143.377263 113.436368 
L 143.777704 105.092947 
L 144.979028 120.885283 
L 145.379469 112.541863 
L 146.981235 133.598311 
L 147.381676 125.254891 
L 147.782118 130.519003 
L 148.182559 122.175583 
L 148.583001 127.439695 
L 148.983442 119.096275 
L 149.784325 129.624499 
L 150.184766 121.281079 
L 150.985649 131.809303 
L 151.38609 123.465883 
L 151.786532 128.729995 
L 152.186973 120.386575 
L 152.587414 125.650687 
L 152.987856 117.307266 
L 153.388297 122.571378 
L 153.788739 114.227958 
L 154.18918 119.49207 
L 154.589621 111.14865 
L 154.990063 116.412762 
L 155.390504 108.069342 
L 156.99227 129.12579 
L 157.392711 120.78237 
L 157.793153 126.046482 
L 158.193594 117.703062 
L 159.394918 133.495398 
L 159.795359 125.151978 
L 160.596242 135.680202 
L 160.996684 127.336782 
L 161.397125 132.600894 
L 161.797566 124.257473 
L 162.198008 129.521586 
L 162.598449 121.178165 
L 162.998891 126.442277 
L 163.399332 118.098857 
L 163.799773 123.362969 
L 164.200215 115.019549 
L 166.202422 141.340109 
L 166.602863 132.996689 
L 167.003304 138.260801 
L 167.403746 129.917381 
L 167.804187 135.181493 
L 168.204629 126.838073 
L 168.60507 132.102185 
L 169.005511 123.758765 
L 169.405953 129.022877 
L 169.806394 120.679457 
L 170.206836 125.943569 
L 170.607277 117.600148 
L 171.40816 128.128372 
L 171.808601 119.784952 
L 172.609484 130.313176 
L 173.009925 121.969756 
L 173.810808 132.49798 
L 174.211249 124.15456 
L 175.012132 134.682784 
L 175.412574 126.339364 
L 176.213456 136.867588 
L 176.613898 128.524168 
L 177.014339 133.78828 
L 177.414781 125.44486 
L 177.815222 130.708972 
L 178.215663 122.365552 
L 178.616105 127.629664 
L 179.016546 119.286243 
L 179.416987 124.550355 
L 179.817429 116.206935 
L 180.618312 126.735159 
L 181.018753 118.391739 
L 181.419194 123.655851 
L 181.819636 115.312431 
L 182.220077 120.576543 
L 182.620519 112.233123 
L 183.02096 117.497235 
L 183.421401 109.153815 
L 183.821843 114.417927 
L 184.222284 106.074507 
L 185.023167 116.602731 
L 185.423608 108.259311 
L 185.82405 113.523423 
L 186.224491 105.180002 
L 186.624932 110.444114 
L 187.025374 102.100694 
L 187.826257 112.628918 
L 188.226698 104.285498 
L 188.627139 109.54961 
L 189.027581 101.20619 
L 189.828464 111.734414 
L 190.228905 103.390994 
L 190.629346 108.655106 
L 191.029788 100.311686 
L 191.83067 110.83991 
L 192.231112 102.49649 
L 193.031995 113.024714 
L 193.432436 104.681294 
L 194.233319 115.209518 
L 194.63376 106.866098 
L 195.034202 112.13021 
L 195.434643 103.786789 
L 195.835084 109.050901 
L 196.235526 100.707481 
L 197.036408 111.235705 
L 197.43685 102.892285 
L 197.837291 108.156397 
L 198.237733 99.812977 
L 199.038615 110.341201 
L 199.439057 101.997781 
L 199.839498 107.261893 
L 200.23994 98.918473 
L 200.640381 104.182585 
L 201.040822 95.839165 
L 201.841705 106.367389 
L 202.242147 98.023969 
L 203.843912 119.080417 
L 204.244353 110.736996 
L 205.045236 121.26522 
L 205.445678 112.9218 
L 205.846119 118.185912 
L 206.24656 109.842492 
L 207.047443 120.370716 
L 207.447885 112.027296 
L 207.848326 117.291408 
L 208.248767 108.947988 
L 208.649209 114.2121 
L 209.04965 105.86868 
L 209.850533 116.396904 
L 210.250974 108.053484 
L 210.651416 113.317596 
L 211.051857 104.974176 
L 211.85274 115.5024 
L 212.253181 107.158979 
L 212.653623 112.423091 
L 213.054064 104.079671 
L 213.854947 114.607895 
L 214.255388 106.264475 
L 215.456712 122.056811 
L 215.857154 113.713391 
L 216.658036 124.241615 
L 217.058478 115.898195 
L 217.458919 121.162307 
L 217.859361 112.818887 
L 218.259802 118.082999 
L 218.660243 109.739579 
L 219.060685 115.003691 
L 219.461126 106.660271 
L 221.062892 127.716719 
L 221.463333 119.373299 
L 222.264216 129.901523 
L 222.664657 121.558102 
L 223.065099 126.822214 
L 223.46554 118.478794 
L 223.865981 123.742906 
L 224.266423 115.399486 
L 224.666864 120.663598 
L 225.067306 112.320178 
L 226.669071 133.376626 
L 227.069513 125.033206 
L 227.469954 130.297318 
L 227.870395 121.953898 
L 228.270837 127.21801 
L 228.671278 118.87459 
L 229.071719 124.138702 
L 229.472161 115.795282 
L 229.872602 121.059394 
L 230.273044 112.715973 
L 231.073926 123.244197 
L 231.474368 114.900777 
L 232.675692 130.693113 
L 233.076133 122.349693 
L 233.877016 132.877917 
L 234.277458 124.534497 
L 234.677899 129.798609 
L 235.07834 121.455189 
L 235.478782 126.719301 
L 235.879223 118.375881 
L 237.080547 134.168217 
L 237.480989 125.824797 
L 238.281871 136.353021 
L 238.682313 128.009601 
L 239.883637 143.801937 
L 240.284078 135.458517 
L 240.68452 140.722629 
L 241.084961 132.379208 
L 243.087168 158.699768 
L 243.487609 150.356348 
L 244.288492 160.884572 
L 244.688934 152.541152 
L 245.089375 157.805264 
L 245.489816 149.461844 
L 245.890258 154.725956 
L 246.290699 146.382536 
L 246.691141 151.646648 
L 247.091582 143.303228 
L 247.492023 148.56734 
L 247.892465 140.22392 
L 248.693347 150.752144 
L 249.093789 142.408724 
L 249.49423 147.672836 
L 249.894672 139.329415 
L 250.295113 144.593527 
L 250.695554 136.250107 
L 251.095996 141.514219 
L 251.496437 133.170799 
L 251.896879 138.434911 
L 252.29732 130.091491 
L 253.098203 140.619715 
L 253.498644 132.276295 
L 254.299527 142.804519 
L 254.699968 134.461099 
L 255.10041 139.725211 
L 255.500851 131.381791 
L 256.301734 141.910015 
L 256.702175 133.566595 
L 257.503058 144.094819 
L 257.903499 135.751398 
L 258.704382 146.279622 
L 259.104824 137.936202 
L 259.905706 148.464426 
L 260.306148 140.121006 
L 261.507472 155.913342 
L 261.907913 147.569922 
L 262.308355 152.834034 
L 262.708796 144.490614 
L 263.109237 149.754726 
L 263.509679 141.411306 
L 264.310562 151.93953 
L 264.711003 143.59611 
L 265.912327 159.388446 
L 266.312769 151.045026 
L 266.71321 156.309138 
L 267.113651 147.965717 
L 267.514093 153.229829 
L 267.914534 144.886409 
L 268.314975 150.150521 
L 268.715417 141.807101 
L 269.115858 147.071213 
L 269.5163 138.727793 
L 270.317182 149.256017 
L 270.717624 140.912597 
L 272.319389 161.969045 
L 272.719831 153.625625 
L 273.120272 158.889737 
L 273.520714 150.546317 
L 273.921155 155.810429 
L 274.321596 147.467008 
L 275.122479 157.995233 
L 275.52292 149.651812 
L 275.923362 154.915924 
L 276.323803 146.572504 
L 276.724245 151.836616 
L 277.124686 143.493196 
L 277.525127 148.757308 
L 277.925569 140.413888 
L 278.726452 150.942112 
L 279.126893 142.598692 
L 279.527334 147.862804 
L 279.927776 139.519384 
L 280.328217 144.783496 
L 280.728658 136.440076 
L 281.529541 146.9683 
L 281.929983 138.624879 
L 283.531748 159.681328 
L 283.93219 151.337907 
L 284.332631 156.602019 
L 284.733072 148.258599 
L 285.133514 153.522711 
L 285.533955 145.179291 
L 285.934397 150.443403 
L 286.334838 142.099983 
L 286.735279 147.364095 
L 287.135721 139.020675 
L 287.936603 149.548899 
L 288.337045 141.205479 
L 288.737486 146.469591 
L 289.137928 138.126171 
L 289.538369 143.390283 
L 289.93881 135.046862 
L 290.739693 145.575086 
L 291.140135 137.231666 
L 291.540576 142.495778 
L 291.941017 134.152358 
L 293.142342 149.944694 
L 293.542783 141.601274 
L 294.343666 152.129498 
L 294.744107 143.786078 
L 296.345873 164.842526 
L 296.746314 156.499106 
L 297.146755 161.763218 
L 297.547197 153.419798 
L 298.34808 163.948022 
L 298.748521 155.604602 
L 299.148962 160.868714 
L 299.549404 152.525293 
L 300.750728 168.317629 
L 301.151169 159.974209 
L 301.952052 170.502433 
L 302.352493 162.159013 
L 303.153376 172.687237 
L 303.553818 164.343817 
L 304.755142 180.136153 
L 305.155583 171.792733 
L 305.556025 177.056845 
L 305.956466 168.713424 
L 306.356907 173.977536 
L 306.757349 165.634116 
L 307.15779 170.898228 
L 307.558231 162.554808 
L 307.958673 167.81892 
L 308.359114 159.4755 
L 309.159997 170.003724 
L 309.560438 161.660303 
L 310.361321 172.188527 
L 310.761763 163.845107 
L 311.162204 169.109219 
L 311.562645 160.765799 
L 311.963087 166.029911 
L 312.363528 157.686491 
L 312.763969 162.950603 
L 313.164411 154.607183 
L 313.564852 159.871295 
L 313.965294 151.527875 
L 314.766176 162.056099 
L 315.166618 153.712678 
L 315.967501 164.240902 
L 316.367942 155.897482 
L 316.768383 161.161594 
L 317.168825 152.818174 
L 317.569266 158.082286 
L 317.969708 149.738866 
L 318.370149 155.002978 
L 318.77059 146.659558 
L 319.171032 151.92367 
L 319.571473 143.58025 
L 320.372356 154.108474 
L 320.772797 145.765054 
L 321.173239 151.029166 
L 321.57368 142.685746 
L 321.974121 147.949858 
L 322.374563 139.606437 
L 323.175446 150.134661 
L 323.575887 141.791241 
L 323.976328 147.055353 
L 324.37677 138.711933 
L 325.578094 154.504269 
L 325.978535 146.160849 
L 326.378977 151.424961 
L 326.779418 143.081541 
L 331.584715 206.250885 
L 331.985156 197.907457 
L 332.786039 208.435681 
L 333.18648 200.092251 
L 333.586922 205.356363 
L 333.987363 197.012936 
L 334.387804 202.277048 
L 334.788246 193.933624 
L 335.188687 199.197736 
L 335.589129 190.854313 
L 335.98957 196.118425 
L 336.390011 187.775002 
L 337.190894 198.303226 
L 337.591336 189.959804 
L 337.991777 195.223916 
L 338.392218 186.880494 
L 338.79266 192.144606 
L 339.193101 183.801185 
L 339.993984 194.329409 
L 340.394425 185.985987 
L 340.794867 191.250099 
L 341.195308 182.906678 
L 341.595749 188.17079 
L 341.996191 179.827369 
L 342.797074 190.355593 
L 343.197515 182.012172 
L 343.597956 187.276284 
L 343.998398 178.932863 
L 344.398839 184.196975 
L 344.799281 175.853555 
L 346.401046 196.910003 
L 346.801487 188.56658 
L 348.403253 209.623028 
L 348.803694 201.279596 
L 349.204136 206.543708 
L 349.604577 198.20028 
L 350.005019 203.464392 
L 350.40546 195.120967 
L 351.206343 205.649191 
L 351.606784 197.305764 
L 352.007225 202.569876 
L 352.407667 194.226451 
L 352.808108 199.490563 
L 353.20855 191.14714 
L 353.608991 196.411252 
L 354.009432 188.06783 
L 354.810315 198.596054 
L 355.210757 190.252631 
L 356.011639 200.780855 
L 356.412081 192.437431 
L 356.812522 197.701543 
L 357.212964 189.358121 
L 357.613405 194.622233 
L 358.013846 186.278811 
L 359.615612 207.335259 
L 360.016053 198.99183 
L 362.819143 235.840614 
L 363.219584 227.496822 
L 363.620026 232.760934 
L 364.020467 224.417267 
L 364.420908 229.681379 
L 364.82135 221.337793 
L 365.221791 226.601905 
L 365.622233 218.258375 
L 366.022674 223.522487 
L 366.423115 215.178994 
L 367.223998 225.707218 
L 367.62444 217.3637 
L 368.024881 222.627812 
L 368.425322 214.284327 
L 368.825764 219.548439 
L 369.226205 211.204975 
L 371.228412 237.525535 
L 371.628853 229.181651 
L 372.029295 234.445763 
L 372.429736 226.102034 
L 373.63106 241.89437 
L 374.031502 233.550125 
L 374.431943 238.814237 
L 374.832385 230.470268 
L 375.232826 235.73438 
L 375.633267 227.390593 
L 376.033709 232.654705 
L 376.43415 224.311041 
L 376.834592 229.575153 
L 377.235033 221.23157 
L 377.635474 226.495682 
L 378.035916 218.152154 
L 378.436357 223.416266 
L 378.836798 215.072773 
L 379.23724 220.336885 
L 379.637681 211.993417 
L 380.038123 217.257529 
L 380.438564 208.914076 
L 380.839005 214.178189 
L 381.239447 205.834747 
L 382.04033 216.362971 
L 382.440771 208.019522 
L 383.642095 223.811858 
L 384.042536 215.468362 
L 384.442978 220.732474 
L 384.843419 212.389003 
L 385.243861 217.653115 
L 385.644302 209.309661 
L 386.044743 214.573773 
L 386.445185 206.23033 
L 386.845626 211.494442 
L 387.246068 203.151007 
L 387.646509 208.415119 
L 388.04695 200.071689 
L 388.847833 210.599913 
L 389.248275 202.256479 
L 389.648716 207.520591 
L 390.049157 199.177162 
L 390.449599 204.441274 
L 390.85004 196.097848 
L 392.051364 211.890184 
L 392.451806 203.546748 
L 393.252688 214.074972 
L 393.65313 205.731531 
L 394.454013 216.259755 
L 394.854454 207.916307 
L 395.655337 218.444531 
L 396.055778 210.101073 
L 396.456219 215.365185 
L 396.856661 207.02174 
L 397.657544 217.549964 
L 398.057985 209.20651 
L 399.259309 224.998846 
L 399.659751 216.655337 
L 400.460633 227.183561 
L 400.861075 218.840022 
L 401.261516 224.104134 
L 401.661958 215.760635 
L 402.46284 226.288859 
L 402.863282 217.945333 
L 403.263723 223.209445 
L 403.664164 214.865955 
L 405.666371 241.186515 
L 406.066813 232.842344 
L 406.467254 238.106456 
L 406.867696 229.762535 
L 407.668578 240.290759 
L 408.06902 231.946671 
L 408.869903 242.474895 
L 409.270344 234.130586 
L 410.471668 249.922922 
L 410.872109 241.577129 
L 411.272551 246.841241 
L 411.672992 238.49624 
L 412.473875 249.024464 
L 412.874316 240.678936 
L 413.675199 251.20716 
L 414.075641 242.860931 
L 415.677406 263.917379 
L 416.077847 255.558995 
L 416.87873 266.087219 
L 417.279172 257.723891 
L 417.679613 262.988003 
L 418.080054 254.631341 
L 418.480496 259.895453 
L 418.880937 251.543217 
L 419.281379 256.807329 
L 419.68182 248.458038 
L 420.082261 253.72215 
L 420.482703 245.374818 
L 420.883144 250.63893 
L 421.283586 242.292903 
L 421.684027 247.557015 
L 422.084468 239.211858 
L 422.885351 249.740082 
L 423.285792 241.394346 
L 424.887558 262.450794 
L 425.287999 254.095035 
L 426.489324 269.887371 
L 426.889765 261.511145 
L 428.091089 277.303481 
L 428.491531 268.873266 
L 429.692855 284.665602 
L 430.093296 276.095463 
L 430.493737 281.359575 
L 430.894179 272.868684 
L 431.695062 283.396908 
L 432.095503 274.861212 
L 433.296827 290.653548 
L 433.697269 281.819989 
L 435.299034 302.876437 
L 435.299034 302.876437 
" style="fill:none;stroke:#ff7f0e;stroke-linecap:square;stroke-width:0.666667;"/>
   </g>
   <g id="patch_3">
    <path d="M 35.85875 316.4425 
L 35.85875 17.989125 
" style="fill:none;stroke:#000000;stroke-linecap:square;stroke-linejoin:miter;stroke-width:0.8;"/>
   </g>
   <g id="patch_4">
    <path d="M 454.32 316.4425 
L 454.32 17.989125 
" style="fill:none;stroke:#000000;stroke-linecap:square;stroke-linejoin:miter;stroke-width:0.8;"/>
   </g>
   <g id="patch_5">
    <path d="M 35.85875 316.4425 
L 454.32 316.4425 
" style="fill:none;stroke:#000000;stroke-linecap:square;stroke-linejoin:miter;stroke-width:0.8;"/>
   </g>
   <g id="patch_6">
    <path d="M 35.85875 17.989125 
L 454.32 17.989125 
" style="fill:none;stroke:#000000;stroke-linecap:square;stroke-linejoin:miter;stroke-width:0.8;"/>
   </g>
   <g id="text_16">
    <!-- "3y+1" problem -->
    <g transform="translate(214.747 11.989125)scale(0.072 -0.072)">
     <defs>
      <path d="M 43.703125 72.90625 
L 43.703125 45.796875 
L 35.203125 45.796875 
L 35.203125 72.90625 
z
M 25 72.90625 
L 25 45.796875 
L 16.5 45.796875 
L 16.5 72.90625 
z
" id="DejaVuSansMono-34"/>
      <path d="M 34.1875 57.171875 
L 34.1875 35.5 
L 55.90625 35.5 
L 55.90625 27.203125 
L 34.1875 27.203125 
L 34.1875 5.515625 
L 25.984375 5.515625 
L 25.984375 27.203125 
L 4.296875 27.203125 
L 4.296875 35.5 
L 25.984375 35.5 
L 25.984375 57.171875 
z
" id="DejaVuSansMono-43"/>
      <path id="DejaVuSansMono-32"/>
      <path d="M 18.3125 6.890625 
L 18.3125 -20.796875 
L 9.28125 -20.796875 
L 9.28125 54.6875 
L 18.3125 54.6875 
L 18.3125 47.703125 
Q 20.5625 51.765625 24.296875 53.875 
Q 28.03125 56 32.90625 56 
Q 42.828125 56 48.46875 48.328125 
Q 54.109375 40.671875 54.109375 27.09375 
Q 54.109375 13.765625 48.4375 6.171875 
Q 42.78125 -1.421875 32.90625 -1.421875 
Q 27.9375 -1.421875 24.1875 0.703125 
Q 20.453125 2.828125 18.3125 6.890625 
z
M 44.671875 27.296875 
Q 44.671875 37.75 41.375 43.0625 
Q 38.09375 48.390625 31.59375 48.390625 
Q 25.046875 48.390625 21.671875 43.046875 
Q 18.3125 37.703125 18.3125 27.296875 
Q 18.3125 16.9375 21.671875 11.5625 
Q 25.046875 6.203125 31.59375 6.203125 
Q 38.09375 6.203125 41.375 11.515625 
Q 44.671875 16.84375 44.671875 27.296875 
z
" id="DejaVuSansMono-112"/>
      <path d="M 56.390625 43.40625 
Q 53.515625 45.65625 50.53125 46.671875 
Q 47.5625 47.703125 44 47.703125 
Q 35.59375 47.703125 31.140625 42.421875 
Q 26.703125 37.15625 26.703125 27.203125 
L 26.703125 0 
L 17.671875 0 
L 17.671875 54.6875 
L 26.703125 54.6875 
L 26.703125 44 
Q 28.953125 49.8125 33.609375 52.90625 
Q 38.28125 56 44.671875 56 
Q 48 56 50.875 55.171875 
Q 53.765625 54.34375 56.390625 52.59375 
z
" id="DejaVuSansMono-114"/>
      <path d="M 30.078125 48.390625 
Q 23.25 48.390625 19.734375 43.0625 
Q 16.21875 37.75 16.21875 27.296875 
Q 16.21875 16.890625 19.734375 11.546875 
Q 23.25 6.203125 30.078125 6.203125 
Q 36.96875 6.203125 40.484375 11.546875 
Q 44 16.890625 44 27.296875 
Q 44 37.75 40.484375 43.0625 
Q 36.96875 48.390625 30.078125 48.390625 
z
M 30.078125 56 
Q 41.453125 56 47.484375 48.625 
Q 53.515625 41.265625 53.515625 27.296875 
Q 53.515625 13.28125 47.5 5.921875 
Q 41.5 -1.421875 30.078125 -1.421875 
Q 18.703125 -1.421875 12.6875 5.921875 
Q 6.6875 13.28125 6.6875 27.296875 
Q 6.6875 41.265625 12.6875 48.625 
Q 18.703125 56 30.078125 56 
z
" id="DejaVuSansMono-111"/>
      <path d="M 44.828125 27.296875 
Q 44.828125 37.75 41.5 43.0625 
Q 38.1875 48.390625 31.6875 48.390625 
Q 25.140625 48.390625 21.765625 43.046875 
Q 18.40625 37.703125 18.40625 27.296875 
Q 18.40625 16.9375 21.765625 11.5625 
Q 25.140625 6.203125 31.6875 6.203125 
Q 38.1875 6.203125 41.5 11.515625 
Q 44.828125 16.84375 44.828125 27.296875 
z
M 18.40625 47.703125 
Q 20.5625 51.703125 24.34375 53.84375 
Q 28.125 56 33.109375 56 
Q 42.96875 56 48.625 48.40625 
Q 54.296875 40.828125 54.296875 27.484375 
Q 54.296875 13.96875 48.609375 6.265625 
Q 42.921875 -1.421875 33.015625 -1.421875 
Q 28.125 -1.421875 24.390625 0.703125 
Q 20.65625 2.828125 18.40625 6.890625 
L 18.40625 0 
L 9.421875 0 
L 9.421875 75.984375 
L 18.40625 75.984375 
z
" id="DejaVuSansMono-98"/>
      <path d="M 31.203125 19.828125 
Q 31.203125 13.765625 33.421875 10.6875 
Q 35.640625 7.625 39.984375 7.625 
L 50.484375 7.625 
L 50.484375 0 
L 39.109375 0 
Q 31.0625 0 26.640625 5.171875 
Q 22.21875 10.359375 22.21875 19.828125 
L 22.21875 69.484375 
L 7.8125 69.484375 
L 7.8125 76.515625 
L 31.203125 76.515625 
z
" id="DejaVuSansMono-108"/>
      <path d="M 54.296875 29.59375 
L 54.296875 25.203125 
L 15.375 25.203125 
L 15.375 24.90625 
Q 15.375 15.96875 20.03125 11.078125 
Q 24.703125 6.203125 33.203125 6.203125 
Q 37.5 6.203125 42.1875 7.5625 
Q 46.875 8.9375 52.203125 11.71875 
L 52.203125 2.78125 
Q 47.078125 0.6875 42.3125 -0.359375 
Q 37.546875 -1.421875 33.109375 -1.421875 
Q 20.359375 -1.421875 13.171875 6.21875 
Q 6 13.875 6 27.296875 
Q 6 40.375 13.03125 48.1875 
Q 20.0625 56 31.78125 56 
Q 42.234375 56 48.265625 48.921875 
Q 54.296875 41.84375 54.296875 29.59375 
z
M 45.3125 32.234375 
Q 45.125 40.140625 41.578125 44.265625 
Q 38.03125 48.390625 31.390625 48.390625 
Q 24.90625 48.390625 20.703125 44.09375 
Q 16.5 39.796875 15.71875 32.171875 
z
" id="DejaVuSansMono-101"/>
      <path d="M 33.015625 49.125 
Q 34.671875 52.640625 37.234375 54.3125 
Q 39.796875 56 43.40625 56 
Q 50 56 52.703125 50.890625 
Q 55.421875 45.796875 55.421875 31.6875 
L 55.421875 0 
L 47.21875 0 
L 47.21875 31.296875 
Q 47.21875 42.875 45.921875 45.671875 
Q 44.625 48.484375 41.21875 48.484375 
Q 37.3125 48.484375 35.859375 45.484375 
Q 34.421875 42.484375 34.421875 31.296875 
L 34.421875 0 
L 26.21875 0 
L 26.21875 31.296875 
Q 26.21875 43.015625 24.828125 45.75 
Q 23.4375 48.484375 19.828125 48.484375 
Q 16.265625 48.484375 14.875 45.484375 
Q 13.484375 42.484375 13.484375 31.296875 
L 13.484375 0 
L 5.328125 0 
L 5.328125 54.6875 
L 13.484375 54.6875 
L 13.484375 50 
Q 15.09375 52.9375 17.5 54.46875 
Q 19.921875 56 23 56 
Q 26.703125 56 29.171875 54.296875 
Q 31.640625 52.59375 33.015625 49.125 
z
" id="DejaVuSansMono-109"/>
     </defs>
     <use xlink:href="#DejaVuSansMono-34"/>
     <use x="60.205078" xlink:href="#DejaVuSansMono-51"/>
     <use x="120.410156" xlink:href="#DejaVuSansMono-121"/>
     <use x="180.615234" xlink:href="#DejaVuSansMono-43"/>
     <use x="240.820312" xlink:href="#DejaVuSansMono-49"/>
     <use x="301.025391" xlink:href="#DejaVuSansMono-34"/>
     <use x="361.230469" xlink:href="#DejaVuSansMono-32"/>
     <use x="421.435547" xlink:href="#DejaVuSansMono-112"/>
     <use x="481.640625" xlink:href="#DejaVuSansMono-114"/>
     <use x="541.845703" xlink:href="#DejaVuSansMono-111"/>
     <use x="602.050781" xlink:href="#DejaVuSansMono-98"/>
     <use x="662.255859" xlink:href="#DejaVuSansMono-108"/>
     <use x="722.460938" xlink:href="#DejaVuSansMono-101"/>
     <use x="782.666016" xlink:href="#DejaVuSansMono-109"/>
    </g>
   </g>
   <g id="legend_1">
    <g id="patch_7">
     <path d="M 340.615313 82.0095 
L 450.12 82.0095 
Q 451.32 82.0095 451.32 80.8095 
L 451.32 22.189125 
Q 451.32 20.989125 450.12 20.989125 
L 340.615313 20.989125 
Q 339.415313 20.989125 339.415313 22.189125 
L 339.415313 80.8095 
Q 339.415313 82.0095 340.615313 82.0095 
z
" style="fill:#ffffff;opacity:0.8;stroke:#cccccc;stroke-linejoin:miter;"/>
    </g>
    <g id="line2d_16">
     <path d="M 341.815313 36.889687 
L 353.815313 36.889687 
" style="fill:none;stroke:#1f77b4;stroke-linecap:square;stroke-width:0.666667;"/>
    </g>
    <g id="line2d_17"/>
    <g id="text_17">
     <!-- "Tallest": -->
     <g transform="translate(358.615313 27.980062)scale(0.06 -0.06)">
      <defs>
       <path d="M 2.296875 72.90625 
L 57.90625 72.90625 
L 57.90625 64.59375 
L 35.109375 64.59375 
L 35.109375 0 
L 25.203125 0 
L 25.203125 64.59375 
L 2.296875 64.59375 
z
" id="DejaVuSansMono-84"/>
       <path d="M 34.28125 27.484375 
L 31.296875 27.484375 
Q 23.4375 27.484375 19.453125 24.71875 
Q 15.484375 21.96875 15.484375 16.5 
Q 15.484375 11.578125 18.453125 8.84375 
Q 21.4375 6.109375 26.703125 6.109375 
Q 34.125 6.109375 38.375 11.25 
Q 42.625 16.40625 42.671875 25.484375 
L 42.671875 27.484375 
z
M 51.703125 31.203125 
L 51.703125 0 
L 42.671875 0 
L 42.671875 8.109375 
Q 39.796875 3.21875 35.421875 0.890625 
Q 31.0625 -1.421875 24.8125 -1.421875 
Q 16.453125 -1.421875 11.46875 3.296875 
Q 6.5 8.015625 6.5 15.921875 
Q 6.5 25.046875 12.625 29.78125 
Q 18.75 34.515625 30.609375 34.515625 
L 42.671875 34.515625 
L 42.671875 35.9375 
Q 42.625 42.484375 39.34375 45.4375 
Q 36.078125 48.390625 28.90625 48.390625 
Q 24.3125 48.390625 19.625 47.0625 
Q 14.9375 45.75 10.5 43.21875 
L 10.5 52.203125 
Q 15.484375 54.109375 20.046875 55.046875 
Q 24.609375 56 28.90625 56 
Q 35.6875 56 40.5 54 
Q 45.3125 52 48.296875 48 
Q 50.140625 45.5625 50.921875 41.96875 
Q 51.703125 38.375 51.703125 31.203125 
z
" id="DejaVuSansMono-97"/>
       <path d="M 47.515625 52.78125 
L 47.515625 44 
Q 43.65625 46.234375 39.75 47.359375 
Q 35.84375 48.484375 31.78125 48.484375 
Q 25.6875 48.484375 22.671875 46.5 
Q 19.671875 44.53125 19.671875 40.484375 
Q 19.671875 36.8125 21.921875 35 
Q 24.171875 33.203125 33.109375 31.5 
L 36.71875 30.8125 
Q 43.40625 29.546875 46.84375 25.734375 
Q 50.296875 21.921875 50.296875 15.828125 
Q 50.296875 7.71875 44.53125 3.140625 
Q 38.765625 -1.421875 28.515625 -1.421875 
Q 24.46875 -1.421875 20.015625 -0.5625 
Q 15.578125 0.296875 10.40625 2 
L 10.40625 11.28125 
Q 15.4375 8.6875 20.015625 7.390625 
Q 24.609375 6.109375 28.71875 6.109375 
Q 34.671875 6.109375 37.9375 8.515625 
Q 41.21875 10.9375 41.21875 15.28125 
Q 41.21875 21.53125 29.25 23.921875 
L 28.859375 24.03125 
L 25.484375 24.703125 
Q 17.71875 26.21875 14.15625 29.8125 
Q 10.59375 33.40625 10.59375 39.59375 
Q 10.59375 47.46875 15.90625 51.734375 
Q 21.234375 56 31.109375 56 
Q 35.5 56 39.546875 55.1875 
Q 43.609375 54.390625 47.515625 52.78125 
z
" id="DejaVuSansMono-115"/>
       <path d="M 29.984375 70.21875 
L 29.984375 54.6875 
L 50.390625 54.6875 
L 50.390625 47.703125 
L 29.984375 47.703125 
L 29.984375 18.015625 
Q 29.984375 11.96875 32.28125 9.5625 
Q 34.578125 7.171875 40.28125 7.171875 
L 50.390625 7.171875 
L 50.390625 0 
L 39.40625 0 
Q 29.296875 0 25.140625 4.046875 
Q 21 8.109375 21 18.015625 
L 21 47.703125 
L 6.390625 47.703125 
L 6.390625 54.6875 
L 21 54.6875 
L 21 70.21875 
z
" id="DejaVuSansMono-116"/>
       <path d="M 23.875 51.90625 
L 36.1875 51.90625 
L 36.1875 37.109375 
L 23.875 37.109375 
z
M 23.875 14.890625 
L 36.1875 14.890625 
L 36.1875 0 
L 23.875 0 
z
" id="DejaVuSansMono-58"/>
      </defs>
      <use xlink:href="#DejaVuSansMono-34"/>
      <use x="60.205078" xlink:href="#DejaVuSansMono-84"/>
      <use x="120.410156" xlink:href="#DejaVuSansMono-97"/>
      <use x="180.615234" xlink:href="#DejaVuSansMono-108"/>
      <use x="240.820312" xlink:href="#DejaVuSansMono-108"/>
      <use x="301.025391" xlink:href="#DejaVuSansMono-101"/>
      <use x="361.230469" xlink:href="#DejaVuSansMono-115"/>
      <use x="421.435547" xlink:href="#DejaVuSansMono-116"/>
      <use x="481.640625" xlink:href="#DejaVuSansMono-34"/>
      <use x="541.845703" xlink:href="#DejaVuSansMono-58"/>
     </g>
     <!-- y_0    = 120080895 -->
     <g transform="translate(358.615313 34.737)scale(0.06 -0.06)">
      <defs>
       <path d="M 4.296875 25.59375 
L 55.90625 25.59375 
L 55.90625 17.1875 
L 4.296875 17.1875 
z
M 4.296875 45.40625 
L 55.90625 45.40625 
L 55.90625 37.109375 
L 4.296875 37.109375 
z
" id="DejaVuSansMono-61"/>
      </defs>
      <use xlink:href="#DejaVuSansMono-121"/>
      <use x="60.205078" xlink:href="#DejaVuSansMono-95"/>
      <use x="120.410156" xlink:href="#DejaVuSansMono-48"/>
      <use x="180.615234" xlink:href="#DejaVuSansMono-32"/>
      <use x="240.820312" xlink:href="#DejaVuSansMono-32"/>
      <use x="301.025391" xlink:href="#DejaVuSansMono-32"/>
      <use x="361.230469" xlink:href="#DejaVuSansMono-32"/>
      <use x="421.435547" xlink:href="#DejaVuSansMono-61"/>
      <use x="481.640625" xlink:href="#DejaVuSansMono-32"/>
      <use x="541.845703" xlink:href="#DejaVuSansMono-49"/>
      <use x="602.050781" xlink:href="#DejaVuSansMono-50"/>
      <use x="662.255859" xlink:href="#DejaVuSansMono-48"/>
      <use x="722.460938" xlink:href="#DejaVuSansMono-48"/>
      <use x="782.666016" xlink:href="#DejaVuSansMono-56"/>
      <use x="842.871094" xlink:href="#DejaVuSansMono-48"/>
      <use x="903.076172" xlink:href="#DejaVuSansMono-56"/>
      <use x="963.28125" xlink:href="#DejaVuSansMono-57"/>
      <use x="1023.486328" xlink:href="#DejaVuSansMono-53"/>
     </g>
     <!-- y_max  = 3277901576118580 -->
     <g transform="translate(358.615313 41.660812)scale(0.06 -0.06)">
      <defs>
       <path d="M 54.59375 54.6875 
L 35.015625 28.515625 
L 56.5 0 
L 46.09375 0 
L 30.078125 21.921875 
L 14.109375 0 
L 3.71875 0 
L 25.203125 28.515625 
L 5.609375 54.6875 
L 15.578125 54.6875 
L 30.078125 34.90625 
L 44.484375 54.6875 
z
" id="DejaVuSansMono-120"/>
      </defs>
      <use xlink:href="#DejaVuSansMono-121"/>
      <use x="60.205078" xlink:href="#DejaVuSansMono-95"/>
      <use x="120.410156" xlink:href="#DejaVuSansMono-109"/>
      <use x="180.615234" xlink:href="#DejaVuSansMono-97"/>
      <use x="240.820312" xlink:href="#DejaVuSansMono-120"/>
      <use x="301.025391" xlink:href="#DejaVuSansMono-32"/>
      <use x="361.230469" xlink:href="#DejaVuSansMono-32"/>
      <use x="421.435547" xlink:href="#DejaVuSansMono-61"/>
      <use x="481.640625" xlink:href="#DejaVuSansMono-32"/>
      <use x="541.845703" xlink:href="#DejaVuSansMono-51"/>
      <use x="602.050781" xlink:href="#DejaVuSansMono-50"/>
      <use x="662.255859" xlink:href="#DejaVuSansMono-55"/>
      <use x="722.460938" xlink:href="#DejaVuSansMono-55"/>
      <use x="782.666016" xlink:href="#DejaVuSansMono-57"/>
      <use x="842.871094" xlink:href="#DejaVuSansMono-48"/>
      <use x="903.076172" xlink:href="#DejaVuSansMono-49"/>
      <use x="963.28125" xlink:href="#DejaVuSansMono-53"/>
      <use x="1023.486328" xlink:href="#DejaVuSansMono-55"/>
      <use x="1083.691406" xlink:href="#DejaVuSansMono-54"/>
      <use x="1143.896484" xlink:href="#DejaVuSansMono-49"/>
      <use x="1204.101562" xlink:href="#DejaVuSansMono-49"/>
      <use x="1264.306641" xlink:href="#DejaVuSansMono-56"/>
      <use x="1324.511719" xlink:href="#DejaVuSansMono-53"/>
      <use x="1384.716797" xlink:href="#DejaVuSansMono-56"/>
      <use x="1444.921875" xlink:href="#DejaVuSansMono-48"/>
     </g>
     <!-- x_max  = 439 -->
     <g transform="translate(358.615313 48.584625)scale(0.06 -0.06)">
      <use xlink:href="#DejaVuSansMono-120"/>
      <use x="60.205078" xlink:href="#DejaVuSansMono-95"/>
      <use x="120.410156" xlink:href="#DejaVuSansMono-109"/>
      <use x="180.615234" xlink:href="#DejaVuSansMono-97"/>
      <use x="240.820312" xlink:href="#DejaVuSansMono-120"/>
      <use x="301.025391" xlink:href="#DejaVuSansMono-32"/>
      <use x="361.230469" xlink:href="#DejaVuSansMono-32"/>
      <use x="421.435547" xlink:href="#DejaVuSansMono-61"/>
      <use x="481.640625" xlink:href="#DejaVuSansMono-32"/>
      <use x="541.845703" xlink:href="#DejaVuSansMono-52"/>
      <use x="602.050781" xlink:href="#DejaVuSansMono-51"/>
      <use x="662.255859" xlink:href="#DejaVuSansMono-57"/>
     </g>
    </g>
    <g id="line2d_18">
     <path d="M 341.815313 66.499875 
L 353.815313 66.499875 
" style="fill:none;stroke:#ff7f0e;stroke-linecap:square;stroke-width:0.666667;"/>
    </g>
    <g id="line2d_19"/>
    <g id="text_18">
     <!-- "Widest":  -->
     <g transform="translate(358.615313 57.59025)scale(0.06 -0.06)">
      <defs>
       <path d="M 0 72.90625 
L 9.625 72.90625 
L 16.609375 13.71875 
L 24.90625 52.875 
L 35.203125 52.875 
L 43.609375 13.625 
L 50.59375 72.90625 
L 60.203125 72.90625 
L 49.3125 0 
L 39.984375 0 
L 30.078125 43.3125 
L 20.21875 0 
L 10.890625 0 
z
" id="DejaVuSansMono-87"/>
       <path d="M 12.5 54.6875 
L 35.5 54.6875 
L 35.5 6.984375 
L 53.328125 6.984375 
L 53.328125 0 
L 8.6875 0 
L 8.6875 6.984375 
L 26.515625 6.984375 
L 26.515625 47.703125 
L 12.5 47.703125 
z
M 26.515625 75.984375 
L 35.5 75.984375 
L 35.5 64.59375 
L 26.515625 64.59375 
z
" id="DejaVuSansMono-105"/>
       <path d="M 41.890625 47.703125 
L 41.890625 75.984375 
L 50.875 75.984375 
L 50.875 0 
L 41.890625 0 
L 41.890625 6.890625 
Q 39.65625 2.828125 35.90625 0.703125 
Q 32.171875 -1.421875 27.296875 -1.421875 
Q 17.390625 -1.421875 11.6875 6.265625 
Q 6 13.96875 6 27.484375 
Q 6 40.828125 11.71875 48.40625 
Q 17.4375 56 27.296875 56 
Q 32.234375 56 35.984375 53.875 
Q 39.75 51.765625 41.890625 47.703125 
z
M 15.484375 27.296875 
Q 15.484375 16.84375 18.796875 11.515625 
Q 22.125 6.203125 28.609375 6.203125 
Q 35.109375 6.203125 38.5 11.5625 
Q 41.890625 16.9375 41.890625 27.296875 
Q 41.890625 37.703125 38.5 43.046875 
Q 35.109375 48.390625 28.609375 48.390625 
Q 22.125 48.390625 18.796875 43.0625 
Q 15.484375 37.75 15.484375 27.296875 
z
" id="DejaVuSansMono-100"/>
      </defs>
      <use xlink:href="#DejaVuSansMono-34"/>
      <use x="60.205078" xlink:href="#DejaVuSansMono-87"/>
      <use x="120.410156" xlink:href="#DejaVuSansMono-105"/>
      <use x="180.615234" xlink:href="#DejaVuSansMono-100"/>
      <use x="240.820312" xlink:href="#DejaVuSansMono-101"/>
      <use x="301.025391" xlink:href="#DejaVuSansMono-115"/>
      <use x="361.230469" xlink:href="#DejaVuSansMono-116"/>
      <use x="421.435547" xlink:href="#DejaVuSansMono-34"/>
      <use x="481.640625" xlink:href="#DejaVuSansMono-58"/>
      <use x="541.845703" xlink:href="#DejaVuSansMono-32"/>
     </g>
     <!-- y_0    = 127456254 -->
     <g transform="translate(358.615313 64.347187)scale(0.06 -0.06)">
      <use xlink:href="#DejaVuSansMono-121"/>
      <use x="60.205078" xlink:href="#DejaVuSansMono-95"/>
      <use x="120.410156" xlink:href="#DejaVuSansMono-48"/>
      <use x="180.615234" xlink:href="#DejaVuSansMono-32"/>
      <use x="240.820312" xlink:href="#DejaVuSansMono-32"/>
      <use x="301.025391" xlink:href="#DejaVuSansMono-32"/>
      <use x="361.230469" xlink:href="#DejaVuSansMono-32"/>
      <use x="421.435547" xlink:href="#DejaVuSansMono-61"/>
      <use x="481.640625" xlink:href="#DejaVuSansMono-32"/>
      <use x="541.845703" xlink:href="#DejaVuSansMono-49"/>
      <use x="602.050781" xlink:href="#DejaVuSansMono-50"/>
      <use x="662.255859" xlink:href="#DejaVuSansMono-55"/>
      <use x="722.460938" xlink:href="#DejaVuSansMono-52"/>
      <use x="782.666016" xlink:href="#DejaVuSansMono-53"/>
      <use x="842.871094" xlink:href="#DejaVuSansMono-54"/>
      <use x="903.076172" xlink:href="#DejaVuSansMono-50"/>
      <use x="963.28125" xlink:href="#DejaVuSansMono-53"/>
      <use x="1023.486328" xlink:href="#DejaVuSansMono-52"/>
     </g>
     <!-- y_max  = 966616035460 -->
     <g transform="translate(358.615313 71.271)scale(0.06 -0.06)">
      <use xlink:href="#DejaVuSansMono-121"/>
      <use x="60.205078" xlink:href="#DejaVuSansMono-95"/>
      <use x="120.410156" xlink:href="#DejaVuSansMono-109"/>
      <use x="180.615234" xlink:href="#DejaVuSansMono-97"/>
      <use x="240.820312" xlink:href="#DejaVuSansMono-120"/>
      <use x="301.025391" xlink:href="#DejaVuSansMono-32"/>
      <use x="361.230469" xlink:href="#DejaVuSansMono-32"/>
      <use x="421.435547" xlink:href="#DejaVuSansMono-61"/>
      <use x="481.640625" xlink:href="#DejaVuSansMono-32"/>
      <use x="541.845703" xlink:href="#DejaVuSansMono-57"/>
      <use x="602.050781" xlink:href="#DejaVuSansMono-54"/>
      <use x="662.255859" xlink:href="#DejaVuSansMono-54"/>
      <use x="722.460938" xlink:href="#DejaVuSansMono-54"/>
      <use x="782.666016" xlink:href="#DejaVuSansMono-49"/>
      <use x="842.871094" xlink:href="#DejaVuSansMono-54"/>
      <use x="903.076172" xlink:href="#DejaVuSansMono-48"/>
      <use x="963.28125" xlink:href="#DejaVuSansMono-51"/>
      <use x="1023.486328" xlink:href="#DejaVuSansMono-53"/>
      <use x="1083.691406" xlink:href="#DejaVuSansMono-52"/>
      <use x="1143.896484" xlink:href="#DejaVuSansMono-54"/>
      <use x="1204.101562" xlink:href="#DejaVuSansMono-48"/>
     </g>
     <!-- x_max  = 951 -->
     <g transform="translate(358.615313 78.194812)scale(0.06 -0.06)">
      <use xlink:href="#DejaVuSansMono-120"/>
      <use x="60.205078" xlink:href="#DejaVuSansMono-95"/>
      <use x="120.410156" xlink:href="#DejaVuSansMono-109"/>
      <use x="180.615234" xlink:href="#DejaVuSansMono-97"/>
      <use x="240.820312" xlink:href="#DejaVuSansMono-120"/>
      <use x="301.025391" xlink:href="#DejaVuSansMono-32"/>
      <use x="361.230469" xlink:href="#DejaVuSansMono-32"/>
      <use x="421.435547" xlink:href="#DejaVuSansMono-61"/>
      <use x="481.640625" xlink:href="#DejaVuSansMono-32"/>
      <use x="541.845703" xlink:href="#DejaVuSansMono-57"/>
      <use x="602.050781" xlink:href="#DejaVuSansMono-53"/>
      <use x="662.255859" xlink:href="#DejaVuSansMono-49"/>
     </g>
    </g>
   </g>
  </g>
 </g>
 <defs>
  <clipPath id="p0b322197ba">
   <rect height="298.453375" width="418.46125" x="35.85875" y="17.989125"/>
  </clipPath>
 </defs>
</svg>
