<?xml version="1.0" encoding="utf-8" standalone="no"?>
<!DOCTYPE svg PUBLIC "-//W3C//DTD SVG 1.1//EN"
  "http://www.w3.org/Graphics/SVG/1.1/DTD/svg11.dtd">
<!-- Created with matplotlib (https://matplotlib.org/) -->
<svg height="345.6pt" version="1.1" viewBox="0 0 460.8 345.6" width="460.8pt" xmlns="http://www.w3.org/2000/svg" xmlns:xlink="http://www.w3.org/1999/xlink">
 <metadata>
  <rdf:RDF xmlns:cc="http://creativecommons.org/ns#" xmlns:dc="http://purl.org/dc/elements/1.1/" xmlns:rdf="http://www.w3.org/1999/02/22-rdf-syntax-ns#">
   <cc:Work>
    <dc:type rdf:resource="http://purl.org/dc/dcmitype/StillImage"/>
    <dc:date>2022-03-17T03:11:34.123841</dc:date>
    <dc:format>image/svg+xml</dc:format>
    <dc:creator>
     <cc:Agent>
      <dc:title>Matplotlib v3.3.2, https://matplotlib.org/</dc:title>
     </cc:Agent>
    </dc:creator>
   </cc:Work>
  </rdf:RDF>
 </metadata>
 <defs>
  <style type="text/css">*{stroke-linecap:butt;stroke-linejoin:round;}</style>
 </defs>
 <g id="figure_1">
  <g id="patch_1">
   <path d="M 0 345.6 
L 460.8 345.6 
L 460.8 0 
L 0 0 
z
" style="fill:#ffffff;"/>
  </g>
  <g id="axes_1">
   <g id="patch_2">
    <path d="M 35.85875 316.4425 
L 454.32 316.4425 
L 454.32 17.989125 
L 35.85875 17.989125 
z
" style="fill:#ffffff;"/>
   </g>
   <g id="matplotlib.axis_1">
    <g id="xtick_1">
     <g id="line2d_1">
      <defs>
       <path d="M 0 0 
L 0 3.5 
" id="mc1fabc7cd1" style="stroke:#000000;stroke-width:0.8;"/>
      </defs>
      <g>
       <use style="stroke:#000000;stroke-width:0.8;" x="54.879716" xlink:href="#mc1fabc7cd1" y="316.4425"/>
      </g>
     </g>
     <g id="text_1">
      <!-- 0 -->
      <g transform="translate(53.073622 328.033437)scale(0.06 -0.06)">
       <defs>
        <path d="M 23.578125 36.625 
Q 23.578125 39.3125 25.453125 41.265625 
Q 27.34375 43.21875 29.984375 43.21875 
Q 32.71875 43.21875 34.671875 41.265625 
Q 36.625 39.3125 36.625 36.625 
Q 36.625 33.890625 34.6875 31.984375 
Q 32.765625 30.078125 29.984375 30.078125 
Q 27.25 30.078125 25.40625 31.9375 
Q 23.578125 33.796875 23.578125 36.625 
z
M 30.078125 66.40625 
Q 23.1875 66.40625 19.796875 58.984375 
Q 16.40625 51.5625 16.40625 36.375 
Q 16.40625 21.234375 19.796875 13.8125 
Q 23.1875 6.390625 30.078125 6.390625 
Q 37.015625 6.390625 40.40625 13.8125 
Q 43.796875 21.234375 43.796875 36.375 
Q 43.796875 51.5625 40.40625 58.984375 
Q 37.015625 66.40625 30.078125 66.40625 
z
M 30.078125 74.21875 
Q 41.75 74.21875 47.734375 64.640625 
Q 53.71875 55.078125 53.71875 36.375 
Q 53.71875 17.71875 47.734375 8.140625 
Q 41.75 -1.421875 30.078125 -1.421875 
Q 18.40625 -1.421875 12.453125 8.140625 
Q 6.5 17.71875 6.5 36.375 
Q 6.5 55.078125 12.453125 64.640625 
Q 18.40625 74.21875 30.078125 74.21875 
z
" id="DejaVuSansMono-48"/>
       </defs>
       <use xlink:href="#DejaVuSansMono-48"/>
      </g>
     </g>
    </g>
    <g id="xtick_2">
     <g id="line2d_2">
      <g>
       <use style="stroke:#000000;stroke-width:0.8;" x="135.052386" xlink:href="#mc1fabc7cd1" y="316.4425"/>
      </g>
     </g>
     <g id="text_2">
      <!-- 200 -->
      <g transform="translate(129.634104 328.033437)scale(0.06 -0.06)">
       <defs>
        <path d="M 18.21875 8.296875 
L 51.703125 8.296875 
L 51.703125 0 
L 7.421875 0 
L 7.421875 8.296875 
Q 16.546875 17.921875 23.375 25.296875 
Q 30.21875 32.671875 32.8125 35.6875 
Q 37.703125 41.65625 39.40625 45.34375 
Q 41.109375 49.03125 41.109375 52.875 
Q 41.109375 58.984375 37.515625 62.453125 
Q 33.9375 65.921875 27.6875 65.921875 
Q 23.25 65.921875 18.359375 64.3125 
Q 13.484375 62.703125 8.015625 59.421875 
L 8.015625 69.390625 
Q 13.03125 71.78125 17.890625 73 
Q 22.75 74.21875 27.484375 74.21875 
Q 38.1875 74.21875 44.703125 68.53125 
Q 51.21875 62.84375 51.21875 53.609375 
Q 51.21875 48.921875 49.046875 44.234375 
Q 46.875 39.546875 42 33.890625 
Q 39.265625 30.71875 34.0625 25.09375 
Q 28.859375 19.484375 18.21875 8.296875 
z
" id="DejaVuSansMono-50"/>
       </defs>
       <use xlink:href="#DejaVuSansMono-50"/>
       <use x="60.205078" xlink:href="#DejaVuSansMono-48"/>
       <use x="120.410156" xlink:href="#DejaVuSansMono-48"/>
      </g>
     </g>
    </g>
    <g id="xtick_3">
     <g id="line2d_3">
      <g>
       <use style="stroke:#000000;stroke-width:0.8;" x="215.225056" xlink:href="#mc1fabc7cd1" y="316.4425"/>
      </g>
     </g>
     <g id="text_3">
      <!-- 400 -->
      <g transform="translate(209.806774 328.033437)scale(0.06 -0.06)">
       <defs>
        <path d="M 35.890625 63.921875 
L 12.890625 25.390625 
L 35.890625 25.390625 
z
M 34.28125 72.90625 
L 45.703125 72.90625 
L 45.703125 25.390625 
L 55.421875 25.390625 
L 55.421875 17.390625 
L 45.703125 17.390625 
L 45.703125 0 
L 35.890625 0 
L 35.890625 17.390625 
L 4.984375 17.390625 
L 4.984375 26.703125 
z
" id="DejaVuSansMono-52"/>
       </defs>
       <use xlink:href="#DejaVuSansMono-52"/>
       <use x="60.205078" xlink:href="#DejaVuSansMono-48"/>
       <use x="120.410156" xlink:href="#DejaVuSansMono-48"/>
      </g>
     </g>
    </g>
    <g id="xtick_4">
     <g id="line2d_4">
      <g>
       <use style="stroke:#000000;stroke-width:0.8;" x="295.397725" xlink:href="#mc1fabc7cd1" y="316.4425"/>
      </g>
     </g>
     <g id="text_4">
      <!-- 600 -->
      <g transform="translate(289.979444 328.033437)scale(0.06 -0.06)">
       <defs>
        <path d="M 48.390625 71.296875 
L 48.390625 62.203125 
Q 45.3125 64.015625 41.84375 64.96875 
Q 38.375 65.921875 34.625 65.921875 
Q 25.25 65.921875 20.40625 58.859375 
Q 15.578125 51.8125 15.578125 38.09375 
Q 17.921875 42.96875 22.0625 45.578125 
Q 26.21875 48.1875 31.59375 48.1875 
Q 42.140625 48.1875 47.921875 41.71875 
Q 53.71875 35.25 53.71875 23.390625 
Q 53.71875 11.578125 47.75 5.078125 
Q 41.796875 -1.421875 31 -1.421875 
Q 18.3125 -1.421875 12.40625 7.6875 
Q 6.5 16.796875 6.5 36.375 
Q 6.5 54.828125 13.59375 64.515625 
Q 20.703125 74.21875 34.1875 74.21875 
Q 37.796875 74.21875 41.40625 73.453125 
Q 45.015625 72.703125 48.390625 71.296875 
z
M 30.8125 40.484375 
Q 24.515625 40.484375 20.890625 35.9375 
Q 17.28125 31.390625 17.28125 23.390625 
Q 17.28125 15.375 20.890625 10.828125 
Q 24.515625 6.296875 30.8125 6.296875 
Q 37.359375 6.296875 40.671875 10.609375 
Q 44 14.9375 44 23.390625 
Q 44 31.890625 40.671875 36.1875 
Q 37.359375 40.484375 30.8125 40.484375 
z
" id="DejaVuSansMono-54"/>
       </defs>
       <use xlink:href="#DejaVuSansMono-54"/>
       <use x="60.205078" xlink:href="#DejaVuSansMono-48"/>
       <use x="120.410156" xlink:href="#DejaVuSansMono-48"/>
      </g>
     </g>
    </g>
    <g id="xtick_5">
     <g id="line2d_5">
      <g>
       <use style="stroke:#000000;stroke-width:0.8;" x="375.570395" xlink:href="#mc1fabc7cd1" y="316.4425"/>
      </g>
     </g>
     <g id="text_5">
      <!-- 800 -->
      <g transform="translate(370.152114 328.033437)scale(0.06 -0.06)">
       <defs>
        <path d="M 30.078125 34.625 
Q 23.484375 34.625 19.890625 30.9375 
Q 16.3125 27.25 16.3125 20.515625 
Q 16.3125 13.765625 19.9375 10.03125 
Q 23.578125 6.296875 30.078125 6.296875 
Q 36.71875 6.296875 40.296875 9.984375 
Q 43.890625 13.671875 43.890625 20.515625 
Q 43.890625 27.203125 40.25 30.90625 
Q 36.625 34.625 30.078125 34.625 
z
M 21.484375 38.71875 
Q 15.1875 40.328125 11.640625 44.71875 
Q 8.109375 49.125 8.109375 55.328125 
Q 8.109375 64.015625 14.015625 69.109375 
Q 19.921875 74.21875 30.078125 74.21875 
Q 40.28125 74.21875 46.1875 69.109375 
Q 52.09375 64.015625 52.09375 55.328125 
Q 52.09375 49.125 48.546875 44.71875 
Q 45.015625 40.328125 38.71875 38.71875 
Q 46.046875 37.109375 49.921875 32.21875 
Q 53.8125 27.34375 53.8125 19.578125 
Q 53.8125 9.71875 47.515625 4.140625 
Q 41.21875 -1.421875 30.078125 -1.421875 
Q 18.953125 -1.421875 12.671875 4.125 
Q 6.390625 9.671875 6.390625 19.484375 
Q 6.390625 27.296875 10.265625 32.203125 
Q 14.15625 37.109375 21.484375 38.71875 
z
M 17.921875 54.390625 
Q 17.921875 48.53125 21.046875 45.453125 
Q 24.171875 42.390625 30.078125 42.390625 
Q 36.03125 42.390625 39.15625 45.453125 
Q 42.28125 48.53125 42.28125 54.390625 
Q 42.28125 60.359375 39.171875 63.484375 
Q 36.078125 66.609375 30.078125 66.609375 
Q 24.171875 66.609375 21.046875 63.453125 
Q 17.921875 60.296875 17.921875 54.390625 
z
" id="DejaVuSansMono-56"/>
       </defs>
       <use xlink:href="#DejaVuSansMono-56"/>
       <use x="60.205078" xlink:href="#DejaVuSansMono-48"/>
       <use x="120.410156" xlink:href="#DejaVuSansMono-48"/>
      </g>
     </g>
    </g>
    <g id="text_6">
     <!-- n -->
     <g transform="translate(243.283281 337.872187)scale(0.06 -0.06)">
      <defs>
       <path d="M 51.3125 33.890625 
L 51.3125 0 
L 42.28125 0 
L 42.28125 33.890625 
Q 42.28125 41.265625 39.6875 44.71875 
Q 37.109375 48.1875 31.59375 48.1875 
Q 25.296875 48.1875 21.890625 43.71875 
Q 18.5 39.265625 18.5 30.90625 
L 18.5 0 
L 9.515625 0 
L 9.515625 54.6875 
L 18.5 54.6875 
L 18.5 46.484375 
Q 20.90625 51.171875 25 53.578125 
Q 29.109375 56 34.71875 56 
Q 43.0625 56 47.1875 50.5 
Q 51.3125 45.015625 51.3125 33.890625 
z
" id="DejaVuSansMono-110"/>
      </defs>
      <use xlink:href="#DejaVuSansMono-110"/>
     </g>
    </g>
   </g>
   <g id="matplotlib.axis_2">
    <g id="ytick_1">
     <g id="line2d_6">
      <defs>
       <path d="M 0 0 
L -3.5 0 
" id="mf493f5385d" style="stroke:#000000;stroke-width:0.8;"/>
      </defs>
      <g>
       <use style="stroke:#000000;stroke-width:0.8;" x="35.85875" xlink:href="#mf493f5385d" y="285.389436"/>
      </g>
     </g>
     <g id="text_7">
      <!-- $\mathdefault{10^{1}}$ -->
      <g transform="translate(18.83875 287.684905)scale(0.06 -0.06)">
       <defs>
        <path d="M 13.1875 8.296875 
L 28.515625 8.296875 
L 28.515625 64.015625 
L 12.015625 60.296875 
L 12.015625 69.28125 
L 28.421875 72.90625 
L 38.28125 72.90625 
L 38.28125 8.296875 
L 53.421875 8.296875 
L 53.421875 0 
L 13.1875 0 
z
" id="DejaVuSansMono-49"/>
       </defs>
       <use transform="translate(0 0.684375)" xlink:href="#DejaVuSansMono-49"/>
       <use transform="translate(60.205078 0.684375)" xlink:href="#DejaVuSansMono-48"/>
       <use transform="translate(121.367188 38.965625)scale(0.7)" xlink:href="#DejaVuSansMono-49"/>
      </g>
     </g>
    </g>
    <g id="ytick_2">
     <g id="line2d_7">
      <g>
       <use style="stroke:#000000;stroke-width:0.8;" x="35.85875" xlink:href="#mf493f5385d" y="250.415433"/>
      </g>
     </g>
     <g id="text_8">
      <!-- $\mathdefault{10^{3}}$ -->
      <g transform="translate(18.83875 252.710902)scale(0.06 -0.06)">
       <defs>
        <path d="M 37.890625 39.015625 
Q 45.0625 37.109375 48.875 32.25 
Q 52.6875 27.390625 52.6875 20.125 
Q 52.6875 10.0625 45.921875 4.3125 
Q 39.15625 -1.421875 27.203125 -1.421875 
Q 22.171875 -1.421875 16.9375 -0.484375 
Q 11.71875 0.4375 6.6875 2.203125 
L 6.6875 12.015625 
Q 11.671875 9.421875 16.5 8.15625 
Q 21.34375 6.890625 26.125 6.890625 
Q 34.234375 6.890625 38.578125 10.546875 
Q 42.921875 14.203125 42.921875 21.09375 
Q 42.921875 27.4375 38.578125 31.171875 
Q 34.234375 34.90625 26.8125 34.90625 
L 19.28125 34.90625 
L 19.28125 43.015625 
L 26.8125 43.015625 
Q 33.59375 43.015625 37.40625 45.984375 
Q 41.21875 48.96875 41.21875 54.296875 
Q 41.21875 59.90625 37.671875 62.90625 
Q 34.125 65.921875 27.59375 65.921875 
Q 23.25 65.921875 18.609375 64.9375 
Q 13.96875 63.96875 8.890625 62.015625 
L 8.890625 71.09375 
Q 14.796875 72.65625 19.40625 73.4375 
Q 24.03125 74.21875 27.59375 74.21875 
Q 38.234375 74.21875 44.609375 68.875 
Q 50.984375 63.53125 50.984375 54.6875 
Q 50.984375 48.6875 47.625 44.671875 
Q 44.28125 40.671875 37.890625 39.015625 
z
" id="DejaVuSansMono-51"/>
       </defs>
       <use transform="translate(0 0.765625)" xlink:href="#DejaVuSansMono-49"/>
       <use transform="translate(60.205078 0.765625)" xlink:href="#DejaVuSansMono-48"/>
       <use transform="translate(121.367188 39.046875)scale(0.7)" xlink:href="#DejaVuSansMono-51"/>
      </g>
     </g>
    </g>
    <g id="ytick_3">
     <g id="line2d_8">
      <g>
       <use style="stroke:#000000;stroke-width:0.8;" x="35.85875" xlink:href="#mf493f5385d" y="215.44143"/>
      </g>
     </g>
     <g id="text_9">
      <!-- $\mathdefault{10^{5}}$ -->
      <g transform="translate(18.83875 217.736898)scale(0.06 -0.06)">
       <defs>
        <path d="M 10.109375 72.90625 
L 47.015625 72.90625 
L 47.015625 64.59375 
L 19.09375 64.59375 
L 19.09375 46.6875 
Q 21.1875 47.46875 23.3125 47.828125 
Q 25.4375 48.1875 27.59375 48.1875 
Q 38.921875 48.1875 45.5625 41.5 
Q 52.203125 34.8125 52.203125 23.390625 
Q 52.203125 11.859375 45.234375 5.21875 
Q 38.28125 -1.421875 26.21875 -1.421875 
Q 20.40625 -1.421875 15.59375 -0.640625 
Q 10.796875 0.140625 6.984375 1.703125 
L 6.984375 11.71875 
Q 11.46875 9.28125 16.015625 8.078125 
Q 20.5625 6.890625 25.296875 6.890625 
Q 33.453125 6.890625 37.859375 11.1875 
Q 42.28125 15.484375 42.28125 23.390625 
Q 42.28125 31.203125 37.71875 35.546875 
Q 33.15625 39.890625 25 39.890625 
Q 21.046875 39.890625 17.28125 38.984375 
Q 13.53125 38.09375 10.109375 36.28125 
z
" id="DejaVuSansMono-53"/>
       </defs>
       <use transform="translate(0 0.684375)" xlink:href="#DejaVuSansMono-49"/>
       <use transform="translate(60.205078 0.684375)" xlink:href="#DejaVuSansMono-48"/>
       <use transform="translate(121.367188 38.965625)scale(0.7)" xlink:href="#DejaVuSansMono-53"/>
      </g>
     </g>
    </g>
    <g id="ytick_4">
     <g id="line2d_9">
      <g>
       <use style="stroke:#000000;stroke-width:0.8;" x="35.85875" xlink:href="#mf493f5385d" y="180.467427"/>
      </g>
     </g>
     <g id="text_10">
      <!-- $\mathdefault{10^{7}}$ -->
      <g transform="translate(18.83875 182.762895)scale(0.06 -0.06)">
       <defs>
        <path d="M 6.78125 72.90625 
L 52.6875 72.90625 
L 52.6875 68.703125 
L 26.609375 0 
L 16.3125 0 
L 41.703125 64.59375 
L 6.78125 64.59375 
z
" id="DejaVuSansMono-55"/>
       </defs>
       <use transform="translate(0 0.684375)" xlink:href="#DejaVuSansMono-49"/>
       <use transform="translate(60.205078 0.684375)" xlink:href="#DejaVuSansMono-48"/>
       <use transform="translate(121.367188 38.965625)scale(0.7)" xlink:href="#DejaVuSansMono-55"/>
      </g>
     </g>
    </g>
    <g id="ytick_5">
     <g id="line2d_10">
      <g>
       <use style="stroke:#000000;stroke-width:0.8;" x="35.85875" xlink:href="#mf493f5385d" y="145.493423"/>
      </g>
     </g>
     <g id="text_11">
      <!-- $\mathdefault{10^{9}}$ -->
      <g transform="translate(18.83875 147.788892)scale(0.06 -0.06)">
       <defs>
        <path d="M 29.109375 32.328125 
Q 35.40625 32.328125 38.984375 36.859375 
Q 42.578125 41.40625 42.578125 49.421875 
Q 42.578125 57.421875 38.984375 61.953125 
Q 35.40625 66.5 29.109375 66.5 
Q 22.5625 66.5 19.234375 62.171875 
Q 15.921875 57.859375 15.921875 49.421875 
Q 15.921875 40.921875 19.21875 36.625 
Q 22.515625 32.328125 29.109375 32.328125 
z
M 11.53125 1.515625 
L 11.53125 10.59375 
Q 14.59375 8.796875 18.0625 7.84375 
Q 21.53125 6.890625 25.296875 6.890625 
Q 34.671875 6.890625 39.46875 13.9375 
Q 44.28125 21 44.28125 34.71875 
Q 42 29.828125 37.84375 27.21875 
Q 33.6875 24.609375 28.328125 24.609375 
Q 17.78125 24.609375 11.984375 31.09375 
Q 6.203125 37.59375 6.203125 49.515625 
Q 6.203125 61.28125 12.125 67.75 
Q 18.0625 74.21875 28.90625 74.21875 
Q 41.609375 74.21875 47.515625 65.078125 
Q 53.421875 55.953125 53.421875 36.375 
Q 53.421875 17.96875 46.3125 8.265625 
Q 39.203125 -1.421875 25.6875 -1.421875 
Q 22.125 -1.421875 18.5 -0.65625 
Q 14.890625 0.09375 11.53125 1.515625 
z
" id="DejaVuSansMono-57"/>
       </defs>
       <use transform="translate(0 0.765625)" xlink:href="#DejaVuSansMono-49"/>
       <use transform="translate(60.205078 0.765625)" xlink:href="#DejaVuSansMono-48"/>
       <use transform="translate(121.367188 39.046875)scale(0.7)" xlink:href="#DejaVuSansMono-57"/>
      </g>
     </g>
    </g>
    <g id="ytick_6">
     <g id="line2d_11">
      <g>
       <use style="stroke:#000000;stroke-width:0.8;" x="35.85875" xlink:href="#mf493f5385d" y="110.51942"/>
      </g>
     </g>
     <g id="text_12">
      <!-- $\mathdefault{10^{11}}$ -->
      <g transform="translate(16.31875 112.814889)scale(0.06 -0.06)">
       <use transform="translate(0 0.684375)" xlink:href="#DejaVuSansMono-49"/>
       <use transform="translate(60.205078 0.684375)" xlink:href="#DejaVuSansMono-48"/>
       <use transform="translate(121.367188 38.965625)scale(0.7)" xlink:href="#DejaVuSansMono-49"/>
       <use transform="translate(163.510742 38.965625)scale(0.7)" xlink:href="#DejaVuSansMono-49"/>
      </g>
     </g>
    </g>
    <g id="ytick_7">
     <g id="line2d_12">
      <g>
       <use style="stroke:#000000;stroke-width:0.8;" x="35.85875" xlink:href="#mf493f5385d" y="75.545417"/>
      </g>
     </g>
     <g id="text_13">
      <!-- $\mathdefault{10^{13}}$ -->
      <g transform="translate(16.31875 77.840886)scale(0.06 -0.06)">
       <use transform="translate(0 0.765625)" xlink:href="#DejaVuSansMono-49"/>
       <use transform="translate(60.205078 0.765625)" xlink:href="#DejaVuSansMono-48"/>
       <use transform="translate(121.367188 39.046875)scale(0.7)" xlink:href="#DejaVuSansMono-49"/>
       <use transform="translate(163.510742 39.046875)scale(0.7)" xlink:href="#DejaVuSansMono-51"/>
      </g>
     </g>
    </g>
    <g id="ytick_8">
     <g id="line2d_13">
      <g>
       <use style="stroke:#000000;stroke-width:0.8;" x="35.85875" xlink:href="#mf493f5385d" y="40.571414"/>
      </g>
     </g>
     <g id="text_14">
      <!-- $\mathdefault{10^{15}}$ -->
      <g transform="translate(16.31875 42.866883)scale(0.06 -0.06)">
       <use transform="translate(0 0.684375)" xlink:href="#DejaVuSansMono-49"/>
       <use transform="translate(60.205078 0.684375)" xlink:href="#DejaVuSansMono-48"/>
       <use transform="translate(121.367188 38.965625)scale(0.7)" xlink:href="#DejaVuSansMono-49"/>
       <use transform="translate(163.510742 38.965625)scale(0.7)" xlink:href="#DejaVuSansMono-53"/>
      </g>
     </g>
    </g>
    <g id="text_15">
     <!-- y_n -->
     <g transform="translate(10.904063 172.634094)rotate(-90)scale(0.06 -0.06)">
      <defs>
       <path d="M 41.890625 17.578125 
Q 39.65625 11.859375 36.1875 2.546875 
Q 31.34375 -10.359375 29.6875 -13.1875 
Q 27.4375 -17 24.0625 -18.890625 
Q 20.703125 -20.796875 16.21875 -20.796875 
L 8.984375 -20.796875 
L 8.984375 -13.28125 
L 14.3125 -13.28125 
Q 18.265625 -13.28125 20.5 -10.984375 
Q 22.75 -8.6875 26.21875 0.875 
L 5.078125 54.6875 
L 14.59375 54.6875 
L 30.8125 11.921875 
L 46.78125 54.6875 
L 56.296875 54.6875 
z
" id="DejaVuSansMono-121"/>
       <path d="M 60.203125 -19.671875 
L 60.203125 -23.578125 
L 0 -23.578125 
L 0 -19.671875 
z
" id="DejaVuSansMono-95"/>
      </defs>
      <use xlink:href="#DejaVuSansMono-121"/>
      <use x="60.205078" xlink:href="#DejaVuSansMono-95"/>
      <use x="120.410156" xlink:href="#DejaVuSansMono-110"/>
     </g>
    </g>
   </g>
   <g id="line2d_14">
    <path clip-path="url(#p64e64ffab3)" d="M 54.879716 161.590664 
L 55.280579 153.247244 
L 55.681443 158.511356 
L 56.082306 150.167936 
L 56.483169 155.432048 
L 56.884033 147.088628 
L 57.284896 152.35274 
L 57.685759 144.00932 
L 58.086623 149.273432 
L 58.487486 140.930012 
L 58.888349 146.194124 
L 59.289213 137.850704 
L 59.690076 143.114816 
L 60.090939 134.771396 
L 60.491803 140.035508 
L 60.892666 131.692087 
L 61.293529 136.956199 
L 61.694393 128.612779 
L 62.49612 139.141003 
L 62.896983 130.797583 
L 63.297846 136.061695 
L 63.69871 127.718275 
L 64.099573 132.982387 
L 64.500436 124.638967 
L 65.302163 135.167191 
L 65.703026 126.823771 
L 66.10389 132.087883 
L 66.504753 123.744463 
L 66.905616 129.008575 
L 67.30648 120.665155 
L 67.707343 125.929267 
L 68.108206 117.585846 
L 68.909933 128.11407 
L 69.310796 119.77065 
L 69.71166 125.034762 
L 70.112523 116.691342 
L 70.513387 121.955454 
L 70.91425 113.612034 
L 71.315113 118.876146 
L 71.715977 110.532726 
L 72.517703 121.06095 
L 72.918567 112.71753 
L 73.31943 117.981642 
L 73.720293 109.638222 
L 74.121157 114.902334 
L 74.52202 106.558914 
L 74.922883 111.823026 
L 75.323747 103.479605 
L 75.72461 108.743717 
L 76.125473 100.400297 
L 76.9272 110.928521 
L 77.328063 102.585101 
L 77.728927 107.849213 
L 78.12979 99.505793 
L 78.530653 104.769905 
L 78.931517 96.426485 
L 79.33238 101.690597 
L 79.733244 93.347177 
L 80.134107 98.611289 
L 80.53497 90.267869 
L 80.935834 95.531981 
L 81.336697 87.188561 
L 81.73756 92.452673 
L 82.138424 84.109252 
L 82.539287 89.373364 
L 82.94015 81.029944 
L 83.341014 86.294056 
L 83.741877 77.950636 
L 84.14274 83.214748 
L 84.543604 74.871328 
L 85.34533 85.399552 
L 85.746194 77.056132 
L 86.147057 82.320244 
L 86.54792 73.976824 
L 87.349647 84.505048 
L 87.750511 76.161628 
L 88.151374 81.42574 
L 88.552237 73.08232 
L 88.953101 78.346432 
L 89.353964 70.003011 
L 90.155691 80.531236 
L 90.556554 72.187815 
L 90.957417 77.451927 
L 91.358281 69.108507 
L 91.759144 74.372619 
L 92.160007 66.029199 
L 92.560871 71.293311 
L 92.961734 62.949891 
L 93.362597 68.214003 
L 93.763461 59.870583 
L 94.565187 70.398807 
L 94.966051 62.055387 
L 95.366914 67.319499 
L 95.767778 58.976079 
L 96.168641 64.240191 
L 96.569504 55.896771 
L 96.970368 61.160883 
L 97.371231 52.817462 
L 97.772094 58.081574 
L 98.172958 49.738154 
L 98.573821 55.002266 
L 98.974684 46.658846 
L 99.375548 51.922958 
L 99.776411 43.579538 
L 100.578138 54.107762 
L 100.979001 45.764342 
L 101.379864 51.028454 
L 101.780728 42.685034 
L 102.983318 58.47737 
L 103.384181 50.13395 
L 103.785044 55.398062 
L 104.185908 47.054642 
L 104.987635 57.582866 
L 105.388498 49.239445 
L 105.789361 54.503557 
L 106.190225 46.160137 
L 106.591088 51.424249 
L 106.991951 43.080829 
L 107.392815 48.344941 
L 107.793678 40.001521 
L 108.194541 45.265633 
L 108.595405 36.922213 
L 108.996268 42.186325 
L 109.397131 33.842905 
L 110.599721 49.635241 
L 111.000585 41.291821 
L 111.401448 46.555933 
L 111.802311 38.212513 
L 112.203175 43.476625 
L 112.604038 35.133204 
L 113.004902 40.397316 
L 113.405765 32.053896 
L 114.608355 47.846232 
L 115.009218 39.502812 
L 115.410082 44.766924 
L 115.810945 36.423504 
L 116.612672 46.951728 
L 117.013535 38.608308 
L 117.815262 49.136532 
L 118.216125 40.793112 
L 118.616988 46.057224 
L 119.017852 37.713804 
L 119.418715 42.977916 
L 119.819578 34.634496 
L 120.220442 39.898608 
L 120.621305 31.555187 
L 121.423032 42.083412 
L 121.823895 33.739991 
L 123.026485 49.532327 
L 123.427349 41.188907 
L 124.629939 56.981243 
L 125.030802 48.637823 
L 125.431665 53.901935 
L 125.832529 45.558515 
L 126.634255 56.086739 
L 127.035119 47.743319 
L 127.836845 58.271543 
L 128.237709 49.928123 
L 129.039435 60.456347 
L 129.440299 52.112927 
L 130.242026 62.641151 
L 130.642889 54.297731 
L 131.444616 64.825955 
L 131.845479 56.482534 
L 132.246342 61.746646 
L 132.647206 53.403226 
L 133.448932 63.93145 
L 133.849796 55.58803 
L 135.052386 71.380366 
L 135.453249 63.036946 
L 135.854112 68.301058 
L 136.254976 59.957638 
L 136.655839 65.22175 
L 137.056702 56.87833 
L 139.862746 93.727114 
L 140.263609 85.383694 
L 140.664473 90.647806 
L 141.065336 82.304386 
L 143.069653 108.624946 
L 143.470516 100.281526 
L 144.673106 116.073862 
L 145.073969 107.730441 
L 145.474833 112.994553 
L 145.875696 104.651133 
L 147.078286 120.443469 
L 147.47915 112.100049 
L 147.880013 117.364161 
L 148.280876 109.020741 
L 150.285193 135.341301 
L 150.686056 126.997881 
L 151.08692 132.261993 
L 151.487783 123.918573 
L 151.888646 129.182685 
L 152.28951 120.839265 
L 153.4921 136.631601 
L 153.892963 128.288181 
L 154.293826 133.552293 
L 154.69469 125.208873 
L 155.095553 130.472985 
L 155.496417 122.129564 
L 156.298143 132.657788 
L 156.699007 124.314368 
L 157.09987 129.57848 
L 157.500733 121.23506 
L 157.901597 126.499172 
L 158.30246 118.155752 
L 158.703323 123.419864 
L 159.104187 115.076444 
L 159.50505 120.340556 
L 159.905913 111.997136 
L 160.306777 117.261248 
L 160.70764 108.917828 
L 161.108503 114.18194 
L 161.509367 105.83852 
L 161.91023 111.102632 
L 162.311093 102.759211 
L 162.711957 108.023323 
L 163.11282 99.679903 
L 163.513683 104.944015 
L 163.914547 96.600595 
L 164.31541 101.864707 
L 164.716274 93.521287 
L 165.117137 98.785399 
L 165.518 90.441979 
L 166.319727 100.970203 
L 166.72059 92.626783 
L 167.92318 108.419119 
L 168.324044 100.075699 
L 169.12577 110.603923 
L 169.526634 102.260503 
L 170.729224 118.052839 
L 171.130087 109.709418 
L 171.53095 114.97353 
L 171.931814 106.63011 
L 173.134404 122.422446 
L 173.535267 114.079026 
L 174.336994 124.60725 
L 174.737857 116.26383 
L 175.940447 132.056166 
L 176.341311 123.712746 
L 177.944764 144.769194 
L 178.345627 136.425774 
L 178.746491 141.689886 
L 179.147354 133.346466 
L 179.949081 143.87469 
L 180.349944 135.53127 
L 180.750807 140.795382 
L 181.151671 132.451962 
L 182.354261 148.244298 
L 182.755124 139.900877 
L 183.155988 145.164989 
L 183.556851 136.821569 
L 184.358578 147.349793 
L 184.759441 139.006373 
L 186.362894 160.062821 
L 186.763758 151.719401 
L 187.565484 162.247625 
L 187.966348 153.904205 
L 190.371528 185.488877 
L 190.772391 177.145456 
L 192.375845 198.201904 
L 192.776708 189.858482 
L 193.177571 195.122594 
L 193.578435 186.779172 
L 195.181888 207.83562 
L 195.582751 199.49219 
L 196.384478 210.020414 
L 196.785341 201.676982 
L 197.186205 206.941094 
L 197.587068 198.597665 
L 197.987931 203.861777 
L 198.388795 195.518352 
L 198.789658 200.782464 
L 199.190522 192.43904 
L 200.793975 213.495488 
L 201.194838 205.152048 
L 203.199155 231.472608 
L 203.600018 223.128979 
L 204.401745 233.657203 
L 204.802608 225.313504 
L 206.005198 241.10584 
L 206.406062 232.761677 
L 206.806925 238.025789 
L 207.207789 229.681874 
L 207.608652 234.945986 
L 208.009515 226.602236 
L 208.410379 231.866348 
L 208.811242 223.522707 
L 210.013832 239.315043 
L 210.414695 230.971036 
L 211.216422 241.49926 
L 211.617285 233.155058 
L 212.018149 238.41917 
L 212.419012 230.075228 
L 214.423329 256.395788 
L 214.824192 248.046806 
L 215.225056 253.310918 
L 215.625919 244.963793 
L 216.026782 250.227905 
L 216.427646 241.882015 
L 217.229372 252.410239 
L 217.630236 244.063528 
L 218.431962 254.591752 
L 218.832826 246.243946 
L 219.634552 256.77217 
L 220.035416 248.422905 
L 220.837142 258.951129 
L 221.238006 250.599924 
L 222.841459 271.656372 
L 223.242322 263.271565 
L 224.444913 279.063901 
L 224.845776 270.611205 
L 225.246639 275.875317 
L 225.647503 267.459911 
L 226.048366 272.724023 
L 226.449229 264.332988 
L 228.453546 290.653548 
L 228.854409 281.819989 
L 230.457863 302.876437 
L 230.457863 302.876437 
" style="fill:none;stroke:#1f77b4;stroke-linecap:square;stroke-width:0.666667;"/>
   </g>
   <g id="line2d_15">
    <path clip-path="url(#p64e64ffab3)" d="M 54.879716 166.402086 
L 55.280579 158.058666 
L 55.681443 163.322778 
L 56.082306 154.979358 
L 56.483169 160.24347 
L 56.884033 151.90005 
L 57.284896 157.164162 
L 57.685759 148.820742 
L 58.086623 154.084854 
L 58.487486 145.741434 
L 58.888349 151.005546 
L 59.289213 142.662126 
L 59.690076 147.926238 
L 60.090939 139.582817 
L 60.491803 144.846929 
L 60.892666 136.503509 
L 61.293529 141.767621 
L 61.694393 133.424201 
L 62.49612 143.952425 
L 62.896983 135.609005 
L 63.297846 140.873117 
L 63.69871 132.529697 
L 64.099573 137.793809 
L 64.500436 129.450389 
L 64.9013 134.714501 
L 65.302163 126.371081 
L 65.703026 131.635193 
L 66.10389 123.291773 
L 66.504753 128.555885 
L 66.905616 120.212464 
L 67.30648 125.476576 
L 67.707343 117.133156 
L 68.50907 127.66138 
L 68.909933 119.31796 
L 69.310796 124.582072 
L 69.71166 116.238652 
L 70.112523 121.502764 
L 70.513387 113.159344 
L 70.91425 118.423456 
L 71.315113 110.080036 
L 71.715977 115.344148 
L 72.11684 107.000728 
L 72.517703 112.26484 
L 72.918567 103.92142 
L 73.31943 109.185532 
L 73.720293 100.842111 
L 74.121157 106.106223 
L 74.52202 97.762803 
L 76.526337 124.083363 
L 76.9272 115.739943 
L 77.328063 121.004055 
L 77.728927 112.660635 
L 78.12979 117.924747 
L 78.530653 109.581327 
L 78.931517 114.845439 
L 79.33238 106.502019 
L 79.733244 111.766131 
L 80.134107 103.422711 
L 80.53497 108.686823 
L 80.935834 100.343403 
L 81.73756 110.871627 
L 82.138424 102.528206 
L 82.539287 107.792318 
L 82.94015 99.448898 
L 83.341014 104.71301 
L 83.741877 96.36959 
L 84.14274 101.633702 
L 84.543604 93.290282 
L 85.34533 103.818506 
L 85.746194 95.475086 
L 86.54792 106.00331 
L 86.948784 97.65989 
L 87.750511 108.188114 
L 88.151374 99.844694 
L 88.552237 105.108806 
L 88.953101 96.765386 
L 90.155691 112.557722 
L 90.556554 104.214301 
L 90.957417 109.478414 
L 91.358281 101.134993 
L 91.759144 106.399105 
L 92.160007 98.055685 
L 93.763461 119.112133 
L 94.164324 110.768713 
L 94.966051 121.296937 
L 95.366914 112.953517 
L 95.767778 118.217629 
L 96.168641 109.874209 
L 96.970368 120.402433 
L 97.371231 112.059013 
L 97.772094 117.323125 
L 98.172958 108.979705 
L 98.573821 114.243817 
L 98.974684 105.900397 
L 99.375548 111.164509 
L 99.776411 102.821088 
L 100.578138 113.349312 
L 100.979001 105.005892 
L 101.780728 115.534116 
L 102.181591 107.190696 
L 102.582454 112.454808 
L 102.983318 104.111388 
L 103.785044 114.639612 
L 104.185908 106.296192 
L 104.586771 111.560304 
L 104.987635 103.216884 
L 105.388498 108.480996 
L 105.789361 100.137576 
L 106.591088 110.6658 
L 106.991951 102.32238 
L 107.392815 107.586492 
L 107.793678 99.243071 
L 108.595405 109.771295 
L 108.996268 101.427875 
L 110.198858 117.220211 
L 110.599721 108.876791 
L 111.401448 119.405015 
L 111.802311 111.061595 
L 112.203175 116.325707 
L 112.604038 107.982287 
L 113.405765 118.510511 
L 113.806628 110.167091 
L 114.207492 115.431203 
L 114.608355 107.087783 
L 115.009218 112.351895 
L 115.410082 104.008475 
L 116.211808 114.536699 
L 116.612672 106.193279 
L 117.013535 111.457391 
L 117.414398 103.11397 
L 118.216125 113.642194 
L 118.616988 105.298774 
L 119.819578 121.09111 
L 120.220442 112.74769 
L 121.823895 133.804138 
L 122.224759 125.460718 
L 123.026485 135.988942 
L 123.427349 127.645522 
L 123.828212 132.909634 
L 124.229075 124.566214 
L 124.629939 129.830326 
L 125.030802 121.486906 
L 125.832529 132.01513 
L 126.233392 123.67171 
L 126.634255 128.935822 
L 127.035119 120.592401 
L 127.435982 125.856513 
L 127.836845 117.513093 
L 128.237709 122.777205 
L 128.638572 114.433785 
L 129.440299 124.962009 
L 129.841162 116.618589 
L 130.642889 127.146813 
L 131.043752 118.803393 
L 131.444616 124.067505 
L 131.845479 115.724085 
L 132.246342 120.988197 
L 132.647206 112.644777 
L 133.048069 117.908889 
L 133.448932 109.565469 
L 134.250659 120.093693 
L 134.651522 111.750272 
L 135.453249 122.278496 
L 135.854112 113.935076 
L 136.254976 119.199188 
L 136.655839 110.855768 
L 137.056702 116.11988 
L 137.457566 107.77646 
L 137.858429 113.040572 
L 138.259292 104.697152 
L 139.061019 115.225376 
L 139.461883 106.881956 
L 140.263609 117.41018 
L 140.664473 109.06676 
L 141.466199 119.594984 
L 141.867063 111.251564 
L 142.267926 116.515676 
L 142.668789 108.172256 
L 143.069653 113.436368 
L 143.470516 105.092947 
L 144.673106 120.885283 
L 145.073969 112.541863 
L 146.677423 133.598311 
L 147.078286 125.254891 
L 147.47915 130.519003 
L 147.880013 122.175583 
L 148.280876 127.439695 
L 148.68174 119.096275 
L 149.483466 129.624499 
L 149.88433 121.281079 
L 150.686056 131.809303 
L 151.08692 123.465883 
L 151.487783 128.729995 
L 151.888646 120.386575 
L 152.28951 125.650687 
L 152.690373 117.307266 
L 153.091236 122.571378 
L 153.4921 114.227958 
L 153.892963 119.49207 
L 154.293826 111.14865 
L 154.69469 116.412762 
L 155.095553 108.069342 
L 156.699007 129.12579 
L 157.09987 120.78237 
L 157.500733 126.046482 
L 157.901597 117.703062 
L 159.104187 133.495398 
L 159.50505 125.151978 
L 160.306777 135.680202 
L 160.70764 127.336782 
L 161.108503 132.600894 
L 161.509367 124.257473 
L 161.91023 129.521586 
L 162.311093 121.178165 
L 162.711957 126.442277 
L 163.11282 118.098857 
L 163.513683 123.362969 
L 163.914547 115.019549 
L 165.918864 141.340109 
L 166.319727 132.996689 
L 166.72059 138.260801 
L 167.121454 129.917381 
L 167.522317 135.181493 
L 167.92318 126.838073 
L 168.324044 132.102185 
L 168.724907 123.758765 
L 169.12577 129.022877 
L 169.526634 120.679457 
L 169.927497 125.943569 
L 170.32836 117.600148 
L 171.130087 128.128372 
L 171.53095 119.784952 
L 172.332677 130.313176 
L 172.733541 121.969756 
L 173.535267 132.49798 
L 173.936131 124.15456 
L 174.737857 134.682784 
L 175.138721 126.339364 
L 175.940447 136.867588 
L 176.341311 128.524168 
L 176.742174 133.78828 
L 177.143037 125.44486 
L 177.543901 130.708972 
L 177.944764 122.365552 
L 178.345627 127.629664 
L 178.746491 119.286243 
L 179.147354 124.550355 
L 179.548217 116.206935 
L 180.349944 126.735159 
L 180.750807 118.391739 
L 181.151671 123.655851 
L 181.552534 115.312431 
L 181.953398 120.576543 
L 182.354261 112.233123 
L 182.755124 117.497235 
L 183.155988 109.153815 
L 183.556851 114.417927 
L 183.957714 106.074507 
L 184.759441 116.602731 
L 185.160304 108.259311 
L 185.561168 113.523423 
L 185.962031 105.180002 
L 186.362894 110.444114 
L 186.763758 102.100694 
L 187.565484 112.628918 
L 187.966348 104.285498 
L 188.367211 109.54961 
L 188.768074 101.20619 
L 189.569801 111.734414 
L 189.970665 103.390994 
L 190.371528 108.655106 
L 190.772391 100.311686 
L 191.574118 110.83991 
L 191.974981 102.49649 
L 192.776708 113.024714 
L 193.177571 104.681294 
L 193.979298 115.209518 
L 194.380161 106.866098 
L 194.781025 112.13021 
L 195.181888 103.786789 
L 195.582751 109.050901 
L 195.983615 100.707481 
L 196.785341 111.235705 
L 197.186205 102.892285 
L 197.587068 108.156397 
L 197.987931 99.812977 
L 198.789658 110.341201 
L 199.190522 101.997781 
L 199.591385 107.261893 
L 199.992248 98.918473 
L 200.393112 104.182585 
L 200.793975 95.839165 
L 201.595702 106.367389 
L 201.996565 98.023969 
L 203.600018 119.080417 
L 204.000882 110.736996 
L 204.802608 121.26522 
L 205.203472 112.9218 
L 205.604335 118.185912 
L 206.005198 109.842492 
L 206.806925 120.370716 
L 207.207789 112.027296 
L 207.608652 117.291408 
L 208.009515 108.947988 
L 208.410379 114.2121 
L 208.811242 105.86868 
L 209.612969 116.396904 
L 210.013832 108.053484 
L 210.414695 113.317596 
L 210.815559 104.974176 
L 211.617285 115.5024 
L 212.018149 107.158979 
L 212.419012 112.423091 
L 212.819875 104.079671 
L 213.621602 114.607895 
L 214.022465 106.264475 
L 215.225056 122.056811 
L 215.625919 113.713391 
L 216.427646 124.241615 
L 216.828509 115.898195 
L 217.229372 121.162307 
L 217.630236 112.818887 
L 218.031099 118.082999 
L 218.431962 109.739579 
L 218.832826 115.003691 
L 219.233689 106.660271 
L 220.837142 127.716719 
L 221.238006 119.373299 
L 222.039732 129.901523 
L 222.440596 121.558102 
L 222.841459 126.822214 
L 223.242322 118.478794 
L 223.643186 123.742906 
L 224.044049 115.399486 
L 224.444913 120.663598 
L 224.845776 112.320178 
L 226.449229 133.376626 
L 226.850093 125.033206 
L 227.250956 130.297318 
L 227.651819 121.953898 
L 228.052683 127.21801 
L 228.453546 118.87459 
L 228.854409 124.138702 
L 229.255273 115.795282 
L 229.656136 121.059394 
L 230.056999 112.715973 
L 230.858726 123.244197 
L 231.259589 114.900777 
L 232.46218 130.693113 
L 232.863043 122.349693 
L 233.66477 132.877917 
L 234.065633 124.534497 
L 234.466496 129.798609 
L 234.86736 121.455189 
L 235.268223 126.719301 
L 235.669086 118.375881 
L 236.871676 134.168217 
L 237.27254 125.824797 
L 238.074266 136.353021 
L 238.47513 128.009601 
L 239.67772 143.801937 
L 240.078583 135.458517 
L 240.479446 140.722629 
L 240.88031 132.379208 
L 242.884627 158.699768 
L 243.28549 150.356348 
L 244.087217 160.884572 
L 244.48808 152.541152 
L 244.888943 157.805264 
L 245.289807 149.461844 
L 245.69067 154.725956 
L 246.091533 146.382536 
L 246.492397 151.646648 
L 246.89326 143.303228 
L 247.294123 148.56734 
L 247.694987 140.22392 
L 248.496713 150.752144 
L 248.897577 142.408724 
L 249.29844 147.672836 
L 249.699304 139.329415 
L 250.100167 144.593527 
L 250.50103 136.250107 
L 250.901894 141.514219 
L 251.302757 133.170799 
L 251.70362 138.434911 
L 252.104484 130.091491 
L 252.90621 140.619715 
L 253.307074 132.276295 
L 254.1088 142.804519 
L 254.509664 134.461099 
L 254.910527 139.725211 
L 255.31139 131.381791 
L 256.113117 141.910015 
L 256.51398 133.566595 
L 257.315707 144.094819 
L 257.71657 135.751398 
L 258.518297 146.279622 
L 258.919161 137.936202 
L 259.720887 148.464426 
L 260.121751 140.121006 
L 261.324341 155.913342 
L 261.725204 147.569922 
L 262.126067 152.834034 
L 262.526931 144.490614 
L 262.927794 149.754726 
L 263.328657 141.411306 
L 264.130384 151.93953 
L 264.531247 143.59611 
L 265.733837 159.388446 
L 266.134701 151.045026 
L 266.535564 156.309138 
L 266.936428 147.965717 
L 267.337291 153.229829 
L 267.738154 144.886409 
L 268.139018 150.150521 
L 268.539881 141.807101 
L 268.940744 147.071213 
L 269.341608 138.727793 
L 270.143334 149.256017 
L 270.544198 140.912597 
L 272.147651 161.969045 
L 272.548514 153.625625 
L 272.949378 158.889737 
L 273.350241 150.546317 
L 273.751104 155.810429 
L 274.151968 147.467008 
L 274.953694 157.995233 
L 275.354558 149.651812 
L 275.755421 154.915924 
L 276.156285 146.572504 
L 276.557148 151.836616 
L 276.958011 143.493196 
L 277.358875 148.757308 
L 277.759738 140.413888 
L 278.561465 150.942112 
L 278.962328 142.598692 
L 279.363191 147.862804 
L 279.764055 139.519384 
L 280.164918 144.783496 
L 280.565781 136.440076 
L 281.367508 146.9683 
L 281.768371 138.624879 
L 283.371825 159.681328 
L 283.772688 151.337907 
L 284.173552 156.602019 
L 284.574415 148.258599 
L 284.975278 153.522711 
L 285.376142 145.179291 
L 285.777005 150.443403 
L 286.177868 142.099983 
L 286.578732 147.364095 
L 286.979595 139.020675 
L 287.781322 149.548899 
L 288.182185 141.205479 
L 288.583048 146.469591 
L 288.983912 138.126171 
L 289.384775 143.390283 
L 289.785638 135.046862 
L 290.587365 145.575086 
L 290.988228 137.231666 
L 291.389092 142.495778 
L 291.789955 134.152358 
L 292.992545 149.944694 
L 293.393409 141.601274 
L 294.195135 152.129498 
L 294.595999 143.786078 
L 296.199452 164.842526 
L 296.600315 156.499106 
L 297.001179 161.763218 
L 297.402042 153.419798 
L 298.203769 163.948022 
L 298.604632 155.604602 
L 299.005495 160.868714 
L 299.406359 152.525293 
L 300.608949 168.317629 
L 301.009812 159.974209 
L 301.811539 170.502433 
L 302.212402 162.159013 
L 303.014129 172.687237 
L 303.414992 164.343817 
L 304.617582 180.136153 
L 305.018446 171.792733 
L 305.419309 177.056845 
L 305.820172 168.713424 
L 306.221036 173.977536 
L 306.621899 165.634116 
L 307.022762 170.898228 
L 307.423626 162.554808 
L 307.824489 167.81892 
L 308.225352 159.4755 
L 309.027079 170.003724 
L 309.427943 161.660303 
L 310.229669 172.188527 
L 310.630533 163.845107 
L 311.031396 169.109219 
L 311.432259 160.765799 
L 311.833123 166.029911 
L 312.233986 157.686491 
L 312.634849 162.950603 
L 313.035713 154.607183 
L 313.436576 159.871295 
L 313.837439 151.527875 
L 314.639166 162.056099 
L 315.040029 153.712678 
L 315.841756 164.240902 
L 316.242619 155.897482 
L 316.643483 161.161594 
L 317.044346 152.818174 
L 317.445209 158.082286 
L 317.846073 149.738866 
L 318.246936 155.002978 
L 318.6478 146.659558 
L 319.048663 151.92367 
L 319.449526 143.58025 
L 320.251253 154.108474 
L 320.652116 145.765054 
L 321.05298 151.029166 
L 321.453843 142.685746 
L 321.854706 147.949858 
L 322.25557 139.606437 
L 323.057296 150.134661 
L 323.45816 141.791241 
L 323.859023 147.055353 
L 324.259886 138.711933 
L 325.462476 154.504269 
L 325.86334 146.160849 
L 326.264203 151.424961 
L 326.665067 143.081541 
L 331.475427 206.250885 
L 331.87629 197.907457 
L 332.678017 208.435681 
L 333.07888 200.092251 
L 333.479743 205.356363 
L 333.880607 197.012936 
L 334.28147 202.277048 
L 334.682333 193.933624 
L 335.083197 199.197736 
L 335.48406 190.854313 
L 335.884924 196.118425 
L 336.285787 187.775002 
L 337.087514 198.303226 
L 337.488377 189.959804 
L 337.88924 195.223916 
L 338.290104 186.880494 
L 338.690967 192.144606 
L 339.09183 183.801185 
L 339.893557 194.329409 
L 340.29442 185.985987 
L 340.695284 191.250099 
L 341.096147 182.906678 
L 341.49701 188.17079 
L 341.897874 179.827369 
L 342.6996 190.355593 
L 343.100464 182.012172 
L 343.501327 187.276284 
L 343.902191 178.932863 
L 344.303054 184.196975 
L 344.703917 175.853555 
L 346.307371 196.910003 
L 346.708234 188.56658 
L 348.311687 209.623028 
L 348.712551 201.279596 
L 349.113414 206.543708 
L 349.514277 198.20028 
L 349.915141 203.464392 
L 350.316004 195.120967 
L 351.117731 205.649191 
L 351.518594 197.305764 
L 351.919458 202.569876 
L 352.320321 194.226451 
L 352.721184 199.490563 
L 353.122048 191.14714 
L 353.522911 196.411252 
L 353.923774 188.06783 
L 354.725501 198.596054 
L 355.126364 190.252631 
L 355.928091 200.780855 
L 356.328954 192.437431 
L 356.729818 197.701543 
L 357.130681 189.358121 
L 357.531544 194.622233 
L 357.932408 186.278811 
L 359.535861 207.335259 
L 359.936724 198.99183 
L 362.742768 235.840614 
L 363.143631 227.496822 
L 363.544495 232.760934 
L 363.945358 224.417267 
L 364.346221 229.681379 
L 364.747085 221.337793 
L 365.147948 226.601905 
L 365.548811 218.258375 
L 365.949675 223.522487 
L 366.350538 215.178994 
L 367.152265 225.707218 
L 367.553128 217.3637 
L 367.953991 222.627812 
L 368.354855 214.284327 
L 368.755718 219.548439 
L 369.156582 211.204975 
L 371.160898 237.525535 
L 371.561762 229.181651 
L 371.962625 234.445763 
L 372.363488 226.102034 
L 373.566078 241.89437 
L 373.966942 233.550125 
L 374.367805 238.814237 
L 374.768668 230.470268 
L 375.169532 235.73438 
L 375.570395 227.390593 
L 375.971258 232.654705 
L 376.372122 224.311041 
L 376.772985 229.575153 
L 377.173848 221.23157 
L 377.574712 226.495682 
L 377.975575 218.152154 
L 378.376439 223.416266 
L 378.777302 215.072773 
L 379.178165 220.336885 
L 379.579029 211.993417 
L 379.979892 217.257529 
L 380.380755 208.914076 
L 380.781619 214.178189 
L 381.182482 205.834747 
L 381.984209 216.362971 
L 382.385072 208.019522 
L 383.587662 223.811858 
L 383.988525 215.468362 
L 384.389389 220.732474 
L 384.790252 212.389003 
L 385.191115 217.653115 
L 385.591979 209.309661 
L 385.992842 214.573773 
L 386.393706 206.23033 
L 386.794569 211.494442 
L 387.195432 203.151007 
L 387.596296 208.415119 
L 387.997159 200.071689 
L 388.798886 210.599913 
L 389.199749 202.256479 
L 389.600612 207.520591 
L 390.001476 199.177162 
L 390.402339 204.441274 
L 390.803202 196.097848 
L 392.005792 211.890184 
L 392.406656 203.546748 
L 393.208382 214.074972 
L 393.609246 205.731531 
L 394.410972 216.259755 
L 394.811836 207.916307 
L 395.613563 218.444531 
L 396.014426 210.101073 
L 396.415289 215.365185 
L 396.816153 207.02174 
L 397.617879 217.549964 
L 398.018743 209.20651 
L 399.221333 224.998846 
L 399.622196 216.655337 
L 400.423923 227.183561 
L 400.824786 218.840022 
L 401.225649 224.104134 
L 401.626513 215.760635 
L 402.428239 226.288859 
L 402.829103 217.945333 
L 403.229966 223.209445 
L 403.63083 214.865955 
L 405.635146 241.186515 
L 406.03601 232.842344 
L 406.436873 238.106456 
L 406.837736 229.762535 
L 407.639463 240.290759 
L 408.040326 231.946671 
L 408.842053 242.474895 
L 409.242916 234.130586 
L 410.445506 249.922922 
L 410.84637 241.577129 
L 411.247233 246.841241 
L 411.648097 238.49624 
L 412.449823 249.024464 
L 412.850687 240.678936 
L 413.652413 251.20716 
L 414.053277 242.860931 
L 415.65673 263.917379 
L 416.057593 255.558995 
L 416.85932 266.087219 
L 417.260183 257.723891 
L 417.661047 262.988003 
L 418.06191 254.631341 
L 418.462773 259.895453 
L 418.863637 251.543217 
L 419.2645 256.807329 
L 419.665363 248.458038 
L 420.066227 253.72215 
L 420.46709 245.374818 
L 420.867954 250.63893 
L 421.268817 242.292903 
L 421.66968 247.557015 
L 422.070544 239.211858 
L 422.87227 249.740082 
L 423.273134 241.394346 
L 424.876587 262.450794 
L 425.27745 254.095035 
L 426.48004 269.887371 
L 426.880904 261.511145 
L 428.083494 277.303481 
L 428.484357 268.873266 
L 429.686947 284.665602 
L 430.087811 276.095463 
L 430.488674 281.359575 
L 430.889537 272.868684 
L 431.691264 283.396908 
L 432.092127 274.861212 
L 433.294717 290.653548 
L 433.695581 281.819989 
L 435.299034 302.876437 
L 435.299034 302.876437 
" style="fill:none;stroke:#ff7f0e;stroke-linecap:square;stroke-width:0.666667;"/>
   </g>
   <g id="patch_3">
    <path d="M 35.85875 316.4425 
L 35.85875 17.989125 
" style="fill:none;stroke:#000000;stroke-linecap:square;stroke-linejoin:miter;stroke-width:0.8;"/>
   </g>
   <g id="patch_4">
    <path d="M 454.32 316.4425 
L 454.32 17.989125 
" style="fill:none;stroke:#000000;stroke-linecap:square;stroke-linejoin:miter;stroke-width:0.8;"/>
   </g>
   <g id="patch_5">
    <path d="M 35.85875 316.4425 
L 454.32 316.4425 
" style="fill:none;stroke:#000000;stroke-linecap:square;stroke-linejoin:miter;stroke-width:0.8;"/>
   </g>
   <g id="patch_6">
    <path d="M 35.85875 17.989125 
L 454.32 17.989125 
" style="fill:none;stroke:#000000;stroke-linecap:square;stroke-linejoin:miter;stroke-width:0.8;"/>
   </g>
   <g id="text_16">
    <!-- "3y+1" problem -->
    <g transform="translate(214.747 11.989125)scale(0.072 -0.072)">
     <defs>
      <path d="M 43.703125 72.90625 
L 43.703125 45.796875 
L 35.203125 45.796875 
L 35.203125 72.90625 
z
M 25 72.90625 
L 25 45.796875 
L 16.5 45.796875 
L 16.5 72.90625 
z
" id="DejaVuSansMono-34"/>
      <path d="M 34.1875 57.171875 
L 34.1875 35.5 
L 55.90625 35.5 
L 55.90625 27.203125 
L 34.1875 27.203125 
L 34.1875 5.515625 
L 25.984375 5.515625 
L 25.984375 27.203125 
L 4.296875 27.203125 
L 4.296875 35.5 
L 25.984375 35.5 
L 25.984375 57.171875 
z
" id="DejaVuSansMono-43"/>
      <path id="DejaVuSansMono-32"/>
      <path d="M 18.3125 6.890625 
L 18.3125 -20.796875 
L 9.28125 -20.796875 
L 9.28125 54.6875 
L 18.3125 54.6875 
L 18.3125 47.703125 
Q 20.5625 51.765625 24.296875 53.875 
Q 28.03125 56 32.90625 56 
Q 42.828125 56 48.46875 48.328125 
Q 54.109375 40.671875 54.109375 27.09375 
Q 54.109375 13.765625 48.4375 6.171875 
Q 42.78125 -1.421875 32.90625 -1.421875 
Q 27.9375 -1.421875 24.1875 0.703125 
Q 20.453125 2.828125 18.3125 6.890625 
z
M 44.671875 27.296875 
Q 44.671875 37.75 41.375 43.0625 
Q 38.09375 48.390625 31.59375 48.390625 
Q 25.046875 48.390625 21.671875 43.046875 
Q 18.3125 37.703125 18.3125 27.296875 
Q 18.3125 16.9375 21.671875 11.5625 
Q 25.046875 6.203125 31.59375 6.203125 
Q 38.09375 6.203125 41.375 11.515625 
Q 44.671875 16.84375 44.671875 27.296875 
z
" id="DejaVuSansMono-112"/>
      <path d="M 56.390625 43.40625 
Q 53.515625 45.65625 50.53125 46.671875 
Q 47.5625 47.703125 44 47.703125 
Q 35.59375 47.703125 31.140625 42.421875 
Q 26.703125 37.15625 26.703125 27.203125 
L 26.703125 0 
L 17.671875 0 
L 17.671875 54.6875 
L 26.703125 54.6875 
L 26.703125 44 
Q 28.953125 49.8125 33.609375 52.90625 
Q 38.28125 56 44.671875 56 
Q 48 56 50.875 55.171875 
Q 53.765625 54.34375 56.390625 52.59375 
z
" id="DejaVuSansMono-114"/>
      <path d="M 30.078125 48.390625 
Q 23.25 48.390625 19.734375 43.0625 
Q 16.21875 37.75 16.21875 27.296875 
Q 16.21875 16.890625 19.734375 11.546875 
Q 23.25 6.203125 30.078125 6.203125 
Q 36.96875 6.203125 40.484375 11.546875 
Q 44 16.890625 44 27.296875 
Q 44 37.75 40.484375 43.0625 
Q 36.96875 48.390625 30.078125 48.390625 
z
M 30.078125 56 
Q 41.453125 56 47.484375 48.625 
Q 53.515625 41.265625 53.515625 27.296875 
Q 53.515625 13.28125 47.5 5.921875 
Q 41.5 -1.421875 30.078125 -1.421875 
Q 18.703125 -1.421875 12.6875 5.921875 
Q 6.6875 13.28125 6.6875 27.296875 
Q 6.6875 41.265625 12.6875 48.625 
Q 18.703125 56 30.078125 56 
z
" id="DejaVuSansMono-111"/>
      <path d="M 44.828125 27.296875 
Q 44.828125 37.75 41.5 43.0625 
Q 38.1875 48.390625 31.6875 48.390625 
Q 25.140625 48.390625 21.765625 43.046875 
Q 18.40625 37.703125 18.40625 27.296875 
Q 18.40625 16.9375 21.765625 11.5625 
Q 25.140625 6.203125 31.6875 6.203125 
Q 38.1875 6.203125 41.5 11.515625 
Q 44.828125 16.84375 44.828125 27.296875 
z
M 18.40625 47.703125 
Q 20.5625 51.703125 24.34375 53.84375 
Q 28.125 56 33.109375 56 
Q 42.96875 56 48.625 48.40625 
Q 54.296875 40.828125 54.296875 27.484375 
Q 54.296875 13.96875 48.609375 6.265625 
Q 42.921875 -1.421875 33.015625 -1.421875 
Q 28.125 -1.421875 24.390625 0.703125 
Q 20.65625 2.828125 18.40625 6.890625 
L 18.40625 0 
L 9.421875 0 
L 9.421875 75.984375 
L 18.40625 75.984375 
z
" id="DejaVuSansMono-98"/>
      <path d="M 31.203125 19.828125 
Q 31.203125 13.765625 33.421875 10.6875 
Q 35.640625 7.625 39.984375 7.625 
L 50.484375 7.625 
L 50.484375 0 
L 39.109375 0 
Q 31.0625 0 26.640625 5.171875 
Q 22.21875 10.359375 22.21875 19.828125 
L 22.21875 69.484375 
L 7.8125 69.484375 
L 7.8125 76.515625 
L 31.203125 76.515625 
z
" id="DejaVuSansMono-108"/>
      <path d="M 54.296875 29.59375 
L 54.296875 25.203125 
L 15.375 25.203125 
L 15.375 24.90625 
Q 15.375 15.96875 20.03125 11.078125 
Q 24.703125 6.203125 33.203125 6.203125 
Q 37.5 6.203125 42.1875 7.5625 
Q 46.875 8.9375 52.203125 11.71875 
L 52.203125 2.78125 
Q 47.078125 0.6875 42.3125 -0.359375 
Q 37.546875 -1.421875 33.109375 -1.421875 
Q 20.359375 -1.421875 13.171875 6.21875 
Q 6 13.875 6 27.296875 
Q 6 40.375 13.03125 48.1875 
Q 20.0625 56 31.78125 56 
Q 42.234375 56 48.265625 48.921875 
Q 54.296875 41.84375 54.296875 29.59375 
z
M 45.3125 32.234375 
Q 45.125 40.140625 41.578125 44.265625 
Q 38.03125 48.390625 31.390625 48.390625 
Q 24.90625 48.390625 20.703125 44.09375 
Q 16.5 39.796875 15.71875 32.171875 
z
" id="DejaVuSansMono-101"/>
      <path d="M 33.015625 49.125 
Q 34.671875 52.640625 37.234375 54.3125 
Q 39.796875 56 43.40625 56 
Q 50 56 52.703125 50.890625 
Q 55.421875 45.796875 55.421875 31.6875 
L 55.421875 0 
L 47.21875 0 
L 47.21875 31.296875 
Q 47.21875 42.875 45.921875 45.671875 
Q 44.625 48.484375 41.21875 48.484375 
Q 37.3125 48.484375 35.859375 45.484375 
Q 34.421875 42.484375 34.421875 31.296875 
L 34.421875 0 
L 26.21875 0 
L 26.21875 31.296875 
Q 26.21875 43.015625 24.828125 45.75 
Q 23.4375 48.484375 19.828125 48.484375 
Q 16.265625 48.484375 14.875 45.484375 
Q 13.484375 42.484375 13.484375 31.296875 
L 13.484375 0 
L 5.328125 0 
L 5.328125 54.6875 
L 13.484375 54.6875 
L 13.484375 50 
Q 15.09375 52.9375 17.5 54.46875 
Q 19.921875 56 23 56 
Q 26.703125 56 29.171875 54.296875 
Q 31.640625 52.59375 33.015625 49.125 
z
" id="DejaVuSansMono-109"/>
     </defs>
     <use xlink:href="#DejaVuSansMono-34"/>
     <use x="60.205078" xlink:href="#DejaVuSansMono-51"/>
     <use x="120.410156" xlink:href="#DejaVuSansMono-121"/>
     <use x="180.615234" xlink:href="#DejaVuSansMono-43"/>
     <use x="240.820312" xlink:href="#DejaVuSansMono-49"/>
     <use x="301.025391" xlink:href="#DejaVuSansMono-34"/>
     <use x="361.230469" xlink:href="#DejaVuSansMono-32"/>
     <use x="421.435547" xlink:href="#DejaVuSansMono-112"/>
     <use x="481.640625" xlink:href="#DejaVuSansMono-114"/>
     <use x="541.845703" xlink:href="#DejaVuSansMono-111"/>
     <use x="602.050781" xlink:href="#DejaVuSansMono-98"/>
     <use x="662.255859" xlink:href="#DejaVuSansMono-108"/>
     <use x="722.460938" xlink:href="#DejaVuSansMono-101"/>
     <use x="782.666016" xlink:href="#DejaVuSansMono-109"/>
    </g>
   </g>
   <g id="legend_1">
    <g id="patch_7">
     <path d="M 340.615313 82.0095 
L 450.12 82.0095 
Q 451.32 82.0095 451.32 80.8095 
L 451.32 22.189125 
Q 451.32 20.989125 450.12 20.989125 
L 340.615313 20.989125 
Q 339.415313 20.989125 339.415313 22.189125 
L 339.415313 80.8095 
Q 339.415313 82.0095 340.615313 82.0095 
z
" style="fill:#ffffff;opacity:0.8;stroke:#cccccc;stroke-linejoin:miter;"/>
    </g>
    <g id="line2d_16">
     <path d="M 341.815313 36.889687 
L 353.815313 36.889687 
" style="fill:none;stroke:#1f77b4;stroke-linecap:square;stroke-width:0.666667;"/>
    </g>
    <g id="line2d_17"/>
    <g id="text_17">
     <!-- "Tallest": -->
     <g transform="translate(358.615313 27.980062)scale(0.06 -0.06)">
      <defs>
       <path d="M 2.296875 72.90625 
L 57.90625 72.90625 
L 57.90625 64.59375 
L 35.109375 64.59375 
L 35.109375 0 
L 25.203125 0 
L 25.203125 64.59375 
L 2.296875 64.59375 
z
" id="DejaVuSansMono-84"/>
       <path d="M 34.28125 27.484375 
L 31.296875 27.484375 
Q 23.4375 27.484375 19.453125 24.71875 
Q 15.484375 21.96875 15.484375 16.5 
Q 15.484375 11.578125 18.453125 8.84375 
Q 21.4375 6.109375 26.703125 6.109375 
Q 34.125 6.109375 38.375 11.25 
Q 42.625 16.40625 42.671875 25.484375 
L 42.671875 27.484375 
z
M 51.703125 31.203125 
L 51.703125 0 
L 42.671875 0 
L 42.671875 8.109375 
Q 39.796875 3.21875 35.421875 0.890625 
Q 31.0625 -1.421875 24.8125 -1.421875 
Q 16.453125 -1.421875 11.46875 3.296875 
Q 6.5 8.015625 6.5 15.921875 
Q 6.5 25.046875 12.625 29.78125 
Q 18.75 34.515625 30.609375 34.515625 
L 42.671875 34.515625 
L 42.671875 35.9375 
Q 42.625 42.484375 39.34375 45.4375 
Q 36.078125 48.390625 28.90625 48.390625 
Q 24.3125 48.390625 19.625 47.0625 
Q 14.9375 45.75 10.5 43.21875 
L 10.5 52.203125 
Q 15.484375 54.109375 20.046875 55.046875 
Q 24.609375 56 28.90625 56 
Q 35.6875 56 40.5 54 
Q 45.3125 52 48.296875 48 
Q 50.140625 45.5625 50.921875 41.96875 
Q 51.703125 38.375 51.703125 31.203125 
z
" id="DejaVuSansMono-97"/>
       <path d="M 47.515625 52.78125 
L 47.515625 44 
Q 43.65625 46.234375 39.75 47.359375 
Q 35.84375 48.484375 31.78125 48.484375 
Q 25.6875 48.484375 22.671875 46.5 
Q 19.671875 44.53125 19.671875 40.484375 
Q 19.671875 36.8125 21.921875 35 
Q 24.171875 33.203125 33.109375 31.5 
L 36.71875 30.8125 
Q 43.40625 29.546875 46.84375 25.734375 
Q 50.296875 21.921875 50.296875 15.828125 
Q 50.296875 7.71875 44.53125 3.140625 
Q 38.765625 -1.421875 28.515625 -1.421875 
Q 24.46875 -1.421875 20.015625 -0.5625 
Q 15.578125 0.296875 10.40625 2 
L 10.40625 11.28125 
Q 15.4375 8.6875 20.015625 7.390625 
Q 24.609375 6.109375 28.71875 6.109375 
Q 34.671875 6.109375 37.9375 8.515625 
Q 41.21875 10.9375 41.21875 15.28125 
Q 41.21875 21.53125 29.25 23.921875 
L 28.859375 24.03125 
L 25.484375 24.703125 
Q 17.71875 26.21875 14.15625 29.8125 
Q 10.59375 33.40625 10.59375 39.59375 
Q 10.59375 47.46875 15.90625 51.734375 
Q 21.234375 56 31.109375 56 
Q 35.5 56 39.546875 55.1875 
Q 43.609375 54.390625 47.515625 52.78125 
z
" id="DejaVuSansMono-115"/>
       <path d="M 29.984375 70.21875 
L 29.984375 54.6875 
L 50.390625 54.6875 
L 50.390625 47.703125 
L 29.984375 47.703125 
L 29.984375 18.015625 
Q 29.984375 11.96875 32.28125 9.5625 
Q 34.578125 7.171875 40.28125 7.171875 
L 50.390625 7.171875 
L 50.390625 0 
L 39.40625 0 
Q 29.296875 0 25.140625 4.046875 
Q 21 8.109375 21 18.015625 
L 21 47.703125 
L 6.390625 47.703125 
L 6.390625 54.6875 
L 21 54.6875 
L 21 70.21875 
z
" id="DejaVuSansMono-116"/>
       <path d="M 23.875 51.90625 
L 36.1875 51.90625 
L 36.1875 37.109375 
L 23.875 37.109375 
z
M 23.875 14.890625 
L 36.1875 14.890625 
L 36.1875 0 
L 23.875 0 
z
" id="DejaVuSansMono-58"/>
      </defs>
      <use xlink:href="#DejaVuSansMono-34"/>
      <use x="60.205078" xlink:href="#DejaVuSansMono-84"/>
      <use x="120.410156" xlink:href="#DejaVuSansMono-97"/>
      <use x="180.615234" xlink:href="#DejaVuSansMono-108"/>
      <use x="240.820312" xlink:href="#DejaVuSansMono-108"/>
      <use x="301.025391" xlink:href="#DejaVuSansMono-101"/>
      <use x="361.230469" xlink:href="#DejaVuSansMono-115"/>
      <use x="421.435547" xlink:href="#DejaVuSansMono-116"/>
      <use x="481.640625" xlink:href="#DejaVuSansMono-34"/>
      <use x="541.845703" xlink:href="#DejaVuSansMono-58"/>
     </g>
     <!-- y_0    = 120080895 -->
     <g transform="translate(358.615313 34.737)scale(0.06 -0.06)">
      <defs>
       <path d="M 4.296875 25.59375 
L 55.90625 25.59375 
L 55.90625 17.1875 
L 4.296875 17.1875 
z
M 4.296875 45.40625 
L 55.90625 45.40625 
L 55.90625 37.109375 
L 4.296875 37.109375 
z
" id="DejaVuSansMono-61"/>
      </defs>
      <use xlink:href="#DejaVuSansMono-121"/>
      <use x="60.205078" xlink:href="#DejaVuSansMono-95"/>
      <use x="120.410156" xlink:href="#DejaVuSansMono-48"/>
      <use x="180.615234" xlink:href="#DejaVuSansMono-32"/>
      <use x="240.820312" xlink:href="#DejaVuSansMono-32"/>
      <use x="301.025391" xlink:href="#DejaVuSansMono-32"/>
      <use x="361.230469" xlink:href="#DejaVuSansMono-32"/>
      <use x="421.435547" xlink:href="#DejaVuSansMono-61"/>
      <use x="481.640625" xlink:href="#DejaVuSansMono-32"/>
      <use x="541.845703" xlink:href="#DejaVuSansMono-49"/>
      <use x="602.050781" xlink:href="#DejaVuSansMono-50"/>
      <use x="662.255859" xlink:href="#DejaVuSansMono-48"/>
      <use x="722.460938" xlink:href="#DejaVuSansMono-48"/>
      <use x="782.666016" xlink:href="#DejaVuSansMono-56"/>
      <use x="842.871094" xlink:href="#DejaVuSansMono-48"/>
      <use x="903.076172" xlink:href="#DejaVuSansMono-56"/>
      <use x="963.28125" xlink:href="#DejaVuSansMono-57"/>
      <use x="1023.486328" xlink:href="#DejaVuSansMono-53"/>
     </g>
     <!-- y_max  = 3277901576118580 -->
     <g transform="translate(358.615313 41.660812)scale(0.06 -0.06)">
      <defs>
       <path d="M 54.59375 54.6875 
L 35.015625 28.515625 
L 56.5 0 
L 46.09375 0 
L 30.078125 21.921875 
L 14.109375 0 
L 3.71875 0 
L 25.203125 28.515625 
L 5.609375 54.6875 
L 15.578125 54.6875 
L 30.078125 34.90625 
L 44.484375 54.6875 
z
" id="DejaVuSansMono-120"/>
      </defs>
      <use xlink:href="#DejaVuSansMono-121"/>
      <use x="60.205078" xlink:href="#DejaVuSansMono-95"/>
      <use x="120.410156" xlink:href="#DejaVuSansMono-109"/>
      <use x="180.615234" xlink:href="#DejaVuSansMono-97"/>
      <use x="240.820312" xlink:href="#DejaVuSansMono-120"/>
      <use x="301.025391" xlink:href="#DejaVuSansMono-32"/>
      <use x="361.230469" xlink:href="#DejaVuSansMono-32"/>
      <use x="421.435547" xlink:href="#DejaVuSansMono-61"/>
      <use x="481.640625" xlink:href="#DejaVuSansMono-32"/>
      <use x="541.845703" xlink:href="#DejaVuSansMono-51"/>
      <use x="602.050781" xlink:href="#DejaVuSansMono-50"/>
      <use x="662.255859" xlink:href="#DejaVuSansMono-55"/>
      <use x="722.460938" xlink:href="#DejaVuSansMono-55"/>
      <use x="782.666016" xlink:href="#DejaVuSansMono-57"/>
      <use x="842.871094" xlink:href="#DejaVuSansMono-48"/>
      <use x="903.076172" xlink:href="#DejaVuSansMono-49"/>
      <use x="963.28125" xlink:href="#DejaVuSansMono-53"/>
      <use x="1023.486328" xlink:href="#DejaVuSansMono-55"/>
      <use x="1083.691406" xlink:href="#DejaVuSansMono-54"/>
      <use x="1143.896484" xlink:href="#DejaVuSansMono-49"/>
      <use x="1204.101562" xlink:href="#DejaVuSansMono-49"/>
      <use x="1264.306641" xlink:href="#DejaVuSansMono-56"/>
      <use x="1324.511719" xlink:href="#DejaVuSansMono-53"/>
      <use x="1384.716797" xlink:href="#DejaVuSansMono-56"/>
      <use x="1444.921875" xlink:href="#DejaVuSansMono-48"/>
     </g>
     <!-- x_max  = 439 -->
     <g transform="translate(358.615313 48.584625)scale(0.06 -0.06)">
      <use xlink:href="#DejaVuSansMono-120"/>
      <use x="60.205078" xlink:href="#DejaVuSansMono-95"/>
      <use x="120.410156" xlink:href="#DejaVuSansMono-109"/>
      <use x="180.615234" xlink:href="#DejaVuSansMono-97"/>
      <use x="240.820312" xlink:href="#DejaVuSansMono-120"/>
      <use x="301.025391" xlink:href="#DejaVuSansMono-32"/>
      <use x="361.230469" xlink:href="#DejaVuSansMono-32"/>
      <use x="421.435547" xlink:href="#DejaVuSansMono-61"/>
      <use x="481.640625" xlink:href="#DejaVuSansMono-32"/>
      <use x="541.845703" xlink:href="#DejaVuSansMono-52"/>
      <use x="602.050781" xlink:href="#DejaVuSansMono-51"/>
      <use x="662.255859" xlink:href="#DejaVuSansMono-57"/>
     </g>
    </g>
    <g id="line2d_18">
     <path d="M 341.815313 66.499875 
L 353.815313 66.499875 
" style="fill:none;stroke:#ff7f0e;stroke-linecap:square;stroke-width:0.666667;"/>
    </g>
    <g id="line2d_19"/>
    <g id="text_18">
     <!-- "Widest":  -->
     <g transform="translate(358.615313 57.59025)scale(0.06 -0.06)">
      <defs>
       <path d="M 0 72.90625 
L 9.625 72.90625 
L 16.609375 13.71875 
L 24.90625 52.875 
L 35.203125 52.875 
L 43.609375 13.625 
L 50.59375 72.90625 
L 60.203125 72.90625 
L 49.3125 0 
L 39.984375 0 
L 30.078125 43.3125 
L 20.21875 0 
L 10.890625 0 
z
" id="DejaVuSansMono-87"/>
       <path d="M 12.5 54.6875 
L 35.5 54.6875 
L 35.5 6.984375 
L 53.328125 6.984375 
L 53.328125 0 
L 8.6875 0 
L 8.6875 6.984375 
L 26.515625 6.984375 
L 26.515625 47.703125 
L 12.5 47.703125 
z
M 26.515625 75.984375 
L 35.5 75.984375 
L 35.5 64.59375 
L 26.515625 64.59375 
z
" id="DejaVuSansMono-105"/>
       <path d="M 41.890625 47.703125 
L 41.890625 75.984375 
L 50.875 75.984375 
L 50.875 0 
L 41.890625 0 
L 41.890625 6.890625 
Q 39.65625 2.828125 35.90625 0.703125 
Q 32.171875 -1.421875 27.296875 -1.421875 
Q 17.390625 -1.421875 11.6875 6.265625 
Q 6 13.96875 6 27.484375 
Q 6 40.828125 11.71875 48.40625 
Q 17.4375 56 27.296875 56 
Q 32.234375 56 35.984375 53.875 
Q 39.75 51.765625 41.890625 47.703125 
z
M 15.484375 27.296875 
Q 15.484375 16.84375 18.796875 11.515625 
Q 22.125 6.203125 28.609375 6.203125 
Q 35.109375 6.203125 38.5 11.5625 
Q 41.890625 16.9375 41.890625 27.296875 
Q 41.890625 37.703125 38.5 43.046875 
Q 35.109375 48.390625 28.609375 48.390625 
Q 22.125 48.390625 18.796875 43.0625 
Q 15.484375 37.75 15.484375 27.296875 
z
" id="DejaVuSansMono-100"/>
      </defs>
      <use xlink:href="#DejaVuSansMono-34"/>
      <use x="60.205078" xlink:href="#DejaVuSansMono-87"/>
      <use x="120.410156" xlink:href="#DejaVuSansMono-105"/>
      <use x="180.615234" xlink:href="#DejaVuSansMono-100"/>
      <use x="240.820312" xlink:href="#DejaVuSansMono-101"/>
      <use x="301.025391" xlink:href="#DejaVuSansMono-115"/>
      <use x="361.230469" xlink:href="#DejaVuSansMono-116"/>
      <use x="421.435547" xlink:href="#DejaVuSansMono-34"/>
      <use x="481.640625" xlink:href="#DejaVuSansMono-58"/>
      <use x="541.845703" xlink:href="#DejaVuSansMono-32"/>
     </g>
     <!-- y_0    = 63728127 -->
     <g transform="translate(358.615313 64.347187)scale(0.06 -0.06)">
      <use xlink:href="#DejaVuSansMono-121"/>
      <use x="60.205078" xlink:href="#DejaVuSansMono-95"/>
      <use x="120.410156" xlink:href="#DejaVuSansMono-48"/>
      <use x="180.615234" xlink:href="#DejaVuSansMono-32"/>
      <use x="240.820312" xlink:href="#DejaVuSansMono-32"/>
      <use x="301.025391" xlink:href="#DejaVuSansMono-32"/>
      <use x="361.230469" xlink:href="#DejaVuSansMono-32"/>
      <use x="421.435547" xlink:href="#DejaVuSansMono-61"/>
      <use x="481.640625" xlink:href="#DejaVuSansMono-32"/>
      <use x="541.845703" xlink:href="#DejaVuSansMono-54"/>
      <use x="602.050781" xlink:href="#DejaVuSansMono-51"/>
      <use x="662.255859" xlink:href="#DejaVuSansMono-55"/>
      <use x="722.460938" xlink:href="#DejaVuSansMono-50"/>
      <use x="782.666016" xlink:href="#DejaVuSansMono-56"/>
      <use x="842.871094" xlink:href="#DejaVuSansMono-49"/>
      <use x="903.076172" xlink:href="#DejaVuSansMono-50"/>
      <use x="963.28125" xlink:href="#DejaVuSansMono-55"/>
     </g>
     <!-- y_max  = 966616035460 -->
     <g transform="translate(358.615313 71.271)scale(0.06 -0.06)">
      <use xlink:href="#DejaVuSansMono-121"/>
      <use x="60.205078" xlink:href="#DejaVuSansMono-95"/>
      <use x="120.410156" xlink:href="#DejaVuSansMono-109"/>
      <use x="180.615234" xlink:href="#DejaVuSansMono-97"/>
      <use x="240.820312" xlink:href="#DejaVuSansMono-120"/>
      <use x="301.025391" xlink:href="#DejaVuSansMono-32"/>
      <use x="361.230469" xlink:href="#DejaVuSansMono-32"/>
      <use x="421.435547" xlink:href="#DejaVuSansMono-61"/>
      <use x="481.640625" xlink:href="#DejaVuSansMono-32"/>
      <use x="541.845703" xlink:href="#DejaVuSansMono-57"/>
      <use x="602.050781" xlink:href="#DejaVuSansMono-54"/>
      <use x="662.255859" xlink:href="#DejaVuSansMono-54"/>
      <use x="722.460938" xlink:href="#DejaVuSansMono-54"/>
      <use x="782.666016" xlink:href="#DejaVuSansMono-49"/>
      <use x="842.871094" xlink:href="#DejaVuSansMono-54"/>
      <use x="903.076172" xlink:href="#DejaVuSansMono-48"/>
      <use x="963.28125" xlink:href="#DejaVuSansMono-51"/>
      <use x="1023.486328" xlink:href="#DejaVuSansMono-53"/>
      <use x="1083.691406" xlink:href="#DejaVuSansMono-52"/>
      <use x="1143.896484" xlink:href="#DejaVuSansMono-54"/>
      <use x="1204.101562" xlink:href="#DejaVuSansMono-48"/>
     </g>
     <!-- x_max  = 950 -->
     <g transform="translate(358.615313 78.194812)scale(0.06 -0.06)">
      <use xlink:href="#DejaVuSansMono-120"/>
      <use x="60.205078" xlink:href="#DejaVuSansMono-95"/>
      <use x="120.410156" xlink:href="#DejaVuSansMono-109"/>
      <use x="180.615234" xlink:href="#DejaVuSansMono-97"/>
      <use x="240.820312" xlink:href="#DejaVuSansMono-120"/>
      <use x="301.025391" xlink:href="#DejaVuSansMono-32"/>
      <use x="361.230469" xlink:href="#DejaVuSansMono-32"/>
      <use x="421.435547" xlink:href="#DejaVuSansMono-61"/>
      <use x="481.640625" xlink:href="#DejaVuSansMono-32"/>
      <use x="541.845703" xlink:href="#DejaVuSansMono-57"/>
      <use x="602.050781" xlink:href="#DejaVuSansMono-53"/>
      <use x="662.255859" xlink:href="#DejaVuSansMono-48"/>
     </g>
    </g>
   </g>
  </g>
 </g>
 <defs>
  <clipPath id="p64e64ffab3">
   <rect height="298.453375" width="418.46125" x="35.85875" y="17.989125"/>
  </clipPath>
 </defs>
</svg>
