<?xml version="1.0" encoding="utf-8" standalone="no"?>
<!DOCTYPE svg PUBLIC "-//W3C//DTD SVG 1.1//EN"
  "http://www.w3.org/Graphics/SVG/1.1/DTD/svg11.dtd">
<!-- Created with matplotlib (https://matplotlib.org/) -->
<svg height="345.6pt" version="1.1" viewBox="0 0 460.8 345.6" width="460.8pt" xmlns="http://www.w3.org/2000/svg" xmlns:xlink="http://www.w3.org/1999/xlink">
 <metadata>
  <rdf:RDF xmlns:cc="http://creativecommons.org/ns#" xmlns:dc="http://purl.org/dc/elements/1.1/" xmlns:rdf="http://www.w3.org/1999/02/22-rdf-syntax-ns#">
   <cc:Work>
    <dc:type rdf:resource="http://purl.org/dc/dcmitype/StillImage"/>
    <dc:date>2022-03-17T11:02:01.457171</dc:date>
    <dc:format>image/svg+xml</dc:format>
    <dc:creator>
     <cc:Agent>
      <dc:title>Matplotlib v3.3.2, https://matplotlib.org/</dc:title>
     </cc:Agent>
    </dc:creator>
   </cc:Work>
  </rdf:RDF>
 </metadata>
 <defs>
  <style type="text/css">*{stroke-linecap:butt;stroke-linejoin:round;}</style>
 </defs>
 <g id="figure_1">
  <g id="patch_1">
   <path d="M 0 345.6 
L 460.8 345.6 
L 460.8 0 
L 0 0 
z
" style="fill:#ffffff;"/>
  </g>
  <g id="axes_1">
   <g id="patch_2">
    <path d="M 35.85875 316.4425 
L 451.204324 316.4425 
L 451.204324 17.989125 
L 35.85875 17.989125 
z
" style="fill:#ffffff;"/>
   </g>
   <g id="matplotlib.axis_1">
    <g id="xtick_1">
     <g id="line2d_1">
      <defs>
       <path d="M 0 0 
L 0 3.5 
" id="m11eec8fb05" style="stroke:#000000;stroke-width:0.8;"/>
      </defs>
      <g>
       <use style="stroke:#000000;stroke-width:0.8;" x="54.738094" xlink:href="#m11eec8fb05" y="316.4425"/>
      </g>
     </g>
     <g id="text_1">
      <!-- 0 -->
      <g transform="translate(52.932001 328.033437)scale(0.06 -0.06)">
       <defs>
        <path d="M 23.578125 36.625 
Q 23.578125 39.3125 25.453125 41.265625 
Q 27.34375 43.21875 29.984375 43.21875 
Q 32.71875 43.21875 34.671875 41.265625 
Q 36.625 39.3125 36.625 36.625 
Q 36.625 33.890625 34.6875 31.984375 
Q 32.765625 30.078125 29.984375 30.078125 
Q 27.25 30.078125 25.40625 31.9375 
Q 23.578125 33.796875 23.578125 36.625 
z
M 30.078125 66.40625 
Q 23.1875 66.40625 19.796875 58.984375 
Q 16.40625 51.5625 16.40625 36.375 
Q 16.40625 21.234375 19.796875 13.8125 
Q 23.1875 6.390625 30.078125 6.390625 
Q 37.015625 6.390625 40.40625 13.8125 
Q 43.796875 21.234375 43.796875 36.375 
Q 43.796875 51.5625 40.40625 58.984375 
Q 37.015625 66.40625 30.078125 66.40625 
z
M 30.078125 74.21875 
Q 41.75 74.21875 47.734375 64.640625 
Q 53.71875 55.078125 53.71875 36.375 
Q 53.71875 17.71875 47.734375 8.140625 
Q 41.75 -1.421875 30.078125 -1.421875 
Q 18.40625 -1.421875 12.453125 8.140625 
Q 6.5 17.71875 6.5 36.375 
Q 6.5 55.078125 12.453125 64.640625 
Q 18.40625 74.21875 30.078125 74.21875 
z
" id="DejaVuSansMono-48"/>
       </defs>
       <use xlink:href="#DejaVuSansMono-48"/>
      </g>
     </g>
    </g>
    <g id="xtick_2">
     <g id="line2d_2">
      <g>
       <use style="stroke:#000000;stroke-width:0.8;" x="133.075622" xlink:href="#m11eec8fb05" y="316.4425"/>
      </g>
     </g>
     <g id="text_2">
      <!-- 200 -->
      <g transform="translate(127.657341 328.033437)scale(0.06 -0.06)">
       <defs>
        <path d="M 18.21875 8.296875 
L 51.703125 8.296875 
L 51.703125 0 
L 7.421875 0 
L 7.421875 8.296875 
Q 16.546875 17.921875 23.375 25.296875 
Q 30.21875 32.671875 32.8125 35.6875 
Q 37.703125 41.65625 39.40625 45.34375 
Q 41.109375 49.03125 41.109375 52.875 
Q 41.109375 58.984375 37.515625 62.453125 
Q 33.9375 65.921875 27.6875 65.921875 
Q 23.25 65.921875 18.359375 64.3125 
Q 13.484375 62.703125 8.015625 59.421875 
L 8.015625 69.390625 
Q 13.03125 71.78125 17.890625 73 
Q 22.75 74.21875 27.484375 74.21875 
Q 38.1875 74.21875 44.703125 68.53125 
Q 51.21875 62.84375 51.21875 53.609375 
Q 51.21875 48.921875 49.046875 44.234375 
Q 46.875 39.546875 42 33.890625 
Q 39.265625 30.71875 34.0625 25.09375 
Q 28.859375 19.484375 18.21875 8.296875 
z
" id="DejaVuSansMono-50"/>
       </defs>
       <use xlink:href="#DejaVuSansMono-50"/>
       <use x="60.205078" xlink:href="#DejaVuSansMono-48"/>
       <use x="120.410156" xlink:href="#DejaVuSansMono-48"/>
      </g>
     </g>
    </g>
    <g id="xtick_3">
     <g id="line2d_3">
      <g>
       <use style="stroke:#000000;stroke-width:0.8;" x="211.41315" xlink:href="#m11eec8fb05" y="316.4425"/>
      </g>
     </g>
     <g id="text_3">
      <!-- 400 -->
      <g transform="translate(205.994869 328.033437)scale(0.06 -0.06)">
       <defs>
        <path d="M 35.890625 63.921875 
L 12.890625 25.390625 
L 35.890625 25.390625 
z
M 34.28125 72.90625 
L 45.703125 72.90625 
L 45.703125 25.390625 
L 55.421875 25.390625 
L 55.421875 17.390625 
L 45.703125 17.390625 
L 45.703125 0 
L 35.890625 0 
L 35.890625 17.390625 
L 4.984375 17.390625 
L 4.984375 26.703125 
z
" id="DejaVuSansMono-52"/>
       </defs>
       <use xlink:href="#DejaVuSansMono-52"/>
       <use x="60.205078" xlink:href="#DejaVuSansMono-48"/>
       <use x="120.410156" xlink:href="#DejaVuSansMono-48"/>
      </g>
     </g>
    </g>
    <g id="xtick_4">
     <g id="line2d_4">
      <g>
       <use style="stroke:#000000;stroke-width:0.8;" x="289.750678" xlink:href="#m11eec8fb05" y="316.4425"/>
      </g>
     </g>
     <g id="text_4">
      <!-- 600 -->
      <g transform="translate(284.332397 328.033437)scale(0.06 -0.06)">
       <defs>
        <path d="M 48.390625 71.296875 
L 48.390625 62.203125 
Q 45.3125 64.015625 41.84375 64.96875 
Q 38.375 65.921875 34.625 65.921875 
Q 25.25 65.921875 20.40625 58.859375 
Q 15.578125 51.8125 15.578125 38.09375 
Q 17.921875 42.96875 22.0625 45.578125 
Q 26.21875 48.1875 31.59375 48.1875 
Q 42.140625 48.1875 47.921875 41.71875 
Q 53.71875 35.25 53.71875 23.390625 
Q 53.71875 11.578125 47.75 5.078125 
Q 41.796875 -1.421875 31 -1.421875 
Q 18.3125 -1.421875 12.40625 7.6875 
Q 6.5 16.796875 6.5 36.375 
Q 6.5 54.828125 13.59375 64.515625 
Q 20.703125 74.21875 34.1875 74.21875 
Q 37.796875 74.21875 41.40625 73.453125 
Q 45.015625 72.703125 48.390625 71.296875 
z
M 30.8125 40.484375 
Q 24.515625 40.484375 20.890625 35.9375 
Q 17.28125 31.390625 17.28125 23.390625 
Q 17.28125 15.375 20.890625 10.828125 
Q 24.515625 6.296875 30.8125 6.296875 
Q 37.359375 6.296875 40.671875 10.609375 
Q 44 14.9375 44 23.390625 
Q 44 31.890625 40.671875 36.1875 
Q 37.359375 40.484375 30.8125 40.484375 
z
" id="DejaVuSansMono-54"/>
       </defs>
       <use xlink:href="#DejaVuSansMono-54"/>
       <use x="60.205078" xlink:href="#DejaVuSansMono-48"/>
       <use x="120.410156" xlink:href="#DejaVuSansMono-48"/>
      </g>
     </g>
    </g>
    <g id="xtick_5">
     <g id="line2d_5">
      <g>
       <use style="stroke:#000000;stroke-width:0.8;" x="368.088206" xlink:href="#m11eec8fb05" y="316.4425"/>
      </g>
     </g>
     <g id="text_5">
      <!-- 800 -->
      <g transform="translate(362.669925 328.033437)scale(0.06 -0.06)">
       <defs>
        <path d="M 30.078125 34.625 
Q 23.484375 34.625 19.890625 30.9375 
Q 16.3125 27.25 16.3125 20.515625 
Q 16.3125 13.765625 19.9375 10.03125 
Q 23.578125 6.296875 30.078125 6.296875 
Q 36.71875 6.296875 40.296875 9.984375 
Q 43.890625 13.671875 43.890625 20.515625 
Q 43.890625 27.203125 40.25 30.90625 
Q 36.625 34.625 30.078125 34.625 
z
M 21.484375 38.71875 
Q 15.1875 40.328125 11.640625 44.71875 
Q 8.109375 49.125 8.109375 55.328125 
Q 8.109375 64.015625 14.015625 69.109375 
Q 19.921875 74.21875 30.078125 74.21875 
Q 40.28125 74.21875 46.1875 69.109375 
Q 52.09375 64.015625 52.09375 55.328125 
Q 52.09375 49.125 48.546875 44.71875 
Q 45.015625 40.328125 38.71875 38.71875 
Q 46.046875 37.109375 49.921875 32.21875 
Q 53.8125 27.34375 53.8125 19.578125 
Q 53.8125 9.71875 47.515625 4.140625 
Q 41.21875 -1.421875 30.078125 -1.421875 
Q 18.953125 -1.421875 12.671875 4.125 
Q 6.390625 9.671875 6.390625 19.484375 
Q 6.390625 27.296875 10.265625 32.203125 
Q 14.15625 37.109375 21.484375 38.71875 
z
M 17.921875 54.390625 
Q 17.921875 48.53125 21.046875 45.453125 
Q 24.171875 42.390625 30.078125 42.390625 
Q 36.03125 42.390625 39.15625 45.453125 
Q 42.28125 48.53125 42.28125 54.390625 
Q 42.28125 60.359375 39.171875 63.484375 
Q 36.078125 66.609375 30.078125 66.609375 
Q 24.171875 66.609375 21.046875 63.453125 
Q 17.921875 60.296875 17.921875 54.390625 
z
" id="DejaVuSansMono-56"/>
       </defs>
       <use xlink:href="#DejaVuSansMono-56"/>
       <use x="60.205078" xlink:href="#DejaVuSansMono-48"/>
       <use x="120.410156" xlink:href="#DejaVuSansMono-48"/>
      </g>
     </g>
    </g>
    <g id="xtick_6">
     <g id="line2d_6">
      <g>
       <use style="stroke:#000000;stroke-width:0.8;" x="446.425734" xlink:href="#m11eec8fb05" y="316.4425"/>
      </g>
     </g>
     <g id="text_6">
      <!-- 1000 -->
      <g transform="translate(439.201359 328.033437)scale(0.06 -0.06)">
       <defs>
        <path d="M 13.1875 8.296875 
L 28.515625 8.296875 
L 28.515625 64.015625 
L 12.015625 60.296875 
L 12.015625 69.28125 
L 28.421875 72.90625 
L 38.28125 72.90625 
L 38.28125 8.296875 
L 53.421875 8.296875 
L 53.421875 0 
L 13.1875 0 
z
" id="DejaVuSansMono-49"/>
       </defs>
       <use xlink:href="#DejaVuSansMono-49"/>
       <use x="60.205078" xlink:href="#DejaVuSansMono-48"/>
       <use x="120.410156" xlink:href="#DejaVuSansMono-48"/>
       <use x="180.615234" xlink:href="#DejaVuSansMono-48"/>
      </g>
     </g>
    </g>
    <g id="text_7">
     <!-- n -->
     <g transform="translate(241.725443 337.872187)scale(0.06 -0.06)">
      <defs>
       <path d="M 51.3125 33.890625 
L 51.3125 0 
L 42.28125 0 
L 42.28125 33.890625 
Q 42.28125 41.265625 39.6875 44.71875 
Q 37.109375 48.1875 31.59375 48.1875 
Q 25.296875 48.1875 21.890625 43.71875 
Q 18.5 39.265625 18.5 30.90625 
L 18.5 0 
L 9.515625 0 
L 9.515625 54.6875 
L 18.5 54.6875 
L 18.5 46.484375 
Q 20.90625 51.171875 25 53.578125 
Q 29.109375 56 34.71875 56 
Q 43.0625 56 47.1875 50.5 
Q 51.3125 45.015625 51.3125 33.890625 
z
" id="DejaVuSansMono-110"/>
      </defs>
      <use xlink:href="#DejaVuSansMono-110"/>
     </g>
    </g>
   </g>
   <g id="matplotlib.axis_2">
    <g id="ytick_1">
     <g id="line2d_7">
      <defs>
       <path d="M 0 0 
L -3.5 0 
" id="m6951365908" style="stroke:#000000;stroke-width:0.8;"/>
      </defs>
      <g>
       <use style="stroke:#000000;stroke-width:0.8;" x="35.85875" xlink:href="#m6951365908" y="285.711274"/>
      </g>
     </g>
     <g id="text_8">
      <!-- $\mathdefault{10^{1}}$ -->
      <g transform="translate(18.83875 288.006743)scale(0.06 -0.06)">
       <use transform="translate(0 0.684375)" xlink:href="#DejaVuSansMono-49"/>
       <use transform="translate(60.205078 0.684375)" xlink:href="#DejaVuSansMono-48"/>
       <use transform="translate(121.367188 38.965625)scale(0.7)" xlink:href="#DejaVuSansMono-49"/>
      </g>
     </g>
    </g>
    <g id="ytick_2">
     <g id="line2d_8">
      <g>
       <use style="stroke:#000000;stroke-width:0.8;" x="35.85875" xlink:href="#m6951365908" y="251.380947"/>
      </g>
     </g>
     <g id="text_9">
      <!-- $\mathdefault{10^{3}}$ -->
      <g transform="translate(18.83875 253.676416)scale(0.06 -0.06)">
       <defs>
        <path d="M 37.890625 39.015625 
Q 45.0625 37.109375 48.875 32.25 
Q 52.6875 27.390625 52.6875 20.125 
Q 52.6875 10.0625 45.921875 4.3125 
Q 39.15625 -1.421875 27.203125 -1.421875 
Q 22.171875 -1.421875 16.9375 -0.484375 
Q 11.71875 0.4375 6.6875 2.203125 
L 6.6875 12.015625 
Q 11.671875 9.421875 16.5 8.15625 
Q 21.34375 6.890625 26.125 6.890625 
Q 34.234375 6.890625 38.578125 10.546875 
Q 42.921875 14.203125 42.921875 21.09375 
Q 42.921875 27.4375 38.578125 31.171875 
Q 34.234375 34.90625 26.8125 34.90625 
L 19.28125 34.90625 
L 19.28125 43.015625 
L 26.8125 43.015625 
Q 33.59375 43.015625 37.40625 45.984375 
Q 41.21875 48.96875 41.21875 54.296875 
Q 41.21875 59.90625 37.671875 62.90625 
Q 34.125 65.921875 27.59375 65.921875 
Q 23.25 65.921875 18.609375 64.9375 
Q 13.96875 63.96875 8.890625 62.015625 
L 8.890625 71.09375 
Q 14.796875 72.65625 19.40625 73.4375 
Q 24.03125 74.21875 27.59375 74.21875 
Q 38.234375 74.21875 44.609375 68.875 
Q 50.984375 63.53125 50.984375 54.6875 
Q 50.984375 48.6875 47.625 44.671875 
Q 44.28125 40.671875 37.890625 39.015625 
z
" id="DejaVuSansMono-51"/>
       </defs>
       <use transform="translate(0 0.765625)" xlink:href="#DejaVuSansMono-49"/>
       <use transform="translate(60.205078 0.765625)" xlink:href="#DejaVuSansMono-48"/>
       <use transform="translate(121.367188 39.046875)scale(0.7)" xlink:href="#DejaVuSansMono-51"/>
      </g>
     </g>
    </g>
    <g id="ytick_3">
     <g id="line2d_9">
      <g>
       <use style="stroke:#000000;stroke-width:0.8;" x="35.85875" xlink:href="#m6951365908" y="217.05062"/>
      </g>
     </g>
     <g id="text_10">
      <!-- $\mathdefault{10^{5}}$ -->
      <g transform="translate(18.83875 219.346089)scale(0.06 -0.06)">
       <defs>
        <path d="M 10.109375 72.90625 
L 47.015625 72.90625 
L 47.015625 64.59375 
L 19.09375 64.59375 
L 19.09375 46.6875 
Q 21.1875 47.46875 23.3125 47.828125 
Q 25.4375 48.1875 27.59375 48.1875 
Q 38.921875 48.1875 45.5625 41.5 
Q 52.203125 34.8125 52.203125 23.390625 
Q 52.203125 11.859375 45.234375 5.21875 
Q 38.28125 -1.421875 26.21875 -1.421875 
Q 20.40625 -1.421875 15.59375 -0.640625 
Q 10.796875 0.140625 6.984375 1.703125 
L 6.984375 11.71875 
Q 11.46875 9.28125 16.015625 8.078125 
Q 20.5625 6.890625 25.296875 6.890625 
Q 33.453125 6.890625 37.859375 11.1875 
Q 42.28125 15.484375 42.28125 23.390625 
Q 42.28125 31.203125 37.71875 35.546875 
Q 33.15625 39.890625 25 39.890625 
Q 21.046875 39.890625 17.28125 38.984375 
Q 13.53125 38.09375 10.109375 36.28125 
z
" id="DejaVuSansMono-53"/>
       </defs>
       <use transform="translate(0 0.684375)" xlink:href="#DejaVuSansMono-49"/>
       <use transform="translate(60.205078 0.684375)" xlink:href="#DejaVuSansMono-48"/>
       <use transform="translate(121.367188 38.965625)scale(0.7)" xlink:href="#DejaVuSansMono-53"/>
      </g>
     </g>
    </g>
    <g id="ytick_4">
     <g id="line2d_10">
      <g>
       <use style="stroke:#000000;stroke-width:0.8;" x="35.85875" xlink:href="#m6951365908" y="182.720293"/>
      </g>
     </g>
     <g id="text_11">
      <!-- $\mathdefault{10^{7}}$ -->
      <g transform="translate(18.83875 185.015761)scale(0.06 -0.06)">
       <defs>
        <path d="M 6.78125 72.90625 
L 52.6875 72.90625 
L 52.6875 68.703125 
L 26.609375 0 
L 16.3125 0 
L 41.703125 64.59375 
L 6.78125 64.59375 
z
" id="DejaVuSansMono-55"/>
       </defs>
       <use transform="translate(0 0.684375)" xlink:href="#DejaVuSansMono-49"/>
       <use transform="translate(60.205078 0.684375)" xlink:href="#DejaVuSansMono-48"/>
       <use transform="translate(121.367188 38.965625)scale(0.7)" xlink:href="#DejaVuSansMono-55"/>
      </g>
     </g>
    </g>
    <g id="ytick_5">
     <g id="line2d_11">
      <g>
       <use style="stroke:#000000;stroke-width:0.8;" x="35.85875" xlink:href="#m6951365908" y="148.389966"/>
      </g>
     </g>
     <g id="text_12">
      <!-- $\mathdefault{10^{9}}$ -->
      <g transform="translate(18.83875 150.685434)scale(0.06 -0.06)">
       <defs>
        <path d="M 29.109375 32.328125 
Q 35.40625 32.328125 38.984375 36.859375 
Q 42.578125 41.40625 42.578125 49.421875 
Q 42.578125 57.421875 38.984375 61.953125 
Q 35.40625 66.5 29.109375 66.5 
Q 22.5625 66.5 19.234375 62.171875 
Q 15.921875 57.859375 15.921875 49.421875 
Q 15.921875 40.921875 19.21875 36.625 
Q 22.515625 32.328125 29.109375 32.328125 
z
M 11.53125 1.515625 
L 11.53125 10.59375 
Q 14.59375 8.796875 18.0625 7.84375 
Q 21.53125 6.890625 25.296875 6.890625 
Q 34.671875 6.890625 39.46875 13.9375 
Q 44.28125 21 44.28125 34.71875 
Q 42 29.828125 37.84375 27.21875 
Q 33.6875 24.609375 28.328125 24.609375 
Q 17.78125 24.609375 11.984375 31.09375 
Q 6.203125 37.59375 6.203125 49.515625 
Q 6.203125 61.28125 12.125 67.75 
Q 18.0625 74.21875 28.90625 74.21875 
Q 41.609375 74.21875 47.515625 65.078125 
Q 53.421875 55.953125 53.421875 36.375 
Q 53.421875 17.96875 46.3125 8.265625 
Q 39.203125 -1.421875 25.6875 -1.421875 
Q 22.125 -1.421875 18.5 -0.65625 
Q 14.890625 0.09375 11.53125 1.515625 
z
" id="DejaVuSansMono-57"/>
       </defs>
       <use transform="translate(0 0.765625)" xlink:href="#DejaVuSansMono-49"/>
       <use transform="translate(60.205078 0.765625)" xlink:href="#DejaVuSansMono-48"/>
       <use transform="translate(121.367188 39.046875)scale(0.7)" xlink:href="#DejaVuSansMono-57"/>
      </g>
     </g>
    </g>
    <g id="ytick_6">
     <g id="line2d_12">
      <g>
       <use style="stroke:#000000;stroke-width:0.8;" x="35.85875" xlink:href="#m6951365908" y="114.059638"/>
      </g>
     </g>
     <g id="text_13">
      <!-- $\mathdefault{10^{11}}$ -->
      <g transform="translate(16.31875 116.355107)scale(0.06 -0.06)">
       <use transform="translate(0 0.684375)" xlink:href="#DejaVuSansMono-49"/>
       <use transform="translate(60.205078 0.684375)" xlink:href="#DejaVuSansMono-48"/>
       <use transform="translate(121.367188 38.965625)scale(0.7)" xlink:href="#DejaVuSansMono-49"/>
       <use transform="translate(163.510742 38.965625)scale(0.7)" xlink:href="#DejaVuSansMono-49"/>
      </g>
     </g>
    </g>
    <g id="ytick_7">
     <g id="line2d_13">
      <g>
       <use style="stroke:#000000;stroke-width:0.8;" x="35.85875" xlink:href="#m6951365908" y="79.729311"/>
      </g>
     </g>
     <g id="text_14">
      <!-- $\mathdefault{10^{13}}$ -->
      <g transform="translate(16.31875 82.02478)scale(0.06 -0.06)">
       <use transform="translate(0 0.765625)" xlink:href="#DejaVuSansMono-49"/>
       <use transform="translate(60.205078 0.765625)" xlink:href="#DejaVuSansMono-48"/>
       <use transform="translate(121.367188 39.046875)scale(0.7)" xlink:href="#DejaVuSansMono-49"/>
       <use transform="translate(163.510742 39.046875)scale(0.7)" xlink:href="#DejaVuSansMono-51"/>
      </g>
     </g>
    </g>
    <g id="ytick_8">
     <g id="line2d_14">
      <g>
       <use style="stroke:#000000;stroke-width:0.8;" x="35.85875" xlink:href="#m6951365908" y="45.398984"/>
      </g>
     </g>
     <g id="text_15">
      <!-- $\mathdefault{10^{15}}$ -->
      <g transform="translate(16.31875 47.694453)scale(0.06 -0.06)">
       <use transform="translate(0 0.684375)" xlink:href="#DejaVuSansMono-49"/>
       <use transform="translate(60.205078 0.684375)" xlink:href="#DejaVuSansMono-48"/>
       <use transform="translate(121.367188 38.965625)scale(0.7)" xlink:href="#DejaVuSansMono-49"/>
       <use transform="translate(163.510742 38.965625)scale(0.7)" xlink:href="#DejaVuSansMono-53"/>
      </g>
     </g>
    </g>
    <g id="text_16">
     <!-- y_n -->
     <g transform="translate(10.904063 172.634094)rotate(-90)scale(0.06 -0.06)">
      <defs>
       <path d="M 41.890625 17.578125 
Q 39.65625 11.859375 36.1875 2.546875 
Q 31.34375 -10.359375 29.6875 -13.1875 
Q 27.4375 -17 24.0625 -18.890625 
Q 20.703125 -20.796875 16.21875 -20.796875 
L 8.984375 -20.796875 
L 8.984375 -13.28125 
L 14.3125 -13.28125 
Q 18.265625 -13.28125 20.5 -10.984375 
Q 22.75 -8.6875 26.21875 0.875 
L 5.078125 54.6875 
L 14.59375 54.6875 
L 30.8125 11.921875 
L 46.78125 54.6875 
L 56.296875 54.6875 
z
" id="DejaVuSansMono-121"/>
       <path d="M 60.203125 -19.671875 
L 60.203125 -23.578125 
L 0 -23.578125 
L 0 -19.671875 
z
" id="DejaVuSansMono-95"/>
      </defs>
      <use xlink:href="#DejaVuSansMono-121"/>
      <use x="60.205078" xlink:href="#DejaVuSansMono-95"/>
      <use x="120.410156" xlink:href="#DejaVuSansMono-110"/>
     </g>
    </g>
   </g>
   <g id="line2d_15">
    <path clip-path="url(#p957bd20e2f)" d="M 54.738094 159.990026 
L 55.129782 151.800162 
L 55.52147 156.967391 
L 55.913157 148.777527 
L 56.304845 153.944756 
L 56.696532 145.754891 
L 57.08822 150.92212 
L 57.479908 142.732256 
L 57.871595 147.899485 
L 58.263283 139.709621 
L 59.046658 150.044079 
L 59.438346 141.854215 
L 59.830034 147.021444 
L 60.221721 138.831579 
L 61.396784 154.333267 
L 61.788472 146.143402 
L 62.180159 151.310631 
L 62.571847 143.120767 
L 62.963535 148.287996 
L 63.355222 140.098132 
L 63.74691 145.265361 
L 64.138598 137.075496 
L 64.530285 142.242726 
L 64.921973 134.052861 
L 65.705348 144.387319 
L 66.097036 136.197455 
L 66.488723 141.364684 
L 66.880411 133.17482 
L 67.663786 143.509278 
L 68.055474 135.319414 
L 68.447162 140.486643 
L 68.838849 132.296778 
L 69.230537 137.464008 
L 69.622225 129.274143 
L 70.013912 134.441372 
L 70.4056 126.251508 
L 70.797288 131.418737 
L 71.188975 123.228873 
L 72.364038 138.73056 
L 72.755726 130.540696 
L 73.539101 140.875154 
L 73.930789 132.685289 
L 74.322476 137.852519 
L 74.714164 129.662654 
L 75.105852 134.829883 
L 75.497539 126.640019 
L 76.280914 136.974477 
L 76.672602 128.784613 
L 77.06429 133.951842 
L 77.455977 125.761977 
L 77.847665 130.929207 
L 78.239353 122.739342 
L 78.63104 127.906571 
L 79.022728 119.716707 
L 79.806103 130.051165 
L 80.197791 121.861301 
L 80.589479 127.02853 
L 80.981166 118.838666 
L 81.372854 124.005895 
L 81.764541 115.81603 
L 82.156229 120.983259 
L 82.547917 112.793395 
L 82.939604 117.960624 
L 83.331292 109.77076 
L 84.506355 125.272447 
L 84.898043 117.082583 
L 85.28973 122.249812 
L 85.681418 114.059947 
L 86.073105 119.227177 
L 86.464793 111.037312 
L 86.856481 116.204541 
L 87.248168 108.014677 
L 87.639856 113.181906 
L 88.031544 104.992042 
L 88.814919 115.3265 
L 89.206607 107.136636 
L 89.598294 112.303865 
L 89.989982 104.114 
L 90.773357 114.448458 
L 91.165045 106.258594 
L 91.556732 111.425823 
L 91.94842 103.235959 
L 92.340108 108.403188 
L 92.731795 100.213324 
L 93.906858 115.715011 
L 94.298546 107.525147 
L 94.690234 112.692376 
L 95.081921 104.502511 
L 96.256984 120.004199 
L 96.648672 111.814334 
L 97.040359 116.981563 
L 97.432047 108.791699 
L 97.823735 113.958928 
L 98.215422 105.769064 
L 98.60711 110.936293 
L 98.998798 102.746428 
L 99.782173 113.080887 
L 100.173861 104.891022 
L 100.565548 110.058251 
L 100.957236 101.868387 
L 102.132299 117.370074 
L 102.523986 109.18021 
L 102.915674 114.347439 
L 103.307362 106.157575 
L 103.699049 111.324804 
L 104.090737 103.134939 
L 104.482425 108.302169 
L 104.874112 100.112304 
L 105.2658 105.279533 
L 105.657487 97.089669 
L 106.049175 102.256898 
L 106.440863 94.067034 
L 106.83255 99.234263 
L 107.224238 91.044398 
L 108.007613 101.378857 
L 108.399301 93.188992 
L 109.182676 103.52345 
L 109.574364 95.333586 
L 109.966052 100.500815 
L 110.357739 92.310951 
L 110.749427 97.47818 
L 111.141114 89.288316 
L 112.316177 104.790003 
L 112.707865 96.600139 
L 113.099553 101.767368 
L 113.49124 93.577503 
L 113.882928 98.744732 
L 114.274616 90.554868 
L 114.666303 95.722097 
L 115.057991 87.532233 
L 115.449678 92.699462 
L 115.841366 84.509597 
L 116.233054 89.676827 
L 116.624741 81.486962 
L 117.016429 86.654191 
L 117.408117 78.464327 
L 117.799804 83.631556 
L 118.191492 75.441692 
L 118.58318 80.608921 
L 118.974867 72.419056 
L 119.366555 77.586286 
L 119.758243 69.396421 
L 120.14993 74.56365 
L 120.541618 66.373786 
L 120.933305 71.541015 
L 121.324993 63.351151 
L 121.716681 68.51838 
L 122.108368 60.328515 
L 123.283431 75.830203 
L 123.675119 67.640338 
L 124.066807 72.807567 
L 124.458494 64.617703 
L 124.850182 69.784932 
L 125.241869 61.595068 
L 125.633557 66.762297 
L 126.025245 58.572433 
L 126.416932 63.739662 
L 126.80862 55.549797 
L 127.200308 60.717026 
L 127.591995 52.527162 
L 127.983683 57.694391 
L 128.375371 49.504527 
L 128.767058 54.671756 
L 129.158746 46.481892 
L 129.550434 51.649121 
L 129.942121 43.459256 
L 130.725496 53.793714 
L 131.117184 45.60385 
L 131.900559 55.938308 
L 132.292247 47.748444 
L 132.683935 52.915673 
L 133.075622 44.725809 
L 133.858998 55.060267 
L 134.250685 46.870403 
L 134.642373 52.037632 
L 135.03406 43.847767 
L 135.425748 49.014996 
L 135.817436 40.825132 
L 136.209123 45.992361 
L 136.600811 37.802497 
L 137.384186 48.136955 
L 137.775874 39.947091 
L 138.167562 45.11432 
L 138.559249 36.924455 
L 139.342625 47.258914 
L 139.734312 39.069049 
L 140.126 44.236278 
L 140.517687 36.046414 
L 141.69275 51.548101 
L 142.084438 43.358237 
L 143.259501 58.859924 
L 143.651189 50.67006 
L 144.434564 61.004518 
L 144.826251 52.814654 
L 145.609627 63.149112 
L 146.001314 54.959248 
L 146.393002 60.126477 
L 146.78469 51.936612 
L 147.568065 62.271071 
L 147.959753 54.081206 
L 148.35144 59.248435 
L 148.743128 51.058571 
L 149.134816 56.2258 
L 149.526503 48.035936 
L 149.918191 53.203165 
L 150.309878 45.0133 
L 150.701566 50.180529 
L 151.093254 41.990665 
L 151.484941 47.157894 
L 151.876629 38.96803 
L 153.051692 54.469717 
L 153.44338 46.279853 
L 154.226755 56.614311 
L 154.618442 48.424447 
L 155.01013 53.591676 
L 155.401818 45.401811 
L 155.793505 50.56904 
L 156.185193 42.379176 
L 156.576881 47.546405 
L 156.968568 39.356541 
L 157.751944 49.690999 
L 158.143631 41.501135 
L 158.927007 51.835593 
L 159.318694 43.645729 
L 159.710382 48.812958 
L 160.102069 40.623093 
L 160.493757 45.790322 
L 160.885445 37.600458 
L 161.277132 42.767687 
L 161.66882 34.577823 
L 162.060508 39.745052 
L 162.452195 31.555187 
L 164.018946 52.224104 
L 164.410633 44.03424 
L 164.802321 49.201469 
L 165.194009 41.011604 
L 165.585696 46.178833 
L 165.977384 37.988969 
L 166.369072 43.156198 
L 166.760759 34.966334 
L 167.152447 40.133563 
L 167.544135 31.943699 
L 169.110885 52.612615 
L 169.502573 44.422751 
L 170.285948 54.757209 
L 170.677636 46.567344 
L 171.069323 51.734574 
L 171.461011 43.544709 
L 171.852699 48.711938 
L 172.244386 40.522074 
L 173.811137 61.19099 
L 174.202824 53.001126 
L 174.594512 58.168355 
L 174.9862 49.978491 
L 176.161263 65.480178 
L 176.55295 57.290314 
L 176.944638 62.457543 
L 177.336326 54.267678 
L 178.119701 64.602137 
L 178.511389 56.412272 
L 179.686451 71.91396 
L 180.078139 63.724095 
L 180.469827 68.891324 
L 180.861514 60.70146 
L 182.428265 81.370376 
L 182.819953 73.180512 
L 185.953454 114.518345 
L 186.345141 106.328481 
L 187.520204 121.830168 
L 187.911892 113.640303 
L 188.30358 118.807533 
L 188.695267 110.617668 
L 189.87033 126.119356 
L 190.262018 117.929491 
L 190.653705 123.09672 
L 191.045393 114.906856 
L 192.612144 135.575772 
L 193.003831 127.385908 
L 193.395519 132.553137 
L 193.787207 124.363273 
L 194.178894 129.530502 
L 194.570582 121.340637 
L 195.353957 131.675096 
L 195.745645 123.485231 
L 196.137332 128.65246 
L 196.52902 120.462596 
L 196.920708 125.629825 
L 197.312395 117.439961 
L 198.487458 132.941648 
L 198.879146 124.751784 
L 199.270833 129.919013 
L 199.662521 121.729148 
L 200.445896 132.063607 
L 200.837584 123.873742 
L 201.229272 129.040971 
L 201.620959 120.851107 
L 203.18771 141.520023 
L 203.579398 133.330159 
L 205.537836 159.166305 
L 205.929523 150.97644 
L 207.496274 171.645357 
L 207.887962 163.455492 
L 209.454712 184.124409 
L 209.8464 175.934544 
L 211.021463 191.436231 
L 211.41315 183.246366 
L 211.804838 188.413595 
L 212.196526 180.22373 
L 214.154964 206.059876 
L 214.546651 197.870006 
L 214.938339 203.037235 
L 215.330027 194.847367 
L 216.113402 205.181825 
L 216.50509 196.991956 
L 218.855215 227.99533 
L 219.246903 219.805358 
L 219.638591 224.972587 
L 220.030278 216.782651 
L 220.813654 227.117109 
L 221.205341 218.927149 
L 221.597029 224.094378 
L 221.988717 215.90445 
L 222.772092 226.238908 
L 223.16378 218.048958 
L 223.555467 223.216187 
L 223.947155 215.026266 
L 226.688968 251.19687 
L 227.080656 243.004582 
L 227.864031 253.33904 
L 228.255719 245.145945 
L 229.039094 255.480403 
L 229.430782 247.286233 
L 230.214157 257.620692 
L 230.605845 249.425091 
L 231.38922 259.759549 
L 231.780908 251.562042 
L 233.347658 272.230959 
L 233.739346 264.000469 
L 234.914409 279.502156 
L 235.306096 271.205028 
L 235.697784 276.372257 
L 236.089472 268.111731 
L 236.481159 273.27896 
L 236.872847 265.042358 
L 238.831285 290.878503 
L 239.222973 282.207521 
L 240.789723 302.876437 
L 240.789723 302.876437 
" style="fill:none;stroke:#1f77b4;stroke-linecap:square;stroke-width:0.666667;"/>
   </g>
   <g id="line2d_16">
    <path clip-path="url(#p957bd20e2f)" d="M 54.738094 158.190848 
L 55.129782 150.000983 
L 55.52147 155.168212 
L 55.913157 146.978348 
L 56.696532 157.312806 
L 57.08822 149.122942 
L 57.871595 159.4574 
L 58.263283 151.267536 
L 59.046658 161.601994 
L 59.438346 153.412129 
L 60.221721 163.746588 
L 60.613409 155.556723 
L 61.005096 160.723952 
L 61.396784 152.534088 
L 61.788472 157.701317 
L 62.180159 149.511453 
L 62.571847 154.678682 
L 62.963535 146.488817 
L 63.355222 151.656047 
L 63.74691 143.466182 
L 64.138598 148.633411 
L 64.530285 140.443547 
L 64.921973 145.610776 
L 65.313661 137.420912 
L 65.705348 142.588141 
L 66.097036 134.398276 
L 66.488723 139.565506 
L 66.880411 131.375641 
L 67.272099 136.54287 
L 67.663786 128.353006 
L 68.838849 143.854693 
L 69.230537 135.664829 
L 69.622225 140.832058 
L 70.013912 132.642194 
L 70.4056 137.809423 
L 70.797288 129.619558 
L 71.188975 134.786787 
L 71.580663 126.596923 
L 71.97235 131.764152 
L 72.364038 123.574288 
L 72.755726 128.741517 
L 73.147413 120.551653 
L 73.930789 130.886111 
L 74.322476 122.696246 
L 74.714164 127.863475 
L 75.105852 119.673611 
L 75.497539 124.84084 
L 75.889227 116.650976 
L 76.280914 121.818205 
L 76.672602 113.628341 
L 77.06429 118.79557 
L 77.455977 110.605705 
L 77.847665 115.772934 
L 78.239353 107.58307 
L 78.63104 112.750299 
L 79.022728 104.560435 
L 79.414416 109.727664 
L 79.806103 101.5378 
L 81.764541 127.373945 
L 82.156229 119.184081 
L 82.547917 124.35131 
L 82.939604 116.161445 
L 83.331292 121.328675 
L 83.72298 113.13881 
L 84.114667 118.306039 
L 84.506355 110.116175 
L 84.898043 115.283404 
L 85.28973 107.09354 
L 85.681418 112.260769 
L 86.073105 104.070904 
L 86.856481 114.405363 
L 87.248168 106.215498 
L 87.639856 111.382727 
L 88.031544 103.192863 
L 88.423231 108.360092 
L 88.814919 100.170228 
L 89.206607 105.337457 
L 89.598294 97.147592 
L 90.38167 107.482051 
L 90.773357 99.292186 
L 91.556732 109.626645 
L 91.94842 101.43678 
L 92.731795 111.771238 
L 93.123483 103.581374 
L 93.515171 108.748603 
L 93.906858 100.558739 
L 95.081921 116.060426 
L 95.473609 107.870562 
L 95.865296 113.037791 
L 96.256984 104.847926 
L 96.648672 110.015156 
L 97.040359 101.825291 
L 98.60711 122.494208 
L 98.998798 114.304343 
L 99.782173 124.638801 
L 100.173861 116.448937 
L 100.565548 121.616166 
L 100.957236 113.426302 
L 101.740611 123.76076 
L 102.132299 115.570896 
L 102.523986 120.738125 
L 102.915674 112.54826 
L 103.307362 117.71549 
L 103.699049 109.525625 
L 104.090737 114.692854 
L 104.482425 106.50299 
L 105.2658 116.837448 
L 105.657487 108.647584 
L 106.440863 118.982042 
L 106.83255 110.792178 
L 107.224238 115.959407 
L 107.615926 107.769542 
L 108.399301 118.104001 
L 108.790989 109.914136 
L 109.182676 115.081365 
L 109.574364 106.891501 
L 109.966052 112.05873 
L 110.357739 103.868866 
L 111.141114 114.203324 
L 111.532802 106.01346 
L 111.92449 111.180689 
L 112.316177 102.990824 
L 113.099553 113.325282 
L 113.49124 105.135418 
L 114.666303 120.637105 
L 115.057991 112.447241 
L 115.841366 122.781699 
L 116.233054 114.591835 
L 116.624741 119.759064 
L 117.016429 111.5692 
L 117.799804 121.903658 
L 118.191492 113.713793 
L 118.58318 118.881023 
L 118.974867 110.691158 
L 119.366555 115.858387 
L 119.758243 107.668523 
L 120.541618 118.002981 
L 120.933305 109.813117 
L 121.324993 114.980346 
L 121.716681 106.790482 
L 122.500056 117.12494 
L 122.891744 108.935075 
L 124.066807 124.436763 
L 124.458494 116.246898 
L 126.025245 136.915815 
L 126.416932 128.72595 
L 127.200308 139.060409 
L 127.591995 130.870544 
L 127.983683 136.037773 
L 128.375371 127.847909 
L 128.767058 133.015138 
L 129.158746 124.825274 
L 129.942121 135.159732 
L 130.333809 126.969868 
L 130.725496 132.137097 
L 131.117184 123.947232 
L 131.508872 129.114461 
L 131.900559 120.924597 
L 132.292247 126.091826 
L 132.683935 117.901962 
L 133.46731 128.23642 
L 133.858998 120.046556 
L 134.642373 130.381014 
L 135.03406 122.19115 
L 135.425748 127.358379 
L 135.817436 119.168514 
L 136.209123 124.335743 
L 136.600811 116.145879 
L 136.992499 121.313108 
L 137.384186 113.123244 
L 138.167562 123.457702 
L 138.559249 115.267838 
L 139.342625 125.602296 
L 139.734312 117.412431 
L 140.126 122.579661 
L 140.517687 114.389796 
L 140.909375 119.557025 
L 141.301063 111.367161 
L 141.69275 116.53439 
L 142.084438 108.344526 
L 142.867813 118.678984 
L 143.259501 110.489119 
L 144.042876 120.823578 
L 144.434564 112.633713 
L 145.217939 122.968172 
L 145.609627 114.778307 
L 146.001314 119.945536 
L 146.393002 111.755672 
L 146.78469 116.922901 
L 147.176377 108.733037 
L 148.35144 124.234724 
L 148.743128 116.04486 
L 150.309878 136.713776 
L 150.701566 128.523912 
L 151.093254 133.691141 
L 151.484941 125.501276 
L 151.876629 130.668506 
L 152.268317 122.478641 
L 153.051692 132.813099 
L 153.44338 124.623235 
L 154.226755 134.957693 
L 154.618442 126.767829 
L 155.01013 131.935058 
L 155.401818 123.745194 
L 155.793505 128.912423 
L 156.185193 120.722558 
L 156.576881 125.889787 
L 156.968568 117.699923 
L 157.360256 122.867152 
L 157.751944 114.677288 
L 158.143631 119.844517 
L 158.535319 111.654653 
L 160.102069 132.323569 
L 160.493757 124.133705 
L 160.885445 129.300934 
L 161.277132 121.111069 
L 162.452195 136.612757 
L 162.843883 128.422892 
L 163.627258 138.757351 
L 164.018946 130.567486 
L 164.410633 135.734715 
L 164.802321 127.544851 
L 165.194009 132.71208 
L 165.585696 124.522216 
L 165.977384 129.689445 
L 166.369072 121.49958 
L 166.760759 126.666809 
L 167.152447 118.476945 
L 169.110885 144.313091 
L 169.502573 136.123226 
L 169.89426 141.290455 
L 170.285948 133.100591 
L 170.677636 138.26782 
L 171.069323 130.077956 
L 171.461011 135.245185 
L 171.852699 127.05532 
L 172.244386 132.22255 
L 172.636074 124.032685 
L 173.027762 129.199914 
L 173.419449 121.01005 
L 174.202824 131.344508 
L 174.594512 123.154644 
L 175.377887 133.489102 
L 175.769575 125.299238 
L 176.55295 135.633696 
L 176.944638 127.443832 
L 177.728013 137.77829 
L 178.119701 129.588425 
L 178.903076 139.922884 
L 179.294764 131.733019 
L 179.686451 136.900248 
L 180.078139 128.710384 
L 180.469827 133.877613 
L 180.861514 125.687749 
L 181.253202 130.854978 
L 181.64489 122.665113 
L 182.036577 127.832343 
L 182.428265 119.642478 
L 183.21164 129.976936 
L 183.603328 121.787072 
L 183.995016 126.954301 
L 184.386703 118.764437 
L 184.778391 123.931666 
L 185.170078 115.741801 
L 185.561766 120.909031 
L 185.953454 112.719166 
L 186.345141 117.886395 
L 186.736829 109.696531 
L 187.520204 120.030989 
L 187.911892 111.841125 
L 188.30358 117.008354 
L 188.695267 108.81849 
L 189.086955 113.985719 
L 189.478642 105.795854 
L 190.262018 116.130312 
L 190.653705 107.940448 
L 191.045393 113.107677 
L 191.437081 104.917813 
L 192.220456 115.252271 
L 192.612144 107.062407 
L 193.003831 112.229636 
L 193.395519 104.039771 
L 194.178894 114.37423 
L 194.570582 106.184365 
L 195.353957 116.518824 
L 195.745645 108.328959 
L 196.52902 118.663417 
L 196.920708 110.473553 
L 197.312395 115.640782 
L 197.704083 107.450918 
L 198.095771 112.618147 
L 198.487458 104.428282 
L 199.270833 114.762741 
L 199.662521 106.572876 
L 200.054209 111.740105 
L 200.445896 103.550241 
L 201.229272 113.884699 
L 201.620959 105.694835 
L 202.012647 110.862064 
L 202.404335 102.6722 
L 202.796022 107.839429 
L 203.18771 99.649564 
L 203.971085 109.984023 
L 204.362773 101.794158 
L 205.929523 122.463075 
L 206.321211 114.27321 
L 207.104586 124.607669 
L 207.496274 116.417804 
L 207.887962 121.585033 
L 208.279649 113.395169 
L 209.063024 123.729627 
L 209.454712 115.539763 
L 209.8464 120.706992 
L 210.238087 112.517127 
L 210.629775 117.684357 
L 211.021463 109.494492 
L 211.804838 119.82895 
L 212.196526 111.639086 
L 212.588213 116.806315 
L 212.979901 108.616451 
L 213.763276 118.950909 
L 214.154964 110.761045 
L 214.546651 115.928274 
L 214.938339 107.738409 
L 215.721714 118.072868 
L 216.113402 109.883003 
L 217.288465 125.384691 
L 217.680153 117.194826 
L 218.463528 127.529284 
L 218.855215 119.33942 
L 219.246903 124.506649 
L 219.638591 116.316785 
L 220.030278 121.484014 
L 220.421966 113.29415 
L 220.813654 118.461379 
L 221.205341 110.271514 
L 222.772092 130.940431 
L 223.16378 122.750566 
L 223.947155 133.085025 
L 224.338842 124.89516 
L 224.73053 130.062389 
L 225.122218 121.872525 
L 225.513905 127.039754 
L 225.905593 118.84989 
L 226.297281 124.017119 
L 226.688968 115.827254 
L 228.255719 136.496171 
L 228.647406 128.306306 
L 229.039094 133.473536 
L 229.430782 125.283671 
L 229.822469 130.4509 
L 230.214157 122.261036 
L 230.605845 127.428265 
L 230.997532 119.238401 
L 231.38922 124.40563 
L 231.780908 116.215765 
L 232.564283 126.550224 
L 232.955971 118.360359 
L 234.131033 133.862047 
L 234.522721 125.672182 
L 235.306096 136.00664 
L 235.697784 127.816776 
L 236.089472 132.984005 
L 236.481159 124.794141 
L 236.872847 129.96137 
L 237.264535 121.771506 
L 238.439597 137.273193 
L 238.831285 129.083328 
L 239.61466 139.417787 
L 240.006348 131.227922 
L 241.181411 146.72961 
L 241.573099 138.539745 
L 241.964786 143.706974 
L 242.356474 135.51711 
L 244.314912 161.353256 
L 244.7066 153.163391 
L 245.489975 163.497849 
L 245.881663 155.307985 
L 246.27335 160.475214 
L 246.665038 152.28535 
L 247.056726 157.452579 
L 247.448413 149.262714 
L 247.840101 154.429944 
L 248.231788 146.240079 
L 248.623476 151.407308 
L 249.015164 143.217444 
L 249.798539 153.551902 
L 250.190227 145.362038 
L 250.581914 150.529267 
L 250.973602 142.339403 
L 251.36529 147.506632 
L 251.756977 139.316767 
L 252.148665 144.483996 
L 252.540353 136.294132 
L 252.93204 141.461361 
L 253.323728 133.271497 
L 254.107103 143.605955 
L 254.498791 135.416091 
L 255.282166 145.750549 
L 255.673854 137.560684 
L 256.065541 142.727914 
L 256.457229 134.538049 
L 257.240604 144.872507 
L 257.632292 136.682643 
L 258.415667 147.017101 
L 258.807355 138.827237 
L 259.59073 149.161695 
L 259.982418 140.971831 
L 260.765793 151.306289 
L 261.157481 143.116425 
L 262.332544 158.618112 
L 262.724231 150.428247 
L 263.115919 155.595477 
L 263.507606 147.405612 
L 263.899294 152.572841 
L 264.290982 144.382977 
L 265.074357 154.717435 
L 265.466045 146.527571 
L 266.641108 162.029258 
L 267.032795 153.839394 
L 267.424483 159.006623 
L 267.81617 150.816758 
L 268.207858 155.983988 
L 268.599546 147.794123 
L 268.991233 152.961352 
L 269.382921 144.771488 
L 269.774609 149.938717 
L 270.166296 141.748853 
L 270.949672 152.083311 
L 271.341359 143.893446 
L 272.90811 164.562363 
L 273.299797 156.372499 
L 273.691485 161.539728 
L 274.083173 153.349863 
L 274.47486 158.517092 
L 274.866548 150.327228 
L 275.649923 160.661686 
L 276.041611 152.471822 
L 276.433299 157.639051 
L 276.824986 149.449187 
L 277.216674 154.616416 
L 277.608361 146.426551 
L 278.000049 151.59378 
L 278.391737 143.403916 
L 279.175112 153.738374 
L 279.5668 145.54851 
L 279.958487 150.715739 
L 280.350175 142.525875 
L 280.741863 147.693104 
L 281.13355 139.503239 
L 281.916926 149.837698 
L 282.308613 141.647833 
L 283.875364 162.31675 
L 284.267051 154.126885 
L 284.658739 159.294114 
L 285.050427 151.10425 
L 285.442114 156.271479 
L 285.833802 148.081615 
L 286.22549 153.248844 
L 286.617177 145.058979 
L 287.008865 150.226209 
L 287.400552 142.036344 
L 288.183928 152.370802 
L 288.575615 144.180938 
L 288.967303 149.348167 
L 289.358991 141.158303 
L 289.750678 146.325532 
L 290.142366 138.135667 
L 290.925741 148.470126 
L 291.317429 140.280261 
L 291.709117 145.44749 
L 292.100804 137.257626 
L 293.275867 152.759313 
L 293.667555 144.569449 
L 294.45093 154.903907 
L 294.842618 146.714043 
L 296.409368 167.382959 
L 296.801056 159.193095 
L 297.192744 164.360324 
L 297.584431 156.17046 
L 298.367806 166.504918 
L 298.759494 158.315053 
L 299.151182 163.482283 
L 299.542869 155.292418 
L 300.717932 170.794105 
L 301.10962 162.604241 
L 301.892995 172.938699 
L 302.284683 164.748835 
L 303.068058 175.083293 
L 303.459746 166.893429 
L 304.634809 182.395116 
L 305.026496 174.205251 
L 305.418184 179.37248 
L 305.809872 171.182616 
L 306.201559 176.349845 
L 306.593247 168.159981 
L 306.984935 173.32721 
L 307.376622 165.137345 
L 307.76831 170.304574 
L 308.159997 162.11471 
L 308.943373 172.449168 
L 309.33506 164.259304 
L 310.118436 174.593762 
L 310.510123 166.403897 
L 310.901811 171.571127 
L 311.293499 163.381262 
L 311.685186 168.548491 
L 312.076874 160.358627 
L 312.468561 165.525856 
L 312.860249 157.335992 
L 313.251937 162.503221 
L 313.643624 154.313356 
L 314.427 164.647814 
L 314.818687 156.45795 
L 315.602063 166.792408 
L 315.99375 158.602544 
L 316.385438 163.769773 
L 316.777126 155.579909 
L 317.168813 160.747138 
L 317.560501 152.557273 
L 317.952188 157.724502 
L 318.343876 149.534638 
L 318.735564 154.701867 
L 319.127251 146.512003 
L 319.910627 156.846461 
L 320.302314 148.656597 
L 320.694002 153.823826 
L 321.08569 145.633961 
L 321.477377 150.80119 
L 321.869065 142.611326 
L 322.65244 152.945784 
L 323.044128 144.75592 
L 323.435815 149.923149 
L 323.827503 141.733285 
L 325.002566 157.234972 
L 325.394254 149.045108 
L 325.785941 154.212337 
L 326.177629 146.022472 
L 330.877881 208.029222 
L 331.269568 199.83935 
L 332.052943 210.173808 
L 332.444631 201.983934 
L 332.836319 207.151163 
L 333.228006 198.961292 
L 333.619694 204.128521 
L 334.011382 195.938652 
L 334.403069 201.105881 
L 334.794757 192.916014 
L 335.186445 198.083243 
L 335.578132 189.893377 
L 336.361508 200.227835 
L 336.753195 192.037968 
L 337.144883 197.205197 
L 337.53657 189.015331 
L 337.928258 194.18256 
L 338.319946 185.992695 
L 339.103321 196.327153 
L 339.495009 188.137287 
L 339.886696 193.304516 
L 340.278384 185.114651 
L 340.670072 190.28188 
L 341.061759 182.092015 
L 341.845134 192.426473 
L 342.236822 184.236608 
L 342.62851 189.403837 
L 343.020197 181.213972 
L 343.411885 186.381201 
L 343.803573 178.191336 
L 345.370323 198.860253 
L 345.762011 190.670386 
L 347.328761 211.339303 
L 347.720449 203.149427 
L 348.112137 208.316656 
L 348.503824 200.126784 
L 348.895512 205.294013 
L 349.2872 197.104143 
L 350.070575 207.438602 
L 350.462263 199.24873 
L 350.85395 204.415959 
L 351.245638 196.226091 
L 351.637325 201.39332 
L 352.029013 193.203452 
L 352.420701 198.370681 
L 352.812388 190.180815 
L 353.595764 200.515273 
L 353.987451 192.325406 
L 354.770827 202.659864 
L 355.162514 194.469996 
L 355.554202 199.637225 
L 355.94589 191.447359 
L 356.337577 196.614588 
L 356.729265 188.424722 
L 358.296015 209.093638 
L 358.687703 200.903765 
L 361.429516 237.074369 
L 361.821204 228.88414 
L 362.212892 234.051369 
L 362.604579 225.861262 
L 362.996267 231.028491 
L 363.387955 222.838464 
L 363.779642 228.005694 
L 364.17133 219.815721 
L 364.563018 224.98295 
L 364.954705 216.793014 
L 365.738081 227.127472 
L 366.129768 218.937512 
L 366.521456 224.104741 
L 366.913143 215.914812 
L 367.304831 221.082042 
L 367.696519 212.892134 
L 369.654957 238.72828 
L 370.046645 230.53796 
L 370.438332 235.70519 
L 370.83002 227.515022 
L 372.005083 243.016709 
L 372.39677 234.826036 
L 372.788458 239.993265 
L 373.180146 231.802861 
L 373.571833 236.97009 
L 373.963521 228.779866 
L 374.355209 233.947095 
L 374.746896 225.756991 
L 375.138584 230.92422 
L 375.530272 222.734196 
L 375.921959 227.901425 
L 376.313647 219.711454 
L 376.705334 224.878684 
L 377.097022 216.688748 
L 377.48871 221.855977 
L 377.880397 213.666066 
L 378.272085 218.833295 
L 378.663773 210.643399 
L 379.05546 215.810628 
L 379.447148 207.620742 
L 380.230523 217.955201 
L 380.622211 209.765308 
L 381.797274 225.266996 
L 382.188961 217.077056 
L 382.580649 222.244285 
L 382.972337 214.054371 
L 383.364024 219.2216 
L 383.755712 211.031703 
L 384.1474 216.198932 
L 384.539087 208.009045 
L 384.930775 213.176274 
L 385.322463 204.986395 
L 385.71415 210.153624 
L 386.105838 201.96375 
L 386.889213 212.298208 
L 387.280901 204.108331 
L 387.672588 209.27556 
L 388.064276 201.085687 
L 388.455964 206.252916 
L 388.847651 198.063046 
L 390.022714 213.564733 
L 390.414402 205.374853 
L 391.197777 215.709311 
L 391.589465 207.519426 
L 392.37284 217.853884 
L 392.764528 209.663992 
L 393.547903 219.998451 
L 393.939591 211.808549 
L 394.331278 216.975778 
L 394.722966 208.785889 
L 395.506341 219.120348 
L 395.898029 210.93045 
L 397.073092 226.432138 
L 397.464779 218.242186 
L 398.248155 228.576644 
L 398.639842 220.386663 
L 399.03153 225.553892 
L 399.423218 217.36395 
L 400.206593 227.698408 
L 400.59828 219.50844 
L 400.989968 224.675669 
L 401.381656 216.485736 
L 403.340094 242.321882 
L 403.731782 234.13128 
L 404.123469 239.298509 
L 404.515157 231.108153 
L 405.298532 241.442612 
L 405.69022 233.252092 
L 406.473595 243.58655 
L 406.865283 235.395813 
L 408.040346 250.8975 
L 408.432033 242.705307 
L 408.823721 247.872536 
L 409.215409 239.68112 
L 409.998784 250.015578 
L 410.390472 241.823645 
L 411.173847 252.158103 
L 411.565534 243.965481 
L 413.132285 264.634398 
L 413.523973 256.429844 
L 414.307348 266.764303 
L 414.699036 258.554898 
L 415.090723 263.722127 
L 415.482411 255.519264 
L 415.874098 260.686493 
L 416.265786 252.487975 
L 416.657474 257.655204 
L 417.049161 249.459577 
L 417.440849 254.626806 
L 417.832537 246.433102 
L 418.224224 251.600331 
L 418.615912 243.407908 
L 419.0076 248.575137 
L 419.399287 240.383567 
L 420.182663 250.718025 
L 420.57435 242.525888 
L 422.141101 263.194804 
L 422.532788 254.992828 
L 423.707851 270.494516 
L 424.099539 262.272449 
L 425.274602 277.774137 
L 425.666289 269.499074 
L 426.841352 285.000762 
L 427.23304 276.588351 
L 427.624728 281.755581 
L 428.016415 273.420959 
L 428.799791 283.755418 
L 429.191478 275.376816 
L 430.366541 290.878503 
L 430.758229 282.207521 
L 432.324979 302.876437 
L 432.324979 302.876437 
" style="fill:none;stroke:#ff7f0e;stroke-linecap:square;stroke-width:0.666667;"/>
   </g>
   <g id="patch_3">
    <path d="M 35.85875 316.4425 
L 35.85875 17.989125 
" style="fill:none;stroke:#000000;stroke-linecap:square;stroke-linejoin:miter;stroke-width:0.8;"/>
   </g>
   <g id="patch_4">
    <path d="M 451.204324 316.4425 
L 451.204324 17.989125 
" style="fill:none;stroke:#000000;stroke-linecap:square;stroke-linejoin:miter;stroke-width:0.8;"/>
   </g>
   <g id="patch_5">
    <path d="M 35.85875 316.4425 
L 451.204324 316.4425 
" style="fill:none;stroke:#000000;stroke-linecap:square;stroke-linejoin:miter;stroke-width:0.8;"/>
   </g>
   <g id="patch_6">
    <path d="M 35.85875 17.989125 
L 451.204324 17.989125 
" style="fill:none;stroke:#000000;stroke-linecap:square;stroke-linejoin:miter;stroke-width:0.8;"/>
   </g>
   <g id="text_17">
    <!-- "3y+1" problem -->
    <g transform="translate(213.189162 11.989125)scale(0.072 -0.072)">
     <defs>
      <path d="M 43.703125 72.90625 
L 43.703125 45.796875 
L 35.203125 45.796875 
L 35.203125 72.90625 
z
M 25 72.90625 
L 25 45.796875 
L 16.5 45.796875 
L 16.5 72.90625 
z
" id="DejaVuSansMono-34"/>
      <path d="M 34.1875 57.171875 
L 34.1875 35.5 
L 55.90625 35.5 
L 55.90625 27.203125 
L 34.1875 27.203125 
L 34.1875 5.515625 
L 25.984375 5.515625 
L 25.984375 27.203125 
L 4.296875 27.203125 
L 4.296875 35.5 
L 25.984375 35.5 
L 25.984375 57.171875 
z
" id="DejaVuSansMono-43"/>
      <path id="DejaVuSansMono-32"/>
      <path d="M 18.3125 6.890625 
L 18.3125 -20.796875 
L 9.28125 -20.796875 
L 9.28125 54.6875 
L 18.3125 54.6875 
L 18.3125 47.703125 
Q 20.5625 51.765625 24.296875 53.875 
Q 28.03125 56 32.90625 56 
Q 42.828125 56 48.46875 48.328125 
Q 54.109375 40.671875 54.109375 27.09375 
Q 54.109375 13.765625 48.4375 6.171875 
Q 42.78125 -1.421875 32.90625 -1.421875 
Q 27.9375 -1.421875 24.1875 0.703125 
Q 20.453125 2.828125 18.3125 6.890625 
z
M 44.671875 27.296875 
Q 44.671875 37.75 41.375 43.0625 
Q 38.09375 48.390625 31.59375 48.390625 
Q 25.046875 48.390625 21.671875 43.046875 
Q 18.3125 37.703125 18.3125 27.296875 
Q 18.3125 16.9375 21.671875 11.5625 
Q 25.046875 6.203125 31.59375 6.203125 
Q 38.09375 6.203125 41.375 11.515625 
Q 44.671875 16.84375 44.671875 27.296875 
z
" id="DejaVuSansMono-112"/>
      <path d="M 56.390625 43.40625 
Q 53.515625 45.65625 50.53125 46.671875 
Q 47.5625 47.703125 44 47.703125 
Q 35.59375 47.703125 31.140625 42.421875 
Q 26.703125 37.15625 26.703125 27.203125 
L 26.703125 0 
L 17.671875 0 
L 17.671875 54.6875 
L 26.703125 54.6875 
L 26.703125 44 
Q 28.953125 49.8125 33.609375 52.90625 
Q 38.28125 56 44.671875 56 
Q 48 56 50.875 55.171875 
Q 53.765625 54.34375 56.390625 52.59375 
z
" id="DejaVuSansMono-114"/>
      <path d="M 30.078125 48.390625 
Q 23.25 48.390625 19.734375 43.0625 
Q 16.21875 37.75 16.21875 27.296875 
Q 16.21875 16.890625 19.734375 11.546875 
Q 23.25 6.203125 30.078125 6.203125 
Q 36.96875 6.203125 40.484375 11.546875 
Q 44 16.890625 44 27.296875 
Q 44 37.75 40.484375 43.0625 
Q 36.96875 48.390625 30.078125 48.390625 
z
M 30.078125 56 
Q 41.453125 56 47.484375 48.625 
Q 53.515625 41.265625 53.515625 27.296875 
Q 53.515625 13.28125 47.5 5.921875 
Q 41.5 -1.421875 30.078125 -1.421875 
Q 18.703125 -1.421875 12.6875 5.921875 
Q 6.6875 13.28125 6.6875 27.296875 
Q 6.6875 41.265625 12.6875 48.625 
Q 18.703125 56 30.078125 56 
z
" id="DejaVuSansMono-111"/>
      <path d="M 44.828125 27.296875 
Q 44.828125 37.75 41.5 43.0625 
Q 38.1875 48.390625 31.6875 48.390625 
Q 25.140625 48.390625 21.765625 43.046875 
Q 18.40625 37.703125 18.40625 27.296875 
Q 18.40625 16.9375 21.765625 11.5625 
Q 25.140625 6.203125 31.6875 6.203125 
Q 38.1875 6.203125 41.5 11.515625 
Q 44.828125 16.84375 44.828125 27.296875 
z
M 18.40625 47.703125 
Q 20.5625 51.703125 24.34375 53.84375 
Q 28.125 56 33.109375 56 
Q 42.96875 56 48.625 48.40625 
Q 54.296875 40.828125 54.296875 27.484375 
Q 54.296875 13.96875 48.609375 6.265625 
Q 42.921875 -1.421875 33.015625 -1.421875 
Q 28.125 -1.421875 24.390625 0.703125 
Q 20.65625 2.828125 18.40625 6.890625 
L 18.40625 0 
L 9.421875 0 
L 9.421875 75.984375 
L 18.40625 75.984375 
z
" id="DejaVuSansMono-98"/>
      <path d="M 31.203125 19.828125 
Q 31.203125 13.765625 33.421875 10.6875 
Q 35.640625 7.625 39.984375 7.625 
L 50.484375 7.625 
L 50.484375 0 
L 39.109375 0 
Q 31.0625 0 26.640625 5.171875 
Q 22.21875 10.359375 22.21875 19.828125 
L 22.21875 69.484375 
L 7.8125 69.484375 
L 7.8125 76.515625 
L 31.203125 76.515625 
z
" id="DejaVuSansMono-108"/>
      <path d="M 54.296875 29.59375 
L 54.296875 25.203125 
L 15.375 25.203125 
L 15.375 24.90625 
Q 15.375 15.96875 20.03125 11.078125 
Q 24.703125 6.203125 33.203125 6.203125 
Q 37.5 6.203125 42.1875 7.5625 
Q 46.875 8.9375 52.203125 11.71875 
L 52.203125 2.78125 
Q 47.078125 0.6875 42.3125 -0.359375 
Q 37.546875 -1.421875 33.109375 -1.421875 
Q 20.359375 -1.421875 13.171875 6.21875 
Q 6 13.875 6 27.296875 
Q 6 40.375 13.03125 48.1875 
Q 20.0625 56 31.78125 56 
Q 42.234375 56 48.265625 48.921875 
Q 54.296875 41.84375 54.296875 29.59375 
z
M 45.3125 32.234375 
Q 45.125 40.140625 41.578125 44.265625 
Q 38.03125 48.390625 31.390625 48.390625 
Q 24.90625 48.390625 20.703125 44.09375 
Q 16.5 39.796875 15.71875 32.171875 
z
" id="DejaVuSansMono-101"/>
      <path d="M 33.015625 49.125 
Q 34.671875 52.640625 37.234375 54.3125 
Q 39.796875 56 43.40625 56 
Q 50 56 52.703125 50.890625 
Q 55.421875 45.796875 55.421875 31.6875 
L 55.421875 0 
L 47.21875 0 
L 47.21875 31.296875 
Q 47.21875 42.875 45.921875 45.671875 
Q 44.625 48.484375 41.21875 48.484375 
Q 37.3125 48.484375 35.859375 45.484375 
Q 34.421875 42.484375 34.421875 31.296875 
L 34.421875 0 
L 26.21875 0 
L 26.21875 31.296875 
Q 26.21875 43.015625 24.828125 45.75 
Q 23.4375 48.484375 19.828125 48.484375 
Q 16.265625 48.484375 14.875 45.484375 
Q 13.484375 42.484375 13.484375 31.296875 
L 13.484375 0 
L 5.328125 0 
L 5.328125 54.6875 
L 13.484375 54.6875 
L 13.484375 50 
Q 15.09375 52.9375 17.5 54.46875 
Q 19.921875 56 23 56 
Q 26.703125 56 29.171875 54.296875 
Q 31.640625 52.59375 33.015625 49.125 
z
" id="DejaVuSansMono-109"/>
     </defs>
     <use xlink:href="#DejaVuSansMono-34"/>
     <use x="60.205078" xlink:href="#DejaVuSansMono-51"/>
     <use x="120.410156" xlink:href="#DejaVuSansMono-121"/>
     <use x="180.615234" xlink:href="#DejaVuSansMono-43"/>
     <use x="240.820312" xlink:href="#DejaVuSansMono-49"/>
     <use x="301.025391" xlink:href="#DejaVuSansMono-34"/>
     <use x="361.230469" xlink:href="#DejaVuSansMono-32"/>
     <use x="421.435547" xlink:href="#DejaVuSansMono-112"/>
     <use x="481.640625" xlink:href="#DejaVuSansMono-114"/>
     <use x="541.845703" xlink:href="#DejaVuSansMono-111"/>
     <use x="602.050781" xlink:href="#DejaVuSansMono-98"/>
     <use x="662.255859" xlink:href="#DejaVuSansMono-108"/>
     <use x="722.460938" xlink:href="#DejaVuSansMono-101"/>
     <use x="782.666016" xlink:href="#DejaVuSansMono-109"/>
    </g>
   </g>
   <g id="legend_1">
    <g id="patch_7">
     <path d="M 337.499636 82.0095 
L 447.004324 82.0095 
Q 448.204324 82.0095 448.204324 80.8095 
L 448.204324 22.189125 
Q 448.204324 20.989125 447.004324 20.989125 
L 337.499636 20.989125 
Q 336.299636 20.989125 336.299636 22.189125 
L 336.299636 80.8095 
Q 336.299636 82.0095 337.499636 82.0095 
z
" style="fill:#ffffff;opacity:0.8;stroke:#cccccc;stroke-linejoin:miter;"/>
    </g>
    <g id="line2d_17">
     <path d="M 338.699636 36.889687 
L 350.699636 36.889687 
" style="fill:none;stroke:#1f77b4;stroke-linecap:square;stroke-width:0.666667;"/>
    </g>
    <g id="line2d_18"/>
    <g id="text_18">
     <!-- "Tallest": -->
     <g transform="translate(355.499636 27.980062)scale(0.06 -0.06)">
      <defs>
       <path d="M 2.296875 72.90625 
L 57.90625 72.90625 
L 57.90625 64.59375 
L 35.109375 64.59375 
L 35.109375 0 
L 25.203125 0 
L 25.203125 64.59375 
L 2.296875 64.59375 
z
" id="DejaVuSansMono-84"/>
       <path d="M 34.28125 27.484375 
L 31.296875 27.484375 
Q 23.4375 27.484375 19.453125 24.71875 
Q 15.484375 21.96875 15.484375 16.5 
Q 15.484375 11.578125 18.453125 8.84375 
Q 21.4375 6.109375 26.703125 6.109375 
Q 34.125 6.109375 38.375 11.25 
Q 42.625 16.40625 42.671875 25.484375 
L 42.671875 27.484375 
z
M 51.703125 31.203125 
L 51.703125 0 
L 42.671875 0 
L 42.671875 8.109375 
Q 39.796875 3.21875 35.421875 0.890625 
Q 31.0625 -1.421875 24.8125 -1.421875 
Q 16.453125 -1.421875 11.46875 3.296875 
Q 6.5 8.015625 6.5 15.921875 
Q 6.5 25.046875 12.625 29.78125 
Q 18.75 34.515625 30.609375 34.515625 
L 42.671875 34.515625 
L 42.671875 35.9375 
Q 42.625 42.484375 39.34375 45.4375 
Q 36.078125 48.390625 28.90625 48.390625 
Q 24.3125 48.390625 19.625 47.0625 
Q 14.9375 45.75 10.5 43.21875 
L 10.5 52.203125 
Q 15.484375 54.109375 20.046875 55.046875 
Q 24.609375 56 28.90625 56 
Q 35.6875 56 40.5 54 
Q 45.3125 52 48.296875 48 
Q 50.140625 45.5625 50.921875 41.96875 
Q 51.703125 38.375 51.703125 31.203125 
z
" id="DejaVuSansMono-97"/>
       <path d="M 47.515625 52.78125 
L 47.515625 44 
Q 43.65625 46.234375 39.75 47.359375 
Q 35.84375 48.484375 31.78125 48.484375 
Q 25.6875 48.484375 22.671875 46.5 
Q 19.671875 44.53125 19.671875 40.484375 
Q 19.671875 36.8125 21.921875 35 
Q 24.171875 33.203125 33.109375 31.5 
L 36.71875 30.8125 
Q 43.40625 29.546875 46.84375 25.734375 
Q 50.296875 21.921875 50.296875 15.828125 
Q 50.296875 7.71875 44.53125 3.140625 
Q 38.765625 -1.421875 28.515625 -1.421875 
Q 24.46875 -1.421875 20.015625 -0.5625 
Q 15.578125 0.296875 10.40625 2 
L 10.40625 11.28125 
Q 15.4375 8.6875 20.015625 7.390625 
Q 24.609375 6.109375 28.71875 6.109375 
Q 34.671875 6.109375 37.9375 8.515625 
Q 41.21875 10.9375 41.21875 15.28125 
Q 41.21875 21.53125 29.25 23.921875 
L 28.859375 24.03125 
L 25.484375 24.703125 
Q 17.71875 26.21875 14.15625 29.8125 
Q 10.59375 33.40625 10.59375 39.59375 
Q 10.59375 47.46875 15.90625 51.734375 
Q 21.234375 56 31.109375 56 
Q 35.5 56 39.546875 55.1875 
Q 43.609375 54.390625 47.515625 52.78125 
z
" id="DejaVuSansMono-115"/>
       <path d="M 29.984375 70.21875 
L 29.984375 54.6875 
L 50.390625 54.6875 
L 50.390625 47.703125 
L 29.984375 47.703125 
L 29.984375 18.015625 
Q 29.984375 11.96875 32.28125 9.5625 
Q 34.578125 7.171875 40.28125 7.171875 
L 50.390625 7.171875 
L 50.390625 0 
L 39.40625 0 
Q 29.296875 0 25.140625 4.046875 
Q 21 8.109375 21 18.015625 
L 21 47.703125 
L 6.390625 47.703125 
L 6.390625 54.6875 
L 21 54.6875 
L 21 70.21875 
z
" id="DejaVuSansMono-116"/>
       <path d="M 23.875 51.90625 
L 36.1875 51.90625 
L 36.1875 37.109375 
L 23.875 37.109375 
z
M 23.875 14.890625 
L 36.1875 14.890625 
L 36.1875 0 
L 23.875 0 
z
" id="DejaVuSansMono-58"/>
      </defs>
      <use xlink:href="#DejaVuSansMono-34"/>
      <use x="60.205078" xlink:href="#DejaVuSansMono-84"/>
      <use x="120.410156" xlink:href="#DejaVuSansMono-97"/>
      <use x="180.615234" xlink:href="#DejaVuSansMono-108"/>
      <use x="240.820312" xlink:href="#DejaVuSansMono-108"/>
      <use x="301.025391" xlink:href="#DejaVuSansMono-101"/>
      <use x="361.230469" xlink:href="#DejaVuSansMono-115"/>
      <use x="421.435547" xlink:href="#DejaVuSansMono-116"/>
      <use x="481.640625" xlink:href="#DejaVuSansMono-34"/>
      <use x="541.845703" xlink:href="#DejaVuSansMono-58"/>
     </g>
     <!-- y_0    = 210964383 -->
     <g transform="translate(355.499636 34.737)scale(0.06 -0.06)">
      <defs>
       <path d="M 4.296875 25.59375 
L 55.90625 25.59375 
L 55.90625 17.1875 
L 4.296875 17.1875 
z
M 4.296875 45.40625 
L 55.90625 45.40625 
L 55.90625 37.109375 
L 4.296875 37.109375 
z
" id="DejaVuSansMono-61"/>
      </defs>
      <use xlink:href="#DejaVuSansMono-121"/>
      <use x="60.205078" xlink:href="#DejaVuSansMono-95"/>
      <use x="120.410156" xlink:href="#DejaVuSansMono-48"/>
      <use x="180.615234" xlink:href="#DejaVuSansMono-32"/>
      <use x="240.820312" xlink:href="#DejaVuSansMono-32"/>
      <use x="301.025391" xlink:href="#DejaVuSansMono-32"/>
      <use x="361.230469" xlink:href="#DejaVuSansMono-32"/>
      <use x="421.435547" xlink:href="#DejaVuSansMono-61"/>
      <use x="481.640625" xlink:href="#DejaVuSansMono-32"/>
      <use x="541.845703" xlink:href="#DejaVuSansMono-50"/>
      <use x="602.050781" xlink:href="#DejaVuSansMono-49"/>
      <use x="662.255859" xlink:href="#DejaVuSansMono-48"/>
      <use x="722.460938" xlink:href="#DejaVuSansMono-57"/>
      <use x="782.666016" xlink:href="#DejaVuSansMono-54"/>
      <use x="842.871094" xlink:href="#DejaVuSansMono-52"/>
      <use x="903.076172" xlink:href="#DejaVuSansMono-51"/>
      <use x="963.28125" xlink:href="#DejaVuSansMono-56"/>
      <use x="1023.486328" xlink:href="#DejaVuSansMono-51"/>
     </g>
     <!-- y_max  = 6404797161121264 -->
     <g transform="translate(355.499636 41.660812)scale(0.06 -0.06)">
      <defs>
       <path d="M 54.59375 54.6875 
L 35.015625 28.515625 
L 56.5 0 
L 46.09375 0 
L 30.078125 21.921875 
L 14.109375 0 
L 3.71875 0 
L 25.203125 28.515625 
L 5.609375 54.6875 
L 15.578125 54.6875 
L 30.078125 34.90625 
L 44.484375 54.6875 
z
" id="DejaVuSansMono-120"/>
      </defs>
      <use xlink:href="#DejaVuSansMono-121"/>
      <use x="60.205078" xlink:href="#DejaVuSansMono-95"/>
      <use x="120.410156" xlink:href="#DejaVuSansMono-109"/>
      <use x="180.615234" xlink:href="#DejaVuSansMono-97"/>
      <use x="240.820312" xlink:href="#DejaVuSansMono-120"/>
      <use x="301.025391" xlink:href="#DejaVuSansMono-32"/>
      <use x="361.230469" xlink:href="#DejaVuSansMono-32"/>
      <use x="421.435547" xlink:href="#DejaVuSansMono-61"/>
      <use x="481.640625" xlink:href="#DejaVuSansMono-32"/>
      <use x="541.845703" xlink:href="#DejaVuSansMono-54"/>
      <use x="602.050781" xlink:href="#DejaVuSansMono-52"/>
      <use x="662.255859" xlink:href="#DejaVuSansMono-48"/>
      <use x="722.460938" xlink:href="#DejaVuSansMono-52"/>
      <use x="782.666016" xlink:href="#DejaVuSansMono-55"/>
      <use x="842.871094" xlink:href="#DejaVuSansMono-57"/>
      <use x="903.076172" xlink:href="#DejaVuSansMono-55"/>
      <use x="963.28125" xlink:href="#DejaVuSansMono-49"/>
      <use x="1023.486328" xlink:href="#DejaVuSansMono-54"/>
      <use x="1083.691406" xlink:href="#DejaVuSansMono-49"/>
      <use x="1143.896484" xlink:href="#DejaVuSansMono-49"/>
      <use x="1204.101562" xlink:href="#DejaVuSansMono-50"/>
      <use x="1264.306641" xlink:href="#DejaVuSansMono-49"/>
      <use x="1324.511719" xlink:href="#DejaVuSansMono-50"/>
      <use x="1384.716797" xlink:href="#DejaVuSansMono-54"/>
      <use x="1444.921875" xlink:href="#DejaVuSansMono-52"/>
     </g>
     <!-- x_max  = 476 -->
     <g transform="translate(355.499636 48.584625)scale(0.06 -0.06)">
      <use xlink:href="#DejaVuSansMono-120"/>
      <use x="60.205078" xlink:href="#DejaVuSansMono-95"/>
      <use x="120.410156" xlink:href="#DejaVuSansMono-109"/>
      <use x="180.615234" xlink:href="#DejaVuSansMono-97"/>
      <use x="240.820312" xlink:href="#DejaVuSansMono-120"/>
      <use x="301.025391" xlink:href="#DejaVuSansMono-32"/>
      <use x="361.230469" xlink:href="#DejaVuSansMono-32"/>
      <use x="421.435547" xlink:href="#DejaVuSansMono-61"/>
      <use x="481.640625" xlink:href="#DejaVuSansMono-32"/>
      <use x="541.845703" xlink:href="#DejaVuSansMono-52"/>
      <use x="602.050781" xlink:href="#DejaVuSansMono-55"/>
      <use x="662.255859" xlink:href="#DejaVuSansMono-54"/>
     </g>
    </g>
    <g id="line2d_19">
     <path d="M 338.699636 66.499875 
L 350.699636 66.499875 
" style="fill:none;stroke:#ff7f0e;stroke-linecap:square;stroke-width:0.666667;"/>
    </g>
    <g id="line2d_20"/>
    <g id="text_19">
     <!-- "Widest":  -->
     <g transform="translate(355.499636 57.59025)scale(0.06 -0.06)">
      <defs>
       <path d="M 0 72.90625 
L 9.625 72.90625 
L 16.609375 13.71875 
L 24.90625 52.875 
L 35.203125 52.875 
L 43.609375 13.625 
L 50.59375 72.90625 
L 60.203125 72.90625 
L 49.3125 0 
L 39.984375 0 
L 30.078125 43.3125 
L 20.21875 0 
L 10.890625 0 
z
" id="DejaVuSansMono-87"/>
       <path d="M 12.5 54.6875 
L 35.5 54.6875 
L 35.5 6.984375 
L 53.328125 6.984375 
L 53.328125 0 
L 8.6875 0 
L 8.6875 6.984375 
L 26.515625 6.984375 
L 26.515625 47.703125 
L 12.5 47.703125 
z
M 26.515625 75.984375 
L 35.5 75.984375 
L 35.5 64.59375 
L 26.515625 64.59375 
z
" id="DejaVuSansMono-105"/>
       <path d="M 41.890625 47.703125 
L 41.890625 75.984375 
L 50.875 75.984375 
L 50.875 0 
L 41.890625 0 
L 41.890625 6.890625 
Q 39.65625 2.828125 35.90625 0.703125 
Q 32.171875 -1.421875 27.296875 -1.421875 
Q 17.390625 -1.421875 11.6875 6.265625 
Q 6 13.96875 6 27.484375 
Q 6 40.828125 11.71875 48.40625 
Q 17.4375 56 27.296875 56 
Q 32.234375 56 35.984375 53.875 
Q 39.75 51.765625 41.890625 47.703125 
z
M 15.484375 27.296875 
Q 15.484375 16.84375 18.796875 11.515625 
Q 22.125 6.203125 28.609375 6.203125 
Q 35.109375 6.203125 38.5 11.5625 
Q 41.890625 16.9375 41.890625 27.296875 
Q 41.890625 37.703125 38.5 43.046875 
Q 35.109375 48.390625 28.609375 48.390625 
Q 22.125 48.390625 18.796875 43.0625 
Q 15.484375 37.75 15.484375 27.296875 
z
" id="DejaVuSansMono-100"/>
      </defs>
      <use xlink:href="#DejaVuSansMono-34"/>
      <use x="60.205078" xlink:href="#DejaVuSansMono-87"/>
      <use x="120.410156" xlink:href="#DejaVuSansMono-105"/>
      <use x="180.615234" xlink:href="#DejaVuSansMono-100"/>
      <use x="240.820312" xlink:href="#DejaVuSansMono-101"/>
      <use x="301.025391" xlink:href="#DejaVuSansMono-115"/>
      <use x="361.230469" xlink:href="#DejaVuSansMono-116"/>
      <use x="421.435547" xlink:href="#DejaVuSansMono-34"/>
      <use x="481.640625" xlink:href="#DejaVuSansMono-58"/>
      <use x="541.845703" xlink:href="#DejaVuSansMono-32"/>
     </g>
     <!-- y_0    = 268549803 -->
     <g transform="translate(355.499636 64.347187)scale(0.06 -0.06)">
      <use xlink:href="#DejaVuSansMono-121"/>
      <use x="60.205078" xlink:href="#DejaVuSansMono-95"/>
      <use x="120.410156" xlink:href="#DejaVuSansMono-48"/>
      <use x="180.615234" xlink:href="#DejaVuSansMono-32"/>
      <use x="240.820312" xlink:href="#DejaVuSansMono-32"/>
      <use x="301.025391" xlink:href="#DejaVuSansMono-32"/>
      <use x="361.230469" xlink:href="#DejaVuSansMono-32"/>
      <use x="421.435547" xlink:href="#DejaVuSansMono-61"/>
      <use x="481.640625" xlink:href="#DejaVuSansMono-32"/>
      <use x="541.845703" xlink:href="#DejaVuSansMono-50"/>
      <use x="602.050781" xlink:href="#DejaVuSansMono-54"/>
      <use x="662.255859" xlink:href="#DejaVuSansMono-56"/>
      <use x="722.460938" xlink:href="#DejaVuSansMono-53"/>
      <use x="782.666016" xlink:href="#DejaVuSansMono-52"/>
      <use x="842.871094" xlink:href="#DejaVuSansMono-57"/>
      <use x="903.076172" xlink:href="#DejaVuSansMono-56"/>
      <use x="963.28125" xlink:href="#DejaVuSansMono-48"/>
      <use x="1023.486328" xlink:href="#DejaVuSansMono-51"/>
     </g>
     <!-- y_max  = 966616035460 -->
     <g transform="translate(355.499636 71.271)scale(0.06 -0.06)">
      <use xlink:href="#DejaVuSansMono-121"/>
      <use x="60.205078" xlink:href="#DejaVuSansMono-95"/>
      <use x="120.410156" xlink:href="#DejaVuSansMono-109"/>
      <use x="180.615234" xlink:href="#DejaVuSansMono-97"/>
      <use x="240.820312" xlink:href="#DejaVuSansMono-120"/>
      <use x="301.025391" xlink:href="#DejaVuSansMono-32"/>
      <use x="361.230469" xlink:href="#DejaVuSansMono-32"/>
      <use x="421.435547" xlink:href="#DejaVuSansMono-61"/>
      <use x="481.640625" xlink:href="#DejaVuSansMono-32"/>
      <use x="541.845703" xlink:href="#DejaVuSansMono-57"/>
      <use x="602.050781" xlink:href="#DejaVuSansMono-54"/>
      <use x="662.255859" xlink:href="#DejaVuSansMono-54"/>
      <use x="722.460938" xlink:href="#DejaVuSansMono-54"/>
      <use x="782.666016" xlink:href="#DejaVuSansMono-49"/>
      <use x="842.871094" xlink:href="#DejaVuSansMono-54"/>
      <use x="903.076172" xlink:href="#DejaVuSansMono-48"/>
      <use x="963.28125" xlink:href="#DejaVuSansMono-51"/>
      <use x="1023.486328" xlink:href="#DejaVuSansMono-53"/>
      <use x="1083.691406" xlink:href="#DejaVuSansMono-52"/>
      <use x="1143.896484" xlink:href="#DejaVuSansMono-54"/>
      <use x="1204.101562" xlink:href="#DejaVuSansMono-48"/>
     </g>
     <!-- x_max  = 965 -->
     <g transform="translate(355.499636 78.194812)scale(0.06 -0.06)">
      <use xlink:href="#DejaVuSansMono-120"/>
      <use x="60.205078" xlink:href="#DejaVuSansMono-95"/>
      <use x="120.410156" xlink:href="#DejaVuSansMono-109"/>
      <use x="180.615234" xlink:href="#DejaVuSansMono-97"/>
      <use x="240.820312" xlink:href="#DejaVuSansMono-120"/>
      <use x="301.025391" xlink:href="#DejaVuSansMono-32"/>
      <use x="361.230469" xlink:href="#DejaVuSansMono-32"/>
      <use x="421.435547" xlink:href="#DejaVuSansMono-61"/>
      <use x="481.640625" xlink:href="#DejaVuSansMono-32"/>
      <use x="541.845703" xlink:href="#DejaVuSansMono-57"/>
      <use x="602.050781" xlink:href="#DejaVuSansMono-54"/>
      <use x="662.255859" xlink:href="#DejaVuSansMono-53"/>
     </g>
    </g>
   </g>
  </g>
 </g>
 <defs>
  <clipPath id="p957bd20e2f">
   <rect height="298.453375" width="415.345574" x="35.85875" y="17.989125"/>
  </clipPath>
 </defs>
</svg>
