<?xml version="1.0" encoding="utf-8" standalone="no"?>
<!DOCTYPE svg PUBLIC "-//W3C//DTD SVG 1.1//EN"
  "http://www.w3.org/Graphics/SVG/1.1/DTD/svg11.dtd">
<!-- Created with matplotlib (https://matplotlib.org/) -->
<svg height="345.6pt" version="1.1" viewBox="0 0 460.8 345.6" width="460.8pt" xmlns="http://www.w3.org/2000/svg" xmlns:xlink="http://www.w3.org/1999/xlink">
 <metadata>
  <rdf:RDF xmlns:cc="http://creativecommons.org/ns#" xmlns:dc="http://purl.org/dc/elements/1.1/" xmlns:rdf="http://www.w3.org/1999/02/22-rdf-syntax-ns#">
   <cc:Work>
    <dc:type rdf:resource="http://purl.org/dc/dcmitype/StillImage"/>
    <dc:date>2022-03-17T11:49:41.323269</dc:date>
    <dc:format>image/svg+xml</dc:format>
    <dc:creator>
     <cc:Agent>
      <dc:title>Matplotlib v3.3.2, https://matplotlib.org/</dc:title>
     </cc:Agent>
    </dc:creator>
   </cc:Work>
  </rdf:RDF>
 </metadata>
 <defs>
  <style type="text/css">*{stroke-linecap:butt;stroke-linejoin:round;}</style>
 </defs>
 <g id="figure_1">
  <g id="patch_1">
   <path d="M 0 345.6 
L 460.8 345.6 
L 460.8 0 
L 0 0 
z
" style="fill:#ffffff;"/>
  </g>
  <g id="axes_1">
   <g id="patch_2">
    <path d="M 35.85875 316.4425 
L 451.204324 316.4425 
L 451.204324 17.989125 
L 35.85875 17.989125 
z
" style="fill:#ffffff;"/>
   </g>
   <g id="matplotlib.axis_1">
    <g id="xtick_1">
     <g id="line2d_1">
      <defs>
       <path d="M 0 0 
L 0 3.5 
" id="m0a7e80f175" style="stroke:#000000;stroke-width:0.8;"/>
      </defs>
      <g>
       <use style="stroke:#000000;stroke-width:0.8;" x="54.738094" xlink:href="#m0a7e80f175" y="316.4425"/>
      </g>
     </g>
     <g id="text_1">
      <!-- 0 -->
      <g transform="translate(52.932001 328.033437)scale(0.06 -0.06)">
       <defs>
        <path d="M 23.578125 36.625 
Q 23.578125 39.3125 25.453125 41.265625 
Q 27.34375 43.21875 29.984375 43.21875 
Q 32.71875 43.21875 34.671875 41.265625 
Q 36.625 39.3125 36.625 36.625 
Q 36.625 33.890625 34.6875 31.984375 
Q 32.765625 30.078125 29.984375 30.078125 
Q 27.25 30.078125 25.40625 31.9375 
Q 23.578125 33.796875 23.578125 36.625 
z
M 30.078125 66.40625 
Q 23.1875 66.40625 19.796875 58.984375 
Q 16.40625 51.5625 16.40625 36.375 
Q 16.40625 21.234375 19.796875 13.8125 
Q 23.1875 6.390625 30.078125 6.390625 
Q 37.015625 6.390625 40.40625 13.8125 
Q 43.796875 21.234375 43.796875 36.375 
Q 43.796875 51.5625 40.40625 58.984375 
Q 37.015625 66.40625 30.078125 66.40625 
z
M 30.078125 74.21875 
Q 41.75 74.21875 47.734375 64.640625 
Q 53.71875 55.078125 53.71875 36.375 
Q 53.71875 17.71875 47.734375 8.140625 
Q 41.75 -1.421875 30.078125 -1.421875 
Q 18.40625 -1.421875 12.453125 8.140625 
Q 6.5 17.71875 6.5 36.375 
Q 6.5 55.078125 12.453125 64.640625 
Q 18.40625 74.21875 30.078125 74.21875 
z
" id="DejaVuSansMono-48"/>
       </defs>
       <use xlink:href="#DejaVuSansMono-48"/>
      </g>
     </g>
    </g>
    <g id="xtick_2">
     <g id="line2d_2">
      <g>
       <use style="stroke:#000000;stroke-width:0.8;" x="133.075622" xlink:href="#m0a7e80f175" y="316.4425"/>
      </g>
     </g>
     <g id="text_2">
      <!-- 200 -->
      <g transform="translate(127.657341 328.033437)scale(0.06 -0.06)">
       <defs>
        <path d="M 18.21875 8.296875 
L 51.703125 8.296875 
L 51.703125 0 
L 7.421875 0 
L 7.421875 8.296875 
Q 16.546875 17.921875 23.375 25.296875 
Q 30.21875 32.671875 32.8125 35.6875 
Q 37.703125 41.65625 39.40625 45.34375 
Q 41.109375 49.03125 41.109375 52.875 
Q 41.109375 58.984375 37.515625 62.453125 
Q 33.9375 65.921875 27.6875 65.921875 
Q 23.25 65.921875 18.359375 64.3125 
Q 13.484375 62.703125 8.015625 59.421875 
L 8.015625 69.390625 
Q 13.03125 71.78125 17.890625 73 
Q 22.75 74.21875 27.484375 74.21875 
Q 38.1875 74.21875 44.703125 68.53125 
Q 51.21875 62.84375 51.21875 53.609375 
Q 51.21875 48.921875 49.046875 44.234375 
Q 46.875 39.546875 42 33.890625 
Q 39.265625 30.71875 34.0625 25.09375 
Q 28.859375 19.484375 18.21875 8.296875 
z
" id="DejaVuSansMono-50"/>
       </defs>
       <use xlink:href="#DejaVuSansMono-50"/>
       <use x="60.205078" xlink:href="#DejaVuSansMono-48"/>
       <use x="120.410156" xlink:href="#DejaVuSansMono-48"/>
      </g>
     </g>
    </g>
    <g id="xtick_3">
     <g id="line2d_3">
      <g>
       <use style="stroke:#000000;stroke-width:0.8;" x="211.41315" xlink:href="#m0a7e80f175" y="316.4425"/>
      </g>
     </g>
     <g id="text_3">
      <!-- 400 -->
      <g transform="translate(205.994869 328.033437)scale(0.06 -0.06)">
       <defs>
        <path d="M 35.890625 63.921875 
L 12.890625 25.390625 
L 35.890625 25.390625 
z
M 34.28125 72.90625 
L 45.703125 72.90625 
L 45.703125 25.390625 
L 55.421875 25.390625 
L 55.421875 17.390625 
L 45.703125 17.390625 
L 45.703125 0 
L 35.890625 0 
L 35.890625 17.390625 
L 4.984375 17.390625 
L 4.984375 26.703125 
z
" id="DejaVuSansMono-52"/>
       </defs>
       <use xlink:href="#DejaVuSansMono-52"/>
       <use x="60.205078" xlink:href="#DejaVuSansMono-48"/>
       <use x="120.410156" xlink:href="#DejaVuSansMono-48"/>
      </g>
     </g>
    </g>
    <g id="xtick_4">
     <g id="line2d_4">
      <g>
       <use style="stroke:#000000;stroke-width:0.8;" x="289.750678" xlink:href="#m0a7e80f175" y="316.4425"/>
      </g>
     </g>
     <g id="text_4">
      <!-- 600 -->
      <g transform="translate(284.332397 328.033437)scale(0.06 -0.06)">
       <defs>
        <path d="M 48.390625 71.296875 
L 48.390625 62.203125 
Q 45.3125 64.015625 41.84375 64.96875 
Q 38.375 65.921875 34.625 65.921875 
Q 25.25 65.921875 20.40625 58.859375 
Q 15.578125 51.8125 15.578125 38.09375 
Q 17.921875 42.96875 22.0625 45.578125 
Q 26.21875 48.1875 31.59375 48.1875 
Q 42.140625 48.1875 47.921875 41.71875 
Q 53.71875 35.25 53.71875 23.390625 
Q 53.71875 11.578125 47.75 5.078125 
Q 41.796875 -1.421875 31 -1.421875 
Q 18.3125 -1.421875 12.40625 7.6875 
Q 6.5 16.796875 6.5 36.375 
Q 6.5 54.828125 13.59375 64.515625 
Q 20.703125 74.21875 34.1875 74.21875 
Q 37.796875 74.21875 41.40625 73.453125 
Q 45.015625 72.703125 48.390625 71.296875 
z
M 30.8125 40.484375 
Q 24.515625 40.484375 20.890625 35.9375 
Q 17.28125 31.390625 17.28125 23.390625 
Q 17.28125 15.375 20.890625 10.828125 
Q 24.515625 6.296875 30.8125 6.296875 
Q 37.359375 6.296875 40.671875 10.609375 
Q 44 14.9375 44 23.390625 
Q 44 31.890625 40.671875 36.1875 
Q 37.359375 40.484375 30.8125 40.484375 
z
" id="DejaVuSansMono-54"/>
       </defs>
       <use xlink:href="#DejaVuSansMono-54"/>
       <use x="60.205078" xlink:href="#DejaVuSansMono-48"/>
       <use x="120.410156" xlink:href="#DejaVuSansMono-48"/>
      </g>
     </g>
    </g>
    <g id="xtick_5">
     <g id="line2d_5">
      <g>
       <use style="stroke:#000000;stroke-width:0.8;" x="368.088206" xlink:href="#m0a7e80f175" y="316.4425"/>
      </g>
     </g>
     <g id="text_5">
      <!-- 800 -->
      <g transform="translate(362.669925 328.033437)scale(0.06 -0.06)">
       <defs>
        <path d="M 30.078125 34.625 
Q 23.484375 34.625 19.890625 30.9375 
Q 16.3125 27.25 16.3125 20.515625 
Q 16.3125 13.765625 19.9375 10.03125 
Q 23.578125 6.296875 30.078125 6.296875 
Q 36.71875 6.296875 40.296875 9.984375 
Q 43.890625 13.671875 43.890625 20.515625 
Q 43.890625 27.203125 40.25 30.90625 
Q 36.625 34.625 30.078125 34.625 
z
M 21.484375 38.71875 
Q 15.1875 40.328125 11.640625 44.71875 
Q 8.109375 49.125 8.109375 55.328125 
Q 8.109375 64.015625 14.015625 69.109375 
Q 19.921875 74.21875 30.078125 74.21875 
Q 40.28125 74.21875 46.1875 69.109375 
Q 52.09375 64.015625 52.09375 55.328125 
Q 52.09375 49.125 48.546875 44.71875 
Q 45.015625 40.328125 38.71875 38.71875 
Q 46.046875 37.109375 49.921875 32.21875 
Q 53.8125 27.34375 53.8125 19.578125 
Q 53.8125 9.71875 47.515625 4.140625 
Q 41.21875 -1.421875 30.078125 -1.421875 
Q 18.953125 -1.421875 12.671875 4.125 
Q 6.390625 9.671875 6.390625 19.484375 
Q 6.390625 27.296875 10.265625 32.203125 
Q 14.15625 37.109375 21.484375 38.71875 
z
M 17.921875 54.390625 
Q 17.921875 48.53125 21.046875 45.453125 
Q 24.171875 42.390625 30.078125 42.390625 
Q 36.03125 42.390625 39.15625 45.453125 
Q 42.28125 48.53125 42.28125 54.390625 
Q 42.28125 60.359375 39.171875 63.484375 
Q 36.078125 66.609375 30.078125 66.609375 
Q 24.171875 66.609375 21.046875 63.453125 
Q 17.921875 60.296875 17.921875 54.390625 
z
" id="DejaVuSansMono-56"/>
       </defs>
       <use xlink:href="#DejaVuSansMono-56"/>
       <use x="60.205078" xlink:href="#DejaVuSansMono-48"/>
       <use x="120.410156" xlink:href="#DejaVuSansMono-48"/>
      </g>
     </g>
    </g>
    <g id="xtick_6">
     <g id="line2d_6">
      <g>
       <use style="stroke:#000000;stroke-width:0.8;" x="446.425734" xlink:href="#m0a7e80f175" y="316.4425"/>
      </g>
     </g>
     <g id="text_6">
      <!-- 1000 -->
      <g transform="translate(439.201359 328.033437)scale(0.06 -0.06)">
       <defs>
        <path d="M 13.1875 8.296875 
L 28.515625 8.296875 
L 28.515625 64.015625 
L 12.015625 60.296875 
L 12.015625 69.28125 
L 28.421875 72.90625 
L 38.28125 72.90625 
L 38.28125 8.296875 
L 53.421875 8.296875 
L 53.421875 0 
L 13.1875 0 
z
" id="DejaVuSansMono-49"/>
       </defs>
       <use xlink:href="#DejaVuSansMono-49"/>
       <use x="60.205078" xlink:href="#DejaVuSansMono-48"/>
       <use x="120.410156" xlink:href="#DejaVuSansMono-48"/>
       <use x="180.615234" xlink:href="#DejaVuSansMono-48"/>
      </g>
     </g>
    </g>
    <g id="text_7">
     <!-- n -->
     <g transform="translate(241.725443 337.872187)scale(0.06 -0.06)">
      <defs>
       <path d="M 51.3125 33.890625 
L 51.3125 0 
L 42.28125 0 
L 42.28125 33.890625 
Q 42.28125 41.265625 39.6875 44.71875 
Q 37.109375 48.1875 31.59375 48.1875 
Q 25.296875 48.1875 21.890625 43.71875 
Q 18.5 39.265625 18.5 30.90625 
L 18.5 0 
L 9.515625 0 
L 9.515625 54.6875 
L 18.5 54.6875 
L 18.5 46.484375 
Q 20.90625 51.171875 25 53.578125 
Q 29.109375 56 34.71875 56 
Q 43.0625 56 47.1875 50.5 
Q 51.3125 45.015625 51.3125 33.890625 
z
" id="DejaVuSansMono-110"/>
      </defs>
      <use xlink:href="#DejaVuSansMono-110"/>
     </g>
    </g>
   </g>
   <g id="matplotlib.axis_2">
    <g id="ytick_1">
     <g id="line2d_7">
      <defs>
       <path d="M 0 0 
L -3.5 0 
" id="m622ae885d9" style="stroke:#000000;stroke-width:0.8;"/>
      </defs>
      <g>
       <use style="stroke:#000000;stroke-width:0.8;" x="35.85875" xlink:href="#m622ae885d9" y="272.979639"/>
      </g>
     </g>
     <g id="text_8">
      <!-- $\mathdefault{10^{2}}$ -->
      <g transform="translate(18.83875 275.275108)scale(0.06 -0.06)">
       <use transform="translate(0 0.765625)" xlink:href="#DejaVuSansMono-49"/>
       <use transform="translate(60.205078 0.765625)" xlink:href="#DejaVuSansMono-48"/>
       <use transform="translate(121.367188 39.046875)scale(0.7)" xlink:href="#DejaVuSansMono-50"/>
      </g>
     </g>
    </g>
    <g id="ytick_2">
     <g id="line2d_8">
      <g>
       <use style="stroke:#000000;stroke-width:0.8;" x="35.85875" xlink:href="#m622ae885d9" y="228.134441"/>
      </g>
     </g>
     <g id="text_9">
      <!-- $\mathdefault{10^{5}}$ -->
      <g transform="translate(18.83875 230.42991)scale(0.06 -0.06)">
       <defs>
        <path d="M 10.109375 72.90625 
L 47.015625 72.90625 
L 47.015625 64.59375 
L 19.09375 64.59375 
L 19.09375 46.6875 
Q 21.1875 47.46875 23.3125 47.828125 
Q 25.4375 48.1875 27.59375 48.1875 
Q 38.921875 48.1875 45.5625 41.5 
Q 52.203125 34.8125 52.203125 23.390625 
Q 52.203125 11.859375 45.234375 5.21875 
Q 38.28125 -1.421875 26.21875 -1.421875 
Q 20.40625 -1.421875 15.59375 -0.640625 
Q 10.796875 0.140625 6.984375 1.703125 
L 6.984375 11.71875 
Q 11.46875 9.28125 16.015625 8.078125 
Q 20.5625 6.890625 25.296875 6.890625 
Q 33.453125 6.890625 37.859375 11.1875 
Q 42.28125 15.484375 42.28125 23.390625 
Q 42.28125 31.203125 37.71875 35.546875 
Q 33.15625 39.890625 25 39.890625 
Q 21.046875 39.890625 17.28125 38.984375 
Q 13.53125 38.09375 10.109375 36.28125 
z
" id="DejaVuSansMono-53"/>
       </defs>
       <use transform="translate(0 0.684375)" xlink:href="#DejaVuSansMono-49"/>
       <use transform="translate(60.205078 0.684375)" xlink:href="#DejaVuSansMono-48"/>
       <use transform="translate(121.367188 38.965625)scale(0.7)" xlink:href="#DejaVuSansMono-53"/>
      </g>
     </g>
    </g>
    <g id="ytick_3">
     <g id="line2d_9">
      <g>
       <use style="stroke:#000000;stroke-width:0.8;" x="35.85875" xlink:href="#m622ae885d9" y="183.289243"/>
      </g>
     </g>
     <g id="text_10">
      <!-- $\mathdefault{10^{8}}$ -->
      <g transform="translate(18.83875 185.584712)scale(0.06 -0.06)">
       <use transform="translate(0 0.765625)" xlink:href="#DejaVuSansMono-49"/>
       <use transform="translate(60.205078 0.765625)" xlink:href="#DejaVuSansMono-48"/>
       <use transform="translate(121.367188 39.046875)scale(0.7)" xlink:href="#DejaVuSansMono-56"/>
      </g>
     </g>
    </g>
    <g id="ytick_4">
     <g id="line2d_10">
      <g>
       <use style="stroke:#000000;stroke-width:0.8;" x="35.85875" xlink:href="#m622ae885d9" y="138.444046"/>
      </g>
     </g>
     <g id="text_11">
      <!-- $\mathdefault{10^{11}}$ -->
      <g transform="translate(16.31875 140.739514)scale(0.06 -0.06)">
       <use transform="translate(0 0.684375)" xlink:href="#DejaVuSansMono-49"/>
       <use transform="translate(60.205078 0.684375)" xlink:href="#DejaVuSansMono-48"/>
       <use transform="translate(121.367188 38.965625)scale(0.7)" xlink:href="#DejaVuSansMono-49"/>
       <use transform="translate(163.510742 38.965625)scale(0.7)" xlink:href="#DejaVuSansMono-49"/>
      </g>
     </g>
    </g>
    <g id="ytick_5">
     <g id="line2d_11">
      <g>
       <use style="stroke:#000000;stroke-width:0.8;" x="35.85875" xlink:href="#m622ae885d9" y="93.598848"/>
      </g>
     </g>
     <g id="text_12">
      <!-- $\mathdefault{10^{14}}$ -->
      <g transform="translate(16.31875 95.894317)scale(0.06 -0.06)">
       <use transform="translate(0 0.684375)" xlink:href="#DejaVuSansMono-49"/>
       <use transform="translate(60.205078 0.684375)" xlink:href="#DejaVuSansMono-48"/>
       <use transform="translate(121.367188 38.965625)scale(0.7)" xlink:href="#DejaVuSansMono-49"/>
       <use transform="translate(163.510742 38.965625)scale(0.7)" xlink:href="#DejaVuSansMono-52"/>
      </g>
     </g>
    </g>
    <g id="ytick_6">
     <g id="line2d_12">
      <g>
       <use style="stroke:#000000;stroke-width:0.8;" x="35.85875" xlink:href="#m622ae885d9" y="48.75365"/>
      </g>
     </g>
     <g id="text_13">
      <!-- $\mathdefault{10^{17}}$ -->
      <g transform="translate(16.31875 51.049119)scale(0.06 -0.06)">
       <defs>
        <path d="M 6.78125 72.90625 
L 52.6875 72.90625 
L 52.6875 68.703125 
L 26.609375 0 
L 16.3125 0 
L 41.703125 64.59375 
L 6.78125 64.59375 
z
" id="DejaVuSansMono-55"/>
       </defs>
       <use transform="translate(0 0.684375)" xlink:href="#DejaVuSansMono-49"/>
       <use transform="translate(60.205078 0.684375)" xlink:href="#DejaVuSansMono-48"/>
       <use transform="translate(121.367188 38.965625)scale(0.7)" xlink:href="#DejaVuSansMono-49"/>
       <use transform="translate(163.510742 38.965625)scale(0.7)" xlink:href="#DejaVuSansMono-55"/>
      </g>
     </g>
    </g>
    <g id="text_14">
     <!-- y_n -->
     <g transform="translate(10.904063 172.634094)rotate(-90)scale(0.06 -0.06)">
      <defs>
       <path d="M 41.890625 17.578125 
Q 39.65625 11.859375 36.1875 2.546875 
Q 31.34375 -10.359375 29.6875 -13.1875 
Q 27.4375 -17 24.0625 -18.890625 
Q 20.703125 -20.796875 16.21875 -20.796875 
L 8.984375 -20.796875 
L 8.984375 -13.28125 
L 14.3125 -13.28125 
Q 18.265625 -13.28125 20.5 -10.984375 
Q 22.75 -8.6875 26.21875 0.875 
L 5.078125 54.6875 
L 14.59375 54.6875 
L 30.8125 11.921875 
L 46.78125 54.6875 
L 56.296875 54.6875 
z
" id="DejaVuSansMono-121"/>
       <path d="M 60.203125 -19.671875 
L 60.203125 -23.578125 
L 0 -23.578125 
L 0 -19.671875 
z
" id="DejaVuSansMono-95"/>
      </defs>
      <use xlink:href="#DejaVuSansMono-121"/>
      <use x="60.205078" xlink:href="#DejaVuSansMono-95"/>
      <use x="120.410156" xlink:href="#DejaVuSansMono-110"/>
     </g>
    </g>
   </g>
   <g id="line2d_13">
    <path clip-path="url(#p85db45f527)" d="M 54.738094 175.742021 
L 55.129782 168.609822 
L 55.52147 173.109738 
L 55.913157 165.977539 
L 56.304845 170.477456 
L 56.696532 163.345257 
L 57.08822 167.845173 
L 57.479908 160.712974 
L 57.871595 165.212891 
L 58.263283 158.080692 
L 59.046658 167.080525 
L 59.438346 159.948326 
L 59.830034 164.448242 
L 60.221721 157.316043 
L 61.005096 166.315877 
L 61.396784 159.183678 
L 61.788472 163.683594 
L 62.180159 156.551395 
L 62.571847 161.051312 
L 62.963535 153.919113 
L 63.355222 158.419029 
L 63.74691 151.28683 
L 64.138598 155.786747 
L 64.530285 148.654548 
L 64.921973 153.154464 
L 65.313661 146.022265 
L 65.705348 150.522182 
L 66.097036 143.389983 
L 66.488723 147.889899 
L 66.880411 140.7577 
L 67.663786 149.757534 
L 68.055474 142.625335 
L 68.838849 151.625168 
L 69.230537 144.492969 
L 70.013912 153.492802 
L 70.4056 146.360603 
L 71.188975 155.360436 
L 71.580663 148.228237 
L 71.97235 152.728153 
L 72.364038 145.595954 
L 72.755726 150.095871 
L 73.147413 142.963672 
L 73.539101 147.463589 
L 73.930789 140.33139 
L 74.322476 144.831306 
L 74.714164 137.699107 
L 75.105852 142.199024 
L 75.497539 135.066825 
L 75.889227 139.566741 
L 76.280914 132.434542 
L 76.672602 136.934459 
L 77.06429 129.80226 
L 77.847665 138.802093 
L 78.239353 131.669894 
L 78.63104 136.16981 
L 79.022728 129.037611 
L 79.414416 133.537528 
L 79.806103 126.405329 
L 80.589479 135.405162 
L 80.981166 128.272963 
L 81.372854 132.77288 
L 81.764541 125.640681 
L 82.156229 130.140597 
L 82.547917 123.008398 
L 83.331292 132.008231 
L 83.72298 124.876032 
L 84.506355 133.875865 
L 84.898043 126.743666 
L 85.28973 131.243583 
L 85.681418 124.111384 
L 86.073105 128.611301 
L 86.464793 121.479102 
L 86.856481 125.979018 
L 87.248168 118.846819 
L 87.639856 123.346736 
L 88.031544 116.214537 
L 88.423231 120.714453 
L 88.814919 113.582254 
L 89.206607 118.082171 
L 89.598294 110.949972 
L 90.38167 119.949805 
L 90.773357 112.817606 
L 91.165045 117.317522 
L 91.556732 110.185323 
L 91.94842 114.68524 
L 92.340108 107.553041 
L 92.731795 112.052958 
L 93.123483 104.920759 
L 93.515171 109.420675 
L 93.906858 102.288476 
L 94.298546 106.788393 
L 94.690234 99.656194 
L 95.081921 104.15611 
L 95.473609 97.023911 
L 95.865296 101.523828 
L 96.256984 94.391629 
L 96.648672 98.891545 
L 97.040359 91.759346 
L 97.432047 96.259263 
L 97.823735 89.127064 
L 98.215422 93.62698 
L 98.60711 86.494781 
L 98.998798 90.994698 
L 99.390485 83.862499 
L 99.782173 88.362416 
L 100.173861 81.230217 
L 100.565548 85.730133 
L 100.957236 78.597934 
L 101.348923 83.097851 
L 101.740611 75.965652 
L 102.132299 80.465568 
L 102.523986 73.333369 
L 102.915674 77.833286 
L 103.307362 70.701087 
L 103.699049 75.201003 
L 104.090737 68.068804 
L 104.482425 72.568721 
L 104.874112 65.436522 
L 105.2658 69.936438 
L 105.657487 62.804239 
L 106.049175 67.304156 
L 106.440863 60.171957 
L 107.224238 69.17179 
L 107.615926 62.039591 
L 108.007613 66.539508 
L 108.399301 59.407309 
L 108.790989 63.907225 
L 109.182676 56.775026 
L 109.574364 61.274943 
L 109.966052 54.142744 
L 110.749427 63.142577 
L 111.141114 56.010378 
L 111.532802 60.510294 
L 111.92449 53.378095 
L 112.316177 57.878012 
L 112.707865 50.745813 
L 113.49124 59.745646 
L 113.882928 52.613447 
L 114.274616 57.113364 
L 114.666303 49.981165 
L 115.057991 54.481081 
L 115.449678 47.348882 
L 115.841366 51.848799 
L 116.233054 44.7166 
L 116.624741 49.216516 
L 117.016429 42.084317 
L 117.408117 46.584234 
L 117.799804 39.452035 
L 118.191492 43.951951 
L 118.58318 36.819752 
L 118.974867 41.319669 
L 119.366555 34.18747 
L 119.758243 38.687387 
L 120.14993 31.555187 
L 121.716681 49.554854 
L 122.108368 42.422655 
L 124.066807 64.922238 
L 124.458494 57.790039 
L 124.850182 62.289955 
L 125.241869 55.157756 
L 125.633557 59.657673 
L 126.025245 52.525474 
L 126.416932 57.02539 
L 126.80862 49.893191 
L 127.591995 58.893024 
L 127.983683 51.760825 
L 129.158746 65.260575 
L 129.550434 58.128376 
L 131.508872 80.627959 
L 131.900559 73.49576 
L 133.075622 86.99551 
L 133.46731 79.863311 
L 133.858998 84.363227 
L 134.250685 77.231028 
L 135.03406 86.230861 
L 135.425748 79.098662 
L 135.817436 83.598579 
L 136.209123 76.46638 
L 136.992499 85.466213 
L 137.384186 78.334014 
L 137.775874 82.83393 
L 138.167562 75.701731 
L 138.950937 84.701565 
L 139.342625 77.569366 
L 139.734312 82.069282 
L 140.126 74.937083 
L 142.084438 97.436666 
L 142.476126 90.304467 
L 142.867813 94.804383 
L 143.259501 87.672184 
L 143.651189 92.172101 
L 144.042876 85.039902 
L 144.434564 89.539819 
L 144.826251 82.40762 
L 145.217939 86.907536 
L 145.609627 79.775337 
L 146.001314 84.275254 
L 146.393002 77.143055 
L 146.78469 81.642971 
L 147.176377 74.510772 
L 147.959753 83.510605 
L 148.35144 76.378406 
L 148.743128 80.878323 
L 149.134816 73.746124 
L 149.526503 78.24604 
L 149.918191 71.113841 
L 150.309878 75.613758 
L 150.701566 68.481559 
L 152.268317 86.481225 
L 152.660004 79.349026 
L 153.44338 88.348859 
L 153.835067 81.21666 
L 154.226755 85.716577 
L 154.618442 78.584378 
L 155.01013 83.084294 
L 155.401818 75.952095 
L 155.793505 80.452012 
L 156.185193 73.319813 
L 156.968568 82.319646 
L 157.360256 75.187447 
L 157.751944 79.687364 
L 158.143631 72.555165 
L 158.535319 77.055081 
L 158.927007 69.922882 
L 159.318694 74.422799 
L 159.710382 67.2906 
L 160.102069 71.790516 
L 160.493757 64.658317 
L 160.885445 69.158234 
L 161.277132 62.026035 
L 161.66882 66.525951 
L 162.060508 59.393752 
L 162.452195 63.893669 
L 162.843883 56.76147 
L 163.627258 65.761303 
L 164.018946 58.629104 
L 164.802321 67.628937 
L 165.194009 60.496738 
L 165.585696 64.996655 
L 165.977384 57.864456 
L 167.544135 75.864122 
L 167.935822 68.731923 
L 168.32751 73.23184 
L 168.719198 66.099641 
L 169.110885 70.599557 
L 169.502573 63.467358 
L 170.677636 76.967108 
L 171.069323 69.834909 
L 171.461011 74.334825 
L 171.852699 67.202626 
L 172.244386 71.702543 
L 172.636074 64.570344 
L 173.811137 78.070094 
L 174.202824 70.937895 
L 174.9862 79.937728 
L 175.377887 72.805529 
L 175.769575 77.305445 
L 176.161263 70.173246 
L 176.55295 74.673163 
L 176.944638 67.540964 
L 177.336326 72.04088 
L 177.728013 64.908681 
L 178.119701 69.408598 
L 178.511389 62.276399 
L 178.903076 66.776316 
L 179.294764 59.644117 
L 180.469827 73.143866 
L 180.861514 66.011667 
L 183.603328 97.511083 
L 183.995016 90.378884 
L 184.386703 94.878801 
L 184.778391 87.746602 
L 185.561766 96.746435 
L 185.953454 89.614236 
L 186.345141 94.114152 
L 186.736829 86.981953 
L 187.128517 91.48187 
L 187.520204 84.349671 
L 189.086955 102.349337 
L 189.478642 95.217138 
L 190.262018 104.216971 
L 190.653705 97.084772 
L 192.612144 119.584355 
L 193.003831 112.452156 
L 194.178894 125.951906 
L 194.570582 118.819707 
L 195.745645 132.319456 
L 196.137332 125.187257 
L 196.52902 129.687174 
L 196.920708 122.554975 
L 197.312395 127.054892 
L 197.704083 119.922693 
L 200.445896 151.422108 
L 200.837584 144.289909 
L 201.620959 153.289743 
L 202.012647 146.157544 
L 202.796022 155.157377 
L 203.18771 148.025178 
L 203.579398 152.525094 
L 203.971085 145.392895 
L 204.362773 149.892812 
L 204.75446 142.760613 
L 205.537836 151.760446 
L 205.929523 144.628247 
L 206.712899 153.62808 
L 207.104586 146.495881 
L 207.496274 150.995798 
L 207.887962 143.863599 
L 208.279649 148.363515 
L 208.671337 141.231316 
L 210.629775 163.730899 
L 211.021463 156.5987 
L 211.804838 165.598533 
L 212.196526 158.466334 
L 212.588213 162.966251 
L 212.979901 155.834052 
L 213.371589 160.333968 
L 213.763276 153.201769 
L 214.154964 157.701686 
L 214.546651 150.569487 
L 214.938339 155.069403 
L 215.330027 147.937204 
L 216.50509 161.436954 
L 216.896777 154.304755 
L 217.288465 158.804672 
L 217.680153 151.672473 
L 218.855215 165.172222 
L 219.246903 158.040023 
L 220.421966 171.539773 
L 220.813654 164.407574 
L 223.555467 195.90699 
L 223.947155 188.774791 
L 224.73053 197.774624 
L 225.122218 190.642425 
L 225.513905 195.142341 
L 225.905593 188.010142 
L 226.297281 192.510059 
L 226.688968 185.377859 
L 227.080656 189.877776 
L 227.472344 182.745577 
L 227.864031 187.245494 
L 228.255719 180.113294 
L 228.647406 184.613211 
L 229.039094 177.481012 
L 230.997532 199.980595 
L 231.38922 192.848396 
L 232.172595 201.848229 
L 232.564283 194.716029 
L 232.955971 199.215946 
L 233.347658 192.083747 
L 234.131033 201.08358 
L 234.522721 193.95138 
L 234.914409 198.451297 
L 235.306096 191.319098 
L 236.481159 204.818847 
L 236.872847 197.686648 
L 237.264535 202.186564 
L 237.656222 195.054365 
L 238.831285 208.554115 
L 239.222973 201.421915 
L 240.398036 214.921664 
L 240.789723 207.789462 
L 241.181411 212.289379 
L 241.573099 205.157178 
L 241.964786 209.657095 
L 242.356474 202.524894 
L 242.748162 207.024811 
L 243.139849 199.892611 
L 243.531537 204.392528 
L 243.923224 197.260328 
L 245.098287 210.760078 
L 245.489975 203.627877 
L 245.881663 208.127794 
L 246.27335 200.995594 
L 246.665038 205.49551 
L 247.056726 198.363311 
L 249.015164 220.862894 
L 249.406851 213.730687 
L 250.581914 227.230437 
L 250.973602 220.098219 
L 252.148665 233.597969 
L 252.540353 226.46572 
L 252.93204 230.965636 
L 253.323728 223.833404 
L 253.715415 228.33332 
L 254.107103 221.201099 
L 254.498791 225.701016 
L 254.890478 218.568802 
L 255.282166 223.068718 
L 255.673854 215.936509 
L 257.240604 233.936176 
L 257.632292 226.803924 
L 258.023979 231.30384 
L 258.415667 224.171606 
L 259.59073 237.671356 
L 259.982418 230.539063 
L 260.374105 235.038979 
L 260.765793 227.906718 
L 261.157481 232.406634 
L 261.549168 225.274393 
L 262.332544 234.274227 
L 262.724231 227.141972 
L 263.115919 231.641888 
L 263.507606 224.509652 
L 263.899294 229.009569 
L 264.290982 221.877345 
L 265.466045 235.377095 
L 265.857732 228.24483 
L 266.24942 232.744746 
L 266.641108 225.612503 
L 268.207858 243.612169 
L 268.599546 236.479736 
L 269.382921 245.479569 
L 269.774609 238.347057 
L 270.557984 247.34689 
L 270.949672 240.214274 
L 271.733047 249.214107 
L 272.124735 242.081351 
L 272.90811 251.081184 
L 273.299797 243.948244 
L 274.866548 261.94791 
L 275.258236 254.811756 
L 275.649923 259.311672 
L 276.041611 252.176838 
L 278.000049 274.676421 
L 278.391737 267.516179 
L 279.5668 281.015928 
L 279.958487 273.809534 
L 281.13355 287.309284 
L 281.525238 279.983279 
L 281.916926 284.483196 
L 282.308613 277.224934 
L 283.091988 286.224768 
L 283.483676 278.928205 
L 284.658739 292.427955 
L 285.050427 284.876771 
L 286.617177 302.876437 
L 286.617177 302.876437 
" style="fill:none;stroke:#1f77b4;stroke-linecap:square;stroke-width:0.666667;"/>
   </g>
   <g id="line2d_14">
    <path clip-path="url(#p85db45f527)" d="M 54.738094 176.876009 
L 55.129782 169.74381 
L 55.52147 174.243726 
L 55.913157 167.111527 
L 56.696532 176.111361 
L 57.08822 168.979161 
L 57.871595 177.978995 
L 58.263283 170.846796 
L 59.046658 179.846629 
L 59.438346 172.71443 
L 60.221721 181.714263 
L 60.613409 174.582064 
L 61.005096 179.08198 
L 61.396784 171.949781 
L 61.788472 176.449698 
L 62.180159 169.317499 
L 62.571847 173.817415 
L 62.963535 166.685216 
L 63.355222 171.185133 
L 63.74691 164.052934 
L 64.138598 168.552851 
L 64.530285 161.420652 
L 64.921973 165.920568 
L 65.313661 158.788369 
L 65.705348 163.288286 
L 66.097036 156.156087 
L 66.488723 160.656003 
L 66.880411 153.523804 
L 67.272099 158.023721 
L 67.663786 150.891522 
L 68.838849 164.391271 
L 69.230537 157.259072 
L 69.622225 161.758989 
L 70.013912 154.62679 
L 70.4056 159.126707 
L 70.797288 151.994508 
L 71.188975 156.494424 
L 71.580663 149.362225 
L 71.97235 153.862142 
L 72.364038 146.729943 
L 72.755726 151.229859 
L 73.147413 144.09766 
L 73.930789 153.097493 
L 74.322476 145.965294 
L 74.714164 150.465211 
L 75.105852 143.333012 
L 75.497539 147.832928 
L 75.889227 140.700729 
L 76.280914 145.200646 
L 76.672602 138.068447 
L 77.06429 142.568364 
L 77.455977 135.436165 
L 77.847665 139.936081 
L 78.239353 132.803882 
L 78.63104 137.303799 
L 79.022728 130.1716 
L 79.414416 134.671516 
L 79.806103 127.539317 
L 81.764541 150.0389 
L 82.156229 142.906701 
L 82.547917 147.406618 
L 82.939604 140.274419 
L 83.331292 144.774335 
L 83.72298 137.642136 
L 84.114667 142.142053 
L 84.506355 135.009854 
L 84.898043 139.50977 
L 85.28973 132.377571 
L 85.681418 136.877488 
L 86.073105 129.745289 
L 86.856481 138.745122 
L 87.248168 131.612923 
L 87.639856 136.112839 
L 88.031544 128.98064 
L 88.423231 133.480557 
L 88.814919 126.348358 
L 89.206607 130.848275 
L 89.598294 123.716076 
L 90.38167 132.715909 
L 90.773357 125.58371 
L 91.556732 134.583543 
L 91.94842 127.451344 
L 92.731795 136.451177 
L 93.123483 129.318978 
L 93.515171 133.818894 
L 93.906858 126.686695 
L 95.081921 140.186445 
L 95.473609 133.054246 
L 95.865296 137.554163 
L 96.256984 130.421964 
L 96.648672 134.92188 
L 97.040359 127.789681 
L 98.60711 145.789348 
L 98.998798 138.657148 
L 99.782173 147.656982 
L 100.173861 140.524783 
L 100.565548 145.024699 
L 100.957236 137.8925 
L 101.740611 146.892333 
L 102.132299 139.760134 
L 102.523986 144.260051 
L 102.915674 137.127852 
L 103.307362 141.627768 
L 103.699049 134.495569 
L 104.090737 138.995486 
L 104.482425 131.863287 
L 105.2658 140.86312 
L 105.657487 133.730921 
L 106.440863 142.730754 
L 106.83255 135.598555 
L 107.224238 140.098472 
L 107.615926 132.966273 
L 108.399301 141.966106 
L 108.790989 134.833907 
L 109.182676 139.333823 
L 109.574364 132.201624 
L 109.966052 136.701541 
L 110.357739 129.569342 
L 111.141114 138.569175 
L 111.532802 131.436976 
L 111.92449 135.936893 
L 112.316177 128.804694 
L 113.099553 137.804527 
L 113.49124 130.672328 
L 114.666303 144.172077 
L 115.057991 137.039878 
L 115.841366 146.039712 
L 116.233054 138.907513 
L 116.624741 143.407429 
L 117.016429 136.27523 
L 117.799804 145.275063 
L 118.191492 138.142864 
L 118.58318 142.642781 
L 118.974867 135.510582 
L 119.366555 140.010498 
L 119.758243 132.878299 
L 120.541618 141.878132 
L 120.933305 134.745933 
L 121.324993 139.24585 
L 121.716681 132.113651 
L 122.500056 141.113484 
L 122.891744 133.981285 
L 124.066807 147.481035 
L 124.458494 140.348836 
L 126.025245 158.348502 
L 126.416932 151.216303 
L 127.200308 160.216136 
L 127.591995 153.083937 
L 127.983683 157.583854 
L 128.375371 150.451655 
L 128.767058 154.951571 
L 129.158746 147.819372 
L 129.942121 156.819205 
L 130.333809 149.687006 
L 130.725496 154.186923 
L 131.117184 147.054724 
L 131.508872 151.55464 
L 131.900559 144.422441 
L 132.292247 148.922358 
L 132.683935 141.790159 
L 133.46731 150.789992 
L 133.858998 143.657793 
L 134.642373 152.657626 
L 135.03406 145.525427 
L 135.425748 150.025344 
L 135.817436 142.893145 
L 136.209123 147.393061 
L 136.600811 140.260862 
L 136.992499 144.760779 
L 137.384186 137.62858 
L 138.167562 146.628413 
L 138.559249 139.496214 
L 139.342625 148.496047 
L 139.734312 141.363848 
L 140.126 145.863765 
L 140.517687 138.731566 
L 140.909375 143.231482 
L 141.301063 136.099283 
L 141.69275 140.5992 
L 142.084438 133.467001 
L 142.867813 142.466834 
L 143.259501 135.334635 
L 144.042876 144.334468 
L 144.434564 137.202269 
L 145.217939 146.202102 
L 145.609627 139.069903 
L 146.001314 143.56982 
L 146.393002 136.437621 
L 146.78469 140.937537 
L 147.176377 133.805338 
L 148.35144 147.305088 
L 148.743128 140.172889 
L 150.309878 158.172555 
L 150.701566 151.040356 
L 151.093254 155.540273 
L 151.484941 148.408074 
L 151.876629 152.90799 
L 152.268317 145.775791 
L 153.051692 154.775624 
L 153.44338 147.643425 
L 154.226755 156.643259 
L 154.618442 149.51106 
L 155.01013 154.010976 
L 155.401818 146.878777 
L 155.793505 151.378694 
L 156.185193 144.246495 
L 156.576881 148.746411 
L 156.968568 141.614212 
L 157.360256 146.114129 
L 157.751944 138.98193 
L 158.143631 143.481846 
L 158.535319 136.349647 
L 160.102069 154.349314 
L 160.493757 147.217115 
L 160.885445 151.717031 
L 161.277132 144.584832 
L 162.452195 158.084582 
L 162.843883 150.952383 
L 163.627258 159.952216 
L 164.018946 152.820017 
L 164.410633 157.319933 
L 164.802321 150.187734 
L 165.194009 154.687651 
L 165.585696 147.555452 
L 165.977384 152.055369 
L 166.369072 144.92317 
L 166.760759 149.423086 
L 167.152447 142.290887 
L 169.110885 164.79047 
L 169.502573 157.658271 
L 169.89426 162.158188 
L 170.285948 155.025989 
L 170.677636 159.525905 
L 171.069323 152.393706 
L 171.461011 156.893623 
L 171.852699 149.761424 
L 172.244386 154.26134 
L 172.636074 147.129141 
L 173.027762 151.629058 
L 173.419449 144.496859 
L 174.202824 153.496692 
L 174.594512 146.364493 
L 175.377887 155.364326 
L 175.769575 148.232127 
L 176.55295 157.23196 
L 176.944638 150.099761 
L 177.728013 159.099594 
L 178.119701 151.967395 
L 178.903076 160.967228 
L 179.294764 153.835029 
L 179.686451 158.334946 
L 180.078139 151.202747 
L 180.469827 155.702663 
L 180.861514 148.570464 
L 181.253202 153.070381 
L 181.64489 145.938182 
L 182.036577 150.438099 
L 182.428265 143.3059 
L 183.21164 152.305733 
L 183.603328 145.173534 
L 183.995016 149.67345 
L 184.386703 142.541251 
L 184.778391 147.041168 
L 185.170078 139.908969 
L 185.561766 144.408885 
L 185.953454 137.276686 
L 186.345141 141.776603 
L 186.736829 134.644404 
L 187.520204 143.644237 
L 187.911892 136.512038 
L 188.30358 141.011955 
L 188.695267 133.879756 
L 189.086955 138.379672 
L 189.478642 131.247473 
L 190.262018 140.247306 
L 190.653705 133.115107 
L 191.045393 137.615024 
L 191.437081 130.482825 
L 192.220456 139.482658 
L 192.612144 132.350459 
L 193.003831 136.850375 
L 193.395519 129.718176 
L 194.178894 138.71801 
L 194.570582 131.585811 
L 195.353957 140.585644 
L 195.745645 133.453445 
L 196.52902 142.453278 
L 196.920708 135.321079 
L 197.312395 139.820995 
L 197.704083 132.688796 
L 198.095771 137.188713 
L 198.487458 130.056514 
L 199.270833 139.056347 
L 199.662521 131.924148 
L 200.054209 136.424065 
L 200.445896 129.291866 
L 201.229272 138.291699 
L 201.620959 131.1595 
L 202.012647 135.659416 
L 202.404335 128.527217 
L 202.796022 133.027134 
L 203.18771 125.894935 
L 203.971085 134.894768 
L 204.362773 127.762569 
L 205.929523 145.762235 
L 206.321211 138.630036 
L 207.104586 147.629869 
L 207.496274 140.49767 
L 207.887962 144.997587 
L 208.279649 137.865388 
L 209.063024 146.865221 
L 209.454712 139.733022 
L 209.8464 144.232938 
L 210.238087 137.100739 
L 210.629775 141.600656 
L 211.021463 134.468457 
L 211.804838 143.46829 
L 212.196526 136.336091 
L 212.588213 140.836008 
L 212.979901 133.703809 
L 213.763276 142.703642 
L 214.154964 135.571443 
L 214.546651 140.071359 
L 214.938339 132.93916 
L 215.721714 141.938994 
L 216.113402 134.806794 
L 217.288465 148.306544 
L 217.680153 141.174345 
L 218.463528 150.174178 
L 218.855215 143.041979 
L 219.246903 147.541896 
L 219.638591 140.409697 
L 220.030278 144.909613 
L 220.421966 137.777414 
L 220.813654 142.277331 
L 221.205341 135.145132 
L 222.772092 153.144798 
L 223.16378 146.012599 
L 223.947155 155.012432 
L 224.338842 147.880233 
L 224.73053 152.38015 
L 225.122218 145.247951 
L 225.513905 149.747867 
L 225.905593 142.615668 
L 226.297281 147.115585 
L 226.688968 139.983386 
L 228.255719 157.983052 
L 228.647406 150.850853 
L 229.039094 155.35077 
L 229.430782 148.218571 
L 229.822469 152.718487 
L 230.214157 145.586288 
L 230.605845 150.086205 
L 230.997532 142.954006 
L 231.38922 147.453922 
L 231.780908 140.321723 
L 232.564283 149.321557 
L 232.955971 142.189358 
L 234.131033 155.689107 
L 234.522721 148.556908 
L 235.306096 157.556741 
L 235.697784 150.424542 
L 236.089472 154.924459 
L 236.481159 147.79226 
L 236.872847 152.292176 
L 237.264535 145.159977 
L 238.439597 158.659727 
L 238.831285 151.527528 
L 239.61466 160.527361 
L 240.006348 153.395162 
L 241.181411 166.894912 
L 241.573099 159.762713 
L 241.964786 164.26263 
L 242.356474 157.13043 
L 244.314912 179.630013 
L 244.7066 172.497814 
L 245.489975 181.497647 
L 245.881663 174.365448 
L 246.27335 178.865365 
L 246.665038 171.733166 
L 247.056726 176.233082 
L 247.448413 169.100883 
L 247.840101 173.6008 
L 248.231788 166.468601 
L 248.623476 170.968518 
L 249.015164 163.836319 
L 249.798539 172.836152 
L 250.190227 165.703953 
L 250.581914 170.203869 
L 250.973602 163.07167 
L 251.36529 167.571587 
L 251.756977 160.439388 
L 252.148665 164.939304 
L 252.540353 157.807105 
L 252.93204 162.307022 
L 253.323728 155.174823 
L 254.107103 164.174656 
L 254.498791 157.042457 
L 255.282166 166.04229 
L 255.673854 158.910091 
L 256.065541 163.410008 
L 256.457229 156.277809 
L 257.240604 165.277642 
L 257.632292 158.145443 
L 258.415667 167.145276 
L 258.807355 160.013077 
L 259.59073 169.01291 
L 259.982418 161.880711 
L 260.765793 170.880544 
L 261.157481 163.748345 
L 262.332544 177.248095 
L 262.724231 170.115896 
L 263.115919 174.615812 
L 263.507606 167.483613 
L 263.899294 171.98353 
L 264.290982 164.851331 
L 265.074357 173.851164 
L 265.466045 166.718965 
L 266.641108 180.218715 
L 267.032795 173.086516 
L 267.424483 177.586432 
L 267.81617 170.454233 
L 268.207858 174.95415 
L 268.599546 167.821951 
L 268.991233 172.321867 
L 269.382921 165.189668 
L 269.774609 169.689585 
L 270.166296 162.557386 
L 270.949672 171.557219 
L 271.341359 164.42502 
L 272.90811 182.424686 
L 273.299797 175.292487 
L 273.691485 179.792404 
L 274.083173 172.660205 
L 274.47486 177.160121 
L 274.866548 170.027922 
L 275.649923 179.027755 
L 276.041611 171.895556 
L 276.433299 176.395473 
L 276.824986 169.263274 
L 277.216674 173.763191 
L 277.608361 166.630992 
L 278.000049 171.130908 
L 278.391737 163.998709 
L 279.175112 172.998542 
L 279.5668 165.866343 
L 279.958487 170.36626 
L 280.350175 163.234061 
L 280.741863 167.733977 
L 281.13355 160.601778 
L 281.916926 169.601611 
L 282.308613 162.469412 
L 283.875364 180.469079 
L 284.267051 173.33688 
L 284.658739 177.836796 
L 285.050427 170.704597 
L 285.442114 175.204514 
L 285.833802 168.072315 
L 286.22549 172.572231 
L 286.617177 165.440032 
L 287.008865 169.939949 
L 287.400552 162.80775 
L 288.183928 171.807583 
L 288.575615 164.675384 
L 288.967303 169.175301 
L 289.358991 162.043101 
L 289.750678 166.543018 
L 290.142366 159.410819 
L 290.925741 168.410652 
L 291.317429 161.278453 
L 291.709117 165.77837 
L 292.100804 158.646171 
L 293.275867 172.14592 
L 293.667555 165.013721 
L 294.45093 174.013555 
L 294.842618 166.881355 
L 296.409368 184.881022 
L 296.801056 177.748823 
L 297.192744 182.248739 
L 297.584431 175.11654 
L 298.367806 184.116373 
L 298.759494 176.984174 
L 299.151182 181.484091 
L 299.542869 174.351892 
L 300.717932 187.851642 
L 301.10962 180.719443 
L 301.892995 189.719276 
L 302.284683 182.587077 
L 303.068058 191.58691 
L 303.459746 184.454711 
L 304.634809 197.95446 
L 305.026496 190.822261 
L 305.418184 195.322178 
L 305.809872 188.189979 
L 306.201559 192.689895 
L 306.593247 185.557696 
L 306.984935 190.057613 
L 307.376622 182.925413 
L 307.76831 187.42533 
L 308.159997 180.293131 
L 308.943373 189.292964 
L 309.33506 182.160765 
L 310.118436 191.160598 
L 310.510123 184.028399 
L 310.901811 188.528316 
L 311.293499 181.396117 
L 311.685186 185.896033 
L 312.076874 178.763834 
L 312.468561 183.263751 
L 312.860249 176.131552 
L 313.251937 180.631468 
L 313.643624 173.499269 
L 314.427 182.499102 
L 314.818687 175.366903 
L 315.602063 184.366736 
L 315.99375 177.234537 
L 316.385438 181.734454 
L 316.777126 174.602255 
L 317.168813 179.102171 
L 317.560501 171.969972 
L 317.952188 176.469889 
L 318.343876 169.33769 
L 318.735564 173.837607 
L 319.127251 166.705408 
L 319.910627 175.705241 
L 320.302314 168.573042 
L 320.694002 173.072958 
L 321.08569 165.940759 
L 321.477377 170.440676 
L 321.869065 163.308477 
L 322.65244 172.30831 
L 323.044128 165.176111 
L 323.435815 169.676027 
L 323.827503 162.543828 
L 325.002566 176.043578 
L 325.394254 168.911379 
L 325.785941 173.411296 
L 326.177629 166.279097 
L 330.877881 220.278095 
L 331.269568 213.14589 
L 332.052943 222.145723 
L 332.444631 215.013515 
L 332.836319 219.513432 
L 333.228006 212.381227 
L 333.619694 216.881144 
L 334.011382 209.748941 
L 334.403069 214.248858 
L 334.794757 207.116656 
L 335.186445 211.616573 
L 335.578132 204.484372 
L 336.361508 213.484205 
L 336.753195 206.352004 
L 337.144883 210.85192 
L 337.53657 203.71972 
L 337.928258 208.219636 
L 338.319946 201.087436 
L 339.103321 210.087269 
L 339.495009 202.955069 
L 339.886696 207.454986 
L 340.278384 200.322786 
L 340.670072 204.822702 
L 341.061759 197.690503 
L 341.845134 206.690336 
L 342.236822 199.558136 
L 342.62851 204.058053 
L 343.020197 196.925853 
L 343.411885 201.42577 
L 343.803573 194.29357 
L 345.370323 212.293237 
L 345.762011 205.161036 
L 347.328761 223.160702 
L 347.720449 216.028493 
L 348.112137 220.528409 
L 348.503824 213.396204 
L 348.895512 217.89612 
L 349.2872 210.763917 
L 350.070575 219.76375 
L 350.462263 212.631545 
L 350.85395 217.131461 
L 351.245638 209.999258 
L 351.637325 214.499175 
L 352.029013 207.366973 
L 352.420701 211.86689 
L 352.812388 204.734689 
L 353.595764 213.734522 
L 353.987451 206.602321 
L 354.770827 215.602154 
L 355.162514 208.469952 
L 355.554202 212.969868 
L 355.94589 205.837667 
L 356.337577 210.337584 
L 356.729265 203.205384 
L 358.296015 221.20505 
L 358.687703 214.072843 
L 361.429516 245.572259 
L 361.821204 238.439743 
L 362.212892 242.939659 
L 362.604579 235.807249 
L 362.996267 240.307165 
L 363.387955 233.174825 
L 363.779642 237.674742 
L 364.17133 230.542449 
L 364.563018 235.042365 
L 364.954705 227.910103 
L 365.738081 236.909937 
L 366.129768 229.777654 
L 366.521456 234.27757 
L 366.913143 227.145316 
L 367.304831 231.645232 
L 367.696519 224.512996 
L 369.654957 247.012579 
L 370.046645 239.879983 
L 370.438332 244.3799 
L 370.83002 237.247437 
L 372.005083 250.747186 
L 372.39677 243.614283 
L 372.788458 248.114199 
L 373.180146 240.981531 
L 373.571833 245.481447 
L 373.963521 238.348935 
L 374.355209 242.848852 
L 374.746896 235.716444 
L 375.138584 240.216361 
L 375.530272 233.084022 
L 375.921959 237.583939 
L 376.313647 230.451647 
L 376.705334 234.951564 
L 377.097022 227.819303 
L 377.48871 232.319219 
L 377.880397 225.186979 
L 378.272085 229.686896 
L 378.663773 222.554669 
L 379.05546 227.054586 
L 379.447148 219.922368 
L 380.230523 228.922202 
L 380.622211 221.789978 
L 381.797274 235.289728 
L 382.188961 228.157464 
L 382.580649 232.65738 
L 382.972337 225.525138 
L 383.364024 230.025054 
L 383.755712 222.892826 
L 384.1474 227.392743 
L 384.539087 220.260525 
L 384.930775 224.760441 
L 385.322463 217.628229 
L 385.71415 222.128146 
L 386.105838 214.995938 
L 386.889213 223.995771 
L 387.280901 216.863561 
L 387.672588 221.363478 
L 388.064276 214.231271 
L 388.455964 218.731187 
L 388.847651 211.598983 
L 390.022714 225.098733 
L 390.414402 217.966521 
L 391.197777 226.966354 
L 391.589465 219.834137 
L 392.37284 228.83397 
L 392.764528 221.701747 
L 393.547903 230.70158 
L 393.939591 223.569349 
L 394.331278 228.069265 
L 394.722966 220.937045 
L 395.506341 229.936878 
L 395.898029 222.80465 
L 397.073092 236.3044 
L 397.464779 229.172125 
L 398.248155 238.171958 
L 398.639842 231.039657 
L 399.03153 235.539574 
L 399.423218 228.407307 
L 400.206593 237.40714 
L 400.59828 230.274851 
L 400.989968 234.774768 
L 401.381656 227.642508 
L 403.340094 250.142091 
L 403.731782 243.00925 
L 404.123469 247.509167 
L 404.515157 240.37654 
L 405.298532 249.376373 
L 405.69022 242.243604 
L 406.473595 251.243437 
L 406.865283 244.110477 
L 408.040346 257.610227 
L 408.432033 250.476 
L 408.823721 254.975916 
L 409.215409 247.842366 
L 409.998784 256.842199 
L 410.390472 249.708198 
L 411.173847 258.708032 
L 411.565534 251.573431 
L 413.132285 269.573098 
L 413.523973 262.428106 
L 414.307348 271.42794 
L 414.699036 264.278723 
L 415.090723 268.77864 
L 415.482411 261.635121 
L 415.874098 266.135038 
L 416.265786 258.995303 
L 416.657474 263.495219 
L 417.049161 256.358001 
L 417.440849 260.857918 
L 417.832537 253.722375 
L 418.224224 258.222292 
L 418.615912 251.087865 
L 419.0076 255.587781 
L 419.399287 248.454097 
L 420.182663 257.45393 
L 420.57435 250.319752 
L 422.141101 268.319418 
L 422.532788 261.176671 
L 423.707851 274.676421 
L 424.099539 267.516179 
L 425.274602 281.015928 
L 425.666289 273.809534 
L 426.841352 287.309284 
L 427.23304 279.983279 
L 427.624728 284.483196 
L 428.016415 277.224934 
L 428.799791 286.224768 
L 429.191478 278.928205 
L 430.366541 292.427955 
L 430.758229 284.876771 
L 432.324979 302.876437 
L 432.324979 302.876437 
" style="fill:none;stroke:#ff7f0e;stroke-linecap:square;stroke-width:0.666667;"/>
   </g>
   <g id="patch_3">
    <path d="M 35.85875 316.4425 
L 35.85875 17.989125 
" style="fill:none;stroke:#000000;stroke-linecap:square;stroke-linejoin:miter;stroke-width:0.8;"/>
   </g>
   <g id="patch_4">
    <path d="M 451.204324 316.4425 
L 451.204324 17.989125 
" style="fill:none;stroke:#000000;stroke-linecap:square;stroke-linejoin:miter;stroke-width:0.8;"/>
   </g>
   <g id="patch_5">
    <path d="M 35.85875 316.4425 
L 451.204324 316.4425 
" style="fill:none;stroke:#000000;stroke-linecap:square;stroke-linejoin:miter;stroke-width:0.8;"/>
   </g>
   <g id="patch_6">
    <path d="M 35.85875 17.989125 
L 451.204324 17.989125 
" style="fill:none;stroke:#000000;stroke-linecap:square;stroke-linejoin:miter;stroke-width:0.8;"/>
   </g>
   <g id="text_15">
    <!-- "3y+1" problem -->
    <g transform="translate(213.189162 11.989125)scale(0.072 -0.072)">
     <defs>
      <path d="M 43.703125 72.90625 
L 43.703125 45.796875 
L 35.203125 45.796875 
L 35.203125 72.90625 
z
M 25 72.90625 
L 25 45.796875 
L 16.5 45.796875 
L 16.5 72.90625 
z
" id="DejaVuSansMono-34"/>
      <path d="M 37.890625 39.015625 
Q 45.0625 37.109375 48.875 32.25 
Q 52.6875 27.390625 52.6875 20.125 
Q 52.6875 10.0625 45.921875 4.3125 
Q 39.15625 -1.421875 27.203125 -1.421875 
Q 22.171875 -1.421875 16.9375 -0.484375 
Q 11.71875 0.4375 6.6875 2.203125 
L 6.6875 12.015625 
Q 11.671875 9.421875 16.5 8.15625 
Q 21.34375 6.890625 26.125 6.890625 
Q 34.234375 6.890625 38.578125 10.546875 
Q 42.921875 14.203125 42.921875 21.09375 
Q 42.921875 27.4375 38.578125 31.171875 
Q 34.234375 34.90625 26.8125 34.90625 
L 19.28125 34.90625 
L 19.28125 43.015625 
L 26.8125 43.015625 
Q 33.59375 43.015625 37.40625 45.984375 
Q 41.21875 48.96875 41.21875 54.296875 
Q 41.21875 59.90625 37.671875 62.90625 
Q 34.125 65.921875 27.59375 65.921875 
Q 23.25 65.921875 18.609375 64.9375 
Q 13.96875 63.96875 8.890625 62.015625 
L 8.890625 71.09375 
Q 14.796875 72.65625 19.40625 73.4375 
Q 24.03125 74.21875 27.59375 74.21875 
Q 38.234375 74.21875 44.609375 68.875 
Q 50.984375 63.53125 50.984375 54.6875 
Q 50.984375 48.6875 47.625 44.671875 
Q 44.28125 40.671875 37.890625 39.015625 
z
" id="DejaVuSansMono-51"/>
      <path d="M 34.1875 57.171875 
L 34.1875 35.5 
L 55.90625 35.5 
L 55.90625 27.203125 
L 34.1875 27.203125 
L 34.1875 5.515625 
L 25.984375 5.515625 
L 25.984375 27.203125 
L 4.296875 27.203125 
L 4.296875 35.5 
L 25.984375 35.5 
L 25.984375 57.171875 
z
" id="DejaVuSansMono-43"/>
      <path id="DejaVuSansMono-32"/>
      <path d="M 18.3125 6.890625 
L 18.3125 -20.796875 
L 9.28125 -20.796875 
L 9.28125 54.6875 
L 18.3125 54.6875 
L 18.3125 47.703125 
Q 20.5625 51.765625 24.296875 53.875 
Q 28.03125 56 32.90625 56 
Q 42.828125 56 48.46875 48.328125 
Q 54.109375 40.671875 54.109375 27.09375 
Q 54.109375 13.765625 48.4375 6.171875 
Q 42.78125 -1.421875 32.90625 -1.421875 
Q 27.9375 -1.421875 24.1875 0.703125 
Q 20.453125 2.828125 18.3125 6.890625 
z
M 44.671875 27.296875 
Q 44.671875 37.75 41.375 43.0625 
Q 38.09375 48.390625 31.59375 48.390625 
Q 25.046875 48.390625 21.671875 43.046875 
Q 18.3125 37.703125 18.3125 27.296875 
Q 18.3125 16.9375 21.671875 11.5625 
Q 25.046875 6.203125 31.59375 6.203125 
Q 38.09375 6.203125 41.375 11.515625 
Q 44.671875 16.84375 44.671875 27.296875 
z
" id="DejaVuSansMono-112"/>
      <path d="M 56.390625 43.40625 
Q 53.515625 45.65625 50.53125 46.671875 
Q 47.5625 47.703125 44 47.703125 
Q 35.59375 47.703125 31.140625 42.421875 
Q 26.703125 37.15625 26.703125 27.203125 
L 26.703125 0 
L 17.671875 0 
L 17.671875 54.6875 
L 26.703125 54.6875 
L 26.703125 44 
Q 28.953125 49.8125 33.609375 52.90625 
Q 38.28125 56 44.671875 56 
Q 48 56 50.875 55.171875 
Q 53.765625 54.34375 56.390625 52.59375 
z
" id="DejaVuSansMono-114"/>
      <path d="M 30.078125 48.390625 
Q 23.25 48.390625 19.734375 43.0625 
Q 16.21875 37.75 16.21875 27.296875 
Q 16.21875 16.890625 19.734375 11.546875 
Q 23.25 6.203125 30.078125 6.203125 
Q 36.96875 6.203125 40.484375 11.546875 
Q 44 16.890625 44 27.296875 
Q 44 37.75 40.484375 43.0625 
Q 36.96875 48.390625 30.078125 48.390625 
z
M 30.078125 56 
Q 41.453125 56 47.484375 48.625 
Q 53.515625 41.265625 53.515625 27.296875 
Q 53.515625 13.28125 47.5 5.921875 
Q 41.5 -1.421875 30.078125 -1.421875 
Q 18.703125 -1.421875 12.6875 5.921875 
Q 6.6875 13.28125 6.6875 27.296875 
Q 6.6875 41.265625 12.6875 48.625 
Q 18.703125 56 30.078125 56 
z
" id="DejaVuSansMono-111"/>
      <path d="M 44.828125 27.296875 
Q 44.828125 37.75 41.5 43.0625 
Q 38.1875 48.390625 31.6875 48.390625 
Q 25.140625 48.390625 21.765625 43.046875 
Q 18.40625 37.703125 18.40625 27.296875 
Q 18.40625 16.9375 21.765625 11.5625 
Q 25.140625 6.203125 31.6875 6.203125 
Q 38.1875 6.203125 41.5 11.515625 
Q 44.828125 16.84375 44.828125 27.296875 
z
M 18.40625 47.703125 
Q 20.5625 51.703125 24.34375 53.84375 
Q 28.125 56 33.109375 56 
Q 42.96875 56 48.625 48.40625 
Q 54.296875 40.828125 54.296875 27.484375 
Q 54.296875 13.96875 48.609375 6.265625 
Q 42.921875 -1.421875 33.015625 -1.421875 
Q 28.125 -1.421875 24.390625 0.703125 
Q 20.65625 2.828125 18.40625 6.890625 
L 18.40625 0 
L 9.421875 0 
L 9.421875 75.984375 
L 18.40625 75.984375 
z
" id="DejaVuSansMono-98"/>
      <path d="M 31.203125 19.828125 
Q 31.203125 13.765625 33.421875 10.6875 
Q 35.640625 7.625 39.984375 7.625 
L 50.484375 7.625 
L 50.484375 0 
L 39.109375 0 
Q 31.0625 0 26.640625 5.171875 
Q 22.21875 10.359375 22.21875 19.828125 
L 22.21875 69.484375 
L 7.8125 69.484375 
L 7.8125 76.515625 
L 31.203125 76.515625 
z
" id="DejaVuSansMono-108"/>
      <path d="M 54.296875 29.59375 
L 54.296875 25.203125 
L 15.375 25.203125 
L 15.375 24.90625 
Q 15.375 15.96875 20.03125 11.078125 
Q 24.703125 6.203125 33.203125 6.203125 
Q 37.5 6.203125 42.1875 7.5625 
Q 46.875 8.9375 52.203125 11.71875 
L 52.203125 2.78125 
Q 47.078125 0.6875 42.3125 -0.359375 
Q 37.546875 -1.421875 33.109375 -1.421875 
Q 20.359375 -1.421875 13.171875 6.21875 
Q 6 13.875 6 27.296875 
Q 6 40.375 13.03125 48.1875 
Q 20.0625 56 31.78125 56 
Q 42.234375 56 48.265625 48.921875 
Q 54.296875 41.84375 54.296875 29.59375 
z
M 45.3125 32.234375 
Q 45.125 40.140625 41.578125 44.265625 
Q 38.03125 48.390625 31.390625 48.390625 
Q 24.90625 48.390625 20.703125 44.09375 
Q 16.5 39.796875 15.71875 32.171875 
z
" id="DejaVuSansMono-101"/>
      <path d="M 33.015625 49.125 
Q 34.671875 52.640625 37.234375 54.3125 
Q 39.796875 56 43.40625 56 
Q 50 56 52.703125 50.890625 
Q 55.421875 45.796875 55.421875 31.6875 
L 55.421875 0 
L 47.21875 0 
L 47.21875 31.296875 
Q 47.21875 42.875 45.921875 45.671875 
Q 44.625 48.484375 41.21875 48.484375 
Q 37.3125 48.484375 35.859375 45.484375 
Q 34.421875 42.484375 34.421875 31.296875 
L 34.421875 0 
L 26.21875 0 
L 26.21875 31.296875 
Q 26.21875 43.015625 24.828125 45.75 
Q 23.4375 48.484375 19.828125 48.484375 
Q 16.265625 48.484375 14.875 45.484375 
Q 13.484375 42.484375 13.484375 31.296875 
L 13.484375 0 
L 5.328125 0 
L 5.328125 54.6875 
L 13.484375 54.6875 
L 13.484375 50 
Q 15.09375 52.9375 17.5 54.46875 
Q 19.921875 56 23 56 
Q 26.703125 56 29.171875 54.296875 
Q 31.640625 52.59375 33.015625 49.125 
z
" id="DejaVuSansMono-109"/>
     </defs>
     <use xlink:href="#DejaVuSansMono-34"/>
     <use x="60.205078" xlink:href="#DejaVuSansMono-51"/>
     <use x="120.410156" xlink:href="#DejaVuSansMono-121"/>
     <use x="180.615234" xlink:href="#DejaVuSansMono-43"/>
     <use x="240.820312" xlink:href="#DejaVuSansMono-49"/>
     <use x="301.025391" xlink:href="#DejaVuSansMono-34"/>
     <use x="361.230469" xlink:href="#DejaVuSansMono-32"/>
     <use x="421.435547" xlink:href="#DejaVuSansMono-112"/>
     <use x="481.640625" xlink:href="#DejaVuSansMono-114"/>
     <use x="541.845703" xlink:href="#DejaVuSansMono-111"/>
     <use x="602.050781" xlink:href="#DejaVuSansMono-98"/>
     <use x="662.255859" xlink:href="#DejaVuSansMono-108"/>
     <use x="722.460938" xlink:href="#DejaVuSansMono-101"/>
     <use x="782.666016" xlink:href="#DejaVuSansMono-109"/>
    </g>
   </g>
   <g id="legend_1">
    <g id="patch_7">
     <path d="M 326.663074 82.0095 
L 447.004324 82.0095 
Q 448.204324 82.0095 448.204324 80.8095 
L 448.204324 22.189125 
Q 448.204324 20.989125 447.004324 20.989125 
L 326.663074 20.989125 
Q 325.463074 20.989125 325.463074 22.189125 
L 325.463074 80.8095 
Q 325.463074 82.0095 326.663074 82.0095 
z
" style="fill:#ffffff;opacity:0.8;stroke:#cccccc;stroke-linejoin:miter;"/>
    </g>
    <g id="line2d_15">
     <path d="M 327.863074 36.889687 
L 339.863074 36.889687 
" style="fill:none;stroke:#1f77b4;stroke-linecap:square;stroke-width:0.666667;"/>
    </g>
    <g id="line2d_16"/>
    <g id="text_16">
     <!-- "Tallest": -->
     <g transform="translate(344.663074 27.980062)scale(0.06 -0.06)">
      <defs>
       <path d="M 2.296875 72.90625 
L 57.90625 72.90625 
L 57.90625 64.59375 
L 35.109375 64.59375 
L 35.109375 0 
L 25.203125 0 
L 25.203125 64.59375 
L 2.296875 64.59375 
z
" id="DejaVuSansMono-84"/>
       <path d="M 34.28125 27.484375 
L 31.296875 27.484375 
Q 23.4375 27.484375 19.453125 24.71875 
Q 15.484375 21.96875 15.484375 16.5 
Q 15.484375 11.578125 18.453125 8.84375 
Q 21.4375 6.109375 26.703125 6.109375 
Q 34.125 6.109375 38.375 11.25 
Q 42.625 16.40625 42.671875 25.484375 
L 42.671875 27.484375 
z
M 51.703125 31.203125 
L 51.703125 0 
L 42.671875 0 
L 42.671875 8.109375 
Q 39.796875 3.21875 35.421875 0.890625 
Q 31.0625 -1.421875 24.8125 -1.421875 
Q 16.453125 -1.421875 11.46875 3.296875 
Q 6.5 8.015625 6.5 15.921875 
Q 6.5 25.046875 12.625 29.78125 
Q 18.75 34.515625 30.609375 34.515625 
L 42.671875 34.515625 
L 42.671875 35.9375 
Q 42.625 42.484375 39.34375 45.4375 
Q 36.078125 48.390625 28.90625 48.390625 
Q 24.3125 48.390625 19.625 47.0625 
Q 14.9375 45.75 10.5 43.21875 
L 10.5 52.203125 
Q 15.484375 54.109375 20.046875 55.046875 
Q 24.609375 56 28.90625 56 
Q 35.6875 56 40.5 54 
Q 45.3125 52 48.296875 48 
Q 50.140625 45.5625 50.921875 41.96875 
Q 51.703125 38.375 51.703125 31.203125 
z
" id="DejaVuSansMono-97"/>
       <path d="M 47.515625 52.78125 
L 47.515625 44 
Q 43.65625 46.234375 39.75 47.359375 
Q 35.84375 48.484375 31.78125 48.484375 
Q 25.6875 48.484375 22.671875 46.5 
Q 19.671875 44.53125 19.671875 40.484375 
Q 19.671875 36.8125 21.921875 35 
Q 24.171875 33.203125 33.109375 31.5 
L 36.71875 30.8125 
Q 43.40625 29.546875 46.84375 25.734375 
Q 50.296875 21.921875 50.296875 15.828125 
Q 50.296875 7.71875 44.53125 3.140625 
Q 38.765625 -1.421875 28.515625 -1.421875 
Q 24.46875 -1.421875 20.015625 -0.5625 
Q 15.578125 0.296875 10.40625 2 
L 10.40625 11.28125 
Q 15.4375 8.6875 20.015625 7.390625 
Q 24.609375 6.109375 28.71875 6.109375 
Q 34.671875 6.109375 37.9375 8.515625 
Q 41.21875 10.9375 41.21875 15.28125 
Q 41.21875 21.53125 29.25 23.921875 
L 28.859375 24.03125 
L 25.484375 24.703125 
Q 17.71875 26.21875 14.15625 29.8125 
Q 10.59375 33.40625 10.59375 39.59375 
Q 10.59375 47.46875 15.90625 51.734375 
Q 21.234375 56 31.109375 56 
Q 35.5 56 39.546875 55.1875 
Q 43.609375 54.390625 47.515625 52.78125 
z
" id="DejaVuSansMono-115"/>
       <path d="M 29.984375 70.21875 
L 29.984375 54.6875 
L 50.390625 54.6875 
L 50.390625 47.703125 
L 29.984375 47.703125 
L 29.984375 18.015625 
Q 29.984375 11.96875 32.28125 9.5625 
Q 34.578125 7.171875 40.28125 7.171875 
L 50.390625 7.171875 
L 50.390625 0 
L 39.40625 0 
Q 29.296875 0 25.140625 4.046875 
Q 21 8.109375 21 18.015625 
L 21 47.703125 
L 6.390625 47.703125 
L 6.390625 54.6875 
L 21 54.6875 
L 21 70.21875 
z
" id="DejaVuSansMono-116"/>
       <path d="M 23.875 51.90625 
L 36.1875 51.90625 
L 36.1875 37.109375 
L 23.875 37.109375 
z
M 23.875 14.890625 
L 36.1875 14.890625 
L 36.1875 0 
L 23.875 0 
z
" id="DejaVuSansMono-58"/>
      </defs>
      <use xlink:href="#DejaVuSansMono-34"/>
      <use x="60.205078" xlink:href="#DejaVuSansMono-84"/>
      <use x="120.410156" xlink:href="#DejaVuSansMono-97"/>
      <use x="180.615234" xlink:href="#DejaVuSansMono-108"/>
      <use x="240.820312" xlink:href="#DejaVuSansMono-108"/>
      <use x="301.025391" xlink:href="#DejaVuSansMono-101"/>
      <use x="361.230469" xlink:href="#DejaVuSansMono-115"/>
      <use x="421.435547" xlink:href="#DejaVuSansMono-116"/>
      <use x="481.640625" xlink:href="#DejaVuSansMono-34"/>
      <use x="541.845703" xlink:href="#DejaVuSansMono-58"/>
     </g>
     <!-- y_0    = 319804831 -->
     <g transform="translate(344.663074 34.737)scale(0.06 -0.06)">
      <defs>
       <path d="M 4.296875 25.59375 
L 55.90625 25.59375 
L 55.90625 17.1875 
L 4.296875 17.1875 
z
M 4.296875 45.40625 
L 55.90625 45.40625 
L 55.90625 37.109375 
L 4.296875 37.109375 
z
" id="DejaVuSansMono-61"/>
       <path d="M 29.109375 32.328125 
Q 35.40625 32.328125 38.984375 36.859375 
Q 42.578125 41.40625 42.578125 49.421875 
Q 42.578125 57.421875 38.984375 61.953125 
Q 35.40625 66.5 29.109375 66.5 
Q 22.5625 66.5 19.234375 62.171875 
Q 15.921875 57.859375 15.921875 49.421875 
Q 15.921875 40.921875 19.21875 36.625 
Q 22.515625 32.328125 29.109375 32.328125 
z
M 11.53125 1.515625 
L 11.53125 10.59375 
Q 14.59375 8.796875 18.0625 7.84375 
Q 21.53125 6.890625 25.296875 6.890625 
Q 34.671875 6.890625 39.46875 13.9375 
Q 44.28125 21 44.28125 34.71875 
Q 42 29.828125 37.84375 27.21875 
Q 33.6875 24.609375 28.328125 24.609375 
Q 17.78125 24.609375 11.984375 31.09375 
Q 6.203125 37.59375 6.203125 49.515625 
Q 6.203125 61.28125 12.125 67.75 
Q 18.0625 74.21875 28.90625 74.21875 
Q 41.609375 74.21875 47.515625 65.078125 
Q 53.421875 55.953125 53.421875 36.375 
Q 53.421875 17.96875 46.3125 8.265625 
Q 39.203125 -1.421875 25.6875 -1.421875 
Q 22.125 -1.421875 18.5 -0.65625 
Q 14.890625 0.09375 11.53125 1.515625 
z
" id="DejaVuSansMono-57"/>
      </defs>
      <use xlink:href="#DejaVuSansMono-121"/>
      <use x="60.205078" xlink:href="#DejaVuSansMono-95"/>
      <use x="120.410156" xlink:href="#DejaVuSansMono-48"/>
      <use x="180.615234" xlink:href="#DejaVuSansMono-32"/>
      <use x="240.820312" xlink:href="#DejaVuSansMono-32"/>
      <use x="301.025391" xlink:href="#DejaVuSansMono-32"/>
      <use x="361.230469" xlink:href="#DejaVuSansMono-32"/>
      <use x="421.435547" xlink:href="#DejaVuSansMono-61"/>
      <use x="481.640625" xlink:href="#DejaVuSansMono-32"/>
      <use x="541.845703" xlink:href="#DejaVuSansMono-51"/>
      <use x="602.050781" xlink:href="#DejaVuSansMono-49"/>
      <use x="662.255859" xlink:href="#DejaVuSansMono-57"/>
      <use x="722.460938" xlink:href="#DejaVuSansMono-56"/>
      <use x="782.666016" xlink:href="#DejaVuSansMono-48"/>
      <use x="842.871094" xlink:href="#DejaVuSansMono-52"/>
      <use x="903.076172" xlink:href="#DejaVuSansMono-56"/>
      <use x="963.28125" xlink:href="#DejaVuSansMono-51"/>
      <use x="1023.486328" xlink:href="#DejaVuSansMono-49"/>
     </g>
     <!-- y_max  = 1414236446719942480 -->
     <g transform="translate(344.663074 41.660812)scale(0.06 -0.06)">
      <defs>
       <path d="M 54.59375 54.6875 
L 35.015625 28.515625 
L 56.5 0 
L 46.09375 0 
L 30.078125 21.921875 
L 14.109375 0 
L 3.71875 0 
L 25.203125 28.515625 
L 5.609375 54.6875 
L 15.578125 54.6875 
L 30.078125 34.90625 
L 44.484375 54.6875 
z
" id="DejaVuSansMono-120"/>
      </defs>
      <use xlink:href="#DejaVuSansMono-121"/>
      <use x="60.205078" xlink:href="#DejaVuSansMono-95"/>
      <use x="120.410156" xlink:href="#DejaVuSansMono-109"/>
      <use x="180.615234" xlink:href="#DejaVuSansMono-97"/>
      <use x="240.820312" xlink:href="#DejaVuSansMono-120"/>
      <use x="301.025391" xlink:href="#DejaVuSansMono-32"/>
      <use x="361.230469" xlink:href="#DejaVuSansMono-32"/>
      <use x="421.435547" xlink:href="#DejaVuSansMono-61"/>
      <use x="481.640625" xlink:href="#DejaVuSansMono-32"/>
      <use x="541.845703" xlink:href="#DejaVuSansMono-49"/>
      <use x="602.050781" xlink:href="#DejaVuSansMono-52"/>
      <use x="662.255859" xlink:href="#DejaVuSansMono-49"/>
      <use x="722.460938" xlink:href="#DejaVuSansMono-52"/>
      <use x="782.666016" xlink:href="#DejaVuSansMono-50"/>
      <use x="842.871094" xlink:href="#DejaVuSansMono-51"/>
      <use x="903.076172" xlink:href="#DejaVuSansMono-54"/>
      <use x="963.28125" xlink:href="#DejaVuSansMono-52"/>
      <use x="1023.486328" xlink:href="#DejaVuSansMono-52"/>
      <use x="1083.691406" xlink:href="#DejaVuSansMono-54"/>
      <use x="1143.896484" xlink:href="#DejaVuSansMono-55"/>
      <use x="1204.101562" xlink:href="#DejaVuSansMono-49"/>
      <use x="1264.306641" xlink:href="#DejaVuSansMono-57"/>
      <use x="1324.511719" xlink:href="#DejaVuSansMono-57"/>
      <use x="1384.716797" xlink:href="#DejaVuSansMono-52"/>
      <use x="1444.921875" xlink:href="#DejaVuSansMono-50"/>
      <use x="1505.126953" xlink:href="#DejaVuSansMono-52"/>
      <use x="1565.332031" xlink:href="#DejaVuSansMono-56"/>
      <use x="1625.537109" xlink:href="#DejaVuSansMono-48"/>
     </g>
     <!-- x_max  = 593 -->
     <g transform="translate(344.663074 48.584625)scale(0.06 -0.06)">
      <use xlink:href="#DejaVuSansMono-120"/>
      <use x="60.205078" xlink:href="#DejaVuSansMono-95"/>
      <use x="120.410156" xlink:href="#DejaVuSansMono-109"/>
      <use x="180.615234" xlink:href="#DejaVuSansMono-97"/>
      <use x="240.820312" xlink:href="#DejaVuSansMono-120"/>
      <use x="301.025391" xlink:href="#DejaVuSansMono-32"/>
      <use x="361.230469" xlink:href="#DejaVuSansMono-32"/>
      <use x="421.435547" xlink:href="#DejaVuSansMono-61"/>
      <use x="481.640625" xlink:href="#DejaVuSansMono-32"/>
      <use x="541.845703" xlink:href="#DejaVuSansMono-53"/>
      <use x="602.050781" xlink:href="#DejaVuSansMono-57"/>
      <use x="662.255859" xlink:href="#DejaVuSansMono-51"/>
     </g>
    </g>
    <g id="line2d_17">
     <path d="M 327.863074 66.499875 
L 339.863074 66.499875 
" style="fill:none;stroke:#ff7f0e;stroke-linecap:square;stroke-width:0.666667;"/>
    </g>
    <g id="line2d_18"/>
    <g id="text_17">
     <!-- "Widest":  -->
     <g transform="translate(344.663074 57.59025)scale(0.06 -0.06)">
      <defs>
       <path d="M 0 72.90625 
L 9.625 72.90625 
L 16.609375 13.71875 
L 24.90625 52.875 
L 35.203125 52.875 
L 43.609375 13.625 
L 50.59375 72.90625 
L 60.203125 72.90625 
L 49.3125 0 
L 39.984375 0 
L 30.078125 43.3125 
L 20.21875 0 
L 10.890625 0 
z
" id="DejaVuSansMono-87"/>
       <path d="M 12.5 54.6875 
L 35.5 54.6875 
L 35.5 6.984375 
L 53.328125 6.984375 
L 53.328125 0 
L 8.6875 0 
L 8.6875 6.984375 
L 26.515625 6.984375 
L 26.515625 47.703125 
L 12.5 47.703125 
z
M 26.515625 75.984375 
L 35.5 75.984375 
L 35.5 64.59375 
L 26.515625 64.59375 
z
" id="DejaVuSansMono-105"/>
       <path d="M 41.890625 47.703125 
L 41.890625 75.984375 
L 50.875 75.984375 
L 50.875 0 
L 41.890625 0 
L 41.890625 6.890625 
Q 39.65625 2.828125 35.90625 0.703125 
Q 32.171875 -1.421875 27.296875 -1.421875 
Q 17.390625 -1.421875 11.6875 6.265625 
Q 6 13.96875 6 27.484375 
Q 6 40.828125 11.71875 48.40625 
Q 17.4375 56 27.296875 56 
Q 32.234375 56 35.984375 53.875 
Q 39.75 51.765625 41.890625 47.703125 
z
M 15.484375 27.296875 
Q 15.484375 16.84375 18.796875 11.515625 
Q 22.125 6.203125 28.609375 6.203125 
Q 35.109375 6.203125 38.5 11.5625 
Q 41.890625 16.9375 41.890625 27.296875 
Q 41.890625 37.703125 38.5 43.046875 
Q 35.109375 48.390625 28.609375 48.390625 
Q 22.125 48.390625 18.796875 43.0625 
Q 15.484375 37.75 15.484375 27.296875 
z
" id="DejaVuSansMono-100"/>
      </defs>
      <use xlink:href="#DejaVuSansMono-34"/>
      <use x="60.205078" xlink:href="#DejaVuSansMono-87"/>
      <use x="120.410156" xlink:href="#DejaVuSansMono-105"/>
      <use x="180.615234" xlink:href="#DejaVuSansMono-100"/>
      <use x="240.820312" xlink:href="#DejaVuSansMono-101"/>
      <use x="301.025391" xlink:href="#DejaVuSansMono-115"/>
      <use x="361.230469" xlink:href="#DejaVuSansMono-116"/>
      <use x="421.435547" xlink:href="#DejaVuSansMono-34"/>
      <use x="481.640625" xlink:href="#DejaVuSansMono-58"/>
      <use x="541.845703" xlink:href="#DejaVuSansMono-32"/>
     </g>
     <!-- y_0    = 268549803 -->
     <g transform="translate(344.663074 64.347187)scale(0.06 -0.06)">
      <use xlink:href="#DejaVuSansMono-121"/>
      <use x="60.205078" xlink:href="#DejaVuSansMono-95"/>
      <use x="120.410156" xlink:href="#DejaVuSansMono-48"/>
      <use x="180.615234" xlink:href="#DejaVuSansMono-32"/>
      <use x="240.820312" xlink:href="#DejaVuSansMono-32"/>
      <use x="301.025391" xlink:href="#DejaVuSansMono-32"/>
      <use x="361.230469" xlink:href="#DejaVuSansMono-32"/>
      <use x="421.435547" xlink:href="#DejaVuSansMono-61"/>
      <use x="481.640625" xlink:href="#DejaVuSansMono-32"/>
      <use x="541.845703" xlink:href="#DejaVuSansMono-50"/>
      <use x="602.050781" xlink:href="#DejaVuSansMono-54"/>
      <use x="662.255859" xlink:href="#DejaVuSansMono-56"/>
      <use x="722.460938" xlink:href="#DejaVuSansMono-53"/>
      <use x="782.666016" xlink:href="#DejaVuSansMono-52"/>
      <use x="842.871094" xlink:href="#DejaVuSansMono-57"/>
      <use x="903.076172" xlink:href="#DejaVuSansMono-56"/>
      <use x="963.28125" xlink:href="#DejaVuSansMono-48"/>
      <use x="1023.486328" xlink:href="#DejaVuSansMono-51"/>
     </g>
     <!-- y_max  = 966616035460 -->
     <g transform="translate(344.663074 71.271)scale(0.06 -0.06)">
      <use xlink:href="#DejaVuSansMono-121"/>
      <use x="60.205078" xlink:href="#DejaVuSansMono-95"/>
      <use x="120.410156" xlink:href="#DejaVuSansMono-109"/>
      <use x="180.615234" xlink:href="#DejaVuSansMono-97"/>
      <use x="240.820312" xlink:href="#DejaVuSansMono-120"/>
      <use x="301.025391" xlink:href="#DejaVuSansMono-32"/>
      <use x="361.230469" xlink:href="#DejaVuSansMono-32"/>
      <use x="421.435547" xlink:href="#DejaVuSansMono-61"/>
      <use x="481.640625" xlink:href="#DejaVuSansMono-32"/>
      <use x="541.845703" xlink:href="#DejaVuSansMono-57"/>
      <use x="602.050781" xlink:href="#DejaVuSansMono-54"/>
      <use x="662.255859" xlink:href="#DejaVuSansMono-54"/>
      <use x="722.460938" xlink:href="#DejaVuSansMono-54"/>
      <use x="782.666016" xlink:href="#DejaVuSansMono-49"/>
      <use x="842.871094" xlink:href="#DejaVuSansMono-54"/>
      <use x="903.076172" xlink:href="#DejaVuSansMono-48"/>
      <use x="963.28125" xlink:href="#DejaVuSansMono-51"/>
      <use x="1023.486328" xlink:href="#DejaVuSansMono-53"/>
      <use x="1083.691406" xlink:href="#DejaVuSansMono-52"/>
      <use x="1143.896484" xlink:href="#DejaVuSansMono-54"/>
      <use x="1204.101562" xlink:href="#DejaVuSansMono-48"/>
     </g>
     <!-- x_max  = 965 -->
     <g transform="translate(344.663074 78.194812)scale(0.06 -0.06)">
      <use xlink:href="#DejaVuSansMono-120"/>
      <use x="60.205078" xlink:href="#DejaVuSansMono-95"/>
      <use x="120.410156" xlink:href="#DejaVuSansMono-109"/>
      <use x="180.615234" xlink:href="#DejaVuSansMono-97"/>
      <use x="240.820312" xlink:href="#DejaVuSansMono-120"/>
      <use x="301.025391" xlink:href="#DejaVuSansMono-32"/>
      <use x="361.230469" xlink:href="#DejaVuSansMono-32"/>
      <use x="421.435547" xlink:href="#DejaVuSansMono-61"/>
      <use x="481.640625" xlink:href="#DejaVuSansMono-32"/>
      <use x="541.845703" xlink:href="#DejaVuSansMono-57"/>
      <use x="602.050781" xlink:href="#DejaVuSansMono-54"/>
      <use x="662.255859" xlink:href="#DejaVuSansMono-53"/>
     </g>
    </g>
   </g>
  </g>
 </g>
 <defs>
  <clipPath id="p85db45f527">
   <rect height="298.453375" width="415.345574" x="35.85875" y="17.989125"/>
  </clipPath>
 </defs>
</svg>
