<?xml version="1.0" encoding="utf-8" standalone="no"?>
<!DOCTYPE svg PUBLIC "-//W3C//DTD SVG 1.1//EN"
  "http://www.w3.org/Graphics/SVG/1.1/DTD/svg11.dtd">
<!-- Created with matplotlib (https://matplotlib.org/) -->
<svg height="345.6pt" version="1.1" viewBox="0 0 460.8 345.6" width="460.8pt" xmlns="http://www.w3.org/2000/svg" xmlns:xlink="http://www.w3.org/1999/xlink">
 <metadata>
  <rdf:RDF xmlns:cc="http://creativecommons.org/ns#" xmlns:dc="http://purl.org/dc/elements/1.1/" xmlns:rdf="http://www.w3.org/1999/02/22-rdf-syntax-ns#">
   <cc:Work>
    <dc:type rdf:resource="http://purl.org/dc/dcmitype/StillImage"/>
    <dc:date>2022-03-17T21:42:42.623201</dc:date>
    <dc:format>image/svg+xml</dc:format>
    <dc:creator>
     <cc:Agent>
      <dc:title>Matplotlib v3.3.2, https://matplotlib.org/</dc:title>
     </cc:Agent>
    </dc:creator>
   </cc:Work>
  </rdf:RDF>
 </metadata>
 <defs>
  <style type="text/css">*{stroke-linecap:butt;stroke-linejoin:round;}</style>
 </defs>
 <g id="figure_1">
  <g id="patch_1">
   <path d="M 0 345.6 
L 460.8 345.6 
L 460.8 0 
L 0 0 
z
" style="fill:#ffffff;"/>
  </g>
  <g id="axes_1">
   <g id="patch_2">
    <path d="M 35.85875 316.4425 
L 454.32 316.4425 
L 454.32 17.989125 
L 35.85875 17.989125 
z
" style="fill:#ffffff;"/>
   </g>
   <g id="matplotlib.axis_1">
    <g id="xtick_1">
     <g id="line2d_1">
      <defs>
       <path d="M 0 0 
L 0 3.5 
" id="m58edcb9354" style="stroke:#000000;stroke-width:0.8;"/>
      </defs>
      <g>
       <use style="stroke:#000000;stroke-width:0.8;" x="54.879716" xlink:href="#m58edcb9354" y="316.4425"/>
      </g>
     </g>
     <g id="text_1">
      <!-- 0 -->
      <g transform="translate(53.073622 328.033437)scale(0.06 -0.06)">
       <defs>
        <path d="M 23.578125 36.625 
Q 23.578125 39.3125 25.453125 41.265625 
Q 27.34375 43.21875 29.984375 43.21875 
Q 32.71875 43.21875 34.671875 41.265625 
Q 36.625 39.3125 36.625 36.625 
Q 36.625 33.890625 34.6875 31.984375 
Q 32.765625 30.078125 29.984375 30.078125 
Q 27.25 30.078125 25.40625 31.9375 
Q 23.578125 33.796875 23.578125 36.625 
z
M 30.078125 66.40625 
Q 23.1875 66.40625 19.796875 58.984375 
Q 16.40625 51.5625 16.40625 36.375 
Q 16.40625 21.234375 19.796875 13.8125 
Q 23.1875 6.390625 30.078125 6.390625 
Q 37.015625 6.390625 40.40625 13.8125 
Q 43.796875 21.234375 43.796875 36.375 
Q 43.796875 51.5625 40.40625 58.984375 
Q 37.015625 66.40625 30.078125 66.40625 
z
M 30.078125 74.21875 
Q 41.75 74.21875 47.734375 64.640625 
Q 53.71875 55.078125 53.71875 36.375 
Q 53.71875 17.71875 47.734375 8.140625 
Q 41.75 -1.421875 30.078125 -1.421875 
Q 18.40625 -1.421875 12.453125 8.140625 
Q 6.5 17.71875 6.5 36.375 
Q 6.5 55.078125 12.453125 64.640625 
Q 18.40625 74.21875 30.078125 74.21875 
z
" id="DejaVuSansMono-48"/>
       </defs>
       <use xlink:href="#DejaVuSansMono-48"/>
      </g>
     </g>
    </g>
    <g id="xtick_2">
     <g id="line2d_2">
      <g>
       <use style="stroke:#000000;stroke-width:0.8;" x="132.043878" xlink:href="#m58edcb9354" y="316.4425"/>
      </g>
     </g>
     <g id="text_2">
      <!-- 200 -->
      <g transform="translate(126.625597 328.033437)scale(0.06 -0.06)">
       <defs>
        <path d="M 18.21875 8.296875 
L 51.703125 8.296875 
L 51.703125 0 
L 7.421875 0 
L 7.421875 8.296875 
Q 16.546875 17.921875 23.375 25.296875 
Q 30.21875 32.671875 32.8125 35.6875 
Q 37.703125 41.65625 39.40625 45.34375 
Q 41.109375 49.03125 41.109375 52.875 
Q 41.109375 58.984375 37.515625 62.453125 
Q 33.9375 65.921875 27.6875 65.921875 
Q 23.25 65.921875 18.359375 64.3125 
Q 13.484375 62.703125 8.015625 59.421875 
L 8.015625 69.390625 
Q 13.03125 71.78125 17.890625 73 
Q 22.75 74.21875 27.484375 74.21875 
Q 38.1875 74.21875 44.703125 68.53125 
Q 51.21875 62.84375 51.21875 53.609375 
Q 51.21875 48.921875 49.046875 44.234375 
Q 46.875 39.546875 42 33.890625 
Q 39.265625 30.71875 34.0625 25.09375 
Q 28.859375 19.484375 18.21875 8.296875 
z
" id="DejaVuSansMono-50"/>
       </defs>
       <use xlink:href="#DejaVuSansMono-50"/>
       <use x="60.205078" xlink:href="#DejaVuSansMono-48"/>
       <use x="120.410156" xlink:href="#DejaVuSansMono-48"/>
      </g>
     </g>
    </g>
    <g id="xtick_3">
     <g id="line2d_3">
      <g>
       <use style="stroke:#000000;stroke-width:0.8;" x="209.20804" xlink:href="#m58edcb9354" y="316.4425"/>
      </g>
     </g>
     <g id="text_3">
      <!-- 400 -->
      <g transform="translate(203.789758 328.033437)scale(0.06 -0.06)">
       <defs>
        <path d="M 35.890625 63.921875 
L 12.890625 25.390625 
L 35.890625 25.390625 
z
M 34.28125 72.90625 
L 45.703125 72.90625 
L 45.703125 25.390625 
L 55.421875 25.390625 
L 55.421875 17.390625 
L 45.703125 17.390625 
L 45.703125 0 
L 35.890625 0 
L 35.890625 17.390625 
L 4.984375 17.390625 
L 4.984375 26.703125 
z
" id="DejaVuSansMono-52"/>
       </defs>
       <use xlink:href="#DejaVuSansMono-52"/>
       <use x="60.205078" xlink:href="#DejaVuSansMono-48"/>
       <use x="120.410156" xlink:href="#DejaVuSansMono-48"/>
      </g>
     </g>
    </g>
    <g id="xtick_4">
     <g id="line2d_4">
      <g>
       <use style="stroke:#000000;stroke-width:0.8;" x="286.372202" xlink:href="#m58edcb9354" y="316.4425"/>
      </g>
     </g>
     <g id="text_4">
      <!-- 600 -->
      <g transform="translate(280.95392 328.033437)scale(0.06 -0.06)">
       <defs>
        <path d="M 48.390625 71.296875 
L 48.390625 62.203125 
Q 45.3125 64.015625 41.84375 64.96875 
Q 38.375 65.921875 34.625 65.921875 
Q 25.25 65.921875 20.40625 58.859375 
Q 15.578125 51.8125 15.578125 38.09375 
Q 17.921875 42.96875 22.0625 45.578125 
Q 26.21875 48.1875 31.59375 48.1875 
Q 42.140625 48.1875 47.921875 41.71875 
Q 53.71875 35.25 53.71875 23.390625 
Q 53.71875 11.578125 47.75 5.078125 
Q 41.796875 -1.421875 31 -1.421875 
Q 18.3125 -1.421875 12.40625 7.6875 
Q 6.5 16.796875 6.5 36.375 
Q 6.5 54.828125 13.59375 64.515625 
Q 20.703125 74.21875 34.1875 74.21875 
Q 37.796875 74.21875 41.40625 73.453125 
Q 45.015625 72.703125 48.390625 71.296875 
z
M 30.8125 40.484375 
Q 24.515625 40.484375 20.890625 35.9375 
Q 17.28125 31.390625 17.28125 23.390625 
Q 17.28125 15.375 20.890625 10.828125 
Q 24.515625 6.296875 30.8125 6.296875 
Q 37.359375 6.296875 40.671875 10.609375 
Q 44 14.9375 44 23.390625 
Q 44 31.890625 40.671875 36.1875 
Q 37.359375 40.484375 30.8125 40.484375 
z
" id="DejaVuSansMono-54"/>
       </defs>
       <use xlink:href="#DejaVuSansMono-54"/>
       <use x="60.205078" xlink:href="#DejaVuSansMono-48"/>
       <use x="120.410156" xlink:href="#DejaVuSansMono-48"/>
      </g>
     </g>
    </g>
    <g id="xtick_5">
     <g id="line2d_5">
      <g>
       <use style="stroke:#000000;stroke-width:0.8;" x="363.536364" xlink:href="#m58edcb9354" y="316.4425"/>
      </g>
     </g>
     <g id="text_5">
      <!-- 800 -->
      <g transform="translate(358.118082 328.033437)scale(0.06 -0.06)">
       <defs>
        <path d="M 30.078125 34.625 
Q 23.484375 34.625 19.890625 30.9375 
Q 16.3125 27.25 16.3125 20.515625 
Q 16.3125 13.765625 19.9375 10.03125 
Q 23.578125 6.296875 30.078125 6.296875 
Q 36.71875 6.296875 40.296875 9.984375 
Q 43.890625 13.671875 43.890625 20.515625 
Q 43.890625 27.203125 40.25 30.90625 
Q 36.625 34.625 30.078125 34.625 
z
M 21.484375 38.71875 
Q 15.1875 40.328125 11.640625 44.71875 
Q 8.109375 49.125 8.109375 55.328125 
Q 8.109375 64.015625 14.015625 69.109375 
Q 19.921875 74.21875 30.078125 74.21875 
Q 40.28125 74.21875 46.1875 69.109375 
Q 52.09375 64.015625 52.09375 55.328125 
Q 52.09375 49.125 48.546875 44.71875 
Q 45.015625 40.328125 38.71875 38.71875 
Q 46.046875 37.109375 49.921875 32.21875 
Q 53.8125 27.34375 53.8125 19.578125 
Q 53.8125 9.71875 47.515625 4.140625 
Q 41.21875 -1.421875 30.078125 -1.421875 
Q 18.953125 -1.421875 12.671875 4.125 
Q 6.390625 9.671875 6.390625 19.484375 
Q 6.390625 27.296875 10.265625 32.203125 
Q 14.15625 37.109375 21.484375 38.71875 
z
M 17.921875 54.390625 
Q 17.921875 48.53125 21.046875 45.453125 
Q 24.171875 42.390625 30.078125 42.390625 
Q 36.03125 42.390625 39.15625 45.453125 
Q 42.28125 48.53125 42.28125 54.390625 
Q 42.28125 60.359375 39.171875 63.484375 
Q 36.078125 66.609375 30.078125 66.609375 
Q 24.171875 66.609375 21.046875 63.453125 
Q 17.921875 60.296875 17.921875 54.390625 
z
" id="DejaVuSansMono-56"/>
       </defs>
       <use xlink:href="#DejaVuSansMono-56"/>
       <use x="60.205078" xlink:href="#DejaVuSansMono-48"/>
       <use x="120.410156" xlink:href="#DejaVuSansMono-48"/>
      </g>
     </g>
    </g>
    <g id="xtick_6">
     <g id="line2d_6">
      <g>
       <use style="stroke:#000000;stroke-width:0.8;" x="440.700525" xlink:href="#m58edcb9354" y="316.4425"/>
      </g>
     </g>
     <g id="text_6">
      <!-- 1000 -->
      <g transform="translate(433.47615 328.033437)scale(0.06 -0.06)">
       <defs>
        <path d="M 13.1875 8.296875 
L 28.515625 8.296875 
L 28.515625 64.015625 
L 12.015625 60.296875 
L 12.015625 69.28125 
L 28.421875 72.90625 
L 38.28125 72.90625 
L 38.28125 8.296875 
L 53.421875 8.296875 
L 53.421875 0 
L 13.1875 0 
z
" id="DejaVuSansMono-49"/>
       </defs>
       <use xlink:href="#DejaVuSansMono-49"/>
       <use x="60.205078" xlink:href="#DejaVuSansMono-48"/>
       <use x="120.410156" xlink:href="#DejaVuSansMono-48"/>
       <use x="180.615234" xlink:href="#DejaVuSansMono-48"/>
      </g>
     </g>
    </g>
    <g id="text_7">
     <!-- n -->
     <g transform="translate(243.283281 337.872187)scale(0.06 -0.06)">
      <defs>
       <path d="M 51.3125 33.890625 
L 51.3125 0 
L 42.28125 0 
L 42.28125 33.890625 
Q 42.28125 41.265625 39.6875 44.71875 
Q 37.109375 48.1875 31.59375 48.1875 
Q 25.296875 48.1875 21.890625 43.71875 
Q 18.5 39.265625 18.5 30.90625 
L 18.5 0 
L 9.515625 0 
L 9.515625 54.6875 
L 18.5 54.6875 
L 18.5 46.484375 
Q 20.90625 51.171875 25 53.578125 
Q 29.109375 56 34.71875 56 
Q 43.0625 56 47.1875 50.5 
Q 51.3125 45.015625 51.3125 33.890625 
z
" id="DejaVuSansMono-110"/>
      </defs>
      <use xlink:href="#DejaVuSansMono-110"/>
     </g>
    </g>
   </g>
   <g id="matplotlib.axis_2">
    <g id="ytick_1">
     <g id="line2d_7">
      <defs>
       <path d="M 0 0 
L -3.5 0 
" id="mcdb0819876" style="stroke:#000000;stroke-width:0.8;"/>
      </defs>
      <g>
       <use style="stroke:#000000;stroke-width:0.8;" x="35.85875" xlink:href="#mcdb0819876" y="272.979639"/>
      </g>
     </g>
     <g id="text_8">
      <!-- $\mathdefault{10^{2}}$ -->
      <g transform="translate(18.83875 275.275108)scale(0.06 -0.06)">
       <use transform="translate(0 0.765625)" xlink:href="#DejaVuSansMono-49"/>
       <use transform="translate(60.205078 0.765625)" xlink:href="#DejaVuSansMono-48"/>
       <use transform="translate(121.367188 39.046875)scale(0.7)" xlink:href="#DejaVuSansMono-50"/>
      </g>
     </g>
    </g>
    <g id="ytick_2">
     <g id="line2d_8">
      <g>
       <use style="stroke:#000000;stroke-width:0.8;" x="35.85875" xlink:href="#mcdb0819876" y="228.134441"/>
      </g>
     </g>
     <g id="text_9">
      <!-- $\mathdefault{10^{5}}$ -->
      <g transform="translate(18.83875 230.42991)scale(0.06 -0.06)">
       <defs>
        <path d="M 10.109375 72.90625 
L 47.015625 72.90625 
L 47.015625 64.59375 
L 19.09375 64.59375 
L 19.09375 46.6875 
Q 21.1875 47.46875 23.3125 47.828125 
Q 25.4375 48.1875 27.59375 48.1875 
Q 38.921875 48.1875 45.5625 41.5 
Q 52.203125 34.8125 52.203125 23.390625 
Q 52.203125 11.859375 45.234375 5.21875 
Q 38.28125 -1.421875 26.21875 -1.421875 
Q 20.40625 -1.421875 15.59375 -0.640625 
Q 10.796875 0.140625 6.984375 1.703125 
L 6.984375 11.71875 
Q 11.46875 9.28125 16.015625 8.078125 
Q 20.5625 6.890625 25.296875 6.890625 
Q 33.453125 6.890625 37.859375 11.1875 
Q 42.28125 15.484375 42.28125 23.390625 
Q 42.28125 31.203125 37.71875 35.546875 
Q 33.15625 39.890625 25 39.890625 
Q 21.046875 39.890625 17.28125 38.984375 
Q 13.53125 38.09375 10.109375 36.28125 
z
" id="DejaVuSansMono-53"/>
       </defs>
       <use transform="translate(0 0.684375)" xlink:href="#DejaVuSansMono-49"/>
       <use transform="translate(60.205078 0.684375)" xlink:href="#DejaVuSansMono-48"/>
       <use transform="translate(121.367188 38.965625)scale(0.7)" xlink:href="#DejaVuSansMono-53"/>
      </g>
     </g>
    </g>
    <g id="ytick_3">
     <g id="line2d_9">
      <g>
       <use style="stroke:#000000;stroke-width:0.8;" x="35.85875" xlink:href="#mcdb0819876" y="183.289243"/>
      </g>
     </g>
     <g id="text_10">
      <!-- $\mathdefault{10^{8}}$ -->
      <g transform="translate(18.83875 185.584712)scale(0.06 -0.06)">
       <use transform="translate(0 0.765625)" xlink:href="#DejaVuSansMono-49"/>
       <use transform="translate(60.205078 0.765625)" xlink:href="#DejaVuSansMono-48"/>
       <use transform="translate(121.367188 39.046875)scale(0.7)" xlink:href="#DejaVuSansMono-56"/>
      </g>
     </g>
    </g>
    <g id="ytick_4">
     <g id="line2d_10">
      <g>
       <use style="stroke:#000000;stroke-width:0.8;" x="35.85875" xlink:href="#mcdb0819876" y="138.444046"/>
      </g>
     </g>
     <g id="text_11">
      <!-- $\mathdefault{10^{11}}$ -->
      <g transform="translate(16.31875 140.739514)scale(0.06 -0.06)">
       <use transform="translate(0 0.684375)" xlink:href="#DejaVuSansMono-49"/>
       <use transform="translate(60.205078 0.684375)" xlink:href="#DejaVuSansMono-48"/>
       <use transform="translate(121.367188 38.965625)scale(0.7)" xlink:href="#DejaVuSansMono-49"/>
       <use transform="translate(163.510742 38.965625)scale(0.7)" xlink:href="#DejaVuSansMono-49"/>
      </g>
     </g>
    </g>
    <g id="ytick_5">
     <g id="line2d_11">
      <g>
       <use style="stroke:#000000;stroke-width:0.8;" x="35.85875" xlink:href="#mcdb0819876" y="93.598848"/>
      </g>
     </g>
     <g id="text_12">
      <!-- $\mathdefault{10^{14}}$ -->
      <g transform="translate(16.31875 95.894317)scale(0.06 -0.06)">
       <use transform="translate(0 0.684375)" xlink:href="#DejaVuSansMono-49"/>
       <use transform="translate(60.205078 0.684375)" xlink:href="#DejaVuSansMono-48"/>
       <use transform="translate(121.367188 38.965625)scale(0.7)" xlink:href="#DejaVuSansMono-49"/>
       <use transform="translate(163.510742 38.965625)scale(0.7)" xlink:href="#DejaVuSansMono-52"/>
      </g>
     </g>
    </g>
    <g id="ytick_6">
     <g id="line2d_12">
      <g>
       <use style="stroke:#000000;stroke-width:0.8;" x="35.85875" xlink:href="#mcdb0819876" y="48.75365"/>
      </g>
     </g>
     <g id="text_13">
      <!-- $\mathdefault{10^{17}}$ -->
      <g transform="translate(16.31875 51.049119)scale(0.06 -0.06)">
       <defs>
        <path d="M 6.78125 72.90625 
L 52.6875 72.90625 
L 52.6875 68.703125 
L 26.609375 0 
L 16.3125 0 
L 41.703125 64.59375 
L 6.78125 64.59375 
z
" id="DejaVuSansMono-55"/>
       </defs>
       <use transform="translate(0 0.684375)" xlink:href="#DejaVuSansMono-49"/>
       <use transform="translate(60.205078 0.684375)" xlink:href="#DejaVuSansMono-48"/>
       <use transform="translate(121.367188 38.965625)scale(0.7)" xlink:href="#DejaVuSansMono-49"/>
       <use transform="translate(163.510742 38.965625)scale(0.7)" xlink:href="#DejaVuSansMono-55"/>
      </g>
     </g>
    </g>
    <g id="text_14">
     <!-- y_n -->
     <g transform="translate(10.904063 172.634094)rotate(-90)scale(0.06 -0.06)">
      <defs>
       <path d="M 41.890625 17.578125 
Q 39.65625 11.859375 36.1875 2.546875 
Q 31.34375 -10.359375 29.6875 -13.1875 
Q 27.4375 -17 24.0625 -18.890625 
Q 20.703125 -20.796875 16.21875 -20.796875 
L 8.984375 -20.796875 
L 8.984375 -13.28125 
L 14.3125 -13.28125 
Q 18.265625 -13.28125 20.5 -10.984375 
Q 22.75 -8.6875 26.21875 0.875 
L 5.078125 54.6875 
L 14.59375 54.6875 
L 30.8125 11.921875 
L 46.78125 54.6875 
L 56.296875 54.6875 
z
" id="DejaVuSansMono-121"/>
       <path d="M 60.203125 -19.671875 
L 60.203125 -23.578125 
L 0 -23.578125 
L 0 -19.671875 
z
" id="DejaVuSansMono-95"/>
      </defs>
      <use xlink:href="#DejaVuSansMono-121"/>
      <use x="60.205078" xlink:href="#DejaVuSansMono-95"/>
      <use x="120.410156" xlink:href="#DejaVuSansMono-110"/>
     </g>
    </g>
   </g>
   <g id="line2d_13">
    <path clip-path="url(#pe9a09e19a0)" d="M 54.879716 175.742021 
L 55.265537 168.609822 
L 55.651358 173.109738 
L 56.037178 165.977539 
L 56.422999 170.477456 
L 56.80882 163.345257 
L 57.194641 167.845173 
L 57.580462 160.712974 
L 57.966282 165.212891 
L 58.352103 158.080692 
L 59.123745 167.080525 
L 59.509566 159.948326 
L 59.895386 164.448242 
L 60.281207 157.316043 
L 61.052849 166.315877 
L 61.43867 159.183678 
L 61.82449 163.683594 
L 62.210311 156.551395 
L 62.596132 161.051312 
L 62.981953 153.919113 
L 63.367774 158.419029 
L 63.753595 151.28683 
L 64.139415 155.786747 
L 64.525236 148.654548 
L 64.911057 153.154464 
L 65.296878 146.022265 
L 65.682699 150.522182 
L 66.068519 143.389983 
L 66.45434 147.889899 
L 66.840161 140.7577 
L 67.611803 149.757534 
L 67.997623 142.625335 
L 68.769265 151.625168 
L 69.155086 144.492969 
L 69.926727 153.492802 
L 70.312548 146.360603 
L 71.08419 155.360436 
L 71.470011 148.228237 
L 71.855832 152.728153 
L 72.241652 145.595954 
L 72.627473 150.095871 
L 73.013294 142.963672 
L 73.399115 147.463589 
L 73.784936 140.33139 
L 74.170756 144.831306 
L 74.556577 137.699107 
L 74.942398 142.199024 
L 75.328219 135.066825 
L 75.71404 139.566741 
L 76.09986 132.434542 
L 76.485681 136.934459 
L 76.871502 129.80226 
L 77.643144 138.802093 
L 78.028964 131.669894 
L 78.414785 136.16981 
L 78.800606 129.037611 
L 79.186427 133.537528 
L 79.572248 126.405329 
L 80.343889 135.405162 
L 80.72971 128.272963 
L 81.115531 132.77288 
L 81.501352 125.640681 
L 81.887173 130.140597 
L 82.272993 123.008398 
L 83.044635 132.008231 
L 83.430456 124.876032 
L 84.202097 133.875865 
L 84.587918 126.743666 
L 84.973739 131.243583 
L 85.35956 124.111384 
L 85.745381 128.611301 
L 86.131201 121.479102 
L 86.517022 125.979018 
L 86.902843 118.846819 
L 87.288664 123.346736 
L 87.674485 116.214537 
L 88.060306 120.714453 
L 88.446126 113.582254 
L 88.831947 118.082171 
L 89.217768 110.949972 
L 89.98941 119.949805 
L 90.37523 112.817606 
L 90.761051 117.317522 
L 91.146872 110.185323 
L 91.532693 114.68524 
L 91.918514 107.553041 
L 92.304334 112.052958 
L 92.690155 104.920759 
L 93.075976 109.420675 
L 93.461797 102.288476 
L 93.847618 106.788393 
L 94.233438 99.656194 
L 94.619259 104.15611 
L 95.00508 97.023911 
L 95.390901 101.523828 
L 95.776722 94.391629 
L 96.162543 98.891545 
L 96.548363 91.759346 
L 96.934184 96.259263 
L 97.320005 89.127064 
L 97.705826 93.62698 
L 98.091647 86.494781 
L 98.477467 90.994698 
L 98.863288 83.862499 
L 99.249109 88.362416 
L 99.63493 81.230217 
L 100.020751 85.730133 
L 100.406571 78.597934 
L 100.792392 83.097851 
L 101.178213 75.965652 
L 101.564034 80.465568 
L 101.949855 73.333369 
L 102.335675 77.833286 
L 102.721496 70.701087 
L 103.107317 75.201003 
L 103.493138 68.068804 
L 103.878959 72.568721 
L 104.26478 65.436522 
L 104.6506 69.936438 
L 105.036421 62.804239 
L 105.422242 67.304156 
L 105.808063 60.171957 
L 106.579704 69.17179 
L 106.965525 62.039591 
L 107.351346 66.539508 
L 107.737167 59.407309 
L 108.122988 63.907225 
L 108.508808 56.775026 
L 108.894629 61.274943 
L 109.28045 54.142744 
L 110.052092 63.142577 
L 110.437912 56.010378 
L 110.823733 60.510294 
L 111.209554 53.378095 
L 111.595375 57.878012 
L 111.981196 50.745813 
L 112.752837 59.745646 
L 113.138658 52.613447 
L 113.524479 57.113364 
L 113.9103 49.981165 
L 114.296121 54.481081 
L 114.681941 47.348882 
L 115.067762 51.848799 
L 115.453583 44.7166 
L 115.839404 49.216516 
L 116.225225 42.084317 
L 116.611045 46.584234 
L 116.996866 39.452035 
L 117.382687 43.951951 
L 117.768508 36.819752 
L 118.154329 41.319669 
L 118.540149 34.18747 
L 118.92597 38.687387 
L 119.311791 31.555187 
L 120.855074 49.554854 
L 121.240895 42.422655 
L 123.169999 64.922238 
L 123.55582 57.790039 
L 123.941641 62.289955 
L 124.327462 55.157756 
L 124.713282 59.657673 
L 125.099103 52.525474 
L 125.484924 57.02539 
L 125.870745 49.893191 
L 126.642386 58.893024 
L 127.028207 51.760825 
L 128.18567 65.260575 
L 128.571491 58.128376 
L 130.500595 80.627959 
L 130.886415 73.49576 
L 132.043878 86.99551 
L 132.429699 79.863311 
L 132.815519 84.363227 
L 133.20134 77.231028 
L 133.972982 86.230861 
L 134.358803 79.098662 
L 134.744623 83.598579 
L 135.130444 76.46638 
L 135.902086 85.466213 
L 136.287907 78.334014 
L 136.673728 82.83393 
L 137.059548 75.701731 
L 137.83119 84.701565 
L 138.217011 77.569366 
L 138.602832 82.069282 
L 138.988652 74.937083 
L 140.917756 97.436666 
L 141.303577 90.304467 
L 141.689398 94.804383 
L 142.075219 87.672184 
L 142.46104 92.172101 
L 142.84686 85.039902 
L 143.232681 89.539819 
L 143.618502 82.40762 
L 144.004323 86.907536 
L 144.390144 79.775337 
L 144.775965 84.275254 
L 145.161785 77.143055 
L 145.547606 81.642971 
L 145.933427 74.510772 
L 146.705069 83.510605 
L 147.090889 76.378406 
L 147.47671 80.878323 
L 147.862531 73.746124 
L 148.248352 78.24604 
L 148.634173 71.113841 
L 149.019993 75.613758 
L 149.405814 68.481559 
L 150.949097 86.481225 
L 151.334918 79.349026 
L 152.10656 88.348859 
L 152.492381 81.21666 
L 152.878202 85.716577 
L 153.264022 78.584378 
L 153.649843 83.084294 
L 154.035664 75.952095 
L 154.421485 80.452012 
L 154.807306 73.319813 
L 155.578947 82.319646 
L 155.964768 75.187447 
L 156.350589 79.687364 
L 156.73641 72.555165 
L 157.12223 77.055081 
L 157.508051 69.922882 
L 157.893872 74.422799 
L 158.279693 67.2906 
L 158.665514 71.790516 
L 159.051334 64.658317 
L 159.437155 69.158234 
L 159.822976 62.026035 
L 160.208797 66.525951 
L 160.594618 59.393752 
L 160.980439 63.893669 
L 161.366259 56.76147 
L 162.137901 65.761303 
L 162.523722 58.629104 
L 163.295363 67.628937 
L 163.681184 60.496738 
L 164.067005 64.996655 
L 164.452826 57.864456 
L 165.996109 75.864122 
L 166.38193 68.731923 
L 166.767751 73.23184 
L 167.153571 66.099641 
L 167.539392 70.599557 
L 167.925213 63.467358 
L 169.082676 76.967108 
L 169.468496 69.834909 
L 169.854317 74.334825 
L 170.240138 67.202626 
L 170.625959 71.702543 
L 171.01178 64.570344 
L 172.169242 78.070094 
L 172.555063 70.937895 
L 173.326704 79.937728 
L 173.712525 72.805529 
L 174.098346 77.305445 
L 174.484167 70.173246 
L 174.869988 74.673163 
L 175.255808 67.540964 
L 175.641629 72.04088 
L 176.02745 64.908681 
L 176.413271 69.408598 
L 176.799092 62.276399 
L 177.184913 66.776316 
L 177.570733 59.644117 
L 178.728196 73.143866 
L 179.114017 66.011667 
L 181.814762 97.511083 
L 182.200583 90.378884 
L 182.586404 94.878801 
L 182.972225 87.746602 
L 183.743866 96.746435 
L 184.129687 89.614236 
L 184.515508 94.114152 
L 184.901329 86.981953 
L 185.28715 91.48187 
L 185.67297 84.349671 
L 187.216254 102.349337 
L 187.602074 95.217138 
L 188.373716 104.216971 
L 188.759537 97.084772 
L 190.688641 119.584355 
L 191.074462 112.452156 
L 192.231924 125.951906 
L 192.617745 118.819707 
L 193.775207 132.319456 
L 194.161028 125.187257 
L 194.546849 129.687174 
L 194.93267 122.554975 
L 195.318491 127.054892 
L 195.704311 119.922693 
L 198.405057 151.422108 
L 198.790878 144.289909 
L 199.562519 153.289743 
L 199.94834 146.157544 
L 200.719982 155.157377 
L 201.105803 148.025178 
L 201.491624 152.525094 
L 201.877444 145.392895 
L 202.263265 149.892812 
L 202.649086 142.760613 
L 203.420728 151.760446 
L 203.806548 144.628247 
L 204.57819 153.62808 
L 204.964011 146.495881 
L 205.349832 150.995798 
L 205.735652 143.863599 
L 206.121473 148.363515 
L 206.507294 141.231316 
L 208.436398 163.730899 
L 208.822219 156.5987 
L 209.593861 165.598533 
L 209.979681 158.466334 
L 210.365502 162.966251 
L 210.751323 155.834052 
L 211.137144 160.333968 
L 211.522965 153.201769 
L 211.908785 157.701686 
L 212.294606 150.569487 
L 212.680427 155.069403 
L 213.066248 147.937204 
L 214.22371 161.436954 
L 214.609531 154.304755 
L 214.995352 158.804672 
L 215.381173 151.672473 
L 216.538635 165.172222 
L 216.924456 158.040023 
L 218.081918 171.539773 
L 218.467739 164.407574 
L 221.168485 195.90699 
L 221.554306 188.774791 
L 222.325947 197.774624 
L 222.711768 190.642425 
L 223.097589 195.142341 
L 223.48341 188.010142 
L 223.86923 192.510059 
L 224.255051 185.377859 
L 224.640872 189.877776 
L 225.026693 182.745577 
L 225.412514 187.245494 
L 225.798335 180.113294 
L 226.184155 184.613211 
L 226.569976 177.481012 
L 228.49908 199.980595 
L 228.884901 192.848396 
L 229.656543 201.848229 
L 230.042363 194.716029 
L 230.428184 199.215946 
L 230.814005 192.083747 
L 231.585647 201.08358 
L 231.971467 193.95138 
L 232.357288 198.451297 
L 232.743109 191.319098 
L 233.900572 204.818847 
L 234.286392 197.686648 
L 234.672213 202.186564 
L 235.058034 195.054365 
L 236.215496 208.554115 
L 236.601317 201.421915 
L 237.75878 214.921664 
L 238.1446 207.789462 
L 238.530421 212.289379 
L 238.916242 205.157178 
L 239.302063 209.657095 
L 239.687884 202.524894 
L 240.073704 207.024811 
L 240.459525 199.892611 
L 240.845346 204.392528 
L 241.231167 197.260328 
L 242.388629 210.760078 
L 242.77445 203.627877 
L 243.160271 208.127794 
L 243.546092 200.995594 
L 243.931913 205.49551 
L 244.317733 198.363311 
L 246.246837 220.862894 
L 246.632658 213.730687 
L 247.790121 227.230437 
L 248.175941 220.098219 
L 249.333404 233.597969 
L 249.719225 226.46572 
L 250.105046 230.965636 
L 250.490866 223.833404 
L 250.876687 228.33332 
L 251.262508 221.201099 
L 251.648329 225.701016 
L 252.03415 218.568802 
L 252.41997 223.068718 
L 252.805791 215.936509 
L 254.349074 233.936176 
L 254.734895 226.803924 
L 255.120716 231.30384 
L 255.506537 224.171606 
L 256.663999 237.671356 
L 257.04982 230.539063 
L 257.435641 235.038979 
L 257.821462 227.906718 
L 258.207283 232.406634 
L 258.593103 225.274393 
L 259.364745 234.274227 
L 259.750566 227.141972 
L 260.136387 231.641888 
L 260.522207 224.509652 
L 260.908028 229.009569 
L 261.293849 221.877345 
L 262.451311 235.377095 
L 262.837132 228.24483 
L 263.222953 232.744746 
L 263.608774 225.612503 
L 265.152057 243.612169 
L 265.537878 236.479736 
L 266.30952 245.479569 
L 266.69534 238.347057 
L 267.466982 247.34689 
L 267.852803 240.214274 
L 268.624444 249.214107 
L 269.010265 242.081351 
L 269.781907 251.081184 
L 270.167728 243.948244 
L 271.711011 261.94791 
L 272.096832 254.811756 
L 272.482652 259.311672 
L 272.868473 252.176838 
L 274.797577 274.676421 
L 275.183398 267.516179 
L 276.340861 281.015928 
L 276.726681 273.809534 
L 277.884144 287.309284 
L 278.269965 279.983279 
L 278.655785 284.483196 
L 279.041606 277.224934 
L 279.813248 286.224768 
L 280.199069 278.928205 
L 281.356531 292.427955 
L 281.742352 284.876771 
L 283.285635 302.876437 
L 283.285635 302.876437 
" style="fill:none;stroke:#1f77b4;stroke-linecap:square;stroke-width:0.666667;"/>
   </g>
   <g id="line2d_14">
    <path clip-path="url(#pe9a09e19a0)" d="M 54.879716 170.934769 
L 55.265537 163.80257 
L 55.651358 168.302487 
L 56.037178 161.170288 
L 56.422999 165.670204 
L 56.80882 158.538005 
L 57.194641 163.037922 
L 57.580462 155.905723 
L 57.966282 160.405639 
L 58.352103 153.27344 
L 58.737924 157.773357 
L 59.123745 150.641158 
L 59.895386 159.640991 
L 60.281207 152.508792 
L 61.052849 161.508625 
L 61.43867 154.376426 
L 62.210311 163.376259 
L 62.596132 156.24406 
L 63.367774 165.243893 
L 63.753595 158.111694 
L 64.139415 162.611611 
L 64.525236 155.479412 
L 66.068519 173.479078 
L 66.45434 166.346879 
L 67.225982 175.346712 
L 67.611803 168.214513 
L 68.383444 177.214346 
L 68.769265 170.082147 
L 69.926727 183.581897 
L 70.312548 176.449698 
L 70.698369 180.949615 
L 71.08419 173.817415 
L 71.470011 178.317332 
L 71.855832 171.185133 
L 72.241652 175.68505 
L 72.627473 168.552851 
L 73.013294 173.052767 
L 73.399115 165.920568 
L 73.784936 170.420485 
L 74.170756 163.288286 
L 74.556577 167.788202 
L 74.942398 160.656003 
L 75.328219 165.15592 
L 75.71404 158.023721 
L 76.485681 167.023554 
L 76.871502 159.891355 
L 77.257323 164.391271 
L 77.643144 157.259072 
L 78.028964 161.758989 
L 78.414785 154.62679 
L 78.800606 159.126707 
L 79.186427 151.994508 
L 79.572248 156.494424 
L 79.958069 149.362225 
L 80.343889 153.862142 
L 80.72971 146.729943 
L 81.115531 151.229859 
L 81.501352 144.09766 
L 82.272993 153.097493 
L 82.658814 145.965294 
L 83.044635 150.465211 
L 83.430456 143.333012 
L 83.816277 147.832928 
L 84.202097 140.700729 
L 84.587918 145.200646 
L 84.973739 138.068447 
L 85.35956 142.568364 
L 85.745381 135.436165 
L 86.131201 139.936081 
L 86.517022 132.803882 
L 86.902843 137.303799 
L 87.288664 130.1716 
L 87.674485 134.671516 
L 88.060306 127.539317 
L 89.98941 150.0389 
L 90.37523 142.906701 
L 90.761051 147.406618 
L 91.146872 140.274419 
L 91.532693 144.774335 
L 91.918514 137.642136 
L 92.304334 142.142053 
L 92.690155 135.009854 
L 93.075976 139.50977 
L 93.461797 132.377571 
L 93.847618 136.877488 
L 94.233438 129.745289 
L 95.00508 138.745122 
L 95.390901 131.612923 
L 95.776722 136.112839 
L 96.162543 128.98064 
L 96.548363 133.480557 
L 96.934184 126.348358 
L 97.320005 130.848275 
L 97.705826 123.716076 
L 98.477467 132.715909 
L 98.863288 125.58371 
L 99.63493 134.583543 
L 100.020751 127.451344 
L 100.792392 136.451177 
L 101.178213 129.318978 
L 101.564034 133.818894 
L 101.949855 126.686695 
L 103.107317 140.186445 
L 103.493138 133.054246 
L 103.878959 137.554163 
L 104.26478 130.421964 
L 104.6506 134.92188 
L 105.036421 127.789681 
L 106.579704 145.789348 
L 106.965525 138.657148 
L 107.737167 147.656982 
L 108.122988 140.524783 
L 108.508808 145.024699 
L 108.894629 137.8925 
L 109.666271 146.892333 
L 110.052092 139.760134 
L 110.437912 144.260051 
L 110.823733 137.127852 
L 111.209554 141.627768 
L 111.595375 134.495569 
L 111.981196 138.995486 
L 112.367017 131.863287 
L 113.138658 140.86312 
L 113.524479 133.730921 
L 114.296121 142.730754 
L 114.681941 135.598555 
L 115.067762 140.098472 
L 115.453583 132.966273 
L 116.225225 141.966106 
L 116.611045 134.833907 
L 116.996866 139.333823 
L 117.382687 132.201624 
L 117.768508 136.701541 
L 118.154329 129.569342 
L 118.92597 138.569175 
L 119.311791 131.436976 
L 119.697612 135.936893 
L 120.083433 128.804694 
L 120.855074 137.804527 
L 121.240895 130.672328 
L 122.398358 144.172077 
L 122.784178 137.039878 
L 123.55582 146.039712 
L 123.941641 138.907513 
L 124.327462 143.407429 
L 124.713282 136.27523 
L 125.484924 145.275063 
L 125.870745 138.142864 
L 126.256566 142.642781 
L 126.642386 135.510582 
L 127.028207 140.010498 
L 127.414028 132.878299 
L 128.18567 141.878132 
L 128.571491 134.745933 
L 128.957311 139.24585 
L 129.343132 132.113651 
L 130.114774 141.113484 
L 130.500595 133.981285 
L 131.658057 147.481035 
L 132.043878 140.348836 
L 133.587161 158.348502 
L 133.972982 151.216303 
L 134.744623 160.216136 
L 135.130444 153.083937 
L 135.516265 157.583854 
L 135.902086 150.451655 
L 136.287907 154.951571 
L 136.673728 147.819372 
L 137.445369 156.819205 
L 137.83119 149.687006 
L 138.217011 154.186923 
L 138.602832 147.054724 
L 138.988652 151.55464 
L 139.374473 144.422441 
L 139.760294 148.922358 
L 140.146115 141.790159 
L 140.917756 150.789992 
L 141.303577 143.657793 
L 142.075219 152.657626 
L 142.46104 145.525427 
L 142.84686 150.025344 
L 143.232681 142.893145 
L 143.618502 147.393061 
L 144.004323 140.260862 
L 144.390144 144.760779 
L 144.775965 137.62858 
L 145.547606 146.628413 
L 145.933427 139.496214 
L 146.705069 148.496047 
L 147.090889 141.363848 
L 147.47671 145.863765 
L 147.862531 138.731566 
L 148.248352 143.231482 
L 148.634173 136.099283 
L 149.019993 140.5992 
L 149.405814 133.467001 
L 150.177456 142.466834 
L 150.563277 135.334635 
L 151.334918 144.334468 
L 151.720739 137.202269 
L 152.492381 146.202102 
L 152.878202 139.069903 
L 153.264022 143.56982 
L 153.649843 136.437621 
L 154.035664 140.937537 
L 154.421485 133.805338 
L 155.578947 147.305088 
L 155.964768 140.172889 
L 157.508051 158.172555 
L 157.893872 151.040356 
L 158.279693 155.540273 
L 158.665514 148.408074 
L 159.051334 152.90799 
L 159.437155 145.775791 
L 160.208797 154.775624 
L 160.594618 147.643425 
L 161.366259 156.643259 
L 161.75208 149.51106 
L 162.137901 154.010976 
L 162.523722 146.878777 
L 162.909543 151.378694 
L 163.295363 144.246495 
L 163.681184 148.746411 
L 164.067005 141.614212 
L 164.452826 146.114129 
L 164.838647 138.98193 
L 165.224467 143.481846 
L 165.610288 136.349647 
L 167.153571 154.349314 
L 167.539392 147.217115 
L 167.925213 151.717031 
L 168.311034 144.584832 
L 169.468496 158.084582 
L 169.854317 150.952383 
L 170.625959 159.952216 
L 171.01178 152.820017 
L 171.3976 157.319933 
L 171.783421 150.187734 
L 172.169242 154.687651 
L 172.555063 147.555452 
L 172.940884 152.055369 
L 173.326704 144.92317 
L 173.712525 149.423086 
L 174.098346 142.290887 
L 176.02745 164.79047 
L 176.413271 157.658271 
L 176.799092 162.158188 
L 177.184913 155.025989 
L 177.570733 159.525905 
L 177.956554 152.393706 
L 178.342375 156.893623 
L 178.728196 149.761424 
L 179.114017 154.26134 
L 179.499837 147.129141 
L 179.885658 151.629058 
L 180.271479 144.496859 
L 181.043121 153.496692 
L 181.428941 146.364493 
L 182.200583 155.364326 
L 182.586404 148.232127 
L 183.358045 157.23196 
L 183.743866 150.099761 
L 184.515508 159.099594 
L 184.901329 151.967395 
L 185.67297 160.967228 
L 186.058791 153.835029 
L 186.444612 158.334946 
L 186.830433 151.202747 
L 187.216254 155.702663 
L 187.602074 148.570464 
L 187.987895 153.070381 
L 188.373716 145.938182 
L 188.759537 150.438099 
L 189.145358 143.3059 
L 189.916999 152.305733 
L 190.30282 145.173534 
L 190.688641 149.67345 
L 191.074462 142.541251 
L 191.460282 147.041168 
L 191.846103 139.908969 
L 192.231924 144.408885 
L 192.617745 137.276686 
L 193.003566 141.776603 
L 193.389387 134.644404 
L 194.161028 143.644237 
L 194.546849 136.512038 
L 194.93267 141.011955 
L 195.318491 133.879756 
L 195.704311 138.379672 
L 196.090132 131.247473 
L 196.861774 140.247306 
L 197.247595 133.115107 
L 197.633415 137.615024 
L 198.019236 130.482825 
L 198.790878 139.482658 
L 199.176699 132.350459 
L 199.562519 136.850375 
L 199.94834 129.718176 
L 200.719982 138.71801 
L 201.105803 131.585811 
L 201.877444 140.585644 
L 202.263265 133.453445 
L 203.034907 142.453278 
L 203.420728 135.321079 
L 203.806548 139.820995 
L 204.192369 132.688796 
L 204.57819 137.188713 
L 204.964011 130.056514 
L 205.735652 139.056347 
L 206.121473 131.924148 
L 206.507294 136.424065 
L 206.893115 129.291866 
L 207.664756 138.291699 
L 208.050577 131.1595 
L 208.436398 135.659416 
L 208.822219 128.527217 
L 209.20804 133.027134 
L 209.593861 125.894935 
L 210.365502 134.894768 
L 210.751323 127.762569 
L 212.294606 145.762235 
L 212.680427 138.630036 
L 213.452069 147.629869 
L 213.837889 140.49767 
L 214.22371 144.997587 
L 214.609531 137.865388 
L 215.381173 146.865221 
L 215.766993 139.733022 
L 216.152814 144.232938 
L 216.538635 137.100739 
L 216.924456 141.600656 
L 217.310277 134.468457 
L 218.081918 143.46829 
L 218.467739 136.336091 
L 218.85356 140.836008 
L 219.239381 133.703809 
L 220.011022 142.703642 
L 220.396843 135.571443 
L 220.782664 140.071359 
L 221.168485 132.93916 
L 221.940126 141.938994 
L 222.325947 134.806794 
L 223.48341 148.306544 
L 223.86923 141.174345 
L 224.640872 150.174178 
L 225.026693 143.041979 
L 225.412514 147.541896 
L 225.798335 140.409697 
L 226.184155 144.909613 
L 226.569976 137.777414 
L 226.955797 142.277331 
L 227.341618 135.145132 
L 228.884901 153.144798 
L 229.270722 146.012599 
L 230.042363 155.012432 
L 230.428184 147.880233 
L 230.814005 152.38015 
L 231.199826 145.247951 
L 231.585647 149.747867 
L 231.971467 142.615668 
L 232.357288 147.115585 
L 232.743109 139.983386 
L 234.286392 157.983052 
L 234.672213 150.850853 
L 235.058034 155.35077 
L 235.443855 148.218571 
L 235.829676 152.718487 
L 236.215496 145.586288 
L 236.601317 150.086205 
L 236.987138 142.954006 
L 237.372959 147.453922 
L 237.75878 140.321723 
L 238.530421 149.321557 
L 238.916242 142.189358 
L 240.073704 155.689107 
L 240.459525 148.556908 
L 241.231167 157.556741 
L 241.616988 150.424542 
L 242.002809 154.924459 
L 242.388629 147.79226 
L 242.77445 152.292176 
L 243.160271 145.159977 
L 244.317733 158.659727 
L 244.703554 151.527528 
L 245.475196 160.527361 
L 245.861017 153.395162 
L 247.018479 166.894912 
L 247.4043 159.762713 
L 247.790121 164.26263 
L 248.175941 157.13043 
L 250.105046 179.630013 
L 250.490866 172.497814 
L 251.262508 181.497647 
L 251.648329 174.365448 
L 252.03415 178.865365 
L 252.41997 171.733166 
L 252.805791 176.233082 
L 253.191612 169.100883 
L 253.577433 173.6008 
L 253.963254 166.468601 
L 254.349074 170.968518 
L 254.734895 163.836319 
L 255.506537 172.836152 
L 255.892358 165.703953 
L 256.278178 170.203869 
L 256.663999 163.07167 
L 257.04982 167.571587 
L 257.435641 160.439388 
L 257.821462 164.939304 
L 258.207283 157.807105 
L 258.593103 162.307022 
L 258.978924 155.174823 
L 259.750566 164.174656 
L 260.136387 157.042457 
L 260.908028 166.04229 
L 261.293849 158.910091 
L 261.67967 163.410008 
L 262.065491 156.277809 
L 262.837132 165.277642 
L 263.222953 158.145443 
L 263.994595 167.145276 
L 264.380415 160.013077 
L 265.152057 169.01291 
L 265.537878 161.880711 
L 266.30952 170.880544 
L 266.69534 163.748345 
L 267.852803 177.248095 
L 268.238624 170.115896 
L 268.624444 174.615812 
L 269.010265 167.483613 
L 269.396086 171.98353 
L 269.781907 164.851331 
L 270.553548 173.851164 
L 270.939369 166.718965 
L 272.096832 180.218715 
L 272.482652 173.086516 
L 272.868473 177.586432 
L 273.254294 170.454233 
L 273.640115 174.95415 
L 274.025936 167.821951 
L 274.411757 172.321867 
L 274.797577 165.189668 
L 275.183398 169.689585 
L 275.569219 162.557386 
L 276.340861 171.557219 
L 276.726681 164.42502 
L 278.269965 182.424686 
L 278.655785 175.292487 
L 279.041606 179.792404 
L 279.427427 172.660205 
L 279.813248 177.160121 
L 280.199069 170.027922 
L 280.97071 179.027755 
L 281.356531 171.895556 
L 281.742352 176.395473 
L 282.128173 169.263274 
L 282.513994 173.763191 
L 282.899814 166.630992 
L 283.285635 171.130908 
L 283.671456 163.998709 
L 284.443098 172.998542 
L 284.828918 165.866343 
L 285.214739 170.36626 
L 285.60056 163.234061 
L 285.986381 167.733977 
L 286.372202 160.601778 
L 287.143843 169.601611 
L 287.529664 162.469412 
L 289.072947 180.469079 
L 289.458768 173.33688 
L 289.844589 177.836796 
L 290.23041 170.704597 
L 290.616231 175.204514 
L 291.002051 168.072315 
L 291.387872 172.572231 
L 291.773693 165.440032 
L 292.159514 169.939949 
L 292.545335 162.80775 
L 293.316976 171.807583 
L 293.702797 164.675384 
L 294.088618 169.175301 
L 294.474439 162.043101 
L 294.860259 166.543018 
L 295.24608 159.410819 
L 296.017722 168.410652 
L 296.403543 161.278453 
L 296.789363 165.77837 
L 297.175184 158.646171 
L 298.332647 172.14592 
L 298.718468 165.013721 
L 299.490109 174.013555 
L 299.87593 166.881355 
L 301.419213 184.881022 
L 301.805034 177.748823 
L 302.190855 182.248739 
L 302.576676 175.11654 
L 303.348317 184.116373 
L 303.734138 176.984174 
L 304.119959 181.484091 
L 304.50578 174.351892 
L 305.663242 187.851642 
L 306.049063 180.719443 
L 306.820705 189.719276 
L 307.206525 182.587077 
L 307.978167 191.58691 
L 308.363988 184.454711 
L 309.52145 197.95446 
L 309.907271 190.822261 
L 310.293092 195.322178 
L 310.678913 188.189979 
L 311.064733 192.689895 
L 311.450554 185.557696 
L 311.836375 190.057613 
L 312.222196 182.925413 
L 312.608017 187.42533 
L 312.993837 180.293131 
L 313.765479 189.292964 
L 314.1513 182.160765 
L 314.922942 191.160598 
L 315.308762 184.028399 
L 315.694583 188.528316 
L 316.080404 181.396117 
L 316.466225 185.896033 
L 316.852046 178.763834 
L 317.237866 183.263751 
L 317.623687 176.131552 
L 318.009508 180.631468 
L 318.395329 173.499269 
L 319.16697 182.499102 
L 319.552791 175.366903 
L 320.324433 184.366736 
L 320.710254 177.234537 
L 321.096074 181.734454 
L 321.481895 174.602255 
L 321.867716 179.102171 
L 322.253537 171.969972 
L 322.639358 176.469889 
L 323.025179 169.33769 
L 323.410999 173.837607 
L 323.79682 166.705408 
L 324.568462 175.705241 
L 324.954283 168.573042 
L 325.340103 173.072958 
L 325.725924 165.940759 
L 326.111745 170.440676 
L 326.497566 163.308477 
L 327.269207 172.30831 
L 327.655028 165.176111 
L 328.040849 169.676027 
L 328.42667 162.543828 
L 329.584132 176.043578 
L 329.969953 168.911379 
L 330.355774 173.411296 
L 330.741595 166.279097 
L 335.371444 220.278095 
L 335.757265 213.14589 
L 336.528907 222.145723 
L 336.914728 215.013515 
L 337.300548 219.513432 
L 337.686369 212.381227 
L 338.07219 216.881144 
L 338.458011 209.748941 
L 338.843832 214.248858 
L 339.229653 207.116656 
L 339.615473 211.616573 
L 340.001294 204.484372 
L 340.772936 213.484205 
L 341.158757 206.352004 
L 341.544577 210.85192 
L 341.930398 203.71972 
L 342.316219 208.219636 
L 342.70204 201.087436 
L 343.473681 210.087269 
L 343.859502 202.955069 
L 344.245323 207.454986 
L 344.631144 200.322786 
L 345.016965 204.822702 
L 345.402785 197.690503 
L 346.174427 206.690336 
L 346.560248 199.558136 
L 346.946069 204.058053 
L 347.33189 196.925853 
L 347.71771 201.42577 
L 348.103531 194.29357 
L 349.646814 212.293237 
L 350.032635 205.161036 
L 351.575918 223.160702 
L 351.961739 216.028493 
L 352.34756 220.528409 
L 352.733381 213.396204 
L 353.119202 217.89612 
L 353.505022 210.763917 
L 354.276664 219.76375 
L 354.662485 212.631545 
L 355.048306 217.131461 
L 355.434127 209.999258 
L 355.819947 214.499175 
L 356.205768 207.366973 
L 356.591589 211.86689 
L 356.97741 204.734689 
L 357.749051 213.734522 
L 358.134872 206.602321 
L 358.906514 215.602154 
L 359.292335 208.469952 
L 359.678155 212.969868 
L 360.063976 205.837667 
L 360.449797 210.337584 
L 360.835618 203.205384 
L 362.378901 221.20505 
L 362.764722 214.072843 
L 365.465468 245.572259 
L 365.851288 238.439743 
L 366.237109 242.939659 
L 366.62293 235.807249 
L 367.008751 240.307165 
L 367.394572 233.174825 
L 367.780392 237.674742 
L 368.166213 230.542449 
L 368.552034 235.042365 
L 368.937855 227.910103 
L 369.709496 236.909937 
L 370.095317 229.777654 
L 370.481138 234.27757 
L 370.866959 227.145316 
L 371.25278 231.645232 
L 371.638601 224.512996 
L 373.567705 247.012579 
L 373.953525 239.879983 
L 374.339346 244.3799 
L 374.725167 237.247437 
L 375.882629 250.747186 
L 376.26845 243.614283 
L 376.654271 248.114199 
L 377.040092 240.981531 
L 377.425913 245.481447 
L 377.811733 238.348935 
L 378.197554 242.848852 
L 378.583375 235.716444 
L 378.969196 240.216361 
L 379.355017 233.084022 
L 379.740838 237.583939 
L 380.126658 230.451647 
L 380.512479 234.951564 
L 380.8983 227.819303 
L 381.284121 232.319219 
L 381.669942 225.186979 
L 382.055762 229.686896 
L 382.441583 222.554669 
L 382.827404 227.054586 
L 383.213225 219.922368 
L 383.984866 228.922202 
L 384.370687 221.789978 
L 385.52815 235.289728 
L 385.91397 228.157464 
L 386.299791 232.65738 
L 386.685612 225.525138 
L 387.071433 230.025054 
L 387.457254 222.892826 
L 387.843075 227.392743 
L 388.228895 220.260525 
L 388.614716 224.760441 
L 389.000537 217.628229 
L 389.386358 222.128146 
L 389.772179 214.995938 
L 390.54382 223.995771 
L 390.929641 216.863561 
L 391.315462 221.363478 
L 391.701283 214.231271 
L 392.087103 218.731187 
L 392.472924 211.598983 
L 393.630387 225.098733 
L 394.016207 217.966521 
L 394.787849 226.966354 
L 395.17367 219.834137 
L 395.945312 228.83397 
L 396.331132 221.701747 
L 397.102774 230.70158 
L 397.488595 223.569349 
L 397.874416 228.069265 
L 398.260236 220.937045 
L 399.031878 229.936878 
L 399.417699 222.80465 
L 400.575161 236.3044 
L 400.960982 229.172125 
L 401.732624 238.171958 
L 402.118444 231.039657 
L 402.504265 235.539574 
L 402.890086 228.407307 
L 403.661728 237.40714 
L 404.047549 230.274851 
L 404.433369 234.774768 
L 404.81919 227.642508 
L 406.748294 250.142091 
L 407.134115 243.00925 
L 407.519936 247.509167 
L 407.905757 240.37654 
L 408.677398 249.376373 
L 409.063219 242.243604 
L 409.834861 251.243437 
L 410.220681 244.110477 
L 411.378144 257.610227 
L 411.763965 250.476 
L 412.149786 254.975916 
L 412.535606 247.842366 
L 413.307248 256.842199 
L 413.693069 249.708198 
L 414.46471 258.708032 
L 414.850531 251.573431 
L 416.393814 269.573098 
L 416.779635 262.428106 
L 417.551277 271.42794 
L 417.937098 264.278723 
L 418.322918 268.77864 
L 418.708739 261.635121 
L 419.09456 266.135038 
L 419.480381 258.995303 
L 419.866202 263.495219 
L 420.252023 256.358001 
L 420.637843 260.857918 
L 421.023664 253.722375 
L 421.409485 258.222292 
L 421.795306 251.087865 
L 422.181127 255.587781 
L 422.566947 248.454097 
L 423.338589 257.45393 
L 423.72441 250.319752 
L 425.267693 268.319418 
L 425.653514 261.176671 
L 426.810976 274.676421 
L 427.196797 267.516179 
L 428.35426 281.015928 
L 428.74008 273.809534 
L 429.897543 287.309284 
L 430.283364 279.983279 
L 430.669184 284.483196 
L 431.055005 277.224934 
L 431.826647 286.224768 
L 432.212468 278.928205 
L 433.36993 292.427955 
L 433.755751 284.876771 
L 435.299034 302.876437 
L 435.299034 302.876437 
" style="fill:none;stroke:#ff7f0e;stroke-linecap:square;stroke-width:0.666667;"/>
   </g>
   <g id="patch_3">
    <path d="M 35.85875 316.4425 
L 35.85875 17.989125 
" style="fill:none;stroke:#000000;stroke-linecap:square;stroke-linejoin:miter;stroke-width:0.8;"/>
   </g>
   <g id="patch_4">
    <path d="M 454.32 316.4425 
L 454.32 17.989125 
" style="fill:none;stroke:#000000;stroke-linecap:square;stroke-linejoin:miter;stroke-width:0.8;"/>
   </g>
   <g id="patch_5">
    <path d="M 35.85875 316.4425 
L 454.32 316.4425 
" style="fill:none;stroke:#000000;stroke-linecap:square;stroke-linejoin:miter;stroke-width:0.8;"/>
   </g>
   <g id="patch_6">
    <path d="M 35.85875 17.989125 
L 454.32 17.989125 
" style="fill:none;stroke:#000000;stroke-linecap:square;stroke-linejoin:miter;stroke-width:0.8;"/>
   </g>
   <g id="text_15">
    <!-- "3y+1" problem -->
    <g transform="translate(214.747 11.989125)scale(0.072 -0.072)">
     <defs>
      <path d="M 43.703125 72.90625 
L 43.703125 45.796875 
L 35.203125 45.796875 
L 35.203125 72.90625 
z
M 25 72.90625 
L 25 45.796875 
L 16.5 45.796875 
L 16.5 72.90625 
z
" id="DejaVuSansMono-34"/>
      <path d="M 37.890625 39.015625 
Q 45.0625 37.109375 48.875 32.25 
Q 52.6875 27.390625 52.6875 20.125 
Q 52.6875 10.0625 45.921875 4.3125 
Q 39.15625 -1.421875 27.203125 -1.421875 
Q 22.171875 -1.421875 16.9375 -0.484375 
Q 11.71875 0.4375 6.6875 2.203125 
L 6.6875 12.015625 
Q 11.671875 9.421875 16.5 8.15625 
Q 21.34375 6.890625 26.125 6.890625 
Q 34.234375 6.890625 38.578125 10.546875 
Q 42.921875 14.203125 42.921875 21.09375 
Q 42.921875 27.4375 38.578125 31.171875 
Q 34.234375 34.90625 26.8125 34.90625 
L 19.28125 34.90625 
L 19.28125 43.015625 
L 26.8125 43.015625 
Q 33.59375 43.015625 37.40625 45.984375 
Q 41.21875 48.96875 41.21875 54.296875 
Q 41.21875 59.90625 37.671875 62.90625 
Q 34.125 65.921875 27.59375 65.921875 
Q 23.25 65.921875 18.609375 64.9375 
Q 13.96875 63.96875 8.890625 62.015625 
L 8.890625 71.09375 
Q 14.796875 72.65625 19.40625 73.4375 
Q 24.03125 74.21875 27.59375 74.21875 
Q 38.234375 74.21875 44.609375 68.875 
Q 50.984375 63.53125 50.984375 54.6875 
Q 50.984375 48.6875 47.625 44.671875 
Q 44.28125 40.671875 37.890625 39.015625 
z
" id="DejaVuSansMono-51"/>
      <path d="M 34.1875 57.171875 
L 34.1875 35.5 
L 55.90625 35.5 
L 55.90625 27.203125 
L 34.1875 27.203125 
L 34.1875 5.515625 
L 25.984375 5.515625 
L 25.984375 27.203125 
L 4.296875 27.203125 
L 4.296875 35.5 
L 25.984375 35.5 
L 25.984375 57.171875 
z
" id="DejaVuSansMono-43"/>
      <path id="DejaVuSansMono-32"/>
      <path d="M 18.3125 6.890625 
L 18.3125 -20.796875 
L 9.28125 -20.796875 
L 9.28125 54.6875 
L 18.3125 54.6875 
L 18.3125 47.703125 
Q 20.5625 51.765625 24.296875 53.875 
Q 28.03125 56 32.90625 56 
Q 42.828125 56 48.46875 48.328125 
Q 54.109375 40.671875 54.109375 27.09375 
Q 54.109375 13.765625 48.4375 6.171875 
Q 42.78125 -1.421875 32.90625 -1.421875 
Q 27.9375 -1.421875 24.1875 0.703125 
Q 20.453125 2.828125 18.3125 6.890625 
z
M 44.671875 27.296875 
Q 44.671875 37.75 41.375 43.0625 
Q 38.09375 48.390625 31.59375 48.390625 
Q 25.046875 48.390625 21.671875 43.046875 
Q 18.3125 37.703125 18.3125 27.296875 
Q 18.3125 16.9375 21.671875 11.5625 
Q 25.046875 6.203125 31.59375 6.203125 
Q 38.09375 6.203125 41.375 11.515625 
Q 44.671875 16.84375 44.671875 27.296875 
z
" id="DejaVuSansMono-112"/>
      <path d="M 56.390625 43.40625 
Q 53.515625 45.65625 50.53125 46.671875 
Q 47.5625 47.703125 44 47.703125 
Q 35.59375 47.703125 31.140625 42.421875 
Q 26.703125 37.15625 26.703125 27.203125 
L 26.703125 0 
L 17.671875 0 
L 17.671875 54.6875 
L 26.703125 54.6875 
L 26.703125 44 
Q 28.953125 49.8125 33.609375 52.90625 
Q 38.28125 56 44.671875 56 
Q 48 56 50.875 55.171875 
Q 53.765625 54.34375 56.390625 52.59375 
z
" id="DejaVuSansMono-114"/>
      <path d="M 30.078125 48.390625 
Q 23.25 48.390625 19.734375 43.0625 
Q 16.21875 37.75 16.21875 27.296875 
Q 16.21875 16.890625 19.734375 11.546875 
Q 23.25 6.203125 30.078125 6.203125 
Q 36.96875 6.203125 40.484375 11.546875 
Q 44 16.890625 44 27.296875 
Q 44 37.75 40.484375 43.0625 
Q 36.96875 48.390625 30.078125 48.390625 
z
M 30.078125 56 
Q 41.453125 56 47.484375 48.625 
Q 53.515625 41.265625 53.515625 27.296875 
Q 53.515625 13.28125 47.5 5.921875 
Q 41.5 -1.421875 30.078125 -1.421875 
Q 18.703125 -1.421875 12.6875 5.921875 
Q 6.6875 13.28125 6.6875 27.296875 
Q 6.6875 41.265625 12.6875 48.625 
Q 18.703125 56 30.078125 56 
z
" id="DejaVuSansMono-111"/>
      <path d="M 44.828125 27.296875 
Q 44.828125 37.75 41.5 43.0625 
Q 38.1875 48.390625 31.6875 48.390625 
Q 25.140625 48.390625 21.765625 43.046875 
Q 18.40625 37.703125 18.40625 27.296875 
Q 18.40625 16.9375 21.765625 11.5625 
Q 25.140625 6.203125 31.6875 6.203125 
Q 38.1875 6.203125 41.5 11.515625 
Q 44.828125 16.84375 44.828125 27.296875 
z
M 18.40625 47.703125 
Q 20.5625 51.703125 24.34375 53.84375 
Q 28.125 56 33.109375 56 
Q 42.96875 56 48.625 48.40625 
Q 54.296875 40.828125 54.296875 27.484375 
Q 54.296875 13.96875 48.609375 6.265625 
Q 42.921875 -1.421875 33.015625 -1.421875 
Q 28.125 -1.421875 24.390625 0.703125 
Q 20.65625 2.828125 18.40625 6.890625 
L 18.40625 0 
L 9.421875 0 
L 9.421875 75.984375 
L 18.40625 75.984375 
z
" id="DejaVuSansMono-98"/>
      <path d="M 31.203125 19.828125 
Q 31.203125 13.765625 33.421875 10.6875 
Q 35.640625 7.625 39.984375 7.625 
L 50.484375 7.625 
L 50.484375 0 
L 39.109375 0 
Q 31.0625 0 26.640625 5.171875 
Q 22.21875 10.359375 22.21875 19.828125 
L 22.21875 69.484375 
L 7.8125 69.484375 
L 7.8125 76.515625 
L 31.203125 76.515625 
z
" id="DejaVuSansMono-108"/>
      <path d="M 54.296875 29.59375 
L 54.296875 25.203125 
L 15.375 25.203125 
L 15.375 24.90625 
Q 15.375 15.96875 20.03125 11.078125 
Q 24.703125 6.203125 33.203125 6.203125 
Q 37.5 6.203125 42.1875 7.5625 
Q 46.875 8.9375 52.203125 11.71875 
L 52.203125 2.78125 
Q 47.078125 0.6875 42.3125 -0.359375 
Q 37.546875 -1.421875 33.109375 -1.421875 
Q 20.359375 -1.421875 13.171875 6.21875 
Q 6 13.875 6 27.296875 
Q 6 40.375 13.03125 48.1875 
Q 20.0625 56 31.78125 56 
Q 42.234375 56 48.265625 48.921875 
Q 54.296875 41.84375 54.296875 29.59375 
z
M 45.3125 32.234375 
Q 45.125 40.140625 41.578125 44.265625 
Q 38.03125 48.390625 31.390625 48.390625 
Q 24.90625 48.390625 20.703125 44.09375 
Q 16.5 39.796875 15.71875 32.171875 
z
" id="DejaVuSansMono-101"/>
      <path d="M 33.015625 49.125 
Q 34.671875 52.640625 37.234375 54.3125 
Q 39.796875 56 43.40625 56 
Q 50 56 52.703125 50.890625 
Q 55.421875 45.796875 55.421875 31.6875 
L 55.421875 0 
L 47.21875 0 
L 47.21875 31.296875 
Q 47.21875 42.875 45.921875 45.671875 
Q 44.625 48.484375 41.21875 48.484375 
Q 37.3125 48.484375 35.859375 45.484375 
Q 34.421875 42.484375 34.421875 31.296875 
L 34.421875 0 
L 26.21875 0 
L 26.21875 31.296875 
Q 26.21875 43.015625 24.828125 45.75 
Q 23.4375 48.484375 19.828125 48.484375 
Q 16.265625 48.484375 14.875 45.484375 
Q 13.484375 42.484375 13.484375 31.296875 
L 13.484375 0 
L 5.328125 0 
L 5.328125 54.6875 
L 13.484375 54.6875 
L 13.484375 50 
Q 15.09375 52.9375 17.5 54.46875 
Q 19.921875 56 23 56 
Q 26.703125 56 29.171875 54.296875 
Q 31.640625 52.59375 33.015625 49.125 
z
" id="DejaVuSansMono-109"/>
     </defs>
     <use xlink:href="#DejaVuSansMono-34"/>
     <use x="60.205078" xlink:href="#DejaVuSansMono-51"/>
     <use x="120.410156" xlink:href="#DejaVuSansMono-121"/>
     <use x="180.615234" xlink:href="#DejaVuSansMono-43"/>
     <use x="240.820312" xlink:href="#DejaVuSansMono-49"/>
     <use x="301.025391" xlink:href="#DejaVuSansMono-34"/>
     <use x="361.230469" xlink:href="#DejaVuSansMono-32"/>
     <use x="421.435547" xlink:href="#DejaVuSansMono-112"/>
     <use x="481.640625" xlink:href="#DejaVuSansMono-114"/>
     <use x="541.845703" xlink:href="#DejaVuSansMono-111"/>
     <use x="602.050781" xlink:href="#DejaVuSansMono-98"/>
     <use x="662.255859" xlink:href="#DejaVuSansMono-108"/>
     <use x="722.460938" xlink:href="#DejaVuSansMono-101"/>
     <use x="782.666016" xlink:href="#DejaVuSansMono-109"/>
    </g>
   </g>
   <g id="legend_1">
    <g id="patch_7">
     <path d="M 329.77875 82.0095 
L 450.12 82.0095 
Q 451.32 82.0095 451.32 80.8095 
L 451.32 22.189125 
Q 451.32 20.989125 450.12 20.989125 
L 329.77875 20.989125 
Q 328.57875 20.989125 328.57875 22.189125 
L 328.57875 80.8095 
Q 328.57875 82.0095 329.77875 82.0095 
z
" style="fill:#ffffff;opacity:0.8;stroke:#cccccc;stroke-linejoin:miter;"/>
    </g>
    <g id="line2d_15">
     <path d="M 330.97875 36.889687 
L 342.97875 36.889687 
" style="fill:none;stroke:#1f77b4;stroke-linecap:square;stroke-width:0.666667;"/>
    </g>
    <g id="line2d_16"/>
    <g id="text_16">
     <!-- "Tallest": -->
     <g transform="translate(347.77875 27.980062)scale(0.06 -0.06)">
      <defs>
       <path d="M 2.296875 72.90625 
L 57.90625 72.90625 
L 57.90625 64.59375 
L 35.109375 64.59375 
L 35.109375 0 
L 25.203125 0 
L 25.203125 64.59375 
L 2.296875 64.59375 
z
" id="DejaVuSansMono-84"/>
       <path d="M 34.28125 27.484375 
L 31.296875 27.484375 
Q 23.4375 27.484375 19.453125 24.71875 
Q 15.484375 21.96875 15.484375 16.5 
Q 15.484375 11.578125 18.453125 8.84375 
Q 21.4375 6.109375 26.703125 6.109375 
Q 34.125 6.109375 38.375 11.25 
Q 42.625 16.40625 42.671875 25.484375 
L 42.671875 27.484375 
z
M 51.703125 31.203125 
L 51.703125 0 
L 42.671875 0 
L 42.671875 8.109375 
Q 39.796875 3.21875 35.421875 0.890625 
Q 31.0625 -1.421875 24.8125 -1.421875 
Q 16.453125 -1.421875 11.46875 3.296875 
Q 6.5 8.015625 6.5 15.921875 
Q 6.5 25.046875 12.625 29.78125 
Q 18.75 34.515625 30.609375 34.515625 
L 42.671875 34.515625 
L 42.671875 35.9375 
Q 42.625 42.484375 39.34375 45.4375 
Q 36.078125 48.390625 28.90625 48.390625 
Q 24.3125 48.390625 19.625 47.0625 
Q 14.9375 45.75 10.5 43.21875 
L 10.5 52.203125 
Q 15.484375 54.109375 20.046875 55.046875 
Q 24.609375 56 28.90625 56 
Q 35.6875 56 40.5 54 
Q 45.3125 52 48.296875 48 
Q 50.140625 45.5625 50.921875 41.96875 
Q 51.703125 38.375 51.703125 31.203125 
z
" id="DejaVuSansMono-97"/>
       <path d="M 47.515625 52.78125 
L 47.515625 44 
Q 43.65625 46.234375 39.75 47.359375 
Q 35.84375 48.484375 31.78125 48.484375 
Q 25.6875 48.484375 22.671875 46.5 
Q 19.671875 44.53125 19.671875 40.484375 
Q 19.671875 36.8125 21.921875 35 
Q 24.171875 33.203125 33.109375 31.5 
L 36.71875 30.8125 
Q 43.40625 29.546875 46.84375 25.734375 
Q 50.296875 21.921875 50.296875 15.828125 
Q 50.296875 7.71875 44.53125 3.140625 
Q 38.765625 -1.421875 28.515625 -1.421875 
Q 24.46875 -1.421875 20.015625 -0.5625 
Q 15.578125 0.296875 10.40625 2 
L 10.40625 11.28125 
Q 15.4375 8.6875 20.015625 7.390625 
Q 24.609375 6.109375 28.71875 6.109375 
Q 34.671875 6.109375 37.9375 8.515625 
Q 41.21875 10.9375 41.21875 15.28125 
Q 41.21875 21.53125 29.25 23.921875 
L 28.859375 24.03125 
L 25.484375 24.703125 
Q 17.71875 26.21875 14.15625 29.8125 
Q 10.59375 33.40625 10.59375 39.59375 
Q 10.59375 47.46875 15.90625 51.734375 
Q 21.234375 56 31.109375 56 
Q 35.5 56 39.546875 55.1875 
Q 43.609375 54.390625 47.515625 52.78125 
z
" id="DejaVuSansMono-115"/>
       <path d="M 29.984375 70.21875 
L 29.984375 54.6875 
L 50.390625 54.6875 
L 50.390625 47.703125 
L 29.984375 47.703125 
L 29.984375 18.015625 
Q 29.984375 11.96875 32.28125 9.5625 
Q 34.578125 7.171875 40.28125 7.171875 
L 50.390625 7.171875 
L 50.390625 0 
L 39.40625 0 
Q 29.296875 0 25.140625 4.046875 
Q 21 8.109375 21 18.015625 
L 21 47.703125 
L 6.390625 47.703125 
L 6.390625 54.6875 
L 21 54.6875 
L 21 70.21875 
z
" id="DejaVuSansMono-116"/>
       <path d="M 23.875 51.90625 
L 36.1875 51.90625 
L 36.1875 37.109375 
L 23.875 37.109375 
z
M 23.875 14.890625 
L 36.1875 14.890625 
L 36.1875 0 
L 23.875 0 
z
" id="DejaVuSansMono-58"/>
      </defs>
      <use xlink:href="#DejaVuSansMono-34"/>
      <use x="60.205078" xlink:href="#DejaVuSansMono-84"/>
      <use x="120.410156" xlink:href="#DejaVuSansMono-97"/>
      <use x="180.615234" xlink:href="#DejaVuSansMono-108"/>
      <use x="240.820312" xlink:href="#DejaVuSansMono-108"/>
      <use x="301.025391" xlink:href="#DejaVuSansMono-101"/>
      <use x="361.230469" xlink:href="#DejaVuSansMono-115"/>
      <use x="421.435547" xlink:href="#DejaVuSansMono-116"/>
      <use x="481.640625" xlink:href="#DejaVuSansMono-34"/>
      <use x="541.845703" xlink:href="#DejaVuSansMono-58"/>
     </g>
     <!-- y_0    = 319804831 -->
     <g transform="translate(347.77875 34.737)scale(0.06 -0.06)">
      <defs>
       <path d="M 4.296875 25.59375 
L 55.90625 25.59375 
L 55.90625 17.1875 
L 4.296875 17.1875 
z
M 4.296875 45.40625 
L 55.90625 45.40625 
L 55.90625 37.109375 
L 4.296875 37.109375 
z
" id="DejaVuSansMono-61"/>
       <path d="M 29.109375 32.328125 
Q 35.40625 32.328125 38.984375 36.859375 
Q 42.578125 41.40625 42.578125 49.421875 
Q 42.578125 57.421875 38.984375 61.953125 
Q 35.40625 66.5 29.109375 66.5 
Q 22.5625 66.5 19.234375 62.171875 
Q 15.921875 57.859375 15.921875 49.421875 
Q 15.921875 40.921875 19.21875 36.625 
Q 22.515625 32.328125 29.109375 32.328125 
z
M 11.53125 1.515625 
L 11.53125 10.59375 
Q 14.59375 8.796875 18.0625 7.84375 
Q 21.53125 6.890625 25.296875 6.890625 
Q 34.671875 6.890625 39.46875 13.9375 
Q 44.28125 21 44.28125 34.71875 
Q 42 29.828125 37.84375 27.21875 
Q 33.6875 24.609375 28.328125 24.609375 
Q 17.78125 24.609375 11.984375 31.09375 
Q 6.203125 37.59375 6.203125 49.515625 
Q 6.203125 61.28125 12.125 67.75 
Q 18.0625 74.21875 28.90625 74.21875 
Q 41.609375 74.21875 47.515625 65.078125 
Q 53.421875 55.953125 53.421875 36.375 
Q 53.421875 17.96875 46.3125 8.265625 
Q 39.203125 -1.421875 25.6875 -1.421875 
Q 22.125 -1.421875 18.5 -0.65625 
Q 14.890625 0.09375 11.53125 1.515625 
z
" id="DejaVuSansMono-57"/>
      </defs>
      <use xlink:href="#DejaVuSansMono-121"/>
      <use x="60.205078" xlink:href="#DejaVuSansMono-95"/>
      <use x="120.410156" xlink:href="#DejaVuSansMono-48"/>
      <use x="180.615234" xlink:href="#DejaVuSansMono-32"/>
      <use x="240.820312" xlink:href="#DejaVuSansMono-32"/>
      <use x="301.025391" xlink:href="#DejaVuSansMono-32"/>
      <use x="361.230469" xlink:href="#DejaVuSansMono-32"/>
      <use x="421.435547" xlink:href="#DejaVuSansMono-61"/>
      <use x="481.640625" xlink:href="#DejaVuSansMono-32"/>
      <use x="541.845703" xlink:href="#DejaVuSansMono-51"/>
      <use x="602.050781" xlink:href="#DejaVuSansMono-49"/>
      <use x="662.255859" xlink:href="#DejaVuSansMono-57"/>
      <use x="722.460938" xlink:href="#DejaVuSansMono-56"/>
      <use x="782.666016" xlink:href="#DejaVuSansMono-48"/>
      <use x="842.871094" xlink:href="#DejaVuSansMono-52"/>
      <use x="903.076172" xlink:href="#DejaVuSansMono-56"/>
      <use x="963.28125" xlink:href="#DejaVuSansMono-51"/>
      <use x="1023.486328" xlink:href="#DejaVuSansMono-49"/>
     </g>
     <!-- y_max  = 1414236446719942480 -->
     <g transform="translate(347.77875 41.660812)scale(0.06 -0.06)">
      <defs>
       <path d="M 54.59375 54.6875 
L 35.015625 28.515625 
L 56.5 0 
L 46.09375 0 
L 30.078125 21.921875 
L 14.109375 0 
L 3.71875 0 
L 25.203125 28.515625 
L 5.609375 54.6875 
L 15.578125 54.6875 
L 30.078125 34.90625 
L 44.484375 54.6875 
z
" id="DejaVuSansMono-120"/>
      </defs>
      <use xlink:href="#DejaVuSansMono-121"/>
      <use x="60.205078" xlink:href="#DejaVuSansMono-95"/>
      <use x="120.410156" xlink:href="#DejaVuSansMono-109"/>
      <use x="180.615234" xlink:href="#DejaVuSansMono-97"/>
      <use x="240.820312" xlink:href="#DejaVuSansMono-120"/>
      <use x="301.025391" xlink:href="#DejaVuSansMono-32"/>
      <use x="361.230469" xlink:href="#DejaVuSansMono-32"/>
      <use x="421.435547" xlink:href="#DejaVuSansMono-61"/>
      <use x="481.640625" xlink:href="#DejaVuSansMono-32"/>
      <use x="541.845703" xlink:href="#DejaVuSansMono-49"/>
      <use x="602.050781" xlink:href="#DejaVuSansMono-52"/>
      <use x="662.255859" xlink:href="#DejaVuSansMono-49"/>
      <use x="722.460938" xlink:href="#DejaVuSansMono-52"/>
      <use x="782.666016" xlink:href="#DejaVuSansMono-50"/>
      <use x="842.871094" xlink:href="#DejaVuSansMono-51"/>
      <use x="903.076172" xlink:href="#DejaVuSansMono-54"/>
      <use x="963.28125" xlink:href="#DejaVuSansMono-52"/>
      <use x="1023.486328" xlink:href="#DejaVuSansMono-52"/>
      <use x="1083.691406" xlink:href="#DejaVuSansMono-54"/>
      <use x="1143.896484" xlink:href="#DejaVuSansMono-55"/>
      <use x="1204.101562" xlink:href="#DejaVuSansMono-49"/>
      <use x="1264.306641" xlink:href="#DejaVuSansMono-57"/>
      <use x="1324.511719" xlink:href="#DejaVuSansMono-57"/>
      <use x="1384.716797" xlink:href="#DejaVuSansMono-52"/>
      <use x="1444.921875" xlink:href="#DejaVuSansMono-50"/>
      <use x="1505.126953" xlink:href="#DejaVuSansMono-52"/>
      <use x="1565.332031" xlink:href="#DejaVuSansMono-56"/>
      <use x="1625.537109" xlink:href="#DejaVuSansMono-48"/>
     </g>
     <!-- x_max  = 593 -->
     <g transform="translate(347.77875 48.584625)scale(0.06 -0.06)">
      <use xlink:href="#DejaVuSansMono-120"/>
      <use x="60.205078" xlink:href="#DejaVuSansMono-95"/>
      <use x="120.410156" xlink:href="#DejaVuSansMono-109"/>
      <use x="180.615234" xlink:href="#DejaVuSansMono-97"/>
      <use x="240.820312" xlink:href="#DejaVuSansMono-120"/>
      <use x="301.025391" xlink:href="#DejaVuSansMono-32"/>
      <use x="361.230469" xlink:href="#DejaVuSansMono-32"/>
      <use x="421.435547" xlink:href="#DejaVuSansMono-61"/>
      <use x="481.640625" xlink:href="#DejaVuSansMono-32"/>
      <use x="541.845703" xlink:href="#DejaVuSansMono-53"/>
      <use x="602.050781" xlink:href="#DejaVuSansMono-57"/>
      <use x="662.255859" xlink:href="#DejaVuSansMono-51"/>
     </g>
    </g>
    <g id="line2d_17">
     <path d="M 330.97875 66.499875 
L 342.97875 66.499875 
" style="fill:none;stroke:#ff7f0e;stroke-linecap:square;stroke-width:0.666667;"/>
    </g>
    <g id="line2d_18"/>
    <g id="text_17">
     <!-- "Widest":  -->
     <g transform="translate(347.77875 57.59025)scale(0.06 -0.06)">
      <defs>
       <path d="M 0 72.90625 
L 9.625 72.90625 
L 16.609375 13.71875 
L 24.90625 52.875 
L 35.203125 52.875 
L 43.609375 13.625 
L 50.59375 72.90625 
L 60.203125 72.90625 
L 49.3125 0 
L 39.984375 0 
L 30.078125 43.3125 
L 20.21875 0 
L 10.890625 0 
z
" id="DejaVuSansMono-87"/>
       <path d="M 12.5 54.6875 
L 35.5 54.6875 
L 35.5 6.984375 
L 53.328125 6.984375 
L 53.328125 0 
L 8.6875 0 
L 8.6875 6.984375 
L 26.515625 6.984375 
L 26.515625 47.703125 
L 12.5 47.703125 
z
M 26.515625 75.984375 
L 35.5 75.984375 
L 35.5 64.59375 
L 26.515625 64.59375 
z
" id="DejaVuSansMono-105"/>
       <path d="M 41.890625 47.703125 
L 41.890625 75.984375 
L 50.875 75.984375 
L 50.875 0 
L 41.890625 0 
L 41.890625 6.890625 
Q 39.65625 2.828125 35.90625 0.703125 
Q 32.171875 -1.421875 27.296875 -1.421875 
Q 17.390625 -1.421875 11.6875 6.265625 
Q 6 13.96875 6 27.484375 
Q 6 40.828125 11.71875 48.40625 
Q 17.4375 56 27.296875 56 
Q 32.234375 56 35.984375 53.875 
Q 39.75 51.765625 41.890625 47.703125 
z
M 15.484375 27.296875 
Q 15.484375 16.84375 18.796875 11.515625 
Q 22.125 6.203125 28.609375 6.203125 
Q 35.109375 6.203125 38.5 11.5625 
Q 41.890625 16.9375 41.890625 27.296875 
Q 41.890625 37.703125 38.5 43.046875 
Q 35.109375 48.390625 28.609375 48.390625 
Q 22.125 48.390625 18.796875 43.0625 
Q 15.484375 37.75 15.484375 27.296875 
z
" id="DejaVuSansMono-100"/>
      </defs>
      <use xlink:href="#DejaVuSansMono-34"/>
      <use x="60.205078" xlink:href="#DejaVuSansMono-87"/>
      <use x="120.410156" xlink:href="#DejaVuSansMono-105"/>
      <use x="180.615234" xlink:href="#DejaVuSansMono-100"/>
      <use x="240.820312" xlink:href="#DejaVuSansMono-101"/>
      <use x="301.025391" xlink:href="#DejaVuSansMono-115"/>
      <use x="361.230469" xlink:href="#DejaVuSansMono-116"/>
      <use x="421.435547" xlink:href="#DejaVuSansMono-34"/>
      <use x="481.640625" xlink:href="#DejaVuSansMono-58"/>
      <use x="541.845703" xlink:href="#DejaVuSansMono-32"/>
     </g>
     <!-- y_0    = 670617279 -->
     <g transform="translate(347.77875 64.347187)scale(0.06 -0.06)">
      <use xlink:href="#DejaVuSansMono-121"/>
      <use x="60.205078" xlink:href="#DejaVuSansMono-95"/>
      <use x="120.410156" xlink:href="#DejaVuSansMono-48"/>
      <use x="180.615234" xlink:href="#DejaVuSansMono-32"/>
      <use x="240.820312" xlink:href="#DejaVuSansMono-32"/>
      <use x="301.025391" xlink:href="#DejaVuSansMono-32"/>
      <use x="361.230469" xlink:href="#DejaVuSansMono-32"/>
      <use x="421.435547" xlink:href="#DejaVuSansMono-61"/>
      <use x="481.640625" xlink:href="#DejaVuSansMono-32"/>
      <use x="541.845703" xlink:href="#DejaVuSansMono-54"/>
      <use x="602.050781" xlink:href="#DejaVuSansMono-55"/>
      <use x="662.255859" xlink:href="#DejaVuSansMono-48"/>
      <use x="722.460938" xlink:href="#DejaVuSansMono-54"/>
      <use x="782.666016" xlink:href="#DejaVuSansMono-49"/>
      <use x="842.871094" xlink:href="#DejaVuSansMono-55"/>
      <use x="903.076172" xlink:href="#DejaVuSansMono-50"/>
      <use x="963.28125" xlink:href="#DejaVuSansMono-55"/>
      <use x="1023.486328" xlink:href="#DejaVuSansMono-57"/>
     </g>
     <!-- y_max  = 966616035460 -->
     <g transform="translate(347.77875 71.271)scale(0.06 -0.06)">
      <use xlink:href="#DejaVuSansMono-121"/>
      <use x="60.205078" xlink:href="#DejaVuSansMono-95"/>
      <use x="120.410156" xlink:href="#DejaVuSansMono-109"/>
      <use x="180.615234" xlink:href="#DejaVuSansMono-97"/>
      <use x="240.820312" xlink:href="#DejaVuSansMono-120"/>
      <use x="301.025391" xlink:href="#DejaVuSansMono-32"/>
      <use x="361.230469" xlink:href="#DejaVuSansMono-32"/>
      <use x="421.435547" xlink:href="#DejaVuSansMono-61"/>
      <use x="481.640625" xlink:href="#DejaVuSansMono-32"/>
      <use x="541.845703" xlink:href="#DejaVuSansMono-57"/>
      <use x="602.050781" xlink:href="#DejaVuSansMono-54"/>
      <use x="662.255859" xlink:href="#DejaVuSansMono-54"/>
      <use x="722.460938" xlink:href="#DejaVuSansMono-54"/>
      <use x="782.666016" xlink:href="#DejaVuSansMono-49"/>
      <use x="842.871094" xlink:href="#DejaVuSansMono-54"/>
      <use x="903.076172" xlink:href="#DejaVuSansMono-48"/>
      <use x="963.28125" xlink:href="#DejaVuSansMono-51"/>
      <use x="1023.486328" xlink:href="#DejaVuSansMono-53"/>
      <use x="1083.691406" xlink:href="#DejaVuSansMono-52"/>
      <use x="1143.896484" xlink:href="#DejaVuSansMono-54"/>
      <use x="1204.101562" xlink:href="#DejaVuSansMono-48"/>
     </g>
     <!-- x_max  = 987 -->
     <g transform="translate(347.77875 78.194812)scale(0.06 -0.06)">
      <use xlink:href="#DejaVuSansMono-120"/>
      <use x="60.205078" xlink:href="#DejaVuSansMono-95"/>
      <use x="120.410156" xlink:href="#DejaVuSansMono-109"/>
      <use x="180.615234" xlink:href="#DejaVuSansMono-97"/>
      <use x="240.820312" xlink:href="#DejaVuSansMono-120"/>
      <use x="301.025391" xlink:href="#DejaVuSansMono-32"/>
      <use x="361.230469" xlink:href="#DejaVuSansMono-32"/>
      <use x="421.435547" xlink:href="#DejaVuSansMono-61"/>
      <use x="481.640625" xlink:href="#DejaVuSansMono-32"/>
      <use x="541.845703" xlink:href="#DejaVuSansMono-57"/>
      <use x="602.050781" xlink:href="#DejaVuSansMono-56"/>
      <use x="662.255859" xlink:href="#DejaVuSansMono-55"/>
     </g>
    </g>
   </g>
  </g>
 </g>
 <defs>
  <clipPath id="pe9a09e19a0">
   <rect height="298.453375" width="418.46125" x="35.85875" y="17.989125"/>
  </clipPath>
 </defs>
</svg>
